<?xml version="1.0" encoding="utf-8" standalone="no"?>
<!DOCTYPE svg PUBLIC "-//W3C//DTD SVG 1.1//EN"
  "http://www.w3.org/Graphics/SVG/1.1/DTD/svg11.dtd">
<svg xmlns:xlink="http://www.w3.org/1999/xlink" width="502.203241pt" height="291.3075pt" viewBox="0 0 502.203241 291.3075" xmlns="http://www.w3.org/2000/svg" version="1.1">
 <metadata>
  <rdf:RDF xmlns:dc="http://purl.org/dc/elements/1.1/" xmlns:cc="http://creativecommons.org/ns#" xmlns:rdf="http://www.w3.org/1999/02/22-rdf-syntax-ns#">
   <cc:Work>
    <dc:type rdf:resource="http://purl.org/dc/dcmitype/StillImage"/>
    <dc:date>2026-04-12T15:29:12.215937</dc:date>
    <dc:format>image/svg+xml</dc:format>
    <dc:creator>
     <cc:Agent>
      <dc:title>Matplotlib v3.10.8, https://matplotlib.org/</dc:title>
     </cc:Agent>
    </dc:creator>
   </cc:Work>
  </rdf:RDF>
 </metadata>
 <defs>
  <style type="text/css">*{stroke-linejoin: round; stroke-linecap: butt}</style>
 </defs>
 <g id="figure_1">
  <g id="patch_1">
   <path d="M 0 291.3075 
L 502.203241 291.3075 
L 502.203241 0 
L 0 0 
z
" style="fill: #ffffff"/>
  </g>
  <g id="axes_1">
   <g id="patch_2">
    <path d="M 37.731991 234.6675 
L 484.131991 234.6675 
L 484.131991 12.9075 
L 37.731991 12.9075 
z
" style="fill: #ffffff"/>
   </g>
   <g id="matplotlib.axis_1">
    <g id="xtick_1">
     <g id="line2d_1">
      <defs>
       <path id="m6878ac1c19" d="M 0 0 
L 0 3.5 
" style="stroke: #323034; stroke-width: 0.8"/>
      </defs>
      <g>
       <use xlink:href="#m6878ac1c19" x="37.731991" y="262.3875" style="fill: #323034; stroke: #323034; stroke-width: 0.8"/>
      </g>
     </g>
     <g id="text_1">
      <!-- -π -->
      <g style="fill: #323034" transform="translate(28.341991 280.8025) scale(0.16 -0.16)">
       <defs>
        <path id="Varta-Regular-2d" d="M 263 1413 
L 263 1794 
L 1725 1794 
L 1725 1413 
L 263 1413 
z
" transform="scale(0.015625)"/>
        <path id="Varta-Regular-3c0" d="M 553 0 
L 553 4425 
L 4978 4425 
L 4978 0 
L 553 0 
z
M 1747 788 
L 2759 1891 
L 3813 788 
L 4166 1141 
L 3078 2213 
L 4166 3256 
L 3794 3619 
L 2769 2522 
L 1728 3622 
L 1372 3259 
L 2447 2203 
L 1375 1209 
L 1747 788 
z
" transform="scale(0.015625)"/>
       </defs>
       <use xlink:href="#Varta-Regular-2d"/>
       <use xlink:href="#Varta-Regular-3c0" transform="translate(30.957031 0)"/>
      </g>
     </g>
    </g>
    <g id="xtick_2">
     <g id="line2d_2">
      <g>
       <use xlink:href="#m6878ac1c19" x="149.331991" y="262.3875" style="fill: #323034; stroke: #323034; stroke-width: 0.8"/>
      </g>
     </g>
     <g id="text_2">
      <!-- -π/2 -->
      <g style="fill: #323034" transform="translate(133.175741 280.8025) scale(0.16 -0.16)">
       <defs>
        <path id="Varta-Regular-2f" d="M 63 -1025 
L 1806 4544 
L 2172 4544 
L 431 -1025 
L 63 -1025 
z
" transform="scale(0.015625)"/>
        <path id="Varta-Regular-32" d="M 256 0 
L 256 291 
Q 1191 1225 1691 1892 
Q 2191 2559 2191 3059 
Q 2191 3419 1995 3648 
Q 1800 3878 1394 3878 
Q 1134 3878 912 3740 
Q 691 3603 513 3394 
L 228 3678 
Q 478 3953 768 4115 
Q 1059 4278 1453 4278 
Q 2022 4278 2347 3956 
Q 2672 3634 2672 3088 
Q 2672 2694 2453 2269 
Q 2234 1844 1853 1376 
Q 1472 909 978 388 
Q 1144 403 1322 414 
Q 1500 425 1659 425 
L 2875 425 
L 2875 0 
L 256 0 
z
" transform="scale(0.015625)"/>
       </defs>
       <use xlink:href="#Varta-Regular-2d"/>
       <use xlink:href="#Varta-Regular-3c0" transform="translate(30.957031 0)"/>
       <use xlink:href="#Varta-Regular-2f" transform="translate(117.382812 0)"/>
       <use xlink:href="#Varta-Regular-32" transform="translate(152.490234 0)"/>
      </g>
     </g>
    </g>
    <g id="xtick_3">
     <g id="line2d_3">
      <g>
       <use xlink:href="#m6878ac1c19" x="260.931991" y="262.3875" style="fill: #323034; stroke: #323034; stroke-width: 0.8"/>
      </g>
     </g>
     <g id="text_3">
      <!-- 0 -->
      <g style="fill: #323034" transform="translate(256.974491 280.8025) scale(0.16 -0.16)">
       <defs>
        <path id="Varta-Regular-30" d="M 1581 -78 
Q 959 -78 621 511 
Q 284 1100 284 2134 
Q 284 3175 621 3726 
Q 959 4278 1581 4278 
Q 2203 4278 2540 3726 
Q 2878 3175 2878 2134 
Q 2878 1100 2540 511 
Q 2203 -78 1581 -78 
z
M 1581 319 
Q 1959 319 2179 770 
Q 2400 1222 2400 2134 
Q 2400 3050 2179 3467 
Q 1959 3884 1581 3884 
Q 1206 3884 986 3467 
Q 766 3050 766 2134 
Q 766 1222 986 770 
Q 1206 319 1581 319 
z
" transform="scale(0.015625)"/>
       </defs>
       <use xlink:href="#Varta-Regular-30"/>
      </g>
     </g>
    </g>
    <g id="xtick_4">
     <g id="line2d_4">
      <g>
       <use xlink:href="#m6878ac1c19" x="372.531991" y="262.3875" style="fill: #323034; stroke: #323034; stroke-width: 0.8"/>
      </g>
     </g>
     <g id="text_4">
      <!-- +π/2 -->
      <g style="fill: #323034" transform="translate(354.894491 280.8025) scale(0.16 -0.16)">
       <defs>
        <path id="Varta-Regular-2b" d="M 1384 672 
L 1384 1925 
L 219 1925 
L 219 2300 
L 1384 2300 
L 1384 3553 
L 1778 3553 
L 1778 2300 
L 2947 2300 
L 2947 1925 
L 1778 1925 
L 1778 672 
L 1384 672 
z
" transform="scale(0.015625)"/>
       </defs>
       <use xlink:href="#Varta-Regular-2b"/>
       <use xlink:href="#Varta-Regular-3c0" transform="translate(49.462891 0)"/>
       <use xlink:href="#Varta-Regular-2f" transform="translate(135.888672 0)"/>
       <use xlink:href="#Varta-Regular-32" transform="translate(170.996094 0)"/>
      </g>
     </g>
    </g>
    <g id="xtick_5">
     <g id="line2d_5">
      <g>
       <use xlink:href="#m6878ac1c19" x="484.131991" y="262.3875" style="fill: #323034; stroke: #323034; stroke-width: 0.8"/>
      </g>
     </g>
     <g id="text_5">
      <!-- +π -->
      <g style="fill: #323034" transform="translate(473.260741 280.8025) scale(0.16 -0.16)">
       <use xlink:href="#Varta-Regular-2b"/>
       <use xlink:href="#Varta-Regular-3c0" transform="translate(49.462891 0)"/>
      </g>
     </g>
    </g>
   </g>
   <g id="matplotlib.axis_2">
    <g id="ytick_1">
     <g id="line2d_6">
      <defs>
       <path id="m4b122f5f3b" d="M 0 0 
L -3.5 0 
" style="stroke: #323034; stroke-width: 0.8"/>
      </defs>
      <g>
       <use xlink:href="#m4b122f5f3b" x="30.03" y="234.6675" style="fill: #323034; stroke: #323034; stroke-width: 0.8"/>
      </g>
     </g>
     <g id="text_6">
      <!-- -1 -->
      <g style="fill: #323034" transform="translate(10.1625 240.375) scale(0.16 -0.16)">
       <defs>
        <path id="Varta-Regular-31" d="M 509 0 
L 509 406 
L 1447 406 
L 1447 3628 
L 706 3584 
L 706 3916 
Q 981 3966 1189 4039 
Q 1397 4113 1563 4213 
L 1941 4213 
L 1941 406 
L 2788 406 
L 2788 0 
L 509 0 
z
" transform="scale(0.015625)"/>
       </defs>
       <use xlink:href="#Varta-Regular-2d"/>
       <use xlink:href="#Varta-Regular-31" transform="translate(30.957031 0)"/>
      </g>
     </g>
    </g>
    <g id="ytick_2">
     <g id="line2d_7">
      <g>
       <use xlink:href="#m4b122f5f3b" x="30.03" y="123.7875" style="fill: #323034; stroke: #323034; stroke-width: 0.8"/>
      </g>
     </g>
     <g id="text_7">
      <!-- 0 -->
      <g style="fill: #323034" transform="translate(15.115 129.495) scale(0.16 -0.16)">
       <use xlink:href="#Varta-Regular-30"/>
      </g>
     </g>
    </g>
    <g id="ytick_3">
     <g id="line2d_8">
      <g>
       <use xlink:href="#m4b122f5f3b" x="30.03" y="12.9075" style="fill: #323034; stroke: #323034; stroke-width: 0.8"/>
      </g>
     </g>
     <g id="text_8">
      <!-- +1 -->
      <g style="fill: #323034" transform="translate(7.2 18.615) scale(0.16 -0.16)">
       <use xlink:href="#Varta-Regular-2b"/>
       <use xlink:href="#Varta-Regular-31" transform="translate(49.462891 0)"/>
      </g>
     </g>
    </g>
   </g>
   <g id="line2d_9">
    <path d="M 37.731991 234.6675 
L 41.088382 234.543792 
L 44.444773 234.172943 
L 47.801164 233.555781 
L 51.157555 232.693683 
L 54.513946 231.588573 
L 57.870337 230.242916 
L 61.226728 228.659716 
L 64.583119 226.842505 
L 67.93951 224.795337 
L 71.295901 222.522782 
L 74.652292 220.02991 
L 79.12748 216.373049 
L 83.602668 212.348961 
L 88.077856 207.973609 
L 92.553044 203.264345 
L 97.028232 198.239849 
L 101.50342 192.920049 
L 107.097405 185.887278 
L 112.69139 178.469721 
L 118.285375 170.713339 
L 124.998157 161.026231 
L 132.829736 149.310991 
L 142.898909 133.813655 
L 167.512443 95.722604 
L 175.344022 84.092417 
L 182.056803 74.501992 
L 187.650788 66.8423 
L 193.244773 59.535456 
L 198.838758 52.626735 
L 203.313946 47.415262 
L 207.789134 42.506708 
L 212.264322 37.920542 
L 216.73951 33.674954 
L 221.214698 29.786782 
L 225.689886 26.27145 
L 229.046277 23.888072 
L 232.402668 21.727608 
L 235.759059 19.79488 
L 239.11545 18.0942 
L 242.471841 16.629363 
L 245.828232 15.403637 
L 249.184623 14.419759 
L 252.541014 13.679922 
L 255.897405 13.185779 
L 259.253796 12.938431 
L 262.610187 12.938431 
L 265.966578 13.185779 
L 269.322969 13.679922 
L 272.67936 14.419759 
L 276.035751 15.403637 
L 279.392142 16.629363 
L 282.748533 18.0942 
L 286.104924 19.79488 
L 289.461315 21.727608 
L 292.817706 23.888072 
L 296.174097 26.27145 
L 299.530488 28.872425 
L 304.005676 32.668776 
L 308.480864 36.826534 
L 312.956052 41.32921 
L 317.43124 46.158944 
L 321.906428 51.296579 
L 326.381615 56.721738 
L 331.9756 63.874634 
L 337.569585 71.398765 
L 344.282367 80.851967 
L 350.995149 90.688178 
L 359.945525 104.246867 
L 373.371089 125.097018 
L 387.91545 147.608722 
L 396.865826 161.026231 
L 403.578608 170.713339 
L 410.29139 179.981842 
L 415.885375 187.326046 
L 421.47936 194.276549 
L 425.954548 199.524457 
L 430.429736 204.471966 
L 434.904924 209.099452 
L 439.380112 213.388562 
L 443.8553 217.322283 
L 448.330488 220.885014 
L 451.686879 223.305041 
L 455.04327 225.503006 
L 458.399661 227.474003 
L 461.756052 229.213636 
L 465.112443 230.718021 
L 468.468834 231.983803 
L 471.825225 233.008156 
L 475.181615 233.788796 
L 478.538006 234.323979 
L 481.894397 234.612513 
L 484.131991 234.6675 
L 484.131991 234.6675 
" style="fill: none; stroke: #bc80bd; stroke-width: 3; stroke-linecap: square"/>
   </g>
   <g id="line2d_10">
    <path d="M 37.731991 123.7875 
L 53.395149 148.034859 
L 61.226728 159.790177 
L 67.93951 169.523604 
L 74.652292 178.849037 
L 80.246277 186.248428 
L 85.840262 193.260795 
L 90.31545 198.562744 
L 94.790638 203.56811 
L 99.265826 208.257038 
L 103.741014 212.610931 
L 108.216202 216.612519 
L 112.69139 220.245932 
L 116.047781 222.72065 
L 119.404172 224.97461 
L 122.760563 227.002781 
L 126.116954 228.800639 
L 129.473345 230.364172 
L 132.829736 231.68989 
L 136.186127 232.774836 
L 139.542518 233.616589 
L 142.898909 234.21327 
L 146.2553 234.563548 
L 149.611691 234.666641 
L 152.968082 234.522319 
L 156.324473 234.130905 
L 159.680864 233.493272 
L 163.037255 232.610842 
L 166.393646 231.485584 
L 169.750037 230.12001 
L 173.106428 228.517167 
L 176.462819 226.680631 
L 179.819209 224.6145 
L 183.1756 222.323384 
L 186.531991 219.812397 
L 191.007179 216.132143 
L 195.482367 212.08562 
L 199.957555 207.688875 
L 204.432743 202.959349 
L 208.907931 197.9158 
L 213.383119 192.578232 
L 218.977104 185.525166 
L 224.571089 178.089558 
L 230.165074 170.31748 
L 236.877856 160.614781 
L 244.709435 148.886001 
L 254.778608 133.378851 
L 278.273345 96.991438 
L 286.104924 85.31791 
L 292.817706 75.678471 
L 298.411691 67.969897 
L 304.005676 60.607183 
L 309.599661 53.63595 
L 314.074849 48.369947 
L 318.550037 43.403075 
L 323.025225 38.755036 
L 327.500412 34.444265 
L 331.9756 30.48786 
L 336.450788 26.901513 
L 339.807179 24.463218 
L 343.16357 22.246554 
L 346.519961 20.256467 
L 349.876352 18.497399 
L 353.232743 16.973274 
L 356.589134 15.687493 
L 359.945525 14.642926 
L 363.301916 13.841903 
L 366.658307 13.286211 
L 370.014698 12.977092 
L 373.371089 12.915233 
L 376.72748 13.100774 
L 380.083871 13.5333 
L 383.440262 14.211847 
L 386.796653 15.134899 
L 390.153044 16.300399 
L 393.509435 17.705743 
L 396.865826 19.347798 
L 400.222217 21.222899 
L 403.578608 23.326861 
L 406.934999 25.65499 
L 410.29139 28.202091 
L 414.766578 31.928957 
L 419.241766 36.020165 
L 423.716954 40.459489 
L 428.192142 45.22932 
L 432.66733 50.31074 
L 437.142518 55.683594 
L 442.736503 62.776923 
L 448.330488 70.248288 
L 455.04327 79.647605 
L 461.756052 89.440676 
L 469.587631 101.24688 
L 480.7756 118.551256 
L 484.131991 123.7875 
L 484.131991 123.7875 
" style="fill: none; stroke: #fb8072; stroke-width: 3; stroke-linecap: square"/>
   </g>
   <g id="patch_3">
    <path d="M 30.03 234.6675 
L 30.03 12.9075 
" style="fill: none; stroke: #000000; stroke-width: 0.6; stroke-linejoin: miter; stroke-linecap: square"/>
   </g>
   <g id="patch_4">
    <path d="M 37.731991 262.3875 
L 484.131991 262.3875 
" style="fill: none; stroke: #000000; stroke-width: 0.6; stroke-linejoin: miter; stroke-linecap: square"/>
   </g>
   <g id="text_9">
    <g id="patch_5">
     <path d="M 146.390245 150.242693 
L 171.28987 107.115277 
L 152.833136 96.459277 
L 127.933511 139.586693 
z
" style="fill: #ffffff; opacity: 0.85"/>
    </g>
    <!--  cosine -->
    <g style="fill: #bc80bd" transform="translate(142.338438 143.247628) rotate(-60) scale(0.144 -0.144)">
     <defs>
      <path id="Varta-Regular-20" transform="scale(0.015625)"/>
      <path id="Varta-Regular-63" d="M 1744 -78 
Q 1334 -78 1006 109 
Q 678 297 489 661 
Q 300 1025 300 1553 
Q 300 2091 503 2452 
Q 706 2813 1043 2997 
Q 1381 3181 1775 3181 
Q 2088 3181 2311 3073 
Q 2534 2966 2691 2816 
L 2444 2497 
Q 2303 2622 2145 2697 
Q 1988 2772 1797 2772 
Q 1513 2772 1288 2623 
Q 1063 2475 934 2203 
Q 806 1931 806 1553 
Q 806 997 1075 664 
Q 1344 331 1784 331 
Q 2009 331 2190 417 
Q 2372 503 2513 631 
L 2734 306 
Q 2528 122 2276 22 
Q 2025 -78 1744 -78 
z
" transform="scale(0.015625)"/>
      <path id="Varta-Regular-6f" d="M 1728 -78 
Q 1344 -78 1019 112 
Q 694 303 498 665 
Q 303 1028 303 1550 
Q 303 2078 498 2442 
Q 694 2806 1019 2993 
Q 1344 3181 1728 3181 
Q 2116 3181 2442 2993 
Q 2769 2806 2966 2442 
Q 3163 2078 3163 1550 
Q 3163 1028 2966 665 
Q 2769 303 2442 112 
Q 2116 -78 1728 -78 
z
M 1728 331 
Q 2150 331 2403 665 
Q 2656 1000 2656 1550 
Q 2656 2106 2403 2439 
Q 2150 2772 1728 2772 
Q 1313 2772 1061 2439 
Q 809 2106 809 1550 
Q 809 1000 1061 665 
Q 1313 331 1728 331 
z
" transform="scale(0.015625)"/>
      <path id="Varta-Regular-73" d="M 1338 -78 
Q 1009 -78 711 47 
Q 413 172 194 353 
L 441 684 
Q 644 522 856 414 
Q 1069 306 1356 306 
Q 1675 306 1831 451 
Q 1988 597 1988 806 
Q 1988 972 1880 1083 
Q 1772 1194 1606 1270 
Q 1441 1347 1269 1409 
Q 1047 1491 833 1600 
Q 619 1709 476 1879 
Q 334 2050 334 2313 
Q 334 2681 614 2931 
Q 894 3181 1394 3181 
Q 1678 3181 1925 3084 
Q 2172 2988 2350 2844 
L 2113 2528 
Q 1953 2650 1784 2723 
Q 1616 2797 1397 2797 
Q 1094 2797 951 2667 
Q 809 2538 809 2350 
Q 809 2203 909 2101 
Q 1009 2000 1168 1925 
Q 1328 1850 1503 1781 
Q 1731 1700 1951 1592 
Q 2172 1484 2317 1307 
Q 2463 1131 2463 831 
Q 2463 459 2172 190 
Q 1881 -78 1338 -78 
z
" transform="scale(0.015625)"/>
      <path id="Varta-Regular-69" d="M 534 0 
L 534 3103 
L 1025 3103 
L 1025 0 
L 534 0 
z
M 788 3763 
Q 641 3763 539 3852 
Q 438 3941 438 4084 
Q 438 4234 539 4325 
Q 641 4416 788 4416 
Q 931 4416 1032 4325 
Q 1134 4234 1134 4084 
Q 1134 3941 1032 3852 
Q 931 3763 788 3763 
z
" transform="scale(0.015625)"/>
      <path id="Varta-Regular-6e" d="M 534 0 
L 534 3103 
L 941 3103 
L 981 2653 
L 1006 2653 
Q 1228 2875 1476 3028 
Q 1725 3181 2047 3181 
Q 2550 3181 2770 2879 
Q 2991 2578 2991 1981 
L 2991 0 
L 2503 0 
L 2503 1916 
Q 2503 2359 2367 2556 
Q 2231 2753 1897 2753 
Q 1653 2753 1459 2629 
Q 1266 2506 1025 2263 
L 1025 0 
L 534 0 
z
" transform="scale(0.015625)"/>
      <path id="Varta-Regular-65" d="M 1781 -78 
Q 1369 -78 1031 112 
Q 694 303 495 667 
Q 297 1031 297 1550 
Q 297 2069 489 2433 
Q 681 2797 998 2990 
Q 1316 3184 1684 3184 
Q 2297 3184 2608 2798 
Q 2919 2413 2919 1728 
Q 2919 1650 2916 1578 
Q 2913 1506 2903 1447 
L 784 1447 
Q 809 922 1095 620 
Q 1381 319 1841 319 
Q 2066 319 2256 378 
Q 2447 438 2619 550 
L 2794 225 
Q 2597 100 2348 11 
Q 2100 -78 1781 -78 
z
M 781 1775 
L 2488 1775 
Q 2488 2281 2284 2536 
Q 2081 2791 1697 2791 
Q 1347 2791 1086 2528 
Q 825 2266 781 1775 
z
" transform="scale(0.015625)"/>
     </defs>
     <use xlink:href="#Varta-Regular-20"/>
     <use xlink:href="#Varta-Regular-63" transform="translate(20.214844 0)"/>
     <use xlink:href="#Varta-Regular-6f" transform="translate(65.722656 0)"/>
     <use xlink:href="#Varta-Regular-73" transform="translate(119.824219 0)"/>
     <use xlink:href="#Varta-Regular-69" transform="translate(161.523438 0)"/>
     <use xlink:href="#Varta-Regular-6e" transform="translate(185.888672 0)"/>
     <use xlink:href="#Varta-Regular-65" transform="translate(240.380859 0)"/>
    </g>
   </g>
   <g id="text_10">
    <g id="patch_6">
     <path d="M 261.856444 143.594185 
L 279.583069 112.890769 
L 261.126336 102.234769 
L 243.399711 132.938185 
z
" style="fill: #ffffff; opacity: 0.85"/>
    </g>
    <!--  sine -->
    <g style="fill: #fb8072" transform="translate(257.804637 136.59912) rotate(-60) scale(0.144 -0.144)">
     <use xlink:href="#Varta-Regular-20"/>
     <use xlink:href="#Varta-Regular-73" transform="translate(20.214844 0)"/>
     <use xlink:href="#Varta-Regular-69" transform="translate(61.914062 0)"/>
     <use xlink:href="#Varta-Regular-6e" transform="translate(86.279297 0)"/>
     <use xlink:href="#Varta-Regular-65" transform="translate(140.771484 0)"/>
    </g>
   </g>
  </g>
 </g>
</svg>
