<?xml version="1.0" encoding="utf-8" standalone="no"?>
<!DOCTYPE svg PUBLIC "-//W3C//DTD SVG 1.1//EN"
  "http://www.w3.org/Graphics/SVG/1.1/DTD/svg11.dtd">
<svg xmlns:xlink="http://www.w3.org/1999/xlink" width="541.22pt" height="366.757pt" viewBox="0 0 541.22 366.757" xmlns="http://www.w3.org/2000/svg" version="1.1">
 <metadata>
  <rdf:RDF xmlns:dc="http://purl.org/dc/elements/1.1/" xmlns:cc="http://creativecommons.org/ns#" xmlns:rdf="http://www.w3.org/1999/02/22-rdf-syntax-ns#">
   <cc:Work>
    <dc:type rdf:resource="http://purl.org/dc/dcmitype/StillImage"/>
    <dc:date>2026-04-12T15:29:11.918545</dc:date>
    <dc:format>image/svg+xml</dc:format>
    <dc:creator>
     <cc:Agent>
      <dc:title>Matplotlib v3.10.8, https://matplotlib.org/</dc:title>
     </cc:Agent>
    </dc:creator>
   </cc:Work>
  </rdf:RDF>
 </metadata>
 <defs>
  <style type="text/css">*{stroke-linejoin: round; stroke-linecap: butt}</style>
 </defs>
 <g id="figure_1">
  <g id="patch_1">
   <path d="M 0 366.757 
L 541.22 366.757 
L 541.22 -0 
L 0 -0 
z
" style="fill: #fff1e4"/>
  </g>
  <g id="axes_1">
   <g id="patch_2">
    <path d="M 10.44 320.4 
L 512.64 320.4 
L 512.64 43.2 
L 10.44 43.2 
z
" style="fill: #fff1e4"/>
   </g>
   <g id="FillBetweenPolyCollection_1">
    <path d="M 34.354286 306.54 
L 34.354286 320.4 
L 35.657517 320.4 
L 36.960747 320.4 
L 38.263978 320.4 
L 39.567209 320.4 
L 40.87044 320.4 
L 42.173671 320.4 
L 43.476902 320.4 
L 44.780132 320.4 
L 46.083363 320.4 
L 47.386594 320.4 
L 48.689825 320.4 
L 49.993056 320.4 
L 51.296286 320.4 
L 52.599517 320.4 
L 53.902748 320.4 
L 55.205979 320.4 
L 56.50921 320.4 
L 57.812441 320.4 
L 59.115671 320.4 
L 60.418902 320.4 
L 61.722133 320.4 
L 63.025364 320.4 
L 64.328595 320.4 
L 65.631826 320.4 
L 66.935056 320.4 
L 68.238287 320.4 
L 69.541518 320.4 
L 70.844749 320.4 
L 72.14798 320.4 
L 73.451211 320.4 
L 74.754441 320.4 
L 76.057672 320.4 
L 77.360903 320.4 
L 78.664134 320.4 
L 79.967365 320.4 
L 81.270596 320.4 
L 82.573826 320.4 
L 83.877057 320.4 
L 85.180288 320.4 
L 86.483519 320.4 
L 87.78675 320.4 
L 89.089981 320.4 
L 90.393211 320.4 
L 91.696442 320.4 
L 92.999673 320.4 
L 94.302904 320.4 
L 95.606135 320.4 
L 96.909366 320.4 
L 98.212596 320.4 
L 99.515827 320.4 
L 100.819058 320.4 
L 102.122289 320.4 
L 103.42552 320.4 
L 104.72875 320.4 
L 106.031981 320.4 
L 107.335212 320.4 
L 108.638443 320.4 
L 109.941674 320.4 
L 111.244905 320.4 
L 112.548135 320.4 
L 113.851366 320.4 
L 115.154597 320.4 
L 116.457828 320.4 
L 117.761059 320.4 
L 119.06429 320.4 
L 120.36752 320.4 
L 121.670751 320.4 
L 122.973982 320.4 
L 124.277213 320.4 
L 125.580444 320.4 
L 126.883675 320.4 
L 128.186905 320.4 
L 129.490136 320.4 
L 130.793367 320.4 
L 132.096598 320.4 
L 133.399829 320.4 
L 134.70306 320.4 
L 136.00629 320.4 
L 137.309521 320.4 
L 138.612752 320.4 
L 139.915983 320.4 
L 141.219214 320.4 
L 142.522445 320.4 
L 143.825675 320.4 
L 145.128906 320.4 
L 146.432137 320.4 
L 147.735368 320.4 
L 149.038599 320.4 
L 150.34183 320.4 
L 151.64506 320.4 
L 152.948291 320.4 
L 154.251522 320.4 
L 155.554753 320.4 
L 156.857984 320.4 
L 158.161214 320.4 
L 159.464445 320.4 
L 160.767676 320.4 
L 162.070907 320.4 
L 163.374138 320.4 
L 164.677369 320.4 
L 165.980599 320.4 
L 167.28383 320.4 
L 168.587061 320.4 
L 169.890292 320.4 
L 171.193523 320.4 
L 172.496754 320.4 
L 173.799984 320.4 
L 175.103215 320.4 
L 176.406446 320.4 
L 177.709677 320.4 
L 179.012908 320.4 
L 180.316139 320.4 
L 181.619369 320.4 
L 182.9226 320.4 
L 184.225831 320.4 
L 185.529062 320.4 
L 186.832293 320.4 
L 188.135524 320.4 
L 189.438754 320.4 
L 190.741985 320.4 
L 192.045216 320.4 
L 193.348447 320.4 
L 194.651678 320.4 
L 195.954909 320.4 
L 197.258139 320.4 
L 198.56137 320.4 
L 199.864601 320.4 
L 201.167832 320.4 
L 202.471063 320.4 
L 203.774293 320.4 
L 205.077524 320.4 
L 206.380755 320.4 
L 207.683986 320.4 
L 208.987217 320.4 
L 210.290448 320.4 
L 211.593678 320.4 
L 212.896909 320.4 
L 214.20014 320.4 
L 215.503371 320.4 
L 216.806602 320.4 
L 218.109833 320.4 
L 219.413063 320.4 
L 220.716294 320.4 
L 222.019525 320.4 
L 223.322756 320.4 
L 224.625987 320.4 
L 225.929218 320.4 
L 227.232448 320.4 
L 228.535679 320.4 
L 229.83891 320.4 
L 231.142141 320.4 
L 232.445372 320.4 
L 233.748603 320.4 
L 235.051833 320.4 
L 236.355064 320.4 
L 237.658295 320.4 
L 238.961526 320.4 
L 240.264757 320.4 
L 241.567988 320.4 
L 242.871218 320.4 
L 244.174449 320.4 
L 245.47768 320.4 
L 246.780911 320.4 
L 248.084142 320.4 
L 249.387373 320.4 
L 250.690603 320.4 
L 251.993834 320.4 
L 253.297065 320.4 
L 254.600296 320.4 
L 255.903527 320.4 
L 257.206757 320.4 
L 258.509988 320.4 
L 259.813219 320.4 
L 261.11645 320.4 
L 262.419681 320.4 
L 263.722912 320.4 
L 265.026142 320.4 
L 266.329373 320.4 
L 267.632604 320.4 
L 268.935835 320.4 
L 270.239066 320.4 
L 271.542297 320.4 
L 272.845527 320.4 
L 274.148758 320.4 
L 275.451989 320.4 
L 276.75522 320.4 
L 278.058451 320.4 
L 279.361682 320.4 
L 280.664912 320.4 
L 281.968143 320.4 
L 283.271374 320.4 
L 284.574605 320.4 
L 285.877836 320.4 
L 287.181067 320.4 
L 288.484297 320.4 
L 289.787528 320.4 
L 291.090759 320.4 
L 292.39399 320.4 
L 293.697221 320.4 
L 295.000452 320.4 
L 296.303682 320.4 
L 297.606913 320.4 
L 298.910144 320.4 
L 300.213375 320.4 
L 301.516606 320.4 
L 302.819837 320.4 
L 304.123067 320.4 
L 305.426298 320.4 
L 306.729529 320.4 
L 308.03276 320.4 
L 309.335991 320.4 
L 310.639221 320.4 
L 311.942452 320.4 
L 313.245683 320.4 
L 314.548914 320.4 
L 315.852145 320.4 
L 317.155376 320.4 
L 318.458606 320.4 
L 319.761837 320.4 
L 321.065068 320.4 
L 322.368299 320.4 
L 323.67153 320.4 
L 324.974761 320.4 
L 326.277991 320.4 
L 327.581222 320.4 
L 328.884453 320.4 
L 330.187684 320.4 
L 331.490915 320.4 
L 332.794146 320.4 
L 334.097376 320.4 
L 335.400607 320.4 
L 336.703838 320.4 
L 338.007069 320.4 
L 339.3103 320.4 
L 340.613531 320.4 
L 341.916761 320.4 
L 343.219992 320.4 
L 344.523223 320.4 
L 345.826454 320.4 
L 348.432916 320.4 
L 349.736146 320.4 
L 351.039377 320.4 
L 352.342608 320.4 
L 353.645839 320.4 
L 354.94907 320.4 
L 356.252301 320.4 
L 357.555531 320.4 
L 358.858762 320.4 
L 360.161993 320.4 
L 361.465224 320.4 
L 362.768455 320.4 
L 364.071685 320.4 
L 365.374916 320.4 
L 366.678147 320.4 
L 367.981378 320.4 
L 369.284609 320.4 
L 370.58784 320.4 
L 371.89107 320.4 
L 373.194301 320.4 
L 374.497532 320.4 
L 375.800763 320.4 
L 377.103994 320.4 
L 378.407225 320.4 
L 379.710455 320.4 
L 381.013686 320.4 
L 382.316917 320.4 
L 383.620148 320.4 
L 384.923379 320.4 
L 386.22661 320.4 
L 387.52984 320.4 
L 388.833071 320.4 
L 390.136302 320.4 
L 391.439533 320.4 
L 392.742764 320.4 
L 394.045995 320.4 
L 395.349225 320.4 
L 396.652456 320.4 
L 397.955687 320.4 
L 399.258918 320.4 
L 400.562149 320.4 
L 401.86538 320.4 
L 403.16861 320.4 
L 404.471841 320.4 
L 405.775072 320.4 
L 407.078303 320.4 
L 408.381534 320.4 
L 409.684764 320.4 
L 410.987995 320.4 
L 412.291226 320.4 
L 413.594457 320.4 
L 414.897688 320.4 
L 416.200919 320.4 
L 417.504149 320.4 
L 418.80738 320.4 
L 420.110611 320.4 
L 421.413842 320.4 
L 422.717073 320.4 
L 424.020304 320.4 
L 425.323534 320.4 
L 426.626765 320.4 
L 427.929996 320.4 
L 429.233227 320.4 
L 430.536458 320.4 
L 431.839689 320.4 
L 433.142919 320.4 
L 434.44615 320.4 
L 435.749381 320.4 
L 437.052612 320.4 
L 438.355843 320.4 
L 439.659074 320.4 
L 440.962304 320.4 
L 442.265535 320.4 
L 443.568766 320.4 
L 444.871997 320.4 
L 446.175228 320.4 
L 447.478459 320.4 
L 448.781689 320.4 
L 450.08492 320.4 
L 451.388151 320.4 
L 452.691382 320.4 
L 453.994613 320.4 
L 455.297844 320.4 
L 456.601074 320.4 
L 457.904305 320.4 
L 459.207536 320.4 
L 460.510767 320.4 
L 461.813998 320.4 
L 463.117228 320.4 
L 464.420459 320.4 
L 465.72369 320.4 
L 467.026921 320.4 
L 468.330152 320.4 
L 469.633383 320.4 
L 470.936613 320.4 
L 472.239844 320.4 
L 473.543075 320.4 
L 474.846306 320.4 
L 476.149537 320.4 
L 477.452768 320.4 
L 478.755998 320.4 
L 480.059229 320.4 
L 481.36246 320.4 
L 482.665691 320.4 
L 483.968922 320.4 
L 485.272153 320.4 
L 486.575383 320.4 
L 487.878614 320.4 
L 489.181845 320.4 
L 490.485076 320.4 
L 491.788307 320.4 
L 493.091538 320.4 
L 494.394768 320.4 
L 495.697999 320.4 
L 497.00123 320.4 
L 498.304461 320.4 
L 499.607692 320.4 
L 500.910923 320.4 
L 502.214153 320.4 
L 503.517384 320.4 
L 504.820615 320.4 
L 506.123846 320.4 
L 507.427077 320.4 
L 508.730308 320.4 
L 510.033538 320.4 
L 511.336769 320.4 
L 512.64 320.4 
L 512.64 306.54 
L 512.64 306.54 
L 511.336769 306.54 
L 510.033538 306.54 
L 508.730308 306.54 
L 507.427077 306.54 
L 506.123846 306.54 
L 504.820615 306.54 
L 503.517384 306.54 
L 502.214153 306.54 
L 500.910923 306.54 
L 499.607692 306.54 
L 498.304461 306.54 
L 497.00123 306.54 
L 495.697999 306.54 
L 494.394768 306.54 
L 493.091538 306.54 
L 491.788307 306.54 
L 490.485076 306.54 
L 489.181845 306.54 
L 487.878614 306.54 
L 486.575383 306.54 
L 485.272153 306.54 
L 483.968922 306.54 
L 482.665691 306.54 
L 481.36246 306.54 
L 480.059229 306.54 
L 478.755998 306.54 
L 477.452768 306.54 
L 476.149537 306.54 
L 474.846306 306.54 
L 473.543075 306.54 
L 472.239844 306.54 
L 470.936613 306.54 
L 469.633383 306.54 
L 468.330152 306.54 
L 467.026921 306.54 
L 465.72369 306.54 
L 464.420459 306.54 
L 463.117228 306.54 
L 461.813998 306.54 
L 460.510767 306.54 
L 459.207536 306.54 
L 457.904305 306.54 
L 456.601074 306.54 
L 455.297844 306.54 
L 453.994613 306.54 
L 452.691382 306.54 
L 451.388151 306.54 
L 450.08492 306.54 
L 448.781689 306.54 
L 447.478459 306.54 
L 446.175228 306.54 
L 444.871997 306.54 
L 443.568766 306.54 
L 442.265535 306.54 
L 440.962304 306.54 
L 439.659074 306.54 
L 438.355843 306.54 
L 437.052612 306.54 
L 435.749381 306.54 
L 434.44615 306.54 
L 433.142919 306.54 
L 431.839689 306.54 
L 430.536458 306.54 
L 429.233227 306.54 
L 427.929996 306.54 
L 426.626765 306.54 
L 425.323534 306.54 
L 424.020304 306.54 
L 422.717073 306.54 
L 421.413842 306.54 
L 420.110611 306.54 
L 418.80738 306.54 
L 417.504149 306.54 
L 416.200919 306.54 
L 414.897688 306.54 
L 413.594457 306.54 
L 412.291226 306.54 
L 410.987995 306.54 
L 409.684764 306.54 
L 408.381534 306.54 
L 407.078303 306.54 
L 405.775072 306.54 
L 404.471841 306.54 
L 403.16861 306.54 
L 401.86538 306.54 
L 400.562149 306.54 
L 399.258918 306.54 
L 397.955687 306.54 
L 396.652456 306.54 
L 395.349225 306.54 
L 394.045995 306.54 
L 392.742764 306.54 
L 391.439533 306.54 
L 390.136302 306.54 
L 388.833071 306.54 
L 387.52984 306.54 
L 386.22661 306.54 
L 384.923379 306.54 
L 383.620148 306.54 
L 382.316917 306.54 
L 381.013686 306.54 
L 379.710455 306.54 
L 378.407225 306.54 
L 377.103994 306.54 
L 375.800763 306.54 
L 374.497532 306.54 
L 373.194301 306.54 
L 371.89107 306.54 
L 370.58784 306.54 
L 369.284609 306.54 
L 367.981378 306.54 
L 366.678147 306.54 
L 365.374916 306.54 
L 364.071685 306.54 
L 362.768455 306.54 
L 361.465224 306.54 
L 360.161993 306.54 
L 358.858762 306.54 
L 357.555531 306.54 
L 356.252301 306.54 
L 354.94907 306.54 
L 353.645839 306.54 
L 352.342608 306.54 
L 351.039377 306.54 
L 349.736146 306.54 
L 348.432916 306.54 
L 345.826454 306.54 
L 344.523223 306.54 
L 343.219992 306.54 
L 341.916761 306.54 
L 340.613531 306.54 
L 339.3103 306.54 
L 338.007069 306.54 
L 336.703838 306.54 
L 335.400607 306.54 
L 334.097376 306.54 
L 332.794146 306.54 
L 331.490915 306.54 
L 330.187684 306.54 
L 328.884453 306.54 
L 327.581222 306.54 
L 326.277991 306.54 
L 324.974761 306.54 
L 323.67153 306.54 
L 322.368299 306.54 
L 321.065068 306.54 
L 319.761837 306.54 
L 318.458606 306.54 
L 317.155376 306.54 
L 315.852145 306.54 
L 314.548914 306.54 
L 313.245683 306.54 
L 311.942452 306.54 
L 310.639221 306.54 
L 309.335991 306.54 
L 308.03276 306.54 
L 306.729529 306.54 
L 305.426298 306.54 
L 304.123067 306.54 
L 302.819837 306.54 
L 301.516606 306.54 
L 300.213375 306.54 
L 298.910144 306.54 
L 297.606913 306.54 
L 296.303682 306.54 
L 295.000452 306.54 
L 293.697221 306.54 
L 292.39399 306.54 
L 291.090759 306.54 
L 289.787528 306.54 
L 288.484297 306.54 
L 287.181067 306.54 
L 285.877836 306.54 
L 284.574605 306.54 
L 283.271374 306.54 
L 281.968143 306.54 
L 280.664912 306.54 
L 279.361682 306.54 
L 278.058451 306.54 
L 276.75522 306.54 
L 275.451989 306.54 
L 274.148758 306.54 
L 272.845527 306.54 
L 271.542297 306.54 
L 270.239066 306.54 
L 268.935835 306.54 
L 267.632604 306.54 
L 266.329373 306.54 
L 265.026142 306.54 
L 263.722912 306.54 
L 262.419681 306.54 
L 261.11645 306.54 
L 259.813219 306.54 
L 258.509988 306.54 
L 257.206757 306.54 
L 255.903527 306.54 
L 254.600296 306.54 
L 253.297065 306.54 
L 251.993834 306.54 
L 250.690603 306.54 
L 249.387373 306.54 
L 248.084142 306.54 
L 246.780911 306.54 
L 245.47768 306.54 
L 244.174449 306.54 
L 242.871218 306.54 
L 241.567988 306.54 
L 240.264757 306.54 
L 238.961526 306.54 
L 237.658295 306.54 
L 236.355064 306.54 
L 235.051833 306.54 
L 233.748603 306.54 
L 232.445372 306.54 
L 231.142141 306.54 
L 229.83891 306.54 
L 228.535679 306.54 
L 227.232448 306.54 
L 225.929218 306.54 
L 224.625987 306.54 
L 223.322756 306.54 
L 222.019525 306.54 
L 220.716294 306.54 
L 219.413063 306.54 
L 218.109833 306.54 
L 216.806602 306.54 
L 215.503371 306.54 
L 214.20014 306.54 
L 212.896909 306.54 
L 211.593678 306.54 
L 210.290448 306.54 
L 208.987217 306.54 
L 207.683986 306.54 
L 206.380755 306.54 
L 205.077524 306.54 
L 203.774293 306.54 
L 202.471063 306.54 
L 201.167832 306.54 
L 199.864601 306.54 
L 198.56137 306.54 
L 197.258139 306.54 
L 195.954909 306.54 
L 194.651678 306.54 
L 193.348447 306.54 
L 192.045216 306.54 
L 190.741985 306.54 
L 189.438754 306.54 
L 188.135524 306.54 
L 186.832293 306.54 
L 185.529062 306.54 
L 184.225831 306.54 
L 182.9226 306.54 
L 181.619369 306.54 
L 180.316139 306.54 
L 179.012908 306.54 
L 177.709677 306.54 
L 176.406446 306.54 
L 175.103215 306.54 
L 173.799984 306.54 
L 172.496754 306.54 
L 171.193523 306.54 
L 169.890292 306.54 
L 168.587061 306.54 
L 167.28383 306.54 
L 165.980599 306.54 
L 164.677369 306.54 
L 163.374138 306.54 
L 162.070907 306.54 
L 160.767676 306.54 
L 159.464445 306.54 
L 158.161214 306.54 
L 156.857984 306.54 
L 155.554753 306.54 
L 154.251522 306.54 
L 152.948291 306.54 
L 151.64506 306.54 
L 150.34183 306.54 
L 149.038599 306.54 
L 147.735368 306.54 
L 146.432137 306.54 
L 145.128906 306.54 
L 143.825675 306.54 
L 142.522445 306.54 
L 141.219214 306.54 
L 139.915983 306.54 
L 138.612752 306.54 
L 137.309521 306.54 
L 136.00629 306.54 
L 134.70306 306.54 
L 133.399829 306.54 
L 132.096598 306.54 
L 130.793367 306.54 
L 129.490136 306.54 
L 128.186905 306.54 
L 126.883675 306.54 
L 125.580444 306.54 
L 124.277213 306.54 
L 122.973982 306.54 
L 121.670751 306.54 
L 120.36752 306.54 
L 119.06429 306.54 
L 117.761059 306.54 
L 116.457828 306.54 
L 115.154597 306.54 
L 113.851366 306.54 
L 112.548135 306.54 
L 111.244905 306.54 
L 109.941674 306.54 
L 108.638443 306.54 
L 107.335212 306.54 
L 106.031981 306.54 
L 104.72875 306.54 
L 103.42552 306.54 
L 102.122289 306.54 
L 100.819058 306.54 
L 99.515827 306.54 
L 98.212596 306.54 
L 96.909366 306.54 
L 95.606135 306.54 
L 94.302904 306.54 
L 92.999673 306.54 
L 91.696442 306.54 
L 90.393211 306.54 
L 89.089981 306.54 
L 87.78675 306.54 
L 86.483519 306.54 
L 85.180288 306.54 
L 83.877057 306.54 
L 82.573826 306.54 
L 81.270596 306.54 
L 79.967365 306.54 
L 78.664134 306.54 
L 77.360903 306.54 
L 76.057672 306.54 
L 74.754441 306.54 
L 73.451211 306.54 
L 72.14798 306.54 
L 70.844749 306.54 
L 69.541518 306.54 
L 68.238287 306.54 
L 66.935056 306.54 
L 65.631826 306.54 
L 64.328595 306.54 
L 63.025364 306.54 
L 61.722133 306.54 
L 60.418902 306.54 
L 59.115671 306.54 
L 57.812441 306.54 
L 56.50921 306.54 
L 55.205979 306.54 
L 53.902748 306.54 
L 52.599517 306.54 
L 51.296286 306.54 
L 49.993056 306.54 
L 48.689825 306.54 
L 47.386594 306.54 
L 46.083363 306.54 
L 44.780132 306.54 
L 43.476902 306.54 
L 42.173671 306.54 
L 40.87044 306.54 
L 39.567209 306.54 
L 38.263978 306.54 
L 36.960747 306.54 
L 35.657517 306.54 
L 34.354286 306.54 
z
" clip-path="url(#pc993f647ca)" style="fill: url(#hf6d52e2597); stroke: #000000; stroke-opacity: 0.2; stroke-width: 0.1"/>
   </g>
   <g id="matplotlib.axis_1">
    <g id="xtick_1">
     <g id="line2d_1">
      <defs>
       <path id="me7f211ae30" d="M 0 0 
L 0 3.5 
" style="stroke: #ff0000; stroke-opacity: 0.8; stroke-width: 0.8"/>
      </defs>
      <g>
       <use xlink:href="#me7f211ae30" x="77.360903" y="320.4" style="fill: #ff0000; fill-opacity: 0.8; stroke: #ff0000; stroke-opacity: 0.8; stroke-width: 0.8"/>
      </g>
     </g>
     <g id="text_1">
      <!-- Apr 20 -->
      <g style="fill: #323034; opacity: 0.8" transform="translate(61.618403 335.96125) scale(0.12 -0.12)">
       <defs>
        <path id="Varta-Regular-41" d="M 3 0 
L 1434 4203 
L 1994 4203 
L 3425 0 
L 2897 0 
L 2481 1306 
L 928 1306 
L 513 0 
L 3 0 
z
M 1053 1706 
L 2356 1706 
L 2144 2369 
Q 2031 2722 1926 3072 
Q 1822 3422 1722 3791 
L 1694 3791 
Q 1594 3422 1491 3072 
Q 1388 2722 1272 2369 
L 1053 1706 
z
" transform="scale(0.015625)"/>
        <path id="Varta-Regular-70" d="M 534 -1322 
L 534 3103 
L 941 3103 
L 981 2744 
L 1006 2744 
Q 1216 2919 1469 3050 
Q 1722 3181 2000 3181 
Q 2613 3181 2922 2754 
Q 3231 2328 3231 1594 
Q 3231 1059 3045 686 
Q 2859 313 2553 117 
Q 2247 -78 1881 -78 
Q 1663 -78 1447 17 
Q 1231 113 1013 284 
L 1025 -263 
L 1025 -1322 
L 534 -1322 
z
M 1803 338 
Q 2203 338 2462 670 
Q 2722 1003 2722 1594 
Q 2722 2125 2530 2447 
Q 2338 2769 1878 2769 
Q 1675 2769 1469 2656 
Q 1263 2544 1025 2331 
L 1025 672 
Q 1244 491 1442 414 
Q 1641 338 1803 338 
z
" transform="scale(0.015625)"/>
        <path id="Varta-Regular-72" d="M 534 0 
L 534 3103 
L 941 3103 
L 981 2541 
L 1006 2541 
Q 1163 2834 1391 3007 
Q 1619 3181 1884 3181 
Q 1984 3181 2061 3167 
Q 2138 3153 2213 3116 
L 2119 2688 
Q 2041 2713 1977 2725 
Q 1913 2738 1819 2738 
Q 1622 2738 1405 2575 
Q 1188 2413 1025 2013 
L 1025 0 
L 534 0 
z
" transform="scale(0.015625)"/>
        <path id="Varta-Regular-20" transform="scale(0.015625)"/>
        <path id="Varta-Regular-32" d="M 256 0 
L 256 291 
Q 1191 1225 1691 1892 
Q 2191 2559 2191 3059 
Q 2191 3419 1995 3648 
Q 1800 3878 1394 3878 
Q 1134 3878 912 3740 
Q 691 3603 513 3394 
L 228 3678 
Q 478 3953 768 4115 
Q 1059 4278 1453 4278 
Q 2022 4278 2347 3956 
Q 2672 3634 2672 3088 
Q 2672 2694 2453 2269 
Q 2234 1844 1853 1376 
Q 1472 909 978 388 
Q 1144 403 1322 414 
Q 1500 425 1659 425 
L 2875 425 
L 2875 0 
L 256 0 
z
" transform="scale(0.015625)"/>
        <path id="Varta-Regular-30" d="M 1581 -78 
Q 959 -78 621 511 
Q 284 1100 284 2134 
Q 284 3175 621 3726 
Q 959 4278 1581 4278 
Q 2203 4278 2540 3726 
Q 2878 3175 2878 2134 
Q 2878 1100 2540 511 
Q 2203 -78 1581 -78 
z
M 1581 319 
Q 1959 319 2179 770 
Q 2400 1222 2400 2134 
Q 2400 3050 2179 3467 
Q 1959 3884 1581 3884 
Q 1206 3884 986 3467 
Q 766 3050 766 2134 
Q 766 1222 986 770 
Q 1206 319 1581 319 
z
" transform="scale(0.015625)"/>
       </defs>
       <use xlink:href="#Varta-Regular-41"/>
       <use xlink:href="#Varta-Regular-70" transform="translate(53.564453 0)"/>
       <use xlink:href="#Varta-Regular-72" transform="translate(108.935547 0)"/>
       <use xlink:href="#Varta-Regular-20" transform="translate(143.212891 0)"/>
       <use xlink:href="#Varta-Regular-32" transform="translate(163.427734 0)"/>
       <use xlink:href="#Varta-Regular-30" transform="translate(212.890625 0)"/>
      </g>
     </g>
    </g>
    <g id="xtick_2">
     <g id="line2d_2">
      <g>
       <use xlink:href="#me7f211ae30" x="195.954909" y="320.4" style="fill: #ff0000; fill-opacity: 0.8; stroke: #ff0000; stroke-opacity: 0.8; stroke-width: 0.8"/>
      </g>
     </g>
     <g id="text_2">
      <!-- Jul 20 -->
      <g style="fill: #323034; opacity: 0.8" transform="translate(181.210846 335.96125) scale(0.12 -0.12)">
       <defs>
        <path id="Varta-Regular-4a" d="M 1334 -78 
Q 559 -78 194 584 
L 547 838 
Q 697 588 881 475 
Q 1066 363 1297 363 
Q 1641 363 1808 566 
Q 1975 769 1975 1253 
L 1975 4203 
L 2472 4203 
L 2472 1203 
Q 2472 844 2358 553 
Q 2244 263 1994 92 
Q 1744 -78 1334 -78 
z
" transform="scale(0.015625)"/>
        <path id="Varta-Regular-75" d="M 1441 -78 
Q 934 -78 712 226 
Q 491 531 491 1125 
L 491 3103 
L 984 3103 
L 984 1194 
Q 984 750 1118 550 
Q 1253 350 1584 350 
Q 1844 350 2030 479 
Q 2216 609 2444 891 
L 2444 3103 
L 2934 3103 
L 2934 0 
L 2528 0 
L 2488 491 
L 2466 491 
Q 2250 238 2012 80 
Q 1775 -78 1441 -78 
z
" transform="scale(0.015625)"/>
        <path id="Varta-Regular-6c" d="M 1066 -78 
Q 784 -78 659 95 
Q 534 269 534 594 
L 534 4566 
L 1025 4566 
L 1025 556 
Q 1025 438 1067 384 
Q 1109 331 1169 331 
Q 1194 331 1217 332 
Q 1241 334 1284 344 
L 1353 -28 
Q 1300 -50 1233 -64 
Q 1166 -78 1066 -78 
z
" transform="scale(0.015625)"/>
       </defs>
       <use xlink:href="#Varta-Regular-4a"/>
       <use xlink:href="#Varta-Regular-75" transform="translate(47.167969 0)"/>
       <use xlink:href="#Varta-Regular-6c" transform="translate(101.318359 0)"/>
       <use xlink:href="#Varta-Regular-20" transform="translate(126.5625 0)"/>
       <use xlink:href="#Varta-Regular-32" transform="translate(146.777344 0)"/>
       <use xlink:href="#Varta-Regular-30" transform="translate(196.240234 0)"/>
      </g>
     </g>
    </g>
    <g id="xtick_3">
     <g id="line2d_3">
      <g>
       <use xlink:href="#me7f211ae30" x="315.852145" y="320.4" style="fill: #ff0000; fill-opacity: 0.8; stroke: #ff0000; stroke-opacity: 0.8; stroke-width: 0.8"/>
      </g>
     </g>
     <g id="text_3">
      <!-- Oct 20 -->
      <g style="fill: #323034; opacity: 0.8" transform="translate(300.024332 335.96125) scale(0.12 -0.12)">
       <defs>
        <path id="Varta-Regular-4f" d="M 2100 -78 
Q 1563 -78 1161 183 
Q 759 444 537 934 
Q 316 1425 316 2113 
Q 316 2800 537 3283 
Q 759 3766 1161 4022 
Q 1563 4278 2100 4278 
Q 2638 4278 3039 4022 
Q 3441 3766 3664 3281 
Q 3888 2797 3888 2113 
Q 3888 1425 3664 934 
Q 3441 444 3039 183 
Q 2638 -78 2100 -78 
z
M 2100 363 
Q 2688 363 3030 830 
Q 3372 1297 3372 2113 
Q 3372 2925 3030 3383 
Q 2688 3841 2100 3841 
Q 1506 3841 1168 3383 
Q 831 2925 831 2113 
Q 831 1297 1168 830 
Q 1506 363 2100 363 
z
" transform="scale(0.015625)"/>
        <path id="Varta-Regular-63" d="M 1744 -78 
Q 1334 -78 1006 109 
Q 678 297 489 661 
Q 300 1025 300 1553 
Q 300 2091 503 2452 
Q 706 2813 1043 2997 
Q 1381 3181 1775 3181 
Q 2088 3181 2311 3073 
Q 2534 2966 2691 2816 
L 2444 2497 
Q 2303 2622 2145 2697 
Q 1988 2772 1797 2772 
Q 1513 2772 1288 2623 
Q 1063 2475 934 2203 
Q 806 1931 806 1553 
Q 806 997 1075 664 
Q 1344 331 1784 331 
Q 2009 331 2190 417 
Q 2372 503 2513 631 
L 2734 306 
Q 2528 122 2276 22 
Q 2025 -78 1744 -78 
z
" transform="scale(0.015625)"/>
        <path id="Varta-Regular-74" d="M 1494 -78 
Q 1000 -78 811 206 
Q 622 491 622 947 
L 622 2703 
L 156 2703 
L 156 3075 
L 644 3103 
L 703 3981 
L 1119 3981 
L 1119 3103 
L 1966 3103 
L 1966 2703 
L 1119 2703 
L 1119 934 
Q 1119 647 1223 486 
Q 1328 325 1603 325 
Q 1684 325 1784 353 
Q 1884 381 1959 409 
L 2056 38 
Q 1928 -6 1781 -42 
Q 1634 -78 1494 -78 
z
" transform="scale(0.015625)"/>
       </defs>
       <use xlink:href="#Varta-Regular-4f"/>
       <use xlink:href="#Varta-Regular-63" transform="translate(65.722656 0)"/>
       <use xlink:href="#Varta-Regular-74" transform="translate(111.230469 0)"/>
       <use xlink:href="#Varta-Regular-20" transform="translate(144.628906 0)"/>
       <use xlink:href="#Varta-Regular-32" transform="translate(164.84375 0)"/>
       <use xlink:href="#Varta-Regular-30" transform="translate(214.306641 0)"/>
      </g>
     </g>
    </g>
    <g id="xtick_4">
     <g id="line2d_4">
      <g>
       <use xlink:href="#me7f211ae30" x="435.749381" y="320.4" style="fill: #ff0000; fill-opacity: 0.8; stroke: #ff0000; stroke-opacity: 0.8; stroke-width: 0.8"/>
      </g>
     </g>
     <g id="text_4">
      <!-- Jan 21 -->
      <g style="fill: #323034; opacity: 0.8" transform="translate(419.437819 335.96125) scale(0.12 -0.12)">
       <defs>
        <path id="Varta-Regular-61" d="M 1313 -78 
Q 906 -78 642 153 
Q 378 384 378 806 
Q 378 1316 837 1605 
Q 1297 1894 2300 1959 
Q 2303 2194 2247 2376 
Q 2191 2559 2048 2667 
Q 1906 2775 1644 2775 
Q 1366 2775 1120 2686 
Q 875 2597 694 2472 
L 497 2816 
Q 706 2950 1026 3065 
Q 1347 3181 1722 3181 
Q 2291 3181 2541 2843 
Q 2791 2506 2791 1916 
L 2791 0 
L 2384 0 
L 2341 375 
L 2328 375 
Q 2103 191 1867 56 
Q 1631 -78 1313 -78 
z
M 1444 319 
Q 1675 319 1873 430 
Q 2072 541 2300 747 
L 2300 1638 
Q 1756 1603 1443 1490 
Q 1131 1378 997 1211 
Q 863 1044 863 838 
Q 863 563 1028 441 
Q 1194 319 1444 319 
z
" transform="scale(0.015625)"/>
        <path id="Varta-Regular-6e" d="M 534 0 
L 534 3103 
L 941 3103 
L 981 2653 
L 1006 2653 
Q 1228 2875 1476 3028 
Q 1725 3181 2047 3181 
Q 2550 3181 2770 2879 
Q 2991 2578 2991 1981 
L 2991 0 
L 2503 0 
L 2503 1916 
Q 2503 2359 2367 2556 
Q 2231 2753 1897 2753 
Q 1653 2753 1459 2629 
Q 1266 2506 1025 2263 
L 1025 0 
L 534 0 
z
" transform="scale(0.015625)"/>
        <path id="Varta-Regular-31" d="M 509 0 
L 509 406 
L 1447 406 
L 1447 3628 
L 706 3584 
L 706 3916 
Q 981 3966 1189 4039 
Q 1397 4113 1563 4213 
L 1941 4213 
L 1941 406 
L 2788 406 
L 2788 0 
L 509 0 
z
" transform="scale(0.015625)"/>
       </defs>
       <use xlink:href="#Varta-Regular-4a"/>
       <use xlink:href="#Varta-Regular-61" transform="translate(47.167969 0)"/>
       <use xlink:href="#Varta-Regular-6e" transform="translate(98.193359 0)"/>
       <use xlink:href="#Varta-Regular-20" transform="translate(152.685547 0)"/>
       <use xlink:href="#Varta-Regular-32" transform="translate(172.900391 0)"/>
       <use xlink:href="#Varta-Regular-31" transform="translate(222.363281 0)"/>
      </g>
     </g>
    </g>
    <g id="xtick_5">
     <g id="line2d_5">
      <defs>
       <path id="mbf6dbacfff" d="M 0 0 
L 0 2 
" style="stroke: #ff0000; stroke-opacity: 0.8; stroke-width: 0.6"/>
      </defs>
      <g>
       <use xlink:href="#mbf6dbacfff" x="36.960747" y="320.4" style="fill: #ff0000; fill-opacity: 0.8; stroke: #ff0000; stroke-opacity: 0.8; stroke-width: 0.6"/>
      </g>
     </g>
    </g>
    <g id="xtick_6">
     <g id="line2d_6">
      <g>
       <use xlink:href="#mbf6dbacfff" x="116.457828" y="320.4" style="fill: #ff0000; fill-opacity: 0.8; stroke: #ff0000; stroke-opacity: 0.8; stroke-width: 0.6"/>
      </g>
     </g>
    </g>
    <g id="xtick_7">
     <g id="line2d_7">
      <g>
       <use xlink:href="#mbf6dbacfff" x="156.857984" y="320.4" style="fill: #ff0000; fill-opacity: 0.8; stroke: #ff0000; stroke-opacity: 0.8; stroke-width: 0.6"/>
      </g>
     </g>
    </g>
    <g id="xtick_8">
     <g id="line2d_8">
      <g>
       <use xlink:href="#mbf6dbacfff" x="236.355064" y="320.4" style="fill: #ff0000; fill-opacity: 0.8; stroke: #ff0000; stroke-opacity: 0.8; stroke-width: 0.6"/>
      </g>
     </g>
    </g>
    <g id="xtick_9">
     <g id="line2d_9">
      <g>
       <use xlink:href="#mbf6dbacfff" x="276.75522" y="320.4" style="fill: #ff0000; fill-opacity: 0.8; stroke: #ff0000; stroke-opacity: 0.8; stroke-width: 0.6"/>
      </g>
     </g>
    </g>
    <g id="xtick_10">
     <g id="line2d_10">
      <g>
       <use xlink:href="#mbf6dbacfff" x="356.252301" y="320.4" style="fill: #ff0000; fill-opacity: 0.8; stroke: #ff0000; stroke-opacity: 0.8; stroke-width: 0.6"/>
      </g>
     </g>
    </g>
    <g id="xtick_11">
     <g id="line2d_11">
      <g>
       <use xlink:href="#mbf6dbacfff" x="395.349225" y="320.4" style="fill: #ff0000; fill-opacity: 0.8; stroke: #ff0000; stroke-opacity: 0.8; stroke-width: 0.6"/>
      </g>
     </g>
    </g>
    <g id="xtick_12">
     <g id="line2d_12">
      <g>
       <use xlink:href="#mbf6dbacfff" x="476.149537" y="320.4" style="fill: #ff0000; fill-opacity: 0.8; stroke: #ff0000; stroke-opacity: 0.8; stroke-width: 0.6"/>
      </g>
     </g>
    </g>
    <g id="xtick_13">
     <g id="line2d_13">
      <g>
       <use xlink:href="#mbf6dbacfff" x="512.64" y="320.4" style="fill: #ff0000; fill-opacity: 0.8; stroke: #ff0000; stroke-opacity: 0.8; stroke-width: 0.6"/>
      </g>
     </g>
    </g>
    <g id="text_5">
     <!-- * Based on annual mean exposure of 10 micrograms per cubic metre  -->
     <g style="opacity: 0.8" transform="translate(10.44 347.966406) scale(0.09 -0.09)">
      <defs>
       <path id="Varta-Regular-2a" d="M 1125 2716 
L 831 2988 
L 975 3278 
L 447 3519 
L 606 3875 
L 906 3825 
L 978 4422 
L 1359 4378 
L 1419 4069 
L 1994 4184 
L 2069 3803 
L 1800 3663 
L 2094 3131 
L 1759 2938 
L 1531 3178 
L 1125 2716 
z
" transform="scale(0.015625)"/>
       <path id="Varta-Regular-42" d="M 566 0 
L 566 4203 
L 1816 4203 
Q 2244 4203 2561 4103 
Q 2878 4003 3054 3781 
Q 3231 3559 3231 3188 
Q 3231 2869 3061 2609 
Q 2891 2350 2497 2263 
L 2497 2238 
Q 2959 2191 3217 1933 
Q 3475 1675 3475 1238 
Q 3475 822 3278 547 
Q 3081 272 2728 136 
Q 2375 0 1906 0 
L 566 0 
z
M 1066 397 
L 1828 397 
Q 2378 397 2681 606 
Q 2984 816 2984 1259 
Q 2984 1659 2690 1843 
Q 2397 2028 1831 2028 
L 1066 2028 
L 1066 397 
z
M 1066 2400 
L 1716 2400 
Q 2266 2400 2503 2592 
Q 2741 2784 2741 3147 
Q 2741 3503 2495 3654 
Q 2250 3806 1750 3806 
L 1066 3806 
L 1066 2400 
z
" transform="scale(0.015625)"/>
       <path id="Varta-Regular-73" d="M 1338 -78 
Q 1009 -78 711 47 
Q 413 172 194 353 
L 441 684 
Q 644 522 856 414 
Q 1069 306 1356 306 
Q 1675 306 1831 451 
Q 1988 597 1988 806 
Q 1988 972 1880 1083 
Q 1772 1194 1606 1270 
Q 1441 1347 1269 1409 
Q 1047 1491 833 1600 
Q 619 1709 476 1879 
Q 334 2050 334 2313 
Q 334 2681 614 2931 
Q 894 3181 1394 3181 
Q 1678 3181 1925 3084 
Q 2172 2988 2350 2844 
L 2113 2528 
Q 1953 2650 1784 2723 
Q 1616 2797 1397 2797 
Q 1094 2797 951 2667 
Q 809 2538 809 2350 
Q 809 2203 909 2101 
Q 1009 2000 1168 1925 
Q 1328 1850 1503 1781 
Q 1731 1700 1951 1592 
Q 2172 1484 2317 1307 
Q 2463 1131 2463 831 
Q 2463 459 2172 190 
Q 1881 -78 1338 -78 
z
" transform="scale(0.015625)"/>
       <path id="Varta-Regular-65" d="M 1781 -78 
Q 1369 -78 1031 112 
Q 694 303 495 667 
Q 297 1031 297 1550 
Q 297 2069 489 2433 
Q 681 2797 998 2990 
Q 1316 3184 1684 3184 
Q 2297 3184 2608 2798 
Q 2919 2413 2919 1728 
Q 2919 1650 2916 1578 
Q 2913 1506 2903 1447 
L 784 1447 
Q 809 922 1095 620 
Q 1381 319 1841 319 
Q 2066 319 2256 378 
Q 2447 438 2619 550 
L 2794 225 
Q 2597 100 2348 11 
Q 2100 -78 1781 -78 
z
M 781 1775 
L 2488 1775 
Q 2488 2281 2284 2536 
Q 2081 2791 1697 2791 
Q 1347 2791 1086 2528 
Q 825 2266 781 1775 
z
" transform="scale(0.015625)"/>
       <path id="Varta-Regular-64" d="M 1588 -78 
Q 1009 -78 657 337 
Q 306 753 306 1550 
Q 306 2069 492 2433 
Q 678 2797 984 2989 
Q 1291 3181 1656 3181 
Q 1931 3181 2129 3086 
Q 2328 2991 2538 2822 
L 2516 3356 
L 2516 4566 
L 3006 4566 
L 3006 0 
L 2600 0 
L 2559 372 
L 2541 372 
Q 2356 191 2112 56 
Q 1869 -78 1588 -78 
z
M 1694 338 
Q 1916 338 2116 447 
Q 2316 556 2516 778 
L 2516 2431 
Q 2309 2616 2120 2692 
Q 1931 2769 1738 2769 
Q 1472 2769 1261 2620 
Q 1050 2472 929 2198 
Q 809 1925 809 1556 
Q 809 978 1036 658 
Q 1263 338 1694 338 
z
" transform="scale(0.015625)"/>
       <path id="Varta-Regular-6f" d="M 1728 -78 
Q 1344 -78 1019 112 
Q 694 303 498 665 
Q 303 1028 303 1550 
Q 303 2078 498 2442 
Q 694 2806 1019 2993 
Q 1344 3181 1728 3181 
Q 2116 3181 2442 2993 
Q 2769 2806 2966 2442 
Q 3163 2078 3163 1550 
Q 3163 1028 2966 665 
Q 2769 303 2442 112 
Q 2116 -78 1728 -78 
z
M 1728 331 
Q 2150 331 2403 665 
Q 2656 1000 2656 1550 
Q 2656 2106 2403 2439 
Q 2150 2772 1728 2772 
Q 1313 2772 1061 2439 
Q 809 2106 809 1550 
Q 809 1000 1061 665 
Q 1313 331 1728 331 
z
" transform="scale(0.015625)"/>
       <path id="Varta-Regular-6d" d="M 534 0 
L 534 3103 
L 941 3103 
L 981 2653 
L 1006 2653 
Q 1206 2875 1451 3028 
Q 1697 3181 1972 3181 
Q 2341 3181 2537 3028 
Q 2734 2875 2825 2591 
Q 3072 2859 3322 3020 
Q 3572 3181 3853 3181 
Q 4347 3181 4572 2879 
Q 4797 2578 4797 1981 
L 4797 0 
L 4306 0 
L 4306 1916 
Q 4306 2359 4168 2556 
Q 4031 2753 3716 2753 
Q 3344 2753 2913 2272 
L 2913 0 
L 2422 0 
L 2422 1919 
Q 2422 2363 2284 2558 
Q 2147 2753 1825 2753 
Q 1466 2753 1025 2263 
L 1025 0 
L 534 0 
z
" transform="scale(0.015625)"/>
       <path id="Varta-Regular-78" d="M 91 0 
L 1109 1622 
L 166 3103 
L 700 3103 
L 1128 2406 
Q 1200 2281 1278 2150 
Q 1356 2019 1441 1891 
L 1466 1891 
Q 1534 2019 1606 2150 
Q 1678 2281 1750 2406 
L 2141 3103 
L 2656 3103 
L 1713 1572 
L 2731 0 
L 2197 0 
L 1728 738 
Q 1647 881 1561 1023 
Q 1475 1166 1388 1300 
L 1359 1300 
Q 1278 1166 1200 1025 
Q 1122 884 1044 738 
L 603 0 
L 91 0 
z
" transform="scale(0.015625)"/>
       <path id="Varta-Regular-66" d="M 616 0 
L 616 2703 
L 194 2703 
L 194 3075 
L 616 3103 
L 616 3631 
Q 616 4106 834 4373 
Q 1053 4641 1503 4641 
Q 1644 4641 1775 4611 
Q 1906 4581 2013 4538 
L 1903 4163 
Q 1816 4200 1725 4220 
Q 1634 4241 1547 4241 
Q 1106 4241 1106 3628 
L 1106 3103 
L 1772 3103 
L 1772 2703 
L 1106 2703 
L 1106 0 
L 616 0 
z
" transform="scale(0.015625)"/>
       <path id="Varta-Regular-69" d="M 534 0 
L 534 3103 
L 1025 3103 
L 1025 0 
L 534 0 
z
M 788 3763 
Q 641 3763 539 3852 
Q 438 3941 438 4084 
Q 438 4234 539 4325 
Q 641 4416 788 4416 
Q 931 4416 1032 4325 
Q 1134 4234 1134 4084 
Q 1134 3941 1032 3852 
Q 931 3763 788 3763 
z
" transform="scale(0.015625)"/>
       <path id="Varta-Regular-67" d="M 1575 -1441 
Q 947 -1441 622 -1220 
Q 297 -1000 297 -600 
Q 297 -394 417 -195 
Q 538 3 750 144 
L 750 169 
Q 634 244 556 364 
Q 478 484 478 669 
Q 478 866 587 1002 
Q 697 1138 816 1219 
L 816 1244 
Q 663 1369 538 1580 
Q 413 1791 413 2081 
Q 413 2444 567 2689 
Q 722 2934 986 3057 
Q 1250 3181 1572 3181 
Q 1716 3181 1819 3159 
Q 1922 3138 2006 3103 
L 3081 3103 
L 3081 2731 
L 2431 2731 
Q 2550 2634 2626 2470 
Q 2703 2306 2703 2069 
Q 2703 1556 2381 1272 
Q 2059 988 1572 988 
Q 1319 988 1097 1100 
Q 1013 1025 953 950 
Q 894 875 894 744 
Q 894 594 1011 495 
Q 1128 397 1447 397 
L 2100 397 
Q 2650 397 2892 206 
Q 3134 16 3134 -372 
Q 3134 -656 2948 -900 
Q 2763 -1144 2414 -1292 
Q 2066 -1441 1575 -1441 
z
M 1647 -1091 
Q 1959 -1091 2186 -997 
Q 2413 -903 2534 -754 
Q 2656 -606 2656 -441 
Q 2656 -219 2495 -109 
Q 2334 0 2016 0 
L 1459 0 
Q 1375 0 1270 11 
Q 1166 22 1059 50 
Q 884 -72 807 -228 
Q 731 -384 731 -534 
Q 731 -791 961 -941 
Q 1191 -1091 1647 -1091 
z
M 1572 1322 
Q 1847 1322 2048 1519 
Q 2250 1716 2250 2081 
Q 2250 2463 2059 2642 
Q 1869 2822 1572 2822 
Q 1275 2822 1083 2639 
Q 891 2456 891 2081 
Q 891 1719 1092 1520 
Q 1294 1322 1572 1322 
z
" transform="scale(0.015625)"/>
       <path id="Varta-Regular-62" d="M 1891 -78 
Q 1669 -78 1434 22 
Q 1200 122 994 303 
L 972 303 
L 928 0 
L 534 0 
L 534 4566 
L 1025 4566 
L 1025 3309 
L 1009 2741 
Q 1225 2931 1479 3056 
Q 1734 3181 2006 3181 
Q 2628 3181 2929 2756 
Q 3231 2331 3231 1597 
Q 3231 1056 3048 682 
Q 2866 309 2561 115 
Q 2256 -78 1891 -78 
z
M 1809 338 
Q 2216 338 2469 669 
Q 2722 1000 2722 1594 
Q 2722 2125 2536 2447 
Q 2350 2769 1888 2769 
Q 1678 2769 1465 2656 
Q 1253 2544 1025 2331 
L 1025 672 
Q 1238 491 1444 414 
Q 1650 338 1809 338 
z
" transform="scale(0.015625)"/>
      </defs>
      <use xlink:href="#Varta-Regular-2a"/>
      <use xlink:href="#Varta-Regular-20" transform="translate(41.503906 0)"/>
      <use xlink:href="#Varta-Regular-42" transform="translate(61.71875 0)"/>
      <use xlink:href="#Varta-Regular-61" transform="translate(119.873047 0)"/>
      <use xlink:href="#Varta-Regular-73" transform="translate(170.898438 0)"/>
      <use xlink:href="#Varta-Regular-65" transform="translate(212.597656 0)"/>
      <use xlink:href="#Varta-Regular-64" transform="translate(262.011719 0)"/>
      <use xlink:href="#Varta-Regular-20" transform="translate(317.382812 0)"/>
      <use xlink:href="#Varta-Regular-6f" transform="translate(337.597656 0)"/>
      <use xlink:href="#Varta-Regular-6e" transform="translate(391.699219 0)"/>
      <use xlink:href="#Varta-Regular-20" transform="translate(446.191406 0)"/>
      <use xlink:href="#Varta-Regular-61" transform="translate(466.40625 0)"/>
      <use xlink:href="#Varta-Regular-6e" transform="translate(517.431641 0)"/>
      <use xlink:href="#Varta-Regular-6e" transform="translate(571.923828 0)"/>
      <use xlink:href="#Varta-Regular-75" transform="translate(626.416016 0)"/>
      <use xlink:href="#Varta-Regular-61" transform="translate(680.566406 0)"/>
      <use xlink:href="#Varta-Regular-6c" transform="translate(731.591797 0)"/>
      <use xlink:href="#Varta-Regular-20" transform="translate(756.835938 0)"/>
      <use xlink:href="#Varta-Regular-6d" transform="translate(777.050781 0)"/>
      <use xlink:href="#Varta-Regular-65" transform="translate(859.716797 0)"/>
      <use xlink:href="#Varta-Regular-61" transform="translate(909.130859 0)"/>
      <use xlink:href="#Varta-Regular-6e" transform="translate(960.15625 0)"/>
      <use xlink:href="#Varta-Regular-20" transform="translate(1014.648438 0)"/>
      <use xlink:href="#Varta-Regular-65" transform="translate(1034.863281 0)"/>
      <use xlink:href="#Varta-Regular-78" transform="translate(1084.277344 0)"/>
      <use xlink:href="#Varta-Regular-70" transform="translate(1128.320312 0)"/>
      <use xlink:href="#Varta-Regular-6f" transform="translate(1183.691406 0)"/>
      <use xlink:href="#Varta-Regular-73" transform="translate(1237.792969 0)"/>
      <use xlink:href="#Varta-Regular-75" transform="translate(1279.492188 0)"/>
      <use xlink:href="#Varta-Regular-72" transform="translate(1333.642578 0)"/>
      <use xlink:href="#Varta-Regular-65" transform="translate(1367.919922 0)"/>
      <use xlink:href="#Varta-Regular-20" transform="translate(1417.333984 0)"/>
      <use xlink:href="#Varta-Regular-6f" transform="translate(1437.548828 0)"/>
      <use xlink:href="#Varta-Regular-66" transform="translate(1491.650391 0)"/>
      <use xlink:href="#Varta-Regular-20" transform="translate(1520.458984 0)"/>
      <use xlink:href="#Varta-Regular-31" transform="translate(1540.673828 0)"/>
      <use xlink:href="#Varta-Regular-30" transform="translate(1590.136719 0)"/>
      <use xlink:href="#Varta-Regular-20" transform="translate(1639.599609 0)"/>
      <use xlink:href="#Varta-Regular-6d" transform="translate(1659.814453 0)"/>
      <use xlink:href="#Varta-Regular-69" transform="translate(1742.480469 0)"/>
      <use xlink:href="#Varta-Regular-63" transform="translate(1766.845703 0)"/>
      <use xlink:href="#Varta-Regular-72" transform="translate(1812.353516 0)"/>
      <use xlink:href="#Varta-Regular-6f" transform="translate(1846.630859 0)"/>
      <use xlink:href="#Varta-Regular-67" transform="translate(1900.732422 0)"/>
      <use xlink:href="#Varta-Regular-72" transform="translate(1950.927734 0)"/>
      <use xlink:href="#Varta-Regular-61" transform="translate(1985.205078 0)"/>
      <use xlink:href="#Varta-Regular-6d" transform="translate(2036.230469 0)"/>
      <use xlink:href="#Varta-Regular-73" transform="translate(2118.896484 0)"/>
      <use xlink:href="#Varta-Regular-20" transform="translate(2160.595703 0)"/>
      <use xlink:href="#Varta-Regular-70" transform="translate(2180.810547 0)"/>
      <use xlink:href="#Varta-Regular-65" transform="translate(2236.181641 0)"/>
      <use xlink:href="#Varta-Regular-72" transform="translate(2285.595703 0)"/>
      <use xlink:href="#Varta-Regular-20" transform="translate(2319.873047 0)"/>
      <use xlink:href="#Varta-Regular-63" transform="translate(2340.087891 0)"/>
      <use xlink:href="#Varta-Regular-75" transform="translate(2385.595703 0)"/>
      <use xlink:href="#Varta-Regular-62" transform="translate(2439.746094 0)"/>
      <use xlink:href="#Varta-Regular-69" transform="translate(2495.117188 0)"/>
      <use xlink:href="#Varta-Regular-63" transform="translate(2519.482422 0)"/>
      <use xlink:href="#Varta-Regular-20" transform="translate(2564.990234 0)"/>
      <use xlink:href="#Varta-Regular-6d" transform="translate(2585.205078 0)"/>
      <use xlink:href="#Varta-Regular-65" transform="translate(2667.871094 0)"/>
      <use xlink:href="#Varta-Regular-74" transform="translate(2717.285156 0)"/>
      <use xlink:href="#Varta-Regular-72" transform="translate(2750.683594 0)"/>
      <use xlink:href="#Varta-Regular-65" transform="translate(2784.960938 0)"/>
      <use xlink:href="#Varta-Regular-20" transform="translate(2834.375 0)"/>
     </g>
     <!--  Source: AQICN -->
     <g style="opacity: 0.8" transform="translate(10.44 357.697937) scale(0.09 -0.09)">
      <defs>
       <path id="Varta-Regular-53" d="M 1719 -78 
Q 1272 -78 906 83 
Q 541 244 266 525 
L 566 872 
Q 794 634 1094 498 
Q 1394 363 1728 363 
Q 2153 363 2392 555 
Q 2631 747 2631 1063 
Q 2631 1284 2532 1420 
Q 2434 1556 2268 1650 
Q 2103 1744 1903 1831 
L 1297 2100 
Q 1103 2184 908 2321 
Q 713 2459 583 2673 
Q 453 2888 453 3197 
Q 453 3516 626 3759 
Q 800 4003 1098 4140 
Q 1397 4278 1772 4278 
Q 2147 4278 2461 4143 
Q 2775 4009 2991 3781 
L 2725 3456 
Q 2534 3641 2298 3741 
Q 2063 3841 1769 3841 
Q 1406 3841 1181 3680 
Q 956 3519 956 3225 
Q 956 3019 1062 2881 
Q 1169 2744 1330 2653 
Q 1491 2563 1650 2491 
L 2256 2231 
Q 2500 2128 2700 1984 
Q 2900 1841 3020 1628 
Q 3141 1416 3141 1103 
Q 3141 772 2967 505 
Q 2794 238 2475 80 
Q 2156 -78 1719 -78 
z
" transform="scale(0.015625)"/>
       <path id="Varta-Regular-3a" d="M 784 2226 
Q 638 2226 528 2334 
Q 419 2442 419 2610 
Q 419 2785 528 2893 
Q 638 3001 784 3001 
Q 934 3001 1042 2893 
Q 1150 2785 1150 2610 
Q 1150 2442 1042 2334 
Q 934 2226 784 2226 
z
M 784 -78 
Q 638 -78 528 30 
Q 419 138 419 306 
Q 419 481 528 589 
Q 638 697 784 697 
Q 934 697 1042 589 
Q 1150 481 1150 306 
Q 1150 138 1042 30 
Q 934 -78 784 -78 
z
" transform="scale(0.015625)"/>
       <path id="Varta-Regular-51" d="M 3197 -1041 
Q 2844 -1041 2572 -934 
Q 2300 -828 2115 -609 
Q 1931 -391 1844 -59 
Q 1388 3 1041 279 
Q 694 556 500 1023 
Q 306 1491 306 2119 
Q 306 2803 529 3286 
Q 753 3769 1154 4023 
Q 1556 4278 2091 4278 
Q 2631 4278 3032 4022 
Q 3434 3766 3659 3283 
Q 3884 2800 3884 2119 
Q 3884 1500 3695 1037 
Q 3506 575 3170 297 
Q 2834 19 2384 -53 
Q 2441 -288 2567 -411 
Q 2694 -534 2870 -576 
Q 3047 -619 3250 -619 
Q 3388 -619 3505 -598 
Q 3622 -578 3706 -556 
L 3806 -947 
Q 3713 -978 3547 -1009 
Q 3381 -1041 3197 -1041 
z
M 2091 363 
Q 2484 363 2768 575 
Q 3053 788 3208 1183 
Q 3363 1578 3363 2119 
Q 3363 2928 3020 3384 
Q 2678 3841 2091 3841 
Q 1506 3841 1165 3384 
Q 825 2928 825 2119 
Q 825 1306 1165 834 
Q 1506 363 2091 363 
z
" transform="scale(0.015625)"/>
       <path id="Varta-Regular-49" d="M 566 0 
L 566 4203 
L 1066 4203 
L 1066 0 
L 566 0 
z
" transform="scale(0.015625)"/>
       <path id="Varta-Regular-43" d="M 2134 -78 
Q 1609 -78 1198 176 
Q 788 431 552 918 
Q 316 1406 316 2100 
Q 316 2794 555 3280 
Q 794 3766 1212 4022 
Q 1631 4278 2169 4278 
Q 2541 4278 2837 4126 
Q 3134 3975 3319 3769 
L 3034 3453 
Q 2869 3631 2653 3736 
Q 2438 3841 2172 3841 
Q 1559 3841 1195 3386 
Q 831 2931 831 2116 
Q 831 1294 1184 828 
Q 1538 363 2147 363 
Q 2450 363 2686 481 
Q 2922 600 3128 831 
L 3413 525 
Q 3166 238 2850 80 
Q 2534 -78 2134 -78 
z
" transform="scale(0.015625)"/>
       <path id="Varta-Regular-4e" d="M 566 0 
L 566 4203 
L 1078 4203 
L 2641 1516 
L 3097 650 
L 3122 650 
Q 3103 966 3079 1305 
Q 3056 1644 3056 1972 
L 3056 4203 
L 3531 4203 
L 3531 0 
L 3013 0 
L 1456 2691 
L 1003 3553 
L 975 3553 
Q 994 3238 1016 2911 
Q 1038 2584 1038 2256 
L 1038 0 
L 566 0 
z
" transform="scale(0.015625)"/>
      </defs>
      <use xlink:href="#Varta-Regular-20"/>
      <use xlink:href="#Varta-Regular-53" transform="translate(20.214844 0)"/>
      <use xlink:href="#Varta-Regular-6f" transform="translate(72.900391 0)"/>
      <use xlink:href="#Varta-Regular-75" transform="translate(127.001953 0)"/>
      <use xlink:href="#Varta-Regular-72" transform="translate(181.152344 0)"/>
      <use xlink:href="#Varta-Regular-63" transform="translate(215.429688 0)"/>
      <use xlink:href="#Varta-Regular-65" transform="translate(260.9375 0)"/>
      <use xlink:href="#Varta-Regular-3a" transform="translate(310.351562 0)"/>
      <use xlink:href="#Varta-Regular-20" transform="translate(334.814453 0)"/>
      <use xlink:href="#Varta-Regular-41" transform="translate(355.029297 0)"/>
      <use xlink:href="#Varta-Regular-51" transform="translate(408.59375 0)"/>
      <use xlink:href="#Varta-Regular-49" transform="translate(474.316406 0)"/>
      <use xlink:href="#Varta-Regular-43" transform="translate(499.755859 0)"/>
      <use xlink:href="#Varta-Regular-4e" transform="translate(556.25 0)"/>
     </g>
    </g>
   </g>
   <g id="matplotlib.axis_2">
    <g id="ytick_1">
     <g id="line2d_14">
      <path d="M 10.44 320.4 
L 512.64 320.4 
" clip-path="url(#pc993f647ca)" style="fill: none; stroke: #b1afb5; stroke-width: 0.2; stroke-linecap: square"/>
     </g>
     <g id="line2d_15"/>
     <g id="text_6">
      <!-- $\mathdefault{0}$ -->
      <g style="fill: #323034; opacity: 0.8" transform="translate(516.14 324.680625) scale(0.12 -0.12)">
       <use xlink:href="#Varta-Regular-30" transform="translate(0 0.15625)"/>
      </g>
     </g>
    </g>
    <g id="ytick_2">
     <g id="line2d_16">
      <path d="M 10.44 251.1 
L 512.64 251.1 
" clip-path="url(#pc993f647ca)" style="fill: none; stroke: #b1afb5; stroke-width: 0.2; stroke-linecap: square"/>
     </g>
     <g id="line2d_17"/>
     <g id="text_7">
      <!-- $\mathdefault{50}$ -->
      <g style="fill: #323034; opacity: 0.8" transform="translate(516.14 255.380625) scale(0.12 -0.12)">
       <defs>
        <path id="Varta-Regular-35" d="M 1491 -78 
Q 1000 -78 694 90 
Q 388 259 181 472 
L 422 794 
Q 606 613 842 472 
Q 1078 331 1447 331 
Q 1700 331 1908 454 
Q 2116 578 2239 801 
Q 2363 1025 2363 1328 
Q 2363 1763 2128 2034 
Q 1894 2306 1472 2306 
Q 1259 2306 1104 2240 
Q 950 2175 766 2053 
L 497 2222 
L 631 4213 
L 2650 4213 
L 2650 3788 
L 1063 3788 
L 950 2509 
Q 1097 2591 1250 2636 
Q 1403 2681 1594 2681 
Q 1947 2681 2234 2532 
Q 2522 2384 2690 2086 
Q 2859 1788 2859 1341 
Q 2859 891 2664 573 
Q 2469 256 2156 89 
Q 1844 -78 1491 -78 
z
" transform="scale(0.015625)"/>
       </defs>
       <use xlink:href="#Varta-Regular-35" transform="translate(0 0.15625)"/>
       <use xlink:href="#Varta-Regular-30" transform="translate(49.462891 0.15625)"/>
      </g>
     </g>
    </g>
    <g id="ytick_3">
     <g id="line2d_18">
      <path d="M 10.44 181.8 
L 512.64 181.8 
" clip-path="url(#pc993f647ca)" style="fill: none; stroke: #b1afb5; stroke-width: 0.2; stroke-linecap: square"/>
     </g>
     <g id="line2d_19"/>
     <g id="text_8">
      <!-- $\mathdefault{100}$ -->
      <g style="fill: #323034; opacity: 0.8" transform="translate(516.14 186.080625) scale(0.12 -0.12)">
       <use xlink:href="#Varta-Regular-31" transform="translate(0 0.15625)"/>
       <use xlink:href="#Varta-Regular-30" transform="translate(49.462891 0.15625)"/>
       <use xlink:href="#Varta-Regular-30" transform="translate(98.925781 0.15625)"/>
      </g>
     </g>
    </g>
    <g id="ytick_4">
     <g id="line2d_20">
      <path d="M 10.44 112.5 
L 512.64 112.5 
" clip-path="url(#pc993f647ca)" style="fill: none; stroke: #b1afb5; stroke-width: 0.2; stroke-linecap: square"/>
     </g>
     <g id="line2d_21"/>
     <g id="text_9">
      <!-- $\mathdefault{150}$ -->
      <g style="fill: #323034; opacity: 0.8" transform="translate(516.14 116.780625) scale(0.12 -0.12)">
       <use xlink:href="#Varta-Regular-31" transform="translate(0 0.15625)"/>
       <use xlink:href="#Varta-Regular-35" transform="translate(49.462891 0.15625)"/>
       <use xlink:href="#Varta-Regular-30" transform="translate(98.925781 0.15625)"/>
      </g>
     </g>
    </g>
    <g id="ytick_5">
     <g id="line2d_22">
      <path d="M 10.44 43.2 
L 512.64 43.2 
" clip-path="url(#pc993f647ca)" style="fill: none; stroke: #b1afb5; stroke-width: 0.2; stroke-linecap: square"/>
     </g>
     <g id="line2d_23"/>
     <g id="text_10">
      <!-- $\mathdefault{200}$ -->
      <g style="fill: #323034; opacity: 0.8" transform="translate(516.14 47.480625) scale(0.12 -0.12)">
       <use xlink:href="#Varta-Regular-32" transform="translate(0 0.15625)"/>
       <use xlink:href="#Varta-Regular-30" transform="translate(49.462891 0.15625)"/>
       <use xlink:href="#Varta-Regular-30" transform="translate(98.925781 0.15625)"/>
      </g>
     </g>
    </g>
   </g>
   <g id="line2d_24">
    <path d="M 34.354286 177.84 
L 35.657517 177.246 
L 36.960747 149.13 
L 38.263978 156.654 
L 39.567209 170.514 
L 40.87044 176.058 
L 42.173671 185.364 
L 44.780132 173.286 
L 46.083363 179.622 
L 47.386594 160.02 
L 48.689825 150.318 
L 49.993056 159.624 
L 51.296286 150.714 
L 52.599517 157.842 
L 53.902748 182.79 
L 55.205979 202.392 
L 56.50921 229.518 
L 57.812441 237.834 
L 59.115671 228.33 
L 60.418902 222.984 
L 61.722133 229.914 
L 64.328595 209.718 
L 65.631826 197.046 
L 66.935056 194.076 
L 68.238287 189.918 
L 69.541518 175.464 
L 70.844749 175.464 
L 72.14798 190.71 
L 73.451211 183.582 
L 74.754441 172.098 
L 76.057672 162.396 
L 77.360903 179.424 
L 78.664134 205.56 
L 79.967365 200.808 
L 81.270596 187.74 
L 82.573826 194.868 
L 83.877057 195.66 
L 85.180288 200.61 
L 87.78675 183.978 
L 89.089981 173.286 
L 90.393211 174.078 
L 91.696442 177.444 
L 92.999673 190.116 
L 94.302904 184.77 
L 95.606135 169.92 
L 96.909366 173.88 
L 98.212596 181.206 
L 99.515827 177.048 
L 100.819058 166.554 
L 102.122289 176.256 
L 104.72875 221.4 
L 106.031981 230.904 
L 107.335212 233.874 
L 108.638443 242.784 
L 109.941674 248.328 
L 111.244905 228.132 
L 113.851366 182.394 
L 115.154597 152.694 
L 116.457828 128.142 
L 117.761059 109.53 
L 119.06429 99.828 
L 120.36752 106.164 
L 121.670751 107.55 
L 122.973982 105.57 
L 124.277213 110.52 
L 125.580444 126.756 
L 126.883675 136.458 
L 128.186905 150.516 
L 129.490136 161.406 
L 130.793367 178.632 
L 132.096598 188.928 
L 133.399829 201.798 
L 134.70306 200.214 
L 136.00629 195.462 
L 137.309521 196.65 
L 138.612752 199.224 
L 139.915983 198.234 
L 141.219214 205.956 
L 142.522445 192.492 
L 143.825675 190.71 
L 145.128906 210.114 
L 146.432137 215.46 
L 147.735368 215.064 
L 149.038599 220.41 
L 150.34183 227.34 
L 151.64506 237.438 
L 152.948291 232.29 
L 154.251522 211.896 
L 155.554753 208.53 
L 156.857984 201.6 
L 158.161214 193.878 
L 159.464445 175.464 
L 160.767676 189.324 
L 162.070907 208.332 
L 163.374138 218.034 
L 164.677369 210.114 
L 165.980599 199.026 
L 167.28383 191.502 
L 168.587061 189.126 
L 169.890292 170.316 
L 172.496754 152.694 
L 173.799984 165.564 
L 175.103215 180.612 
L 176.406446 182.196 
L 177.709677 197.046 
L 179.012908 208.134 
L 180.316139 212.094 
L 181.619369 215.658 
L 182.9226 203.58 
L 184.225831 189.522 
L 185.529062 185.958 
L 186.832293 184.77 
L 188.135524 180.81 
L 189.438754 178.236 
L 190.741985 167.346 
L 192.045216 159.228 
L 193.348447 166.356 
L 194.651678 179.226 
L 195.954909 176.058 
L 197.258139 177.642 
L 198.56137 169.524 
L 199.864601 178.434 
L 201.167832 189.522 
L 202.471063 195.066 
L 203.774293 196.254 
L 205.077524 192.492 
L 206.380755 191.502 
L 207.683986 190.314 
L 208.987217 180.216 
L 210.290448 161.406 
L 211.593678 148.14 
L 212.896909 139.23 
L 214.20014 138.24 
L 215.503371 132.102 
L 216.806602 133.686 
L 218.109833 143.388 
L 219.413063 159.228 
L 220.716294 162.396 
L 222.019525 162.792 
L 223.322756 161.208 
L 224.625987 166.752 
L 225.929218 176.256 
L 227.232448 182.988 
L 228.535679 185.364 
L 229.83891 178.632 
L 231.142141 168.534 
L 232.445372 162 
L 233.748603 153.486 
L 235.051833 145.764 
L 236.355064 140.814 
L 237.658295 143.982 
L 240.264757 175.86 
L 241.567988 184.176 
L 242.871218 191.7 
L 244.174449 200.808 
L 245.47768 208.134 
L 246.780911 206.946 
L 248.084142 208.728 
L 249.387373 202.788 
L 250.690603 204.57 
L 251.993834 215.064 
L 253.297065 210.708 
L 254.600296 203.778 
L 255.903527 194.868 
L 257.206757 181.8 
L 258.509988 184.176 
L 259.813219 195.858 
L 261.11645 192.096 
L 262.419681 195.858 
L 263.722912 195.264 
L 265.026142 190.116 
L 266.329373 206.55 
L 267.632604 210.312 
L 268.935835 191.304 
L 270.239066 183.384 
L 271.542297 186.354 
L 272.845527 180.414 
L 274.148758 181.602 
L 275.451989 178.632 
L 276.75522 182.394 
L 279.361682 214.668 
L 280.664912 215.46 
L 281.968143 226.944 
L 283.271374 223.182 
L 284.574605 221.796 
L 285.877836 225.558 
L 287.181067 228.924 
L 288.484297 229.32 
L 289.787528 235.458 
L 291.090759 242.982 
L 292.39399 258.03 
L 295.000452 231.498 
L 296.303682 233.082 
L 297.606913 233.082 
L 298.910144 229.32 
L 300.213375 227.142 
L 301.516606 233.676 
L 304.123067 240.606 
L 305.426298 223.776 
L 306.729529 210.51 
L 308.03276 195.462 
L 309.335991 176.85 
L 310.639221 155.07 
L 311.942452 144.18 
L 313.245683 148.536 
L 314.548914 157.842 
L 315.852145 150.516 
L 317.155376 168.93 
L 318.458606 183.78 
L 321.065068 236.25 
L 322.368299 231.498 
L 323.67153 215.064 
L 324.974761 209.124 
L 326.277991 179.424 
L 327.581222 155.466 
L 328.884453 143.784 
L 330.187684 141.804 
L 331.490915 147.942 
L 332.794146 169.524 
L 334.097376 179.82 
L 335.400607 203.778 
L 336.703838 230.31 
L 338.007069 228.132 
L 339.3103 209.322 
L 340.613531 182.394 
L 341.916761 169.326 
L 343.219992 181.998 
L 344.523223 185.76 
L 345.826454 180.018 
L 348.432916 165.762 
L 349.736146 161.01 
L 351.039377 191.7 
L 352.342608 200.214 
L 353.645839 187.146 
L 354.94907 166.752 
L 356.252301 152.694 
L 357.555531 174.474 
L 358.858762 199.224 
L 360.161993 196.65 
L 361.465224 185.364 
L 362.768455 173.088 
L 364.071685 171.108 
L 365.374916 185.562 
L 366.678147 187.146 
L 367.981378 178.83 
L 369.284609 165.762 
L 370.58784 151.506 
L 371.89107 157.842 
L 373.194301 174.672 
L 374.497532 166.158 
L 375.800763 142.398 
L 377.103994 122.202 
L 378.407225 108.936 
L 379.710455 125.172 
L 381.013686 145.566 
L 382.316917 150.714 
L 383.620148 158.634 
L 386.22661 208.332 
L 387.52984 225.756 
L 388.833071 231.696 
L 390.136302 226.944 
L 391.439533 222.984 
L 392.742764 231.3 
L 394.045995 227.142 
L 395.349225 224.766 
L 396.652456 226.548 
L 397.955687 228.726 
L 400.562149 237.438 
L 401.86538 231.894 
L 403.16861 222.786 
L 404.471841 228.132 
L 405.775072 230.112 
L 407.078303 216.846 
L 408.381534 194.67 
L 409.684764 182.988 
L 410.987995 167.544 
L 412.291226 180.81 
L 413.594457 179.424 
L 414.897688 182.394 
L 416.200919 195.066 
L 417.504149 202.392 
L 418.80738 212.688 
L 420.110611 227.34 
L 421.413842 218.826 
L 422.717073 208.332 
L 424.020304 193.482 
L 425.323534 185.958 
L 426.626765 195.264 
L 427.929996 182.196 
L 429.233227 171.108 
L 430.536458 157.248 
L 431.839689 150.12 
L 433.142919 169.128 
L 434.44615 185.166 
L 437.052612 194.472 
L 438.355843 194.274 
L 439.659074 213.678 
L 440.962304 229.716 
L 442.265535 227.142 
L 443.568766 222.39 
L 444.871997 222.984 
L 446.175228 232.686 
L 447.478459 251.892 
L 448.781689 255.852 
L 450.08492 252.288 
L 451.388151 238.032 
L 453.994613 203.382 
L 455.297844 188.928 
L 456.601074 188.532 
L 457.904305 183.384 
L 459.207536 184.374 
L 460.510767 189.522 
L 461.813998 189.72 
L 463.117228 183.384 
L 464.420459 175.266 
L 467.026921 133.092 
L 468.330152 108.738 
L 469.633383 96.264 
L 470.936613 103.194 
L 472.239844 127.746 
L 473.543075 142.398 
L 474.846306 148.536 
L 476.149537 152.694 
L 477.452768 178.236 
L 478.755998 198.432 
L 480.059229 205.164 
L 481.36246 190.512 
L 482.665691 178.236 
L 483.968922 180.612 
L 485.272153 194.868 
L 486.575383 185.562 
L 489.181845 145.764 
L 491.788307 95.274 
L 493.091538 64.98 
L 494.394768 48.15 
L 495.697999 60.624 
L 498.304461 111.114 
L 500.910923 169.326 
L 502.214153 194.472 
L 503.517384 198.234 
L 504.820615 190.512 
L 506.123846 181.206 
L 508.730308 149.328 
L 510.033538 136.656 
L 511.336769 127.152 
L 512.64 122.598 
L 512.64 122.598 
" clip-path="url(#pc993f647ca)" style="fill: none; stroke: #12549a; stroke-width: 1.5; stroke-linecap: square"/>
   </g>
   <g id="patch_3">
    <path d="M 363.87683 74.062635 
Q 381.562112 48.380516 491.503182 48.153894 
" style="fill: none; stroke: #000000; stroke-width: 0.8; stroke-linecap: round"/>
    <path d="M 485.897422 45.365444 
L 491.503182 48.153894 
L 485.908965 50.965432 
" style="fill: none; stroke: #000000; stroke-width: 0.8; stroke-linecap: round"/>
   </g>
   <g id="text_11">
    <!-- Worst storm in a decade hits Beijing -->
    <g style="fill: #323034" transform="translate(256.643518 88.15) scale(0.14 -0.14)">
     <defs>
      <path id="Varta-Regular-57" d="M 1031 0 
L 131 4203 
L 650 4203 
L 1100 1888 
Q 1169 1550 1231 1211 
Q 1294 872 1356 528 
L 1381 528 
Q 1453 872 1528 1211 
Q 1603 1550 1681 1888 
L 2275 4203 
L 2734 4203 
L 3328 1888 
Q 3406 1553 3481 1212 
Q 3556 872 3634 528 
L 3663 528 
Q 3725 872 3786 1211 
Q 3847 1550 3903 1888 
L 4359 4203 
L 4844 4203 
L 3959 0 
L 3363 0 
L 2706 2581 
Q 2656 2825 2603 3058 
Q 2550 3291 2503 3534 
L 2478 3534 
Q 2428 3291 2375 3058 
Q 2322 2825 2266 2581 
L 1622 0 
L 1031 0 
z
" transform="scale(0.015625)"/>
      <path id="Varta-Regular-68" d="M 534 0 
L 534 4566 
L 1025 4566 
L 1025 3309 
L 1009 2663 
Q 1231 2878 1478 3029 
Q 1725 3181 2047 3181 
Q 2547 3181 2769 2878 
Q 2991 2575 2991 1978 
L 2991 0 
L 2503 0 
L 2503 1913 
Q 2503 2356 2364 2554 
Q 2225 2753 1897 2753 
Q 1653 2753 1459 2629 
Q 1266 2506 1025 2263 
L 1025 0 
L 534 0 
z
" transform="scale(0.015625)"/>
      <path id="Varta-Regular-6a" d="M 203 -1397 
Q 63 -1397 -53 -1373 
Q -169 -1350 -247 -1319 
L -147 -944 
Q -88 -963 -11 -980 
Q 66 -997 150 -997 
Q 384 -997 461 -834 
Q 538 -672 538 -391 
L 538 3103 
L 1031 3103 
L 1031 -394 
Q 1031 -709 948 -934 
Q 866 -1159 684 -1278 
Q 503 -1397 203 -1397 
z
M 791 3763 
Q 644 3763 542 3852 
Q 441 3941 441 4084 
Q 441 4234 542 4325 
Q 644 4416 791 4416 
Q 931 4416 1034 4325 
Q 1138 4234 1138 4084 
Q 1138 3941 1034 3852 
Q 931 3763 791 3763 
z
" transform="scale(0.015625)"/>
     </defs>
     <use xlink:href="#Varta-Regular-57"/>
     <use xlink:href="#Varta-Regular-6f" transform="translate(77.832031 0)"/>
     <use xlink:href="#Varta-Regular-72" transform="translate(131.933594 0)"/>
     <use xlink:href="#Varta-Regular-73" transform="translate(166.210938 0)"/>
     <use xlink:href="#Varta-Regular-74" transform="translate(207.910156 0)"/>
     <use xlink:href="#Varta-Regular-20" transform="translate(241.308594 0)"/>
     <use xlink:href="#Varta-Regular-73" transform="translate(261.523438 0)"/>
     <use xlink:href="#Varta-Regular-74" transform="translate(303.222656 0)"/>
     <use xlink:href="#Varta-Regular-6f" transform="translate(336.621094 0)"/>
     <use xlink:href="#Varta-Regular-72" transform="translate(390.722656 0)"/>
     <use xlink:href="#Varta-Regular-6d" transform="translate(425 0)"/>
     <use xlink:href="#Varta-Regular-20" transform="translate(507.666016 0)"/>
     <use xlink:href="#Varta-Regular-69" transform="translate(527.880859 0)"/>
     <use xlink:href="#Varta-Regular-6e" transform="translate(552.246094 0)"/>
     <use xlink:href="#Varta-Regular-20" transform="translate(606.738281 0)"/>
     <use xlink:href="#Varta-Regular-61" transform="translate(626.953125 0)"/>
     <use xlink:href="#Varta-Regular-20" transform="translate(677.978516 0)"/>
     <use xlink:href="#Varta-Regular-64" transform="translate(698.193359 0)"/>
     <use xlink:href="#Varta-Regular-65" transform="translate(753.564453 0)"/>
     <use xlink:href="#Varta-Regular-63" transform="translate(802.978516 0)"/>
     <use xlink:href="#Varta-Regular-61" transform="translate(848.486328 0)"/>
     <use xlink:href="#Varta-Regular-64" transform="translate(899.511719 0)"/>
     <use xlink:href="#Varta-Regular-65" transform="translate(954.882812 0)"/>
     <use xlink:href="#Varta-Regular-20" transform="translate(1004.296875 0)"/>
     <use xlink:href="#Varta-Regular-68" transform="translate(1024.511719 0)"/>
     <use xlink:href="#Varta-Regular-69" transform="translate(1078.662109 0)"/>
     <use xlink:href="#Varta-Regular-74" transform="translate(1103.027344 0)"/>
     <use xlink:href="#Varta-Regular-73" transform="translate(1136.425781 0)"/>
     <use xlink:href="#Varta-Regular-20" transform="translate(1178.125 0)"/>
     <use xlink:href="#Varta-Regular-42" transform="translate(1198.339844 0)"/>
     <use xlink:href="#Varta-Regular-65" transform="translate(1256.494141 0)"/>
     <use xlink:href="#Varta-Regular-69" transform="translate(1305.908203 0)"/>
     <use xlink:href="#Varta-Regular-6a" transform="translate(1330.273438 0)"/>
     <use xlink:href="#Varta-Regular-69" transform="translate(1354.736328 0)"/>
     <use xlink:href="#Varta-Regular-6e" transform="translate(1379.101562 0)"/>
     <use xlink:href="#Varta-Regular-67" transform="translate(1433.59375 0)"/>
    </g>
   </g>
   <g id="text_12">
    <!-- WHO safe level* -->
    <g style="fill: #323034" transform="translate(230.720625 317.628) scale(0.12 -0.12)">
     <defs>
      <path id="Varta-Bold-57" d="M 956 0 
L 113 4188 
L 819 4188 
L 1203 2031 
Q 1256 1697 1312 1361 
Q 1369 1025 1422 688 
L 1450 688 
Q 1513 1025 1583 1362 
Q 1653 1700 1725 2031 
L 2256 4188 
L 2863 4188 
L 3394 2031 
Q 3466 1706 3536 1367 
Q 3606 1028 3675 688 
L 3703 688 
Q 3756 1028 3807 1364 
Q 3859 1700 3909 2031 
L 4297 4188 
L 4959 4188 
L 4138 0 
L 3288 0 
L 2738 2288 
Q 2688 2528 2639 2767 
Q 2591 3006 2553 3244 
L 2525 3244 
Q 2478 3006 2431 2767 
Q 2384 2528 2331 2288 
L 1791 0 
L 956 0 
z
" transform="scale(0.015625)"/>
      <path id="Varta-Bold-48" d="M 531 0 
L 531 4188 
L 1225 4188 
L 1225 2488 
L 2981 2488 
L 2981 4188 
L 3669 4188 
L 3669 0 
L 2981 0 
L 2981 1888 
L 1225 1888 
L 1225 0 
L 531 0 
z
" transform="scale(0.015625)"/>
      <path id="Varta-Bold-4f" d="M 2134 -78 
Q 1578 -78 1165 178 
Q 753 434 528 923 
Q 303 1413 303 2109 
Q 303 2806 528 3286 
Q 753 3766 1165 4016 
Q 1578 4266 2134 4266 
Q 2694 4266 3105 4016 
Q 3516 3766 3742 3284 
Q 3969 2803 3969 2109 
Q 3969 1413 3742 923 
Q 3516 434 3105 178 
Q 2694 -78 2134 -78 
z
M 2134 522 
Q 2663 522 2961 940 
Q 3259 1359 3259 2109 
Q 3259 2853 2961 3261 
Q 2663 3669 2134 3669 
Q 1603 3669 1308 3261 
Q 1013 2853 1013 2109 
Q 1013 1359 1308 940 
Q 1603 522 2134 522 
z
" transform="scale(0.015625)"/>
      <path id="Varta-Bold-20" transform="scale(0.015625)"/>
      <path id="Varta-Bold-73" d="M 1344 -78 
Q 1022 -78 711 45 
Q 400 169 172 359 
L 494 800 
Q 703 638 909 539 
Q 1116 441 1363 441 
Q 1641 441 1769 553 
Q 1897 666 1897 838 
Q 1897 978 1795 1073 
Q 1694 1169 1536 1239 
Q 1378 1309 1209 1372 
Q 1003 1450 797 1564 
Q 591 1678 453 1854 
Q 316 2031 316 2294 
Q 316 2694 619 2953 
Q 922 3213 1444 3213 
Q 1763 3213 2020 3105 
Q 2278 2997 2469 2847 
L 2153 2428 
Q 1991 2550 1828 2622 
Q 1666 2694 1453 2694 
Q 1200 2694 1084 2598 
Q 969 2503 969 2344 
Q 969 2213 1064 2122 
Q 1159 2031 1311 1964 
Q 1463 1897 1631 1831 
Q 1847 1753 2058 1643 
Q 2269 1534 2408 1353 
Q 2547 1172 2547 878 
Q 2547 481 2239 201 
Q 1931 -78 1344 -78 
z
" transform="scale(0.015625)"/>
      <path id="Varta-Bold-61" d="M 1300 -78 
Q 869 -78 606 176 
Q 344 431 344 844 
Q 344 1347 784 1644 
Q 1225 1941 2209 1981 
Q 2209 2209 2154 2357 
Q 2100 2506 1972 2581 
Q 1844 2656 1616 2656 
Q 1369 2656 1139 2582 
Q 909 2509 706 2381 
L 450 2844 
Q 700 3000 1033 3106 
Q 1366 3213 1741 3213 
Q 2338 3213 2616 2872 
Q 2894 2531 2894 1872 
L 2894 0 
L 2331 0 
L 2275 353 
L 2259 353 
Q 2044 172 1828 47 
Q 1613 -78 1300 -78 
z
M 1503 463 
Q 1706 463 1868 556 
Q 2031 650 2209 822 
L 2209 1566 
Q 1741 1553 1480 1454 
Q 1219 1356 1112 1207 
Q 1006 1059 1006 891 
Q 1006 669 1143 566 
Q 1281 463 1503 463 
z
" transform="scale(0.015625)"/>
      <path id="Varta-Bold-66" d="M 600 0 
L 600 2588 
L 175 2588 
L 175 3100 
L 600 3131 
L 600 3509 
Q 600 3997 837 4301 
Q 1075 4606 1606 4606 
Q 1772 4606 1919 4573 
Q 2066 4541 2172 4500 
L 2034 3988 
Q 1950 4022 1862 4040 
Q 1775 4059 1691 4059 
Q 1284 4059 1284 3519 
L 1284 3134 
L 1906 3134 
L 1906 2588 
L 1284 2588 
L 1284 0 
L 600 0 
z
" transform="scale(0.015625)"/>
      <path id="Varta-Bold-65" d="M 1803 -78 
Q 1375 -78 1026 114 
Q 678 306 473 673 
Q 269 1041 269 1566 
Q 269 2094 467 2461 
Q 666 2828 992 3020 
Q 1319 3213 1700 3213 
Q 2353 3213 2670 2808 
Q 2988 2403 2988 1728 
Q 2988 1631 2980 1543 
Q 2972 1456 2963 1400 
L 938 1400 
Q 972 938 1234 698 
Q 1497 459 1894 459 
Q 2097 459 2278 511 
Q 2459 563 2631 669 
L 2863 241 
Q 2647 97 2378 9 
Q 2109 -78 1803 -78 
z
M 931 1834 
L 2397 1834 
Q 2397 2247 2230 2464 
Q 2063 2681 1716 2681 
Q 1416 2681 1195 2472 
Q 975 2263 931 1834 
z
" transform="scale(0.015625)"/>
      <path id="Varta-Bold-6c" d="M 1156 -78 
Q 788 -78 636 145 
Q 484 369 484 766 
L 484 4531 
L 1166 4531 
L 1166 725 
Q 1166 591 1214 537 
Q 1263 484 1322 484 
Q 1347 484 1372 486 
Q 1397 488 1438 497 
L 1522 -16 
Q 1463 -41 1373 -59 
Q 1284 -78 1156 -78 
z
" transform="scale(0.015625)"/>
      <path id="Varta-Bold-76" d="M 1178 0 
L 78 3134 
L 775 3134 
L 1294 1472 
Q 1359 1241 1429 1002 
Q 1500 763 1569 531 
L 1594 531 
Q 1656 763 1726 1002 
Q 1797 1241 1863 1472 
L 2384 3134 
L 3050 3134 
L 1975 0 
L 1178 0 
z
" transform="scale(0.015625)"/>
      <path id="Varta-Bold-2a" d="M 1894 2469 
L 1388 3072 
L 881 2475 
L 575 2700 
L 969 3363 
L 281 3656 
L 397 4016 
L 1125 3841 
L 1194 4606 
L 1575 4606 
L 1641 3841 
L 2372 4009 
L 2488 3650 
L 1800 3363 
L 2197 2691 
L 1894 2469 
z
" transform="scale(0.015625)"/>
     </defs>
     <use xlink:href="#Varta-Bold-57"/>
     <use xlink:href="#Varta-Bold-48" transform="translate(79.248047 0)"/>
     <use xlink:href="#Varta-Bold-4f" transform="translate(144.873047 0)"/>
     <use xlink:href="#Varta-Bold-20" transform="translate(211.71875 0)"/>
     <use xlink:href="#Varta-Bold-73" transform="translate(232.177734 0)"/>
     <use xlink:href="#Varta-Bold-61" transform="translate(275 0)"/>
     <use xlink:href="#Varta-Bold-66" transform="translate(327.050781 0)"/>
     <use xlink:href="#Varta-Bold-65" transform="translate(358.105469 0)"/>
     <use xlink:href="#Varta-Bold-20" transform="translate(408.544922 0)"/>
     <use xlink:href="#Varta-Bold-6c" transform="translate(429.003906 0)"/>
     <use xlink:href="#Varta-Bold-65" transform="translate(455.664062 0)"/>
     <use xlink:href="#Varta-Bold-76" transform="translate(506.103516 0)"/>
     <use xlink:href="#Varta-Bold-65" transform="translate(554.931641 0)"/>
     <use xlink:href="#Varta-Bold-6c" transform="translate(605.371094 0)"/>
     <use xlink:href="#Varta-Bold-2a" transform="translate(632.03125 0)"/>
    </g>
   </g>
   <g id="text_13">
    <!-- PM2.5 rolling 7-day average (micrograms per cubic metre) -->
    <g style="fill: #323034; opacity: 0.8" transform="translate(10.44 37.2) scale(0.14 -0.14)">
     <defs>
      <path id="Varta-Regular-50" d="M 566 0 
L 566 4203 
L 1856 4203 
Q 2334 4203 2675 4083 
Q 3016 3963 3195 3689 
Q 3375 3416 3375 2959 
Q 3375 2303 2970 1973 
Q 2566 1644 1863 1644 
L 1066 1644 
L 1066 0 
L 566 0 
z
M 1066 2053 
L 1794 2053 
Q 2375 2053 2628 2278 
Q 2881 2503 2881 2959 
Q 2881 3428 2620 3612 
Q 2359 3797 1791 3797 
L 1066 3797 
L 1066 2053 
z
" transform="scale(0.015625)"/>
      <path id="Varta-Regular-4d" d="M 544 0 
L 588 4203 
L 1166 4203 
L 1988 1919 
L 2294 1047 
L 2319 1047 
L 2619 1919 
L 3431 4203 
L 4006 4203 
L 4053 0 
L 3581 0 
L 3575 2378 
Q 3575 2653 3587 2992 
Q 3600 3331 3619 3606 
L 3594 3606 
L 3263 2672 
L 2444 428 
L 2144 428 
L 1325 2672 
L 991 3606 
L 966 3606 
Q 981 3331 992 2992 
Q 1003 2653 1003 2378 
L 1003 0 
L 544 0 
z
" transform="scale(0.015625)"/>
      <path id="Varta-Regular-2e" d="M 784 -78 
Q 638 -78 528 30 
Q 419 138 419 306 
Q 419 481 528 589 
Q 638 697 784 697 
Q 934 697 1042 589 
Q 1150 481 1150 306 
Q 1150 138 1042 30 
Q 934 -78 784 -78 
z
" transform="scale(0.015625)"/>
      <path id="Varta-Regular-37" d="M 1141 0 
Q 1172 778 1298 1426 
Q 1425 2075 1678 2651 
Q 1931 3228 2334 3788 
L 281 3788 
L 281 4213 
L 2897 4213 
L 2897 3913 
Q 2531 3444 2300 2997 
Q 2069 2550 1934 2087 
Q 1800 1625 1737 1112 
Q 1675 600 1653 0 
L 1141 0 
z
" transform="scale(0.015625)"/>
      <path id="Varta-Regular-2d" d="M 263 1413 
L 263 1794 
L 1725 1794 
L 1725 1413 
L 263 1413 
z
" transform="scale(0.015625)"/>
      <path id="Varta-Regular-79" d="M 563 -1350 
Q 459 -1350 368 -1331 
Q 278 -1313 203 -1284 
L 300 -888 
Q 347 -906 414 -922 
Q 481 -938 538 -938 
Q 806 -938 981 -742 
Q 1156 -547 1253 -247 
L 1328 -13 
L 78 3103 
L 588 3103 
L 1234 1353 
Q 1306 1150 1386 922 
Q 1466 694 1544 481 
L 1569 481 
Q 1638 691 1703 920 
Q 1769 1150 1828 1353 
L 2397 3103 
L 2884 3103 
L 1706 -275 
Q 1600 -572 1450 -817 
Q 1300 -1063 1086 -1206 
Q 872 -1350 563 -1350 
z
" transform="scale(0.015625)"/>
      <path id="Varta-Regular-76" d="M 1203 0 
L 78 3103 
L 588 3103 
L 1188 1316 
Q 1259 1088 1336 856 
Q 1413 625 1481 403 
L 1506 403 
Q 1575 625 1650 856 
Q 1725 1088 1794 1316 
L 2397 3103 
L 2881 3103 
L 1775 0 
L 1203 0 
z
" transform="scale(0.015625)"/>
      <path id="Varta-Regular-28" d="M 1375 -1125 
Q 1113 -697 923 -254 
Q 734 188 632 684 
Q 531 1181 531 1775 
Q 531 2369 632 2869 
Q 734 3369 923 3812 
Q 1113 4256 1375 4684 
L 1681 4538 
Q 1309 3931 1128 3240 
Q 947 2550 947 1775 
Q 947 1003 1128 315 
Q 1309 -372 1681 -978 
L 1375 -1125 
z
" transform="scale(0.015625)"/>
      <path id="Varta-Regular-29" d="M 553 -1125 
Q 816 -697 1005 -254 
Q 1194 188 1295 684 
Q 1397 1181 1397 1775 
Q 1397 2369 1295 2869 
Q 1194 3369 1005 3812 
Q 816 4256 553 4684 
L 247 4538 
Q 619 3931 800 3240 
Q 981 2550 981 1775 
Q 981 1003 800 315 
Q 619 -372 247 -978 
L 553 -1125 
z
" transform="scale(0.015625)"/>
     </defs>
     <use xlink:href="#Varta-Regular-50"/>
     <use xlink:href="#Varta-Regular-4d" transform="translate(56.787109 0)"/>
     <use xlink:href="#Varta-Regular-32" transform="translate(128.710938 0)"/>
     <use xlink:href="#Varta-Regular-2e" transform="translate(178.173828 0)"/>
     <use xlink:href="#Varta-Regular-35" transform="translate(202.636719 0)"/>
     <use xlink:href="#Varta-Regular-20" transform="translate(252.099609 0)"/>
     <use xlink:href="#Varta-Regular-72" transform="translate(272.314453 0)"/>
     <use xlink:href="#Varta-Regular-6f" transform="translate(306.591797 0)"/>
     <use xlink:href="#Varta-Regular-6c" transform="translate(360.693359 0)"/>
     <use xlink:href="#Varta-Regular-6c" transform="translate(385.9375 0)"/>
     <use xlink:href="#Varta-Regular-69" transform="translate(411.181641 0)"/>
     <use xlink:href="#Varta-Regular-6e" transform="translate(435.546875 0)"/>
     <use xlink:href="#Varta-Regular-67" transform="translate(490.039062 0)"/>
     <use xlink:href="#Varta-Regular-20" transform="translate(540.234375 0)"/>
     <use xlink:href="#Varta-Regular-37" transform="translate(560.449219 0)"/>
     <use xlink:href="#Varta-Regular-2d" transform="translate(609.912109 0)"/>
     <use xlink:href="#Varta-Regular-64" transform="translate(640.869141 0)"/>
     <use xlink:href="#Varta-Regular-61" transform="translate(696.240234 0)"/>
     <use xlink:href="#Varta-Regular-79" transform="translate(747.265625 0)"/>
     <use xlink:href="#Varta-Regular-20" transform="translate(793.505859 0)"/>
     <use xlink:href="#Varta-Regular-61" transform="translate(813.720703 0)"/>
     <use xlink:href="#Varta-Regular-76" transform="translate(864.746094 0)"/>
     <use xlink:href="#Varta-Regular-65" transform="translate(910.986328 0)"/>
     <use xlink:href="#Varta-Regular-72" transform="translate(960.400391 0)"/>
     <use xlink:href="#Varta-Regular-61" transform="translate(994.677734 0)"/>
     <use xlink:href="#Varta-Regular-67" transform="translate(1045.703125 0)"/>
     <use xlink:href="#Varta-Regular-65" transform="translate(1095.898438 0)"/>
     <use xlink:href="#Varta-Regular-20" transform="translate(1145.3125 0)"/>
     <use xlink:href="#Varta-Regular-28" transform="translate(1165.527344 0)"/>
     <use xlink:href="#Varta-Regular-6d" transform="translate(1195.458984 0)"/>
     <use xlink:href="#Varta-Regular-69" transform="translate(1278.125 0)"/>
     <use xlink:href="#Varta-Regular-63" transform="translate(1302.490234 0)"/>
     <use xlink:href="#Varta-Regular-72" transform="translate(1347.998047 0)"/>
     <use xlink:href="#Varta-Regular-6f" transform="translate(1382.275391 0)"/>
     <use xlink:href="#Varta-Regular-67" transform="translate(1436.376953 0)"/>
     <use xlink:href="#Varta-Regular-72" transform="translate(1486.572266 0)"/>
     <use xlink:href="#Varta-Regular-61" transform="translate(1520.849609 0)"/>
     <use xlink:href="#Varta-Regular-6d" transform="translate(1571.875 0)"/>
     <use xlink:href="#Varta-Regular-73" transform="translate(1654.541016 0)"/>
     <use xlink:href="#Varta-Regular-20" transform="translate(1696.240234 0)"/>
     <use xlink:href="#Varta-Regular-70" transform="translate(1716.455078 0)"/>
     <use xlink:href="#Varta-Regular-65" transform="translate(1771.826172 0)"/>
     <use xlink:href="#Varta-Regular-72" transform="translate(1821.240234 0)"/>
     <use xlink:href="#Varta-Regular-20" transform="translate(1855.517578 0)"/>
     <use xlink:href="#Varta-Regular-63" transform="translate(1875.732422 0)"/>
     <use xlink:href="#Varta-Regular-75" transform="translate(1921.240234 0)"/>
     <use xlink:href="#Varta-Regular-62" transform="translate(1975.390625 0)"/>
     <use xlink:href="#Varta-Regular-69" transform="translate(2030.761719 0)"/>
     <use xlink:href="#Varta-Regular-63" transform="translate(2055.126953 0)"/>
     <use xlink:href="#Varta-Regular-20" transform="translate(2100.634766 0)"/>
     <use xlink:href="#Varta-Regular-6d" transform="translate(2120.849609 0)"/>
     <use xlink:href="#Varta-Regular-65" transform="translate(2203.515625 0)"/>
     <use xlink:href="#Varta-Regular-74" transform="translate(2252.929688 0)"/>
     <use xlink:href="#Varta-Regular-72" transform="translate(2286.328125 0)"/>
     <use xlink:href="#Varta-Regular-65" transform="translate(2320.605469 0)"/>
     <use xlink:href="#Varta-Regular-29" transform="translate(2370.019531 0)"/>
    </g>
   </g>
  </g>
  <g id="text_14">
   <!-- Severe dust storm causes sharp rise in Beijing's air pollution -->
   <g style="fill: #323034" transform="translate(7.2 18.615) scale(0.16 -0.16)">
    <defs>
     <path id="Varta-Regular-27" d="M 628 2750 
L 531 3853 
L 516 4419 
L 1041 4419 
L 1028 3853 
L 931 2750 
L 628 2750 
z
" transform="scale(0.015625)"/>
    </defs>
    <use xlink:href="#Varta-Regular-53"/>
    <use xlink:href="#Varta-Regular-65" transform="translate(52.685547 0)"/>
    <use xlink:href="#Varta-Regular-76" transform="translate(102.099609 0)"/>
    <use xlink:href="#Varta-Regular-65" transform="translate(148.339844 0)"/>
    <use xlink:href="#Varta-Regular-72" transform="translate(197.753906 0)"/>
    <use xlink:href="#Varta-Regular-65" transform="translate(232.03125 0)"/>
    <use xlink:href="#Varta-Regular-20" transform="translate(281.445312 0)"/>
    <use xlink:href="#Varta-Regular-64" transform="translate(301.660156 0)"/>
    <use xlink:href="#Varta-Regular-75" transform="translate(357.03125 0)"/>
    <use xlink:href="#Varta-Regular-73" transform="translate(411.181641 0)"/>
    <use xlink:href="#Varta-Regular-74" transform="translate(452.880859 0)"/>
    <use xlink:href="#Varta-Regular-20" transform="translate(486.279297 0)"/>
    <use xlink:href="#Varta-Regular-73" transform="translate(506.494141 0)"/>
    <use xlink:href="#Varta-Regular-74" transform="translate(548.193359 0)"/>
    <use xlink:href="#Varta-Regular-6f" transform="translate(581.591797 0)"/>
    <use xlink:href="#Varta-Regular-72" transform="translate(635.693359 0)"/>
    <use xlink:href="#Varta-Regular-6d" transform="translate(669.970703 0)"/>
    <use xlink:href="#Varta-Regular-20" transform="translate(752.636719 0)"/>
    <use xlink:href="#Varta-Regular-63" transform="translate(772.851562 0)"/>
    <use xlink:href="#Varta-Regular-61" transform="translate(818.359375 0)"/>
    <use xlink:href="#Varta-Regular-75" transform="translate(869.384766 0)"/>
    <use xlink:href="#Varta-Regular-73" transform="translate(923.535156 0)"/>
    <use xlink:href="#Varta-Regular-65" transform="translate(965.234375 0)"/>
    <use xlink:href="#Varta-Regular-73" transform="translate(1014.648438 0)"/>
    <use xlink:href="#Varta-Regular-20" transform="translate(1056.347656 0)"/>
    <use xlink:href="#Varta-Regular-73" transform="translate(1076.5625 0)"/>
    <use xlink:href="#Varta-Regular-68" transform="translate(1118.261719 0)"/>
    <use xlink:href="#Varta-Regular-61" transform="translate(1172.412109 0)"/>
    <use xlink:href="#Varta-Regular-72" transform="translate(1223.4375 0)"/>
    <use xlink:href="#Varta-Regular-70" transform="translate(1257.714844 0)"/>
    <use xlink:href="#Varta-Regular-20" transform="translate(1313.085938 0)"/>
    <use xlink:href="#Varta-Regular-72" transform="translate(1333.300781 0)"/>
    <use xlink:href="#Varta-Regular-69" transform="translate(1367.578125 0)"/>
    <use xlink:href="#Varta-Regular-73" transform="translate(1391.943359 0)"/>
    <use xlink:href="#Varta-Regular-65" transform="translate(1433.642578 0)"/>
    <use xlink:href="#Varta-Regular-20" transform="translate(1483.056641 0)"/>
    <use xlink:href="#Varta-Regular-69" transform="translate(1503.271484 0)"/>
    <use xlink:href="#Varta-Regular-6e" transform="translate(1527.636719 0)"/>
    <use xlink:href="#Varta-Regular-20" transform="translate(1582.128906 0)"/>
    <use xlink:href="#Varta-Regular-42" transform="translate(1602.34375 0)"/>
    <use xlink:href="#Varta-Regular-65" transform="translate(1660.498047 0)"/>
    <use xlink:href="#Varta-Regular-69" transform="translate(1709.912109 0)"/>
    <use xlink:href="#Varta-Regular-6a" transform="translate(1734.277344 0)"/>
    <use xlink:href="#Varta-Regular-69" transform="translate(1758.740234 0)"/>
    <use xlink:href="#Varta-Regular-6e" transform="translate(1783.105469 0)"/>
    <use xlink:href="#Varta-Regular-67" transform="translate(1837.597656 0)"/>
    <use xlink:href="#Varta-Regular-27" transform="translate(1887.792969 0)"/>
    <use xlink:href="#Varta-Regular-73" transform="translate(1912.255859 0)"/>
    <use xlink:href="#Varta-Regular-20" transform="translate(1953.955078 0)"/>
    <use xlink:href="#Varta-Regular-61" transform="translate(1974.169922 0)"/>
    <use xlink:href="#Varta-Regular-69" transform="translate(2025.195312 0)"/>
    <use xlink:href="#Varta-Regular-72" transform="translate(2049.560547 0)"/>
    <use xlink:href="#Varta-Regular-20" transform="translate(2083.837891 0)"/>
    <use xlink:href="#Varta-Regular-70" transform="translate(2104.052734 0)"/>
    <use xlink:href="#Varta-Regular-6f" transform="translate(2159.423828 0)"/>
    <use xlink:href="#Varta-Regular-6c" transform="translate(2213.525391 0)"/>
    <use xlink:href="#Varta-Regular-6c" transform="translate(2238.769531 0)"/>
    <use xlink:href="#Varta-Regular-75" transform="translate(2264.013672 0)"/>
    <use xlink:href="#Varta-Regular-74" transform="translate(2318.164062 0)"/>
    <use xlink:href="#Varta-Regular-69" transform="translate(2351.5625 0)"/>
    <use xlink:href="#Varta-Regular-6f" transform="translate(2375.927734 0)"/>
    <use xlink:href="#Varta-Regular-6e" transform="translate(2430.029297 0)"/>
   </g>
  </g>
 </g>
 <defs>
  <clipPath id="pc993f647ca">
   <rect x="10.44" y="43.2" width="502.2" height="277.2"/>
  </clipPath>
 </defs>
 <defs>
  <pattern id="hf6d52e2597" patternUnits="userSpaceOnUse" x="0" y="0" width="72" height="72">
   <rect x="0" y="0" width="73" height="73" fill="none"/>
   <path d="M -36 36 
L 36 -36 
M -32 40 
L 40 -32 
M -28 44 
L 44 -28 
M -24 48 
L 48 -24 
M -20 52 
L 52 -20 
M -16 56 
L 56 -16 
M -12 60 
L 60 -12 
M -8 64 
L 64 -8 
M -4 68 
L 68 -4 
M 0 72 
L 72 0 
M 4 76 
L 76 4 
M 8 80 
L 80 8 
M 12 84 
L 84 12 
M 16 88 
L 88 16 
M 20 92 
L 92 20 
M 24 96 
L 96 24 
M 28 100 
L 100 28 
M 32 104 
L 104 32 
M 36 108 
L 108 36 
" style="fill: #000000; stroke: #000000; stroke-width: 1.0; stroke-linecap: butt; stroke-linejoin: miter; stroke-opacity: 0.2"/>
  </pattern>
 </defs>
</svg>
