<?xml version="1.0" encoding="utf-8" standalone="no"?>
<!DOCTYPE svg PUBLIC "-//W3C//DTD SVG 1.1//EN"
  "http://www.w3.org/Graphics/SVG/1.1/DTD/svg11.dtd">
<svg xmlns:xlink="http://www.w3.org/1999/xlink" width="513.001219pt" height="279.238266pt" viewBox="0 0 513.001219 279.238266" xmlns="http://www.w3.org/2000/svg" version="1.1">
 <metadata>
  <rdf:RDF xmlns:dc="http://purl.org/dc/elements/1.1/" xmlns:cc="http://creativecommons.org/ns#" xmlns:rdf="http://www.w3.org/1999/02/22-rdf-syntax-ns#">
   <cc:Work>
    <dc:type rdf:resource="http://purl.org/dc/dcmitype/StillImage"/>
    <dc:date>2026-04-12T14:52:17.051730</dc:date>
    <dc:format>image/svg+xml</dc:format>
    <dc:creator>
     <cc:Agent>
      <dc:title>Matplotlib v3.10.8, https://matplotlib.org/</dc:title>
     </cc:Agent>
    </dc:creator>
   </cc:Work>
  </rdf:RDF>
 </metadata>
 <defs>
  <style type="text/css">*{stroke-linejoin: round; stroke-linecap: butt}</style>
 </defs>
 <g id="figure_1">
  <g id="patch_1">
   <path d="M 0 279.238266 
L 513.001219 279.238266 
L 513.001219 0 
L 0 0 
z
" style="fill: #ffffff"/>
  </g>
  <g id="axes_1">
   <g id="patch_2">
    <path d="M 59.401219 208.50375 
L 505.801219 208.50375 
L 505.801219 12.66375 
L 59.401219 12.66375 
z
" style="fill: #ffffff"/>
   </g>
   <g id="FillBetweenPolyCollection_1">
    <defs>
     <path id="md439087a0c" d="M 79.692128 -128.882735 
L 79.692128 -108.928598 
L 80.195001 -109.568438 
L 80.697873 -110.253647 
L 82.206491 -110.928996 
L 82.709364 -111.566944 
L 83.212236 -112.165496 
L 83.715109 -112.788622 
L 84.217982 -113.403261 
L 86.229472 -114.077131 
L 86.732345 -114.784666 
L 87.235217 -115.466212 
L 87.73809 -116.188298 
L 89.246707 -116.96714 
L 89.74958 -117.774217 
L 90.252453 -118.616576 
L 90.755325 -119.525882 
L 91.258198 -120.34196 
L 92.766816 -121.205758 
L 93.269688 -122.128901 
L 93.772561 -123.151689 
L 94.275433 -124.307922 
L 94.778306 -124.85695 
L 96.286924 -125.463726 
L 96.789796 -126.059882 
L 97.292669 -126.58648 
L 97.795542 -127.058979 
L 98.298414 -127.519272 
L 99.807032 -127.930836 
L 100.309904 -128.389063 
L 100.812777 -128.786448 
L 101.31565 -129.072695 
L 101.818522 -129.340303 
L 103.32714 -129.591432 
L 103.830013 -129.81123 
L 104.332885 -130.001074 
L 104.835758 -130.195096 
L 105.33863 -130.37721 
L 106.847248 -130.393152 
L 107.350121 -130.410822 
L 107.852993 -130.526419 
L 108.355866 -130.490466 
L 108.858739 -130.452239 
L 110.367356 -130.460494 
L 110.870229 -130.545392 
L 111.373102 -130.757742 
L 111.875974 -130.982122 
L 113.887464 -131.234448 
L 114.390337 -131.46927 
L 114.89321 -131.727079 
L 115.396082 -132.02296 
L 115.898955 -132.257952 
L 117.407573 -132.50241 
L 117.910445 -132.79709 
L 118.413318 -133.042018 
L 118.91619 -133.379051 
L 119.419063 -133.632435 
L 120.927681 -133.941767 
L 121.430553 -134.278846 
L 121.933426 -134.613948 
L 122.436299 -134.827211 
L 122.939171 -134.994277 
L 124.447789 -135.075119 
L 124.950662 -135.20638 
L 125.453534 -135.289577 
L 125.956407 -135.294216 
L 126.459279 -135.24085 
L 127.967897 -135.366232 
L 128.47077 -135.461625 
L 128.973642 -135.596914 
L 129.476515 -135.805946 
L 129.979387 -136.031949 
L 131.488005 -136.2905 
L 131.990878 -136.420136 
L 132.49375 -136.678866 
L 132.996623 -136.883502 
L 133.499496 -136.998112 
L 135.510986 -137.098281 
L 136.013859 -137.151027 
L 136.516731 -137.088482 
L 137.019604 -137.143374 
L 138.528221 -137.233047 
L 139.031094 -137.351208 
L 139.533967 -137.341697 
L 140.036839 -137.369844 
L 140.539712 -137.448868 
L 142.04833 -137.561314 
L 142.551202 -137.602235 
L 143.054075 -137.587676 
L 143.556947 -137.558633 
L 144.05982 -137.531833 
L 145.568438 -137.526751 
L 146.07131 -137.544697 
L 146.574183 -137.560353 
L 147.077056 -137.556549 
L 147.579928 -137.543142 
L 149.088546 -137.492471 
L 149.591419 -137.469658 
L 150.094291 -137.422438 
L 150.597164 -137.406274 
L 151.100036 -137.377777 
L 152.608654 -137.299635 
L 153.614399 -137.195064 
L 154.117272 -137.076185 
L 154.620144 -137.075459 
L 156.128762 -137.049009 
L 156.631635 -136.975916 
L 157.134507 -136.867901 
L 157.63738 -136.792224 
L 158.140253 -136.776661 
L 159.64887 -136.767454 
L 160.151743 -136.857563 
L 160.654616 -137.055496 
L 161.157488 -137.222641 
L 161.660361 -137.474826 
L 163.168979 -137.779471 
L 163.671851 -138.193484 
L 164.174724 -138.406356 
L 164.677596 -138.698813 
L 165.180469 -138.966354 
L 166.689087 -139.27139 
L 167.191959 -139.591401 
L 167.694832 -139.953149 
L 168.197704 -140.449864 
L 168.700577 -140.844086 
L 170.209195 -141.384785 
L 170.712067 -141.929671 
L 171.21494 -142.528535 
L 171.717813 -143.101787 
L 172.220685 -143.814762 
L 173.729303 -144.445387 
L 174.232176 -145.043314 
L 174.735048 -145.585473 
L 175.237921 -146.05113 
L 175.740793 -146.320595 
L 177.249411 -146.443296 
L 177.752284 -146.659291 
L 178.255156 -146.890915 
L 178.758029 -147.032984 
L 179.260901 -147.25278 
L 180.769519 -147.469448 
L 181.272392 -147.608574 
L 181.775264 -147.672907 
L 182.278137 -147.776947 
L 182.78101 -148.046262 
L 184.7925 -148.419896 
L 185.295373 -148.877078 
L 185.798245 -149.271774 
L 186.301118 -149.253685 
L 187.809736 -149.327883 
L 188.312608 -149.426555 
L 188.815481 -149.458469 
L 189.318353 -149.462222 
L 189.821226 -149.365382 
L 191.329844 -149.40115 
L 191.832716 -149.360335 
L 192.335589 -149.307236 
L 192.838461 -149.229447 
L 193.341334 -149.183284 
L 194.849952 -149.205234 
L 195.352824 -149.157935 
L 195.855697 -149.062 
L 196.35857 -149.017366 
L 196.861442 -148.952401 
L 198.37006 -148.764702 
L 198.872933 -148.548775 
L 199.375805 -148.345225 
L 199.878678 -148.119364 
L 200.38155 -147.951283 
L 201.890168 -147.830212 
L 202.393041 -147.751912 
L 202.895913 -147.768308 
L 203.398786 -147.818918 
L 203.901658 -147.873583 
L 205.410276 -148.01569 
L 205.913149 -148.092585 
L 206.416021 -148.165539 
L 206.918894 -148.261983 
L 207.421767 -148.423474 
L 208.930384 -148.564757 
L 209.433257 -148.768364 
L 209.93613 -148.984854 
L 210.439002 -149.315831 
L 210.941875 -149.785914 
L 212.450493 -150.349418 
L 212.953365 -151.012372 
L 213.456238 -151.542041 
L 213.95911 -152.032109 
L 214.461983 -152.592832 
L 215.970601 -153.14389 
L 216.473473 -153.733398 
L 216.976346 -154.308841 
L 217.479218 -154.971365 
L 217.982091 -155.545801 
L 219.490709 -156.144899 
L 219.993581 -156.746547 
L 220.496454 -157.372251 
L 220.999327 -157.985054 
L 221.502199 -158.665666 
L 223.010817 -159.26924 
L 223.51369 -159.707607 
L 224.016562 -160.132963 
L 225.022307 -160.578251 
L 226.530925 -161.38713 
L 227.033798 -162.227913 
L 227.53667 -163.155231 
L 228.039543 -164.088598 
L 228.542415 -165.210767 
L 230.051033 -166.387513 
L 230.553906 -167.024916 
L 231.056778 -167.361296 
L 231.559651 -167.525635 
L 232.062524 -167.876852 
L 233.571141 -168.079612 
L 234.074014 -168.066421 
L 234.576887 -168.048881 
L 235.079759 -168.053761 
L 235.582632 -168.048315 
L 237.09125 -168.038226 
L 237.594122 -167.949101 
L 238.096995 -167.885658 
L 238.599867 -167.713343 
L 239.10274 -167.580554 
L 241.11423 -167.391176 
L 241.617103 -167.26624 
L 242.119975 -166.545537 
L 242.622848 -165.391055 
L 244.634338 -164.910073 
L 245.137211 -164.186268 
L 245.640084 -163.133058 
L 246.142956 -162.340613 
L 247.651574 -162.085443 
L 248.154447 -161.860863 
L 248.657319 -161.777428 
L 249.160192 -161.851386 
L 249.663064 -161.923858 
L 251.674555 -162.006977 
L 252.177427 -162.067359 
L 252.6803 -162.151418 
L 253.183172 -162.185275 
L 254.69179 -162.226983 
L 255.194663 -162.269053 
L 255.697535 -162.318973 
L 256.200408 -162.337469 
L 256.703281 -162.339393 
L 258.211898 -162.358556 
L 258.714771 -162.380936 
L 259.217644 -162.387834 
L 259.720516 -162.403791 
L 260.223389 -162.497571 
L 261.732007 -162.582307 
L 262.234879 -162.682996 
L 262.737752 -162.853628 
L 263.240624 -162.940637 
L 263.743497 -163.03129 
L 265.252115 -163.083707 
L 265.754987 -163.09751 
L 266.25786 -163.044436 
L 266.760732 -162.918923 
L 267.263605 -162.637753 
L 269.275095 -162.606767 
L 269.777968 -162.435398 
L 270.280841 -162.20668 
L 270.783713 -162.019741 
L 272.292331 -161.801068 
L 272.795204 -161.650472 
L 273.298076 -161.592004 
L 273.800949 -161.556716 
L 274.303821 -161.442126 
L 275.812439 -161.433131 
L 276.315312 -161.477986 
L 276.818184 -161.613626 
L 277.321057 -161.813657 
L 277.82393 -162.006832 
L 279.332547 -162.201028 
L 279.83542 -162.785826 
L 280.338292 -163.70342 
L 280.841165 -164.130599 
L 281.344038 -164.562397 
L 282.852655 -165.38766 
L 283.355528 -165.930842 
L 283.858401 -165.995825 
L 284.361273 -165.988137 
L 284.864146 -165.682814 
L 286.372764 -165.379325 
L 286.875636 -165.275649 
L 287.378509 -165.349518 
L 287.881381 -165.449581 
L 289.892872 -165.447352 
L 290.395744 -165.376165 
L 290.898617 -165.275778 
L 291.401489 -165.155537 
L 291.904362 -164.975395 
L 293.41298 -164.896459 
L 293.915852 -164.838498 
L 294.418725 -164.826816 
L 294.921598 -164.800856 
L 295.42447 -164.846431 
L 296.933088 -164.876116 
L 297.435961 -164.85696 
L 297.938833 -164.837482 
L 298.441706 -164.823876 
L 298.944578 -164.843581 
L 300.453196 -164.865474 
L 300.956069 -164.915232 
L 301.458941 -165.038305 
L 301.961814 -165.176702 
L 302.464687 -165.430634 
L 303.973304 -165.788569 
L 304.476177 -166.35083 
L 304.979049 -166.584991 
L 305.481922 -167.041168 
L 305.984795 -167.63745 
L 307.493412 -168.19784 
L 307.996285 -168.839843 
L 308.499158 -169.4244 
L 309.00203 -169.873733 
L 309.504903 -170.280914 
L 311.013521 -170.921725 
L 311.516393 -171.461417 
L 312.019266 -171.867543 
L 312.522138 -172.307143 
L 313.025011 -172.666939 
L 314.533629 -172.947811 
L 315.036501 -173.23577 
L 315.539374 -173.425912 
L 316.042247 -173.659594 
L 316.545119 -174.1188 
L 318.556609 -175.071148 
L 319.059482 -176.041794 
L 319.562355 -177.298944 
L 320.065227 -178.633746 
L 321.573845 -180.059451 
L 322.076718 -181.876221 
L 322.57959 -183.571024 
L 323.082463 -185.076215 
L 323.585335 -185.855734 
L 325.093953 -186.690499 
L 325.596826 -186.942999 
L 326.099698 -187.124452 
L 326.602571 -187.264849 
L 327.105444 -187.354782 
L 328.614061 -187.371726 
L 329.116934 -187.395606 
L 329.619806 -187.404559 
L 330.122679 -187.499321 
L 330.625552 -187.552148 
L 332.134169 -187.633822 
L 332.637042 -187.751984 
L 333.139915 -187.549353 
L 333.642787 -187.087173 
L 334.14566 -186.734553 
L 335.654278 -186.464897 
L 336.15715 -186.374674 
L 337.162895 -186.363738 
L 337.665768 -186.367011 
L 339.174386 -186.471562 
L 339.677258 -186.464159 
L 340.180131 -186.43126 
L 340.683004 -186.389733 
L 341.185876 -186.286535 
L 342.694494 -186.111548 
L 343.197366 -186.124911 
L 343.700239 -186.215149 
L 344.203112 -186.316063 
L 344.705984 -186.499472 
L 346.214602 -186.706735 
L 346.717475 -186.99585 
L 347.220347 -187.302205 
L 347.72322 -187.726984 
L 348.226092 -188.133311 
L 349.73471 -188.598586 
L 350.237583 -189.153409 
L 350.740455 -189.964655 
L 351.243328 -190.775701 
L 351.746201 -191.669047 
L 353.254818 -192.546301 
L 353.757691 -193.457399 
L 354.260564 -194.320202 
L 354.763436 -195.378245 
L 355.266309 -196.428264 
L 356.774926 -197.376529 
L 357.277799 -198.2143 
L 357.780672 -199.096385 
L 358.283544 -200.169263 
L 358.786417 -201.077899 
L 360.295035 -202.022247 
L 360.797907 -203.036152 
L 361.30078 -204.052851 
L 361.803652 -205.193853 
L 362.306525 -206.289542 
L 363.815143 -207.467624 
L 364.318015 -208.686184 
L 364.820888 -209.844115 
L 365.323761 -210.97604 
L 365.826633 -212.215066 
L 367.838123 -213.802641 
L 368.340996 -215.635874 
L 368.843869 -217.472831 
L 369.346741 -218.285654 
L 370.855359 -218.888359 
L 371.358232 -219.370734 
L 371.861104 -219.905339 
L 372.363977 -220.584783 
L 372.866849 -221.134847 
L 374.375467 -221.695589 
L 374.87834 -222.367086 
L 375.381212 -223.006464 
L 375.884085 -223.35128 
L 376.386958 -223.868344 
L 377.895575 -224.038322 
L 378.398448 -223.738497 
L 378.901321 -223.613848 
L 379.404193 -223.784382 
L 379.907066 -224.048221 
L 381.415683 -223.466497 
L 381.918556 -222.32204 
L 382.421429 -221.421288 
L 382.924301 -220.981954 
L 383.427174 -220.44855 
L 384.935792 -219.643713 
L 385.438664 -217.991288 
L 385.941537 -216.305289 
L 386.444409 -214.236007 
L 386.947282 -212.772944 
L 388.4559 -211.578801 
L 388.958772 -209.884917 
L 389.461645 -207.45584 
L 389.964518 -205.225503 
L 390.46739 -202.732887 
L 391.976008 -200.612745 
L 392.478881 -198.637764 
L 392.981753 -197.217934 
L 393.484626 -195.76255 
L 393.987498 -194.286434 
L 395.496116 -193.245654 
L 395.998989 -191.747445 
L 396.501861 -190.181705 
L 397.004734 -188.286878 
L 397.507606 -186.54323 
L 399.016224 -184.821442 
L 399.519097 -183.217891 
L 400.021969 -181.81922 
L 400.524842 -180.211602 
L 401.027715 -178.555033 
L 402.536332 -177.080326 
L 403.039205 -175.369753 
L 403.542078 -173.530193 
L 404.04495 -171.310461 
L 404.547823 -168.930275 
L 406.05644 -167.359572 
L 406.559313 -165.776296 
L 407.062186 -164.322693 
L 408.067931 -163.027258 
L 409.576549 -161.764509 
L 410.079421 -159.688758 
L 410.582294 -158.13314 
L 411.085166 -156.708888 
L 411.588039 -155.418338 
L 413.096657 -154.438329 
L 413.599529 -153.51325 
L 414.605275 -152.530376 
L 415.108147 -151.542622 
L 416.616765 -150.960069 
L 417.119638 -150.73726 
L 417.62251 -150.236052 
L 418.125383 -149.730404 
L 418.628255 -149.194306 
L 420.136873 -148.982678 
L 420.639746 -148.847972 
L 421.142618 -148.920085 
L 421.645491 -148.702708 
L 422.148363 -148.445275 
L 423.656981 -148.438023 
L 424.662726 -148.618906 
L 425.165599 -148.959105 
L 425.668472 -149.14035 
L 427.177089 -149.15987 
L 428.182835 -149.177992 
L 428.685707 -149.175934 
L 429.18858 -149.181465 
L 430.697197 -149.183016 
L 431.20007 -149.282739 
L 431.702943 -149.364735 
L 432.205815 -149.436676 
L 432.708688 -149.703411 
L 434.217306 -149.761028 
L 434.720178 -149.782298 
L 435.223051 -149.778437 
L 435.725923 -149.75884 
L 436.228796 -149.730334 
L 438.240286 -149.70364 
L 438.743159 -149.671672 
L 439.246032 -149.696331 
L 439.748904 -149.736863 
L 441.257522 -149.744789 
L 441.760395 -149.872785 
L 442.263267 -150.153788 
L 442.76614 -150.730817 
L 443.269012 -151.559605 
L 444.77763 -151.850198 
L 445.280503 -152.184326 
L 445.783375 -152.538017 
L 446.286248 -152.8321 
L 446.78912 -153.115219 
L 448.297738 -154.330866 
L 448.800611 -155.231452 
L 449.303483 -156.190209 
L 449.806356 -156.865533 
L 450.309229 -157.573704 
L 452.320719 -158.35197 
L 452.823592 -159.295724 
L 453.326464 -160.432243 
L 453.829337 -161.421329 
L 455.337955 -162.3318 
L 455.840827 -163.222531 
L 456.3437 -164.067164 
L 456.846572 -165.192541 
L 457.349445 -166.346277 
L 458.858063 -167.653273 
L 459.360935 -168.601537 
L 459.863808 -169.753459 
L 460.36668 -171.10049 
L 460.869553 -171.813178 
L 462.378171 -172.509474 
L 462.881043 -173.245545 
L 463.383916 -173.766884 
L 463.886789 -174.125744 
L 464.389661 -174.51462 
L 465.898279 -175.101681 
L 466.401152 -175.674631 
L 466.904024 -176.369288 
L 467.406897 -177.068103 
L 467.909769 -177.865577 
L 469.418387 -178.670215 
L 469.92126 -179.559894 
L 470.424132 -180.368649 
L 470.927005 -181.194404 
L 471.429877 -182.096733 
L 472.938495 -182.986113 
L 473.441368 -183.866042 
L 473.94424 -184.776962 
L 474.447113 -185.679185 
L 474.949986 -186.699124 
L 476.458603 -187.309173 
L 476.961476 -187.989806 
L 477.464349 -188.78935 
L 477.967221 -189.664235 
L 478.470094 -190.700328 
L 479.978712 -191.467392 
L 480.481584 -191.968377 
L 480.984457 -192.131119 
L 481.487329 -192.040488 
L 483.49882 -191.779251 
L 484.001692 -191.342292 
L 484.504565 -190.768202 
L 485.007437 -190.33842 
L 485.51031 -189.624762 
L 485.51031 -211.801517 
L 485.51031 -211.801517 
L 485.007437 -211.66778 
L 484.504565 -211.590338 
L 484.001692 -211.481318 
L 483.49882 -211.380832 
L 481.487329 -211.309734 
L 480.984457 -211.282539 
L 480.481584 -211.325059 
L 479.978712 -211.43282 
L 478.470094 -211.691457 
L 477.967221 -211.922864 
L 477.464349 -212.036774 
L 476.961476 -212.083128 
L 476.458603 -212.131489 
L 474.949986 -212.206013 
L 474.447113 -212.068074 
L 473.94424 -211.762877 
L 473.441368 -211.33933 
L 472.938495 -210.881989 
L 471.429877 -210.112745 
L 470.927005 -209.114498 
L 470.424132 -208.206429 
L 469.92126 -207.165984 
L 469.418387 -206.642725 
L 467.909769 -205.868142 
L 467.406897 -205.071918 
L 466.904024 -204.164423 
L 466.401152 -203.09676 
L 465.898279 -201.938219 
L 464.389661 -200.922242 
L 463.886789 -199.892852 
L 463.383916 -198.864752 
L 462.881043 -198.044087 
L 462.378171 -197.219102 
L 460.869553 -196.367437 
L 460.36668 -195.473083 
L 459.863808 -194.643466 
L 459.360935 -193.746397 
L 458.858063 -192.685548 
L 457.349445 -191.892892 
L 456.846572 -191.064909 
L 456.3437 -190.195609 
L 455.840827 -189.271397 
L 455.337955 -188.478487 
L 453.829337 -187.722783 
L 453.326464 -187.016174 
L 452.823592 -186.325891 
L 452.320719 -185.627822 
L 450.309229 -184.743408 
L 449.806356 -183.658211 
L 449.303483 -182.232403 
L 448.800611 -181.282565 
L 448.297738 -180.366035 
L 446.78912 -179.412668 
L 446.286248 -178.347104 
L 445.783375 -177.395766 
L 445.280503 -176.528159 
L 444.77763 -175.674632 
L 443.269012 -174.918895 
L 442.76614 -174.500234 
L 442.263267 -174.030348 
L 441.760395 -173.453792 
L 441.257522 -172.865881 
L 439.748904 -172.383874 
L 439.246032 -171.876508 
L 438.743159 -171.509906 
L 438.240286 -171.260743 
L 436.228796 -170.956031 
L 435.725923 -170.632321 
L 435.223051 -170.421485 
L 434.720178 -170.263977 
L 434.217306 -170.376045 
L 432.708688 -170.667465 
L 432.205815 -171.569939 
L 431.702943 -171.969653 
L 431.20007 -172.453495 
L 430.697197 -172.986548 
L 429.18858 -173.178014 
L 428.685707 -173.345357 
L 428.182835 -173.406084 
L 427.177089 -173.542338 
L 425.668472 -173.692084 
L 425.165599 -174.552832 
L 424.662726 -176.149244 
L 423.656981 -177.491462 
L 422.148363 -178.486483 
L 421.645491 -179.975471 
L 421.142618 -181.519397 
L 420.639746 -183.763957 
L 420.136873 -186.224 
L 418.628255 -188.584328 
L 418.125383 -190.362595 
L 417.62251 -191.906564 
L 417.119638 -193.772606 
L 416.616765 -196.642997 
L 415.108147 -199.08489 
L 414.605275 -201.006675 
L 413.599529 -202.777704 
L 413.096657 -204.724471 
L 411.588039 -206.801314 
L 411.085166 -208.468383 
L 410.582294 -210.487 
L 410.079421 -212.2625 
L 409.576549 -213.738069 
L 408.067931 -215.14257 
L 407.062186 -216.762374 
L 406.559313 -218.33873 
L 406.05644 -219.567132 
L 404.547823 -220.980818 
L 404.04495 -221.710905 
L 403.542078 -222.508585 
L 403.039205 -223.889839 
L 402.536332 -225.067573 
L 401.027715 -226.264358 
L 400.524842 -227.549833 
L 400.021969 -229.001734 
L 399.519097 -230.278866 
L 399.016224 -231.343535 
L 397.507606 -232.241382 
L 397.004734 -233.035637 
L 396.501861 -233.520387 
L 395.998989 -234.126503 
L 395.496116 -234.643641 
L 393.987498 -235.095023 
L 393.484626 -235.511132 
L 392.981753 -235.825923 
L 392.478881 -236.105593 
L 391.976008 -236.125038 
L 390.46739 -236.257881 
L 389.964518 -236.24573 
L 389.461645 -236.039539 
L 388.958772 -235.754148 
L 388.4559 -235.535107 
L 386.947282 -235.596736 
L 386.444409 -235.57147 
L 385.941537 -235.329121 
L 385.438664 -235.28657 
L 384.935792 -235.153531 
L 383.427174 -235.268529 
L 382.924301 -235.372982 
L 382.421429 -235.385535 
L 381.918556 -235.141525 
L 381.415683 -234.672353 
L 379.907066 -234.461874 
L 379.404193 -234.393401 
L 378.901321 -234.386886 
L 378.398448 -234.362351 
L 377.895575 -234.310017 
L 376.386958 -234.34188 
L 375.884085 -234.415862 
L 375.381212 -234.513182 
L 374.87834 -234.510185 
L 374.375467 -234.573604 
L 372.866849 -234.617107 
L 372.363977 -234.727131 
L 371.861104 -234.720455 
L 371.358232 -234.614971 
L 370.855359 -234.629378 
L 369.346741 -234.516256 
L 368.843869 -234.696239 
L 368.340996 -235.294094 
L 367.838123 -235.38356 
L 365.826633 -235.420469 
L 365.323761 -235.233904 
L 364.820888 -234.796928 
L 364.318015 -234.112801 
L 363.815143 -233.554415 
L 362.306525 -233.041321 
L 361.803652 -232.536606 
L 361.30078 -232.045464 
L 360.797907 -231.688464 
L 360.295035 -231.221697 
L 358.786417 -230.769656 
L 358.283544 -230.413118 
L 357.780672 -229.965492 
L 357.277799 -229.518087 
L 356.774926 -229.043014 
L 355.266309 -228.574579 
L 354.763436 -227.812971 
L 354.260564 -226.871917 
L 353.757691 -226.13368 
L 353.254818 -225.219295 
L 351.746201 -224.544917 
L 351.243328 -223.687093 
L 350.740455 -222.676011 
L 350.237583 -221.386017 
L 349.73471 -219.897553 
L 348.226092 -218.378315 
L 347.72322 -216.968668 
L 347.220347 -215.635075 
L 346.717475 -214.475944 
L 346.214602 -213.385758 
L 344.705984 -212.386741 
L 344.203112 -211.390308 
L 343.700239 -210.404746 
L 343.197366 -209.360477 
L 342.694494 -208.241575 
L 341.185876 -206.917353 
L 340.683004 -205.886374 
L 340.180131 -205.028871 
L 339.677258 -204.134354 
L 339.174386 -203.232681 
L 337.665768 -202.349424 
L 337.162895 -201.365251 
L 336.15715 -200.460627 
L 335.654278 -199.514586 
L 334.14566 -198.278728 
L 333.642787 -197.01949 
L 333.139915 -195.622976 
L 332.637042 -194.779753 
L 332.134169 -194.714095 
L 330.625552 -194.660909 
L 330.122679 -194.584416 
L 329.619806 -194.320313 
L 329.116934 -194.021206 
L 328.614061 -193.841408 
L 327.105444 -193.752128 
L 326.602571 -193.620387 
L 326.099698 -193.458512 
L 325.596826 -193.365105 
L 325.093953 -193.233059 
L 323.585335 -193.388924 
L 323.082463 -193.455419 
L 322.57959 -193.917759 
L 322.076718 -194.538526 
L 321.573845 -195.03192 
L 320.065227 -195.211043 
L 319.562355 -195.393581 
L 319.059482 -195.584497 
L 318.556609 -195.663084 
L 316.545119 -195.594892 
L 316.042247 -195.454895 
L 315.539374 -195.303245 
L 315.036501 -195.188345 
L 314.533629 -195.047453 
L 313.025011 -194.953705 
L 312.522138 -194.784728 
L 312.019266 -194.592402 
L 311.516393 -194.355832 
L 311.013521 -194.143013 
L 309.504903 -193.813613 
L 309.00203 -193.449321 
L 308.499158 -192.981914 
L 307.996285 -192.506195 
L 307.493412 -191.936281 
L 305.984795 -191.383856 
L 305.481922 -190.785802 
L 304.979049 -190.051934 
L 304.476177 -189.275848 
L 303.973304 -188.498567 
L 302.464687 -187.765202 
L 301.961814 -187.112611 
L 301.458941 -186.68278 
L 300.956069 -186.211287 
L 300.453196 -185.773153 
L 298.944578 -185.304729 
L 298.441706 -184.844318 
L 297.938833 -184.411287 
L 297.435961 -184.108323 
L 296.933088 -183.703918 
L 295.42447 -183.269456 
L 294.921598 -182.731601 
L 294.418725 -182.142704 
L 293.915852 -181.655351 
L 293.41298 -181.014677 
L 291.904362 -180.277034 
L 291.401489 -179.548475 
L 290.898617 -179.015541 
L 290.395744 -178.589417 
L 289.892872 -178.073795 
L 287.881381 -177.550293 
L 287.378509 -177.382587 
L 286.875636 -177.2393 
L 286.372764 -177.288831 
L 284.864146 -177.340985 
L 284.361273 -177.268002 
L 283.858401 -177.265836 
L 283.355528 -177.287571 
L 282.852655 -177.530318 
L 281.344038 -177.862374 
L 280.841165 -177.980039 
L 280.338292 -177.927264 
L 279.83542 -177.833354 
L 279.332547 -177.571985 
L 277.82393 -177.364933 
L 277.321057 -177.19097 
L 276.818184 -177.029932 
L 276.315312 -176.928075 
L 275.812439 -176.860836 
L 274.303821 -176.868642 
L 273.800949 -176.990191 
L 273.298076 -177.116903 
L 272.795204 -177.273347 
L 272.292331 -177.552715 
L 270.783713 -177.879331 
L 270.280841 -178.179744 
L 269.777968 -178.36485 
L 269.275095 -178.562969 
L 267.263605 -178.614719 
L 266.760732 -178.731164 
L 266.25786 -178.825209 
L 265.754987 -178.881269 
L 265.252115 -178.851337 
L 263.743497 -178.76699 
L 263.240624 -178.559079 
L 262.737752 -178.319918 
L 262.234879 -178.0352 
L 261.732007 -177.694917 
L 260.223389 -177.23617 
L 259.720516 -176.865148 
L 259.217644 -176.759615 
L 258.714771 -176.732899 
L 258.211898 -176.615969 
L 256.703281 -176.497625 
L 256.200408 -176.476251 
L 255.697535 -176.414858 
L 255.194663 -176.161156 
L 254.69179 -175.889473 
L 253.183172 -175.564623 
L 252.6803 -175.436017 
L 252.177427 -175.34443 
L 251.674555 -175.292666 
L 249.663064 -175.213547 
L 249.160192 -175.125965 
L 248.657319 -175.021436 
L 248.154447 -175.075354 
L 247.651574 -175.16419 
L 246.142956 -175.188832 
L 245.640084 -175.130551 
L 245.137211 -174.945197 
L 244.634338 -174.928412 
L 242.622848 -174.994078 
L 242.119975 -174.602517 
L 241.617103 -174.316196 
L 241.11423 -174.299854 
L 239.10274 -174.278642 
L 238.599867 -174.242534 
L 238.096995 -174.225097 
L 237.594122 -174.274375 
L 237.09125 -174.348372 
L 235.582632 -174.385479 
L 235.079759 -174.314447 
L 234.576887 -174.190288 
L 234.074014 -173.95124 
L 233.571141 -173.599986 
L 232.062524 -173.271578 
L 231.559651 -173.169265 
L 231.056778 -172.936998 
L 230.553906 -172.853784 
L 230.051033 -172.949391 
L 228.542415 -173.325005 
L 228.039543 -173.599468 
L 227.53667 -173.686852 
L 227.033798 -173.815991 
L 226.530925 -173.898907 
L 225.022307 -173.936213 
L 224.016562 -173.921351 
L 223.51369 -173.834204 
L 223.010817 -173.755125 
L 221.502199 -173.71068 
L 220.999327 -173.494623 
L 220.496454 -173.235868 
L 219.993581 -172.990582 
L 219.490709 -172.709799 
L 217.982091 -172.315659 
L 217.479218 -172.013231 
L 216.976346 -171.791873 
L 216.473473 -171.526801 
L 215.970601 -171.271325 
L 214.461983 -170.947101 
L 213.95911 -170.745401 
L 213.456238 -170.518712 
L 212.953365 -170.296066 
L 212.450493 -170.059586 
L 210.941875 -169.777501 
L 210.439002 -169.413201 
L 209.93613 -168.995499 
L 209.433257 -168.693362 
L 208.930384 -168.211099 
L 207.421767 -167.675019 
L 206.918894 -167.045776 
L 206.416021 -166.414494 
L 205.913149 -165.898359 
L 205.410276 -165.560184 
L 203.901658 -165.148391 
L 203.398786 -164.725706 
L 202.895913 -164.421202 
L 202.393041 -163.98669 
L 201.890168 -163.426916 
L 200.38155 -162.790017 
L 199.878678 -162.049857 
L 199.375805 -161.215389 
L 198.872933 -160.402773 
L 198.37006 -159.529839 
L 196.861442 -158.738096 
L 196.35857 -158.30194 
L 195.855697 -157.932682 
L 195.352824 -157.296622 
L 194.849952 -156.828365 
L 193.341334 -156.613355 
L 192.838461 -156.728819 
L 192.335589 -156.887991 
L 191.832716 -156.960445 
L 191.329844 -156.979444 
L 189.821226 -156.972752 
L 189.318353 -157.079086 
L 188.815481 -157.068861 
L 188.312608 -156.996624 
L 187.809736 -156.908023 
L 186.301118 -156.889605 
L 185.798245 -156.895501 
L 185.295373 -156.966629 
L 184.7925 -157.069887 
L 182.78101 -157.127351 
L 182.278137 -157.153362 
L 181.775264 -157.14188 
L 181.272392 -157.145147 
L 180.769519 -157.147988 
L 179.260901 -157.176192 
L 178.758029 -157.196552 
L 178.255156 -157.208466 
L 177.752284 -157.223812 
L 177.249411 -157.249642 
L 175.740793 -157.276783 
L 175.237921 -157.33175 
L 174.735048 -157.422104 
L 174.232176 -157.457049 
L 173.729303 -157.404935 
L 172.220685 -157.348239 
L 171.717813 -157.252701 
L 171.21494 -157.152345 
L 170.712067 -156.988217 
L 170.209195 -156.738516 
L 168.700577 -156.439943 
L 168.197704 -156.22371 
L 167.694832 -155.894386 
L 167.191959 -155.49547 
L 166.689087 -155.067973 
L 165.180469 -154.505997 
L 164.677596 -153.919724 
L 164.174724 -153.348928 
L 163.671851 -152.779125 
L 163.168979 -152.291114 
L 161.660361 -151.85911 
L 161.157488 -151.441149 
L 160.654616 -150.970763 
L 160.151743 -150.487089 
L 159.64887 -150.174835 
L 158.140253 -150.023344 
L 157.63738 -149.866348 
L 157.134507 -149.46632 
L 156.631635 -148.980626 
L 156.128762 -148.67888 
L 154.620144 -148.428745 
L 154.117272 -148.283853 
L 153.614399 -147.828885 
L 152.608654 -147.43007 
L 151.100036 -147.127262 
L 150.597164 -146.960054 
L 150.094291 -146.863395 
L 149.591419 -146.672917 
L 149.088546 -146.786996 
L 147.579928 -146.909598 
L 147.077056 -146.930301 
L 146.574183 -147.149799 
L 146.07131 -147.267323 
L 145.568438 -147.438081 
L 144.05982 -147.51759 
L 143.556947 -147.598121 
L 143.054075 -147.706288 
L 142.551202 -147.753624 
L 142.04833 -147.71576 
L 140.539712 -147.663013 
L 140.036839 -147.624496 
L 139.533967 -147.613243 
L 139.031094 -147.614532 
L 138.528221 -147.620339 
L 137.019604 -147.625373 
L 136.516731 -147.630665 
L 136.013859 -147.622963 
L 135.510986 -147.628395 
L 133.499496 -147.646028 
L 132.996623 -147.662154 
L 132.49375 -147.704056 
L 131.990878 -147.725827 
L 131.488005 -147.74254 
L 129.979387 -147.757789 
L 129.476515 -147.753541 
L 128.973642 -147.754182 
L 128.47077 -147.739912 
L 127.967897 -147.73256 
L 126.459279 -147.709205 
L 125.956407 -147.7085 
L 125.453534 -147.707903 
L 124.950662 -147.697834 
L 124.447789 -147.66899 
L 122.939171 -147.655164 
L 122.436299 -147.574261 
L 121.933426 -147.251737 
L 121.430553 -146.901518 
L 120.927681 -146.584248 
L 119.419063 -146.275558 
L 118.91619 -145.864444 
L 118.413318 -145.56865 
L 117.910445 -145.273227 
L 117.407573 -144.919593 
L 115.898955 -144.550164 
L 115.396082 -144.149033 
L 114.89321 -143.766315 
L 114.390337 -143.334111 
L 113.887464 -142.867566 
L 111.875974 -142.439983 
L 111.373102 -142.022599 
L 110.870229 -141.720881 
L 110.367356 -141.04616 
L 108.858739 -140.304266 
L 108.355866 -139.460556 
L 107.852993 -138.754496 
L 107.350121 -138.133196 
L 106.847248 -137.378192 
L 105.33863 -136.653623 
L 104.835758 -136.272762 
L 104.332885 -136.040139 
L 103.830013 -135.76076 
L 103.32714 -135.44657 
L 101.818522 -135.189074 
L 101.31565 -135.088005 
L 100.812777 -134.977046 
L 100.309904 -134.903852 
L 99.807032 -134.80001 
L 98.298414 -134.703399 
L 97.795542 -134.674539 
L 97.292669 -134.627191 
L 96.789796 -134.657736 
L 96.286924 -134.679718 
L 94.778306 -134.658987 
L 94.275433 -134.625753 
L 93.772561 -134.832046 
L 93.269688 -134.925222 
L 92.766816 -134.863434 
L 91.258198 -134.73415 
L 90.755325 -134.539946 
L 90.252453 -134.336536 
L 89.74958 -134.037169 
L 89.246707 -133.747375 
L 87.73809 -133.421233 
L 87.235217 -133.035577 
L 86.732345 -132.601229 
L 86.229472 -132.16407 
L 84.217982 -131.834967 
L 83.715109 -131.480048 
L 83.212236 -131.092076 
L 82.709364 -130.65147 
L 82.206491 -130.273122 
L 80.697873 -129.800172 
L 80.195001 -129.377058 
L 79.692128 -128.882735 
z
" style="stroke: #000000; stroke-opacity: 0.2; stroke-width: 0.8"/>
    </defs>
    <g clip-path="url(#pb0ba3282d8)">
     <use xlink:href="#md439087a0c" x="0" y="279.238266" style="fill: #bc80bd; fill-opacity: 0.2; stroke: #000000; stroke-opacity: 0.2; stroke-width: 0.8"/>
    </g>
   </g>
   <g id="matplotlib.axis_1">
    <g id="xtick_1">
     <g id="line2d_1">
      <defs>
       <path id="m5481b11020" d="M 0 0 
L 0 3.5 
" style="stroke: #323034; stroke-width: 0.8"/>
      </defs>
      <g>
       <use xlink:href="#m5481b11020" x="60.58297" y="208.50375" style="fill: #323034; stroke: #323034; stroke-width: 0.8"/>
      </g>
     </g>
     <g id="text_1">
      <!-- 2017-01 -->
      <g style="fill: #323034" transform="translate(12.66375 251.630993) rotate(-30) scale(0.16 -0.16)">
       <defs>
        <path id="STIXGeneral-Regular-32" d="M 3034 877 
L 2688 0 
L 186 0 
L 186 77 
L 1325 1286 
Q 1773 1754 1965 2144 
Q 2157 2534 2157 2950 
Q 2157 3379 1920 3616 
Q 1683 3853 1267 3853 
Q 922 3853 720 3673 
Q 518 3494 326 3021 
L 192 3053 
Q 301 3648 630 3987 
Q 960 4326 1523 4326 
Q 2054 4326 2380 4006 
Q 2707 3686 2707 3200 
Q 2707 2477 1888 1613 
L 832 486 
L 2330 486 
Q 2541 486 2665 569 
Q 2790 653 2944 915 
L 3034 877 
z
" transform="scale(0.015625)"/>
        <path id="STIXGeneral-Regular-30" d="M 3046 2112 
Q 3046 1683 2963 1302 
Q 2880 922 2717 602 
Q 2554 282 2266 96 
Q 1978 -90 1600 -90 
Q 1210 -90 915 108 
Q 621 307 461 640 
Q 301 973 227 1350 
Q 154 1728 154 2150 
Q 154 2746 301 3222 
Q 448 3699 790 4012 
Q 1133 4326 1626 4326 
Q 2253 4326 2649 3712 
Q 3046 3098 3046 2112 
z
M 2432 2080 
Q 2432 3091 2217 3625 
Q 2003 4160 1587 4160 
Q 1190 4160 979 3622 
Q 768 3085 768 2106 
Q 768 1120 979 598 
Q 1190 77 1600 77 
Q 2003 77 2217 598 
Q 2432 1120 2432 2080 
z
" transform="scale(0.015625)"/>
        <path id="STIXGeneral-Regular-31" d="M 2522 0 
L 755 0 
L 755 96 
Q 1107 115 1235 227 
Q 1363 339 1363 608 
L 1363 3482 
Q 1363 3795 1171 3795 
Q 1082 3795 883 3718 
L 710 3654 
L 710 3744 
L 1856 4326 
L 1914 4307 
L 1914 486 
Q 1914 275 2042 185 
Q 2170 96 2522 96 
L 2522 0 
z
" transform="scale(0.015625)"/>
        <path id="STIXGeneral-Regular-37" d="M 2874 4134 
L 1517 -51 
L 1101 -51 
L 2368 3763 
L 992 3763 
Q 717 3763 582 3667 
Q 448 3571 243 3238 
L 128 3296 
L 512 4237 
L 2874 4237 
L 2874 4134 
z
" transform="scale(0.015625)"/>
        <path id="STIXGeneral-Regular-2d" d="M 1824 1242 
L 250 1242 
L 250 1645 
L 1824 1645 
L 1824 1242 
z
" transform="scale(0.015625)"/>
       </defs>
       <use xlink:href="#STIXGeneral-Regular-32"/>
       <use xlink:href="#STIXGeneral-Regular-30" transform="translate(49.999985 0)"/>
       <use xlink:href="#STIXGeneral-Regular-31" transform="translate(99.999969 0)"/>
       <use xlink:href="#STIXGeneral-Regular-37" transform="translate(149.999954 0)"/>
       <use xlink:href="#STIXGeneral-Regular-2d" transform="translate(199.999939 0)"/>
       <use xlink:href="#STIXGeneral-Regular-30" transform="translate(233.299927 0)"/>
       <use xlink:href="#STIXGeneral-Regular-31" transform="translate(283.299911 0)"/>
      </g>
     </g>
    </g>
    <g id="xtick_2">
     <g id="line2d_2">
      <g>
       <use xlink:href="#m5481b11020" x="105.841503" y="208.50375" style="fill: #323034; stroke: #323034; stroke-width: 0.8"/>
      </g>
     </g>
     <g id="text_2">
      <!-- 2017-04 -->
      <g style="fill: #323034" transform="translate(57.922283 251.630993) rotate(-30) scale(0.16 -0.16)">
       <defs>
        <path id="STIXGeneral-Regular-34" d="M 3027 1069 
L 2368 1069 
L 2368 0 
L 1869 0 
L 1869 1069 
L 77 1069 
L 77 1478 
L 2086 4326 
L 2368 4326 
L 2368 1478 
L 3027 1478 
L 3027 1069 
z
M 1869 1478 
L 1869 3674 
L 333 1478 
L 1869 1478 
z
" transform="scale(0.015625)"/>
       </defs>
       <use xlink:href="#STIXGeneral-Regular-32"/>
       <use xlink:href="#STIXGeneral-Regular-30" transform="translate(49.999985 0)"/>
       <use xlink:href="#STIXGeneral-Regular-31" transform="translate(99.999969 0)"/>
       <use xlink:href="#STIXGeneral-Regular-37" transform="translate(149.999954 0)"/>
       <use xlink:href="#STIXGeneral-Regular-2d" transform="translate(199.999939 0)"/>
       <use xlink:href="#STIXGeneral-Regular-30" transform="translate(233.299927 0)"/>
       <use xlink:href="#STIXGeneral-Regular-34" transform="translate(283.299911 0)"/>
      </g>
     </g>
    </g>
    <g id="xtick_3">
     <g id="line2d_3">
      <g>
       <use xlink:href="#m5481b11020" x="151.602909" y="208.50375" style="fill: #323034; stroke: #323034; stroke-width: 0.8"/>
      </g>
     </g>
     <g id="text_3">
      <!-- 2017-07 -->
      <g style="fill: #323034" transform="translate(103.683689 251.630993) rotate(-30) scale(0.16 -0.16)">
       <use xlink:href="#STIXGeneral-Regular-32"/>
       <use xlink:href="#STIXGeneral-Regular-30" transform="translate(49.999985 0)"/>
       <use xlink:href="#STIXGeneral-Regular-31" transform="translate(99.999969 0)"/>
       <use xlink:href="#STIXGeneral-Regular-37" transform="translate(149.999954 0)"/>
       <use xlink:href="#STIXGeneral-Regular-2d" transform="translate(199.999939 0)"/>
       <use xlink:href="#STIXGeneral-Regular-30" transform="translate(233.299927 0)"/>
       <use xlink:href="#STIXGeneral-Regular-37" transform="translate(283.299911 0)"/>
      </g>
     </g>
    </g>
    <g id="xtick_4">
     <g id="line2d_4">
      <g>
       <use xlink:href="#m5481b11020" x="197.867187" y="208.50375" style="fill: #323034; stroke: #323034; stroke-width: 0.8"/>
      </g>
     </g>
     <g id="text_4">
      <!-- 2017-10 -->
      <g style="fill: #323034" transform="translate(149.947968 251.630993) rotate(-30) scale(0.16 -0.16)">
       <use xlink:href="#STIXGeneral-Regular-32"/>
       <use xlink:href="#STIXGeneral-Regular-30" transform="translate(49.999985 0)"/>
       <use xlink:href="#STIXGeneral-Regular-31" transform="translate(99.999969 0)"/>
       <use xlink:href="#STIXGeneral-Regular-37" transform="translate(149.999954 0)"/>
       <use xlink:href="#STIXGeneral-Regular-2d" transform="translate(199.999939 0)"/>
       <use xlink:href="#STIXGeneral-Regular-31" transform="translate(233.299927 0)"/>
       <use xlink:href="#STIXGeneral-Regular-30" transform="translate(283.299911 0)"/>
      </g>
     </g>
    </g>
    <g id="xtick_5">
     <g id="line2d_5">
      <g>
       <use xlink:href="#m5481b11020" x="244.131466" y="208.50375" style="fill: #323034; stroke: #323034; stroke-width: 0.8"/>
      </g>
     </g>
     <g id="text_5">
      <!-- 2018-01 -->
      <g style="fill: #323034" transform="translate(196.212246 251.630993) rotate(-30) scale(0.16 -0.16)">
       <defs>
        <path id="STIXGeneral-Regular-38" d="M 2848 992 
Q 2848 499 2505 204 
Q 2163 -90 1587 -90 
Q 1050 -90 704 204 
Q 358 499 358 954 
Q 358 1293 524 1533 
Q 691 1773 1190 2125 
Q 710 2522 553 2765 
Q 397 3008 397 3328 
Q 397 3782 745 4054 
Q 1094 4326 1638 4326 
Q 2106 4326 2410 4060 
Q 2714 3795 2714 3411 
Q 2714 3059 2531 2848 
Q 2349 2637 1856 2374 
Q 2432 1990 2640 1689 
Q 2848 1389 2848 992 
z
M 2272 3411 
Q 2272 3744 2086 3945 
Q 1901 4147 1574 4147 
Q 1248 4147 1059 3977 
Q 870 3808 870 3513 
Q 870 3219 1059 2979 
Q 1248 2739 1670 2490 
Q 1997 2682 2134 2896 
Q 2272 3110 2272 3411 
z
M 1734 1741 
L 1357 1997 
Q 1075 1766 960 1545 
Q 845 1325 845 1011 
Q 845 576 1065 333 
Q 1286 90 1658 90 
Q 1971 90 2166 285 
Q 2362 480 2362 794 
Q 2362 1082 2214 1299 
Q 2067 1517 1734 1741 
z
" transform="scale(0.015625)"/>
       </defs>
       <use xlink:href="#STIXGeneral-Regular-32"/>
       <use xlink:href="#STIXGeneral-Regular-30" transform="translate(49.999985 0)"/>
       <use xlink:href="#STIXGeneral-Regular-31" transform="translate(99.999969 0)"/>
       <use xlink:href="#STIXGeneral-Regular-38" transform="translate(149.999954 0)"/>
       <use xlink:href="#STIXGeneral-Regular-2d" transform="translate(199.999939 0)"/>
       <use xlink:href="#STIXGeneral-Regular-30" transform="translate(233.299927 0)"/>
       <use xlink:href="#STIXGeneral-Regular-31" transform="translate(283.299911 0)"/>
      </g>
     </g>
    </g>
    <g id="xtick_6">
     <g id="line2d_6">
      <g>
       <use xlink:href="#m5481b11020" x="289.389999" y="208.50375" style="fill: #323034; stroke: #323034; stroke-width: 0.8"/>
      </g>
     </g>
     <g id="text_6">
      <!-- 2018-04 -->
      <g style="fill: #323034" transform="translate(241.470779 251.630993) rotate(-30) scale(0.16 -0.16)">
       <use xlink:href="#STIXGeneral-Regular-32"/>
       <use xlink:href="#STIXGeneral-Regular-30" transform="translate(49.999985 0)"/>
       <use xlink:href="#STIXGeneral-Regular-31" transform="translate(99.999969 0)"/>
       <use xlink:href="#STIXGeneral-Regular-38" transform="translate(149.999954 0)"/>
       <use xlink:href="#STIXGeneral-Regular-2d" transform="translate(199.999939 0)"/>
       <use xlink:href="#STIXGeneral-Regular-30" transform="translate(233.299927 0)"/>
       <use xlink:href="#STIXGeneral-Regular-34" transform="translate(283.299911 0)"/>
      </g>
     </g>
    </g>
    <g id="xtick_7">
     <g id="line2d_7">
      <g>
       <use xlink:href="#m5481b11020" x="335.151405" y="208.50375" style="fill: #323034; stroke: #323034; stroke-width: 0.8"/>
      </g>
     </g>
     <g id="text_7">
      <!-- 2018-07 -->
      <g style="fill: #323034" transform="translate(287.232185 251.630993) rotate(-30) scale(0.16 -0.16)">
       <use xlink:href="#STIXGeneral-Regular-32"/>
       <use xlink:href="#STIXGeneral-Regular-30" transform="translate(49.999985 0)"/>
       <use xlink:href="#STIXGeneral-Regular-31" transform="translate(99.999969 0)"/>
       <use xlink:href="#STIXGeneral-Regular-38" transform="translate(149.999954 0)"/>
       <use xlink:href="#STIXGeneral-Regular-2d" transform="translate(199.999939 0)"/>
       <use xlink:href="#STIXGeneral-Regular-30" transform="translate(233.299927 0)"/>
       <use xlink:href="#STIXGeneral-Regular-37" transform="translate(283.299911 0)"/>
      </g>
     </g>
    </g>
    <g id="xtick_8">
     <g id="line2d_8">
      <g>
       <use xlink:href="#m5481b11020" x="381.415683" y="208.50375" style="fill: #323034; stroke: #323034; stroke-width: 0.8"/>
      </g>
     </g>
     <g id="text_8">
      <!-- 2018-10 -->
      <g style="fill: #323034" transform="translate(333.496464 251.630993) rotate(-30) scale(0.16 -0.16)">
       <use xlink:href="#STIXGeneral-Regular-32"/>
       <use xlink:href="#STIXGeneral-Regular-30" transform="translate(49.999985 0)"/>
       <use xlink:href="#STIXGeneral-Regular-31" transform="translate(99.999969 0)"/>
       <use xlink:href="#STIXGeneral-Regular-38" transform="translate(149.999954 0)"/>
       <use xlink:href="#STIXGeneral-Regular-2d" transform="translate(199.999939 0)"/>
       <use xlink:href="#STIXGeneral-Regular-31" transform="translate(233.299927 0)"/>
       <use xlink:href="#STIXGeneral-Regular-30" transform="translate(283.299911 0)"/>
      </g>
     </g>
    </g>
    <g id="xtick_9">
     <g id="line2d_9">
      <g>
       <use xlink:href="#m5481b11020" x="427.679962" y="208.50375" style="fill: #323034; stroke: #323034; stroke-width: 0.8"/>
      </g>
     </g>
     <g id="text_9">
      <!-- 2019-01 -->
      <g style="fill: #323034" transform="translate(379.760742 251.630993) rotate(-30) scale(0.16 -0.16)">
       <defs>
        <path id="STIXGeneral-Regular-39" d="M 378 -141 
L 358 -13 
Q 1094 115 1603 608 
Q 2112 1101 2304 1882 
Q 1933 1517 1344 1517 
Q 826 1517 509 1875 
Q 192 2234 192 2816 
Q 192 3462 573 3894 
Q 954 4326 1523 4326 
Q 2131 4326 2528 3840 
Q 2938 3328 2938 2522 
Q 2938 1958 2742 1462 
Q 2547 966 2170 621 
Q 1773 262 1395 105 
Q 1018 -51 378 -141 
z
M 2317 2272 
L 2317 2522 
Q 2317 4147 1472 4147 
Q 1171 4147 1005 3930 
Q 909 3802 845 3546 
Q 781 3290 781 3034 
Q 781 2464 995 2128 
Q 1210 1792 1568 1792 
Q 1824 1792 2070 1917 
Q 2317 2042 2317 2272 
z
" transform="scale(0.015625)"/>
       </defs>
       <use xlink:href="#STIXGeneral-Regular-32"/>
       <use xlink:href="#STIXGeneral-Regular-30" transform="translate(49.999985 0)"/>
       <use xlink:href="#STIXGeneral-Regular-31" transform="translate(99.999969 0)"/>
       <use xlink:href="#STIXGeneral-Regular-39" transform="translate(149.999954 0)"/>
       <use xlink:href="#STIXGeneral-Regular-2d" transform="translate(199.999939 0)"/>
       <use xlink:href="#STIXGeneral-Regular-30" transform="translate(233.299927 0)"/>
       <use xlink:href="#STIXGeneral-Regular-31" transform="translate(283.299911 0)"/>
      </g>
     </g>
    </g>
    <g id="xtick_10">
     <g id="line2d_10">
      <g>
       <use xlink:href="#m5481b11020" x="472.938495" y="208.50375" style="fill: #323034; stroke: #323034; stroke-width: 0.8"/>
      </g>
     </g>
     <g id="text_10">
      <!-- 2019-04 -->
      <g style="fill: #323034" transform="translate(425.019276 251.630993) rotate(-30) scale(0.16 -0.16)">
       <use xlink:href="#STIXGeneral-Regular-32"/>
       <use xlink:href="#STIXGeneral-Regular-30" transform="translate(49.999985 0)"/>
       <use xlink:href="#STIXGeneral-Regular-31" transform="translate(99.999969 0)"/>
       <use xlink:href="#STIXGeneral-Regular-39" transform="translate(149.999954 0)"/>
       <use xlink:href="#STIXGeneral-Regular-2d" transform="translate(199.999939 0)"/>
       <use xlink:href="#STIXGeneral-Regular-30" transform="translate(233.299927 0)"/>
       <use xlink:href="#STIXGeneral-Regular-34" transform="translate(283.299911 0)"/>
      </g>
     </g>
    </g>
    <g id="text_11">
     <!-- Date -->
     <g transform="translate(267.496219 268.565766) scale(0.16 -0.16)">
      <defs>
       <path id="STIXGeneral-Regular-44" d="M 102 4237 
L 1830 4237 
Q 3078 4237 3750 3654 
Q 4384 3110 4384 2138 
Q 4384 966 3514 410 
Q 2880 0 1901 0 
L 102 0 
L 102 122 
Q 474 147 570 252 
Q 666 358 666 736 
L 666 3520 
Q 666 3891 570 3990 
Q 474 4090 102 4115 
L 102 4237 
z
M 1318 3731 
L 1318 538 
Q 1318 365 1379 301 
Q 1440 237 1626 237 
Q 2125 237 2432 307 
Q 2739 378 3021 570 
Q 3686 1018 3686 2099 
Q 3686 3027 3078 3558 
Q 2803 3802 2476 3901 
Q 2150 4000 1658 4000 
Q 1472 4000 1395 3942 
Q 1318 3885 1318 3731 
z
" transform="scale(0.015625)"/>
       <path id="STIXGeneral-Regular-61" d="M 2829 422 
L 2829 243 
Q 2586 -64 2253 -64 
Q 1888 -64 1843 403 
L 1837 403 
Q 1427 -64 909 -64 
Q 608 -64 422 112 
Q 237 288 237 602 
Q 237 1050 685 1350 
Q 992 1555 1837 1869 
L 1837 2214 
Q 1837 2502 1699 2646 
Q 1562 2790 1338 2790 
Q 1146 2790 1018 2697 
Q 890 2605 890 2477 
Q 890 2419 909 2348 
Q 928 2278 928 2208 
Q 928 2112 841 2029 
Q 755 1946 634 1946 
Q 525 1946 441 2029 
Q 358 2112 358 2240 
Q 358 2547 685 2752 
Q 986 2944 1421 2944 
Q 1939 2944 2176 2656 
Q 2291 2522 2323 2384 
Q 2355 2246 2355 1946 
L 2355 723 
Q 2355 301 2554 301 
Q 2682 301 2829 422 
z
M 1837 813 
L 1837 1715 
Q 1248 1510 1018 1293 
Q 800 1094 800 800 
Q 800 557 921 432 
Q 1043 307 1242 307 
Q 1453 307 1613 410 
Q 1747 506 1792 589 
Q 1837 672 1837 813 
z
" transform="scale(0.015625)"/>
       <path id="STIXGeneral-Regular-74" d="M 1702 493 
L 1786 422 
Q 1478 -64 1011 -64 
Q 448 -64 448 749 
L 448 2675 
L 109 2675 
Q 83 2694 83 2720 
Q 83 2771 192 2842 
Q 435 2982 813 3526 
Q 826 3546 874 3606 
Q 922 3667 941 3706 
Q 986 3706 986 3622 
L 986 2880 
L 1632 2880 
L 1632 2675 
L 986 2675 
L 986 845 
Q 986 538 1062 403 
Q 1139 269 1318 269 
Q 1510 269 1702 493 
z
" transform="scale(0.015625)"/>
       <path id="STIXGeneral-Regular-65" d="M 2611 1050 
L 2714 1005 
Q 2330 -64 1376 -64 
Q 813 -64 486 329 
Q 160 723 160 1389 
Q 160 2074 525 2509 
Q 890 2944 1485 2944 
Q 2061 2944 2374 2502 
Q 2560 2246 2592 1773 
L 621 1773 
Q 646 1370 700 1158 
Q 755 947 915 730 
Q 1184 378 1626 378 
Q 1939 378 2153 531 
Q 2368 685 2611 1050 
z
M 634 1978 
L 1939 1978 
Q 1882 2381 1750 2547 
Q 1619 2714 1312 2714 
Q 1043 2714 864 2525 
Q 685 2336 634 1978 
z
" transform="scale(0.015625)"/>
      </defs>
      <use xlink:href="#STIXGeneral-Regular-44"/>
      <use xlink:href="#STIXGeneral-Regular-61" transform="translate(72.199982 0)"/>
      <use xlink:href="#STIXGeneral-Regular-74" transform="translate(116.599976 0)"/>
      <use xlink:href="#STIXGeneral-Regular-65" transform="translate(144.399963 0)"/>
     </g>
    </g>
   </g>
   <g id="matplotlib.axis_2">
    <g id="ytick_1">
     <g id="line2d_11">
      <defs>
       <path id="m465ae0c448" d="M 0 0 
L -3.5 0 
" style="stroke: #323034; stroke-width: 0.8"/>
      </defs>
      <g>
       <use xlink:href="#m465ae0c448" x="59.401219" y="208.50375" style="fill: #323034; stroke: #323034; stroke-width: 0.8"/>
      </g>
     </g>
     <g id="text_12">
      <!-- $\mathdefault{20}$ -->
      <g style="fill: #323034" transform="translate(36.401219 213.9675) scale(0.16 -0.16)">
       <use xlink:href="#STIXGeneral-Regular-32" transform="translate(0 0.40625)"/>
       <use xlink:href="#STIXGeneral-Regular-30" transform="translate(49.999985 0.40625)"/>
      </g>
     </g>
    </g>
    <g id="ytick_2">
     <g id="line2d_12">
      <g>
       <use xlink:href="#m465ae0c448" x="59.401219" y="159.54375" style="fill: #323034; stroke: #323034; stroke-width: 0.8"/>
      </g>
     </g>
     <g id="text_13">
      <!-- $\mathdefault{30}$ -->
      <g style="fill: #323034" transform="translate(36.401219 165.0075) scale(0.16 -0.16)">
       <defs>
        <path id="STIXGeneral-Regular-33" d="M 390 3264 
L 288 3290 
Q 435 3770 748 4048 
Q 1062 4326 1542 4326 
Q 1990 4326 2265 4083 
Q 2541 3840 2541 3450 
Q 2541 2925 1946 2566 
Q 2298 2413 2477 2227 
Q 2758 1914 2758 1402 
Q 2758 890 2464 506 
Q 2246 211 1840 60 
Q 1434 -90 979 -90 
Q 262 -90 262 275 
Q 262 378 339 442 
Q 416 506 525 506 
Q 685 506 915 339 
Q 1197 141 1466 141 
Q 1818 141 2058 425 
Q 2298 710 2298 1120 
Q 2298 1856 1632 2048 
Q 1434 2112 979 2112 
L 979 2202 
Q 1338 2323 1517 2432 
Q 2035 2726 2035 3290 
Q 2035 3610 1852 3776 
Q 1670 3942 1344 3942 
Q 768 3942 390 3264 
z
" transform="scale(0.015625)"/>
       </defs>
       <use xlink:href="#STIXGeneral-Regular-33" transform="translate(0 0.40625)"/>
       <use xlink:href="#STIXGeneral-Regular-30" transform="translate(49.999985 0.40625)"/>
      </g>
     </g>
    </g>
    <g id="ytick_3">
     <g id="line2d_13">
      <g>
       <use xlink:href="#m465ae0c448" x="59.401219" y="110.58375" style="fill: #323034; stroke: #323034; stroke-width: 0.8"/>
      </g>
     </g>
     <g id="text_14">
      <!-- $\mathdefault{40}$ -->
      <g style="fill: #323034" transform="translate(36.401219 116.0475) scale(0.16 -0.16)">
       <use xlink:href="#STIXGeneral-Regular-34" transform="translate(0 0.40625)"/>
       <use xlink:href="#STIXGeneral-Regular-30" transform="translate(49.999985 0.40625)"/>
      </g>
     </g>
    </g>
    <g id="ytick_4">
     <g id="line2d_14">
      <g>
       <use xlink:href="#m465ae0c448" x="59.401219" y="61.62375" style="fill: #323034; stroke: #323034; stroke-width: 0.8"/>
      </g>
     </g>
     <g id="text_15">
      <!-- $\mathdefault{50}$ -->
      <g style="fill: #323034" transform="translate(36.401219 67.0875) scale(0.16 -0.16)">
       <defs>
        <path id="STIXGeneral-Regular-35" d="M 2803 4358 
L 2573 3814 
Q 2534 3731 2400 3731 
L 1158 3731 
L 902 3187 
Q 1606 3053 1920 2896 
Q 2234 2739 2502 2368 
Q 2726 2061 2726 1555 
Q 2726 1094 2576 780 
Q 2426 467 2099 224 
Q 1664 -90 1011 -90 
Q 646 -90 422 19 
Q 198 128 198 307 
Q 198 550 486 550 
Q 717 550 960 352 
Q 1210 147 1414 147 
Q 1747 147 2012 480 
Q 2278 813 2278 1229 
Q 2278 1843 1850 2189 
Q 1293 2637 486 2637 
Q 410 2637 410 2688 
L 416 2720 
L 1114 4237 
L 2438 4237 
Q 2547 4237 2608 4269 
Q 2669 4301 2746 4403 
L 2803 4358 
z
" transform="scale(0.015625)"/>
       </defs>
       <use xlink:href="#STIXGeneral-Regular-35" transform="translate(0 0.203125)"/>
       <use xlink:href="#STIXGeneral-Regular-30" transform="translate(49.999985 0.203125)"/>
      </g>
     </g>
    </g>
    <g id="ytick_5">
     <g id="line2d_15">
      <g>
       <use xlink:href="#m465ae0c448" x="59.401219" y="12.66375" style="fill: #323034; stroke: #323034; stroke-width: 0.8"/>
      </g>
     </g>
     <g id="text_16">
      <!-- $\mathdefault{60}$ -->
      <g style="fill: #323034" transform="translate(36.401219 18.1275) scale(0.16 -0.16)">
       <defs>
        <path id="STIXGeneral-Regular-36" d="M 2854 4378 
L 2867 4275 
Q 2112 4154 1606 3664 
Q 1101 3174 973 2451 
Q 1344 2739 1786 2739 
Q 2349 2739 2672 2380 
Q 2995 2022 2995 1402 
Q 2995 774 2669 378 
Q 2291 -90 1651 -90 
Q 870 -90 518 557 
Q 218 1107 218 1786 
Q 218 2835 915 3552 
Q 1312 3962 1731 4131 
Q 2150 4301 2854 4378 
z
M 2419 1203 
Q 2419 2445 1555 2445 
Q 1235 2445 1024 2275 
Q 813 2106 813 1702 
Q 813 954 1046 522 
Q 1280 90 1722 90 
Q 2061 90 2240 394 
Q 2419 698 2419 1203 
z
" transform="scale(0.015625)"/>
       </defs>
       <use xlink:href="#STIXGeneral-Regular-36" transform="translate(0 0.59375)"/>
       <use xlink:href="#STIXGeneral-Regular-30" transform="translate(49.999985 0.59375)"/>
      </g>
     </g>
    </g>
    <g id="text_17">
     <!-- Close ($) -->
     <g transform="translate(29.928719 140.13625) rotate(-90) scale(0.16 -0.16)">
      <defs>
       <path id="STIXGeneral-Regular-43" d="M 3930 838 
L 4051 723 
Q 3482 -90 2304 -90 
Q 1376 -90 794 480 
Q 179 1082 179 2080 
Q 179 3014 755 3661 
Q 1357 4326 2310 4326 
Q 2720 4326 3072 4230 
Q 3475 4115 3514 4115 
Q 3725 4115 3782 4326 
L 3910 4326 
L 3968 2874 
L 3821 2874 
Q 3718 3334 3488 3584 
Q 3034 4070 2458 4070 
Q 1747 4070 1334 3548 
Q 922 3027 922 2182 
Q 922 1152 1382 653 
Q 1811 192 2522 192 
Q 2944 192 3251 339 
Q 3558 486 3930 838 
z
" transform="scale(0.015625)"/>
       <path id="STIXGeneral-Regular-6c" d="M 1645 0 
L 134 0 
L 134 96 
Q 435 122 531 221 
Q 627 320 627 589 
L 627 3590 
Q 627 3821 569 3910 
Q 512 4000 358 4000 
Q 224 4000 122 3987 
L 122 4090 
Q 730 4237 1133 4371 
L 1165 4346 
L 1165 557 
Q 1165 288 1254 201 
Q 1344 115 1645 96 
L 1645 0 
z
" transform="scale(0.015625)"/>
       <path id="STIXGeneral-Regular-6f" d="M 3008 1478 
Q 3008 806 2608 371 
Q 2208 -64 1568 -64 
Q 979 -64 582 368 
Q 186 800 186 1459 
Q 186 2125 582 2534 
Q 979 2944 1626 2944 
Q 2221 2944 2614 2537 
Q 3008 2131 3008 1478 
z
M 2432 1306 
Q 2432 2035 2112 2445 
Q 1856 2765 1504 2765 
Q 1171 2765 966 2493 
Q 762 2221 762 1747 
Q 762 928 1101 435 
Q 1318 115 1677 115 
Q 2029 115 2230 432 
Q 2432 749 2432 1306 
z
" transform="scale(0.015625)"/>
       <path id="STIXGeneral-Regular-73" d="M 998 1926 
L 1664 1523 
Q 1984 1331 2105 1164 
Q 2227 998 2227 736 
Q 2227 416 1961 176 
Q 1696 -64 1331 -64 
Q 1030 -64 864 -6 
Q 691 51 570 51 
Q 461 51 416 -26 
L 333 -26 
L 333 979 
L 435 979 
Q 538 512 730 294 
Q 922 77 1248 77 
Q 1485 77 1632 211 
Q 1779 346 1779 550 
Q 1779 845 1440 1030 
L 1094 1222 
Q 326 1651 326 2150 
Q 326 2522 566 2730 
Q 806 2938 1210 2938 
Q 1491 2938 1638 2867 
Q 1754 2816 1818 2816 
Q 1862 2816 1920 2880 
L 1990 2880 
L 2022 2010 
L 1926 2010 
Q 1818 2445 1654 2621 
Q 1491 2797 1203 2797 
Q 986 2797 854 2688 
Q 723 2579 723 2362 
Q 723 2253 796 2128 
Q 870 2003 998 1926 
z
" transform="scale(0.015625)"/>
       <path id="STIXGeneral-Regular-20" transform="scale(0.015625)"/>
       <path id="STIXGeneral-Regular-28" d="M 1946 -1030 
L 1869 -1133 
Q 1126 -710 716 32 
Q 307 774 307 1613 
Q 307 3386 1888 4326 
L 1946 4224 
Q 1293 3667 1075 3126 
Q 858 2586 858 1632 
Q 858 685 1082 96 
Q 1306 -493 1946 -1030 
z
" transform="scale(0.015625)"/>
       <path id="STIXGeneral-Regular-24" d="M 1690 4077 
L 1690 2502 
Q 2234 2208 2445 2045 
Q 2656 1882 2797 1664 
Q 2931 1466 2931 1088 
Q 2931 570 2614 326 
Q 2298 83 1690 0 
L 1690 -557 
L 1472 -557 
L 1472 0 
Q 1062 0 806 73 
Q 550 147 282 326 
L 282 1158 
L 378 1158 
Q 480 685 761 432 
Q 1043 179 1472 179 
L 1472 1984 
Q 800 2362 566 2624 
Q 333 2886 333 3283 
Q 333 3731 659 3974 
Q 986 4218 1472 4250 
L 1472 4653 
L 1690 4653 
L 1690 4250 
Q 2426 4205 2720 3910 
L 2720 3200 
L 2624 3200 
Q 2528 3597 2301 3814 
Q 2074 4032 1690 4077 
z
M 1472 2605 
L 1472 4077 
Q 806 3942 806 3405 
Q 806 3194 937 3037 
Q 1069 2880 1472 2605 
z
M 1690 1875 
L 1690 179 
Q 2086 262 2252 432 
Q 2419 602 2419 941 
Q 2419 1235 2272 1427 
Q 2125 1619 1690 1875 
z
" transform="scale(0.015625)"/>
       <path id="STIXGeneral-Regular-29" d="M 186 4224 
L 262 4326 
Q 992 3891 1408 3148 
Q 1824 2406 1824 1581 
Q 1824 -166 243 -1133 
L 186 -1030 
Q 845 -486 1059 54 
Q 1274 595 1274 1562 
Q 1274 2534 1059 3120 
Q 845 3706 186 4224 
z
" transform="scale(0.015625)"/>
      </defs>
      <use xlink:href="#STIXGeneral-Regular-43"/>
      <use xlink:href="#STIXGeneral-Regular-6c" transform="translate(66.699997 0)"/>
      <use xlink:href="#STIXGeneral-Regular-6f" transform="translate(94.499985 0)"/>
      <use xlink:href="#STIXGeneral-Regular-73" transform="translate(144.499969 0)"/>
      <use xlink:href="#STIXGeneral-Regular-65" transform="translate(183.399963 0)"/>
      <use xlink:href="#STIXGeneral-Regular-20" transform="translate(227.799957 0)"/>
      <use xlink:href="#STIXGeneral-Regular-28" transform="translate(252.799942 0)"/>
      <use xlink:href="#STIXGeneral-Regular-24" transform="translate(286.09993 0)"/>
      <use xlink:href="#STIXGeneral-Regular-29" transform="translate(336.099915 0)"/>
     </g>
    </g>
   </g>
   <g id="line2d_16">
    <path d="M 79.692128 160.3326 
L 80.697873 159.211356 
L 82.206491 158.637207 
L 84.217982 156.619152 
L 86.229472 156.117665 
L 87.73809 154.4335 
L 89.246707 153.881008 
L 91.258198 151.700211 
L 92.766816 151.20367 
L 94.275433 149.771428 
L 94.778306 149.480297 
L 96.286924 149.166544 
L 98.298414 148.126931 
L 99.807032 147.872843 
L 100.812777 147.356519 
L 101.818522 146.973577 
L 103.32714 146.719265 
L 105.33863 145.722849 
L 106.847248 145.352594 
L 108.858739 143.860013 
L 110.367356 143.484939 
L 111.373102 142.848095 
L 111.875974 142.527213 
L 113.887464 142.187259 
L 115.898955 140.834208 
L 117.407573 140.527265 
L 119.419063 139.284269 
L 120.927681 138.975259 
L 122.436299 138.03753 
L 122.939171 137.913545 
L 128.47077 137.637497 
L 133.499496 136.916196 
L 140.539712 136.682325 
L 143.054075 136.591284 
L 144.05982 136.713555 
L 146.574183 136.88319 
L 147.579928 137.011896 
L 150.094291 137.095349 
L 153.614399 136.726291 
L 154.620144 136.486164 
L 156.631635 136.259995 
L 157.63738 135.908979 
L 158.140253 135.838263 
L 159.64887 135.767121 
L 160.151743 135.56594 
L 161.660361 134.571298 
L 163.168979 134.202973 
L 165.180469 132.50209 
L 166.689087 132.068584 
L 168.700577 130.596251 
L 170.209195 130.176615 
L 172.220685 128.656766 
L 173.729303 128.313105 
L 174.735048 127.734477 
L 175.740793 127.439577 
L 177.752284 127.296714 
L 179.260901 127.02378 
L 182.278137 126.773111 
L 182.78101 126.651459 
L 184.7925 126.493374 
L 185.798245 126.154628 
L 187.809736 126.120313 
L 188.815481 125.974601 
L 191.329844 126.047969 
L 192.335589 126.140653 
L 193.341334 126.339946 
L 194.849952 126.221466 
L 196.861442 125.393017 
L 198.37006 125.090995 
L 200.38155 123.867616 
L 201.890168 123.609702 
L 203.901658 122.727279 
L 205.410276 122.450329 
L 206.416021 121.948249 
L 207.421767 121.189019 
L 208.930384 120.850338 
L 210.941875 119.456559 
L 212.450493 119.033764 
L 213.456238 118.207889 
L 214.461983 117.468299 
L 215.970601 117.030659 
L 217.982091 115.307536 
L 219.490709 114.810917 
L 221.502199 113.050093 
L 223.010817 112.726083 
L 224.016562 112.211109 
L 226.530925 111.595248 
L 228.542415 109.97038 
L 230.051033 109.569813 
L 231.056778 109.089119 
L 232.062524 108.664051 
L 235.582632 108.021369 
L 237.594122 108.126528 
L 239.10274 108.308668 
L 241.617103 108.447048 
L 242.119975 108.664239 
L 242.622848 109.0457 
L 244.634338 109.319023 
L 246.142956 110.473543 
L 248.154447 110.770157 
L 248.657319 110.838834 
L 249.663064 110.669563 
L 252.6803 110.444548 
L 256.703281 109.819757 
L 259.720516 109.603797 
L 260.223389 109.371395 
L 261.732007 109.099654 
L 263.240624 108.488408 
L 263.743497 108.339126 
L 266.25786 108.303443 
L 267.263605 108.61203 
L 269.275095 108.653398 
L 270.783713 109.28873 
L 272.292331 109.561374 
L 273.298076 109.883812 
L 274.303821 110.082882 
L 276.315312 110.035235 
L 277.321057 109.735952 
L 277.82393 109.552383 
L 279.332547 109.351759 
L 280.841165 108.182947 
L 281.344038 108.02588 
L 284.361273 107.610196 
L 284.864146 107.726366 
L 286.875636 107.980791 
L 287.881381 107.738329 
L 289.892872 107.477692 
L 291.904362 106.612051 
L 293.41298 106.282698 
L 295.42447 105.180322 
L 296.933088 104.948249 
L 298.944578 104.164111 
L 300.453196 103.918952 
L 301.961814 103.093609 
L 302.464687 102.640348 
L 303.973304 102.094697 
L 304.979049 100.919803 
L 305.984795 99.727613 
L 307.493412 99.171205 
L 308.499158 98.035109 
L 309.504903 97.191002 
L 311.013521 96.705897 
L 312.522138 95.692331 
L 313.025011 95.427944 
L 314.533629 95.240634 
L 316.545119 94.381419 
L 318.556609 93.871149 
L 319.562355 92.892003 
L 320.065227 92.315871 
L 321.573845 91.69258 
L 322.57959 90.493874 
L 323.082463 89.972449 
L 323.585335 89.615937 
L 326.099698 88.946784 
L 327.105444 88.684811 
L 329.116934 88.52986 
L 330.625552 88.131737 
L 332.637042 87.972397 
L 333.139915 87.652101 
L 334.14566 86.731625 
L 335.654278 86.248524 
L 336.15715 85.820616 
L 337.162895 85.373771 
L 337.665768 84.880048 
L 339.174386 84.386145 
L 341.185876 82.636322 
L 342.694494 82.061704 
L 344.705984 79.795159 
L 346.214602 79.192019 
L 347.220347 77.769626 
L 348.226092 75.982453 
L 349.73471 74.990196 
L 351.746201 71.131284 
L 353.254818 70.355468 
L 355.266309 66.736845 
L 356.774926 66.028494 
L 358.786417 63.314488 
L 360.295035 62.616294 
L 362.306525 59.572834 
L 363.815143 58.727247 
L 365.323761 56.133293 
L 365.826633 55.420498 
L 367.838123 54.645165 
L 368.340996 53.773282 
L 368.843869 53.153731 
L 369.346741 52.837311 
L 370.855359 52.479397 
L 371.861104 51.925369 
L 372.866849 51.362288 
L 374.375467 51.103669 
L 375.381212 50.478443 
L 376.386958 50.133154 
L 377.895575 50.064096 
L 378.901321 50.237899 
L 379.907066 49.983218 
L 381.415683 50.168841 
L 382.924301 51.060798 
L 383.427174 51.379727 
L 384.935792 51.839644 
L 385.941537 53.421061 
L 386.947282 55.053426 
L 388.4559 55.681312 
L 388.958772 56.418733 
L 390.46739 59.742882 
L 391.976008 60.869374 
L 392.981753 62.716337 
L 393.987498 64.547537 
L 395.496116 65.293618 
L 396.501861 67.38722 
L 397.507606 69.84596 
L 399.016224 71.155777 
L 400.524842 75.357548 
L 401.027715 76.82857 
L 402.536332 78.164316 
L 404.04495 82.727583 
L 404.547823 84.282719 
L 406.05644 85.774914 
L 407.062186 88.695732 
L 408.067931 90.153351 
L 409.576549 91.486977 
L 411.085166 96.64963 
L 411.588039 98.128439 
L 413.096657 99.656866 
L 413.599529 101.092789 
L 414.605275 102.46974 
L 415.108147 103.924509 
L 416.616765 105.436733 
L 417.119638 106.983333 
L 418.628255 110.348949 
L 420.136873 111.634927 
L 421.142618 114.018525 
L 422.148363 115.772387 
L 423.656981 116.273523 
L 424.662726 116.854191 
L 425.165599 117.482297 
L 425.668472 117.822049 
L 429.18858 118.058526 
L 430.697197 118.153484 
L 432.708688 119.052828 
L 435.223051 119.138305 
L 436.228796 118.895083 
L 438.743159 118.647477 
L 439.748904 118.177898 
L 441.257522 117.932931 
L 442.263267 117.146198 
L 443.269012 115.999016 
L 444.77763 115.475851 
L 446.78912 112.974322 
L 448.297738 111.889815 
L 450.309229 108.07971 
L 452.320719 107.24837 
L 453.829337 104.66621 
L 455.337955 103.833122 
L 456.846572 101.109541 
L 457.349445 100.118681 
L 458.858063 99.068855 
L 460.869553 95.147958 
L 462.378171 94.373977 
L 463.886789 92.228968 
L 464.389661 91.519835 
L 465.898279 90.718316 
L 467.909769 87.371406 
L 469.418387 86.581796 
L 469.92126 85.875327 
L 471.429877 83.133527 
L 472.938495 82.304215 
L 474.949986 79.785697 
L 476.458603 79.517935 
L 477.967221 78.444716 
L 478.470094 78.042373 
L 481.487329 77.563155 
L 483.49882 77.658224 
L 485.007437 78.235166 
L 485.51031 78.525126 
L 485.51031 78.525126 
" clip-path="url(#pb0ba3282d8)" style="fill: none; stroke: #bc80bd; stroke-width: 3; stroke-linecap: square"/>
   </g>
   <g id="patch_3">
    <path d="M 59.401219 208.50375 
L 59.401219 12.66375 
" style="fill: none; stroke: #000000; stroke-width: 0.6; stroke-linejoin: miter; stroke-linecap: square"/>
   </g>
   <g id="patch_4">
    <path d="M 59.401219 208.50375 
L 505.801219 208.50375 
" style="fill: none; stroke: #000000; stroke-width: 0.6; stroke-linejoin: miter; stroke-linecap: square"/>
   </g>
  </g>
 </g>
 <defs>
  <clipPath id="pb0ba3282d8">
   <rect x="59.401219" y="12.66375" width="446.4" height="195.84"/>
  </clipPath>
 </defs>
</svg>
