<?xml version="1.0" encoding="utf-8" standalone="no"?>
<!DOCTYPE svg PUBLIC "-//W3C//DTD SVG 1.1//EN"
  "http://www.w3.org/Graphics/SVG/1.1/DTD/svg11.dtd">
<svg xmlns:xlink="http://www.w3.org/1999/xlink" width="492.546328pt" height="362.061pt" viewBox="0 0 492.546328 362.061" xmlns="http://www.w3.org/2000/svg" version="1.1">
 <metadata>
  <rdf:RDF xmlns:dc="http://purl.org/dc/elements/1.1/" xmlns:cc="http://creativecommons.org/ns#" xmlns:rdf="http://www.w3.org/1999/02/22-rdf-syntax-ns#">
   <cc:Work>
    <dc:type rdf:resource="http://purl.org/dc/dcmitype/StillImage"/>
    <dc:date>2026-04-12T14:52:20.280300</dc:date>
    <dc:format>image/svg+xml</dc:format>
    <dc:creator>
     <cc:Agent>
      <dc:title>Matplotlib v3.10.8, https://matplotlib.org/</dc:title>
     </cc:Agent>
    </dc:creator>
   </cc:Work>
  </rdf:RDF>
 </metadata>
 <defs>
  <style type="text/css">*{stroke-linejoin: round; stroke-linecap: butt}</style>
 </defs>
 <g id="figure_1">
  <g id="patch_1">
   <path d="M 0 362.061 
L 492.546328 362.061 
L 492.546328 0 
L 0 0 
z
" style="fill: #ffffff"/>
  </g>
  <g id="axes_1">
   <g id="patch_2">
    <path d="M 19.64 142.316833 
L 439.306328 142.316833 
L 439.306328 71.4975 
L 19.64 71.4975 
z
" style="fill: #ffffff"/>
   </g>
   <g id="matplotlib.axis_1">
    <g id="xtick_1">
     <g id="line2d_1">
      <defs>
       <path id="m8998f5d4b0" d="M 0 0 
L 0 3.5 
" style="stroke: #323034; stroke-width: 0.8"/>
      </defs>
      <g>
       <use xlink:href="#m8998f5d4b0" x="19.64" y="142.316833" style="fill: #323034; stroke: #323034; stroke-width: 0.8"/>
      </g>
     </g>
    </g>
    <g id="xtick_2">
     <g id="line2d_2">
      <g>
       <use xlink:href="#m8998f5d4b0" x="60.783758" y="142.316833" style="fill: #323034; stroke: #323034; stroke-width: 0.8"/>
      </g>
     </g>
    </g>
    <g id="xtick_3">
     <g id="line2d_3">
      <g>
       <use xlink:href="#m8998f5d4b0" x="103.298974" y="142.316833" style="fill: #323034; stroke: #323034; stroke-width: 0.8"/>
      </g>
     </g>
    </g>
    <g id="xtick_4">
     <g id="line2d_4">
      <g>
       <use xlink:href="#m8998f5d4b0" x="144.442732" y="142.316833" style="fill: #323034; stroke: #323034; stroke-width: 0.8"/>
      </g>
     </g>
    </g>
    <g id="xtick_5">
     <g id="line2d_5">
      <g>
       <use xlink:href="#m8998f5d4b0" x="186.957948" y="142.316833" style="fill: #323034; stroke: #323034; stroke-width: 0.8"/>
      </g>
     </g>
    </g>
    <g id="xtick_6">
     <g id="line2d_6">
      <g>
       <use xlink:href="#m8998f5d4b0" x="229.473164" y="142.316833" style="fill: #323034; stroke: #323034; stroke-width: 0.8"/>
      </g>
     </g>
    </g>
    <g id="xtick_7">
     <g id="line2d_7">
      <g>
       <use xlink:href="#m8998f5d4b0" x="270.616922" y="142.316833" style="fill: #323034; stroke: #323034; stroke-width: 0.8"/>
      </g>
     </g>
    </g>
    <g id="xtick_8">
     <g id="line2d_8">
      <g>
       <use xlink:href="#m8998f5d4b0" x="313.132138" y="142.316833" style="fill: #323034; stroke: #323034; stroke-width: 0.8"/>
      </g>
     </g>
    </g>
    <g id="xtick_9">
     <g id="line2d_9">
      <g>
       <use xlink:href="#m8998f5d4b0" x="354.275896" y="142.316833" style="fill: #323034; stroke: #323034; stroke-width: 0.8"/>
      </g>
     </g>
    </g>
    <g id="xtick_10">
     <g id="line2d_10">
      <g>
       <use xlink:href="#m8998f5d4b0" x="396.791112" y="142.316833" style="fill: #323034; stroke: #323034; stroke-width: 0.8"/>
      </g>
     </g>
    </g>
    <g id="xtick_11">
     <g id="line2d_11">
      <g>
       <use xlink:href="#m8998f5d4b0" x="439.306328" y="142.316833" style="fill: #323034; stroke: #323034; stroke-width: 0.8"/>
      </g>
     </g>
    </g>
   </g>
   <g id="matplotlib.axis_2">
    <g id="ytick_1">
     <g id="line2d_12">
      <defs>
       <path id="mef5a43df4d" d="M 0 0 
L 3.5 0 
" style="stroke: #323034; stroke-width: 0.8"/>
      </defs>
      <g>
       <use xlink:href="#mef5a43df4d" x="439.306328" y="124.612" style="fill: #323034; stroke: #323034; stroke-width: 0.8"/>
      </g>
     </g>
     <g id="text_1">
      <!-- $\mathdefault{10.0}$ -->
      <g style="fill: #323034" transform="translate(446.306328 130.07575) scale(0.16 -0.16)">
       <defs>
        <path id="STIXGeneral-Regular-31" d="M 2522 0 
L 755 0 
L 755 96 
Q 1107 115 1235 227 
Q 1363 339 1363 608 
L 1363 3482 
Q 1363 3795 1171 3795 
Q 1082 3795 883 3718 
L 710 3654 
L 710 3744 
L 1856 4326 
L 1914 4307 
L 1914 486 
Q 1914 275 2042 185 
Q 2170 96 2522 96 
L 2522 0 
z
" transform="scale(0.015625)"/>
        <path id="STIXGeneral-Regular-30" d="M 3046 2112 
Q 3046 1683 2963 1302 
Q 2880 922 2717 602 
Q 2554 282 2266 96 
Q 1978 -90 1600 -90 
Q 1210 -90 915 108 
Q 621 307 461 640 
Q 301 973 227 1350 
Q 154 1728 154 2150 
Q 154 2746 301 3222 
Q 448 3699 790 4012 
Q 1133 4326 1626 4326 
Q 2253 4326 2649 3712 
Q 3046 3098 3046 2112 
z
M 2432 2080 
Q 2432 3091 2217 3625 
Q 2003 4160 1587 4160 
Q 1190 4160 979 3622 
Q 768 3085 768 2106 
Q 768 1120 979 598 
Q 1190 77 1600 77 
Q 2003 77 2217 598 
Q 2432 1120 2432 2080 
z
" transform="scale(0.015625)"/>
        <path id="STIXGeneral-Regular-2e" d="M 1158 275 
Q 1158 134 1052 32 
Q 947 -70 800 -70 
Q 653 -70 550 32 
Q 448 134 448 281 
Q 448 429 553 534 
Q 659 640 806 640 
Q 947 640 1052 531 
Q 1158 422 1158 275 
z
" transform="scale(0.015625)"/>
       </defs>
       <use xlink:href="#STIXGeneral-Regular-31" transform="translate(0 0.40625)"/>
       <use xlink:href="#STIXGeneral-Regular-30" transform="translate(49.999985 0.40625)"/>
       <use xlink:href="#STIXGeneral-Regular-2e" transform="translate(99.999969 0.40625)"/>
       <use xlink:href="#STIXGeneral-Regular-30" transform="translate(124.999954 0.40625)"/>
      </g>
     </g>
    </g>
    <g id="ytick_2">
     <g id="line2d_13">
      <g>
       <use xlink:href="#mef5a43df4d" x="439.306328" y="80.349917" style="fill: #323034; stroke: #323034; stroke-width: 0.8"/>
      </g>
     </g>
     <g id="text_2">
      <!-- $\mathdefault{12.5}$ -->
      <g style="fill: #323034" transform="translate(446.306328 85.813667) scale(0.16 -0.16)">
       <defs>
        <path id="STIXGeneral-Regular-32" d="M 3034 877 
L 2688 0 
L 186 0 
L 186 77 
L 1325 1286 
Q 1773 1754 1965 2144 
Q 2157 2534 2157 2950 
Q 2157 3379 1920 3616 
Q 1683 3853 1267 3853 
Q 922 3853 720 3673 
Q 518 3494 326 3021 
L 192 3053 
Q 301 3648 630 3987 
Q 960 4326 1523 4326 
Q 2054 4326 2380 4006 
Q 2707 3686 2707 3200 
Q 2707 2477 1888 1613 
L 832 486 
L 2330 486 
Q 2541 486 2665 569 
Q 2790 653 2944 915 
L 3034 877 
z
" transform="scale(0.015625)"/>
        <path id="STIXGeneral-Regular-35" d="M 2803 4358 
L 2573 3814 
Q 2534 3731 2400 3731 
L 1158 3731 
L 902 3187 
Q 1606 3053 1920 2896 
Q 2234 2739 2502 2368 
Q 2726 2061 2726 1555 
Q 2726 1094 2576 780 
Q 2426 467 2099 224 
Q 1664 -90 1011 -90 
Q 646 -90 422 19 
Q 198 128 198 307 
Q 198 550 486 550 
Q 717 550 960 352 
Q 1210 147 1414 147 
Q 1747 147 2012 480 
Q 2278 813 2278 1229 
Q 2278 1843 1850 2189 
Q 1293 2637 486 2637 
Q 410 2637 410 2688 
L 416 2720 
L 1114 4237 
L 2438 4237 
Q 2547 4237 2608 4269 
Q 2669 4301 2746 4403 
L 2803 4358 
z
" transform="scale(0.015625)"/>
       </defs>
       <use xlink:href="#STIXGeneral-Regular-31" transform="translate(0 0.203125)"/>
       <use xlink:href="#STIXGeneral-Regular-32" transform="translate(49.999985 0.203125)"/>
       <use xlink:href="#STIXGeneral-Regular-2e" transform="translate(99.999969 0.203125)"/>
       <use xlink:href="#STIXGeneral-Regular-35" transform="translate(124.999954 0.203125)"/>
      </g>
     </g>
    </g>
    <g id="ytick_3">
     <g id="line2d_14">
      <defs>
       <path id="m813dcae4aa" d="M 0 0 
L 2 0 
" style="stroke: #323034; stroke-width: 0.6"/>
      </defs>
      <g>
       <use xlink:href="#m813dcae4aa" x="439.306328" y="102.480958" style="fill: #323034; stroke: #323034; stroke-width: 0.6"/>
      </g>
     </g>
    </g>
   </g>
   <g id="line2d_15">
    <path d="M 19.64 120.026019 
L 23.754376 119.208185 
L 26.497293 118.850253 
L 29.24021 118.756723 
L 31.983127 118.899877 
L 41.583337 119.713261 
L 45.697713 119.698165 
L 51.183548 119.624037 
L 53.926465 119.823596 
L 59.412299 120.554937 
L 63.526675 121.334749 
L 73.126885 123.56558 
L 75.869802 123.941608 
L 79.984178 124.20661 
L 86.841471 124.571194 
L 95.070222 125.206315 
L 97.81314 125.211232 
L 104.670432 125.078474 
L 111.527725 125.208293 
L 114.270643 125.08359 
L 117.01356 124.699896 
L 119.756477 124.034814 
L 122.499394 123.067959 
L 125.242311 121.782441 
L 127.985229 120.231984 
L 138.956897 113.460166 
L 141.699814 112.076882 
L 144.442732 110.906182 
L 148.557107 109.479333 
L 158.157317 106.450499 
L 160.900235 105.761583 
L 163.643152 105.301513 
L 166.386069 105.065379 
L 170.500445 104.969449 
L 174.614821 105.169705 
L 178.729196 105.620426 
L 182.843572 106.31604 
L 192.443782 108.341984 
L 202.043992 109.802376 
L 206.158368 110.837608 
L 210.272744 111.943572 
L 213.015661 112.518573 
L 215.758578 112.92399 
L 219.872954 113.285925 
L 225.358788 113.77454 
L 229.473164 114.395372 
L 237.701916 115.962536 
L 239.073374 116.02961 
L 241.816291 115.797569 
L 244.559209 115.250483 
L 252.78796 113.362914 
L 255.530877 112.93448 
L 258.273794 112.721874 
L 267.874005 112.323057 
L 270.616922 111.917913 
L 274.731297 111.03271 
L 280.217132 109.835833 
L 287.074425 108.361219 
L 292.560259 106.954596 
L 296.674635 105.6429 
L 306.274845 102.169626 
L 310.389221 100.475099 
L 313.132138 99.152798 
L 317.246514 96.839942 
L 324.103807 92.798171 
L 326.846724 91.398402 
L 329.589641 90.241352 
L 332.332558 89.385013 
L 335.075475 88.846803 
L 337.818393 88.610705 
L 340.56131 88.633383 
L 347.418603 88.982356 
L 348.790061 88.848256 
L 351.532978 88.250616 
L 354.275896 87.328353 
L 359.76173 85.409347 
L 362.504647 84.684446 
L 365.247564 84.187473 
L 367.990482 83.934486 
L 370.733399 83.931963 
L 373.476316 84.129844 
L 376.219233 84.531789 
L 378.96215 85.15074 
L 384.447985 86.565504 
L 385.819443 86.81591 
L 387.190902 86.933812 
L 388.56236 86.867372 
L 389.933819 86.656707 
L 392.676736 85.908086 
L 395.419653 84.900821 
L 400.905488 82.723819 
L 403.648405 82.067096 
L 405.019863 81.912862 
L 406.391322 81.889636 
L 407.762781 82.001538 
L 410.505698 82.573538 
L 413.248615 83.507359 
L 417.362991 85.288399 
L 421.477366 87.057343 
L 425.591742 88.514283 
L 429.706118 89.768173 
L 436.563411 91.558191 
L 439.306328 92.196955 
L 439.306328 92.196955 
" clip-path="url(#p69d3ec3d38)" style="fill: none; stroke-dasharray: 3.7,1.6; stroke-dashoffset: 0; stroke: #000000"/>
   </g>
   <g id="line2d_16">
    <path d="M 19.64 121.053396 
L 21.011459 119.309853 
L 23.754376 116.362824 
L 25.125834 121.939058 
L 26.497293 118.609546 
L 27.868752 118.944269 
L 29.24021 118.099272 
L 30.611669 116.565753 
L 31.983127 117.202626 
L 33.354586 118.155 
L 34.726044 120.913912 
L 36.097503 121.833625 
L 37.468962 121.211225 
L 38.84042 119.12258 
L 40.211879 118.214824 
L 41.583337 118.273165 
L 44.326255 122.135047 
L 45.697713 120.750296 
L 47.069172 122.009698 
L 48.44063 119.845744 
L 49.812089 117.043082 
L 51.183548 115.553347 
L 52.555006 116.714859 
L 53.926465 121.182063 
L 55.297923 123.695275 
L 56.669382 122.617482 
L 58.04084 121.301668 
L 59.412299 118.932601 
L 60.783758 116.941681 
L 62.155216 119.455223 
L 63.526675 121.580543 
L 64.898133 124.663893 
L 66.269592 123.310241 
L 67.641051 122.721923 
L 69.012509 120.065099 
L 70.383968 120.587538 
L 71.755426 122.463747 
L 73.126885 126.042316 
L 74.498344 128.562893 
L 75.869802 124.393488 
L 77.241261 125.335088 
L 78.612719 121.03237 
L 79.984178 121.514966 
L 81.355636 123.346124 
L 82.727095 127.215835 
L 84.098554 124.773061 
L 85.470012 125.476317 
L 86.841471 123.792472 
L 88.212929 121.858376 
L 89.584388 123.241666 
L 90.955847 124.418912 
L 92.327305 126.293316 
L 93.698764 127.135937 
L 96.441681 127.469047 
L 97.81314 124.225968 
L 99.184598 122.69305 
L 100.556057 123.543282 
L 101.927515 125.768206 
L 103.298974 124.716371 
L 104.670432 125.634003 
L 106.041891 126.332249 
L 107.41335 124.945045 
L 108.784808 119.920822 
L 110.156267 124.222822 
L 111.527725 127.590365 
L 112.899184 127.983683 
L 114.270643 127.411522 
L 115.642101 123.96057 
L 117.01356 123.691459 
L 118.385018 122.024276 
L 119.756477 122.135047 
L 121.127936 127.10815 
L 122.499394 126.217465 
L 123.870853 122.451648 
L 125.242311 121.912123 
L 127.985229 118.655419 
L 129.356687 117.985574 
L 130.728146 121.419402 
L 133.471063 116.382507 
L 134.842521 115.434242 
L 137.585439 111.756825 
L 140.328356 114.267801 
L 141.699814 114.27318 
L 143.071273 110.677804 
L 144.442732 110.106817 
L 145.81419 108.231474 
L 147.185649 107.730359 
L 148.557107 110.095838 
L 149.928566 112.055262 
L 151.300025 111.074817 
L 152.671483 108.70786 
L 154.042942 107.031543 
L 155.4144 106.902774 
L 156.785859 104.594992 
L 158.157317 106.658504 
L 159.528776 107.529836 
L 162.271693 105.289627 
L 163.643152 104.565175 
L 165.01461 102.757832 
L 166.386069 103.908852 
L 167.757528 106.161129 
L 169.128986 106.211095 
L 170.500445 106.903069 
L 171.871903 105.377557 
L 173.243362 104.206914 
L 174.614821 104.13926 
L 175.986279 103.270934 
L 177.357738 104.975587 
L 178.729196 108.664375 
L 180.100655 107.113325 
L 182.843572 104.973996 
L 184.215031 104.408875 
L 185.586489 104.372962 
L 186.957948 107.831634 
L 188.329406 109.819018 
L 189.700865 111.012066 
L 191.072324 108.883869 
L 192.443782 108.826433 
L 195.186699 106.531831 
L 196.558158 108.333422 
L 197.929617 110.64454 
L 199.301075 111.128407 
L 200.672534 108.947464 
L 202.043992 108.644466 
L 203.415451 108.715391 
L 204.786909 107.024993 
L 206.158368 109.836804 
L 207.529827 113.127202 
L 208.901285 115.18047 
L 210.272744 112.67258 
L 211.644202 112.762904 
L 214.38712 110.449867 
L 215.758578 111.953126 
L 217.130037 117.816112 
L 218.501495 113.87076 
L 219.872954 114.437559 
L 221.244413 111.905611 
L 223.98733 111.358463 
L 225.358788 112.11786 
L 226.730247 117.225914 
L 228.101705 115.67617 
L 229.473164 112.341525 
L 230.844623 117.755435 
L 232.216081 111.422075 
L 233.58754 109.369211 
L 234.958998 113.078529 
L 236.330457 119.143225 
L 237.701916 122.252846 
L 241.816291 114.928423 
L 243.18775 110.981146 
L 244.559209 114.449779 
L 245.930667 117.271521 
L 247.302126 115.483132 
L 248.673584 114.398691 
L 250.045043 114.375681 
L 251.416501 111.841804 
L 252.78796 110.496524 
L 254.159419 113.264711 
L 255.530877 115.739851 
L 256.902336 108.425969 
L 258.273794 115.242862 
L 259.645253 113.376004 
L 261.016712 111.883272 
L 262.38817 108.545906 
L 263.759629 112.894285 
L 265.131087 115.286953 
L 266.502546 115.257547 
L 267.874005 112.483574 
L 269.245463 113.160427 
L 270.616922 111.414063 
L 271.98838 108.873622 
L 273.359839 110.902413 
L 274.731297 116.380992 
L 276.102756 106.171905 
L 277.474215 112.825168 
L 278.845673 109.060643 
L 280.217132 107.971134 
L 281.58859 107.178963 
L 284.331508 112.048936 
L 285.702966 110.814808 
L 287.074425 108.606994 
L 289.817342 105.356956 
L 291.188801 104.023807 
L 292.560259 109.14634 
L 293.931718 110.864287 
L 295.303176 105.333402 
L 296.674635 106.695573 
L 298.046093 105.661903 
L 299.417552 102.888608 
L 300.789011 100.641522 
L 302.160469 102.093935 
L 303.531928 106.954288 
L 304.903386 103.004932 
L 306.274845 103.064572 
L 310.389221 97.849293 
L 311.760679 100.869228 
L 313.132138 103.110329 
L 314.503597 98.92027 
L 315.875055 99.222288 
L 317.246514 96.450542 
L 318.617972 94.400013 
L 319.989431 92.800439 
L 321.36089 93.74381 
L 322.732348 97.247139 
L 324.103807 93.120425 
L 325.475265 91.908729 
L 326.846724 91.488512 
L 328.218182 89.105109 
L 329.589641 87.272703 
L 330.9611 89.611899 
L 332.332558 92.488228 
L 333.704017 88.79284 
L 335.075475 89.325006 
L 336.446934 88.195347 
L 337.818393 86.69574 
L 339.189851 85.655147 
L 340.56131 88.231044 
L 341.932768 91.768594 
L 343.304227 87.456363 
L 344.675686 87.631193 
L 346.047144 87.361304 
L 347.418603 97.303605 
L 348.790061 85.044361 
L 350.16152 90.4818 
L 351.532978 92.366066 
L 352.904437 88.676828 
L 355.647354 85.450404 
L 357.018813 84.049381 
L 358.390271 82.974396 
L 359.76173 85.055632 
L 361.133189 88.232279 
L 362.504647 85.157917 
L 363.876106 83.889432 
L 365.247564 83.889271 
L 366.619023 83.411801 
L 367.990482 79.595655 
L 369.36194 84.899336 
L 370.733399 87.009049 
L 372.104857 85.47568 
L 373.476316 85.276912 
L 374.847774 81.973324 
L 376.219233 82.495698 
L 377.590692 81.519057 
L 378.96215 86.101799 
L 380.333609 87.427998 
L 381.705067 85.419979 
L 383.076526 85.409527 
L 384.447985 83.252431 
L 385.819443 86.13781 
L 387.190902 97.661837 
L 388.56236 84.120836 
L 389.933819 90.402346 
L 391.305278 86.554483 
L 392.676736 85.462906 
L 394.048195 83.160478 
L 395.419653 83.00074 
L 396.791112 90.975056 
L 398.16257 78.87736 
L 399.534029 85.396976 
L 400.905488 81.474005 
L 402.276946 82.69742 
L 405.019863 79.57556 
L 406.391322 78.329363 
L 409.134239 84.834363 
L 410.505698 83.365271 
L 411.877156 83.08116 
L 413.248615 83.131426 
L 414.620074 82.361176 
L 415.991532 82.336726 
L 418.734449 88.421435 
L 420.105908 91.726016 
L 421.477366 86.749074 
L 422.848825 86.887507 
L 424.220284 86.417133 
L 425.591742 86.316756 
L 426.963201 88.649498 
L 428.334659 93.224972 
L 429.706118 89.887567 
L 431.077577 90.57207 
L 432.449035 89.978941 
L 433.820494 88.834131 
L 435.191952 89.001123 
L 436.563411 92.670685 
L 437.93487 95.499862 
L 439.306328 91.666403 
L 439.306328 91.666403 
" clip-path="url(#p69d3ec3d38)" style="fill: none; stroke: #bc80bd; stroke-opacity: 0.7; stroke-width: 3; stroke-linecap: square"/>
   </g>
   <g id="patch_3">
    <path d="M 439.306328 142.316833 
L 439.306328 71.4975 
" style="fill: none; stroke: #000000; stroke-width: 0.6; stroke-linejoin: miter; stroke-linecap: square"/>
   </g>
   <g id="patch_4">
    <path d="M 19.64 142.316833 
L 439.306328 142.316833 
" style="fill: none; stroke: #000000; stroke-width: 0.6; stroke-linejoin: miter; stroke-linecap: square"/>
   </g>
   <g id="text_3">
    <!-- log new cases -->
    <g style="fill: #323034" transform="translate(333.773203 65.4975) scale(0.19 -0.19)">
     <defs>
      <path id="STIXGeneral-Regular-6c" d="M 1645 0 
L 134 0 
L 134 96 
Q 435 122 531 221 
Q 627 320 627 589 
L 627 3590 
Q 627 3821 569 3910 
Q 512 4000 358 4000 
Q 224 4000 122 3987 
L 122 4090 
Q 730 4237 1133 4371 
L 1165 4346 
L 1165 557 
Q 1165 288 1254 201 
Q 1344 115 1645 96 
L 1645 0 
z
" transform="scale(0.015625)"/>
      <path id="STIXGeneral-Regular-6f" d="M 3008 1478 
Q 3008 806 2608 371 
Q 2208 -64 1568 -64 
Q 979 -64 582 368 
Q 186 800 186 1459 
Q 186 2125 582 2534 
Q 979 2944 1626 2944 
Q 2221 2944 2614 2537 
Q 3008 2131 3008 1478 
z
M 2432 1306 
Q 2432 2035 2112 2445 
Q 1856 2765 1504 2765 
Q 1171 2765 966 2493 
Q 762 2221 762 1747 
Q 762 928 1101 435 
Q 1318 115 1677 115 
Q 2029 115 2230 432 
Q 2432 749 2432 1306 
z
" transform="scale(0.015625)"/>
      <path id="STIXGeneral-Regular-67" d="M 3008 2483 
L 2477 2483 
Q 2598 2208 2598 1946 
Q 2598 1453 2265 1203 
Q 1933 954 1600 954 
Q 1530 954 1357 973 
L 1235 986 
Q 1107 947 979 812 
Q 851 678 851 582 
Q 851 435 1350 410 
L 2176 371 
Q 2528 358 2739 172 
Q 2950 -13 2950 -314 
Q 2950 -685 2566 -986 
Q 2035 -1395 1286 -1395 
Q 826 -1395 502 -1212 
Q 179 -1030 179 -774 
Q 179 -595 320 -419 
Q 461 -243 806 6 
Q 602 102 534 172 
Q 467 243 467 346 
Q 467 531 762 787 
Q 909 915 1037 1043 
Q 717 1203 579 1401 
Q 442 1600 442 1901 
Q 442 2336 752 2640 
Q 1062 2944 1510 2944 
Q 1766 2944 2022 2848 
L 2163 2797 
Q 2349 2733 2515 2733 
L 3008 2733 
L 3008 2483 
z
M 973 2163 
L 973 2144 
Q 973 1683 1155 1398 
Q 1338 1114 1632 1114 
Q 1850 1114 1978 1270 
Q 2106 1427 2106 1690 
Q 2106 2112 1914 2464 
Q 1754 2765 1446 2765 
Q 1222 2765 1097 2605 
Q 973 2445 973 2163 
z
M 2771 -410 
Q 2771 -230 2595 -163 
Q 2419 -96 1978 -96 
Q 1344 -96 941 -13 
Q 749 -243 688 -348 
Q 627 -454 627 -563 
Q 627 -774 880 -902 
Q 1133 -1030 1555 -1030 
Q 2099 -1030 2435 -860 
Q 2771 -691 2771 -410 
z
" transform="scale(0.015625)"/>
      <path id="STIXGeneral-Regular-20" transform="scale(0.015625)"/>
      <path id="STIXGeneral-Regular-6e" d="M 3104 0 
L 1773 0 
L 1779 96 
Q 2016 115 2096 233 
Q 2176 352 2176 672 
L 2176 1946 
Q 2176 2592 1709 2592 
Q 1549 2592 1408 2515 
Q 1267 2438 1050 2227 
L 1050 461 
Q 1050 269 1136 192 
Q 1222 115 1466 96 
L 1466 0 
L 115 0 
L 115 96 
Q 358 115 435 214 
Q 512 314 512 602 
L 512 2157 
Q 512 2394 467 2483 
Q 422 2573 288 2573 
Q 160 2573 102 2547 
L 102 2656 
Q 550 2784 979 2944 
L 1030 2925 
L 1030 2426 
L 1037 2426 
Q 1491 2944 1958 2944 
Q 2323 2944 2518 2688 
Q 2714 2432 2714 1958 
L 2714 544 
Q 2714 288 2790 205 
Q 2867 122 3104 96 
L 3104 0 
z
" transform="scale(0.015625)"/>
      <path id="STIXGeneral-Regular-65" d="M 2611 1050 
L 2714 1005 
Q 2330 -64 1376 -64 
Q 813 -64 486 329 
Q 160 723 160 1389 
Q 160 2074 525 2509 
Q 890 2944 1485 2944 
Q 2061 2944 2374 2502 
Q 2560 2246 2592 1773 
L 621 1773 
Q 646 1370 700 1158 
Q 755 947 915 730 
Q 1184 378 1626 378 
Q 1939 378 2153 531 
Q 2368 685 2611 1050 
z
M 634 1978 
L 1939 1978 
Q 1882 2381 1750 2547 
Q 1619 2714 1312 2714 
Q 1043 2714 864 2525 
Q 685 2336 634 1978 
z
" transform="scale(0.015625)"/>
      <path id="STIXGeneral-Regular-77" d="M 4442 2880 
L 4442 2784 
Q 4346 2752 4301 2691 
Q 4256 2630 4179 2438 
L 3296 224 
Q 3168 -90 3117 -90 
Q 3085 -90 3062 -48 
Q 3040 -6 2963 186 
L 2381 1696 
L 1664 160 
Q 1549 -90 1504 -90 
Q 1446 -90 1338 192 
L 474 2381 
Q 378 2630 314 2700 
Q 250 2771 134 2784 
L 134 2880 
L 1286 2880 
L 1286 2784 
Q 1120 2765 1056 2720 
Q 992 2675 992 2573 
Q 992 2477 1030 2381 
L 1664 710 
L 2246 1984 
L 2118 2342 
Q 2029 2598 1942 2681 
Q 1856 2765 1677 2784 
L 1677 2880 
L 2976 2880 
L 2976 2784 
Q 2752 2752 2678 2707 
Q 2605 2662 2605 2560 
Q 2605 2458 2714 2176 
L 3251 742 
L 3827 2163 
Q 3936 2432 3936 2592 
Q 3936 2669 3875 2710 
Q 3814 2752 3654 2784 
L 3654 2880 
L 4442 2880 
z
" transform="scale(0.015625)"/>
      <path id="STIXGeneral-Regular-63" d="M 2547 998 
L 2637 941 
Q 2362 403 2112 205 
Q 1786 -64 1376 -64 
Q 845 -64 502 336 
Q 160 736 160 1357 
Q 160 2170 698 2618 
Q 1094 2944 1562 2944 
Q 1965 2944 2256 2749 
Q 2547 2554 2547 2285 
Q 2547 2176 2457 2096 
Q 2368 2016 2246 2016 
Q 2022 2016 1939 2310 
L 1901 2451 
Q 1850 2630 1773 2694 
Q 1696 2758 1523 2758 
Q 1133 2758 893 2451 
Q 653 2144 653 1645 
Q 653 1094 928 745 
Q 1203 397 1645 397 
Q 1920 397 2118 528 
Q 2317 659 2547 998 
z
" transform="scale(0.015625)"/>
      <path id="STIXGeneral-Regular-61" d="M 2829 422 
L 2829 243 
Q 2586 -64 2253 -64 
Q 1888 -64 1843 403 
L 1837 403 
Q 1427 -64 909 -64 
Q 608 -64 422 112 
Q 237 288 237 602 
Q 237 1050 685 1350 
Q 992 1555 1837 1869 
L 1837 2214 
Q 1837 2502 1699 2646 
Q 1562 2790 1338 2790 
Q 1146 2790 1018 2697 
Q 890 2605 890 2477 
Q 890 2419 909 2348 
Q 928 2278 928 2208 
Q 928 2112 841 2029 
Q 755 1946 634 1946 
Q 525 1946 441 2029 
Q 358 2112 358 2240 
Q 358 2547 685 2752 
Q 986 2944 1421 2944 
Q 1939 2944 2176 2656 
Q 2291 2522 2323 2384 
Q 2355 2246 2355 1946 
L 2355 723 
Q 2355 301 2554 301 
Q 2682 301 2829 422 
z
M 1837 813 
L 1837 1715 
Q 1248 1510 1018 1293 
Q 800 1094 800 800 
Q 800 557 921 432 
Q 1043 307 1242 307 
Q 1453 307 1613 410 
Q 1747 506 1792 589 
Q 1837 672 1837 813 
z
" transform="scale(0.015625)"/>
      <path id="STIXGeneral-Regular-73" d="M 998 1926 
L 1664 1523 
Q 1984 1331 2105 1164 
Q 2227 998 2227 736 
Q 2227 416 1961 176 
Q 1696 -64 1331 -64 
Q 1030 -64 864 -6 
Q 691 51 570 51 
Q 461 51 416 -26 
L 333 -26 
L 333 979 
L 435 979 
Q 538 512 730 294 
Q 922 77 1248 77 
Q 1485 77 1632 211 
Q 1779 346 1779 550 
Q 1779 845 1440 1030 
L 1094 1222 
Q 326 1651 326 2150 
Q 326 2522 566 2730 
Q 806 2938 1210 2938 
Q 1491 2938 1638 2867 
Q 1754 2816 1818 2816 
Q 1862 2816 1920 2880 
L 1990 2880 
L 2022 2010 
L 1926 2010 
Q 1818 2445 1654 2621 
Q 1491 2797 1203 2797 
Q 986 2797 854 2688 
Q 723 2579 723 2362 
Q 723 2253 796 2128 
Q 870 2003 998 1926 
z
" transform="scale(0.015625)"/>
     </defs>
     <use xlink:href="#STIXGeneral-Regular-6c"/>
     <use xlink:href="#STIXGeneral-Regular-6f" transform="translate(27.799988 0)"/>
     <use xlink:href="#STIXGeneral-Regular-67" transform="translate(77.799973 0)"/>
     <use xlink:href="#STIXGeneral-Regular-20" transform="translate(127.799957 0)"/>
     <use xlink:href="#STIXGeneral-Regular-6e" transform="translate(152.799942 0)"/>
     <use xlink:href="#STIXGeneral-Regular-65" transform="translate(202.799927 0)"/>
     <use xlink:href="#STIXGeneral-Regular-77" transform="translate(247.199921 0)"/>
     <use xlink:href="#STIXGeneral-Regular-20" transform="translate(319.399902 0)"/>
     <use xlink:href="#STIXGeneral-Regular-63" transform="translate(344.399887 0)"/>
     <use xlink:href="#STIXGeneral-Regular-61" transform="translate(388.799881 0)"/>
     <use xlink:href="#STIXGeneral-Regular-73" transform="translate(433.199875 0)"/>
     <use xlink:href="#STIXGeneral-Regular-65" transform="translate(472.099869 0)"/>
     <use xlink:href="#STIXGeneral-Regular-73" transform="translate(516.499863 0)"/>
    </g>
   </g>
   <g id="legend_1">
    <g id="patch_5">
     <path d="M 28.04 109.1175 
L 101.635625 109.1175 
Q 104.035625 109.1175 104.035625 106.7175 
L 104.035625 79.8975 
Q 104.035625 77.4975 101.635625 77.4975 
L 28.04 77.4975 
Q 25.64 77.4975 25.64 79.8975 
L 25.64 106.7175 
Q 25.64 109.1175 28.04 109.1175 
z
" style="fill: #ffffff; opacity: 0.8; stroke: #e6e6e6; stroke-width: 0.8; stroke-linejoin: miter"/>
    </g>
    <g id="line2d_17">
     <path d="M 28.04 84.0975 
L 40.04 84.0975 
L 52.04 84.0975 
" style="fill: none; stroke-dasharray: 3.7,1.6; stroke-dashoffset: 0; stroke: #000000"/>
    </g>
    <g id="text_4">
     <!-- Trend -->
     <g style="fill: #323034" transform="translate(61.64 88.2975) scale(0.12 -0.12)">
      <defs>
       <path id="STIXGeneral-Regular-54" d="M 3795 3149 
L 3642 3149 
Q 3539 3674 3353 3821 
Q 3168 3968 2656 3968 
L 2278 3968 
L 2278 710 
Q 2278 346 2387 243 
Q 2496 141 2893 122 
L 2893 0 
L 1024 0 
L 1024 122 
Q 1427 147 1526 256 
Q 1626 365 1626 787 
L 1626 3968 
L 1242 3968 
Q 723 3968 540 3817 
Q 358 3667 262 3149 
L 109 3149 
L 154 4237 
L 3750 4237 
L 3795 3149 
z
" transform="scale(0.015625)"/>
       <path id="STIXGeneral-Regular-72" d="M 1024 2931 
L 1024 2342 
Q 1267 2688 1430 2816 
Q 1594 2944 1792 2944 
Q 1958 2944 2051 2854 
Q 2144 2765 2144 2605 
Q 2144 2470 2077 2393 
Q 2010 2317 1894 2317 
Q 1773 2317 1638 2445 
Q 1536 2541 1472 2541 
Q 1338 2541 1181 2355 
Q 1024 2170 1024 2016 
L 1024 576 
Q 1024 301 1133 205 
Q 1242 109 1568 96 
L 1568 0 
L 32 0 
L 32 96 
Q 339 154 412 224 
Q 486 294 486 538 
L 486 2138 
Q 486 2349 438 2435 
Q 390 2522 269 2522 
Q 166 2522 45 2496 
L 45 2598 
Q 448 2726 992 2944 
L 1024 2931 
z
" transform="scale(0.015625)"/>
       <path id="STIXGeneral-Regular-64" d="M 3142 269 
L 2202 -64 
L 2176 -45 
L 2176 365 
Q 1869 -64 1357 -64 
Q 826 -64 499 317 
Q 173 698 173 1312 
Q 173 1990 563 2467 
Q 954 2944 1504 2944 
Q 1850 2944 2176 2669 
L 2176 3667 
Q 2176 3866 2118 3930 
Q 2061 3994 1882 3994 
Q 1792 3994 1741 3987 
L 1741 4090 
Q 2323 4243 2682 4371 
L 2714 4358 
L 2714 730 
Q 2714 506 2768 435 
Q 2822 365 2995 365 
Q 3034 365 3142 371 
L 3142 269 
z
M 2176 653 
L 2176 2125 
Q 2176 2381 1981 2573 
Q 1786 2765 1523 2765 
Q 1158 2765 940 2438 
Q 723 2112 723 1568 
Q 723 979 963 624 
Q 1203 269 1606 269 
Q 1907 269 2080 474 
Q 2176 582 2176 653 
z
" transform="scale(0.015625)"/>
      </defs>
      <use xlink:href="#STIXGeneral-Regular-54"/>
      <use xlink:href="#STIXGeneral-Regular-72" transform="translate(61.099991 0)"/>
      <use xlink:href="#STIXGeneral-Regular-65" transform="translate(94.399979 0)"/>
      <use xlink:href="#STIXGeneral-Regular-6e" transform="translate(138.799973 0)"/>
      <use xlink:href="#STIXGeneral-Regular-64" transform="translate(188.799957 0)"/>
     </g>
    </g>
    <g id="line2d_18">
     <path d="M 28.04 99.901875 
L 40.04 99.901875 
L 52.04 99.901875 
" style="fill: none; stroke: #bc80bd; stroke-opacity: 0.7; stroke-width: 3; stroke-linecap: square"/>
    </g>
    <g id="text_5">
     <!-- Original -->
     <g style="fill: #323034" transform="translate(61.64 104.101875) scale(0.12 -0.12)">
      <defs>
       <path id="STIXGeneral-Regular-4f" d="M 4403 2118 
Q 4403 1133 3820 521 
Q 3238 -90 2310 -90 
Q 1376 -90 797 524 
Q 218 1139 218 2138 
Q 218 3110 797 3718 
Q 1376 4326 2310 4326 
Q 3245 4326 3824 3702 
Q 4403 3078 4403 2118 
z
M 3674 2157 
Q 3674 2701 3520 3133 
Q 3366 3565 3091 3795 
Q 2733 4096 2304 4096 
Q 1760 4096 1389 3667 
Q 1184 3437 1065 3011 
Q 947 2586 947 2125 
Q 947 960 1523 429 
Q 1837 141 2317 141 
Q 2816 141 3142 448 
Q 3674 960 3674 2157 
z
" transform="scale(0.015625)"/>
       <path id="STIXGeneral-Regular-69" d="M 1152 4045 
Q 1152 3904 1056 3811 
Q 960 3718 819 3718 
Q 685 3718 592 3811 
Q 499 3904 499 4045 
Q 499 4179 595 4275 
Q 691 4371 826 4371 
Q 966 4371 1059 4275 
Q 1152 4179 1152 4045 
z
M 1619 0 
L 102 0 
L 102 96 
Q 435 115 521 211 
Q 608 307 608 666 
L 608 2118 
Q 608 2342 563 2432 
Q 518 2522 397 2522 
Q 243 2522 128 2490 
L 128 2592 
L 1120 2944 
L 1146 2918 
L 1146 672 
Q 1146 314 1226 218 
Q 1306 122 1619 96 
L 1619 0 
z
" transform="scale(0.015625)"/>
      </defs>
      <use xlink:href="#STIXGeneral-Regular-4f"/>
      <use xlink:href="#STIXGeneral-Regular-72" transform="translate(72.199982 0)"/>
      <use xlink:href="#STIXGeneral-Regular-69" transform="translate(105.499969 0)"/>
      <use xlink:href="#STIXGeneral-Regular-67" transform="translate(133.299957 0)"/>
      <use xlink:href="#STIXGeneral-Regular-69" transform="translate(183.299942 0)"/>
      <use xlink:href="#STIXGeneral-Regular-6e" transform="translate(211.09993 0)"/>
      <use xlink:href="#STIXGeneral-Regular-61" transform="translate(261.099915 0)"/>
      <use xlink:href="#STIXGeneral-Regular-6c" transform="translate(305.499908 0)"/>
     </g>
    </g>
   </g>
  </g>
  <g id="axes_2">
   <g id="patch_6">
    <path d="M 19.64 229.596167 
L 439.306328 229.596167 
L 439.306328 158.776833 
L 19.64 158.776833 
z
" style="fill: #ffffff"/>
   </g>
   <g id="matplotlib.axis_3">
    <g id="xtick_12">
     <g id="line2d_19">
      <g>
       <use xlink:href="#m8998f5d4b0" x="19.64" y="229.596167" style="fill: #323034; stroke: #323034; stroke-width: 0.8"/>
      </g>
     </g>
    </g>
    <g id="xtick_13">
     <g id="line2d_20">
      <g>
       <use xlink:href="#m8998f5d4b0" x="60.783758" y="229.596167" style="fill: #323034; stroke: #323034; stroke-width: 0.8"/>
      </g>
     </g>
    </g>
    <g id="xtick_14">
     <g id="line2d_21">
      <g>
       <use xlink:href="#m8998f5d4b0" x="103.298974" y="229.596167" style="fill: #323034; stroke: #323034; stroke-width: 0.8"/>
      </g>
     </g>
    </g>
    <g id="xtick_15">
     <g id="line2d_22">
      <g>
       <use xlink:href="#m8998f5d4b0" x="144.442732" y="229.596167" style="fill: #323034; stroke: #323034; stroke-width: 0.8"/>
      </g>
     </g>
    </g>
    <g id="xtick_16">
     <g id="line2d_23">
      <g>
       <use xlink:href="#m8998f5d4b0" x="186.957948" y="229.596167" style="fill: #323034; stroke: #323034; stroke-width: 0.8"/>
      </g>
     </g>
    </g>
    <g id="xtick_17">
     <g id="line2d_24">
      <g>
       <use xlink:href="#m8998f5d4b0" x="229.473164" y="229.596167" style="fill: #323034; stroke: #323034; stroke-width: 0.8"/>
      </g>
     </g>
    </g>
    <g id="xtick_18">
     <g id="line2d_25">
      <g>
       <use xlink:href="#m8998f5d4b0" x="270.616922" y="229.596167" style="fill: #323034; stroke: #323034; stroke-width: 0.8"/>
      </g>
     </g>
    </g>
    <g id="xtick_19">
     <g id="line2d_26">
      <g>
       <use xlink:href="#m8998f5d4b0" x="313.132138" y="229.596167" style="fill: #323034; stroke: #323034; stroke-width: 0.8"/>
      </g>
     </g>
    </g>
    <g id="xtick_20">
     <g id="line2d_27">
      <g>
       <use xlink:href="#m8998f5d4b0" x="354.275896" y="229.596167" style="fill: #323034; stroke: #323034; stroke-width: 0.8"/>
      </g>
     </g>
    </g>
    <g id="xtick_21">
     <g id="line2d_28">
      <g>
       <use xlink:href="#m8998f5d4b0" x="396.791112" y="229.596167" style="fill: #323034; stroke: #323034; stroke-width: 0.8"/>
      </g>
     </g>
    </g>
    <g id="xtick_22">
     <g id="line2d_29">
      <g>
       <use xlink:href="#m8998f5d4b0" x="439.306328" y="229.596167" style="fill: #323034; stroke: #323034; stroke-width: 0.8"/>
      </g>
     </g>
    </g>
   </g>
   <g id="matplotlib.axis_4">
    <g id="ytick_4">
     <g id="line2d_30">
      <g>
       <use xlink:href="#mef5a43df4d" x="439.306328" y="211.891333" style="fill: #323034; stroke: #323034; stroke-width: 0.8"/>
      </g>
     </g>
     <g id="text_6">
      <!-- $\mathdefault{−0.25}$ -->
      <g style="fill: #323034" transform="translate(446.306328 217.355083) scale(0.16 -0.16)">
       <defs>
        <path id="STIXGeneral-Regular-2212" d="M 3974 1408 
L 410 1408 
L 410 1830 
L 3974 1830 
L 3974 1408 
z
" transform="scale(0.015625)"/>
       </defs>
       <use xlink:href="#STIXGeneral-Regular-2212" transform="translate(0 0.203125)"/>
       <use xlink:href="#STIXGeneral-Regular-30" transform="translate(68.499985 0.203125)"/>
       <use xlink:href="#STIXGeneral-Regular-2e" transform="translate(118.499969 0.203125)"/>
       <use xlink:href="#STIXGeneral-Regular-32" transform="translate(143.499954 0.203125)"/>
       <use xlink:href="#STIXGeneral-Regular-35" transform="translate(193.499939 0.203125)"/>
      </g>
     </g>
    </g>
    <g id="ytick_5">
     <g id="line2d_31">
      <g>
       <use xlink:href="#mef5a43df4d" x="439.306328" y="182.383278" style="fill: #323034; stroke: #323034; stroke-width: 0.8"/>
      </g>
     </g>
     <g id="text_7">
      <!-- $\mathdefault{0.00}$ -->
      <g style="fill: #323034" transform="translate(446.306328 187.847028) scale(0.16 -0.16)">
       <use xlink:href="#STIXGeneral-Regular-30" transform="translate(0 0.40625)"/>
       <use xlink:href="#STIXGeneral-Regular-2e" transform="translate(49.999985 0.40625)"/>
       <use xlink:href="#STIXGeneral-Regular-30" transform="translate(74.999969 0.40625)"/>
       <use xlink:href="#STIXGeneral-Regular-30" transform="translate(124.999954 0.40625)"/>
      </g>
     </g>
    </g>
    <g id="ytick_6">
     <g id="line2d_32">
      <g>
       <use xlink:href="#m813dcae4aa" x="439.306328" y="226.645361" style="fill: #323034; stroke: #323034; stroke-width: 0.6"/>
      </g>
     </g>
    </g>
    <g id="ytick_7">
     <g id="line2d_33">
      <g>
       <use xlink:href="#m813dcae4aa" x="439.306328" y="197.137306" style="fill: #323034; stroke: #323034; stroke-width: 0.6"/>
      </g>
     </g>
    </g>
    <g id="ytick_8">
     <g id="line2d_34">
      <g>
       <use xlink:href="#m813dcae4aa" x="439.306328" y="167.62925" style="fill: #323034; stroke: #323034; stroke-width: 0.6"/>
      </g>
     </g>
    </g>
   </g>
   <g id="line2d_35">
    <path d="M 19.64 182.987361 
L 21.011459 170.896101 
L 22.382917 167.208225 
L 23.754376 174.966915 
L 25.125834 197.292965 
L 26.497293 194.267442 
L 27.868752 189.133586 
L 29.24021 182.944167 
L 30.611669 170.821021 
L 31.983127 167.080515 
L 33.354586 175.324238 
L 34.726044 196.909392 
L 36.097503 194.558199 
L 37.468962 189.122195 
L 38.84042 182.91145 
L 40.211879 170.810339 
L 41.583337 166.840432 
L 42.954796 175.66588 
L 44.326255 196.655683 
L 45.697713 194.769456 
L 48.44063 183.033958 
L 49.812089 170.783093 
L 51.183548 166.592832 
L 52.555006 175.887859 
L 53.926465 196.405487 
L 55.297923 195.221051 
L 56.669382 188.649437 
L 58.04084 183.177489 
L 59.412299 170.76065 
L 60.783758 166.388049 
L 62.155216 176.226541 
L 63.526675 196.249279 
L 64.898133 195.464538 
L 66.269592 188.256394 
L 67.641051 183.319206 
L 69.012509 170.674848 
L 70.383968 166.357064 
L 71.755426 176.420104 
L 73.126885 196.394045 
L 74.498344 195.448834 
L 75.869802 187.894805 
L 77.241261 183.393512 
L 78.612719 170.733416 
L 79.984178 166.268103 
L 81.355636 176.63238 
L 82.727095 196.697013 
L 84.098554 195.013636 
L 85.470012 187.882449 
L 86.841471 183.171389 
L 88.212929 171.057502 
L 89.584388 166.114514 
L 90.955847 176.888083 
L 92.327305 196.772803 
L 93.698764 194.871888 
L 95.070222 187.664407 
L 96.441681 183.011941 
L 97.81314 171.547431 
L 99.184598 165.77057 
L 100.556057 177.094849 
L 101.927515 197.01611 
L 103.298974 194.743006 
L 104.670432 187.417433 
L 106.041891 182.679871 
L 107.41335 172.103114 
L 108.784808 165.413616 
L 110.156267 177.306951 
L 111.527725 197.261246 
L 112.899184 194.814639 
L 114.270643 187.124077 
L 115.642101 182.257841 
L 117.01356 172.345494 
L 118.385018 165.543053 
L 119.756477 177.36117 
L 121.127936 197.537999 
L 122.499394 194.877231 
L 123.870853 186.590221 
L 125.242311 182.133574 
L 126.61377 172.454541 
L 127.985229 165.602427 
L 129.356687 177.689141 
L 130.728146 197.639603 
L 132.099604 194.794904 
L 133.471063 186.258874 
L 134.842521 181.994704 
L 136.21398 172.530194 
L 137.585439 165.528521 
L 138.956897 178.236562 
L 140.328356 197.551449 
L 141.699814 194.780278 
L 143.071273 185.992657 
L 144.442732 181.84109 
L 145.81419 172.584548 
L 147.185649 165.461093 
L 148.557107 178.700021 
L 149.928566 197.616347 
L 151.300025 194.561122 
L 152.671483 185.895423 
L 154.042942 181.643727 
L 155.4144 172.714489 
L 156.785859 165.378207 
L 158.157317 179.069577 
L 159.528776 197.707747 
L 160.900235 194.301494 
L 162.271693 185.799983 
L 163.643152 181.612875 
L 165.01461 172.663851 
L 166.386069 165.384327 
L 167.757528 179.292959 
L 169.128986 197.893586 
L 170.500445 194.093711 
L 171.871903 185.681581 
L 173.243362 181.550363 
L 174.614821 172.810957 
L 175.986279 165.233612 
L 177.357738 179.298247 
L 178.729196 198.374435 
L 180.100655 193.77001 
L 181.472113 185.539319 
L 182.843572 181.618806 
L 184.215031 172.883592 
L 185.586489 165.031097 
L 186.957948 179.393356 
L 188.329406 198.727909 
L 189.700865 193.515009 
L 191.072324 185.356871 
L 192.443782 181.770833 
L 195.186699 164.840332 
L 196.558158 179.324539 
L 197.929617 199.297685 
L 199.301075 193.048265 
L 200.672534 185.279668 
L 202.043992 181.897368 
L 204.786909 164.612502 
L 206.158368 179.231751 
L 207.529827 200.022341 
L 210.272744 185.29029 
L 211.644202 182.109281 
L 214.38712 164.460023 
L 215.758578 179.1049 
L 217.130037 200.972424 
L 218.501495 191.405267 
L 219.872954 185.453092 
L 221.244413 182.293567 
L 223.98733 164.245543 
L 225.358788 179.224244 
L 226.730247 201.546249 
L 228.101705 190.70877 
L 229.473164 185.354599 
L 230.844623 182.713253 
L 233.58754 163.8416 
L 234.958998 179.582892 
L 236.330457 201.992967 
L 237.701916 189.816501 
L 239.073374 185.874282 
L 240.444833 182.337706 
L 243.18775 163.588007 
L 244.559209 180.044316 
L 245.930667 202.611406 
L 247.302126 188.426268 
L 248.673584 186.39712 
L 250.045043 182.043281 
L 251.416501 173.43377 
L 252.78796 163.597793 
L 254.159419 180.391463 
L 255.530877 203.297728 
L 256.902336 186.952752 
L 258.273794 187.023957 
L 259.645253 181.608243 
L 261.016712 173.702227 
L 262.38817 163.613674 
L 263.759629 180.645366 
L 265.131087 203.689912 
L 266.502546 186.342174 
L 267.874005 187.064011 
L 269.245463 181.227769 
L 270.616922 173.857652 
L 271.98838 163.898826 
L 273.359839 180.688302 
L 274.731297 204.354913 
L 276.102756 185.329565 
L 277.474215 187.437239 
L 280.217132 173.986061 
L 281.58859 164.227605 
L 282.960049 180.912316 
L 284.331508 204.33007 
L 285.702966 185.333469 
L 287.074425 187.133946 
L 288.445883 180.345547 
L 289.817342 174.170242 
L 291.188801 164.495007 
L 292.560259 181.075455 
L 293.931718 204.499834 
L 295.303176 185.034485 
L 296.674635 186.965557 
L 298.046093 180.007138 
L 299.417552 174.410773 
L 300.789011 164.951072 
L 302.160469 180.911752 
L 303.531928 204.611364 
L 304.903386 185.010964 
L 306.274845 186.719603 
L 307.646304 179.525266 
L 309.017762 174.733743 
L 310.389221 165.398407 
L 311.760679 180.914856 
L 313.132138 204.551312 
L 314.503597 185.048934 
L 315.875055 186.443791 
L 317.246514 179.010878 
L 318.617972 175.116824 
L 319.989431 165.923338 
L 321.36089 180.77311 
L 322.732348 204.497717 
L 324.103807 185.190865 
L 325.475265 186.040377 
L 326.846724 178.512034 
L 328.218182 175.592762 
L 329.589641 166.368552 
L 330.9611 180.721175 
L 332.332558 204.354492 
L 333.704017 185.321593 
L 335.075475 185.785268 
L 336.446934 177.8114 
L 337.818393 176.174755 
L 339.189851 166.855314 
L 340.56131 180.599889 
L 341.932768 204.192553 
L 343.304227 185.543218 
L 344.675686 185.49508 
L 346.047144 177.007347 
L 347.418603 176.87161 
L 348.790061 167.349637 
L 350.16152 180.437366 
L 351.532978 203.916457 
L 352.904437 185.890793 
L 354.275896 185.268193 
L 355.647354 176.875171 
L 357.018813 176.032043 
L 358.390271 168.915921 
L 359.76173 179.902623 
L 361.133189 203.695018 
L 362.504647 186.198456 
L 363.876106 185.13775 
L 365.247564 176.670009 
L 366.619023 175.284583 
L 367.990482 170.511984 
L 369.36194 179.3031 
L 370.733399 203.465467 
L 372.104857 186.452831 
L 373.476316 185.179602 
L 374.847774 176.345913 
L 376.219233 174.322047 
L 377.590692 172.629838 
L 378.96215 178.290696 
L 380.333609 203.42053 
L 381.705067 186.627432 
L 383.076526 185.071233 
L 384.447985 176.226009 
L 385.819443 173.240202 
L 388.56236 176.81724 
L 389.933819 203.594285 
L 391.305278 186.781183 
L 392.676736 184.887271 
L 394.048195 176.421278 
L 395.419653 172.756753 
L 396.791112 175.672329 
L 398.16257 176.549164 
L 399.534029 203.509893 
L 400.905488 186.980123 
L 402.276946 184.691266 
L 403.648405 176.725524 
L 405.019863 172.807238 
L 406.391322 174.801522 
L 407.762781 177.3717 
L 409.134239 203.128843 
L 410.505698 187.39566 
L 411.877156 184.347132 
L 413.248615 176.968413 
L 414.620074 172.80909 
L 415.991532 174.240255 
L 417.362991 177.943648 
L 418.734449 202.843001 
L 420.105908 187.751112 
L 421.477366 184.070677 
L 422.848825 177.110276 
L 424.220284 172.801047 
L 425.591742 173.878585 
L 426.963201 178.282101 
L 428.334659 203.022986 
L 429.706118 187.367001 
L 431.077577 184.213874 
L 432.449035 177.179604 
L 433.820494 172.762251 
L 435.191952 173.662179 
L 436.563411 178.562098 
L 437.93487 203.066765 
L 439.306328 187.143632 
L 439.306328 187.143632 
" clip-path="url(#pfaf102af98)" style="fill: none; stroke: #0000ff; stroke-opacity: 0.3; stroke-width: 3; stroke-linecap: square"/>
   </g>
   <g id="patch_7">
    <path d="M 439.306328 229.596167 
L 439.306328 158.776833 
" style="fill: none; stroke: #000000; stroke-width: 0.6; stroke-linejoin: miter; stroke-linecap: square"/>
   </g>
   <g id="patch_8">
    <path d="M 19.64 229.596167 
L 439.306328 229.596167 
" style="fill: none; stroke: #000000; stroke-width: 0.6; stroke-linejoin: miter; stroke-linecap: square"/>
   </g>
   <g id="legend_2">
    <g id="patch_9">
     <path d="M 28.04 223.596167 
L 104.301875 223.596167 
Q 106.701875 223.596167 106.701875 221.196167 
L 106.701875 210.191792 
Q 106.701875 207.791792 104.301875 207.791792 
L 28.04 207.791792 
Q 25.64 207.791792 25.64 210.191792 
L 25.64 221.196167 
Q 25.64 223.596167 28.04 223.596167 
z
" style="fill: #ffffff; opacity: 0.8; stroke: #e6e6e6; stroke-width: 0.8; stroke-linejoin: miter"/>
    </g>
    <g id="line2d_36">
     <path d="M 28.04 214.391792 
L 40.04 214.391792 
L 52.04 214.391792 
" style="fill: none; stroke: #0000ff; stroke-opacity: 0.3; stroke-width: 3; stroke-linecap: square"/>
    </g>
    <g id="text_8">
     <!-- Seasonal -->
     <g style="fill: #323034" transform="translate(61.64 218.591792) scale(0.12 -0.12)">
      <defs>
       <path id="STIXGeneral-Regular-53" d="M 3002 2963 
L 2842 2963 
Q 2733 3360 2579 3565 
Q 2189 4064 1651 4064 
Q 1357 4064 1181 3894 
Q 1005 3725 1005 3456 
Q 1005 3328 1069 3206 
Q 1133 3085 1206 2998 
Q 1280 2912 1465 2784 
Q 1651 2656 1766 2589 
Q 1882 2522 2150 2362 
Q 2669 2061 2905 1763 
Q 3142 1466 3142 1107 
Q 3142 576 2771 243 
Q 2400 -90 1837 -90 
Q 1421 -90 1082 58 
Q 915 128 781 128 
Q 704 128 653 70 
Q 602 13 602 -83 
L 461 -83 
L 275 1274 
L 416 1274 
Q 845 141 1734 141 
Q 2074 141 2285 342 
Q 2496 544 2496 858 
Q 2496 1158 2310 1363 
Q 2003 1696 1235 2106 
Q 454 2522 454 3206 
Q 454 3718 768 4022 
Q 1082 4326 1568 4326 
Q 1907 4326 2240 4186 
Q 2413 4109 2522 4109 
Q 2688 4109 2726 4326 
L 2861 4326 
L 3002 2963 
z
" transform="scale(0.015625)"/>
      </defs>
      <use xlink:href="#STIXGeneral-Regular-53"/>
      <use xlink:href="#STIXGeneral-Regular-65" transform="translate(55.599991 0)"/>
      <use xlink:href="#STIXGeneral-Regular-61" transform="translate(99.999985 0)"/>
      <use xlink:href="#STIXGeneral-Regular-73" transform="translate(144.399979 0)"/>
      <use xlink:href="#STIXGeneral-Regular-6f" transform="translate(183.299973 0)"/>
      <use xlink:href="#STIXGeneral-Regular-6e" transform="translate(233.299957 0)"/>
      <use xlink:href="#STIXGeneral-Regular-61" transform="translate(283.299942 0)"/>
      <use xlink:href="#STIXGeneral-Regular-6c" transform="translate(327.699936 0)"/>
     </g>
    </g>
   </g>
  </g>
  <g id="axes_3">
   <g id="patch_10">
    <path d="M 19.64 316.8755 
L 439.306328 316.8755 
L 439.306328 246.056167 
L 19.64 246.056167 
z
" style="fill: #ffffff"/>
   </g>
   <g id="matplotlib.axis_5">
    <g id="xtick_23">
     <g id="line2d_37">
      <g>
       <use xlink:href="#m8998f5d4b0" x="19.64" y="316.8755" style="fill: #323034; stroke: #323034; stroke-width: 0.8"/>
      </g>
     </g>
     <g id="text_9">
      <!-- Apr -->
      <g style="fill: #323034" transform="translate(7.2 334.803) scale(0.16 -0.16)">
       <defs>
        <path id="STIXGeneral-Regular-41" d="M 4525 0 
L 2893 0 
L 2893 122 
Q 3149 122 3245 179 
Q 3334 224 3334 333 
Q 3334 499 3213 781 
L 2950 1382 
L 1274 1382 
L 979 653 
Q 922 506 922 384 
Q 922 237 1027 179 
Q 1133 122 1370 122 
L 1370 0 
L 96 0 
L 96 122 
Q 365 147 486 316 
Q 608 486 902 1190 
L 2221 4314 
L 2349 4314 
L 3923 710 
Q 4064 378 4176 262 
Q 4288 147 4525 122 
L 4525 0 
z
M 2861 1645 
L 2118 3405 
L 1382 1645 
L 2861 1645 
z
" transform="scale(0.015625)"/>
        <path id="STIXGeneral-Regular-70" d="M 1018 2931 
L 1018 2438 
Q 1421 2944 1939 2944 
Q 2406 2944 2707 2560 
Q 3008 2176 3008 1581 
Q 3008 883 2621 409 
Q 2234 -64 1664 -64 
Q 1466 -64 1328 -6 
Q 1190 51 1018 211 
L 1018 -794 
Q 1018 -1094 1120 -1180 
Q 1222 -1267 1581 -1274 
L 1581 -1389 
L 32 -1389 
L 32 -1280 
Q 314 -1254 397 -1171 
Q 480 -1088 480 -838 
L 480 2157 
Q 480 2381 429 2451 
Q 378 2522 218 2522 
Q 115 2522 58 2515 
L 58 2618 
Q 506 2752 979 2944 
L 1018 2931 
z
M 1018 2138 
L 1018 563 
Q 1018 422 1238 281 
Q 1459 141 1683 141 
Q 2029 141 2243 467 
Q 2458 794 2458 1325 
Q 2458 1888 2243 2224 
Q 2029 2560 1670 2560 
Q 1446 2560 1232 2419 
Q 1018 2278 1018 2138 
z
" transform="scale(0.015625)"/>
       </defs>
       <use xlink:href="#STIXGeneral-Regular-41"/>
       <use xlink:href="#STIXGeneral-Regular-70" transform="translate(72.199982 0)"/>
       <use xlink:href="#STIXGeneral-Regular-72" transform="translate(122.199966 0)"/>
      </g>
     </g>
    </g>
    <g id="xtick_24">
     <g id="line2d_38">
      <g>
       <use xlink:href="#m8998f5d4b0" x="60.783758" y="316.8755" style="fill: #323034; stroke: #323034; stroke-width: 0.8"/>
      </g>
     </g>
     <g id="text_10">
      <!-- May -->
      <g style="fill: #323034" transform="translate(46.118758 334.788) scale(0.16 -0.16)">
       <defs>
        <path id="STIXGeneral-Regular-4d" d="M 5530 0 
L 3738 0 
L 3738 122 
Q 4115 147 4214 265 
Q 4314 384 4314 787 
L 4314 3661 
L 2682 0 
L 2592 0 
L 979 3514 
L 979 966 
Q 979 448 1088 294 
Q 1197 141 1574 122 
L 1574 0 
L 77 0 
L 77 122 
Q 358 141 480 205 
Q 602 269 650 432 
Q 698 595 698 966 
L 698 3514 
Q 698 3878 589 3984 
Q 480 4090 90 4115 
L 90 4237 
L 1357 4237 
L 2835 1024 
L 4250 4237 
L 5523 4237 
L 5523 4115 
Q 5178 4109 5072 3993 
Q 4966 3878 4966 3520 
L 4966 717 
Q 4966 378 5072 262 
Q 5178 147 5530 122 
L 5530 0 
z
" transform="scale(0.015625)"/>
        <path id="STIXGeneral-Regular-79" d="M 3040 2880 
L 3040 2784 
Q 2925 2771 2854 2700 
Q 2784 2630 2720 2458 
L 1760 -160 
Q 1510 -838 1257 -1116 
Q 1005 -1395 640 -1395 
Q 435 -1395 313 -1289 
Q 192 -1184 192 -1024 
Q 192 -902 272 -816 
Q 352 -730 467 -730 
Q 653 -730 800 -813 
Q 883 -858 966 -858 
Q 1101 -858 1286 -576 
Q 1376 -448 1459 -211 
Q 1542 26 1542 115 
Q 1542 198 1274 762 
L 429 2566 
Q 346 2752 90 2790 
L 90 2880 
L 1402 2880 
L 1402 2784 
Q 1197 2778 1117 2739 
Q 1037 2701 1037 2611 
Q 1037 2541 1120 2349 
L 1837 749 
L 2458 2515 
Q 2483 2573 2483 2630 
Q 2483 2784 2189 2784 
L 2189 2880 
L 3040 2880 
z
" transform="scale(0.015625)"/>
       </defs>
       <use xlink:href="#STIXGeneral-Regular-4d"/>
       <use xlink:href="#STIXGeneral-Regular-61" transform="translate(88.899994 0)"/>
       <use xlink:href="#STIXGeneral-Regular-79" transform="translate(133.299988 0)"/>
      </g>
     </g>
    </g>
    <g id="xtick_25">
     <g id="line2d_39">
      <g>
       <use xlink:href="#m8998f5d4b0" x="103.298974" y="316.8755" style="fill: #323034; stroke: #323034; stroke-width: 0.8"/>
      </g>
     </g>
     <g id="text_11">
      <!-- Jun -->
      <g style="fill: #323034" transform="translate(92.315224 334.803) scale(0.16 -0.16)">
       <defs>
        <path id="STIXGeneral-Regular-4a" d="M 2266 4237 
L 2266 4115 
Q 1875 4083 1776 3984 
Q 1677 3885 1677 3514 
L 1677 1184 
Q 1677 -90 608 -90 
Q 314 -90 138 32 
Q -38 154 -38 371 
Q -38 499 54 601 
Q 147 704 275 704 
Q 486 704 589 435 
Q 602 403 621 348 
Q 640 294 649 265 
Q 659 237 678 208 
Q 698 179 723 166 
Q 749 154 787 154 
Q 928 154 976 253 
Q 1024 352 1024 602 
L 1024 3520 
Q 1024 3898 928 3990 
Q 832 4083 429 4115 
L 429 4237 
L 2266 4237 
z
" transform="scale(0.015625)"/>
        <path id="STIXGeneral-Regular-75" d="M 3072 320 
L 3072 230 
Q 2573 96 2195 -58 
L 2163 -38 
L 2163 486 
L 2150 486 
Q 1747 -64 1235 -64 
Q 870 -64 662 160 
Q 454 384 454 755 
L 454 2362 
Q 454 2598 371 2688 
Q 288 2778 58 2790 
L 58 2880 
L 992 2880 
L 992 813 
Q 992 595 1123 451 
Q 1254 307 1446 307 
Q 1760 307 1984 506 
Q 2067 582 2099 649 
Q 2131 717 2131 877 
L 2131 2355 
Q 2131 2605 2041 2678 
Q 1952 2752 1658 2771 
L 1658 2880 
L 2669 2880 
L 2669 685 
Q 2669 461 2742 390 
Q 2816 320 3034 320 
L 3072 320 
z
" transform="scale(0.015625)"/>
       </defs>
       <use xlink:href="#STIXGeneral-Regular-4a"/>
       <use xlink:href="#STIXGeneral-Regular-75" transform="translate(37.299988 0)"/>
       <use xlink:href="#STIXGeneral-Regular-6e" transform="translate(87.299973 0)"/>
      </g>
     </g>
    </g>
    <g id="xtick_26">
     <g id="line2d_40">
      <g>
       <use xlink:href="#m8998f5d4b0" x="144.442732" y="316.8755" style="fill: #323034; stroke: #323034; stroke-width: 0.8"/>
      </g>
     </g>
     <g id="text_12">
      <!-- Jul -->
      <g style="fill: #323034" transform="translate(135.235232 334.803) scale(0.16 -0.16)">
       <use xlink:href="#STIXGeneral-Regular-4a"/>
       <use xlink:href="#STIXGeneral-Regular-75" transform="translate(37.299988 0)"/>
       <use xlink:href="#STIXGeneral-Regular-6c" transform="translate(87.299973 0)"/>
      </g>
     </g>
    </g>
    <g id="xtick_27">
     <g id="line2d_41">
      <g>
       <use xlink:href="#m8998f5d4b0" x="186.957948" y="316.8755" style="fill: #323034; stroke: #323034; stroke-width: 0.8"/>
      </g>
     </g>
     <g id="text_13">
      <!-- Aug -->
      <g style="fill: #323034" transform="translate(173.181698 334.788) scale(0.16 -0.16)">
       <use xlink:href="#STIXGeneral-Regular-41"/>
       <use xlink:href="#STIXGeneral-Regular-75" transform="translate(72.199982 0)"/>
       <use xlink:href="#STIXGeneral-Regular-67" transform="translate(122.199966 0)"/>
      </g>
     </g>
    </g>
    <g id="xtick_28">
     <g id="line2d_42">
      <g>
       <use xlink:href="#m8998f5d4b0" x="229.473164" y="316.8755" style="fill: #323034; stroke: #323034; stroke-width: 0.8"/>
      </g>
     </g>
     <g id="text_14">
      <!-- Sep -->
      <g style="fill: #323034" transform="translate(217.473164 334.803) scale(0.16 -0.16)">
       <use xlink:href="#STIXGeneral-Regular-53"/>
       <use xlink:href="#STIXGeneral-Regular-65" transform="translate(55.599991 0)"/>
       <use xlink:href="#STIXGeneral-Regular-70" transform="translate(99.999985 0)"/>
      </g>
     </g>
    </g>
    <g id="xtick_29">
     <g id="line2d_43">
      <g>
       <use xlink:href="#m8998f5d4b0" x="270.616922" y="316.8755" style="fill: #323034; stroke: #323034; stroke-width: 0.8"/>
      </g>
     </g>
     <g id="text_15">
      <!-- Oct -->
      <g style="fill: #323034" transform="translate(259.064422 334.803) scale(0.16 -0.16)">
       <defs>
        <path id="STIXGeneral-Regular-74" d="M 1702 493 
L 1786 422 
Q 1478 -64 1011 -64 
Q 448 -64 448 749 
L 448 2675 
L 109 2675 
Q 83 2694 83 2720 
Q 83 2771 192 2842 
Q 435 2982 813 3526 
Q 826 3546 874 3606 
Q 922 3667 941 3706 
Q 986 3706 986 3622 
L 986 2880 
L 1632 2880 
L 1632 2675 
L 986 2675 
L 986 845 
Q 986 538 1062 403 
Q 1139 269 1318 269 
Q 1510 269 1702 493 
z
" transform="scale(0.015625)"/>
       </defs>
       <use xlink:href="#STIXGeneral-Regular-4f"/>
       <use xlink:href="#STIXGeneral-Regular-63" transform="translate(72.199982 0)"/>
       <use xlink:href="#STIXGeneral-Regular-74" transform="translate(116.599976 0)"/>
      </g>
     </g>
    </g>
    <g id="xtick_30">
     <g id="line2d_44">
      <g>
       <use xlink:href="#m8998f5d4b0" x="313.132138" y="316.8755" style="fill: #323034; stroke: #323034; stroke-width: 0.8"/>
      </g>
     </g>
     <g id="text_16">
      <!-- Nov -->
      <g style="fill: #323034" transform="translate(299.355888 334.803) scale(0.16 -0.16)">
       <defs>
        <path id="STIXGeneral-Regular-4e" d="M 4525 4237 
L 4525 4115 
Q 4198 4083 4102 4000 
Q 4000 3910 3958 3756 
Q 3917 3603 3917 3245 
L 3917 -70 
L 3802 -70 
L 979 3443 
L 979 960 
Q 979 474 1088 323 
Q 1197 173 1574 122 
L 1574 0 
L 77 0 
L 77 122 
Q 474 166 586 310 
Q 698 454 698 960 
L 698 3776 
Q 531 3981 416 4048 
Q 301 4115 77 4115 
L 77 4237 
L 1165 4237 
L 3635 1146 
L 3635 3322 
Q 3635 3808 3514 3949 
Q 3437 4032 3344 4061 
Q 3251 4090 3008 4115 
L 3008 4237 
L 4525 4237 
z
" transform="scale(0.015625)"/>
        <path id="STIXGeneral-Regular-76" d="M 3053 2880 
L 3053 2784 
Q 2906 2771 2835 2688 
Q 2765 2605 2637 2285 
L 1818 230 
Q 1690 -90 1638 -90 
Q 1587 -90 1523 77 
Q 1510 96 1497 141 
Q 1485 186 1472 211 
L 704 2048 
Q 499 2534 403 2652 
Q 307 2771 122 2784 
L 122 2880 
L 1376 2880 
L 1376 2784 
Q 1210 2771 1146 2732 
Q 1082 2694 1082 2611 
Q 1082 2509 1139 2368 
L 1792 730 
L 2426 2387 
Q 2464 2483 2464 2579 
Q 2464 2758 2163 2784 
L 2163 2880 
L 3053 2880 
z
" transform="scale(0.015625)"/>
       </defs>
       <use xlink:href="#STIXGeneral-Regular-4e"/>
       <use xlink:href="#STIXGeneral-Regular-6f" transform="translate(72.199982 0)"/>
       <use xlink:href="#STIXGeneral-Regular-76" transform="translate(122.199966 0)"/>
      </g>
     </g>
    </g>
    <g id="xtick_31">
     <g id="line2d_45">
      <g>
       <use xlink:href="#m8998f5d4b0" x="354.275896" y="316.8755" style="fill: #323034; stroke: #323034; stroke-width: 0.8"/>
      </g>
     </g>
     <g id="text_17">
      <!-- Dec -->
      <g style="fill: #323034" transform="translate(341.394646 334.803) scale(0.16 -0.16)">
       <defs>
        <path id="STIXGeneral-Regular-44" d="M 102 4237 
L 1830 4237 
Q 3078 4237 3750 3654 
Q 4384 3110 4384 2138 
Q 4384 966 3514 410 
Q 2880 0 1901 0 
L 102 0 
L 102 122 
Q 474 147 570 252 
Q 666 358 666 736 
L 666 3520 
Q 666 3891 570 3990 
Q 474 4090 102 4115 
L 102 4237 
z
M 1318 3731 
L 1318 538 
Q 1318 365 1379 301 
Q 1440 237 1626 237 
Q 2125 237 2432 307 
Q 2739 378 3021 570 
Q 3686 1018 3686 2099 
Q 3686 3027 3078 3558 
Q 2803 3802 2476 3901 
Q 2150 4000 1658 4000 
Q 1472 4000 1395 3942 
Q 1318 3885 1318 3731 
z
" transform="scale(0.015625)"/>
       </defs>
       <use xlink:href="#STIXGeneral-Regular-44"/>
       <use xlink:href="#STIXGeneral-Regular-65" transform="translate(72.199982 0)"/>
       <use xlink:href="#STIXGeneral-Regular-63" transform="translate(116.599976 0)"/>
      </g>
     </g>
    </g>
    <g id="xtick_32">
     <g id="line2d_46">
      <g>
       <use xlink:href="#m8998f5d4b0" x="396.791112" y="316.8755" style="fill: #323034; stroke: #323034; stroke-width: 0.8"/>
      </g>
     </g>
     <g id="text_18">
      <!-- Jan -->
      <g style="fill: #323034" transform="translate(386.254862 334.803) scale(0.16 -0.16)">
       <use xlink:href="#STIXGeneral-Regular-4a"/>
       <use xlink:href="#STIXGeneral-Regular-61" transform="translate(37.299988 0)"/>
       <use xlink:href="#STIXGeneral-Regular-6e" transform="translate(81.699982 0)"/>
      </g>
      <!-- 2021 -->
      <g style="fill: #323034" transform="translate(380.791112 351.3885) scale(0.16 -0.16)">
       <use xlink:href="#STIXGeneral-Regular-32"/>
       <use xlink:href="#STIXGeneral-Regular-30" transform="translate(49.999985 0)"/>
       <use xlink:href="#STIXGeneral-Regular-32" transform="translate(99.999969 0)"/>
       <use xlink:href="#STIXGeneral-Regular-31" transform="translate(149.999954 0)"/>
      </g>
     </g>
    </g>
    <g id="xtick_33">
     <g id="line2d_47">
      <g>
       <use xlink:href="#m8998f5d4b0" x="439.306328" y="316.8755" style="fill: #323034; stroke: #323034; stroke-width: 0.8"/>
      </g>
     </g>
     <g id="text_19">
      <!-- Feb -->
      <g style="fill: #323034" transform="translate(427.306328 334.803) scale(0.16 -0.16)">
       <defs>
        <path id="STIXGeneral-Regular-46" d="M 3494 3322 
L 3334 3322 
Q 3264 3757 3094 3875 
Q 2925 3994 2349 3994 
L 1504 3994 
Q 1370 3994 1328 3946 
Q 1286 3898 1286 3744 
L 1286 2355 
L 2195 2355 
Q 2598 2355 2736 2470 
Q 2874 2586 2918 2963 
L 3066 2963 
L 3066 1472 
L 2918 1472 
Q 2880 1862 2745 1977 
Q 2611 2093 2195 2093 
L 1286 2093 
L 1286 717 
Q 1286 352 1392 246 
Q 1498 141 1869 122 
L 1869 0 
L 70 0 
L 70 122 
Q 435 147 534 259 
Q 634 371 634 787 
L 634 3526 
Q 634 3878 538 3984 
Q 442 4090 77 4115 
L 77 4237 
L 3462 4237 
L 3494 3322 
z
" transform="scale(0.015625)"/>
        <path id="STIXGeneral-Regular-62" d="M 979 4358 
L 979 2406 
Q 1082 2650 1315 2797 
Q 1549 2944 1843 2944 
Q 2349 2944 2672 2541 
Q 2995 2138 2995 1536 
Q 2995 832 2566 384 
Q 2138 -64 1498 -64 
Q 1107 -64 774 67 
Q 442 198 442 358 
L 442 3622 
Q 442 3859 384 3926 
Q 326 3994 128 3994 
Q 83 3994 19 3981 
L 19 4090 
L 211 4147 
Q 864 4346 947 4371 
L 979 4358 
z
M 979 2035 
L 979 474 
Q 979 326 1161 233 
Q 1344 141 1600 141 
Q 1978 141 2195 416 
Q 2432 710 2432 1261 
Q 2432 1888 2182 2240 
Q 1971 2541 1613 2541 
Q 1357 2541 1168 2390 
Q 979 2240 979 2035 
z
" transform="scale(0.015625)"/>
       </defs>
       <use xlink:href="#STIXGeneral-Regular-46"/>
       <use xlink:href="#STIXGeneral-Regular-65" transform="translate(55.599991 0)"/>
       <use xlink:href="#STIXGeneral-Regular-62" transform="translate(99.999985 0)"/>
      </g>
     </g>
    </g>
   </g>
   <g id="matplotlib.axis_6">
    <g id="ytick_9">
     <g id="line2d_48">
      <g>
       <use xlink:href="#mef5a43df4d" x="439.306328" y="316.8755" style="fill: #323034; stroke: #323034; stroke-width: 0.8"/>
      </g>
     </g>
     <g id="text_20">
      <!-- $\mathdefault{−1}$ -->
      <g style="fill: #323034" transform="translate(446.306328 322.33925) scale(0.16 -0.16)">
       <use xlink:href="#STIXGeneral-Regular-2212" transform="translate(0 0.40625)"/>
       <use xlink:href="#STIXGeneral-Regular-31" transform="translate(68.499985 0.40625)"/>
      </g>
     </g>
    </g>
    <g id="ytick_10">
     <g id="line2d_49">
      <g>
       <use xlink:href="#mef5a43df4d" x="439.306328" y="269.662611" style="fill: #323034; stroke: #323034; stroke-width: 0.8"/>
      </g>
     </g>
     <g id="text_21">
      <!-- $\mathdefault{0}$ -->
      <g style="fill: #323034" transform="translate(446.306328 275.126361) scale(0.16 -0.16)">
       <use xlink:href="#STIXGeneral-Regular-30" transform="translate(0 0.40625)"/>
      </g>
     </g>
    </g>
    <g id="ytick_11">
     <g id="line2d_50">
      <g>
       <use xlink:href="#m813dcae4aa" x="439.306328" y="293.269056" style="fill: #323034; stroke: #323034; stroke-width: 0.6"/>
      </g>
     </g>
    </g>
    <g id="ytick_12">
     <g id="line2d_51">
      <g>
       <use xlink:href="#m813dcae4aa" x="439.306328" y="246.056167" style="fill: #323034; stroke: #323034; stroke-width: 0.6"/>
      </g>
     </g>
    </g>
   </g>
   <g id="line2d_52">
    <path d="M 19.64 272.160649 
L 21.011459 273.109506 
L 22.382917 271.365631 
L 23.754376 265.041527 
L 25.125834 271.532645 
L 26.497293 264.267059 
L 27.868752 267.429343 
L 29.24021 267.685051 
L 30.611669 268.316558 
L 31.983127 271.257712 
L 33.354586 270.168593 
L 34.726044 268.517108 
L 36.097503 271.523153 
L 37.468962 271.678008 
L 38.84042 268.285148 
L 40.211879 270.459368 
L 41.583337 272.039494 
L 42.954796 273.350055 
L 45.697713 267.513822 
L 47.069172 273.278268 
L 48.44063 269.999969 
L 51.183548 265.123617 
L 52.555006 264.307194 
L 53.926465 267.676306 
L 55.297923 274.416296 
L 56.669382 273.692594 
L 59.412299 269.985433 
L 60.783758 265.826967 
L 62.155216 267.901655 
L 63.526675 264.771661 
L 64.898133 272.435956 
L 66.269592 270.80447 
L 67.641051 270.301104 
L 69.012509 267.380068 
L 70.383968 269.636808 
L 71.755426 269.814298 
L 73.126885 270.662934 
L 74.498344 277.185465 
L 75.869802 268.663014 
L 77.241261 272.665644 
L 78.612719 266.036943 
L 79.984178 268.930964 
L 81.355636 269.507121 
L 82.727095 271.640774 
L 84.098554 265.626741 
L 85.470012 270.13717 
L 86.841471 267.270776 
L 88.212929 266.652218 
L 89.584388 271.981525 
L 90.955847 270.483844 
L 92.327305 267.231072 
L 93.698764 269.986225 
L 95.070222 273.202794 
L 96.441681 275.381704 
L 97.81314 271.369577 
L 99.184598 269.715688 
L 101.927515 265.666041 
L 103.298974 263.802485 
L 104.670432 269.130361 
L 106.041891 272.794776 
L 107.41335 273.232817 
L 108.784808 262.434405 
L 110.156267 269.080204 
L 111.527725 270.063618 
L 112.899184 272.181002 
L 114.270643 273.974111 
L 115.642101 267.141755 
L 117.01356 270.98856 
L 118.385018 270.053379 
L 119.756477 266.60541 
L 121.127936 272.975413 
L 122.499394 273.063714 
L 123.870853 267.954546 
L 125.242311 270.108313 
L 126.61377 271.738356 
L 127.985229 272.17078 
L 129.356687 267.823199 
L 130.728146 271.346131 
L 132.099604 268.063498 
L 133.471063 267.208951 
L 134.842521 268.690271 
L 136.21398 269.642765 
L 137.585439 269.831349 
L 138.956897 270.252226 
L 140.328356 267.661831 
L 141.699814 270.560605 
L 143.071273 266.123971 
L 144.442732 267.747846 
L 145.81419 267.802713 
L 147.185649 270.568516 
L 148.557107 272.779926 
L 149.928566 271.623574 
L 151.300025 271.417658 
L 154.042942 268.167154 
L 155.4144 272.545912 
L 156.785859 270.448249 
L 158.157317 271.542773 
L 159.528776 267.394791 
L 160.900235 266.633857 
L 162.271693 267.7323 
L 163.643152 268.007205 
L 165.01461 267.146657 
L 166.386069 273.378119 
L 167.757528 273.98476 
L 169.128986 266.769554 
L 170.500445 270.134759 
L 171.871903 269.342665 
L 173.243362 267.694859 
L 174.614821 270.743686 
L 175.986279 271.121653 
L 177.357738 269.641806 
L 178.729196 271.383345 
L 180.100655 268.556639 
L 181.472113 268.193769 
L 182.843572 266.389615 
L 184.215031 267.583155 
L 185.586489 269.777556 
L 186.957948 272.393382 
L 188.329406 269.130092 
L 189.700865 273.624364 
L 191.072324 270.524601 
L 192.443782 271.199453 
L 195.186699 270.833041 
L 196.558158 269.376729 
L 197.929617 267.060669 
L 199.301075 270.299331 
L 200.672534 266.959384 
L 202.043992 266.769216 
L 203.415451 269.641102 
L 204.786909 267.596539 
L 206.158368 268.25441 
L 207.529827 267.690664 
L 208.901285 275.211794 
L 210.272744 270.443826 
L 211.644202 271.13373 
L 213.015661 270.832796 
L 214.38712 270.720724 
L 215.758578 268.384991 
L 217.130037 274.878914 
L 218.501495 267.878458 
L 219.872954 271.505709 
L 221.244413 265.761723 
L 222.615871 268.46029 
L 223.98733 270.881854 
L 225.358788 266.508411 
L 226.730247 270.717516 
L 228.101705 270.367991 
L 229.473164 262.997157 
L 230.844623 277.796992 
L 232.216081 264.076093 
L 233.58754 261.496084 
L 234.958998 264.3083 
L 236.330457 270.806547 
L 237.701916 283.463482 
L 240.444833 273.171936 
L 241.816291 270.992131 
L 243.18775 265.004558 
L 244.559209 268.462984 
L 245.930667 267.822916 
L 247.302126 269.617487 
L 248.673584 268.425156 
L 250.045043 270.962712 
L 251.416501 268.457261 
L 252.78796 269.533098 
L 254.159419 270.82754 
L 255.530877 268.777819 
L 256.902336 256.178934 
L 258.273794 274.528974 
L 259.645253 271.834243 
L 261.016712 271.096388 
L 262.38817 266.304676 
L 263.759629 271.17025 
L 265.131087 268.469552 
L 266.502546 275.553303 
L 267.874005 268.218364 
L 269.245463 272.832613 
L 270.616922 271.72926 
L 271.98838 269.656965 
L 273.359839 269.149356 
L 274.731297 275.136044 
L 276.102756 256.381766 
L 277.474215 274.084324 
L 278.845673 267.523741 
L 280.217132 268.048968 
L 281.58859 270.574485 
L 282.960049 270.898706 
L 284.331508 269.039688 
L 285.702966 274.160187 
L 287.074425 268.417744 
L 288.445883 267.513532 
L 289.817342 266.749761 
L 291.188801 268.006901 
L 292.560259 276.030391 
L 293.931718 272.331794 
L 295.303176 266.544648 
L 296.674635 270.636827 
L 298.046093 271.947187 
L 299.417552 268.112323 
L 300.789011 267.234159 
L 302.160469 266.042906 
L 303.531928 270.834138 
L 304.903386 269.471667 
L 306.274845 270.314604 
L 307.646304 270.086722 
L 309.017762 268.692657 
L 310.389221 269.45441 
L 311.760679 272.999097 
L 313.132138 271.348812 
L 314.503597 269.930079 
L 315.875055 272.239836 
L 317.246514 269.973171 
L 318.617972 268.263995 
L 319.989431 269.885131 
L 321.36089 268.647219 
L 322.732348 270.630339 
L 324.103807 269.398922 
L 325.475265 267.765714 
L 326.846724 271.451404 
L 328.218182 267.899966 
L 329.589641 268.152104 
L 330.9611 269.89437 
L 332.332558 269.149368 
L 333.704017 267.733188 
L 335.075475 269.577023 
L 336.446934 270.16277 
L 337.818393 267.039447 
L 339.189851 268.035663 
L 340.56131 269.303061 
L 341.932768 269.091535 
L 343.304227 264.78584 
L 344.675686 264.997271 
L 346.047144 267.478977 
L 347.418603 294.057275 
L 348.790061 265.532346 
L 350.16152 275.452889 
L 351.532978 272.023873 
L 352.904437 270.555087 
L 354.275896 267.654861 
L 355.647354 268.213559 
L 357.018813 266.154637 
L 358.390271 267.399137 
L 359.76173 269.711632 
L 361.133189 269.700839 
L 362.504647 269.39913 
L 363.876106 267.186287 
L 365.247564 271.152713 
L 366.619023 270.853629 
L 367.990482 262.840911 
L 369.36194 273.542007 
L 370.733399 269.435298 
L 372.104857 271.949661 
L 373.476316 271.602931 
L 374.847774 265.868593 
L 376.219233 267.457526 
L 377.590692 264.767466 
L 378.96215 273.835801 
L 380.333609 266.36866 
L 381.705067 266.744844 
L 383.076526 266.373304 
L 384.447985 263.290658 
L 385.819443 271.511576 
L 387.190902 301.193772 
L 388.56236 264.56493 
L 389.933819 271.166581 
L 391.305278 268.509895 
L 392.676736 267.473867 
L 394.048195 266.005913 
L 395.419653 268.446338 
L 396.791112 290.036061 
L 398.16257 258.991291 
L 399.534029 267.060917 
L 400.905488 264.491036 
L 402.276946 269.689312 
L 403.648405 269.57502 
L 405.019863 267.26022 
L 406.391322 263.201253 
L 407.762781 270.243804 
L 409.134239 268.299092 
L 410.505698 269.768944 
L 411.877156 269.083879 
L 413.248615 270.826068 
L 414.620074 268.944978 
L 415.991532 266.708984 
L 417.362991 271.631464 
L 418.734449 268.179748 
L 420.105908 281.434745 
L 421.477366 268.165601 
L 422.848825 269.947131 
L 424.220284 269.127229 
L 425.591742 267.204416 
L 426.963201 270.49145 
L 428.334659 271.681973 
L 429.706118 267.987506 
L 431.077577 270.058003 
L 432.449035 270.311736 
L 433.820494 268.079048 
L 435.191952 267.237739 
L 436.563411 274.157734 
L 437.93487 271.035749 
L 439.306328 266.343664 
L 439.306328 266.343664 
" clip-path="url(#p1bdcf2f6bf)" style="fill: none; stroke: #ff0000; stroke-opacity: 0.4; stroke-width: 3; stroke-linecap: square"/>
   </g>
   <g id="patch_11">
    <path d="M 439.306328 316.8755 
L 439.306328 246.056167 
" style="fill: none; stroke: #000000; stroke-width: 0.6; stroke-linejoin: miter; stroke-linecap: square"/>
   </g>
   <g id="patch_12">
    <path d="M 19.64 316.8755 
L 439.306328 316.8755 
" style="fill: none; stroke: #000000; stroke-width: 0.6; stroke-linejoin: miter; stroke-linecap: square"/>
   </g>
   <g id="legend_3">
    <g id="patch_13">
     <path d="M 28.04 310.8755 
L 86.958125 310.8755 
Q 89.358125 310.8755 89.358125 308.4755 
L 89.358125 297.471125 
Q 89.358125 295.071125 86.958125 295.071125 
L 28.04 295.071125 
Q 25.64 295.071125 25.64 297.471125 
L 25.64 308.4755 
Q 25.64 310.8755 28.04 310.8755 
z
" style="fill: #ffffff; opacity: 0.8; stroke: #e6e6e6; stroke-width: 0.8; stroke-linejoin: miter"/>
    </g>
    <g id="line2d_53">
     <path d="M 28.04 301.671125 
L 40.04 301.671125 
L 52.04 301.671125 
" style="fill: none; stroke: #ff0000; stroke-opacity: 0.4; stroke-width: 3; stroke-linecap: square"/>
    </g>
    <g id="text_22">
     <!-- Error -->
     <g style="fill: #323034" transform="translate(61.64 305.871125) scale(0.12 -0.12)">
      <defs>
       <path id="STIXGeneral-Regular-45" d="M 3821 1082 
L 3526 0 
L 77 0 
L 77 122 
Q 442 147 538 252 
Q 634 358 634 730 
L 634 3520 
Q 634 3878 534 3987 
Q 435 4096 77 4115 
L 77 4237 
L 3469 4237 
L 3494 3322 
L 3334 3322 
Q 3264 3750 3085 3872 
Q 2906 3994 2349 3994 
L 1510 3994 
Q 1370 3994 1328 3952 
Q 1286 3910 1286 3763 
L 1286 2355 
L 2253 2355 
Q 2656 2355 2787 2470 
Q 2918 2586 2976 2970 
L 3123 2970 
L 3123 1472 
L 2976 1472 
Q 2918 1875 2790 1984 
Q 2662 2093 2253 2093 
L 1286 2093 
L 1286 538 
Q 1286 346 1420 291 
Q 1555 237 1933 237 
L 2163 237 
Q 2848 237 3136 403 
Q 3424 570 3642 1082 
L 3821 1082 
z
" transform="scale(0.015625)"/>
      </defs>
      <use xlink:href="#STIXGeneral-Regular-45"/>
      <use xlink:href="#STIXGeneral-Regular-72" transform="translate(61.099991 0)"/>
      <use xlink:href="#STIXGeneral-Regular-72" transform="translate(94.399979 0)"/>
      <use xlink:href="#STIXGeneral-Regular-6f" transform="translate(127.699966 0)"/>
      <use xlink:href="#STIXGeneral-Regular-72" transform="translate(177.699951 0)"/>
     </g>
    </g>
   </g>
  </g>
  <g id="text_23">
   <!-- Unobserved Components (smooth trend) -->
   <g style="fill: #323034" transform="translate(75.065703 21.542344) scale(0.21 -0.21)">
    <defs>
     <path id="STIXGeneral-Regular-55" d="M 4512 4237 
L 4512 4115 
Q 4122 4077 4016 3926 
Q 3910 3776 3910 3302 
L 3910 1670 
Q 3910 1178 3840 896 
Q 3770 614 3565 378 
Q 3155 -90 2272 -90 
Q 1574 -90 1184 205 
Q 666 589 666 1594 
L 666 3578 
Q 666 3898 566 3994 
Q 467 4090 90 4115 
L 90 4237 
L 1901 4237 
L 1901 4115 
Q 1517 4083 1417 3977 
Q 1318 3872 1318 3514 
L 1318 1517 
Q 1318 1101 1369 877 
Q 1421 653 1600 480 
Q 1901 192 2419 192 
Q 3066 192 3392 570 
Q 3539 749 3584 963 
Q 3629 1178 3629 1600 
L 3629 3283 
Q 3629 3782 3520 3936 
Q 3411 4090 3027 4115 
L 3027 4237 
L 4512 4237 
z
" transform="scale(0.015625)"/>
     <path id="STIXGeneral-Regular-43" d="M 3930 838 
L 4051 723 
Q 3482 -90 2304 -90 
Q 1376 -90 794 480 
Q 179 1082 179 2080 
Q 179 3014 755 3661 
Q 1357 4326 2310 4326 
Q 2720 4326 3072 4230 
Q 3475 4115 3514 4115 
Q 3725 4115 3782 4326 
L 3910 4326 
L 3968 2874 
L 3821 2874 
Q 3718 3334 3488 3584 
Q 3034 4070 2458 4070 
Q 1747 4070 1334 3548 
Q 922 3027 922 2182 
Q 922 1152 1382 653 
Q 1811 192 2522 192 
Q 2944 192 3251 339 
Q 3558 486 3930 838 
z
" transform="scale(0.015625)"/>
     <path id="STIXGeneral-Regular-6d" d="M 4960 0 
L 3565 0 
L 3565 96 
Q 3834 122 3907 208 
Q 3981 294 3981 576 
L 3981 1894 
Q 3981 2278 3869 2444 
Q 3757 2611 3488 2611 
Q 3264 2611 3107 2521 
Q 2950 2432 2803 2221 
L 2803 608 
Q 2803 301 2896 201 
Q 2989 102 3264 96 
L 3264 0 
L 1830 0 
L 1830 96 
Q 2112 115 2189 188 
Q 2266 262 2266 550 
L 2266 1901 
Q 2266 2611 1850 2611 
Q 1670 2611 1468 2531 
Q 1267 2451 1171 2336 
Q 1088 2240 1088 2227 
L 1088 448 
Q 1088 243 1177 176 
Q 1267 109 1523 96 
L 1523 0 
L 102 0 
L 102 96 
Q 371 102 460 195 
Q 550 288 550 563 
L 550 2150 
Q 550 2387 499 2480 
Q 448 2573 326 2573 
Q 230 2573 122 2547 
L 122 2656 
Q 557 2778 1011 2944 
L 1062 2925 
L 1062 2451 
L 1075 2451 
Q 1363 2752 1584 2848 
Q 1805 2944 2054 2944 
Q 2560 2944 2733 2406 
Q 3232 2944 3776 2944 
Q 4518 2944 4518 1792 
L 4518 493 
Q 4518 282 4582 202 
Q 4646 122 4794 109 
L 4960 96 
L 4960 0 
z
" transform="scale(0.015625)"/>
     <path id="STIXGeneral-Regular-28" d="M 1946 -1030 
L 1869 -1133 
Q 1126 -710 716 32 
Q 307 774 307 1613 
Q 307 3386 1888 4326 
L 1946 4224 
Q 1293 3667 1075 3126 
Q 858 2586 858 1632 
Q 858 685 1082 96 
Q 1306 -493 1946 -1030 
z
" transform="scale(0.015625)"/>
     <path id="STIXGeneral-Regular-68" d="M 3117 0 
L 1760 0 
L 1760 96 
Q 2042 128 2118 224 
Q 2195 320 2195 653 
L 2195 1920 
Q 2195 2598 1722 2598 
Q 1530 2598 1370 2508 
Q 1210 2419 1005 2195 
L 1005 653 
Q 1005 320 1081 224 
Q 1158 128 1440 96 
L 1440 0 
L 58 0 
L 58 96 
Q 333 134 400 224 
Q 467 314 467 653 
L 467 3667 
Q 467 3872 406 3933 
Q 346 3994 141 3994 
Q 83 3994 64 3987 
L 64 4090 
L 237 4141 
Q 730 4288 973 4371 
L 1005 4352 
L 1005 2406 
Q 1229 2694 1446 2819 
Q 1664 2944 1946 2944 
Q 2733 2944 2733 1926 
L 2733 653 
Q 2733 320 2793 233 
Q 2854 147 3117 96 
L 3117 0 
z
" transform="scale(0.015625)"/>
     <path id="STIXGeneral-Regular-29" d="M 186 4224 
L 262 4326 
Q 992 3891 1408 3148 
Q 1824 2406 1824 1581 
Q 1824 -166 243 -1133 
L 186 -1030 
Q 845 -486 1059 54 
Q 1274 595 1274 1562 
Q 1274 2534 1059 3120 
Q 845 3706 186 4224 
z
" transform="scale(0.015625)"/>
    </defs>
    <use xlink:href="#STIXGeneral-Regular-55"/>
    <use xlink:href="#STIXGeneral-Regular-6e" transform="translate(72.199982 0)"/>
    <use xlink:href="#STIXGeneral-Regular-6f" transform="translate(122.199966 0)"/>
    <use xlink:href="#STIXGeneral-Regular-62" transform="translate(172.199951 0)"/>
    <use xlink:href="#STIXGeneral-Regular-73" transform="translate(222.199936 0)"/>
    <use xlink:href="#STIXGeneral-Regular-65" transform="translate(261.09993 0)"/>
    <use xlink:href="#STIXGeneral-Regular-72" transform="translate(305.499924 0)"/>
    <use xlink:href="#STIXGeneral-Regular-76" transform="translate(338.799911 0)"/>
    <use xlink:href="#STIXGeneral-Regular-65" transform="translate(388.799896 0)"/>
    <use xlink:href="#STIXGeneral-Regular-64" transform="translate(433.19989 0)"/>
    <use xlink:href="#STIXGeneral-Regular-20" transform="translate(483.199875 0)"/>
    <use xlink:href="#STIXGeneral-Regular-43" transform="translate(508.19986 0)"/>
    <use xlink:href="#STIXGeneral-Regular-6f" transform="translate(574.899857 0)"/>
    <use xlink:href="#STIXGeneral-Regular-6d" transform="translate(624.899841 0)"/>
    <use xlink:href="#STIXGeneral-Regular-70" transform="translate(702.699829 0)"/>
    <use xlink:href="#STIXGeneral-Regular-6f" transform="translate(752.699814 0)"/>
    <use xlink:href="#STIXGeneral-Regular-6e" transform="translate(802.699799 0)"/>
    <use xlink:href="#STIXGeneral-Regular-65" transform="translate(852.699783 0)"/>
    <use xlink:href="#STIXGeneral-Regular-6e" transform="translate(897.099777 0)"/>
    <use xlink:href="#STIXGeneral-Regular-74" transform="translate(947.099762 0)"/>
    <use xlink:href="#STIXGeneral-Regular-73" transform="translate(974.89975 0)"/>
    <use xlink:href="#STIXGeneral-Regular-20" transform="translate(1013.799744 0)"/>
    <use xlink:href="#STIXGeneral-Regular-28" transform="translate(1038.799728 0)"/>
    <use xlink:href="#STIXGeneral-Regular-73" transform="translate(1072.099716 0)"/>
    <use xlink:href="#STIXGeneral-Regular-6d" transform="translate(1110.99971 0)"/>
    <use xlink:href="#STIXGeneral-Regular-6f" transform="translate(1188.799698 0)"/>
    <use xlink:href="#STIXGeneral-Regular-6f" transform="translate(1238.799683 0)"/>
    <use xlink:href="#STIXGeneral-Regular-74" transform="translate(1288.799667 0)"/>
    <use xlink:href="#STIXGeneral-Regular-68" transform="translate(1316.599655 0)"/>
    <use xlink:href="#STIXGeneral-Regular-20" transform="translate(1366.59964 0)"/>
    <use xlink:href="#STIXGeneral-Regular-74" transform="translate(1391.599625 0)"/>
    <use xlink:href="#STIXGeneral-Regular-72" transform="translate(1419.399612 0)"/>
    <use xlink:href="#STIXGeneral-Regular-65" transform="translate(1452.6996 0)"/>
    <use xlink:href="#STIXGeneral-Regular-6e" transform="translate(1497.099594 0)"/>
    <use xlink:href="#STIXGeneral-Regular-64" transform="translate(1547.099579 0)"/>
    <use xlink:href="#STIXGeneral-Regular-29" transform="translate(1597.099564 0)"/>
   </g>
  </g>
 </g>
 <defs>
  <clipPath id="p69d3ec3d38">
   <rect x="19.64" y="71.4975" width="419.666328" height="70.819333"/>
  </clipPath>
  <clipPath id="pfaf102af98">
   <rect x="19.64" y="158.776833" width="419.666328" height="70.819333"/>
  </clipPath>
  <clipPath id="p1bdcf2f6bf">
   <rect x="19.64" y="246.056167" width="419.666328" height="70.819333"/>
  </clipPath>
 </defs>
</svg>
