<?xml version="1.0" encoding="utf-8" standalone="no"?>
<!DOCTYPE svg PUBLIC "-//W3C//DTD SVG 1.1//EN"
  "http://www.w3.org/Graphics/SVG/1.1/DTD/svg11.dtd">
<svg xmlns:xlink="http://www.w3.org/1999/xlink" width="447.252515pt" height="349.155pt" viewBox="0 0 447.252515 349.155" xmlns="http://www.w3.org/2000/svg" version="1.1">
 <metadata>
  <rdf:RDF xmlns:dc="http://purl.org/dc/elements/1.1/" xmlns:cc="http://creativecommons.org/ns#" xmlns:rdf="http://www.w3.org/1999/02/22-rdf-syntax-ns#">
   <cc:Work>
    <dc:type rdf:resource="http://purl.org/dc/dcmitype/StillImage"/>
    <dc:date>2026-04-12T14:49:22.906510</dc:date>
    <dc:format>image/svg+xml</dc:format>
    <dc:creator>
     <cc:Agent>
      <dc:title>Matplotlib v3.10.8, https://matplotlib.org/</dc:title>
     </cc:Agent>
    </dc:creator>
   </cc:Work>
  </rdf:RDF>
 </metadata>
 <defs>
  <style type="text/css">*{stroke-linejoin: round; stroke-linecap: butt}</style>
 </defs>
 <g id="figure_1">
  <g id="patch_1">
   <path d="M 0 349.155 
L 447.252515 349.155 
L 447.252515 0 
L 0 0 
z
" style="fill: #ffffff"/>
  </g>
  <g id="axes_1">
   <g id="patch_2">
    <path d="M 51.615 303.155 
L 332.211515 303.155 
L 332.211515 12.66375 
L 51.615 12.66375 
z
" style="fill: #ffffff"/>
   </g>
   <g id="FillBetweenPolyCollection_1">
    <defs>
     <path id="m90af96667a" d="M 100.128932 -46.030583 
L 100.128932 -46 
L 100.924485 -46 
L 101.720038 -46 
L 102.51559 -46 
L 103.311143 -46 
L 104.106695 -46 
L 104.902248 -46 
L 105.697801 -46 
L 106.493353 -46 
L 107.288906 -46 
L 108.084458 -46 
L 108.880011 -46 
L 109.675563 -46 
L 110.471116 -46 
L 111.266669 -46 
L 112.062221 -46 
L 112.857774 -46 
L 113.653326 -46 
L 114.448879 -46 
L 115.244432 -46 
L 116.039984 -46 
L 116.835537 -46 
L 117.631089 -46 
L 118.426642 -46 
L 119.222194 -46 
L 120.017747 -46 
L 120.8133 -46 
L 121.608852 -46 
L 122.404405 -46 
L 123.199957 -46 
L 123.99551 -46 
L 124.791062 -46 
L 125.586615 -46 
L 126.382168 -46 
L 127.17772 -46 
L 127.973273 -46 
L 128.768825 -46 
L 129.564378 -46 
L 130.359931 -46 
L 131.155483 -46 
L 131.951036 -46 
L 132.746588 -46 
L 133.542141 -46 
L 134.337693 -46 
L 135.133246 -46 
L 135.928799 -46 
L 136.724351 -46 
L 137.519904 -46 
L 138.315456 -46 
L 139.111009 -46 
L 139.906561 -46 
L 140.702114 -46 
L 141.497667 -46 
L 142.293219 -46 
L 143.088772 -46 
L 143.884324 -46 
L 144.679877 -46 
L 145.47543 -46 
L 146.270982 -46 
L 147.066535 -46 
L 147.862087 -46 
L 148.65764 -46 
L 149.453192 -46 
L 150.248745 -46 
L 151.044298 -46 
L 151.83985 -46 
L 152.635403 -46 
L 153.430955 -46 
L 154.226508 -46 
L 155.02206 -46 
L 155.817613 -46 
L 156.613166 -46 
L 157.408718 -46 
L 158.204271 -46 
L 158.999823 -46 
L 159.795376 -46 
L 160.590929 -46 
L 161.386481 -46 
L 162.182034 -46 
L 162.977586 -46 
L 163.773139 -46 
L 164.568691 -46 
L 165.364244 -46 
L 166.159797 -46 
L 166.955349 -46 
L 167.750902 -46 
L 168.546454 -46 
L 169.342007 -46 
L 170.137559 -46 
L 170.933112 -46 
L 171.728665 -46 
L 172.524217 -46 
L 173.31977 -46 
L 174.115322 -46 
L 174.910875 -46 
L 175.706428 -46 
L 176.50198 -46 
L 177.297533 -46 
L 178.093085 -46 
L 178.888638 -46 
L 179.68419 -46 
L 180.479743 -46 
L 181.275296 -46 
L 182.070848 -46 
L 182.866401 -46 
L 183.661953 -46 
L 184.457506 -46 
L 185.253059 -46 
L 186.048611 -46 
L 186.844164 -46 
L 187.639716 -46 
L 188.435269 -46 
L 189.230821 -46 
L 190.026374 -46 
L 190.821927 -46 
L 191.617479 -46 
L 192.413032 -46 
L 193.208584 -46 
L 194.004137 -46 
L 194.799689 -46 
L 195.595242 -46 
L 196.390795 -46 
L 197.186347 -46 
L 197.9819 -46 
L 198.777452 -46 
L 199.573005 -46 
L 200.368558 -46 
L 201.16411 -46 
L 201.959663 -46 
L 202.755215 -46 
L 203.550768 -46 
L 204.34632 -46 
L 205.141873 -46 
L 205.937426 -46 
L 206.732978 -46 
L 207.528531 -46 
L 208.324083 -46 
L 209.119636 -46 
L 209.915188 -46 
L 210.710741 -46 
L 211.506294 -46 
L 212.301846 -46 
L 213.097399 -46 
L 213.892951 -46 
L 214.688504 -46 
L 215.484057 -46 
L 216.279609 -46 
L 217.075162 -46 
L 217.870714 -46 
L 218.666267 -46 
L 219.461819 -46 
L 220.257372 -46 
L 221.052925 -46 
L 221.848477 -46 
L 222.64403 -46 
L 223.439582 -46 
L 224.235135 -46 
L 225.030687 -46 
L 225.82624 -46 
L 226.621793 -46 
L 227.417345 -46 
L 228.212898 -46 
L 229.00845 -46 
L 229.804003 -46 
L 230.599556 -46 
L 231.395108 -46 
L 232.190661 -46 
L 232.986213 -46 
L 233.781766 -46 
L 234.577318 -46 
L 235.372871 -46 
L 236.168424 -46 
L 236.963976 -46 
L 237.759529 -46 
L 238.555081 -46 
L 239.350634 -46 
L 240.146187 -46 
L 240.941739 -46 
L 241.737292 -46 
L 242.532844 -46 
L 243.328397 -46 
L 244.123949 -46 
L 244.919502 -46 
L 245.715055 -46 
L 246.510607 -46 
L 247.30616 -46 
L 248.101712 -46 
L 248.897265 -46 
L 249.692817 -46 
L 250.48837 -46 
L 251.283923 -46 
L 252.079475 -46 
L 252.875028 -46 
L 253.67058 -46 
L 254.466133 -46 
L 255.261686 -46 
L 256.057238 -46 
L 256.852791 -46 
L 257.648343 -46 
L 258.443896 -46 
L 258.443896 -46.015776 
L 258.443896 -46.015776 
L 257.648343 -46.019327 
L 256.852791 -46.023574 
L 256.057238 -46.028626 
L 255.261686 -46.034607 
L 254.466133 -46.041652 
L 253.67058 -46.049909 
L 252.875028 -46.059538 
L 252.079475 -46.07071 
L 251.283923 -46.083606 
L 250.48837 -46.098416 
L 249.692817 -46.115337 
L 248.897265 -46.134568 
L 248.101712 -46.15631 
L 247.30616 -46.18076 
L 246.510607 -46.208109 
L 245.715055 -46.238535 
L 244.919502 -46.272197 
L 244.123949 -46.309234 
L 243.328397 -46.349755 
L 242.532844 -46.393833 
L 241.737292 -46.441503 
L 240.941739 -46.49275 
L 240.146187 -46.547509 
L 239.350634 -46.60566 
L 238.555081 -46.667021 
L 237.759529 -46.731345 
L 236.963976 -46.798322 
L 236.168424 -46.867574 
L 235.372871 -46.93866 
L 234.577318 -47.011075 
L 233.781766 -47.084257 
L 232.986213 -47.157591 
L 232.190661 -47.230418 
L 231.395108 -47.302043 
L 230.599556 -47.371745 
L 229.804003 -47.438793 
L 229.00845 -47.502453 
L 228.212898 -47.562006 
L 227.417345 -47.616758 
L 226.621793 -47.666058 
L 225.82624 -47.70931 
L 225.030687 -47.745985 
L 224.235135 -47.775632 
L 223.439582 -47.797892 
L 222.64403 -47.812504 
L 221.848477 -47.819313 
L 221.052925 -47.818274 
L 220.257372 -47.809453 
L 219.461819 -47.793032 
L 218.666267 -47.769302 
L 217.870714 -47.738661 
L 217.075162 -47.701607 
L 216.279609 -47.658729 
L 215.484057 -47.6107 
L 214.688504 -47.558262 
L 213.892951 -47.502218 
L 213.097399 -47.443415 
L 212.301846 -47.382735 
L 211.506294 -47.32108 
L 210.710741 -47.259362 
L 209.915188 -47.198488 
L 209.119636 -47.139351 
L 208.324083 -47.082823 
L 207.528531 -47.029742 
L 206.732978 -46.980909 
L 205.937426 -46.937084 
L 205.141873 -46.898977 
L 204.34632 -46.867254 
L 203.550768 -46.84253 
L 202.755215 -46.825372 
L 201.959663 -46.816301 
L 201.16411 -46.815797 
L 200.368558 -46.824301 
L 199.573005 -46.842219 
L 198.777452 -46.86993 
L 197.9819 -46.90779 
L 197.186347 -46.956135 
L 196.390795 -47.01529 
L 195.595242 -47.085574 
L 194.799689 -47.1673 
L 194.004137 -47.260784 
L 193.208584 -47.366343 
L 192.413032 -47.484299 
L 191.617479 -47.614977 
L 190.821927 -47.758704 
L 190.026374 -47.915809 
L 189.230821 -48.08661 
L 188.435269 -48.271415 
L 187.639716 -48.470509 
L 186.844164 -48.684144 
L 186.048611 -48.912528 
L 185.253059 -49.155809 
L 184.457506 -49.414061 
L 183.661953 -49.687269 
L 182.866401 -49.975313 
L 182.070848 -50.277948 
L 181.275296 -50.594793 
L 180.479743 -50.925311 
L 179.68419 -51.268803 
L 178.888638 -51.62439 
L 178.093085 -51.991008 
L 177.297533 -52.367407 
L 176.50198 -52.752145 
L 175.706428 -53.143596 
L 174.910875 -53.539956 
L 174.115322 -53.939257 
L 173.31977 -54.339386 
L 172.524217 -54.738102 
L 171.728665 -55.133071 
L 170.933112 -55.521885 
L 170.137559 -55.902104 
L 169.342007 -56.271285 
L 168.546454 -56.627018 
L 167.750902 -56.966965 
L 166.955349 -57.288892 
L 166.159797 -57.590703 
L 165.364244 -57.870473 
L 164.568691 -58.126471 
L 163.773139 -58.357189 
L 162.977586 -58.561352 
L 162.182034 -58.73794 
L 161.386481 -58.886187 
L 160.590929 -59.005589 
L 159.795376 -59.095898 
L 158.999823 -59.157113 
L 158.204271 -59.189469 
L 157.408718 -59.193417 
L 156.613166 -59.169606 
L 155.817613 -59.11886 
L 155.02206 -59.042153 
L 154.226508 -58.940585 
L 153.430955 -58.815354 
L 152.635403 -58.667736 
L 151.83985 -58.499057 
L 151.044298 -58.310676 
L 150.248745 -58.103964 
L 149.453192 -57.880287 
L 148.65764 -57.640994 
L 147.862087 -57.387409 
L 147.066535 -57.120817 
L 146.270982 -56.842466 
L 145.47543 -56.553559 
L 144.679877 -56.255256 
L 143.884324 -55.948677 
L 143.088772 -55.634901 
L 142.293219 -55.314974 
L 141.497667 -54.989911 
L 140.702114 -54.660698 
L 139.906561 -54.328305 
L 139.111009 -53.993681 
L 138.315456 -53.657764 
L 137.519904 -53.321478 
L 136.724351 -52.985741 
L 135.928799 -52.651462 
L 135.133246 -52.319539 
L 134.337693 -51.990861 
L 133.542141 -51.6663 
L 132.746588 -51.346714 
L 131.951036 -51.032934 
L 131.155483 -50.725765 
L 130.359931 -50.425977 
L 129.564378 -50.134296 
L 128.768825 -49.851404 
L 127.973273 -49.577926 
L 127.17772 -49.314426 
L 126.382168 -49.061402 
L 125.586615 -48.819281 
L 124.791062 -48.588414 
L 123.99551 -48.369073 
L 123.199957 -48.161449 
L 122.404405 -47.965653 
L 121.608852 -47.781714 
L 120.8133 -47.609584 
L 120.017747 -47.449136 
L 119.222194 -47.300172 
L 118.426642 -47.162429 
L 117.631089 -47.03558 
L 116.835537 -46.919247 
L 116.039984 -46.813002 
L 115.244432 -46.716378 
L 114.448879 -46.628877 
L 113.653326 -46.549978 
L 112.857774 -46.479141 
L 112.062221 -46.415818 
L 111.266669 -46.359461 
L 110.471116 -46.309522 
L 109.675563 -46.265468 
L 108.880011 -46.226776 
L 108.084458 -46.192946 
L 107.288906 -46.1635 
L 106.493353 -46.137984 
L 105.697801 -46.115974 
L 104.902248 -46.097074 
L 104.106695 -46.080918 
L 103.311143 -46.067171 
L 102.51559 -46.055526 
L 101.720038 -46.045708 
L 100.924485 -46.037467 
L 100.128932 -46.030583 
z
" style="stroke: #fccde5; stroke-width: 0.8"/>
    </defs>
    <g clip-path="url(#p841fda2014)">
     <use xlink:href="#m90af96667a" x="0" y="349.155" style="fill: #fccde5; fill-opacity: 0.25; stroke: #fccde5; stroke-width: 0.8"/>
    </g>
   </g>
   <g id="FillBetweenPolyCollection_2">
    <defs>
     <path id="m96f10393c7" d="M 95.170427 -46.043189 
L 95.170427 -46 
L 95.942492 -46 
L 96.714557 -46 
L 97.486622 -46 
L 98.258688 -46 
L 99.030753 -46 
L 99.802818 -46 
L 100.574883 -46 
L 101.346948 -46 
L 102.119013 -46 
L 102.891078 -46 
L 103.663143 -46 
L 104.435208 -46 
L 105.207274 -46 
L 105.979339 -46 
L 106.751404 -46 
L 107.523469 -46 
L 108.295534 -46 
L 109.067599 -46 
L 109.839664 -46 
L 110.611729 -46 
L 111.383794 -46 
L 112.155859 -46 
L 112.927925 -46 
L 113.69999 -46 
L 114.472055 -46 
L 115.24412 -46 
L 116.016185 -46 
L 116.78825 -46 
L 117.560315 -46 
L 118.33238 -46 
L 119.104445 -46 
L 119.87651 -46 
L 120.648576 -46 
L 121.420641 -46 
L 122.192706 -46 
L 122.964771 -46 
L 123.736836 -46 
L 124.508901 -46 
L 125.280966 -46 
L 126.053031 -46 
L 126.825096 -46 
L 127.597161 -46 
L 128.369227 -46 
L 129.141292 -46 
L 129.913357 -46 
L 130.685422 -46 
L 131.457487 -46 
L 132.229552 -46 
L 133.001617 -46 
L 133.773682 -46 
L 134.545747 -46 
L 135.317812 -46 
L 136.089878 -46 
L 136.861943 -46 
L 137.634008 -46 
L 138.406073 -46 
L 139.178138 -46 
L 139.950203 -46 
L 140.722268 -46 
L 141.494333 -46 
L 142.266398 -46 
L 143.038463 -46 
L 143.810529 -46 
L 144.582594 -46 
L 145.354659 -46 
L 146.126724 -46 
L 146.898789 -46 
L 147.670854 -46 
L 148.442919 -46 
L 149.214984 -46 
L 149.987049 -46 
L 150.759114 -46 
L 151.53118 -46 
L 152.303245 -46 
L 153.07531 -46 
L 153.847375 -46 
L 154.61944 -46 
L 155.391505 -46 
L 156.16357 -46 
L 156.935635 -46 
L 157.7077 -46 
L 158.479766 -46 
L 159.251831 -46 
L 160.023896 -46 
L 160.795961 -46 
L 161.568026 -46 
L 162.340091 -46 
L 163.112156 -46 
L 163.884221 -46 
L 164.656286 -46 
L 165.428351 -46 
L 166.200417 -46 
L 166.972482 -46 
L 167.744547 -46 
L 168.516612 -46 
L 169.288677 -46 
L 170.060742 -46 
L 170.832807 -46 
L 171.604872 -46 
L 172.376937 -46 
L 173.149002 -46 
L 173.921068 -46 
L 174.693133 -46 
L 175.465198 -46 
L 176.237263 -46 
L 177.009328 -46 
L 177.781393 -46 
L 178.553458 -46 
L 179.325523 -46 
L 180.097588 -46 
L 180.869653 -46 
L 181.641719 -46 
L 182.413784 -46 
L 183.185849 -46 
L 183.957914 -46 
L 184.729979 -46 
L 185.502044 -46 
L 186.274109 -46 
L 187.046174 -46 
L 187.818239 -46 
L 188.590304 -46 
L 189.36237 -46 
L 190.134435 -46 
L 190.9065 -46 
L 191.678565 -46 
L 192.45063 -46 
L 193.222695 -46 
L 193.99476 -46 
L 194.766825 -46 
L 195.53889 -46 
L 196.310955 -46 
L 197.083021 -46 
L 197.855086 -46 
L 198.627151 -46 
L 199.399216 -46 
L 200.171281 -46 
L 200.943346 -46 
L 201.715411 -46 
L 202.487476 -46 
L 203.259541 -46 
L 204.031606 -46 
L 204.803672 -46 
L 205.575737 -46 
L 206.347802 -46 
L 207.119867 -46 
L 207.891932 -46 
L 208.663997 -46 
L 209.436062 -46 
L 210.208127 -46 
L 210.980192 -46 
L 211.752258 -46 
L 212.524323 -46 
L 213.296388 -46 
L 214.068453 -46 
L 214.840518 -46 
L 215.612583 -46 
L 216.384648 -46 
L 217.156713 -46 
L 217.928778 -46 
L 218.700843 -46 
L 219.472909 -46 
L 220.244974 -46 
L 221.017039 -46 
L 221.789104 -46 
L 222.561169 -46 
L 223.333234 -46 
L 224.105299 -46 
L 224.877364 -46 
L 225.649429 -46 
L 226.421494 -46 
L 227.19356 -46 
L 227.965625 -46 
L 228.73769 -46 
L 229.509755 -46 
L 230.28182 -46 
L 231.053885 -46 
L 231.82595 -46 
L 232.598015 -46 
L 233.37008 -46 
L 234.142145 -46 
L 234.914211 -46 
L 235.686276 -46 
L 236.458341 -46 
L 237.230406 -46 
L 238.002471 -46 
L 238.774536 -46 
L 239.546601 -46 
L 240.318666 -46 
L 241.090731 -46 
L 241.862796 -46 
L 242.634862 -46 
L 243.406927 -46 
L 244.178992 -46 
L 244.951057 -46 
L 245.723122 -46 
L 246.495187 -46 
L 247.267252 -46 
L 248.039317 -46 
L 248.811382 -46 
L 248.811382 -46.014182 
L 248.811382 -46.014182 
L 248.039317 -46.018554 
L 247.267252 -46.024072 
L 246.495187 -46.030975 
L 245.723122 -46.03953 
L 244.951057 -46.050031 
L 244.178992 -46.062801 
L 243.406927 -46.07818 
L 242.634862 -46.096525 
L 241.862796 -46.118193 
L 241.090731 -46.143533 
L 240.318666 -46.17287 
L 239.546601 -46.20649 
L 238.774536 -46.244617 
L 238.002471 -46.287398 
L 237.230406 -46.334882 
L 236.458341 -46.386998 
L 235.686276 -46.443543 
L 234.914211 -46.504166 
L 234.142145 -46.56836 
L 233.37008 -46.635456 
L 232.598015 -46.704632 
L 231.82595 -46.774918 
L 231.053885 -46.845217 
L 230.28182 -46.914333 
L 229.509755 -46.981002 
L 228.73769 -47.043932 
L 227.965625 -47.101852 
L 227.19356 -47.153553 
L 226.421494 -47.197944 
L 225.649429 -47.2341 
L 224.877364 -47.261303 
L 224.105299 -47.279091 
L 223.333234 -47.287284 
L 222.561169 -47.28602 
L 221.789104 -47.275765 
L 221.017039 -47.257329 
L 220.244974 -47.23186 
L 219.472909 -47.200842 
L 218.700843 -47.166075 
L 217.928778 -47.129654 
L 217.156713 -47.093942 
L 216.384648 -47.061536 
L 215.612583 -47.035233 
L 214.840518 -47.017989 
L 214.068453 -47.012876 
L 213.296388 -47.023034 
L 212.524323 -47.051623 
L 211.752258 -47.101759 
L 210.980192 -47.176456 
L 210.208127 -47.27855 
L 209.436062 -47.410624 
L 208.663997 -47.574914 
L 207.891932 -47.773227 
L 207.119867 -48.006836 
L 206.347802 -48.276388 
L 205.575737 -48.581814 
L 204.803672 -48.922244 
L 204.031606 -49.295946 
L 203.259541 -49.700283 
L 202.487476 -50.131695 
L 201.715411 -50.585725 
L 200.943346 -51.057074 
L 200.171281 -51.539699 
L 199.399216 -52.026953 
L 198.627151 -52.511761 
L 197.855086 -52.986828 
L 197.083021 -53.444881 
L 196.310955 -53.878921 
L 195.53889 -54.282485 
L 194.766825 -54.649908 
L 193.99476 -54.976563 
L 193.222695 -55.25908 
L 192.45063 -55.495533 
L 191.678565 -55.685574 
L 190.9065 -55.830527 
L 190.134435 -55.933427 
L 189.36237 -55.999011 
L 188.590304 -56.033651 
L 187.818239 -56.04525 
L 187.046174 -56.043086 
L 186.274109 -56.037634 
L 185.502044 -56.04034 
L 184.729979 -56.063387 
L 183.957914 -56.119433 
L 183.185849 -56.221329 
L 182.413784 -56.381837 
L 181.641719 -56.613322 
L 180.869653 -56.927454 
L 180.097588 -57.334886 
L 179.325523 -57.844948 
L 178.553458 -58.465334 
L 177.781393 -59.201806 
L 177.009328 -60.057915 
L 176.237263 -61.034755 
L 175.465198 -62.13076 
L 174.693133 -63.341556 
L 173.921068 -64.659887 
L 173.149002 -66.075618 
L 172.376937 -67.57583 
L 171.604872 -69.145013 
L 170.832807 -70.76536 
L 170.060742 -72.417149 
L 169.288677 -74.079221 
L 168.516612 -75.729527 
L 167.744547 -77.345721 
L 166.972482 -78.905794 
L 166.200417 -80.388708 
L 165.428351 -81.775002 
L 164.656286 -83.047353 
L 163.884221 -84.191062 
L 163.112156 -85.19444 
L 162.340091 -86.049083 
L 161.568026 -86.750025 
L 160.795961 -87.295764 
L 160.023896 -87.688163 
L 159.251831 -87.932233 
L 158.479766 -88.035828 
L 157.7077 -88.009241 
L 156.935635 -87.86476 
L 156.16357 -87.616173 
L 155.391505 -87.278274 
L 154.61944 -86.866365 
L 153.847375 -86.395801 
L 153.07531 -85.881569 
L 152.303245 -85.337927 
L 151.53118 -84.778101 
L 150.759114 -84.214048 
L 149.987049 -83.656285 
L 149.214984 -83.113766 
L 148.442919 -82.593823 
L 147.670854 -82.10214 
L 146.898789 -81.642773 
L 146.126724 -81.218188 
L 145.354659 -80.829331 
L 144.582594 -80.475708 
L 143.810529 -80.155484 
L 143.038463 -79.86559 
L 142.266398 -79.601844 
L 141.494333 -79.359085 
L 140.722268 -79.131305 
L 139.950203 -78.911811 
L 139.178138 -78.693382 
L 138.406073 -78.468444 
L 137.634008 -78.229243 
L 136.861943 -77.968035 
L 136.089878 -77.67726 
L 135.317812 -77.349726 
L 134.545747 -76.978778 
L 133.773682 -76.558458 
L 133.001617 -76.083643 
L 132.229552 -75.550174 
L 131.457487 -74.95495 
L 130.685422 -74.296013 
L 129.913357 -73.572592 
L 129.141292 -72.785136 
L 128.369227 -71.93531 
L 127.597161 -71.025971 
L 126.825096 -70.061116 
L 126.053031 -69.045809 
L 125.280966 -67.986085 
L 124.508901 -66.888825 
L 123.736836 -65.761626 
L 122.964771 -64.612645 
L 122.192706 -63.450427 
L 121.420641 -62.283737 
L 120.648576 -61.121372 
L 119.87651 -59.971987 
L 119.104445 -58.84391 
L 118.33238 -57.744986 
L 117.560315 -56.682416 
L 116.78825 -55.662639 
L 116.016185 -54.691215 
L 115.24412 -53.77275 
L 114.472055 -52.910846 
L 113.69999 -52.108082 
L 112.927925 -51.366018 
L 112.155859 -50.685235 
L 111.383794 -50.065397 
L 110.611729 -49.505329 
L 109.839664 -49.003119 
L 109.067599 -48.556228 
L 108.295534 -48.161609 
L 107.523469 -47.815823 
L 106.751404 -47.515162 
L 105.979339 -47.255755 
L 105.207274 -47.033676 
L 104.435208 -46.845029 
L 103.663143 -46.686028 
L 102.891078 -46.553059 
L 102.119013 -46.442729 
L 101.346948 -46.351901 
L 100.574883 -46.277714 
L 99.802818 -46.217596 
L 99.030753 -46.169263 
L 98.258688 -46.130711 
L 97.486622 -46.100204 
L 96.714557 -46.076254 
L 95.942492 -46.057601 
L 95.170427 -46.043189 
z
" style="stroke: #fdb462; stroke-width: 0.8"/>
    </defs>
    <g clip-path="url(#p841fda2014)">
     <use xlink:href="#m96f10393c7" x="0" y="349.155" style="fill: #fdb462; fill-opacity: 0.25; stroke: #fdb462; stroke-width: 0.8"/>
    </g>
   </g>
   <g id="FillBetweenPolyCollection_3">
    <defs>
     <path id="m47c6b4f069" d="M 92.097726 -46.270547 
L 92.097726 -46 
L 93.177039 -46 
L 94.256352 -46 
L 95.335665 -46 
L 96.414978 -46 
L 97.494291 -46 
L 98.573604 -46 
L 99.652917 -46 
L 100.732229 -46 
L 101.811542 -46 
L 102.890855 -46 
L 103.970168 -46 
L 105.049481 -46 
L 106.128794 -46 
L 107.208107 -46 
L 108.28742 -46 
L 109.366733 -46 
L 110.446046 -46 
L 111.525359 -46 
L 112.604672 -46 
L 113.683985 -46 
L 114.763298 -46 
L 115.842611 -46 
L 116.921924 -46 
L 118.001236 -46 
L 119.080549 -46 
L 120.159862 -46 
L 121.239175 -46 
L 122.318488 -46 
L 123.397801 -46 
L 124.477114 -46 
L 125.556427 -46 
L 126.63574 -46 
L 127.715053 -46 
L 128.794366 -46 
L 129.873679 -46 
L 130.952992 -46 
L 132.032305 -46 
L 133.111618 -46 
L 134.190931 -46 
L 135.270243 -46 
L 136.349556 -46 
L 137.428869 -46 
L 138.508182 -46 
L 139.587495 -46 
L 140.666808 -46 
L 141.746121 -46 
L 142.825434 -46 
L 143.904747 -46 
L 144.98406 -46 
L 146.063373 -46 
L 147.142686 -46 
L 148.221999 -46 
L 149.301312 -46 
L 150.380625 -46 
L 151.459938 -46 
L 152.53925 -46 
L 153.618563 -46 
L 154.697876 -46 
L 155.777189 -46 
L 156.856502 -46 
L 157.935815 -46 
L 159.015128 -46 
L 160.094441 -46 
L 161.173754 -46 
L 162.253067 -46 
L 163.33238 -46 
L 164.411693 -46 
L 165.491006 -46 
L 166.570319 -46 
L 167.649632 -46 
L 168.728945 -46 
L 169.808257 -46 
L 170.88757 -46 
L 171.966883 -46 
L 173.046196 -46 
L 174.125509 -46 
L 175.204822 -46 
L 176.284135 -46 
L 177.363448 -46 
L 178.442761 -46 
L 179.522074 -46 
L 180.601387 -46 
L 181.6807 -46 
L 182.760013 -46 
L 183.839326 -46 
L 184.918639 -46 
L 185.997952 -46 
L 187.077264 -46 
L 188.156577 -46 
L 189.23589 -46 
L 190.315203 -46 
L 191.394516 -46 
L 192.473829 -46 
L 193.553142 -46 
L 194.632455 -46 
L 195.711768 -46 
L 196.791081 -46 
L 197.870394 -46 
L 198.949707 -46 
L 200.02902 -46 
L 201.108333 -46 
L 202.187646 -46 
L 203.266958 -46 
L 204.346271 -46 
L 205.425584 -46 
L 206.504897 -46 
L 207.58421 -46 
L 208.663523 -46 
L 209.742836 -46 
L 210.822149 -46 
L 211.901462 -46 
L 212.980775 -46 
L 214.060088 -46 
L 215.139401 -46 
L 216.218714 -46 
L 217.298027 -46 
L 218.37734 -46 
L 219.456653 -46 
L 220.535965 -46 
L 221.615278 -46 
L 222.694591 -46 
L 223.773904 -46 
L 224.853217 -46 
L 225.93253 -46 
L 227.011843 -46 
L 228.091156 -46 
L 229.170469 -46 
L 230.249782 -46 
L 231.329095 -46 
L 232.408408 -46 
L 233.487721 -46 
L 234.567034 -46 
L 235.646347 -46 
L 236.72566 -46 
L 237.804972 -46 
L 238.884285 -46 
L 239.963598 -46 
L 241.042911 -46 
L 242.122224 -46 
L 243.201537 -46 
L 244.28085 -46 
L 245.360163 -46 
L 246.439476 -46 
L 247.518789 -46 
L 248.598102 -46 
L 249.677415 -46 
L 250.756728 -46 
L 251.836041 -46 
L 252.915354 -46 
L 253.994667 -46 
L 255.073979 -46 
L 256.153292 -46 
L 257.232605 -46 
L 258.311918 -46 
L 259.391231 -46 
L 260.470544 -46 
L 261.549857 -46 
L 262.62917 -46 
L 263.708483 -46 
L 264.787796 -46 
L 265.867109 -46 
L 266.946422 -46 
L 268.025735 -46 
L 269.105048 -46 
L 270.184361 -46 
L 271.263674 -46 
L 272.342986 -46 
L 273.422299 -46 
L 274.501612 -46 
L 275.580925 -46 
L 276.660238 -46 
L 277.739551 -46 
L 278.818864 -46 
L 279.898177 -46 
L 280.97749 -46 
L 282.056803 -46 
L 283.136116 -46 
L 284.215429 -46 
L 285.294742 -46 
L 286.374055 -46 
L 287.453368 -46 
L 288.532681 -46 
L 289.611993 -46 
L 290.691306 -46 
L 291.770619 -46 
L 292.849932 -46 
L 293.929245 -46 
L 295.008558 -46 
L 296.087871 -46 
L 297.167184 -46 
L 298.246497 -46 
L 299.32581 -46 
L 300.405123 -46 
L 301.484436 -46 
L 302.563749 -46 
L 303.643062 -46 
L 304.722375 -46 
L 305.801688 -46 
L 306.881 -46 
L 306.881 -46.012669 
L 306.881 -46.012669 
L 305.801688 -46.017694 
L 304.722375 -46.024399 
L 303.643062 -46.033216 
L 302.563749 -46.044644 
L 301.484436 -46.059242 
L 300.405123 -46.077617 
L 299.32581 -46.100406 
L 298.246497 -46.128246 
L 297.167184 -46.161746 
L 296.087871 -46.201438 
L 295.008558 -46.247739 
L 293.929245 -46.300899 
L 292.849932 -46.360958 
L 291.770619 -46.427704 
L 290.691306 -46.500649 
L 289.611993 -46.579014 
L 288.532681 -46.661735 
L 287.453368 -46.747495 
L 286.374055 -46.834772 
L 285.294742 -46.921912 
L 284.215429 -47.007214 
L 283.136116 -47.089026 
L 282.056803 -47.165841 
L 280.97749 -47.236389 
L 279.898177 -47.299702 
L 278.818864 -47.355163 
L 277.739551 -47.402521 
L 276.660238 -47.441866 
L 275.580925 -47.473582 
L 274.501612 -47.498267 
L 273.422299 -47.516631 
L 272.342986 -47.529394 
L 271.263674 -47.537181 
L 270.184361 -47.540436 
L 269.105048 -47.539365 
L 268.025735 -47.533905 
L 266.946422 -47.52374 
L 265.867109 -47.508344 
L 264.787796 -47.487061 
L 263.708483 -47.459205 
L 262.62917 -47.424175 
L 261.549857 -47.381566 
L 260.470544 -47.331272 
L 259.391231 -47.273569 
L 258.311918 -47.209173 
L 257.232605 -47.139272 
L 256.153292 -47.065524 
L 255.073979 -46.990046 
L 253.994667 -46.915377 
L 252.915354 -46.844439 
L 251.836041 -46.780496 
L 250.756728 -46.727126 
L 249.677415 -46.688187 
L 248.598102 -46.667813 
L 247.518789 -46.670393 
L 246.439476 -46.700556 
L 245.360163 -46.763141 
L 244.28085 -46.863135 
L 243.201537 -47.005572 
L 242.122224 -47.19538 
L 241.042911 -47.43717 
L 239.963598 -47.734974 
L 238.884285 -48.091924 
L 237.804972 -48.509902 
L 236.72566 -48.989183 
L 235.646347 -49.528091 
L 234.567034 -50.122723 
L 233.487721 -50.766759 
L 232.408408 -51.451416 
L 231.329095 -52.165555 
L 230.249782 -52.895976 
L 229.170469 -53.627901 
L 228.091156 -54.345632 
L 227.011843 -55.033355 
L 225.93253 -55.676047 
L 224.853217 -56.26042 
L 223.773904 -56.775838 
L 222.694591 -57.215137 
L 221.615278 -57.575261 
L 220.535965 -57.857692 
L 219.456653 -58.068592 
L 218.37734 -58.218665 
L 217.298027 -58.322725 
L 216.218714 -58.398994 
L 215.139401 -58.468182 
L 214.060088 -58.552383 
L 212.980775 -58.67388 
L 211.901462 -58.853915 
L 210.822149 -59.111499 
L 209.742836 -59.46234 
L 208.663523 -59.917931 
L 207.58421 -60.484882 
L 206.504897 -61.164506 
L 205.425584 -61.952719 
L 204.346271 -62.840252 
L 203.266958 -63.813198 
L 202.187646 -64.853871 
L 201.108333 -65.941943 
L 200.02902 -67.055823 
L 198.949707 -68.174194 
L 197.870394 -69.277617 
L 196.791081 -70.3501 
L 195.711768 -71.380518 
L 194.632455 -72.363761 
L 193.553142 -73.301516 
L 192.473829 -74.202593 
L 191.394516 -75.082745 
L 190.315203 -75.963967 
L 189.23589 -76.873306 
L 188.156577 -77.841244 
L 187.077264 -78.899748 
L 185.997952 -80.080141 
L 184.918639 -81.410897 
L 183.839326 -82.915553 
L 182.760013 -84.610827 
L 181.6807 -86.505099 
L 180.601387 -88.597325 
L 179.522074 -90.87646 
L 178.442761 -93.321419 
L 177.363448 -95.901588 
L 176.284135 -98.577866 
L 175.204822 -101.304193 
L 174.125509 -104.029502 
L 173.046196 -106.700012 
L 171.966883 -109.261762 
L 170.88757 -111.663241 
L 169.808257 -113.85801 
L 168.728945 -115.807121 
L 167.649632 -117.481213 
L 166.570319 -118.862108 
L 165.491006 -119.943803 
L 164.411693 -120.732751 
L 163.33238 -121.247402 
L 162.253067 -121.517018 
L 161.173754 -121.579847 
L 160.094441 -121.480801 
L 159.015128 -121.268825 
L 157.935815 -120.994182 
L 156.856502 -120.705872 
L 155.777189 -120.449401 
L 154.697876 -120.265055 
L 153.618563 -120.186781 
L 152.53925 -120.241698 
L 151.459938 -120.450192 
L 150.380625 -120.826467 
L 149.301312 -121.379393 
L 148.221999 -122.113449 
L 147.142686 -123.029563 
L 146.063373 -124.125684 
L 144.98406 -125.396957 
L 143.904747 -126.835446 
L 142.825434 -128.429419 
L 141.746121 -130.162276 
L 140.666808 -132.011271 
L 139.587495 -133.946217 
L 138.508182 -135.92838 
L 137.428869 -137.90979 
L 136.349556 -139.83314 
L 135.270243 -141.632436 
L 134.190931 -143.234461 
L 133.111618 -144.561065 
L 132.032305 -145.532215 
L 130.952992 -146.069638 
L 129.873679 -146.100849 
L 128.794366 -145.563283 
L 127.715053 -144.408236 
L 126.63574 -142.604294 
L 125.556427 -140.139988 
L 124.477114 -137.025411 
L 123.397801 -133.292662 
L 122.318488 -128.995026 
L 121.239175 -124.204933 
L 120.159862 -119.010811 
L 119.080549 -113.513057 
L 118.001236 -107.819404 
L 116.921924 -102.040008 
L 115.842611 -96.282603 
L 114.763298 -90.648024 
L 113.683985 -85.226394 
L 112.604672 -80.09416 
L 111.525359 -75.312122 
L 110.446046 -70.924475 
L 109.366733 -66.958836 
L 108.28742 -63.427138 
L 107.208107 -60.327228 
L 106.128794 -57.644972 
L 105.049481 -55.356665 
L 103.970168 -53.431545 
L 102.890855 -51.834238 
L 101.811542 -50.526995 
L 100.732229 -49.471625 
L 99.652917 -48.631057 
L 98.573604 -47.970524 
L 97.494291 -47.458371 
L 96.414978 -47.066526 
L 95.335665 -46.770683 
L 94.256352 -46.550256 
L 93.177039 -46.388173 
L 92.097726 -46.270547 
z
" style="stroke: #b3de69; stroke-width: 0.8"/>
    </defs>
    <g clip-path="url(#p841fda2014)">
     <use xlink:href="#m47c6b4f069" x="0" y="349.155" style="fill: #b3de69; fill-opacity: 0.25; stroke: #b3de69; stroke-width: 0.8"/>
    </g>
   </g>
   <g id="FillBetweenPolyCollection_4">
    <defs>
     <path id="md68a630fa8" d="M 93.571969 -46.153449 
L 93.571969 -46 
L 94.450341 -46 
L 95.328713 -46 
L 96.207085 -46 
L 97.085457 -46 
L 97.963829 -46 
L 98.842201 -46 
L 99.720573 -46 
L 100.598945 -46 
L 101.477318 -46 
L 102.35569 -46 
L 103.234062 -46 
L 104.112434 -46 
L 104.990806 -46 
L 105.869178 -46 
L 106.74755 -46 
L 107.625922 -46 
L 108.504294 -46 
L 109.382667 -46 
L 110.261039 -46 
L 111.139411 -46 
L 112.017783 -46 
L 112.896155 -46 
L 113.774527 -46 
L 114.652899 -46 
L 115.531271 -46 
L 116.409643 -46 
L 117.288015 -46 
L 118.166388 -46 
L 119.04476 -46 
L 119.923132 -46 
L 120.801504 -46 
L 121.679876 -46 
L 122.558248 -46 
L 123.43662 -46 
L 124.314992 -46 
L 125.193364 -46 
L 126.071737 -46 
L 126.950109 -46 
L 127.828481 -46 
L 128.706853 -46 
L 129.585225 -46 
L 130.463597 -46 
L 131.341969 -46 
L 132.220341 -46 
L 133.098713 -46 
L 133.977086 -46 
L 134.855458 -46 
L 135.73383 -46 
L 136.612202 -46 
L 137.490574 -46 
L 138.368946 -46 
L 139.247318 -46 
L 140.12569 -46 
L 141.004062 -46 
L 141.882434 -46 
L 142.760807 -46 
L 143.639179 -46 
L 144.517551 -46 
L 145.395923 -46 
L 146.274295 -46 
L 147.152667 -46 
L 148.031039 -46 
L 148.909411 -46 
L 149.787783 -46 
L 150.666156 -46 
L 151.544528 -46 
L 152.4229 -46 
L 153.301272 -46 
L 154.179644 -46 
L 155.058016 -46 
L 155.936388 -46 
L 156.81476 -46 
L 157.693132 -46 
L 158.571505 -46 
L 159.449877 -46 
L 160.328249 -46 
L 161.206621 -46 
L 162.084993 -46 
L 162.963365 -46 
L 163.841737 -46 
L 164.720109 -46 
L 165.598481 -46 
L 166.476853 -46 
L 167.355226 -46 
L 168.233598 -46 
L 169.11197 -46 
L 169.990342 -46 
L 170.868714 -46 
L 171.747086 -46 
L 172.625458 -46 
L 173.50383 -46 
L 174.382202 -46 
L 175.260575 -46 
L 176.138947 -46 
L 177.017319 -46 
L 177.895691 -46 
L 178.774063 -46 
L 179.652435 -46 
L 180.530807 -46 
L 181.409179 -46 
L 182.287551 -46 
L 183.165924 -46 
L 184.044296 -46 
L 184.922668 -46 
L 185.80104 -46 
L 186.679412 -46 
L 187.557784 -46 
L 188.436156 -46 
L 189.314528 -46 
L 190.1929 -46 
L 191.071272 -46 
L 191.949645 -46 
L 192.828017 -46 
L 193.706389 -46 
L 194.584761 -46 
L 195.463133 -46 
L 196.341505 -46 
L 197.219877 -46 
L 198.098249 -46 
L 198.976621 -46 
L 199.854994 -46 
L 200.733366 -46 
L 201.611738 -46 
L 202.49011 -46 
L 203.368482 -46 
L 204.246854 -46 
L 205.125226 -46 
L 206.003598 -46 
L 206.88197 -46 
L 207.760343 -46 
L 208.638715 -46 
L 209.517087 -46 
L 210.395459 -46 
L 211.273831 -46 
L 212.152203 -46 
L 213.030575 -46 
L 213.908947 -46 
L 214.787319 -46 
L 215.665691 -46 
L 216.544064 -46 
L 217.422436 -46 
L 218.300808 -46 
L 219.17918 -46 
L 220.057552 -46 
L 220.935924 -46 
L 221.814296 -46 
L 222.692668 -46 
L 223.57104 -46 
L 224.449413 -46 
L 225.327785 -46 
L 226.206157 -46 
L 227.084529 -46 
L 227.962901 -46 
L 228.841273 -46 
L 229.719645 -46 
L 230.598017 -46 
L 231.476389 -46 
L 232.354762 -46 
L 233.233134 -46 
L 234.111506 -46 
L 234.989878 -46 
L 235.86825 -46 
L 236.746622 -46 
L 237.624994 -46 
L 238.503366 -46 
L 239.381738 -46 
L 240.26011 -46 
L 241.138483 -46 
L 242.016855 -46 
L 242.895227 -46 
L 243.773599 -46 
L 244.651971 -46 
L 245.530343 -46 
L 246.408715 -46 
L 247.287087 -46 
L 248.165459 -46 
L 249.043832 -46 
L 249.922204 -46 
L 250.800576 -46 
L 251.678948 -46 
L 252.55732 -46 
L 253.435692 -46 
L 254.314064 -46 
L 255.192436 -46 
L 256.070808 -46 
L 256.949181 -46 
L 257.827553 -46 
L 258.705925 -46 
L 259.584297 -46 
L 260.462669 -46 
L 261.341041 -46 
L 262.219413 -46 
L 263.097785 -46 
L 263.976157 -46 
L 264.854529 -46 
L 265.732902 -46 
L 266.611274 -46 
L 267.489646 -46 
L 268.368018 -46 
L 268.368018 -46.01803 
L 268.368018 -46.01803 
L 267.489646 -46.024277 
L 266.611274 -46.032422 
L 265.732902 -46.042948 
L 264.854529 -46.056434 
L 263.976157 -46.073561 
L 263.097785 -46.095127 
L 262.219413 -46.122049 
L 261.341041 -46.155376 
L 260.462669 -46.196285 
L 259.584297 -46.246084 
L 258.705925 -46.30621 
L 257.827553 -46.378215 
L 256.949181 -46.463761 
L 256.070808 -46.564596 
L 255.192436 -46.682536 
L 254.314064 -46.819438 
L 253.435692 -46.977175 
L 252.55732 -47.157599 
L 251.678948 -47.362514 
L 250.800576 -47.593638 
L 249.922204 -47.852572 
L 249.043832 -48.140762 
L 248.165459 -48.459467 
L 247.287087 -48.809722 
L 246.408715 -49.192304 
L 245.530343 -49.607694 
L 244.651971 -50.056035 
L 243.773599 -50.537089 
L 242.895227 -51.050188 
L 242.016855 -51.594176 
L 241.138483 -52.167359 
L 240.26011 -52.767436 
L 239.381738 -53.391445 
L 238.503366 -54.035704 
L 237.624994 -54.695764 
L 236.746622 -55.366385 
L 235.86825 -56.041522 
L 234.989878 -56.714353 
L 234.111506 -57.377337 
L 233.233134 -58.022318 
L 232.354762 -58.640669 
L 231.476389 -59.223488 
L 230.598017 -59.761835 
L 229.719645 -60.247017 
L 228.841273 -60.670888 
L 227.962901 -61.026192 
L 227.084529 -61.306892 
L 226.206157 -61.508509 
L 225.327785 -61.628423 
L 224.449413 -61.666143 
L 223.57104 -61.623519 
L 222.692668 -61.504885 
L 221.814296 -61.317126 
L 220.935924 -61.069666 
L 220.057552 -60.774356 
L 219.17918 -60.44529 
L 218.300808 -60.098534 
L 217.422436 -59.751772 
L 216.544064 -59.423901 
L 215.665691 -59.134558 
L 214.787319 -58.903613 
L 213.908947 -58.750627 
L 213.030575 -58.694295 
L 212.152203 -58.751884 
L 211.273831 -58.938684 
L 210.395459 -59.26748 
L 209.517087 -59.748065 
L 208.638715 -60.386806 
L 207.760343 -61.186294 
L 206.88197 -62.145072 
L 206.003598 -63.257486 
L 205.125226 -64.513663 
L 204.246854 -65.899635 
L 203.368482 -67.397622 
L 202.49011 -68.986491 
L 201.611738 -70.642374 
L 200.733366 -72.339448 
L 199.854994 -74.050856 
L 198.976621 -75.749742 
L 198.098249 -77.410356 
L 197.219877 -79.00918 
L 196.341505 -80.526032 
L 195.463133 -81.945076 
L 194.584761 -83.25569 
L 193.706389 -84.453139 
L 192.828017 -85.539003 
L 191.949645 -86.521325 
L 191.071272 -87.414474 
L 190.1929 -88.238694 
L 189.314528 -89.019377 
L 188.436156 -89.786071 
L 187.557784 -90.571266 
L 186.679412 -91.409019 
L 185.80104 -92.333474 
L 184.922668 -93.377331 
L 184.044296 -94.57035 
L 183.165924 -95.937934 
L 182.287551 -97.499854 
L 181.409179 -99.26917 
L 180.530807 -101.251381 
L 179.652435 -103.443848 
L 178.774063 -105.835493 
L 177.895691 -108.406806 
L 177.017319 -111.130162 
L 176.138947 -113.970427 
L 175.260575 -116.88586 
L 174.382202 -119.829284 
L 173.50383 -122.749488 
L 172.625458 -125.592825 
L 171.747086 -128.304965 
L 170.868714 -130.83273 
L 169.990342 -133.125958 
L 169.11197 -135.139316 
L 168.233598 -136.833999 
L 167.355226 -138.179223 
L 166.476853 -139.153464 
L 165.598481 -139.745363 
L 164.720109 -139.954263 
L 163.841737 -139.790342 
L 162.963365 -139.274329 
L 162.084993 -138.436824 
L 161.206621 -137.317244 
L 160.328249 -135.962448 
L 159.449877 -134.425123 
L 158.571505 -132.761988 
L 157.693132 -131.031928 
L 156.81476 -129.294129 
L 155.936388 -127.606296 
L 155.058016 -126.02304 
L 154.179644 -124.594471 
L 153.301272 -123.365048 
L 152.4229 -122.372701 
L 151.544528 -121.648221 
L 150.666156 -121.214907 
L 149.787783 -121.088448 
L 148.909411 -121.276973 
L 148.031039 -121.781264 
L 147.152667 -122.595059 
L 146.274295 -123.705417 
L 145.395923 -125.093113 
L 144.517551 -126.733038 
L 143.639179 -128.594599 
L 142.760807 -130.642109 
L 141.882434 -132.835187 
L 141.004062 -135.129178 
L 140.12569 -137.475627 
L 139.247318 -139.822816 
L 138.368946 -142.116415 
L 137.490574 -144.300242 
L 136.612202 -146.317161 
L 135.73383 -148.110126 
L 134.855458 -149.623351 
L 133.977086 -150.8036 
L 133.098713 -151.601554 
L 132.220341 -151.973224 
L 131.341969 -151.881334 
L 130.463597 -151.296636 
L 129.585225 -150.199067 
L 128.706853 -148.578699 
L 127.828481 -146.436405 
L 126.950109 -143.784198 
L 126.071737 -140.645199 
L 125.193364 -137.053216 
L 124.314992 -133.051932 
L 123.43662 -128.69372 
L 122.558248 -124.038137 
L 121.679876 -119.150144 
L 120.801504 -114.09815 
L 119.923132 -108.951948 
L 119.04476 -103.780657 
L 118.166388 -98.650745 
L 117.288015 -93.624237 
L 116.409643 -88.75717 
L 115.531271 -84.09836 
L 114.652899 -79.688519 
L 113.774527 -75.55973 
L 112.896155 -71.735289 
L 112.017783 -68.229885 
L 111.139411 -65.050077 
L 110.261039 -62.195021 
L 109.382667 -59.65738 
L 108.504294 -57.424362 
L 107.625922 -55.478829 
L 106.74755 -53.800392 
L 105.869178 -52.366483 
L 104.990806 -51.153331 
L 104.112434 -50.13682 
L 103.234062 -49.293228 
L 102.35569 -48.599804 
L 101.477318 -48.035221 
L 100.598945 -47.579878 
L 99.720573 -47.216094 
L 98.842201 -46.928181 
L 97.963829 -46.702444 
L 97.085457 -46.527105 
L 96.207085 -46.392176 
L 95.328713 -46.289306 
L 94.450341 -46.211602 
L 93.571969 -46.153449 
z
" style="stroke: #fb8072; stroke-width: 0.8"/>
    </defs>
    <g clip-path="url(#p841fda2014)">
     <use xlink:href="#md68a630fa8" x="0" y="349.155" style="fill: #fb8072; fill-opacity: 0.25; stroke: #fb8072; stroke-width: 0.8"/>
    </g>
   </g>
   <g id="FillBetweenPolyCollection_5">
    <defs>
     <path id="mee1904c8fe" d="M 96.817414 -46.29327 
L 96.817414 -46 
L 97.70829 -46 
L 98.599165 -46 
L 99.490041 -46 
L 100.380916 -46 
L 101.271792 -46 
L 102.162668 -46 
L 103.053543 -46 
L 103.944419 -46 
L 104.835294 -46 
L 105.72617 -46 
L 106.617046 -46 
L 107.507921 -46 
L 108.398797 -46 
L 109.289672 -46 
L 110.180548 -46 
L 111.071424 -46 
L 111.962299 -46 
L 112.853175 -46 
L 113.744051 -46 
L 114.634926 -46 
L 115.525802 -46 
L 116.416677 -46 
L 117.307553 -46 
L 118.198429 -46 
L 119.089304 -46 
L 119.98018 -46 
L 120.871055 -46 
L 121.761931 -46 
L 122.652807 -46 
L 123.543682 -46 
L 124.434558 -46 
L 125.325434 -46 
L 126.216309 -46 
L 127.107185 -46 
L 127.99806 -46 
L 128.888936 -46 
L 129.779812 -46 
L 130.670687 -46 
L 131.561563 -46 
L 132.452438 -46 
L 133.343314 -46 
L 134.23419 -46 
L 135.125065 -46 
L 136.015941 -46 
L 136.906817 -46 
L 137.797692 -46 
L 138.688568 -46 
L 139.579443 -46 
L 140.470319 -46 
L 141.361195 -46 
L 142.25207 -46 
L 143.142946 -46 
L 144.033821 -46 
L 144.924697 -46 
L 145.815573 -46 
L 146.706448 -46 
L 147.597324 -46 
L 148.4882 -46 
L 149.379075 -46 
L 150.269951 -46 
L 151.160826 -46 
L 152.051702 -46 
L 152.942578 -46 
L 153.833453 -46 
L 154.724329 -46 
L 155.615204 -46 
L 156.50608 -46 
L 157.396956 -46 
L 158.287831 -46 
L 159.178707 -46 
L 160.069582 -46 
L 160.960458 -46 
L 161.851334 -46 
L 162.742209 -46 
L 163.633085 -46 
L 164.523961 -46 
L 165.414836 -46 
L 166.305712 -46 
L 167.196587 -46 
L 168.087463 -46 
L 168.978339 -46 
L 169.869214 -46 
L 170.76009 -46 
L 171.650965 -46 
L 172.541841 -46 
L 173.432717 -46 
L 174.323592 -46 
L 175.214468 -46 
L 176.105344 -46 
L 176.996219 -46 
L 177.887095 -46 
L 178.77797 -46 
L 179.668846 -46 
L 180.559722 -46 
L 181.450597 -46 
L 182.341473 -46 
L 183.232348 -46 
L 184.123224 -46 
L 185.0141 -46 
L 185.904975 -46 
L 186.795851 -46 
L 187.686727 -46 
L 188.577602 -46 
L 189.468478 -46 
L 190.359353 -46 
L 191.250229 -46 
L 192.141105 -46 
L 193.03198 -46 
L 193.922856 -46 
L 194.813731 -46 
L 195.704607 -46 
L 196.595483 -46 
L 197.486358 -46 
L 198.377234 -46 
L 199.26811 -46 
L 200.158985 -46 
L 201.049861 -46 
L 201.940736 -46 
L 202.831612 -46 
L 203.722488 -46 
L 204.613363 -46 
L 205.504239 -46 
L 206.395114 -46 
L 207.28599 -46 
L 208.176866 -46 
L 209.067741 -46 
L 209.958617 -46 
L 210.849492 -46 
L 211.740368 -46 
L 212.631244 -46 
L 213.522119 -46 
L 214.412995 -46 
L 215.303871 -46 
L 216.194746 -46 
L 217.085622 -46 
L 217.976497 -46 
L 218.867373 -46 
L 219.758249 -46 
L 220.649124 -46 
L 221.54 -46 
L 222.430875 -46 
L 223.321751 -46 
L 224.212627 -46 
L 225.103502 -46 
L 225.994378 -46 
L 226.885254 -46 
L 227.776129 -46 
L 228.667005 -46 
L 229.55788 -46 
L 230.448756 -46 
L 231.339632 -46 
L 232.230507 -46 
L 233.121383 -46 
L 234.012258 -46 
L 234.903134 -46 
L 235.79401 -46 
L 236.684885 -46 
L 237.575761 -46 
L 238.466637 -46 
L 239.357512 -46 
L 240.248388 -46 
L 241.139263 -46 
L 242.030139 -46 
L 242.921015 -46 
L 243.81189 -46 
L 244.702766 -46 
L 245.593641 -46 
L 246.484517 -46 
L 247.375393 -46 
L 248.266268 -46 
L 249.157144 -46 
L 250.048019 -46 
L 250.938895 -46 
L 251.829771 -46 
L 252.720646 -46 
L 253.611522 -46 
L 254.502398 -46 
L 255.393273 -46 
L 256.284149 -46 
L 257.175024 -46 
L 258.0659 -46 
L 258.956776 -46 
L 259.847651 -46 
L 260.738527 -46 
L 261.629402 -46 
L 262.520278 -46 
L 263.411154 -46 
L 264.302029 -46 
L 265.192905 -46 
L 266.083781 -46 
L 266.974656 -46 
L 267.865532 -46 
L 268.756407 -46 
L 269.647283 -46 
L 270.538159 -46 
L 271.429034 -46 
L 272.31991 -46 
L 273.210785 -46 
L 274.101661 -46 
L 274.101661 -46.015339 
L 274.101661 -46.015339 
L 273.210785 -46.021382 
L 272.31991 -46.029441 
L 271.429034 -46.040046 
L 270.538159 -46.053813 
L 269.647283 -46.071445 
L 268.756407 -46.093721 
L 267.865532 -46.121489 
L 266.974656 -46.15564 
L 266.083781 -46.197081 
L 265.192905 -46.246705 
L 264.302029 -46.305355 
L 263.411154 -46.37378 
L 262.520278 -46.452605 
L 261.629402 -46.542303 
L 260.738527 -46.643172 
L 259.847651 -46.755334 
L 258.956776 -46.878749 
L 258.0659 -47.013249 
L 257.175024 -47.158584 
L 256.284149 -47.314496 
L 255.393273 -47.480794 
L 254.502398 -47.657434 
L 253.611522 -47.844607 
L 252.720646 -48.042802 
L 251.829771 -48.252858 
L 250.938895 -48.475986 
L 250.048019 -48.713768 
L 249.157144 -48.96812 
L 248.266268 -49.241231 
L 247.375393 -49.535474 
L 246.484517 -49.853309 
L 245.593641 -50.197167 
L 244.702766 -50.569345 
L 243.81189 -50.971895 
L 242.921015 -51.406528 
L 242.030139 -51.874523 
L 241.139263 -52.376637 
L 240.248388 -52.913023 
L 239.357512 -53.483125 
L 238.466637 -54.085575 
L 237.575761 -54.718064 
L 236.684885 -55.377198 
L 235.79401 -56.058359 
L 234.903134 -56.755562 
L 234.012258 -57.461353 
L 233.121383 -58.166766 
L 232.230507 -58.861351 
L 231.339632 -59.533329 
L 230.448756 -60.169863 
L 229.55788 -60.757474 
L 228.667005 -61.282585 
L 227.776129 -61.732187 
L 226.885254 -62.094584 
L 225.994378 -62.360163 
L 225.103502 -62.522159 
L 224.212627 -62.577312 
L 223.321751 -62.526398 
L 222.430875 -62.37454 
L 221.54 -62.131298 
L 220.649124 -61.810477 
L 219.758249 -61.42969 
L 218.867373 -61.009674 
L 217.976497 -60.573413 
L 217.085622 -60.145128 
L 216.194746 -59.749204 
L 215.303871 -59.409133 
L 214.412995 -59.146547 
L 213.522119 -58.980392 
L 212.631244 -58.926308 
L 211.740368 -58.996215 
L 210.849492 -59.198128 
L 209.958617 -59.536167 
L 209.067741 -60.01074 
L 208.176866 -60.618838 
L 207.28599 -61.354404 
L 206.395114 -62.208731 
L 205.504239 -63.17084 
L 204.613363 -64.227843 
L 203.722488 -65.365267 
L 202.831612 -66.567367 
L 201.940736 -67.817466 
L 201.049861 -69.098332 
L 200.158985 -70.392657 
L 199.26811 -71.683639 
L 198.377234 -72.95569 
L 197.486358 -74.195247 
L 196.595483 -75.39165 
L 195.704607 -76.538024 
L 194.813731 -77.632092 
L 193.922856 -78.676831 
L 193.03198 -79.68089 
L 192.141105 -80.658696 
L 191.250229 -81.630218 
L 190.359353 -82.620348 
L 189.468478 -83.657946 
L 188.577602 -84.774574 
L 187.686727 -86.003002 
L 186.795851 -87.375579 
L 185.904975 -88.922567 
L 185.0141 -90.670531 
L 184.123224 -92.640861 
L 183.232348 -94.848506 
L 182.341473 -97.300941 
L 181.450597 -99.997408 
L 180.559722 -102.928417 
L 179.668846 -106.075527 
L 178.77797 -109.411385 
L 177.887095 -112.90004 
L 176.996219 -116.497539 
L 176.105344 -120.152837 
L 175.214468 -123.809039 
L 174.323592 -127.405008 
L 173.432717 -130.877356 
L 172.541841 -134.162793 
L 171.650965 -137.200784 
L 170.76009 -139.936429 
L 169.869214 -142.323403 
L 168.978339 -144.326786 
L 168.087463 -145.925567 
L 167.196587 -147.114601 
L 166.305712 -147.905813 
L 165.414836 -148.328484 
L 164.523961 -148.428537 
L 163.633085 -148.266783 
L 162.742209 -147.916225 
L 161.851334 -147.45858 
L 160.960458 -146.98028 
L 160.069582 -146.568245 
L 159.178707 -146.305782 
L 158.287831 -146.268931 
L 157.396956 -146.523541 
L 156.50608 -147.123307 
L 155.615204 -148.108858 
L 154.724329 -149.507923 
L 153.833453 -151.336465 
L 152.942578 -153.600568 
L 152.051702 -156.298824 
L 151.160826 -159.424885 
L 150.269951 -162.969882 
L 149.379075 -166.924407 
L 148.4882 -171.279847 
L 147.597324 -176.028923 
L 146.706448 -181.165395 
L 145.815573 -186.682963 
L 144.924697 -192.573492 
L 144.033821 -198.824727 
L 143.142946 -205.417716 
L 142.25207 -212.324125 
L 141.361195 -219.50367 
L 140.470319 -226.901822 
L 139.579443 -234.447935 
L 138.688568 -242.053931 
L 137.797692 -249.613645 
L 136.906817 -257.002947 
L 136.015941 -264.080754 
L 135.125065 -270.691037 
L 134.23419 -276.665933 
L 133.343314 -281.830019 
L 132.452438 -286.005748 
L 131.561563 -289.019968 
L 130.670687 -290.711305 
L 129.779812 -290.938093 
L 128.888936 -289.586392 
L 127.99806 -286.577555 
L 127.107185 -281.874737 
L 126.216309 -275.487758 
L 125.325434 -267.47581 
L 124.434558 -257.947605 
L 123.543682 -247.058792 
L 122.652807 -235.006665 
L 121.761931 -222.022431 
L 120.871055 -208.361511 
L 119.98018 -194.292544 
L 119.089304 -180.085847 
L 118.198429 -166.002123 
L 117.307553 -152.282183 
L 116.416677 -139.138318 
L 115.525802 -126.747783 
L 114.634926 -115.248688 
L 113.744051 -104.738332 
L 112.853175 -95.273863 
L 111.962299 -86.87496 
L 111.071424 -79.528107 
L 110.180548 -73.191991 
L 109.289672 -67.8035 
L 108.398797 -63.283865 
L 107.507921 -59.544538 
L 106.617046 -56.492477 
L 105.72617 -54.034643 
L 104.835294 -52.081578 
L 103.944419 -50.550041 
L 103.053543 -49.364757 
L 102.162668 -48.459366 
L 101.271792 -47.776709 
L 100.380916 -47.268607 
L 99.490041 -46.895265 
L 98.599165 -46.624431 
L 97.70829 -46.430452 
L 96.817414 -46.29327 
z
" style="stroke: #bc80bd; stroke-width: 0.8"/>
    </defs>
    <g clip-path="url(#p841fda2014)">
     <use xlink:href="#mee1904c8fe" x="0" y="349.155" style="fill: #bc80bd; fill-opacity: 0.25; stroke: #bc80bd; stroke-width: 0.8"/>
    </g>
   </g>
   <g id="matplotlib.axis_1">
    <g id="xtick_1">
     <g id="line2d_1">
      <defs>
       <path id="me878a09a4f" d="M 0 0 
L 0 3.5 
" style="stroke: #323034; stroke-width: 0.8"/>
      </defs>
      <g>
       <use xlink:href="#me878a09a4f" x="51.615" y="303.155" style="fill: #323034; stroke: #323034; stroke-width: 0.8"/>
      </g>
     </g>
     <g id="text_1">
      <!-- $\mathdefault{−1}$ -->
      <g style="fill: #323034" transform="translate(42.095 321.0825) scale(0.16 -0.16)">
       <defs>
        <path id="STIXGeneral-Regular-2212" d="M 3974 1408 
L 410 1408 
L 410 1830 
L 3974 1830 
L 3974 1408 
z
" transform="scale(0.015625)"/>
        <path id="STIXGeneral-Regular-31" d="M 2522 0 
L 755 0 
L 755 96 
Q 1107 115 1235 227 
Q 1363 339 1363 608 
L 1363 3482 
Q 1363 3795 1171 3795 
Q 1082 3795 883 3718 
L 710 3654 
L 710 3744 
L 1856 4326 
L 1914 4307 
L 1914 486 
Q 1914 275 2042 185 
Q 2170 96 2522 96 
L 2522 0 
z
" transform="scale(0.015625)"/>
       </defs>
       <use xlink:href="#STIXGeneral-Regular-2212" transform="translate(0 0.40625)"/>
       <use xlink:href="#STIXGeneral-Regular-31" transform="translate(68.499985 0.40625)"/>
      </g>
     </g>
    </g>
    <g id="xtick_2">
     <g id="line2d_2">
      <g>
       <use xlink:href="#me878a09a4f" x="107.734303" y="303.155" style="fill: #323034; stroke: #323034; stroke-width: 0.8"/>
      </g>
     </g>
     <g id="text_2">
      <!-- $\mathdefault{0}$ -->
      <g style="fill: #323034" transform="translate(103.734303 321.0825) scale(0.16 -0.16)">
       <defs>
        <path id="STIXGeneral-Regular-30" d="M 3046 2112 
Q 3046 1683 2963 1302 
Q 2880 922 2717 602 
Q 2554 282 2266 96 
Q 1978 -90 1600 -90 
Q 1210 -90 915 108 
Q 621 307 461 640 
Q 301 973 227 1350 
Q 154 1728 154 2150 
Q 154 2746 301 3222 
Q 448 3699 790 4012 
Q 1133 4326 1626 4326 
Q 2253 4326 2649 3712 
Q 3046 3098 3046 2112 
z
M 2432 2080 
Q 2432 3091 2217 3625 
Q 2003 4160 1587 4160 
Q 1190 4160 979 3622 
Q 768 3085 768 2106 
Q 768 1120 979 598 
Q 1190 77 1600 77 
Q 2003 77 2217 598 
Q 2432 1120 2432 2080 
z
" transform="scale(0.015625)"/>
       </defs>
       <use xlink:href="#STIXGeneral-Regular-30" transform="translate(0 0.40625)"/>
      </g>
     </g>
    </g>
    <g id="xtick_3">
     <g id="line2d_3">
      <g>
       <use xlink:href="#me878a09a4f" x="163.853606" y="303.155" style="fill: #323034; stroke: #323034; stroke-width: 0.8"/>
      </g>
     </g>
     <g id="text_3">
      <!-- $\mathdefault{1}$ -->
      <g style="fill: #323034" transform="translate(159.853606 321.0825) scale(0.16 -0.16)">
       <use xlink:href="#STIXGeneral-Regular-31" transform="translate(0 0.40625)"/>
      </g>
     </g>
    </g>
    <g id="xtick_4">
     <g id="line2d_4">
      <g>
       <use xlink:href="#me878a09a4f" x="219.972909" y="303.155" style="fill: #323034; stroke: #323034; stroke-width: 0.8"/>
      </g>
     </g>
     <g id="text_4">
      <!-- $\mathdefault{2}$ -->
      <g style="fill: #323034" transform="translate(215.972909 321.0825) scale(0.16 -0.16)">
       <defs>
        <path id="STIXGeneral-Regular-32" d="M 3034 877 
L 2688 0 
L 186 0 
L 186 77 
L 1325 1286 
Q 1773 1754 1965 2144 
Q 2157 2534 2157 2950 
Q 2157 3379 1920 3616 
Q 1683 3853 1267 3853 
Q 922 3853 720 3673 
Q 518 3494 326 3021 
L 192 3053 
Q 301 3648 630 3987 
Q 960 4326 1523 4326 
Q 2054 4326 2380 4006 
Q 2707 3686 2707 3200 
Q 2707 2477 1888 1613 
L 832 486 
L 2330 486 
Q 2541 486 2665 569 
Q 2790 653 2944 915 
L 3034 877 
z
" transform="scale(0.015625)"/>
       </defs>
       <use xlink:href="#STIXGeneral-Regular-32" transform="translate(0 0.40625)"/>
      </g>
     </g>
    </g>
    <g id="xtick_5">
     <g id="line2d_5">
      <g>
       <use xlink:href="#me878a09a4f" x="276.092212" y="303.155" style="fill: #323034; stroke: #323034; stroke-width: 0.8"/>
      </g>
     </g>
     <g id="text_5">
      <!-- $\mathdefault{3}$ -->
      <g style="fill: #323034" transform="translate(272.092212 321.0825) scale(0.16 -0.16)">
       <defs>
        <path id="STIXGeneral-Regular-33" d="M 390 3264 
L 288 3290 
Q 435 3770 748 4048 
Q 1062 4326 1542 4326 
Q 1990 4326 2265 4083 
Q 2541 3840 2541 3450 
Q 2541 2925 1946 2566 
Q 2298 2413 2477 2227 
Q 2758 1914 2758 1402 
Q 2758 890 2464 506 
Q 2246 211 1840 60 
Q 1434 -90 979 -90 
Q 262 -90 262 275 
Q 262 378 339 442 
Q 416 506 525 506 
Q 685 506 915 339 
Q 1197 141 1466 141 
Q 1818 141 2058 425 
Q 2298 710 2298 1120 
Q 2298 1856 1632 2048 
Q 1434 2112 979 2112 
L 979 2202 
Q 1338 2323 1517 2432 
Q 2035 2726 2035 3290 
Q 2035 3610 1852 3776 
Q 1670 3942 1344 3942 
Q 768 3942 390 3264 
z
" transform="scale(0.015625)"/>
       </defs>
       <use xlink:href="#STIXGeneral-Regular-33" transform="translate(0 0.40625)"/>
      </g>
     </g>
    </g>
    <g id="xtick_6">
     <g id="line2d_6">
      <g>
       <use xlink:href="#me878a09a4f" x="332.211515" y="303.155" style="fill: #323034; stroke: #323034; stroke-width: 0.8"/>
      </g>
     </g>
     <g id="text_6">
      <!-- $\mathdefault{4}$ -->
      <g style="fill: #323034" transform="translate(328.211515 321.0825) scale(0.16 -0.16)">
       <defs>
        <path id="STIXGeneral-Regular-34" d="M 3027 1069 
L 2368 1069 
L 2368 0 
L 1869 0 
L 1869 1069 
L 77 1069 
L 77 1478 
L 2086 4326 
L 2368 4326 
L 2368 1478 
L 3027 1478 
L 3027 1069 
z
M 1869 1478 
L 1869 3674 
L 333 1478 
L 1869 1478 
z
" transform="scale(0.015625)"/>
       </defs>
       <use xlink:href="#STIXGeneral-Regular-34" transform="translate(0 0.40625)"/>
      </g>
     </g>
    </g>
    <g id="text_7">
     <!-- carat -->
     <g transform="translate(176.368257 338.4825) scale(0.16 -0.16)">
      <defs>
       <path id="STIXGeneral-Regular-63" d="M 2547 998 
L 2637 941 
Q 2362 403 2112 205 
Q 1786 -64 1376 -64 
Q 845 -64 502 336 
Q 160 736 160 1357 
Q 160 2170 698 2618 
Q 1094 2944 1562 2944 
Q 1965 2944 2256 2749 
Q 2547 2554 2547 2285 
Q 2547 2176 2457 2096 
Q 2368 2016 2246 2016 
Q 2022 2016 1939 2310 
L 1901 2451 
Q 1850 2630 1773 2694 
Q 1696 2758 1523 2758 
Q 1133 2758 893 2451 
Q 653 2144 653 1645 
Q 653 1094 928 745 
Q 1203 397 1645 397 
Q 1920 397 2118 528 
Q 2317 659 2547 998 
z
" transform="scale(0.015625)"/>
       <path id="STIXGeneral-Regular-61" d="M 2829 422 
L 2829 243 
Q 2586 -64 2253 -64 
Q 1888 -64 1843 403 
L 1837 403 
Q 1427 -64 909 -64 
Q 608 -64 422 112 
Q 237 288 237 602 
Q 237 1050 685 1350 
Q 992 1555 1837 1869 
L 1837 2214 
Q 1837 2502 1699 2646 
Q 1562 2790 1338 2790 
Q 1146 2790 1018 2697 
Q 890 2605 890 2477 
Q 890 2419 909 2348 
Q 928 2278 928 2208 
Q 928 2112 841 2029 
Q 755 1946 634 1946 
Q 525 1946 441 2029 
Q 358 2112 358 2240 
Q 358 2547 685 2752 
Q 986 2944 1421 2944 
Q 1939 2944 2176 2656 
Q 2291 2522 2323 2384 
Q 2355 2246 2355 1946 
L 2355 723 
Q 2355 301 2554 301 
Q 2682 301 2829 422 
z
M 1837 813 
L 1837 1715 
Q 1248 1510 1018 1293 
Q 800 1094 800 800 
Q 800 557 921 432 
Q 1043 307 1242 307 
Q 1453 307 1613 410 
Q 1747 506 1792 589 
Q 1837 672 1837 813 
z
" transform="scale(0.015625)"/>
       <path id="STIXGeneral-Regular-72" d="M 1024 2931 
L 1024 2342 
Q 1267 2688 1430 2816 
Q 1594 2944 1792 2944 
Q 1958 2944 2051 2854 
Q 2144 2765 2144 2605 
Q 2144 2470 2077 2393 
Q 2010 2317 1894 2317 
Q 1773 2317 1638 2445 
Q 1536 2541 1472 2541 
Q 1338 2541 1181 2355 
Q 1024 2170 1024 2016 
L 1024 576 
Q 1024 301 1133 205 
Q 1242 109 1568 96 
L 1568 0 
L 32 0 
L 32 96 
Q 339 154 412 224 
Q 486 294 486 538 
L 486 2138 
Q 486 2349 438 2435 
Q 390 2522 269 2522 
Q 166 2522 45 2496 
L 45 2598 
Q 448 2726 992 2944 
L 1024 2931 
z
" transform="scale(0.015625)"/>
       <path id="STIXGeneral-Regular-74" d="M 1702 493 
L 1786 422 
Q 1478 -64 1011 -64 
Q 448 -64 448 749 
L 448 2675 
L 109 2675 
Q 83 2694 83 2720 
Q 83 2771 192 2842 
Q 435 2982 813 3526 
Q 826 3546 874 3606 
Q 922 3667 941 3706 
Q 986 3706 986 3622 
L 986 2880 
L 1632 2880 
L 1632 2675 
L 986 2675 
L 986 845 
Q 986 538 1062 403 
Q 1139 269 1318 269 
Q 1510 269 1702 493 
z
" transform="scale(0.015625)"/>
      </defs>
      <use xlink:href="#STIXGeneral-Regular-63"/>
      <use xlink:href="#STIXGeneral-Regular-61" transform="translate(44.399994 0)"/>
      <use xlink:href="#STIXGeneral-Regular-72" transform="translate(88.799988 0)"/>
      <use xlink:href="#STIXGeneral-Regular-61" transform="translate(122.099976 0)"/>
      <use xlink:href="#STIXGeneral-Regular-74" transform="translate(166.499969 0)"/>
     </g>
    </g>
   </g>
   <g id="matplotlib.axis_2">
    <g id="ytick_1">
     <g id="line2d_7">
      <defs>
       <path id="me744403638" d="M 0 0 
L -3.5 0 
" style="stroke: #323034; stroke-width: 0.8"/>
      </defs>
      <g>
       <use xlink:href="#me744403638" x="51.615" y="303.155" style="fill: #323034; stroke: #323034; stroke-width: 0.8"/>
      </g>
     </g>
     <g id="text_8">
      <!-- $\mathdefault{0.0}$ -->
      <g style="fill: #323034" transform="translate(24.615 308.61875) scale(0.16 -0.16)">
       <defs>
        <path id="STIXGeneral-Regular-2e" d="M 1158 275 
Q 1158 134 1052 32 
Q 947 -70 800 -70 
Q 653 -70 550 32 
Q 448 134 448 281 
Q 448 429 553 534 
Q 659 640 806 640 
Q 947 640 1052 531 
Q 1158 422 1158 275 
z
" transform="scale(0.015625)"/>
       </defs>
       <use xlink:href="#STIXGeneral-Regular-30" transform="translate(0 0.40625)"/>
       <use xlink:href="#STIXGeneral-Regular-2e" transform="translate(49.999985 0.40625)"/>
       <use xlink:href="#STIXGeneral-Regular-30" transform="translate(74.999969 0.40625)"/>
      </g>
     </g>
    </g>
    <g id="ytick_2">
     <g id="line2d_8">
      <g>
       <use xlink:href="#me744403638" x="51.615" y="254.739792" style="fill: #323034; stroke: #323034; stroke-width: 0.8"/>
      </g>
     </g>
     <g id="text_9">
      <!-- $\mathdefault{0.1}$ -->
      <g style="fill: #323034" transform="translate(24.615 260.203542) scale(0.16 -0.16)">
       <use xlink:href="#STIXGeneral-Regular-30" transform="translate(0 0.40625)"/>
       <use xlink:href="#STIXGeneral-Regular-2e" transform="translate(49.999985 0.40625)"/>
       <use xlink:href="#STIXGeneral-Regular-31" transform="translate(74.999969 0.40625)"/>
      </g>
     </g>
    </g>
    <g id="ytick_3">
     <g id="line2d_9">
      <g>
       <use xlink:href="#me744403638" x="51.615" y="206.324583" style="fill: #323034; stroke: #323034; stroke-width: 0.8"/>
      </g>
     </g>
     <g id="text_10">
      <!-- $\mathdefault{0.2}$ -->
      <g style="fill: #323034" transform="translate(24.615 211.788333) scale(0.16 -0.16)">
       <use xlink:href="#STIXGeneral-Regular-30" transform="translate(0 0.40625)"/>
       <use xlink:href="#STIXGeneral-Regular-2e" transform="translate(49.999985 0.40625)"/>
       <use xlink:href="#STIXGeneral-Regular-32" transform="translate(74.999969 0.40625)"/>
      </g>
     </g>
    </g>
    <g id="ytick_4">
     <g id="line2d_10">
      <g>
       <use xlink:href="#me744403638" x="51.615" y="157.909375" style="fill: #323034; stroke: #323034; stroke-width: 0.8"/>
      </g>
     </g>
     <g id="text_11">
      <!-- $\mathdefault{0.3}$ -->
      <g style="fill: #323034" transform="translate(24.615 163.373125) scale(0.16 -0.16)">
       <use xlink:href="#STIXGeneral-Regular-30" transform="translate(0 0.40625)"/>
       <use xlink:href="#STIXGeneral-Regular-2e" transform="translate(49.999985 0.40625)"/>
       <use xlink:href="#STIXGeneral-Regular-33" transform="translate(74.999969 0.40625)"/>
      </g>
     </g>
    </g>
    <g id="ytick_5">
     <g id="line2d_11">
      <g>
       <use xlink:href="#me744403638" x="51.615" y="109.494167" style="fill: #323034; stroke: #323034; stroke-width: 0.8"/>
      </g>
     </g>
     <g id="text_12">
      <!-- $\mathdefault{0.4}$ -->
      <g style="fill: #323034" transform="translate(24.615 114.957917) scale(0.16 -0.16)">
       <use xlink:href="#STIXGeneral-Regular-30" transform="translate(0 0.40625)"/>
       <use xlink:href="#STIXGeneral-Regular-2e" transform="translate(49.999985 0.40625)"/>
       <use xlink:href="#STIXGeneral-Regular-34" transform="translate(74.999969 0.40625)"/>
      </g>
     </g>
    </g>
    <g id="ytick_6">
     <g id="line2d_12">
      <g>
       <use xlink:href="#me744403638" x="51.615" y="61.078958" style="fill: #323034; stroke: #323034; stroke-width: 0.8"/>
      </g>
     </g>
     <g id="text_13">
      <!-- $\mathdefault{0.5}$ -->
      <g style="fill: #323034" transform="translate(24.615 66.542708) scale(0.16 -0.16)">
       <defs>
        <path id="STIXGeneral-Regular-35" d="M 2803 4358 
L 2573 3814 
Q 2534 3731 2400 3731 
L 1158 3731 
L 902 3187 
Q 1606 3053 1920 2896 
Q 2234 2739 2502 2368 
Q 2726 2061 2726 1555 
Q 2726 1094 2576 780 
Q 2426 467 2099 224 
Q 1664 -90 1011 -90 
Q 646 -90 422 19 
Q 198 128 198 307 
Q 198 550 486 550 
Q 717 550 960 352 
Q 1210 147 1414 147 
Q 1747 147 2012 480 
Q 2278 813 2278 1229 
Q 2278 1843 1850 2189 
Q 1293 2637 486 2637 
Q 410 2637 410 2688 
L 416 2720 
L 1114 4237 
L 2438 4237 
Q 2547 4237 2608 4269 
Q 2669 4301 2746 4403 
L 2803 4358 
z
" transform="scale(0.015625)"/>
       </defs>
       <use xlink:href="#STIXGeneral-Regular-30" transform="translate(0 0.203125)"/>
       <use xlink:href="#STIXGeneral-Regular-2e" transform="translate(49.999985 0.203125)"/>
       <use xlink:href="#STIXGeneral-Regular-35" transform="translate(74.999969 0.203125)"/>
      </g>
     </g>
    </g>
    <g id="ytick_7">
     <g id="line2d_13">
      <g>
       <use xlink:href="#me744403638" x="51.615" y="12.66375" style="fill: #323034; stroke: #323034; stroke-width: 0.8"/>
      </g>
     </g>
     <g id="text_14">
      <!-- $\mathdefault{0.6}$ -->
      <g style="fill: #323034" transform="translate(24.615 18.1275) scale(0.16 -0.16)">
       <defs>
        <path id="STIXGeneral-Regular-36" d="M 2854 4378 
L 2867 4275 
Q 2112 4154 1606 3664 
Q 1101 3174 973 2451 
Q 1344 2739 1786 2739 
Q 2349 2739 2672 2380 
Q 2995 2022 2995 1402 
Q 2995 774 2669 378 
Q 2291 -90 1651 -90 
Q 870 -90 518 557 
Q 218 1107 218 1786 
Q 218 2835 915 3552 
Q 1312 3962 1731 4131 
Q 2150 4301 2854 4378 
z
M 2419 1203 
Q 2419 2445 1555 2445 
Q 1235 2445 1024 2275 
Q 813 2106 813 1702 
Q 813 954 1046 522 
Q 1280 90 1722 90 
Q 2061 90 2240 394 
Q 2419 698 2419 1203 
z
" transform="scale(0.015625)"/>
       </defs>
       <use xlink:href="#STIXGeneral-Regular-30" transform="translate(0 0.59375)"/>
       <use xlink:href="#STIXGeneral-Regular-2e" transform="translate(49.999985 0.59375)"/>
       <use xlink:href="#STIXGeneral-Regular-36" transform="translate(74.999969 0.59375)"/>
      </g>
     </g>
    </g>
    <g id="text_15">
     <!-- Density -->
     <g transform="translate(18.1275 182.798125) rotate(-90) scale(0.16 -0.16)">
      <defs>
       <path id="STIXGeneral-Regular-44" d="M 102 4237 
L 1830 4237 
Q 3078 4237 3750 3654 
Q 4384 3110 4384 2138 
Q 4384 966 3514 410 
Q 2880 0 1901 0 
L 102 0 
L 102 122 
Q 474 147 570 252 
Q 666 358 666 736 
L 666 3520 
Q 666 3891 570 3990 
Q 474 4090 102 4115 
L 102 4237 
z
M 1318 3731 
L 1318 538 
Q 1318 365 1379 301 
Q 1440 237 1626 237 
Q 2125 237 2432 307 
Q 2739 378 3021 570 
Q 3686 1018 3686 2099 
Q 3686 3027 3078 3558 
Q 2803 3802 2476 3901 
Q 2150 4000 1658 4000 
Q 1472 4000 1395 3942 
Q 1318 3885 1318 3731 
z
" transform="scale(0.015625)"/>
       <path id="STIXGeneral-Regular-65" d="M 2611 1050 
L 2714 1005 
Q 2330 -64 1376 -64 
Q 813 -64 486 329 
Q 160 723 160 1389 
Q 160 2074 525 2509 
Q 890 2944 1485 2944 
Q 2061 2944 2374 2502 
Q 2560 2246 2592 1773 
L 621 1773 
Q 646 1370 700 1158 
Q 755 947 915 730 
Q 1184 378 1626 378 
Q 1939 378 2153 531 
Q 2368 685 2611 1050 
z
M 634 1978 
L 1939 1978 
Q 1882 2381 1750 2547 
Q 1619 2714 1312 2714 
Q 1043 2714 864 2525 
Q 685 2336 634 1978 
z
" transform="scale(0.015625)"/>
       <path id="STIXGeneral-Regular-6e" d="M 3104 0 
L 1773 0 
L 1779 96 
Q 2016 115 2096 233 
Q 2176 352 2176 672 
L 2176 1946 
Q 2176 2592 1709 2592 
Q 1549 2592 1408 2515 
Q 1267 2438 1050 2227 
L 1050 461 
Q 1050 269 1136 192 
Q 1222 115 1466 96 
L 1466 0 
L 115 0 
L 115 96 
Q 358 115 435 214 
Q 512 314 512 602 
L 512 2157 
Q 512 2394 467 2483 
Q 422 2573 288 2573 
Q 160 2573 102 2547 
L 102 2656 
Q 550 2784 979 2944 
L 1030 2925 
L 1030 2426 
L 1037 2426 
Q 1491 2944 1958 2944 
Q 2323 2944 2518 2688 
Q 2714 2432 2714 1958 
L 2714 544 
Q 2714 288 2790 205 
Q 2867 122 3104 96 
L 3104 0 
z
" transform="scale(0.015625)"/>
       <path id="STIXGeneral-Regular-73" d="M 998 1926 
L 1664 1523 
Q 1984 1331 2105 1164 
Q 2227 998 2227 736 
Q 2227 416 1961 176 
Q 1696 -64 1331 -64 
Q 1030 -64 864 -6 
Q 691 51 570 51 
Q 461 51 416 -26 
L 333 -26 
L 333 979 
L 435 979 
Q 538 512 730 294 
Q 922 77 1248 77 
Q 1485 77 1632 211 
Q 1779 346 1779 550 
Q 1779 845 1440 1030 
L 1094 1222 
Q 326 1651 326 2150 
Q 326 2522 566 2730 
Q 806 2938 1210 2938 
Q 1491 2938 1638 2867 
Q 1754 2816 1818 2816 
Q 1862 2816 1920 2880 
L 1990 2880 
L 2022 2010 
L 1926 2010 
Q 1818 2445 1654 2621 
Q 1491 2797 1203 2797 
Q 986 2797 854 2688 
Q 723 2579 723 2362 
Q 723 2253 796 2128 
Q 870 2003 998 1926 
z
" transform="scale(0.015625)"/>
       <path id="STIXGeneral-Regular-69" d="M 1152 4045 
Q 1152 3904 1056 3811 
Q 960 3718 819 3718 
Q 685 3718 592 3811 
Q 499 3904 499 4045 
Q 499 4179 595 4275 
Q 691 4371 826 4371 
Q 966 4371 1059 4275 
Q 1152 4179 1152 4045 
z
M 1619 0 
L 102 0 
L 102 96 
Q 435 115 521 211 
Q 608 307 608 666 
L 608 2118 
Q 608 2342 563 2432 
Q 518 2522 397 2522 
Q 243 2522 128 2490 
L 128 2592 
L 1120 2944 
L 1146 2918 
L 1146 672 
Q 1146 314 1226 218 
Q 1306 122 1619 96 
L 1619 0 
z
" transform="scale(0.015625)"/>
       <path id="STIXGeneral-Regular-79" d="M 3040 2880 
L 3040 2784 
Q 2925 2771 2854 2700 
Q 2784 2630 2720 2458 
L 1760 -160 
Q 1510 -838 1257 -1116 
Q 1005 -1395 640 -1395 
Q 435 -1395 313 -1289 
Q 192 -1184 192 -1024 
Q 192 -902 272 -816 
Q 352 -730 467 -730 
Q 653 -730 800 -813 
Q 883 -858 966 -858 
Q 1101 -858 1286 -576 
Q 1376 -448 1459 -211 
Q 1542 26 1542 115 
Q 1542 198 1274 762 
L 429 2566 
Q 346 2752 90 2790 
L 90 2880 
L 1402 2880 
L 1402 2784 
Q 1197 2778 1117 2739 
Q 1037 2701 1037 2611 
Q 1037 2541 1120 2349 
L 1837 749 
L 2458 2515 
Q 2483 2573 2483 2630 
Q 2483 2784 2189 2784 
L 2189 2880 
L 3040 2880 
z
" transform="scale(0.015625)"/>
      </defs>
      <use xlink:href="#STIXGeneral-Regular-44"/>
      <use xlink:href="#STIXGeneral-Regular-65" transform="translate(72.199982 0)"/>
      <use xlink:href="#STIXGeneral-Regular-6e" transform="translate(116.599976 0)"/>
      <use xlink:href="#STIXGeneral-Regular-73" transform="translate(166.59996 0)"/>
      <use xlink:href="#STIXGeneral-Regular-69" transform="translate(205.499954 0)"/>
      <use xlink:href="#STIXGeneral-Regular-74" transform="translate(233.299942 0)"/>
      <use xlink:href="#STIXGeneral-Regular-79" transform="translate(261.09993 0)"/>
     </g>
    </g>
   </g>
   <g id="patch_3">
    <path d="M 51.615 303.155 
L 51.615 12.66375 
" style="fill: none; stroke: #000000; stroke-width: 0.6; stroke-linejoin: miter; stroke-linecap: square"/>
   </g>
   <g id="patch_4">
    <path d="M 51.615 303.155 
L 332.211515 303.155 
" style="fill: none; stroke: #000000; stroke-width: 0.6; stroke-linejoin: miter; stroke-linecap: square"/>
   </g>
  </g>
  <g id="legend_1">
   <g id="text_16">
    <!-- cut -->
    <g style="fill: #323034" transform="translate(385.449702 138.788437) scale(0.16 -0.16)">
     <defs>
      <path id="STIXGeneral-Regular-75" d="M 3072 320 
L 3072 230 
Q 2573 96 2195 -58 
L 2163 -38 
L 2163 486 
L 2150 486 
Q 1747 -64 1235 -64 
Q 870 -64 662 160 
Q 454 384 454 755 
L 454 2362 
Q 454 2598 371 2688 
Q 288 2778 58 2790 
L 58 2880 
L 992 2880 
L 992 813 
Q 992 595 1123 451 
Q 1254 307 1446 307 
Q 1760 307 1984 506 
Q 2067 582 2099 649 
Q 2131 717 2131 877 
L 2131 2355 
Q 2131 2605 2041 2678 
Q 1952 2752 1658 2771 
L 1658 2880 
L 2669 2880 
L 2669 685 
Q 2669 461 2742 390 
Q 2816 320 3034 320 
L 3072 320 
z
" transform="scale(0.015625)"/>
     </defs>
     <use xlink:href="#STIXGeneral-Regular-63"/>
     <use xlink:href="#STIXGeneral-Regular-75" transform="translate(44.399994 0)"/>
     <use xlink:href="#STIXGeneral-Regular-74" transform="translate(94.399979 0)"/>
    </g>
   </g>
   <g id="patch_5">
    <path d="M 351.59939 155.460938 
L 375.59939 155.460938 
L 375.59939 147.060937 
L 351.59939 147.060937 
z
" style="fill: #bc80bd; fill-opacity: 0.25; stroke: #bc80bd; stroke-width: 0.8; stroke-linejoin: miter"/>
   </g>
   <g id="text_17">
    <!-- Ideal -->
    <g style="fill: #323034" transform="translate(385.19939 155.460938) scale(0.12 -0.12)">
     <defs>
      <path id="STIXGeneral-Regular-49" d="M 2016 0 
L 115 0 
L 115 122 
Q 518 134 627 240 
Q 736 346 736 717 
L 736 3526 
Q 736 3898 633 3994 
Q 531 4090 115 4115 
L 115 4237 
L 2016 4237 
L 2016 4115 
Q 1613 4096 1501 3993 
Q 1389 3891 1389 3526 
L 1389 717 
Q 1389 358 1504 246 
Q 1619 134 2016 122 
L 2016 0 
z
" transform="scale(0.015625)"/>
      <path id="STIXGeneral-Regular-64" d="M 3142 269 
L 2202 -64 
L 2176 -45 
L 2176 365 
Q 1869 -64 1357 -64 
Q 826 -64 499 317 
Q 173 698 173 1312 
Q 173 1990 563 2467 
Q 954 2944 1504 2944 
Q 1850 2944 2176 2669 
L 2176 3667 
Q 2176 3866 2118 3930 
Q 2061 3994 1882 3994 
Q 1792 3994 1741 3987 
L 1741 4090 
Q 2323 4243 2682 4371 
L 2714 4358 
L 2714 730 
Q 2714 506 2768 435 
Q 2822 365 2995 365 
Q 3034 365 3142 371 
L 3142 269 
z
M 2176 653 
L 2176 2125 
Q 2176 2381 1981 2573 
Q 1786 2765 1523 2765 
Q 1158 2765 940 2438 
Q 723 2112 723 1568 
Q 723 979 963 624 
Q 1203 269 1606 269 
Q 1907 269 2080 474 
Q 2176 582 2176 653 
z
" transform="scale(0.015625)"/>
      <path id="STIXGeneral-Regular-6c" d="M 1645 0 
L 134 0 
L 134 96 
Q 435 122 531 221 
Q 627 320 627 589 
L 627 3590 
Q 627 3821 569 3910 
Q 512 4000 358 4000 
Q 224 4000 122 3987 
L 122 4090 
Q 730 4237 1133 4371 
L 1165 4346 
L 1165 557 
Q 1165 288 1254 201 
Q 1344 115 1645 96 
L 1645 0 
z
" transform="scale(0.015625)"/>
     </defs>
     <use xlink:href="#STIXGeneral-Regular-49"/>
     <use xlink:href="#STIXGeneral-Regular-64" transform="translate(33.299988 0)"/>
     <use xlink:href="#STIXGeneral-Regular-65" transform="translate(83.299973 0)"/>
     <use xlink:href="#STIXGeneral-Regular-61" transform="translate(127.699966 0)"/>
     <use xlink:href="#STIXGeneral-Regular-6c" transform="translate(172.09996 0)"/>
    </g>
   </g>
   <g id="patch_6">
    <path d="M 351.59939 171.265312 
L 375.59939 171.265312 
L 375.59939 162.865312 
L 351.59939 162.865312 
z
" style="fill: #fb8072; fill-opacity: 0.25; stroke: #fb8072; stroke-width: 0.8; stroke-linejoin: miter"/>
   </g>
   <g id="text_18">
    <!-- Premium -->
    <g style="fill: #323034" transform="translate(385.19939 171.265312) scale(0.12 -0.12)">
     <defs>
      <path id="STIXGeneral-Regular-50" d="M 102 4237 
L 1760 4237 
Q 2669 4237 3149 3834 
Q 3469 3565 3469 3072 
Q 3469 2560 3104 2234 
Q 2835 1990 2553 1916 
Q 2272 1843 1734 1843 
Q 1549 1843 1293 1862 
L 1293 717 
Q 1293 352 1398 246 
Q 1504 141 1894 122 
L 1894 0 
L 102 0 
L 102 122 
Q 474 147 557 256 
Q 640 365 640 781 
L 640 3526 
Q 640 3885 547 3987 
Q 454 4090 102 4115 
L 102 4237 
z
M 1293 3770 
L 1293 2118 
Q 1510 2099 1683 2099 
Q 2202 2099 2486 2352 
Q 2771 2605 2771 3040 
Q 2771 3558 2476 3779 
Q 2182 4000 1517 4000 
Q 1382 4000 1337 3952 
Q 1293 3904 1293 3770 
z
" transform="scale(0.015625)"/>
      <path id="STIXGeneral-Regular-6d" d="M 4960 0 
L 3565 0 
L 3565 96 
Q 3834 122 3907 208 
Q 3981 294 3981 576 
L 3981 1894 
Q 3981 2278 3869 2444 
Q 3757 2611 3488 2611 
Q 3264 2611 3107 2521 
Q 2950 2432 2803 2221 
L 2803 608 
Q 2803 301 2896 201 
Q 2989 102 3264 96 
L 3264 0 
L 1830 0 
L 1830 96 
Q 2112 115 2189 188 
Q 2266 262 2266 550 
L 2266 1901 
Q 2266 2611 1850 2611 
Q 1670 2611 1468 2531 
Q 1267 2451 1171 2336 
Q 1088 2240 1088 2227 
L 1088 448 
Q 1088 243 1177 176 
Q 1267 109 1523 96 
L 1523 0 
L 102 0 
L 102 96 
Q 371 102 460 195 
Q 550 288 550 563 
L 550 2150 
Q 550 2387 499 2480 
Q 448 2573 326 2573 
Q 230 2573 122 2547 
L 122 2656 
Q 557 2778 1011 2944 
L 1062 2925 
L 1062 2451 
L 1075 2451 
Q 1363 2752 1584 2848 
Q 1805 2944 2054 2944 
Q 2560 2944 2733 2406 
Q 3232 2944 3776 2944 
Q 4518 2944 4518 1792 
L 4518 493 
Q 4518 282 4582 202 
Q 4646 122 4794 109 
L 4960 96 
L 4960 0 
z
" transform="scale(0.015625)"/>
     </defs>
     <use xlink:href="#STIXGeneral-Regular-50"/>
     <use xlink:href="#STIXGeneral-Regular-72" transform="translate(55.699997 0)"/>
     <use xlink:href="#STIXGeneral-Regular-65" transform="translate(88.999985 0)"/>
     <use xlink:href="#STIXGeneral-Regular-6d" transform="translate(133.399979 0)"/>
     <use xlink:href="#STIXGeneral-Regular-69" transform="translate(211.199966 0)"/>
     <use xlink:href="#STIXGeneral-Regular-75" transform="translate(238.999954 0)"/>
     <use xlink:href="#STIXGeneral-Regular-6d" transform="translate(288.999939 0)"/>
    </g>
   </g>
   <g id="patch_7">
    <path d="M 351.59939 187.069687 
L 375.59939 187.069687 
L 375.59939 178.669687 
L 351.59939 178.669687 
z
" style="fill: #b3de69; fill-opacity: 0.25; stroke: #b3de69; stroke-width: 0.8; stroke-linejoin: miter"/>
   </g>
   <g id="text_19">
    <!-- Very Good -->
    <g style="fill: #323034" transform="translate(385.19939 187.069687) scale(0.12 -0.12)">
     <defs>
      <path id="STIXGeneral-Regular-56" d="M 4461 4237 
L 4461 4115 
Q 4262 4109 4134 3990 
Q 4006 3872 3872 3533 
L 2451 -70 
L 2355 -70 
L 794 3411 
Q 589 3866 467 3987 
Q 346 4109 102 4115 
L 102 4237 
L 1798 4237 
L 1798 4115 
L 1619 4102 
Q 1331 4083 1331 3904 
Q 1331 3776 1581 3219 
L 2554 1030 
L 3494 3392 
Q 3616 3699 3616 3853 
Q 3616 3898 3606 3933 
Q 3597 3968 3584 3993 
Q 3571 4019 3536 4038 
Q 3501 4058 3481 4067 
Q 3462 4077 3411 4086 
Q 3360 4096 3337 4099 
Q 3315 4102 3248 4108 
Q 3181 4115 3155 4115 
L 3155 4237 
L 4461 4237 
z
" transform="scale(0.015625)"/>
      <path id="STIXGeneral-Regular-20" transform="scale(0.015625)"/>
      <path id="STIXGeneral-Regular-47" d="M 4538 2266 
L 4538 2150 
Q 4256 2125 4173 2035 
Q 4090 1946 4090 1638 
L 4090 358 
Q 3539 -90 2464 -90 
Q 1965 -90 1507 89 
Q 1050 269 736 595 
Q 205 1152 205 2093 
Q 205 3155 890 3776 
Q 1491 4326 2419 4326 
Q 2829 4326 3270 4179 
Q 3443 4115 3552 4115 
Q 3654 4115 3731 4176 
Q 3808 4237 3840 4326 
L 3981 4326 
L 4032 2976 
L 3885 2976 
Q 3680 3475 3430 3718 
Q 3059 4070 2496 4070 
Q 1856 4070 1427 3629 
Q 934 3136 934 2074 
Q 934 1190 1395 678 
Q 1856 166 2618 166 
Q 2982 166 3225 281 
Q 3469 397 3469 557 
L 3469 1562 
Q 3469 1933 3376 2025 
Q 3283 2118 2899 2150 
L 2899 2266 
L 4538 2266 
z
" transform="scale(0.015625)"/>
      <path id="STIXGeneral-Regular-6f" d="M 3008 1478 
Q 3008 806 2608 371 
Q 2208 -64 1568 -64 
Q 979 -64 582 368 
Q 186 800 186 1459 
Q 186 2125 582 2534 
Q 979 2944 1626 2944 
Q 2221 2944 2614 2537 
Q 3008 2131 3008 1478 
z
M 2432 1306 
Q 2432 2035 2112 2445 
Q 1856 2765 1504 2765 
Q 1171 2765 966 2493 
Q 762 2221 762 1747 
Q 762 928 1101 435 
Q 1318 115 1677 115 
Q 2029 115 2230 432 
Q 2432 749 2432 1306 
z
" transform="scale(0.015625)"/>
     </defs>
     <use xlink:href="#STIXGeneral-Regular-56"/>
     <use xlink:href="#STIXGeneral-Regular-65" transform="translate(72.199982 0)"/>
     <use xlink:href="#STIXGeneral-Regular-72" transform="translate(116.599976 0)"/>
     <use xlink:href="#STIXGeneral-Regular-79" transform="translate(149.899963 0)"/>
     <use xlink:href="#STIXGeneral-Regular-20" transform="translate(199.899948 0)"/>
     <use xlink:href="#STIXGeneral-Regular-47" transform="translate(224.899933 0)"/>
     <use xlink:href="#STIXGeneral-Regular-6f" transform="translate(297.099915 0)"/>
     <use xlink:href="#STIXGeneral-Regular-6f" transform="translate(347.099899 0)"/>
     <use xlink:href="#STIXGeneral-Regular-64" transform="translate(397.099884 0)"/>
    </g>
   </g>
   <g id="patch_8">
    <path d="M 351.59939 202.885312 
L 375.59939 202.885312 
L 375.59939 194.485312 
L 351.59939 194.485312 
z
" style="fill: #fdb462; fill-opacity: 0.25; stroke: #fdb462; stroke-width: 0.8; stroke-linejoin: miter"/>
   </g>
   <g id="text_20">
    <!-- Good -->
    <g style="fill: #323034" transform="translate(385.19939 202.885312) scale(0.12 -0.12)">
     <use xlink:href="#STIXGeneral-Regular-47"/>
     <use xlink:href="#STIXGeneral-Regular-6f" transform="translate(72.199982 0)"/>
     <use xlink:href="#STIXGeneral-Regular-6f" transform="translate(122.199966 0)"/>
     <use xlink:href="#STIXGeneral-Regular-64" transform="translate(172.199951 0)"/>
    </g>
   </g>
   <g id="patch_9">
    <path d="M 351.59939 218.689687 
L 375.59939 218.689687 
L 375.59939 210.289687 
L 351.59939 210.289687 
z
" style="fill: #fccde5; fill-opacity: 0.25; stroke: #fccde5; stroke-width: 0.8; stroke-linejoin: miter"/>
   </g>
   <g id="text_21">
    <!-- Fair -->
    <g style="fill: #323034" transform="translate(385.19939 218.689687) scale(0.12 -0.12)">
     <defs>
      <path id="STIXGeneral-Regular-46" d="M 3494 3322 
L 3334 3322 
Q 3264 3757 3094 3875 
Q 2925 3994 2349 3994 
L 1504 3994 
Q 1370 3994 1328 3946 
Q 1286 3898 1286 3744 
L 1286 2355 
L 2195 2355 
Q 2598 2355 2736 2470 
Q 2874 2586 2918 2963 
L 3066 2963 
L 3066 1472 
L 2918 1472 
Q 2880 1862 2745 1977 
Q 2611 2093 2195 2093 
L 1286 2093 
L 1286 717 
Q 1286 352 1392 246 
Q 1498 141 1869 122 
L 1869 0 
L 70 0 
L 70 122 
Q 435 147 534 259 
Q 634 371 634 787 
L 634 3526 
Q 634 3878 538 3984 
Q 442 4090 77 4115 
L 77 4237 
L 3462 4237 
L 3494 3322 
z
" transform="scale(0.015625)"/>
     </defs>
     <use xlink:href="#STIXGeneral-Regular-46"/>
     <use xlink:href="#STIXGeneral-Regular-61" transform="translate(55.599991 0)"/>
     <use xlink:href="#STIXGeneral-Regular-69" transform="translate(99.999985 0)"/>
     <use xlink:href="#STIXGeneral-Regular-72" transform="translate(127.799973 0)"/>
    </g>
   </g>
  </g>
 </g>
 <defs>
  <clipPath id="p841fda2014">
   <rect x="51.615" y="12.66375" width="280.596515" height="290.49125"/>
  </clipPath>
 </defs>
</svg>
