<?xml version="1.0" encoding="UTF-8" standalone="no"?>
<!DOCTYPE svg PUBLIC "-//W3C//DTD SVG 1.1//EN"
 "http://www.w3.org/Graphics/SVG/1.1/DTD/svg11.dtd">
<!-- Generated by graphviz version 12.2.1 (20241206.2353)
 -->
<!-- Pages: 1 -->
<svg width="274pt" height="260pt"
 viewBox="0.00 0.00 273.80 260.00" xmlns="http://www.w3.org/2000/svg" xmlns:xlink="http://www.w3.org/1999/xlink">
<g id="graph0" class="graph" transform="scale(1 1) rotate(0) translate(4 256)">
<polygon fill="white" stroke="none" points="-4,4 -4,-256 269.8,-256 269.8,4 -4,4"/>
<!-- A -->
<g id="node1" class="node">
<title>A</title>
<ellipse fill="none" stroke="black" cx="156.15" cy="-234" rx="40.6" ry="18"/>
<text text-anchor="middle" x="156.15" y="-228.95" font-family="Times,serif" font-size="14.00">Utilities</text>
</g>
<!-- B -->
<g id="node2" class="node">
<title>B</title>
<ellipse fill="none" stroke="black" cx="64.15" cy="-162" rx="64.15" ry="18"/>
<text text-anchor="middle" x="64.15" y="-156.95" font-family="Times,serif" font-size="14.00">Data Cleaning</text>
</g>
<!-- A&#45;&gt;B -->
<g id="edge1" class="edge">
<title>A&#45;&gt;B</title>
<path fill="none" stroke="black" d="M136.64,-218.15C124.46,-208.89 108.54,-196.78 94.72,-186.26"/>
<polygon fill="black" stroke="black" points="96.84,-183.48 86.76,-180.21 92.6,-189.05 96.84,-183.48"/>
</g>
<!-- C -->
<g id="node3" class="node">
<title>C</title>
<ellipse fill="none" stroke="black" cx="123.15" cy="-90" rx="43.16" ry="18"/>
<text text-anchor="middle" x="123.15" y="-84.95" font-family="Times,serif" font-size="14.00">Analysis</text>
</g>
<!-- A&#45;&gt;C -->
<g id="edge2" class="edge">
<title>A&#45;&gt;C</title>
<path fill="none" stroke="black" d="M152.75,-215.88C149.12,-197.92 143.09,-168.9 137.15,-144 135.22,-135.91 132.97,-127.18 130.86,-119.17"/>
<polygon fill="black" stroke="black" points="134.26,-118.35 128.29,-109.6 127.5,-120.16 134.26,-118.35"/>
</g>
<!-- D -->
<g id="node4" class="node">
<title>D</title>
<ellipse fill="none" stroke="black" cx="158.15" cy="-18" rx="107.65" ry="18"/>
<text text-anchor="middle" x="158.15" y="-12.95" font-family="Times,serif" font-size="14.00">Generate Plots and Tables</text>
</g>
<!-- A&#45;&gt;D -->
<g id="edge3" class="edge">
<title>A&#45;&gt;D</title>
<path fill="none" stroke="black" d="M161.19,-216.02C169.24,-186.6 183.33,-124.28 175.15,-72 173.86,-63.79 171.52,-55.11 168.98,-47.21"/>
<polygon fill="black" stroke="black" points="172.29,-46.07 165.71,-37.77 165.67,-48.36 172.29,-46.07"/>
</g>
<!-- B&#45;&gt;C -->
<g id="edge4" class="edge">
<title>B&#45;&gt;C</title>
<path fill="none" stroke="black" d="M78.43,-144.05C85.56,-135.59 94.33,-125.19 102.21,-115.84"/>
<polygon fill="black" stroke="black" points="104.66,-118.37 108.43,-108.46 99.31,-113.85 104.66,-118.37"/>
</g>
<!-- C&#45;&gt;D -->
<g id="edge5" class="edge">
<title>C&#45;&gt;D</title>
<path fill="none" stroke="black" d="M131.62,-72.05C135.47,-64.35 140.13,-55.03 144.46,-46.36"/>
<polygon fill="black" stroke="black" points="147.49,-48.14 148.83,-37.63 141.23,-45.01 147.49,-48.14"/>
</g>
</g>
</svg>
