<?xml version="1.0" encoding="utf-8" standalone="no"?>
<!DOCTYPE svg PUBLIC "-//W3C//DTD SVG 1.1//EN"
  "http://www.w3.org/Graphics/SVG/1.1/DTD/svg11.dtd">
<svg xmlns:xlink="http://www.w3.org/1999/xlink" width="513.001219pt" height="279.238266pt" viewBox="0 0 513.001219 279.238266" xmlns="http://www.w3.org/2000/svg" version="1.1">
 <metadata>
  <rdf:RDF xmlns:dc="http://purl.org/dc/elements/1.1/" xmlns:cc="http://creativecommons.org/ns#" xmlns:rdf="http://www.w3.org/1999/02/22-rdf-syntax-ns#">
   <cc:Work>
    <dc:type rdf:resource="http://purl.org/dc/dcmitype/StillImage"/>
    <dc:date>2024-01-05T14:08:16.313549</dc:date>
    <dc:format>image/svg+xml</dc:format>
    <dc:creator>
     <cc:Agent>
      <dc:title>Matplotlib v3.8.2, https://matplotlib.org/</dc:title>
     </cc:Agent>
    </dc:creator>
   </cc:Work>
  </rdf:RDF>
 </metadata>
 <defs>
  <style type="text/css">*{stroke-linejoin: round; stroke-linecap: butt}</style>
 </defs>
 <g id="figure_1">
  <g id="patch_1">
   <path d="M 0 279.238266 
L 513.001219 279.238266 
L 513.001219 0 
L 0 0 
z
" style="fill: #ffffff"/>
  </g>
  <g id="axes_1">
   <g id="patch_2">
    <path d="M 59.401219 208.50375 
L 505.801219 208.50375 
L 505.801219 12.66375 
L 59.401219 12.66375 
z
" style="fill: #ffffff"/>
   </g>
   <g id="PolyCollection_1">
    <defs>
     <path id="m56d4f6283c" d="M 79.692128 -131.386518 
L 79.692128 -111.114548 
L 80.195001 -111.764429 
L 80.697873 -112.460277 
L 82.206491 -113.145394 
L 82.709364 -113.79383 
L 83.212236 -114.40235 
L 83.715109 -115.035399 
L 84.217982 -115.659857 
L 86.229472 -116.343592 
L 86.732345 -117.062519 
L 87.235217 -117.755212 
L 87.73809 -118.488932 
L 89.246707 -119.279936 
L 89.74958 -120.100108 
L 90.252453 -120.955008 
L 90.755325 -121.879313 
L 91.258198 -122.708335 
L 92.766816 -123.586188 
L 93.269688 -124.524095 
L 93.772561 -125.564859 
L 94.275433 -126.738977 
L 94.778306 -127.297447 
L 96.286924 -127.91262 
L 96.789796 -128.520295 
L 97.292669 -129.053304 
L 97.795542 -129.534474 
L 98.298414 -130.00473 
L 99.807032 -130.421623 
L 100.309904 -130.886511 
L 100.812777 -131.28888 
L 101.31565 -131.580147 
L 101.818522 -131.851742 
L 103.32714 -132.106161 
L 103.830013 -132.328201 
L 104.332885 -132.519764 
L 104.835758 -132.716333 
L 105.33863 -132.903031 
L 106.847248 -132.9186 
L 107.350121 -132.935719 
L 107.852993 -133.053685 
L 108.355866 -133.01719 
L 108.858739 -132.978906 
L 110.367356 -132.986777 
L 110.870229 -133.072928 
L 111.373102 -133.288463 
L 111.875974 -133.516796 
L 113.887464 -133.773838 
L 114.390337 -134.012916 
L 114.89321 -134.274382 
L 115.396082 -134.575596 
L 115.898955 -134.813698 
L 117.407573 -135.061931 
L 117.910445 -135.361437 
L 118.413318 -135.610272 
L 118.91619 -135.95239 
L 119.419063 -136.209719 
L 120.927681 -136.524307 
L 121.430553 -136.866441 
L 121.933426 -137.207285 
L 122.436299 -137.424055 
L 122.939171 -137.593994 
L 124.447789 -137.675917 
L 124.950662 -137.810412 
L 125.453534 -137.894634 
L 125.956407 -137.899801 
L 126.459279 -137.845193 
L 127.967897 -137.973249 
L 128.47077 -138.0707 
L 128.973642 -138.208915 
L 129.476515 -138.422077 
L 129.979387 -138.651818 
L 131.488005 -138.914499 
L 131.990878 -139.046078 
L 132.49375 -139.308973 
L 132.996623 -139.516761 
L 133.499496 -139.633031 
L 135.510986 -139.733463 
L 136.013859 -139.787692 
L 136.516731 -139.723305 
L 137.019604 -139.779929 
L 138.528221 -139.871154 
L 139.031094 -139.991538 
L 139.533967 -139.981743 
L 140.036839 -140.009773 
L 140.539712 -140.089229 
L 142.04833 -140.203738 
L 142.551202 -140.245299 
L 143.054075 -140.230596 
L 143.556947 -140.200979 
L 144.05982 -140.173629 
L 145.568438 -140.168449 
L 146.07131 -140.186598 
L 146.574183 -140.202372 
L 147.077056 -140.198424 
L 147.579928 -140.185084 
L 149.088546 -140.133152 
L 149.591419 -140.109917 
L 150.094291 -140.062178 
L 150.597164 -140.045923 
L 151.100036 -140.016768 
L 152.608654 -139.937071 
L 153.614399 -139.831982 
L 154.117272 -139.71099 
L 154.620144 -139.710349 
L 156.128762 -139.683337 
L 156.631635 -139.609452 
L 157.134507 -139.500169 
L 157.63738 -139.423279 
L 158.140253 -139.407347 
L 159.64887 -139.397944 
L 160.151743 -139.489866 
L 160.654616 -139.691568 
L 161.157488 -139.860434 
L 161.660361 -140.117364 
L 163.168979 -140.426298 
L 163.671851 -140.847359 
L 164.174724 -141.062682 
L 164.677596 -141.359692 
L 165.180469 -141.631655 
L 166.689087 -141.941626 
L 167.191959 -142.266538 
L 167.694832 -142.63405 
L 168.197704 -143.138716 
L 168.700577 -143.53946 
L 170.209195 -144.089191 
L 170.712067 -144.642485 
L 171.21494 -145.251306 
L 171.717813 -145.833787 
L 172.220685 -146.559002 
L 173.729303 -147.199377 
L 174.232176 -147.807048 
L 174.735048 -148.358197 
L 175.237921 -148.830859 
L 175.740793 -149.105345 
L 177.249411 -149.230915 
L 177.752284 -149.450843 
L 178.255156 -149.68576 
L 178.758029 -149.830008 
L 179.260901 -150.053131 
L 180.769519 -150.273387 
L 181.272392 -150.413816 
L 181.775264 -150.478512 
L 182.278137 -150.583523 
L 182.78101 -150.857222 
L 184.7925 -151.236392 
L 185.295373 -151.702923 
L 185.798245 -152.103673 
L 186.301118 -152.085859 
L 187.809736 -152.160785 
L 188.312608 -152.260332 
L 188.815481 -152.292407 
L 189.318353 -152.296489 
L 189.821226 -152.198837 
L 191.329844 -152.234261 
L 191.832716 -152.192308 
L 192.335589 -152.138084 
L 192.838461 -152.058578 
L 193.341334 -152.011823 
L 194.849952 -152.033374 
L 195.352824 -151.985221 
L 195.855697 -151.887163 
L 196.35857 -151.842519 
L 196.861442 -151.776316 
L 198.37006 -151.586136 
L 198.872933 -151.366501 
L 199.375805 -151.160365 
L 199.878678 -150.93042 
L 200.38155 -150.75917 
L 201.890168 -150.636509 
L 202.393041 -150.556846 
L 202.895913 -150.573725 
L 203.398786 -150.625391 
L 203.901658 -150.680645 
L 205.410276 -150.824266 
L 205.913149 -150.902826 
L 206.416021 -150.976952 
L 206.918894 -151.075785 
L 207.421767 -151.239379 
L 208.930384 -151.383247 
L 209.433257 -151.589096 
L 209.93613 -151.808729 
L 210.439002 -152.144745 
L 210.941875 -152.622961 
L 212.450493 -153.195177 
L 212.953365 -153.868069 
L 213.456238 -154.405193 
L 213.95911 -154.903386 
L 214.461983 -155.472746 
L 215.970601 -156.033181 
L 216.473473 -156.632695 
L 216.976346 -157.218321 
L 217.479218 -157.892905 
L 217.982091 -158.476352 
L 219.490709 -159.085248 
L 219.993581 -159.695501 
L 220.496454 -160.329914 
L 220.999327 -160.953242 
L 221.502199 -161.644116 
L 223.010817 -162.258427 
L 223.51369 -162.704157 
L 224.016562 -163.136038 
L 225.022307 -163.589266 
L 226.530925 -164.409341 
L 227.033798 -165.265541 
L 227.53667 -166.208487 
L 228.039543 -167.158389 
L 228.542415 -168.300898 
L 230.051033 -169.496777 
L 230.553906 -170.141157 
L 231.056778 -170.483351 
L 231.559651 -170.649988 
L 232.062524 -171.008497 
L 233.571141 -171.213914 
L 234.074014 -171.200569 
L 234.576887 -171.182361 
L 235.079759 -171.187483 
L 235.582632 -171.18199 
L 237.09125 -171.171594 
L 237.594122 -171.081738 
L 238.096995 -171.016825 
L 238.599867 -170.841935 
L 239.10274 -170.707459 
L 241.11423 -170.514659 
L 241.617103 -170.387139 
L 242.119975 -169.654969 
L 242.622848 -168.47956 
L 244.634338 -167.991065 
L 245.137211 -167.251964 
L 245.640084 -166.183284 
L 246.142956 -165.37916 
L 247.651574 -165.118959 
L 248.154447 -164.891457 
L 248.657319 -164.806522 
L 249.160192 -164.881544 
L 249.663064 -164.954808 
L 251.674555 -165.038227 
L 252.177427 -165.099373 
L 252.6803 -165.184716 
L 253.183172 -165.219169 
L 254.69179 -165.261906 
L 255.194663 -165.304596 
L 255.697535 -165.355334 
L 256.200408 -165.374035 
L 256.703281 -165.375956 
L 258.211898 -165.395694 
L 258.714771 -165.418401 
L 259.217644 -165.425533 
L 259.720516 -165.441798 
L 260.223389 -165.537343 
L 261.732007 -165.623783 
L 262.234879 -165.725788 
L 262.737752 -165.899289 
L 263.240624 -165.98775 
L 263.743497 -166.07995 
L 265.252115 -166.132989 
L 265.754987 -166.147337 
L 266.25786 -166.092302 
L 266.760732 -165.965228 
L 267.263605 -165.680609 
L 269.275095 -165.649121 
L 269.777968 -165.474838 
L 270.280841 -165.242548 
L 270.783713 -165.053148 
L 272.292331 -164.830943 
L 272.795204 -164.677721 
L 273.298076 -164.618282 
L 273.800949 -164.58249 
L 274.303821 -164.465893 
L 275.812439 -164.456286 
L 276.315312 -164.502201 
L 276.818184 -164.639956 
L 277.321057 -164.843049 
L 277.82393 -165.039237 
L 279.332547 -165.236944 
L 279.83542 -165.831196 
L 280.338292 -166.764954 
L 280.841165 -167.198956 
L 281.344038 -167.640895 
L 282.852655 -168.479177 
L 283.355528 -169.027953 
L 283.858401 -169.094587 
L 284.361273 -169.086466 
L 284.864146 -168.776672 
L 286.372764 -168.468572 
L 286.875636 -168.363602 
L 287.378509 -168.438672 
L 287.881381 -168.540698 
L 289.892872 -168.53814 
L 290.395744 -168.465753 
L 290.898617 -168.363516 
L 291.401489 -168.24164 
L 291.904362 -168.05889 
L 293.41298 -167.97845 
L 293.915852 -167.919667 
L 294.418725 -167.908291 
L 294.921598 -167.882302 
L 295.42447 -167.928421 
L 296.933088 -167.95887 
L 297.435961 -167.939398 
L 297.938833 -167.919556 
L 298.441706 -167.905763 
L 298.944578 -167.925761 
L 300.453196 -167.947903 
L 300.956069 -167.998259 
L 301.458941 -168.123153 
L 301.961814 -168.263379 
L 302.464687 -168.521788 
L 303.973304 -168.884926 
L 304.476177 -169.455213 
L 304.979049 -169.692908 
L 305.481922 -170.156885 
L 305.984795 -170.762444 
L 307.493412 -171.331017 
L 307.996285 -171.983424 
L 308.499158 -172.577616 
L 309.00203 -173.034214 
L 309.504903 -173.447796 
L 311.013521 -174.099408 
L 311.516393 -174.647902 
L 312.019266 -175.059813 
L 312.522138 -175.506438 
L 313.025011 -175.872669 
L 314.533629 -176.157458 
L 315.036501 -176.44982 
L 315.539374 -176.642218 
L 316.042247 -176.879439 
L 316.545119 -177.345851 
L 318.556609 -178.313864 
L 319.059482 -179.298844 
L 319.562355 -180.57877 
L 320.065227 -181.935499 
L 321.573845 -183.383742 
L 322.076718 -185.228716 
L 322.57959 -186.949181 
L 323.082463 -188.476562 
L 323.585335 -189.270349 
L 325.093953 -190.119918 
L 325.596826 -190.375634 
L 326.099698 -190.560122 
L 326.602571 -190.702285 
L 327.105444 -190.79407 
L 328.614061 -190.811509 
L 329.116934 -190.835985 
L 329.619806 -190.845621 
L 330.122679 -190.942436 
L 330.625552 -190.996356 
L 332.134169 -191.079341 
L 332.637042 -191.199533 
L 333.139915 -190.99321 
L 333.642787 -190.523892 
L 334.14566 -190.165997 
L 335.654278 -189.892183 
L 336.15715 -189.801114 
L 337.162895 -189.790951 
L 337.665768 -189.794372 
L 339.174386 -189.900796 
L 339.677258 -189.894019 
L 340.180131 -189.860348 
L 340.683004 -189.818429 
L 341.185876 -189.71379 
L 342.694494 -189.536532 
L 343.197366 -189.549967 
L 343.700239 -189.641735 
L 344.203112 -189.745069 
L 344.705984 -189.931158 
L 346.214602 -190.141247 
L 346.717475 -190.43506 
L 347.220347 -190.746038 
L 347.72322 -191.17809 
L 348.226092 -191.59154 
L 349.73471 -192.063767 
L 350.237583 -192.626737 
L 350.740455 -193.451231 
L 351.243328 -194.275649 
L 351.746201 -195.184045 
L 353.254818 -196.075006 
L 353.757691 -197.000533 
L 354.260564 -197.876737 
L 354.763436 -198.952537 
L 355.266309 -200.018713 
L 356.774926 -200.982691 
L 357.277799 -201.833555 
L 357.780672 -202.729875 
L 358.283544 -203.820875 
L 358.786417 -204.742701 
L 360.295035 -205.701869 
L 360.797907 -206.730899 
L 361.30078 -207.763171 
L 361.803652 -208.922449 
L 362.306525 -210.035316 
L 363.815143 -211.231683 
L 364.318015 -212.468444 
L 364.820888 -213.64529 
L 365.323761 -214.795914 
L 365.826633 -216.054172 
L 367.838123 -217.665411 
L 368.340996 -219.528313 
L 368.843869 -221.395215 
L 369.346741 -222.219375 
L 370.855359 -222.831289 
L 371.358232 -223.321178 
L 371.861104 -223.863584 
L 372.363977 -224.554601 
L 372.866849 -225.114104 
L 374.375467 -225.683595 
L 374.87834 -226.364809 
L 375.381212 -227.015747 
L 375.884085 -227.365377 
L 376.386958 -227.890416 
L 377.895575 -228.063821 
L 378.398448 -227.760688 
L 378.901321 -227.6345 
L 379.404193 -227.808006 
L 379.907066 -228.076125 
L 381.415683 -227.486737 
L 381.918556 -226.325028 
L 382.421429 -225.40931 
L 382.924301 -224.962627 
L 383.427174 -224.420559 
L 384.935792 -223.603488 
L 385.438664 -221.924852 
L 385.941537 -220.212428 
L 386.444409 -218.109204 
L 386.947282 -216.621249 
L 388.4559 -215.407484 
L 388.958772 -213.686901 
L 389.461645 -211.219025 
L 389.964518 -208.95385 
L 390.46739 -206.420292 
L 391.976008 -204.264307 
L 392.478881 -202.257767 
L 392.981753 -200.815252 
L 393.484626 -199.336124 
L 393.987498 -197.836302 
L 395.496116 -196.778954 
L 395.998989 -195.257994 
L 396.501861 -193.665965 
L 397.004734 -191.740907 
L 397.507606 -189.969238 
L 399.016224 -188.22026 
L 399.519097 -186.59109 
L 400.021969 -185.170155 
L 400.524842 -183.536749 
L 401.027715 -181.853601 
L 402.536332 -180.355939 
L 403.039205 -178.617433 
L 403.542078 -176.747681 
L 404.04495 -174.49179 
L 404.547823 -172.074009 
L 406.05644 -170.477829 
L 406.559313 -168.868719 
L 407.062186 -167.391425 
L 408.067931 -166.075688 
L 409.576549 -164.792693 
L 410.079421 -162.683713 
L 410.582294 -161.102784 
L 411.085166 -159.654628 
L 411.588039 -158.342507 
L 413.096657 -157.346242 
L 413.599529 -156.406243 
L 414.605275 -155.408139 
L 415.108147 -154.405407 
L 416.616765 -153.814413 
L 417.119638 -153.588455 
L 417.62251 -153.079596 
L 418.125383 -152.565759 
L 418.628255 -152.020709 
L 420.136873 -151.804758 
L 420.639746 -151.667801 
L 421.142618 -151.741707 
L 421.645491 -151.520838 
L 422.148363 -151.2599 
L 423.656981 -151.252301 
L 424.662726 -151.435729 
L 425.165599 -151.781149 
L 425.668472 -151.965495 
L 427.177089 -151.985368 
L 428.182835 -152.003912 
L 428.685707 -152.001829 
L 429.18858 -152.007347 
L 430.697197 -152.008897 
L 431.20007 -152.110221 
L 431.702943 -152.193391 
L 432.205815 -152.266403 
L 432.708688 -152.537323 
L 434.217306 -152.596245 
L 434.720178 -152.617526 
L 435.223051 -152.613638 
L 435.725923 -152.593758 
L 436.228796 -152.564872 
L 438.240286 -152.5378 
L 438.743159 -152.505341 
L 439.246032 -152.530338 
L 439.748904 -152.571565 
L 441.257522 -152.57938 
L 441.760395 -152.709581 
L 442.263267 -152.99553 
L 442.76614 -153.582242 
L 443.269012 -154.423822 
L 444.77763 -154.719218 
L 445.280503 -155.0589 
L 445.783375 -155.418522 
L 446.286248 -155.717159 
L 446.78912 -156.004917 
L 448.297738 -157.240084 
L 448.800611 -158.155527 
L 449.303483 -159.130561 
L 449.806356 -159.818245 
L 450.309229 -160.538326 
L 452.320719 -161.32917 
L 452.823592 -162.287769 
L 453.326464 -163.441429 
L 453.829337 -164.445316 
L 455.337955 -165.369769 
L 455.840827 -166.274745 
L 456.3437 -167.13342 
L 456.846572 -168.277429 
L 457.349445 -169.451319 
L 458.858063 -170.779347 
L 459.360935 -171.742113 
L 459.863808 -172.912999 
L 460.36668 -174.281275 
L 460.869553 -175.006162 
L 462.378171 -175.713432 
L 462.881043 -176.461542 
L 463.383916 -176.990765 
L 463.886789 -177.35568 
L 464.389661 -177.751087 
L 465.898279 -178.34763 
L 466.401152 -178.929631 
L 466.904024 -179.635886 
L 467.406897 -180.346116 
L 467.909769 -181.156243 
L 469.418387 -181.973891 
L 469.92126 -182.877339 
L 470.424132 -183.699351 
L 470.927005 -184.537929 
L 471.429877 -185.455204 
L 472.938495 -186.35916 
L 473.441368 -187.253713 
L 473.94424 -188.179611 
L 474.447113 -189.096519 
L 474.949986 -190.132468 
L 476.458603 -190.752647 
L 476.961476 -191.444084 
L 477.464349 -192.256035 
L 477.967221 -193.145317 
L 478.470094 -194.197618 
L 479.978712 -194.976897 
L 480.481584 -195.485504 
L 480.984457 -195.649365 
L 481.487329 -195.557308 
L 483.49882 -195.291421 
L 484.001692 -194.847463 
L 484.504565 -194.263952 
L 485.007437 -193.827382 
L 485.51031 -193.102374 
L 485.51031 -215.633383 
L 485.51031 -215.633383 
L 485.007437 -215.497638 
L 484.504565 -215.418946 
L 484.001692 -215.308115 
L 483.49882 -215.206015 
L 481.487329 -215.133618 
L 480.984457 -215.105992 
L 480.481584 -215.148824 
L 479.978712 -215.258368 
L 478.470094 -215.521237 
L 477.967221 -215.756258 
L 477.464349 -215.87256 
L 476.961476 -215.91952 
L 476.458603 -215.968407 
L 474.949986 -216.044248 
L 474.447113 -215.904041 
L 473.94424 -215.59403 
L 473.441368 -215.164148 
L 472.938495 -214.699415 
L 471.429877 -213.918618 
L 470.927005 -212.904715 
L 470.424132 -211.981986 
L 469.92126 -210.924385 
L 469.418387 -210.392795 
L 467.909769 -209.605926 
L 467.406897 -208.796692 
L 466.904024 -207.874478 
L 466.401152 -206.790343 
L 465.898279 -205.613779 
L 464.389661 -204.581796 
L 463.886789 -203.536486 
L 463.383916 -202.492137 
L 462.881043 -201.657961 
L 462.378171 -200.819512 
L 460.869553 -199.95448 
L 460.36668 -199.046159 
L 459.863808 -198.20348 
L 459.360935 -197.292078 
L 458.858063 -196.212978 
L 457.349445 -195.407563 
L 456.846572 -194.567709 
L 456.3437 -193.685068 
L 455.840827 -192.745735 
L 455.337955 -191.939991 
L 453.829337 -191.172465 
L 453.326464 -190.453312 
L 452.823592 -189.750977 
L 452.320719 -189.041411 
L 450.309229 -188.141822 
L 449.806356 -187.039671 
L 449.303483 -185.592366 
L 448.800611 -184.627233 
L 448.297738 -183.696257 
L 446.78912 -182.727519 
L 446.286248 -181.644867 
L 445.783375 -180.678319 
L 445.280503 -179.796785 
L 444.77763 -178.928879 
L 443.269012 -178.160962 
L 442.76614 -177.735398 
L 442.263267 -177.257641 
L 441.760395 -176.67222 
L 441.257522 -176.07417 
L 439.748904 -175.5841 
L 439.246032 -175.068692 
L 438.743159 -174.695782 
L 438.240286 -174.442905 
L 436.228796 -174.133705 
L 435.725923 -173.805497 
L 435.223051 -173.591344 
L 434.720178 -173.431665 
L 434.217306 -173.543933 
L 432.708688 -173.841643 
L 432.205815 -174.758052 
L 431.702943 -175.163953 
L 431.20007 -175.654979 
L 430.697197 -176.196786 
L 429.18858 -176.391435 
L 428.685707 -176.559989 
L 428.182835 -176.621163 
L 427.177089 -176.760344 
L 425.668472 -176.912801 
L 425.165599 -177.787346 
L 424.662726 -179.409074 
L 423.656981 -180.771381 
L 422.148363 -181.782366 
L 421.645491 -183.295817 
L 421.142618 -184.864964 
L 420.639746 -187.14632 
L 420.136873 -189.645545 
L 418.628255 -192.043353 
L 418.125383 -193.849637 
L 417.62251 -195.419264 
L 417.119638 -197.3162 
L 416.616765 -200.232319 
L 415.108147 -202.713898 
L 414.605275 -204.666764 
L 413.599529 -206.467096 
L 413.096657 -208.445603 
L 411.588039 -210.555105 
L 411.085166 -212.248756 
L 410.582294 -214.298812 
L 410.079421 -216.102449 
L 409.576549 -217.601958 
L 408.067931 -219.02933 
L 407.062186 -220.676045 
L 406.559313 -222.277159 
L 406.05644 -223.525258 
L 404.547823 -224.961033 
L 404.04495 -225.702523 
L 403.542078 -226.512938 
L 403.039205 -227.916064 
L 402.536332 -229.113044 
L 401.027715 -230.330664 
L 400.524842 -231.637287 
L 400.021969 -233.112763 
L 399.519097 -234.410204 
L 399.016224 -235.491441 
L 397.507606 -236.404045 
L 397.004734 -237.211158 
L 396.501861 -237.703628 
L 395.998989 -238.318853 
L 395.496116 -238.844617 
L 393.987498 -239.302953 
L 393.484626 -239.725125 
L 392.981753 -240.044982 
L 392.478881 -240.329189 
L 391.976008 -240.348692 
L 390.46739 -240.483311 
L 389.964518 -240.470174 
L 389.461645 -240.261515 
L 388.958772 -239.972163 
L 388.4559 -239.749894 
L 386.947282 -239.812652 
L 386.444409 -239.785919 
L 385.941537 -239.539081 
L 385.438664 -239.496957 
L 384.935792 -239.361717 
L 383.427174 -239.47847 
L 382.924301 -239.584045 
L 382.421429 -239.596567 
L 381.918556 -239.348017 
L 381.415683 -238.872003 
L 379.907066 -238.658843 
L 379.404193 -238.589373 
L 378.901321 -238.582667 
L 378.398448 -238.557827 
L 377.895575 -238.504996 
L 376.386958 -238.537435 
L 375.884085 -238.61263 
L 375.381212 -238.711174 
L 374.87834 -238.709005 
L 374.375467 -238.773048 
L 372.866849 -238.816963 
L 372.363977 -238.928777 
L 371.861104 -238.921604 
L 371.358232 -238.814429 
L 370.855359 -238.828896 
L 369.346741 -238.714126 
L 368.843869 -238.8965 
L 368.340996 -239.504091 
L 367.838123 -239.59515 
L 365.826633 -239.631366 
L 365.323761 -239.44031 
L 364.820888 -238.995994 
L 364.318015 -238.300649 
L 363.815143 -237.732959 
L 362.306525 -237.211946 
L 361.803652 -236.698793 
L 361.30078 -236.199659 
L 360.797907 -235.836904 
L 360.295035 -235.362724 
L 358.786417 -234.903443 
L 358.283544 -234.541342 
L 357.780672 -234.087576 
L 357.277799 -233.632991 
L 356.774926 -233.150342 
L 355.266309 -232.674974 
L 354.763436 -231.900587 
L 354.260564 -230.945056 
L 353.757691 -230.194496 
L 353.254818 -229.26481 
L 351.746201 -228.579573 
L 351.243328 -227.707724 
L 350.740455 -226.681024 
L 350.237583 -225.370528 
L 349.73471 -223.85687 
L 348.226092 -222.313414 
L 347.72322 -220.88162 
L 347.220347 -219.527572 
L 346.717475 -218.350205 
L 346.214602 -217.243312 
L 344.705984 -216.228246 
L 344.203112 -215.216519 
L 343.700239 -214.214963 
L 343.197366 -213.153996 
L 342.694494 -212.017831 
L 341.185876 -210.673406 
L 340.683004 -209.626522 
L 340.180131 -208.755417 
L 339.677258 -207.846262 
L 339.174386 -206.932002 
L 337.665768 -206.03408 
L 337.162895 -205.034135 
L 336.15715 -204.115705 
L 335.654278 -203.155576 
L 334.14566 -201.899488 
L 333.642787 -200.620419 
L 333.139915 -199.202002 
L 332.637042 -198.344335 
L 332.134169 -198.277852 
L 330.625552 -198.223984 
L 330.122679 -198.145536 
L 329.619806 -197.876659 
L 329.116934 -197.5735 
L 328.614061 -197.391384 
L 327.105444 -197.299505 
L 326.602571 -197.165192 
L 326.099698 -197.000435 
L 325.596826 -196.905538 
L 325.093953 -196.770554 
L 323.585335 -196.928787 
L 323.082463 -196.99687 
L 322.57959 -197.464051 
L 322.076718 -198.094275 
L 321.573845 -198.595004 
L 320.065227 -198.776514 
L 319.562355 -198.96257 
L 319.059482 -199.157327 
L 318.556609 -199.236959 
L 316.545119 -199.167451 
L 316.042247 -199.025093 
L 315.539374 -198.87083 
L 315.036501 -198.754546 
L 314.533629 -198.611516 
L 313.025011 -198.516356 
L 312.522138 -198.344516 
L 312.019266 -198.148767 
L 311.516393 -197.908766 
L 311.013521 -197.69268 
L 309.504903 -197.35771 
L 309.00203 -196.987403 
L 308.499158 -196.511881 
L 307.996285 -196.027934 
L 307.493412 -195.450093 
L 305.984795 -194.888807 
L 305.481922 -194.28053 
L 304.979049 -193.53496 
L 304.476177 -192.746258 
L 303.973304 -191.956651 
L 302.464687 -191.211198 
L 301.961814 -190.547847 
L 301.458941 -190.111715 
L 300.956069 -189.632718 
L 300.453196 -189.188714 
L 298.944578 -188.712816 
L 298.441706 -188.245466 
L 297.938833 -187.805251 
L 297.435961 -187.496643 
L 296.933088 -187.085314 
L 295.42447 -186.643652 
L 294.921598 -186.097394 
L 294.418725 -185.498358 
L 293.915852 -185.003375 
L 293.41298 -184.352607 
L 291.904362 -183.603275 
L 291.401489 -182.864848 
L 290.898617 -182.32458 
L 290.395744 -181.891021 
L 289.892872 -181.36781 
L 287.881381 -180.835172 
L 287.378509 -180.665215 
L 286.875636 -180.520435 
L 286.372764 -180.570689 
L 284.864146 -180.623972 
L 284.361273 -180.550028 
L 283.858401 -180.547743 
L 283.355528 -180.570058 
L 282.852655 -180.815439 
L 281.344038 -181.152527 
L 280.841165 -181.273465 
L 280.338292 -181.219747 
L 279.83542 -181.124561 
L 279.332547 -180.858371 
L 277.82393 -180.64781 
L 277.321057 -180.470688 
L 276.818184 -180.307502 
L 276.315312 -180.203943 
L 275.812439 -180.135056 
L 274.303821 -180.143408 
L 273.800949 -180.266773 
L 273.298076 -180.395174 
L 272.795204 -180.554037 
L 272.292331 -180.838361 
L 270.783713 -181.170462 
L 270.280841 -181.475616 
L 269.777968 -181.663873 
L 269.275095 -181.864271 
L 267.263605 -181.916936 
L 266.760732 -182.035121 
L 266.25786 -182.130442 
L 265.754987 -182.188838 
L 265.252115 -182.157693 
L 263.743497 -182.072116 
L 263.240624 -181.860118 
L 262.737752 -181.616845 
L 262.234879 -181.327243 
L 261.732007 -180.98195 
L 260.223389 -180.516238 
L 259.720516 -180.139496 
L 259.217644 -180.032773 
L 258.714771 -180.005144 
L 258.211898 -179.887453 
L 256.703281 -179.7674 
L 256.200408 -179.746075 
L 255.697535 -179.683757 
L 255.194663 -179.424833 
L 254.69179 -179.148284 
L 253.183172 -178.817711 
L 252.6803 -178.686404 
L 252.177427 -178.593298 
L 251.674555 -178.540994 
L 249.663064 -178.46118 
L 249.160192 -178.372407 
L 248.657319 -178.266041 
L 248.154447 -178.321093 
L 247.651574 -178.411067 
L 246.142956 -178.436108 
L 245.640084 -178.377801 
L 245.137211 -178.190068 
L 244.634338 -178.171031 
L 242.622848 -178.23741 
L 242.119975 -177.838291 
L 241.617103 -177.546996 
L 241.11423 -177.530185 
L 239.10274 -177.508803 
L 238.599867 -177.47213 
L 238.096995 -177.454401 
L 237.594122 -177.504877 
L 237.09125 -177.579605 
L 235.582632 -177.617816 
L 235.079759 -177.54613 
L 234.576887 -177.419843 
L 234.074014 -177.176517 
L 233.571141 -176.818963 
L 232.062524 -176.4849 
L 231.559651 -176.381462 
L 231.056778 -176.147077 
L 230.553906 -176.062477 
L 230.051033 -176.158211 
L 228.542415 -176.540492 
L 228.039543 -176.819054 
L 227.53667 -176.909101 
L 227.033798 -177.040192 
L 226.530925 -177.12537 
L 225.022307 -177.162515 
L 224.016562 -177.147744 
L 223.51369 -177.058711 
L 223.010817 -176.978649 
L 221.502199 -176.934018 
L 220.999327 -176.714471 
L 220.496454 -176.451975 
L 219.993581 -176.202327 
L 219.490709 -175.917768 
L 217.982091 -175.517069 
L 217.479218 -175.209209 
L 216.976346 -174.984888 
L 216.473473 -174.71573 
L 215.970601 -174.456956 
L 214.461983 -174.127651 
L 213.95911 -173.922484 
L 213.456238 -173.69223 
L 212.953365 -173.464579 
L 212.450493 -173.223525 
L 210.941875 -172.936474 
L 210.439002 -172.565782 
L 209.93613 -172.141919 
L 209.433257 -171.834782 
L 208.930384 -171.344577 
L 207.421767 -170.800204 
L 206.918894 -170.16154 
L 206.416021 -169.52041 
L 205.913149 -168.99554 
L 205.410276 -168.652163 
L 203.901658 -168.234271 
L 203.398786 -167.803959 
L 202.895913 -167.49481 
L 202.393041 -167.053071 
L 201.890168 -166.482731 
L 200.38155 -165.835865 
L 199.878678 -165.083969 
L 199.375805 -164.236678 
L 198.872933 -163.411237 
L 198.37006 -162.523278 
L 196.861442 -161.719629 
L 196.35857 -161.275827 
L 195.855697 -160.901604 
L 195.352824 -160.253726 
L 194.849952 -159.778367 
L 193.341334 -159.558016 
L 192.838461 -159.675296 
L 192.335589 -159.836517 
L 191.832716 -159.909981 
L 191.329844 -159.929541 
L 189.821226 -159.922997 
L 189.318353 -160.031134 
L 188.815481 -160.020195 
L 188.312608 -159.946849 
L 187.809736 -159.857214 
L 186.301118 -159.838803 
L 185.798245 -159.844608 
L 185.295373 -159.917149 
L 184.7925 -160.022493 
L 182.78101 -160.080289 
L 182.278137 -160.106819 
L 181.775264 -160.09507 
L 181.272392 -160.098468 
L 180.769519 -160.101456 
L 179.260901 -160.130377 
L 178.758029 -160.151236 
L 178.255156 -160.163292 
L 177.752284 -160.178947 
L 177.249411 -160.205012 
L 175.740793 -160.23278 
L 175.237921 -160.288806 
L 174.735048 -160.380755 
L 174.232176 -160.416238 
L 173.729303 -160.363008 
L 172.220685 -160.304234 
L 171.717813 -160.207842 
L 171.21494 -160.105215 
L 170.712067 -159.939489 
L 170.209195 -159.685825 
L 168.700577 -159.383318 
L 168.197704 -159.162584 
L 167.694832 -158.827683 
L 167.191959 -158.422803 
L 166.689087 -157.988992 
L 165.180469 -157.41921 
L 164.677596 -156.824268 
L 164.174724 -156.243053 
L 163.671851 -155.662365 
L 163.168979 -155.167717 
L 161.660361 -154.729247 
L 161.157488 -154.304791 
L 160.654616 -153.827209 
L 160.151743 -153.336597 
L 159.64887 -153.019488 
L 158.140253 -152.865006 
L 157.63738 -152.705367 
L 157.134507 -152.298682 
L 156.631635 -151.806355 
L 156.128762 -151.501321 
L 154.620144 -151.246645 
L 154.117272 -151.098791 
L 153.614399 -150.636881 
L 152.608654 -150.235016 
L 151.100036 -149.927087 
L 150.597164 -149.756771 
L 150.094291 -149.659888 
L 149.591419 -149.466503 
L 149.088546 -149.582295 
L 147.579928 -149.707441 
L 147.077056 -149.728079 
L 146.574183 -149.951384 
L 146.07131 -150.06968 
L 145.568438 -150.243444 
L 144.05982 -150.323376 
L 143.556947 -150.404971 
L 143.054075 -150.515537 
L 142.551202 -150.563327 
L 142.04833 -150.524828 
L 140.539712 -150.471032 
L 140.036839 -150.432161 
L 139.533967 -150.420945 
L 139.031094 -150.422274 
L 138.528221 -150.428248 
L 137.019604 -150.433382 
L 136.516731 -150.438833 
L 136.013859 -150.430887 
L 135.510986 -150.436489 
L 133.499496 -150.454139 
L 132.996623 -150.470453 
L 132.49375 -150.513069 
L 131.990878 -150.535237 
L 131.488005 -150.552211 
L 129.979387 -150.567722 
L 129.476515 -150.563357 
L 128.973642 -150.564091 
L 128.47077 -150.549629 
L 127.967897 -150.542227 
L 126.459279 -150.51837 
L 125.956407 -150.517657 
L 125.453534 -150.516988 
L 124.950662 -150.506894 
L 124.447789 -150.477177 
L 122.939171 -150.463216 
L 122.436299 -150.381286 
L 121.933426 -150.053914 
L 121.430553 -149.697725 
L 120.927681 -149.375647 
L 119.419063 -149.062118 
L 118.91619 -148.643701 
L 118.413318 -148.343092 
L 117.910445 -148.043692 
L 117.407573 -147.683472 
L 115.898955 -147.307309 
L 115.396082 -146.898747 
L 114.89321 -146.50937 
L 114.390337 -146.06873 
L 113.887464 -145.595361 
L 111.875974 -145.16103 
L 111.373102 -144.736471 
L 110.870229 -144.429917 
L 110.367356 -143.74387 
L 108.858739 -142.990472 
L 108.355866 -142.133126 
L 107.852993 -141.416988 
L 107.350121 -140.786767 
L 106.847248 -140.018215 
L 105.33863 -139.282072 
L 104.835758 -138.89535 
L 104.332885 -138.658878 
L 103.830013 -138.373258 
L 103.32714 -138.052703 
L 101.818522 -137.790477 
L 101.31565 -137.687998 
L 100.812777 -137.575501 
L 100.309904 -137.500882 
L 99.807032 -137.394878 
L 98.298414 -137.296731 
L 97.795542 -137.267947 
L 97.292669 -137.220016 
L 96.789796 -137.250264 
L 96.286924 -137.273573 
L 94.778306 -137.251874 
L 94.275433 -137.218359 
L 93.772561 -137.427592 
L 93.269688 -137.523566 
L 92.766816 -137.461436 
L 91.258198 -137.33087 
L 90.755325 -137.133885 
L 90.252453 -136.927117 
L 89.74958 -136.622448 
L 89.246707 -136.328349 
L 87.73809 -135.997288 
L 87.235217 -135.605613 
L 86.732345 -135.164902 
L 86.229472 -134.720754 
L 84.217982 -134.386494 
L 83.715109 -134.025543 
L 83.212236 -133.631608 
L 82.709364 -133.184041 
L 82.206491 -132.799421 
L 80.697873 -132.318507 
L 80.195001 -131.888783 
L 79.692128 -131.386518 
z
" style="stroke: #000000; stroke-opacity: 0.2; stroke-width: 0.8"/>
    </defs>
    <g clip-path="url(#p65b3254571)">
     <use xlink:href="#m56d4f6283c" x="0" y="279.238266" style="fill: #bc80bd; fill-opacity: 0.2; stroke: #000000; stroke-opacity: 0.2; stroke-width: 0.8"/>
    </g>
   </g>
   <g id="matplotlib.axis_1">
    <g id="xtick_1">
     <g id="line2d_1">
      <defs>
       <path id="m207de2eb08" d="M 0 0 
L 0 3.5 
" style="stroke: #323034; stroke-width: 0.8"/>
      </defs>
      <g>
       <use xlink:href="#m207de2eb08" x="60.58297" y="208.50375" style="fill: #323034; stroke: #323034; stroke-width: 0.8"/>
      </g>
     </g>
     <g id="text_1">
      <!-- 2017-01 -->
      <g style="fill: #323034" transform="translate(12.66375 251.630993) rotate(-30) scale(0.16 -0.16)">
       <defs>
        <path id="STIXGeneral-Regular-32" d="M 3034 877 
L 2688 0 
L 186 0 
L 186 77 
L 1325 1286 
Q 1773 1754 1965 2144 
Q 2157 2534 2157 2950 
Q 2157 3379 1920 3616 
Q 1683 3853 1267 3853 
Q 922 3853 720 3673 
Q 518 3494 326 3021 
L 192 3053 
Q 301 3648 630 3987 
Q 960 4326 1523 4326 
Q 2054 4326 2380 4006 
Q 2707 3686 2707 3200 
Q 2707 2477 1888 1613 
L 832 486 
L 2330 486 
Q 2541 486 2665 569 
Q 2790 653 2944 915 
L 3034 877 
z
" transform="scale(0.015625)"/>
        <path id="STIXGeneral-Regular-30" d="M 3046 2112 
Q 3046 1683 2963 1302 
Q 2880 922 2717 602 
Q 2554 282 2266 96 
Q 1978 -90 1600 -90 
Q 1210 -90 915 108 
Q 621 307 461 640 
Q 301 973 227 1350 
Q 154 1728 154 2150 
Q 154 2746 301 3222 
Q 448 3699 790 4012 
Q 1133 4326 1626 4326 
Q 2253 4326 2649 3712 
Q 3046 3098 3046 2112 
z
M 2432 2080 
Q 2432 3091 2217 3625 
Q 2003 4160 1587 4160 
Q 1190 4160 979 3622 
Q 768 3085 768 2106 
Q 768 1120 979 598 
Q 1190 77 1600 77 
Q 2003 77 2217 598 
Q 2432 1120 2432 2080 
z
" transform="scale(0.015625)"/>
        <path id="STIXGeneral-Regular-31" d="M 2522 0 
L 755 0 
L 755 96 
Q 1107 115 1235 227 
Q 1363 339 1363 608 
L 1363 3482 
Q 1363 3795 1171 3795 
Q 1082 3795 883 3718 
L 710 3654 
L 710 3744 
L 1856 4326 
L 1914 4307 
L 1914 486 
Q 1914 275 2042 185 
Q 2170 96 2522 96 
L 2522 0 
z
" transform="scale(0.015625)"/>
        <path id="STIXGeneral-Regular-37" d="M 2874 4134 
L 1517 -51 
L 1101 -51 
L 2368 3763 
L 992 3763 
Q 717 3763 582 3667 
Q 448 3571 243 3238 
L 128 3296 
L 512 4237 
L 2874 4237 
L 2874 4134 
z
" transform="scale(0.015625)"/>
        <path id="STIXGeneral-Regular-2d" d="M 1824 1242 
L 250 1242 
L 250 1645 
L 1824 1645 
L 1824 1242 
z
" transform="scale(0.015625)"/>
       </defs>
       <use xlink:href="#STIXGeneral-Regular-32"/>
       <use xlink:href="#STIXGeneral-Regular-30" x="49.999985"/>
       <use xlink:href="#STIXGeneral-Regular-31" x="99.999969"/>
       <use xlink:href="#STIXGeneral-Regular-37" x="149.999954"/>
       <use xlink:href="#STIXGeneral-Regular-2d" x="199.999939"/>
       <use xlink:href="#STIXGeneral-Regular-30" x="233.299927"/>
       <use xlink:href="#STIXGeneral-Regular-31" x="283.299911"/>
      </g>
     </g>
    </g>
    <g id="xtick_2">
     <g id="line2d_2">
      <g>
       <use xlink:href="#m207de2eb08" x="105.841503" y="208.50375" style="fill: #323034; stroke: #323034; stroke-width: 0.8"/>
      </g>
     </g>
     <g id="text_2">
      <!-- 2017-04 -->
      <g style="fill: #323034" transform="translate(57.922283 251.630993) rotate(-30) scale(0.16 -0.16)">
       <defs>
        <path id="STIXGeneral-Regular-34" d="M 3027 1069 
L 2368 1069 
L 2368 0 
L 1869 0 
L 1869 1069 
L 77 1069 
L 77 1478 
L 2086 4326 
L 2368 4326 
L 2368 1478 
L 3027 1478 
L 3027 1069 
z
M 1869 1478 
L 1869 3674 
L 333 1478 
L 1869 1478 
z
" transform="scale(0.015625)"/>
       </defs>
       <use xlink:href="#STIXGeneral-Regular-32"/>
       <use xlink:href="#STIXGeneral-Regular-30" x="49.999985"/>
       <use xlink:href="#STIXGeneral-Regular-31" x="99.999969"/>
       <use xlink:href="#STIXGeneral-Regular-37" x="149.999954"/>
       <use xlink:href="#STIXGeneral-Regular-2d" x="199.999939"/>
       <use xlink:href="#STIXGeneral-Regular-30" x="233.299927"/>
       <use xlink:href="#STIXGeneral-Regular-34" x="283.299911"/>
      </g>
     </g>
    </g>
    <g id="xtick_3">
     <g id="line2d_3">
      <g>
       <use xlink:href="#m207de2eb08" x="151.602909" y="208.50375" style="fill: #323034; stroke: #323034; stroke-width: 0.8"/>
      </g>
     </g>
     <g id="text_3">
      <!-- 2017-07 -->
      <g style="fill: #323034" transform="translate(103.683689 251.630993) rotate(-30) scale(0.16 -0.16)">
       <use xlink:href="#STIXGeneral-Regular-32"/>
       <use xlink:href="#STIXGeneral-Regular-30" x="49.999985"/>
       <use xlink:href="#STIXGeneral-Regular-31" x="99.999969"/>
       <use xlink:href="#STIXGeneral-Regular-37" x="149.999954"/>
       <use xlink:href="#STIXGeneral-Regular-2d" x="199.999939"/>
       <use xlink:href="#STIXGeneral-Regular-30" x="233.299927"/>
       <use xlink:href="#STIXGeneral-Regular-37" x="283.299911"/>
      </g>
     </g>
    </g>
    <g id="xtick_4">
     <g id="line2d_4">
      <g>
       <use xlink:href="#m207de2eb08" x="197.867187" y="208.50375" style="fill: #323034; stroke: #323034; stroke-width: 0.8"/>
      </g>
     </g>
     <g id="text_4">
      <!-- 2017-10 -->
      <g style="fill: #323034" transform="translate(149.947968 251.630993) rotate(-30) scale(0.16 -0.16)">
       <use xlink:href="#STIXGeneral-Regular-32"/>
       <use xlink:href="#STIXGeneral-Regular-30" x="49.999985"/>
       <use xlink:href="#STIXGeneral-Regular-31" x="99.999969"/>
       <use xlink:href="#STIXGeneral-Regular-37" x="149.999954"/>
       <use xlink:href="#STIXGeneral-Regular-2d" x="199.999939"/>
       <use xlink:href="#STIXGeneral-Regular-31" x="233.299927"/>
       <use xlink:href="#STIXGeneral-Regular-30" x="283.299911"/>
      </g>
     </g>
    </g>
    <g id="xtick_5">
     <g id="line2d_5">
      <g>
       <use xlink:href="#m207de2eb08" x="244.131466" y="208.50375" style="fill: #323034; stroke: #323034; stroke-width: 0.8"/>
      </g>
     </g>
     <g id="text_5">
      <!-- 2018-01 -->
      <g style="fill: #323034" transform="translate(196.212246 251.630993) rotate(-30) scale(0.16 -0.16)">
       <defs>
        <path id="STIXGeneral-Regular-38" d="M 2848 992 
Q 2848 499 2505 204 
Q 2163 -90 1587 -90 
Q 1050 -90 704 204 
Q 358 499 358 954 
Q 358 1293 524 1533 
Q 691 1773 1190 2125 
Q 710 2522 553 2765 
Q 397 3008 397 3328 
Q 397 3782 745 4054 
Q 1094 4326 1638 4326 
Q 2106 4326 2410 4060 
Q 2714 3795 2714 3411 
Q 2714 3059 2531 2848 
Q 2349 2637 1856 2374 
Q 2432 1990 2640 1689 
Q 2848 1389 2848 992 
z
M 2272 3411 
Q 2272 3744 2086 3945 
Q 1901 4147 1574 4147 
Q 1248 4147 1059 3977 
Q 870 3808 870 3513 
Q 870 3219 1059 2979 
Q 1248 2739 1670 2490 
Q 1997 2682 2134 2896 
Q 2272 3110 2272 3411 
z
M 1734 1741 
L 1357 1997 
Q 1075 1766 960 1545 
Q 845 1325 845 1011 
Q 845 576 1065 333 
Q 1286 90 1658 90 
Q 1971 90 2166 285 
Q 2362 480 2362 794 
Q 2362 1082 2214 1299 
Q 2067 1517 1734 1741 
z
" transform="scale(0.015625)"/>
       </defs>
       <use xlink:href="#STIXGeneral-Regular-32"/>
       <use xlink:href="#STIXGeneral-Regular-30" x="49.999985"/>
       <use xlink:href="#STIXGeneral-Regular-31" x="99.999969"/>
       <use xlink:href="#STIXGeneral-Regular-38" x="149.999954"/>
       <use xlink:href="#STIXGeneral-Regular-2d" x="199.999939"/>
       <use xlink:href="#STIXGeneral-Regular-30" x="233.299927"/>
       <use xlink:href="#STIXGeneral-Regular-31" x="283.299911"/>
      </g>
     </g>
    </g>
    <g id="xtick_6">
     <g id="line2d_6">
      <g>
       <use xlink:href="#m207de2eb08" x="289.389999" y="208.50375" style="fill: #323034; stroke: #323034; stroke-width: 0.8"/>
      </g>
     </g>
     <g id="text_6">
      <!-- 2018-04 -->
      <g style="fill: #323034" transform="translate(241.470779 251.630993) rotate(-30) scale(0.16 -0.16)">
       <use xlink:href="#STIXGeneral-Regular-32"/>
       <use xlink:href="#STIXGeneral-Regular-30" x="49.999985"/>
       <use xlink:href="#STIXGeneral-Regular-31" x="99.999969"/>
       <use xlink:href="#STIXGeneral-Regular-38" x="149.999954"/>
       <use xlink:href="#STIXGeneral-Regular-2d" x="199.999939"/>
       <use xlink:href="#STIXGeneral-Regular-30" x="233.299927"/>
       <use xlink:href="#STIXGeneral-Regular-34" x="283.299911"/>
      </g>
     </g>
    </g>
    <g id="xtick_7">
     <g id="line2d_7">
      <g>
       <use xlink:href="#m207de2eb08" x="335.151405" y="208.50375" style="fill: #323034; stroke: #323034; stroke-width: 0.8"/>
      </g>
     </g>
     <g id="text_7">
      <!-- 2018-07 -->
      <g style="fill: #323034" transform="translate(287.232185 251.630993) rotate(-30) scale(0.16 -0.16)">
       <use xlink:href="#STIXGeneral-Regular-32"/>
       <use xlink:href="#STIXGeneral-Regular-30" x="49.999985"/>
       <use xlink:href="#STIXGeneral-Regular-31" x="99.999969"/>
       <use xlink:href="#STIXGeneral-Regular-38" x="149.999954"/>
       <use xlink:href="#STIXGeneral-Regular-2d" x="199.999939"/>
       <use xlink:href="#STIXGeneral-Regular-30" x="233.299927"/>
       <use xlink:href="#STIXGeneral-Regular-37" x="283.299911"/>
      </g>
     </g>
    </g>
    <g id="xtick_8">
     <g id="line2d_8">
      <g>
       <use xlink:href="#m207de2eb08" x="381.415683" y="208.50375" style="fill: #323034; stroke: #323034; stroke-width: 0.8"/>
      </g>
     </g>
     <g id="text_8">
      <!-- 2018-10 -->
      <g style="fill: #323034" transform="translate(333.496464 251.630993) rotate(-30) scale(0.16 -0.16)">
       <use xlink:href="#STIXGeneral-Regular-32"/>
       <use xlink:href="#STIXGeneral-Regular-30" x="49.999985"/>
       <use xlink:href="#STIXGeneral-Regular-31" x="99.999969"/>
       <use xlink:href="#STIXGeneral-Regular-38" x="149.999954"/>
       <use xlink:href="#STIXGeneral-Regular-2d" x="199.999939"/>
       <use xlink:href="#STIXGeneral-Regular-31" x="233.299927"/>
       <use xlink:href="#STIXGeneral-Regular-30" x="283.299911"/>
      </g>
     </g>
    </g>
    <g id="xtick_9">
     <g id="line2d_9">
      <g>
       <use xlink:href="#m207de2eb08" x="427.679962" y="208.50375" style="fill: #323034; stroke: #323034; stroke-width: 0.8"/>
      </g>
     </g>
     <g id="text_9">
      <!-- 2019-01 -->
      <g style="fill: #323034" transform="translate(379.760742 251.630993) rotate(-30) scale(0.16 -0.16)">
       <defs>
        <path id="STIXGeneral-Regular-39" d="M 378 -141 
L 358 -13 
Q 1094 115 1603 608 
Q 2112 1101 2304 1882 
Q 1933 1517 1344 1517 
Q 826 1517 509 1875 
Q 192 2234 192 2816 
Q 192 3462 573 3894 
Q 954 4326 1523 4326 
Q 2131 4326 2528 3840 
Q 2938 3328 2938 2522 
Q 2938 1958 2742 1462 
Q 2547 966 2170 621 
Q 1773 262 1395 105 
Q 1018 -51 378 -141 
z
M 2317 2272 
L 2317 2522 
Q 2317 4147 1472 4147 
Q 1171 4147 1005 3930 
Q 909 3802 845 3546 
Q 781 3290 781 3034 
Q 781 2464 995 2128 
Q 1210 1792 1568 1792 
Q 1824 1792 2070 1917 
Q 2317 2042 2317 2272 
z
" transform="scale(0.015625)"/>
       </defs>
       <use xlink:href="#STIXGeneral-Regular-32"/>
       <use xlink:href="#STIXGeneral-Regular-30" x="49.999985"/>
       <use xlink:href="#STIXGeneral-Regular-31" x="99.999969"/>
       <use xlink:href="#STIXGeneral-Regular-39" x="149.999954"/>
       <use xlink:href="#STIXGeneral-Regular-2d" x="199.999939"/>
       <use xlink:href="#STIXGeneral-Regular-30" x="233.299927"/>
       <use xlink:href="#STIXGeneral-Regular-31" x="283.299911"/>
      </g>
     </g>
    </g>
    <g id="xtick_10">
     <g id="line2d_10">
      <g>
       <use xlink:href="#m207de2eb08" x="472.938495" y="208.50375" style="fill: #323034; stroke: #323034; stroke-width: 0.8"/>
      </g>
     </g>
     <g id="text_10">
      <!-- 2019-04 -->
      <g style="fill: #323034" transform="translate(425.019276 251.630993) rotate(-30) scale(0.16 -0.16)">
       <use xlink:href="#STIXGeneral-Regular-32"/>
       <use xlink:href="#STIXGeneral-Regular-30" x="49.999985"/>
       <use xlink:href="#STIXGeneral-Regular-31" x="99.999969"/>
       <use xlink:href="#STIXGeneral-Regular-39" x="149.999954"/>
       <use xlink:href="#STIXGeneral-Regular-2d" x="199.999939"/>
       <use xlink:href="#STIXGeneral-Regular-30" x="233.299927"/>
       <use xlink:href="#STIXGeneral-Regular-34" x="283.299911"/>
      </g>
     </g>
    </g>
    <g id="text_11">
     <!-- Date -->
     <g transform="translate(267.496219 268.565766) scale(0.16 -0.16)">
      <defs>
       <path id="STIXGeneral-Regular-44" d="M 102 4237 
L 1830 4237 
Q 3078 4237 3750 3654 
Q 4384 3110 4384 2138 
Q 4384 966 3514 410 
Q 2880 0 1901 0 
L 102 0 
L 102 122 
Q 474 147 570 252 
Q 666 358 666 736 
L 666 3520 
Q 666 3891 570 3990 
Q 474 4090 102 4115 
L 102 4237 
z
M 1318 3731 
L 1318 538 
Q 1318 365 1379 301 
Q 1440 237 1626 237 
Q 2125 237 2432 307 
Q 2739 378 3021 570 
Q 3686 1018 3686 2099 
Q 3686 3027 3078 3558 
Q 2803 3802 2476 3901 
Q 2150 4000 1658 4000 
Q 1472 4000 1395 3942 
Q 1318 3885 1318 3731 
z
" transform="scale(0.015625)"/>
       <path id="STIXGeneral-Regular-61" d="M 2829 422 
L 2829 243 
Q 2586 -64 2253 -64 
Q 1888 -64 1843 403 
L 1837 403 
Q 1427 -64 909 -64 
Q 608 -64 422 112 
Q 237 288 237 602 
Q 237 1050 685 1350 
Q 992 1555 1837 1869 
L 1837 2214 
Q 1837 2502 1699 2646 
Q 1562 2790 1338 2790 
Q 1146 2790 1018 2697 
Q 890 2605 890 2477 
Q 890 2419 909 2348 
Q 928 2278 928 2208 
Q 928 2112 841 2029 
Q 755 1946 634 1946 
Q 525 1946 441 2029 
Q 358 2112 358 2240 
Q 358 2547 685 2752 
Q 986 2944 1421 2944 
Q 1939 2944 2176 2656 
Q 2291 2522 2323 2384 
Q 2355 2246 2355 1946 
L 2355 723 
Q 2355 301 2554 301 
Q 2682 301 2829 422 
z
M 1837 813 
L 1837 1715 
Q 1248 1510 1018 1293 
Q 800 1094 800 800 
Q 800 557 921 432 
Q 1043 307 1242 307 
Q 1453 307 1613 410 
Q 1747 506 1792 589 
Q 1837 672 1837 813 
z
" transform="scale(0.015625)"/>
       <path id="STIXGeneral-Regular-74" d="M 1702 493 
L 1786 422 
Q 1478 -64 1011 -64 
Q 448 -64 448 749 
L 448 2675 
L 109 2675 
Q 83 2694 83 2720 
Q 83 2771 192 2842 
Q 435 2982 813 3526 
Q 826 3546 874 3606 
Q 922 3667 941 3706 
Q 986 3706 986 3622 
L 986 2880 
L 1632 2880 
L 1632 2675 
L 986 2675 
L 986 845 
Q 986 538 1062 403 
Q 1139 269 1318 269 
Q 1510 269 1702 493 
z
" transform="scale(0.015625)"/>
       <path id="STIXGeneral-Regular-65" d="M 2611 1050 
L 2714 1005 
Q 2330 -64 1376 -64 
Q 813 -64 486 329 
Q 160 723 160 1389 
Q 160 2074 525 2509 
Q 890 2944 1485 2944 
Q 2061 2944 2374 2502 
Q 2560 2246 2592 1773 
L 621 1773 
Q 646 1370 700 1158 
Q 755 947 915 730 
Q 1184 378 1626 378 
Q 1939 378 2153 531 
Q 2368 685 2611 1050 
z
M 634 1978 
L 1939 1978 
Q 1882 2381 1750 2547 
Q 1619 2714 1312 2714 
Q 1043 2714 864 2525 
Q 685 2336 634 1978 
z
" transform="scale(0.015625)"/>
      </defs>
      <use xlink:href="#STIXGeneral-Regular-44"/>
      <use xlink:href="#STIXGeneral-Regular-61" x="72.199982"/>
      <use xlink:href="#STIXGeneral-Regular-74" x="116.599976"/>
      <use xlink:href="#STIXGeneral-Regular-65" x="144.399963"/>
     </g>
    </g>
   </g>
   <g id="matplotlib.axis_2">
    <g id="ytick_1">
     <g id="line2d_11">
      <defs>
       <path id="m4467b3e8ca" d="M 0 0 
L -3.5 0 
" style="stroke: #323034; stroke-width: 0.8"/>
      </defs>
      <g>
       <use xlink:href="#m4467b3e8ca" x="59.401219" y="208.50375" style="fill: #323034; stroke: #323034; stroke-width: 0.8"/>
      </g>
     </g>
     <g id="text_12">
      <!-- $\mathdefault{20}$ -->
      <g style="fill: #323034" transform="translate(36.401219 213.9675) scale(0.16 -0.16)">
       <use xlink:href="#STIXGeneral-Regular-32" transform="translate(0 0.40625)"/>
       <use xlink:href="#STIXGeneral-Regular-30" transform="translate(49.999985 0.40625)"/>
      </g>
     </g>
    </g>
    <g id="ytick_2">
     <g id="line2d_12">
      <g>
       <use xlink:href="#m4467b3e8ca" x="59.401219" y="159.54375" style="fill: #323034; stroke: #323034; stroke-width: 0.8"/>
      </g>
     </g>
     <g id="text_13">
      <!-- $\mathdefault{30}$ -->
      <g style="fill: #323034" transform="translate(36.401219 165.0075) scale(0.16 -0.16)">
       <defs>
        <path id="STIXGeneral-Regular-33" d="M 390 3264 
L 288 3290 
Q 435 3770 748 4048 
Q 1062 4326 1542 4326 
Q 1990 4326 2265 4083 
Q 2541 3840 2541 3450 
Q 2541 2925 1946 2566 
Q 2298 2413 2477 2227 
Q 2758 1914 2758 1402 
Q 2758 890 2464 506 
Q 2246 211 1840 60 
Q 1434 -90 979 -90 
Q 262 -90 262 275 
Q 262 378 339 442 
Q 416 506 525 506 
Q 685 506 915 339 
Q 1197 141 1466 141 
Q 1818 141 2058 425 
Q 2298 710 2298 1120 
Q 2298 1856 1632 2048 
Q 1434 2112 979 2112 
L 979 2202 
Q 1338 2323 1517 2432 
Q 2035 2726 2035 3290 
Q 2035 3610 1852 3776 
Q 1670 3942 1344 3942 
Q 768 3942 390 3264 
z
" transform="scale(0.015625)"/>
       </defs>
       <use xlink:href="#STIXGeneral-Regular-33" transform="translate(0 0.40625)"/>
       <use xlink:href="#STIXGeneral-Regular-30" transform="translate(49.999985 0.40625)"/>
      </g>
     </g>
    </g>
    <g id="ytick_3">
     <g id="line2d_13">
      <g>
       <use xlink:href="#m4467b3e8ca" x="59.401219" y="110.58375" style="fill: #323034; stroke: #323034; stroke-width: 0.8"/>
      </g>
     </g>
     <g id="text_14">
      <!-- $\mathdefault{40}$ -->
      <g style="fill: #323034" transform="translate(36.401219 116.0475) scale(0.16 -0.16)">
       <use xlink:href="#STIXGeneral-Regular-34" transform="translate(0 0.40625)"/>
       <use xlink:href="#STIXGeneral-Regular-30" transform="translate(49.999985 0.40625)"/>
      </g>
     </g>
    </g>
    <g id="ytick_4">
     <g id="line2d_14">
      <g>
       <use xlink:href="#m4467b3e8ca" x="59.401219" y="61.62375" style="fill: #323034; stroke: #323034; stroke-width: 0.8"/>
      </g>
     </g>
     <g id="text_15">
      <!-- $\mathdefault{50}$ -->
      <g style="fill: #323034" transform="translate(36.401219 67.0875) scale(0.16 -0.16)">
       <defs>
        <path id="STIXGeneral-Regular-35" d="M 2803 4358 
L 2573 3814 
Q 2534 3731 2400 3731 
L 1158 3731 
L 902 3187 
Q 1606 3053 1920 2896 
Q 2234 2739 2502 2368 
Q 2726 2061 2726 1555 
Q 2726 1094 2576 780 
Q 2426 467 2099 224 
Q 1664 -90 1011 -90 
Q 646 -90 422 19 
Q 198 128 198 307 
Q 198 550 486 550 
Q 717 550 960 352 
Q 1210 147 1414 147 
Q 1747 147 2012 480 
Q 2278 813 2278 1229 
Q 2278 1843 1850 2189 
Q 1293 2637 486 2637 
Q 410 2637 410 2688 
L 416 2720 
L 1114 4237 
L 2438 4237 
Q 2547 4237 2608 4269 
Q 2669 4301 2746 4403 
L 2803 4358 
z
" transform="scale(0.015625)"/>
       </defs>
       <use xlink:href="#STIXGeneral-Regular-35" transform="translate(0 0.203125)"/>
       <use xlink:href="#STIXGeneral-Regular-30" transform="translate(49.999985 0.203125)"/>
      </g>
     </g>
    </g>
    <g id="ytick_5">
     <g id="line2d_15">
      <g>
       <use xlink:href="#m4467b3e8ca" x="59.401219" y="12.66375" style="fill: #323034; stroke: #323034; stroke-width: 0.8"/>
      </g>
     </g>
     <g id="text_16">
      <!-- $\mathdefault{60}$ -->
      <g style="fill: #323034" transform="translate(36.401219 18.1275) scale(0.16 -0.16)">
       <defs>
        <path id="STIXGeneral-Regular-36" d="M 2854 4378 
L 2867 4275 
Q 2112 4154 1606 3664 
Q 1101 3174 973 2451 
Q 1344 2739 1786 2739 
Q 2349 2739 2672 2380 
Q 2995 2022 2995 1402 
Q 2995 774 2669 378 
Q 2291 -90 1651 -90 
Q 870 -90 518 557 
Q 218 1107 218 1786 
Q 218 2835 915 3552 
Q 1312 3962 1731 4131 
Q 2150 4301 2854 4378 
z
M 2419 1203 
Q 2419 2445 1555 2445 
Q 1235 2445 1024 2275 
Q 813 2106 813 1702 
Q 813 954 1046 522 
Q 1280 90 1722 90 
Q 2061 90 2240 394 
Q 2419 698 2419 1203 
z
" transform="scale(0.015625)"/>
       </defs>
       <use xlink:href="#STIXGeneral-Regular-36" transform="translate(0 0.59375)"/>
       <use xlink:href="#STIXGeneral-Regular-30" transform="translate(49.999985 0.59375)"/>
      </g>
     </g>
    </g>
    <g id="text_17">
     <!-- Close ($) -->
     <g transform="translate(29.928719 140.13625) rotate(-90) scale(0.16 -0.16)">
      <defs>
       <path id="STIXGeneral-Regular-43" d="M 3930 838 
L 4051 723 
Q 3482 -90 2304 -90 
Q 1376 -90 794 480 
Q 179 1082 179 2080 
Q 179 3014 755 3661 
Q 1357 4326 2310 4326 
Q 2720 4326 3072 4230 
Q 3475 4115 3514 4115 
Q 3725 4115 3782 4326 
L 3910 4326 
L 3968 2874 
L 3821 2874 
Q 3718 3334 3488 3584 
Q 3034 4070 2458 4070 
Q 1747 4070 1334 3548 
Q 922 3027 922 2182 
Q 922 1152 1382 653 
Q 1811 192 2522 192 
Q 2944 192 3251 339 
Q 3558 486 3930 838 
z
" transform="scale(0.015625)"/>
       <path id="STIXGeneral-Regular-6c" d="M 1645 0 
L 134 0 
L 134 96 
Q 435 122 531 221 
Q 627 320 627 589 
L 627 3590 
Q 627 3821 569 3910 
Q 512 4000 358 4000 
Q 224 4000 122 3987 
L 122 4090 
Q 730 4237 1133 4371 
L 1165 4346 
L 1165 557 
Q 1165 288 1254 201 
Q 1344 115 1645 96 
L 1645 0 
z
" transform="scale(0.015625)"/>
       <path id="STIXGeneral-Regular-6f" d="M 3008 1478 
Q 3008 806 2608 371 
Q 2208 -64 1568 -64 
Q 979 -64 582 368 
Q 186 800 186 1459 
Q 186 2125 582 2534 
Q 979 2944 1626 2944 
Q 2221 2944 2614 2537 
Q 3008 2131 3008 1478 
z
M 2432 1306 
Q 2432 2035 2112 2445 
Q 1856 2765 1504 2765 
Q 1171 2765 966 2493 
Q 762 2221 762 1747 
Q 762 928 1101 435 
Q 1318 115 1677 115 
Q 2029 115 2230 432 
Q 2432 749 2432 1306 
z
" transform="scale(0.015625)"/>
       <path id="STIXGeneral-Regular-73" d="M 998 1926 
L 1664 1523 
Q 1984 1331 2105 1164 
Q 2227 998 2227 736 
Q 2227 416 1961 176 
Q 1696 -64 1331 -64 
Q 1030 -64 864 -6 
Q 691 51 570 51 
Q 461 51 416 -26 
L 333 -26 
L 333 979 
L 435 979 
Q 538 512 730 294 
Q 922 77 1248 77 
Q 1485 77 1632 211 
Q 1779 346 1779 550 
Q 1779 845 1440 1030 
L 1094 1222 
Q 326 1651 326 2150 
Q 326 2522 566 2730 
Q 806 2938 1210 2938 
Q 1491 2938 1638 2867 
Q 1754 2816 1818 2816 
Q 1862 2816 1920 2880 
L 1990 2880 
L 2022 2010 
L 1926 2010 
Q 1818 2445 1654 2621 
Q 1491 2797 1203 2797 
Q 986 2797 854 2688 
Q 723 2579 723 2362 
Q 723 2253 796 2128 
Q 870 2003 998 1926 
z
" transform="scale(0.015625)"/>
       <path id="STIXGeneral-Regular-20" transform="scale(0.015625)"/>
       <path id="STIXGeneral-Regular-28" d="M 1946 -1030 
L 1869 -1133 
Q 1126 -710 716 32 
Q 307 774 307 1613 
Q 307 3386 1888 4326 
L 1946 4224 
Q 1293 3667 1075 3126 
Q 858 2586 858 1632 
Q 858 685 1082 96 
Q 1306 -493 1946 -1030 
z
" transform="scale(0.015625)"/>
       <path id="STIXGeneral-Regular-24" d="M 1690 4077 
L 1690 2502 
Q 2234 2208 2445 2045 
Q 2656 1882 2797 1664 
Q 2931 1466 2931 1088 
Q 2931 570 2614 326 
Q 2298 83 1690 0 
L 1690 -557 
L 1472 -557 
L 1472 0 
Q 1062 0 806 73 
Q 550 147 282 326 
L 282 1158 
L 378 1158 
Q 480 685 761 432 
Q 1043 179 1472 179 
L 1472 1984 
Q 800 2362 566 2624 
Q 333 2886 333 3283 
Q 333 3731 659 3974 
Q 986 4218 1472 4250 
L 1472 4653 
L 1690 4653 
L 1690 4250 
Q 2426 4205 2720 3910 
L 2720 3200 
L 2624 3200 
Q 2528 3597 2301 3814 
Q 2074 4032 1690 4077 
z
M 1472 2605 
L 1472 4077 
Q 806 3942 806 3405 
Q 806 3194 937 3037 
Q 1069 2880 1472 2605 
z
M 1690 1875 
L 1690 179 
Q 2086 262 2252 432 
Q 2419 602 2419 941 
Q 2419 1235 2272 1427 
Q 2125 1619 1690 1875 
z
" transform="scale(0.015625)"/>
       <path id="STIXGeneral-Regular-29" d="M 186 4224 
L 262 4326 
Q 992 3891 1408 3148 
Q 1824 2406 1824 1581 
Q 1824 -166 243 -1133 
L 186 -1030 
Q 845 -486 1059 54 
Q 1274 595 1274 1562 
Q 1274 2534 1059 3120 
Q 845 3706 186 4224 
z
" transform="scale(0.015625)"/>
      </defs>
      <use xlink:href="#STIXGeneral-Regular-43"/>
      <use xlink:href="#STIXGeneral-Regular-6c" x="66.699997"/>
      <use xlink:href="#STIXGeneral-Regular-6f" x="94.499985"/>
      <use xlink:href="#STIXGeneral-Regular-73" x="144.499969"/>
      <use xlink:href="#STIXGeneral-Regular-65" x="183.399963"/>
      <use xlink:href="#STIXGeneral-Regular-20" x="227.799957"/>
      <use xlink:href="#STIXGeneral-Regular-28" x="252.799942"/>
      <use xlink:href="#STIXGeneral-Regular-24" x="286.09993"/>
      <use xlink:href="#STIXGeneral-Regular-29" x="336.099915"/>
     </g>
    </g>
   </g>
   <g id="line2d_16">
    <path d="M 79.692128 157.987733 
L 80.697873 156.848874 
L 82.206491 156.265858 
L 84.217982 154.21509 
L 86.229472 153.706093 
L 87.73809 151.995156 
L 89.246707 151.434123 
L 91.258198 149.218664 
L 92.766816 148.714454 
L 94.275433 147.259598 
L 94.778306 146.963605 
L 96.286924 146.645169 
L 98.298414 145.587536 
L 99.807032 145.330016 
L 100.812777 144.806075 
L 101.818522 144.417157 
L 103.32714 144.158834 
L 105.33863 143.145714 
L 106.847248 142.769858 
L 108.858739 141.253577 
L 110.367356 140.872942 
L 111.373102 140.225799 
L 111.875974 139.899353 
L 113.887464 139.553666 
L 115.898955 138.177763 
L 117.407573 137.865564 
L 119.419063 136.602347 
L 120.927681 136.288289 
L 122.436299 135.335596 
L 122.939171 135.209661 
L 128.47077 134.928101 
L 133.499496 134.194681 
L 140.539712 133.958135 
L 143.054075 133.865199 
L 144.05982 133.989763 
L 146.574183 134.161388 
L 147.579928 134.292003 
L 150.094291 134.377233 
L 153.614399 134.003835 
L 154.620144 133.759769 
L 156.631635 133.530362 
L 157.63738 133.173943 
L 158.140253 133.102089 
L 159.64887 133.02955 
L 160.151743 132.825034 
L 161.660361 131.81496 
L 163.168979 131.441258 
L 165.180469 129.712833 
L 166.689087 129.272957 
L 168.700577 127.776877 
L 170.209195 127.350758 
L 172.220685 125.806648 
L 173.729303 125.457073 
L 174.735048 124.86879 
L 175.740793 124.569203 
L 177.752284 124.423371 
L 179.260901 124.146512 
L 182.278137 123.893095 
L 182.78101 123.76951 
L 184.7925 123.608824 
L 185.798245 123.264126 
L 187.809736 123.229266 
L 188.815481 123.081965 
L 189.821226 123.177349 
L 192.335589 123.250965 
L 193.341334 123.453346 
L 194.849952 123.332395 
L 196.861442 122.490293 
L 198.37006 122.183559 
L 200.38155 120.940748 
L 201.890168 120.678646 
L 203.901658 119.780808 
L 205.410276 119.500051 
L 206.416021 118.989585 
L 207.421767 118.218474 
L 208.930384 117.874354 
L 210.941875 116.458549 
L 212.450493 116.028915 
L 213.456238 115.189554 
L 214.461983 114.438067 
L 215.970601 113.993197 
L 217.982091 112.241555 
L 219.490709 111.736758 
L 221.502199 109.949199 
L 223.010817 109.619728 
L 224.016562 109.096375 
L 226.530925 108.470911 
L 228.542415 106.817571 
L 230.051033 106.410772 
L 231.056778 105.923052 
L 232.062524 105.491567 
L 235.582632 104.838363 
L 237.594122 104.944958 
L 239.10274 105.130135 
L 241.617103 105.271198 
L 242.119975 105.491636 
L 242.622848 105.879781 
L 244.634338 106.157218 
L 246.142956 107.330632 
L 248.154447 107.631991 
L 248.657319 107.701984 
L 249.663064 107.530271 
L 252.6803 107.302705 
L 256.703281 106.666588 
L 259.720516 106.447619 
L 260.223389 106.211475 
L 261.732007 105.935399 
L 263.743497 105.162233 
L 266.25786 105.126894 
L 267.263605 105.439493 
L 269.275095 105.48157 
L 270.783713 106.126461 
L 272.292331 106.403614 
L 273.298076 106.731538 
L 274.303821 106.933616 
L 276.315312 106.885194 
L 277.321057 106.581397 
L 277.82393 106.394742 
L 279.332547 106.190608 
L 280.841165 105.002055 
L 281.344038 104.841555 
L 284.361273 104.420019 
L 284.864146 104.537944 
L 286.875636 104.796247 
L 287.881381 104.550331 
L 289.892872 104.285291 
L 291.904362 103.407183 
L 293.41298 103.072738 
L 295.42447 101.952229 
L 296.933088 101.716174 
L 298.944578 100.918977 
L 300.453196 100.669957 
L 301.961814 99.832653 
L 302.464687 99.371773 
L 303.973304 98.817477 
L 304.979049 97.624332 
L 305.984795 96.41264 
L 307.493412 95.84771 
L 308.499158 94.693518 
L 309.504903 93.835513 
L 311.013521 93.342222 
L 312.522138 92.312789 
L 313.025011 92.043753 
L 314.533629 91.853779 
L 316.545119 90.981615 
L 318.556609 90.462855 
L 319.562355 89.467596 
L 320.065227 88.882259 
L 321.573845 88.248893 
L 322.57959 87.03165 
L 323.082463 86.50155 
L 323.585335 86.138698 
L 326.099698 85.457987 
L 327.105444 85.191478 
L 329.116934 85.033524 
L 330.625552 84.628096 
L 332.637042 84.466332 
L 333.139915 84.14066 
L 334.14566 83.205524 
L 335.654278 82.714386 
L 336.15715 82.279856 
L 337.162895 81.825723 
L 337.665768 81.32404 
L 339.174386 80.821867 
L 341.185876 79.044668 
L 342.694494 78.461084 
L 344.705984 76.158564 
L 346.214602 75.545986 
L 347.220347 74.101461 
L 348.226092 72.285789 
L 349.73471 71.277947 
L 351.746201 67.356457 
L 353.254818 66.568357 
L 355.266309 62.891422 
L 356.774926 62.171749 
L 358.786417 59.415194 
L 360.295035 58.705969 
L 362.306525 55.614635 
L 363.815143 54.755945 
L 365.323761 52.120154 
L 365.826633 51.395497 
L 367.838123 50.607985 
L 368.340996 49.722064 
L 368.843869 49.092409 
L 369.346741 48.771515 
L 370.855359 48.408173 
L 371.861104 47.845672 
L 372.866849 47.272732 
L 374.375467 47.009944 
L 375.381212 46.374805 
L 376.386958 46.02434 
L 377.895575 45.953857 
L 378.901321 46.129682 
L 379.907066 45.870782 
L 381.415683 46.058896 
L 382.924301 46.96493 
L 383.427174 47.288752 
L 384.935792 47.755664 
L 385.941537 49.362511 
L 386.947282 51.021315 
L 388.4559 51.659577 
L 388.958772 52.408734 
L 390.46739 55.786465 
L 391.976008 56.931766 
L 392.981753 58.808149 
L 393.987498 60.668638 
L 395.496116 61.42648 
L 396.501861 63.553469 
L 397.507606 66.051624 
L 399.016224 67.382415 
L 400.524842 71.651248 
L 401.027715 73.146133 
L 402.536332 74.503775 
L 404.04495 79.141109 
L 404.547823 80.720745 
L 406.05644 82.236723 
L 407.062186 85.204531 
L 408.067931 86.685757 
L 409.576549 88.040941 
L 411.085166 93.286574 
L 411.588039 94.78946 
L 413.096657 96.342344 
L 413.599529 97.801596 
L 414.605275 99.200814 
L 415.108147 100.678613 
L 416.616765 102.2149 
L 417.119638 103.785938 
L 418.628255 107.206235 
L 420.136873 108.513114 
L 421.142618 110.93493 
L 422.148363 112.717133 
L 423.656981 113.226425 
L 424.662726 113.815864 
L 425.165599 114.454018 
L 425.668472 114.799118 
L 429.18858 115.038875 
L 430.697197 115.135424 
L 432.708688 116.048783 
L 434.720178 116.21367 
L 439.246032 115.438751 
L 439.748904 115.160433 
L 441.257522 114.911491 
L 442.263267 114.11168 
L 443.269012 112.945874 
L 444.77763 112.414218 
L 446.78912 109.872048 
L 448.297738 108.770095 
L 450.309229 104.898192 
L 452.320719 104.052976 
L 453.829337 101.429376 
L 455.337955 100.583386 
L 456.846572 97.815697 
L 457.349445 96.808825 
L 458.858063 95.742104 
L 460.869553 91.757945 
L 462.378171 90.971794 
L 463.886789 88.792183 
L 464.389661 88.071824 
L 465.898279 87.257561 
L 467.909769 83.857181 
L 469.418387 83.054923 
L 469.92126 82.337404 
L 471.429877 79.551355 
L 472.938495 78.708978 
L 474.949986 76.149908 
L 476.458603 75.877739 
L 477.967221 74.787478 
L 478.470094 74.378839 
L 479.978712 74.120633 
L 480.481584 73.921102 
L 481.487329 73.892803 
L 483.49882 73.989548 
L 485.007437 74.575756 
L 485.51031 74.870387 
L 485.51031 74.870387 
" clip-path="url(#p65b3254571)" style="fill: none; stroke: #bc80bd; stroke-width: 3; stroke-linecap: square"/>
   </g>
   <g id="patch_3">
    <path d="M 59.401219 208.50375 
L 59.401219 12.66375 
" style="fill: none; stroke: #000000; stroke-width: 0.6; stroke-linejoin: miter; stroke-linecap: square"/>
   </g>
   <g id="patch_4">
    <path d="M 59.401219 208.50375 
L 505.801219 208.50375 
" style="fill: none; stroke: #000000; stroke-width: 0.6; stroke-linejoin: miter; stroke-linecap: square"/>
   </g>
  </g>
 </g>
 <defs>
  <clipPath id="p65b3254571">
   <rect x="59.401219" y="12.66375" width="446.4" height="195.84"/>
  </clipPath>
 </defs>
</svg>