<?xml version="1.0" encoding="utf-8" standalone="no"?>
<!DOCTYPE svg PUBLIC "-//W3C//DTD SVG 1.1//EN"
  "http://www.w3.org/Graphics/SVG/1.1/DTD/svg11.dtd">
<svg xmlns:xlink="http://www.w3.org/1999/xlink" width="356.788594pt" height="398.061pt" viewBox="0 0 356.788594 398.061" xmlns="http://www.w3.org/2000/svg" version="1.1">
 <metadata>
  <rdf:RDF xmlns:dc="http://purl.org/dc/elements/1.1/" xmlns:cc="http://creativecommons.org/ns#" xmlns:rdf="http://www.w3.org/1999/02/22-rdf-syntax-ns#">
   <cc:Work>
    <dc:type rdf:resource="http://purl.org/dc/dcmitype/StillImage"/>
    <dc:date>2023-12-29T00:21:43.180921</dc:date>
    <dc:format>image/svg+xml</dc:format>
    <dc:creator>
     <cc:Agent>
      <dc:title>Matplotlib v3.7.2, https://matplotlib.org/</dc:title>
     </cc:Agent>
    </dc:creator>
   </cc:Work>
  </rdf:RDF>
 </metadata>
 <defs>
  <style type="text/css">*{stroke-linejoin: round; stroke-linecap: butt}</style>
 </defs>
 <g id="figure_1">
  <g id="patch_1">
   <path d="M 0 398.061 
L 356.788594 398.061 
L 356.788594 0 
L 0 0 
z
" style="fill: #ffffff"/>
  </g>
  <g id="axes_1">
   <g id="patch_2">
    <path d="M 59.774297 153.806833 
L 263.478696 153.806833 
L 263.478696 70.7325 
L 59.774297 70.7325 
z
" style="fill: #ffffff"/>
   </g>
   <g id="matplotlib.axis_1">
    <g id="xtick_1">
     <g id="line2d_1">
      <defs>
       <path id="m546b785950" d="M 0 0 
L 0 3.5 
" style="stroke: #323034; stroke-width: 0.8"/>
      </defs>
      <g>
       <use xlink:href="#m546b785950" x="59.774297" y="153.806833" style="fill: #323034; stroke: #323034; stroke-width: 0.8"/>
      </g>
     </g>
    </g>
    <g id="xtick_2">
     <g id="line2d_2">
      <g>
       <use xlink:href="#m546b785950" x="79.745316" y="153.806833" style="fill: #323034; stroke: #323034; stroke-width: 0.8"/>
      </g>
     </g>
    </g>
    <g id="xtick_3">
     <g id="line2d_3">
      <g>
       <use xlink:href="#m546b785950" x="100.382037" y="153.806833" style="fill: #323034; stroke: #323034; stroke-width: 0.8"/>
      </g>
     </g>
    </g>
    <g id="xtick_4">
     <g id="line2d_4">
      <g>
       <use xlink:href="#m546b785950" x="120.353056" y="153.806833" style="fill: #323034; stroke: #323034; stroke-width: 0.8"/>
      </g>
     </g>
    </g>
    <g id="xtick_5">
     <g id="line2d_5">
      <g>
       <use xlink:href="#m546b785950" x="140.989776" y="153.806833" style="fill: #323034; stroke: #323034; stroke-width: 0.8"/>
      </g>
     </g>
    </g>
    <g id="xtick_6">
     <g id="line2d_6">
      <g>
       <use xlink:href="#m546b785950" x="161.626497" y="153.806833" style="fill: #323034; stroke: #323034; stroke-width: 0.8"/>
      </g>
     </g>
    </g>
    <g id="xtick_7">
     <g id="line2d_7">
      <g>
       <use xlink:href="#m546b785950" x="181.597516" y="153.806833" style="fill: #323034; stroke: #323034; stroke-width: 0.8"/>
      </g>
     </g>
    </g>
    <g id="xtick_8">
     <g id="line2d_8">
      <g>
       <use xlink:href="#m546b785950" x="202.234236" y="153.806833" style="fill: #323034; stroke: #323034; stroke-width: 0.8"/>
      </g>
     </g>
    </g>
    <g id="xtick_9">
     <g id="line2d_9">
      <g>
       <use xlink:href="#m546b785950" x="222.205256" y="153.806833" style="fill: #323034; stroke: #323034; stroke-width: 0.8"/>
      </g>
     </g>
    </g>
    <g id="xtick_10">
     <g id="line2d_10">
      <g>
       <use xlink:href="#m546b785950" x="242.841976" y="153.806833" style="fill: #323034; stroke: #323034; stroke-width: 0.8"/>
      </g>
     </g>
    </g>
    <g id="xtick_11">
     <g id="line2d_11">
      <g>
       <use xlink:href="#m546b785950" x="263.478696" y="153.806833" style="fill: #323034; stroke: #323034; stroke-width: 0.8"/>
      </g>
     </g>
    </g>
   </g>
   <g id="matplotlib.axis_2">
    <g id="ytick_1">
     <g id="line2d_12">
      <defs>
       <path id="m2aa358b68d" d="M 0 0 
L 3.5 0 
" style="stroke: #323034; stroke-width: 0.8"/>
      </defs>
      <g>
       <use xlink:href="#m2aa358b68d" x="263.478696" y="133.03825" style="fill: #323034; stroke: #323034; stroke-width: 0.8"/>
      </g>
     </g>
     <g id="text_1">
      <!-- $\mathdefault{10.0}$ -->
      <g style="fill: #323034" transform="translate(270.478696 138.502) scale(0.16 -0.16)">
       <defs>
        <path id="STIXGeneral-Regular-31" d="M 2522 0 
L 755 0 
L 755 96 
Q 1107 115 1235 227 
Q 1363 339 1363 608 
L 1363 3482 
Q 1363 3795 1171 3795 
Q 1082 3795 883 3718 
L 710 3654 
L 710 3744 
L 1856 4326 
L 1914 4307 
L 1914 486 
Q 1914 275 2042 185 
Q 2170 96 2522 96 
L 2522 0 
z
" transform="scale(0.015625)"/>
        <path id="STIXGeneral-Regular-30" d="M 3046 2112 
Q 3046 1683 2963 1302 
Q 2880 922 2717 602 
Q 2554 282 2266 96 
Q 1978 -90 1600 -90 
Q 1210 -90 915 108 
Q 621 307 461 640 
Q 301 973 227 1350 
Q 154 1728 154 2150 
Q 154 2746 301 3222 
Q 448 3699 790 4012 
Q 1133 4326 1626 4326 
Q 2253 4326 2649 3712 
Q 3046 3098 3046 2112 
z
M 2432 2080 
Q 2432 3091 2217 3625 
Q 2003 4160 1587 4160 
Q 1190 4160 979 3622 
Q 768 3085 768 2106 
Q 768 1120 979 598 
Q 1190 77 1600 77 
Q 2003 77 2217 598 
Q 2432 1120 2432 2080 
z
" transform="scale(0.015625)"/>
        <path id="STIXGeneral-Regular-2e" d="M 1158 275 
Q 1158 134 1052 32 
Q 947 -70 800 -70 
Q 653 -70 550 32 
Q 448 134 448 281 
Q 448 429 553 534 
Q 659 640 806 640 
Q 947 640 1052 531 
Q 1158 422 1158 275 
z
" transform="scale(0.015625)"/>
       </defs>
       <use xlink:href="#STIXGeneral-Regular-31" transform="translate(0 0.40625)"/>
       <use xlink:href="#STIXGeneral-Regular-30" transform="translate(49.999985 0.40625)"/>
       <use xlink:href="#STIXGeneral-Regular-2e" transform="translate(99.999969 0.40625)"/>
       <use xlink:href="#STIXGeneral-Regular-30" transform="translate(124.999954 0.40625)"/>
      </g>
     </g>
    </g>
    <g id="ytick_2">
     <g id="line2d_13">
      <g>
       <use xlink:href="#m2aa358b68d" x="263.478696" y="81.116792" style="fill: #323034; stroke: #323034; stroke-width: 0.8"/>
      </g>
     </g>
     <g id="text_2">
      <!-- $\mathdefault{12.5}$ -->
      <g style="fill: #323034" transform="translate(270.478696 86.580542) scale(0.16 -0.16)">
       <defs>
        <path id="STIXGeneral-Regular-32" d="M 3034 877 
L 2688 0 
L 186 0 
L 186 77 
L 1325 1286 
Q 1773 1754 1965 2144 
Q 2157 2534 2157 2950 
Q 2157 3379 1920 3616 
Q 1683 3853 1267 3853 
Q 922 3853 720 3673 
Q 518 3494 326 3021 
L 192 3053 
Q 301 3648 630 3987 
Q 960 4326 1523 4326 
Q 2054 4326 2380 4006 
Q 2707 3686 2707 3200 
Q 2707 2477 1888 1613 
L 832 486 
L 2330 486 
Q 2541 486 2665 569 
Q 2790 653 2944 915 
L 3034 877 
z
" transform="scale(0.015625)"/>
        <path id="STIXGeneral-Regular-35" d="M 2803 4358 
L 2573 3814 
Q 2534 3731 2400 3731 
L 1158 3731 
L 902 3187 
Q 1606 3053 1920 2896 
Q 2234 2739 2502 2368 
Q 2726 2061 2726 1555 
Q 2726 1094 2576 780 
Q 2426 467 2099 224 
Q 1664 -90 1011 -90 
Q 646 -90 422 19 
Q 198 128 198 307 
Q 198 550 486 550 
Q 717 550 960 352 
Q 1210 147 1414 147 
Q 1747 147 2012 480 
Q 2278 813 2278 1229 
Q 2278 1843 1850 2189 
Q 1293 2637 486 2637 
Q 410 2637 410 2688 
L 416 2720 
L 1114 4237 
L 2438 4237 
Q 2547 4237 2608 4269 
Q 2669 4301 2746 4403 
L 2803 4358 
z
" transform="scale(0.015625)"/>
       </defs>
       <use xlink:href="#STIXGeneral-Regular-31" transform="translate(0 0.203125)"/>
       <use xlink:href="#STIXGeneral-Regular-32" transform="translate(49.999985 0.203125)"/>
       <use xlink:href="#STIXGeneral-Regular-2e" transform="translate(99.999969 0.203125)"/>
       <use xlink:href="#STIXGeneral-Regular-35" transform="translate(124.999954 0.203125)"/>
      </g>
     </g>
    </g>
    <g id="ytick_3">
     <g id="line2d_14">
      <defs>
       <path id="m84bb1701f1" d="M 0 0 
L 2 0 
" style="stroke: #323034; stroke-width: 0.6"/>
      </defs>
      <g>
       <use xlink:href="#m84bb1701f1" x="263.478696" y="107.077521" style="fill: #323034; stroke: #323034; stroke-width: 0.6"/>
      </g>
     </g>
    </g>
   </g>
   <g id="line2d_15">
    <path d="M 59.774297 127.65849 
L 61.771399 126.699341 
L 63.1028 126.279559 
L 64.434201 126.169856 
L 65.765603 126.337732 
L 70.425507 127.291702 
L 72.422609 127.274051 
L 75.085412 127.187205 
L 76.416813 127.421296 
L 79.079616 128.279178 
L 80.411017 128.847116 
L 82.408119 129.975522 
L 85.070922 131.500707 
L 86.402323 132.06452 
L 87.733724 132.387643 
L 95.056431 133.548163 
L 96.387833 133.735363 
L 97.719234 133.741161 
L 100.382037 133.563818 
L 105.041941 133.698151 
L 106.373342 133.404994 
L 107.704744 132.793888 
L 109.036145 131.842382 
L 110.367546 130.515076 
L 111.698948 128.844759 
L 113.69605 125.86817 
L 116.358852 121.789248 
L 118.355954 119.115308 
L 119.687356 117.614396 
L 121.018757 116.36547 
L 124.34726 113.720967 
L 127.010063 111.733975 
L 128.341464 110.925887 
L 129.672865 110.386208 
L 131.004267 110.109191 
L 133.001369 109.996647 
L 134.33277 110.114314 
L 136.329872 110.555836 
L 138.326974 111.265377 
L 140.324076 112.299574 
L 142.321178 113.383376 
L 144.31828 114.187972 
L 147.646783 115.342602 
L 148.978184 116.035936 
L 153.638089 118.852011 
L 154.96949 119.327602 
L 156.966592 119.752255 
L 158.963694 120.14646 
L 160.960796 120.781007 
L 162.957898 121.676116 
L 164.955 122.66933 
L 165.6207 122.891853 
L 166.286401 122.970512 
L 166.952102 122.898486 
L 168.283503 122.404719 
L 170.946306 120.89571 
L 172.943408 119.84268 
L 174.274809 119.340118 
L 175.60621 119.090679 
L 180.266115 118.622659 
L 181.597516 118.147427 
L 183.594618 117.109126 
L 186.257421 115.705169 
L 189.585924 113.975337 
L 192.248727 112.325282 
L 194.245829 110.786627 
L 198.905733 106.712299 
L 200.902835 104.724479 
L 202.234236 103.173338 
L 204.231338 100.46028 
L 207.559842 95.71921 
L 208.891243 94.077258 
L 210.222644 92.720022 
L 211.554045 91.715515 
L 212.885447 91.084169 
L 214.216848 90.80719 
L 215.548249 90.833727 
L 218.876753 91.242804 
L 219.542453 91.085487 
L 220.208154 90.79702 
L 221.539555 89.874728 
L 224.868058 87.051816 
L 226.19946 86.201498 
L 227.530861 85.618532 
L 228.862262 85.321769 
L 230.193664 85.318804 
L 231.525065 85.550934 
L 232.856466 86.022437 
L 234.187868 86.748445 
L 236.85067 88.407783 
L 237.516371 88.701451 
L 238.182072 88.839711 
L 238.847772 88.76177 
L 239.513473 88.514672 
L 240.844874 87.636593 
L 242.841976 85.799265 
L 244.173377 84.464431 
L 245.504779 83.452875 
L 246.170479 83.131352 
L 246.83618 82.95044 
L 247.501881 82.923189 
L 248.167581 83.054433 
L 248.833282 83.326909 
L 250.164683 84.229785 
L 251.496085 85.476423 
L 255.490288 89.588231 
L 257.48739 91.209547 
L 260.150193 93.042155 
L 263.478696 95.014006 
L 263.478696 95.014006 
" clip-path="url(#p14e7d445c0)" style="fill: none; stroke-dasharray: 3.7,1.6; stroke-dashoffset: 0; stroke: #000000"/>
   </g>
   <g id="line2d_16">
    <path d="M 59.774297 128.863844 
L 61.105698 125.075998 
L 61.771399 123.361587 
L 62.437099 129.902766 
L 63.1028 125.997095 
L 63.768501 126.389741 
L 64.434201 125.39852 
L 65.099902 123.599632 
L 65.765603 124.346714 
L 66.431303 125.463892 
L 67.097004 128.700223 
L 67.762705 129.779088 
L 68.428405 129.048985 
L 69.094106 126.598908 
L 69.759807 125.534068 
L 70.425507 125.602505 
L 71.756909 130.13267 
L 72.422609 128.508294 
L 73.08831 129.98563 
L 73.754011 127.447213 
L 74.419711 124.159561 
L 75.085412 122.412034 
L 75.751113 123.77454 
L 76.416813 129.014776 
L 77.082514 131.962889 
L 77.748214 130.698589 
L 78.413915 129.155079 
L 79.745316 124.040613 
L 81.742418 133.099123 
L 82.408119 131.511227 
L 83.07382 130.821103 
L 83.73952 127.704527 
L 84.405221 128.317371 
L 85.070922 130.51825 
L 85.736622 134.716076 
L 86.402323 137.672829 
L 87.068024 132.781925 
L 87.733724 133.886465 
L 88.399425 128.83918 
L 89.065126 129.405287 
L 89.730826 131.55332 
L 90.396527 136.092668 
L 91.062228 133.227182 
L 91.727928 134.052133 
L 93.059329 129.808123 
L 94.390731 132.811749 
L 95.056431 135.01051 
L 95.722132 135.998944 
L 97.053533 136.389697 
L 97.719234 132.585416 
L 98.384935 130.787233 
L 99.050635 131.784594 
L 99.716336 134.394532 
L 100.382037 133.160682 
L 101.047737 134.237107 
L 101.713438 135.056181 
L 102.379139 133.428927 
L 103.044839 127.535283 
L 103.71054 132.581726 
L 104.376241 136.53201 
L 105.041941 136.99339 
L 105.707642 136.322218 
L 106.373342 132.274092 
L 107.039043 131.958413 
L 107.704744 130.002731 
L 108.370444 130.13267 
L 109.036145 135.966349 
L 109.701846 134.921535 
L 110.367546 130.504057 
L 111.033247 129.871171 
L 112.364648 126.050907 
L 113.030349 125.265148 
L 113.69605 129.293186 
L 115.027451 123.384677 
L 115.693152 122.272318 
L 117.024553 117.958539 
L 118.355954 120.904029 
L 119.021655 120.910339 
L 119.687356 116.692798 
L 120.353056 116.023003 
L 121.018757 113.82314 
L 121.684457 113.235309 
L 122.350158 116.010124 
L 123.015859 118.30862 
L 123.681559 117.158513 
L 124.34726 114.381963 
L 125.012961 112.415566 
L 125.678661 112.264513 
L 126.344362 109.55738 
L 127.010063 111.977974 
L 127.675763 113.000086 
L 129.007165 110.372219 
L 129.672865 109.522403 
L 130.338566 107.402306 
L 131.004267 108.752506 
L 131.669967 111.39453 
L 132.335668 111.453143 
L 133.001369 112.26486 
L 133.667069 110.475364 
L 134.33277 109.102147 
L 134.998471 109.022785 
L 135.664171 108.004199 
L 136.329872 110.003835 
L 136.995572 114.330953 
L 137.661273 112.5115 
L 138.992674 110.001969 
L 139.658375 109.339056 
L 140.324076 109.296928 
L 140.989776 113.35411 
L 141.655477 115.685403 
L 142.321178 117.084902 
L 142.986878 114.588429 
L 143.652579 114.521054 
L 144.98398 111.829381 
L 145.649681 113.94273 
L 146.315382 116.653777 
L 146.981082 117.221375 
L 147.646783 114.663029 
L 148.312484 114.307599 
L 148.978184 114.390797 
L 149.643885 112.407882 
L 151.640987 121.974631 
L 152.306687 119.032761 
L 152.972388 119.138716 
L 154.303789 116.425418 
L 154.96949 118.188809 
L 155.635191 125.066361 
L 156.300891 120.438281 
L 156.966592 121.103163 
L 157.632293 118.133072 
L 158.963694 117.491242 
L 159.629395 118.382049 
L 160.295095 124.374032 
L 160.960796 122.556111 
L 161.626497 118.644419 
L 162.292197 124.995184 
L 162.957898 117.565861 
L 163.623599 115.157758 
L 164.289299 119.508959 
L 164.955 126.623126 
L 165.6207 130.270854 
L 167.617802 121.678969 
L 168.283503 117.048631 
L 168.949204 121.117498 
L 169.614904 124.42753 
L 170.280605 122.329668 
L 170.946306 121.057569 
L 171.612006 121.030578 
L 172.277707 118.058223 
L 172.943408 116.480148 
L 174.274809 122.630811 
L 174.94051 114.051292 
L 175.60621 122.047821 
L 176.271911 119.85791 
L 176.937612 118.106867 
L 177.603312 114.191984 
L 178.269013 119.292831 
L 178.934714 122.099541 
L 179.600414 122.065047 
L 180.266115 118.811049 
L 180.931815 119.605029 
L 181.597516 117.556463 
L 182.263217 114.576409 
L 182.928917 116.956274 
L 183.594618 123.3829 
L 184.260319 111.407171 
L 184.926019 119.211754 
L 185.59172 114.795793 
L 186.257421 113.51775 
L 186.923121 112.588497 
L 188.254523 118.301198 
L 188.920223 116.85351 
L 189.585924 114.263643 
L 190.917325 110.451198 
L 191.583026 108.887353 
L 192.248727 114.89632 
L 192.914427 116.91155 
L 193.580128 110.423569 
L 194.245829 112.021458 
L 194.911529 110.808916 
L 195.57723 107.555713 
L 196.24293 104.919778 
L 196.908631 106.623524 
L 197.574332 112.324942 
L 198.240032 107.692166 
L 198.905733 107.762127 
L 200.902835 101.644364 
L 201.568536 105.186887 
L 202.234236 107.815802 
L 202.899937 102.90067 
L 203.565638 103.254951 
L 204.231338 100.003565 
L 204.897039 97.5982 
L 205.56274 95.721827 
L 206.22844 96.828445 
L 206.894141 100.93801 
L 207.559842 96.097185 
L 208.225542 94.67581 
L 208.891243 94.182877 
L 209.556944 91.387035 
L 210.222644 89.237538 
L 210.888345 91.981523 
L 211.554045 95.355589 
L 212.219746 91.020729 
L 212.885447 91.644984 
L 213.551147 90.319842 
L 214.216848 88.560734 
L 214.882549 87.34007 
L 215.548249 90.361716 
L 216.21395 94.511425 
L 216.879651 89.452979 
L 217.545351 89.658064 
L 218.211052 89.341472 
L 218.876753 101.004247 
L 219.542453 86.62359 
L 220.208154 93.001957 
L 220.873855 95.212288 
L 221.539555 90.884641 
L 222.870957 87.099898 
L 223.536657 85.456433 
L 224.202358 84.195427 
L 224.868058 86.636812 
L 225.533759 90.363165 
L 226.19946 86.756797 
L 226.86516 85.268806 
L 227.530861 85.268617 
L 228.196562 84.708522 
L 228.862262 80.232008 
L 229.527963 86.45347 
L 230.193664 88.92826 
L 230.859364 87.129548 
L 231.525065 86.896384 
L 232.190766 83.021123 
L 232.856466 83.633892 
L 233.522167 82.488247 
L 234.187868 87.864014 
L 234.853568 89.419707 
L 235.519269 87.064208 
L 236.18497 87.051947 
L 236.85067 84.521575 
L 237.516371 87.906257 
L 238.182072 101.42447 
L 238.847772 85.540253 
L 239.513473 92.908754 
L 240.179173 88.395034 
L 240.844874 87.114563 
L 241.510575 84.41371 
L 242.176275 84.226329 
L 242.841976 93.580568 
L 243.507677 79.389415 
L 244.173377 87.037224 
L 244.839078 82.435399 
L 245.504779 83.870521 
L 247.501881 78.746589 
L 248.833282 86.377253 
L 249.498983 84.65394 
L 250.164683 84.320666 
L 250.830384 84.37963 
L 251.496085 83.476091 
L 252.161785 83.447411 
L 254.158887 94.461479 
L 254.824588 88.623297 
L 255.490288 88.785685 
L 256.155989 88.233916 
L 256.82169 88.116169 
L 257.48739 90.852582 
L 258.153091 96.219824 
L 258.818792 92.304894 
L 259.484492 93.107847 
L 260.150193 92.41208 
L 260.815894 91.069165 
L 261.481594 91.265055 
L 262.147295 95.569619 
L 262.812996 98.888374 
L 263.478696 94.391551 
L 263.478696 94.391551 
" clip-path="url(#p14e7d445c0)" style="fill: none; stroke: #bc80bd; stroke-opacity: 0.7; stroke-width: 3; stroke-linecap: square"/>
   </g>
   <g id="patch_3">
    <path d="M 263.478696 153.806833 
L 263.478696 70.7325 
" style="fill: none; stroke: #000000; stroke-width: 0.6; stroke-linejoin: miter; stroke-linecap: square"/>
   </g>
   <g id="patch_4">
    <path d="M 59.774297 153.806833 
L 263.478696 153.806833 
" style="fill: none; stroke: #000000; stroke-width: 0.6; stroke-linejoin: miter; stroke-linecap: square"/>
   </g>
   <g id="text_3">
    <!-- log new cases -->
    <g style="fill: #323034" transform="translate(157.945571 64.7325) scale(0.19 -0.19)">
     <defs>
      <path id="STIXGeneral-Regular-6c" d="M 1645 0 
L 134 0 
L 134 96 
Q 435 122 531 221 
Q 627 320 627 589 
L 627 3590 
Q 627 3821 569 3910 
Q 512 4000 358 4000 
Q 224 4000 122 3987 
L 122 4090 
Q 730 4237 1133 4371 
L 1165 4346 
L 1165 557 
Q 1165 288 1254 201 
Q 1344 115 1645 96 
L 1645 0 
z
" transform="scale(0.015625)"/>
      <path id="STIXGeneral-Regular-6f" d="M 3008 1478 
Q 3008 806 2608 371 
Q 2208 -64 1568 -64 
Q 979 -64 582 368 
Q 186 800 186 1459 
Q 186 2125 582 2534 
Q 979 2944 1626 2944 
Q 2221 2944 2614 2537 
Q 3008 2131 3008 1478 
z
M 2432 1306 
Q 2432 2035 2112 2445 
Q 1856 2765 1504 2765 
Q 1171 2765 966 2493 
Q 762 2221 762 1747 
Q 762 928 1101 435 
Q 1318 115 1677 115 
Q 2029 115 2230 432 
Q 2432 749 2432 1306 
z
" transform="scale(0.015625)"/>
      <path id="STIXGeneral-Regular-67" d="M 3008 2483 
L 2477 2483 
Q 2598 2208 2598 1946 
Q 2598 1453 2265 1203 
Q 1933 954 1600 954 
Q 1530 954 1357 973 
L 1235 986 
Q 1107 947 979 812 
Q 851 678 851 582 
Q 851 435 1350 410 
L 2176 371 
Q 2528 358 2739 172 
Q 2950 -13 2950 -314 
Q 2950 -685 2566 -986 
Q 2035 -1395 1286 -1395 
Q 826 -1395 502 -1212 
Q 179 -1030 179 -774 
Q 179 -595 320 -419 
Q 461 -243 806 6 
Q 602 102 534 172 
Q 467 243 467 346 
Q 467 531 762 787 
Q 909 915 1037 1043 
Q 717 1203 579 1401 
Q 442 1600 442 1901 
Q 442 2336 752 2640 
Q 1062 2944 1510 2944 
Q 1766 2944 2022 2848 
L 2163 2797 
Q 2349 2733 2515 2733 
L 3008 2733 
L 3008 2483 
z
M 973 2163 
L 973 2144 
Q 973 1683 1155 1398 
Q 1338 1114 1632 1114 
Q 1850 1114 1978 1270 
Q 2106 1427 2106 1690 
Q 2106 2112 1914 2464 
Q 1754 2765 1446 2765 
Q 1222 2765 1097 2605 
Q 973 2445 973 2163 
z
M 2771 -410 
Q 2771 -230 2595 -163 
Q 2419 -96 1978 -96 
Q 1344 -96 941 -13 
Q 749 -243 688 -348 
Q 627 -454 627 -563 
Q 627 -774 880 -902 
Q 1133 -1030 1555 -1030 
Q 2099 -1030 2435 -860 
Q 2771 -691 2771 -410 
z
" transform="scale(0.015625)"/>
      <path id="STIXGeneral-Regular-20" transform="scale(0.015625)"/>
      <path id="STIXGeneral-Regular-6e" d="M 3104 0 
L 1773 0 
L 1779 96 
Q 2016 115 2096 233 
Q 2176 352 2176 672 
L 2176 1946 
Q 2176 2592 1709 2592 
Q 1549 2592 1408 2515 
Q 1267 2438 1050 2227 
L 1050 461 
Q 1050 269 1136 192 
Q 1222 115 1466 96 
L 1466 0 
L 115 0 
L 115 96 
Q 358 115 435 214 
Q 512 314 512 602 
L 512 2157 
Q 512 2394 467 2483 
Q 422 2573 288 2573 
Q 160 2573 102 2547 
L 102 2656 
Q 550 2784 979 2944 
L 1030 2925 
L 1030 2426 
L 1037 2426 
Q 1491 2944 1958 2944 
Q 2323 2944 2518 2688 
Q 2714 2432 2714 1958 
L 2714 544 
Q 2714 288 2790 205 
Q 2867 122 3104 96 
L 3104 0 
z
" transform="scale(0.015625)"/>
      <path id="STIXGeneral-Regular-65" d="M 2611 1050 
L 2714 1005 
Q 2330 -64 1376 -64 
Q 813 -64 486 329 
Q 160 723 160 1389 
Q 160 2074 525 2509 
Q 890 2944 1485 2944 
Q 2061 2944 2374 2502 
Q 2560 2246 2592 1773 
L 621 1773 
Q 646 1370 700 1158 
Q 755 947 915 730 
Q 1184 378 1626 378 
Q 1939 378 2153 531 
Q 2368 685 2611 1050 
z
M 634 1978 
L 1939 1978 
Q 1882 2381 1750 2547 
Q 1619 2714 1312 2714 
Q 1043 2714 864 2525 
Q 685 2336 634 1978 
z
" transform="scale(0.015625)"/>
      <path id="STIXGeneral-Regular-77" d="M 4442 2880 
L 4442 2784 
Q 4346 2752 4301 2691 
Q 4256 2630 4179 2438 
L 3296 224 
Q 3168 -90 3117 -90 
Q 3085 -90 3062 -48 
Q 3040 -6 2963 186 
L 2381 1696 
L 1664 160 
Q 1549 -90 1504 -90 
Q 1446 -90 1338 192 
L 474 2381 
Q 378 2630 314 2700 
Q 250 2771 134 2784 
L 134 2880 
L 1286 2880 
L 1286 2784 
Q 1120 2765 1056 2720 
Q 992 2675 992 2573 
Q 992 2477 1030 2381 
L 1664 710 
L 2246 1984 
L 2118 2342 
Q 2029 2598 1942 2681 
Q 1856 2765 1677 2784 
L 1677 2880 
L 2976 2880 
L 2976 2784 
Q 2752 2752 2678 2707 
Q 2605 2662 2605 2560 
Q 2605 2458 2714 2176 
L 3251 742 
L 3827 2163 
Q 3936 2432 3936 2592 
Q 3936 2669 3875 2710 
Q 3814 2752 3654 2784 
L 3654 2880 
L 4442 2880 
z
" transform="scale(0.015625)"/>
      <path id="STIXGeneral-Regular-63" d="M 2547 998 
L 2637 941 
Q 2362 403 2112 205 
Q 1786 -64 1376 -64 
Q 845 -64 502 336 
Q 160 736 160 1357 
Q 160 2170 698 2618 
Q 1094 2944 1562 2944 
Q 1965 2944 2256 2749 
Q 2547 2554 2547 2285 
Q 2547 2176 2457 2096 
Q 2368 2016 2246 2016 
Q 2022 2016 1939 2310 
L 1901 2451 
Q 1850 2630 1773 2694 
Q 1696 2758 1523 2758 
Q 1133 2758 893 2451 
Q 653 2144 653 1645 
Q 653 1094 928 745 
Q 1203 397 1645 397 
Q 1920 397 2118 528 
Q 2317 659 2547 998 
z
" transform="scale(0.015625)"/>
      <path id="STIXGeneral-Regular-61" d="M 2829 422 
L 2829 243 
Q 2586 -64 2253 -64 
Q 1888 -64 1843 403 
L 1837 403 
Q 1427 -64 909 -64 
Q 608 -64 422 112 
Q 237 288 237 602 
Q 237 1050 685 1350 
Q 992 1555 1837 1869 
L 1837 2214 
Q 1837 2502 1699 2646 
Q 1562 2790 1338 2790 
Q 1146 2790 1018 2697 
Q 890 2605 890 2477 
Q 890 2419 909 2348 
Q 928 2278 928 2208 
Q 928 2112 841 2029 
Q 755 1946 634 1946 
Q 525 1946 441 2029 
Q 358 2112 358 2240 
Q 358 2547 685 2752 
Q 986 2944 1421 2944 
Q 1939 2944 2176 2656 
Q 2291 2522 2323 2384 
Q 2355 2246 2355 1946 
L 2355 723 
Q 2355 301 2554 301 
Q 2682 301 2829 422 
z
M 1837 813 
L 1837 1715 
Q 1248 1510 1018 1293 
Q 800 1094 800 800 
Q 800 557 921 432 
Q 1043 307 1242 307 
Q 1453 307 1613 410 
Q 1747 506 1792 589 
Q 1837 672 1837 813 
z
" transform="scale(0.015625)"/>
      <path id="STIXGeneral-Regular-73" d="M 998 1926 
L 1664 1523 
Q 1984 1331 2105 1164 
Q 2227 998 2227 736 
Q 2227 416 1961 176 
Q 1696 -64 1331 -64 
Q 1030 -64 864 -6 
Q 691 51 570 51 
Q 461 51 416 -26 
L 333 -26 
L 333 979 
L 435 979 
Q 538 512 730 294 
Q 922 77 1248 77 
Q 1485 77 1632 211 
Q 1779 346 1779 550 
Q 1779 845 1440 1030 
L 1094 1222 
Q 326 1651 326 2150 
Q 326 2522 566 2730 
Q 806 2938 1210 2938 
Q 1491 2938 1638 2867 
Q 1754 2816 1818 2816 
Q 1862 2816 1920 2880 
L 1990 2880 
L 2022 2010 
L 1926 2010 
Q 1818 2445 1654 2621 
Q 1491 2797 1203 2797 
Q 986 2797 854 2688 
Q 723 2579 723 2362 
Q 723 2253 796 2128 
Q 870 2003 998 1926 
z
" transform="scale(0.015625)"/>
     </defs>
     <use xlink:href="#STIXGeneral-Regular-6c"/>
     <use xlink:href="#STIXGeneral-Regular-6f" x="27.799988"/>
     <use xlink:href="#STIXGeneral-Regular-67" x="77.799973"/>
     <use xlink:href="#STIXGeneral-Regular-20" x="127.799957"/>
     <use xlink:href="#STIXGeneral-Regular-6e" x="152.799942"/>
     <use xlink:href="#STIXGeneral-Regular-65" x="202.799927"/>
     <use xlink:href="#STIXGeneral-Regular-77" x="247.199921"/>
     <use xlink:href="#STIXGeneral-Regular-20" x="319.399902"/>
     <use xlink:href="#STIXGeneral-Regular-63" x="344.399887"/>
     <use xlink:href="#STIXGeneral-Regular-61" x="388.799881"/>
     <use xlink:href="#STIXGeneral-Regular-73" x="433.199875"/>
     <use xlink:href="#STIXGeneral-Regular-65" x="472.099869"/>
     <use xlink:href="#STIXGeneral-Regular-73" x="516.499863"/>
    </g>
   </g>
   <g id="legend_1">
    <g id="patch_5">
     <path d="M 68.174297 108.3525 
L 141.769922 108.3525 
Q 144.169922 108.3525 144.169922 105.9525 
L 144.169922 79.1325 
Q 144.169922 76.7325 141.769922 76.7325 
L 68.174297 76.7325 
Q 65.774297 76.7325 65.774297 79.1325 
L 65.774297 105.9525 
Q 65.774297 108.3525 68.174297 108.3525 
z
" style="fill: #ffffff; opacity: 0.8; stroke: #e6e6e6; stroke-width: 0.8; stroke-linejoin: miter"/>
    </g>
    <g id="line2d_17">
     <path d="M 68.174297 83.3325 
L 80.174297 83.3325 
L 92.174297 83.3325 
" style="fill: none; stroke-dasharray: 3.7,1.6; stroke-dashoffset: 0; stroke: #000000"/>
    </g>
    <g id="text_4">
     <!-- Trend -->
     <g style="fill: #323034" transform="translate(101.774297 87.5325) scale(0.12 -0.12)">
      <defs>
       <path id="STIXGeneral-Regular-54" d="M 3795 3149 
L 3642 3149 
Q 3539 3674 3353 3821 
Q 3168 3968 2656 3968 
L 2278 3968 
L 2278 710 
Q 2278 346 2387 243 
Q 2496 141 2893 122 
L 2893 0 
L 1024 0 
L 1024 122 
Q 1427 147 1526 256 
Q 1626 365 1626 787 
L 1626 3968 
L 1242 3968 
Q 723 3968 540 3817 
Q 358 3667 262 3149 
L 109 3149 
L 154 4237 
L 3750 4237 
L 3795 3149 
z
" transform="scale(0.015625)"/>
       <path id="STIXGeneral-Regular-72" d="M 1024 2931 
L 1024 2342 
Q 1267 2688 1430 2816 
Q 1594 2944 1792 2944 
Q 1958 2944 2051 2854 
Q 2144 2765 2144 2605 
Q 2144 2470 2077 2393 
Q 2010 2317 1894 2317 
Q 1773 2317 1638 2445 
Q 1536 2541 1472 2541 
Q 1338 2541 1181 2355 
Q 1024 2170 1024 2016 
L 1024 576 
Q 1024 301 1133 205 
Q 1242 109 1568 96 
L 1568 0 
L 32 0 
L 32 96 
Q 339 154 412 224 
Q 486 294 486 538 
L 486 2138 
Q 486 2349 438 2435 
Q 390 2522 269 2522 
Q 166 2522 45 2496 
L 45 2598 
Q 448 2726 992 2944 
L 1024 2931 
z
" transform="scale(0.015625)"/>
       <path id="STIXGeneral-Regular-64" d="M 3142 269 
L 2202 -64 
L 2176 -45 
L 2176 365 
Q 1869 -64 1357 -64 
Q 826 -64 499 317 
Q 173 698 173 1312 
Q 173 1990 563 2467 
Q 954 2944 1504 2944 
Q 1850 2944 2176 2669 
L 2176 3667 
Q 2176 3866 2118 3930 
Q 2061 3994 1882 3994 
Q 1792 3994 1741 3987 
L 1741 4090 
Q 2323 4243 2682 4371 
L 2714 4358 
L 2714 730 
Q 2714 506 2768 435 
Q 2822 365 2995 365 
Q 3034 365 3142 371 
L 3142 269 
z
M 2176 653 
L 2176 2125 
Q 2176 2381 1981 2573 
Q 1786 2765 1523 2765 
Q 1158 2765 940 2438 
Q 723 2112 723 1568 
Q 723 979 963 624 
Q 1203 269 1606 269 
Q 1907 269 2080 474 
Q 2176 582 2176 653 
z
" transform="scale(0.015625)"/>
      </defs>
      <use xlink:href="#STIXGeneral-Regular-54"/>
      <use xlink:href="#STIXGeneral-Regular-72" x="61.099991"/>
      <use xlink:href="#STIXGeneral-Regular-65" x="94.399979"/>
      <use xlink:href="#STIXGeneral-Regular-6e" x="138.799973"/>
      <use xlink:href="#STIXGeneral-Regular-64" x="188.799957"/>
     </g>
    </g>
    <g id="line2d_18">
     <path d="M 68.174297 99.136875 
L 80.174297 99.136875 
L 92.174297 99.136875 
" style="fill: none; stroke: #bc80bd; stroke-opacity: 0.7; stroke-width: 3; stroke-linecap: square"/>
    </g>
    <g id="text_5">
     <!-- Original -->
     <g style="fill: #323034" transform="translate(101.774297 103.336875) scale(0.12 -0.12)">
      <defs>
       <path id="STIXGeneral-Regular-4f" d="M 4403 2118 
Q 4403 1133 3820 521 
Q 3238 -90 2310 -90 
Q 1376 -90 797 524 
Q 218 1139 218 2138 
Q 218 3110 797 3718 
Q 1376 4326 2310 4326 
Q 3245 4326 3824 3702 
Q 4403 3078 4403 2118 
z
M 3674 2157 
Q 3674 2701 3520 3133 
Q 3366 3565 3091 3795 
Q 2733 4096 2304 4096 
Q 1760 4096 1389 3667 
Q 1184 3437 1065 3011 
Q 947 2586 947 2125 
Q 947 960 1523 429 
Q 1837 141 2317 141 
Q 2816 141 3142 448 
Q 3674 960 3674 2157 
z
" transform="scale(0.015625)"/>
       <path id="STIXGeneral-Regular-69" d="M 1152 4045 
Q 1152 3904 1056 3811 
Q 960 3718 819 3718 
Q 685 3718 592 3811 
Q 499 3904 499 4045 
Q 499 4179 595 4275 
Q 691 4371 826 4371 
Q 966 4371 1059 4275 
Q 1152 4179 1152 4045 
z
M 1619 0 
L 102 0 
L 102 96 
Q 435 115 521 211 
Q 608 307 608 666 
L 608 2118 
Q 608 2342 563 2432 
Q 518 2522 397 2522 
Q 243 2522 128 2490 
L 128 2592 
L 1120 2944 
L 1146 2918 
L 1146 672 
Q 1146 314 1226 218 
Q 1306 122 1619 96 
L 1619 0 
z
" transform="scale(0.015625)"/>
      </defs>
      <use xlink:href="#STIXGeneral-Regular-4f"/>
      <use xlink:href="#STIXGeneral-Regular-72" x="72.199982"/>
      <use xlink:href="#STIXGeneral-Regular-69" x="105.499969"/>
      <use xlink:href="#STIXGeneral-Regular-67" x="133.299957"/>
      <use xlink:href="#STIXGeneral-Regular-69" x="183.299942"/>
      <use xlink:href="#STIXGeneral-Regular-6e" x="211.09993"/>
      <use xlink:href="#STIXGeneral-Regular-61" x="261.099915"/>
      <use xlink:href="#STIXGeneral-Regular-6c" x="305.499908"/>
     </g>
    </g>
   </g>
  </g>
  <g id="axes_2">
   <g id="patch_6">
    <path d="M 59.774297 253.341167 
L 263.478696 253.341167 
L 263.478696 170.266833 
L 59.774297 170.266833 
z
" style="fill: #ffffff"/>
   </g>
   <g id="matplotlib.axis_3">
    <g id="xtick_12">
     <g id="line2d_19">
      <g>
       <use xlink:href="#m546b785950" x="59.774297" y="253.341167" style="fill: #323034; stroke: #323034; stroke-width: 0.8"/>
      </g>
     </g>
    </g>
    <g id="xtick_13">
     <g id="line2d_20">
      <g>
       <use xlink:href="#m546b785950" x="79.745316" y="253.341167" style="fill: #323034; stroke: #323034; stroke-width: 0.8"/>
      </g>
     </g>
    </g>
    <g id="xtick_14">
     <g id="line2d_21">
      <g>
       <use xlink:href="#m546b785950" x="100.382037" y="253.341167" style="fill: #323034; stroke: #323034; stroke-width: 0.8"/>
      </g>
     </g>
    </g>
    <g id="xtick_15">
     <g id="line2d_22">
      <g>
       <use xlink:href="#m546b785950" x="120.353056" y="253.341167" style="fill: #323034; stroke: #323034; stroke-width: 0.8"/>
      </g>
     </g>
    </g>
    <g id="xtick_16">
     <g id="line2d_23">
      <g>
       <use xlink:href="#m546b785950" x="140.989776" y="253.341167" style="fill: #323034; stroke: #323034; stroke-width: 0.8"/>
      </g>
     </g>
    </g>
    <g id="xtick_17">
     <g id="line2d_24">
      <g>
       <use xlink:href="#m546b785950" x="161.626497" y="253.341167" style="fill: #323034; stroke: #323034; stroke-width: 0.8"/>
      </g>
     </g>
    </g>
    <g id="xtick_18">
     <g id="line2d_25">
      <g>
       <use xlink:href="#m546b785950" x="181.597516" y="253.341167" style="fill: #323034; stroke: #323034; stroke-width: 0.8"/>
      </g>
     </g>
    </g>
    <g id="xtick_19">
     <g id="line2d_26">
      <g>
       <use xlink:href="#m546b785950" x="202.234236" y="253.341167" style="fill: #323034; stroke: #323034; stroke-width: 0.8"/>
      </g>
     </g>
    </g>
    <g id="xtick_20">
     <g id="line2d_27">
      <g>
       <use xlink:href="#m546b785950" x="222.205256" y="253.341167" style="fill: #323034; stroke: #323034; stroke-width: 0.8"/>
      </g>
     </g>
    </g>
    <g id="xtick_21">
     <g id="line2d_28">
      <g>
       <use xlink:href="#m546b785950" x="242.841976" y="253.341167" style="fill: #323034; stroke: #323034; stroke-width: 0.8"/>
      </g>
     </g>
    </g>
    <g id="xtick_22">
     <g id="line2d_29">
      <g>
       <use xlink:href="#m546b785950" x="263.478696" y="253.341167" style="fill: #323034; stroke: #323034; stroke-width: 0.8"/>
      </g>
     </g>
    </g>
   </g>
   <g id="matplotlib.axis_4">
    <g id="ytick_4">
     <g id="line2d_30">
      <g>
       <use xlink:href="#m2aa358b68d" x="263.478696" y="232.572583" style="fill: #323034; stroke: #323034; stroke-width: 0.8"/>
      </g>
     </g>
     <g id="text_6">
      <!-- $\mathdefault{−0.25}$ -->
      <g style="fill: #323034" transform="translate(270.478696 238.036333) scale(0.16 -0.16)">
       <defs>
        <path id="STIXGeneral-Regular-2212" d="M 3974 1408 
L 410 1408 
L 410 1830 
L 3974 1830 
L 3974 1408 
z
" transform="scale(0.015625)"/>
       </defs>
       <use xlink:href="#STIXGeneral-Regular-2212" transform="translate(0 0.203125)"/>
       <use xlink:href="#STIXGeneral-Regular-30" transform="translate(68.499985 0.203125)"/>
       <use xlink:href="#STIXGeneral-Regular-2e" transform="translate(118.499969 0.203125)"/>
       <use xlink:href="#STIXGeneral-Regular-32" transform="translate(143.499954 0.203125)"/>
       <use xlink:href="#STIXGeneral-Regular-35" transform="translate(193.499939 0.203125)"/>
      </g>
     </g>
    </g>
    <g id="ytick_5">
     <g id="line2d_31">
      <g>
       <use xlink:href="#m2aa358b68d" x="263.478696" y="197.958278" style="fill: #323034; stroke: #323034; stroke-width: 0.8"/>
      </g>
     </g>
     <g id="text_7">
      <!-- $\mathdefault{0.00}$ -->
      <g style="fill: #323034" transform="translate(270.478696 203.422028) scale(0.16 -0.16)">
       <use xlink:href="#STIXGeneral-Regular-30" transform="translate(0 0.40625)"/>
       <use xlink:href="#STIXGeneral-Regular-2e" transform="translate(49.999985 0.40625)"/>
       <use xlink:href="#STIXGeneral-Regular-30" transform="translate(74.999969 0.40625)"/>
       <use xlink:href="#STIXGeneral-Regular-30" transform="translate(124.999954 0.40625)"/>
      </g>
     </g>
    </g>
    <g id="ytick_6">
     <g id="line2d_32">
      <g>
       <use xlink:href="#m84bb1701f1" x="263.478696" y="249.879736" style="fill: #323034; stroke: #323034; stroke-width: 0.6"/>
      </g>
     </g>
    </g>
    <g id="ytick_7">
     <g id="line2d_33">
      <g>
       <use xlink:href="#m84bb1701f1" x="263.478696" y="215.265431" style="fill: #323034; stroke: #323034; stroke-width: 0.6"/>
      </g>
     </g>
    </g>
    <g id="ytick_8">
     <g id="line2d_34">
      <g>
       <use xlink:href="#m84bb1701f1" x="263.478696" y="180.651125" style="fill: #323034; stroke: #323034; stroke-width: 0.6"/>
      </g>
     </g>
    </g>
   </g>
   <g id="line2d_35">
    <path d="M 59.774297 198.666721 
L 60.439998 184.483497 
L 61.105698 180.157175 
L 61.771399 189.259632 
L 62.437099 215.448112 
L 63.1028 211.898859 
L 63.768501 205.875635 
L 64.434201 198.616047 
L 65.099902 184.39547 
L 65.765603 180.007418 
L 66.431303 189.678623 
L 67.097004 214.998359 
L 67.762705 212.239786 
L 69.094106 198.577667 
L 69.759807 184.382962 
L 70.425507 179.725887 
L 71.091208 190.079247 
L 71.756909 214.700871 
L 72.422609 212.487502 
L 73.754011 198.721294 
L 74.419711 184.351038 
L 75.085412 179.435533 
L 75.751113 190.339575 
L 76.416813 214.407505 
L 77.082514 213.017017 
L 78.413915 198.889573 
L 79.079616 184.324754 
L 79.745316 179.195376 
L 80.411017 190.736748 
L 81.076718 214.224354 
L 81.742418 213.302513 
L 82.408119 204.847001 
L 83.07382 199.055723 
L 83.73952 184.22419 
L 84.405221 179.158993 
L 85.070922 190.963771 
L 85.736622 214.394113 
L 86.402323 213.28409 
L 87.068024 204.422981 
L 87.733724 199.142826 
L 88.399425 184.292914 
L 89.065126 179.054627 
L 89.730826 191.212739 
L 90.396527 214.749381 
L 91.062228 212.773788 
L 91.727928 204.408441 
L 92.393629 198.882351 
L 93.059329 184.672977 
L 93.72503 178.874477 
L 94.390731 191.512631 
L 95.056431 214.838288 
L 95.722132 212.607552 
L 96.387833 204.152729 
L 97.053533 198.695358 
L 97.719234 185.247503 
L 98.384935 178.471128 
L 99.050635 191.755147 
L 99.716336 215.12362 
L 100.382037 212.456392 
L 101.047737 203.863089 
L 101.713438 198.305957 
L 102.379139 185.899131 
L 103.044839 178.052525 
L 103.71054 192.003921 
L 104.376241 215.411105 
L 105.041941 212.540333 
L 105.707642 203.519063 
L 106.373342 197.811078 
L 107.039043 186.183404 
L 107.704744 178.204229 
L 108.370444 192.067578 
L 109.036145 215.73567 
L 109.701846 212.613663 
L 110.367546 202.893042 
L 111.033247 197.665334 
L 111.698948 186.311335 
L 112.364648 178.273786 
L 113.030349 192.452215 
L 113.69605 215.854874 
L 114.36175 212.517058 
L 115.027451 202.504471 
L 115.693152 197.502471 
L 116.358852 186.400108 
L 117.024553 178.187071 
L 117.690254 193.094166 
L 118.355954 215.751592 
L 119.021655 212.499819 
L 119.687356 202.192272 
L 120.353056 197.322321 
L 121.018757 186.463904 
L 121.684457 178.107954 
L 122.350158 193.637668 
L 123.015859 215.827782 
L 123.681559 212.242745 
L 124.34726 202.078216 
L 125.012961 197.090876 
L 125.678661 186.616325 
L 126.344362 178.010717 
L 127.010063 194.071061 
L 127.675763 215.93506 
L 128.341464 211.938196 
L 129.007165 201.966271 
L 129.672865 197.054671 
L 130.338566 186.55701 
L 131.004267 178.017845 
L 131.669967 194.333053 
L 132.335668 216.15309 
L 133.001369 211.694415 
L 133.667069 201.82741 
L 134.33277 196.981346 
L 135.664171 177.841085 
L 136.329872 194.339315 
L 136.995572 216.717044 
L 137.661273 211.314697 
L 138.326974 201.660581 
L 138.992674 197.061569 
L 140.324076 177.603592 
L 140.989776 194.450886 
L 141.655477 217.131668 
L 142.321178 211.015507 
L 142.986878 201.446644 
L 143.652579 197.239794 
L 144.98398 177.379881 
L 145.649681 194.370244 
L 146.315382 217.799927 
L 146.981082 210.468021 
L 147.646783 201.356123 
L 148.312484 197.388125 
L 149.643885 177.112717 
L 150.309586 194.261487 
L 150.975286 218.6498 
L 152.306687 201.368595 
L 152.972388 197.636557 
L 154.303789 176.933911 
L 154.96949 194.11279 
L 155.635191 219.764 
L 156.300891 208.541072 
L 156.966592 201.559515 
L 157.632293 197.852583 
L 158.963694 176.682411 
L 159.629395 194.25276 
L 160.295095 220.437027 
L 160.960796 207.724145 
L 161.626497 201.444078 
L 162.292197 198.344607 
L 163.623599 176.208772 
L 164.289299 194.673321 
L 164.955 220.961015 
L 165.6207 206.677666 
L 166.952102 197.904184 
L 168.283503 175.911434 
L 168.949204 195.214384 
L 169.614904 221.686341 
L 170.280605 205.047313 
L 170.946306 202.666593 
L 171.612006 197.558859 
L 172.943408 175.922932 
L 173.609108 195.621447 
L 174.274809 222.491251 
L 174.94051 203.319325 
L 175.60621 203.401645 
L 176.271911 197.04865 
L 176.937612 187.775101 
L 177.603312 175.941599 
L 178.269013 195.919171 
L 178.934714 222.95126 
L 179.600414 202.603176 
L 180.266115 203.448673 
L 180.931815 196.60241 
L 181.597516 187.957402 
L 182.263217 176.276014 
L 182.928917 195.969518 
L 183.594618 223.731129 
L 184.260319 201.41567 
L 184.926019 203.886339 
L 186.257421 188.108022 
L 186.923121 176.661607 
L 187.588822 196.232173 
L 188.254523 223.702117 
L 188.920223 201.420086 
L 189.585924 203.530754 
L 190.917325 188.324034 
L 191.583026 176.975256 
L 192.248727 196.423437 
L 192.914427 223.901263 
L 193.580128 201.069397 
L 194.245829 203.333328 
L 194.911529 195.170792 
L 195.57723 188.606109 
L 196.24293 177.51014 
L 196.908631 196.231457 
L 197.574332 224.032107 
L 198.240032 201.041726 
L 198.905733 203.044941 
L 199.571434 194.605651 
L 200.237134 188.984841 
L 200.902835 178.034811 
L 201.568536 196.235049 
L 202.234236 223.961748 
L 202.899937 201.086189 
L 203.565638 202.721535 
L 204.231338 194.002386 
L 204.897039 189.434043 
L 205.56274 178.650486 
L 206.22844 196.068787 
L 206.894141 223.898941 
L 207.559842 201.252574 
L 208.225542 202.248502 
L 208.891243 193.417351 
L 209.556944 189.992109 
L 210.222644 179.172714 
L 210.888345 196.007815 
L 211.554045 223.731027 
L 212.219746 201.405846 
L 212.885447 201.949352 
L 213.551147 192.595723 
L 214.216848 190.674503 
L 214.882549 179.743682 
L 215.548249 195.865512 
L 216.21395 223.541158 
L 216.879651 201.665717 
L 217.545351 201.609067 
L 218.211052 191.652851 
L 218.876753 191.491548 
L 219.542453 180.323545 
L 220.208154 195.674843 
L 220.873855 223.217432 
L 221.539555 202.07328 
L 222.205256 201.342999 
L 222.870957 191.49779 
L 223.536657 190.507068 
L 224.202358 182.160331 
L 224.868058 195.047717 
L 225.533759 222.957788 
L 226.19946 202.434053 
L 226.86516 201.190011 
L 227.530861 191.257173 
L 228.196562 189.630559 
L 228.862262 184.032047 
L 229.527963 194.344626 
L 230.193664 222.688633 
L 230.859364 202.732349 
L 231.525065 201.239042 
L 232.190766 190.877123 
L 233.522167 186.515569 
L 234.187868 193.157423 
L 234.853568 222.635941 
L 235.519269 202.937109 
L 236.18497 201.111934 
L 236.85067 190.736509 
L 237.516371 187.233258 
L 238.847772 191.429644 
L 239.513473 222.839668 
L 240.179173 203.117423 
L 240.844874 200.896192 
L 241.510575 190.965454 
L 242.176275 186.666312 
L 242.841976 190.083424 
L 243.507677 191.115232 
L 244.173377 222.740702 
L 244.839078 203.350719 
L 245.504779 200.666331 
L 246.170479 191.322184 
L 246.83618 186.725439 
L 247.501881 189.062528 
L 248.167581 192.079625 
L 248.833282 222.293892 
L 249.498983 203.837975 
L 250.164683 200.262793 
L 250.830384 191.606978 
L 251.496085 186.727566 
L 252.161785 188.404524 
L 252.827486 192.750225 
L 253.493187 221.958715 
L 254.158887 204.25477 
L 254.824588 199.938622 
L 255.490288 191.773318 
L 256.155989 186.718107 
L 256.82169 187.980513 
L 257.48739 193.147059 
L 258.153091 222.169736 
L 258.818792 203.804396 
L 259.484492 200.106516 
L 260.150193 191.854608 
L 260.815894 186.672605 
L 261.481594 187.726799 
L 262.147295 193.475359 
L 262.812996 222.221061 
L 263.478696 203.542483 
L 263.478696 203.542483 
" clip-path="url(#p6bdb7b004b)" style="fill: none; stroke: #0000ff; stroke-opacity: 0.3; stroke-width: 3; stroke-linecap: square"/>
   </g>
   <g id="patch_7">
    <path d="M 263.478696 253.341167 
L 263.478696 170.266833 
" style="fill: none; stroke: #000000; stroke-width: 0.6; stroke-linejoin: miter; stroke-linecap: square"/>
   </g>
   <g id="patch_8">
    <path d="M 59.774297 253.341167 
L 263.478696 253.341167 
" style="fill: none; stroke: #000000; stroke-width: 0.6; stroke-linejoin: miter; stroke-linecap: square"/>
   </g>
   <g id="legend_2">
    <g id="patch_9">
     <path d="M 68.174297 247.341167 
L 144.436172 247.341167 
Q 146.836172 247.341167 146.836172 244.941167 
L 146.836172 233.936792 
Q 146.836172 231.536792 144.436172 231.536792 
L 68.174297 231.536792 
Q 65.774297 231.536792 65.774297 233.936792 
L 65.774297 244.941167 
Q 65.774297 247.341167 68.174297 247.341167 
z
" style="fill: #ffffff; opacity: 0.8; stroke: #e6e6e6; stroke-width: 0.8; stroke-linejoin: miter"/>
    </g>
    <g id="line2d_36">
     <path d="M 68.174297 238.136792 
L 80.174297 238.136792 
L 92.174297 238.136792 
" style="fill: none; stroke: #0000ff; stroke-opacity: 0.3; stroke-width: 3; stroke-linecap: square"/>
    </g>
    <g id="text_8">
     <!-- Seasonal -->
     <g style="fill: #323034" transform="translate(101.774297 242.336792) scale(0.12 -0.12)">
      <defs>
       <path id="STIXGeneral-Regular-53" d="M 3002 2963 
L 2842 2963 
Q 2733 3360 2579 3565 
Q 2189 4064 1651 4064 
Q 1357 4064 1181 3894 
Q 1005 3725 1005 3456 
Q 1005 3328 1069 3206 
Q 1133 3085 1206 2998 
Q 1280 2912 1465 2784 
Q 1651 2656 1766 2589 
Q 1882 2522 2150 2362 
Q 2669 2061 2905 1763 
Q 3142 1466 3142 1107 
Q 3142 576 2771 243 
Q 2400 -90 1837 -90 
Q 1421 -90 1082 58 
Q 915 128 781 128 
Q 704 128 653 70 
Q 602 13 602 -83 
L 461 -83 
L 275 1274 
L 416 1274 
Q 845 141 1734 141 
Q 2074 141 2285 342 
Q 2496 544 2496 858 
Q 2496 1158 2310 1363 
Q 2003 1696 1235 2106 
Q 454 2522 454 3206 
Q 454 3718 768 4022 
Q 1082 4326 1568 4326 
Q 1907 4326 2240 4186 
Q 2413 4109 2522 4109 
Q 2688 4109 2726 4326 
L 2861 4326 
L 3002 2963 
z
" transform="scale(0.015625)"/>
      </defs>
      <use xlink:href="#STIXGeneral-Regular-53"/>
      <use xlink:href="#STIXGeneral-Regular-65" x="55.599991"/>
      <use xlink:href="#STIXGeneral-Regular-61" x="99.999985"/>
      <use xlink:href="#STIXGeneral-Regular-73" x="144.399979"/>
      <use xlink:href="#STIXGeneral-Regular-6f" x="183.299973"/>
      <use xlink:href="#STIXGeneral-Regular-6e" x="233.299957"/>
      <use xlink:href="#STIXGeneral-Regular-61" x="283.299942"/>
      <use xlink:href="#STIXGeneral-Regular-6c" x="327.699936"/>
     </g>
    </g>
   </g>
  </g>
  <g id="axes_3">
   <g id="patch_10">
    <path d="M 59.774297 352.8755 
L 263.478696 352.8755 
L 263.478696 269.801167 
L 59.774297 269.801167 
z
" style="fill: #ffffff"/>
   </g>
   <g id="matplotlib.axis_5">
    <g id="xtick_23">
     <g id="line2d_37">
      <g>
       <use xlink:href="#m546b785950" x="59.774297" y="352.8755" style="fill: #323034; stroke: #323034; stroke-width: 0.8"/>
      </g>
     </g>
     <g id="text_9">
      <!-- Apr -->
      <g style="fill: #323034" transform="translate(47.334297 370.803) scale(0.16 -0.16)">
       <defs>
        <path id="STIXGeneral-Regular-41" d="M 4525 0 
L 2893 0 
L 2893 122 
Q 3149 122 3245 179 
Q 3334 224 3334 333 
Q 3334 499 3213 781 
L 2950 1382 
L 1274 1382 
L 979 653 
Q 922 506 922 384 
Q 922 237 1027 179 
Q 1133 122 1370 122 
L 1370 0 
L 96 0 
L 96 122 
Q 365 147 486 316 
Q 608 486 902 1190 
L 2221 4314 
L 2349 4314 
L 3923 710 
Q 4064 378 4176 262 
Q 4288 147 4525 122 
L 4525 0 
z
M 2861 1645 
L 2118 3405 
L 1382 1645 
L 2861 1645 
z
" transform="scale(0.015625)"/>
        <path id="STIXGeneral-Regular-70" d="M 1018 2931 
L 1018 2438 
Q 1421 2944 1939 2944 
Q 2406 2944 2707 2560 
Q 3008 2176 3008 1581 
Q 3008 883 2621 409 
Q 2234 -64 1664 -64 
Q 1466 -64 1328 -6 
Q 1190 51 1018 211 
L 1018 -794 
Q 1018 -1094 1120 -1180 
Q 1222 -1267 1581 -1274 
L 1581 -1389 
L 32 -1389 
L 32 -1280 
Q 314 -1254 397 -1171 
Q 480 -1088 480 -838 
L 480 2157 
Q 480 2381 429 2451 
Q 378 2522 218 2522 
Q 115 2522 58 2515 
L 58 2618 
Q 506 2752 979 2944 
L 1018 2931 
z
M 1018 2138 
L 1018 563 
Q 1018 422 1238 281 
Q 1459 141 1683 141 
Q 2029 141 2243 467 
Q 2458 794 2458 1325 
Q 2458 1888 2243 2224 
Q 2029 2560 1670 2560 
Q 1446 2560 1232 2419 
Q 1018 2278 1018 2138 
z
" transform="scale(0.015625)"/>
       </defs>
       <use xlink:href="#STIXGeneral-Regular-41"/>
       <use xlink:href="#STIXGeneral-Regular-70" x="72.199982"/>
       <use xlink:href="#STIXGeneral-Regular-72" x="122.199966"/>
      </g>
     </g>
    </g>
    <g id="xtick_24">
     <g id="line2d_38">
      <g>
       <use xlink:href="#m546b785950" x="79.745316" y="352.8755" style="fill: #323034; stroke: #323034; stroke-width: 0.8"/>
      </g>
     </g>
     <g id="text_10">
      <!-- May -->
      <g style="fill: #323034" transform="translate(65.080316 370.788) scale(0.16 -0.16)">
       <defs>
        <path id="STIXGeneral-Regular-4d" d="M 5530 0 
L 3738 0 
L 3738 122 
Q 4115 147 4214 265 
Q 4314 384 4314 787 
L 4314 3661 
L 2682 0 
L 2592 0 
L 979 3514 
L 979 966 
Q 979 448 1088 294 
Q 1197 141 1574 122 
L 1574 0 
L 77 0 
L 77 122 
Q 358 141 480 205 
Q 602 269 650 432 
Q 698 595 698 966 
L 698 3514 
Q 698 3878 589 3984 
Q 480 4090 90 4115 
L 90 4237 
L 1357 4237 
L 2835 1024 
L 4250 4237 
L 5523 4237 
L 5523 4115 
Q 5178 4109 5072 3993 
Q 4966 3878 4966 3520 
L 4966 717 
Q 4966 378 5072 262 
Q 5178 147 5530 122 
L 5530 0 
z
" transform="scale(0.015625)"/>
        <path id="STIXGeneral-Regular-79" d="M 3040 2880 
L 3040 2784 
Q 2925 2771 2854 2700 
Q 2784 2630 2720 2458 
L 1760 -160 
Q 1510 -838 1257 -1116 
Q 1005 -1395 640 -1395 
Q 435 -1395 313 -1289 
Q 192 -1184 192 -1024 
Q 192 -902 272 -816 
Q 352 -730 467 -730 
Q 653 -730 800 -813 
Q 883 -858 966 -858 
Q 1101 -858 1286 -576 
Q 1376 -448 1459 -211 
Q 1542 26 1542 115 
Q 1542 198 1274 762 
L 429 2566 
Q 346 2752 90 2790 
L 90 2880 
L 1402 2880 
L 1402 2784 
Q 1197 2778 1117 2739 
Q 1037 2701 1037 2611 
Q 1037 2541 1120 2349 
L 1837 749 
L 2458 2515 
Q 2483 2573 2483 2630 
Q 2483 2784 2189 2784 
L 2189 2880 
L 3040 2880 
z
" transform="scale(0.015625)"/>
       </defs>
       <use xlink:href="#STIXGeneral-Regular-4d"/>
       <use xlink:href="#STIXGeneral-Regular-61" x="88.899994"/>
       <use xlink:href="#STIXGeneral-Regular-79" x="133.299988"/>
      </g>
     </g>
    </g>
    <g id="xtick_25">
     <g id="line2d_39">
      <g>
       <use xlink:href="#m546b785950" x="100.382037" y="352.8755" style="fill: #323034; stroke: #323034; stroke-width: 0.8"/>
      </g>
     </g>
     <g id="text_11">
      <!-- Jun -->
      <g style="fill: #323034" transform="translate(89.398287 370.803) scale(0.16 -0.16)">
       <defs>
        <path id="STIXGeneral-Regular-4a" d="M 2266 4237 
L 2266 4115 
Q 1875 4083 1776 3984 
Q 1677 3885 1677 3514 
L 1677 1184 
Q 1677 -90 608 -90 
Q 314 -90 138 32 
Q -38 154 -38 371 
Q -38 499 54 601 
Q 147 704 275 704 
Q 486 704 589 435 
Q 602 403 621 348 
Q 640 294 649 265 
Q 659 237 678 208 
Q 698 179 723 166 
Q 749 154 787 154 
Q 928 154 976 253 
Q 1024 352 1024 602 
L 1024 3520 
Q 1024 3898 928 3990 
Q 832 4083 429 4115 
L 429 4237 
L 2266 4237 
z
" transform="scale(0.015625)"/>
        <path id="STIXGeneral-Regular-75" d="M 3072 320 
L 3072 230 
Q 2573 96 2195 -58 
L 2163 -38 
L 2163 486 
L 2150 486 
Q 1747 -64 1235 -64 
Q 870 -64 662 160 
Q 454 384 454 755 
L 454 2362 
Q 454 2598 371 2688 
Q 288 2778 58 2790 
L 58 2880 
L 992 2880 
L 992 813 
Q 992 595 1123 451 
Q 1254 307 1446 307 
Q 1760 307 1984 506 
Q 2067 582 2099 649 
Q 2131 717 2131 877 
L 2131 2355 
Q 2131 2605 2041 2678 
Q 1952 2752 1658 2771 
L 1658 2880 
L 2669 2880 
L 2669 685 
Q 2669 461 2742 390 
Q 2816 320 3034 320 
L 3072 320 
z
" transform="scale(0.015625)"/>
       </defs>
       <use xlink:href="#STIXGeneral-Regular-4a"/>
       <use xlink:href="#STIXGeneral-Regular-75" x="37.299988"/>
       <use xlink:href="#STIXGeneral-Regular-6e" x="87.299973"/>
      </g>
     </g>
    </g>
    <g id="xtick_26">
     <g id="line2d_40">
      <g>
       <use xlink:href="#m546b785950" x="120.353056" y="352.8755" style="fill: #323034; stroke: #323034; stroke-width: 0.8"/>
      </g>
     </g>
     <g id="text_12">
      <!-- Jul -->
      <g style="fill: #323034" transform="translate(111.145556 370.803) scale(0.16 -0.16)">
       <use xlink:href="#STIXGeneral-Regular-4a"/>
       <use xlink:href="#STIXGeneral-Regular-75" x="37.299988"/>
       <use xlink:href="#STIXGeneral-Regular-6c" x="87.299973"/>
      </g>
     </g>
    </g>
    <g id="xtick_27">
     <g id="line2d_41">
      <g>
       <use xlink:href="#m546b785950" x="140.989776" y="352.8755" style="fill: #323034; stroke: #323034; stroke-width: 0.8"/>
      </g>
     </g>
     <g id="text_13">
      <!-- Aug -->
      <g style="fill: #323034" transform="translate(127.213526 370.788) scale(0.16 -0.16)">
       <use xlink:href="#STIXGeneral-Regular-41"/>
       <use xlink:href="#STIXGeneral-Regular-75" x="72.199982"/>
       <use xlink:href="#STIXGeneral-Regular-67" x="122.199966"/>
      </g>
     </g>
    </g>
    <g id="xtick_28">
     <g id="line2d_42">
      <g>
       <use xlink:href="#m546b785950" x="161.626497" y="352.8755" style="fill: #323034; stroke: #323034; stroke-width: 0.8"/>
      </g>
     </g>
     <g id="text_14">
      <!-- Sep -->
      <g style="fill: #323034" transform="translate(149.626497 370.803) scale(0.16 -0.16)">
       <use xlink:href="#STIXGeneral-Regular-53"/>
       <use xlink:href="#STIXGeneral-Regular-65" x="55.599991"/>
       <use xlink:href="#STIXGeneral-Regular-70" x="99.999985"/>
      </g>
     </g>
    </g>
    <g id="xtick_29">
     <g id="line2d_43">
      <g>
       <use xlink:href="#m546b785950" x="181.597516" y="352.8755" style="fill: #323034; stroke: #323034; stroke-width: 0.8"/>
      </g>
     </g>
     <g id="text_15">
      <!-- Oct -->
      <g style="fill: #323034" transform="translate(170.045016 370.803) scale(0.16 -0.16)">
       <defs>
        <path id="STIXGeneral-Regular-74" d="M 1702 493 
L 1786 422 
Q 1478 -64 1011 -64 
Q 448 -64 448 749 
L 448 2675 
L 109 2675 
Q 83 2694 83 2720 
Q 83 2771 192 2842 
Q 435 2982 813 3526 
Q 826 3546 874 3606 
Q 922 3667 941 3706 
Q 986 3706 986 3622 
L 986 2880 
L 1632 2880 
L 1632 2675 
L 986 2675 
L 986 845 
Q 986 538 1062 403 
Q 1139 269 1318 269 
Q 1510 269 1702 493 
z
" transform="scale(0.015625)"/>
       </defs>
       <use xlink:href="#STIXGeneral-Regular-4f"/>
       <use xlink:href="#STIXGeneral-Regular-63" x="72.199982"/>
       <use xlink:href="#STIXGeneral-Regular-74" x="116.599976"/>
      </g>
     </g>
    </g>
    <g id="xtick_30">
     <g id="line2d_44">
      <g>
       <use xlink:href="#m546b785950" x="202.234236" y="352.8755" style="fill: #323034; stroke: #323034; stroke-width: 0.8"/>
      </g>
     </g>
     <g id="text_16">
      <!-- Nov -->
      <g style="fill: #323034" transform="translate(188.457986 370.803) scale(0.16 -0.16)">
       <defs>
        <path id="STIXGeneral-Regular-4e" d="M 4525 4237 
L 4525 4115 
Q 4198 4083 4102 4000 
Q 4000 3910 3958 3756 
Q 3917 3603 3917 3245 
L 3917 -70 
L 3802 -70 
L 979 3443 
L 979 960 
Q 979 474 1088 323 
Q 1197 173 1574 122 
L 1574 0 
L 77 0 
L 77 122 
Q 474 166 586 310 
Q 698 454 698 960 
L 698 3776 
Q 531 3981 416 4048 
Q 301 4115 77 4115 
L 77 4237 
L 1165 4237 
L 3635 1146 
L 3635 3322 
Q 3635 3808 3514 3949 
Q 3437 4032 3344 4061 
Q 3251 4090 3008 4115 
L 3008 4237 
L 4525 4237 
z
" transform="scale(0.015625)"/>
        <path id="STIXGeneral-Regular-76" d="M 3053 2880 
L 3053 2784 
Q 2906 2771 2835 2688 
Q 2765 2605 2637 2285 
L 1818 230 
Q 1690 -90 1638 -90 
Q 1587 -90 1523 77 
Q 1510 96 1497 141 
Q 1485 186 1472 211 
L 704 2048 
Q 499 2534 403 2652 
Q 307 2771 122 2784 
L 122 2880 
L 1376 2880 
L 1376 2784 
Q 1210 2771 1146 2732 
Q 1082 2694 1082 2611 
Q 1082 2509 1139 2368 
L 1792 730 
L 2426 2387 
Q 2464 2483 2464 2579 
Q 2464 2758 2163 2784 
L 2163 2880 
L 3053 2880 
z
" transform="scale(0.015625)"/>
       </defs>
       <use xlink:href="#STIXGeneral-Regular-4e"/>
       <use xlink:href="#STIXGeneral-Regular-6f" x="72.199982"/>
       <use xlink:href="#STIXGeneral-Regular-76" x="122.199966"/>
      </g>
     </g>
    </g>
    <g id="xtick_31">
     <g id="line2d_45">
      <g>
       <use xlink:href="#m546b785950" x="222.205256" y="352.8755" style="fill: #323034; stroke: #323034; stroke-width: 0.8"/>
      </g>
     </g>
     <g id="text_17">
      <!-- Dec -->
      <g style="fill: #323034" transform="translate(209.324006 370.803) scale(0.16 -0.16)">
       <defs>
        <path id="STIXGeneral-Regular-44" d="M 102 4237 
L 1830 4237 
Q 3078 4237 3750 3654 
Q 4384 3110 4384 2138 
Q 4384 966 3514 410 
Q 2880 0 1901 0 
L 102 0 
L 102 122 
Q 474 147 570 252 
Q 666 358 666 736 
L 666 3520 
Q 666 3891 570 3990 
Q 474 4090 102 4115 
L 102 4237 
z
M 1318 3731 
L 1318 538 
Q 1318 365 1379 301 
Q 1440 237 1626 237 
Q 2125 237 2432 307 
Q 2739 378 3021 570 
Q 3686 1018 3686 2099 
Q 3686 3027 3078 3558 
Q 2803 3802 2476 3901 
Q 2150 4000 1658 4000 
Q 1472 4000 1395 3942 
Q 1318 3885 1318 3731 
z
" transform="scale(0.015625)"/>
       </defs>
       <use xlink:href="#STIXGeneral-Regular-44"/>
       <use xlink:href="#STIXGeneral-Regular-65" x="72.199982"/>
       <use xlink:href="#STIXGeneral-Regular-63" x="116.599976"/>
      </g>
     </g>
    </g>
    <g id="xtick_32">
     <g id="line2d_46">
      <g>
       <use xlink:href="#m546b785950" x="242.841976" y="352.8755" style="fill: #323034; stroke: #323034; stroke-width: 0.8"/>
      </g>
     </g>
     <g id="text_18">
      <!-- Jan -->
      <g style="fill: #323034" transform="translate(232.305726 370.803) scale(0.16 -0.16)">
       <use xlink:href="#STIXGeneral-Regular-4a"/>
       <use xlink:href="#STIXGeneral-Regular-61" x="37.299988"/>
       <use xlink:href="#STIXGeneral-Regular-6e" x="81.699982"/>
      </g>
      <!-- 2021 -->
      <g style="fill: #323034" transform="translate(226.841976 387.3885) scale(0.16 -0.16)">
       <use xlink:href="#STIXGeneral-Regular-32"/>
       <use xlink:href="#STIXGeneral-Regular-30" x="49.999985"/>
       <use xlink:href="#STIXGeneral-Regular-32" x="99.999969"/>
       <use xlink:href="#STIXGeneral-Regular-31" x="149.999954"/>
      </g>
     </g>
    </g>
    <g id="xtick_33">
     <g id="line2d_47">
      <g>
       <use xlink:href="#m546b785950" x="263.478696" y="352.8755" style="fill: #323034; stroke: #323034; stroke-width: 0.8"/>
      </g>
     </g>
     <g id="text_19">
      <!-- Feb -->
      <g style="fill: #323034" transform="translate(251.478696 370.803) scale(0.16 -0.16)">
       <defs>
        <path id="STIXGeneral-Regular-46" d="M 3494 3322 
L 3334 3322 
Q 3264 3757 3094 3875 
Q 2925 3994 2349 3994 
L 1504 3994 
Q 1370 3994 1328 3946 
Q 1286 3898 1286 3744 
L 1286 2355 
L 2195 2355 
Q 2598 2355 2736 2470 
Q 2874 2586 2918 2963 
L 3066 2963 
L 3066 1472 
L 2918 1472 
Q 2880 1862 2745 1977 
Q 2611 2093 2195 2093 
L 1286 2093 
L 1286 717 
Q 1286 352 1392 246 
Q 1498 141 1869 122 
L 1869 0 
L 70 0 
L 70 122 
Q 435 147 534 259 
Q 634 371 634 787 
L 634 3526 
Q 634 3878 538 3984 
Q 442 4090 77 4115 
L 77 4237 
L 3462 4237 
L 3494 3322 
z
" transform="scale(0.015625)"/>
        <path id="STIXGeneral-Regular-62" d="M 979 4358 
L 979 2406 
Q 1082 2650 1315 2797 
Q 1549 2944 1843 2944 
Q 2349 2944 2672 2541 
Q 2995 2138 2995 1536 
Q 2995 832 2566 384 
Q 2138 -64 1498 -64 
Q 1107 -64 774 67 
Q 442 198 442 358 
L 442 3622 
Q 442 3859 384 3926 
Q 326 3994 128 3994 
Q 83 3994 19 3981 
L 19 4090 
L 211 4147 
Q 864 4346 947 4371 
L 979 4358 
z
M 979 2035 
L 979 474 
Q 979 326 1161 233 
Q 1344 141 1600 141 
Q 1978 141 2195 416 
Q 2432 710 2432 1261 
Q 2432 1888 2182 2240 
Q 1971 2541 1613 2541 
Q 1357 2541 1168 2390 
Q 979 2240 979 2035 
z
" transform="scale(0.015625)"/>
       </defs>
       <use xlink:href="#STIXGeneral-Regular-46"/>
       <use xlink:href="#STIXGeneral-Regular-65" x="55.599991"/>
       <use xlink:href="#STIXGeneral-Regular-62" x="99.999985"/>
      </g>
     </g>
    </g>
   </g>
   <g id="matplotlib.axis_6">
    <g id="ytick_9">
     <g id="line2d_48">
      <g>
       <use xlink:href="#m2aa358b68d" x="263.478696" y="352.8755" style="fill: #323034; stroke: #323034; stroke-width: 0.8"/>
      </g>
     </g>
     <g id="text_20">
      <!-- $\mathdefault{−1}$ -->
      <g style="fill: #323034" transform="translate(270.478696 358.33925) scale(0.16 -0.16)">
       <use xlink:href="#STIXGeneral-Regular-2212" transform="translate(0 0.40625)"/>
       <use xlink:href="#STIXGeneral-Regular-31" transform="translate(68.499985 0.40625)"/>
      </g>
     </g>
    </g>
    <g id="ytick_10">
     <g id="line2d_49">
      <g>
       <use xlink:href="#m2aa358b68d" x="263.478696" y="297.492611" style="fill: #323034; stroke: #323034; stroke-width: 0.8"/>
      </g>
     </g>
     <g id="text_21">
      <!-- $\mathdefault{0}$ -->
      <g style="fill: #323034" transform="translate(270.478696 302.956361) scale(0.16 -0.16)">
       <use xlink:href="#STIXGeneral-Regular-30" transform="translate(0 0.40625)"/>
      </g>
     </g>
    </g>
    <g id="ytick_11">
     <g id="line2d_50">
      <g>
       <use xlink:href="#m84bb1701f1" x="263.478696" y="325.184056" style="fill: #323034; stroke: #323034; stroke-width: 0.6"/>
      </g>
     </g>
    </g>
    <g id="ytick_12">
     <g id="line2d_51">
      <g>
       <use xlink:href="#m84bb1701f1" x="263.478696" y="269.801167" style="fill: #323034; stroke: #323034; stroke-width: 0.6"/>
      </g>
     </g>
    </g>
   </g>
   <g id="line2d_52">
    <path d="M 59.774297 300.423511 
L 60.439998 301.536219 
L 61.105698 299.490491 
L 61.771399 292.071392 
L 62.437099 299.686034 
L 63.1028 291.163141 
L 63.768501 294.872994 
L 64.434201 295.172608 
L 65.099902 295.913276 
L 65.765603 299.363572 
L 66.431303 298.0857 
L 67.097004 296.148781 
L 67.762705 299.675301 
L 68.428405 299.857356 
L 69.094106 295.877079 
L 69.759807 298.427396 
L 71.091208 301.818089 
L 72.422609 294.972236 
L 73.08831 301.73439 
L 73.754011 297.888403 
L 75.085412 292.16792 
L 75.751113 291.209985 
L 76.416813 295.162201 
L 77.082514 303.068984 
L 77.748214 302.220192 
L 79.079616 297.871023 
L 79.745316 292.992987 
L 80.411017 295.426548 
L 81.076718 291.75494 
L 81.742418 300.746077 
L 82.408119 298.832334 
L 83.07382 298.241812 
L 83.73952 294.815009 
L 84.405221 297.462423 
L 85.070922 297.670528 
L 85.736622 298.666049 
L 86.402323 306.317776 
L 87.068024 296.320467 
L 87.733724 301.015651 
L 88.399425 293.239425 
L 89.065126 296.634284 
L 89.730826 297.309948 
L 90.396527 299.812809 
L 91.062228 292.758401 
L 91.727928 298.049386 
L 92.393629 294.68691 
L 93.059329 293.961044 
L 93.72503 300.212683 
L 94.390731 298.455787 
L 95.056431 294.640199 
L 97.053533 304.20162 
L 97.719234 299.494934 
L 98.384935 297.554703 
L 99.716336 292.804104 
L 100.382037 290.618337 
L 101.047737 296.868209 
L 101.713438 301.166664 
L 102.379139 301.680468 
L 103.044839 289.013289 
L 103.71054 296.809199 
L 104.376241 297.962914 
L 105.707642 302.550508 
L 106.373342 294.535753 
L 107.039043 299.048285 
L 107.704744 297.951144 
L 108.370444 293.906477 
L 109.036145 301.3789 
L 109.701846 301.4828 
L 110.367546 295.489321 
L 111.033247 298.015699 
L 111.698948 299.927788 
L 112.364648 300.43486 
L 113.030349 295.334808 
L 113.69605 299.46735 
L 114.36175 295.616935 
L 115.027451 294.614221 
L 115.693152 296.351804 
L 116.358852 297.469118 
L 117.024553 297.690219 
L 117.690254 298.183928 
L 118.355954 295.145208 
L 119.021655 298.546049 
L 119.687356 293.341418 
L 120.353056 295.246347 
L 121.018757 295.310814 
L 121.684457 298.555237 
L 122.350158 301.149459 
L 123.015859 299.792899 
L 123.681559 299.551818 
L 125.012961 295.738472 
L 125.678661 300.874977 
L 126.344362 298.414193 
L 127.010063 299.698162 
L 127.675763 294.832098 
L 128.341464 293.939911 
L 129.007165 295.228119 
L 129.672865 295.550573 
L 130.338566 294.541153 
L 131.004267 301.850956 
L 131.669967 302.562699 
L 132.335668 294.098682 
L 133.001369 298.046725 
L 133.667069 297.117241 
L 134.33277 295.184272 
L 134.998471 298.760716 
L 135.664171 299.20404 
L 136.329872 297.468194 
L 136.995572 299.510892 
L 137.661273 296.195484 
L 138.326974 295.76948 
L 138.992674 293.653176 
L 139.658375 295.053296 
L 140.324076 297.627428 
L 140.989776 300.696092 
L 141.655477 296.867966 
L 142.321178 302.140457 
L 142.986878 298.503887 
L 143.652579 299.295594 
L 144.31828 299.014652 
L 144.98398 298.865506 
L 145.649681 297.157212 
L 146.315382 294.44018 
L 146.981082 298.239636 
L 147.646783 294.321277 
L 148.312484 294.098357 
L 148.978184 297.467153 
L 149.643885 295.068718 
L 150.309586 295.840622 
L 150.975286 295.179416 
L 151.640987 304.002446 
L 152.306687 298.409096 
L 152.972388 299.218658 
L 153.638089 298.86549 
L 154.303789 298.733891 
L 154.96949 295.994024 
L 155.635191 303.611794 
L 156.300891 295.399941 
L 156.966592 299.654536 
L 157.632293 292.916753 
L 158.963694 298.922376 
L 159.629395 293.792229 
L 160.295095 298.729873 
L 160.960796 298.319875 
L 161.626497 289.67333 
L 162.292197 307.034701 
L 162.957898 290.939134 
L 163.623599 287.912607 
L 164.289299 291.211913 
L 164.955 298.83497 
L 165.6207 313.682193 
L 166.952102 301.609973 
L 167.617802 299.052542 
L 168.283503 292.028449 
L 168.949204 296.085635 
L 169.614904 295.334794 
L 170.280605 297.439485 
L 170.946306 296.040909 
L 171.612006 299.017695 
L 172.277707 296.078322 
L 172.943408 297.339997 
L 173.609108 298.858903 
L 174.274809 296.454604 
L 174.94051 281.674973 
L 175.60621 303.200974 
L 176.271911 300.040071 
L 176.937612 299.1744 
L 177.603312 293.55326 
L 178.269013 299.261442 
L 178.934714 296.09356 
L 179.600414 304.402533 
L 180.266115 295.798827 
L 180.931815 301.211574 
L 181.597516 299.917057 
L 182.263217 297.485783 
L 182.928917 296.890786 
L 183.594618 303.913534 
L 184.260319 281.912978 
L 184.926019 302.679554 
L 185.59172 294.983594 
L 186.257421 295.599594 
L 186.923121 298.561887 
L 187.588822 298.94279 
L 188.254523 296.762167 
L 188.920223 302.768027 
L 189.585924 296.032437 
L 190.917325 294.075719 
L 191.583026 295.550135 
L 192.248727 304.962649 
L 192.914427 300.624036 
L 193.580128 293.83467 
L 194.245829 298.635474 
L 194.911529 300.172546 
L 195.57723 295.673996 
L 196.24293 294.643572 
L 196.908631 293.246699 
L 197.574332 298.867099 
L 198.240032 297.268189 
L 198.905733 298.257485 
L 199.571434 297.990227 
L 200.237134 296.355034 
L 200.902835 297.248358 
L 201.568536 301.406987 
L 202.899937 297.806232 
L 203.565638 300.516011 
L 204.231338 297.857062 
L 204.897039 295.852237 
L 205.56274 297.753513 
L 206.22844 296.301788 
L 206.894141 298.627978 
L 207.559842 297.182827 
L 208.225542 295.267177 
L 208.891243 299.59063 
L 209.556944 295.424899 
L 210.222644 295.720214 
L 210.888345 297.764415 
L 211.554045 296.890377 
L 212.219746 295.228612 
L 212.885447 297.391688 
L 213.551147 298.078786 
L 214.216848 294.415572 
L 214.882549 295.583727 
L 215.548249 297.071021 
L 216.21395 296.822876 
L 216.879651 291.77182 
L 217.545351 292.020085 
L 218.211052 294.931296 
L 218.876753 326.109816 
L 219.542453 292.648113 
L 220.208154 304.285816 
L 220.873855 300.263114 
L 221.539555 298.539712 
L 222.205256 295.137434 
L 222.870957 295.792583 
L 223.536657 293.377917 
L 224.202358 294.837353 
L 224.868058 297.550157 
L 225.533759 297.537255 
L 226.19946 297.183099 
L 226.86516 294.587234 
L 227.530861 299.239946 
L 228.196562 298.889681 
L 228.862262 289.490408 
L 229.527963 302.043217 
L 230.193664 297.225685 
L 230.859364 300.175016 
L 231.525065 299.768171 
L 232.190766 293.041355 
L 232.856466 294.905728 
L 233.522167 291.750706 
L 234.187868 302.387803 
L 234.853568 293.628595 
L 235.519269 294.069934 
L 236.18497 293.634156 
L 236.85067 290.018098 
L 237.516371 299.6621 
L 238.182072 334.48189 
L 238.847772 291.513352 
L 239.513473 299.257606 
L 240.179173 296.140969 
L 240.844874 294.925366 
L 241.510575 293.203145 
L 242.176275 296.065923 
L 242.841976 321.392697 
L 243.507677 284.974269 
L 244.173377 294.440421 
L 244.839078 291.425615 
L 245.504779 297.523114 
L 246.170479 297.388966 
L 246.83618 294.673736 
L 247.501881 289.913313 
L 248.167581 298.173745 
L 248.833282 295.892617 
L 249.498983 297.617 
L 250.164683 296.813154 
L 250.830384 298.857035 
L 251.496085 296.650678 
L 252.161785 294.028609 
L 252.827486 299.80243 
L 253.493187 295.753331 
L 254.158887 311.302292 
L 254.824588 295.736511 
L 255.490288 297.826473 
L 256.155989 296.864761 
L 256.82169 294.609801 
L 257.48739 298.465192 
L 258.153091 299.861496 
L 258.818792 295.527733 
L 259.484492 297.956126 
L 260.150193 298.253878 
L 260.815894 295.634884 
L 261.481594 294.648531 
L 262.147295 302.765668 
L 262.812996 299.10314 
L 263.478696 293.599049 
L 263.478696 293.599049 
" clip-path="url(#p2c8ee492df)" style="fill: none; stroke: #ff0000; stroke-opacity: 0.4; stroke-width: 3; stroke-linecap: square"/>
   </g>
   <g id="patch_11">
    <path d="M 263.478696 352.8755 
L 263.478696 269.801167 
" style="fill: none; stroke: #000000; stroke-width: 0.6; stroke-linejoin: miter; stroke-linecap: square"/>
   </g>
   <g id="patch_12">
    <path d="M 59.774297 352.8755 
L 263.478696 352.8755 
" style="fill: none; stroke: #000000; stroke-width: 0.6; stroke-linejoin: miter; stroke-linecap: square"/>
   </g>
   <g id="legend_3">
    <g id="patch_13">
     <path d="M 68.174297 346.8755 
L 127.092422 346.8755 
Q 129.492422 346.8755 129.492422 344.4755 
L 129.492422 333.471125 
Q 129.492422 331.071125 127.092422 331.071125 
L 68.174297 331.071125 
Q 65.774297 331.071125 65.774297 333.471125 
L 65.774297 344.4755 
Q 65.774297 346.8755 68.174297 346.8755 
z
" style="fill: #ffffff; opacity: 0.8; stroke: #e6e6e6; stroke-width: 0.8; stroke-linejoin: miter"/>
    </g>
    <g id="line2d_53">
     <path d="M 68.174297 337.671125 
L 80.174297 337.671125 
L 92.174297 337.671125 
" style="fill: none; stroke: #ff0000; stroke-opacity: 0.4; stroke-width: 3; stroke-linecap: square"/>
    </g>
    <g id="text_22">
     <!-- Error -->
     <g style="fill: #323034" transform="translate(101.774297 341.871125) scale(0.12 -0.12)">
      <defs>
       <path id="STIXGeneral-Regular-45" d="M 3821 1082 
L 3526 0 
L 77 0 
L 77 122 
Q 442 147 538 252 
Q 634 358 634 730 
L 634 3520 
Q 634 3878 534 3987 
Q 435 4096 77 4115 
L 77 4237 
L 3469 4237 
L 3494 3322 
L 3334 3322 
Q 3264 3750 3085 3872 
Q 2906 3994 2349 3994 
L 1510 3994 
Q 1370 3994 1328 3952 
Q 1286 3910 1286 3763 
L 1286 2355 
L 2253 2355 
Q 2656 2355 2787 2470 
Q 2918 2586 2976 2970 
L 3123 2970 
L 3123 1472 
L 2976 1472 
Q 2918 1875 2790 1984 
Q 2662 2093 2253 2093 
L 1286 2093 
L 1286 538 
Q 1286 346 1420 291 
Q 1555 237 1933 237 
L 2163 237 
Q 2848 237 3136 403 
Q 3424 570 3642 1082 
L 3821 1082 
z
" transform="scale(0.015625)"/>
      </defs>
      <use xlink:href="#STIXGeneral-Regular-45"/>
      <use xlink:href="#STIXGeneral-Regular-72" x="61.099991"/>
      <use xlink:href="#STIXGeneral-Regular-72" x="94.399979"/>
      <use xlink:href="#STIXGeneral-Regular-6f" x="127.699966"/>
      <use xlink:href="#STIXGeneral-Regular-72" x="177.699951"/>
     </g>
    </g>
   </g>
  </g>
  <g id="text_23">
   <!-- Unobserved Components (smooth trend) -->
   <g style="fill: #323034" transform="translate(7.2 21.542344) scale(0.21 -0.21)">
    <defs>
     <path id="STIXGeneral-Regular-55" d="M 4512 4237 
L 4512 4115 
Q 4122 4077 4016 3926 
Q 3910 3776 3910 3302 
L 3910 1670 
Q 3910 1178 3840 896 
Q 3770 614 3565 378 
Q 3155 -90 2272 -90 
Q 1574 -90 1184 205 
Q 666 589 666 1594 
L 666 3578 
Q 666 3898 566 3994 
Q 467 4090 90 4115 
L 90 4237 
L 1901 4237 
L 1901 4115 
Q 1517 4083 1417 3977 
Q 1318 3872 1318 3514 
L 1318 1517 
Q 1318 1101 1369 877 
Q 1421 653 1600 480 
Q 1901 192 2419 192 
Q 3066 192 3392 570 
Q 3539 749 3584 963 
Q 3629 1178 3629 1600 
L 3629 3283 
Q 3629 3782 3520 3936 
Q 3411 4090 3027 4115 
L 3027 4237 
L 4512 4237 
z
" transform="scale(0.015625)"/>
     <path id="STIXGeneral-Regular-43" d="M 3930 838 
L 4051 723 
Q 3482 -90 2304 -90 
Q 1376 -90 794 480 
Q 179 1082 179 2080 
Q 179 3014 755 3661 
Q 1357 4326 2310 4326 
Q 2720 4326 3072 4230 
Q 3475 4115 3514 4115 
Q 3725 4115 3782 4326 
L 3910 4326 
L 3968 2874 
L 3821 2874 
Q 3718 3334 3488 3584 
Q 3034 4070 2458 4070 
Q 1747 4070 1334 3548 
Q 922 3027 922 2182 
Q 922 1152 1382 653 
Q 1811 192 2522 192 
Q 2944 192 3251 339 
Q 3558 486 3930 838 
z
" transform="scale(0.015625)"/>
     <path id="STIXGeneral-Regular-6d" d="M 4960 0 
L 3565 0 
L 3565 96 
Q 3834 122 3907 208 
Q 3981 294 3981 576 
L 3981 1894 
Q 3981 2278 3869 2444 
Q 3757 2611 3488 2611 
Q 3264 2611 3107 2521 
Q 2950 2432 2803 2221 
L 2803 608 
Q 2803 301 2896 201 
Q 2989 102 3264 96 
L 3264 0 
L 1830 0 
L 1830 96 
Q 2112 115 2189 188 
Q 2266 262 2266 550 
L 2266 1901 
Q 2266 2611 1850 2611 
Q 1670 2611 1468 2531 
Q 1267 2451 1171 2336 
Q 1088 2240 1088 2227 
L 1088 448 
Q 1088 243 1177 176 
Q 1267 109 1523 96 
L 1523 0 
L 102 0 
L 102 96 
Q 371 102 460 195 
Q 550 288 550 563 
L 550 2150 
Q 550 2387 499 2480 
Q 448 2573 326 2573 
Q 230 2573 122 2547 
L 122 2656 
Q 557 2778 1011 2944 
L 1062 2925 
L 1062 2451 
L 1075 2451 
Q 1363 2752 1584 2848 
Q 1805 2944 2054 2944 
Q 2560 2944 2733 2406 
Q 3232 2944 3776 2944 
Q 4518 2944 4518 1792 
L 4518 493 
Q 4518 282 4582 202 
Q 4646 122 4794 109 
L 4960 96 
L 4960 0 
z
" transform="scale(0.015625)"/>
     <path id="STIXGeneral-Regular-28" d="M 1946 -1030 
L 1869 -1133 
Q 1126 -710 716 32 
Q 307 774 307 1613 
Q 307 3386 1888 4326 
L 1946 4224 
Q 1293 3667 1075 3126 
Q 858 2586 858 1632 
Q 858 685 1082 96 
Q 1306 -493 1946 -1030 
z
" transform="scale(0.015625)"/>
     <path id="STIXGeneral-Regular-68" d="M 3117 0 
L 1760 0 
L 1760 96 
Q 2042 128 2118 224 
Q 2195 320 2195 653 
L 2195 1920 
Q 2195 2598 1722 2598 
Q 1530 2598 1370 2508 
Q 1210 2419 1005 2195 
L 1005 653 
Q 1005 320 1081 224 
Q 1158 128 1440 96 
L 1440 0 
L 58 0 
L 58 96 
Q 333 134 400 224 
Q 467 314 467 653 
L 467 3667 
Q 467 3872 406 3933 
Q 346 3994 141 3994 
Q 83 3994 64 3987 
L 64 4090 
L 237 4141 
Q 730 4288 973 4371 
L 1005 4352 
L 1005 2406 
Q 1229 2694 1446 2819 
Q 1664 2944 1946 2944 
Q 2733 2944 2733 1926 
L 2733 653 
Q 2733 320 2793 233 
Q 2854 147 3117 96 
L 3117 0 
z
" transform="scale(0.015625)"/>
     <path id="STIXGeneral-Regular-29" d="M 186 4224 
L 262 4326 
Q 992 3891 1408 3148 
Q 1824 2406 1824 1581 
Q 1824 -166 243 -1133 
L 186 -1030 
Q 845 -486 1059 54 
Q 1274 595 1274 1562 
Q 1274 2534 1059 3120 
Q 845 3706 186 4224 
z
" transform="scale(0.015625)"/>
    </defs>
    <use xlink:href="#STIXGeneral-Regular-55"/>
    <use xlink:href="#STIXGeneral-Regular-6e" x="72.199982"/>
    <use xlink:href="#STIXGeneral-Regular-6f" x="122.199966"/>
    <use xlink:href="#STIXGeneral-Regular-62" x="172.199951"/>
    <use xlink:href="#STIXGeneral-Regular-73" x="222.199936"/>
    <use xlink:href="#STIXGeneral-Regular-65" x="261.09993"/>
    <use xlink:href="#STIXGeneral-Regular-72" x="305.499924"/>
    <use xlink:href="#STIXGeneral-Regular-76" x="338.799911"/>
    <use xlink:href="#STIXGeneral-Regular-65" x="388.799896"/>
    <use xlink:href="#STIXGeneral-Regular-64" x="433.19989"/>
    <use xlink:href="#STIXGeneral-Regular-20" x="483.199875"/>
    <use xlink:href="#STIXGeneral-Regular-43" x="508.19986"/>
    <use xlink:href="#STIXGeneral-Regular-6f" x="574.899857"/>
    <use xlink:href="#STIXGeneral-Regular-6d" x="624.899841"/>
    <use xlink:href="#STIXGeneral-Regular-70" x="702.699829"/>
    <use xlink:href="#STIXGeneral-Regular-6f" x="752.699814"/>
    <use xlink:href="#STIXGeneral-Regular-6e" x="802.699799"/>
    <use xlink:href="#STIXGeneral-Regular-65" x="852.699783"/>
    <use xlink:href="#STIXGeneral-Regular-6e" x="897.099777"/>
    <use xlink:href="#STIXGeneral-Regular-74" x="947.099762"/>
    <use xlink:href="#STIXGeneral-Regular-73" x="974.89975"/>
    <use xlink:href="#STIXGeneral-Regular-20" x="1013.799744"/>
    <use xlink:href="#STIXGeneral-Regular-28" x="1038.799728"/>
    <use xlink:href="#STIXGeneral-Regular-73" x="1072.099716"/>
    <use xlink:href="#STIXGeneral-Regular-6d" x="1110.99971"/>
    <use xlink:href="#STIXGeneral-Regular-6f" x="1188.799698"/>
    <use xlink:href="#STIXGeneral-Regular-6f" x="1238.799683"/>
    <use xlink:href="#STIXGeneral-Regular-74" x="1288.799667"/>
    <use xlink:href="#STIXGeneral-Regular-68" x="1316.599655"/>
    <use xlink:href="#STIXGeneral-Regular-20" x="1366.59964"/>
    <use xlink:href="#STIXGeneral-Regular-74" x="1391.599625"/>
    <use xlink:href="#STIXGeneral-Regular-72" x="1419.399612"/>
    <use xlink:href="#STIXGeneral-Regular-65" x="1452.6996"/>
    <use xlink:href="#STIXGeneral-Regular-6e" x="1497.099594"/>
    <use xlink:href="#STIXGeneral-Regular-64" x="1547.099579"/>
    <use xlink:href="#STIXGeneral-Regular-29" x="1597.099564"/>
   </g>
  </g>
 </g>
 <defs>
  <clipPath id="p14e7d445c0">
   <rect x="59.774297" y="70.7325" width="203.704399" height="83.074333"/>
  </clipPath>
  <clipPath id="p6bdb7b004b">
   <rect x="59.774297" y="170.266833" width="203.704399" height="83.074333"/>
  </clipPath>
  <clipPath id="p2c8ee492df">
   <rect x="59.774297" y="269.801167" width="203.704399" height="83.074333"/>
  </clipPath>
 </defs>
</svg>