<?xml version="1.0" encoding="utf-8" standalone="no"?>
<!DOCTYPE svg PUBLIC "-//W3C//DTD SVG 1.1//EN"
  "http://www.w3.org/Graphics/SVG/1.1/DTD/svg11.dtd">
<svg xmlns:xlink="http://www.w3.org/1999/xlink" width="447.267266pt" height="349.155pt" viewBox="0 0 447.267266 349.155" xmlns="http://www.w3.org/2000/svg" version="1.1">
 <metadata>
  <rdf:RDF xmlns:dc="http://purl.org/dc/elements/1.1/" xmlns:cc="http://creativecommons.org/ns#" xmlns:rdf="http://www.w3.org/1999/02/22-rdf-syntax-ns#">
   <cc:Work>
    <dc:type rdf:resource="http://purl.org/dc/dcmitype/StillImage"/>
    <dc:date>2023-12-29T00:21:55.472660</dc:date>
    <dc:format>image/svg+xml</dc:format>
    <dc:creator>
     <cc:Agent>
      <dc:title>Matplotlib v3.7.2, https://matplotlib.org/</dc:title>
     </cc:Agent>
    </dc:creator>
   </cc:Work>
  </rdf:RDF>
 </metadata>
 <defs>
  <style type="text/css">*{stroke-linejoin: round; stroke-linecap: butt}</style>
 </defs>
 <g id="figure_1">
  <g id="patch_1">
   <path d="M 0 349.155 
L 447.267266 349.155 
L 447.267266 0 
L 0 0 
z
" style="fill: #ffffff"/>
  </g>
  <g id="axes_1">
   <g id="patch_2">
    <path d="M 51.615 303.155 
L 332.256266 303.155 
L 332.256266 12.66375 
L 51.615 12.66375 
z
" style="fill: #ffffff"/>
   </g>
   <g id="PolyCollection_1">
    <defs>
     <path id="md227007584" d="M 100.049963 -46.027479 
L 100.049963 -46 
L 101.086258 -46 
L 102.122553 -46 
L 103.158847 -46 
L 104.195142 -46 
L 105.231437 -46 
L 106.267731 -46 
L 107.304026 -46 
L 108.340321 -46 
L 109.376616 -46 
L 110.41291 -46 
L 111.449205 -46 
L 112.4855 -46 
L 113.521794 -46 
L 114.558089 -46 
L 115.594384 -46 
L 116.630678 -46 
L 117.666973 -46 
L 118.703268 -46 
L 119.739562 -46 
L 120.775857 -46 
L 121.812152 -46 
L 122.848446 -46 
L 123.884741 -46 
L 124.921036 -46 
L 125.95733 -46 
L 126.993625 -46 
L 128.02992 -46 
L 129.066214 -46 
L 130.102509 -46 
L 131.138804 -46 
L 132.175098 -46 
L 133.211393 -46 
L 134.247688 -46 
L 135.283982 -46 
L 136.320277 -46 
L 137.356572 -46 
L 138.392866 -46 
L 139.429161 -46 
L 140.465456 -46 
L 141.50175 -46 
L 142.538045 -46 
L 143.57434 -46 
L 144.610634 -46 
L 145.646929 -46 
L 146.683224 -46 
L 147.719518 -46 
L 148.755813 -46 
L 149.792108 -46 
L 150.828402 -46 
L 151.864697 -46 
L 152.900992 -46 
L 153.937286 -46 
L 154.973581 -46 
L 156.009876 -46 
L 157.04617 -46 
L 158.082465 -46 
L 159.11876 -46 
L 160.155054 -46 
L 161.191349 -46 
L 162.227644 -46 
L 163.263939 -46 
L 164.300233 -46 
L 165.336528 -46 
L 166.372823 -46 
L 167.409117 -46 
L 168.445412 -46 
L 169.481707 -46 
L 170.518001 -46 
L 171.554296 -46 
L 172.590591 -46 
L 173.626885 -46 
L 174.66318 -46 
L 175.699475 -46 
L 176.735769 -46 
L 177.772064 -46 
L 178.808359 -46 
L 179.844653 -46 
L 180.880948 -46 
L 181.917243 -46 
L 182.953537 -46 
L 183.989832 -46 
L 185.026127 -46 
L 186.062421 -46 
L 187.098716 -46 
L 188.135011 -46 
L 189.171305 -46 
L 190.2076 -46 
L 191.243895 -46 
L 192.280189 -46 
L 193.316484 -46 
L 194.352779 -46 
L 195.389073 -46 
L 196.425368 -46 
L 197.461663 -46 
L 198.497957 -46 
L 199.534252 -46 
L 200.570547 -46 
L 201.606841 -46 
L 202.643136 -46 
L 203.679431 -46 
L 204.715725 -46 
L 205.75202 -46 
L 206.788315 -46 
L 207.824609 -46 
L 208.860904 -46 
L 209.897199 -46 
L 210.933493 -46 
L 211.969788 -46 
L 213.006083 -46 
L 214.042378 -46 
L 215.078672 -46 
L 216.114967 -46 
L 217.151262 -46 
L 218.187556 -46 
L 219.223851 -46 
L 220.260146 -46 
L 221.29644 -46 
L 222.332735 -46 
L 223.36903 -46 
L 224.405324 -46 
L 225.441619 -46 
L 226.477914 -46 
L 227.514208 -46 
L 228.550503 -46 
L 229.586798 -46 
L 230.623092 -46 
L 231.659387 -46 
L 232.695682 -46 
L 233.731976 -46 
L 234.768271 -46 
L 235.804566 -46 
L 236.84086 -46 
L 237.877155 -46 
L 238.91345 -46 
L 239.949744 -46 
L 240.986039 -46 
L 242.022334 -46 
L 243.058628 -46 
L 244.094923 -46 
L 245.131218 -46 
L 246.167512 -46 
L 247.203807 -46 
L 248.240102 -46 
L 249.276396 -46 
L 250.312691 -46 
L 251.348986 -46 
L 252.38528 -46 
L 253.421575 -46 
L 254.45787 -46 
L 255.494164 -46 
L 256.530459 -46 
L 257.566754 -46 
L 258.603048 -46 
L 259.639343 -46 
L 260.675638 -46 
L 261.711932 -46 
L 262.748227 -46 
L 263.784522 -46 
L 264.820816 -46 
L 265.857111 -46 
L 266.893406 -46 
L 267.929701 -46 
L 268.965995 -46 
L 270.00229 -46 
L 271.038585 -46 
L 272.074879 -46 
L 273.111174 -46 
L 274.147469 -46 
L 275.183763 -46 
L 276.220058 -46 
L 277.256353 -46 
L 278.292647 -46 
L 279.328942 -46 
L 280.365237 -46 
L 281.401531 -46 
L 282.437826 -46 
L 283.474121 -46 
L 284.510415 -46 
L 285.54671 -46 
L 286.583005 -46 
L 287.619299 -46 
L 288.655594 -46 
L 289.691889 -46 
L 290.728183 -46 
L 291.764478 -46 
L 292.800773 -46 
L 293.837067 -46 
L 294.873362 -46 
L 295.909657 -46 
L 296.945951 -46 
L 297.982246 -46 
L 299.018541 -46 
L 300.054835 -46 
L 301.09113 -46 
L 302.127425 -46 
L 303.163719 -46 
L 304.200014 -46 
L 305.236309 -46 
L 306.272603 -46 
L 306.272603 -46.0057 
L 306.272603 -46.0057 
L 305.236309 -46.007191 
L 304.200014 -46.009016 
L 303.163719 -46.011235 
L 302.127425 -46.013914 
L 301.09113 -46.017126 
L 300.054835 -46.020951 
L 299.018541 -46.025472 
L 297.982246 -46.030778 
L 296.945951 -46.036962 
L 295.909657 -46.044115 
L 294.873362 -46.05233 
L 293.837067 -46.061693 
L 292.800773 -46.072285 
L 291.764478 -46.084175 
L 290.728183 -46.09742 
L 289.691889 -46.112057 
L 288.655594 -46.128101 
L 287.619299 -46.145543 
L 286.583005 -46.164345 
L 285.54671 -46.184436 
L 284.510415 -46.205713 
L 283.474121 -46.228036 
L 282.437826 -46.25123 
L 281.401531 -46.275083 
L 280.365237 -46.299352 
L 279.328942 -46.323761 
L 278.292647 -46.348012 
L 277.256353 -46.371782 
L 276.220058 -46.394738 
L 275.183763 -46.416538 
L 274.147469 -46.436844 
L 273.111174 -46.455328 
L 272.074879 -46.47168 
L 271.038585 -46.485621 
L 270.00229 -46.496905 
L 268.965995 -46.505332 
L 267.929701 -46.510748 
L 266.893406 -46.513057 
L 265.857111 -46.512217 
L 264.820816 -46.508246 
L 263.784522 -46.501218 
L 262.748227 -46.491266 
L 261.711932 -46.478573 
L 260.675638 -46.463368 
L 259.639343 -46.445925 
L 258.603048 -46.426546 
L 257.566754 -46.405563 
L 256.530459 -46.383321 
L 255.494164 -46.360175 
L 254.45787 -46.336482 
L 253.421575 -46.312591 
L 252.38528 -46.288838 
L 251.348986 -46.26554 
L 250.312691 -46.242993 
L 249.276396 -46.221465 
L 248.240102 -46.201197 
L 247.203807 -46.182403 
L 246.167512 -46.165268 
L 245.131218 -46.149951 
L 244.094923 -46.136587 
L 243.058628 -46.12529 
L 242.022334 -46.116154 
L 240.986039 -46.10926 
L 239.949744 -46.104675 
L 238.91345 -46.102454 
L 237.877155 -46.102648 
L 236.84086 -46.105299 
L 235.804566 -46.110443 
L 234.768271 -46.118113 
L 233.731976 -46.128333 
L 232.695682 -46.141119 
L 231.659387 -46.156478 
L 230.623092 -46.174406 
L 229.586798 -46.19488 
L 228.550503 -46.217863 
L 227.514208 -46.243291 
L 226.477914 -46.271082 
L 225.441619 -46.301123 
L 224.405324 -46.333275 
L 223.36903 -46.36737 
L 222.332735 -46.40321 
L 221.29644 -46.440572 
L 220.260146 -46.479207 
L 219.223851 -46.518845 
L 218.187556 -46.5592 
L 217.151262 -46.599978 
L 216.114967 -46.640879 
L 215.078672 -46.681612 
L 214.042378 -46.7219 
L 213.006083 -46.761491 
L 211.969788 -46.800164 
L 210.933493 -46.837747 
L 209.897199 -46.874117 
L 208.860904 -46.909216 
L 207.824609 -46.943057 
L 206.788315 -46.975728 
L 205.75202 -47.007405 
L 204.715725 -47.038347 
L 203.679431 -47.068905 
L 202.643136 -47.099523 
L 201.606841 -47.130729 
L 200.570547 -47.163141 
L 199.534252 -47.197455 
L 198.497957 -47.234441 
L 197.461663 -47.274935 
L 196.425368 -47.319823 
L 195.389073 -47.370039 
L 194.352779 -47.426544 
L 193.316484 -47.490317 
L 192.280189 -47.562342 
L 191.243895 -47.643594 
L 190.2076 -47.735025 
L 189.171305 -47.837553 
L 188.135011 -47.952051 
L 187.098716 -48.079329 
L 186.062421 -48.220133 
L 185.026127 -48.375125 
L 183.989832 -48.544877 
L 182.953537 -48.729859 
L 181.917243 -48.93043 
L 180.880948 -49.146822 
L 179.844653 -49.379133 
L 178.808359 -49.627308 
L 177.772064 -49.891129 
L 176.735769 -50.170197 
L 175.699475 -50.463916 
L 174.66318 -50.771482 
L 173.626885 -51.091861 
L 172.590591 -51.42378 
L 171.554296 -51.765712 
L 170.518001 -52.115872 
L 169.481707 -52.472211 
L 168.445412 -52.832416 
L 167.409117 -53.193921 
L 166.372823 -53.55392 
L 165.336528 -53.90939 
L 164.300233 -54.257122 
L 163.263939 -54.593757 
L 162.227644 -54.915837 
L 161.191349 -55.219848 
L 160.155054 -55.502287 
L 159.11876 -55.75972 
L 158.082465 -55.988846 
L 157.04617 -56.186568 
L 156.009876 -56.350054 
L 154.973581 -56.4768 
L 153.937286 -56.56469 
L 152.900992 -56.612047 
L 151.864697 -56.617675 
L 150.828402 -56.580892 
L 149.792108 -56.501556 
L 148.755813 -56.380075 
L 147.719518 -56.217404 
L 146.683224 -56.015034 
L 145.646929 -55.77497 
L 144.610634 -55.49969 
L 143.57434 -55.192101 
L 142.538045 -54.855484 
L 141.50175 -54.493433 
L 140.465456 -54.109782 
L 139.429161 -53.708533 
L 138.392866 -53.293788 
L 137.356572 -52.869664 
L 136.320277 -52.440229 
L 135.283982 -52.00943 
L 134.247688 -51.581028 
L 133.211393 -51.158543 
L 132.175098 -50.745206 
L 131.138804 -50.343918 
L 130.102509 -49.957221 
L 129.066214 -49.587279 
L 128.02992 -49.235862 
L 126.993625 -48.904353 
L 125.95733 -48.593749 
L 124.921036 -48.304679 
L 123.884741 -48.037428 
L 122.848446 -47.791963 
L 121.812152 -47.567965 
L 120.775857 -47.364868 
L 119.739562 -47.181894 
L 118.703268 -47.018092 
L 117.666973 -46.872375 
L 116.630678 -46.743558 
L 115.594384 -46.630391 
L 114.558089 -46.53159 
L 113.521794 -46.445866 
L 112.4855 -46.371948 
L 111.449205 -46.308602 
L 110.41291 -46.254651 
L 109.376616 -46.208982 
L 108.340321 -46.170563 
L 107.304026 -46.138439 
L 106.267731 -46.111745 
L 105.231437 -46.089697 
L 104.195142 -46.071598 
L 103.158847 -46.056832 
L 102.122553 -46.044859 
L 101.086258 -46.035209 
L 100.049963 -46.027479 
z
" style="stroke: #fccde5; stroke-width: 0.8"/>
    </defs>
    <g clip-path="url(#p8d26c65fe0)">
     <use xlink:href="#md227007584" x="0" y="349.155" style="fill: #fccde5; fill-opacity: 0.25; stroke: #fccde5; stroke-width: 0.8"/>
    </g>
   </g>
   <g id="PolyCollection_2">
    <defs>
     <path id="m3071493c1a" d="M 108.440404 -46.055434 
L 108.440404 -46 
L 109.038046 -46 
L 109.635687 -46 
L 110.233329 -46 
L 110.83097 -46 
L 111.428612 -46 
L 112.026253 -46 
L 112.623894 -46 
L 113.221536 -46 
L 113.819177 -46 
L 114.416819 -46 
L 115.01446 -46 
L 115.612101 -46 
L 116.209743 -46 
L 116.807384 -46 
L 117.405026 -46 
L 118.002667 -46 
L 118.600308 -46 
L 119.19795 -46 
L 119.795591 -46 
L 120.393233 -46 
L 120.990874 -46 
L 121.588515 -46 
L 122.186157 -46 
L 122.783798 -46 
L 123.38144 -46 
L 123.979081 -46 
L 124.576722 -46 
L 125.174364 -46 
L 125.772005 -46 
L 126.369647 -46 
L 126.967288 -46 
L 127.564929 -46 
L 128.162571 -46 
L 128.760212 -46 
L 129.357854 -46 
L 129.955495 -46 
L 130.553137 -46 
L 131.150778 -46 
L 131.748419 -46 
L 132.346061 -46 
L 132.943702 -46 
L 133.541344 -46 
L 134.138985 -46 
L 134.736626 -46 
L 135.334268 -46 
L 135.931909 -46 
L 136.529551 -46 
L 137.127192 -46 
L 137.724833 -46 
L 138.322475 -46 
L 138.920116 -46 
L 139.517758 -46 
L 140.115399 -46 
L 140.71304 -46 
L 141.310682 -46 
L 141.908323 -46 
L 142.505965 -46 
L 143.103606 -46 
L 143.701247 -46 
L 144.298889 -46 
L 144.89653 -46 
L 145.494172 -46 
L 146.091813 -46 
L 146.689455 -46 
L 147.287096 -46 
L 147.884737 -46 
L 148.482379 -46 
L 149.08002 -46 
L 149.677662 -46 
L 150.275303 -46 
L 150.872944 -46 
L 151.470586 -46 
L 152.068227 -46 
L 152.665869 -46 
L 153.26351 -46 
L 153.861151 -46 
L 154.458793 -46 
L 155.056434 -46 
L 155.654076 -46 
L 156.251717 -46 
L 156.849358 -46 
L 157.447 -46 
L 158.044641 -46 
L 158.642283 -46 
L 159.239924 -46 
L 159.837565 -46 
L 160.435207 -46 
L 161.032848 -46 
L 161.63049 -46 
L 162.228131 -46 
L 162.825772 -46 
L 163.423414 -46 
L 164.021055 -46 
L 164.618697 -46 
L 165.216338 -46 
L 165.81398 -46 
L 166.411621 -46 
L 167.009262 -46 
L 167.606904 -46 
L 168.204545 -46 
L 168.802187 -46 
L 169.399828 -46 
L 169.997469 -46 
L 170.595111 -46 
L 171.192752 -46 
L 171.790394 -46 
L 172.388035 -46 
L 172.985676 -46 
L 173.583318 -46 
L 174.180959 -46 
L 174.778601 -46 
L 175.376242 -46 
L 175.973883 -46 
L 176.571525 -46 
L 177.169166 -46 
L 177.766808 -46 
L 178.364449 -46 
L 178.96209 -46 
L 179.559732 -46 
L 180.157373 -46 
L 180.755015 -46 
L 181.352656 -46 
L 181.950298 -46 
L 182.547939 -46 
L 183.14558 -46 
L 183.743222 -46 
L 184.340863 -46 
L 184.938505 -46 
L 185.536146 -46 
L 186.133787 -46 
L 186.731429 -46 
L 187.32907 -46 
L 187.926712 -46 
L 188.524353 -46 
L 189.121994 -46 
L 189.719636 -46 
L 190.317277 -46 
L 190.914919 -46 
L 191.51256 -46 
L 192.110201 -46 
L 192.707843 -46 
L 193.305484 -46 
L 193.903126 -46 
L 194.500767 -46 
L 195.098408 -46 
L 195.69605 -46 
L 196.293691 -46 
L 196.891333 -46 
L 197.488974 -46 
L 198.086615 -46 
L 198.684257 -46 
L 199.281898 -46 
L 199.87954 -46 
L 200.477181 -46 
L 201.074823 -46 
L 201.672464 -46 
L 202.270105 -46 
L 202.867747 -46 
L 203.465388 -46 
L 204.06303 -46 
L 204.660671 -46 
L 205.258312 -46 
L 205.855954 -46 
L 206.453595 -46 
L 207.051237 -46 
L 207.648878 -46 
L 208.246519 -46 
L 208.844161 -46 
L 209.441802 -46 
L 210.039444 -46 
L 210.637085 -46 
L 211.234726 -46 
L 211.832368 -46 
L 212.430009 -46 
L 213.027651 -46 
L 213.625292 -46 
L 214.222933 -46 
L 214.820575 -46 
L 215.418216 -46 
L 216.015858 -46 
L 216.613499 -46 
L 217.211141 -46 
L 217.808782 -46 
L 218.406423 -46 
L 219.004065 -46 
L 219.601706 -46 
L 220.199348 -46 
L 220.796989 -46 
L 221.39463 -46 
L 221.992272 -46 
L 222.589913 -46 
L 223.187555 -46 
L 223.785196 -46 
L 224.382837 -46 
L 224.980479 -46 
L 225.57812 -46 
L 226.175762 -46 
L 226.773403 -46 
L 227.371044 -46 
L 227.371044 -46.010598 
L 227.371044 -46.010598 
L 226.773403 -46.013587 
L 226.175762 -46.0173 
L 225.57812 -46.021875 
L 224.980479 -46.02747 
L 224.382837 -46.03426 
L 223.785196 -46.042438 
L 223.187555 -46.05221 
L 222.589913 -46.063798 
L 221.992272 -46.077434 
L 221.39463 -46.093355 
L 220.796989 -46.111803 
L 220.199348 -46.133013 
L 219.601706 -46.157215 
L 219.004065 -46.184619 
L 218.406423 -46.215418 
L 217.808782 -46.249772 
L 217.211141 -46.287813 
L 216.613499 -46.329632 
L 216.015858 -46.375285 
L 215.418216 -46.424784 
L 214.820575 -46.478104 
L 214.222933 -46.535187 
L 213.625292 -46.595944 
L 213.027651 -46.660269 
L 212.430009 -46.728046 
L 211.832368 -46.799164 
L 211.234726 -46.873527 
L 210.637085 -46.951069 
L 210.039444 -47.031764 
L 209.441802 -47.115636 
L 208.844161 -47.202765 
L 208.246519 -47.293287 
L 207.648878 -47.387395 
L 207.051237 -47.485321 
L 206.453595 -47.587328 
L 205.855954 -47.693687 
L 205.258312 -47.804645 
L 204.660671 -47.920402 
L 204.06303 -48.041068 
L 203.465388 -48.166636 
L 202.867747 -48.296943 
L 202.270105 -48.431643 
L 201.672464 -48.570183 
L 201.074823 -48.711787 
L 200.477181 -48.855451 
L 199.87954 -48.999952 
L 199.281898 -49.143869 
L 198.684257 -49.285618 
L 198.086615 -49.4235 
L 197.488974 -49.555758 
L 196.891333 -49.680652 
L 196.293691 -49.79653 
L 195.69605 -49.901915 
L 195.098408 -49.995578 
L 194.500767 -50.076618 
L 193.903126 -50.144528 
L 193.305484 -50.199245 
L 192.707843 -50.241193 
L 192.110201 -50.2713 
L 191.51256 -50.290991 
L 190.914919 -50.302173 
L 190.317277 -50.307178 
L 189.719636 -50.308705 
L 189.121994 -50.309732 
L 188.524353 -50.313419 
L 187.926712 -50.322998 
L 187.32907 -50.341658 
L 186.731429 -50.372433 
L 186.133787 -50.418098 
L 185.536146 -50.481062 
L 184.938505 -50.563298 
L 184.340863 -50.666279 
L 183.743222 -50.790939 
L 183.14558 -50.937667 
L 182.547939 -51.106319 
L 181.950298 -51.296266 
L 181.352656 -51.506454 
L 180.755015 -51.7355 
L 180.157373 -51.981795 
L 179.559732 -52.243619 
L 178.96209 -52.51927 
L 178.364449 -52.807184 
L 177.766808 -53.106054 
L 177.169166 -53.414931 
L 176.571525 -53.73331 
L 175.973883 -54.061192 
L 175.376242 -54.399111 
L 174.778601 -54.748145 
L 174.180959 -55.109881 
L 173.583318 -55.486357 
L 172.985676 -55.879977 
L 172.388035 -56.293395 
L 171.790394 -56.729382 
L 171.192752 -57.190675 
L 170.595111 -57.679822 
L 169.997469 -58.199019 
L 169.399828 -58.749956 
L 168.802187 -59.333674 
L 168.204545 -59.950435 
L 167.606904 -60.599626 
L 167.009262 -61.279677 
L 166.411621 -61.988025 
L 165.81398 -62.721104 
L 165.216338 -63.474374 
L 164.618697 -64.242386 
L 164.021055 -65.018884 
L 163.423414 -65.796942 
L 162.825772 -66.569123 
L 162.228131 -67.327679 
L 161.63049 -68.064754 
L 161.032848 -68.772621 
L 160.435207 -69.443908 
L 159.837565 -70.071839 
L 159.239924 -70.650462 
L 158.642283 -71.174856 
L 158.044641 -71.641327 
L 157.447 -72.047565 
L 156.849358 -72.39276 
L 156.251717 -72.677685 
L 155.654076 -72.904723 
L 155.056434 -73.077844 
L 154.458793 -73.202529 
L 153.861151 -73.285646 
L 153.26351 -73.335267 
L 152.665869 -73.360447 
L 152.068227 -73.370954 
L 151.470586 -73.376974 
L 150.872944 -73.388785 
L 150.275303 -73.416421 
L 149.677662 -73.469326 
L 149.08002 -73.556022 
L 148.482379 -73.683791 
L 147.884737 -73.858383 
L 147.287096 -74.083771 
L 146.689455 -74.361944 
L 146.091813 -74.692765 
L 145.494172 -75.073881 
L 144.89653 -75.500705 
L 144.298889 -75.966467 
L 143.701247 -76.462326 
L 143.103606 -76.977555 
L 142.505965 -77.499787 
L 141.908323 -78.015313 
L 141.310682 -78.509432 
L 140.71304 -78.966835 
L 140.115399 -79.372023 
L 139.517758 -79.709728 
L 138.920116 -79.965345 
L 138.322475 -80.12535 
L 137.724833 -80.177684 
L 137.127192 -80.11211 
L 136.529551 -79.920513 
L 135.931909 -79.597143 
L 135.334268 -79.138786 
L 134.736626 -78.544866 
L 134.138985 -77.817471 
L 133.541344 -76.961289 
L 132.943702 -75.983491 
L 132.346061 -74.893522 
L 131.748419 -73.702844 
L 131.150778 -72.424619 
L 130.553137 -71.073358 
L 129.955495 -69.664535 
L 129.357854 -68.214189 
L 128.760212 -66.73853 
L 128.162571 -65.253548 
L 127.564929 -63.774657 
L 126.967288 -62.316369 
L 126.369647 -60.892015 
L 125.772005 -59.513513 
L 125.174364 -58.191202 
L 124.576722 -56.933721 
L 123.979081 -55.747954 
L 123.38144 -54.639027 
L 122.783798 -53.610353 
L 122.186157 -52.663725 
L 121.588515 -51.799439 
L 120.990874 -51.016453 
L 120.393233 -50.312561 
L 119.795591 -49.684581 
L 119.19795 -49.128546 
L 118.600308 -48.639893 
L 118.002667 -48.213645 
L 117.405026 -47.844576 
L 116.807384 -47.527361 
L 116.209743 -47.256705 
L 115.612101 -47.027453 
L 115.01446 -46.834678 
L 114.416819 -46.673745 
L 113.819177 -46.540361 
L 113.221536 -46.430602 
L 112.623894 -46.34093 
L 112.026253 -46.268191 
L 111.428612 -46.209608 
L 110.83097 -46.16276 
L 110.233329 -46.125563 
L 109.635687 -46.096237 
L 109.038046 -46.073279 
L 108.440404 -46.055434 
z
" style="stroke: #fdb462; stroke-width: 0.8"/>
    </defs>
    <g clip-path="url(#p8d26c65fe0)">
     <use xlink:href="#m3071493c1a" x="0" y="349.155" style="fill: #fdb462; fill-opacity: 0.25; stroke: #fdb462; stroke-width: 0.8"/>
    </g>
   </g>
   <g id="PolyCollection_3">
    <defs>
     <path id="md4ef85289b" d="M 114.097082 -46.226235 
L 114.097082 -46 
L 114.583225 -46 
L 115.069368 -46 
L 115.555511 -46 
L 116.041654 -46 
L 116.527797 -46 
L 117.013939 -46 
L 117.500082 -46 
L 117.986225 -46 
L 118.472368 -46 
L 118.958511 -46 
L 119.444654 -46 
L 119.930797 -46 
L 120.41694 -46 
L 120.903083 -46 
L 121.389225 -46 
L 121.875368 -46 
L 122.361511 -46 
L 122.847654 -46 
L 123.333797 -46 
L 123.81994 -46 
L 124.306083 -46 
L 124.792226 -46 
L 125.278369 -46 
L 125.764512 -46 
L 126.250654 -46 
L 126.736797 -46 
L 127.22294 -46 
L 127.709083 -46 
L 128.195226 -46 
L 128.681369 -46 
L 129.167512 -46 
L 129.653655 -46 
L 130.139798 -46 
L 130.62594 -46 
L 131.112083 -46 
L 131.598226 -46 
L 132.084369 -46 
L 132.570512 -46 
L 133.056655 -46 
L 133.542798 -46 
L 134.028941 -46 
L 134.515084 -46 
L 135.001226 -46 
L 135.487369 -46 
L 135.973512 -46 
L 136.459655 -46 
L 136.945798 -46 
L 137.431941 -46 
L 137.918084 -46 
L 138.404227 -46 
L 138.89037 -46 
L 139.376513 -46 
L 139.862655 -46 
L 140.348798 -46 
L 140.834941 -46 
L 141.321084 -46 
L 141.807227 -46 
L 142.29337 -46 
L 142.779513 -46 
L 143.265656 -46 
L 143.751799 -46 
L 144.237941 -46 
L 144.724084 -46 
L 145.210227 -46 
L 145.69637 -46 
L 146.182513 -46 
L 146.668656 -46 
L 147.154799 -46 
L 147.640942 -46 
L 148.127085 -46 
L 148.613227 -46 
L 149.09937 -46 
L 149.585513 -46 
L 150.071656 -46 
L 150.557799 -46 
L 151.043942 -46 
L 151.530085 -46 
L 152.016228 -46 
L 152.502371 -46 
L 152.988514 -46 
L 153.474656 -46 
L 153.960799 -46 
L 154.446942 -46 
L 154.933085 -46 
L 155.419228 -46 
L 155.905371 -46 
L 156.391514 -46 
L 156.877657 -46 
L 157.3638 -46 
L 157.849942 -46 
L 158.336085 -46 
L 158.822228 -46 
L 159.308371 -46 
L 159.794514 -46 
L 160.280657 -46 
L 160.7668 -46 
L 161.252943 -46 
L 161.739086 -46 
L 162.225228 -46 
L 162.711371 -46 
L 163.197514 -46 
L 163.683657 -46 
L 164.1698 -46 
L 164.655943 -46 
L 165.142086 -46 
L 165.628229 -46 
L 166.114372 -46 
L 166.600515 -46 
L 167.086657 -46 
L 167.5728 -46 
L 168.058943 -46 
L 168.545086 -46 
L 169.031229 -46 
L 169.517372 -46 
L 170.003515 -46 
L 170.489658 -46 
L 170.975801 -46 
L 171.461943 -46 
L 171.948086 -46 
L 172.434229 -46 
L 172.920372 -46 
L 173.406515 -46 
L 173.892658 -46 
L 174.378801 -46 
L 174.864944 -46 
L 175.351087 -46 
L 175.837229 -46 
L 176.323372 -46 
L 176.809515 -46 
L 177.295658 -46 
L 177.781801 -46 
L 178.267944 -46 
L 178.754087 -46 
L 179.24023 -46 
L 179.726373 -46 
L 180.212516 -46 
L 180.698658 -46 
L 181.184801 -46 
L 181.670944 -46 
L 182.157087 -46 
L 182.64323 -46 
L 183.129373 -46 
L 183.615516 -46 
L 184.101659 -46 
L 184.587802 -46 
L 185.073944 -46 
L 185.560087 -46 
L 186.04623 -46 
L 186.532373 -46 
L 187.018516 -46 
L 187.504659 -46 
L 187.990802 -46 
L 188.476945 -46 
L 188.963088 -46 
L 189.44923 -46 
L 189.935373 -46 
L 190.421516 -46 
L 190.907659 -46 
L 191.393802 -46 
L 191.879945 -46 
L 192.366088 -46 
L 192.852231 -46 
L 193.338374 -46 
L 193.824516 -46 
L 194.310659 -46 
L 194.796802 -46 
L 195.282945 -46 
L 195.769088 -46 
L 196.255231 -46 
L 196.741374 -46 
L 197.227517 -46 
L 197.71366 -46 
L 198.199803 -46 
L 198.685945 -46 
L 199.172088 -46 
L 199.658231 -46 
L 200.144374 -46 
L 200.630517 -46 
L 201.11666 -46 
L 201.602803 -46 
L 202.088946 -46 
L 202.575089 -46 
L 203.061231 -46 
L 203.547374 -46 
L 204.033517 -46 
L 204.51966 -46 
L 205.005803 -46 
L 205.491946 -46 
L 205.978089 -46 
L 206.464232 -46 
L 206.950375 -46 
L 207.436517 -46 
L 207.92266 -46 
L 208.408803 -46 
L 208.894946 -46 
L 209.381089 -46 
L 209.867232 -46 
L 210.353375 -46 
L 210.839518 -46 
L 210.839518 -46.024192 
L 210.839518 -46.024192 
L 210.353375 -46.0325 
L 209.867232 -46.043322 
L 209.381089 -46.057298 
L 208.894946 -46.075195 
L 208.408803 -46.097919 
L 207.92266 -46.126526 
L 207.436517 -46.162232 
L 206.950375 -46.206416 
L 206.464232 -46.260622 
L 205.978089 -46.326549 
L 205.491946 -46.406037 
L 205.005803 -46.501041 
L 204.51966 -46.613595 
L 204.033517 -46.745768 
L 203.547374 -46.899605 
L 203.061231 -47.077062 
L 202.575089 -47.279927 
L 202.088946 -47.509742 
L 201.602803 -47.767717 
L 201.11666 -48.054643 
L 200.630517 -48.370813 
L 200.144374 -48.715955 
L 199.658231 -49.089175 
L 199.172088 -49.488922 
L 198.685945 -49.912981 
L 198.199803 -50.358486 
L 197.71366 -50.821972 
L 197.227517 -51.299453 
L 196.741374 -51.78653 
L 196.255231 -52.27853 
L 195.769088 -52.770661 
L 195.282945 -53.258189 
L 194.796802 -53.736615 
L 194.310659 -54.201861 
L 193.824516 -54.650437 
L 193.338374 -55.07959 
L 192.852231 -55.487425 
L 192.366088 -55.872997 
L 191.879945 -56.236355 
L 191.393802 -56.578548 
L 190.907659 -56.901595 
L 190.421516 -57.208406 
L 189.935373 -57.502675 
L 189.44923 -57.78875 
L 188.963088 -58.071475 
L 188.476945 -58.35603 
L 187.990802 -58.647756 
L 187.504659 -58.952004 
L 187.018516 -59.273968 
L 186.532373 -59.618554 
L 186.04623 -59.99025 
L 185.560087 -60.393013 
L 185.073944 -60.830166 
L 184.587802 -61.304309 
L 184.101659 -61.817229 
L 183.615516 -62.369822 
L 183.129373 -62.962008 
L 182.64323 -63.592664 
L 182.157087 -64.259555 
L 181.670944 -64.959288 
L 181.184801 -65.687292 
L 180.698658 -66.437833 
L 180.212516 -67.204069 
L 179.726373 -67.978175 
L 179.24023 -68.751514 
L 178.754087 -69.514889 
L 178.267944 -70.258847 
L 177.781801 -70.974048 
L 177.295658 -71.651676 
L 176.809515 -72.28387 
L 176.323372 -72.864165 
L 175.837229 -73.387907 
L 175.351087 -73.852625 
L 174.864944 -74.258322 
L 174.378801 -74.607679 
L 173.892658 -74.906148 
L 173.406515 -75.161924 
L 172.920372 -75.3858 
L 172.434229 -75.5909 
L 171.948086 -75.792317 
L 171.461943 -76.006657 
L 170.975801 -76.251528 
L 170.489658 -76.544992 
L 170.003515 -76.904994 
L 169.517372 -77.348809 
L 169.031229 -77.892517 
L 168.545086 -78.550516 
L 168.058943 -79.335095 
L 167.5728 -80.256066 
L 167.086657 -81.320452 
L 166.600515 -82.532246 
L 166.114372 -83.892231 
L 165.628229 -85.397855 
L 165.142086 -87.043178 
L 164.655943 -88.818884 
L 164.1698 -90.712366 
L 163.683657 -92.707904 
L 163.197514 -94.786928 
L 162.711371 -96.928389 
L 162.225228 -99.109242 
L 161.739086 -101.305035 
L 161.252943 -103.4906 
L 160.7668 -105.640837 
L 160.280657 -107.731556 
L 159.794514 -109.740343 
L 159.308371 -111.647419 
L 158.822228 -113.436428 
L 158.336085 -115.09512 
L 157.849942 -116.615863 
L 157.3638 -117.995963 
L 156.877657 -119.237736 
L 156.391514 -120.348343 
L 155.905371 -121.339355 
L 155.419228 -122.226083 
L 154.933085 -123.026714 
L 154.446942 -123.761274 
L 153.960799 -124.450514 
L 153.474656 -125.114774 
L 152.988514 -125.772896 
L 152.502371 -126.441272 
L 152.016228 -127.13309 
L 151.530085 -127.857815 
L 151.043942 -128.620958 
L 150.557799 -129.424135 
L 150.071656 -130.265409 
L 149.585513 -131.139888 
L 149.09937 -132.04052 
L 148.613227 -132.959037 
L 148.127085 -133.886957 
L 147.640942 -134.816566 
L 147.154799 -135.741816 
L 146.668656 -136.659046 
L 146.182513 -137.56748 
L 145.69637 -138.469463 
L 145.210227 -139.370394 
L 144.724084 -140.278377 
L 144.237941 -141.203585 
L 143.751799 -142.157385 
L 143.265656 -143.151276 
L 142.779513 -144.195694 
L 142.29337 -145.298774 
L 141.807227 -146.465122 
L 141.321084 -147.694692 
L 140.834941 -148.98183 
L 140.348798 -150.314548 
L 139.862655 -151.674084 
L 139.376513 -153.03478 
L 138.89037 -154.364311 
L 138.404227 -155.624261 
L 137.918084 -156.771049 
L 137.431941 -157.757163 
L 136.945798 -158.532674 
L 136.459655 -159.046961 
L 135.973512 -159.250579 
L 135.487369 -159.097197 
L 135.001226 -158.545504 
L 134.515084 -157.561006 
L 134.028941 -156.117623 
L 133.542798 -154.199002 
L 133.056655 -151.79948 
L 132.570512 -148.924652 
L 132.084369 -145.591491 
L 131.598226 -141.828036 
L 131.112083 -137.672635 
L 130.62594 -133.172794 
L 130.139798 -128.383678 
L 129.653655 -123.366344 
L 129.167512 -118.185782 
L 128.681369 -112.908868 
L 128.195226 -107.602317 
L 127.709083 -102.330729 
L 127.22294 -97.154813 
L 126.736797 -92.129857 
L 126.250654 -87.304491 
L 125.764512 -82.719792 
L 125.278369 -78.408719 
L 124.792226 -74.395905 
L 124.306083 -70.697753 
L 123.81994 -67.322826 
L 123.333797 -64.272467 
L 122.847654 -61.541606 
L 122.361511 -59.119686 
L 121.875368 -56.991672 
L 121.389225 -55.139068 
L 120.903083 -53.540915 
L 120.41694 -52.17472 
L 119.930797 -51.017293 
L 119.444654 -50.045474 
L 118.958511 -49.23673 
L 118.472368 -48.569631 
L 117.986225 -48.024196 
L 117.500082 -47.582134 
L 117.013939 -47.226971 
L 116.527797 -46.9441 
L 116.041654 -46.720752 
L 115.555511 -46.545922 
L 115.069368 -46.410248 
L 114.583225 -46.305862 
L 114.097082 -46.226235 
z
" style="stroke: #b3de69; stroke-width: 0.8"/>
    </defs>
    <g clip-path="url(#p8d26c65fe0)">
     <use xlink:href="#md4ef85289b" x="0" y="349.155" style="fill: #b3de69; fill-opacity: 0.25; stroke: #b3de69; stroke-width: 0.8"/>
    </g>
   </g>
   <g id="PolyCollection_4">
    <defs>
     <path id="m0279c90b8b" d="M 111.884107 -46.167542 
L 111.884107 -46 
L 112.556434 -46 
L 113.22876 -46 
L 113.901086 -46 
L 114.573413 -46 
L 115.245739 -46 
L 115.918065 -46 
L 116.590391 -46 
L 117.262718 -46 
L 117.935044 -46 
L 118.60737 -46 
L 119.279697 -46 
L 119.952023 -46 
L 120.624349 -46 
L 121.296676 -46 
L 121.969002 -46 
L 122.641328 -46 
L 123.313654 -46 
L 123.985981 -46 
L 124.658307 -46 
L 125.330633 -46 
L 126.00296 -46 
L 126.675286 -46 
L 127.347612 -46 
L 128.019938 -46 
L 128.692265 -46 
L 129.364591 -46 
L 130.036917 -46 
L 130.709244 -46 
L 131.38157 -46 
L 132.053896 -46 
L 132.726222 -46 
L 133.398549 -46 
L 134.070875 -46 
L 134.743201 -46 
L 135.415528 -46 
L 136.087854 -46 
L 136.76018 -46 
L 137.432507 -46 
L 138.104833 -46 
L 138.777159 -46 
L 139.449485 -46 
L 140.121812 -46 
L 140.794138 -46 
L 141.466464 -46 
L 142.138791 -46 
L 142.811117 -46 
L 143.483443 -46 
L 144.155769 -46 
L 144.828096 -46 
L 145.500422 -46 
L 146.172748 -46 
L 146.845075 -46 
L 147.517401 -46 
L 148.189727 -46 
L 148.862053 -46 
L 149.53438 -46 
L 150.206706 -46 
L 150.879032 -46 
L 151.551359 -46 
L 152.223685 -46 
L 152.896011 -46 
L 153.568338 -46 
L 154.240664 -46 
L 154.91299 -46 
L 155.585316 -46 
L 156.257643 -46 
L 156.929969 -46 
L 157.602295 -46 
L 158.274622 -46 
L 158.946948 -46 
L 159.619274 -46 
L 160.2916 -46 
L 160.963927 -46 
L 161.636253 -46 
L 162.308579 -46 
L 162.980906 -46 
L 163.653232 -46 
L 164.325558 -46 
L 164.997884 -46 
L 165.670211 -46 
L 166.342537 -46 
L 167.014863 -46 
L 167.68719 -46 
L 168.359516 -46 
L 169.031842 -46 
L 169.704169 -46 
L 170.376495 -46 
L 171.048821 -46 
L 171.721147 -46 
L 172.393474 -46 
L 173.0658 -46 
L 173.738126 -46 
L 174.410453 -46 
L 175.082779 -46 
L 175.755105 -46 
L 176.427431 -46 
L 177.099758 -46 
L 177.772084 -46 
L 178.44441 -46 
L 179.116737 -46 
L 179.789063 -46 
L 180.461389 -46 
L 181.133716 -46 
L 181.806042 -46 
L 182.478368 -46 
L 183.150694 -46 
L 183.823021 -46 
L 184.495347 -46 
L 185.167673 -46 
L 185.84 -46 
L 186.512326 -46 
L 187.184652 -46 
L 187.856978 -46 
L 188.529305 -46 
L 189.201631 -46 
L 189.873957 -46 
L 190.546284 -46 
L 191.21861 -46 
L 191.890936 -46 
L 192.563262 -46 
L 193.235589 -46 
L 193.907915 -46 
L 194.580241 -46 
L 195.252568 -46 
L 195.924894 -46 
L 196.59722 -46 
L 197.269547 -46 
L 197.941873 -46 
L 198.614199 -46 
L 199.286525 -46 
L 199.958852 -46 
L 200.631178 -46 
L 201.303504 -46 
L 201.975831 -46 
L 202.648157 -46 
L 203.320483 -46 
L 203.992809 -46 
L 204.665136 -46 
L 205.337462 -46 
L 206.009788 -46 
L 206.682115 -46 
L 207.354441 -46 
L 208.026767 -46 
L 208.699093 -46 
L 209.37142 -46 
L 210.043746 -46 
L 210.716072 -46 
L 211.388399 -46 
L 212.060725 -46 
L 212.733051 -46 
L 213.405378 -46 
L 214.077704 -46 
L 214.75003 -46 
L 215.422356 -46 
L 216.094683 -46 
L 216.767009 -46 
L 217.439335 -46 
L 218.111662 -46 
L 218.783988 -46 
L 219.456314 -46 
L 220.12864 -46 
L 220.800967 -46 
L 221.473293 -46 
L 222.145619 -46 
L 222.817946 -46 
L 223.490272 -46 
L 224.162598 -46 
L 224.834924 -46 
L 225.507251 -46 
L 226.179577 -46 
L 226.851903 -46 
L 227.52423 -46 
L 228.196556 -46 
L 228.868882 -46 
L 229.541209 -46 
L 230.213535 -46 
L 230.885861 -46 
L 231.558187 -46 
L 232.230514 -46 
L 232.90284 -46 
L 233.575166 -46 
L 234.247493 -46 
L 234.919819 -46 
L 235.592145 -46 
L 236.264471 -46 
L 236.936798 -46 
L 237.609124 -46 
L 238.28145 -46 
L 238.953777 -46 
L 239.626103 -46 
L 240.298429 -46 
L 240.970756 -46 
L 241.643082 -46 
L 242.315408 -46 
L 242.987734 -46 
L 243.660061 -46 
L 244.332387 -46 
L 245.004713 -46 
L 245.67704 -46 
L 245.67704 -46.012408 
L 245.67704 -46.012408 
L 245.004713 -46.017181 
L 244.332387 -46.023505 
L 243.660061 -46.031775 
L 242.987734 -46.042448 
L 242.315408 -46.056034 
L 241.643082 -46.073099 
L 240.970756 -46.094244 
L 240.298429 -46.120087 
L 239.626103 -46.151241 
L 238.953777 -46.188281 
L 238.28145 -46.231707 
L 237.609124 -46.281911 
L 236.936798 -46.339133 
L 236.264471 -46.403429 
L 235.592145 -46.474639 
L 234.919819 -46.552368 
L 234.247493 -46.635972 
L 233.575166 -46.724566 
L 232.90284 -46.81704 
L 232.230514 -46.912094 
L 231.558187 -47.008279 
L 230.885861 -47.104055 
L 230.213535 -47.19785 
L 229.541209 -47.288117 
L 228.868882 -47.373394 
L 228.196556 -47.452351 
L 227.52423 -47.523824 
L 226.851903 -47.586836 
L 226.179577 -47.640611 
L 225.507251 -47.684572 
L 224.834924 -47.718327 
L 224.162598 -47.741661 
L 223.490272 -47.754525 
L 222.817946 -47.757027 
L 222.145619 -47.749445 
L 221.473293 -47.732232 
L 220.800967 -47.706055 
L 220.12864 -47.671819 
L 219.456314 -47.630722 
L 218.783988 -47.584284 
L 218.111662 -47.534396 
L 217.439335 -47.48334 
L 216.767009 -47.433805 
L 216.094683 -47.388887 
L 215.422356 -47.352062 
L 214.75003 -47.327153 
L 214.077704 -47.31828 
L 213.405378 -47.32979 
L 212.733051 -47.366197 
L 212.060725 -47.432106 
L 211.388399 -47.532143 
L 210.716072 -47.670884 
L 210.043746 -47.852787 
L 209.37142 -48.082119 
L 208.699093 -48.362875 
L 208.026767 -48.698677 
L 207.354441 -49.092663 
L 206.682115 -49.547328 
L 206.009788 -50.064347 
L 205.337462 -50.644354 
L 204.665136 -51.28669 
L 203.992809 -51.989136 
L 203.320483 -52.747637 
L 202.648157 -53.556055 
L 201.975831 -54.405965 
L 201.303504 -55.286546 
L 200.631178 -56.184586 
L 199.958852 -57.084634 
L 199.286525 -57.969339 
L 198.614199 -58.819959 
L 197.941873 -59.617066 
L 197.269547 -60.341413 
L 196.59722 -60.974929 
L 195.924894 -61.501795 
L 195.252568 -61.909527 
L 194.580241 -62.189999 
L 193.907915 -62.340321 
L 193.235589 -62.363511 
L 192.563262 -62.268884 
L 191.890936 -62.072113 
L 191.21861 -61.794953 
L 190.546284 -61.464598 
L 189.873957 -61.112709 
L 189.201631 -60.774161 
L 188.529305 -60.485553 
L 187.856978 -60.283581 
L 187.184652 -60.203351 
L 186.512326 -60.276735 
L 185.84 -60.530849 
L 185.167673 -60.986764 
L 184.495347 -61.658506 
L 183.823021 -62.552419 
L 183.150694 -63.666931 
L 182.478368 -64.992749 
L 181.806042 -66.513478 
L 181.133716 -68.206641 
L 180.461389 -70.045044 
L 179.789063 -71.998406 
L 179.116737 -74.035166 
L 178.44441 -76.124337 
L 177.772084 -78.237289 
L 177.099758 -80.34934 
L 176.427431 -82.441027 
L 175.755105 -84.498977 
L 175.082779 -86.516294 
L 174.410453 -88.492447 
L 173.738126 -90.432665 
L 173.0658 -92.346877 
L 172.393474 -94.248297 
L 171.721147 -96.151762 
L 171.048821 -98.071955 
L 170.376495 -100.021638 
L 169.704169 -102.010049 
L 169.031842 -104.041556 
L 168.359516 -106.114658 
L 167.68719 -108.221403 
L 167.014863 -110.347241 
L 166.342537 -112.471304 
L 165.670211 -114.567106 
L 164.997884 -116.603597 
L 164.325558 -118.546523 
L 163.653232 -120.360021 
L 162.980906 -122.008369 
L 162.308579 -123.457822 
L 161.636253 -124.678436 
L 160.963927 -125.645806 
L 160.2916 -126.342618 
L 159.619274 -126.759934 
L 158.946948 -126.898113 
L 158.274622 -126.767314 
L 157.602295 -126.387506 
L 156.929969 -125.787984 
L 156.257643 -125.006381 
L 155.585316 -124.087241 
L 154.91299 -123.080233 
L 154.240664 -122.038124 
L 153.568338 -121.01467 
L 152.896011 -120.062548 
L 152.223685 -119.231493 
L 151.551359 -118.566742 
L 150.879032 -118.107862 
L 150.206706 -117.887988 
L 149.53438 -117.933443 
L 148.862053 -118.263662 
L 148.189727 -118.891313 
L 147.517401 -119.822493 
L 146.845075 -121.056845 
L 146.172748 -122.587528 
L 145.500422 -124.400932 
L 144.828096 -126.476169 
L 144.155769 -128.784347 
L 143.483443 -131.28776 
L 142.811117 -133.939144 
L 142.138791 -136.68116 
L 141.466464 -139.446326 
L 140.794138 -142.157545 
L 140.121812 -144.729374 
L 139.449485 -147.070096 
L 138.777159 -149.084588 
L 138.104833 -150.677894 
L 137.432507 -151.759318 
L 136.76018 -152.246809 
L 136.087854 -152.071318 
L 135.415528 -151.180826 
L 134.743201 -149.543717 
L 134.070875 -147.151213 
L 133.398549 -144.018663 
L 132.726222 -140.185536 
L 132.053896 -135.714103 
L 131.38157 -130.686857 
L 130.709244 -125.202853 
L 130.036917 -119.373209 
L 129.364591 -113.316079 
L 128.692265 -107.151431 
L 128.019938 -100.99599 
L 127.347612 -94.958629 
L 126.675286 -89.1365 
L 126.00296 -83.612065 
L 125.330633 -78.451163 
L 124.658307 -73.702101 
L 123.985981 -69.395751 
L 123.313654 -65.546501 
L 122.641328 -62.153917 
L 121.969002 -59.204903 
L 121.296676 -56.676169 
L 120.624349 -54.536797 
L 119.952023 -52.750754 
L 119.279697 -51.279196 
L 118.60737 -50.082473 
L 117.935044 -49.12178 
L 117.262718 -48.360422 
L 116.590391 -47.764701 
L 115.918065 -47.304471 
L 115.245739 -46.953382 
L 114.573413 -46.688904 
L 113.901086 -46.492151 
L 113.22876 -46.347599 
L 112.556434 -46.242711 
L 111.884107 -46.167542 
z
" style="stroke: #fb8072; stroke-width: 0.8"/>
    </defs>
    <g clip-path="url(#p8d26c65fe0)">
     <use xlink:href="#m0279c90b8b" x="0" y="349.155" style="fill: #fb8072; fill-opacity: 0.25; stroke: #fb8072; stroke-width: 0.8"/>
    </g>
   </g>
   <g id="PolyCollection_5">
    <defs>
     <path id="m021939799c" d="M 117.04228 -46.306028 
L 117.04228 -46 
L 117.572861 -46 
L 118.103443 -46 
L 118.634024 -46 
L 119.164605 -46 
L 119.695187 -46 
L 120.225768 -46 
L 120.75635 -46 
L 121.286931 -46 
L 121.817513 -46 
L 122.348094 -46 
L 122.878676 -46 
L 123.409257 -46 
L 123.939838 -46 
L 124.47042 -46 
L 125.001001 -46 
L 125.531583 -46 
L 126.062164 -46 
L 126.592746 -46 
L 127.123327 -46 
L 127.653909 -46 
L 128.18449 -46 
L 128.715071 -46 
L 129.245653 -46 
L 129.776234 -46 
L 130.306816 -46 
L 130.837397 -46 
L 131.367979 -46 
L 131.89856 -46 
L 132.429141 -46 
L 132.959723 -46 
L 133.490304 -46 
L 134.020886 -46 
L 134.551467 -46 
L 135.082049 -46 
L 135.61263 -46 
L 136.143212 -46 
L 136.673793 -46 
L 137.204374 -46 
L 137.734956 -46 
L 138.265537 -46 
L 138.796119 -46 
L 139.3267 -46 
L 139.857282 -46 
L 140.387863 -46 
L 140.918445 -46 
L 141.449026 -46 
L 141.979607 -46 
L 142.510189 -46 
L 143.04077 -46 
L 143.571352 -46 
L 144.101933 -46 
L 144.632515 -46 
L 145.163096 -46 
L 145.693678 -46 
L 146.224259 -46 
L 146.75484 -46 
L 147.285422 -46 
L 147.816003 -46 
L 148.346585 -46 
L 148.877166 -46 
L 149.407748 -46 
L 149.938329 -46 
L 150.468911 -46 
L 150.999492 -46 
L 151.530073 -46 
L 152.060655 -46 
L 152.591236 -46 
L 153.121818 -46 
L 153.652399 -46 
L 154.182981 -46 
L 154.713562 -46 
L 155.244143 -46 
L 155.774725 -46 
L 156.305306 -46 
L 156.835888 -46 
L 157.366469 -46 
L 157.897051 -46 
L 158.427632 -46 
L 158.958214 -46 
L 159.488795 -46 
L 160.019376 -46 
L 160.549958 -46 
L 161.080539 -46 
L 161.611121 -46 
L 162.141702 -46 
L 162.672284 -46 
L 163.202865 -46 
L 163.733447 -46 
L 164.264028 -46 
L 164.794609 -46 
L 165.325191 -46 
L 165.855772 -46 
L 166.386354 -46 
L 166.916935 -46 
L 167.447517 -46 
L 167.978098 -46 
L 168.50868 -46 
L 169.039261 -46 
L 169.569842 -46 
L 170.100424 -46 
L 170.631005 -46 
L 171.161587 -46 
L 171.692168 -46 
L 172.22275 -46 
L 172.753331 -46 
L 173.283913 -46 
L 173.814494 -46 
L 174.345075 -46 
L 174.875657 -46 
L 175.406238 -46 
L 175.93682 -46 
L 176.467401 -46 
L 176.997983 -46 
L 177.528564 -46 
L 178.059145 -46 
L 178.589727 -46 
L 179.120308 -46 
L 179.65089 -46 
L 180.181471 -46 
L 180.712053 -46 
L 181.242634 -46 
L 181.773216 -46 
L 182.303797 -46 
L 182.834378 -46 
L 183.36496 -46 
L 183.895541 -46 
L 184.426123 -46 
L 184.956704 -46 
L 185.487286 -46 
L 186.017867 -46 
L 186.548449 -46 
L 187.07903 -46 
L 187.609611 -46 
L 188.140193 -46 
L 188.670774 -46 
L 189.201356 -46 
L 189.731937 -46 
L 190.262519 -46 
L 190.7931 -46 
L 191.323682 -46 
L 191.854263 -46 
L 192.384844 -46 
L 192.915426 -46 
L 193.446007 -46 
L 193.976589 -46 
L 194.50717 -46 
L 195.037752 -46 
L 195.568333 -46 
L 196.098915 -46 
L 196.629496 -46 
L 197.160077 -46 
L 197.690659 -46 
L 198.22124 -46 
L 198.751822 -46 
L 199.282403 -46 
L 199.812985 -46 
L 200.343566 -46 
L 200.874148 -46 
L 201.404729 -46 
L 201.93531 -46 
L 202.465892 -46 
L 202.996473 -46 
L 203.527055 -46 
L 204.057636 -46 
L 204.588218 -46 
L 205.118799 -46 
L 205.64938 -46 
L 206.179962 -46 
L 206.710543 -46 
L 207.241125 -46 
L 207.771706 -46 
L 208.302288 -46 
L 208.832869 -46 
L 209.363451 -46 
L 209.894032 -46 
L 210.424613 -46 
L 210.955195 -46 
L 211.485776 -46 
L 212.016358 -46 
L 212.546939 -46 
L 213.077521 -46 
L 213.608102 -46 
L 214.138684 -46 
L 214.669265 -46 
L 215.199846 -46 
L 215.730428 -46 
L 216.261009 -46 
L 216.791591 -46 
L 217.322172 -46 
L 217.852754 -46 
L 218.383335 -46 
L 218.913917 -46 
L 219.444498 -46 
L 219.975079 -46 
L 220.505661 -46 
L 221.036242 -46 
L 221.566824 -46 
L 222.097405 -46 
L 222.627987 -46 
L 222.627987 -46.017209 
L 222.627987 -46.017209 
L 222.097405 -46.024573 
L 221.566824 -46.034582 
L 221.036242 -46.047968 
L 220.505661 -46.065576 
L 219.975079 -46.088362 
L 219.444498 -46.117362 
L 218.913917 -46.153655 
L 218.383335 -46.198313 
L 217.852754 -46.252333 
L 217.322172 -46.316557 
L 216.791591 -46.391592 
L 216.261009 -46.477721 
L 215.730428 -46.574835 
L 215.199846 -46.682372 
L 214.669265 -46.7993 
L 214.138684 -46.92412 
L 213.608102 -47.054925 
L 213.077521 -47.189494 
L 212.546939 -47.325429 
L 212.016358 -47.460321 
L 211.485776 -47.591934 
L 210.955195 -47.718389 
L 210.424613 -47.838337 
L 209.894032 -47.951085 
L 209.363451 -48.056692 
L 208.832869 -48.156 
L 208.302288 -48.250607 
L 207.771706 -48.342798 
L 207.241125 -48.435424 
L 206.710543 -48.531763 
L 206.179962 -48.635364 
L 205.64938 -48.749901 
L 205.118799 -48.879033 
L 204.588218 -49.02629 
L 204.057636 -49.194971 
L 203.527055 -49.388047 
L 202.996473 -49.608069 
L 202.465892 -49.857055 
L 201.93531 -50.136349 
L 201.404729 -50.446462 
L 200.874148 -50.786873 
L 200.343566 -51.155831 
L 199.812985 -51.550163 
L 199.282403 -51.965124 
L 198.751822 -52.394322 
L 198.22124 -52.829752 
L 197.690659 -53.261958 
L 197.160077 -53.680348 
L 196.629496 -54.07365 
L 196.098915 -54.430506 
L 195.568333 -54.740163 
L 195.037752 -54.993206 
L 194.50717 -55.182302 
L 193.976589 -55.302861 
L 193.446007 -55.353577 
L 192.915426 -55.336797 
L 192.384844 -55.25866 
L 191.854263 -55.129016 
L 191.323682 -54.9611 
L 190.7931 -54.770986 
L 190.262519 -54.576855 
L 189.731937 -54.398118 
L 189.201356 -54.254448 
L 188.670774 -54.164772 
L 188.140193 -54.146287 
L 187.609611 -54.213536 
L 187.07903 -54.377616 
L 186.548449 -54.645526 
L 186.017867 -55.019717 
L 185.487286 -55.497859 
L 184.956704 -56.072842 
L 184.426123 -56.733014 
L 183.895541 -57.462669 
L 183.36496 -58.242758 
L 182.834378 -59.051788 
L 182.303797 -59.866886 
L 181.773216 -60.664971 
L 181.242634 -61.423966 
L 180.712053 -62.124018 
L 180.181471 -62.748637 
L 179.65089 -63.285732 
L 179.120308 -63.728482 
L 178.589727 -64.076022 
L 178.059145 -64.333916 
L 177.528564 -64.514399 
L 176.997983 -64.636388 
L 176.467401 -64.725237 
L 175.93682 -64.81225 
L 175.406238 -64.933926 
L 174.875657 -65.130952 
L 174.345075 -65.44695 
L 173.814494 -65.926989 
L 173.283913 -66.615927 
L 172.753331 -67.556632 
L 172.22275 -68.788174 
L 171.692168 -70.3441 
L 171.161587 -72.250903 
L 170.631005 -74.526798 
L 170.100424 -77.180884 
L 169.569842 -80.21277 
L 169.039261 -83.612652 
L 168.50868 -87.361798 
L 167.978098 -91.433346 
L 167.447517 -95.793267 
L 166.916935 -100.401334 
L 166.386354 -105.211932 
L 165.855772 -110.174591 
L 165.325191 -115.234193 
L 164.794609 -120.330872 
L 164.264028 -125.39974 
L 163.733447 -130.370651 
L 163.202865 -135.168273 
L 162.672284 -139.712765 
L 162.141702 -143.921319 
L 161.611121 -147.710736 
L 161.080539 -151.001082 
L 160.549958 -153.720291 
L 160.019376 -155.809415 
L 159.488795 -157.228061 
L 158.958214 -157.95944 
L 158.427632 -158.01441 
L 157.897051 -157.433951 
L 157.366469 -156.289595 
L 156.835888 -154.68156 
L 156.305306 -152.734561 
L 155.774725 -150.59153 
L 155.244143 -148.405736 
L 154.713562 -146.331966 
L 154.182981 -144.517576 
L 153.652399 -143.094226 
L 153.121818 -142.17107 
L 152.591236 -141.829992 
L 152.060655 -142.123275 
L 151.530073 -143.073817 
L 150.999492 -144.677746 
L 150.468911 -146.909018 
L 149.938329 -149.725399 
L 149.407748 -153.075119 
L 148.877166 -156.903426 
L 148.346585 -161.158352 
L 147.816003 -165.795129 
L 147.285422 -170.778891 
L 146.75484 -176.085533 
L 146.224259 -181.700838 
L 145.693678 -187.61817 
L 145.163096 -193.835178 
L 144.632515 -200.350033 
L 144.101933 -207.157666 
L 143.571352 -214.246403 
L 143.04077 -221.595228 
L 142.510189 -229.171724 
L 141.979607 -236.930606 
L 141.449026 -244.812618 
L 140.918445 -252.743566 
L 140.387863 -260.633306 
L 139.857282 -268.374608 
L 139.3267 -275.842063 
L 138.796119 -282.891331 
L 138.265537 -289.359231 
L 137.734956 -295.065247 
L 137.204374 -299.81497 
L 136.673793 -303.405896 
L 136.143212 -305.635663 
L 135.61263 -306.312534 
L 135.082049 -305.267501 
L 134.551467 -302.367087 
L 134.020886 -297.525633 
L 133.490304 -290.715793 
L 132.959723 -281.97598 
L 132.429141 -271.413774 
L 131.89856 -259.20465 
L 131.367979 -245.585886 
L 130.837397 -230.845985 
L 130.306816 -215.310448 
L 129.776234 -199.325084 
L 129.245653 -183.238282 
L 128.715071 -167.38372 
L 128.18449 -152.064892 
L 127.653909 -137.542568 
L 127.123327 -124.025947 
L 126.592746 -111.66785 
L 126.062164 -100.563926 
L 125.531583 -90.75544 
L 125.001001 -82.234977 
L 124.47042 -74.954238 
L 123.939838 -68.833005 
L 123.409257 -63.768463 
L 122.878676 -59.644111 
L 122.348094 -56.337731 
L 121.817513 -53.728027 
L 121.286931 -51.699764 
L 120.75635 -50.147377 
L 120.225768 -48.977173 
L 119.695187 -48.108316 
L 119.164605 -47.472846 
L 118.634024 -47.014983 
L 118.103443 -46.689972 
L 117.572861 -46.462667 
L 117.04228 -46.306028 
z
" style="stroke: #bc80bd; stroke-width: 0.8"/>
    </defs>
    <g clip-path="url(#p8d26c65fe0)">
     <use xlink:href="#m021939799c" x="0" y="349.155" style="fill: #bc80bd; fill-opacity: 0.25; stroke: #bc80bd; stroke-width: 0.8"/>
    </g>
   </g>
   <g id="matplotlib.axis_1">
    <g id="xtick_1">
     <g id="line2d_1">
      <defs>
       <path id="m0d426e651d" d="M 0 0 
L 0 3.5 
" style="stroke: #323034; stroke-width: 0.8"/>
      </defs>
      <g>
       <use xlink:href="#m0d426e651d" x="51.615" y="303.155" style="fill: #323034; stroke: #323034; stroke-width: 0.8"/>
      </g>
     </g>
     <g id="text_1">
      <!-- $\mathdefault{−2}$ -->
      <g style="fill: #323034" transform="translate(42.095 321.0825) scale(0.16 -0.16)">
       <defs>
        <path id="STIXGeneral-Regular-2212" d="M 3974 1408 
L 410 1408 
L 410 1830 
L 3974 1830 
L 3974 1408 
z
" transform="scale(0.015625)"/>
        <path id="STIXGeneral-Regular-32" d="M 3034 877 
L 2688 0 
L 186 0 
L 186 77 
L 1325 1286 
Q 1773 1754 1965 2144 
Q 2157 2534 2157 2950 
Q 2157 3379 1920 3616 
Q 1683 3853 1267 3853 
Q 922 3853 720 3673 
Q 518 3494 326 3021 
L 192 3053 
Q 301 3648 630 3987 
Q 960 4326 1523 4326 
Q 2054 4326 2380 4006 
Q 2707 3686 2707 3200 
Q 2707 2477 1888 1613 
L 832 486 
L 2330 486 
Q 2541 486 2665 569 
Q 2790 653 2944 915 
L 3034 877 
z
" transform="scale(0.015625)"/>
       </defs>
       <use xlink:href="#STIXGeneral-Regular-2212" transform="translate(0 0.40625)"/>
       <use xlink:href="#STIXGeneral-Regular-32" transform="translate(68.499985 0.40625)"/>
      </g>
     </g>
    </g>
    <g id="xtick_2">
     <g id="line2d_2">
      <g>
       <use xlink:href="#m0d426e651d" x="121.775316" y="303.155" style="fill: #323034; stroke: #323034; stroke-width: 0.8"/>
      </g>
     </g>
     <g id="text_2">
      <!-- $\mathdefault{0}$ -->
      <g style="fill: #323034" transform="translate(117.775316 321.0825) scale(0.16 -0.16)">
       <defs>
        <path id="STIXGeneral-Regular-30" d="M 3046 2112 
Q 3046 1683 2963 1302 
Q 2880 922 2717 602 
Q 2554 282 2266 96 
Q 1978 -90 1600 -90 
Q 1210 -90 915 108 
Q 621 307 461 640 
Q 301 973 227 1350 
Q 154 1728 154 2150 
Q 154 2746 301 3222 
Q 448 3699 790 4012 
Q 1133 4326 1626 4326 
Q 2253 4326 2649 3712 
Q 3046 3098 3046 2112 
z
M 2432 2080 
Q 2432 3091 2217 3625 
Q 2003 4160 1587 4160 
Q 1190 4160 979 3622 
Q 768 3085 768 2106 
Q 768 1120 979 598 
Q 1190 77 1600 77 
Q 2003 77 2217 598 
Q 2432 1120 2432 2080 
z
" transform="scale(0.015625)"/>
       </defs>
       <use xlink:href="#STIXGeneral-Regular-30" transform="translate(0 0.40625)"/>
      </g>
     </g>
    </g>
    <g id="xtick_3">
     <g id="line2d_3">
      <g>
       <use xlink:href="#m0d426e651d" x="191.935633" y="303.155" style="fill: #323034; stroke: #323034; stroke-width: 0.8"/>
      </g>
     </g>
     <g id="text_3">
      <!-- $\mathdefault{2}$ -->
      <g style="fill: #323034" transform="translate(187.935633 321.0825) scale(0.16 -0.16)">
       <use xlink:href="#STIXGeneral-Regular-32" transform="translate(0 0.40625)"/>
      </g>
     </g>
    </g>
    <g id="xtick_4">
     <g id="line2d_4">
      <g>
       <use xlink:href="#m0d426e651d" x="262.095949" y="303.155" style="fill: #323034; stroke: #323034; stroke-width: 0.8"/>
      </g>
     </g>
     <g id="text_4">
      <!-- $\mathdefault{4}$ -->
      <g style="fill: #323034" transform="translate(258.095949 321.0825) scale(0.16 -0.16)">
       <defs>
        <path id="STIXGeneral-Regular-34" d="M 3027 1069 
L 2368 1069 
L 2368 0 
L 1869 0 
L 1869 1069 
L 77 1069 
L 77 1478 
L 2086 4326 
L 2368 4326 
L 2368 1478 
L 3027 1478 
L 3027 1069 
z
M 1869 1478 
L 1869 3674 
L 333 1478 
L 1869 1478 
z
" transform="scale(0.015625)"/>
       </defs>
       <use xlink:href="#STIXGeneral-Regular-34" transform="translate(0 0.40625)"/>
      </g>
     </g>
    </g>
    <g id="xtick_5">
     <g id="line2d_5">
      <g>
       <use xlink:href="#m0d426e651d" x="332.256266" y="303.155" style="fill: #323034; stroke: #323034; stroke-width: 0.8"/>
      </g>
     </g>
     <g id="text_5">
      <!-- $\mathdefault{6}$ -->
      <g style="fill: #323034" transform="translate(328.256266 321.0825) scale(0.16 -0.16)">
       <defs>
        <path id="STIXGeneral-Regular-36" d="M 2854 4378 
L 2867 4275 
Q 2112 4154 1606 3664 
Q 1101 3174 973 2451 
Q 1344 2739 1786 2739 
Q 2349 2739 2672 2380 
Q 2995 2022 2995 1402 
Q 2995 774 2669 378 
Q 2291 -90 1651 -90 
Q 870 -90 518 557 
Q 218 1107 218 1786 
Q 218 2835 915 3552 
Q 1312 3962 1731 4131 
Q 2150 4301 2854 4378 
z
M 2419 1203 
Q 2419 2445 1555 2445 
Q 1235 2445 1024 2275 
Q 813 2106 813 1702 
Q 813 954 1046 522 
Q 1280 90 1722 90 
Q 2061 90 2240 394 
Q 2419 698 2419 1203 
z
" transform="scale(0.015625)"/>
       </defs>
       <use xlink:href="#STIXGeneral-Regular-36" transform="translate(0 0.59375)"/>
      </g>
     </g>
    </g>
    <g id="text_6">
     <!-- carat -->
     <g transform="translate(176.390633 338.4825) scale(0.16 -0.16)">
      <defs>
       <path id="STIXGeneral-Regular-63" d="M 2547 998 
L 2637 941 
Q 2362 403 2112 205 
Q 1786 -64 1376 -64 
Q 845 -64 502 336 
Q 160 736 160 1357 
Q 160 2170 698 2618 
Q 1094 2944 1562 2944 
Q 1965 2944 2256 2749 
Q 2547 2554 2547 2285 
Q 2547 2176 2457 2096 
Q 2368 2016 2246 2016 
Q 2022 2016 1939 2310 
L 1901 2451 
Q 1850 2630 1773 2694 
Q 1696 2758 1523 2758 
Q 1133 2758 893 2451 
Q 653 2144 653 1645 
Q 653 1094 928 745 
Q 1203 397 1645 397 
Q 1920 397 2118 528 
Q 2317 659 2547 998 
z
" transform="scale(0.015625)"/>
       <path id="STIXGeneral-Regular-61" d="M 2829 422 
L 2829 243 
Q 2586 -64 2253 -64 
Q 1888 -64 1843 403 
L 1837 403 
Q 1427 -64 909 -64 
Q 608 -64 422 112 
Q 237 288 237 602 
Q 237 1050 685 1350 
Q 992 1555 1837 1869 
L 1837 2214 
Q 1837 2502 1699 2646 
Q 1562 2790 1338 2790 
Q 1146 2790 1018 2697 
Q 890 2605 890 2477 
Q 890 2419 909 2348 
Q 928 2278 928 2208 
Q 928 2112 841 2029 
Q 755 1946 634 1946 
Q 525 1946 441 2029 
Q 358 2112 358 2240 
Q 358 2547 685 2752 
Q 986 2944 1421 2944 
Q 1939 2944 2176 2656 
Q 2291 2522 2323 2384 
Q 2355 2246 2355 1946 
L 2355 723 
Q 2355 301 2554 301 
Q 2682 301 2829 422 
z
M 1837 813 
L 1837 1715 
Q 1248 1510 1018 1293 
Q 800 1094 800 800 
Q 800 557 921 432 
Q 1043 307 1242 307 
Q 1453 307 1613 410 
Q 1747 506 1792 589 
Q 1837 672 1837 813 
z
" transform="scale(0.015625)"/>
       <path id="STIXGeneral-Regular-72" d="M 1024 2931 
L 1024 2342 
Q 1267 2688 1430 2816 
Q 1594 2944 1792 2944 
Q 1958 2944 2051 2854 
Q 2144 2765 2144 2605 
Q 2144 2470 2077 2393 
Q 2010 2317 1894 2317 
Q 1773 2317 1638 2445 
Q 1536 2541 1472 2541 
Q 1338 2541 1181 2355 
Q 1024 2170 1024 2016 
L 1024 576 
Q 1024 301 1133 205 
Q 1242 109 1568 96 
L 1568 0 
L 32 0 
L 32 96 
Q 339 154 412 224 
Q 486 294 486 538 
L 486 2138 
Q 486 2349 438 2435 
Q 390 2522 269 2522 
Q 166 2522 45 2496 
L 45 2598 
Q 448 2726 992 2944 
L 1024 2931 
z
" transform="scale(0.015625)"/>
       <path id="STIXGeneral-Regular-74" d="M 1702 493 
L 1786 422 
Q 1478 -64 1011 -64 
Q 448 -64 448 749 
L 448 2675 
L 109 2675 
Q 83 2694 83 2720 
Q 83 2771 192 2842 
Q 435 2982 813 3526 
Q 826 3546 874 3606 
Q 922 3667 941 3706 
Q 986 3706 986 3622 
L 986 2880 
L 1632 2880 
L 1632 2675 
L 986 2675 
L 986 845 
Q 986 538 1062 403 
Q 1139 269 1318 269 
Q 1510 269 1702 493 
z
" transform="scale(0.015625)"/>
      </defs>
      <use xlink:href="#STIXGeneral-Regular-63"/>
      <use xlink:href="#STIXGeneral-Regular-61" x="44.399994"/>
      <use xlink:href="#STIXGeneral-Regular-72" x="88.799988"/>
      <use xlink:href="#STIXGeneral-Regular-61" x="122.099976"/>
      <use xlink:href="#STIXGeneral-Regular-74" x="166.499969"/>
     </g>
    </g>
   </g>
   <g id="matplotlib.axis_2">
    <g id="ytick_1">
     <g id="line2d_6">
      <defs>
       <path id="m2114bcc3a5" d="M 0 0 
L -3.5 0 
" style="stroke: #323034; stroke-width: 0.8"/>
      </defs>
      <g>
       <use xlink:href="#m2114bcc3a5" x="51.615" y="303.155" style="fill: #323034; stroke: #323034; stroke-width: 0.8"/>
      </g>
     </g>
     <g id="text_7">
      <!-- $\mathdefault{0.0}$ -->
      <g style="fill: #323034" transform="translate(24.615 308.61875) scale(0.16 -0.16)">
       <defs>
        <path id="STIXGeneral-Regular-2e" d="M 1158 275 
Q 1158 134 1052 32 
Q 947 -70 800 -70 
Q 653 -70 550 32 
Q 448 134 448 281 
Q 448 429 553 534 
Q 659 640 806 640 
Q 947 640 1052 531 
Q 1158 422 1158 275 
z
" transform="scale(0.015625)"/>
       </defs>
       <use xlink:href="#STIXGeneral-Regular-30" transform="translate(0 0.40625)"/>
       <use xlink:href="#STIXGeneral-Regular-2e" transform="translate(49.999985 0.40625)"/>
       <use xlink:href="#STIXGeneral-Regular-30" transform="translate(74.999969 0.40625)"/>
      </g>
     </g>
    </g>
    <g id="ytick_2">
     <g id="line2d_7">
      <g>
       <use xlink:href="#m2114bcc3a5" x="51.615" y="254.739792" style="fill: #323034; stroke: #323034; stroke-width: 0.8"/>
      </g>
     </g>
     <g id="text_8">
      <!-- $\mathdefault{0.1}$ -->
      <g style="fill: #323034" transform="translate(24.615 260.203542) scale(0.16 -0.16)">
       <defs>
        <path id="STIXGeneral-Regular-31" d="M 2522 0 
L 755 0 
L 755 96 
Q 1107 115 1235 227 
Q 1363 339 1363 608 
L 1363 3482 
Q 1363 3795 1171 3795 
Q 1082 3795 883 3718 
L 710 3654 
L 710 3744 
L 1856 4326 
L 1914 4307 
L 1914 486 
Q 1914 275 2042 185 
Q 2170 96 2522 96 
L 2522 0 
z
" transform="scale(0.015625)"/>
       </defs>
       <use xlink:href="#STIXGeneral-Regular-30" transform="translate(0 0.40625)"/>
       <use xlink:href="#STIXGeneral-Regular-2e" transform="translate(49.999985 0.40625)"/>
       <use xlink:href="#STIXGeneral-Regular-31" transform="translate(74.999969 0.40625)"/>
      </g>
     </g>
    </g>
    <g id="ytick_3">
     <g id="line2d_8">
      <g>
       <use xlink:href="#m2114bcc3a5" x="51.615" y="206.324583" style="fill: #323034; stroke: #323034; stroke-width: 0.8"/>
      </g>
     </g>
     <g id="text_9">
      <!-- $\mathdefault{0.2}$ -->
      <g style="fill: #323034" transform="translate(24.615 211.788333) scale(0.16 -0.16)">
       <use xlink:href="#STIXGeneral-Regular-30" transform="translate(0 0.40625)"/>
       <use xlink:href="#STIXGeneral-Regular-2e" transform="translate(49.999985 0.40625)"/>
       <use xlink:href="#STIXGeneral-Regular-32" transform="translate(74.999969 0.40625)"/>
      </g>
     </g>
    </g>
    <g id="ytick_4">
     <g id="line2d_9">
      <g>
       <use xlink:href="#m2114bcc3a5" x="51.615" y="157.909375" style="fill: #323034; stroke: #323034; stroke-width: 0.8"/>
      </g>
     </g>
     <g id="text_10">
      <!-- $\mathdefault{0.3}$ -->
      <g style="fill: #323034" transform="translate(24.615 163.373125) scale(0.16 -0.16)">
       <defs>
        <path id="STIXGeneral-Regular-33" d="M 390 3264 
L 288 3290 
Q 435 3770 748 4048 
Q 1062 4326 1542 4326 
Q 1990 4326 2265 4083 
Q 2541 3840 2541 3450 
Q 2541 2925 1946 2566 
Q 2298 2413 2477 2227 
Q 2758 1914 2758 1402 
Q 2758 890 2464 506 
Q 2246 211 1840 60 
Q 1434 -90 979 -90 
Q 262 -90 262 275 
Q 262 378 339 442 
Q 416 506 525 506 
Q 685 506 915 339 
Q 1197 141 1466 141 
Q 1818 141 2058 425 
Q 2298 710 2298 1120 
Q 2298 1856 1632 2048 
Q 1434 2112 979 2112 
L 979 2202 
Q 1338 2323 1517 2432 
Q 2035 2726 2035 3290 
Q 2035 3610 1852 3776 
Q 1670 3942 1344 3942 
Q 768 3942 390 3264 
z
" transform="scale(0.015625)"/>
       </defs>
       <use xlink:href="#STIXGeneral-Regular-30" transform="translate(0 0.40625)"/>
       <use xlink:href="#STIXGeneral-Regular-2e" transform="translate(49.999985 0.40625)"/>
       <use xlink:href="#STIXGeneral-Regular-33" transform="translate(74.999969 0.40625)"/>
      </g>
     </g>
    </g>
    <g id="ytick_5">
     <g id="line2d_10">
      <g>
       <use xlink:href="#m2114bcc3a5" x="51.615" y="109.494167" style="fill: #323034; stroke: #323034; stroke-width: 0.8"/>
      </g>
     </g>
     <g id="text_11">
      <!-- $\mathdefault{0.4}$ -->
      <g style="fill: #323034" transform="translate(24.615 114.957917) scale(0.16 -0.16)">
       <use xlink:href="#STIXGeneral-Regular-30" transform="translate(0 0.40625)"/>
       <use xlink:href="#STIXGeneral-Regular-2e" transform="translate(49.999985 0.40625)"/>
       <use xlink:href="#STIXGeneral-Regular-34" transform="translate(74.999969 0.40625)"/>
      </g>
     </g>
    </g>
    <g id="ytick_6">
     <g id="line2d_11">
      <g>
       <use xlink:href="#m2114bcc3a5" x="51.615" y="61.078958" style="fill: #323034; stroke: #323034; stroke-width: 0.8"/>
      </g>
     </g>
     <g id="text_12">
      <!-- $\mathdefault{0.5}$ -->
      <g style="fill: #323034" transform="translate(24.615 66.542708) scale(0.16 -0.16)">
       <defs>
        <path id="STIXGeneral-Regular-35" d="M 2803 4358 
L 2573 3814 
Q 2534 3731 2400 3731 
L 1158 3731 
L 902 3187 
Q 1606 3053 1920 2896 
Q 2234 2739 2502 2368 
Q 2726 2061 2726 1555 
Q 2726 1094 2576 780 
Q 2426 467 2099 224 
Q 1664 -90 1011 -90 
Q 646 -90 422 19 
Q 198 128 198 307 
Q 198 550 486 550 
Q 717 550 960 352 
Q 1210 147 1414 147 
Q 1747 147 2012 480 
Q 2278 813 2278 1229 
Q 2278 1843 1850 2189 
Q 1293 2637 486 2637 
Q 410 2637 410 2688 
L 416 2720 
L 1114 4237 
L 2438 4237 
Q 2547 4237 2608 4269 
Q 2669 4301 2746 4403 
L 2803 4358 
z
" transform="scale(0.015625)"/>
       </defs>
       <use xlink:href="#STIXGeneral-Regular-30" transform="translate(0 0.203125)"/>
       <use xlink:href="#STIXGeneral-Regular-2e" transform="translate(49.999985 0.203125)"/>
       <use xlink:href="#STIXGeneral-Regular-35" transform="translate(74.999969 0.203125)"/>
      </g>
     </g>
    </g>
    <g id="ytick_7">
     <g id="line2d_12">
      <g>
       <use xlink:href="#m2114bcc3a5" x="51.615" y="12.66375" style="fill: #323034; stroke: #323034; stroke-width: 0.8"/>
      </g>
     </g>
     <g id="text_13">
      <!-- $\mathdefault{0.6}$ -->
      <g style="fill: #323034" transform="translate(24.615 18.1275) scale(0.16 -0.16)">
       <use xlink:href="#STIXGeneral-Regular-30" transform="translate(0 0.59375)"/>
       <use xlink:href="#STIXGeneral-Regular-2e" transform="translate(49.999985 0.59375)"/>
       <use xlink:href="#STIXGeneral-Regular-36" transform="translate(74.999969 0.59375)"/>
      </g>
     </g>
    </g>
    <g id="text_14">
     <!-- Density -->
     <g transform="translate(18.1275 182.798125) rotate(-90) scale(0.16 -0.16)">
      <defs>
       <path id="STIXGeneral-Regular-44" d="M 102 4237 
L 1830 4237 
Q 3078 4237 3750 3654 
Q 4384 3110 4384 2138 
Q 4384 966 3514 410 
Q 2880 0 1901 0 
L 102 0 
L 102 122 
Q 474 147 570 252 
Q 666 358 666 736 
L 666 3520 
Q 666 3891 570 3990 
Q 474 4090 102 4115 
L 102 4237 
z
M 1318 3731 
L 1318 538 
Q 1318 365 1379 301 
Q 1440 237 1626 237 
Q 2125 237 2432 307 
Q 2739 378 3021 570 
Q 3686 1018 3686 2099 
Q 3686 3027 3078 3558 
Q 2803 3802 2476 3901 
Q 2150 4000 1658 4000 
Q 1472 4000 1395 3942 
Q 1318 3885 1318 3731 
z
" transform="scale(0.015625)"/>
       <path id="STIXGeneral-Regular-65" d="M 2611 1050 
L 2714 1005 
Q 2330 -64 1376 -64 
Q 813 -64 486 329 
Q 160 723 160 1389 
Q 160 2074 525 2509 
Q 890 2944 1485 2944 
Q 2061 2944 2374 2502 
Q 2560 2246 2592 1773 
L 621 1773 
Q 646 1370 700 1158 
Q 755 947 915 730 
Q 1184 378 1626 378 
Q 1939 378 2153 531 
Q 2368 685 2611 1050 
z
M 634 1978 
L 1939 1978 
Q 1882 2381 1750 2547 
Q 1619 2714 1312 2714 
Q 1043 2714 864 2525 
Q 685 2336 634 1978 
z
" transform="scale(0.015625)"/>
       <path id="STIXGeneral-Regular-6e" d="M 3104 0 
L 1773 0 
L 1779 96 
Q 2016 115 2096 233 
Q 2176 352 2176 672 
L 2176 1946 
Q 2176 2592 1709 2592 
Q 1549 2592 1408 2515 
Q 1267 2438 1050 2227 
L 1050 461 
Q 1050 269 1136 192 
Q 1222 115 1466 96 
L 1466 0 
L 115 0 
L 115 96 
Q 358 115 435 214 
Q 512 314 512 602 
L 512 2157 
Q 512 2394 467 2483 
Q 422 2573 288 2573 
Q 160 2573 102 2547 
L 102 2656 
Q 550 2784 979 2944 
L 1030 2925 
L 1030 2426 
L 1037 2426 
Q 1491 2944 1958 2944 
Q 2323 2944 2518 2688 
Q 2714 2432 2714 1958 
L 2714 544 
Q 2714 288 2790 205 
Q 2867 122 3104 96 
L 3104 0 
z
" transform="scale(0.015625)"/>
       <path id="STIXGeneral-Regular-73" d="M 998 1926 
L 1664 1523 
Q 1984 1331 2105 1164 
Q 2227 998 2227 736 
Q 2227 416 1961 176 
Q 1696 -64 1331 -64 
Q 1030 -64 864 -6 
Q 691 51 570 51 
Q 461 51 416 -26 
L 333 -26 
L 333 979 
L 435 979 
Q 538 512 730 294 
Q 922 77 1248 77 
Q 1485 77 1632 211 
Q 1779 346 1779 550 
Q 1779 845 1440 1030 
L 1094 1222 
Q 326 1651 326 2150 
Q 326 2522 566 2730 
Q 806 2938 1210 2938 
Q 1491 2938 1638 2867 
Q 1754 2816 1818 2816 
Q 1862 2816 1920 2880 
L 1990 2880 
L 2022 2010 
L 1926 2010 
Q 1818 2445 1654 2621 
Q 1491 2797 1203 2797 
Q 986 2797 854 2688 
Q 723 2579 723 2362 
Q 723 2253 796 2128 
Q 870 2003 998 1926 
z
" transform="scale(0.015625)"/>
       <path id="STIXGeneral-Regular-69" d="M 1152 4045 
Q 1152 3904 1056 3811 
Q 960 3718 819 3718 
Q 685 3718 592 3811 
Q 499 3904 499 4045 
Q 499 4179 595 4275 
Q 691 4371 826 4371 
Q 966 4371 1059 4275 
Q 1152 4179 1152 4045 
z
M 1619 0 
L 102 0 
L 102 96 
Q 435 115 521 211 
Q 608 307 608 666 
L 608 2118 
Q 608 2342 563 2432 
Q 518 2522 397 2522 
Q 243 2522 128 2490 
L 128 2592 
L 1120 2944 
L 1146 2918 
L 1146 672 
Q 1146 314 1226 218 
Q 1306 122 1619 96 
L 1619 0 
z
" transform="scale(0.015625)"/>
       <path id="STIXGeneral-Regular-79" d="M 3040 2880 
L 3040 2784 
Q 2925 2771 2854 2700 
Q 2784 2630 2720 2458 
L 1760 -160 
Q 1510 -838 1257 -1116 
Q 1005 -1395 640 -1395 
Q 435 -1395 313 -1289 
Q 192 -1184 192 -1024 
Q 192 -902 272 -816 
Q 352 -730 467 -730 
Q 653 -730 800 -813 
Q 883 -858 966 -858 
Q 1101 -858 1286 -576 
Q 1376 -448 1459 -211 
Q 1542 26 1542 115 
Q 1542 198 1274 762 
L 429 2566 
Q 346 2752 90 2790 
L 90 2880 
L 1402 2880 
L 1402 2784 
Q 1197 2778 1117 2739 
Q 1037 2701 1037 2611 
Q 1037 2541 1120 2349 
L 1837 749 
L 2458 2515 
Q 2483 2573 2483 2630 
Q 2483 2784 2189 2784 
L 2189 2880 
L 3040 2880 
z
" transform="scale(0.015625)"/>
      </defs>
      <use xlink:href="#STIXGeneral-Regular-44"/>
      <use xlink:href="#STIXGeneral-Regular-65" x="72.199982"/>
      <use xlink:href="#STIXGeneral-Regular-6e" x="116.599976"/>
      <use xlink:href="#STIXGeneral-Regular-73" x="166.59996"/>
      <use xlink:href="#STIXGeneral-Regular-69" x="205.499954"/>
      <use xlink:href="#STIXGeneral-Regular-74" x="233.299942"/>
      <use xlink:href="#STIXGeneral-Regular-79" x="261.09993"/>
     </g>
    </g>
   </g>
   <g id="patch_3">
    <path d="M 51.615 303.155 
L 51.615 12.66375 
" style="fill: none; stroke: #000000; stroke-width: 0.6; stroke-linejoin: miter; stroke-linecap: square"/>
   </g>
   <g id="patch_4">
    <path d="M 51.615 303.155 
L 332.256266 303.155 
" style="fill: none; stroke: #000000; stroke-width: 0.6; stroke-linejoin: miter; stroke-linecap: square"/>
   </g>
  </g>
  <g id="legend_1">
   <g id="text_15">
    <!-- cut -->
    <g style="fill: #323034" transform="translate(385.464453 138.788437) scale(0.16 -0.16)">
     <defs>
      <path id="STIXGeneral-Regular-75" d="M 3072 320 
L 3072 230 
Q 2573 96 2195 -58 
L 2163 -38 
L 2163 486 
L 2150 486 
Q 1747 -64 1235 -64 
Q 870 -64 662 160 
Q 454 384 454 755 
L 454 2362 
Q 454 2598 371 2688 
Q 288 2778 58 2790 
L 58 2880 
L 992 2880 
L 992 813 
Q 992 595 1123 451 
Q 1254 307 1446 307 
Q 1760 307 1984 506 
Q 2067 582 2099 649 
Q 2131 717 2131 877 
L 2131 2355 
Q 2131 2605 2041 2678 
Q 1952 2752 1658 2771 
L 1658 2880 
L 2669 2880 
L 2669 685 
Q 2669 461 2742 390 
Q 2816 320 3034 320 
L 3072 320 
z
" transform="scale(0.015625)"/>
     </defs>
     <use xlink:href="#STIXGeneral-Regular-63"/>
     <use xlink:href="#STIXGeneral-Regular-75" x="44.399994"/>
     <use xlink:href="#STIXGeneral-Regular-74" x="94.399979"/>
    </g>
   </g>
   <g id="patch_5">
    <path d="M 351.614141 155.460938 
L 375.614141 155.460938 
L 375.614141 147.060937 
L 351.614141 147.060937 
z
" style="fill: #bc80bd; fill-opacity: 0.25; stroke: #bc80bd; stroke-width: 0.8; stroke-linejoin: miter"/>
   </g>
   <g id="text_16">
    <!-- Ideal -->
    <g style="fill: #323034" transform="translate(385.214141 155.460938) scale(0.12 -0.12)">
     <defs>
      <path id="STIXGeneral-Regular-49" d="M 2016 0 
L 115 0 
L 115 122 
Q 518 134 627 240 
Q 736 346 736 717 
L 736 3526 
Q 736 3898 633 3994 
Q 531 4090 115 4115 
L 115 4237 
L 2016 4237 
L 2016 4115 
Q 1613 4096 1501 3993 
Q 1389 3891 1389 3526 
L 1389 717 
Q 1389 358 1504 246 
Q 1619 134 2016 122 
L 2016 0 
z
" transform="scale(0.015625)"/>
      <path id="STIXGeneral-Regular-64" d="M 3142 269 
L 2202 -64 
L 2176 -45 
L 2176 365 
Q 1869 -64 1357 -64 
Q 826 -64 499 317 
Q 173 698 173 1312 
Q 173 1990 563 2467 
Q 954 2944 1504 2944 
Q 1850 2944 2176 2669 
L 2176 3667 
Q 2176 3866 2118 3930 
Q 2061 3994 1882 3994 
Q 1792 3994 1741 3987 
L 1741 4090 
Q 2323 4243 2682 4371 
L 2714 4358 
L 2714 730 
Q 2714 506 2768 435 
Q 2822 365 2995 365 
Q 3034 365 3142 371 
L 3142 269 
z
M 2176 653 
L 2176 2125 
Q 2176 2381 1981 2573 
Q 1786 2765 1523 2765 
Q 1158 2765 940 2438 
Q 723 2112 723 1568 
Q 723 979 963 624 
Q 1203 269 1606 269 
Q 1907 269 2080 474 
Q 2176 582 2176 653 
z
" transform="scale(0.015625)"/>
      <path id="STIXGeneral-Regular-6c" d="M 1645 0 
L 134 0 
L 134 96 
Q 435 122 531 221 
Q 627 320 627 589 
L 627 3590 
Q 627 3821 569 3910 
Q 512 4000 358 4000 
Q 224 4000 122 3987 
L 122 4090 
Q 730 4237 1133 4371 
L 1165 4346 
L 1165 557 
Q 1165 288 1254 201 
Q 1344 115 1645 96 
L 1645 0 
z
" transform="scale(0.015625)"/>
     </defs>
     <use xlink:href="#STIXGeneral-Regular-49"/>
     <use xlink:href="#STIXGeneral-Regular-64" x="33.299988"/>
     <use xlink:href="#STIXGeneral-Regular-65" x="83.299973"/>
     <use xlink:href="#STIXGeneral-Regular-61" x="127.699966"/>
     <use xlink:href="#STIXGeneral-Regular-6c" x="172.09996"/>
    </g>
   </g>
   <g id="patch_6">
    <path d="M 351.614141 171.265312 
L 375.614141 171.265312 
L 375.614141 162.865312 
L 351.614141 162.865312 
z
" style="fill: #fb8072; fill-opacity: 0.25; stroke: #fb8072; stroke-width: 0.8; stroke-linejoin: miter"/>
   </g>
   <g id="text_17">
    <!-- Premium -->
    <g style="fill: #323034" transform="translate(385.214141 171.265312) scale(0.12 -0.12)">
     <defs>
      <path id="STIXGeneral-Regular-50" d="M 102 4237 
L 1760 4237 
Q 2669 4237 3149 3834 
Q 3469 3565 3469 3072 
Q 3469 2560 3104 2234 
Q 2835 1990 2553 1916 
Q 2272 1843 1734 1843 
Q 1549 1843 1293 1862 
L 1293 717 
Q 1293 352 1398 246 
Q 1504 141 1894 122 
L 1894 0 
L 102 0 
L 102 122 
Q 474 147 557 256 
Q 640 365 640 781 
L 640 3526 
Q 640 3885 547 3987 
Q 454 4090 102 4115 
L 102 4237 
z
M 1293 3770 
L 1293 2118 
Q 1510 2099 1683 2099 
Q 2202 2099 2486 2352 
Q 2771 2605 2771 3040 
Q 2771 3558 2476 3779 
Q 2182 4000 1517 4000 
Q 1382 4000 1337 3952 
Q 1293 3904 1293 3770 
z
" transform="scale(0.015625)"/>
      <path id="STIXGeneral-Regular-6d" d="M 4960 0 
L 3565 0 
L 3565 96 
Q 3834 122 3907 208 
Q 3981 294 3981 576 
L 3981 1894 
Q 3981 2278 3869 2444 
Q 3757 2611 3488 2611 
Q 3264 2611 3107 2521 
Q 2950 2432 2803 2221 
L 2803 608 
Q 2803 301 2896 201 
Q 2989 102 3264 96 
L 3264 0 
L 1830 0 
L 1830 96 
Q 2112 115 2189 188 
Q 2266 262 2266 550 
L 2266 1901 
Q 2266 2611 1850 2611 
Q 1670 2611 1468 2531 
Q 1267 2451 1171 2336 
Q 1088 2240 1088 2227 
L 1088 448 
Q 1088 243 1177 176 
Q 1267 109 1523 96 
L 1523 0 
L 102 0 
L 102 96 
Q 371 102 460 195 
Q 550 288 550 563 
L 550 2150 
Q 550 2387 499 2480 
Q 448 2573 326 2573 
Q 230 2573 122 2547 
L 122 2656 
Q 557 2778 1011 2944 
L 1062 2925 
L 1062 2451 
L 1075 2451 
Q 1363 2752 1584 2848 
Q 1805 2944 2054 2944 
Q 2560 2944 2733 2406 
Q 3232 2944 3776 2944 
Q 4518 2944 4518 1792 
L 4518 493 
Q 4518 282 4582 202 
Q 4646 122 4794 109 
L 4960 96 
L 4960 0 
z
" transform="scale(0.015625)"/>
     </defs>
     <use xlink:href="#STIXGeneral-Regular-50"/>
     <use xlink:href="#STIXGeneral-Regular-72" x="55.699997"/>
     <use xlink:href="#STIXGeneral-Regular-65" x="88.999985"/>
     <use xlink:href="#STIXGeneral-Regular-6d" x="133.399979"/>
     <use xlink:href="#STIXGeneral-Regular-69" x="211.199966"/>
     <use xlink:href="#STIXGeneral-Regular-75" x="238.999954"/>
     <use xlink:href="#STIXGeneral-Regular-6d" x="288.999939"/>
    </g>
   </g>
   <g id="patch_7">
    <path d="M 351.614141 187.069687 
L 375.614141 187.069687 
L 375.614141 178.669687 
L 351.614141 178.669687 
z
" style="fill: #b3de69; fill-opacity: 0.25; stroke: #b3de69; stroke-width: 0.8; stroke-linejoin: miter"/>
   </g>
   <g id="text_18">
    <!-- Very Good -->
    <g style="fill: #323034" transform="translate(385.214141 187.069687) scale(0.12 -0.12)">
     <defs>
      <path id="STIXGeneral-Regular-56" d="M 4461 4237 
L 4461 4115 
Q 4262 4109 4134 3990 
Q 4006 3872 3872 3533 
L 2451 -70 
L 2355 -70 
L 794 3411 
Q 589 3866 467 3987 
Q 346 4109 102 4115 
L 102 4237 
L 1798 4237 
L 1798 4115 
L 1619 4102 
Q 1331 4083 1331 3904 
Q 1331 3776 1581 3219 
L 2554 1030 
L 3494 3392 
Q 3616 3699 3616 3853 
Q 3616 3898 3606 3933 
Q 3597 3968 3584 3993 
Q 3571 4019 3536 4038 
Q 3501 4058 3481 4067 
Q 3462 4077 3411 4086 
Q 3360 4096 3337 4099 
Q 3315 4102 3248 4108 
Q 3181 4115 3155 4115 
L 3155 4237 
L 4461 4237 
z
" transform="scale(0.015625)"/>
      <path id="STIXGeneral-Regular-20" transform="scale(0.015625)"/>
      <path id="STIXGeneral-Regular-47" d="M 4538 2266 
L 4538 2150 
Q 4256 2125 4173 2035 
Q 4090 1946 4090 1638 
L 4090 358 
Q 3539 -90 2464 -90 
Q 1965 -90 1507 89 
Q 1050 269 736 595 
Q 205 1152 205 2093 
Q 205 3155 890 3776 
Q 1491 4326 2419 4326 
Q 2829 4326 3270 4179 
Q 3443 4115 3552 4115 
Q 3654 4115 3731 4176 
Q 3808 4237 3840 4326 
L 3981 4326 
L 4032 2976 
L 3885 2976 
Q 3680 3475 3430 3718 
Q 3059 4070 2496 4070 
Q 1856 4070 1427 3629 
Q 934 3136 934 2074 
Q 934 1190 1395 678 
Q 1856 166 2618 166 
Q 2982 166 3225 281 
Q 3469 397 3469 557 
L 3469 1562 
Q 3469 1933 3376 2025 
Q 3283 2118 2899 2150 
L 2899 2266 
L 4538 2266 
z
" transform="scale(0.015625)"/>
      <path id="STIXGeneral-Regular-6f" d="M 3008 1478 
Q 3008 806 2608 371 
Q 2208 -64 1568 -64 
Q 979 -64 582 368 
Q 186 800 186 1459 
Q 186 2125 582 2534 
Q 979 2944 1626 2944 
Q 2221 2944 2614 2537 
Q 3008 2131 3008 1478 
z
M 2432 1306 
Q 2432 2035 2112 2445 
Q 1856 2765 1504 2765 
Q 1171 2765 966 2493 
Q 762 2221 762 1747 
Q 762 928 1101 435 
Q 1318 115 1677 115 
Q 2029 115 2230 432 
Q 2432 749 2432 1306 
z
" transform="scale(0.015625)"/>
     </defs>
     <use xlink:href="#STIXGeneral-Regular-56"/>
     <use xlink:href="#STIXGeneral-Regular-65" x="72.199982"/>
     <use xlink:href="#STIXGeneral-Regular-72" x="116.599976"/>
     <use xlink:href="#STIXGeneral-Regular-79" x="149.899963"/>
     <use xlink:href="#STIXGeneral-Regular-20" x="199.899948"/>
     <use xlink:href="#STIXGeneral-Regular-47" x="224.899933"/>
     <use xlink:href="#STIXGeneral-Regular-6f" x="297.099915"/>
     <use xlink:href="#STIXGeneral-Regular-6f" x="347.099899"/>
     <use xlink:href="#STIXGeneral-Regular-64" x="397.099884"/>
    </g>
   </g>
   <g id="patch_8">
    <path d="M 351.614141 202.885312 
L 375.614141 202.885312 
L 375.614141 194.485312 
L 351.614141 194.485312 
z
" style="fill: #fdb462; fill-opacity: 0.25; stroke: #fdb462; stroke-width: 0.8; stroke-linejoin: miter"/>
   </g>
   <g id="text_19">
    <!-- Good -->
    <g style="fill: #323034" transform="translate(385.214141 202.885312) scale(0.12 -0.12)">
     <use xlink:href="#STIXGeneral-Regular-47"/>
     <use xlink:href="#STIXGeneral-Regular-6f" x="72.199982"/>
     <use xlink:href="#STIXGeneral-Regular-6f" x="122.199966"/>
     <use xlink:href="#STIXGeneral-Regular-64" x="172.199951"/>
    </g>
   </g>
   <g id="patch_9">
    <path d="M 351.614141 218.689687 
L 375.614141 218.689687 
L 375.614141 210.289687 
L 351.614141 210.289687 
z
" style="fill: #fccde5; fill-opacity: 0.25; stroke: #fccde5; stroke-width: 0.8; stroke-linejoin: miter"/>
   </g>
   <g id="text_20">
    <!-- Fair -->
    <g style="fill: #323034" transform="translate(385.214141 218.689687) scale(0.12 -0.12)">
     <defs>
      <path id="STIXGeneral-Regular-46" d="M 3494 3322 
L 3334 3322 
Q 3264 3757 3094 3875 
Q 2925 3994 2349 3994 
L 1504 3994 
Q 1370 3994 1328 3946 
Q 1286 3898 1286 3744 
L 1286 2355 
L 2195 2355 
Q 2598 2355 2736 2470 
Q 2874 2586 2918 2963 
L 3066 2963 
L 3066 1472 
L 2918 1472 
Q 2880 1862 2745 1977 
Q 2611 2093 2195 2093 
L 1286 2093 
L 1286 717 
Q 1286 352 1392 246 
Q 1498 141 1869 122 
L 1869 0 
L 70 0 
L 70 122 
Q 435 147 534 259 
Q 634 371 634 787 
L 634 3526 
Q 634 3878 538 3984 
Q 442 4090 77 4115 
L 77 4237 
L 3462 4237 
L 3494 3322 
z
" transform="scale(0.015625)"/>
     </defs>
     <use xlink:href="#STIXGeneral-Regular-46"/>
     <use xlink:href="#STIXGeneral-Regular-61" x="55.599991"/>
     <use xlink:href="#STIXGeneral-Regular-69" x="99.999985"/>
     <use xlink:href="#STIXGeneral-Regular-72" x="127.799973"/>
    </g>
   </g>
  </g>
 </g>
 <defs>
  <clipPath id="p8d26c65fe0">
   <rect x="51.615" y="12.66375" width="280.641266" height="290.49125"/>
  </clipPath>
 </defs>
</svg>