<?xml version="1.0" encoding="utf-8" standalone="no"?>
<!DOCTYPE svg PUBLIC "-//W3C//DTD SVG 1.1//EN"
  "http://www.w3.org/Graphics/SVG/1.1/DTD/svg11.dtd">
<svg xmlns:xlink="http://www.w3.org/1999/xlink" width="492.584556pt" height="362.061pt" viewBox="0 0 492.584556 362.061" xmlns="http://www.w3.org/2000/svg" version="1.1">
 <metadata>
  <rdf:RDF xmlns:dc="http://purl.org/dc/elements/1.1/" xmlns:cc="http://creativecommons.org/ns#" xmlns:rdf="http://www.w3.org/1999/02/22-rdf-syntax-ns#">
   <cc:Work>
    <dc:type rdf:resource="http://purl.org/dc/dcmitype/StillImage"/>
    <dc:date>2024-01-05T14:08:20.716892</dc:date>
    <dc:format>image/svg+xml</dc:format>
    <dc:creator>
     <cc:Agent>
      <dc:title>Matplotlib v3.8.2, https://matplotlib.org/</dc:title>
     </cc:Agent>
    </dc:creator>
   </cc:Work>
  </rdf:RDF>
 </metadata>
 <defs>
  <style type="text/css">*{stroke-linejoin: round; stroke-linecap: butt}</style>
 </defs>
 <g id="figure_1">
  <g id="patch_1">
   <path d="M 0 362.061 
L 492.584556 362.061 
L 492.584556 0 
L 0 0 
z
" style="fill: #ffffff"/>
  </g>
  <g id="axes_1">
   <g id="patch_2">
    <path d="M 19.64 138.049333 
L 447.344556 138.049333 
L 447.344556 70.47 
L 19.64 70.47 
z
" style="fill: #ffffff"/>
   </g>
   <g id="matplotlib.axis_1">
    <g id="xtick_1">
     <g id="line2d_1">
      <defs>
       <path id="m71116a5a4d" d="M 0 0 
L 0 3.5 
" style="stroke: #323034; stroke-width: 0.8"/>
      </defs>
      <g>
       <use xlink:href="#m71116a5a4d" x="19.64" y="138.049333" style="fill: #323034; stroke: #323034; stroke-width: 0.8"/>
      </g>
     </g>
    </g>
    <g id="xtick_2">
     <g id="line2d_2">
      <g>
       <use xlink:href="#m71116a5a4d" x="61.571819" y="138.049333" style="fill: #323034; stroke: #323034; stroke-width: 0.8"/>
      </g>
     </g>
    </g>
    <g id="xtick_3">
     <g id="line2d_3">
      <g>
       <use xlink:href="#m71116a5a4d" x="104.901366" y="138.049333" style="fill: #323034; stroke: #323034; stroke-width: 0.8"/>
      </g>
     </g>
    </g>
    <g id="xtick_4">
     <g id="line2d_4">
      <g>
       <use xlink:href="#m71116a5a4d" x="146.833185" y="138.049333" style="fill: #323034; stroke: #323034; stroke-width: 0.8"/>
      </g>
     </g>
    </g>
    <g id="xtick_5">
     <g id="line2d_5">
      <g>
       <use xlink:href="#m71116a5a4d" x="190.162731" y="138.049333" style="fill: #323034; stroke: #323034; stroke-width: 0.8"/>
      </g>
     </g>
    </g>
    <g id="xtick_6">
     <g id="line2d_6">
      <g>
       <use xlink:href="#m71116a5a4d" x="233.492278" y="138.049333" style="fill: #323034; stroke: #323034; stroke-width: 0.8"/>
      </g>
     </g>
    </g>
    <g id="xtick_7">
     <g id="line2d_7">
      <g>
       <use xlink:href="#m71116a5a4d" x="275.424097" y="138.049333" style="fill: #323034; stroke: #323034; stroke-width: 0.8"/>
      </g>
     </g>
    </g>
    <g id="xtick_8">
     <g id="line2d_8">
      <g>
       <use xlink:href="#m71116a5a4d" x="318.753644" y="138.049333" style="fill: #323034; stroke: #323034; stroke-width: 0.8"/>
      </g>
     </g>
    </g>
    <g id="xtick_9">
     <g id="line2d_9">
      <g>
       <use xlink:href="#m71116a5a4d" x="360.685463" y="138.049333" style="fill: #323034; stroke: #323034; stroke-width: 0.8"/>
      </g>
     </g>
    </g>
    <g id="xtick_10">
     <g id="line2d_10">
      <g>
       <use xlink:href="#m71116a5a4d" x="404.015009" y="138.049333" style="fill: #323034; stroke: #323034; stroke-width: 0.8"/>
      </g>
     </g>
    </g>
    <g id="xtick_11">
     <g id="line2d_11">
      <g>
       <use xlink:href="#m71116a5a4d" x="447.344556" y="138.049333" style="fill: #323034; stroke: #323034; stroke-width: 0.8"/>
      </g>
     </g>
    </g>
   </g>
   <g id="matplotlib.axis_2">
    <g id="ytick_1">
     <g id="line2d_12">
      <defs>
       <path id="mc2f2920ff9" d="M 0 0 
L 3.5 0 
" style="stroke: #323034; stroke-width: 0.8"/>
      </defs>
      <g>
       <use xlink:href="#mc2f2920ff9" x="447.344556" y="121.1545" style="fill: #323034; stroke: #323034; stroke-width: 0.8"/>
      </g>
     </g>
     <g id="text_1">
      <!-- $\mathdefault{10.0}$ -->
      <g style="fill: #323034" transform="translate(454.344556 126.61825) scale(0.16 -0.16)">
       <defs>
        <path id="STIXGeneral-Regular-31" d="M 2522 0 
L 755 0 
L 755 96 
Q 1107 115 1235 227 
Q 1363 339 1363 608 
L 1363 3482 
Q 1363 3795 1171 3795 
Q 1082 3795 883 3718 
L 710 3654 
L 710 3744 
L 1856 4326 
L 1914 4307 
L 1914 486 
Q 1914 275 2042 185 
Q 2170 96 2522 96 
L 2522 0 
z
" transform="scale(0.015625)"/>
        <path id="STIXGeneral-Regular-30" d="M 3046 2112 
Q 3046 1683 2963 1302 
Q 2880 922 2717 602 
Q 2554 282 2266 96 
Q 1978 -90 1600 -90 
Q 1210 -90 915 108 
Q 621 307 461 640 
Q 301 973 227 1350 
Q 154 1728 154 2150 
Q 154 2746 301 3222 
Q 448 3699 790 4012 
Q 1133 4326 1626 4326 
Q 2253 4326 2649 3712 
Q 3046 3098 3046 2112 
z
M 2432 2080 
Q 2432 3091 2217 3625 
Q 2003 4160 1587 4160 
Q 1190 4160 979 3622 
Q 768 3085 768 2106 
Q 768 1120 979 598 
Q 1190 77 1600 77 
Q 2003 77 2217 598 
Q 2432 1120 2432 2080 
z
" transform="scale(0.015625)"/>
        <path id="STIXGeneral-Regular-2e" d="M 1158 275 
Q 1158 134 1052 32 
Q 947 -70 800 -70 
Q 653 -70 550 32 
Q 448 134 448 281 
Q 448 429 553 534 
Q 659 640 806 640 
Q 947 640 1052 531 
Q 1158 422 1158 275 
z
" transform="scale(0.015625)"/>
       </defs>
       <use xlink:href="#STIXGeneral-Regular-31" transform="translate(0 0.40625)"/>
       <use xlink:href="#STIXGeneral-Regular-30" transform="translate(49.999985 0.40625)"/>
       <use xlink:href="#STIXGeneral-Regular-2e" transform="translate(99.999969 0.40625)"/>
       <use xlink:href="#STIXGeneral-Regular-30" transform="translate(124.999954 0.40625)"/>
      </g>
     </g>
    </g>
    <g id="ytick_2">
     <g id="line2d_13">
      <g>
       <use xlink:href="#mc2f2920ff9" x="447.344556" y="78.917417" style="fill: #323034; stroke: #323034; stroke-width: 0.8"/>
      </g>
     </g>
     <g id="text_2">
      <!-- $\mathdefault{12.5}$ -->
      <g style="fill: #323034" transform="translate(454.344556 84.381167) scale(0.16 -0.16)">
       <defs>
        <path id="STIXGeneral-Regular-32" d="M 3034 877 
L 2688 0 
L 186 0 
L 186 77 
L 1325 1286 
Q 1773 1754 1965 2144 
Q 2157 2534 2157 2950 
Q 2157 3379 1920 3616 
Q 1683 3853 1267 3853 
Q 922 3853 720 3673 
Q 518 3494 326 3021 
L 192 3053 
Q 301 3648 630 3987 
Q 960 4326 1523 4326 
Q 2054 4326 2380 4006 
Q 2707 3686 2707 3200 
Q 2707 2477 1888 1613 
L 832 486 
L 2330 486 
Q 2541 486 2665 569 
Q 2790 653 2944 915 
L 3034 877 
z
" transform="scale(0.015625)"/>
        <path id="STIXGeneral-Regular-35" d="M 2803 4358 
L 2573 3814 
Q 2534 3731 2400 3731 
L 1158 3731 
L 902 3187 
Q 1606 3053 1920 2896 
Q 2234 2739 2502 2368 
Q 2726 2061 2726 1555 
Q 2726 1094 2576 780 
Q 2426 467 2099 224 
Q 1664 -90 1011 -90 
Q 646 -90 422 19 
Q 198 128 198 307 
Q 198 550 486 550 
Q 717 550 960 352 
Q 1210 147 1414 147 
Q 1747 147 2012 480 
Q 2278 813 2278 1229 
Q 2278 1843 1850 2189 
Q 1293 2637 486 2637 
Q 410 2637 410 2688 
L 416 2720 
L 1114 4237 
L 2438 4237 
Q 2547 4237 2608 4269 
Q 2669 4301 2746 4403 
L 2803 4358 
z
" transform="scale(0.015625)"/>
       </defs>
       <use xlink:href="#STIXGeneral-Regular-31" transform="translate(0 0.203125)"/>
       <use xlink:href="#STIXGeneral-Regular-32" transform="translate(49.999985 0.203125)"/>
       <use xlink:href="#STIXGeneral-Regular-2e" transform="translate(99.999969 0.203125)"/>
       <use xlink:href="#STIXGeneral-Regular-35" transform="translate(124.999954 0.203125)"/>
      </g>
     </g>
    </g>
    <g id="ytick_3">
     <g id="line2d_14">
      <defs>
       <path id="m3fa6e519ee" d="M 0 0 
L 2 0 
" style="stroke: #323034; stroke-width: 0.6"/>
      </defs>
      <g>
       <use xlink:href="#m3fa6e519ee" x="447.344556" y="100.035958" style="fill: #323034; stroke: #323034; stroke-width: 0.6"/>
      </g>
     </g>
    </g>
   </g>
   <g id="line2d_15">
    <path d="M 19.64 116.522333 
L 25.230909 115.787353 
L 29.424091 115.393482 
L 33.617273 115.747318 
L 40.60591 116.67065 
L 43.401364 116.746554 
L 50.390001 116.624813 
L 55.98091 117.07506 
L 64.367274 118.070271 
L 67.162728 118.590153 
L 71.35591 119.574648 
L 76.94682 120.329831 
L 81.140001 120.58828 
L 85.333183 120.909859 
L 92.32182 121.684838 
L 95.117275 121.972313 
L 97.912729 121.970899 
L 103.503638 121.824143 
L 107.69682 121.900102 
L 110.492275 122.027416 
L 113.28773 121.846541 
L 117.480911 121.283649 
L 121.674093 120.410758 
L 124.469548 119.606092 
L 127.265003 118.481606 
L 130.060457 116.988168 
L 139.844548 111.143649 
L 142.640003 109.73297 
L 145.435458 108.569802 
L 148.230912 107.681489 
L 156.617276 105.296568 
L 160.810458 103.85215 
L 163.605913 103.165859 
L 166.401367 102.766648 
L 169.196822 102.616612 
L 176.185458 102.681394 
L 180.37864 102.859441 
L 183.174095 103.114648 
L 185.969549 103.595243 
L 190.162731 104.677425 
L 192.958186 105.410741 
L 195.753641 105.890723 
L 199.946822 106.135849 
L 202.742277 106.320256 
L 205.537732 106.71718 
L 208.333186 107.461057 
L 216.71955 110.116078 
L 218.117277 110.451107 
L 220.912732 110.804539 
L 225.105914 110.986254 
L 227.901369 110.92028 
L 232.094551 110.595698 
L 234.890005 110.617141 
L 237.68546 110.874669 
L 243.276369 111.515158 
L 247.469551 111.740776 
L 257.253642 110.747662 
L 264.242279 110.33979 
L 276.821824 109.387314 
L 282.412734 108.168294 
L 286.605915 107.102152 
L 290.799097 105.854344 
L 304.77637 101.984564 
L 311.765007 99.544568 
L 315.958189 98.053375 
L 318.753644 96.836743 
L 321.549098 95.455281 
L 332.730917 89.507509 
L 335.526371 88.399385 
L 338.321826 87.572661 
L 341.11728 86.977894 
L 345.310462 86.374499 
L 349.503644 86.012669 
L 355.094553 85.808612 
L 359.287735 85.350636 
L 360.685463 85.084184 
L 367.674099 83.211282 
L 371.867281 82.638904 
L 377.45819 82.297794 
L 380.253645 82.221029 
L 390.037736 82.425072 
L 398.4241 82.54435 
L 399.821827 82.486568 
L 402.617282 82.030148 
L 411.003646 80.260309 
L 413.7991 80.273347 
L 416.594555 80.689292 
L 419.39001 81.432387 
L 423.583191 82.855252 
L 434.76501 86.961288 
L 438.958192 88.16854 
L 447.344556 90.286624 
L 447.344556 90.286624 
" clip-path="url(#p05433efeaa)" style="fill: none; stroke-dasharray: 3.7,1.6; stroke-dashoffset: 0; stroke: #000000"/>
   </g>
   <g id="line2d_16">
    <path d="M 19.64 117.758703 
L 21.037727 116.094927 
L 23.833182 113.282725 
L 25.230909 118.603846 
L 26.628637 115.426659 
L 28.026364 115.746069 
L 29.424091 114.93973 
L 30.821818 113.47637 
L 32.219546 114.084106 
L 33.617273 114.992909 
L 35.015 117.625601 
L 36.412728 118.503236 
L 37.810455 117.909312 
L 39.208182 115.916222 
L 40.60591 115.049996 
L 42.003637 115.105668 
L 44.799092 118.790868 
L 46.196819 117.46947 
L 47.594546 118.671253 
L 48.992273 116.606301 
L 50.390001 113.931861 
L 51.787728 112.510283 
L 53.185455 113.618655 
L 54.583183 117.881483 
L 55.98091 120.279715 
L 57.378637 119.251232 
L 58.776365 117.995617 
L 60.174092 115.734935 
L 61.571819 113.8351 
L 62.969546 116.233647 
L 64.367274 118.261733 
L 65.765001 121.204019 
L 67.162728 119.912297 
L 68.560456 119.350894 
L 69.958183 116.815621 
L 71.35591 117.314158 
L 72.753638 119.10453 
L 74.151365 122.519379 
L 75.549092 124.924639 
L 76.94682 120.945985 
L 78.344547 121.844506 
L 79.742274 117.738639 
L 81.140001 118.199156 
L 82.537729 119.946538 
L 83.935456 123.639209 
L 85.333183 121.308192 
L 86.730911 121.979274 
L 88.128638 120.372466 
L 89.526365 118.526855 
L 90.924093 119.846859 
L 92.32182 120.970246 
L 93.719547 122.758895 
L 95.117275 123.562966 
L 97.912729 123.880836 
L 99.310456 120.786129 
L 100.708184 119.323342 
L 102.105911 120.134676 
L 103.503638 122.257809 
L 104.901366 121.254096 
L 106.299093 122.129746 
L 107.69682 122.796047 
L 109.094548 121.472308 
L 110.492275 116.677945 
L 111.890002 120.783127 
L 113.28773 123.996605 
L 114.685457 124.371928 
L 116.083184 123.825944 
L 117.480911 120.532873 
L 118.878639 120.276074 
L 120.276366 118.685165 
L 121.674093 118.790868 
L 123.071821 123.536451 
L 124.469548 122.686515 
L 125.867275 119.092984 
L 127.265003 118.578143 
L 130.060457 115.470434 
L 131.458184 114.831235 
L 132.855912 118.107964 
L 135.651366 113.301508 
L 137.049094 112.396626 
L 139.844548 108.887452 
L 142.640003 111.283551 
L 144.03773 111.288683 
L 145.435458 107.857797 
L 146.833185 107.312932 
L 148.230912 105.523387 
L 149.628639 105.045198 
L 151.026367 107.302455 
L 152.424094 109.172236 
L 153.821821 108.236647 
L 155.219549 105.977978 
L 156.617276 104.378353 
L 158.015003 104.255475 
L 159.412731 102.053275 
L 160.810458 104.022381 
L 162.208185 104.853849 
L 165.00364 102.71613 
L 166.401367 102.024822 
L 167.799094 100.300165 
L 169.196822 101.398526 
L 170.594549 103.54776 
L 171.992276 103.595441 
L 173.390004 104.255757 
L 174.787731 102.800037 
L 176.185458 101.682951 
L 177.583186 101.618392 
L 178.980913 100.789793 
L 180.37864 102.416457 
L 181.776368 105.936482 
L 183.174095 104.456393 
L 185.969549 102.414939 
L 187.367277 101.875673 
L 188.765004 101.841402 
L 190.162731 105.14184 
L 191.560459 107.0383 
L 192.958186 108.176766 
L 194.355913 106.145934 
L 195.753641 106.091126 
L 198.549095 103.901503 
L 199.946822 105.62067 
L 201.34455 107.826054 
L 202.742277 108.287784 
L 204.140004 106.20662 
L 205.537732 105.917485 
L 206.935459 105.985164 
L 208.333186 104.372102 
L 209.730914 107.055272 
L 211.128641 110.195134 
L 212.526368 112.154464 
L 213.924096 109.761311 
L 215.321823 109.847503 
L 218.117277 107.640288 
L 219.515005 109.074772 
L 220.912732 114.669525 
L 222.310459 110.904674 
L 223.708187 111.445542 
L 225.105914 109.029431 
L 227.901369 108.507315 
L 229.299096 109.23197 
L 230.696823 114.106329 
L 232.094551 112.627487 
L 233.492278 109.445402 
L 234.890005 114.611624 
L 236.287732 108.568017 
L 237.68546 106.609072 
L 239.083187 110.148688 
L 240.480914 115.935923 
L 241.878642 118.903278 
L 246.071824 111.913948 
L 247.469551 108.14726 
L 248.867278 111.457203 
L 250.265006 114.149849 
L 251.662733 112.44328 
L 253.06046 111.408452 
L 254.458187 111.386495 
L 255.855915 108.968543 
L 257.253642 107.68481 
L 258.651369 110.326352 
L 260.049097 112.688254 
L 261.446824 105.708984 
L 262.844551 112.214002 
L 264.242279 110.432553 
L 265.640006 109.008114 
L 267.037733 105.823434 
L 268.43546 109.972873 
L 269.833188 112.256076 
L 271.230915 112.228015 
L 272.628642 109.580952 
L 274.02637 110.226839 
L 275.424097 108.560372 
L 276.821824 106.136156 
L 278.219552 108.07213 
L 279.617279 113.300063 
L 281.015006 103.558043 
L 282.412734 109.906918 
L 283.810461 106.314621 
L 285.208188 105.274958 
L 286.605915 104.519029 
L 289.40137 109.166199 
L 290.799097 107.988533 
L 292.196825 105.881727 
L 294.992279 102.780378 
L 296.390007 101.508221 
L 297.787734 106.396397 
L 299.185461 108.035748 
L 300.583189 102.757902 
L 301.980916 104.057754 
L 303.378643 103.071375 
L 304.77637 100.424958 
L 306.174098 98.280677 
L 307.571825 99.666641 
L 308.969552 104.304632 
L 310.36728 100.53596 
L 311.765007 100.592872 
L 315.958189 95.616192 
L 317.355916 98.497965 
L 318.753644 100.636535 
L 320.151371 96.638173 
L 321.549098 96.926373 
L 322.946825 94.281435 
L 324.344553 92.324718 
L 325.74228 90.798325 
L 327.140007 91.698537 
L 328.537735 95.041587 
L 329.935462 91.103672 
L 331.333189 89.947411 
L 332.730917 89.546419 
L 334.128644 87.272057 
L 335.526371 85.523484 
L 336.924098 87.755661 
L 338.321826 90.500398 
L 339.719553 86.974075 
L 341.11728 87.481894 
L 342.515008 86.403917 
L 343.912735 84.972917 
L 345.310462 83.979931 
L 346.70819 86.43798 
L 348.105917 89.813687 
L 349.503644 85.698741 
L 350.901372 85.865573 
L 352.299099 85.608032 
L 353.696826 95.09547 
L 355.094553 83.397089 
L 356.492281 88.585765 
L 357.890008 90.383825 
L 359.287735 86.86337 
L 362.08319 83.784556 
L 363.480917 82.44763 
L 364.878645 81.421826 
L 366.276372 83.407844 
L 367.674099 86.43916 
L 369.071827 83.50545 
L 370.469554 82.294998 
L 371.867281 82.294845 
L 373.265008 81.839219 
L 374.662736 78.197663 
L 376.060463 83.258699 
L 377.45819 85.271892 
L 378.855918 83.808676 
L 380.253645 83.619001 
L 381.651372 80.466553 
L 383.0491 80.965028 
L 384.446827 80.033069 
L 385.844554 84.406149 
L 387.242282 85.671674 
L 388.640009 83.755523 
L 390.037736 83.745549 
L 391.435463 81.687141 
L 392.833191 84.440513 
L 394.230918 95.437313 
L 395.628645 82.515816 
L 397.026373 88.509946 
L 398.4241 84.838123 
L 399.821827 83.796485 
L 401.219555 81.599395 
L 402.617282 81.446964 
L 404.015009 89.056454 
L 405.412736 77.51223 
L 406.810464 83.733571 
L 408.208191 79.990077 
L 409.605918 81.157522 
L 412.401373 78.178487 
L 413.7991 76.989304 
L 416.594555 83.196698 
L 417.992282 81.794817 
L 419.39001 81.523705 
L 420.787737 81.571671 
L 422.185464 80.83666 
L 423.583191 80.813329 
L 426.378646 86.619661 
L 427.776373 89.773057 
L 429.174101 85.023811 
L 430.571828 85.15591 
L 431.969555 84.707057 
L 433.367283 84.611272 
L 434.76501 86.837291 
L 436.162737 91.203436 
L 437.560465 88.018718 
L 438.958192 88.671904 
L 440.355919 88.105911 
L 441.753646 87.013476 
L 443.151374 87.172829 
L 444.549101 90.674507 
L 445.946828 93.374249 
L 447.344556 89.716171 
L 447.344556 89.716171 
" clip-path="url(#p05433efeaa)" style="fill: none; stroke: #bc80bd; stroke-opacity: 0.7; stroke-width: 3; stroke-linecap: square"/>
   </g>
   <g id="patch_3">
    <path d="M 447.344556 138.049333 
L 447.344556 70.47 
" style="fill: none; stroke: #000000; stroke-width: 0.6; stroke-linejoin: miter; stroke-linecap: square"/>
   </g>
   <g id="patch_4">
    <path d="M 19.64 138.049333 
L 447.344556 138.049333 
" style="fill: none; stroke: #000000; stroke-width: 0.6; stroke-linejoin: miter; stroke-linecap: square"/>
   </g>
   <g id="text_3">
    <!-- log new cases -->
    <g style="fill: #323034" transform="translate(341.811431 64.47) scale(0.19 -0.19)">
     <defs>
      <path id="STIXGeneral-Regular-6c" d="M 1645 0 
L 134 0 
L 134 96 
Q 435 122 531 221 
Q 627 320 627 589 
L 627 3590 
Q 627 3821 569 3910 
Q 512 4000 358 4000 
Q 224 4000 122 3987 
L 122 4090 
Q 730 4237 1133 4371 
L 1165 4346 
L 1165 557 
Q 1165 288 1254 201 
Q 1344 115 1645 96 
L 1645 0 
z
" transform="scale(0.015625)"/>
      <path id="STIXGeneral-Regular-6f" d="M 3008 1478 
Q 3008 806 2608 371 
Q 2208 -64 1568 -64 
Q 979 -64 582 368 
Q 186 800 186 1459 
Q 186 2125 582 2534 
Q 979 2944 1626 2944 
Q 2221 2944 2614 2537 
Q 3008 2131 3008 1478 
z
M 2432 1306 
Q 2432 2035 2112 2445 
Q 1856 2765 1504 2765 
Q 1171 2765 966 2493 
Q 762 2221 762 1747 
Q 762 928 1101 435 
Q 1318 115 1677 115 
Q 2029 115 2230 432 
Q 2432 749 2432 1306 
z
" transform="scale(0.015625)"/>
      <path id="STIXGeneral-Regular-67" d="M 3008 2483 
L 2477 2483 
Q 2598 2208 2598 1946 
Q 2598 1453 2265 1203 
Q 1933 954 1600 954 
Q 1530 954 1357 973 
L 1235 986 
Q 1107 947 979 812 
Q 851 678 851 582 
Q 851 435 1350 410 
L 2176 371 
Q 2528 358 2739 172 
Q 2950 -13 2950 -314 
Q 2950 -685 2566 -986 
Q 2035 -1395 1286 -1395 
Q 826 -1395 502 -1212 
Q 179 -1030 179 -774 
Q 179 -595 320 -419 
Q 461 -243 806 6 
Q 602 102 534 172 
Q 467 243 467 346 
Q 467 531 762 787 
Q 909 915 1037 1043 
Q 717 1203 579 1401 
Q 442 1600 442 1901 
Q 442 2336 752 2640 
Q 1062 2944 1510 2944 
Q 1766 2944 2022 2848 
L 2163 2797 
Q 2349 2733 2515 2733 
L 3008 2733 
L 3008 2483 
z
M 973 2163 
L 973 2144 
Q 973 1683 1155 1398 
Q 1338 1114 1632 1114 
Q 1850 1114 1978 1270 
Q 2106 1427 2106 1690 
Q 2106 2112 1914 2464 
Q 1754 2765 1446 2765 
Q 1222 2765 1097 2605 
Q 973 2445 973 2163 
z
M 2771 -410 
Q 2771 -230 2595 -163 
Q 2419 -96 1978 -96 
Q 1344 -96 941 -13 
Q 749 -243 688 -348 
Q 627 -454 627 -563 
Q 627 -774 880 -902 
Q 1133 -1030 1555 -1030 
Q 2099 -1030 2435 -860 
Q 2771 -691 2771 -410 
z
" transform="scale(0.015625)"/>
      <path id="STIXGeneral-Regular-20" transform="scale(0.015625)"/>
      <path id="STIXGeneral-Regular-6e" d="M 3104 0 
L 1773 0 
L 1779 96 
Q 2016 115 2096 233 
Q 2176 352 2176 672 
L 2176 1946 
Q 2176 2592 1709 2592 
Q 1549 2592 1408 2515 
Q 1267 2438 1050 2227 
L 1050 461 
Q 1050 269 1136 192 
Q 1222 115 1466 96 
L 1466 0 
L 115 0 
L 115 96 
Q 358 115 435 214 
Q 512 314 512 602 
L 512 2157 
Q 512 2394 467 2483 
Q 422 2573 288 2573 
Q 160 2573 102 2547 
L 102 2656 
Q 550 2784 979 2944 
L 1030 2925 
L 1030 2426 
L 1037 2426 
Q 1491 2944 1958 2944 
Q 2323 2944 2518 2688 
Q 2714 2432 2714 1958 
L 2714 544 
Q 2714 288 2790 205 
Q 2867 122 3104 96 
L 3104 0 
z
" transform="scale(0.015625)"/>
      <path id="STIXGeneral-Regular-65" d="M 2611 1050 
L 2714 1005 
Q 2330 -64 1376 -64 
Q 813 -64 486 329 
Q 160 723 160 1389 
Q 160 2074 525 2509 
Q 890 2944 1485 2944 
Q 2061 2944 2374 2502 
Q 2560 2246 2592 1773 
L 621 1773 
Q 646 1370 700 1158 
Q 755 947 915 730 
Q 1184 378 1626 378 
Q 1939 378 2153 531 
Q 2368 685 2611 1050 
z
M 634 1978 
L 1939 1978 
Q 1882 2381 1750 2547 
Q 1619 2714 1312 2714 
Q 1043 2714 864 2525 
Q 685 2336 634 1978 
z
" transform="scale(0.015625)"/>
      <path id="STIXGeneral-Regular-77" d="M 4442 2880 
L 4442 2784 
Q 4346 2752 4301 2691 
Q 4256 2630 4179 2438 
L 3296 224 
Q 3168 -90 3117 -90 
Q 3085 -90 3062 -48 
Q 3040 -6 2963 186 
L 2381 1696 
L 1664 160 
Q 1549 -90 1504 -90 
Q 1446 -90 1338 192 
L 474 2381 
Q 378 2630 314 2700 
Q 250 2771 134 2784 
L 134 2880 
L 1286 2880 
L 1286 2784 
Q 1120 2765 1056 2720 
Q 992 2675 992 2573 
Q 992 2477 1030 2381 
L 1664 710 
L 2246 1984 
L 2118 2342 
Q 2029 2598 1942 2681 
Q 1856 2765 1677 2784 
L 1677 2880 
L 2976 2880 
L 2976 2784 
Q 2752 2752 2678 2707 
Q 2605 2662 2605 2560 
Q 2605 2458 2714 2176 
L 3251 742 
L 3827 2163 
Q 3936 2432 3936 2592 
Q 3936 2669 3875 2710 
Q 3814 2752 3654 2784 
L 3654 2880 
L 4442 2880 
z
" transform="scale(0.015625)"/>
      <path id="STIXGeneral-Regular-63" d="M 2547 998 
L 2637 941 
Q 2362 403 2112 205 
Q 1786 -64 1376 -64 
Q 845 -64 502 336 
Q 160 736 160 1357 
Q 160 2170 698 2618 
Q 1094 2944 1562 2944 
Q 1965 2944 2256 2749 
Q 2547 2554 2547 2285 
Q 2547 2176 2457 2096 
Q 2368 2016 2246 2016 
Q 2022 2016 1939 2310 
L 1901 2451 
Q 1850 2630 1773 2694 
Q 1696 2758 1523 2758 
Q 1133 2758 893 2451 
Q 653 2144 653 1645 
Q 653 1094 928 745 
Q 1203 397 1645 397 
Q 1920 397 2118 528 
Q 2317 659 2547 998 
z
" transform="scale(0.015625)"/>
      <path id="STIXGeneral-Regular-61" d="M 2829 422 
L 2829 243 
Q 2586 -64 2253 -64 
Q 1888 -64 1843 403 
L 1837 403 
Q 1427 -64 909 -64 
Q 608 -64 422 112 
Q 237 288 237 602 
Q 237 1050 685 1350 
Q 992 1555 1837 1869 
L 1837 2214 
Q 1837 2502 1699 2646 
Q 1562 2790 1338 2790 
Q 1146 2790 1018 2697 
Q 890 2605 890 2477 
Q 890 2419 909 2348 
Q 928 2278 928 2208 
Q 928 2112 841 2029 
Q 755 1946 634 1946 
Q 525 1946 441 2029 
Q 358 2112 358 2240 
Q 358 2547 685 2752 
Q 986 2944 1421 2944 
Q 1939 2944 2176 2656 
Q 2291 2522 2323 2384 
Q 2355 2246 2355 1946 
L 2355 723 
Q 2355 301 2554 301 
Q 2682 301 2829 422 
z
M 1837 813 
L 1837 1715 
Q 1248 1510 1018 1293 
Q 800 1094 800 800 
Q 800 557 921 432 
Q 1043 307 1242 307 
Q 1453 307 1613 410 
Q 1747 506 1792 589 
Q 1837 672 1837 813 
z
" transform="scale(0.015625)"/>
      <path id="STIXGeneral-Regular-73" d="M 998 1926 
L 1664 1523 
Q 1984 1331 2105 1164 
Q 2227 998 2227 736 
Q 2227 416 1961 176 
Q 1696 -64 1331 -64 
Q 1030 -64 864 -6 
Q 691 51 570 51 
Q 461 51 416 -26 
L 333 -26 
L 333 979 
L 435 979 
Q 538 512 730 294 
Q 922 77 1248 77 
Q 1485 77 1632 211 
Q 1779 346 1779 550 
Q 1779 845 1440 1030 
L 1094 1222 
Q 326 1651 326 2150 
Q 326 2522 566 2730 
Q 806 2938 1210 2938 
Q 1491 2938 1638 2867 
Q 1754 2816 1818 2816 
Q 1862 2816 1920 2880 
L 1990 2880 
L 2022 2010 
L 1926 2010 
Q 1818 2445 1654 2621 
Q 1491 2797 1203 2797 
Q 986 2797 854 2688 
Q 723 2579 723 2362 
Q 723 2253 796 2128 
Q 870 2003 998 1926 
z
" transform="scale(0.015625)"/>
     </defs>
     <use xlink:href="#STIXGeneral-Regular-6c"/>
     <use xlink:href="#STIXGeneral-Regular-6f" x="27.799988"/>
     <use xlink:href="#STIXGeneral-Regular-67" x="77.799973"/>
     <use xlink:href="#STIXGeneral-Regular-20" x="127.799957"/>
     <use xlink:href="#STIXGeneral-Regular-6e" x="152.799942"/>
     <use xlink:href="#STIXGeneral-Regular-65" x="202.799927"/>
     <use xlink:href="#STIXGeneral-Regular-77" x="247.199921"/>
     <use xlink:href="#STIXGeneral-Regular-20" x="319.399902"/>
     <use xlink:href="#STIXGeneral-Regular-63" x="344.399887"/>
     <use xlink:href="#STIXGeneral-Regular-61" x="388.799881"/>
     <use xlink:href="#STIXGeneral-Regular-73" x="433.199875"/>
     <use xlink:href="#STIXGeneral-Regular-65" x="472.099869"/>
     <use xlink:href="#STIXGeneral-Regular-73" x="516.499863"/>
    </g>
   </g>
   <g id="legend_1">
    <g id="patch_5">
     <path d="M 28.04 108.09 
L 101.635625 108.09 
Q 104.035625 108.09 104.035625 105.69 
L 104.035625 78.87 
Q 104.035625 76.47 101.635625 76.47 
L 28.04 76.47 
Q 25.64 76.47 25.64 78.87 
L 25.64 105.69 
Q 25.64 108.09 28.04 108.09 
z
" style="fill: #ffffff; opacity: 0.8; stroke: #e6e6e6; stroke-width: 0.8; stroke-linejoin: miter"/>
    </g>
    <g id="line2d_17">
     <path d="M 28.04 83.07 
L 40.04 83.07 
L 52.04 83.07 
" style="fill: none; stroke-dasharray: 3.7,1.6; stroke-dashoffset: 0; stroke: #000000"/>
    </g>
    <g id="text_4">
     <!-- Trend -->
     <g style="fill: #323034" transform="translate(61.64 87.27) scale(0.12 -0.12)">
      <defs>
       <path id="STIXGeneral-Regular-54" d="M 3795 3149 
L 3642 3149 
Q 3539 3674 3353 3821 
Q 3168 3968 2656 3968 
L 2278 3968 
L 2278 710 
Q 2278 346 2387 243 
Q 2496 141 2893 122 
L 2893 0 
L 1024 0 
L 1024 122 
Q 1427 147 1526 256 
Q 1626 365 1626 787 
L 1626 3968 
L 1242 3968 
Q 723 3968 540 3817 
Q 358 3667 262 3149 
L 109 3149 
L 154 4237 
L 3750 4237 
L 3795 3149 
z
" transform="scale(0.015625)"/>
       <path id="STIXGeneral-Regular-72" d="M 1024 2931 
L 1024 2342 
Q 1267 2688 1430 2816 
Q 1594 2944 1792 2944 
Q 1958 2944 2051 2854 
Q 2144 2765 2144 2605 
Q 2144 2470 2077 2393 
Q 2010 2317 1894 2317 
Q 1773 2317 1638 2445 
Q 1536 2541 1472 2541 
Q 1338 2541 1181 2355 
Q 1024 2170 1024 2016 
L 1024 576 
Q 1024 301 1133 205 
Q 1242 109 1568 96 
L 1568 0 
L 32 0 
L 32 96 
Q 339 154 412 224 
Q 486 294 486 538 
L 486 2138 
Q 486 2349 438 2435 
Q 390 2522 269 2522 
Q 166 2522 45 2496 
L 45 2598 
Q 448 2726 992 2944 
L 1024 2931 
z
" transform="scale(0.015625)"/>
       <path id="STIXGeneral-Regular-64" d="M 3142 269 
L 2202 -64 
L 2176 -45 
L 2176 365 
Q 1869 -64 1357 -64 
Q 826 -64 499 317 
Q 173 698 173 1312 
Q 173 1990 563 2467 
Q 954 2944 1504 2944 
Q 1850 2944 2176 2669 
L 2176 3667 
Q 2176 3866 2118 3930 
Q 2061 3994 1882 3994 
Q 1792 3994 1741 3987 
L 1741 4090 
Q 2323 4243 2682 4371 
L 2714 4358 
L 2714 730 
Q 2714 506 2768 435 
Q 2822 365 2995 365 
Q 3034 365 3142 371 
L 3142 269 
z
M 2176 653 
L 2176 2125 
Q 2176 2381 1981 2573 
Q 1786 2765 1523 2765 
Q 1158 2765 940 2438 
Q 723 2112 723 1568 
Q 723 979 963 624 
Q 1203 269 1606 269 
Q 1907 269 2080 474 
Q 2176 582 2176 653 
z
" transform="scale(0.015625)"/>
      </defs>
      <use xlink:href="#STIXGeneral-Regular-54"/>
      <use xlink:href="#STIXGeneral-Regular-72" x="61.099991"/>
      <use xlink:href="#STIXGeneral-Regular-65" x="94.399979"/>
      <use xlink:href="#STIXGeneral-Regular-6e" x="138.799973"/>
      <use xlink:href="#STIXGeneral-Regular-64" x="188.799957"/>
     </g>
    </g>
    <g id="line2d_18">
     <path d="M 28.04 98.874375 
L 40.04 98.874375 
L 52.04 98.874375 
" style="fill: none; stroke: #bc80bd; stroke-opacity: 0.7; stroke-width: 3; stroke-linecap: square"/>
    </g>
    <g id="text_5">
     <!-- Original -->
     <g style="fill: #323034" transform="translate(61.64 103.074375) scale(0.12 -0.12)">
      <defs>
       <path id="STIXGeneral-Regular-4f" d="M 4403 2118 
Q 4403 1133 3820 521 
Q 3238 -90 2310 -90 
Q 1376 -90 797 524 
Q 218 1139 218 2138 
Q 218 3110 797 3718 
Q 1376 4326 2310 4326 
Q 3245 4326 3824 3702 
Q 4403 3078 4403 2118 
z
M 3674 2157 
Q 3674 2701 3520 3133 
Q 3366 3565 3091 3795 
Q 2733 4096 2304 4096 
Q 1760 4096 1389 3667 
Q 1184 3437 1065 3011 
Q 947 2586 947 2125 
Q 947 960 1523 429 
Q 1837 141 2317 141 
Q 2816 141 3142 448 
Q 3674 960 3674 2157 
z
" transform="scale(0.015625)"/>
       <path id="STIXGeneral-Regular-69" d="M 1152 4045 
Q 1152 3904 1056 3811 
Q 960 3718 819 3718 
Q 685 3718 592 3811 
Q 499 3904 499 4045 
Q 499 4179 595 4275 
Q 691 4371 826 4371 
Q 966 4371 1059 4275 
Q 1152 4179 1152 4045 
z
M 1619 0 
L 102 0 
L 102 96 
Q 435 115 521 211 
Q 608 307 608 666 
L 608 2118 
Q 608 2342 563 2432 
Q 518 2522 397 2522 
Q 243 2522 128 2490 
L 128 2592 
L 1120 2944 
L 1146 2918 
L 1146 672 
Q 1146 314 1226 218 
Q 1306 122 1619 96 
L 1619 0 
z
" transform="scale(0.015625)"/>
      </defs>
      <use xlink:href="#STIXGeneral-Regular-4f"/>
      <use xlink:href="#STIXGeneral-Regular-72" x="72.199982"/>
      <use xlink:href="#STIXGeneral-Regular-69" x="105.499969"/>
      <use xlink:href="#STIXGeneral-Regular-67" x="133.299957"/>
      <use xlink:href="#STIXGeneral-Regular-69" x="183.299942"/>
      <use xlink:href="#STIXGeneral-Regular-6e" x="211.09993"/>
      <use xlink:href="#STIXGeneral-Regular-61" x="261.099915"/>
      <use xlink:href="#STIXGeneral-Regular-6c" x="305.499908"/>
     </g>
    </g>
   </g>
  </g>
  <g id="axes_2">
   <g id="patch_6">
    <path d="M 19.64 227.462417 
L 447.344556 227.462417 
L 447.344556 159.883083 
L 19.64 159.883083 
z
" style="fill: #ffffff"/>
   </g>
   <g id="matplotlib.axis_3">
    <g id="xtick_12">
     <g id="line2d_19">
      <g>
       <use xlink:href="#m71116a5a4d" x="19.64" y="227.462417" style="fill: #323034; stroke: #323034; stroke-width: 0.8"/>
      </g>
     </g>
    </g>
    <g id="xtick_13">
     <g id="line2d_20">
      <g>
       <use xlink:href="#m71116a5a4d" x="61.571819" y="227.462417" style="fill: #323034; stroke: #323034; stroke-width: 0.8"/>
      </g>
     </g>
    </g>
    <g id="xtick_14">
     <g id="line2d_21">
      <g>
       <use xlink:href="#m71116a5a4d" x="104.901366" y="227.462417" style="fill: #323034; stroke: #323034; stroke-width: 0.8"/>
      </g>
     </g>
    </g>
    <g id="xtick_15">
     <g id="line2d_22">
      <g>
       <use xlink:href="#m71116a5a4d" x="146.833185" y="227.462417" style="fill: #323034; stroke: #323034; stroke-width: 0.8"/>
      </g>
     </g>
    </g>
    <g id="xtick_16">
     <g id="line2d_23">
      <g>
       <use xlink:href="#m71116a5a4d" x="190.162731" y="227.462417" style="fill: #323034; stroke: #323034; stroke-width: 0.8"/>
      </g>
     </g>
    </g>
    <g id="xtick_17">
     <g id="line2d_24">
      <g>
       <use xlink:href="#m71116a5a4d" x="233.492278" y="227.462417" style="fill: #323034; stroke: #323034; stroke-width: 0.8"/>
      </g>
     </g>
    </g>
    <g id="xtick_18">
     <g id="line2d_25">
      <g>
       <use xlink:href="#m71116a5a4d" x="275.424097" y="227.462417" style="fill: #323034; stroke: #323034; stroke-width: 0.8"/>
      </g>
     </g>
    </g>
    <g id="xtick_19">
     <g id="line2d_26">
      <g>
       <use xlink:href="#m71116a5a4d" x="318.753644" y="227.462417" style="fill: #323034; stroke: #323034; stroke-width: 0.8"/>
      </g>
     </g>
    </g>
    <g id="xtick_20">
     <g id="line2d_27">
      <g>
       <use xlink:href="#m71116a5a4d" x="360.685463" y="227.462417" style="fill: #323034; stroke: #323034; stroke-width: 0.8"/>
      </g>
     </g>
    </g>
    <g id="xtick_21">
     <g id="line2d_28">
      <g>
       <use xlink:href="#m71116a5a4d" x="404.015009" y="227.462417" style="fill: #323034; stroke: #323034; stroke-width: 0.8"/>
      </g>
     </g>
    </g>
    <g id="xtick_22">
     <g id="line2d_29">
      <g>
       <use xlink:href="#m71116a5a4d" x="447.344556" y="227.462417" style="fill: #323034; stroke: #323034; stroke-width: 0.8"/>
      </g>
     </g>
    </g>
   </g>
   <g id="matplotlib.axis_4">
    <g id="ytick_4">
     <g id="line2d_30">
      <g>
       <use xlink:href="#mc2f2920ff9" x="447.344556" y="227.462417" style="fill: #323034; stroke: #323034; stroke-width: 0.8"/>
      </g>
     </g>
     <g id="text_6">
      <!-- $\mathdefault{−0.5}$ -->
      <g style="fill: #323034" transform="translate(454.344556 232.926167) scale(0.16 -0.16)">
       <defs>
        <path id="STIXGeneral-Regular-2212" d="M 3974 1408 
L 410 1408 
L 410 1830 
L 3974 1830 
L 3974 1408 
z
" transform="scale(0.015625)"/>
       </defs>
       <use xlink:href="#STIXGeneral-Regular-2212" transform="translate(0 0.203125)"/>
       <use xlink:href="#STIXGeneral-Regular-30" transform="translate(68.499985 0.203125)"/>
       <use xlink:href="#STIXGeneral-Regular-2e" transform="translate(118.499969 0.203125)"/>
       <use xlink:href="#STIXGeneral-Regular-35" transform="translate(143.499954 0.203125)"/>
      </g>
     </g>
    </g>
    <g id="ytick_5">
     <g id="line2d_31">
      <g>
       <use xlink:href="#mc2f2920ff9" x="447.344556" y="193.67275" style="fill: #323034; stroke: #323034; stroke-width: 0.8"/>
      </g>
     </g>
     <g id="text_7">
      <!-- $\mathdefault{0.0}$ -->
      <g style="fill: #323034" transform="translate(454.344556 199.1365) scale(0.16 -0.16)">
       <use xlink:href="#STIXGeneral-Regular-30" transform="translate(0 0.40625)"/>
       <use xlink:href="#STIXGeneral-Regular-2e" transform="translate(49.999985 0.40625)"/>
       <use xlink:href="#STIXGeneral-Regular-30" transform="translate(74.999969 0.40625)"/>
      </g>
     </g>
    </g>
    <g id="ytick_6">
     <g id="line2d_32">
      <g>
       <use xlink:href="#mc2f2920ff9" x="447.344556" y="159.883083" style="fill: #323034; stroke: #323034; stroke-width: 0.8"/>
      </g>
     </g>
     <g id="text_8">
      <!-- $\mathdefault{0.5}$ -->
      <g style="fill: #323034" transform="translate(454.344556 165.346833) scale(0.16 -0.16)">
       <use xlink:href="#STIXGeneral-Regular-30" transform="translate(0 0.203125)"/>
       <use xlink:href="#STIXGeneral-Regular-2e" transform="translate(49.999985 0.203125)"/>
       <use xlink:href="#STIXGeneral-Regular-35" transform="translate(74.999969 0.203125)"/>
      </g>
     </g>
    </g>
    <g id="ytick_7">
     <g id="line2d_33">
      <g>
       <use xlink:href="#m3fa6e519ee" x="447.344556" y="210.567583" style="fill: #323034; stroke: #323034; stroke-width: 0.6"/>
      </g>
     </g>
    </g>
    <g id="ytick_8">
     <g id="line2d_34">
      <g>
       <use xlink:href="#m3fa6e519ee" x="447.344556" y="176.777917" style="fill: #323034; stroke: #323034; stroke-width: 0.6"/>
      </g>
     </g>
    </g>
   </g>
   <g id="line2d_35">
    <path d="M 19.64 195.202414 
L 21.037727 190.762663 
L 22.435455 189.057619 
L 23.833182 187.700238 
L 25.230909 204.121146 
L 26.628637 194.095264 
L 28.026364 197.368572 
L 29.424091 194.568459 
L 30.821818 188.837259 
L 32.219546 187.088731 
L 33.617273 188.931768 
L 35.015 202.385024 
L 36.412728 197.454591 
L 37.810455 198.750128 
L 39.208182 194.128458 
L 40.60591 187.064981 
L 42.003637 185.158415 
L 43.401364 189.847587 
L 44.799092 200.77977 
L 46.196819 200.797365 
L 47.594546 199.813852 
L 48.992273 193.885859 
L 50.390001 185.516419 
L 51.787728 183.21121 
L 53.185455 190.520775 
L 54.583183 199.542151 
L 55.98091 203.522735 
L 57.378637 200.327692 
L 58.776365 195.147149 
L 60.174092 184.568332 
L 61.571819 182.124928 
L 62.969546 189.839017 
L 64.367274 200.518086 
L 65.765001 203.280319 
L 67.162728 199.171416 
L 68.560456 196.848329 
L 69.958183 183.981566 
L 71.35591 182.477702 
L 72.753638 189.600784 
L 74.151365 201.183053 
L 75.549092 201.532918 
L 76.94682 198.12295 
L 78.344547 198.159181 
L 79.742274 183.850222 
L 81.140001 184.327726 
L 82.537729 190.039638 
L 83.935456 201.111039 
L 86.730911 197.557045 
L 88.128638 198.870971 
L 89.526365 185.280379 
L 90.924093 184.771735 
L 92.32182 189.556033 
L 93.719547 199.944528 
L 95.117275 199.101791 
L 96.515002 197.071024 
L 97.912729 198.49109 
L 99.310456 187.39502 
L 100.708184 184.700067 
L 102.105911 188.548496 
L 103.503638 199.474453 
L 104.901366 201.492942 
L 106.299093 195.896166 
L 107.69682 196.569421 
L 109.094548 189.284641 
L 110.492275 184.736975 
L 111.890002 187.57013 
L 113.28773 201.027601 
L 114.685457 202.973892 
L 116.083184 194.358081 
L 117.480911 194.173935 
L 118.878639 190.047797 
L 120.276366 185.060677 
L 121.674093 187.963454 
L 123.071821 202.885508 
L 124.469548 203.140107 
L 125.867275 193.134201 
L 127.265003 192.572993 
L 128.66273 189.395214 
L 130.060457 185.627537 
L 131.458184 189.650615 
L 132.855912 203.601568 
L 134.253639 202.4842 
L 135.651366 192.69467 
L 137.049094 191.959397 
L 139.844548 185.515824 
L 141.242276 191.895404 
L 142.640003 203.138875 
L 144.03773 201.545359 
L 145.435458 192.9748 
L 146.833185 191.493037 
L 148.230912 188.384123 
L 149.628639 185.646899 
L 151.026367 194.189558 
L 152.424094 201.676748 
L 153.821821 200.855123 
L 155.219549 193.366222 
L 156.617276 190.952374 
L 158.015003 188.007267 
L 159.412731 186.198353 
L 160.810458 195.34968 
L 162.208185 201.118042 
L 163.605913 200.338939 
L 165.00364 193.941574 
L 166.401367 190.474961 
L 167.799094 188.170706 
L 169.196822 186.345341 
L 170.594549 195.214118 
L 171.992276 201.359859 
L 173.390004 200.076632 
L 174.787731 194.286554 
L 176.185458 190.585545 
L 177.583186 187.785425 
L 178.980913 186.105906 
L 180.37864 194.778147 
L 181.776368 201.325465 
L 183.174095 201.044281 
L 184.571822 194.379669 
L 185.969549 191.035716 
L 188.765004 185.03058 
L 191.560459 201.756476 
L 192.958186 202.349858 
L 194.355913 194.354499 
L 195.753641 191.563937 
L 197.151368 188.40276 
L 198.549095 183.648613 
L 199.946822 191.9105 
L 201.34455 201.918831 
L 202.742277 204.051967 
L 204.140004 194.525419 
L 205.537732 192.608584 
L 206.935459 188.213813 
L 208.333186 183.030792 
L 209.730914 190.07637 
L 211.128641 203.486936 
L 212.526368 204.001807 
L 213.924096 194.347928 
L 215.321823 193.427244 
L 216.71955 187.430459 
L 218.117277 182.224163 
L 219.515005 188.799715 
L 220.912732 205.783981 
L 222.310459 203.397605 
L 223.708187 193.175589 
L 225.105914 197.22437 
L 226.503641 185.871072 
L 227.901369 180.854914 
L 229.299096 188.765814 
L 230.696823 207.242039 
L 232.094551 201.961498 
L 233.492278 193.040359 
L 234.890005 198.970559 
L 236.287732 185.306111 
L 237.68546 180.079359 
L 239.083187 189.771927 
L 240.480914 206.358633 
L 243.276369 193.371319 
L 244.674096 202.537877 
L 246.071824 185.56064 
L 247.469551 179.016809 
L 248.867278 191.164425 
L 250.265006 204.89441 
L 253.06046 194.888567 
L 254.458187 198.103871 
L 255.855915 186.899066 
L 257.253642 179.106996 
L 258.651369 192.189121 
L 260.049097 203.715814 
L 261.446824 200.697334 
L 262.844551 196.417107 
L 264.242279 195.098566 
L 267.037733 179.799036 
L 269.833188 204.043507 
L 271.230915 201.829195 
L 272.628642 196.971797 
L 274.02637 192.65323 
L 275.424097 187.222673 
L 276.821824 180.388522 
L 278.219552 192.053241 
L 279.617279 205.29887 
L 281.015006 201.982719 
L 283.810461 191.851717 
L 285.208188 186.774678 
L 286.605915 181.272589 
L 288.003643 191.26098 
L 289.40137 207.302201 
L 290.799097 199.996731 
L 292.196825 197.195247 
L 294.992279 186.474689 
L 296.390007 182.011879 
L 297.787734 190.708118 
L 299.185461 208.34971 
L 300.583189 198.22129 
L 301.980916 197.528616 
L 304.77637 186.841708 
L 306.174098 182.444679 
L 307.571825 190.62676 
L 308.969552 208.779474 
L 310.36728 196.16759 
L 311.765007 197.6325 
L 313.162734 193.166206 
L 314.560462 187.435973 
L 315.958189 182.942704 
L 317.355916 190.460197 
L 318.753644 208.480874 
L 320.151371 195.135892 
L 321.549098 197.075942 
L 322.946825 193.294981 
L 324.344553 187.684531 
L 325.74228 183.525619 
L 327.140007 192.027624 
L 328.537735 207.844749 
L 329.935462 194.488752 
L 331.333189 196.23428 
L 332.730917 193.024968 
L 334.128644 187.619681 
L 335.526371 183.919094 
L 336.924098 193.294745 
L 338.321826 208.096805 
L 339.719553 194.351637 
L 341.11728 195.048885 
L 342.515008 192.757483 
L 343.912735 187.422259 
L 345.310462 183.948292 
L 346.70819 193.877814 
L 348.105917 208.533261 
L 349.503644 195.055325 
L 350.901372 194.349195 
L 352.299099 192.092919 
L 355.094553 183.292299 
L 356.492281 194.496148 
L 357.890008 208.367145 
L 359.287735 196.146267 
L 360.685463 194.425613 
L 363.480917 188.203927 
L 364.878645 181.312734 
L 366.276372 195.396212 
L 367.674099 207.906916 
L 369.071827 197.865846 
L 370.469554 195.699936 
L 371.867281 190.518138 
L 373.265008 188.910997 
L 374.662736 177.730613 
L 376.060463 196.572652 
L 377.45819 207.132841 
L 378.855918 199.410529 
L 380.253645 197.61008 
L 381.651372 190.936969 
L 383.0491 190.409424 
L 384.446827 169.983617 
L 385.844554 197.039194 
L 387.242282 206.492742 
L 388.640009 200.794717 
L 390.037736 198.396287 
L 391.435463 190.225017 
L 392.833191 189.486308 
L 394.230918 178.49096 
L 395.628645 195.197449 
L 397.026373 205.34864 
L 398.4241 200.151963 
L 399.821827 198.04886 
L 401.219555 191.115114 
L 402.617282 189.359034 
L 404.015009 176.085376 
L 405.412736 194.538943 
L 406.810464 205.271941 
L 408.208191 199.523926 
L 409.605918 196.931527 
L 411.003646 192.015406 
L 412.401373 188.932136 
L 413.7991 181.419181 
L 415.196828 193.628507 
L 416.594555 204.777096 
L 417.992282 197.796345 
L 419.39001 195.899317 
L 420.787737 192.153845 
L 423.583191 183.900125 
L 424.980919 194.202307 
L 426.378646 205.856877 
L 427.776373 195.724621 
L 429.174101 194.999042 
L 430.571828 192.258509 
L 431.969555 187.292375 
L 433.367283 185.238369 
L 434.76501 195.354578 
L 436.162737 206.875223 
L 437.560465 193.663174 
L 438.958192 194.207284 
L 440.355919 192.328019 
L 441.753646 186.606521 
L 443.151374 186.400904 
L 444.549101 196.594363 
L 445.946828 207.942842 
L 447.344556 191.626904 
L 447.344556 191.626904 
" clip-path="url(#p09bb96a909)" style="fill: none; stroke: #0000ff; stroke-opacity: 0.3; stroke-width: 3; stroke-linecap: square"/>
   </g>
   <g id="patch_7">
    <path d="M 447.344556 227.462417 
L 447.344556 159.883083 
" style="fill: none; stroke: #000000; stroke-width: 0.6; stroke-linejoin: miter; stroke-linecap: square"/>
   </g>
   <g id="patch_8">
    <path d="M 19.64 227.462417 
L 447.344556 227.462417 
" style="fill: none; stroke: #000000; stroke-width: 0.6; stroke-linejoin: miter; stroke-linecap: square"/>
   </g>
   <g id="legend_2">
    <g id="patch_9">
     <path d="M 28.04 181.687458 
L 104.301875 181.687458 
Q 106.701875 181.687458 106.701875 179.287458 
L 106.701875 168.283083 
Q 106.701875 165.883083 104.301875 165.883083 
L 28.04 165.883083 
Q 25.64 165.883083 25.64 168.283083 
L 25.64 179.287458 
Q 25.64 181.687458 28.04 181.687458 
z
" style="fill: #ffffff; opacity: 0.8; stroke: #e6e6e6; stroke-width: 0.8; stroke-linejoin: miter"/>
    </g>
    <g id="line2d_36">
     <path d="M 28.04 172.483083 
L 40.04 172.483083 
L 52.04 172.483083 
" style="fill: none; stroke: #0000ff; stroke-opacity: 0.3; stroke-width: 3; stroke-linecap: square"/>
    </g>
    <g id="text_9">
     <!-- Seasonal -->
     <g style="fill: #323034" transform="translate(61.64 176.683083) scale(0.12 -0.12)">
      <defs>
       <path id="STIXGeneral-Regular-53" d="M 3002 2963 
L 2842 2963 
Q 2733 3360 2579 3565 
Q 2189 4064 1651 4064 
Q 1357 4064 1181 3894 
Q 1005 3725 1005 3456 
Q 1005 3328 1069 3206 
Q 1133 3085 1206 2998 
Q 1280 2912 1465 2784 
Q 1651 2656 1766 2589 
Q 1882 2522 2150 2362 
Q 2669 2061 2905 1763 
Q 3142 1466 3142 1107 
Q 3142 576 2771 243 
Q 2400 -90 1837 -90 
Q 1421 -90 1082 58 
Q 915 128 781 128 
Q 704 128 653 70 
Q 602 13 602 -83 
L 461 -83 
L 275 1274 
L 416 1274 
Q 845 141 1734 141 
Q 2074 141 2285 342 
Q 2496 544 2496 858 
Q 2496 1158 2310 1363 
Q 2003 1696 1235 2106 
Q 454 2522 454 3206 
Q 454 3718 768 4022 
Q 1082 4326 1568 4326 
Q 1907 4326 2240 4186 
Q 2413 4109 2522 4109 
Q 2688 4109 2726 4326 
L 2861 4326 
L 3002 2963 
z
" transform="scale(0.015625)"/>
      </defs>
      <use xlink:href="#STIXGeneral-Regular-53"/>
      <use xlink:href="#STIXGeneral-Regular-65" x="55.599991"/>
      <use xlink:href="#STIXGeneral-Regular-61" x="99.999985"/>
      <use xlink:href="#STIXGeneral-Regular-73" x="144.399979"/>
      <use xlink:href="#STIXGeneral-Regular-6f" x="183.299973"/>
      <use xlink:href="#STIXGeneral-Regular-6e" x="233.299957"/>
      <use xlink:href="#STIXGeneral-Regular-61" x="283.299942"/>
      <use xlink:href="#STIXGeneral-Regular-6c" x="327.699936"/>
     </g>
    </g>
   </g>
  </g>
  <g id="axes_3">
   <g id="patch_10">
    <path d="M 19.64 316.8755 
L 447.344556 316.8755 
L 447.344556 249.296167 
L 19.64 249.296167 
z
" style="fill: #ffffff"/>
   </g>
   <g id="matplotlib.axis_5">
    <g id="xtick_23">
     <g id="line2d_37">
      <g>
       <use xlink:href="#m71116a5a4d" x="19.64" y="316.8755" style="fill: #323034; stroke: #323034; stroke-width: 0.8"/>
      </g>
     </g>
     <g id="text_10">
      <!-- Apr -->
      <g style="fill: #323034" transform="translate(7.2 334.803) scale(0.16 -0.16)">
       <defs>
        <path id="STIXGeneral-Regular-41" d="M 4525 0 
L 2893 0 
L 2893 122 
Q 3149 122 3245 179 
Q 3334 224 3334 333 
Q 3334 499 3213 781 
L 2950 1382 
L 1274 1382 
L 979 653 
Q 922 506 922 384 
Q 922 237 1027 179 
Q 1133 122 1370 122 
L 1370 0 
L 96 0 
L 96 122 
Q 365 147 486 316 
Q 608 486 902 1190 
L 2221 4314 
L 2349 4314 
L 3923 710 
Q 4064 378 4176 262 
Q 4288 147 4525 122 
L 4525 0 
z
M 2861 1645 
L 2118 3405 
L 1382 1645 
L 2861 1645 
z
" transform="scale(0.015625)"/>
        <path id="STIXGeneral-Regular-70" d="M 1018 2931 
L 1018 2438 
Q 1421 2944 1939 2944 
Q 2406 2944 2707 2560 
Q 3008 2176 3008 1581 
Q 3008 883 2621 409 
Q 2234 -64 1664 -64 
Q 1466 -64 1328 -6 
Q 1190 51 1018 211 
L 1018 -794 
Q 1018 -1094 1120 -1180 
Q 1222 -1267 1581 -1274 
L 1581 -1389 
L 32 -1389 
L 32 -1280 
Q 314 -1254 397 -1171 
Q 480 -1088 480 -838 
L 480 2157 
Q 480 2381 429 2451 
Q 378 2522 218 2522 
Q 115 2522 58 2515 
L 58 2618 
Q 506 2752 979 2944 
L 1018 2931 
z
M 1018 2138 
L 1018 563 
Q 1018 422 1238 281 
Q 1459 141 1683 141 
Q 2029 141 2243 467 
Q 2458 794 2458 1325 
Q 2458 1888 2243 2224 
Q 2029 2560 1670 2560 
Q 1446 2560 1232 2419 
Q 1018 2278 1018 2138 
z
" transform="scale(0.015625)"/>
       </defs>
       <use xlink:href="#STIXGeneral-Regular-41"/>
       <use xlink:href="#STIXGeneral-Regular-70" x="72.199982"/>
       <use xlink:href="#STIXGeneral-Regular-72" x="122.199966"/>
      </g>
     </g>
    </g>
    <g id="xtick_24">
     <g id="line2d_38">
      <g>
       <use xlink:href="#m71116a5a4d" x="61.571819" y="316.8755" style="fill: #323034; stroke: #323034; stroke-width: 0.8"/>
      </g>
     </g>
     <g id="text_11">
      <!-- May -->
      <g style="fill: #323034" transform="translate(46.906819 334.788) scale(0.16 -0.16)">
       <defs>
        <path id="STIXGeneral-Regular-4d" d="M 5530 0 
L 3738 0 
L 3738 122 
Q 4115 147 4214 265 
Q 4314 384 4314 787 
L 4314 3661 
L 2682 0 
L 2592 0 
L 979 3514 
L 979 966 
Q 979 448 1088 294 
Q 1197 141 1574 122 
L 1574 0 
L 77 0 
L 77 122 
Q 358 141 480 205 
Q 602 269 650 432 
Q 698 595 698 966 
L 698 3514 
Q 698 3878 589 3984 
Q 480 4090 90 4115 
L 90 4237 
L 1357 4237 
L 2835 1024 
L 4250 4237 
L 5523 4237 
L 5523 4115 
Q 5178 4109 5072 3993 
Q 4966 3878 4966 3520 
L 4966 717 
Q 4966 378 5072 262 
Q 5178 147 5530 122 
L 5530 0 
z
" transform="scale(0.015625)"/>
        <path id="STIXGeneral-Regular-79" d="M 3040 2880 
L 3040 2784 
Q 2925 2771 2854 2700 
Q 2784 2630 2720 2458 
L 1760 -160 
Q 1510 -838 1257 -1116 
Q 1005 -1395 640 -1395 
Q 435 -1395 313 -1289 
Q 192 -1184 192 -1024 
Q 192 -902 272 -816 
Q 352 -730 467 -730 
Q 653 -730 800 -813 
Q 883 -858 966 -858 
Q 1101 -858 1286 -576 
Q 1376 -448 1459 -211 
Q 1542 26 1542 115 
Q 1542 198 1274 762 
L 429 2566 
Q 346 2752 90 2790 
L 90 2880 
L 1402 2880 
L 1402 2784 
Q 1197 2778 1117 2739 
Q 1037 2701 1037 2611 
Q 1037 2541 1120 2349 
L 1837 749 
L 2458 2515 
Q 2483 2573 2483 2630 
Q 2483 2784 2189 2784 
L 2189 2880 
L 3040 2880 
z
" transform="scale(0.015625)"/>
       </defs>
       <use xlink:href="#STIXGeneral-Regular-4d"/>
       <use xlink:href="#STIXGeneral-Regular-61" x="88.899994"/>
       <use xlink:href="#STIXGeneral-Regular-79" x="133.299988"/>
      </g>
     </g>
    </g>
    <g id="xtick_25">
     <g id="line2d_39">
      <g>
       <use xlink:href="#m71116a5a4d" x="104.901366" y="316.8755" style="fill: #323034; stroke: #323034; stroke-width: 0.8"/>
      </g>
     </g>
     <g id="text_12">
      <!-- Jun -->
      <g style="fill: #323034" transform="translate(93.917616 334.803) scale(0.16 -0.16)">
       <defs>
        <path id="STIXGeneral-Regular-4a" d="M 2266 4237 
L 2266 4115 
Q 1875 4083 1776 3984 
Q 1677 3885 1677 3514 
L 1677 1184 
Q 1677 -90 608 -90 
Q 314 -90 138 32 
Q -38 154 -38 371 
Q -38 499 54 601 
Q 147 704 275 704 
Q 486 704 589 435 
Q 602 403 621 348 
Q 640 294 649 265 
Q 659 237 678 208 
Q 698 179 723 166 
Q 749 154 787 154 
Q 928 154 976 253 
Q 1024 352 1024 602 
L 1024 3520 
Q 1024 3898 928 3990 
Q 832 4083 429 4115 
L 429 4237 
L 2266 4237 
z
" transform="scale(0.015625)"/>
        <path id="STIXGeneral-Regular-75" d="M 3072 320 
L 3072 230 
Q 2573 96 2195 -58 
L 2163 -38 
L 2163 486 
L 2150 486 
Q 1747 -64 1235 -64 
Q 870 -64 662 160 
Q 454 384 454 755 
L 454 2362 
Q 454 2598 371 2688 
Q 288 2778 58 2790 
L 58 2880 
L 992 2880 
L 992 813 
Q 992 595 1123 451 
Q 1254 307 1446 307 
Q 1760 307 1984 506 
Q 2067 582 2099 649 
Q 2131 717 2131 877 
L 2131 2355 
Q 2131 2605 2041 2678 
Q 1952 2752 1658 2771 
L 1658 2880 
L 2669 2880 
L 2669 685 
Q 2669 461 2742 390 
Q 2816 320 3034 320 
L 3072 320 
z
" transform="scale(0.015625)"/>
       </defs>
       <use xlink:href="#STIXGeneral-Regular-4a"/>
       <use xlink:href="#STIXGeneral-Regular-75" x="37.299988"/>
       <use xlink:href="#STIXGeneral-Regular-6e" x="87.299973"/>
      </g>
     </g>
    </g>
    <g id="xtick_26">
     <g id="line2d_40">
      <g>
       <use xlink:href="#m71116a5a4d" x="146.833185" y="316.8755" style="fill: #323034; stroke: #323034; stroke-width: 0.8"/>
      </g>
     </g>
     <g id="text_13">
      <!-- Jul -->
      <g style="fill: #323034" transform="translate(137.625685 334.803) scale(0.16 -0.16)">
       <use xlink:href="#STIXGeneral-Regular-4a"/>
       <use xlink:href="#STIXGeneral-Regular-75" x="37.299988"/>
       <use xlink:href="#STIXGeneral-Regular-6c" x="87.299973"/>
      </g>
     </g>
    </g>
    <g id="xtick_27">
     <g id="line2d_41">
      <g>
       <use xlink:href="#m71116a5a4d" x="190.162731" y="316.8755" style="fill: #323034; stroke: #323034; stroke-width: 0.8"/>
      </g>
     </g>
     <g id="text_14">
      <!-- Aug -->
      <g style="fill: #323034" transform="translate(176.386481 334.788) scale(0.16 -0.16)">
       <use xlink:href="#STIXGeneral-Regular-41"/>
       <use xlink:href="#STIXGeneral-Regular-75" x="72.199982"/>
       <use xlink:href="#STIXGeneral-Regular-67" x="122.199966"/>
      </g>
     </g>
    </g>
    <g id="xtick_28">
     <g id="line2d_42">
      <g>
       <use xlink:href="#m71116a5a4d" x="233.492278" y="316.8755" style="fill: #323034; stroke: #323034; stroke-width: 0.8"/>
      </g>
     </g>
     <g id="text_15">
      <!-- Sep -->
      <g style="fill: #323034" transform="translate(221.492278 334.803) scale(0.16 -0.16)">
       <use xlink:href="#STIXGeneral-Regular-53"/>
       <use xlink:href="#STIXGeneral-Regular-65" x="55.599991"/>
       <use xlink:href="#STIXGeneral-Regular-70" x="99.999985"/>
      </g>
     </g>
    </g>
    <g id="xtick_29">
     <g id="line2d_43">
      <g>
       <use xlink:href="#m71116a5a4d" x="275.424097" y="316.8755" style="fill: #323034; stroke: #323034; stroke-width: 0.8"/>
      </g>
     </g>
     <g id="text_16">
      <!-- Oct -->
      <g style="fill: #323034" transform="translate(263.871597 334.803) scale(0.16 -0.16)">
       <defs>
        <path id="STIXGeneral-Regular-74" d="M 1702 493 
L 1786 422 
Q 1478 -64 1011 -64 
Q 448 -64 448 749 
L 448 2675 
L 109 2675 
Q 83 2694 83 2720 
Q 83 2771 192 2842 
Q 435 2982 813 3526 
Q 826 3546 874 3606 
Q 922 3667 941 3706 
Q 986 3706 986 3622 
L 986 2880 
L 1632 2880 
L 1632 2675 
L 986 2675 
L 986 845 
Q 986 538 1062 403 
Q 1139 269 1318 269 
Q 1510 269 1702 493 
z
" transform="scale(0.015625)"/>
       </defs>
       <use xlink:href="#STIXGeneral-Regular-4f"/>
       <use xlink:href="#STIXGeneral-Regular-63" x="72.199982"/>
       <use xlink:href="#STIXGeneral-Regular-74" x="116.599976"/>
      </g>
     </g>
    </g>
    <g id="xtick_30">
     <g id="line2d_44">
      <g>
       <use xlink:href="#m71116a5a4d" x="318.753644" y="316.8755" style="fill: #323034; stroke: #323034; stroke-width: 0.8"/>
      </g>
     </g>
     <g id="text_17">
      <!-- Nov -->
      <g style="fill: #323034" transform="translate(304.977394 334.803) scale(0.16 -0.16)">
       <defs>
        <path id="STIXGeneral-Regular-4e" d="M 4525 4237 
L 4525 4115 
Q 4198 4083 4102 4000 
Q 4000 3910 3958 3756 
Q 3917 3603 3917 3245 
L 3917 -70 
L 3802 -70 
L 979 3443 
L 979 960 
Q 979 474 1088 323 
Q 1197 173 1574 122 
L 1574 0 
L 77 0 
L 77 122 
Q 474 166 586 310 
Q 698 454 698 960 
L 698 3776 
Q 531 3981 416 4048 
Q 301 4115 77 4115 
L 77 4237 
L 1165 4237 
L 3635 1146 
L 3635 3322 
Q 3635 3808 3514 3949 
Q 3437 4032 3344 4061 
Q 3251 4090 3008 4115 
L 3008 4237 
L 4525 4237 
z
" transform="scale(0.015625)"/>
        <path id="STIXGeneral-Regular-76" d="M 3053 2880 
L 3053 2784 
Q 2906 2771 2835 2688 
Q 2765 2605 2637 2285 
L 1818 230 
Q 1690 -90 1638 -90 
Q 1587 -90 1523 77 
Q 1510 96 1497 141 
Q 1485 186 1472 211 
L 704 2048 
Q 499 2534 403 2652 
Q 307 2771 122 2784 
L 122 2880 
L 1376 2880 
L 1376 2784 
Q 1210 2771 1146 2732 
Q 1082 2694 1082 2611 
Q 1082 2509 1139 2368 
L 1792 730 
L 2426 2387 
Q 2464 2483 2464 2579 
Q 2464 2758 2163 2784 
L 2163 2880 
L 3053 2880 
z
" transform="scale(0.015625)"/>
       </defs>
       <use xlink:href="#STIXGeneral-Regular-4e"/>
       <use xlink:href="#STIXGeneral-Regular-6f" x="72.199982"/>
       <use xlink:href="#STIXGeneral-Regular-76" x="122.199966"/>
      </g>
     </g>
    </g>
    <g id="xtick_31">
     <g id="line2d_45">
      <g>
       <use xlink:href="#m71116a5a4d" x="360.685463" y="316.8755" style="fill: #323034; stroke: #323034; stroke-width: 0.8"/>
      </g>
     </g>
     <g id="text_18">
      <!-- Dec -->
      <g style="fill: #323034" transform="translate(347.804213 334.803) scale(0.16 -0.16)">
       <defs>
        <path id="STIXGeneral-Regular-44" d="M 102 4237 
L 1830 4237 
Q 3078 4237 3750 3654 
Q 4384 3110 4384 2138 
Q 4384 966 3514 410 
Q 2880 0 1901 0 
L 102 0 
L 102 122 
Q 474 147 570 252 
Q 666 358 666 736 
L 666 3520 
Q 666 3891 570 3990 
Q 474 4090 102 4115 
L 102 4237 
z
M 1318 3731 
L 1318 538 
Q 1318 365 1379 301 
Q 1440 237 1626 237 
Q 2125 237 2432 307 
Q 2739 378 3021 570 
Q 3686 1018 3686 2099 
Q 3686 3027 3078 3558 
Q 2803 3802 2476 3901 
Q 2150 4000 1658 4000 
Q 1472 4000 1395 3942 
Q 1318 3885 1318 3731 
z
" transform="scale(0.015625)"/>
       </defs>
       <use xlink:href="#STIXGeneral-Regular-44"/>
       <use xlink:href="#STIXGeneral-Regular-65" x="72.199982"/>
       <use xlink:href="#STIXGeneral-Regular-63" x="116.599976"/>
      </g>
     </g>
    </g>
    <g id="xtick_32">
     <g id="line2d_46">
      <g>
       <use xlink:href="#m71116a5a4d" x="404.015009" y="316.8755" style="fill: #323034; stroke: #323034; stroke-width: 0.8"/>
      </g>
     </g>
     <g id="text_19">
      <!-- Jan -->
      <g style="fill: #323034" transform="translate(393.478759 334.803) scale(0.16 -0.16)">
       <use xlink:href="#STIXGeneral-Regular-4a"/>
       <use xlink:href="#STIXGeneral-Regular-61" x="37.299988"/>
       <use xlink:href="#STIXGeneral-Regular-6e" x="81.699982"/>
      </g>
      <!-- 2021 -->
      <g style="fill: #323034" transform="translate(388.015009 351.3885) scale(0.16 -0.16)">
       <use xlink:href="#STIXGeneral-Regular-32"/>
       <use xlink:href="#STIXGeneral-Regular-30" x="49.999985"/>
       <use xlink:href="#STIXGeneral-Regular-32" x="99.999969"/>
       <use xlink:href="#STIXGeneral-Regular-31" x="149.999954"/>
      </g>
     </g>
    </g>
    <g id="xtick_33">
     <g id="line2d_47">
      <g>
       <use xlink:href="#m71116a5a4d" x="447.344556" y="316.8755" style="fill: #323034; stroke: #323034; stroke-width: 0.8"/>
      </g>
     </g>
     <g id="text_20">
      <!-- Feb -->
      <g style="fill: #323034" transform="translate(435.344556 334.803) scale(0.16 -0.16)">
       <defs>
        <path id="STIXGeneral-Regular-46" d="M 3494 3322 
L 3334 3322 
Q 3264 3757 3094 3875 
Q 2925 3994 2349 3994 
L 1504 3994 
Q 1370 3994 1328 3946 
Q 1286 3898 1286 3744 
L 1286 2355 
L 2195 2355 
Q 2598 2355 2736 2470 
Q 2874 2586 2918 2963 
L 3066 2963 
L 3066 1472 
L 2918 1472 
Q 2880 1862 2745 1977 
Q 2611 2093 2195 2093 
L 1286 2093 
L 1286 717 
Q 1286 352 1392 246 
Q 1498 141 1869 122 
L 1869 0 
L 70 0 
L 70 122 
Q 435 147 534 259 
Q 634 371 634 787 
L 634 3526 
Q 634 3878 538 3984 
Q 442 4090 77 4115 
L 77 4237 
L 3462 4237 
L 3494 3322 
z
" transform="scale(0.015625)"/>
        <path id="STIXGeneral-Regular-62" d="M 979 4358 
L 979 2406 
Q 1082 2650 1315 2797 
Q 1549 2944 1843 2944 
Q 2349 2944 2672 2541 
Q 2995 2138 2995 1536 
Q 2995 832 2566 384 
Q 2138 -64 1498 -64 
Q 1107 -64 774 67 
Q 442 198 442 358 
L 442 3622 
Q 442 3859 384 3926 
Q 326 3994 128 3994 
Q 83 3994 19 3981 
L 19 4090 
L 211 4147 
Q 864 4346 947 4371 
L 979 4358 
z
M 979 2035 
L 979 474 
Q 979 326 1161 233 
Q 1344 141 1600 141 
Q 1978 141 2195 416 
Q 2432 710 2432 1261 
Q 2432 1888 2182 2240 
Q 1971 2541 1613 2541 
Q 1357 2541 1168 2390 
Q 979 2240 979 2035 
z
" transform="scale(0.015625)"/>
       </defs>
       <use xlink:href="#STIXGeneral-Regular-46"/>
       <use xlink:href="#STIXGeneral-Regular-65" x="55.599991"/>
       <use xlink:href="#STIXGeneral-Regular-62" x="99.999985"/>
      </g>
     </g>
    </g>
   </g>
   <g id="matplotlib.axis_6">
    <g id="ytick_9">
     <g id="line2d_48">
      <g>
       <use xlink:href="#mc2f2920ff9" x="447.344556" y="316.8755" style="fill: #323034; stroke: #323034; stroke-width: 0.8"/>
      </g>
     </g>
     <g id="text_21">
      <!-- $\mathdefault{−2}$ -->
      <g style="fill: #323034" transform="translate(454.344556 322.33925) scale(0.16 -0.16)">
       <use xlink:href="#STIXGeneral-Regular-2212" transform="translate(0 0.40625)"/>
       <use xlink:href="#STIXGeneral-Regular-32" transform="translate(68.499985 0.40625)"/>
      </g>
     </g>
    </g>
    <g id="ytick_10">
     <g id="line2d_49">
      <g>
       <use xlink:href="#mc2f2920ff9" x="447.344556" y="271.822611" style="fill: #323034; stroke: #323034; stroke-width: 0.8"/>
      </g>
     </g>
     <g id="text_22">
      <!-- $\mathdefault{0}$ -->
      <g style="fill: #323034" transform="translate(454.344556 277.286361) scale(0.16 -0.16)">
       <use xlink:href="#STIXGeneral-Regular-30" transform="translate(0 0.40625)"/>
      </g>
     </g>
    </g>
    <g id="ytick_11">
     <g id="line2d_50">
      <g>
       <use xlink:href="#m3fa6e519ee" x="447.344556" y="294.349056" style="fill: #323034; stroke: #323034; stroke-width: 0.6"/>
      </g>
     </g>
    </g>
    <g id="ytick_12">
     <g id="line2d_51">
      <g>
       <use xlink:href="#m3fa6e519ee" x="447.344556" y="249.296167" style="fill: #323034; stroke: #323034; stroke-width: 0.6"/>
      </g>
     </g>
    </g>
   </g>
   <g id="line2d_52">
    <path d="M 19.64 272.961217 
L 21.037727 272.495736 
L 23.833182 270.254349 
L 25.230909 272.095136 
L 26.628637 271.405526 
L 28.026364 270.929385 
L 29.424091 270.919039 
L 30.821818 270.767613 
L 32.219546 271.997231 
L 33.617273 272.397059 
L 35.015 271.159438 
L 36.412728 273.660137 
L 37.810455 272.140251 
L 39.208182 270.804372 
L 40.60591 271.864328 
L 42.003637 272.49449 
L 43.401364 273.251543 
L 44.799092 272.216508 
L 46.196819 270.530577 
L 47.594546 272.563974 
L 50.390001 270.950786 
L 53.185455 268.577027 
L 54.583183 271.093201 
L 55.98091 272.812157 
L 57.378637 272.308857 
L 58.776365 272.143487 
L 60.174092 272.446447 
L 61.571819 270.508462 
L 62.969546 270.903578 
L 64.367274 269.796115 
L 65.765001 272.492455 
L 67.162728 271.75258 
L 68.560456 271.306123 
L 69.958183 271.745275 
L 71.35591 272.540307 
L 72.753638 272.268043 
L 74.151365 272.710079 
L 75.549092 275.551762 
L 76.94682 271.160749 
L 78.344547 272.193195 
L 79.742274 271.385685 
L 82.537729 272.083647 
L 83.935456 273.172318 
L 85.333183 270.46142 
L 86.730911 271.770589 
L 88.128638 269.006049 
L 90.924093 272.594487 
L 92.32182 272.242061 
L 93.719547 270.923199 
L 95.117275 272.133802 
L 96.515002 273.017103 
L 99.310456 272.413957 
L 100.708184 271.412726 
L 102.105911 271.239619 
L 103.503638 270.466931 
L 104.901366 268.459482 
L 106.299093 271.457156 
L 109.094548 272.605039 
L 110.492275 267.668574 
L 111.890002 272.269442 
L 114.685457 272.292742 
L 116.083184 274.682829 
L 117.480911 270.654515 
L 118.878639 272.032791 
L 120.276366 271.962694 
L 121.674093 271.565857 
L 123.071821 273.406839 
L 124.469548 272.774056 
L 125.867275 272.006474 
L 127.265003 272.317913 
L 128.66273 272.298509 
L 130.060457 272.480704 
L 131.458184 271.411542 
L 132.855912 272.27181 
L 134.253639 270.545906 
L 135.651366 271.801791 
L 137.049094 271.968643 
L 139.844548 271.533324 
L 141.242276 272.03683 
L 142.640003 270.734677 
L 144.03773 272.100079 
L 145.435458 271.10592 
L 146.833185 271.499393 
L 148.230912 270.708017 
L 149.628639 271.500251 
L 151.026367 272.145147 
L 152.424094 272.627451 
L 153.821821 272.160586 
L 155.219549 272.204925 
L 156.617276 271.505116 
L 158.015003 272.990036 
L 159.412731 271.307993 
L 160.810458 271.490609 
L 162.208185 271.189057 
L 163.605913 270.430892 
L 165.00364 271.445145 
L 166.401367 271.899438 
L 167.799094 270.501619 
L 169.196822 272.640966 
L 170.594549 272.553243 
L 171.992276 270.544812 
L 173.390004 271.839789 
L 174.787731 271.808465 
L 176.185458 271.520423 
L 177.583186 272.318533 
L 178.980913 271.69148 
L 180.37864 270.8635 
L 181.776368 273.239552 
L 183.174095 271.154428 
L 184.571822 271.643711 
L 185.969549 271.127884 
L 187.367277 270.964408 
L 188.765004 271.437701 
L 190.162731 272.512869 
L 191.560459 271.761844 
L 192.958186 272.618276 
L 194.355913 272.198795 
L 195.753641 272.792753 
L 197.151368 272.154643 
L 198.549095 272.266567 
L 201.34455 271.228453 
L 202.742277 270.986243 
L 204.140004 271.175075 
L 205.537732 271.111072 
L 206.935459 272.225103 
L 208.333186 271.251325 
L 209.730914 271.865348 
L 211.128641 270.955854 
L 212.526368 272.795932 
L 213.924096 272.236468 
L 218.117277 271.891049 
L 219.515005 271.322125 
L 220.912732 272.938848 
L 222.310459 268.599021 
L 223.708187 272.649703 
L 225.105914 268.029641 
L 226.503641 271.47066 
L 227.901369 272.877936 
L 229.299096 271.390849 
L 230.696823 271.896141 
L 232.094551 271.768746 
L 233.492278 270.50954 
L 234.890005 275.382653 
L 236.287732 271.75827 
L 237.68546 270.666279 
L 239.083187 271.904968 
L 240.480914 273.865777 
L 241.878642 279.824441 
L 243.276369 278.624719 
L 244.674096 272.240559 
L 246.071824 274.76658 
L 247.469551 271.916571 
L 248.867278 272.49096 
L 250.265006 271.753024 
L 251.662733 271.356221 
L 253.06046 271.847623 
L 254.458187 270.942397 
L 255.855915 271.605124 
L 257.253642 272.594061 
L 258.651369 271.838701 
L 260.049097 271.24549 
L 261.446824 263.057177 
L 262.844551 273.276497 
L 264.242279 271.471023 
L 265.640006 272.198411 
L 267.037733 270.687347 
L 268.43546 272.26275 
L 269.833188 271.408483 
L 271.230915 272.236428 
L 272.628642 270.447808 
L 274.02637 272.87128 
L 275.424097 272.607477 
L 276.821824 271.91581 
L 278.219552 270.982987 
L 279.617279 273.936398 
L 281.015006 262.459899 
L 282.412734 273.114327 
L 283.810461 270.404606 
L 285.208188 271.165533 
L 286.605915 272.511833 
L 288.003643 272.746047 
L 289.40137 271.168864 
L 290.799097 272.560202 
L 292.196825 271.185874 
L 293.594552 271.346647 
L 296.390007 271.869221 
L 297.787734 275.93569 
L 300.583189 269.578813 
L 301.980916 272.081725 
L 303.378643 273.098768 
L 304.77637 272.02015 
L 306.174098 271.299998 
L 307.571825 271.086088 
L 308.969552 271.872573 
L 310.36728 271.692112 
L 311.765007 271.900432 
L 313.162734 271.849151 
L 314.560462 272.113495 
L 315.958189 272.149717 
L 317.355916 274.270684 
L 318.753644 271.952959 
L 320.151371 271.963604 
L 321.549098 272.64967 
L 322.946825 271.387274 
L 325.74228 272.116243 
L 327.140007 271.519443 
L 329.935462 271.882369 
L 331.333189 270.681625 
L 332.730917 272.090419 
L 335.526371 271.239295 
L 336.924098 271.686764 
L 338.321826 270.918242 
L 339.719553 271.223447 
L 341.11728 272.035899 
L 342.515008 271.675598 
L 346.70819 272.033647 
L 348.105917 271.813018 
L 349.503644 270.943183 
L 352.299099 271.862739 
L 353.696826 286.03178 
L 355.094553 272.067397 
L 356.492281 275.435679 
L 357.890008 273.397201 
L 359.287735 273.015084 
L 360.685463 271.820833 
L 362.08319 271.389008 
L 363.480917 271.225343 
L 364.878645 272.729971 
L 366.276372 271.147578 
L 367.674099 271.381725 
L 369.071827 271.111911 
L 370.469554 270.476341 
L 371.867281 272.415402 
L 373.265008 272.491177 
L 374.662736 271.459426 
L 376.060463 272.022369 
L 377.45819 271.301378 
L 378.855918 272.013958 
L 380.253645 272.374131 
L 381.651372 270.376445 
L 383.0491 271.195189 
L 384.446827 276.737803 
L 385.844554 273.510075 
L 387.242282 271.982924 
L 388.640009 271.258658 
L 390.037736 272.008735 
L 391.435463 271.951199 
L 392.833191 275.816297 
L 394.230918 294.116328 
L 395.628645 271.294911 
L 397.026373 275.879734 
L 398.4241 272.721237 
L 399.821827 272.110464 
L 401.219555 271.733296 
L 402.617282 272.482938 
L 404.015009 287.458986 
L 405.412736 266.35453 
L 406.810464 271.496163 
L 408.208191 268.82145 
L 409.605918 271.637892 
L 411.003646 271.647786 
L 412.401373 270.692354 
L 413.7991 271.52841 
L 415.196828 271.246801 
L 416.594555 271.464371 
L 417.992282 271.468061 
L 419.39001 271.20218 
L 420.787737 271.914289 
L 422.185464 271.660292 
L 423.583191 272.357589 
L 424.980919 272.069238 
L 426.378646 271.36153 
L 427.776373 278.245529 
L 429.174101 271.474263 
L 431.969555 272.267506 
L 433.367283 272.144589 
L 434.76501 271.096672 
L 436.162737 272.499571 
L 437.560465 272.113463 
L 438.958192 272.315586 
L 440.355919 271.70489 
L 441.753646 271.678118 
L 443.151374 271.487343 
L 444.549101 272.291199 
L 445.946828 271.643968 
L 447.344556 271.743957 
L 447.344556 271.743957 
" clip-path="url(#p86b17675fb)" style="fill: none; stroke: #ff0000; stroke-opacity: 0.4; stroke-width: 3; stroke-linecap: square"/>
   </g>
   <g id="patch_11">
    <path d="M 447.344556 316.8755 
L 447.344556 249.296167 
" style="fill: none; stroke: #000000; stroke-width: 0.6; stroke-linejoin: miter; stroke-linecap: square"/>
   </g>
   <g id="patch_12">
    <path d="M 19.64 316.8755 
L 447.344556 316.8755 
" style="fill: none; stroke: #000000; stroke-width: 0.6; stroke-linejoin: miter; stroke-linecap: square"/>
   </g>
   <g id="legend_3">
    <g id="patch_13">
     <path d="M 28.04 310.8755 
L 86.958125 310.8755 
Q 89.358125 310.8755 89.358125 308.4755 
L 89.358125 297.471125 
Q 89.358125 295.071125 86.958125 295.071125 
L 28.04 295.071125 
Q 25.64 295.071125 25.64 297.471125 
L 25.64 308.4755 
Q 25.64 310.8755 28.04 310.8755 
z
" style="fill: #ffffff; opacity: 0.8; stroke: #e6e6e6; stroke-width: 0.8; stroke-linejoin: miter"/>
    </g>
    <g id="line2d_53">
     <path d="M 28.04 301.671125 
L 40.04 301.671125 
L 52.04 301.671125 
" style="fill: none; stroke: #ff0000; stroke-opacity: 0.4; stroke-width: 3; stroke-linecap: square"/>
    </g>
    <g id="text_23">
     <!-- Error -->
     <g style="fill: #323034" transform="translate(61.64 305.871125) scale(0.12 -0.12)">
      <defs>
       <path id="STIXGeneral-Regular-45" d="M 3821 1082 
L 3526 0 
L 77 0 
L 77 122 
Q 442 147 538 252 
Q 634 358 634 730 
L 634 3520 
Q 634 3878 534 3987 
Q 435 4096 77 4115 
L 77 4237 
L 3469 4237 
L 3494 3322 
L 3334 3322 
Q 3264 3750 3085 3872 
Q 2906 3994 2349 3994 
L 1510 3994 
Q 1370 3994 1328 3952 
Q 1286 3910 1286 3763 
L 1286 2355 
L 2253 2355 
Q 2656 2355 2787 2470 
Q 2918 2586 2976 2970 
L 3123 2970 
L 3123 1472 
L 2976 1472 
Q 2918 1875 2790 1984 
Q 2662 2093 2253 2093 
L 1286 2093 
L 1286 538 
Q 1286 346 1420 291 
Q 1555 237 1933 237 
L 2163 237 
Q 2848 237 3136 403 
Q 3424 570 3642 1082 
L 3821 1082 
z
" transform="scale(0.015625)"/>
      </defs>
      <use xlink:href="#STIXGeneral-Regular-45"/>
      <use xlink:href="#STIXGeneral-Regular-72" x="61.099991"/>
      <use xlink:href="#STIXGeneral-Regular-72" x="94.399979"/>
      <use xlink:href="#STIXGeneral-Regular-6f" x="127.699966"/>
      <use xlink:href="#STIXGeneral-Regular-72" x="177.699951"/>
     </g>
    </g>
   </g>
  </g>
  <g id="text_24">
   <!-- STL -->
   <g style="fill: #323034" transform="translate(227.592969 21.542344) scale(0.21 -0.21)">
    <defs>
     <path id="STIXGeneral-Regular-4c" d="M 3827 1114 
L 3520 0 
L 77 0 
L 77 122 
Q 429 141 531 256 
Q 634 371 634 736 
L 634 3494 
Q 634 3872 541 3981 
Q 448 4090 77 4115 
L 77 4237 
L 1888 4237 
L 1888 4115 
Q 1498 4090 1392 3984 
Q 1286 3878 1286 3507 
L 1286 538 
Q 1286 358 1398 304 
Q 1510 250 1862 250 
L 2310 250 
Q 3085 250 3392 640 
Q 3520 813 3661 1114 
L 3827 1114 
z
" transform="scale(0.015625)"/>
    </defs>
    <use xlink:href="#STIXGeneral-Regular-53"/>
    <use xlink:href="#STIXGeneral-Regular-54" x="55.599991"/>
    <use xlink:href="#STIXGeneral-Regular-4c" x="116.699982"/>
   </g>
  </g>
 </g>
 <defs>
  <clipPath id="p05433efeaa">
   <rect x="19.64" y="70.47" width="427.704556" height="67.579333"/>
  </clipPath>
  <clipPath id="p09bb96a909">
   <rect x="19.64" y="159.883083" width="427.704556" height="67.579333"/>
  </clipPath>
  <clipPath id="p86b17675fb">
   <rect x="19.64" y="249.296167" width="427.704556" height="67.579333"/>
  </clipPath>
 </defs>
</svg>