<?xml version="1.0" encoding="utf-8" standalone="no"?>
<!DOCTYPE svg PUBLIC "-//W3C//DTD SVG 1.1//EN"
  "http://www.w3.org/Graphics/SVG/1.1/DTD/svg11.dtd">
<svg xmlns:xlink="http://www.w3.org/1999/xlink" width="584.39952pt" height="368.39952pt" viewBox="0 0 584.39952 368.39952" xmlns="http://www.w3.org/2000/svg" version="1.1">
 <metadata>
  <rdf:RDF xmlns:dc="http://purl.org/dc/elements/1.1/" xmlns:cc="http://creativecommons.org/ns#" xmlns:rdf="http://www.w3.org/1999/02/22-rdf-syntax-ns#">
   <cc:Work>
    <dc:type rdf:resource="http://purl.org/dc/dcmitype/StillImage"/>
    <dc:date>2025-01-03T01:02:03.811622</dc:date>
    <dc:format>image/svg+xml</dc:format>
    <dc:creator>
     <cc:Agent>
      <dc:title>Matplotlib v3.9.4, https://matplotlib.org/</dc:title>
     </cc:Agent>
    </dc:creator>
   </cc:Work>
  </rdf:RDF>
 </metadata>
 <defs>
  <style type="text/css">*{stroke-linejoin: round; stroke-linecap: butt}</style>
 </defs>
 <g id="figure_1">
  <g id="patch_1">
   <path d="M 0 368.39952 
L 584.39952 368.39952 
L 584.39952 0 
L 0 0 
z
" style="fill: #ffffff"/>
  </g>
  <g id="axes_1">
   <g id="patch_2">
    <path d="M 16.613501 341.144078 
L 567.786019 341.144078 
L 567.786019 24.956118 
L 16.613501 24.956118 
z
" style="fill: #eeeeee"/>
   </g>
   <g id="matplotlib.axis_1">
    <g id="xtick_1">
     <g id="line2d_1">
      <path d="M 16.613501 341.144078 
L 16.613501 24.956118 
" clip-path="url(#p85babdcfd6)" style="fill: none; stroke: #ffffff; stroke-width: 0.8; stroke-linecap: round"/>
     </g>
     <g id="line2d_2">
      <defs>
       <path id="md401e00106" d="M 0 0 
L 0 3 
" style="stroke: #808080"/>
      </defs>
      <g>
       <use xlink:href="#md401e00106" x="16.613501" y="341.144078" style="fill: #808080; stroke: #808080"/>
      </g>
     </g>
     <g id="text_1">
      <!-- $\mathdefault{0.4}$ -->
      <g style="fill: #262626" transform="translate(7.2 357.930682) scale(0.150616 -0.150616)">
       <defs>
        <path id="STIXGeneral-Regular-30" d="M 3046 2112 
Q 3046 1683 2963 1302 
Q 2880 922 2717 602 
Q 2554 282 2266 96 
Q 1978 -90 1600 -90 
Q 1210 -90 915 108 
Q 621 307 461 640 
Q 301 973 227 1350 
Q 154 1728 154 2150 
Q 154 2746 301 3222 
Q 448 3699 790 4012 
Q 1133 4326 1626 4326 
Q 2253 4326 2649 3712 
Q 3046 3098 3046 2112 
z
M 2432 2080 
Q 2432 3091 2217 3625 
Q 2003 4160 1587 4160 
Q 1190 4160 979 3622 
Q 768 3085 768 2106 
Q 768 1120 979 598 
Q 1190 77 1600 77 
Q 2003 77 2217 598 
Q 2432 1120 2432 2080 
z
" transform="scale(0.015625)"/>
        <path id="STIXGeneral-Regular-2e" d="M 1158 275 
Q 1158 134 1052 32 
Q 947 -70 800 -70 
Q 653 -70 550 32 
Q 448 134 448 281 
Q 448 429 553 534 
Q 659 640 806 640 
Q 947 640 1052 531 
Q 1158 422 1158 275 
z
" transform="scale(0.015625)"/>
        <path id="STIXGeneral-Regular-34" d="M 3027 1069 
L 2368 1069 
L 2368 0 
L 1869 0 
L 1869 1069 
L 77 1069 
L 77 1478 
L 2086 4326 
L 2368 4326 
L 2368 1478 
L 3027 1478 
L 3027 1069 
z
M 1869 1478 
L 1869 3674 
L 333 1478 
L 1869 1478 
z
" transform="scale(0.015625)"/>
       </defs>
       <use xlink:href="#STIXGeneral-Regular-30" transform="translate(0 0.40625)"/>
       <use xlink:href="#STIXGeneral-Regular-2e" transform="translate(49.999985 0.40625)"/>
       <use xlink:href="#STIXGeneral-Regular-34" transform="translate(74.999969 0.40625)"/>
      </g>
     </g>
    </g>
    <g id="xtick_2">
     <g id="line2d_3">
      <path d="M 108.475587 341.144078 
L 108.475587 24.956118 
" clip-path="url(#p85babdcfd6)" style="fill: none; stroke: #ffffff; stroke-width: 0.8; stroke-linecap: round"/>
     </g>
     <g id="line2d_4">
      <g>
       <use xlink:href="#md401e00106" x="108.475587" y="341.144078" style="fill: #808080; stroke: #808080"/>
      </g>
     </g>
     <g id="text_2">
      <!-- $\mathdefault{0.6}$ -->
      <g style="fill: #262626" transform="translate(99.062086 357.930682) scale(0.150616 -0.150616)">
       <defs>
        <path id="STIXGeneral-Regular-36" d="M 2854 4378 
L 2867 4275 
Q 2112 4154 1606 3664 
Q 1101 3174 973 2451 
Q 1344 2739 1786 2739 
Q 2349 2739 2672 2380 
Q 2995 2022 2995 1402 
Q 2995 774 2669 378 
Q 2291 -90 1651 -90 
Q 870 -90 518 557 
Q 218 1107 218 1786 
Q 218 2835 915 3552 
Q 1312 3962 1731 4131 
Q 2150 4301 2854 4378 
z
M 2419 1203 
Q 2419 2445 1555 2445 
Q 1235 2445 1024 2275 
Q 813 2106 813 1702 
Q 813 954 1046 522 
Q 1280 90 1722 90 
Q 2061 90 2240 394 
Q 2419 698 2419 1203 
z
" transform="scale(0.015625)"/>
       </defs>
       <use xlink:href="#STIXGeneral-Regular-30" transform="translate(0 0.59375)"/>
       <use xlink:href="#STIXGeneral-Regular-2e" transform="translate(49.999985 0.59375)"/>
       <use xlink:href="#STIXGeneral-Regular-36" transform="translate(74.999969 0.59375)"/>
      </g>
     </g>
    </g>
    <g id="xtick_3">
     <g id="line2d_5">
      <path d="M 200.337674 341.144078 
L 200.337674 24.956118 
" clip-path="url(#p85babdcfd6)" style="fill: none; stroke: #ffffff; stroke-width: 0.8; stroke-linecap: round"/>
     </g>
     <g id="line2d_6">
      <g>
       <use xlink:href="#md401e00106" x="200.337674" y="341.144078" style="fill: #808080; stroke: #808080"/>
      </g>
     </g>
     <g id="text_3">
      <!-- $\mathdefault{0.8}$ -->
      <g style="fill: #262626" transform="translate(190.924173 357.930682) scale(0.150616 -0.150616)">
       <defs>
        <path id="STIXGeneral-Regular-38" d="M 2848 992 
Q 2848 499 2505 204 
Q 2163 -90 1587 -90 
Q 1050 -90 704 204 
Q 358 499 358 954 
Q 358 1293 524 1533 
Q 691 1773 1190 2125 
Q 710 2522 553 2765 
Q 397 3008 397 3328 
Q 397 3782 745 4054 
Q 1094 4326 1638 4326 
Q 2106 4326 2410 4060 
Q 2714 3795 2714 3411 
Q 2714 3059 2531 2848 
Q 2349 2637 1856 2374 
Q 2432 1990 2640 1689 
Q 2848 1389 2848 992 
z
M 2272 3411 
Q 2272 3744 2086 3945 
Q 1901 4147 1574 4147 
Q 1248 4147 1059 3977 
Q 870 3808 870 3513 
Q 870 3219 1059 2979 
Q 1248 2739 1670 2490 
Q 1997 2682 2134 2896 
Q 2272 3110 2272 3411 
z
M 1734 1741 
L 1357 1997 
Q 1075 1766 960 1545 
Q 845 1325 845 1011 
Q 845 576 1065 333 
Q 1286 90 1658 90 
Q 1971 90 2166 285 
Q 2362 480 2362 794 
Q 2362 1082 2214 1299 
Q 2067 1517 1734 1741 
z
" transform="scale(0.015625)"/>
       </defs>
       <use xlink:href="#STIXGeneral-Regular-30" transform="translate(0 0.40625)"/>
       <use xlink:href="#STIXGeneral-Regular-2e" transform="translate(49.999985 0.40625)"/>
       <use xlink:href="#STIXGeneral-Regular-38" transform="translate(74.999969 0.40625)"/>
      </g>
     </g>
    </g>
    <g id="xtick_4">
     <g id="line2d_7">
      <path d="M 292.19976 341.144078 
L 292.19976 24.956118 
" clip-path="url(#p85babdcfd6)" style="fill: none; stroke: #ffffff; stroke-width: 0.8; stroke-linecap: round"/>
     </g>
     <g id="line2d_8">
      <g>
       <use xlink:href="#md401e00106" x="292.19976" y="341.144078" style="fill: #808080; stroke: #808080"/>
      </g>
     </g>
     <g id="text_4">
      <!-- $\mathdefault{1.0}$ -->
      <g style="fill: #262626" transform="translate(282.786259 357.930682) scale(0.150616 -0.150616)">
       <defs>
        <path id="STIXGeneral-Regular-31" d="M 2522 0 
L 755 0 
L 755 96 
Q 1107 115 1235 227 
Q 1363 339 1363 608 
L 1363 3482 
Q 1363 3795 1171 3795 
Q 1082 3795 883 3718 
L 710 3654 
L 710 3744 
L 1856 4326 
L 1914 4307 
L 1914 486 
Q 1914 275 2042 185 
Q 2170 96 2522 96 
L 2522 0 
z
" transform="scale(0.015625)"/>
       </defs>
       <use xlink:href="#STIXGeneral-Regular-31" transform="translate(0 0.40625)"/>
       <use xlink:href="#STIXGeneral-Regular-2e" transform="translate(49.999985 0.40625)"/>
       <use xlink:href="#STIXGeneral-Regular-30" transform="translate(74.999969 0.40625)"/>
      </g>
     </g>
    </g>
    <g id="xtick_5">
     <g id="line2d_9">
      <path d="M 384.061846 341.144078 
L 384.061846 24.956118 
" clip-path="url(#p85babdcfd6)" style="fill: none; stroke: #ffffff; stroke-width: 0.8; stroke-linecap: round"/>
     </g>
     <g id="line2d_10">
      <g>
       <use xlink:href="#md401e00106" x="384.061846" y="341.144078" style="fill: #808080; stroke: #808080"/>
      </g>
     </g>
     <g id="text_5">
      <!-- $\mathdefault{1.2}$ -->
      <g style="fill: #262626" transform="translate(374.648345 357.930682) scale(0.150616 -0.150616)">
       <defs>
        <path id="STIXGeneral-Regular-32" d="M 3034 877 
L 2688 0 
L 186 0 
L 186 77 
L 1325 1286 
Q 1773 1754 1965 2144 
Q 2157 2534 2157 2950 
Q 2157 3379 1920 3616 
Q 1683 3853 1267 3853 
Q 922 3853 720 3673 
Q 518 3494 326 3021 
L 192 3053 
Q 301 3648 630 3987 
Q 960 4326 1523 4326 
Q 2054 4326 2380 4006 
Q 2707 3686 2707 3200 
Q 2707 2477 1888 1613 
L 832 486 
L 2330 486 
Q 2541 486 2665 569 
Q 2790 653 2944 915 
L 3034 877 
z
" transform="scale(0.015625)"/>
       </defs>
       <use xlink:href="#STIXGeneral-Regular-31" transform="translate(0 0.40625)"/>
       <use xlink:href="#STIXGeneral-Regular-2e" transform="translate(49.999985 0.40625)"/>
       <use xlink:href="#STIXGeneral-Regular-32" transform="translate(74.999969 0.40625)"/>
      </g>
     </g>
    </g>
    <g id="xtick_6">
     <g id="line2d_11">
      <path d="M 475.923933 341.144078 
L 475.923933 24.956118 
" clip-path="url(#p85babdcfd6)" style="fill: none; stroke: #ffffff; stroke-width: 0.8; stroke-linecap: round"/>
     </g>
     <g id="line2d_12">
      <g>
       <use xlink:href="#md401e00106" x="475.923933" y="341.144078" style="fill: #808080; stroke: #808080"/>
      </g>
     </g>
     <g id="text_6">
      <!-- $\mathdefault{1.4}$ -->
      <g style="fill: #262626" transform="translate(466.510431 357.930682) scale(0.150616 -0.150616)">
       <use xlink:href="#STIXGeneral-Regular-31" transform="translate(0 0.40625)"/>
       <use xlink:href="#STIXGeneral-Regular-2e" transform="translate(49.999985 0.40625)"/>
       <use xlink:href="#STIXGeneral-Regular-34" transform="translate(74.999969 0.40625)"/>
      </g>
     </g>
    </g>
    <g id="xtick_7">
     <g id="line2d_13">
      <path d="M 567.786019 341.144078 
L 567.786019 24.956118 
" clip-path="url(#p85babdcfd6)" style="fill: none; stroke: #ffffff; stroke-width: 0.8; stroke-linecap: round"/>
     </g>
     <g id="line2d_14">
      <g>
       <use xlink:href="#md401e00106" x="567.786019" y="341.144078" style="fill: #808080; stroke: #808080"/>
      </g>
     </g>
     <g id="text_7">
      <!-- $\mathdefault{1.6}$ -->
      <g style="fill: #262626" transform="translate(558.372518 357.930682) scale(0.150616 -0.150616)">
       <use xlink:href="#STIXGeneral-Regular-31" transform="translate(0 0.59375)"/>
       <use xlink:href="#STIXGeneral-Regular-2e" transform="translate(49.999985 0.59375)"/>
       <use xlink:href="#STIXGeneral-Regular-36" transform="translate(74.999969 0.59375)"/>
      </g>
     </g>
    </g>
   </g>
   <g id="matplotlib.axis_2"/>
   <g id="PolyCollection_1">
    <defs>
     <path id="me632a07244" d="M 40.69642 -41.627622 
L 40.69642 -44.737841 
L 41.634545 -44.734466 
L 42.57267 -44.724364 
L 43.510794 -44.707601 
L 44.448919 -44.684289 
L 45.387044 -44.654578 
L 46.325168 -44.618662 
L 47.263293 -44.57677 
L 48.201417 -44.529167 
L 49.139542 -44.476149 
L 50.077667 -44.418041 
L 51.015791 -44.355191 
L 51.953916 -44.287968 
L 52.892041 -44.216758 
L 53.830165 -44.141959 
L 54.76829 -44.06398 
L 55.706415 -43.983233 
L 56.644539 -43.900135 
L 57.582664 -43.815099 
L 58.520789 -43.728538 
L 59.458913 -43.640853 
L 60.397038 -43.552441 
L 61.335163 -43.463685 
L 62.273287 -43.374955 
L 63.211412 -43.286607 
L 64.149536 -43.198977 
L 65.087661 -43.112387 
L 66.025786 -43.027136 
L 66.96391 -42.938882 
L 67.902035 -42.857988 
L 68.84016 -42.779063 
L 69.778284 -42.707994 
L 70.716409 -42.634917 
L 71.654534 -42.564671 
L 72.592658 -42.497448 
L 73.530783 -42.439071 
L 74.468908 -42.379614 
L 75.407032 -42.323861 
L 76.345157 -42.271954 
L 77.283282 -42.224021 
L 78.221406 -42.181203 
L 79.159531 -42.149278 
L 80.097655 -42.117285 
L 81.03578 -42.095662 
L 81.973905 -42.074489 
L 82.912029 -42.05857 
L 83.850154 -42.053735 
L 84.788279 -42.055737 
L 85.726403 -42.059331 
L 86.664528 -42.064755 
L 87.602653 -42.07773 
L 88.540777 -42.125583 
L 89.478902 -42.168301 
L 90.417027 -42.214707 
L 91.355151 -42.275512 
L 92.293276 -42.35238 
L 93.231401 -42.430242 
L 94.169525 -42.524515 
L 95.10765 -42.636933 
L 96.045775 -42.747867 
L 96.983899 -42.89419 
L 97.922024 -43.04059 
L 98.860148 -43.207217 
L 99.798273 -43.384583 
L 100.736398 -43.577882 
L 101.674522 -43.793281 
L 102.612647 -44.026799 
L 103.550772 -44.273376 
L 104.488896 -44.537963 
L 105.427021 -44.820785 
L 106.365146 -45.121944 
L 107.30327 -45.44809 
L 108.241395 -45.800304 
L 109.17952 -46.167433 
L 110.117644 -46.559598 
L 111.055769 -46.966432 
L 111.993894 -47.392147 
L 112.932018 -47.836191 
L 113.870143 -48.297859 
L 114.808267 -48.770645 
L 115.746392 -49.257974 
L 116.684517 -49.764121 
L 117.622641 -50.288767 
L 118.560766 -50.8147 
L 119.498891 -51.36635 
L 120.437015 -51.911573 
L 121.37514 -52.479252 
L 122.313265 -53.054068 
L 123.251389 -53.640237 
L 124.189514 -54.214983 
L 125.127639 -54.790485 
L 126.065763 -55.370741 
L 127.003888 -55.94409 
L 127.942013 -56.508039 
L 128.880137 -57.065663 
L 129.818262 -57.62117 
L 130.756386 -58.180116 
L 131.694511 -58.721391 
L 132.632636 -59.253522 
L 133.57076 -59.775979 
L 134.508885 -60.294078 
L 135.44701 -60.803254 
L 136.385134 -61.309433 
L 137.323259 -61.803029 
L 138.261384 -62.278081 
L 139.199508 -62.7613 
L 140.137633 -63.234372 
L 141.075758 -63.7031 
L 142.013882 -64.180076 
L 142.952007 -64.652176 
L 143.890132 -65.120059 
L 144.828256 -65.606852 
L 145.766381 -66.09518 
L 146.704506 -66.59168 
L 147.64263 -67.10403 
L 148.580755 -67.60722 
L 149.518879 -68.15509 
L 150.457004 -68.699797 
L 151.395129 -69.261585 
L 152.333253 -69.84778 
L 153.271378 -70.461195 
L 154.209503 -71.082181 
L 155.147627 -71.73157 
L 156.085752 -72.406136 
L 157.023877 -73.1072 
L 157.962001 -73.830354 
L 158.900126 -74.575543 
L 159.838251 -75.35371 
L 160.776375 -76.14966 
L 161.7145 -76.996487 
L 162.652625 -77.870894 
L 163.590749 -78.788376 
L 164.528874 -79.746205 
L 165.466998 -80.71917 
L 166.405123 -81.725922 
L 167.343248 -82.776724 
L 168.281372 -83.873789 
L 169.219497 -85.002578 
L 170.157622 -86.16875 
L 171.095746 -87.35055 
L 172.033871 -88.592567 
L 172.971996 -89.8599 
L 173.91012 -91.149407 
L 174.848245 -92.484506 
L 175.78637 -93.83952 
L 176.724494 -95.211241 
L 177.662619 -96.627638 
L 178.600744 -98.061126 
L 179.538868 -99.513473 
L 180.476993 -100.968741 
L 181.415117 -102.466307 
L 182.353242 -103.981696 
L 183.291367 -105.518869 
L 184.229491 -107.034474 
L 185.167616 -108.557681 
L 186.105741 -110.068651 
L 187.043865 -111.569923 
L 187.98199 -113.101555 
L 188.920115 -114.602448 
L 189.858239 -116.110656 
L 190.796364 -117.586587 
L 191.734489 -119.064266 
L 192.672613 -120.51698 
L 193.610738 -121.965786 
L 194.548863 -123.425286 
L 195.486987 -124.849123 
L 196.425112 -126.2942 
L 197.363237 -127.706887 
L 198.301361 -129.123383 
L 199.239486 -130.527578 
L 200.17761 -131.938684 
L 201.115735 -133.348057 
L 202.05386 -134.785528 
L 202.991984 -136.21344 
L 203.930109 -137.668966 
L 204.868234 -139.124529 
L 205.806358 -140.619198 
L 206.744483 -142.119681 
L 207.682608 -143.652565 
L 208.620732 -145.206521 
L 209.558857 -146.790339 
L 210.496982 -148.399221 
L 211.435106 -150.040242 
L 212.373231 -151.714555 
L 213.311356 -153.42304 
L 214.24948 -155.169396 
L 215.187605 -156.943791 
L 216.125729 -158.764626 
L 217.063854 -160.636594 
L 218.001979 -162.55292 
L 218.940103 -164.520785 
L 219.878228 -166.518423 
L 220.816353 -168.543168 
L 221.754477 -170.605221 
L 222.692602 -172.718793 
L 223.630727 -174.886149 
L 224.568851 -177.06839 
L 225.506976 -179.310973 
L 226.445101 -181.579923 
L 227.383225 -183.918309 
L 228.32135 -186.265374 
L 229.259475 -188.65315 
L 230.197599 -191.12902 
L 231.135724 -193.602764 
L 232.073848 -196.128901 
L 233.011973 -198.708292 
L 233.950098 -201.288655 
L 234.888222 -203.934785 
L 235.826347 -206.632073 
L 236.764472 -209.33889 
L 237.702596 -212.100168 
L 238.640721 -214.888235 
L 239.578846 -217.733893 
L 240.51697 -220.602705 
L 241.455095 -223.526372 
L 242.39322 -226.458508 
L 243.331344 -229.426626 
L 244.269469 -232.414076 
L 245.207594 -235.429905 
L 246.145718 -238.45841 
L 247.083843 -241.486965 
L 248.021968 -244.54941 
L 248.960092 -247.590229 
L 249.898217 -250.626087 
L 250.836341 -253.660353 
L 251.774466 -256.694744 
L 252.712591 -259.725497 
L 253.650715 -262.691045 
L 254.58884 -265.635477 
L 255.526965 -268.542421 
L 256.465089 -271.452922 
L 257.403214 -274.29967 
L 258.341339 -277.07955 
L 259.279463 -279.796357 
L 260.217588 -282.436582 
L 261.155713 -284.992842 
L 262.093837 -287.451084 
L 263.031962 -289.889057 
L 263.970087 -292.180893 
L 264.908211 -294.403805 
L 265.846336 -296.532856 
L 266.78446 -298.561004 
L 267.722585 -300.460458 
L 268.66071 -302.26657 
L 269.598834 -303.960556 
L 270.536959 -305.549492 
L 271.475084 -307.061927 
L 272.413208 -308.450709 
L 273.351333 -309.688759 
L 274.289458 -310.83785 
L 275.227582 -311.917617 
L 276.165707 -312.951719 
L 277.103832 -313.880014 
L 278.041956 -314.729764 
L 278.980081 -315.523321 
L 279.918206 -316.230791 
L 280.85633 -316.895955 
L 281.794455 -317.508509 
L 282.732579 -318.10455 
L 283.670704 -318.644223 
L 284.608829 -319.168678 
L 285.546953 -319.670752 
L 286.485078 -320.128811 
L 287.423203 -320.611511 
L 288.361327 -321.073558 
L 289.299452 -321.498754 
L 290.237577 -321.974847 
L 291.175701 -322.466487 
L 292.113826 -322.910917 
L 293.051951 -323.364221 
L 293.990075 -323.785613 
L 294.9282 -324.251335 
L 295.866325 -324.66572 
L 296.804449 -325.106769 
L 297.742574 -325.51835 
L 298.680699 -325.927216 
L 299.618823 -326.330662 
L 300.556948 -326.674028 
L 301.495072 -327.03699 
L 302.433197 -327.344804 
L 303.371322 -327.679194 
L 304.309446 -327.954162 
L 305.247571 -328.178574 
L 306.185696 -328.384172 
L 307.12382 -328.56046 
L 308.061945 -328.700057 
L 309.00007 -328.832832 
L 309.938194 -328.902031 
L 310.876319 -328.965532 
L 311.814444 -329.020544 
L 312.752568 -329.055227 
L 313.690693 -329.071222 
L 314.628818 -329.042408 
L 315.566942 -329.013404 
L 316.505067 -328.982803 
L 317.443191 -328.925063 
L 318.381316 -328.86239 
L 319.319441 -328.770869 
L 320.257565 -328.717704 
L 321.19569 -328.648318 
L 322.133815 -328.515925 
L 323.071939 -328.392375 
L 324.010064 -328.25715 
L 324.948189 -328.066153 
L 325.886313 -327.916252 
L 326.824438 -327.708412 
L 327.762563 -327.431556 
L 328.700687 -327.115738 
L 329.638812 -326.76067 
L 330.576937 -326.345845 
L 331.515061 -325.833764 
L 332.453186 -325.288685 
L 333.39131 -324.587014 
L 334.329435 -323.864301 
L 335.26756 -323.025249 
L 336.205684 -322.084853 
L 337.143809 -321.045943 
L 338.081934 -319.892326 
L 339.020058 -318.648557 
L 339.958183 -317.243329 
L 340.896308 -315.7613 
L 341.834432 -314.170858 
L 342.772557 -312.430373 
L 343.710682 -310.568347 
L 344.648806 -308.585192 
L 345.586931 -306.501899 
L 346.525056 -304.315441 
L 347.46318 -302.016454 
L 348.401305 -299.613311 
L 349.33943 -297.132583 
L 350.277554 -294.587856 
L 351.215679 -291.966626 
L 352.153803 -289.266996 
L 353.091928 -286.51369 
L 354.030053 -283.700049 
L 354.968177 -280.812661 
L 355.906302 -277.906002 
L 356.844427 -274.943262 
L 357.782551 -271.979682 
L 358.720676 -268.972076 
L 359.658801 -265.974768 
L 360.596925 -262.949166 
L 361.53505 -259.906517 
L 362.473175 -256.884449 
L 363.411299 -253.856661 
L 364.349424 -250.864822 
L 365.287549 -247.899671 
L 366.225673 -244.95148 
L 367.163798 -241.97826 
L 368.101922 -239.010419 
L 369.040047 -236.108615 
L 369.978172 -233.236454 
L 370.916296 -230.393242 
L 371.854421 -227.560979 
L 372.792546 -224.764295 
L 373.73067 -222.003543 
L 374.668795 -219.269714 
L 375.60692 -216.578543 
L 376.545044 -213.90842 
L 377.483169 -211.260786 
L 378.421294 -208.644797 
L 379.359418 -206.04688 
L 380.297543 -203.501229 
L 381.235668 -201.013991 
L 382.173792 -198.491658 
L 383.111917 -195.980242 
L 384.050041 -193.539025 
L 384.988166 -191.115943 
L 385.926291 -188.753902 
L 386.864415 -186.368358 
L 387.80254 -184.025841 
L 388.740665 -181.683926 
L 389.678789 -179.354179 
L 390.616914 -177.060991 
L 391.555039 -174.754163 
L 392.493163 -172.496177 
L 393.431288 -170.222545 
L 394.369413 -167.994823 
L 395.307537 -165.717187 
L 396.245662 -163.514174 
L 397.183787 -161.330824 
L 398.121911 -159.148536 
L 399.060036 -156.995122 
L 399.998161 -154.866097 
L 400.936285 -152.72495 
L 401.87441 -150.640425 
L 402.812534 -148.574131 
L 403.750659 -146.535219 
L 404.688784 -144.533292 
L 405.626908 -142.559624 
L 406.565033 -140.631413 
L 407.503158 -138.741907 
L 408.441282 -136.903677 
L 409.379407 -135.096533 
L 410.317532 -133.337062 
L 411.255656 -131.650361 
L 412.193781 -129.979877 
L 413.131906 -128.370726 
L 414.07003 -126.837193 
L 415.008155 -125.336002 
L 415.94628 -123.871624 
L 416.884404 -122.468201 
L 417.822529 -121.081078 
L 418.760653 -119.74269 
L 419.698778 -118.466705 
L 420.636903 -117.237386 
L 421.575027 -116.018954 
L 422.513152 -114.845364 
L 423.451277 -113.70661 
L 424.389401 -112.578885 
L 425.327526 -111.497377 
L 426.265651 -110.41236 
L 427.203775 -109.363304 
L 428.1419 -108.315549 
L 429.080025 -107.261475 
L 430.018149 -106.243507 
L 430.956274 -105.208354 
L 431.894399 -104.189136 
L 432.832523 -103.152555 
L 433.770648 -102.11493 
L 434.708772 -101.093496 
L 435.646897 -100.050574 
L 436.585022 -99.007312 
L 437.523146 -97.962742 
L 438.461271 -96.907085 
L 439.399396 -95.846524 
L 440.33752 -94.754041 
L 441.275645 -93.691138 
L 442.21377 -92.626064 
L 443.151894 -91.546149 
L 444.090019 -90.482935 
L 445.028144 -89.420754 
L 445.966268 -88.374703 
L 446.904393 -87.30636 
L 447.842518 -86.25743 
L 448.780642 -85.211975 
L 449.718767 -84.162601 
L 450.656892 -83.131208 
L 451.595016 -82.106052 
L 452.533141 -81.095795 
L 453.471265 -80.089765 
L 454.40939 -79.074545 
L 455.347515 -78.05764 
L 456.285639 -77.061082 
L 457.223764 -76.087315 
L 458.161889 -75.103927 
L 459.100013 -74.142706 
L 460.038138 -73.191887 
L 460.976263 -72.236343 
L 461.914387 -71.287876 
L 462.852512 -70.333229 
L 463.790637 -69.408076 
L 464.728761 -68.486308 
L 465.666886 -67.580278 
L 466.605011 -66.676458 
L 467.543135 -65.786261 
L 468.48126 -64.915574 
L 469.419384 -64.055647 
L 470.357509 -63.222777 
L 471.295634 -62.41206 
L 472.233758 -61.587379 
L 473.171883 -60.812017 
L 474.110008 -60.054598 
L 475.048132 -59.336888 
L 475.986257 -58.64459 
L 476.924382 -57.973514 
L 477.862506 -57.296988 
L 478.800631 -56.677336 
L 479.738756 -56.091357 
L 480.67688 -55.529163 
L 481.615005 -55.000996 
L 482.55313 -54.491876 
L 483.491254 -54.021683 
L 484.429379 -53.583229 
L 485.367504 -53.162082 
L 486.305628 -52.777691 
L 487.243753 -52.41684 
L 488.181877 -52.073838 
L 489.120002 -51.752948 
L 490.058127 -51.457309 
L 490.996251 -51.175264 
L 491.934376 -50.921121 
L 492.872501 -50.677692 
L 493.810625 -50.448163 
L 494.74875 -50.23317 
L 495.686875 -50.031389 
L 496.624999 -49.844184 
L 497.563124 -49.664953 
L 498.501249 -49.492814 
L 499.439373 -49.317721 
L 500.377498 -49.160208 
L 501.315623 -49.014101 
L 502.253747 -48.8679 
L 503.191872 -48.698222 
L 504.129996 -48.556281 
L 505.068121 -48.424863 
L 506.006246 -48.284503 
L 506.94437 -48.174932 
L 507.882495 -48.059328 
L 508.82062 -47.958609 
L 509.758744 -47.848374 
L 510.696869 -47.749441 
L 511.634994 -47.661258 
L 512.573118 -47.574201 
L 513.511243 -47.49436 
L 514.449368 -47.422149 
L 515.387492 -47.357944 
L 516.325617 -47.306697 
L 517.263742 -47.268845 
L 518.201866 -47.234653 
L 519.139991 -47.199768 
L 520.078115 -47.190217 
L 520.078115 -41.627622 
L 520.078115 -41.627622 
L 519.139991 -41.627622 
L 518.201866 -41.627622 
L 517.263742 -41.627622 
L 516.325617 -41.627622 
L 515.387492 -41.627622 
L 514.449368 -41.627622 
L 513.511243 -41.627622 
L 512.573118 -41.627622 
L 511.634994 -41.627622 
L 510.696869 -41.627622 
L 509.758744 -41.627622 
L 508.82062 -41.627622 
L 507.882495 -41.627622 
L 506.94437 -41.627622 
L 506.006246 -41.627622 
L 505.068121 -41.627622 
L 504.129996 -41.627622 
L 503.191872 -41.627622 
L 502.253747 -41.627622 
L 501.315623 -41.627622 
L 500.377498 -41.627622 
L 499.439373 -41.627622 
L 498.501249 -41.627622 
L 497.563124 -41.627622 
L 496.624999 -41.627622 
L 495.686875 -41.627622 
L 494.74875 -41.627622 
L 493.810625 -41.627622 
L 492.872501 -41.627622 
L 491.934376 -41.627622 
L 490.996251 -41.627622 
L 490.058127 -41.627622 
L 489.120002 -41.627622 
L 488.181877 -41.627622 
L 487.243753 -41.627622 
L 486.305628 -41.627622 
L 485.367504 -41.627622 
L 484.429379 -41.627622 
L 483.491254 -41.627622 
L 482.55313 -41.627622 
L 481.615005 -41.627622 
L 480.67688 -41.627622 
L 479.738756 -41.627622 
L 478.800631 -41.627622 
L 477.862506 -41.627622 
L 476.924382 -41.627622 
L 475.986257 -41.627622 
L 475.048132 -41.627622 
L 474.110008 -41.627622 
L 473.171883 -41.627622 
L 472.233758 -41.627622 
L 471.295634 -41.627622 
L 470.357509 -41.627622 
L 469.419384 -41.627622 
L 468.48126 -41.627622 
L 467.543135 -41.627622 
L 466.605011 -41.627622 
L 465.666886 -41.627622 
L 464.728761 -41.627622 
L 463.790637 -41.627622 
L 462.852512 -41.627622 
L 461.914387 -41.627622 
L 460.976263 -41.627622 
L 460.038138 -41.627622 
L 459.100013 -41.627622 
L 458.161889 -41.627622 
L 457.223764 -41.627622 
L 456.285639 -41.627622 
L 455.347515 -41.627622 
L 454.40939 -41.627622 
L 453.471265 -41.627622 
L 452.533141 -41.627622 
L 451.595016 -41.627622 
L 450.656892 -41.627622 
L 449.718767 -41.627622 
L 448.780642 -41.627622 
L 447.842518 -41.627622 
L 446.904393 -41.627622 
L 445.966268 -41.627622 
L 445.028144 -41.627622 
L 444.090019 -41.627622 
L 443.151894 -41.627622 
L 442.21377 -41.627622 
L 441.275645 -41.627622 
L 440.33752 -41.627622 
L 439.399396 -41.627622 
L 438.461271 -41.627622 
L 437.523146 -41.627622 
L 436.585022 -41.627622 
L 435.646897 -41.627622 
L 434.708772 -41.627622 
L 433.770648 -41.627622 
L 432.832523 -41.627622 
L 431.894399 -41.627622 
L 430.956274 -41.627622 
L 430.018149 -41.627622 
L 429.080025 -41.627622 
L 428.1419 -41.627622 
L 427.203775 -41.627622 
L 426.265651 -41.627622 
L 425.327526 -41.627622 
L 424.389401 -41.627622 
L 423.451277 -41.627622 
L 422.513152 -41.627622 
L 421.575027 -41.627622 
L 420.636903 -41.627622 
L 419.698778 -41.627622 
L 418.760653 -41.627622 
L 417.822529 -41.627622 
L 416.884404 -41.627622 
L 415.94628 -41.627622 
L 415.008155 -41.627622 
L 414.07003 -41.627622 
L 413.131906 -41.627622 
L 412.193781 -41.627622 
L 411.255656 -41.627622 
L 410.317532 -41.627622 
L 409.379407 -41.627622 
L 408.441282 -41.627622 
L 407.503158 -41.627622 
L 406.565033 -41.627622 
L 405.626908 -41.627622 
L 404.688784 -41.627622 
L 403.750659 -41.627622 
L 402.812534 -41.627622 
L 401.87441 -41.627622 
L 400.936285 -41.627622 
L 399.998161 -41.627622 
L 399.060036 -41.627622 
L 398.121911 -41.627622 
L 397.183787 -41.627622 
L 396.245662 -41.627622 
L 395.307537 -41.627622 
L 394.369413 -41.627622 
L 393.431288 -41.627622 
L 392.493163 -41.627622 
L 391.555039 -41.627622 
L 390.616914 -41.627622 
L 389.678789 -41.627622 
L 388.740665 -41.627622 
L 387.80254 -41.627622 
L 386.864415 -41.627622 
L 385.926291 -41.627622 
L 384.988166 -41.627622 
L 384.050041 -41.627622 
L 383.111917 -41.627622 
L 382.173792 -41.627622 
L 381.235668 -41.627622 
L 380.297543 -41.627622 
L 379.359418 -41.627622 
L 378.421294 -41.627622 
L 377.483169 -41.627622 
L 376.545044 -41.627622 
L 375.60692 -41.627622 
L 374.668795 -41.627622 
L 373.73067 -41.627622 
L 372.792546 -41.627622 
L 371.854421 -41.627622 
L 370.916296 -41.627622 
L 369.978172 -41.627622 
L 369.040047 -41.627622 
L 368.101922 -41.627622 
L 367.163798 -41.627622 
L 366.225673 -41.627622 
L 365.287549 -41.627622 
L 364.349424 -41.627622 
L 363.411299 -41.627622 
L 362.473175 -41.627622 
L 361.53505 -41.627622 
L 360.596925 -41.627622 
L 359.658801 -41.627622 
L 358.720676 -41.627622 
L 357.782551 -41.627622 
L 356.844427 -41.627622 
L 355.906302 -41.627622 
L 354.968177 -41.627622 
L 354.030053 -41.627622 
L 353.091928 -41.627622 
L 352.153803 -41.627622 
L 351.215679 -41.627622 
L 350.277554 -41.627622 
L 349.33943 -41.627622 
L 348.401305 -41.627622 
L 347.46318 -41.627622 
L 346.525056 -41.627622 
L 345.586931 -41.627622 
L 344.648806 -41.627622 
L 343.710682 -41.627622 
L 342.772557 -41.627622 
L 341.834432 -41.627622 
L 340.896308 -41.627622 
L 339.958183 -41.627622 
L 339.020058 -41.627622 
L 338.081934 -41.627622 
L 337.143809 -41.627622 
L 336.205684 -41.627622 
L 335.26756 -41.627622 
L 334.329435 -41.627622 
L 333.39131 -41.627622 
L 332.453186 -41.627622 
L 331.515061 -41.627622 
L 330.576937 -41.627622 
L 329.638812 -41.627622 
L 328.700687 -41.627622 
L 327.762563 -41.627622 
L 326.824438 -41.627622 
L 325.886313 -41.627622 
L 324.948189 -41.627622 
L 324.010064 -41.627622 
L 323.071939 -41.627622 
L 322.133815 -41.627622 
L 321.19569 -41.627622 
L 320.257565 -41.627622 
L 319.319441 -41.627622 
L 318.381316 -41.627622 
L 317.443191 -41.627622 
L 316.505067 -41.627622 
L 315.566942 -41.627622 
L 314.628818 -41.627622 
L 313.690693 -41.627622 
L 312.752568 -41.627622 
L 311.814444 -41.627622 
L 310.876319 -41.627622 
L 309.938194 -41.627622 
L 309.00007 -41.627622 
L 308.061945 -41.627622 
L 307.12382 -41.627622 
L 306.185696 -41.627622 
L 305.247571 -41.627622 
L 304.309446 -41.627622 
L 303.371322 -41.627622 
L 302.433197 -41.627622 
L 301.495072 -41.627622 
L 300.556948 -41.627622 
L 299.618823 -41.627622 
L 298.680699 -41.627622 
L 297.742574 -41.627622 
L 296.804449 -41.627622 
L 295.866325 -41.627622 
L 294.9282 -41.627622 
L 293.990075 -41.627622 
L 293.051951 -41.627622 
L 292.113826 -41.627622 
L 291.175701 -41.627622 
L 290.237577 -41.627622 
L 289.299452 -41.627622 
L 288.361327 -41.627622 
L 287.423203 -41.627622 
L 286.485078 -41.627622 
L 285.546953 -41.627622 
L 284.608829 -41.627622 
L 283.670704 -41.627622 
L 282.732579 -41.627622 
L 281.794455 -41.627622 
L 280.85633 -41.627622 
L 279.918206 -41.627622 
L 278.980081 -41.627622 
L 278.041956 -41.627622 
L 277.103832 -41.627622 
L 276.165707 -41.627622 
L 275.227582 -41.627622 
L 274.289458 -41.627622 
L 273.351333 -41.627622 
L 272.413208 -41.627622 
L 271.475084 -41.627622 
L 270.536959 -41.627622 
L 269.598834 -41.627622 
L 268.66071 -41.627622 
L 267.722585 -41.627622 
L 266.78446 -41.627622 
L 265.846336 -41.627622 
L 264.908211 -41.627622 
L 263.970087 -41.627622 
L 263.031962 -41.627622 
L 262.093837 -41.627622 
L 261.155713 -41.627622 
L 260.217588 -41.627622 
L 259.279463 -41.627622 
L 258.341339 -41.627622 
L 257.403214 -41.627622 
L 256.465089 -41.627622 
L 255.526965 -41.627622 
L 254.58884 -41.627622 
L 253.650715 -41.627622 
L 252.712591 -41.627622 
L 251.774466 -41.627622 
L 250.836341 -41.627622 
L 249.898217 -41.627622 
L 248.960092 -41.627622 
L 248.021968 -41.627622 
L 247.083843 -41.627622 
L 246.145718 -41.627622 
L 245.207594 -41.627622 
L 244.269469 -41.627622 
L 243.331344 -41.627622 
L 242.39322 -41.627622 
L 241.455095 -41.627622 
L 240.51697 -41.627622 
L 239.578846 -41.627622 
L 238.640721 -41.627622 
L 237.702596 -41.627622 
L 236.764472 -41.627622 
L 235.826347 -41.627622 
L 234.888222 -41.627622 
L 233.950098 -41.627622 
L 233.011973 -41.627622 
L 232.073848 -41.627622 
L 231.135724 -41.627622 
L 230.197599 -41.627622 
L 229.259475 -41.627622 
L 228.32135 -41.627622 
L 227.383225 -41.627622 
L 226.445101 -41.627622 
L 225.506976 -41.627622 
L 224.568851 -41.627622 
L 223.630727 -41.627622 
L 222.692602 -41.627622 
L 221.754477 -41.627622 
L 220.816353 -41.627622 
L 219.878228 -41.627622 
L 218.940103 -41.627622 
L 218.001979 -41.627622 
L 217.063854 -41.627622 
L 216.125729 -41.627622 
L 215.187605 -41.627622 
L 214.24948 -41.627622 
L 213.311356 -41.627622 
L 212.373231 -41.627622 
L 211.435106 -41.627622 
L 210.496982 -41.627622 
L 209.558857 -41.627622 
L 208.620732 -41.627622 
L 207.682608 -41.627622 
L 206.744483 -41.627622 
L 205.806358 -41.627622 
L 204.868234 -41.627622 
L 203.930109 -41.627622 
L 202.991984 -41.627622 
L 202.05386 -41.627622 
L 201.115735 -41.627622 
L 200.17761 -41.627622 
L 199.239486 -41.627622 
L 198.301361 -41.627622 
L 197.363237 -41.627622 
L 196.425112 -41.627622 
L 195.486987 -41.627622 
L 194.548863 -41.627622 
L 193.610738 -41.627622 
L 192.672613 -41.627622 
L 191.734489 -41.627622 
L 190.796364 -41.627622 
L 189.858239 -41.627622 
L 188.920115 -41.627622 
L 187.98199 -41.627622 
L 187.043865 -41.627622 
L 186.105741 -41.627622 
L 185.167616 -41.627622 
L 184.229491 -41.627622 
L 183.291367 -41.627622 
L 182.353242 -41.627622 
L 181.415117 -41.627622 
L 180.476993 -41.627622 
L 179.538868 -41.627622 
L 178.600744 -41.627622 
L 177.662619 -41.627622 
L 176.724494 -41.627622 
L 175.78637 -41.627622 
L 174.848245 -41.627622 
L 173.91012 -41.627622 
L 172.971996 -41.627622 
L 172.033871 -41.627622 
L 171.095746 -41.627622 
L 170.157622 -41.627622 
L 169.219497 -41.627622 
L 168.281372 -41.627622 
L 167.343248 -41.627622 
L 166.405123 -41.627622 
L 165.466998 -41.627622 
L 164.528874 -41.627622 
L 163.590749 -41.627622 
L 162.652625 -41.627622 
L 161.7145 -41.627622 
L 160.776375 -41.627622 
L 159.838251 -41.627622 
L 158.900126 -41.627622 
L 157.962001 -41.627622 
L 157.023877 -41.627622 
L 156.085752 -41.627622 
L 155.147627 -41.627622 
L 154.209503 -41.627622 
L 153.271378 -41.627622 
L 152.333253 -41.627622 
L 151.395129 -41.627622 
L 150.457004 -41.627622 
L 149.518879 -41.627622 
L 148.580755 -41.627622 
L 147.64263 -41.627622 
L 146.704506 -41.627622 
L 145.766381 -41.627622 
L 144.828256 -41.627622 
L 143.890132 -41.627622 
L 142.952007 -41.627622 
L 142.013882 -41.627622 
L 141.075758 -41.627622 
L 140.137633 -41.627622 
L 139.199508 -41.627622 
L 138.261384 -41.627622 
L 137.323259 -41.627622 
L 136.385134 -41.627622 
L 135.44701 -41.627622 
L 134.508885 -41.627622 
L 133.57076 -41.627622 
L 132.632636 -41.627622 
L 131.694511 -41.627622 
L 130.756386 -41.627622 
L 129.818262 -41.627622 
L 128.880137 -41.627622 
L 127.942013 -41.627622 
L 127.003888 -41.627622 
L 126.065763 -41.627622 
L 125.127639 -41.627622 
L 124.189514 -41.627622 
L 123.251389 -41.627622 
L 122.313265 -41.627622 
L 121.37514 -41.627622 
L 120.437015 -41.627622 
L 119.498891 -41.627622 
L 118.560766 -41.627622 
L 117.622641 -41.627622 
L 116.684517 -41.627622 
L 115.746392 -41.627622 
L 114.808267 -41.627622 
L 113.870143 -41.627622 
L 112.932018 -41.627622 
L 111.993894 -41.627622 
L 111.055769 -41.627622 
L 110.117644 -41.627622 
L 109.17952 -41.627622 
L 108.241395 -41.627622 
L 107.30327 -41.627622 
L 106.365146 -41.627622 
L 105.427021 -41.627622 
L 104.488896 -41.627622 
L 103.550772 -41.627622 
L 102.612647 -41.627622 
L 101.674522 -41.627622 
L 100.736398 -41.627622 
L 99.798273 -41.627622 
L 98.860148 -41.627622 
L 97.922024 -41.627622 
L 96.983899 -41.627622 
L 96.045775 -41.627622 
L 95.10765 -41.627622 
L 94.169525 -41.627622 
L 93.231401 -41.627622 
L 92.293276 -41.627622 
L 91.355151 -41.627622 
L 90.417027 -41.627622 
L 89.478902 -41.627622 
L 88.540777 -41.627622 
L 87.602653 -41.627622 
L 86.664528 -41.627622 
L 85.726403 -41.627622 
L 84.788279 -41.627622 
L 83.850154 -41.627622 
L 82.912029 -41.627622 
L 81.973905 -41.627622 
L 81.03578 -41.627622 
L 80.097655 -41.627622 
L 79.159531 -41.627622 
L 78.221406 -41.627622 
L 77.283282 -41.627622 
L 76.345157 -41.627622 
L 75.407032 -41.627622 
L 74.468908 -41.627622 
L 73.530783 -41.627622 
L 72.592658 -41.627622 
L 71.654534 -41.627622 
L 70.716409 -41.627622 
L 69.778284 -41.627622 
L 68.84016 -41.627622 
L 67.902035 -41.627622 
L 66.96391 -41.627622 
L 66.025786 -41.627622 
L 65.087661 -41.627622 
L 64.149536 -41.627622 
L 63.211412 -41.627622 
L 62.273287 -41.627622 
L 61.335163 -41.627622 
L 60.397038 -41.627622 
L 59.458913 -41.627622 
L 58.520789 -41.627622 
L 57.582664 -41.627622 
L 56.644539 -41.627622 
L 55.706415 -41.627622 
L 54.76829 -41.627622 
L 53.830165 -41.627622 
L 52.892041 -41.627622 
L 51.953916 -41.627622 
L 51.015791 -41.627622 
L 50.077667 -41.627622 
L 49.139542 -41.627622 
L 48.201417 -41.627622 
L 47.263293 -41.627622 
L 46.325168 -41.627622 
L 45.387044 -41.627622 
L 44.448919 -41.627622 
L 43.510794 -41.627622 
L 42.57267 -41.627622 
L 41.634545 -41.627622 
L 40.69642 -41.627622 
z
" style="stroke: #2a2eec; stroke-opacity: 0; stroke-width: 0.8"/>
    </defs>
    <g clip-path="url(#p85babdcfd6)">
     <use xlink:href="#me632a07244" x="0" y="368.39952" style="fill: #2a2eec; fill-opacity: 0; stroke: #2a2eec; stroke-opacity: 0; stroke-width: 0.8"/>
    </g>
   </g>
   <g id="line2d_15">
    <path d="M 40.69642 323.661679 
L 46.325168 323.780858 
L 52.892041 324.182762 
L 63.211412 325.112913 
L 72.592658 325.902072 
L 80.097655 326.282235 
L 86.664528 326.334765 
L 90.417027 326.184813 
L 94.169525 325.875005 
L 97.922024 325.35893 
L 101.674522 324.606239 
L 105.427021 323.578735 
L 108.241395 322.599216 
L 111.055769 321.433088 
L 114.808267 319.628875 
L 118.560766 317.58482 
L 125.127639 313.609035 
L 130.756386 310.219404 
L 136.385134 307.090087 
L 142.952007 303.747344 
L 147.64263 301.29549 
L 150.457004 299.699723 
L 153.271378 297.938325 
L 156.085752 295.993384 
L 158.900126 293.823977 
L 161.7145 291.403033 
L 164.528874 288.653315 
L 167.343248 285.622796 
L 170.157622 282.23077 
L 172.971996 278.53962 
L 175.78637 274.56 
L 179.538868 268.886047 
L 183.291367 262.880651 
L 192.672613 247.88254 
L 200.17761 236.460836 
L 204.868234 229.274991 
L 209.558857 221.609181 
L 213.311356 214.97648 
L 217.063854 207.762926 
L 220.816353 199.856352 
L 223.630727 193.513371 
L 226.445101 186.819597 
L 230.197599 177.2705 
L 233.950098 167.110865 
L 237.702596 156.299352 
L 241.455095 144.873148 
L 246.145718 129.94111 
L 256.465089 96.946598 
L 259.279463 88.603163 
L 262.093837 80.948436 
L 263.970087 76.218627 
L 265.846336 71.866664 
L 267.722585 67.939062 
L 269.598834 64.438964 
L 271.475084 61.337593 
L 273.351333 58.710761 
L 275.227582 56.481903 
L 277.103832 54.519506 
L 278.980081 52.876199 
L 281.794455 50.891011 
L 284.608829 49.230842 
L 288.361327 47.325962 
L 291.175701 45.933033 
L 298.680699 42.472304 
L 301.495072 41.36253 
L 305.247571 40.220946 
L 308.061945 39.699463 
L 309.938194 39.497489 
L 313.690693 39.328298 
L 318.381316 39.53713 
L 324.010064 40.14237 
L 327.762563 40.967964 
L 329.638812 41.63885 
L 331.515061 42.565756 
L 332.453186 43.110835 
L 334.329435 44.535219 
L 336.205684 46.314667 
L 338.081934 48.507194 
L 339.958183 51.156191 
L 341.834432 54.228662 
L 343.710682 57.831173 
L 345.586931 61.897621 
L 347.46318 66.383066 
L 350.277554 73.811664 
L 353.091928 81.88583 
L 356.844427 93.456258 
L 363.411299 114.542859 
L 369.978172 135.163066 
L 374.668795 149.129806 
L 379.359418 162.35264 
L 384.050041 174.860495 
L 388.740665 186.715594 
L 394.369413 200.404697 
L 398.121911 209.250984 
L 402.812534 219.825389 
L 406.565033 227.768107 
L 409.379407 233.302987 
L 412.193781 238.419643 
L 415.008155 243.063518 
L 417.822529 247.318442 
L 420.636903 251.162134 
L 423.451277 254.69291 
L 427.203775 259.036216 
L 455.347515 290.34188 
L 460.976263 296.163177 
L 466.605011 301.723062 
L 470.357509 305.176743 
L 474.110008 308.344922 
L 477.862506 311.102532 
L 480.67688 312.870357 
L 483.491254 314.377837 
L 486.305628 315.621829 
L 489.120002 316.646572 
L 492.872501 317.721828 
L 496.624999 318.555336 
L 503.191872 319.701298 
L 508.82062 320.440911 
L 513.511243 320.90516 
L 518.201866 321.164867 
L 520.078115 321.209303 
L 520.078115 321.209303 
" clip-path="url(#p85babdcfd6)" style="fill: none; stroke: #2a2eec; stroke-width: 3.227486; stroke-linecap: round"/>
   </g>
   <g id="line2d_16">
    <path d="M 179.741504 320.044864 
L 441.076824 320.044864 
" clip-path="url(#p85babdcfd6)" style="fill: none; stroke: #000000; stroke-width: 6.454972"/>
   </g>
   <g id="patch_3">
    <path d="M 16.613501 341.144078 
L 567.786019 341.144078 
" style="fill: none"/>
   </g>
   <g id="text_8">
    <!-- 0.76  -->
    <g style="fill: #262626" transform="translate(147.466643 303.227278) scale(0.161374 -0.161374)">
     <defs>
      <path id="STIXGeneral-Regular-37" d="M 2874 4134 
L 1517 -51 
L 1101 -51 
L 2368 3763 
L 992 3763 
Q 717 3763 582 3667 
Q 448 3571 243 3238 
L 128 3296 
L 512 4237 
L 2874 4237 
L 2874 4134 
z
" transform="scale(0.015625)"/>
      <path id="STIXGeneral-Regular-20" transform="scale(0.015625)"/>
     </defs>
     <use xlink:href="#STIXGeneral-Regular-30"/>
     <use xlink:href="#STIXGeneral-Regular-2e" x="49.999985"/>
     <use xlink:href="#STIXGeneral-Regular-37" x="74.999969"/>
     <use xlink:href="#STIXGeneral-Regular-36" x="124.999954"/>
     <use xlink:href="#STIXGeneral-Regular-20" x="174.999939"/>
    </g>
   </g>
   <g id="text_9">
    <!--  1.3 -->
    <g style="fill: #262626" transform="translate(441.076824 303.227278) scale(0.161374 -0.161374)">
     <defs>
      <path id="STIXGeneral-Regular-33" d="M 390 3264 
L 288 3290 
Q 435 3770 748 4048 
Q 1062 4326 1542 4326 
Q 1990 4326 2265 4083 
Q 2541 3840 2541 3450 
Q 2541 2925 1946 2566 
Q 2298 2413 2477 2227 
Q 2758 1914 2758 1402 
Q 2758 890 2464 506 
Q 2246 211 1840 60 
Q 1434 -90 979 -90 
Q 262 -90 262 275 
Q 262 378 339 442 
Q 416 506 525 506 
Q 685 506 915 339 
Q 1197 141 1466 141 
Q 1818 141 2058 425 
Q 2298 710 2298 1120 
Q 2298 1856 1632 2048 
Q 1434 2112 979 2112 
L 979 2202 
Q 1338 2323 1517 2432 
Q 2035 2726 2035 3290 
Q 2035 3610 1852 3776 
Q 1670 3942 1344 3942 
Q 768 3942 390 3264 
z
" transform="scale(0.015625)"/>
     </defs>
     <use xlink:href="#STIXGeneral-Regular-20"/>
     <use xlink:href="#STIXGeneral-Regular-31" x="24.999985"/>
     <use xlink:href="#STIXGeneral-Regular-2e" x="74.999969"/>
     <use xlink:href="#STIXGeneral-Regular-33" x="99.999954"/>
    </g>
   </g>
   <g id="text_10">
    <!-- 94% HDI -->
    <g style="fill: #262626" transform="translate(279.957328 225.866383) scale(0.161374 -0.161374)">
     <defs>
      <path id="STIXGeneral-Regular-39" d="M 378 -141 
L 358 -13 
Q 1094 115 1603 608 
Q 2112 1101 2304 1882 
Q 1933 1517 1344 1517 
Q 826 1517 509 1875 
Q 192 2234 192 2816 
Q 192 3462 573 3894 
Q 954 4326 1523 4326 
Q 2131 4326 2528 3840 
Q 2938 3328 2938 2522 
Q 2938 1958 2742 1462 
Q 2547 966 2170 621 
Q 1773 262 1395 105 
Q 1018 -51 378 -141 
z
M 2317 2272 
L 2317 2522 
Q 2317 4147 1472 4147 
Q 1171 4147 1005 3930 
Q 909 3802 845 3546 
Q 781 3290 781 3034 
Q 781 2464 995 2128 
Q 1210 1792 1568 1792 
Q 1824 1792 2070 1917 
Q 2317 2042 2317 2272 
z
" transform="scale(0.015625)"/>
      <path id="STIXGeneral-Regular-25" d="M 4390 1363 
Q 4390 781 4070 329 
Q 3750 -122 3341 -122 
Q 3014 -122 2790 134 
Q 2566 390 2566 762 
Q 2566 1274 2940 1693 
Q 3315 2112 3776 2112 
Q 4070 2112 4230 1917 
Q 4390 1722 4390 1363 
z
M 4243 1376 
Q 4243 1626 4131 1779 
Q 4019 1933 3840 1933 
Q 3654 1933 3526 1786 
Q 3315 1562 3171 1187 
Q 3027 813 3027 486 
Q 3027 301 3129 176 
Q 3232 51 3386 51 
Q 3718 51 3980 457 
Q 4243 864 4243 1376 
z
M 3974 4518 
L 1222 -115 
L 922 -115 
L 3443 4096 
Q 3264 3891 3094 3811 
Q 2925 3731 2669 3731 
Q 2445 3731 2182 3821 
Q 2208 3674 2208 3539 
Q 2208 3206 2067 2873 
Q 1926 2541 1696 2323 
Q 1453 2086 1146 2086 
Q 826 2086 608 2339 
Q 390 2592 390 2963 
Q 390 3507 761 3916 
Q 1133 4326 1626 4326 
Q 1792 4326 2010 4147 
Q 2310 3898 2624 3898 
Q 2918 3898 3084 3994 
Q 3251 4090 3693 4518 
L 3974 4518 
z
M 2054 3642 
Q 2054 3782 2025 3833 
Q 1997 3885 1894 3936 
Q 1747 4006 1613 4154 
Q 1414 4058 1331 3984 
Q 1248 3910 1152 3750 
Q 845 3264 845 2707 
Q 845 2509 944 2384 
Q 1043 2259 1210 2259 
Q 1549 2259 1801 2675 
Q 2054 3091 2054 3642 
z
" transform="scale(0.015625)"/>
      <path id="STIXGeneral-Regular-48" d="M 4499 0 
L 2714 0 
L 2714 122 
Q 3085 147 3181 265 
Q 3277 384 3277 794 
L 3277 2016 
L 1338 2016 
L 1338 723 
Q 1338 371 1440 256 
Q 1542 141 1894 122 
L 1901 0 
L 115 0 
L 115 122 
Q 493 147 589 259 
Q 685 371 685 781 
L 685 3507 
Q 685 3878 585 3980 
Q 486 4083 115 4115 
L 115 4237 
L 1907 4237 
L 1907 4115 
Q 1549 4083 1443 3977 
Q 1338 3872 1338 3507 
L 1338 2298 
L 3277 2298 
L 3277 3507 
Q 3277 3878 3177 3980 
Q 3078 4083 2707 4115 
L 2707 4237 
L 4499 4237 
L 4499 4115 
Q 4141 4083 4035 3977 
Q 3930 3872 3930 3507 
L 3930 710 
Q 3930 371 4035 259 
Q 4141 147 4499 122 
L 4499 0 
z
" transform="scale(0.015625)"/>
      <path id="STIXGeneral-Regular-44" d="M 102 4237 
L 1830 4237 
Q 3078 4237 3750 3654 
Q 4384 3110 4384 2138 
Q 4384 966 3514 410 
Q 2880 0 1901 0 
L 102 0 
L 102 122 
Q 474 147 570 252 
Q 666 358 666 736 
L 666 3520 
Q 666 3891 570 3990 
Q 474 4090 102 4115 
L 102 4237 
z
M 1318 3731 
L 1318 538 
Q 1318 365 1379 301 
Q 1440 237 1626 237 
Q 2125 237 2432 307 
Q 2739 378 3021 570 
Q 3686 1018 3686 2099 
Q 3686 3027 3078 3558 
Q 2803 3802 2476 3901 
Q 2150 4000 1658 4000 
Q 1472 4000 1395 3942 
Q 1318 3885 1318 3731 
z
" transform="scale(0.015625)"/>
      <path id="STIXGeneral-Regular-49" d="M 2016 0 
L 115 0 
L 115 122 
Q 518 134 627 240 
Q 736 346 736 717 
L 736 3526 
Q 736 3898 633 3994 
Q 531 4090 115 4115 
L 115 4237 
L 2016 4237 
L 2016 4115 
Q 1613 4096 1501 3993 
Q 1389 3891 1389 3526 
L 1389 717 
Q 1389 358 1504 246 
Q 1619 134 2016 122 
L 2016 0 
z
" transform="scale(0.015625)"/>
     </defs>
     <use xlink:href="#STIXGeneral-Regular-39"/>
     <use xlink:href="#STIXGeneral-Regular-34" x="49.999985"/>
     <use xlink:href="#STIXGeneral-Regular-25" x="99.999969"/>
     <use xlink:href="#STIXGeneral-Regular-20" x="174.699951"/>
     <use xlink:href="#STIXGeneral-Regular-48" x="199.699936"/>
     <use xlink:href="#STIXGeneral-Regular-44" x="271.899918"/>
     <use xlink:href="#STIXGeneral-Regular-49" x="344.099899"/>
    </g>
   </g>
   <g id="text_11">
    <!-- mean=1 -->
    <g style="fill: #262626" transform="translate(279.457145 57.690526) scale(0.161374 -0.161374)">
     <defs>
      <path id="STIXGeneral-Regular-6d" d="M 4960 0 
L 3565 0 
L 3565 96 
Q 3834 122 3907 208 
Q 3981 294 3981 576 
L 3981 1894 
Q 3981 2278 3869 2444 
Q 3757 2611 3488 2611 
Q 3264 2611 3107 2521 
Q 2950 2432 2803 2221 
L 2803 608 
Q 2803 301 2896 201 
Q 2989 102 3264 96 
L 3264 0 
L 1830 0 
L 1830 96 
Q 2112 115 2189 188 
Q 2266 262 2266 550 
L 2266 1901 
Q 2266 2611 1850 2611 
Q 1670 2611 1468 2531 
Q 1267 2451 1171 2336 
Q 1088 2240 1088 2227 
L 1088 448 
Q 1088 243 1177 176 
Q 1267 109 1523 96 
L 1523 0 
L 102 0 
L 102 96 
Q 371 102 460 195 
Q 550 288 550 563 
L 550 2150 
Q 550 2387 499 2480 
Q 448 2573 326 2573 
Q 230 2573 122 2547 
L 122 2656 
Q 557 2778 1011 2944 
L 1062 2925 
L 1062 2451 
L 1075 2451 
Q 1363 2752 1584 2848 
Q 1805 2944 2054 2944 
Q 2560 2944 2733 2406 
Q 3232 2944 3776 2944 
Q 4518 2944 4518 1792 
L 4518 493 
Q 4518 282 4582 202 
Q 4646 122 4794 109 
L 4960 96 
L 4960 0 
z
" transform="scale(0.015625)"/>
      <path id="STIXGeneral-Regular-65" d="M 2611 1050 
L 2714 1005 
Q 2330 -64 1376 -64 
Q 813 -64 486 329 
Q 160 723 160 1389 
Q 160 2074 525 2509 
Q 890 2944 1485 2944 
Q 2061 2944 2374 2502 
Q 2560 2246 2592 1773 
L 621 1773 
Q 646 1370 700 1158 
Q 755 947 915 730 
Q 1184 378 1626 378 
Q 1939 378 2153 531 
Q 2368 685 2611 1050 
z
M 634 1978 
L 1939 1978 
Q 1882 2381 1750 2547 
Q 1619 2714 1312 2714 
Q 1043 2714 864 2525 
Q 685 2336 634 1978 
z
" transform="scale(0.015625)"/>
      <path id="STIXGeneral-Regular-61" d="M 2829 422 
L 2829 243 
Q 2586 -64 2253 -64 
Q 1888 -64 1843 403 
L 1837 403 
Q 1427 -64 909 -64 
Q 608 -64 422 112 
Q 237 288 237 602 
Q 237 1050 685 1350 
Q 992 1555 1837 1869 
L 1837 2214 
Q 1837 2502 1699 2646 
Q 1562 2790 1338 2790 
Q 1146 2790 1018 2697 
Q 890 2605 890 2477 
Q 890 2419 909 2348 
Q 928 2278 928 2208 
Q 928 2112 841 2029 
Q 755 1946 634 1946 
Q 525 1946 441 2029 
Q 358 2112 358 2240 
Q 358 2547 685 2752 
Q 986 2944 1421 2944 
Q 1939 2944 2176 2656 
Q 2291 2522 2323 2384 
Q 2355 2246 2355 1946 
L 2355 723 
Q 2355 301 2554 301 
Q 2682 301 2829 422 
z
M 1837 813 
L 1837 1715 
Q 1248 1510 1018 1293 
Q 800 1094 800 800 
Q 800 557 921 432 
Q 1043 307 1242 307 
Q 1453 307 1613 410 
Q 1747 506 1792 589 
Q 1837 672 1837 813 
z
" transform="scale(0.015625)"/>
      <path id="STIXGeneral-Regular-6e" d="M 3104 0 
L 1773 0 
L 1779 96 
Q 2016 115 2096 233 
Q 2176 352 2176 672 
L 2176 1946 
Q 2176 2592 1709 2592 
Q 1549 2592 1408 2515 
Q 1267 2438 1050 2227 
L 1050 461 
Q 1050 269 1136 192 
Q 1222 115 1466 96 
L 1466 0 
L 115 0 
L 115 96 
Q 358 115 435 214 
Q 512 314 512 602 
L 512 2157 
Q 512 2394 467 2483 
Q 422 2573 288 2573 
Q 160 2573 102 2547 
L 102 2656 
Q 550 2784 979 2944 
L 1030 2925 
L 1030 2426 
L 1037 2426 
Q 1491 2944 1958 2944 
Q 2323 2944 2518 2688 
Q 2714 2432 2714 1958 
L 2714 544 
Q 2714 288 2790 205 
Q 2867 122 3104 96 
L 3104 0 
z
" transform="scale(0.015625)"/>
      <path id="STIXGeneral-Regular-3d" d="M 4077 2048 
L 307 2048 
L 307 2470 
L 4077 2470 
L 4077 2048 
z
M 4077 768 
L 307 768 
L 307 1190 
L 4077 1190 
L 4077 768 
z
" transform="scale(0.015625)"/>
     </defs>
     <use xlink:href="#STIXGeneral-Regular-6d"/>
     <use xlink:href="#STIXGeneral-Regular-65" x="77.799988"/>
     <use xlink:href="#STIXGeneral-Regular-61" x="122.199982"/>
     <use xlink:href="#STIXGeneral-Regular-6e" x="166.599976"/>
     <use xlink:href="#STIXGeneral-Regular-3d" x="216.59996"/>
     <use xlink:href="#STIXGeneral-Regular-31" x="285.099945"/>
    </g>
   </g>
   <g id="text_12">
    <!-- alpha -->
    <g style="fill: #262626" transform="translate(16.613501 18.956118) scale(0.172133 -0.172133)">
     <defs>
      <path id="STIXGeneral-Regular-6c" d="M 1645 0 
L 134 0 
L 134 96 
Q 435 122 531 221 
Q 627 320 627 589 
L 627 3590 
Q 627 3821 569 3910 
Q 512 4000 358 4000 
Q 224 4000 122 3987 
L 122 4090 
Q 730 4237 1133 4371 
L 1165 4346 
L 1165 557 
Q 1165 288 1254 201 
Q 1344 115 1645 96 
L 1645 0 
z
" transform="scale(0.015625)"/>
      <path id="STIXGeneral-Regular-70" d="M 1018 2931 
L 1018 2438 
Q 1421 2944 1939 2944 
Q 2406 2944 2707 2560 
Q 3008 2176 3008 1581 
Q 3008 883 2621 409 
Q 2234 -64 1664 -64 
Q 1466 -64 1328 -6 
Q 1190 51 1018 211 
L 1018 -794 
Q 1018 -1094 1120 -1180 
Q 1222 -1267 1581 -1274 
L 1581 -1389 
L 32 -1389 
L 32 -1280 
Q 314 -1254 397 -1171 
Q 480 -1088 480 -838 
L 480 2157 
Q 480 2381 429 2451 
Q 378 2522 218 2522 
Q 115 2522 58 2515 
L 58 2618 
Q 506 2752 979 2944 
L 1018 2931 
z
M 1018 2138 
L 1018 563 
Q 1018 422 1238 281 
Q 1459 141 1683 141 
Q 2029 141 2243 467 
Q 2458 794 2458 1325 
Q 2458 1888 2243 2224 
Q 2029 2560 1670 2560 
Q 1446 2560 1232 2419 
Q 1018 2278 1018 2138 
z
" transform="scale(0.015625)"/>
      <path id="STIXGeneral-Regular-68" d="M 3117 0 
L 1760 0 
L 1760 96 
Q 2042 128 2118 224 
Q 2195 320 2195 653 
L 2195 1920 
Q 2195 2598 1722 2598 
Q 1530 2598 1370 2508 
Q 1210 2419 1005 2195 
L 1005 653 
Q 1005 320 1081 224 
Q 1158 128 1440 96 
L 1440 0 
L 58 0 
L 58 96 
Q 333 134 400 224 
Q 467 314 467 653 
L 467 3667 
Q 467 3872 406 3933 
Q 346 3994 141 3994 
Q 83 3994 64 3987 
L 64 4090 
L 237 4141 
Q 730 4288 973 4371 
L 1005 4352 
L 1005 2406 
Q 1229 2694 1446 2819 
Q 1664 2944 1946 2944 
Q 2733 2944 2733 1926 
L 2733 653 
Q 2733 320 2793 233 
Q 2854 147 3117 96 
L 3117 0 
z
" transform="scale(0.015625)"/>
     </defs>
     <use xlink:href="#STIXGeneral-Regular-61"/>
     <use xlink:href="#STIXGeneral-Regular-6c" x="44.399994"/>
     <use xlink:href="#STIXGeneral-Regular-70" x="72.199982"/>
     <use xlink:href="#STIXGeneral-Regular-68" x="122.199966"/>
     <use xlink:href="#STIXGeneral-Regular-61" x="172.199951"/>
    </g>
   </g>
  </g>
 </g>
 <defs>
  <clipPath id="p85babdcfd6">
   <rect x="16.613501" y="24.956118" width="551.172518" height="316.18796"/>
  </clipPath>
 </defs>
</svg>