<?xml version="1.0" encoding="utf-8" standalone="no"?>
<!DOCTYPE svg PUBLIC "-//W3C//DTD SVG 1.1//EN"
  "http://www.w3.org/Graphics/SVG/1.1/DTD/svg11.dtd">
<svg xmlns:xlink="http://www.w3.org/1999/xlink" width="286.56pt" height="278.56pt" viewBox="0 0 286.56 278.56" xmlns="http://www.w3.org/2000/svg" version="1.1">
 <metadata>
  <rdf:RDF xmlns:dc="http://purl.org/dc/elements/1.1/" xmlns:cc="http://creativecommons.org/ns#" xmlns:rdf="http://www.w3.org/1999/02/22-rdf-syntax-ns#">
   <cc:Work>
    <dc:type rdf:resource="http://purl.org/dc/dcmitype/StillImage"/>
    <dc:date>2025-03-26T16:06:47.527768</dc:date>
    <dc:format>image/svg+xml</dc:format>
    <dc:creator>
     <cc:Agent>
      <dc:title>Matplotlib v3.10.0, https://matplotlib.org/</dc:title>
     </cc:Agent>
    </dc:creator>
   </cc:Work>
  </rdf:RDF>
 </metadata>
 <defs>
  <style type="text/css">*{stroke-linejoin: round; stroke-linecap: butt}</style>
 </defs>
 <g id="figure_1">
  <g id="patch_1">
   <path d="M 0 278.56 
L 286.56 278.56 
L 286.56 0 
L 0 0 
z
" style="fill: #ffffff"/>
  </g>
  <g id="axes_1">
   <g id="patch_2">
    <path d="M 258.16 139.28 
C 258.16 124.719372 255.291874 110.300327 249.719763 96.848061 
C 244.147651 83.395795 235.979919 71.171919 225.684 60.876 
C 215.388081 50.580081 203.164205 42.412349 189.711939 36.840237 
C 176.259673 31.268126 161.840628 28.4 147.28 28.4 
C 132.719372 28.4 118.300327 31.268126 104.848061 36.840237 
C 91.395795 42.412349 79.171919 50.580081 68.876 60.876 
C 58.580081 71.171919 50.412349 83.395795 44.840237 96.848061 
C 39.268126 110.300327 36.4 124.719372 36.4 139.28 
C 36.4 153.840628 39.268126 168.259673 44.840237 181.711939 
C 50.412349 195.164205 58.580081 207.388081 68.876 217.684 
C 79.171919 227.979919 91.395795 236.147651 104.848061 241.719763 
C 118.300327 247.291874 132.719372 250.16 147.28 250.16 
C 161.840628 250.16 176.259673 247.291874 189.711939 241.719763 
C 203.164205 236.147651 215.388081 227.979919 225.684 217.684 
C 235.979919 207.388081 244.147651 195.164205 249.719763 181.711939 
C 255.291874 168.259673 258.16 153.840628 258.16 139.28 
M 147.28 139.28 
C 147.28 139.28 147.28 139.28 147.28 139.28 
C 147.28 139.28 147.28 139.28 147.28 139.28 
C 147.28 139.28 147.28 139.28 147.28 139.28 
C 147.28 139.28 147.28 139.28 147.28 139.28 
C 147.28 139.28 147.28 139.28 147.28 139.28 
C 147.28 139.28 147.28 139.28 147.28 139.28 
C 147.28 139.28 147.28 139.28 147.28 139.28 
C 147.28 139.28 147.28 139.28 147.28 139.28 
C 147.28 139.28 147.28 139.28 147.28 139.28 
C 147.28 139.28 147.28 139.28 147.28 139.28 
C 147.28 139.28 147.28 139.28 147.28 139.28 
C 147.28 139.28 147.28 139.28 147.28 139.28 
C 147.28 139.28 147.28 139.28 147.28 139.28 
C 147.28 139.28 147.28 139.28 147.28 139.28 
C 147.28 139.28 147.28 139.28 147.28 139.28 
C 147.28 139.28 147.28 139.28 147.28 139.28 
z
" style="fill: #ffffff"/>
   </g>
   <g id="matplotlib.axis_1">
    <g id="xtick_1">
     <g id="line2d_1">
      <path d="M 147.28 139.28 
L 258.16 139.28 
" clip-path="url(#pf91eb3c074)" style="fill: none; stroke: #b1afb5; stroke-width: 0.8; stroke-linecap: square"/>
     </g>
     <g id="text_1">
      <!-- 0° -->
      <g style="fill: #323034" transform="translate(264.96 143.0075) scale(0.16 -0.16)">
       <defs>
        <path id="STIXGeneral-Regular-30" d="M 3046 2112 
Q 3046 1683 2963 1302 
Q 2880 922 2717 602 
Q 2554 282 2266 96 
Q 1978 -90 1600 -90 
Q 1210 -90 915 108 
Q 621 307 461 640 
Q 301 973 227 1350 
Q 154 1728 154 2150 
Q 154 2746 301 3222 
Q 448 3699 790 4012 
Q 1133 4326 1626 4326 
Q 2253 4326 2649 3712 
Q 3046 3098 3046 2112 
z
M 2432 2080 
Q 2432 3091 2217 3625 
Q 2003 4160 1587 4160 
Q 1190 4160 979 3622 
Q 768 3085 768 2106 
Q 768 1120 979 598 
Q 1190 77 1600 77 
Q 2003 77 2217 598 
Q 2432 1120 2432 2080 
z
" transform="scale(0.015625)"/>
        <path id="STIXGeneral-Regular-b0" d="M 2195 3411 
Q 2195 3027 1929 2761 
Q 1664 2496 1280 2496 
Q 890 2496 627 2761 
Q 365 3027 365 3418 
Q 365 3802 633 4064 
Q 902 4326 1293 4326 
Q 1664 4326 1929 4057 
Q 2195 3789 2195 3411 
z
M 1946 3418 
Q 1946 3699 1744 3904 
Q 1542 4109 1267 4109 
Q 1005 4109 809 3901 
Q 614 3693 614 3411 
Q 614 3123 809 2918 
Q 1005 2714 1280 2714 
Q 1555 2714 1750 2922 
Q 1946 3130 1946 3418 
z
" transform="scale(0.015625)"/>
       </defs>
       <use xlink:href="#STIXGeneral-Regular-30"/>
       <use xlink:href="#STIXGeneral-Regular-b0" transform="translate(49.999985 0)"/>
      </g>
     </g>
    </g>
    <g id="xtick_2">
     <g id="line2d_2">
      <path d="M 147.28 139.28 
L 225.684 60.876 
" clip-path="url(#pf91eb3c074)" style="fill: none; stroke: #b1afb5; stroke-width: 0.8; stroke-linecap: square"/>
     </g>
     <g id="text_2">
      <!-- 45° -->
      <g style="fill: #323034" transform="translate(224.383495 54.704005) scale(0.16 -0.16)">
       <defs>
        <path id="STIXGeneral-Regular-34" d="M 3027 1069 
L 2368 1069 
L 2368 0 
L 1869 0 
L 1869 1069 
L 77 1069 
L 77 1478 
L 2086 4326 
L 2368 4326 
L 2368 1478 
L 3027 1478 
L 3027 1069 
z
M 1869 1478 
L 1869 3674 
L 333 1478 
L 1869 1478 
z
" transform="scale(0.015625)"/>
        <path id="STIXGeneral-Regular-35" d="M 2803 4358 
L 2573 3814 
Q 2534 3731 2400 3731 
L 1158 3731 
L 902 3187 
Q 1606 3053 1920 2896 
Q 2234 2739 2502 2368 
Q 2726 2061 2726 1555 
Q 2726 1094 2576 780 
Q 2426 467 2099 224 
Q 1664 -90 1011 -90 
Q 646 -90 422 19 
Q 198 128 198 307 
Q 198 550 486 550 
Q 717 550 960 352 
Q 1210 147 1414 147 
Q 1747 147 2012 480 
Q 2278 813 2278 1229 
Q 2278 1843 1850 2189 
Q 1293 2637 486 2637 
Q 410 2637 410 2688 
L 416 2720 
L 1114 4237 
L 2438 4237 
Q 2547 4237 2608 4269 
Q 2669 4301 2746 4403 
L 2803 4358 
z
" transform="scale(0.015625)"/>
       </defs>
       <use xlink:href="#STIXGeneral-Regular-34"/>
       <use xlink:href="#STIXGeneral-Regular-35" transform="translate(49.999985 0)"/>
       <use xlink:href="#STIXGeneral-Regular-b0" transform="translate(99.999969 0)"/>
      </g>
     </g>
    </g>
    <g id="xtick_3">
     <g id="line2d_3">
      <path d="M 147.28 139.28 
L 147.28 28.4 
" clip-path="url(#pf91eb3c074)" style="fill: none; stroke: #b1afb5; stroke-width: 0.8; stroke-linecap: square"/>
     </g>
     <g id="text_3">
      <!-- 90° -->
      <g style="fill: #323034" transform="translate(136.08 18.1275) scale(0.16 -0.16)">
       <defs>
        <path id="STIXGeneral-Regular-39" d="M 378 -141 
L 358 -13 
Q 1094 115 1603 608 
Q 2112 1101 2304 1882 
Q 1933 1517 1344 1517 
Q 826 1517 509 1875 
Q 192 2234 192 2816 
Q 192 3462 573 3894 
Q 954 4326 1523 4326 
Q 2131 4326 2528 3840 
Q 2938 3328 2938 2522 
Q 2938 1958 2742 1462 
Q 2547 966 2170 621 
Q 1773 262 1395 105 
Q 1018 -51 378 -141 
z
M 2317 2272 
L 2317 2522 
Q 2317 4147 1472 4147 
Q 1171 4147 1005 3930 
Q 909 3802 845 3546 
Q 781 3290 781 3034 
Q 781 2464 995 2128 
Q 1210 1792 1568 1792 
Q 1824 1792 2070 1917 
Q 2317 2042 2317 2272 
z
" transform="scale(0.015625)"/>
       </defs>
       <use xlink:href="#STIXGeneral-Regular-39"/>
       <use xlink:href="#STIXGeneral-Regular-30" transform="translate(49.999985 0)"/>
       <use xlink:href="#STIXGeneral-Regular-b0" transform="translate(99.999969 0)"/>
      </g>
     </g>
    </g>
    <g id="xtick_4">
     <g id="line2d_4">
      <path d="M 147.28 139.28 
L 68.876 60.876 
" clip-path="url(#pf91eb3c074)" style="fill: none; stroke: #b1afb5; stroke-width: 0.8; stroke-linecap: square"/>
     </g>
     <g id="text_4">
      <!-- 135° -->
      <g style="fill: #323034" transform="translate(43.776505 54.704005) scale(0.16 -0.16)">
       <defs>
        <path id="STIXGeneral-Regular-31" d="M 2522 0 
L 755 0 
L 755 96 
Q 1107 115 1235 227 
Q 1363 339 1363 608 
L 1363 3482 
Q 1363 3795 1171 3795 
Q 1082 3795 883 3718 
L 710 3654 
L 710 3744 
L 1856 4326 
L 1914 4307 
L 1914 486 
Q 1914 275 2042 185 
Q 2170 96 2522 96 
L 2522 0 
z
" transform="scale(0.015625)"/>
        <path id="STIXGeneral-Regular-33" d="M 390 3264 
L 288 3290 
Q 435 3770 748 4048 
Q 1062 4326 1542 4326 
Q 1990 4326 2265 4083 
Q 2541 3840 2541 3450 
Q 2541 2925 1946 2566 
Q 2298 2413 2477 2227 
Q 2758 1914 2758 1402 
Q 2758 890 2464 506 
Q 2246 211 1840 60 
Q 1434 -90 979 -90 
Q 262 -90 262 275 
Q 262 378 339 442 
Q 416 506 525 506 
Q 685 506 915 339 
Q 1197 141 1466 141 
Q 1818 141 2058 425 
Q 2298 710 2298 1120 
Q 2298 1856 1632 2048 
Q 1434 2112 979 2112 
L 979 2202 
Q 1338 2323 1517 2432 
Q 2035 2726 2035 3290 
Q 2035 3610 1852 3776 
Q 1670 3942 1344 3942 
Q 768 3942 390 3264 
z
" transform="scale(0.015625)"/>
       </defs>
       <use xlink:href="#STIXGeneral-Regular-31"/>
       <use xlink:href="#STIXGeneral-Regular-33" transform="translate(49.999985 0)"/>
       <use xlink:href="#STIXGeneral-Regular-35" transform="translate(99.999969 0)"/>
       <use xlink:href="#STIXGeneral-Regular-b0" transform="translate(149.999954 0)"/>
      </g>
     </g>
    </g>
    <g id="xtick_5">
     <g id="line2d_5">
      <path d="M 147.28 139.28 
L 36.4 139.28 
" clip-path="url(#pf91eb3c074)" style="fill: none; stroke: #b1afb5; stroke-width: 0.8; stroke-linecap: square"/>
     </g>
     <g id="text_5">
      <!-- 180° -->
      <g style="fill: #323034" transform="translate(7.2 143.0075) scale(0.16 -0.16)">
       <defs>
        <path id="STIXGeneral-Regular-38" d="M 2848 992 
Q 2848 499 2505 204 
Q 2163 -90 1587 -90 
Q 1050 -90 704 204 
Q 358 499 358 954 
Q 358 1293 524 1533 
Q 691 1773 1190 2125 
Q 710 2522 553 2765 
Q 397 3008 397 3328 
Q 397 3782 745 4054 
Q 1094 4326 1638 4326 
Q 2106 4326 2410 4060 
Q 2714 3795 2714 3411 
Q 2714 3059 2531 2848 
Q 2349 2637 1856 2374 
Q 2432 1990 2640 1689 
Q 2848 1389 2848 992 
z
M 2272 3411 
Q 2272 3744 2086 3945 
Q 1901 4147 1574 4147 
Q 1248 4147 1059 3977 
Q 870 3808 870 3513 
Q 870 3219 1059 2979 
Q 1248 2739 1670 2490 
Q 1997 2682 2134 2896 
Q 2272 3110 2272 3411 
z
M 1734 1741 
L 1357 1997 
Q 1075 1766 960 1545 
Q 845 1325 845 1011 
Q 845 576 1065 333 
Q 1286 90 1658 90 
Q 1971 90 2166 285 
Q 2362 480 2362 794 
Q 2362 1082 2214 1299 
Q 2067 1517 1734 1741 
z
" transform="scale(0.015625)"/>
       </defs>
       <use xlink:href="#STIXGeneral-Regular-31"/>
       <use xlink:href="#STIXGeneral-Regular-38" transform="translate(49.999985 0)"/>
       <use xlink:href="#STIXGeneral-Regular-30" transform="translate(99.999969 0)"/>
       <use xlink:href="#STIXGeneral-Regular-b0" transform="translate(149.999954 0)"/>
      </g>
     </g>
    </g>
    <g id="xtick_6">
     <g id="line2d_6">
      <path d="M 147.28 139.28 
L 68.876 217.684 
" clip-path="url(#pf91eb3c074)" style="fill: none; stroke: #b1afb5; stroke-width: 0.8; stroke-linecap: square"/>
     </g>
     <g id="text_6">
      <!-- 225° -->
      <g style="fill: #323034" transform="translate(43.776505 231.310995) scale(0.16 -0.16)">
       <defs>
        <path id="STIXGeneral-Regular-32" d="M 3034 877 
L 2688 0 
L 186 0 
L 186 77 
L 1325 1286 
Q 1773 1754 1965 2144 
Q 2157 2534 2157 2950 
Q 2157 3379 1920 3616 
Q 1683 3853 1267 3853 
Q 922 3853 720 3673 
Q 518 3494 326 3021 
L 192 3053 
Q 301 3648 630 3987 
Q 960 4326 1523 4326 
Q 2054 4326 2380 4006 
Q 2707 3686 2707 3200 
Q 2707 2477 1888 1613 
L 832 486 
L 2330 486 
Q 2541 486 2665 569 
Q 2790 653 2944 915 
L 3034 877 
z
" transform="scale(0.015625)"/>
       </defs>
       <use xlink:href="#STIXGeneral-Regular-32"/>
       <use xlink:href="#STIXGeneral-Regular-32" transform="translate(49.999985 0)"/>
       <use xlink:href="#STIXGeneral-Regular-35" transform="translate(99.999969 0)"/>
       <use xlink:href="#STIXGeneral-Regular-b0" transform="translate(149.999954 0)"/>
      </g>
     </g>
    </g>
    <g id="xtick_7">
     <g id="line2d_7">
      <path d="M 147.28 139.28 
L 147.28 250.16 
" clip-path="url(#pf91eb3c074)" style="fill: none; stroke: #b1afb5; stroke-width: 0.8; stroke-linecap: square"/>
     </g>
     <g id="text_7">
      <!-- 270° -->
      <g style="fill: #323034" transform="translate(132.08 267.8875) scale(0.16 -0.16)">
       <defs>
        <path id="STIXGeneral-Regular-37" d="M 2874 4134 
L 1517 -51 
L 1101 -51 
L 2368 3763 
L 992 3763 
Q 717 3763 582 3667 
Q 448 3571 243 3238 
L 128 3296 
L 512 4237 
L 2874 4237 
L 2874 4134 
z
" transform="scale(0.015625)"/>
       </defs>
       <use xlink:href="#STIXGeneral-Regular-32"/>
       <use xlink:href="#STIXGeneral-Regular-37" transform="translate(49.999985 0)"/>
       <use xlink:href="#STIXGeneral-Regular-30" transform="translate(99.999969 0)"/>
       <use xlink:href="#STIXGeneral-Regular-b0" transform="translate(149.999954 0)"/>
      </g>
     </g>
    </g>
    <g id="xtick_8">
     <g id="line2d_8">
      <path d="M 147.28 139.28 
L 225.684 217.684 
" clip-path="url(#pf91eb3c074)" style="fill: none; stroke: #b1afb5; stroke-width: 0.8; stroke-linecap: square"/>
     </g>
     <g id="text_8">
      <!-- 315° -->
      <g style="fill: #323034" transform="translate(220.383495 231.310995) scale(0.16 -0.16)">
       <use xlink:href="#STIXGeneral-Regular-33"/>
       <use xlink:href="#STIXGeneral-Regular-31" transform="translate(49.999985 0)"/>
       <use xlink:href="#STIXGeneral-Regular-35" transform="translate(99.999969 0)"/>
       <use xlink:href="#STIXGeneral-Regular-b0" transform="translate(149.999954 0)"/>
      </g>
     </g>
    </g>
   </g>
   <g id="matplotlib.axis_2">
    <g id="ytick_1">
     <g id="line2d_9">
      <path d="M 175 139.28 
C 175 135.639843 174.282968 132.035082 172.889941 128.672015 
C 171.496913 125.308949 169.45498 122.25298 166.881 119.679 
C 164.30702 117.10502 161.251051 115.063087 157.887985 113.670059 
C 154.524918 112.277032 150.920157 111.56 147.28 111.56 
C 143.639843 111.56 140.035082 112.277032 136.672015 113.670059 
C 133.308949 115.063087 130.25298 117.10502 127.679 119.679 
C 125.10502 122.25298 123.063087 125.308949 121.670059 128.672015 
C 120.277032 132.035082 119.56 135.639843 119.56 139.28 
C 119.56 142.920157 120.277032 146.524918 121.670059 149.887985 
C 123.063087 153.251051 125.10502 156.30702 127.679 158.881 
C 130.25298 161.45498 133.308949 163.496913 136.672015 164.889941 
C 140.035082 166.282968 143.639843 167 147.28 167 
C 150.920157 167 154.524918 166.282968 157.887985 164.889941 
C 161.251051 163.496913 164.30702 161.45498 166.881 158.881 
C 169.45498 156.30702 171.496913 153.251051 172.889941 149.887985 
C 174.282968 146.524918 175 142.920157 175 139.28 
" clip-path="url(#pf91eb3c074)" style="fill: none; stroke: #b1afb5; stroke-width: 0.8; stroke-linecap: square"/>
     </g>
     <g id="text_9">
      <!-- $\mathdefault{0.5}$ -->
      <g style="fill: #323034" transform="translate(172.889941 146.415485) scale(0.16 -0.16)">
       <defs>
        <path id="STIXGeneral-Regular-2e" d="M 1158 275 
Q 1158 134 1052 32 
Q 947 -70 800 -70 
Q 653 -70 550 32 
Q 448 134 448 281 
Q 448 429 553 534 
Q 659 640 806 640 
Q 947 640 1052 531 
Q 1158 422 1158 275 
z
" transform="scale(0.015625)"/>
       </defs>
       <use xlink:href="#STIXGeneral-Regular-30" transform="translate(0 0.203125)"/>
       <use xlink:href="#STIXGeneral-Regular-2e" transform="translate(49.999985 0.203125)"/>
       <use xlink:href="#STIXGeneral-Regular-35" transform="translate(74.999969 0.203125)"/>
      </g>
     </g>
    </g>
    <g id="ytick_2">
     <g id="line2d_10">
      <path d="M 202.72 139.28 
C 202.72 131.999686 201.285937 124.790164 198.499881 118.064031 
C 195.713826 111.337897 191.629959 105.22596 186.482 100.078 
C 181.33404 94.930041 175.222103 90.846174 168.495969 88.060119 
C 161.769836 85.274063 154.560314 83.84 147.28 83.84 
C 139.999686 83.84 132.790164 85.274063 126.064031 88.060119 
C 119.337897 90.846174 113.22596 94.930041 108.078 100.078 
C 102.930041 105.22596 98.846174 111.337897 96.060119 118.064031 
C 93.274063 124.790164 91.84 131.999686 91.84 139.28 
C 91.84 146.560314 93.274063 153.769836 96.060119 160.495969 
C 98.846174 167.222103 102.930041 173.33404 108.078 178.482 
C 113.22596 183.629959 119.337897 187.713826 126.064031 190.499881 
C 132.790164 193.285937 139.999686 194.72 147.28 194.72 
C 154.560314 194.72 161.769836 193.285937 168.495969 190.499881 
C 175.222103 187.713826 181.33404 183.629959 186.482 178.482 
C 191.629959 173.33404 195.713826 167.222103 198.499881 160.495969 
C 201.285937 153.769836 202.72 146.560314 202.72 139.28 
" clip-path="url(#pf91eb3c074)" style="fill: none; stroke: #b1afb5; stroke-width: 0.8; stroke-linecap: square"/>
     </g>
     <g id="text_10">
      <!-- $\mathdefault{1.0}$ -->
      <g style="fill: #323034" transform="translate(198.499881 157.023469) scale(0.16 -0.16)">
       <use xlink:href="#STIXGeneral-Regular-31" transform="translate(0 0.40625)"/>
       <use xlink:href="#STIXGeneral-Regular-2e" transform="translate(49.999985 0.40625)"/>
       <use xlink:href="#STIXGeneral-Regular-30" transform="translate(74.999969 0.40625)"/>
      </g>
     </g>
    </g>
    <g id="ytick_3">
     <g id="line2d_11">
      <path d="M 230.44 139.28 
C 230.44 128.359529 228.288905 117.545246 224.109822 107.456046 
C 219.930739 97.366846 213.804939 88.198939 206.083 80.477 
C 198.361061 72.755061 189.193154 66.629261 179.103954 62.450178 
C 169.014754 58.271095 158.200471 56.12 147.28 56.12 
C 136.359529 56.12 125.545246 58.271095 115.456046 62.450178 
C 105.366846 66.629261 96.198939 72.755061 88.477 80.477 
C 80.755061 88.198939 74.629261 97.366846 70.450178 107.456046 
C 66.271095 117.545246 64.12 128.359529 64.12 139.28 
C 64.12 150.200471 66.271095 161.014754 70.450178 171.103954 
C 74.629261 181.193154 80.755061 190.361061 88.477 198.083 
C 96.198939 205.804939 105.366846 211.930739 115.456046 216.109822 
C 125.545246 220.288905 136.359529 222.44 147.28 222.44 
C 158.200471 222.44 169.014754 220.288905 179.103954 216.109822 
C 189.193154 211.930739 198.361061 205.804939 206.083 198.083 
C 213.804939 190.361061 219.930739 181.193154 224.109822 171.103954 
C 228.288905 161.014754 230.44 150.200471 230.44 139.28 
" clip-path="url(#pf91eb3c074)" style="fill: none; stroke: #b1afb5; stroke-width: 0.8; stroke-linecap: square"/>
     </g>
     <g id="text_11">
      <!-- $\mathdefault{1.5}$ -->
      <g style="fill: #323034" transform="translate(224.109822 167.631454) scale(0.16 -0.16)">
       <use xlink:href="#STIXGeneral-Regular-31" transform="translate(0 0.203125)"/>
       <use xlink:href="#STIXGeneral-Regular-2e" transform="translate(49.999985 0.203125)"/>
       <use xlink:href="#STIXGeneral-Regular-35" transform="translate(74.999969 0.203125)"/>
      </g>
     </g>
    </g>
    <g id="ytick_4">
     <g id="line2d_12">
      <path d="M 258.16 139.28 
C 258.16 124.719372 255.291874 110.300327 249.719763 96.848061 
C 244.147651 83.395795 235.979919 71.171919 225.684 60.876 
C 215.388081 50.580081 203.164205 42.412349 189.711939 36.840237 
C 176.259673 31.268126 161.840628 28.4 147.28 28.4 
C 132.719372 28.4 118.300327 31.268126 104.848061 36.840237 
C 91.395795 42.412349 79.171919 50.580081 68.876 60.876 
C 58.580081 71.171919 50.412349 83.395795 44.840237 96.848061 
C 39.268126 110.300327 36.4 124.719372 36.4 139.28 
C 36.4 153.840628 39.268126 168.259673 44.840237 181.711939 
C 50.412349 195.164205 58.580081 207.388081 68.876 217.684 
C 79.171919 227.979919 91.395795 236.147651 104.848061 241.719763 
C 118.300327 247.291874 132.719372 250.16 147.28 250.16 
C 161.840628 250.16 176.259673 247.291874 189.711939 241.719763 
C 203.164205 236.147651 215.388081 227.979919 225.684 217.684 
C 235.979919 207.388081 244.147651 195.164205 249.719763 181.711939 
C 255.291874 168.259673 258.16 153.840628 258.16 139.28 
" clip-path="url(#pf91eb3c074)" style="fill: none; stroke: #b1afb5; stroke-width: 0.8; stroke-linecap: square"/>
     </g>
     <g id="text_12">
      <!-- $\mathdefault{2.0}$ -->
      <g style="fill: #323034" transform="translate(249.719763 178.239439) scale(0.16 -0.16)">
       <use xlink:href="#STIXGeneral-Regular-32" transform="translate(0 0.40625)"/>
       <use xlink:href="#STIXGeneral-Regular-2e" transform="translate(49.999985 0.40625)"/>
       <use xlink:href="#STIXGeneral-Regular-30" transform="translate(74.999969 0.40625)"/>
      </g>
     </g>
    </g>
   </g>
   <g id="line2d_13">
    <path d="M 147.28 139.28 
L 148.380057 139.141031 
L 149.42793 138.728505 
L 150.372809 138.05547 
L 151.166595 137.143326 
L 151.76519 136.021319 
L 152.129682 134.725845 
L 152.22743 133.299584 
L 152.032998 131.790474 
L 151.528937 130.25055 
L 150.70638 128.734685 
L 149.565452 127.299239 
L 148.115466 126.000656 
L 146.374912 124.894044 
L 144.371242 124.031759 
L 142.140429 123.462028 
L 139.726335 123.227644 
L 137.179879 123.364756 
L 134.558037 123.901788 
L 131.922672 124.858509 
L 129.339239 126.245274 
L 126.875374 128.062462 
L 125.709647 129.129762 
L 124.599404 130.300117 
L 123.553042 131.570644 
L 122.578805 132.937811 
L 121.684738 134.397443 
L 120.878637 135.944732 
L 120.168005 137.574258 
L 119.56 139.28 
L 119.061393 141.055364 
L 118.678524 142.893207 
L 118.417257 144.785863 
L 118.282945 146.725178 
L 118.280385 148.702546 
L 118.413787 150.708942 
L 118.686741 152.734966 
L 119.102183 154.770886 
L 119.662371 156.80668 
L 120.368859 158.832089 
L 121.222475 160.836659 
L 122.223307 162.809801 
L 123.370686 164.740833 
L 124.663177 166.619043 
L 126.098571 168.433736 
L 127.673883 170.174297 
L 129.385356 171.830236 
L 131.228461 173.391256 
L 133.197911 174.847298 
L 135.287668 176.188601 
L 137.490969 177.405758 
L 139.800338 178.489764 
L 142.207614 179.432072 
L 144.703981 180.224645 
L 147.28 180.86 
L 149.925641 181.331257 
L 152.630325 181.632186 
L 155.382968 181.757244 
L 158.17202 181.701618 
L 160.985522 181.461259 
L 163.811148 181.032915 
L 166.636267 180.414162 
L 169.447992 179.603427 
L 172.23324 178.600014 
L 174.978792 177.404117 
L 177.671356 176.016839 
L 180.297624 174.440198 
L 182.844338 172.677137 
L 185.298356 170.73152 
L 187.646712 168.608133 
L 189.876682 166.312676 
L 191.975847 163.85175 
L 193.932159 161.23284 
L 195.734 158.464296 
L 197.370245 155.555307 
L 198.83032 152.515873 
L 200.104265 149.356767 
L 201.182782 146.089505 
L 202.057296 142.726295 
L 202.72 139.28 
L 203.163908 135.764083 
L 203.382896 132.192556 
L 203.371745 128.579927 
L 203.12618 124.941138 
L 202.642902 121.291503 
L 201.919617 117.646645 
L 200.955065 114.022432 
L 199.749038 110.434902 
L 198.302399 106.900201 
L 196.617092 103.434504 
L 194.696152 100.053948 
L 192.543703 96.774553 
L 190.164959 93.612157 
L 187.566216 90.58233 
L 184.754837 87.700313 
L 181.739236 84.980933 
L 178.528856 82.438542 
L 175.134141 80.086938 
L 171.566502 77.939298 
L 167.838283 76.008112 
L 163.962714 74.305117 
L 159.953872 72.841234 
L 155.826624 71.626508 
L 151.596572 70.670054 
L 147.28 69.98 
L 142.893806 69.563442 
L 138.455437 69.426394 
L 133.982822 69.573753 
L 129.494296 70.009257 
L 125.008527 70.735455 
L 120.544439 71.753681 
L 116.121131 73.064032 
L 111.757796 74.665352 
L 107.473642 76.555216 
L 103.287801 78.729932 
L 99.219251 81.184534 
L 95.286731 83.912792 
L 91.508651 86.907218 
L 87.903017 90.159087 
L 84.487337 93.65846 
L 81.278548 97.394205 
L 78.292932 101.354038 
L 75.546035 105.524558 
L 73.052596 109.891292 
L 70.826469 114.438742 
L 68.880554 119.150444 
L 67.226732 124.009022 
L 65.875798 128.996258 
L 64.837403 134.093151 
L 64.12 139.28 
L 63.730791 144.536471 
L 63.675685 149.841681 
L 63.959252 155.174283 
L 64.584694 160.512546 
L 65.553811 165.834448 
L 66.866979 171.117767 
L 68.523129 176.34017 
L 70.519741 181.479309 
L 72.852831 186.512918 
L 75.516957 191.418903 
L 78.505221 196.175445 
L 81.809286 200.761092 
L 85.419395 205.154854 
L 89.324391 209.336297 
L 93.511756 213.285639 
L 97.967646 216.983837 
L 102.676932 220.412679 
L 107.623257 223.554868 
L 112.789085 226.394106 
L 118.155766 228.915175 
L 123.703602 231.104008 
L 129.411917 232.947769 
L 135.259139 234.434912 
L 141.222875 235.555247 
L 147.28 236.3 
L 153.406747 236.661859 
L 159.5788 236.635025 
L 165.771388 236.215249 
L 171.959388 235.399868 
L 178.117424 234.187832 
L 184.219974 232.579723 
L 190.241471 230.577773 
L 196.156415 228.185869 
L 201.939477 225.409554 
L 207.565607 222.256019 
L 213.010142 218.734093 
L 218.248915 214.854219 
L 223.258359 210.628428 
L 228.01561 206.070306 
L 232.498614 201.194947 
L 236.686222 196.018914 
L 240.558289 190.560173 
L 244.095771 184.838044 
L 247.280808 178.873121 
L 250.096818 172.687209 
L 252.528571 166.30324 
L 254.56227 159.745188 
L 256.185621 153.037979 
L 257.387898 146.207402 
L 257.387898 146.207402 
" clip-path="url(#pf91eb3c074)" style="fill: none; stroke: #bc80bd; stroke-width: 3; stroke-linecap: square"/>
   </g>
   <g id="patch_3">
    <path d="M 258.16 139.28 
C 258.16 124.719372 255.291874 110.300327 249.719763 96.848061 
C 244.147651 83.395795 235.979919 71.171919 225.684 60.876 
C 215.388081 50.580081 203.164205 42.412349 189.711939 36.840237 
C 176.259673 31.268126 161.840628 28.4 147.28 28.4 
C 132.719372 28.4 118.300327 31.268126 104.848061 36.840237 
C 91.395795 42.412349 79.171919 50.580081 68.876 60.876 
C 58.580081 71.171919 50.412349 83.395795 44.840237 96.848061 
C 39.268126 110.300327 36.4 124.719372 36.4 139.28 
C 36.4 153.840628 39.268126 168.259673 44.840237 181.711939 
C 50.412349 195.164205 58.580081 207.388081 68.876 217.684 
C 79.171919 227.979919 91.395795 236.147651 104.848061 241.719763 
C 118.300327 247.291874 132.719372 250.16 147.28 250.16 
C 161.840628 250.16 176.259673 247.291874 189.711939 241.719763 
C 203.164205 236.147651 215.388081 227.979919 225.684 217.684 
C 235.979919 207.388081 244.147651 195.164205 249.719763 181.711939 
C 255.291874 168.259673 258.16 153.840628 258.16 139.28 
" style="fill: none; stroke: #000000; stroke-width: 0.6; stroke-linejoin: miter; stroke-linecap: square"/>
   </g>
  </g>
 </g>
 <defs>
  <clipPath id="pf91eb3c074">
   <path d="M 258.16 139.28 
C 258.16 124.719372 255.291874 110.300327 249.719763 96.848061 
C 244.147651 83.395795 235.979919 71.171919 225.684 60.876 
C 215.388081 50.580081 203.164205 42.412349 189.711939 36.840237 
C 176.259673 31.268126 161.840628 28.4 147.28 28.4 
C 132.719372 28.4 118.300327 31.268126 104.848061 36.840237 
C 91.395795 42.412349 79.171919 50.580081 68.876 60.876 
C 58.580081 71.171919 50.412349 83.395795 44.840237 96.848061 
C 39.268126 110.300327 36.4 124.719372 36.4 139.28 
C 36.4 153.840628 39.268126 168.259673 44.840237 181.711939 
C 50.412349 195.164205 58.580081 207.388081 68.876 217.684 
C 79.171919 227.979919 91.395795 236.147651 104.848061 241.719763 
C 118.300327 247.291874 132.719372 250.16 147.28 250.16 
C 161.840628 250.16 176.259673 247.291874 189.711939 241.719763 
C 203.164205 236.147651 215.388081 227.979919 225.684 217.684 
C 235.979919 207.388081 244.147651 195.164205 249.719763 181.711939 
C 255.291874 168.259673 258.16 153.840628 258.16 139.28 
M 147.28 139.28 
C 147.28 139.28 147.28 139.28 147.28 139.28 
C 147.28 139.28 147.28 139.28 147.28 139.28 
C 147.28 139.28 147.28 139.28 147.28 139.28 
C 147.28 139.28 147.28 139.28 147.28 139.28 
C 147.28 139.28 147.28 139.28 147.28 139.28 
C 147.28 139.28 147.28 139.28 147.28 139.28 
C 147.28 139.28 147.28 139.28 147.28 139.28 
C 147.28 139.28 147.28 139.28 147.28 139.28 
C 147.28 139.28 147.28 139.28 147.28 139.28 
C 147.28 139.28 147.28 139.28 147.28 139.28 
C 147.28 139.28 147.28 139.28 147.28 139.28 
C 147.28 139.28 147.28 139.28 147.28 139.28 
C 147.28 139.28 147.28 139.28 147.28 139.28 
C 147.28 139.28 147.28 139.28 147.28 139.28 
C 147.28 139.28 147.28 139.28 147.28 139.28 
C 147.28 139.28 147.28 139.28 147.28 139.28 
z
"/>
  </clipPath>
 </defs>
</svg>