<?xml version="1.0" encoding="utf-8" standalone="no"?>
<!DOCTYPE svg PUBLIC "-//W3C//DTD SVG 1.1//EN"
  "http://www.w3.org/Graphics/SVG/1.1/DTD/svg11.dtd">
<svg xmlns:xlink="http://www.w3.org/1999/xlink" width="476.8pt" height="293.936406pt" viewBox="0 0 476.8 293.936406" xmlns="http://www.w3.org/2000/svg" version="1.1">
 <metadata>
  <rdf:RDF xmlns:dc="http://purl.org/dc/elements/1.1/" xmlns:cc="http://creativecommons.org/ns#" xmlns:rdf="http://www.w3.org/1999/02/22-rdf-syntax-ns#">
   <cc:Work>
    <dc:type rdf:resource="http://purl.org/dc/dcmitype/StillImage"/>
    <dc:date>2025-03-26T16:06:06.489844</dc:date>
    <dc:format>image/svg+xml</dc:format>
    <dc:creator>
     <cc:Agent>
      <dc:title>Matplotlib v3.10.0, https://matplotlib.org/</dc:title>
     </cc:Agent>
    </dc:creator>
   </cc:Work>
  </rdf:RDF>
 </metadata>
 <defs>
  <style type="text/css">*{stroke-linejoin: round; stroke-linecap: butt}</style>
 </defs>
 <g id="figure_1">
  <g id="patch_1">
   <path d="M 0 293.936406 
L 476.8 293.936406 
L 476.8 0 
L 0 0 
z
" style="fill: #ffffff"/>
  </g>
  <g id="axes_1">
   <g id="patch_2">
    <path d="M 23.2 247.936406 
L 469.6 247.936406 
L 469.6 26.176406 
L 23.2 26.176406 
z
" style="fill: #ffffff"/>
   </g>
   <g id="matplotlib.axis_1">
    <g id="xtick_1">
     <g id="line2d_1">
      <defs>
       <path id="m54d9c354ec" d="M 0 0 
L 0 3.5 
" style="stroke: #323034; stroke-width: 0.8"/>
      </defs>
      <g>
       <use xlink:href="#m54d9c354ec" x="23.2" y="247.936406" style="fill: #323034; stroke: #323034; stroke-width: 0.8"/>
      </g>
     </g>
     <g id="text_1">
      <!-- 1919 -->
      <g style="fill: #323034" transform="translate(7.2 265.863906) scale(0.16 -0.16)">
       <defs>
        <path id="STIXGeneral-Regular-31" d="M 2522 0 
L 755 0 
L 755 96 
Q 1107 115 1235 227 
Q 1363 339 1363 608 
L 1363 3482 
Q 1363 3795 1171 3795 
Q 1082 3795 883 3718 
L 710 3654 
L 710 3744 
L 1856 4326 
L 1914 4307 
L 1914 486 
Q 1914 275 2042 185 
Q 2170 96 2522 96 
L 2522 0 
z
" transform="scale(0.015625)"/>
        <path id="STIXGeneral-Regular-39" d="M 378 -141 
L 358 -13 
Q 1094 115 1603 608 
Q 2112 1101 2304 1882 
Q 1933 1517 1344 1517 
Q 826 1517 509 1875 
Q 192 2234 192 2816 
Q 192 3462 573 3894 
Q 954 4326 1523 4326 
Q 2131 4326 2528 3840 
Q 2938 3328 2938 2522 
Q 2938 1958 2742 1462 
Q 2547 966 2170 621 
Q 1773 262 1395 105 
Q 1018 -51 378 -141 
z
M 2317 2272 
L 2317 2522 
Q 2317 4147 1472 4147 
Q 1171 4147 1005 3930 
Q 909 3802 845 3546 
Q 781 3290 781 3034 
Q 781 2464 995 2128 
Q 1210 1792 1568 1792 
Q 1824 1792 2070 1917 
Q 2317 2042 2317 2272 
z
" transform="scale(0.015625)"/>
       </defs>
       <use xlink:href="#STIXGeneral-Regular-31"/>
       <use xlink:href="#STIXGeneral-Regular-39" transform="translate(49.999985 0)"/>
       <use xlink:href="#STIXGeneral-Regular-31" transform="translate(99.999969 0)"/>
       <use xlink:href="#STIXGeneral-Regular-39" transform="translate(149.999954 0)"/>
      </g>
     </g>
    </g>
    <g id="xtick_2">
     <g id="line2d_2">
      <g>
       <use xlink:href="#m54d9c354ec" x="134.893078" y="247.936406" style="fill: #323034; stroke: #323034; stroke-width: 0.8"/>
      </g>
     </g>
     <g id="text_2">
      <!-- 1944 -->
      <g style="fill: #323034" transform="translate(118.893078 265.863906) scale(0.16 -0.16)">
       <defs>
        <path id="STIXGeneral-Regular-34" d="M 3027 1069 
L 2368 1069 
L 2368 0 
L 1869 0 
L 1869 1069 
L 77 1069 
L 77 1478 
L 2086 4326 
L 2368 4326 
L 2368 1478 
L 3027 1478 
L 3027 1069 
z
M 1869 1478 
L 1869 3674 
L 333 1478 
L 1869 1478 
z
" transform="scale(0.015625)"/>
       </defs>
       <use xlink:href="#STIXGeneral-Regular-31"/>
       <use xlink:href="#STIXGeneral-Regular-39" transform="translate(49.999985 0)"/>
       <use xlink:href="#STIXGeneral-Regular-34" transform="translate(99.999969 0)"/>
       <use xlink:href="#STIXGeneral-Regular-34" transform="translate(149.999954 0)"/>
      </g>
     </g>
    </g>
    <g id="xtick_3">
     <g id="line2d_3">
      <g>
       <use xlink:href="#m54d9c354ec" x="246.586155" y="247.936406" style="fill: #323034; stroke: #323034; stroke-width: 0.8"/>
      </g>
     </g>
     <g id="text_3">
      <!-- 1969 -->
      <g style="fill: #323034" transform="translate(230.586155 265.863906) scale(0.16 -0.16)">
       <defs>
        <path id="STIXGeneral-Regular-36" d="M 2854 4378 
L 2867 4275 
Q 2112 4154 1606 3664 
Q 1101 3174 973 2451 
Q 1344 2739 1786 2739 
Q 2349 2739 2672 2380 
Q 2995 2022 2995 1402 
Q 2995 774 2669 378 
Q 2291 -90 1651 -90 
Q 870 -90 518 557 
Q 218 1107 218 1786 
Q 218 2835 915 3552 
Q 1312 3962 1731 4131 
Q 2150 4301 2854 4378 
z
M 2419 1203 
Q 2419 2445 1555 2445 
Q 1235 2445 1024 2275 
Q 813 2106 813 1702 
Q 813 954 1046 522 
Q 1280 90 1722 90 
Q 2061 90 2240 394 
Q 2419 698 2419 1203 
z
" transform="scale(0.015625)"/>
       </defs>
       <use xlink:href="#STIXGeneral-Regular-31"/>
       <use xlink:href="#STIXGeneral-Regular-39" transform="translate(49.999985 0)"/>
       <use xlink:href="#STIXGeneral-Regular-36" transform="translate(99.999969 0)"/>
       <use xlink:href="#STIXGeneral-Regular-39" transform="translate(149.999954 0)"/>
      </g>
     </g>
    </g>
    <g id="xtick_4">
     <g id="line2d_4">
      <g>
       <use xlink:href="#m54d9c354ec" x="358.279233" y="247.936406" style="fill: #323034; stroke: #323034; stroke-width: 0.8"/>
      </g>
     </g>
     <g id="text_4">
      <!-- 1994 -->
      <g style="fill: #323034" transform="translate(342.279233 265.863906) scale(0.16 -0.16)">
       <use xlink:href="#STIXGeneral-Regular-31"/>
       <use xlink:href="#STIXGeneral-Regular-39" transform="translate(49.999985 0)"/>
       <use xlink:href="#STIXGeneral-Regular-39" transform="translate(99.999969 0)"/>
       <use xlink:href="#STIXGeneral-Regular-34" transform="translate(149.999954 0)"/>
      </g>
     </g>
    </g>
    <g id="xtick_5">
     <g id="line2d_5">
      <defs>
       <path id="mbe467ce4ea" d="M 0 0 
L 0 2 
" style="stroke: #323034; stroke-width: 0.6"/>
      </defs>
      <g>
       <use xlink:href="#mbe467ce4ea" x="45.538616" y="247.936406" style="fill: #323034; stroke: #323034; stroke-width: 0.6"/>
      </g>
     </g>
    </g>
    <g id="xtick_6">
     <g id="line2d_6">
      <g>
       <use xlink:href="#mbe467ce4ea" x="67.877231" y="247.936406" style="fill: #323034; stroke: #323034; stroke-width: 0.6"/>
      </g>
     </g>
    </g>
    <g id="xtick_7">
     <g id="line2d_7">
      <g>
       <use xlink:href="#mbe467ce4ea" x="90.215847" y="247.936406" style="fill: #323034; stroke: #323034; stroke-width: 0.6"/>
      </g>
     </g>
    </g>
    <g id="xtick_8">
     <g id="line2d_8">
      <g>
       <use xlink:href="#mbe467ce4ea" x="112.554462" y="247.936406" style="fill: #323034; stroke: #323034; stroke-width: 0.6"/>
      </g>
     </g>
    </g>
    <g id="xtick_9">
     <g id="line2d_9">
      <g>
       <use xlink:href="#mbe467ce4ea" x="157.231693" y="247.936406" style="fill: #323034; stroke: #323034; stroke-width: 0.6"/>
      </g>
     </g>
    </g>
    <g id="xtick_10">
     <g id="line2d_10">
      <g>
       <use xlink:href="#mbe467ce4ea" x="179.570309" y="247.936406" style="fill: #323034; stroke: #323034; stroke-width: 0.6"/>
      </g>
     </g>
    </g>
    <g id="xtick_11">
     <g id="line2d_11">
      <g>
       <use xlink:href="#mbe467ce4ea" x="201.908924" y="247.936406" style="fill: #323034; stroke: #323034; stroke-width: 0.6"/>
      </g>
     </g>
    </g>
    <g id="xtick_12">
     <g id="line2d_12">
      <g>
       <use xlink:href="#mbe467ce4ea" x="224.24754" y="247.936406" style="fill: #323034; stroke: #323034; stroke-width: 0.6"/>
      </g>
     </g>
    </g>
    <g id="xtick_13">
     <g id="line2d_13">
      <g>
       <use xlink:href="#mbe467ce4ea" x="268.924771" y="247.936406" style="fill: #323034; stroke: #323034; stroke-width: 0.6"/>
      </g>
     </g>
    </g>
    <g id="xtick_14">
     <g id="line2d_14">
      <g>
       <use xlink:href="#mbe467ce4ea" x="291.263386" y="247.936406" style="fill: #323034; stroke: #323034; stroke-width: 0.6"/>
      </g>
     </g>
    </g>
    <g id="xtick_15">
     <g id="line2d_15">
      <g>
       <use xlink:href="#mbe467ce4ea" x="313.602002" y="247.936406" style="fill: #323034; stroke: #323034; stroke-width: 0.6"/>
      </g>
     </g>
    </g>
    <g id="xtick_16">
     <g id="line2d_16">
      <g>
       <use xlink:href="#mbe467ce4ea" x="335.940617" y="247.936406" style="fill: #323034; stroke: #323034; stroke-width: 0.6"/>
      </g>
     </g>
    </g>
    <g id="xtick_17">
     <g id="line2d_17">
      <g>
       <use xlink:href="#mbe467ce4ea" x="380.617848" y="247.936406" style="fill: #323034; stroke: #323034; stroke-width: 0.6"/>
      </g>
     </g>
    </g>
    <g id="xtick_18">
     <g id="line2d_18">
      <g>
       <use xlink:href="#mbe467ce4ea" x="402.956464" y="247.936406" style="fill: #323034; stroke: #323034; stroke-width: 0.6"/>
      </g>
     </g>
    </g>
    <g id="xtick_19">
     <g id="line2d_19">
      <g>
       <use xlink:href="#mbe467ce4ea" x="425.295079" y="247.936406" style="fill: #323034; stroke: #323034; stroke-width: 0.6"/>
      </g>
     </g>
    </g>
    <g id="xtick_20">
     <g id="line2d_20">
      <g>
       <use xlink:href="#mbe467ce4ea" x="447.633695" y="247.936406" style="fill: #323034; stroke: #323034; stroke-width: 0.6"/>
      </g>
     </g>
    </g>
    <g id="text_5">
     <!-- Date -->
     <g transform="translate(231.295 283.263906) scale(0.16 -0.16)">
      <defs>
       <path id="STIXGeneral-Regular-44" d="M 102 4237 
L 1830 4237 
Q 3078 4237 3750 3654 
Q 4384 3110 4384 2138 
Q 4384 966 3514 410 
Q 2880 0 1901 0 
L 102 0 
L 102 122 
Q 474 147 570 252 
Q 666 358 666 736 
L 666 3520 
Q 666 3891 570 3990 
Q 474 4090 102 4115 
L 102 4237 
z
M 1318 3731 
L 1318 538 
Q 1318 365 1379 301 
Q 1440 237 1626 237 
Q 2125 237 2432 307 
Q 2739 378 3021 570 
Q 3686 1018 3686 2099 
Q 3686 3027 3078 3558 
Q 2803 3802 2476 3901 
Q 2150 4000 1658 4000 
Q 1472 4000 1395 3942 
Q 1318 3885 1318 3731 
z
" transform="scale(0.015625)"/>
       <path id="STIXGeneral-Regular-61" d="M 2829 422 
L 2829 243 
Q 2586 -64 2253 -64 
Q 1888 -64 1843 403 
L 1837 403 
Q 1427 -64 909 -64 
Q 608 -64 422 112 
Q 237 288 237 602 
Q 237 1050 685 1350 
Q 992 1555 1837 1869 
L 1837 2214 
Q 1837 2502 1699 2646 
Q 1562 2790 1338 2790 
Q 1146 2790 1018 2697 
Q 890 2605 890 2477 
Q 890 2419 909 2348 
Q 928 2278 928 2208 
Q 928 2112 841 2029 
Q 755 1946 634 1946 
Q 525 1946 441 2029 
Q 358 2112 358 2240 
Q 358 2547 685 2752 
Q 986 2944 1421 2944 
Q 1939 2944 2176 2656 
Q 2291 2522 2323 2384 
Q 2355 2246 2355 1946 
L 2355 723 
Q 2355 301 2554 301 
Q 2682 301 2829 422 
z
M 1837 813 
L 1837 1715 
Q 1248 1510 1018 1293 
Q 800 1094 800 800 
Q 800 557 921 432 
Q 1043 307 1242 307 
Q 1453 307 1613 410 
Q 1747 506 1792 589 
Q 1837 672 1837 813 
z
" transform="scale(0.015625)"/>
       <path id="STIXGeneral-Regular-74" d="M 1702 493 
L 1786 422 
Q 1478 -64 1011 -64 
Q 448 -64 448 749 
L 448 2675 
L 109 2675 
Q 83 2694 83 2720 
Q 83 2771 192 2842 
Q 435 2982 813 3526 
Q 826 3546 874 3606 
Q 922 3667 941 3706 
Q 986 3706 986 3622 
L 986 2880 
L 1632 2880 
L 1632 2675 
L 986 2675 
L 986 845 
Q 986 538 1062 403 
Q 1139 269 1318 269 
Q 1510 269 1702 493 
z
" transform="scale(0.015625)"/>
       <path id="STIXGeneral-Regular-65" d="M 2611 1050 
L 2714 1005 
Q 2330 -64 1376 -64 
Q 813 -64 486 329 
Q 160 723 160 1389 
Q 160 2074 525 2509 
Q 890 2944 1485 2944 
Q 2061 2944 2374 2502 
Q 2560 2246 2592 1773 
L 621 1773 
Q 646 1370 700 1158 
Q 755 947 915 730 
Q 1184 378 1626 378 
Q 1939 378 2153 531 
Q 2368 685 2611 1050 
z
M 634 1978 
L 1939 1978 
Q 1882 2381 1750 2547 
Q 1619 2714 1312 2714 
Q 1043 2714 864 2525 
Q 685 2336 634 1978 
z
" transform="scale(0.015625)"/>
      </defs>
      <use xlink:href="#STIXGeneral-Regular-44"/>
      <use xlink:href="#STIXGeneral-Regular-61" transform="translate(72.199982 0)"/>
      <use xlink:href="#STIXGeneral-Regular-74" transform="translate(116.599976 0)"/>
      <use xlink:href="#STIXGeneral-Regular-65" transform="translate(144.399963 0)"/>
     </g>
    </g>
   </g>
   <g id="matplotlib.axis_2">
    <g id="ytick_1">
     <g id="line2d_21">
      <defs>
       <path id="m7f679f72ac" d="M 0 0 
L -3.5 0 
" style="stroke: #323034; stroke-width: 0.8"/>
      </defs>
      <g>
       <use xlink:href="#m7f679f72ac" x="23.2" y="247.936406" style="fill: #323034; stroke: #323034; stroke-width: 0.8"/>
      </g>
     </g>
     <g id="text_6">
      <!-- $\mathdefault{0}$ -->
      <g style="fill: #323034" transform="translate(8.2 253.400156) scale(0.16 -0.16)">
       <defs>
        <path id="STIXGeneral-Regular-30" d="M 3046 2112 
Q 3046 1683 2963 1302 
Q 2880 922 2717 602 
Q 2554 282 2266 96 
Q 1978 -90 1600 -90 
Q 1210 -90 915 108 
Q 621 307 461 640 
Q 301 973 227 1350 
Q 154 1728 154 2150 
Q 154 2746 301 3222 
Q 448 3699 790 4012 
Q 1133 4326 1626 4326 
Q 2253 4326 2649 3712 
Q 3046 3098 3046 2112 
z
M 2432 2080 
Q 2432 3091 2217 3625 
Q 2003 4160 1587 4160 
Q 1190 4160 979 3622 
Q 768 3085 768 2106 
Q 768 1120 979 598 
Q 1190 77 1600 77 
Q 2003 77 2217 598 
Q 2432 1120 2432 2080 
z
" transform="scale(0.015625)"/>
       </defs>
       <use xlink:href="#STIXGeneral-Regular-30" transform="translate(0 0.40625)"/>
      </g>
     </g>
    </g>
    <g id="ytick_2">
     <g id="line2d_22">
      <g>
       <use xlink:href="#m7f679f72ac" x="23.2" y="210.976406" style="fill: #323034; stroke: #323034; stroke-width: 0.8"/>
      </g>
     </g>
     <g id="text_7">
      <!-- $\mathdefault{1}$ -->
      <g style="fill: #323034" transform="translate(8.2 216.440156) scale(0.16 -0.16)">
       <use xlink:href="#STIXGeneral-Regular-31" transform="translate(0 0.40625)"/>
      </g>
     </g>
    </g>
    <g id="ytick_3">
     <g id="line2d_23">
      <g>
       <use xlink:href="#m7f679f72ac" x="23.2" y="174.016406" style="fill: #323034; stroke: #323034; stroke-width: 0.8"/>
      </g>
     </g>
     <g id="text_8">
      <!-- $\mathdefault{2}$ -->
      <g style="fill: #323034" transform="translate(8.2 179.480156) scale(0.16 -0.16)">
       <defs>
        <path id="STIXGeneral-Regular-32" d="M 3034 877 
L 2688 0 
L 186 0 
L 186 77 
L 1325 1286 
Q 1773 1754 1965 2144 
Q 2157 2534 2157 2950 
Q 2157 3379 1920 3616 
Q 1683 3853 1267 3853 
Q 922 3853 720 3673 
Q 518 3494 326 3021 
L 192 3053 
Q 301 3648 630 3987 
Q 960 4326 1523 4326 
Q 2054 4326 2380 4006 
Q 2707 3686 2707 3200 
Q 2707 2477 1888 1613 
L 832 486 
L 2330 486 
Q 2541 486 2665 569 
Q 2790 653 2944 915 
L 3034 877 
z
" transform="scale(0.015625)"/>
       </defs>
       <use xlink:href="#STIXGeneral-Regular-32" transform="translate(0 0.40625)"/>
      </g>
     </g>
    </g>
    <g id="ytick_4">
     <g id="line2d_24">
      <g>
       <use xlink:href="#m7f679f72ac" x="23.2" y="137.056406" style="fill: #323034; stroke: #323034; stroke-width: 0.8"/>
      </g>
     </g>
     <g id="text_9">
      <!-- $\mathdefault{3}$ -->
      <g style="fill: #323034" transform="translate(8.2 142.520156) scale(0.16 -0.16)">
       <defs>
        <path id="STIXGeneral-Regular-33" d="M 390 3264 
L 288 3290 
Q 435 3770 748 4048 
Q 1062 4326 1542 4326 
Q 1990 4326 2265 4083 
Q 2541 3840 2541 3450 
Q 2541 2925 1946 2566 
Q 2298 2413 2477 2227 
Q 2758 1914 2758 1402 
Q 2758 890 2464 506 
Q 2246 211 1840 60 
Q 1434 -90 979 -90 
Q 262 -90 262 275 
Q 262 378 339 442 
Q 416 506 525 506 
Q 685 506 915 339 
Q 1197 141 1466 141 
Q 1818 141 2058 425 
Q 2298 710 2298 1120 
Q 2298 1856 1632 2048 
Q 1434 2112 979 2112 
L 979 2202 
Q 1338 2323 1517 2432 
Q 2035 2726 2035 3290 
Q 2035 3610 1852 3776 
Q 1670 3942 1344 3942 
Q 768 3942 390 3264 
z
" transform="scale(0.015625)"/>
       </defs>
       <use xlink:href="#STIXGeneral-Regular-33" transform="translate(0 0.40625)"/>
      </g>
     </g>
    </g>
    <g id="ytick_5">
     <g id="line2d_25">
      <g>
       <use xlink:href="#m7f679f72ac" x="23.2" y="100.096406" style="fill: #323034; stroke: #323034; stroke-width: 0.8"/>
      </g>
     </g>
     <g id="text_10">
      <!-- $\mathdefault{4}$ -->
      <g style="fill: #323034" transform="translate(8.2 105.560156) scale(0.16 -0.16)">
       <use xlink:href="#STIXGeneral-Regular-34" transform="translate(0 0.40625)"/>
      </g>
     </g>
    </g>
    <g id="ytick_6">
     <g id="line2d_26">
      <g>
       <use xlink:href="#m7f679f72ac" x="23.2" y="63.136406" style="fill: #323034; stroke: #323034; stroke-width: 0.8"/>
      </g>
     </g>
     <g id="text_11">
      <!-- $\mathdefault{5}$ -->
      <g style="fill: #323034" transform="translate(8.2 68.600156) scale(0.16 -0.16)">
       <defs>
        <path id="STIXGeneral-Regular-35" d="M 2803 4358 
L 2573 3814 
Q 2534 3731 2400 3731 
L 1158 3731 
L 902 3187 
Q 1606 3053 1920 2896 
Q 2234 2739 2502 2368 
Q 2726 2061 2726 1555 
Q 2726 1094 2576 780 
Q 2426 467 2099 224 
Q 1664 -90 1011 -90 
Q 646 -90 422 19 
Q 198 128 198 307 
Q 198 550 486 550 
Q 717 550 960 352 
Q 1210 147 1414 147 
Q 1747 147 2012 480 
Q 2278 813 2278 1229 
Q 2278 1843 1850 2189 
Q 1293 2637 486 2637 
Q 410 2637 410 2688 
L 416 2720 
L 1114 4237 
L 2438 4237 
Q 2547 4237 2608 4269 
Q 2669 4301 2746 4403 
L 2803 4358 
z
" transform="scale(0.015625)"/>
       </defs>
       <use xlink:href="#STIXGeneral-Regular-35" transform="translate(0 0.203125)"/>
      </g>
     </g>
    </g>
    <g id="ytick_7">
     <g id="line2d_27">
      <g>
       <use xlink:href="#m7f679f72ac" x="23.2" y="26.176406" style="fill: #323034; stroke: #323034; stroke-width: 0.8"/>
      </g>
     </g>
     <g id="text_12">
      <!-- $\mathdefault{6}$ -->
      <g style="fill: #323034" transform="translate(8.2 31.640156) scale(0.16 -0.16)">
       <use xlink:href="#STIXGeneral-Regular-36" transform="translate(0 0.59375)"/>
      </g>
     </g>
    </g>
   </g>
   <g id="line2d_28">
    <path d="M 23.2 182.517206 
L 23.57231 179.560406 
L 23.944621 182.886806 
L 24.316931 181.778006 
L 24.689241 185.104406 
L 25.061551 187.322006 
L 25.433862 188.061206 
L 25.806172 189.909206 
L 26.178482 186.213206 
L 26.550792 181.408406 
L 26.923103 178.451606 
L 27.295413 172.538006 
L 27.667723 172.907606 
L 28.040033 171.059606 
L 28.412344 172.168406 
L 28.784654 169.211606 
L 29.156964 168.842006 
L 29.529274 173.646806 
L 29.901585 167.363606 
L 30.273895 170.690006 
L 30.646205 176.973206 
L 31.018515 176.234006 
L 31.763136 162.928406 
L 32.135446 160.710806 
L 32.507756 161.450006 
L 32.880067 156.645206 
L 33.252377 156.645206 
L 33.624687 158.862806 
L 33.996997 159.971606 
L 34.369308 160.710806 
L 34.741618 154.797206 
L 35.113928 158.862806 
L 35.486239 155.536406 
L 36.230859 169.950806 
L 36.603169 160.710806 
L 36.97548 164.406806 
L 37.34779 165.885206 
L 38.09241 182.886806 
L 38.464721 178.082006 
L 39.209341 178.082006 
L 39.581651 180.669206 
L 39.953962 181.038806 
L 40.326272 178.082006 
L 40.698582 176.234006 
L 41.070892 176.234006 
L 41.443203 177.712406 
L 41.815513 175.494806 
L 42.187823 175.864406 
L 42.932444 171.798806 
L 43.677064 162.928406 
L 44.049374 164.406806 
L 44.421685 161.080406 
L 44.793995 162.558806 
L 45.166305 163.298006 
L 45.910926 172.168406 
L 46.283236 174.755606 
L 46.655546 175.864406 
L 47.027857 176.603606 
L 47.772477 184.365206 
L 48.144787 183.626006 
L 48.517098 182.147606 
L 49.261718 188.800406 
L 49.634028 192.126806 
L 50.006339 192.866006 
L 50.378649 195.822806 
L 50.750959 194.344406 
L 51.123269 191.018006 
L 51.49558 193.605206 
L 51.86789 198.040406 
L 52.2402 198.779606 
L 52.61251 198.410006 
L 53.357131 199.149206 
L 53.729441 198.779606 
L 54.474062 200.997206 
L 54.846372 201.736406 
L 55.218682 201.366806 
L 55.590992 202.106006 
L 56.335613 208.019606 
L 56.707923 208.019606 
L 57.080234 207.650006 
L 57.452544 208.389206 
L 57.824854 207.280406 
L 58.197164 207.650006 
L 58.569475 210.976406 
L 58.941785 212.824406 
L 59.314095 213.933206 
L 59.686405 213.933206 
L 60.058716 214.672406 
L 60.431026 213.563606 
L 60.803336 212.085206 
L 61.175646 212.824406 
L 61.547957 213.933206 
L 61.920267 215.411606 
L 62.664887 216.150806 
L 63.037198 216.150806 
L 63.409508 215.042006 
L 63.781818 215.781206 
L 64.154128 216.150806 
L 64.526439 215.781206 
L 65.271059 211.715606 
L 65.643369 212.085206 
L 66.01568 212.085206 
L 66.38799 211.715606 
L 66.7603 212.085206 
L 67.132611 212.085206 
L 67.877231 210.606806 
L 68.249541 210.976406 
L 68.621852 207.650006 
L 68.994162 206.910806 
L 69.366472 207.280406 
L 69.738782 204.693206 
L 70.111093 204.323606 
L 70.855713 199.149206 
L 71.228023 198.410006 
L 71.600334 200.997206 
L 71.972644 200.627606 
L 72.344954 201.366806 
L 72.717264 203.584406 
L 73.089575 206.910806 
L 73.461885 207.280406 
L 73.834195 206.541206 
L 74.206505 203.214806 
L 74.578816 201.736406 
L 74.951126 201.366806 
L 75.323436 202.475606 
L 76.068057 182.147606 
L 76.440367 166.994006 
L 76.812677 174.386006 
L 77.184987 175.864406 
L 77.557298 172.168406 
L 77.929608 162.189206 
L 78.301918 145.187606 
L 78.674229 137.056406 
L 79.046539 147.405206 
L 79.791159 117.837206 
L 80.16347 98.248406 
L 80.53578 100.466006 
L 80.90809 59.440406 
L 81.2804 102.683606 
L 81.652711 113.402006 
L 82.025021 105.640406 
L 82.397331 52.418006 
L 82.769641 39.482006 
L 83.514262 43.547606 
L 83.886572 125.598806 
L 84.258882 140.382806 
L 85.375813 106.379606 
L 85.748123 115.989206 
L 86.492744 91.595606 
L 86.865054 87.530006 
L 87.237364 132.990806 
L 87.609675 151.470806 
L 87.981985 164.406806 
L 88.354295 156.645206 
L 88.726606 140.382806 
L 89.471226 120.794006 
L 89.843536 127.816406 
L 90.588157 171.429206 
L 90.960467 169.211606 
L 91.332777 176.234006 
L 92.449708 165.146006 
L 92.822018 153.318806 
L 93.194329 151.470806 
L 93.566639 155.536406 
L 93.938949 155.166806 
L 94.311259 158.493206 
L 94.68357 166.254806 
L 95.05588 164.406806 
L 95.42819 154.427606 
L 95.8005 156.645206 
L 96.545121 168.102806 
L 96.917431 169.950806 
L 97.289741 174.755606 
L 97.662052 176.234006 
L 98.034362 173.277206 
L 98.406672 175.494806 
L 98.778982 179.190806 
L 99.151293 187.691606 
L 99.523603 193.235606 
L 99.895913 189.909206 
L 100.640534 186.213206 
L 101.012844 186.582806 
L 101.385154 188.430806 
L 102.502085 197.670806 
L 102.874395 197.301206 
L 103.246706 195.083606 
L 103.619016 196.562006 
L 103.991326 199.518806 
L 104.735947 195.453206 
L 105.108257 192.126806 
L 105.480567 186.952406 
L 105.852877 186.582806 
L 106.225188 185.843606 
L 106.597498 178.451606 
L 107.342118 152.579606 
L 107.714429 154.797206 
L 108.086739 147.405206 
L 108.459049 145.557206 
L 108.831359 134.099606 
L 109.20367 130.773206 
L 109.57598 142.970006 
L 109.94829 137.426006 
L 110.320601 158.862806 
L 110.692911 162.558806 
L 111.065221 157.754006 
L 111.437531 166.254806 
L 111.809842 169.211606 
L 112.182152 166.994006 
L 112.926772 172.168406 
L 113.299083 177.712406 
L 113.671393 169.211606 
L 114.043703 170.320406 
L 114.416013 174.386006 
L 115.160634 176.973206 
L 115.532944 183.256406 
L 115.905254 183.995606 
L 116.649875 174.755606 
L 117.022185 174.755606 
L 117.766806 175.494806 
L 118.139116 176.973206 
L 118.511426 173.646806 
L 118.883736 168.472406 
L 119.256047 176.973206 
L 119.628357 177.342806 
L 120.372977 182.517206 
L 120.745288 183.995606 
L 121.117598 183.626006 
L 121.489908 187.691606 
L 121.862219 187.322006 
L 122.606839 192.126806 
L 122.979149 192.126806 
L 123.35146 191.018006 
L 123.72377 191.018006 
L 124.09608 191.387606 
L 124.46839 190.648406 
L 124.840701 190.648406 
L 125.213011 190.278806 
L 125.585321 189.539606 
L 125.957631 193.974806 
L 126.329942 194.714006 
L 126.702252 194.714006 
L 127.446872 195.453206 
L 127.819183 193.235606 
L 128.191493 193.605206 
L 128.563803 193.605206 
L 128.936113 193.974806 
L 129.308424 194.714006 
L 129.680734 193.974806 
L 130.053044 193.605206 
L 130.425354 197.301206 
L 131.542285 203.584406 
L 131.914595 204.693206 
L 132.286906 205.062806 
L 132.659216 206.541206 
L 133.031526 206.541206 
L 133.403837 205.802006 
L 133.776147 206.541206 
L 134.148457 206.541206 
L 134.893078 209.498006 
L 135.265388 211.715606 
L 136.010008 213.194006 
L 136.754629 216.150806 
L 137.499249 216.890006 
L 137.87156 216.890006 
L 138.24387 217.259606 
L 139.360801 219.477206 
L 139.733111 219.846806 
L 140.105421 219.846806 
L 140.477731 220.216406 
L 140.850042 222.064406 
L 141.594662 223.542806 
L 141.966972 223.912406 
L 142.339283 225.021206 
L 143.828524 230.565206 
L 144.573144 230.565206 
L 144.945455 229.456406 
L 145.317765 229.086806 
L 145.690075 227.978006 
L 146.062385 227.608406 
L 146.434696 228.717206 
L 146.807006 228.717206 
L 147.551626 226.499606 
L 147.923937 227.238806 
L 148.296247 227.238806 
L 148.668557 226.869206 
L 149.413178 224.651606 
L 149.785488 224.282006 
L 150.157798 223.542806 
L 150.530108 224.651606 
L 150.902419 225.390806 
L 151.274729 225.021206 
L 151.647039 223.912406 
L 152.019349 223.173206 
L 152.39166 223.542806 
L 152.76397 223.542806 
L 153.50859 222.064406 
L 153.880901 222.434006 
L 154.253211 225.021206 
L 154.625521 226.499606 
L 154.997832 227.238806 
L 155.370142 225.760406 
L 155.742452 225.390806 
L 156.114762 223.542806 
L 156.487073 222.434006 
L 156.859383 220.586006 
L 157.231693 220.216406 
L 157.604003 220.586006 
L 157.976314 219.477206 
L 158.348624 220.216406 
L 158.720934 220.586006 
L 159.093244 219.846806 
L 159.465555 218.738006 
L 160.210175 219.477206 
L 160.582485 220.216406 
L 160.954796 220.216406 
L 161.327106 220.955606 
L 161.699416 223.173206 
L 162.071726 223.542806 
L 162.444037 223.542806 
L 162.816347 224.651606 
L 163.188657 224.282006 
L 163.560967 223.542806 
L 163.933278 223.173206 
L 164.677898 226.869206 
L 165.050209 227.608406 
L 165.422519 227.608406 
L 166.167139 229.086806 
L 166.53945 229.456406 
L 166.91176 231.304406 
L 167.65638 229.086806 
L 168.773311 225.021206 
L 169.145621 225.021206 
L 169.890242 225.760406 
L 170.262552 225.760406 
L 170.634862 225.390806 
L 171.007173 225.760406 
L 171.379483 227.608406 
L 171.751793 226.869206 
L 172.124103 227.238806 
L 172.496414 227.238806 
L 172.868724 227.608406 
L 173.241034 226.869206 
L 173.613344 226.869206 
L 173.985655 228.347606 
L 174.357965 227.608406 
L 174.730275 227.978006 
L 175.102585 229.826006 
L 175.474896 230.934806 
L 175.847206 231.304406 
L 176.219516 232.413206 
L 176.964137 230.934806 
L 177.336447 226.499606 
L 177.708757 225.390806 
L 178.081068 226.130006 
L 178.453378 223.542806 
L 178.825688 224.282006 
L 179.197998 225.390806 
L 179.570309 223.912406 
L 179.942619 223.542806 
L 180.314929 223.912406 
L 181.05955 226.130006 
L 181.43186 226.130006 
L 181.80417 225.390806 
L 182.17648 225.021206 
L 182.548791 226.499606 
L 182.921101 226.130006 
L 183.293411 227.238806 
L 183.665721 227.608406 
L 184.038032 228.717206 
L 184.410342 227.978006 
L 184.782652 230.934806 
L 185.154962 230.195606 
L 185.527273 230.934806 
L 186.271893 230.934806 
L 186.644204 231.304406 
L 187.016514 230.934806 
L 187.388824 229.826006 
L 188.133445 230.565206 
L 188.505755 229.826006 
L 188.878065 229.456406 
L 189.250375 229.456406 
L 189.622686 231.674006 
L 189.994996 231.304406 
L 190.367306 229.456406 
L 190.739616 228.717206 
L 191.111927 229.456406 
L 191.484237 229.086806 
L 191.856547 226.499606 
L 192.228857 227.608406 
L 192.601168 225.021206 
L 193.345788 218.368406 
L 193.718098 219.477206 
L 194.090409 219.477206 
L 194.462719 219.107606 
L 194.835029 221.325206 
L 195.207339 220.586006 
L 195.57965 221.325206 
L 196.69658 210.606806 
L 197.068891 202.845206 
L 197.441201 202.475606 
L 197.813511 208.389206 
L 198.185822 209.128406 
L 198.558132 208.389206 
L 198.930442 209.128406 
L 199.302752 211.715606 
L 199.675063 216.150806 
L 200.419683 219.107606 
L 200.791993 217.998806 
L 201.164304 219.107606 
L 201.536614 219.477206 
L 201.908924 220.216406 
L 202.281234 220.216406 
L 202.653545 221.325206 
L 203.025855 224.651606 
L 203.398165 226.130006 
L 203.770475 226.499606 
L 204.142786 225.390806 
L 204.515096 223.542806 
L 204.887406 223.542806 
L 205.259716 221.694806 
L 205.632027 222.064406 
L 206.004337 222.064406 
L 206.376647 220.955606 
L 206.748957 219.107606 
L 207.121268 219.846806 
L 207.493578 220.216406 
L 207.865888 217.629206 
L 208.238198 217.998806 
L 208.610509 217.998806 
L 208.982819 218.368406 
L 209.355129 219.846806 
L 209.72744 217.998806 
L 210.09975 219.477206 
L 210.47206 220.216406 
L 210.84437 219.107606 
L 211.216681 218.368406 
L 211.588991 218.368406 
L 211.961301 219.846806 
L 212.333611 220.586006 
L 212.705922 222.064406 
L 213.450542 223.542806 
L 213.822852 223.173206 
L 214.195163 221.694806 
L 214.567473 221.325206 
L 214.939783 222.803606 
L 215.312093 223.542806 
L 215.684404 223.912406 
L 216.056714 223.912406 
L 216.801334 221.325206 
L 217.173645 220.586006 
L 217.545955 221.694806 
L 219.035196 221.694806 
L 219.407506 222.803606 
L 219.779817 222.064406 
L 220.152127 222.064406 
L 220.524437 222.434006 
L 221.269058 224.651606 
L 221.641368 225.390806 
L 222.013678 226.499606 
L 222.385988 227.978006 
L 222.758299 228.347606 
L 223.130609 229.086806 
L 223.502919 229.086806 
L 223.875229 229.456406 
L 224.24754 231.674006 
L 224.61985 230.565206 
L 224.99216 231.304406 
L 225.36447 231.304406 
L 225.736781 231.674006 
L 226.109091 231.674006 
L 226.481401 232.043606 
L 226.853711 232.782806 
L 228.342952 234.261206 
L 229.087573 234.261206 
L 229.459883 234.630806 
L 229.832193 234.261206 
L 230.204504 234.261206 
L 230.576814 233.522006 
L 230.949124 233.152406 
L 231.321435 233.522006 
L 231.693745 233.522006 
L 232.438365 235.000406 
L 232.810676 235.370006 
L 233.182986 236.109206 
L 233.555296 235.370006 
L 234.299917 231.304406 
L 234.672227 229.456406 
L 235.416847 228.717206 
L 235.789158 228.717206 
L 236.906088 219.107606 
L 237.278399 218.738006 
L 237.650709 219.477206 
L 238.023019 218.738006 
L 238.395329 221.325206 
L 239.13995 221.325206 
L 239.51226 221.694806 
L 239.88457 222.803606 
L 240.256881 221.694806 
L 240.629191 220.216406 
L 241.373812 223.912406 
L 241.746122 220.586006 
L 242.118432 223.173206 
L 242.490742 222.064406 
L 242.863053 220.586006 
L 243.235363 219.846806 
L 243.607673 219.846806 
L 243.979983 218.738006 
L 244.352294 220.586006 
L 244.724604 218.368406 
L 245.096914 217.629206 
L 245.469224 220.216406 
L 245.841535 217.629206 
L 246.586155 220.955606 
L 246.958465 224.282006 
L 247.330776 223.542806 
L 247.703086 223.912406 
L 248.075396 220.955606 
L 248.447706 221.325206 
L 248.820017 219.846806 
L 249.192327 215.042006 
L 249.564637 214.302806 
L 249.936947 215.042006 
L 250.309258 214.672406 
L 250.681568 213.563606 
L 251.053878 212.824406 
L 251.426188 216.520406 
L 251.798499 218.738006 
L 252.170809 215.781206 
L 252.543119 215.781206 
L 252.91543 219.477206 
L 253.28774 212.454806 
L 253.66005 199.518806 
L 254.03236 199.888406 
L 254.404671 199.888406 
L 254.776981 198.779606 
L 255.149291 193.235606 
L 255.521601 196.931606 
L 256.266222 201.736406 
L 256.638532 203.584406 
L 257.010842 207.650006 
L 257.383153 206.910806 
L 257.755463 206.541206 
L 258.127773 204.693206 
L 258.500083 205.432406 
L 258.872394 207.650006 
L 259.244704 206.541206 
L 259.617014 206.171606 
L 260.361635 212.454806 
L 260.733945 210.976406 
L 261.106255 213.194006 
L 261.478565 213.563606 
L 262.223186 210.237206 
L 262.595496 210.976406 
L 262.967807 215.781206 
L 263.340117 216.520406 
L 263.712427 215.781206 
L 264.084737 216.520406 
L 264.457048 220.216406 
L 264.829358 220.216406 
L 265.201668 220.586006 
L 265.573978 217.259606 
L 265.946289 219.477206 
L 266.318599 219.846806 
L 266.690909 218.738006 
L 267.063219 216.520406 
L 267.43553 210.976406 
L 267.80784 217.998806 
L 268.18015 220.216406 
L 268.55246 218.368406 
L 268.924771 223.912406 
L 269.297081 222.803606 
L 269.669391 225.390806 
L 270.041701 225.021206 
L 270.414012 222.803606 
L 270.786322 218.368406 
L 271.158632 219.846806 
L 271.530942 219.477206 
L 271.903253 213.194006 
L 272.275563 203.214806 
L 272.647873 184.734806 
L 273.020183 183.626006 
L 273.392494 174.755606 
L 273.764804 172.907606 
L 274.509425 187.691606 
L 274.881735 181.778006 
L 275.254045 179.560406 
L 275.626355 184.734806 
L 275.998666 187.322006 
L 276.370976 186.582806 
L 276.743286 182.886806 
L 277.115596 182.147606 
L 277.487907 182.517206 
L 277.860217 181.038806 
L 278.604837 188.800406 
L 278.977148 191.018006 
L 279.349458 200.627606 
L 280.094078 201.366806 
L 280.466389 203.954006 
L 280.838699 210.237206 
L 281.211009 212.085206 
L 281.583319 211.715606 
L 281.95563 205.802006 
L 282.32794 206.541206 
L 282.70025 208.019606 
L 283.07256 210.237206 
L 283.444871 209.867606 
L 283.817181 212.454806 
L 284.189491 212.454806 
L 284.561802 213.563606 
L 284.934112 216.890006 
L 285.306422 215.411606 
L 285.678732 216.520406 
L 286.051043 215.781206 
L 286.423353 218.368406 
L 287.167973 220.955606 
L 287.540284 220.216406 
L 287.912594 219.846806 
L 288.657214 216.890006 
L 289.029525 221.325206 
L 289.401835 218.738006 
L 289.774145 220.955606 
L 290.146455 222.064406 
L 290.518766 218.368406 
L 290.891076 219.107606 
L 291.263386 215.411606 
L 291.635696 217.629206 
L 292.380317 212.824406 
L 292.752627 212.085206 
L 293.124937 207.650006 
L 293.497248 207.650006 
L 293.869558 206.541206 
L 294.241868 207.280406 
L 294.614178 200.997206 
L 294.986489 202.475606 
L 295.358799 199.149206 
L 295.731109 198.779606 
L 296.10342 203.954006 
L 296.47573 192.866006 
L 296.84804 168.472406 
L 297.22035 167.363606 
L 297.592661 169.211606 
L 297.964971 189.539606 
L 298.337281 192.126806 
L 298.709591 185.843606 
L 299.081902 176.973206 
L 299.454212 186.213206 
L 300.198832 165.885206 
L 300.571143 173.277206 
L 300.943453 173.646806 
L 301.315763 185.843606 
L 301.688073 187.691606 
L 302.060384 172.168406 
L 302.432694 181.778006 
L 302.805004 194.344406 
L 303.177314 195.083606 
L 303.549625 184.734806 
L 303.921935 167.733206 
L 304.294245 162.189206 
L 304.666555 176.973206 
L 305.038866 177.342806 
L 305.411176 165.146006 
L 306.155796 159.971606 
L 306.528107 169.950806 
L 306.900417 166.994006 
L 307.272727 151.470806 
L 307.645038 148.514006 
L 308.017348 151.470806 
L 308.389658 151.101206 
L 308.761968 162.558806 
L 309.134279 168.472406 
L 309.506589 176.234006 
L 309.878899 178.451606 
L 310.251209 182.147606 
L 310.62352 187.691606 
L 310.99583 187.691606 
L 311.36814 202.106006 
L 311.74045 206.171606 
L 312.112761 204.323606 
L 312.485071 203.214806 
L 312.857381 203.584406 
L 313.229691 204.323606 
L 313.602002 194.344406 
L 313.974312 192.126806 
L 314.346622 195.453206 
L 314.718932 192.496406 
L 315.091243 193.974806 
L 315.463553 192.496406 
L 315.835863 184.734806 
L 316.208173 182.886806 
L 316.580484 185.474006 
L 316.952794 199.518806 
L 317.325104 203.954006 
L 317.697415 200.997206 
L 318.442035 207.280406 
L 318.814345 206.171606 
L 319.558966 195.083606 
L 319.931276 193.974806 
L 320.303586 193.974806 
L 320.675897 194.344406 
L 321.048207 195.822806 
L 321.420517 198.410006 
L 321.792827 194.714006 
L 322.165138 195.453206 
L 322.537448 196.562006 
L 323.282068 192.496406 
L 323.654379 196.192406 
L 324.026689 203.584406 
L 324.398999 203.214806 
L 324.771309 200.627606 
L 325.14362 193.974806 
L 325.51593 199.518806 
L 325.88824 196.931606 
L 326.26055 196.562006 
L 326.632861 193.235606 
L 327.377481 200.997206 
L 327.749791 201.736406 
L 328.122102 203.954006 
L 328.494412 204.323606 
L 328.866722 203.584406 
L 329.239033 203.954006 
L 329.611343 206.171606 
L 329.983653 206.171606 
L 330.355963 207.280406 
L 330.728274 202.845206 
L 331.100584 204.323606 
L 331.472894 203.954006 
L 331.845204 202.845206 
L 332.217515 204.323606 
L 332.589825 202.475606 
L 332.962135 205.802006 
L 333.334445 205.802006 
L 333.706756 205.432406 
L 334.079066 207.280406 
L 334.451376 208.019606 
L 334.823686 214.672406 
L 335.195997 209.867606 
L 335.568307 208.019606 
L 336.312927 212.085206 
L 336.685238 215.781206 
L 337.057548 217.629206 
L 337.429858 215.042006 
L 337.802168 213.563606 
L 338.174479 213.194006 
L 338.919099 214.672406 
L 339.29141 215.042006 
L 339.66372 213.933206 
L 340.03603 212.454806 
L 340.40834 212.824406 
L 340.780651 213.933206 
L 341.152961 216.890006 
L 341.525271 216.890006 
L 341.897581 213.194006 
L 342.269892 212.454806 
L 342.642202 212.454806 
L 343.014512 210.976406 
L 343.386822 208.019606 
L 344.131443 199.149206 
L 344.503753 196.931606 
L 344.876063 195.822806 
L 345.248374 202.106006 
L 346.365304 210.976406 
L 347.109925 215.042006 
L 347.482235 214.672406 
L 347.854545 214.672406 
L 348.599166 212.085206 
L 349.343786 213.563606 
L 349.716097 213.194006 
L 350.088407 214.672406 
L 350.460717 215.411606 
L 350.833028 216.520406 
L 351.205338 217.259606 
L 351.949958 222.064406 
L 352.322269 222.064406 
L 352.694579 216.520406 
L 353.066889 216.150806 
L 353.439199 217.259606 
L 354.18382 222.803606 
L 354.55613 226.869206 
L 355.300751 219.107606 
L 355.673061 220.586006 
L 356.045371 219.846806 
L 356.417681 220.216406 
L 356.789992 222.803606 
L 357.162302 224.282006 
L 357.534612 220.955606 
L 357.906922 219.846806 
L 358.279233 220.955606 
L 358.651543 222.803606 
L 359.023853 223.912406 
L 359.768474 224.651606 
L 360.140784 222.803606 
L 360.513094 222.434006 
L 360.885405 223.173206 
L 361.257715 224.282006 
L 361.630025 224.651606 
L 362.002335 224.282006 
L 362.374646 224.282006 
L 362.746956 225.021206 
L 363.119266 226.130006 
L 363.863887 226.869206 
L 364.236197 227.608406 
L 364.608507 225.760406 
L 364.980817 224.651606 
L 365.725438 225.390806 
L 366.097748 224.651606 
L 366.470058 223.542806 
L 366.842369 223.173206 
L 367.214679 223.542806 
L 367.586989 224.282006 
L 367.959299 222.803606 
L 368.33161 222.434006 
L 368.70392 222.803606 
L 369.44854 222.064406 
L 369.820851 221.325206 
L 370.193161 222.434006 
L 370.565471 222.803606 
L 370.937781 222.434006 
L 371.310092 222.434006 
L 371.682402 223.173206 
L 372.054712 224.651606 
L 372.427023 224.651606 
L 372.799333 225.390806 
L 373.171643 225.021206 
L 373.543953 225.390806 
L 373.916264 225.390806 
L 374.288574 225.760406 
L 374.660884 227.608406 
L 375.033194 226.869206 
L 375.405505 227.608406 
L 375.777815 227.238806 
L 376.150125 226.499606 
L 376.522435 226.499606 
L 376.894746 225.760406 
L 377.267056 224.282006 
L 377.639366 225.390806 
L 378.011676 225.760406 
L 378.383987 225.760406 
L 378.756297 225.021206 
L 379.128607 222.434006 
L 379.873228 213.563606 
L 380.245538 210.606806 
L 380.617848 209.128406 
L 380.990158 211.346006 
L 381.734779 216.890006 
L 382.107089 218.738006 
L 382.479399 218.738006 
L 382.85171 219.846806 
L 383.22402 220.216406 
L 383.59633 217.998806 
L 383.968641 217.259606 
L 384.340951 218.738006 
L 384.713261 224.282006 
L 385.085571 227.608406 
L 385.457882 225.390806 
L 386.202502 219.846806 
L 386.574812 214.302806 
L 387.319433 222.064406 
L 387.691743 221.694806 
L 388.064053 220.955606 
L 388.436364 218.738006 
L 388.808674 217.259606 
L 389.180984 217.998806 
L 389.553294 219.107606 
L 389.925605 219.477206 
L 390.297915 216.150806 
L 390.670225 215.781206 
L 391.042535 219.107606 
L 391.414846 218.738006 
L 391.787156 216.890006 
L 392.159466 217.259606 
L 392.531776 216.150806 
L 392.904087 215.411606 
L 393.276397 216.890006 
L 393.648707 200.627606 
L 394.021018 199.149206 
L 394.393328 196.931606 
L 394.765638 199.888406 
L 395.137948 200.997206 
L 395.510259 198.410006 
L 395.882569 199.149206 
L 396.254879 197.301206 
L 396.627189 203.214806 
L 396.9995 201.736406 
L 397.37181 195.822806 
L 397.74412 199.518806 
L 398.861051 206.910806 
L 399.233361 208.758806 
L 400.350292 202.845206 
L 400.722602 206.171606 
L 401.094912 206.171606 
L 401.467223 208.389206 
L 401.839533 209.867606 
L 402.211843 210.606806 
L 402.584153 211.715606 
L 402.956464 214.672406 
L 403.328774 219.477206 
L 403.701084 219.107606 
L 404.073394 220.955606 
L 404.445705 221.694806 
L 404.818015 219.477206 
L 405.190325 218.368406 
L 405.562636 217.998806 
L 405.934946 217.998806 
L 406.679566 222.803606 
L 407.051877 222.803606 
L 407.424187 223.542806 
L 407.796497 225.021206 
L 408.168807 223.542806 
L 408.541118 221.325206 
L 408.913428 216.150806 
L 409.285738 214.672406 
L 409.658048 215.042006 
L 410.030359 215.781206 
L 410.402669 214.672406 
L 410.774979 212.824406 
L 411.147289 212.085206 
L 411.5196 212.824406 
L 411.89191 212.824406 
L 412.26422 213.933206 
L 413.381151 218.368406 
L 413.753461 215.042006 
L 414.125771 214.302806 
L 414.498082 214.302806 
L 414.870392 213.933206 
L 415.242702 214.302806 
L 415.615013 215.781206 
L 415.987323 214.672406 
L 416.359633 213.194006 
L 416.731943 215.042006 
L 417.104254 212.085206 
L 417.476564 213.933206 
L 417.848874 213.933206 
L 418.221184 214.302806 
L 418.593495 213.933206 
L 418.965805 216.150806 
L 419.338115 216.520406 
L 419.710425 217.629206 
L 420.082736 212.454806 
L 420.455046 205.062806 
L 420.827356 203.214806 
L 421.571977 196.931606 
L 421.944287 195.453206 
L 422.316597 197.670806 
L 422.688907 196.562006 
L 423.061218 192.866006 
L 423.433528 192.126806 
L 423.805838 186.582806 
L 424.178148 151.840406 
L 424.550459 133.730006 
L 424.922769 123.011606 
L 425.667389 144.078806 
L 426.41201 137.056406 
L 426.78432 154.797206 
L 427.156631 178.082006 
L 427.528941 185.843606 
L 427.901251 199.149206 
L 428.273561 204.323606 
L 428.645872 205.802006 
L 429.018182 206.171606 
L 429.390492 206.910806 
L 429.762802 211.346006 
L 430.135113 211.346006 
L 430.507423 210.976406 
L 430.879733 212.454806 
L 431.252043 207.650006 
L 431.624354 198.040406 
L 431.996664 200.258006 
L 432.368974 204.693206 
L 432.741284 206.171606 
L 433.113595 209.498006 
L 433.485905 209.128406 
L 433.858215 208.019606 
L 434.230525 209.128406 
L 434.602836 213.563606 
L 434.975146 214.672406 
L 435.719766 217.629206 
L 436.092077 219.846806 
L 436.464387 217.259606 
L 437.209008 204.323606 
L 437.581318 196.562006 
L 437.953628 200.997206 
L 438.698249 196.931606 
L 439.070559 200.258006 
L 439.442869 202.106006 
L 439.815179 202.475606 
L 440.18749 200.997206 
L 440.93211 193.605206 
L 441.30442 195.083606 
L 441.676731 198.040406 
L 442.049041 206.910806 
L 442.421351 210.606806 
L 442.793661 211.715606 
L 443.165972 213.563606 
L 443.538282 212.824406 
L 443.910592 213.933206 
L 444.282902 216.150806 
L 444.655213 216.890006 
L 445.399833 211.715606 
L 445.772143 215.411606 
L 446.516764 219.107606 
L 446.889074 220.216406 
L 447.261384 219.846806 
L 448.006005 223.912406 
L 448.378315 222.803606 
L 448.750626 223.542806 
L 449.495246 227.608406 
L 449.867556 226.869206 
L 450.239867 225.390806 
L 452.101418 211.346006 
L 452.473728 214.672406 
L 452.846038 214.672406 
L 453.218349 212.454806 
L 453.590659 214.302806 
L 453.962969 213.194006 
L 455.45221 196.562006 
L 455.82452 196.192406 
L 456.196831 192.866006 
L 456.569141 194.344406 
L 457.313761 199.518806 
L 458.058382 209.867606 
L 458.430692 209.867606 
L 458.803003 213.194006 
L 459.547623 214.672406 
L 459.919933 215.781206 
L 460.292244 216.520406 
L 460.664554 219.477206 
L 461.036864 220.586006 
L 461.409174 222.434006 
L 461.781485 223.173206 
L 462.153795 222.064406 
L 462.526105 222.064406 
L 462.898415 222.434006 
L 463.270726 222.434006 
L 464.015346 223.173206 
L 464.387656 221.325206 
L 464.759967 222.064406 
L 465.132277 221.694806 
L 465.504587 221.694806 
L 465.876897 222.434006 
L 466.249208 219.477206 
L 466.621518 217.629206 
L 466.993828 217.259606 
L 467.738449 213.933206 
L 468.110759 215.042006 
L 468.483069 214.672406 
L 468.855379 213.563606 
L 469.22769 210.976406 
L 469.6 206.910806 
L 469.6 206.910806 
" clip-path="url(#pb9aaa57d96)" style="fill: none; stroke: #bc80bd; stroke-width: 3; stroke-linecap: square"/>
   </g>
   <g id="patch_3">
    <path d="M 23.2 247.936406 
L 23.2 26.176406 
" style="fill: none; stroke: #000000; stroke-width: 0.6; stroke-linejoin: miter; stroke-linecap: square"/>
   </g>
   <g id="patch_4">
    <path d="M 23.2 247.936406 
L 469.6 247.936406 
" style="fill: none; stroke: #000000; stroke-width: 0.6; stroke-linejoin: miter; stroke-linecap: square"/>
   </g>
   <g id="text_13">
    <!-- Default premium (difference in yields, BAA-AAA) -->
    <g style="fill: #323034" transform="translate(23.2 20.176406) scale(0.19 -0.19)">
     <defs>
      <path id="STIXGeneral-Regular-66" d="M 134 2880 
L 659 2880 
Q 666 3264 710 3478 
Q 755 3693 883 3910 
Q 1152 4371 1786 4371 
Q 2074 4371 2262 4259 
Q 2451 4147 2451 3974 
Q 2451 3866 2374 3789 
Q 2298 3712 2182 3712 
Q 2029 3712 1894 3942 
Q 1741 4192 1555 4192 
Q 1197 4192 1197 3622 
L 1197 2880 
L 1978 2880 
L 1978 2675 
L 1197 2675 
L 1197 666 
Q 1197 307 1299 208 
Q 1402 109 1792 96 
L 1792 0 
L 128 0 
L 128 96 
Q 474 115 566 214 
Q 659 314 659 666 
L 659 2675 
L 134 2675 
L 134 2880 
z
" transform="scale(0.015625)"/>
      <path id="STIXGeneral-Regular-75" d="M 3072 320 
L 3072 230 
Q 2573 96 2195 -58 
L 2163 -38 
L 2163 486 
L 2150 486 
Q 1747 -64 1235 -64 
Q 870 -64 662 160 
Q 454 384 454 755 
L 454 2362 
Q 454 2598 371 2688 
Q 288 2778 58 2790 
L 58 2880 
L 992 2880 
L 992 813 
Q 992 595 1123 451 
Q 1254 307 1446 307 
Q 1760 307 1984 506 
Q 2067 582 2099 649 
Q 2131 717 2131 877 
L 2131 2355 
Q 2131 2605 2041 2678 
Q 1952 2752 1658 2771 
L 1658 2880 
L 2669 2880 
L 2669 685 
Q 2669 461 2742 390 
Q 2816 320 3034 320 
L 3072 320 
z
" transform="scale(0.015625)"/>
      <path id="STIXGeneral-Regular-6c" d="M 1645 0 
L 134 0 
L 134 96 
Q 435 122 531 221 
Q 627 320 627 589 
L 627 3590 
Q 627 3821 569 3910 
Q 512 4000 358 4000 
Q 224 4000 122 3987 
L 122 4090 
Q 730 4237 1133 4371 
L 1165 4346 
L 1165 557 
Q 1165 288 1254 201 
Q 1344 115 1645 96 
L 1645 0 
z
" transform="scale(0.015625)"/>
      <path id="STIXGeneral-Regular-20" transform="scale(0.015625)"/>
      <path id="STIXGeneral-Regular-70" d="M 1018 2931 
L 1018 2438 
Q 1421 2944 1939 2944 
Q 2406 2944 2707 2560 
Q 3008 2176 3008 1581 
Q 3008 883 2621 409 
Q 2234 -64 1664 -64 
Q 1466 -64 1328 -6 
Q 1190 51 1018 211 
L 1018 -794 
Q 1018 -1094 1120 -1180 
Q 1222 -1267 1581 -1274 
L 1581 -1389 
L 32 -1389 
L 32 -1280 
Q 314 -1254 397 -1171 
Q 480 -1088 480 -838 
L 480 2157 
Q 480 2381 429 2451 
Q 378 2522 218 2522 
Q 115 2522 58 2515 
L 58 2618 
Q 506 2752 979 2944 
L 1018 2931 
z
M 1018 2138 
L 1018 563 
Q 1018 422 1238 281 
Q 1459 141 1683 141 
Q 2029 141 2243 467 
Q 2458 794 2458 1325 
Q 2458 1888 2243 2224 
Q 2029 2560 1670 2560 
Q 1446 2560 1232 2419 
Q 1018 2278 1018 2138 
z
" transform="scale(0.015625)"/>
      <path id="STIXGeneral-Regular-72" d="M 1024 2931 
L 1024 2342 
Q 1267 2688 1430 2816 
Q 1594 2944 1792 2944 
Q 1958 2944 2051 2854 
Q 2144 2765 2144 2605 
Q 2144 2470 2077 2393 
Q 2010 2317 1894 2317 
Q 1773 2317 1638 2445 
Q 1536 2541 1472 2541 
Q 1338 2541 1181 2355 
Q 1024 2170 1024 2016 
L 1024 576 
Q 1024 301 1133 205 
Q 1242 109 1568 96 
L 1568 0 
L 32 0 
L 32 96 
Q 339 154 412 224 
Q 486 294 486 538 
L 486 2138 
Q 486 2349 438 2435 
Q 390 2522 269 2522 
Q 166 2522 45 2496 
L 45 2598 
Q 448 2726 992 2944 
L 1024 2931 
z
" transform="scale(0.015625)"/>
      <path id="STIXGeneral-Regular-6d" d="M 4960 0 
L 3565 0 
L 3565 96 
Q 3834 122 3907 208 
Q 3981 294 3981 576 
L 3981 1894 
Q 3981 2278 3869 2444 
Q 3757 2611 3488 2611 
Q 3264 2611 3107 2521 
Q 2950 2432 2803 2221 
L 2803 608 
Q 2803 301 2896 201 
Q 2989 102 3264 96 
L 3264 0 
L 1830 0 
L 1830 96 
Q 2112 115 2189 188 
Q 2266 262 2266 550 
L 2266 1901 
Q 2266 2611 1850 2611 
Q 1670 2611 1468 2531 
Q 1267 2451 1171 2336 
Q 1088 2240 1088 2227 
L 1088 448 
Q 1088 243 1177 176 
Q 1267 109 1523 96 
L 1523 0 
L 102 0 
L 102 96 
Q 371 102 460 195 
Q 550 288 550 563 
L 550 2150 
Q 550 2387 499 2480 
Q 448 2573 326 2573 
Q 230 2573 122 2547 
L 122 2656 
Q 557 2778 1011 2944 
L 1062 2925 
L 1062 2451 
L 1075 2451 
Q 1363 2752 1584 2848 
Q 1805 2944 2054 2944 
Q 2560 2944 2733 2406 
Q 3232 2944 3776 2944 
Q 4518 2944 4518 1792 
L 4518 493 
Q 4518 282 4582 202 
Q 4646 122 4794 109 
L 4960 96 
L 4960 0 
z
" transform="scale(0.015625)"/>
      <path id="STIXGeneral-Regular-69" d="M 1152 4045 
Q 1152 3904 1056 3811 
Q 960 3718 819 3718 
Q 685 3718 592 3811 
Q 499 3904 499 4045 
Q 499 4179 595 4275 
Q 691 4371 826 4371 
Q 966 4371 1059 4275 
Q 1152 4179 1152 4045 
z
M 1619 0 
L 102 0 
L 102 96 
Q 435 115 521 211 
Q 608 307 608 666 
L 608 2118 
Q 608 2342 563 2432 
Q 518 2522 397 2522 
Q 243 2522 128 2490 
L 128 2592 
L 1120 2944 
L 1146 2918 
L 1146 672 
Q 1146 314 1226 218 
Q 1306 122 1619 96 
L 1619 0 
z
" transform="scale(0.015625)"/>
      <path id="STIXGeneral-Regular-28" d="M 1946 -1030 
L 1869 -1133 
Q 1126 -710 716 32 
Q 307 774 307 1613 
Q 307 3386 1888 4326 
L 1946 4224 
Q 1293 3667 1075 3126 
Q 858 2586 858 1632 
Q 858 685 1082 96 
Q 1306 -493 1946 -1030 
z
" transform="scale(0.015625)"/>
      <path id="STIXGeneral-Regular-64" d="M 3142 269 
L 2202 -64 
L 2176 -45 
L 2176 365 
Q 1869 -64 1357 -64 
Q 826 -64 499 317 
Q 173 698 173 1312 
Q 173 1990 563 2467 
Q 954 2944 1504 2944 
Q 1850 2944 2176 2669 
L 2176 3667 
Q 2176 3866 2118 3930 
Q 2061 3994 1882 3994 
Q 1792 3994 1741 3987 
L 1741 4090 
Q 2323 4243 2682 4371 
L 2714 4358 
L 2714 730 
Q 2714 506 2768 435 
Q 2822 365 2995 365 
Q 3034 365 3142 371 
L 3142 269 
z
M 2176 653 
L 2176 2125 
Q 2176 2381 1981 2573 
Q 1786 2765 1523 2765 
Q 1158 2765 940 2438 
Q 723 2112 723 1568 
Q 723 979 963 624 
Q 1203 269 1606 269 
Q 1907 269 2080 474 
Q 2176 582 2176 653 
z
" transform="scale(0.015625)"/>
      <path id="STIXGeneral-Regular-6e" d="M 3104 0 
L 1773 0 
L 1779 96 
Q 2016 115 2096 233 
Q 2176 352 2176 672 
L 2176 1946 
Q 2176 2592 1709 2592 
Q 1549 2592 1408 2515 
Q 1267 2438 1050 2227 
L 1050 461 
Q 1050 269 1136 192 
Q 1222 115 1466 96 
L 1466 0 
L 115 0 
L 115 96 
Q 358 115 435 214 
Q 512 314 512 602 
L 512 2157 
Q 512 2394 467 2483 
Q 422 2573 288 2573 
Q 160 2573 102 2547 
L 102 2656 
Q 550 2784 979 2944 
L 1030 2925 
L 1030 2426 
L 1037 2426 
Q 1491 2944 1958 2944 
Q 2323 2944 2518 2688 
Q 2714 2432 2714 1958 
L 2714 544 
Q 2714 288 2790 205 
Q 2867 122 3104 96 
L 3104 0 
z
" transform="scale(0.015625)"/>
      <path id="STIXGeneral-Regular-63" d="M 2547 998 
L 2637 941 
Q 2362 403 2112 205 
Q 1786 -64 1376 -64 
Q 845 -64 502 336 
Q 160 736 160 1357 
Q 160 2170 698 2618 
Q 1094 2944 1562 2944 
Q 1965 2944 2256 2749 
Q 2547 2554 2547 2285 
Q 2547 2176 2457 2096 
Q 2368 2016 2246 2016 
Q 2022 2016 1939 2310 
L 1901 2451 
Q 1850 2630 1773 2694 
Q 1696 2758 1523 2758 
Q 1133 2758 893 2451 
Q 653 2144 653 1645 
Q 653 1094 928 745 
Q 1203 397 1645 397 
Q 1920 397 2118 528 
Q 2317 659 2547 998 
z
" transform="scale(0.015625)"/>
      <path id="STIXGeneral-Regular-79" d="M 3040 2880 
L 3040 2784 
Q 2925 2771 2854 2700 
Q 2784 2630 2720 2458 
L 1760 -160 
Q 1510 -838 1257 -1116 
Q 1005 -1395 640 -1395 
Q 435 -1395 313 -1289 
Q 192 -1184 192 -1024 
Q 192 -902 272 -816 
Q 352 -730 467 -730 
Q 653 -730 800 -813 
Q 883 -858 966 -858 
Q 1101 -858 1286 -576 
Q 1376 -448 1459 -211 
Q 1542 26 1542 115 
Q 1542 198 1274 762 
L 429 2566 
Q 346 2752 90 2790 
L 90 2880 
L 1402 2880 
L 1402 2784 
Q 1197 2778 1117 2739 
Q 1037 2701 1037 2611 
Q 1037 2541 1120 2349 
L 1837 749 
L 2458 2515 
Q 2483 2573 2483 2630 
Q 2483 2784 2189 2784 
L 2189 2880 
L 3040 2880 
z
" transform="scale(0.015625)"/>
      <path id="STIXGeneral-Regular-73" d="M 998 1926 
L 1664 1523 
Q 1984 1331 2105 1164 
Q 2227 998 2227 736 
Q 2227 416 1961 176 
Q 1696 -64 1331 -64 
Q 1030 -64 864 -6 
Q 691 51 570 51 
Q 461 51 416 -26 
L 333 -26 
L 333 979 
L 435 979 
Q 538 512 730 294 
Q 922 77 1248 77 
Q 1485 77 1632 211 
Q 1779 346 1779 550 
Q 1779 845 1440 1030 
L 1094 1222 
Q 326 1651 326 2150 
Q 326 2522 566 2730 
Q 806 2938 1210 2938 
Q 1491 2938 1638 2867 
Q 1754 2816 1818 2816 
Q 1862 2816 1920 2880 
L 1990 2880 
L 2022 2010 
L 1926 2010 
Q 1818 2445 1654 2621 
Q 1491 2797 1203 2797 
Q 986 2797 854 2688 
Q 723 2579 723 2362 
Q 723 2253 796 2128 
Q 870 2003 998 1926 
z
" transform="scale(0.015625)"/>
      <path id="STIXGeneral-Regular-2c" d="M 531 -902 
L 467 -781 
Q 998 -422 998 -96 
Q 998 -13 909 -13 
Q 883 -13 822 -25 
Q 762 -38 723 -38 
Q 352 -38 352 288 
Q 352 454 457 553 
Q 563 653 736 653 
Q 954 653 1101 496 
Q 1248 339 1248 96 
Q 1248 -198 1053 -473 
Q 858 -749 531 -902 
z
" transform="scale(0.015625)"/>
      <path id="STIXGeneral-Regular-42" d="M 2701 2234 
L 2701 2227 
Q 3181 2150 3482 1875 
Q 3795 1594 3795 1139 
Q 3795 608 3379 304 
Q 2963 0 2266 0 
L 109 0 
L 109 122 
Q 486 134 604 246 
Q 723 358 723 723 
L 723 3520 
Q 723 3891 614 3990 
Q 506 4090 109 4115 
L 109 4237 
L 1901 4237 
Q 2726 4237 3152 3958 
Q 3578 3680 3578 3168 
Q 3578 2733 3315 2502 
Q 3130 2342 2701 2234 
z
M 1376 2342 
L 1965 2342 
Q 2925 2342 2925 3136 
Q 2925 3546 2640 3773 
Q 2355 4000 1792 4000 
L 1530 4000 
Q 1376 4000 1376 3795 
L 1376 2342 
z
M 1376 2086 
L 1376 525 
Q 1376 365 1462 301 
Q 1549 237 1773 237 
Q 2208 237 2413 285 
Q 2618 333 2816 512 
Q 3059 723 3059 1146 
Q 3059 1632 2758 1830 
Q 2688 1882 2617 1917 
Q 2547 1952 2492 1974 
Q 2438 1997 2348 2016 
Q 2259 2035 2211 2044 
Q 2163 2054 2041 2060 
Q 1920 2067 1862 2070 
Q 1805 2074 1635 2080 
Q 1466 2086 1376 2086 
z
" transform="scale(0.015625)"/>
      <path id="STIXGeneral-Regular-41" d="M 4525 0 
L 2893 0 
L 2893 122 
Q 3149 122 3245 179 
Q 3334 224 3334 333 
Q 3334 499 3213 781 
L 2950 1382 
L 1274 1382 
L 979 653 
Q 922 506 922 384 
Q 922 237 1027 179 
Q 1133 122 1370 122 
L 1370 0 
L 96 0 
L 96 122 
Q 365 147 486 316 
Q 608 486 902 1190 
L 2221 4314 
L 2349 4314 
L 3923 710 
Q 4064 378 4176 262 
Q 4288 147 4525 122 
L 4525 0 
z
M 2861 1645 
L 2118 3405 
L 1382 1645 
L 2861 1645 
z
" transform="scale(0.015625)"/>
      <path id="STIXGeneral-Regular-2d" d="M 1824 1242 
L 250 1242 
L 250 1645 
L 1824 1645 
L 1824 1242 
z
" transform="scale(0.015625)"/>
      <path id="STIXGeneral-Regular-29" d="M 186 4224 
L 262 4326 
Q 992 3891 1408 3148 
Q 1824 2406 1824 1581 
Q 1824 -166 243 -1133 
L 186 -1030 
Q 845 -486 1059 54 
Q 1274 595 1274 1562 
Q 1274 2534 1059 3120 
Q 845 3706 186 4224 
z
" transform="scale(0.015625)"/>
     </defs>
     <use xlink:href="#STIXGeneral-Regular-44"/>
     <use xlink:href="#STIXGeneral-Regular-65" transform="translate(72.199982 0)"/>
     <use xlink:href="#STIXGeneral-Regular-66" transform="translate(116.599976 0)"/>
     <use xlink:href="#STIXGeneral-Regular-61" transform="translate(149.899963 0)"/>
     <use xlink:href="#STIXGeneral-Regular-75" transform="translate(194.299957 0)"/>
     <use xlink:href="#STIXGeneral-Regular-6c" transform="translate(244.299942 0)"/>
     <use xlink:href="#STIXGeneral-Regular-74" transform="translate(272.09993 0)"/>
     <use xlink:href="#STIXGeneral-Regular-20" transform="translate(299.899918 0)"/>
     <use xlink:href="#STIXGeneral-Regular-70" transform="translate(324.899902 0)"/>
     <use xlink:href="#STIXGeneral-Regular-72" transform="translate(374.899887 0)"/>
     <use xlink:href="#STIXGeneral-Regular-65" transform="translate(408.199875 0)"/>
     <use xlink:href="#STIXGeneral-Regular-6d" transform="translate(452.599869 0)"/>
     <use xlink:href="#STIXGeneral-Regular-69" transform="translate(530.399857 0)"/>
     <use xlink:href="#STIXGeneral-Regular-75" transform="translate(558.199844 0)"/>
     <use xlink:href="#STIXGeneral-Regular-6d" transform="translate(608.199829 0)"/>
     <use xlink:href="#STIXGeneral-Regular-20" transform="translate(685.999817 0)"/>
     <use xlink:href="#STIXGeneral-Regular-28" transform="translate(710.999802 0)"/>
     <use xlink:href="#STIXGeneral-Regular-64" transform="translate(744.299789 0)"/>
     <use xlink:href="#STIXGeneral-Regular-69" transform="translate(794.299774 0)"/>
     <use xlink:href="#STIXGeneral-Regular-66" transform="translate(822.099762 0)"/>
     <use xlink:href="#STIXGeneral-Regular-66" transform="translate(855.39975 0)"/>
     <use xlink:href="#STIXGeneral-Regular-65" transform="translate(888.699738 0)"/>
     <use xlink:href="#STIXGeneral-Regular-72" transform="translate(933.099731 0)"/>
     <use xlink:href="#STIXGeneral-Regular-65" transform="translate(966.399719 0)"/>
     <use xlink:href="#STIXGeneral-Regular-6e" transform="translate(1010.799713 0)"/>
     <use xlink:href="#STIXGeneral-Regular-63" transform="translate(1060.799698 0)"/>
     <use xlink:href="#STIXGeneral-Regular-65" transform="translate(1105.199692 0)"/>
     <use xlink:href="#STIXGeneral-Regular-20" transform="translate(1149.599686 0)"/>
     <use xlink:href="#STIXGeneral-Regular-69" transform="translate(1174.59967 0)"/>
     <use xlink:href="#STIXGeneral-Regular-6e" transform="translate(1202.399658 0)"/>
     <use xlink:href="#STIXGeneral-Regular-20" transform="translate(1252.399643 0)"/>
     <use xlink:href="#STIXGeneral-Regular-79" transform="translate(1277.399628 0)"/>
     <use xlink:href="#STIXGeneral-Regular-69" transform="translate(1327.399612 0)"/>
     <use xlink:href="#STIXGeneral-Regular-65" transform="translate(1355.1996 0)"/>
     <use xlink:href="#STIXGeneral-Regular-6c" transform="translate(1399.599594 0)"/>
     <use xlink:href="#STIXGeneral-Regular-64" transform="translate(1427.399582 0)"/>
     <use xlink:href="#STIXGeneral-Regular-73" transform="translate(1477.399567 0)"/>
     <use xlink:href="#STIXGeneral-Regular-2c" transform="translate(1516.299561 0)"/>
     <use xlink:href="#STIXGeneral-Regular-20" transform="translate(1541.299545 0)"/>
     <use xlink:href="#STIXGeneral-Regular-42" transform="translate(1566.29953 0)"/>
     <use xlink:href="#STIXGeneral-Regular-41" transform="translate(1632.999527 0)"/>
     <use xlink:href="#STIXGeneral-Regular-41" transform="translate(1705.199509 0)"/>
     <use xlink:href="#STIXGeneral-Regular-2d" transform="translate(1777.39949 0)"/>
     <use xlink:href="#STIXGeneral-Regular-41" transform="translate(1810.699478 0)"/>
     <use xlink:href="#STIXGeneral-Regular-41" transform="translate(1882.89946 0)"/>
     <use xlink:href="#STIXGeneral-Regular-41" transform="translate(1955.099442 0)"/>
     <use xlink:href="#STIXGeneral-Regular-29" transform="translate(2027.299423 0)"/>
    </g>
   </g>
  </g>
 </g>
 <defs>
  <clipPath id="pb9aaa57d96">
   <rect x="23.2" y="26.176406" width="446.4" height="221.76"/>
  </clipPath>
 </defs>
</svg>