<?xml version="1.0" encoding="utf-8" standalone="no"?>
<!DOCTYPE svg PUBLIC "-//W3C//DTD SVG 1.1//EN"
  "http://www.w3.org/Graphics/SVG/1.1/DTD/svg11.dtd">
<svg xmlns:xlink="http://www.w3.org/1999/xlink" width="501.265pt" height="279.238266pt" viewBox="0 0 501.265 279.238266" xmlns="http://www.w3.org/2000/svg" version="1.1">
 <metadata>
  <rdf:RDF xmlns:dc="http://purl.org/dc/elements/1.1/" xmlns:cc="http://creativecommons.org/ns#" xmlns:rdf="http://www.w3.org/1999/02/22-rdf-syntax-ns#">
   <cc:Work>
    <dc:type rdf:resource="http://purl.org/dc/dcmitype/StillImage"/>
    <dc:date>2025-01-03T01:05:36.213098</dc:date>
    <dc:format>image/svg+xml</dc:format>
    <dc:creator>
     <cc:Agent>
      <dc:title>Matplotlib v3.9.4, https://matplotlib.org/</dc:title>
     </cc:Agent>
    </dc:creator>
   </cc:Work>
  </rdf:RDF>
 </metadata>
 <defs>
  <style type="text/css">*{stroke-linejoin: round; stroke-linecap: butt}</style>
 </defs>
 <g id="figure_1">
  <g id="patch_1">
   <path d="M 0 279.238266 
L 501.265 279.238266 
L 501.265 0 
L 0 0 
z
" style="fill: #ffffff"/>
  </g>
  <g id="axes_1">
   <g id="patch_2">
    <path d="M 47.665 208.50375 
L 494.065 208.50375 
L 494.065 12.66375 
L 47.665 12.66375 
z
" style="fill: #ffffff"/>
   </g>
   <g id="matplotlib.axis_1">
    <g id="xtick_1">
     <g id="line2d_1">
      <defs>
       <path id="m27f1519a86" d="M 0 0 
L 0 3.5 
" style="stroke: #323034; stroke-width: 0.8"/>
      </defs>
      <g>
       <use xlink:href="#m27f1519a86" x="67.031494" y="208.50375" style="fill: #323034; stroke: #323034; stroke-width: 0.8"/>
      </g>
     </g>
     <g id="text_1">
      <!-- 2017-01 -->
      <g style="fill: #323034" transform="translate(19.112274 251.630993) rotate(-30) scale(0.16 -0.16)">
       <defs>
        <path id="STIXGeneral-Regular-32" d="M 3034 877 
L 2688 0 
L 186 0 
L 186 77 
L 1325 1286 
Q 1773 1754 1965 2144 
Q 2157 2534 2157 2950 
Q 2157 3379 1920 3616 
Q 1683 3853 1267 3853 
Q 922 3853 720 3673 
Q 518 3494 326 3021 
L 192 3053 
Q 301 3648 630 3987 
Q 960 4326 1523 4326 
Q 2054 4326 2380 4006 
Q 2707 3686 2707 3200 
Q 2707 2477 1888 1613 
L 832 486 
L 2330 486 
Q 2541 486 2665 569 
Q 2790 653 2944 915 
L 3034 877 
z
" transform="scale(0.015625)"/>
        <path id="STIXGeneral-Regular-30" d="M 3046 2112 
Q 3046 1683 2963 1302 
Q 2880 922 2717 602 
Q 2554 282 2266 96 
Q 1978 -90 1600 -90 
Q 1210 -90 915 108 
Q 621 307 461 640 
Q 301 973 227 1350 
Q 154 1728 154 2150 
Q 154 2746 301 3222 
Q 448 3699 790 4012 
Q 1133 4326 1626 4326 
Q 2253 4326 2649 3712 
Q 3046 3098 3046 2112 
z
M 2432 2080 
Q 2432 3091 2217 3625 
Q 2003 4160 1587 4160 
Q 1190 4160 979 3622 
Q 768 3085 768 2106 
Q 768 1120 979 598 
Q 1190 77 1600 77 
Q 2003 77 2217 598 
Q 2432 1120 2432 2080 
z
" transform="scale(0.015625)"/>
        <path id="STIXGeneral-Regular-31" d="M 2522 0 
L 755 0 
L 755 96 
Q 1107 115 1235 227 
Q 1363 339 1363 608 
L 1363 3482 
Q 1363 3795 1171 3795 
Q 1082 3795 883 3718 
L 710 3654 
L 710 3744 
L 1856 4326 
L 1914 4307 
L 1914 486 
Q 1914 275 2042 185 
Q 2170 96 2522 96 
L 2522 0 
z
" transform="scale(0.015625)"/>
        <path id="STIXGeneral-Regular-37" d="M 2874 4134 
L 1517 -51 
L 1101 -51 
L 2368 3763 
L 992 3763 
Q 717 3763 582 3667 
Q 448 3571 243 3238 
L 128 3296 
L 512 4237 
L 2874 4237 
L 2874 4134 
z
" transform="scale(0.015625)"/>
        <path id="STIXGeneral-Regular-2d" d="M 1824 1242 
L 250 1242 
L 250 1645 
L 1824 1645 
L 1824 1242 
z
" transform="scale(0.015625)"/>
       </defs>
       <use xlink:href="#STIXGeneral-Regular-32"/>
       <use xlink:href="#STIXGeneral-Regular-30" x="49.999985"/>
       <use xlink:href="#STIXGeneral-Regular-31" x="99.999969"/>
       <use xlink:href="#STIXGeneral-Regular-37" x="149.999954"/>
       <use xlink:href="#STIXGeneral-Regular-2d" x="199.999939"/>
       <use xlink:href="#STIXGeneral-Regular-30" x="233.299927"/>
       <use xlink:href="#STIXGeneral-Regular-31" x="283.299911"/>
      </g>
     </g>
    </g>
    <g id="xtick_2">
     <g id="line2d_2">
      <g>
       <use xlink:href="#m27f1519a86" x="108.630169" y="208.50375" style="fill: #323034; stroke: #323034; stroke-width: 0.8"/>
      </g>
     </g>
     <g id="text_2">
      <!-- 2017-04 -->
      <g style="fill: #323034" transform="translate(60.710949 251.630993) rotate(-30) scale(0.16 -0.16)">
       <defs>
        <path id="STIXGeneral-Regular-34" d="M 3027 1069 
L 2368 1069 
L 2368 0 
L 1869 0 
L 1869 1069 
L 77 1069 
L 77 1478 
L 2086 4326 
L 2368 4326 
L 2368 1478 
L 3027 1478 
L 3027 1069 
z
M 1869 1478 
L 1869 3674 
L 333 1478 
L 1869 1478 
z
" transform="scale(0.015625)"/>
       </defs>
       <use xlink:href="#STIXGeneral-Regular-32"/>
       <use xlink:href="#STIXGeneral-Regular-30" x="49.999985"/>
       <use xlink:href="#STIXGeneral-Regular-31" x="99.999969"/>
       <use xlink:href="#STIXGeneral-Regular-37" x="149.999954"/>
       <use xlink:href="#STIXGeneral-Regular-2d" x="199.999939"/>
       <use xlink:href="#STIXGeneral-Regular-30" x="233.299927"/>
       <use xlink:href="#STIXGeneral-Regular-34" x="283.299911"/>
      </g>
     </g>
    </g>
    <g id="xtick_3">
     <g id="line2d_3">
      <g>
       <use xlink:href="#m27f1519a86" x="150.691051" y="208.50375" style="fill: #323034; stroke: #323034; stroke-width: 0.8"/>
      </g>
     </g>
     <g id="text_3">
      <!-- 2017-07 -->
      <g style="fill: #323034" transform="translate(102.771831 251.630993) rotate(-30) scale(0.16 -0.16)">
       <use xlink:href="#STIXGeneral-Regular-32"/>
       <use xlink:href="#STIXGeneral-Regular-30" x="49.999985"/>
       <use xlink:href="#STIXGeneral-Regular-31" x="99.999969"/>
       <use xlink:href="#STIXGeneral-Regular-37" x="149.999954"/>
       <use xlink:href="#STIXGeneral-Regular-2d" x="199.999939"/>
       <use xlink:href="#STIXGeneral-Regular-30" x="233.299927"/>
       <use xlink:href="#STIXGeneral-Regular-37" x="283.299911"/>
      </g>
     </g>
    </g>
    <g id="xtick_4">
     <g id="line2d_4">
      <g>
       <use xlink:href="#m27f1519a86" x="193.214141" y="208.50375" style="fill: #323034; stroke: #323034; stroke-width: 0.8"/>
      </g>
     </g>
     <g id="text_4">
      <!-- 2017-10 -->
      <g style="fill: #323034" transform="translate(145.294921 251.630993) rotate(-30) scale(0.16 -0.16)">
       <use xlink:href="#STIXGeneral-Regular-32"/>
       <use xlink:href="#STIXGeneral-Regular-30" x="49.999985"/>
       <use xlink:href="#STIXGeneral-Regular-31" x="99.999969"/>
       <use xlink:href="#STIXGeneral-Regular-37" x="149.999954"/>
       <use xlink:href="#STIXGeneral-Regular-2d" x="199.999939"/>
       <use xlink:href="#STIXGeneral-Regular-31" x="233.299927"/>
       <use xlink:href="#STIXGeneral-Regular-30" x="283.299911"/>
      </g>
     </g>
    </g>
    <g id="xtick_5">
     <g id="line2d_5">
      <g>
       <use xlink:href="#m27f1519a86" x="235.73723" y="208.50375" style="fill: #323034; stroke: #323034; stroke-width: 0.8"/>
      </g>
     </g>
     <g id="text_5">
      <!-- 2018-01 -->
      <g style="fill: #323034" transform="translate(187.818011 251.630993) rotate(-30) scale(0.16 -0.16)">
       <defs>
        <path id="STIXGeneral-Regular-38" d="M 2848 992 
Q 2848 499 2505 204 
Q 2163 -90 1587 -90 
Q 1050 -90 704 204 
Q 358 499 358 954 
Q 358 1293 524 1533 
Q 691 1773 1190 2125 
Q 710 2522 553 2765 
Q 397 3008 397 3328 
Q 397 3782 745 4054 
Q 1094 4326 1638 4326 
Q 2106 4326 2410 4060 
Q 2714 3795 2714 3411 
Q 2714 3059 2531 2848 
Q 2349 2637 1856 2374 
Q 2432 1990 2640 1689 
Q 2848 1389 2848 992 
z
M 2272 3411 
Q 2272 3744 2086 3945 
Q 1901 4147 1574 4147 
Q 1248 4147 1059 3977 
Q 870 3808 870 3513 
Q 870 3219 1059 2979 
Q 1248 2739 1670 2490 
Q 1997 2682 2134 2896 
Q 2272 3110 2272 3411 
z
M 1734 1741 
L 1357 1997 
Q 1075 1766 960 1545 
Q 845 1325 845 1011 
Q 845 576 1065 333 
Q 1286 90 1658 90 
Q 1971 90 2166 285 
Q 2362 480 2362 794 
Q 2362 1082 2214 1299 
Q 2067 1517 1734 1741 
z
" transform="scale(0.015625)"/>
       </defs>
       <use xlink:href="#STIXGeneral-Regular-32"/>
       <use xlink:href="#STIXGeneral-Regular-30" x="49.999985"/>
       <use xlink:href="#STIXGeneral-Regular-31" x="99.999969"/>
       <use xlink:href="#STIXGeneral-Regular-38" x="149.999954"/>
       <use xlink:href="#STIXGeneral-Regular-2d" x="199.999939"/>
       <use xlink:href="#STIXGeneral-Regular-30" x="233.299927"/>
       <use xlink:href="#STIXGeneral-Regular-31" x="283.299911"/>
      </g>
     </g>
    </g>
    <g id="xtick_6">
     <g id="line2d_6">
      <g>
       <use xlink:href="#m27f1519a86" x="277.335905" y="208.50375" style="fill: #323034; stroke: #323034; stroke-width: 0.8"/>
      </g>
     </g>
     <g id="text_6">
      <!-- 2018-04 -->
      <g style="fill: #323034" transform="translate(229.416685 251.630993) rotate(-30) scale(0.16 -0.16)">
       <use xlink:href="#STIXGeneral-Regular-32"/>
       <use xlink:href="#STIXGeneral-Regular-30" x="49.999985"/>
       <use xlink:href="#STIXGeneral-Regular-31" x="99.999969"/>
       <use xlink:href="#STIXGeneral-Regular-38" x="149.999954"/>
       <use xlink:href="#STIXGeneral-Regular-2d" x="199.999939"/>
       <use xlink:href="#STIXGeneral-Regular-30" x="233.299927"/>
       <use xlink:href="#STIXGeneral-Regular-34" x="283.299911"/>
      </g>
     </g>
    </g>
    <g id="xtick_7">
     <g id="line2d_7">
      <g>
       <use xlink:href="#m27f1519a86" x="319.396787" y="208.50375" style="fill: #323034; stroke: #323034; stroke-width: 0.8"/>
      </g>
     </g>
     <g id="text_7">
      <!-- 2018-07 -->
      <g style="fill: #323034" transform="translate(271.477567 251.630993) rotate(-30) scale(0.16 -0.16)">
       <use xlink:href="#STIXGeneral-Regular-32"/>
       <use xlink:href="#STIXGeneral-Regular-30" x="49.999985"/>
       <use xlink:href="#STIXGeneral-Regular-31" x="99.999969"/>
       <use xlink:href="#STIXGeneral-Regular-38" x="149.999954"/>
       <use xlink:href="#STIXGeneral-Regular-2d" x="199.999939"/>
       <use xlink:href="#STIXGeneral-Regular-30" x="233.299927"/>
       <use xlink:href="#STIXGeneral-Regular-37" x="283.299911"/>
      </g>
     </g>
    </g>
    <g id="xtick_8">
     <g id="line2d_8">
      <g>
       <use xlink:href="#m27f1519a86" x="361.919877" y="208.50375" style="fill: #323034; stroke: #323034; stroke-width: 0.8"/>
      </g>
     </g>
     <g id="text_8">
      <!-- 2018-10 -->
      <g style="fill: #323034" transform="translate(314.000657 251.630993) rotate(-30) scale(0.16 -0.16)">
       <use xlink:href="#STIXGeneral-Regular-32"/>
       <use xlink:href="#STIXGeneral-Regular-30" x="49.999985"/>
       <use xlink:href="#STIXGeneral-Regular-31" x="99.999969"/>
       <use xlink:href="#STIXGeneral-Regular-38" x="149.999954"/>
       <use xlink:href="#STIXGeneral-Regular-2d" x="199.999939"/>
       <use xlink:href="#STIXGeneral-Regular-31" x="233.299927"/>
       <use xlink:href="#STIXGeneral-Regular-30" x="283.299911"/>
      </g>
     </g>
    </g>
    <g id="xtick_9">
     <g id="line2d_9">
      <g>
       <use xlink:href="#m27f1519a86" x="404.442966" y="208.50375" style="fill: #323034; stroke: #323034; stroke-width: 0.8"/>
      </g>
     </g>
     <g id="text_9">
      <!-- 2019-01 -->
      <g style="fill: #323034" transform="translate(356.523747 251.630993) rotate(-30) scale(0.16 -0.16)">
       <defs>
        <path id="STIXGeneral-Regular-39" d="M 378 -141 
L 358 -13 
Q 1094 115 1603 608 
Q 2112 1101 2304 1882 
Q 1933 1517 1344 1517 
Q 826 1517 509 1875 
Q 192 2234 192 2816 
Q 192 3462 573 3894 
Q 954 4326 1523 4326 
Q 2131 4326 2528 3840 
Q 2938 3328 2938 2522 
Q 2938 1958 2742 1462 
Q 2547 966 2170 621 
Q 1773 262 1395 105 
Q 1018 -51 378 -141 
z
M 2317 2272 
L 2317 2522 
Q 2317 4147 1472 4147 
Q 1171 4147 1005 3930 
Q 909 3802 845 3546 
Q 781 3290 781 3034 
Q 781 2464 995 2128 
Q 1210 1792 1568 1792 
Q 1824 1792 2070 1917 
Q 2317 2042 2317 2272 
z
" transform="scale(0.015625)"/>
       </defs>
       <use xlink:href="#STIXGeneral-Regular-32"/>
       <use xlink:href="#STIXGeneral-Regular-30" x="49.999985"/>
       <use xlink:href="#STIXGeneral-Regular-31" x="99.999969"/>
       <use xlink:href="#STIXGeneral-Regular-39" x="149.999954"/>
       <use xlink:href="#STIXGeneral-Regular-2d" x="199.999939"/>
       <use xlink:href="#STIXGeneral-Regular-30" x="233.299927"/>
       <use xlink:href="#STIXGeneral-Regular-31" x="283.299911"/>
      </g>
     </g>
    </g>
    <g id="xtick_10">
     <g id="line2d_10">
      <g>
       <use xlink:href="#m27f1519a86" x="446.041641" y="208.50375" style="fill: #323034; stroke: #323034; stroke-width: 0.8"/>
      </g>
     </g>
     <g id="text_10">
      <!-- 2019-04 -->
      <g style="fill: #323034" transform="translate(398.122421 251.630993) rotate(-30) scale(0.16 -0.16)">
       <use xlink:href="#STIXGeneral-Regular-32"/>
       <use xlink:href="#STIXGeneral-Regular-30" x="49.999985"/>
       <use xlink:href="#STIXGeneral-Regular-31" x="99.999969"/>
       <use xlink:href="#STIXGeneral-Regular-39" x="149.999954"/>
       <use xlink:href="#STIXGeneral-Regular-2d" x="199.999939"/>
       <use xlink:href="#STIXGeneral-Regular-30" x="233.299927"/>
       <use xlink:href="#STIXGeneral-Regular-34" x="283.299911"/>
      </g>
     </g>
    </g>
    <g id="xtick_11">
     <g id="line2d_11">
      <g>
       <use xlink:href="#m27f1519a86" x="488.102523" y="208.50375" style="fill: #323034; stroke: #323034; stroke-width: 0.8"/>
      </g>
     </g>
     <g id="text_11">
      <!-- 2019-07 -->
      <g style="fill: #323034" transform="translate(440.183304 251.630993) rotate(-30) scale(0.16 -0.16)">
       <use xlink:href="#STIXGeneral-Regular-32"/>
       <use xlink:href="#STIXGeneral-Regular-30" x="49.999985"/>
       <use xlink:href="#STIXGeneral-Regular-31" x="99.999969"/>
       <use xlink:href="#STIXGeneral-Regular-39" x="149.999954"/>
       <use xlink:href="#STIXGeneral-Regular-2d" x="199.999939"/>
       <use xlink:href="#STIXGeneral-Regular-30" x="233.299927"/>
       <use xlink:href="#STIXGeneral-Regular-37" x="283.299911"/>
      </g>
     </g>
    </g>
    <g id="text_12">
     <!-- Date -->
     <g transform="translate(255.76 268.565766) scale(0.16 -0.16)">
      <defs>
       <path id="STIXGeneral-Regular-44" d="M 102 4237 
L 1830 4237 
Q 3078 4237 3750 3654 
Q 4384 3110 4384 2138 
Q 4384 966 3514 410 
Q 2880 0 1901 0 
L 102 0 
L 102 122 
Q 474 147 570 252 
Q 666 358 666 736 
L 666 3520 
Q 666 3891 570 3990 
Q 474 4090 102 4115 
L 102 4237 
z
M 1318 3731 
L 1318 538 
Q 1318 365 1379 301 
Q 1440 237 1626 237 
Q 2125 237 2432 307 
Q 2739 378 3021 570 
Q 3686 1018 3686 2099 
Q 3686 3027 3078 3558 
Q 2803 3802 2476 3901 
Q 2150 4000 1658 4000 
Q 1472 4000 1395 3942 
Q 1318 3885 1318 3731 
z
" transform="scale(0.015625)"/>
       <path id="STIXGeneral-Regular-61" d="M 2829 422 
L 2829 243 
Q 2586 -64 2253 -64 
Q 1888 -64 1843 403 
L 1837 403 
Q 1427 -64 909 -64 
Q 608 -64 422 112 
Q 237 288 237 602 
Q 237 1050 685 1350 
Q 992 1555 1837 1869 
L 1837 2214 
Q 1837 2502 1699 2646 
Q 1562 2790 1338 2790 
Q 1146 2790 1018 2697 
Q 890 2605 890 2477 
Q 890 2419 909 2348 
Q 928 2278 928 2208 
Q 928 2112 841 2029 
Q 755 1946 634 1946 
Q 525 1946 441 2029 
Q 358 2112 358 2240 
Q 358 2547 685 2752 
Q 986 2944 1421 2944 
Q 1939 2944 2176 2656 
Q 2291 2522 2323 2384 
Q 2355 2246 2355 1946 
L 2355 723 
Q 2355 301 2554 301 
Q 2682 301 2829 422 
z
M 1837 813 
L 1837 1715 
Q 1248 1510 1018 1293 
Q 800 1094 800 800 
Q 800 557 921 432 
Q 1043 307 1242 307 
Q 1453 307 1613 410 
Q 1747 506 1792 589 
Q 1837 672 1837 813 
z
" transform="scale(0.015625)"/>
       <path id="STIXGeneral-Regular-74" d="M 1702 493 
L 1786 422 
Q 1478 -64 1011 -64 
Q 448 -64 448 749 
L 448 2675 
L 109 2675 
Q 83 2694 83 2720 
Q 83 2771 192 2842 
Q 435 2982 813 3526 
Q 826 3546 874 3606 
Q 922 3667 941 3706 
Q 986 3706 986 3622 
L 986 2880 
L 1632 2880 
L 1632 2675 
L 986 2675 
L 986 845 
Q 986 538 1062 403 
Q 1139 269 1318 269 
Q 1510 269 1702 493 
z
" transform="scale(0.015625)"/>
       <path id="STIXGeneral-Regular-65" d="M 2611 1050 
L 2714 1005 
Q 2330 -64 1376 -64 
Q 813 -64 486 329 
Q 160 723 160 1389 
Q 160 2074 525 2509 
Q 890 2944 1485 2944 
Q 2061 2944 2374 2502 
Q 2560 2246 2592 1773 
L 621 1773 
Q 646 1370 700 1158 
Q 755 947 915 730 
Q 1184 378 1626 378 
Q 1939 378 2153 531 
Q 2368 685 2611 1050 
z
M 634 1978 
L 1939 1978 
Q 1882 2381 1750 2547 
Q 1619 2714 1312 2714 
Q 1043 2714 864 2525 
Q 685 2336 634 1978 
z
" transform="scale(0.015625)"/>
      </defs>
      <use xlink:href="#STIXGeneral-Regular-44"/>
      <use xlink:href="#STIXGeneral-Regular-61" x="72.199982"/>
      <use xlink:href="#STIXGeneral-Regular-74" x="116.599976"/>
      <use xlink:href="#STIXGeneral-Regular-65" x="144.399963"/>
     </g>
    </g>
   </g>
   <g id="matplotlib.axis_2">
    <g id="ytick_1">
     <g id="line2d_12">
      <defs>
       <path id="m885a752a27" d="M 0 0 
L -3.5 0 
" style="stroke: #323034; stroke-width: 0.8"/>
      </defs>
      <g>
       <use xlink:href="#m885a752a27" x="47.665" y="208.50375" style="fill: #323034; stroke: #323034; stroke-width: 0.8"/>
      </g>
     </g>
     <g id="text_13">
      <!-- $\mathdefault{20}$ -->
      <g style="fill: #323034" transform="translate(24.665 213.9675) scale(0.16 -0.16)">
       <use xlink:href="#STIXGeneral-Regular-32" transform="translate(0 0.40625)"/>
       <use xlink:href="#STIXGeneral-Regular-30" transform="translate(49.999985 0.40625)"/>
      </g>
     </g>
    </g>
    <g id="ytick_2">
     <g id="line2d_13">
      <g>
       <use xlink:href="#m885a752a27" x="47.665" y="159.54375" style="fill: #323034; stroke: #323034; stroke-width: 0.8"/>
      </g>
     </g>
     <g id="text_14">
      <!-- $\mathdefault{30}$ -->
      <g style="fill: #323034" transform="translate(24.665 165.0075) scale(0.16 -0.16)">
       <defs>
        <path id="STIXGeneral-Regular-33" d="M 390 3264 
L 288 3290 
Q 435 3770 748 4048 
Q 1062 4326 1542 4326 
Q 1990 4326 2265 4083 
Q 2541 3840 2541 3450 
Q 2541 2925 1946 2566 
Q 2298 2413 2477 2227 
Q 2758 1914 2758 1402 
Q 2758 890 2464 506 
Q 2246 211 1840 60 
Q 1434 -90 979 -90 
Q 262 -90 262 275 
Q 262 378 339 442 
Q 416 506 525 506 
Q 685 506 915 339 
Q 1197 141 1466 141 
Q 1818 141 2058 425 
Q 2298 710 2298 1120 
Q 2298 1856 1632 2048 
Q 1434 2112 979 2112 
L 979 2202 
Q 1338 2323 1517 2432 
Q 2035 2726 2035 3290 
Q 2035 3610 1852 3776 
Q 1670 3942 1344 3942 
Q 768 3942 390 3264 
z
" transform="scale(0.015625)"/>
       </defs>
       <use xlink:href="#STIXGeneral-Regular-33" transform="translate(0 0.40625)"/>
       <use xlink:href="#STIXGeneral-Regular-30" transform="translate(49.999985 0.40625)"/>
      </g>
     </g>
    </g>
    <g id="ytick_3">
     <g id="line2d_14">
      <g>
       <use xlink:href="#m885a752a27" x="47.665" y="110.58375" style="fill: #323034; stroke: #323034; stroke-width: 0.8"/>
      </g>
     </g>
     <g id="text_15">
      <!-- $\mathdefault{40}$ -->
      <g style="fill: #323034" transform="translate(24.665 116.0475) scale(0.16 -0.16)">
       <use xlink:href="#STIXGeneral-Regular-34" transform="translate(0 0.40625)"/>
       <use xlink:href="#STIXGeneral-Regular-30" transform="translate(49.999985 0.40625)"/>
      </g>
     </g>
    </g>
    <g id="ytick_4">
     <g id="line2d_15">
      <g>
       <use xlink:href="#m885a752a27" x="47.665" y="61.62375" style="fill: #323034; stroke: #323034; stroke-width: 0.8"/>
      </g>
     </g>
     <g id="text_16">
      <!-- $\mathdefault{50}$ -->
      <g style="fill: #323034" transform="translate(24.665 67.0875) scale(0.16 -0.16)">
       <defs>
        <path id="STIXGeneral-Regular-35" d="M 2803 4358 
L 2573 3814 
Q 2534 3731 2400 3731 
L 1158 3731 
L 902 3187 
Q 1606 3053 1920 2896 
Q 2234 2739 2502 2368 
Q 2726 2061 2726 1555 
Q 2726 1094 2576 780 
Q 2426 467 2099 224 
Q 1664 -90 1011 -90 
Q 646 -90 422 19 
Q 198 128 198 307 
Q 198 550 486 550 
Q 717 550 960 352 
Q 1210 147 1414 147 
Q 1747 147 2012 480 
Q 2278 813 2278 1229 
Q 2278 1843 1850 2189 
Q 1293 2637 486 2637 
Q 410 2637 410 2688 
L 416 2720 
L 1114 4237 
L 2438 4237 
Q 2547 4237 2608 4269 
Q 2669 4301 2746 4403 
L 2803 4358 
z
" transform="scale(0.015625)"/>
       </defs>
       <use xlink:href="#STIXGeneral-Regular-35" transform="translate(0 0.203125)"/>
       <use xlink:href="#STIXGeneral-Regular-30" transform="translate(49.999985 0.203125)"/>
      </g>
     </g>
    </g>
    <g id="ytick_5">
     <g id="line2d_16">
      <g>
       <use xlink:href="#m885a752a27" x="47.665" y="12.66375" style="fill: #323034; stroke: #323034; stroke-width: 0.8"/>
      </g>
     </g>
     <g id="text_17">
      <!-- $\mathdefault{60}$ -->
      <g style="fill: #323034" transform="translate(24.665 18.1275) scale(0.16 -0.16)">
       <defs>
        <path id="STIXGeneral-Regular-36" d="M 2854 4378 
L 2867 4275 
Q 2112 4154 1606 3664 
Q 1101 3174 973 2451 
Q 1344 2739 1786 2739 
Q 2349 2739 2672 2380 
Q 2995 2022 2995 1402 
Q 2995 774 2669 378 
Q 2291 -90 1651 -90 
Q 870 -90 518 557 
Q 218 1107 218 1786 
Q 218 2835 915 3552 
Q 1312 3962 1731 4131 
Q 2150 4301 2854 4378 
z
M 2419 1203 
Q 2419 2445 1555 2445 
Q 1235 2445 1024 2275 
Q 813 2106 813 1702 
Q 813 954 1046 522 
Q 1280 90 1722 90 
Q 2061 90 2240 394 
Q 2419 698 2419 1203 
z
" transform="scale(0.015625)"/>
       </defs>
       <use xlink:href="#STIXGeneral-Regular-36" transform="translate(0 0.59375)"/>
       <use xlink:href="#STIXGeneral-Regular-30" transform="translate(49.999985 0.59375)"/>
      </g>
     </g>
    </g>
    <g id="text_18">
     <!-- Close ($) -->
     <g transform="translate(18.1925 140.13625) rotate(-90) scale(0.16 -0.16)">
      <defs>
       <path id="STIXGeneral-Regular-43" d="M 3930 838 
L 4051 723 
Q 3482 -90 2304 -90 
Q 1376 -90 794 480 
Q 179 1082 179 2080 
Q 179 3014 755 3661 
Q 1357 4326 2310 4326 
Q 2720 4326 3072 4230 
Q 3475 4115 3514 4115 
Q 3725 4115 3782 4326 
L 3910 4326 
L 3968 2874 
L 3821 2874 
Q 3718 3334 3488 3584 
Q 3034 4070 2458 4070 
Q 1747 4070 1334 3548 
Q 922 3027 922 2182 
Q 922 1152 1382 653 
Q 1811 192 2522 192 
Q 2944 192 3251 339 
Q 3558 486 3930 838 
z
" transform="scale(0.015625)"/>
       <path id="STIXGeneral-Regular-6c" d="M 1645 0 
L 134 0 
L 134 96 
Q 435 122 531 221 
Q 627 320 627 589 
L 627 3590 
Q 627 3821 569 3910 
Q 512 4000 358 4000 
Q 224 4000 122 3987 
L 122 4090 
Q 730 4237 1133 4371 
L 1165 4346 
L 1165 557 
Q 1165 288 1254 201 
Q 1344 115 1645 96 
L 1645 0 
z
" transform="scale(0.015625)"/>
       <path id="STIXGeneral-Regular-6f" d="M 3008 1478 
Q 3008 806 2608 371 
Q 2208 -64 1568 -64 
Q 979 -64 582 368 
Q 186 800 186 1459 
Q 186 2125 582 2534 
Q 979 2944 1626 2944 
Q 2221 2944 2614 2537 
Q 3008 2131 3008 1478 
z
M 2432 1306 
Q 2432 2035 2112 2445 
Q 1856 2765 1504 2765 
Q 1171 2765 966 2493 
Q 762 2221 762 1747 
Q 762 928 1101 435 
Q 1318 115 1677 115 
Q 2029 115 2230 432 
Q 2432 749 2432 1306 
z
" transform="scale(0.015625)"/>
       <path id="STIXGeneral-Regular-73" d="M 998 1926 
L 1664 1523 
Q 1984 1331 2105 1164 
Q 2227 998 2227 736 
Q 2227 416 1961 176 
Q 1696 -64 1331 -64 
Q 1030 -64 864 -6 
Q 691 51 570 51 
Q 461 51 416 -26 
L 333 -26 
L 333 979 
L 435 979 
Q 538 512 730 294 
Q 922 77 1248 77 
Q 1485 77 1632 211 
Q 1779 346 1779 550 
Q 1779 845 1440 1030 
L 1094 1222 
Q 326 1651 326 2150 
Q 326 2522 566 2730 
Q 806 2938 1210 2938 
Q 1491 2938 1638 2867 
Q 1754 2816 1818 2816 
Q 1862 2816 1920 2880 
L 1990 2880 
L 2022 2010 
L 1926 2010 
Q 1818 2445 1654 2621 
Q 1491 2797 1203 2797 
Q 986 2797 854 2688 
Q 723 2579 723 2362 
Q 723 2253 796 2128 
Q 870 2003 998 1926 
z
" transform="scale(0.015625)"/>
       <path id="STIXGeneral-Regular-20" transform="scale(0.015625)"/>
       <path id="STIXGeneral-Regular-28" d="M 1946 -1030 
L 1869 -1133 
Q 1126 -710 716 32 
Q 307 774 307 1613 
Q 307 3386 1888 4326 
L 1946 4224 
Q 1293 3667 1075 3126 
Q 858 2586 858 1632 
Q 858 685 1082 96 
Q 1306 -493 1946 -1030 
z
" transform="scale(0.015625)"/>
       <path id="STIXGeneral-Regular-24" d="M 1690 4077 
L 1690 2502 
Q 2234 2208 2445 2045 
Q 2656 1882 2797 1664 
Q 2931 1466 2931 1088 
Q 2931 570 2614 326 
Q 2298 83 1690 0 
L 1690 -557 
L 1472 -557 
L 1472 0 
Q 1062 0 806 73 
Q 550 147 282 326 
L 282 1158 
L 378 1158 
Q 480 685 761 432 
Q 1043 179 1472 179 
L 1472 1984 
Q 800 2362 566 2624 
Q 333 2886 333 3283 
Q 333 3731 659 3974 
Q 986 4218 1472 4250 
L 1472 4653 
L 1690 4653 
L 1690 4250 
Q 2426 4205 2720 3910 
L 2720 3200 
L 2624 3200 
Q 2528 3597 2301 3814 
Q 2074 4032 1690 4077 
z
M 1472 2605 
L 1472 4077 
Q 806 3942 806 3405 
Q 806 3194 937 3037 
Q 1069 2880 1472 2605 
z
M 1690 1875 
L 1690 179 
Q 2086 262 2252 432 
Q 2419 602 2419 941 
Q 2419 1235 2272 1427 
Q 2125 1619 1690 1875 
z
" transform="scale(0.015625)"/>
       <path id="STIXGeneral-Regular-29" d="M 186 4224 
L 262 4326 
Q 992 3891 1408 3148 
Q 1824 2406 1824 1581 
Q 1824 -166 243 -1133 
L 186 -1030 
Q 845 -486 1059 54 
Q 1274 595 1274 1562 
Q 1274 2534 1059 3120 
Q 845 3706 186 4224 
z
" transform="scale(0.015625)"/>
      </defs>
      <use xlink:href="#STIXGeneral-Regular-43"/>
      <use xlink:href="#STIXGeneral-Regular-6c" x="66.699997"/>
      <use xlink:href="#STIXGeneral-Regular-6f" x="94.499985"/>
      <use xlink:href="#STIXGeneral-Regular-73" x="144.499969"/>
      <use xlink:href="#STIXGeneral-Regular-65" x="183.399963"/>
      <use xlink:href="#STIXGeneral-Regular-20" x="227.799957"/>
      <use xlink:href="#STIXGeneral-Regular-28" x="252.799942"/>
      <use xlink:href="#STIXGeneral-Regular-24" x="286.09993"/>
      <use xlink:href="#STIXGeneral-Regular-29" x="336.099915"/>
     </g>
    </g>
   </g>
   <g id="line2d_17">
    <path d="M 67.955909 174.609232 
L 68.418117 174.754153 
L 68.880324 174.07263 
L 69.342532 172.621945 
L 70.729154 171.397945 
L 71.191362 171.253513 
L 71.653569 170.527926 
L 72.115777 171.079216 
L 72.577984 171.335766 
L 74.426814 170.248364 
L 74.889022 170.257667 
L 75.351229 170.489248 
L 75.813437 170.248364 
L 77.200059 170.141142 
L 77.662267 170.287043 
L 78.124474 168.110281 
L 79.048889 168.033414 
L 80.435511 168.415302 
L 80.897719 168.705635 
L 81.359926 160.324662 
L 81.822134 160.54694 
L 82.284341 159.966764 
L 83.670964 158.54056 
L 84.133171 157.176534 
L 84.595379 156.615452 
L 85.057586 155.479091 
L 85.519794 155.832092 
L 86.906416 154.48814 
L 87.368624 152.544918 
L 87.830831 151.973065 
L 88.293039 152.153728 
L 88.755246 151.727286 
L 90.604076 150.610019 
L 91.066284 150.144409 
L 91.528491 150.846496 
L 91.990699 150.654083 
L 93.839529 150.291289 
L 94.301736 147.084899 
L 94.763944 148.061651 
L 95.226151 147.094691 
L 96.612774 147.616604 
L 97.074981 147.404118 
L 97.537189 148.012691 
L 97.999396 148.38087 
L 98.461604 147.848675 
L 99.848226 147.772297 
L 100.310434 148.027379 
L 100.772641 146.32504 
L 101.234849 146.074364 
L 101.697056 146.877308 
L 103.083679 145.193084 
L 103.545886 147.036428 
L 104.008094 145.242044 
L 104.470301 145.818304 
L 104.932509 146.122835 
L 106.319131 145.867264 
L 106.781339 142.52966 
L 107.243546 142.176659 
L 108.167961 142.699552 
L 109.554584 142.650592 
L 110.016791 141.422185 
L 110.478999 142.27311 
L 111.403414 143.071158 
L 112.790036 143.26504 
L 113.252244 145.01536 
L 113.714451 144.807769 
L 114.176659 145.6631 
L 116.025489 144.773497 
L 116.949904 146.088563 
L 117.412111 144.07239 
L 117.874319 144.25648 
L 119.260941 142.723542 
L 119.723149 141.692934 
L 120.185356 142.675072 
L 120.647564 142.543859 
L 121.109771 142.709344 
L 122.958601 138.287766 
L 123.883016 139.420211 
L 124.345224 136.645648 
L 125.731846 132.036064 
L 126.194054 130.900681 
L 126.656261 131.760419 
L 127.118469 130.251961 
L 127.580676 127.775564 
L 129.429506 128.491849 
L 129.891714 134.473292 
L 130.353921 131.843161 
L 130.816129 131.258089 
L 132.202751 130.20398 
L 132.664959 130.382684 
L 133.127166 130.924672 
L 133.589374 130.309734 
L 134.051581 130.609859 
L 135.900411 130.538377 
L 136.362619 131.615497 
L 136.824826 131.117574 
L 137.287034 128.506048 
L 138.673656 130.261264 
L 139.135864 129.672275 
L 139.598071 128.602988 
L 140.060279 129.052441 
L 140.522486 135.938665 
L 141.909109 140.009689 
L 142.371316 138.631465 
L 142.833524 140.31471 
L 143.295731 141.277753 
L 143.757938 143.608249 
L 145.144561 138.936486 
L 145.606768 140.474809 
L 146.068976 139.483859 
L 146.531183 139.753628 
L 146.993391 139.008947 
L 148.380013 139.542611 
L 148.842221 141.935286 
L 149.304428 139.532819 
L 149.766636 141.998444 
L 150.228843 141.596972 
L 151.615466 142.205545 
L 152.539881 141.518636 
L 153.002088 143.090742 
L 153.464296 141.407497 
L 154.850918 140.411161 
L 155.313126 139.875539 
L 155.775333 139.632697 
L 156.237541 137.317379 
L 156.699748 135.861308 
L 158.086371 135.252246 
L 158.548578 134.661788 
L 159.010786 133.583689 
L 159.472993 134.372435 
L 159.935201 134.458604 
L 162.246238 130.778771 
L 162.708446 134.120291 
L 163.170653 135.315404 
L 164.557276 136.228998 
L 165.019483 134.700956 
L 165.481691 126.596608 
L 165.943898 128.386096 
L 167.792728 124.657302 
L 168.717143 122.094246 
L 169.179351 127.969446 
L 169.641558 125.48032 
L 171.028181 122.780665 
L 171.490388 120.774774 
L 171.952596 121.503788 
L 172.414803 125.044086 
L 172.877011 125.460736 
L 174.263633 125.808841 
L 174.725841 122.863897 
L 175.188048 122.622035 
L 175.650256 123.438688 
L 177.499086 120.928508 
L 177.961293 119.221763 
L 178.423501 118.72384 
L 178.885708 118.012451 
L 179.347916 117.96496 
L 181.196746 120.217609 
L 181.658953 120.41198 
L 182.121161 121.141484 
L 182.583368 124.139305 
L 183.969991 120.890809 
L 184.432198 121.611011 
L 185.356613 124.550569 
L 185.818821 122.741497 
L 187.205443 124.090835 
L 187.667651 124.043833 
L 188.592066 130.20398 
L 189.054273 131.90632 
L 190.440896 133.439257 
L 190.903103 130.450249 
L 191.365311 129.231635 
L 191.827518 130.309734 
L 192.289726 129.362848 
L 193.676348 129.719766 
L 194.138556 128.95648 
L 194.600763 130.111936 
L 195.062971 127.887193 
L 195.525178 127.998822 
L 196.911801 127.355488 
L 197.374008 127.283516 
L 197.836216 126.572128 
L 198.298423 127.18119 
L 200.147253 122.741497 
L 200.609461 122.046265 
L 201.071668 122.887888 
L 201.533876 127.190982 
L 201.996083 126.930025 
L 203.382706 127.002976 
L 203.844913 125.943481 
L 204.307121 126.736144 
L 204.769328 125.566979 
L 205.231536 119.052851 
L 206.618158 114.879011 
L 207.080366 112.190617 
L 207.542573 114.700796 
L 208.00478 113.269696 
L 208.466988 108.24542 
L 210.315818 105.59032 
L 210.778025 103.932044 
L 211.240233 104.342819 
L 211.70244 105.029728 
L 213.089063 105.812108 
L 214.013478 111.475312 
L 214.475685 109.11544 
L 214.937893 110.233196 
L 216.324515 110.439808 
L 216.786723 106.775641 
L 217.24893 104.69582 
L 218.173345 104.681622 
L 219.559968 105.696563 
L 220.022175 106.852019 
L 220.484383 110.996972 
L 220.94659 108.283609 
L 221.408798 109.178598 
L 222.79542 110.624876 
L 223.257628 110.802601 
L 223.719835 111.509094 
L 224.182043 111.189875 
L 224.64425 111.127206 
L 226.030873 107.326441 
L 226.49308 108.462803 
L 226.955288 107.786176 
L 227.417495 107.848355 
L 227.879703 105.812108 
L 229.266325 102.993481 
L 229.728533 105.193744 
L 230.19074 105.387625 
L 230.652948 104.632662 
L 231.115155 104.632662 
L 232.963985 109.753388 
L 233.426193 109.719606 
L 233.8884 109.144326 
L 234.350608 111.296118 
L 236.199438 107.800374 
L 236.661645 107.834156 
L 237.123853 106.895104 
L 237.58606 104.64735 
L 238.972683 105.338665 
L 239.897098 105.464003 
L 240.359305 104.309036 
L 240.821513 102.258592 
L 242.670343 103.259824 
L 243.13255 99.908512 
L 243.594758 99.720016 
L 244.056965 100.638505 
L 245.443588 102.334969 
L 245.905795 102.292374 
L 246.83021 109.105648 
L 247.292418 108.670393 
L 249.141248 113.897363 
L 250.065663 112.974467 
L 250.52787 121.359846 
L 251.914493 126.001254 
L 252.3767 118.438403 
L 253.301115 127.514608 
L 253.763323 125.323648 
L 256.07436 112.644966 
L 256.536568 106.132796 
L 256.998775 106.78984 
L 258.847605 107.466467 
L 259.309813 108.379571 
L 259.77202 106.707587 
L 260.234228 103.221145 
L 261.62085 99.216707 
L 262.083058 99.879136 
L 262.545265 100.17926 
L 263.007473 103.805728 
L 263.46968 102.418201 
L 264.856303 101.731292 
L 265.31851 101.909996 
L 265.780718 103.771945 
L 266.242925 101.586371 
L 266.705133 98.056844 
L 268.091755 96.044099 
L 269.01617 99.826259 
L 269.478378 99.583907 
L 269.940585 100.300192 
L 271.327207 103.462518 
L 271.789415 103.52078 
L 272.251622 108.148969 
L 272.71383 110.924022 
L 273.176037 115.440582 
L 274.56266 106.393753 
L 275.024867 111.53847 
L 275.487075 113.676064 
L 275.949282 112.157324 
L 277.798112 113.4484 
L 278.26032 111.475312 
L 278.722527 107.742601 
L 279.184735 106.359481 
L 279.646942 111.49 
L 281.033565 109.550694 
L 281.495772 105.826307 
L 281.95798 106.775641 
L 282.420187 104.826544 
L 282.882395 104.115155 
L 284.269017 102.863248 
L 284.731225 100.048537 
L 285.193432 100.517574 
L 285.65564 106.359481 
L 286.117847 114.565177 
L 287.50447 115.101779 
L 287.966677 117.809756 
L 288.891092 116.291507 
L 289.3533 118.486873 
L 290.739922 115.082195 
L 291.20213 110.634668 
L 291.664337 102.021136 
L 292.126545 101.644144 
L 292.588752 93.578473 
L 293.975375 92.055817 
L 294.437582 91.011011 
L 294.89979 89.517241 
L 295.361997 86.416604 
L 295.824205 87.239622 
L 297.210827 87.75615 
L 297.673035 89.753718 
L 298.135242 87.717472 
L 298.59745 89.100592 
L 299.059657 89.894723 
L 300.44628 88.351993 
L 300.908487 88.893001 
L 301.370695 87.504985 
L 301.832902 87.75615 
L 302.29511 87.249414 
L 304.14394 88.056275 
L 304.606147 88.505728 
L 305.068355 89.246003 
L 305.530562 85.319411 
L 306.917185 83.467744 
L 307.379392 81.760019 
L 307.8416 80.972252 
L 308.303807 81.581315 
L 308.766015 83.612665 
L 310.152637 84.173257 
L 310.614845 82.978633 
L 311.077052 84.773017 
L 311.53926 84.656492 
L 312.001467 86.944393 
L 313.38809 87.055043 
L 313.850297 90.614435 
L 314.312505 89.680278 
L 314.774712 90.866089 
L 315.23692 91.500121 
L 316.623542 94.705043 
L 317.08575 92.079318 
L 317.547957 92.403923 
L 318.010165 90.822025 
L 318.472372 91.28176 
L 319.858995 88.868521 
L 320.321202 92.679078 
L 321.245617 90.933164 
L 321.707825 87.969616 
L 323.094447 84.917939 
L 323.556655 85.194073 
L 324.018862 88.080755 
L 324.48107 84.376441 
L 324.943277 84.04792 
L 326.3299 84.521363 
L 326.792107 83.902019 
L 327.254315 85.135811 
L 327.716522 83.409481 
L 328.17873 83.916707 
L 329.565352 83.709606 
L 330.02756 82.122812 
L 330.489767 80.010188 
L 330.951975 80.697097 
L 331.414182 84.4396 
L 332.800805 85.71158 
L 333.263012 85.270451 
L 333.72522 72.220163 
L 334.187427 65.386816 
L 334.649634 64.690115 
L 336.036257 63.428416 
L 336.498464 65.725129 
L 336.960672 65.561113 
L 337.422879 63.6551 
L 337.885087 64.370896 
L 339.271709 62.843833 
L 339.733917 61.784828 
L 340.196124 61.223747 
L 340.658332 57.635468 
L 341.120539 52.674352 
L 342.507162 55.140956 
L 342.969369 55.623212 
L 343.431577 55.61342 
L 343.893784 55.107174 
L 344.355992 54.313043 
L 345.742614 52.253785 
L 346.204822 50.193059 
L 346.667029 46.377116 
L 347.129237 43.980035 
L 347.591444 40.943046 
L 349.440274 40.067152 
L 349.902482 41.828243 
L 350.364689 46.233174 
L 350.826897 48.312016 
L 352.213519 51.783769 
L 352.675727 45.333289 
L 353.137934 48.578358 
L 353.600142 42.368761 
L 354.062349 45.347977 
L 355.448972 52.32135 
L 355.911179 51.891481 
L 356.373387 51.735299 
L 356.835594 49.821452 
L 357.297802 52.577411 
L 358.684424 48.917161 
L 359.146632 47.291689 
L 359.608839 49.351926 
L 360.071047 44.062288 
L 360.533254 43.137923 
L 361.919877 41.383196 
L 362.382084 39.017939 
L 362.844292 35.754265 
L 363.768707 44.801584 
L 365.155329 45.43072 
L 365.617537 41.828243 
L 366.079744 54.081952 
L 366.541952 56.32432 
L 367.004159 47.38863 
L 368.390782 52.915724 
L 368.852989 47.34016 
L 369.315197 48.433436 
L 369.777404 54.473142 
L 370.239612 50.638105 
L 371.626234 49.085584 
L 372.088442 46.667939 
L 372.550649 55.56544 
L 373.012857 50.082409 
L 373.475064 54.143641 
L 374.861687 58.873667 
L 375.323894 57.650156 
L 375.786102 51.160019 
L 376.248309 47.253011 
L 376.710517 64.424752 
L 378.097139 71.295798 
L 378.559347 68.777296 
L 379.021554 61.566467 
L 379.483762 62.418371 
L 379.945969 67.10727 
L 381.332592 79.168076 
L 381.794799 81.436393 
L 382.257007 87.80511 
L 382.719214 82.422937 
L 383.181422 79.927936 
L 384.568044 88.893001 
L 385.030252 99.288678 
L 385.492459 99.512425 
L 386.416874 104.792761 
L 387.803497 102.079398 
L 388.265704 102.500454 
L 388.727912 94.656572 
L 389.190119 96.292326 
L 389.652327 97.423302 
L 391.038949 90.116022 
L 391.501157 99.608387 
L 392.425572 101.958467 
L 392.887779 109.227068 
L 394.274402 107.930608 
L 394.736609 109.057177 
L 395.198817 108.511763 
L 395.661024 106.344793 
L 396.123232 112.752188 
L 397.509854 114.555385 
L 397.972062 112.051571 
L 399.358684 130.024297 
L 400.745306 134.570233 
L 401.669721 122.48152 
L 402.131929 123.68055 
L 402.594136 123.583609 
L 403.980759 121.803913 
L 404.905174 121.601219 
L 405.367381 140.009689 
L 405.829589 132.910979 
L 407.216211 133.308044 
L 408.140626 127.002976 
L 408.602834 126.427206 
L 409.065041 128.181932 
L 410.451664 130.851721 
L 410.913871 127.259036 
L 411.376079 125.073462 
L 412.300494 122.89768 
L 414.149324 127.012768 
L 414.611531 126.301868 
L 415.073739 127.708489 
L 415.535946 121.779923 
L 416.922569 123.501356 
L 417.384776 125.3824 
L 417.846984 113.03175 
L 418.309191 111.620233 
L 418.771399 111.53847 
L 420.158021 105.987385 
L 420.620229 102.573404 
L 421.082436 102.500454 
L 421.544644 106.359481 
L 422.006851 106.118108 
L 423.393474 107.282377 
L 423.855681 105.566329 
L 424.317889 106.393753 
L 424.780096 105.668656 
L 425.242304 106.10342 
L 427.091134 105.522265 
L 427.553341 104.212585 
L 428.015549 105.368041 
L 428.477756 103.119308 
L 429.864379 101.644144 
L 430.326586 101.523212 
L 430.788794 100.885264 
L 431.251001 102.89703 
L 431.713209 100.768249 
L 433.099831 99.720016 
L 433.562039 100.097008 
L 434.024246 101.30632 
L 434.486454 103.660806 
L 434.948661 103.186873 
L 436.797491 93.772355 
L 437.259699 92.843094 
L 438.184114 87.660188 
L 439.570736 85.425654 
L 440.032944 87.18087 
L 440.495151 85.255763 
L 440.957359 77.132809 
L 441.419566 81.872627 
L 442.806189 84.560041 
L 443.268396 86.867036 
L 443.730604 84.883667 
L 444.192811 84.584032 
L 444.655019 83.167619 
L 446.041641 81.639088 
L 446.503849 78.365622 
L 446.966056 76.818976 
L 447.428264 76.427296 
L 447.890471 74.868899 
L 449.277094 71.208649 
L 449.739301 71.92934 
L 450.201509 70.623088 
L 450.663716 72.582956 
L 451.125924 72.679408 
L 452.512546 72.244153 
L 452.974754 72.220163 
L 453.436961 67.669331 
L 453.899169 66.817427 
L 455.747999 66.025254 
L 456.210206 62.562803 
L 456.672414 62.939795 
L 457.134621 65.134672 
L 457.596829 66.2867 
L 458.983451 65.929292 
L 459.445659 70.561398 
L 459.907866 58.970118 
L 460.370074 60.590204 
L 460.832281 57.538038 
L 462.218903 61.392659 
L 462.681111 67.978268 
L 463.143318 67.944976 
L 463.605526 70.49824 
L 464.067733 73.766809 
L 465.454356 87.287603 
L 466.378771 81.151446 
L 467.303186 83.419273 
L 468.689808 90.397052 
L 469.152016 86.26238 
L 470.076431 94.43968 
L 470.538638 95.261228 
L 472.387468 96.126352 
L 472.849676 97.13248 
L 473.311883 96.044099 
L 473.774091 99.850249 
L 473.774091 99.850249 
" clip-path="url(#p52073c4876)" style="fill: none; stroke: #bc80bd; stroke-opacity: 0.5; stroke-width: 3; stroke-linecap: square"/>
   </g>
   <g id="line2d_18">
    <path d="M 67.955909 174.609232 
L 68.418117 174.681692 
L 68.880324 174.478672 
L 69.342532 174.01449 
L 70.729154 173.491181 
L 71.653569 172.748192 
L 72.577984 172.405814 
L 74.426814 172.190069 
L 75.813437 171.761228 
L 77.662267 171.554944 
L 79.048889 170.973081 
L 80.897719 170.73182 
L 82.284341 169.368468 
L 83.670964 168.917305 
L 85.519794 167.111375 
L 86.906416 166.676091 
L 88.755246 164.909262 
L 90.604076 164.488696 
L 91.990699 163.358396 
L 93.377321 163.016328 
L 95.226151 161.598881 
L 96.612774 161.273712 
L 98.461604 160.13651 
L 99.848226 159.878922 
L 101.697056 158.874853 
L 103.083679 158.616706 
L 104.932509 157.735176 
L 106.319131 157.530557 
L 108.167961 156.557474 
L 109.554584 156.33673 
L 111.403414 155.502687 
L 113.252244 155.173339 
L 114.176659 154.893398 
L 116.487696 154.626006 
L 117.874319 154.238367 
L 119.723149 153.929902 
L 121.109771 153.51186 
L 122.496394 153.33924 
L 124.345224 152.639109 
L 125.731846 152.402292 
L 127.580676 151.425144 
L 128.967299 151.173133 
L 130.353921 150.555122 
L 130.816129 150.354111 
L 132.202751 150.146378 
L 134.051581 149.37055 
L 135.900411 149.185921 
L 137.287034 148.649553 
L 138.673656 148.476079 
L 140.522486 147.833916 
L 142.833524 147.616695 
L 143.757938 147.526718 
L 146.068976 147.325998 
L 146.993391 147.193586 
L 154.850918 146.742077 
L 161.784031 145.854444 
L 163.170653 145.595077 
L 165.019483 145.456308 
L 166.406106 145.094169 
L 168.254936 144.814228 
L 169.641558 144.431769 
L 171.490388 144.141333 
L 172.877011 143.761362 
L 174.725841 143.520057 
L 176.112463 143.143634 
L 177.961293 142.8657 
L 179.347916 142.428446 
L 181.658953 142.169807 
L 182.583368 141.944034 
L 184.432198 141.707541 
L 185.818821 141.399628 
L 188.129858 141.129128 
L 189.054273 141.01903 
L 191.365311 140.858084 
L 195.525178 140.434977 
L 197.836216 140.230416 
L 201.996083 139.705484 
L 204.307121 139.514057 
L 208.00478 138.865829 
L 208.466988 138.722071 
L 210.315818 138.416768 
L 211.70244 137.949127 
L 213.55127 137.670825 
L 214.937893 137.302267 
L 216.786723 137.047204 
L 217.24893 136.904057 
L 220.94659 136.263323 
L 221.408798 136.146578 
L 223.257628 135.929204 
L 224.64425 135.61713 
L 226.49308 135.385143 
L 227.879703 135.035106 
L 229.728533 134.781488 
L 231.115155 134.418364 
L 233.426193 134.220116 
L 234.350608 134.028882 
L 236.661645 133.821675 
L 237.58606 133.601672 
L 239.43489 133.382027 
L 240.821513 133.043126 
L 243.13255 132.802981 
L 244.056965 132.555831 
L 245.905795 132.328447 
L 247.292418 132.054608 
L 249.603455 131.84816 
L 250.52787 131.740999 
L 253.763323 131.601532 
L 256.07436 131.431489 
L 256.998775 131.255643 
L 259.309813 131.092478 
L 260.234228 130.911032 
L 262.083058 130.694735 
L 263.46968 130.402309 
L 265.31851 130.208535 
L 266.705133 129.915882 
L 268.553963 129.696812 
L 269.940585 129.401828 
L 272.251622 129.163027 
L 273.176037 129.059256 
L 278.722527 128.656136 
L 279.646942 128.531647 
L 281.95798 128.33339 
L 282.882395 128.185176 
L 284.731225 128.02018 
L 286.117847 127.828687 
L 291.20213 127.5759 
L 302.29511 125.675605 
L 304.606147 125.464336 
L 305.530562 125.249832 
L 307.379392 125.011642 
L 308.766015 124.654665 
L 310.614845 124.428336 
L 312.001467 124.108907 
L 313.850297 123.9172 
L 315.23692 123.648453 
L 317.08575 123.486221 
L 318.472372 123.231032 
L 321.245617 122.974535 
L 321.707825 122.882417 
L 323.556655 122.684373 
L 324.943277 122.394638 
L 326.792107 122.19731 
L 328.17873 121.904669 
L 330.02756 121.705748 
L 331.414182 121.402026 
L 333.263012 121.221114 
L 334.649634 120.817698 
L 336.498464 120.537893 
L 337.885087 120.123012 
L 339.733917 119.83894 
L 341.120539 119.380445 
L 342.969369 119.069773 
L 344.355992 118.606699 
L 346.204822 118.283518 
L 347.591444 117.751255 
L 349.440274 117.566732 
L 350.826897 117.056528 
L 352.213519 116.902945 
L 354.062349 116.236317 
L 355.911179 115.93873 
L 357.297802 115.492458 
L 359.146632 115.183339 
L 360.533254 114.707262 
L 361.919877 114.540616 
L 363.768707 113.869263 
L 365.617537 113.554286 
L 367.004159 113.147008 
L 368.852989 112.867544 
L 370.239612 112.459927 
L 372.088442 112.176668 
L 373.475064 111.791617 
L 375.323894 111.559384 
L 376.710517 111.189038 
L 378.559347 111.012418 
L 379.945969 110.709763 
L 382.719214 110.472963 
L 383.181422 110.408522 
L 396.123232 110.090619 
L 399.358684 110.185589 
L 408.602834 110.608306 
L 412.300494 110.792041 
L 423.855681 110.889201 
L 437.259699 110.557177 
L 453.436961 109.1933 
L 453.899169 109.119859 
L 456.210206 108.96502 
L 457.596829 108.737298 
L 459.907866 108.513792 
L 460.832281 108.34531 
L 463.143318 108.128835 
L 464.067733 108.007226 
L 466.840978 107.84343 
L 469.614223 107.709228 
L 473.774091 107.598005 
L 473.774091 107.598005 
" clip-path="url(#p52073c4876)" style="fill: none; stroke-dasharray: 3,4.95; stroke-dashoffset: 0; stroke: #fb8072; stroke-width: 3"/>
   </g>
   <g id="line2d_19">
    <path d="M 67.955909 174.609232 
L 68.418117 174.682796 
L 68.880324 174.473182 
L 69.342532 173.989018 
L 70.729154 173.438764 
L 71.653569 172.652813 
L 72.577984 172.297041 
L 74.426814 172.062974 
L 75.813437 171.600575 
L 77.662267 171.377328 
L 79.048889 170.691552 
L 80.897719 170.415763 
L 82.284341 168.657761 
L 83.670964 168.072481 
L 85.519794 165.710337 
L 86.906416 165.1364 
L 88.755246 162.77621 
L 90.604076 162.210333 
L 91.990699 160.70446 
L 93.377321 160.251882 
L 94.301736 159.279463 
L 95.226151 158.320727 
L 96.612774 157.880899 
L 97.999396 156.729357 
L 98.461604 156.379296 
L 99.848226 156.043189 
L 101.697056 154.710995 
L 103.083679 154.354509 
L 104.932509 153.197755 
L 106.319131 152.932508 
L 108.167961 151.515804 
L 109.554584 151.204101 
L 110.941206 150.290597 
L 111.403414 150.041671 
L 113.252244 149.645215 
L 114.176659 149.351158 
L 116.487696 149.072013 
L 117.412111 148.808358 
L 117.874319 148.656835 
L 119.260941 148.459974 
L 120.647564 147.871694 
L 121.109771 147.70247 
L 122.496394 147.429661 
L 124.345224 146.296398 
L 125.731846 145.836064 
L 127.580676 143.914298 
L 128.967299 143.413702 
L 129.429506 142.938053 
L 130.353921 142.32493 
L 130.816129 141.974079 
L 132.202751 141.601567 
L 134.051581 140.273409 
L 135.900411 139.967679 
L 137.287034 139.094895 
L 138.673656 138.818956 
L 140.060279 137.938669 
L 140.522486 137.876489 
L 142.833524 138.036955 
L 143.757938 138.306518 
L 146.068976 138.426001 
L 146.993391 138.483614 
L 148.842221 138.621331 
L 149.766636 138.752164 
L 150.228843 138.839446 
L 153.002088 139.146181 
L 153.464296 139.215381 
L 156.237541 139.222076 
L 156.699748 139.119522 
L 158.548578 138.869277 
L 159.935201 138.450837 
L 161.321823 138.265526 
L 162.708446 137.729124 
L 163.170653 137.6558 
L 165.019483 137.524092 
L 166.406106 136.637348 
L 167.792728 136.27418 
L 169.179351 135.235218 
L 169.641558 134.939859 
L 171.028181 134.571806 
L 171.952596 133.771567 
L 172.877011 133.264274 
L 174.263633 133.038887 
L 176.112463 131.870797 
L 177.499086 131.540358 
L 179.347916 130.031606 
L 181.196746 129.735517 
L 182.121161 129.203558 
L 182.583368 129.050845 
L 183.969991 128.804815 
L 184.894406 128.420186 
L 185.818821 128.135963 
L 188.592066 127.940941 
L 189.054273 128.060355 
L 192.289726 128.407373 
L 196.911801 128.444409 
L 198.760631 128.251431 
L 200.147253 128.085746 
L 201.071668 127.753333 
L 204.769328 127.549785 
L 205.231536 127.294424 
L 206.618158 126.921321 
L 208.466988 125.212903 
L 209.85361 124.642081 
L 211.70244 122.353788 
L 213.089063 121.856908 
L 214.475685 120.804474 
L 214.937893 120.48698 
L 216.324515 120.185236 
L 217.24893 119.329458 
L 218.173345 118.889586 
L 219.559968 118.493413 
L 220.484383 117.929244 
L 221.408798 117.385573 
L 222.79542 117.182584 
L 224.64425 116.491197 
L 226.030873 116.216059 
L 227.879703 115.209571 
L 229.266325 114.842865 
L 231.115155 113.707741 
L 233.426193 113.472906 
L 234.350608 113.281549 
L 236.199438 113.117037 
L 237.58606 112.532521 
L 238.972683 112.316617 
L 240.821513 111.399153 
L 242.670343 111.154887 
L 244.056965 110.188879 
L 245.443588 109.953188 
L 246.368003 109.59796 
L 247.292418 109.555795 
L 249.141248 109.779116 
L 250.065663 109.979237 
L 250.52787 110.320736 
L 252.3767 111.020725 
L 252.838908 111.365652 
L 253.763323 112.254508 
L 256.07436 112.543432 
L 256.998775 112.184212 
L 259.309813 111.932745 
L 261.62085 111.150148 
L 262.545265 110.492942 
L 263.46968 110.056044 
L 264.856303 109.806269 
L 266.705133 108.827943 
L 268.091755 108.444385 
L 269.478378 107.634769 
L 269.940585 107.41471 
L 272.251622 107.211848 
L 272.71383 107.323223 
L 273.176037 107.566764 
L 274.56266 107.531571 
L 275.949282 107.962283 
L 279.646942 108.257183 
L 281.495772 108.221896 
L 282.420187 108.077941 
L 282.882395 107.959051 
L 284.269017 107.806169 
L 285.193432 107.361741 
L 285.65564 107.331672 
L 286.117847 107.548687 
L 287.50447 107.775291 
L 289.3533 108.878598 
L 291.20213 109.111814 
L 292.126545 108.68143 
L 292.588752 108.228325 
L 293.975375 107.743134 
L 295.361997 106.100616 
L 295.824205 105.534769 
L 297.210827 105.001395 
L 299.059657 103.180077 
L 300.44628 102.735224 
L 302.29511 101.025814 
L 304.14394 100.636719 
L 305.530562 99.503287 
L 306.917185 99.022211 
L 308.766015 97.070224 
L 310.152637 96.683309 
L 311.53926 95.589056 
L 312.001467 95.329713 
L 313.850297 94.947456 
L 315.23692 94.576587 
L 317.08575 94.505406 
L 321.707825 93.766461 
L 323.094447 93.501003 
L 324.943277 92.571435 
L 326.3299 92.329931 
L 328.17873 91.384117 
L 329.565352 91.15388 
L 331.414182 90.086327 
L 333.263012 89.814544 
L 333.72522 89.28671 
L 334.649634 87.853318 
L 336.036257 87.120567 
L 337.885087 84.560851 
L 339.271709 83.909338 
L 340.658332 81.836454 
L 341.120539 80.961588 
L 342.507162 80.186966 
L 344.355992 77.314719 
L 345.742614 76.562889 
L 346.667029 74.889949 
L 347.591444 72.972058 
L 349.440274 71.984908 
L 350.364689 70.334793 
L 350.826897 69.674108 
L 352.213519 69.137397 
L 354.062349 66.41266 
L 355.448972 65.98992 
L 357.297802 64.328656 
L 358.684424 63.86631 
L 360.533254 61.804645 
L 361.919877 61.192 
L 363.306499 59.205326 
L 363.768707 58.773213 
L 365.155329 58.372938 
L 365.617537 57.876596 
L 366.541952 57.719604 
L 367.004159 57.409674 
L 368.390782 57.274855 
L 369.315197 56.720513 
L 369.777404 56.653091 
L 370.239612 56.472642 
L 371.626234 56.25103 
L 372.088442 55.963537 
L 372.550649 55.951594 
L 373.012857 55.775518 
L 373.475064 55.726562 
L 375.323894 55.87585 
L 376.248309 55.479934 
L 376.710517 55.748279 
L 378.097139 56.214705 
L 378.559347 56.591583 
L 379.483762 56.911156 
L 379.945969 57.217039 
L 381.332592 57.875571 
L 383.181422 60.741393 
L 384.568044 61.585941 
L 385.492459 63.820887 
L 386.416874 65.050043 
L 387.803497 66.160925 
L 388.727912 68.073275 
L 389.652327 69.774951 
L 391.038949 70.385183 
L 391.501157 71.26188 
L 392.425572 72.182778 
L 392.887779 73.294107 
L 394.274402 74.333202 
L 396.123232 78.332818 
L 397.509854 79.419495 
L 398.434269 81.53052 
L 399.358684 84.188834 
L 401.669721 86.803714 
L 402.594136 88.980227 
L 403.980759 89.964938 
L 404.905174 90.914026 
L 405.829589 93.602619 
L 407.216211 94.793782 
L 408.140626 96.784853 
L 409.065041 98.589359 
L 410.451664 99.55723 
L 411.376079 101.128839 
L 412.300494 102.447734 
L 414.149324 103.184685 
L 415.535946 105.108714 
L 416.922569 105.660493 
L 417.384776 106.25215 
L 418.771399 106.758319 
L 420.158021 106.735191 
L 421.082436 106.487041 
L 427.553341 106.339232 
L 428.477756 106.214373 
L 430.326586 105.940644 
L 431.713209 105.554205 
L 433.562039 105.220714 
L 434.486454 105.060008 
L 436.335284 104.738078 
L 437.721906 103.654347 
L 438.184114 103.174522 
L 439.570736 102.642056 
L 440.495151 101.670547 
L 441.419566 100.362561 
L 442.806189 99.888485 
L 444.192811 98.625155 
L 444.655019 98.161429 
L 446.041641 97.665759 
L 447.890471 95.24693 
L 449.277094 94.525782 
L 451.125924 91.938458 
L 452.512546 91.347629 
L 453.436961 90.08067 
L 453.899169 89.382773 
L 455.747999 88.682048 
L 457.134621 86.489259 
L 457.596829 85.883182 
L 458.983451 85.284565 
L 459.445659 84.84287 
L 460.832281 82.587663 
L 462.218903 81.951812 
L 463.605526 80.806175 
L 464.067733 80.594994 
L 469.152016 81.437613 
L 470.076431 82.099365 
L 470.538638 82.494221 
L 472.387468 82.903185 
L 473.774091 84.195648 
L 473.774091 84.195648 
" clip-path="url(#p52073c4876)" style="fill: none; stroke-dasharray: 11.1,4.8; stroke-dashoffset: 0; stroke: #b3de69; stroke-width: 3"/>
   </g>
   <g id="line2d_20">
    <path d="M 85.519794 167.111375 
L 86.906416 166.392764 
L 88.755246 163.376776 
L 90.604076 162.639508 
L 91.990699 160.450297 
L 93.377321 159.739992 
L 94.763944 157.398655 
L 95.226151 156.575567 
L 96.612774 155.765909 
L 98.461604 152.874471 
L 99.848226 152.126852 
L 101.697056 150.267037 
L 103.083679 149.839056 
L 104.932509 148.474943 
L 106.319131 148.236455 
L 108.167961 146.926706 
L 109.554584 146.659069 
L 110.941206 145.749585 
L 111.403414 145.491723 
L 113.714451 145.164827 
L 114.176659 145.095059 
L 116.487696 144.911145 
L 119.260941 144.379422 
L 120.647564 143.93782 
L 122.496394 143.574851 
L 124.345224 142.506824 
L 125.731846 142.132053 
L 127.580676 140.374074 
L 128.967299 139.903289 
L 129.429506 139.411101 
L 130.353921 138.716306 
L 130.816129 138.287486 
L 132.202751 137.758508 
L 134.051581 135.668826 
L 135.900411 135.113462 
L 137.287034 133.691559 
L 138.673656 133.283285 
L 140.060279 131.833264 
L 140.522486 131.711179 
L 142.833524 131.798887 
L 143.295731 131.96432 
L 143.757938 132.377612 
L 145.144561 132.664605 
L 146.068976 133.305544 
L 146.993391 134.11793 
L 148.380013 134.5126 
L 149.766636 135.437315 
L 150.228843 135.844207 
L 152.539881 136.644808 
L 153.464296 137.486903 
L 154.850918 137.839502 
L 156.699748 138.953307 
L 158.086371 139.152592 
L 159.010786 139.530808 
L 159.472993 139.474871 
L 159.935201 139.276618 
L 161.321823 139.052661 
L 163.170653 137.899356 
L 164.557276 137.74772 
L 165.019483 137.576902 
L 166.406106 136.294937 
L 167.792728 135.677866 
L 169.641558 133.301802 
L 171.028181 132.632589 
L 171.952596 131.124743 
L 172.877011 130.061105 
L 174.263633 129.567395 
L 175.650256 128.156456 
L 176.112463 127.731605 
L 177.499086 127.279635 
L 179.347916 125.176103 
L 181.196746 124.798919 
L 182.583368 123.37135 
L 185.818821 122.337332 
L 188.129858 122.405719 
L 188.592066 122.574421 
L 189.054273 122.900337 
L 190.440896 123.35264 
L 190.903103 123.672157 
L 192.289726 124.121819 
L 193.676348 124.366672 
L 195.525178 125.266644 
L 196.911801 125.557134 
L 198.760631 126.706838 
L 201.071668 126.777655 
L 201.996083 127.192626 
L 204.769328 127.579934 
L 206.618158 126.965084 
L 208.00478 124.986925 
L 208.466988 124.193896 
L 209.85361 123.371822 
L 211.70244 119.819897 
L 213.089063 118.952046 
L 214.937893 116.422003 
L 216.324515 115.845848 
L 217.24893 114.353583 
L 218.173345 113.708587 
L 219.559968 113.124669 
L 221.408798 110.671074 
L 222.79542 110.123981 
L 223.719835 109.052858 
L 224.182043 108.772038 
L 224.64425 108.638045 
L 226.030873 108.464324 
L 226.955288 108.045699 
L 231.115155 107.950506 
L 234.350608 107.958707 
L 236.661645 107.902246 
L 237.58606 107.979568 
L 239.43489 107.9155 
L 240.821513 107.328802 
L 242.670343 107.065764 
L 244.056965 105.878816 
L 246.83021 105.327999 
L 247.292418 105.357357 
L 248.67904 105.605217 
L 249.603455 106.286303 
L 250.065663 106.557262 
L 250.52787 107.154662 
L 252.3767 108.228005 
L 252.838908 108.685011 
L 253.763323 109.842076 
L 255.149945 110.208524 
L 256.07436 110.710749 
L 256.998775 110.815628 
L 259.309813 110.992986 
L 260.234228 111.113025 
L 262.545265 110.983981 
L 263.46968 111.100068 
L 264.856303 111.08003 
L 265.780718 110.759656 
L 266.242925 110.506655 
L 266.705133 109.981822 
L 268.091755 109.344205 
L 269.478378 107.550713 
L 269.940585 106.632818 
L 271.327207 106.097965 
L 272.71383 104.213669 
L 275.024867 103.732253 
L 275.949282 104.193351 
L 279.184735 104.666602 
L 279.646942 105.104934 
L 282.882395 105.929245 
L 284.269017 105.96329 
L 285.193432 105.79214 
L 285.65564 106.088662 
L 286.117847 106.75013 
L 287.50447 107.358527 
L 288.891092 109.192604 
L 289.3533 109.729188 
L 291.20213 110.230871 
L 291.664337 109.912911 
L 292.588752 108.962492 
L 293.975375 108.266683 
L 295.824205 104.817661 
L 297.210827 104.103859 
L 297.673035 103.510796 
L 298.59745 101.931416 
L 299.059657 101.362431 
L 300.44628 100.704444 
L 302.29511 98.545518 
L 304.14394 98.100471 
L 304.606147 97.462837 
L 305.530562 95.494925 
L 306.917185 94.268425 
L 308.766015 89.307797 
L 310.152637 88.362747 
L 311.077052 87.080117 
L 311.53926 86.761475 
L 312.001467 86.578924 
L 313.850297 86.476825 
L 315.23692 86.856615 
L 317.08575 87.189228 
L 318.472372 87.444957 
L 319.858995 87.444082 
L 320.321202 87.628871 
L 321.707825 87.768058 
L 324.943277 87.483128 
L 326.792107 87.686382 
L 327.254315 87.813328 
L 330.02756 87.728365 
L 331.414182 87.245899 
L 333.263012 86.913304 
L 333.72522 86.247378 
L 334.649634 84.242798 
L 336.036257 83.219551 
L 337.885087 79.50298 
L 339.271709 78.437436 
L 341.120539 74.305422 
L 342.507162 73.129 
L 344.355992 68.979326 
L 345.742614 67.804967 
L 346.667029 65.277967 
L 347.591444 62.388348 
L 349.440274 60.961811 
L 350.826897 56.873423 
L 352.213519 55.677471 
L 352.675727 54.717225 
L 353.137934 54.116923 
L 354.062349 52.674002 
L 355.448972 52.195295 
L 357.297802 50.395106 
L 358.684424 49.935547 
L 359.146632 49.437973 
L 360.071047 48.834559 
L 360.533254 48.405879 
L 361.919877 47.897307 
L 363.306499 46.120391 
L 363.768707 45.854241 
L 365.617537 45.521698 
L 366.079744 45.882481 
L 366.541952 46.431812 
L 367.004159 46.693293 
L 368.852989 47.12881 
L 369.777404 47.229195 
L 370.239612 47.418653 
L 371.626234 47.436768 
L 372.088442 47.59031 
L 372.550649 47.95522 
L 373.012857 47.875257 
L 374.861687 48.210633 
L 375.323894 48.49023 
L 376.248309 48.380175 
L 376.710517 48.99207 
L 378.097139 49.77578 
L 379.021554 51.316621 
L 379.483762 52.067877 
L 379.945969 53.071067 
L 381.332592 54.621561 
L 383.181422 60.300991 
L 384.568044 61.544242 
L 385.492459 64.940248 
L 386.416874 66.792999 
L 387.803497 68.747972 
L 388.265704 70.678937 
L 389.190119 73.744567 
L 389.652327 75.470914 
L 391.038949 77.022632 
L 391.501157 78.595594 
L 392.425572 80.44831 
L 392.887779 82.415576 
L 394.274402 84.167609 
L 395.198817 88.051851 
L 396.123232 91.888252 
L 397.509854 93.433237 
L 397.972062 94.978747 
L 399.358684 101.405673 
L 401.669721 104.850219 
L 402.594136 107.601509 
L 403.980759 109.09708 
L 404.905174 110.26523 
L 405.829589 112.912358 
L 407.216211 113.930761 
L 409.065041 118.076956 
L 410.451664 119.270828 
L 410.913871 120.597364 
L 411.838286 122.29437 
L 412.300494 122.782606 
L 414.149324 123.464112 
L 415.535946 125.316846 
L 416.922569 125.700745 
L 417.384776 126.087424 
L 417.846984 126.12243 
L 418.309191 125.8898 
L 418.771399 125.484464 
L 420.158021 124.626003 
L 420.620229 123.483259 
L 422.006851 121.527272 
L 423.393474 121.008645 
L 423.855681 120.435971 
L 424.780096 118.262462 
L 425.242304 117.290868 
L 427.091134 116.416302 
L 428.477756 113.955153 
L 429.864379 112.912025 
L 431.251001 110.375006 
L 431.713209 109.584669 
L 433.099831 108.609928 
L 434.024246 106.731105 
L 434.948661 105.358477 
L 436.335284 104.314317 
L 438.184114 101.548864 
L 439.570736 100.936444 
L 440.032944 100.389316 
L 440.495151 99.635612 
L 441.419566 97.692932 
L 442.806189 96.942707 
L 444.192811 94.734454 
L 444.655019 93.936074 
L 446.041641 93.129877 
L 447.890471 89.373666 
L 449.277094 88.313787 
L 450.663716 85.162004 
L 451.125924 84.182804 
L 452.512546 83.14487 
L 453.899169 79.706059 
L 455.747999 78.715091 
L 456.672414 76.650448 
L 457.596829 75.162431 
L 458.983451 74.403447 
L 459.907866 73.22998 
L 460.832281 71.504822 
L 462.218903 70.595023 
L 463.605526 68.944529 
L 464.067733 68.663376 
L 465.454356 68.982018 
L 468.689808 70.756381 
L 469.614223 71.964609 
L 470.538638 73.5638 
L 472.387468 74.417593 
L 473.774091 77.721693 
L 473.774091 77.721693 
" clip-path="url(#p52073c4876)" style="fill: none; stroke-dasharray: 19.2,4.8,3,4.8; stroke-dashoffset: 0; stroke: #fdb462; stroke-width: 3"/>
   </g>
   <g id="patch_3">
    <path d="M 47.665 208.50375 
L 47.665 12.66375 
" style="fill: none; stroke: #000000; stroke-width: 0.6; stroke-linejoin: miter; stroke-linecap: square"/>
   </g>
   <g id="patch_4">
    <path d="M 47.665 208.50375 
L 494.065 208.50375 
" style="fill: none; stroke: #000000; stroke-width: 0.6; stroke-linejoin: miter; stroke-linecap: square"/>
   </g>
   <g id="legend_1">
    <g id="patch_5">
     <path d="M 56.065 81.8925 
L 185.306875 81.8925 
Q 187.706875 81.8925 187.706875 79.4925 
L 187.706875 21.06375 
Q 187.706875 18.66375 185.306875 18.66375 
L 56.065 18.66375 
Q 53.665 18.66375 53.665 21.06375 
L 53.665 79.4925 
Q 53.665 81.8925 56.065 81.8925 
z
" style="fill: #ffffff; opacity: 0.8; stroke: #e6e6e6; stroke-width: 0.8; stroke-linejoin: miter"/>
    </g>
    <g id="line2d_21">
     <path d="M 56.065 25.26375 
L 68.065 25.26375 
L 80.065 25.26375 
" style="fill: none; stroke: #bc80bd; stroke-opacity: 0.5; stroke-width: 3; stroke-linecap: square"/>
    </g>
    <g id="text_19">
     <!-- Raw -->
     <g style="fill: #323034" transform="translate(89.665 29.46375) scale(0.12 -0.12)">
      <defs>
       <path id="STIXGeneral-Regular-52" d="M 4224 0 
L 3187 0 
L 1664 1971 
L 1306 1958 
L 1306 717 
Q 1306 352 1405 249 
Q 1504 147 1875 122 
L 1875 0 
L 109 0 
L 109 122 
Q 474 154 563 262 
Q 653 371 653 794 
L 653 3526 
Q 653 3885 563 3987 
Q 474 4090 109 4115 
L 109 4237 
L 1850 4237 
Q 2726 4237 3187 3859 
Q 3501 3603 3501 3091 
Q 3501 2221 2342 2042 
L 3622 422 
Q 3757 256 3878 198 
Q 4000 141 4224 122 
L 4224 0 
z
M 1306 3731 
L 1306 2195 
Q 1766 2202 1990 2246 
Q 2214 2291 2438 2413 
Q 2803 2618 2803 3142 
Q 2803 4000 1632 4000 
Q 1459 4000 1382 3945 
Q 1306 3891 1306 3731 
z
" transform="scale(0.015625)"/>
       <path id="STIXGeneral-Regular-77" d="M 4442 2880 
L 4442 2784 
Q 4346 2752 4301 2691 
Q 4256 2630 4179 2438 
L 3296 224 
Q 3168 -90 3117 -90 
Q 3085 -90 3062 -48 
Q 3040 -6 2963 186 
L 2381 1696 
L 1664 160 
Q 1549 -90 1504 -90 
Q 1446 -90 1338 192 
L 474 2381 
Q 378 2630 314 2700 
Q 250 2771 134 2784 
L 134 2880 
L 1286 2880 
L 1286 2784 
Q 1120 2765 1056 2720 
Q 992 2675 992 2573 
Q 992 2477 1030 2381 
L 1664 710 
L 2246 1984 
L 2118 2342 
Q 2029 2598 1942 2681 
Q 1856 2765 1677 2784 
L 1677 2880 
L 2976 2880 
L 2976 2784 
Q 2752 2752 2678 2707 
Q 2605 2662 2605 2560 
Q 2605 2458 2714 2176 
L 3251 742 
L 3827 2163 
Q 3936 2432 3936 2592 
Q 3936 2669 3875 2710 
Q 3814 2752 3654 2784 
L 3654 2880 
L 4442 2880 
z
" transform="scale(0.015625)"/>
      </defs>
      <use xlink:href="#STIXGeneral-Regular-52"/>
      <use xlink:href="#STIXGeneral-Regular-61" x="66.699997"/>
      <use xlink:href="#STIXGeneral-Regular-77" x="111.099991"/>
     </g>
    </g>
    <g id="line2d_22">
     <path d="M 56.065 41.068125 
L 68.065 41.068125 
L 80.065 41.068125 
" style="fill: none; stroke-dasharray: 3,4.95; stroke-dashoffset: 0; stroke: #fb8072; stroke-width: 3"/>
    </g>
    <g id="text_20">
     <!-- Expanding Average -->
     <g style="fill: #323034" transform="translate(89.665 45.268125) scale(0.12 -0.12)">
      <defs>
       <path id="STIXGeneral-Regular-45" d="M 3821 1082 
L 3526 0 
L 77 0 
L 77 122 
Q 442 147 538 252 
Q 634 358 634 730 
L 634 3520 
Q 634 3878 534 3987 
Q 435 4096 77 4115 
L 77 4237 
L 3469 4237 
L 3494 3322 
L 3334 3322 
Q 3264 3750 3085 3872 
Q 2906 3994 2349 3994 
L 1510 3994 
Q 1370 3994 1328 3952 
Q 1286 3910 1286 3763 
L 1286 2355 
L 2253 2355 
Q 2656 2355 2787 2470 
Q 2918 2586 2976 2970 
L 3123 2970 
L 3123 1472 
L 2976 1472 
Q 2918 1875 2790 1984 
Q 2662 2093 2253 2093 
L 1286 2093 
L 1286 538 
Q 1286 346 1420 291 
Q 1555 237 1933 237 
L 2163 237 
Q 2848 237 3136 403 
Q 3424 570 3642 1082 
L 3821 1082 
z
" transform="scale(0.015625)"/>
       <path id="STIXGeneral-Regular-78" d="M 3066 0 
L 1779 0 
L 1779 96 
Q 1939 109 1987 137 
Q 2035 166 2035 250 
Q 2035 307 1997 365 
L 1414 1261 
L 909 474 
Q 781 275 781 211 
Q 781 96 1037 96 
L 1037 0 
L 109 0 
L 109 96 
Q 269 109 355 169 
Q 442 230 576 422 
L 1306 1478 
L 704 2400 
Q 557 2624 454 2704 
Q 352 2784 211 2784 
L 154 2784 
L 154 2880 
L 1478 2880 
L 1478 2784 
Q 1203 2778 1203 2643 
Q 1203 2509 1498 2074 
Q 1581 1958 1587 1946 
Q 1619 1990 1779 2227 
Q 1811 2285 1856 2349 
Q 1901 2413 1923 2451 
Q 1946 2490 1971 2528 
Q 1997 2566 2006 2595 
Q 2016 2624 2016 2643 
Q 2016 2765 1760 2784 
L 1760 2880 
L 2771 2880 
L 2771 2784 
Q 2445 2771 2253 2502 
L 1722 1734 
L 2541 480 
Q 2790 96 3066 96 
L 3066 0 
z
" transform="scale(0.015625)"/>
       <path id="STIXGeneral-Regular-70" d="M 1018 2931 
L 1018 2438 
Q 1421 2944 1939 2944 
Q 2406 2944 2707 2560 
Q 3008 2176 3008 1581 
Q 3008 883 2621 409 
Q 2234 -64 1664 -64 
Q 1466 -64 1328 -6 
Q 1190 51 1018 211 
L 1018 -794 
Q 1018 -1094 1120 -1180 
Q 1222 -1267 1581 -1274 
L 1581 -1389 
L 32 -1389 
L 32 -1280 
Q 314 -1254 397 -1171 
Q 480 -1088 480 -838 
L 480 2157 
Q 480 2381 429 2451 
Q 378 2522 218 2522 
Q 115 2522 58 2515 
L 58 2618 
Q 506 2752 979 2944 
L 1018 2931 
z
M 1018 2138 
L 1018 563 
Q 1018 422 1238 281 
Q 1459 141 1683 141 
Q 2029 141 2243 467 
Q 2458 794 2458 1325 
Q 2458 1888 2243 2224 
Q 2029 2560 1670 2560 
Q 1446 2560 1232 2419 
Q 1018 2278 1018 2138 
z
" transform="scale(0.015625)"/>
       <path id="STIXGeneral-Regular-6e" d="M 3104 0 
L 1773 0 
L 1779 96 
Q 2016 115 2096 233 
Q 2176 352 2176 672 
L 2176 1946 
Q 2176 2592 1709 2592 
Q 1549 2592 1408 2515 
Q 1267 2438 1050 2227 
L 1050 461 
Q 1050 269 1136 192 
Q 1222 115 1466 96 
L 1466 0 
L 115 0 
L 115 96 
Q 358 115 435 214 
Q 512 314 512 602 
L 512 2157 
Q 512 2394 467 2483 
Q 422 2573 288 2573 
Q 160 2573 102 2547 
L 102 2656 
Q 550 2784 979 2944 
L 1030 2925 
L 1030 2426 
L 1037 2426 
Q 1491 2944 1958 2944 
Q 2323 2944 2518 2688 
Q 2714 2432 2714 1958 
L 2714 544 
Q 2714 288 2790 205 
Q 2867 122 3104 96 
L 3104 0 
z
" transform="scale(0.015625)"/>
       <path id="STIXGeneral-Regular-64" d="M 3142 269 
L 2202 -64 
L 2176 -45 
L 2176 365 
Q 1869 -64 1357 -64 
Q 826 -64 499 317 
Q 173 698 173 1312 
Q 173 1990 563 2467 
Q 954 2944 1504 2944 
Q 1850 2944 2176 2669 
L 2176 3667 
Q 2176 3866 2118 3930 
Q 2061 3994 1882 3994 
Q 1792 3994 1741 3987 
L 1741 4090 
Q 2323 4243 2682 4371 
L 2714 4358 
L 2714 730 
Q 2714 506 2768 435 
Q 2822 365 2995 365 
Q 3034 365 3142 371 
L 3142 269 
z
M 2176 653 
L 2176 2125 
Q 2176 2381 1981 2573 
Q 1786 2765 1523 2765 
Q 1158 2765 940 2438 
Q 723 2112 723 1568 
Q 723 979 963 624 
Q 1203 269 1606 269 
Q 1907 269 2080 474 
Q 2176 582 2176 653 
z
" transform="scale(0.015625)"/>
       <path id="STIXGeneral-Regular-69" d="M 1152 4045 
Q 1152 3904 1056 3811 
Q 960 3718 819 3718 
Q 685 3718 592 3811 
Q 499 3904 499 4045 
Q 499 4179 595 4275 
Q 691 4371 826 4371 
Q 966 4371 1059 4275 
Q 1152 4179 1152 4045 
z
M 1619 0 
L 102 0 
L 102 96 
Q 435 115 521 211 
Q 608 307 608 666 
L 608 2118 
Q 608 2342 563 2432 
Q 518 2522 397 2522 
Q 243 2522 128 2490 
L 128 2592 
L 1120 2944 
L 1146 2918 
L 1146 672 
Q 1146 314 1226 218 
Q 1306 122 1619 96 
L 1619 0 
z
" transform="scale(0.015625)"/>
       <path id="STIXGeneral-Regular-67" d="M 3008 2483 
L 2477 2483 
Q 2598 2208 2598 1946 
Q 2598 1453 2265 1203 
Q 1933 954 1600 954 
Q 1530 954 1357 973 
L 1235 986 
Q 1107 947 979 812 
Q 851 678 851 582 
Q 851 435 1350 410 
L 2176 371 
Q 2528 358 2739 172 
Q 2950 -13 2950 -314 
Q 2950 -685 2566 -986 
Q 2035 -1395 1286 -1395 
Q 826 -1395 502 -1212 
Q 179 -1030 179 -774 
Q 179 -595 320 -419 
Q 461 -243 806 6 
Q 602 102 534 172 
Q 467 243 467 346 
Q 467 531 762 787 
Q 909 915 1037 1043 
Q 717 1203 579 1401 
Q 442 1600 442 1901 
Q 442 2336 752 2640 
Q 1062 2944 1510 2944 
Q 1766 2944 2022 2848 
L 2163 2797 
Q 2349 2733 2515 2733 
L 3008 2733 
L 3008 2483 
z
M 973 2163 
L 973 2144 
Q 973 1683 1155 1398 
Q 1338 1114 1632 1114 
Q 1850 1114 1978 1270 
Q 2106 1427 2106 1690 
Q 2106 2112 1914 2464 
Q 1754 2765 1446 2765 
Q 1222 2765 1097 2605 
Q 973 2445 973 2163 
z
M 2771 -410 
Q 2771 -230 2595 -163 
Q 2419 -96 1978 -96 
Q 1344 -96 941 -13 
Q 749 -243 688 -348 
Q 627 -454 627 -563 
Q 627 -774 880 -902 
Q 1133 -1030 1555 -1030 
Q 2099 -1030 2435 -860 
Q 2771 -691 2771 -410 
z
" transform="scale(0.015625)"/>
       <path id="STIXGeneral-Regular-41" d="M 4525 0 
L 2893 0 
L 2893 122 
Q 3149 122 3245 179 
Q 3334 224 3334 333 
Q 3334 499 3213 781 
L 2950 1382 
L 1274 1382 
L 979 653 
Q 922 506 922 384 
Q 922 237 1027 179 
Q 1133 122 1370 122 
L 1370 0 
L 96 0 
L 96 122 
Q 365 147 486 316 
Q 608 486 902 1190 
L 2221 4314 
L 2349 4314 
L 3923 710 
Q 4064 378 4176 262 
Q 4288 147 4525 122 
L 4525 0 
z
M 2861 1645 
L 2118 3405 
L 1382 1645 
L 2861 1645 
z
" transform="scale(0.015625)"/>
       <path id="STIXGeneral-Regular-76" d="M 3053 2880 
L 3053 2784 
Q 2906 2771 2835 2688 
Q 2765 2605 2637 2285 
L 1818 230 
Q 1690 -90 1638 -90 
Q 1587 -90 1523 77 
Q 1510 96 1497 141 
Q 1485 186 1472 211 
L 704 2048 
Q 499 2534 403 2652 
Q 307 2771 122 2784 
L 122 2880 
L 1376 2880 
L 1376 2784 
Q 1210 2771 1146 2732 
Q 1082 2694 1082 2611 
Q 1082 2509 1139 2368 
L 1792 730 
L 2426 2387 
Q 2464 2483 2464 2579 
Q 2464 2758 2163 2784 
L 2163 2880 
L 3053 2880 
z
" transform="scale(0.015625)"/>
       <path id="STIXGeneral-Regular-72" d="M 1024 2931 
L 1024 2342 
Q 1267 2688 1430 2816 
Q 1594 2944 1792 2944 
Q 1958 2944 2051 2854 
Q 2144 2765 2144 2605 
Q 2144 2470 2077 2393 
Q 2010 2317 1894 2317 
Q 1773 2317 1638 2445 
Q 1536 2541 1472 2541 
Q 1338 2541 1181 2355 
Q 1024 2170 1024 2016 
L 1024 576 
Q 1024 301 1133 205 
Q 1242 109 1568 96 
L 1568 0 
L 32 0 
L 32 96 
Q 339 154 412 224 
Q 486 294 486 538 
L 486 2138 
Q 486 2349 438 2435 
Q 390 2522 269 2522 
Q 166 2522 45 2496 
L 45 2598 
Q 448 2726 992 2944 
L 1024 2931 
z
" transform="scale(0.015625)"/>
      </defs>
      <use xlink:href="#STIXGeneral-Regular-45"/>
      <use xlink:href="#STIXGeneral-Regular-78" x="61.099991"/>
      <use xlink:href="#STIXGeneral-Regular-70" x="111.099976"/>
      <use xlink:href="#STIXGeneral-Regular-61" x="161.09996"/>
      <use xlink:href="#STIXGeneral-Regular-6e" x="205.499954"/>
      <use xlink:href="#STIXGeneral-Regular-64" x="255.499939"/>
      <use xlink:href="#STIXGeneral-Regular-69" x="305.499924"/>
      <use xlink:href="#STIXGeneral-Regular-6e" x="333.299911"/>
      <use xlink:href="#STIXGeneral-Regular-67" x="383.299896"/>
      <use xlink:href="#STIXGeneral-Regular-20" x="433.299881"/>
      <use xlink:href="#STIXGeneral-Regular-41" x="458.299866"/>
      <use xlink:href="#STIXGeneral-Regular-76" x="530.499847"/>
      <use xlink:href="#STIXGeneral-Regular-65" x="580.499832"/>
      <use xlink:href="#STIXGeneral-Regular-72" x="624.899826"/>
      <use xlink:href="#STIXGeneral-Regular-61" x="658.199814"/>
      <use xlink:href="#STIXGeneral-Regular-67" x="702.599808"/>
      <use xlink:href="#STIXGeneral-Regular-65" x="752.599792"/>
     </g>
    </g>
    <g id="line2d_23">
     <path d="M 56.065 56.88375 
L 68.065 56.88375 
L 80.065 56.88375 
" style="fill: none; stroke-dasharray: 11.1,4.8; stroke-dashoffset: 0; stroke: #b3de69; stroke-width: 3"/>
    </g>
    <g id="text_21">
     <!-- EWMA ($\alpha=$0.03) -->
     <g style="fill: #323034" transform="translate(89.665 61.08375) scale(0.12 -0.12)">
      <defs>
       <path id="STIXGeneral-Regular-57" d="M 5965 4237 
L 5965 4115 
Q 5709 4064 5616 3990 
Q 5523 3917 5434 3667 
Q 4704 1709 4128 -70 
L 4032 -70 
Q 3642 1011 3008 2637 
L 2022 -70 
L 1926 -70 
Q 1709 576 1277 1753 
Q 845 2931 698 3347 
Q 538 3808 406 3958 
Q 275 4109 32 4115 
L 32 4237 
L 1594 4237 
L 1594 4115 
Q 1357 4109 1270 4064 
Q 1184 4019 1184 3917 
Q 1184 3808 1254 3616 
L 2176 1210 
L 2842 3021 
L 2662 3501 
Q 2509 3917 2400 4013 
Q 2291 4109 2010 4115 
L 2010 4237 
L 3706 4237 
L 3706 4115 
Q 3213 4102 3213 3891 
Q 3213 3808 3322 3520 
L 4237 1190 
L 5043 3360 
Q 5152 3667 5152 3853 
Q 5152 4109 4704 4115 
L 4704 4237 
L 5965 4237 
z
" transform="scale(0.015625)"/>
       <path id="STIXGeneral-Regular-4d" d="M 5530 0 
L 3738 0 
L 3738 122 
Q 4115 147 4214 265 
Q 4314 384 4314 787 
L 4314 3661 
L 2682 0 
L 2592 0 
L 979 3514 
L 979 966 
Q 979 448 1088 294 
Q 1197 141 1574 122 
L 1574 0 
L 77 0 
L 77 122 
Q 358 141 480 205 
Q 602 269 650 432 
Q 698 595 698 966 
L 698 3514 
Q 698 3878 589 3984 
Q 480 4090 90 4115 
L 90 4237 
L 1357 4237 
L 2835 1024 
L 4250 4237 
L 5523 4237 
L 5523 4115 
Q 5178 4109 5072 3993 
Q 4966 3878 4966 3520 
L 4966 717 
Q 4966 378 5072 262 
Q 5178 147 5530 122 
L 5530 0 
z
" transform="scale(0.015625)"/>
       <path id="STIXGeneral-Italic-3b1" d="M 3514 2739 
L 2605 1069 
L 2605 954 
Q 2605 704 2662 512 
Q 2720 320 2822 320 
Q 2970 320 3149 794 
L 3251 749 
Q 3014 -58 2605 -58 
Q 2291 -58 2272 614 
Q 1709 -70 1030 -70 
Q 589 -70 381 198 
Q 173 467 173 902 
Q 173 1293 329 1673 
Q 486 2054 755 2330 
Q 973 2547 1270 2684 
Q 1568 2822 1862 2822 
Q 2246 2822 2457 2595 
Q 2669 2368 2669 2061 
L 2963 2739 
L 3514 2739 
z
M 2298 1741 
Q 2298 2688 1805 2688 
Q 1472 2688 1085 2099 
Q 698 1510 698 800 
Q 698 493 806 278 
Q 915 64 1139 64 
Q 1606 64 2195 1286 
Q 2202 1325 2230 1411 
Q 2259 1498 2278 1581 
Q 2298 1664 2298 1741 
z
" transform="scale(0.015625)"/>
       <path id="STIXGeneral-Regular-3d" d="M 4077 2048 
L 307 2048 
L 307 2470 
L 4077 2470 
L 4077 2048 
z
M 4077 768 
L 307 768 
L 307 1190 
L 4077 1190 
L 4077 768 
z
" transform="scale(0.015625)"/>
       <path id="STIXGeneral-Regular-2e" d="M 1158 275 
Q 1158 134 1052 32 
Q 947 -70 800 -70 
Q 653 -70 550 32 
Q 448 134 448 281 
Q 448 429 553 534 
Q 659 640 806 640 
Q 947 640 1052 531 
Q 1158 422 1158 275 
z
" transform="scale(0.015625)"/>
      </defs>
      <use xlink:href="#STIXGeneral-Regular-45" transform="translate(0 0.40625)"/>
      <use xlink:href="#STIXGeneral-Regular-57" transform="translate(61.099991 0.40625)"/>
      <use xlink:href="#STIXGeneral-Regular-4d" transform="translate(155.499985 0.40625)"/>
      <use xlink:href="#STIXGeneral-Regular-41" transform="translate(244.399979 0.40625)"/>
      <use xlink:href="#STIXGeneral-Regular-20" transform="translate(316.59996 0.40625)"/>
      <use xlink:href="#STIXGeneral-Regular-28" transform="translate(341.599945 0.40625)"/>
      <use xlink:href="#STIXGeneral-Italic-3b1" transform="translate(374.899933 0.40625)"/>
      <use xlink:href="#STIXGeneral-Regular-3d" transform="translate(444.539926 0.40625)"/>
      <use xlink:href="#STIXGeneral-Regular-30" transform="translate(527.479907 0.40625)"/>
      <use xlink:href="#STIXGeneral-Regular-2e" transform="translate(577.479892 0.40625)"/>
      <use xlink:href="#STIXGeneral-Regular-30" transform="translate(602.479877 0.40625)"/>
      <use xlink:href="#STIXGeneral-Regular-33" transform="translate(652.479861 0.40625)"/>
      <use xlink:href="#STIXGeneral-Regular-29" transform="translate(702.479846 0.40625)"/>
     </g>
    </g>
    <g id="line2d_24">
     <path d="M 56.065 72.688125 
L 68.065 72.688125 
L 80.065 72.688125 
" style="fill: none; stroke-dasharray: 19.2,4.8,3,4.8; stroke-dashoffset: 0; stroke: #fdb462; stroke-width: 3"/>
    </g>
    <g id="text_22">
     <!-- 28D MA -->
     <g style="fill: #323034" transform="translate(89.665 76.888125) scale(0.12 -0.12)">
      <use xlink:href="#STIXGeneral-Regular-32"/>
      <use xlink:href="#STIXGeneral-Regular-38" x="49.999985"/>
      <use xlink:href="#STIXGeneral-Regular-44" x="99.999969"/>
      <use xlink:href="#STIXGeneral-Regular-20" x="172.199951"/>
      <use xlink:href="#STIXGeneral-Regular-4d" x="197.199936"/>
      <use xlink:href="#STIXGeneral-Regular-41" x="286.09993"/>
     </g>
    </g>
   </g>
  </g>
 </g>
 <defs>
  <clipPath id="p52073c4876">
   <rect x="47.665" y="12.66375" width="446.4" height="195.84"/>
  </clipPath>
 </defs>
</svg>