<?xml version="1.0" encoding="utf-8" standalone="no"?>
<!DOCTYPE svg PUBLIC "-//W3C//DTD SVG 1.1//EN"
  "http://www.w3.org/Graphics/SVG/1.1/DTD/svg11.dtd">
<svg xmlns:xlink="http://www.w3.org/1999/xlink" width="707.609453pt" height="425.0925pt" viewBox="0 0 707.609453 425.0925" xmlns="http://www.w3.org/2000/svg" version="1.1">
 <metadata>
  <rdf:RDF xmlns:dc="http://purl.org/dc/elements/1.1/" xmlns:cc="http://creativecommons.org/ns#" xmlns:rdf="http://www.w3.org/1999/02/22-rdf-syntax-ns#">
   <cc:Work>
    <dc:type rdf:resource="http://purl.org/dc/dcmitype/StillImage"/>
    <dc:date>2023-12-29T00:22:22.670998</dc:date>
    <dc:format>image/svg+xml</dc:format>
    <dc:creator>
     <cc:Agent>
      <dc:title>Matplotlib v3.7.2, https://matplotlib.org/</dc:title>
     </cc:Agent>
    </dc:creator>
   </cc:Work>
  </rdf:RDF>
 </metadata>
 <defs>
  <style type="text/css">*{stroke-linejoin: round; stroke-linecap: butt}</style>
 </defs>
 <g id="figure_1">
  <g id="patch_1">
   <path d="M 0 425.0925 
L 707.609453 425.0925 
L 707.609453 0 
L 0 0 
z
" style="fill: #ffffff"/>
  </g>
  <g id="axes_1">
   <g id="patch_2">
    <path d="M 23.2 200.38625 
L 198.049453 200.38625 
L 198.049453 53.79 
L 23.2 53.79 
z
" style="fill: #ffffff"/>
   </g>
   <g id="matplotlib.axis_1">
    <g id="xtick_1">
     <g id="line2d_1">
      <defs>
       <path id="med36c3fe69" d="M 0 0 
L 0 3.5 
" style="stroke: #323034; stroke-width: 0.8"/>
      </defs>
      <g>
       <use xlink:href="#med36c3fe69" x="23.2" y="200.38625" style="fill: #323034; stroke: #323034; stroke-width: 0.8"/>
      </g>
     </g>
     <g id="text_1">
      <!-- $\mathdefault{2000}$ -->
      <g style="fill: #323034" transform="translate(7.2 218.31375) scale(0.16 -0.16)">
       <defs>
        <path id="STIXGeneral-Regular-32" d="M 3034 877 
L 2688 0 
L 186 0 
L 186 77 
L 1325 1286 
Q 1773 1754 1965 2144 
Q 2157 2534 2157 2950 
Q 2157 3379 1920 3616 
Q 1683 3853 1267 3853 
Q 922 3853 720 3673 
Q 518 3494 326 3021 
L 192 3053 
Q 301 3648 630 3987 
Q 960 4326 1523 4326 
Q 2054 4326 2380 4006 
Q 2707 3686 2707 3200 
Q 2707 2477 1888 1613 
L 832 486 
L 2330 486 
Q 2541 486 2665 569 
Q 2790 653 2944 915 
L 3034 877 
z
" transform="scale(0.015625)"/>
        <path id="STIXGeneral-Regular-30" d="M 3046 2112 
Q 3046 1683 2963 1302 
Q 2880 922 2717 602 
Q 2554 282 2266 96 
Q 1978 -90 1600 -90 
Q 1210 -90 915 108 
Q 621 307 461 640 
Q 301 973 227 1350 
Q 154 1728 154 2150 
Q 154 2746 301 3222 
Q 448 3699 790 4012 
Q 1133 4326 1626 4326 
Q 2253 4326 2649 3712 
Q 3046 3098 3046 2112 
z
M 2432 2080 
Q 2432 3091 2217 3625 
Q 2003 4160 1587 4160 
Q 1190 4160 979 3622 
Q 768 3085 768 2106 
Q 768 1120 979 598 
Q 1190 77 1600 77 
Q 2003 77 2217 598 
Q 2432 1120 2432 2080 
z
" transform="scale(0.015625)"/>
       </defs>
       <use xlink:href="#STIXGeneral-Regular-32" transform="translate(0 0.40625)"/>
       <use xlink:href="#STIXGeneral-Regular-30" transform="translate(49.999985 0.40625)"/>
       <use xlink:href="#STIXGeneral-Regular-30" transform="translate(99.999969 0.40625)"/>
       <use xlink:href="#STIXGeneral-Regular-30" transform="translate(149.999954 0.40625)"/>
      </g>
     </g>
    </g>
    <g id="xtick_2">
     <g id="line2d_2">
      <g>
       <use xlink:href="#med36c3fe69" x="102.677024" y="200.38625" style="fill: #323034; stroke: #323034; stroke-width: 0.8"/>
      </g>
     </g>
     <g id="text_2">
      <!-- $\mathdefault{2010}$ -->
      <g style="fill: #323034" transform="translate(86.677024 218.31375) scale(0.16 -0.16)">
       <defs>
        <path id="STIXGeneral-Regular-31" d="M 2522 0 
L 755 0 
L 755 96 
Q 1107 115 1235 227 
Q 1363 339 1363 608 
L 1363 3482 
Q 1363 3795 1171 3795 
Q 1082 3795 883 3718 
L 710 3654 
L 710 3744 
L 1856 4326 
L 1914 4307 
L 1914 486 
Q 1914 275 2042 185 
Q 2170 96 2522 96 
L 2522 0 
z
" transform="scale(0.015625)"/>
       </defs>
       <use xlink:href="#STIXGeneral-Regular-32" transform="translate(0 0.40625)"/>
       <use xlink:href="#STIXGeneral-Regular-30" transform="translate(49.999985 0.40625)"/>
       <use xlink:href="#STIXGeneral-Regular-31" transform="translate(99.999969 0.40625)"/>
       <use xlink:href="#STIXGeneral-Regular-30" transform="translate(149.999954 0.40625)"/>
      </g>
     </g>
    </g>
    <g id="xtick_3">
     <g id="line2d_3">
      <g>
       <use xlink:href="#med36c3fe69" x="182.154048" y="200.38625" style="fill: #323034; stroke: #323034; stroke-width: 0.8"/>
      </g>
     </g>
     <g id="text_3">
      <!-- $\mathdefault{2020}$ -->
      <g style="fill: #323034" transform="translate(166.154048 218.31375) scale(0.16 -0.16)">
       <use xlink:href="#STIXGeneral-Regular-32" transform="translate(0 0.40625)"/>
       <use xlink:href="#STIXGeneral-Regular-30" transform="translate(49.999985 0.40625)"/>
       <use xlink:href="#STIXGeneral-Regular-32" transform="translate(99.999969 0.40625)"/>
       <use xlink:href="#STIXGeneral-Regular-30" transform="translate(149.999954 0.40625)"/>
      </g>
     </g>
    </g>
   </g>
   <g id="matplotlib.axis_2">
    <g id="ytick_1">
     <g id="line2d_4">
      <defs>
       <path id="m7327c6ca97" d="M 0 0 
L 3.5 0 
" style="stroke: #323034; stroke-width: 0.8"/>
      </defs>
      <g>
       <use xlink:href="#m7327c6ca97" x="198.049453" y="164.906385" style="fill: #323034; stroke: #323034; stroke-width: 0.8"/>
      </g>
     </g>
     <g id="text_4">
      <!-- $\mathdefault{100}$ -->
      <g style="fill: #323034" transform="translate(205.049453 170.370135) scale(0.16 -0.16)">
       <use xlink:href="#STIXGeneral-Regular-31" transform="translate(0 0.40625)"/>
       <use xlink:href="#STIXGeneral-Regular-30" transform="translate(49.999985 0.40625)"/>
       <use xlink:href="#STIXGeneral-Regular-30" transform="translate(99.999969 0.40625)"/>
      </g>
     </g>
    </g>
    <g id="ytick_2">
     <g id="line2d_5">
      <g>
       <use xlink:href="#m7327c6ca97" x="198.049453" y="126.33592" style="fill: #323034; stroke: #323034; stroke-width: 0.8"/>
      </g>
     </g>
     <g id="text_5">
      <!-- $\mathdefault{110}$ -->
      <g style="fill: #323034" transform="translate(205.049453 131.79967) scale(0.16 -0.16)">
       <use xlink:href="#STIXGeneral-Regular-31" transform="translate(0 0.40625)"/>
       <use xlink:href="#STIXGeneral-Regular-31" transform="translate(49.999985 0.40625)"/>
       <use xlink:href="#STIXGeneral-Regular-30" transform="translate(99.999969 0.40625)"/>
      </g>
     </g>
    </g>
    <g id="ytick_3">
     <g id="line2d_6">
      <g>
       <use xlink:href="#m7327c6ca97" x="198.049453" y="87.765456" style="fill: #323034; stroke: #323034; stroke-width: 0.8"/>
      </g>
     </g>
     <g id="text_6">
      <!-- $\mathdefault{120}$ -->
      <g style="fill: #323034" transform="translate(205.049453 93.229206) scale(0.16 -0.16)">
       <use xlink:href="#STIXGeneral-Regular-31" transform="translate(0 0.40625)"/>
       <use xlink:href="#STIXGeneral-Regular-32" transform="translate(49.999985 0.40625)"/>
       <use xlink:href="#STIXGeneral-Regular-30" transform="translate(99.999969 0.40625)"/>
      </g>
     </g>
    </g>
   </g>
   <g id="line2d_7">
    <path d="M 23.2 164.906385 
L 31.147702 159.080091 
L 39.095405 160.511639 
L 47.043107 163.457191 
L 54.99081 158.822745 
L 62.938512 155.73186 
L 70.886214 140.198853 
L 78.833917 127.417608 
L 86.781619 122.542294 
L 94.729322 145.891634 
L 102.677024 128.328403 
L 110.624727 103.541952 
L 118.572429 102.512973 
L 126.520131 101.778672 
L 134.467834 93.769968 
L 142.415536 90.950778 
L 150.363239 84.478292 
L 158.310941 73.770263 
L 166.258643 70.536269 
L 174.206346 66.466276 
L 182.154048 85.373598 
L 190.101751 70.857432 
L 198.049453 65.700312 
" clip-path="url(#p33f5c81ead)" style="fill: none; stroke: #000000; stroke-opacity: 0.1; stroke-linecap: square"/>
   </g>
   <g id="line2d_8">
    <path d="M 23.2 164.906385 
L 31.147702 157.600661 
L 39.095405 157.188945 
L 47.043107 158.390884 
L 54.99081 155.373465 
L 62.938512 154.094254 
L 70.886214 148.205356 
L 78.833917 144.27819 
L 86.781619 150.844287 
L 94.729322 173.676998 
L 102.677024 168.396472 
L 110.624727 166.354347 
L 118.572429 178.81218 
L 126.520131 189.863543 
L 134.467834 193.174533 
L 142.415536 190.045258 
L 150.363239 184.76048 
L 158.310941 178.100778 
L 166.258643 173.936797 
L 174.206346 167.727309 
L 182.154048 200.38625 
L 190.101751 169.308465 
L 198.049453 153.813277 
" clip-path="url(#p33f5c81ead)" style="fill: none; stroke: #000000; stroke-opacity: 0.1; stroke-linecap: square"/>
   </g>
   <g id="line2d_9">
    <path d="M 23.2 164.906385 
L 31.147702 164.348996 
L 39.095405 165.084408 
L 47.043107 160.002813 
L 54.99081 151.598005 
L 62.938512 144.438356 
L 70.886214 139.1251 
L 78.833917 133.49835 
L 86.781619 138.804482 
L 94.729322 162.201074 
L 102.677024 146.356966 
L 110.624727 145.511057 
L 118.572429 139.285535 
L 126.520131 130.432284 
L 134.467834 128.628116 
L 142.415536 121.587478 
L 150.363239 118.132282 
L 158.310941 110.52666 
L 166.258643 107.132868 
L 174.206346 108.295538 
L 182.154048 125.973039 
L 190.101751 114.87565 
L 198.049453 108.435311 
" clip-path="url(#p33f5c81ead)" style="fill: none; stroke: #000000; stroke-opacity: 0.1; stroke-linecap: square"/>
   </g>
   <g id="line2d_10">
    <path d="M 23.2 164.906385 
L 31.147702 156.480294 
L 39.095405 151.112339 
L 47.043107 140.456126 
L 54.99081 132.887116 
L 62.938512 124.382917 
L 70.886214 117.407926 
L 78.833917 109.504723 
L 86.781619 113.950638 
L 94.729322 137.240878 
L 102.677024 131.286759 
L 110.624727 129.786725 
L 118.572429 126.380102 
L 126.520131 121.659024 
L 134.467834 111.198711 
L 142.415536 104.987623 
L 150.363239 99.85605 
L 158.310941 91.021158 
L 166.258643 87.384815 
L 174.206346 82.429067 
L 182.154048 132.464459 
L 190.101751 95.818153 
L 198.049453 75.661301 
" clip-path="url(#p33f5c81ead)" style="fill: none; stroke: #000000; stroke-opacity: 0.1; stroke-linecap: square"/>
   </g>
   <g id="line2d_11">
    <path d="M 23.2 164.906385 
L 31.147702 165.060357 
L 39.095405 162.14261 
L 47.043107 154.697688 
L 54.99081 143.232641 
L 62.938512 132.910552 
L 70.886214 125.40662 
L 78.833917 120.963531 
L 86.781619 124.488221 
L 94.729322 139.189526 
L 102.677024 131.535886 
L 110.624727 128.122438 
L 118.572429 121.645256 
L 126.520131 116.760656 
L 134.467834 110.077709 
L 142.415536 101.474075 
L 150.363239 97.281941 
L 158.310941 90.041661 
L 166.258643 78.965576 
L 174.206346 70.336029 
L 182.154048 88.110778 
L 190.101751 61.380353 
L 198.049453 53.79 
" clip-path="url(#p33f5c81ead)" style="fill: none; stroke: #000000; stroke-opacity: 0.1; stroke-linecap: square"/>
   </g>
   <g id="line2d_12">
    <path d="M 23.2 164.906385 
L 31.147702 160.113899 
L 39.095405 158.547267 
L 47.043107 158.118338 
L 54.99081 149.967737 
L 62.938512 146.347202 
L 70.886214 139.308624 
L 78.833917 131.924774 
L 86.781619 133.191232 
L 94.729322 147.259937 
L 102.677024 141.418424 
L 110.624727 134.459652 
L 118.572429 135.171943 
L 126.520131 134.930367 
L 134.467834 132.916126 
L 142.415536 129.766605 
L 150.363239 126.277566 
L 158.310941 117.81212 
L 166.258643 111.317803 
L 174.206346 104.74642 
L 182.154048 139.48377 
L 190.101751 114.274428 
L 198.049453 104.924905 
" clip-path="url(#p33f5c81ead)" style="fill: none; stroke: #bc80bd; stroke-width: 3; stroke-linecap: square"/>
   </g>
   <g id="patch_3">
    <path d="M 198.049453 200.38625 
L 198.049453 53.79 
" style="fill: none; stroke: #000000; stroke-width: 0.6; stroke-linejoin: miter; stroke-linecap: square"/>
   </g>
   <g id="patch_4">
    <path d="M 23.2 200.38625 
L 198.049453 200.38625 
" style="fill: none; stroke: #000000; stroke-width: 0.6; stroke-linejoin: miter; stroke-linecap: square"/>
   </g>
   <g id="text_7">
    <!-- France -->
    <g style="fill: #323034" transform="translate(92.937617 47.79) scale(0.13 -0.13)">
     <defs>
      <path id="STIXGeneral-Regular-46" d="M 3494 3322 
L 3334 3322 
Q 3264 3757 3094 3875 
Q 2925 3994 2349 3994 
L 1504 3994 
Q 1370 3994 1328 3946 
Q 1286 3898 1286 3744 
L 1286 2355 
L 2195 2355 
Q 2598 2355 2736 2470 
Q 2874 2586 2918 2963 
L 3066 2963 
L 3066 1472 
L 2918 1472 
Q 2880 1862 2745 1977 
Q 2611 2093 2195 2093 
L 1286 2093 
L 1286 717 
Q 1286 352 1392 246 
Q 1498 141 1869 122 
L 1869 0 
L 70 0 
L 70 122 
Q 435 147 534 259 
Q 634 371 634 787 
L 634 3526 
Q 634 3878 538 3984 
Q 442 4090 77 4115 
L 77 4237 
L 3462 4237 
L 3494 3322 
z
" transform="scale(0.015625)"/>
      <path id="STIXGeneral-Regular-72" d="M 1024 2931 
L 1024 2342 
Q 1267 2688 1430 2816 
Q 1594 2944 1792 2944 
Q 1958 2944 2051 2854 
Q 2144 2765 2144 2605 
Q 2144 2470 2077 2393 
Q 2010 2317 1894 2317 
Q 1773 2317 1638 2445 
Q 1536 2541 1472 2541 
Q 1338 2541 1181 2355 
Q 1024 2170 1024 2016 
L 1024 576 
Q 1024 301 1133 205 
Q 1242 109 1568 96 
L 1568 0 
L 32 0 
L 32 96 
Q 339 154 412 224 
Q 486 294 486 538 
L 486 2138 
Q 486 2349 438 2435 
Q 390 2522 269 2522 
Q 166 2522 45 2496 
L 45 2598 
Q 448 2726 992 2944 
L 1024 2931 
z
" transform="scale(0.015625)"/>
      <path id="STIXGeneral-Regular-61" d="M 2829 422 
L 2829 243 
Q 2586 -64 2253 -64 
Q 1888 -64 1843 403 
L 1837 403 
Q 1427 -64 909 -64 
Q 608 -64 422 112 
Q 237 288 237 602 
Q 237 1050 685 1350 
Q 992 1555 1837 1869 
L 1837 2214 
Q 1837 2502 1699 2646 
Q 1562 2790 1338 2790 
Q 1146 2790 1018 2697 
Q 890 2605 890 2477 
Q 890 2419 909 2348 
Q 928 2278 928 2208 
Q 928 2112 841 2029 
Q 755 1946 634 1946 
Q 525 1946 441 2029 
Q 358 2112 358 2240 
Q 358 2547 685 2752 
Q 986 2944 1421 2944 
Q 1939 2944 2176 2656 
Q 2291 2522 2323 2384 
Q 2355 2246 2355 1946 
L 2355 723 
Q 2355 301 2554 301 
Q 2682 301 2829 422 
z
M 1837 813 
L 1837 1715 
Q 1248 1510 1018 1293 
Q 800 1094 800 800 
Q 800 557 921 432 
Q 1043 307 1242 307 
Q 1453 307 1613 410 
Q 1747 506 1792 589 
Q 1837 672 1837 813 
z
" transform="scale(0.015625)"/>
      <path id="STIXGeneral-Regular-6e" d="M 3104 0 
L 1773 0 
L 1779 96 
Q 2016 115 2096 233 
Q 2176 352 2176 672 
L 2176 1946 
Q 2176 2592 1709 2592 
Q 1549 2592 1408 2515 
Q 1267 2438 1050 2227 
L 1050 461 
Q 1050 269 1136 192 
Q 1222 115 1466 96 
L 1466 0 
L 115 0 
L 115 96 
Q 358 115 435 214 
Q 512 314 512 602 
L 512 2157 
Q 512 2394 467 2483 
Q 422 2573 288 2573 
Q 160 2573 102 2547 
L 102 2656 
Q 550 2784 979 2944 
L 1030 2925 
L 1030 2426 
L 1037 2426 
Q 1491 2944 1958 2944 
Q 2323 2944 2518 2688 
Q 2714 2432 2714 1958 
L 2714 544 
Q 2714 288 2790 205 
Q 2867 122 3104 96 
L 3104 0 
z
" transform="scale(0.015625)"/>
      <path id="STIXGeneral-Regular-63" d="M 2547 998 
L 2637 941 
Q 2362 403 2112 205 
Q 1786 -64 1376 -64 
Q 845 -64 502 336 
Q 160 736 160 1357 
Q 160 2170 698 2618 
Q 1094 2944 1562 2944 
Q 1965 2944 2256 2749 
Q 2547 2554 2547 2285 
Q 2547 2176 2457 2096 
Q 2368 2016 2246 2016 
Q 2022 2016 1939 2310 
L 1901 2451 
Q 1850 2630 1773 2694 
Q 1696 2758 1523 2758 
Q 1133 2758 893 2451 
Q 653 2144 653 1645 
Q 653 1094 928 745 
Q 1203 397 1645 397 
Q 1920 397 2118 528 
Q 2317 659 2547 998 
z
" transform="scale(0.015625)"/>
      <path id="STIXGeneral-Regular-65" d="M 2611 1050 
L 2714 1005 
Q 2330 -64 1376 -64 
Q 813 -64 486 329 
Q 160 723 160 1389 
Q 160 2074 525 2509 
Q 890 2944 1485 2944 
Q 2061 2944 2374 2502 
Q 2560 2246 2592 1773 
L 621 1773 
Q 646 1370 700 1158 
Q 755 947 915 730 
Q 1184 378 1626 378 
Q 1939 378 2153 531 
Q 2368 685 2611 1050 
z
M 634 1978 
L 1939 1978 
Q 1882 2381 1750 2547 
Q 1619 2714 1312 2714 
Q 1043 2714 864 2525 
Q 685 2336 634 1978 
z
" transform="scale(0.015625)"/>
     </defs>
     <use xlink:href="#STIXGeneral-Regular-46"/>
     <use xlink:href="#STIXGeneral-Regular-72" x="55.599991"/>
     <use xlink:href="#STIXGeneral-Regular-61" x="88.899979"/>
     <use xlink:href="#STIXGeneral-Regular-6e" x="133.299973"/>
     <use xlink:href="#STIXGeneral-Regular-63" x="183.299957"/>
     <use xlink:href="#STIXGeneral-Regular-65" x="227.699951"/>
    </g>
   </g>
  </g>
  <g id="axes_2">
   <g id="patch_5">
    <path d="M 258.88 200.38625 
L 433.729453 200.38625 
L 433.729453 53.79 
L 258.88 53.79 
z
" style="fill: #ffffff"/>
   </g>
   <g id="matplotlib.axis_3">
    <g id="xtick_4">
     <g id="line2d_13">
      <g>
       <use xlink:href="#med36c3fe69" x="258.88" y="200.38625" style="fill: #323034; stroke: #323034; stroke-width: 0.8"/>
      </g>
     </g>
     <g id="text_8">
      <!-- $\mathdefault{2000}$ -->
      <g style="fill: #323034" transform="translate(242.88 218.31375) scale(0.16 -0.16)">
       <use xlink:href="#STIXGeneral-Regular-32" transform="translate(0 0.40625)"/>
       <use xlink:href="#STIXGeneral-Regular-30" transform="translate(49.999985 0.40625)"/>
       <use xlink:href="#STIXGeneral-Regular-30" transform="translate(99.999969 0.40625)"/>
       <use xlink:href="#STIXGeneral-Regular-30" transform="translate(149.999954 0.40625)"/>
      </g>
     </g>
    </g>
    <g id="xtick_5">
     <g id="line2d_14">
      <g>
       <use xlink:href="#med36c3fe69" x="338.357024" y="200.38625" style="fill: #323034; stroke: #323034; stroke-width: 0.8"/>
      </g>
     </g>
     <g id="text_9">
      <!-- $\mathdefault{2010}$ -->
      <g style="fill: #323034" transform="translate(322.357024 218.31375) scale(0.16 -0.16)">
       <use xlink:href="#STIXGeneral-Regular-32" transform="translate(0 0.40625)"/>
       <use xlink:href="#STIXGeneral-Regular-30" transform="translate(49.999985 0.40625)"/>
       <use xlink:href="#STIXGeneral-Regular-31" transform="translate(99.999969 0.40625)"/>
       <use xlink:href="#STIXGeneral-Regular-30" transform="translate(149.999954 0.40625)"/>
      </g>
     </g>
    </g>
    <g id="xtick_6">
     <g id="line2d_15">
      <g>
       <use xlink:href="#med36c3fe69" x="417.834048" y="200.38625" style="fill: #323034; stroke: #323034; stroke-width: 0.8"/>
      </g>
     </g>
     <g id="text_10">
      <!-- $\mathdefault{2020}$ -->
      <g style="fill: #323034" transform="translate(401.834048 218.31375) scale(0.16 -0.16)">
       <use xlink:href="#STIXGeneral-Regular-32" transform="translate(0 0.40625)"/>
       <use xlink:href="#STIXGeneral-Regular-30" transform="translate(49.999985 0.40625)"/>
       <use xlink:href="#STIXGeneral-Regular-32" transform="translate(99.999969 0.40625)"/>
       <use xlink:href="#STIXGeneral-Regular-30" transform="translate(149.999954 0.40625)"/>
      </g>
     </g>
    </g>
   </g>
   <g id="matplotlib.axis_4">
    <g id="ytick_4">
     <g id="line2d_16">
      <g>
       <use xlink:href="#m7327c6ca97" x="433.729453" y="164.906385" style="fill: #323034; stroke: #323034; stroke-width: 0.8"/>
      </g>
     </g>
     <g id="text_11">
      <!-- $\mathdefault{100}$ -->
      <g style="fill: #323034" transform="translate(440.729453 170.370135) scale(0.16 -0.16)">
       <use xlink:href="#STIXGeneral-Regular-31" transform="translate(0 0.40625)"/>
       <use xlink:href="#STIXGeneral-Regular-30" transform="translate(49.999985 0.40625)"/>
       <use xlink:href="#STIXGeneral-Regular-30" transform="translate(99.999969 0.40625)"/>
      </g>
     </g>
    </g>
    <g id="ytick_5">
     <g id="line2d_17">
      <g>
       <use xlink:href="#m7327c6ca97" x="433.729453" y="126.33592" style="fill: #323034; stroke: #323034; stroke-width: 0.8"/>
      </g>
     </g>
     <g id="text_12">
      <!-- $\mathdefault{110}$ -->
      <g style="fill: #323034" transform="translate(440.729453 131.79967) scale(0.16 -0.16)">
       <use xlink:href="#STIXGeneral-Regular-31" transform="translate(0 0.40625)"/>
       <use xlink:href="#STIXGeneral-Regular-31" transform="translate(49.999985 0.40625)"/>
       <use xlink:href="#STIXGeneral-Regular-30" transform="translate(99.999969 0.40625)"/>
      </g>
     </g>
    </g>
    <g id="ytick_6">
     <g id="line2d_18">
      <g>
       <use xlink:href="#m7327c6ca97" x="433.729453" y="87.765456" style="fill: #323034; stroke: #323034; stroke-width: 0.8"/>
      </g>
     </g>
     <g id="text_13">
      <!-- $\mathdefault{120}$ -->
      <g style="fill: #323034" transform="translate(440.729453 93.229206) scale(0.16 -0.16)">
       <use xlink:href="#STIXGeneral-Regular-31" transform="translate(0 0.40625)"/>
       <use xlink:href="#STIXGeneral-Regular-32" transform="translate(49.999985 0.40625)"/>
       <use xlink:href="#STIXGeneral-Regular-30" transform="translate(99.999969 0.40625)"/>
      </g>
     </g>
    </g>
   </g>
   <g id="line2d_19">
    <path d="M 258.88 164.906385 
L 266.827702 160.113899 
L 274.775405 158.547267 
L 282.723107 158.118338 
L 290.67081 149.967737 
L 298.618512 146.347202 
L 306.566214 139.308624 
L 314.513917 131.924774 
L 322.461619 133.191232 
L 330.409322 147.259937 
L 338.357024 141.418424 
L 346.304727 134.459652 
L 354.252429 135.171943 
L 362.200131 134.930367 
L 370.147834 132.916126 
L 378.095536 129.766605 
L 386.043239 126.277566 
L 393.990941 117.81212 
L 401.938643 111.317803 
L 409.886346 104.74642 
L 417.834048 139.48377 
L 425.781751 114.274428 
L 433.729453 104.924905 
" clip-path="url(#pc0bffd061a)" style="fill: none; stroke: #000000; stroke-opacity: 0.1; stroke-linecap: square"/>
   </g>
   <g id="line2d_20">
    <path d="M 258.88 164.906385 
L 266.827702 157.600661 
L 274.775405 157.188945 
L 282.723107 158.390884 
L 290.67081 155.373465 
L 298.618512 154.094254 
L 306.566214 148.205356 
L 314.513917 144.27819 
L 322.461619 150.844287 
L 330.409322 173.676998 
L 338.357024 168.396472 
L 346.304727 166.354347 
L 354.252429 178.81218 
L 362.200131 189.863543 
L 370.147834 193.174533 
L 378.095536 190.045258 
L 386.043239 184.76048 
L 393.990941 178.100778 
L 401.938643 173.936797 
L 409.886346 167.727309 
L 417.834048 200.38625 
L 425.781751 169.308465 
L 433.729453 153.813277 
" clip-path="url(#pc0bffd061a)" style="fill: none; stroke: #000000; stroke-opacity: 0.1; stroke-linecap: square"/>
   </g>
   <g id="line2d_21">
    <path d="M 258.88 164.906385 
L 266.827702 164.348996 
L 274.775405 165.084408 
L 282.723107 160.002813 
L 290.67081 151.598005 
L 298.618512 144.438356 
L 306.566214 139.1251 
L 314.513917 133.49835 
L 322.461619 138.804482 
L 330.409322 162.201074 
L 338.357024 146.356966 
L 346.304727 145.511057 
L 354.252429 139.285535 
L 362.200131 130.432284 
L 370.147834 128.628116 
L 378.095536 121.587478 
L 386.043239 118.132282 
L 393.990941 110.52666 
L 401.938643 107.132868 
L 409.886346 108.295538 
L 417.834048 125.973039 
L 425.781751 114.87565 
L 433.729453 108.435311 
" clip-path="url(#pc0bffd061a)" style="fill: none; stroke: #000000; stroke-opacity: 0.1; stroke-linecap: square"/>
   </g>
   <g id="line2d_22">
    <path d="M 258.88 164.906385 
L 266.827702 156.480294 
L 274.775405 151.112339 
L 282.723107 140.456126 
L 290.67081 132.887116 
L 298.618512 124.382917 
L 306.566214 117.407926 
L 314.513917 109.504723 
L 322.461619 113.950638 
L 330.409322 137.240878 
L 338.357024 131.286759 
L 346.304727 129.786725 
L 354.252429 126.380102 
L 362.200131 121.659024 
L 370.147834 111.198711 
L 378.095536 104.987623 
L 386.043239 99.85605 
L 393.990941 91.021158 
L 401.938643 87.384815 
L 409.886346 82.429067 
L 417.834048 132.464459 
L 425.781751 95.818153 
L 433.729453 75.661301 
" clip-path="url(#pc0bffd061a)" style="fill: none; stroke: #000000; stroke-opacity: 0.1; stroke-linecap: square"/>
   </g>
   <g id="line2d_23">
    <path d="M 258.88 164.906385 
L 266.827702 165.060357 
L 274.775405 162.14261 
L 282.723107 154.697688 
L 290.67081 143.232641 
L 298.618512 132.910552 
L 306.566214 125.40662 
L 314.513917 120.963531 
L 322.461619 124.488221 
L 330.409322 139.189526 
L 338.357024 131.535886 
L 346.304727 128.122438 
L 354.252429 121.645256 
L 362.200131 116.760656 
L 370.147834 110.077709 
L 378.095536 101.474075 
L 386.043239 97.281941 
L 393.990941 90.041661 
L 401.938643 78.965576 
L 409.886346 70.336029 
L 417.834048 88.110778 
L 425.781751 61.380353 
L 433.729453 53.79 
" clip-path="url(#pc0bffd061a)" style="fill: none; stroke: #000000; stroke-opacity: 0.1; stroke-linecap: square"/>
   </g>
   <g id="line2d_24">
    <path d="M 258.88 164.906385 
L 266.827702 159.080091 
L 274.775405 160.511639 
L 282.723107 163.457191 
L 290.67081 158.822745 
L 298.618512 155.73186 
L 306.566214 140.198853 
L 314.513917 127.417608 
L 322.461619 122.542294 
L 330.409322 145.891634 
L 338.357024 128.328403 
L 346.304727 103.541952 
L 354.252429 102.512973 
L 362.200131 101.778672 
L 370.147834 93.769968 
L 378.095536 90.950778 
L 386.043239 84.478292 
L 393.990941 73.770263 
L 401.938643 70.536269 
L 409.886346 66.466276 
L 417.834048 85.373598 
L 425.781751 70.857432 
L 433.729453 65.700312 
" clip-path="url(#pc0bffd061a)" style="fill: none; stroke: #fb8072; stroke-width: 3; stroke-linecap: square"/>
   </g>
   <g id="patch_6">
    <path d="M 433.729453 200.38625 
L 433.729453 53.79 
" style="fill: none; stroke: #000000; stroke-width: 0.6; stroke-linejoin: miter; stroke-linecap: square"/>
   </g>
   <g id="patch_7">
    <path d="M 258.88 200.38625 
L 433.729453 200.38625 
" style="fill: none; stroke: #000000; stroke-width: 0.6; stroke-linejoin: miter; stroke-linecap: square"/>
   </g>
   <g id="text_14">
    <!-- Germany -->
    <g style="fill: #323034" transform="translate(322.117617 47.79) scale(0.13 -0.13)">
     <defs>
      <path id="STIXGeneral-Regular-47" d="M 4538 2266 
L 4538 2150 
Q 4256 2125 4173 2035 
Q 4090 1946 4090 1638 
L 4090 358 
Q 3539 -90 2464 -90 
Q 1965 -90 1507 89 
Q 1050 269 736 595 
Q 205 1152 205 2093 
Q 205 3155 890 3776 
Q 1491 4326 2419 4326 
Q 2829 4326 3270 4179 
Q 3443 4115 3552 4115 
Q 3654 4115 3731 4176 
Q 3808 4237 3840 4326 
L 3981 4326 
L 4032 2976 
L 3885 2976 
Q 3680 3475 3430 3718 
Q 3059 4070 2496 4070 
Q 1856 4070 1427 3629 
Q 934 3136 934 2074 
Q 934 1190 1395 678 
Q 1856 166 2618 166 
Q 2982 166 3225 281 
Q 3469 397 3469 557 
L 3469 1562 
Q 3469 1933 3376 2025 
Q 3283 2118 2899 2150 
L 2899 2266 
L 4538 2266 
z
" transform="scale(0.015625)"/>
      <path id="STIXGeneral-Regular-6d" d="M 4960 0 
L 3565 0 
L 3565 96 
Q 3834 122 3907 208 
Q 3981 294 3981 576 
L 3981 1894 
Q 3981 2278 3869 2444 
Q 3757 2611 3488 2611 
Q 3264 2611 3107 2521 
Q 2950 2432 2803 2221 
L 2803 608 
Q 2803 301 2896 201 
Q 2989 102 3264 96 
L 3264 0 
L 1830 0 
L 1830 96 
Q 2112 115 2189 188 
Q 2266 262 2266 550 
L 2266 1901 
Q 2266 2611 1850 2611 
Q 1670 2611 1468 2531 
Q 1267 2451 1171 2336 
Q 1088 2240 1088 2227 
L 1088 448 
Q 1088 243 1177 176 
Q 1267 109 1523 96 
L 1523 0 
L 102 0 
L 102 96 
Q 371 102 460 195 
Q 550 288 550 563 
L 550 2150 
Q 550 2387 499 2480 
Q 448 2573 326 2573 
Q 230 2573 122 2547 
L 122 2656 
Q 557 2778 1011 2944 
L 1062 2925 
L 1062 2451 
L 1075 2451 
Q 1363 2752 1584 2848 
Q 1805 2944 2054 2944 
Q 2560 2944 2733 2406 
Q 3232 2944 3776 2944 
Q 4518 2944 4518 1792 
L 4518 493 
Q 4518 282 4582 202 
Q 4646 122 4794 109 
L 4960 96 
L 4960 0 
z
" transform="scale(0.015625)"/>
      <path id="STIXGeneral-Regular-79" d="M 3040 2880 
L 3040 2784 
Q 2925 2771 2854 2700 
Q 2784 2630 2720 2458 
L 1760 -160 
Q 1510 -838 1257 -1116 
Q 1005 -1395 640 -1395 
Q 435 -1395 313 -1289 
Q 192 -1184 192 -1024 
Q 192 -902 272 -816 
Q 352 -730 467 -730 
Q 653 -730 800 -813 
Q 883 -858 966 -858 
Q 1101 -858 1286 -576 
Q 1376 -448 1459 -211 
Q 1542 26 1542 115 
Q 1542 198 1274 762 
L 429 2566 
Q 346 2752 90 2790 
L 90 2880 
L 1402 2880 
L 1402 2784 
Q 1197 2778 1117 2739 
Q 1037 2701 1037 2611 
Q 1037 2541 1120 2349 
L 1837 749 
L 2458 2515 
Q 2483 2573 2483 2630 
Q 2483 2784 2189 2784 
L 2189 2880 
L 3040 2880 
z
" transform="scale(0.015625)"/>
     </defs>
     <use xlink:href="#STIXGeneral-Regular-47"/>
     <use xlink:href="#STIXGeneral-Regular-65" x="72.199982"/>
     <use xlink:href="#STIXGeneral-Regular-72" x="116.599976"/>
     <use xlink:href="#STIXGeneral-Regular-6d" x="149.899963"/>
     <use xlink:href="#STIXGeneral-Regular-61" x="227.699951"/>
     <use xlink:href="#STIXGeneral-Regular-6e" x="272.099945"/>
     <use xlink:href="#STIXGeneral-Regular-79" x="322.09993"/>
    </g>
   </g>
  </g>
  <g id="axes_3">
   <g id="patch_8">
    <path d="M 494.56 200.38625 
L 669.409453 200.38625 
L 669.409453 53.79 
L 494.56 53.79 
z
" style="fill: #ffffff"/>
   </g>
   <g id="matplotlib.axis_5">
    <g id="xtick_7">
     <g id="line2d_25">
      <g>
       <use xlink:href="#med36c3fe69" x="494.56" y="200.38625" style="fill: #323034; stroke: #323034; stroke-width: 0.8"/>
      </g>
     </g>
     <g id="text_15">
      <!-- $\mathdefault{2000}$ -->
      <g style="fill: #323034" transform="translate(478.56 218.31375) scale(0.16 -0.16)">
       <use xlink:href="#STIXGeneral-Regular-32" transform="translate(0 0.40625)"/>
       <use xlink:href="#STIXGeneral-Regular-30" transform="translate(49.999985 0.40625)"/>
       <use xlink:href="#STIXGeneral-Regular-30" transform="translate(99.999969 0.40625)"/>
       <use xlink:href="#STIXGeneral-Regular-30" transform="translate(149.999954 0.40625)"/>
      </g>
     </g>
    </g>
    <g id="xtick_8">
     <g id="line2d_26">
      <g>
       <use xlink:href="#med36c3fe69" x="574.037024" y="200.38625" style="fill: #323034; stroke: #323034; stroke-width: 0.8"/>
      </g>
     </g>
     <g id="text_16">
      <!-- $\mathdefault{2010}$ -->
      <g style="fill: #323034" transform="translate(558.037024 218.31375) scale(0.16 -0.16)">
       <use xlink:href="#STIXGeneral-Regular-32" transform="translate(0 0.40625)"/>
       <use xlink:href="#STIXGeneral-Regular-30" transform="translate(49.999985 0.40625)"/>
       <use xlink:href="#STIXGeneral-Regular-31" transform="translate(99.999969 0.40625)"/>
       <use xlink:href="#STIXGeneral-Regular-30" transform="translate(149.999954 0.40625)"/>
      </g>
     </g>
    </g>
    <g id="xtick_9">
     <g id="line2d_27">
      <g>
       <use xlink:href="#med36c3fe69" x="653.514048" y="200.38625" style="fill: #323034; stroke: #323034; stroke-width: 0.8"/>
      </g>
     </g>
     <g id="text_17">
      <!-- $\mathdefault{2020}$ -->
      <g style="fill: #323034" transform="translate(637.514048 218.31375) scale(0.16 -0.16)">
       <use xlink:href="#STIXGeneral-Regular-32" transform="translate(0 0.40625)"/>
       <use xlink:href="#STIXGeneral-Regular-30" transform="translate(49.999985 0.40625)"/>
       <use xlink:href="#STIXGeneral-Regular-32" transform="translate(99.999969 0.40625)"/>
       <use xlink:href="#STIXGeneral-Regular-30" transform="translate(149.999954 0.40625)"/>
      </g>
     </g>
    </g>
   </g>
   <g id="matplotlib.axis_6">
    <g id="ytick_7">
     <g id="line2d_28">
      <g>
       <use xlink:href="#m7327c6ca97" x="669.409453" y="164.906385" style="fill: #323034; stroke: #323034; stroke-width: 0.8"/>
      </g>
     </g>
     <g id="text_18">
      <!-- $\mathdefault{100}$ -->
      <g style="fill: #323034" transform="translate(676.409453 170.370135) scale(0.16 -0.16)">
       <use xlink:href="#STIXGeneral-Regular-31" transform="translate(0 0.40625)"/>
       <use xlink:href="#STIXGeneral-Regular-30" transform="translate(49.999985 0.40625)"/>
       <use xlink:href="#STIXGeneral-Regular-30" transform="translate(99.999969 0.40625)"/>
      </g>
     </g>
    </g>
    <g id="ytick_8">
     <g id="line2d_29">
      <g>
       <use xlink:href="#m7327c6ca97" x="669.409453" y="126.33592" style="fill: #323034; stroke: #323034; stroke-width: 0.8"/>
      </g>
     </g>
     <g id="text_19">
      <!-- $\mathdefault{110}$ -->
      <g style="fill: #323034" transform="translate(676.409453 131.79967) scale(0.16 -0.16)">
       <use xlink:href="#STIXGeneral-Regular-31" transform="translate(0 0.40625)"/>
       <use xlink:href="#STIXGeneral-Regular-31" transform="translate(49.999985 0.40625)"/>
       <use xlink:href="#STIXGeneral-Regular-30" transform="translate(99.999969 0.40625)"/>
      </g>
     </g>
    </g>
    <g id="ytick_9">
     <g id="line2d_30">
      <g>
       <use xlink:href="#m7327c6ca97" x="669.409453" y="87.765456" style="fill: #323034; stroke: #323034; stroke-width: 0.8"/>
      </g>
     </g>
     <g id="text_20">
      <!-- $\mathdefault{120}$ -->
      <g style="fill: #323034" transform="translate(676.409453 93.229206) scale(0.16 -0.16)">
       <use xlink:href="#STIXGeneral-Regular-31" transform="translate(0 0.40625)"/>
       <use xlink:href="#STIXGeneral-Regular-32" transform="translate(49.999985 0.40625)"/>
       <use xlink:href="#STIXGeneral-Regular-30" transform="translate(99.999969 0.40625)"/>
      </g>
     </g>
    </g>
   </g>
   <g id="line2d_31">
    <path d="M 494.56 164.906385 
L 502.507702 160.113899 
L 510.455405 158.547267 
L 518.403107 158.118338 
L 526.35081 149.967737 
L 534.298512 146.347202 
L 542.246214 139.308624 
L 550.193917 131.924774 
L 558.141619 133.191232 
L 566.089322 147.259937 
L 574.037024 141.418424 
L 581.984727 134.459652 
L 589.932429 135.171943 
L 597.880131 134.930367 
L 605.827834 132.916126 
L 613.775536 129.766605 
L 621.723239 126.277566 
L 629.670941 117.81212 
L 637.618643 111.317803 
L 645.566346 104.74642 
L 653.514048 139.48377 
L 661.461751 114.274428 
L 669.409453 104.924905 
" clip-path="url(#p12bbf1cedf)" style="fill: none; stroke: #000000; stroke-opacity: 0.1; stroke-linecap: square"/>
   </g>
   <g id="line2d_32">
    <path d="M 494.56 164.906385 
L 502.507702 159.080091 
L 510.455405 160.511639 
L 518.403107 163.457191 
L 526.35081 158.822745 
L 534.298512 155.73186 
L 542.246214 140.198853 
L 550.193917 127.417608 
L 558.141619 122.542294 
L 566.089322 145.891634 
L 574.037024 128.328403 
L 581.984727 103.541952 
L 589.932429 102.512973 
L 597.880131 101.778672 
L 605.827834 93.769968 
L 613.775536 90.950778 
L 621.723239 84.478292 
L 629.670941 73.770263 
L 637.618643 70.536269 
L 645.566346 66.466276 
L 653.514048 85.373598 
L 661.461751 70.857432 
L 669.409453 65.700312 
" clip-path="url(#p12bbf1cedf)" style="fill: none; stroke: #000000; stroke-opacity: 0.1; stroke-linecap: square"/>
   </g>
   <g id="line2d_33">
    <path d="M 494.56 164.906385 
L 502.507702 164.348996 
L 510.455405 165.084408 
L 518.403107 160.002813 
L 526.35081 151.598005 
L 534.298512 144.438356 
L 542.246214 139.1251 
L 550.193917 133.49835 
L 558.141619 138.804482 
L 566.089322 162.201074 
L 574.037024 146.356966 
L 581.984727 145.511057 
L 589.932429 139.285535 
L 597.880131 130.432284 
L 605.827834 128.628116 
L 613.775536 121.587478 
L 621.723239 118.132282 
L 629.670941 110.52666 
L 637.618643 107.132868 
L 645.566346 108.295538 
L 653.514048 125.973039 
L 661.461751 114.87565 
L 669.409453 108.435311 
" clip-path="url(#p12bbf1cedf)" style="fill: none; stroke: #000000; stroke-opacity: 0.1; stroke-linecap: square"/>
   </g>
   <g id="line2d_34">
    <path d="M 494.56 164.906385 
L 502.507702 156.480294 
L 510.455405 151.112339 
L 518.403107 140.456126 
L 526.35081 132.887116 
L 534.298512 124.382917 
L 542.246214 117.407926 
L 550.193917 109.504723 
L 558.141619 113.950638 
L 566.089322 137.240878 
L 574.037024 131.286759 
L 581.984727 129.786725 
L 589.932429 126.380102 
L 597.880131 121.659024 
L 605.827834 111.198711 
L 613.775536 104.987623 
L 621.723239 99.85605 
L 629.670941 91.021158 
L 637.618643 87.384815 
L 645.566346 82.429067 
L 653.514048 132.464459 
L 661.461751 95.818153 
L 669.409453 75.661301 
" clip-path="url(#p12bbf1cedf)" style="fill: none; stroke: #000000; stroke-opacity: 0.1; stroke-linecap: square"/>
   </g>
   <g id="line2d_35">
    <path d="M 494.56 164.906385 
L 502.507702 165.060357 
L 510.455405 162.14261 
L 518.403107 154.697688 
L 526.35081 143.232641 
L 534.298512 132.910552 
L 542.246214 125.40662 
L 550.193917 120.963531 
L 558.141619 124.488221 
L 566.089322 139.189526 
L 574.037024 131.535886 
L 581.984727 128.122438 
L 589.932429 121.645256 
L 597.880131 116.760656 
L 605.827834 110.077709 
L 613.775536 101.474075 
L 621.723239 97.281941 
L 629.670941 90.041661 
L 637.618643 78.965576 
L 645.566346 70.336029 
L 653.514048 88.110778 
L 661.461751 61.380353 
L 669.409453 53.79 
" clip-path="url(#p12bbf1cedf)" style="fill: none; stroke: #000000; stroke-opacity: 0.1; stroke-linecap: square"/>
   </g>
   <g id="line2d_36">
    <path d="M 494.56 164.906385 
L 502.507702 157.600661 
L 510.455405 157.188945 
L 518.403107 158.390884 
L 526.35081 155.373465 
L 534.298512 154.094254 
L 542.246214 148.205356 
L 550.193917 144.27819 
L 558.141619 150.844287 
L 566.089322 173.676998 
L 574.037024 168.396472 
L 581.984727 166.354347 
L 589.932429 178.81218 
L 597.880131 189.863543 
L 605.827834 193.174533 
L 613.775536 190.045258 
L 621.723239 184.76048 
L 629.670941 178.100778 
L 637.618643 173.936797 
L 645.566346 167.727309 
L 653.514048 200.38625 
L 661.461751 169.308465 
L 669.409453 153.813277 
" clip-path="url(#p12bbf1cedf)" style="fill: none; stroke: #b3de69; stroke-width: 3; stroke-linecap: square"/>
   </g>
   <g id="patch_9">
    <path d="M 669.409453 200.38625 
L 669.409453 53.79 
" style="fill: none; stroke: #000000; stroke-width: 0.6; stroke-linejoin: miter; stroke-linecap: square"/>
   </g>
   <g id="patch_10">
    <path d="M 494.56 200.38625 
L 669.409453 200.38625 
" style="fill: none; stroke: #000000; stroke-width: 0.6; stroke-linejoin: miter; stroke-linecap: square"/>
   </g>
   <g id="text_21">
    <!-- Italy -->
    <g style="fill: #323034" transform="translate(570.07043 47.79) scale(0.13 -0.13)">
     <defs>
      <path id="STIXGeneral-Regular-49" d="M 2016 0 
L 115 0 
L 115 122 
Q 518 134 627 240 
Q 736 346 736 717 
L 736 3526 
Q 736 3898 633 3994 
Q 531 4090 115 4115 
L 115 4237 
L 2016 4237 
L 2016 4115 
Q 1613 4096 1501 3993 
Q 1389 3891 1389 3526 
L 1389 717 
Q 1389 358 1504 246 
Q 1619 134 2016 122 
L 2016 0 
z
" transform="scale(0.015625)"/>
      <path id="STIXGeneral-Regular-74" d="M 1702 493 
L 1786 422 
Q 1478 -64 1011 -64 
Q 448 -64 448 749 
L 448 2675 
L 109 2675 
Q 83 2694 83 2720 
Q 83 2771 192 2842 
Q 435 2982 813 3526 
Q 826 3546 874 3606 
Q 922 3667 941 3706 
Q 986 3706 986 3622 
L 986 2880 
L 1632 2880 
L 1632 2675 
L 986 2675 
L 986 845 
Q 986 538 1062 403 
Q 1139 269 1318 269 
Q 1510 269 1702 493 
z
" transform="scale(0.015625)"/>
      <path id="STIXGeneral-Regular-6c" d="M 1645 0 
L 134 0 
L 134 96 
Q 435 122 531 221 
Q 627 320 627 589 
L 627 3590 
Q 627 3821 569 3910 
Q 512 4000 358 4000 
Q 224 4000 122 3987 
L 122 4090 
Q 730 4237 1133 4371 
L 1165 4346 
L 1165 557 
Q 1165 288 1254 201 
Q 1344 115 1645 96 
L 1645 0 
z
" transform="scale(0.015625)"/>
     </defs>
     <use xlink:href="#STIXGeneral-Regular-49"/>
     <use xlink:href="#STIXGeneral-Regular-74" x="33.299988"/>
     <use xlink:href="#STIXGeneral-Regular-61" x="61.099976"/>
     <use xlink:href="#STIXGeneral-Regular-6c" x="105.499969"/>
     <use xlink:href="#STIXGeneral-Regular-79" x="133.299957"/>
    </g>
   </g>
  </g>
  <g id="axes_4">
   <g id="patch_11">
    <path d="M 23.2 396.4925 
L 198.049453 396.4925 
L 198.049453 249.89625 
L 23.2 249.89625 
z
" style="fill: #ffffff"/>
   </g>
   <g id="matplotlib.axis_7">
    <g id="xtick_10">
     <g id="line2d_37">
      <g>
       <use xlink:href="#med36c3fe69" x="23.2" y="396.4925" style="fill: #323034; stroke: #323034; stroke-width: 0.8"/>
      </g>
     </g>
     <g id="text_22">
      <!-- $\mathdefault{2000}$ -->
      <g style="fill: #323034" transform="translate(7.2 414.42) scale(0.16 -0.16)">
       <use xlink:href="#STIXGeneral-Regular-32" transform="translate(0 0.40625)"/>
       <use xlink:href="#STIXGeneral-Regular-30" transform="translate(49.999985 0.40625)"/>
       <use xlink:href="#STIXGeneral-Regular-30" transform="translate(99.999969 0.40625)"/>
       <use xlink:href="#STIXGeneral-Regular-30" transform="translate(149.999954 0.40625)"/>
      </g>
     </g>
    </g>
    <g id="xtick_11">
     <g id="line2d_38">
      <g>
       <use xlink:href="#med36c3fe69" x="102.677024" y="396.4925" style="fill: #323034; stroke: #323034; stroke-width: 0.8"/>
      </g>
     </g>
     <g id="text_23">
      <!-- $\mathdefault{2010}$ -->
      <g style="fill: #323034" transform="translate(86.677024 414.42) scale(0.16 -0.16)">
       <use xlink:href="#STIXGeneral-Regular-32" transform="translate(0 0.40625)"/>
       <use xlink:href="#STIXGeneral-Regular-30" transform="translate(49.999985 0.40625)"/>
       <use xlink:href="#STIXGeneral-Regular-31" transform="translate(99.999969 0.40625)"/>
       <use xlink:href="#STIXGeneral-Regular-30" transform="translate(149.999954 0.40625)"/>
      </g>
     </g>
    </g>
    <g id="xtick_12">
     <g id="line2d_39">
      <g>
       <use xlink:href="#med36c3fe69" x="182.154048" y="396.4925" style="fill: #323034; stroke: #323034; stroke-width: 0.8"/>
      </g>
     </g>
     <g id="text_24">
      <!-- $\mathdefault{2020}$ -->
      <g style="fill: #323034" transform="translate(166.154048 414.42) scale(0.16 -0.16)">
       <use xlink:href="#STIXGeneral-Regular-32" transform="translate(0 0.40625)"/>
       <use xlink:href="#STIXGeneral-Regular-30" transform="translate(49.999985 0.40625)"/>
       <use xlink:href="#STIXGeneral-Regular-32" transform="translate(99.999969 0.40625)"/>
       <use xlink:href="#STIXGeneral-Regular-30" transform="translate(149.999954 0.40625)"/>
      </g>
     </g>
    </g>
   </g>
   <g id="matplotlib.axis_8">
    <g id="ytick_10">
     <g id="line2d_40">
      <g>
       <use xlink:href="#m7327c6ca97" x="198.049453" y="361.012635" style="fill: #323034; stroke: #323034; stroke-width: 0.8"/>
      </g>
     </g>
     <g id="text_25">
      <!-- $\mathdefault{100}$ -->
      <g style="fill: #323034" transform="translate(205.049453 366.476385) scale(0.16 -0.16)">
       <use xlink:href="#STIXGeneral-Regular-31" transform="translate(0 0.40625)"/>
       <use xlink:href="#STIXGeneral-Regular-30" transform="translate(49.999985 0.40625)"/>
       <use xlink:href="#STIXGeneral-Regular-30" transform="translate(99.999969 0.40625)"/>
      </g>
     </g>
    </g>
    <g id="ytick_11">
     <g id="line2d_41">
      <g>
       <use xlink:href="#m7327c6ca97" x="198.049453" y="322.44217" style="fill: #323034; stroke: #323034; stroke-width: 0.8"/>
      </g>
     </g>
     <g id="text_26">
      <!-- $\mathdefault{110}$ -->
      <g style="fill: #323034" transform="translate(205.049453 327.90592) scale(0.16 -0.16)">
       <use xlink:href="#STIXGeneral-Regular-31" transform="translate(0 0.40625)"/>
       <use xlink:href="#STIXGeneral-Regular-31" transform="translate(49.999985 0.40625)"/>
       <use xlink:href="#STIXGeneral-Regular-30" transform="translate(99.999969 0.40625)"/>
      </g>
     </g>
    </g>
    <g id="ytick_12">
     <g id="line2d_42">
      <g>
       <use xlink:href="#m7327c6ca97" x="198.049453" y="283.871706" style="fill: #323034; stroke: #323034; stroke-width: 0.8"/>
      </g>
     </g>
     <g id="text_27">
      <!-- $\mathdefault{120}$ -->
      <g style="fill: #323034" transform="translate(205.049453 289.335456) scale(0.16 -0.16)">
       <use xlink:href="#STIXGeneral-Regular-31" transform="translate(0 0.40625)"/>
       <use xlink:href="#STIXGeneral-Regular-32" transform="translate(49.999985 0.40625)"/>
       <use xlink:href="#STIXGeneral-Regular-30" transform="translate(99.999969 0.40625)"/>
      </g>
     </g>
    </g>
   </g>
   <g id="line2d_43">
    <path d="M 23.2 361.012635 
L 31.147702 356.220149 
L 39.095405 354.653517 
L 47.043107 354.224588 
L 54.99081 346.073987 
L 62.938512 342.453452 
L 70.886214 335.414874 
L 78.833917 328.031024 
L 86.781619 329.297482 
L 94.729322 343.366187 
L 102.677024 337.524674 
L 110.624727 330.565902 
L 118.572429 331.278193 
L 126.520131 331.036617 
L 134.467834 329.022376 
L 142.415536 325.872855 
L 150.363239 322.383816 
L 158.310941 313.91837 
L 166.258643 307.424053 
L 174.206346 300.85267 
L 182.154048 335.59002 
L 190.101751 310.380678 
L 198.049453 301.031155 
" clip-path="url(#p0c0417ce29)" style="fill: none; stroke: #000000; stroke-opacity: 0.1; stroke-linecap: square"/>
   </g>
   <g id="line2d_44">
    <path d="M 23.2 361.012635 
L 31.147702 355.186341 
L 39.095405 356.617889 
L 47.043107 359.563441 
L 54.99081 354.928995 
L 62.938512 351.83811 
L 70.886214 336.305103 
L 78.833917 323.523858 
L 86.781619 318.648544 
L 94.729322 341.997884 
L 102.677024 324.434653 
L 110.624727 299.648202 
L 118.572429 298.619223 
L 126.520131 297.884922 
L 134.467834 289.876218 
L 142.415536 287.057028 
L 150.363239 280.584542 
L 158.310941 269.876513 
L 166.258643 266.642519 
L 174.206346 262.572526 
L 182.154048 281.479848 
L 190.101751 266.963682 
L 198.049453 261.806562 
" clip-path="url(#p0c0417ce29)" style="fill: none; stroke: #000000; stroke-opacity: 0.1; stroke-linecap: square"/>
   </g>
   <g id="line2d_45">
    <path d="M 23.2 361.012635 
L 31.147702 353.706911 
L 39.095405 353.295195 
L 47.043107 354.497134 
L 54.99081 351.479715 
L 62.938512 350.200504 
L 70.886214 344.311606 
L 78.833917 340.38444 
L 86.781619 346.950537 
L 94.729322 369.783248 
L 102.677024 364.502722 
L 110.624727 362.460597 
L 118.572429 374.91843 
L 126.520131 385.969793 
L 134.467834 389.280783 
L 142.415536 386.151508 
L 150.363239 380.86673 
L 158.310941 374.207028 
L 166.258643 370.043047 
L 174.206346 363.833559 
L 182.154048 396.4925 
L 190.101751 365.414715 
L 198.049453 349.919527 
" clip-path="url(#p0c0417ce29)" style="fill: none; stroke: #000000; stroke-opacity: 0.1; stroke-linecap: square"/>
   </g>
   <g id="line2d_46">
    <path d="M 23.2 361.012635 
L 31.147702 352.586544 
L 39.095405 347.218589 
L 47.043107 336.562376 
L 54.99081 328.993366 
L 62.938512 320.489167 
L 70.886214 313.514176 
L 78.833917 305.610973 
L 86.781619 310.056888 
L 94.729322 333.347128 
L 102.677024 327.393009 
L 110.624727 325.892975 
L 118.572429 322.486352 
L 126.520131 317.765274 
L 134.467834 307.304961 
L 142.415536 301.093873 
L 150.363239 295.9623 
L 158.310941 287.127408 
L 166.258643 283.491065 
L 174.206346 278.535317 
L 182.154048 328.570709 
L 190.101751 291.924403 
L 198.049453 271.767551 
" clip-path="url(#p0c0417ce29)" style="fill: none; stroke: #000000; stroke-opacity: 0.1; stroke-linecap: square"/>
   </g>
   <g id="line2d_47">
    <path d="M 23.2 361.012635 
L 31.147702 361.166607 
L 39.095405 358.24886 
L 47.043107 350.803938 
L 54.99081 339.338891 
L 62.938512 329.016802 
L 70.886214 321.51287 
L 78.833917 317.069781 
L 86.781619 320.594471 
L 94.729322 335.295776 
L 102.677024 327.642136 
L 110.624727 324.228688 
L 118.572429 317.751506 
L 126.520131 312.866906 
L 134.467834 306.183959 
L 142.415536 297.580325 
L 150.363239 293.388191 
L 158.310941 286.147911 
L 166.258643 275.071826 
L 174.206346 266.442279 
L 182.154048 284.217028 
L 190.101751 257.486603 
L 198.049453 249.89625 
" clip-path="url(#p0c0417ce29)" style="fill: none; stroke: #000000; stroke-opacity: 0.1; stroke-linecap: square"/>
   </g>
   <g id="line2d_48">
    <path d="M 23.2 361.012635 
L 31.147702 360.455246 
L 39.095405 361.190658 
L 47.043107 356.109063 
L 54.99081 347.704255 
L 62.938512 340.544606 
L 70.886214 335.23135 
L 78.833917 329.6046 
L 86.781619 334.910732 
L 94.729322 358.307324 
L 102.677024 342.463216 
L 110.624727 341.617307 
L 118.572429 335.391785 
L 126.520131 326.538534 
L 134.467834 324.734366 
L 142.415536 317.693728 
L 150.363239 314.238532 
L 158.310941 306.63291 
L 166.258643 303.239118 
L 174.206346 304.401788 
L 182.154048 322.079289 
L 190.101751 310.9819 
L 198.049453 304.541561 
" clip-path="url(#p0c0417ce29)" style="fill: none; stroke: #fdb462; stroke-width: 3; stroke-linecap: square"/>
   </g>
   <g id="patch_12">
    <path d="M 198.049453 396.4925 
L 198.049453 249.89625 
" style="fill: none; stroke: #000000; stroke-width: 0.6; stroke-linejoin: miter; stroke-linecap: square"/>
   </g>
   <g id="patch_13">
    <path d="M 23.2 396.4925 
L 198.049453 396.4925 
" style="fill: none; stroke: #000000; stroke-width: 0.6; stroke-linejoin: miter; stroke-linecap: square"/>
   </g>
   <g id="text_28">
    <!-- Japan -->
    <g style="fill: #323034" transform="translate(95.927617 243.89625) scale(0.13 -0.13)">
     <defs>
      <path id="STIXGeneral-Regular-4a" d="M 2266 4237 
L 2266 4115 
Q 1875 4083 1776 3984 
Q 1677 3885 1677 3514 
L 1677 1184 
Q 1677 -90 608 -90 
Q 314 -90 138 32 
Q -38 154 -38 371 
Q -38 499 54 601 
Q 147 704 275 704 
Q 486 704 589 435 
Q 602 403 621 348 
Q 640 294 649 265 
Q 659 237 678 208 
Q 698 179 723 166 
Q 749 154 787 154 
Q 928 154 976 253 
Q 1024 352 1024 602 
L 1024 3520 
Q 1024 3898 928 3990 
Q 832 4083 429 4115 
L 429 4237 
L 2266 4237 
z
" transform="scale(0.015625)"/>
      <path id="STIXGeneral-Regular-70" d="M 1018 2931 
L 1018 2438 
Q 1421 2944 1939 2944 
Q 2406 2944 2707 2560 
Q 3008 2176 3008 1581 
Q 3008 883 2621 409 
Q 2234 -64 1664 -64 
Q 1466 -64 1328 -6 
Q 1190 51 1018 211 
L 1018 -794 
Q 1018 -1094 1120 -1180 
Q 1222 -1267 1581 -1274 
L 1581 -1389 
L 32 -1389 
L 32 -1280 
Q 314 -1254 397 -1171 
Q 480 -1088 480 -838 
L 480 2157 
Q 480 2381 429 2451 
Q 378 2522 218 2522 
Q 115 2522 58 2515 
L 58 2618 
Q 506 2752 979 2944 
L 1018 2931 
z
M 1018 2138 
L 1018 563 
Q 1018 422 1238 281 
Q 1459 141 1683 141 
Q 2029 141 2243 467 
Q 2458 794 2458 1325 
Q 2458 1888 2243 2224 
Q 2029 2560 1670 2560 
Q 1446 2560 1232 2419 
Q 1018 2278 1018 2138 
z
" transform="scale(0.015625)"/>
     </defs>
     <use xlink:href="#STIXGeneral-Regular-4a"/>
     <use xlink:href="#STIXGeneral-Regular-61" x="37.299988"/>
     <use xlink:href="#STIXGeneral-Regular-70" x="81.699982"/>
     <use xlink:href="#STIXGeneral-Regular-61" x="131.699966"/>
     <use xlink:href="#STIXGeneral-Regular-6e" x="176.09996"/>
    </g>
   </g>
  </g>
  <g id="axes_5">
   <g id="patch_14">
    <path d="M 258.88 396.4925 
L 433.729453 396.4925 
L 433.729453 249.89625 
L 258.88 249.89625 
z
" style="fill: #ffffff"/>
   </g>
   <g id="matplotlib.axis_9">
    <g id="xtick_13">
     <g id="line2d_49">
      <g>
       <use xlink:href="#med36c3fe69" x="258.88" y="396.4925" style="fill: #323034; stroke: #323034; stroke-width: 0.8"/>
      </g>
     </g>
     <g id="text_29">
      <!-- $\mathdefault{2000}$ -->
      <g style="fill: #323034" transform="translate(242.88 414.42) scale(0.16 -0.16)">
       <use xlink:href="#STIXGeneral-Regular-32" transform="translate(0 0.40625)"/>
       <use xlink:href="#STIXGeneral-Regular-30" transform="translate(49.999985 0.40625)"/>
       <use xlink:href="#STIXGeneral-Regular-30" transform="translate(99.999969 0.40625)"/>
       <use xlink:href="#STIXGeneral-Regular-30" transform="translate(149.999954 0.40625)"/>
      </g>
     </g>
    </g>
    <g id="xtick_14">
     <g id="line2d_50">
      <g>
       <use xlink:href="#med36c3fe69" x="338.357024" y="396.4925" style="fill: #323034; stroke: #323034; stroke-width: 0.8"/>
      </g>
     </g>
     <g id="text_30">
      <!-- $\mathdefault{2010}$ -->
      <g style="fill: #323034" transform="translate(322.357024 414.42) scale(0.16 -0.16)">
       <use xlink:href="#STIXGeneral-Regular-32" transform="translate(0 0.40625)"/>
       <use xlink:href="#STIXGeneral-Regular-30" transform="translate(49.999985 0.40625)"/>
       <use xlink:href="#STIXGeneral-Regular-31" transform="translate(99.999969 0.40625)"/>
       <use xlink:href="#STIXGeneral-Regular-30" transform="translate(149.999954 0.40625)"/>
      </g>
     </g>
    </g>
    <g id="xtick_15">
     <g id="line2d_51">
      <g>
       <use xlink:href="#med36c3fe69" x="417.834048" y="396.4925" style="fill: #323034; stroke: #323034; stroke-width: 0.8"/>
      </g>
     </g>
     <g id="text_31">
      <!-- $\mathdefault{2020}$ -->
      <g style="fill: #323034" transform="translate(401.834048 414.42) scale(0.16 -0.16)">
       <use xlink:href="#STIXGeneral-Regular-32" transform="translate(0 0.40625)"/>
       <use xlink:href="#STIXGeneral-Regular-30" transform="translate(49.999985 0.40625)"/>
       <use xlink:href="#STIXGeneral-Regular-32" transform="translate(99.999969 0.40625)"/>
       <use xlink:href="#STIXGeneral-Regular-30" transform="translate(149.999954 0.40625)"/>
      </g>
     </g>
    </g>
   </g>
   <g id="matplotlib.axis_10">
    <g id="ytick_13">
     <g id="line2d_52">
      <g>
       <use xlink:href="#m7327c6ca97" x="433.729453" y="361.012635" style="fill: #323034; stroke: #323034; stroke-width: 0.8"/>
      </g>
     </g>
     <g id="text_32">
      <!-- $\mathdefault{100}$ -->
      <g style="fill: #323034" transform="translate(440.729453 366.476385) scale(0.16 -0.16)">
       <use xlink:href="#STIXGeneral-Regular-31" transform="translate(0 0.40625)"/>
       <use xlink:href="#STIXGeneral-Regular-30" transform="translate(49.999985 0.40625)"/>
       <use xlink:href="#STIXGeneral-Regular-30" transform="translate(99.999969 0.40625)"/>
      </g>
     </g>
    </g>
    <g id="ytick_14">
     <g id="line2d_53">
      <g>
       <use xlink:href="#m7327c6ca97" x="433.729453" y="322.44217" style="fill: #323034; stroke: #323034; stroke-width: 0.8"/>
      </g>
     </g>
     <g id="text_33">
      <!-- $\mathdefault{110}$ -->
      <g style="fill: #323034" transform="translate(440.729453 327.90592) scale(0.16 -0.16)">
       <use xlink:href="#STIXGeneral-Regular-31" transform="translate(0 0.40625)"/>
       <use xlink:href="#STIXGeneral-Regular-31" transform="translate(49.999985 0.40625)"/>
       <use xlink:href="#STIXGeneral-Regular-30" transform="translate(99.999969 0.40625)"/>
      </g>
     </g>
    </g>
    <g id="ytick_15">
     <g id="line2d_54">
      <g>
       <use xlink:href="#m7327c6ca97" x="433.729453" y="283.871706" style="fill: #323034; stroke: #323034; stroke-width: 0.8"/>
      </g>
     </g>
     <g id="text_34">
      <!-- $\mathdefault{120}$ -->
      <g style="fill: #323034" transform="translate(440.729453 289.335456) scale(0.16 -0.16)">
       <use xlink:href="#STIXGeneral-Regular-31" transform="translate(0 0.40625)"/>
       <use xlink:href="#STIXGeneral-Regular-32" transform="translate(49.999985 0.40625)"/>
       <use xlink:href="#STIXGeneral-Regular-30" transform="translate(99.999969 0.40625)"/>
      </g>
     </g>
    </g>
   </g>
   <g id="line2d_55">
    <path d="M 258.88 361.012635 
L 266.827702 356.220149 
L 274.775405 354.653517 
L 282.723107 354.224588 
L 290.67081 346.073987 
L 298.618512 342.453452 
L 306.566214 335.414874 
L 314.513917 328.031024 
L 322.461619 329.297482 
L 330.409322 343.366187 
L 338.357024 337.524674 
L 346.304727 330.565902 
L 354.252429 331.278193 
L 362.200131 331.036617 
L 370.147834 329.022376 
L 378.095536 325.872855 
L 386.043239 322.383816 
L 393.990941 313.91837 
L 401.938643 307.424053 
L 409.886346 300.85267 
L 417.834048 335.59002 
L 425.781751 310.380678 
L 433.729453 301.031155 
" clip-path="url(#p1fb57a73a0)" style="fill: none; stroke: #000000; stroke-opacity: 0.1; stroke-linecap: square"/>
   </g>
   <g id="line2d_56">
    <path d="M 258.88 361.012635 
L 266.827702 355.186341 
L 274.775405 356.617889 
L 282.723107 359.563441 
L 290.67081 354.928995 
L 298.618512 351.83811 
L 306.566214 336.305103 
L 314.513917 323.523858 
L 322.461619 318.648544 
L 330.409322 341.997884 
L 338.357024 324.434653 
L 346.304727 299.648202 
L 354.252429 298.619223 
L 362.200131 297.884922 
L 370.147834 289.876218 
L 378.095536 287.057028 
L 386.043239 280.584542 
L 393.990941 269.876513 
L 401.938643 266.642519 
L 409.886346 262.572526 
L 417.834048 281.479848 
L 425.781751 266.963682 
L 433.729453 261.806562 
" clip-path="url(#p1fb57a73a0)" style="fill: none; stroke: #000000; stroke-opacity: 0.1; stroke-linecap: square"/>
   </g>
   <g id="line2d_57">
    <path d="M 258.88 361.012635 
L 266.827702 353.706911 
L 274.775405 353.295195 
L 282.723107 354.497134 
L 290.67081 351.479715 
L 298.618512 350.200504 
L 306.566214 344.311606 
L 314.513917 340.38444 
L 322.461619 346.950537 
L 330.409322 369.783248 
L 338.357024 364.502722 
L 346.304727 362.460597 
L 354.252429 374.91843 
L 362.200131 385.969793 
L 370.147834 389.280783 
L 378.095536 386.151508 
L 386.043239 380.86673 
L 393.990941 374.207028 
L 401.938643 370.043047 
L 409.886346 363.833559 
L 417.834048 396.4925 
L 425.781751 365.414715 
L 433.729453 349.919527 
" clip-path="url(#p1fb57a73a0)" style="fill: none; stroke: #000000; stroke-opacity: 0.1; stroke-linecap: square"/>
   </g>
   <g id="line2d_58">
    <path d="M 258.88 361.012635 
L 266.827702 360.455246 
L 274.775405 361.190658 
L 282.723107 356.109063 
L 290.67081 347.704255 
L 298.618512 340.544606 
L 306.566214 335.23135 
L 314.513917 329.6046 
L 322.461619 334.910732 
L 330.409322 358.307324 
L 338.357024 342.463216 
L 346.304727 341.617307 
L 354.252429 335.391785 
L 362.200131 326.538534 
L 370.147834 324.734366 
L 378.095536 317.693728 
L 386.043239 314.238532 
L 393.990941 306.63291 
L 401.938643 303.239118 
L 409.886346 304.401788 
L 417.834048 322.079289 
L 425.781751 310.9819 
L 433.729453 304.541561 
" clip-path="url(#p1fb57a73a0)" style="fill: none; stroke: #000000; stroke-opacity: 0.1; stroke-linecap: square"/>
   </g>
   <g id="line2d_59">
    <path d="M 258.88 361.012635 
L 266.827702 361.166607 
L 274.775405 358.24886 
L 282.723107 350.803938 
L 290.67081 339.338891 
L 298.618512 329.016802 
L 306.566214 321.51287 
L 314.513917 317.069781 
L 322.461619 320.594471 
L 330.409322 335.295776 
L 338.357024 327.642136 
L 346.304727 324.228688 
L 354.252429 317.751506 
L 362.200131 312.866906 
L 370.147834 306.183959 
L 378.095536 297.580325 
L 386.043239 293.388191 
L 393.990941 286.147911 
L 401.938643 275.071826 
L 409.886346 266.442279 
L 417.834048 284.217028 
L 425.781751 257.486603 
L 433.729453 249.89625 
" clip-path="url(#p1fb57a73a0)" style="fill: none; stroke: #000000; stroke-opacity: 0.1; stroke-linecap: square"/>
   </g>
   <g id="line2d_60">
    <path d="M 258.88 361.012635 
L 266.827702 352.586544 
L 274.775405 347.218589 
L 282.723107 336.562376 
L 290.67081 328.993366 
L 298.618512 320.489167 
L 306.566214 313.514176 
L 314.513917 305.610973 
L 322.461619 310.056888 
L 330.409322 333.347128 
L 338.357024 327.393009 
L 346.304727 325.892975 
L 354.252429 322.486352 
L 362.200131 317.765274 
L 370.147834 307.304961 
L 378.095536 301.093873 
L 386.043239 295.9623 
L 393.990941 287.127408 
L 401.938643 283.491065 
L 409.886346 278.535317 
L 417.834048 328.570709 
L 425.781751 291.924403 
L 433.729453 271.767551 
" clip-path="url(#p1fb57a73a0)" style="fill: none; stroke: #fccde5; stroke-width: 3; stroke-linecap: square"/>
   </g>
   <g id="patch_15">
    <path d="M 433.729453 396.4925 
L 433.729453 249.89625 
" style="fill: none; stroke: #000000; stroke-width: 0.6; stroke-linejoin: miter; stroke-linecap: square"/>
   </g>
   <g id="patch_16">
    <path d="M 258.88 396.4925 
L 433.729453 396.4925 
" style="fill: none; stroke: #000000; stroke-width: 0.6; stroke-linejoin: miter; stroke-linecap: square"/>
   </g>
   <g id="text_35">
    <!-- United Kingdom -->
    <g style="fill: #323034" transform="translate(302.429727 243.89625) scale(0.13 -0.13)">
     <defs>
      <path id="STIXGeneral-Regular-55" d="M 4512 4237 
L 4512 4115 
Q 4122 4077 4016 3926 
Q 3910 3776 3910 3302 
L 3910 1670 
Q 3910 1178 3840 896 
Q 3770 614 3565 378 
Q 3155 -90 2272 -90 
Q 1574 -90 1184 205 
Q 666 589 666 1594 
L 666 3578 
Q 666 3898 566 3994 
Q 467 4090 90 4115 
L 90 4237 
L 1901 4237 
L 1901 4115 
Q 1517 4083 1417 3977 
Q 1318 3872 1318 3514 
L 1318 1517 
Q 1318 1101 1369 877 
Q 1421 653 1600 480 
Q 1901 192 2419 192 
Q 3066 192 3392 570 
Q 3539 749 3584 963 
Q 3629 1178 3629 1600 
L 3629 3283 
Q 3629 3782 3520 3936 
Q 3411 4090 3027 4115 
L 3027 4237 
L 4512 4237 
z
" transform="scale(0.015625)"/>
      <path id="STIXGeneral-Regular-69" d="M 1152 4045 
Q 1152 3904 1056 3811 
Q 960 3718 819 3718 
Q 685 3718 592 3811 
Q 499 3904 499 4045 
Q 499 4179 595 4275 
Q 691 4371 826 4371 
Q 966 4371 1059 4275 
Q 1152 4179 1152 4045 
z
M 1619 0 
L 102 0 
L 102 96 
Q 435 115 521 211 
Q 608 307 608 666 
L 608 2118 
Q 608 2342 563 2432 
Q 518 2522 397 2522 
Q 243 2522 128 2490 
L 128 2592 
L 1120 2944 
L 1146 2918 
L 1146 672 
Q 1146 314 1226 218 
Q 1306 122 1619 96 
L 1619 0 
z
" transform="scale(0.015625)"/>
      <path id="STIXGeneral-Regular-64" d="M 3142 269 
L 2202 -64 
L 2176 -45 
L 2176 365 
Q 1869 -64 1357 -64 
Q 826 -64 499 317 
Q 173 698 173 1312 
Q 173 1990 563 2467 
Q 954 2944 1504 2944 
Q 1850 2944 2176 2669 
L 2176 3667 
Q 2176 3866 2118 3930 
Q 2061 3994 1882 3994 
Q 1792 3994 1741 3987 
L 1741 4090 
Q 2323 4243 2682 4371 
L 2714 4358 
L 2714 730 
Q 2714 506 2768 435 
Q 2822 365 2995 365 
Q 3034 365 3142 371 
L 3142 269 
z
M 2176 653 
L 2176 2125 
Q 2176 2381 1981 2573 
Q 1786 2765 1523 2765 
Q 1158 2765 940 2438 
Q 723 2112 723 1568 
Q 723 979 963 624 
Q 1203 269 1606 269 
Q 1907 269 2080 474 
Q 2176 582 2176 653 
z
" transform="scale(0.015625)"/>
      <path id="STIXGeneral-Regular-20" transform="scale(0.015625)"/>
      <path id="STIXGeneral-Regular-4b" d="M 4627 0 
L 2688 0 
L 2688 122 
L 2861 128 
Q 3130 134 3130 282 
Q 3130 397 2922 643 
Q 2714 890 2253 1370 
L 1613 2029 
L 1446 1894 
L 1446 710 
Q 1446 352 1548 253 
Q 1651 154 2016 122 
L 2016 0 
L 211 0 
L 211 122 
Q 589 141 691 262 
Q 794 384 794 800 
L 794 3514 
Q 794 3872 691 3981 
Q 589 4090 218 4115 
L 218 4237 
L 2022 4237 
L 2022 4115 
Q 1632 4090 1539 3987 
Q 1446 3885 1446 3507 
L 1446 2227 
L 2586 3277 
Q 2861 3533 2973 3667 
Q 3085 3802 3085 3910 
Q 3085 4013 3030 4057 
Q 2976 4102 2822 4109 
L 2662 4115 
L 2662 4237 
L 4320 4237 
L 4320 4115 
Q 3994 4090 3824 4003 
Q 3654 3917 3322 3597 
L 2131 2458 
L 3629 819 
Q 4026 384 4214 253 
Q 4403 122 4627 122 
L 4627 0 
z
" transform="scale(0.015625)"/>
      <path id="STIXGeneral-Regular-67" d="M 3008 2483 
L 2477 2483 
Q 2598 2208 2598 1946 
Q 2598 1453 2265 1203 
Q 1933 954 1600 954 
Q 1530 954 1357 973 
L 1235 986 
Q 1107 947 979 812 
Q 851 678 851 582 
Q 851 435 1350 410 
L 2176 371 
Q 2528 358 2739 172 
Q 2950 -13 2950 -314 
Q 2950 -685 2566 -986 
Q 2035 -1395 1286 -1395 
Q 826 -1395 502 -1212 
Q 179 -1030 179 -774 
Q 179 -595 320 -419 
Q 461 -243 806 6 
Q 602 102 534 172 
Q 467 243 467 346 
Q 467 531 762 787 
Q 909 915 1037 1043 
Q 717 1203 579 1401 
Q 442 1600 442 1901 
Q 442 2336 752 2640 
Q 1062 2944 1510 2944 
Q 1766 2944 2022 2848 
L 2163 2797 
Q 2349 2733 2515 2733 
L 3008 2733 
L 3008 2483 
z
M 973 2163 
L 973 2144 
Q 973 1683 1155 1398 
Q 1338 1114 1632 1114 
Q 1850 1114 1978 1270 
Q 2106 1427 2106 1690 
Q 2106 2112 1914 2464 
Q 1754 2765 1446 2765 
Q 1222 2765 1097 2605 
Q 973 2445 973 2163 
z
M 2771 -410 
Q 2771 -230 2595 -163 
Q 2419 -96 1978 -96 
Q 1344 -96 941 -13 
Q 749 -243 688 -348 
Q 627 -454 627 -563 
Q 627 -774 880 -902 
Q 1133 -1030 1555 -1030 
Q 2099 -1030 2435 -860 
Q 2771 -691 2771 -410 
z
" transform="scale(0.015625)"/>
      <path id="STIXGeneral-Regular-6f" d="M 3008 1478 
Q 3008 806 2608 371 
Q 2208 -64 1568 -64 
Q 979 -64 582 368 
Q 186 800 186 1459 
Q 186 2125 582 2534 
Q 979 2944 1626 2944 
Q 2221 2944 2614 2537 
Q 3008 2131 3008 1478 
z
M 2432 1306 
Q 2432 2035 2112 2445 
Q 1856 2765 1504 2765 
Q 1171 2765 966 2493 
Q 762 2221 762 1747 
Q 762 928 1101 435 
Q 1318 115 1677 115 
Q 2029 115 2230 432 
Q 2432 749 2432 1306 
z
" transform="scale(0.015625)"/>
     </defs>
     <use xlink:href="#STIXGeneral-Regular-55"/>
     <use xlink:href="#STIXGeneral-Regular-6e" x="72.199982"/>
     <use xlink:href="#STIXGeneral-Regular-69" x="122.199966"/>
     <use xlink:href="#STIXGeneral-Regular-74" x="149.999954"/>
     <use xlink:href="#STIXGeneral-Regular-65" x="177.799942"/>
     <use xlink:href="#STIXGeneral-Regular-64" x="222.199936"/>
     <use xlink:href="#STIXGeneral-Regular-20" x="272.199921"/>
     <use xlink:href="#STIXGeneral-Regular-4b" x="297.199905"/>
     <use xlink:href="#STIXGeneral-Regular-69" x="369.399887"/>
     <use xlink:href="#STIXGeneral-Regular-6e" x="397.199875"/>
     <use xlink:href="#STIXGeneral-Regular-67" x="447.19986"/>
     <use xlink:href="#STIXGeneral-Regular-64" x="497.199844"/>
     <use xlink:href="#STIXGeneral-Regular-6f" x="547.199829"/>
     <use xlink:href="#STIXGeneral-Regular-6d" x="597.199814"/>
    </g>
   </g>
  </g>
  <g id="axes_6">
   <g id="patch_17">
    <path d="M 494.56 396.4925 
L 669.409453 396.4925 
L 669.409453 249.89625 
L 494.56 249.89625 
z
" style="fill: #ffffff"/>
   </g>
   <g id="matplotlib.axis_11">
    <g id="xtick_16">
     <g id="line2d_61">
      <g>
       <use xlink:href="#med36c3fe69" x="494.56" y="396.4925" style="fill: #323034; stroke: #323034; stroke-width: 0.8"/>
      </g>
     </g>
     <g id="text_36">
      <!-- $\mathdefault{2000}$ -->
      <g style="fill: #323034" transform="translate(478.56 414.42) scale(0.16 -0.16)">
       <use xlink:href="#STIXGeneral-Regular-32" transform="translate(0 0.40625)"/>
       <use xlink:href="#STIXGeneral-Regular-30" transform="translate(49.999985 0.40625)"/>
       <use xlink:href="#STIXGeneral-Regular-30" transform="translate(99.999969 0.40625)"/>
       <use xlink:href="#STIXGeneral-Regular-30" transform="translate(149.999954 0.40625)"/>
      </g>
     </g>
    </g>
    <g id="xtick_17">
     <g id="line2d_62">
      <g>
       <use xlink:href="#med36c3fe69" x="574.037024" y="396.4925" style="fill: #323034; stroke: #323034; stroke-width: 0.8"/>
      </g>
     </g>
     <g id="text_37">
      <!-- $\mathdefault{2010}$ -->
      <g style="fill: #323034" transform="translate(558.037024 414.42) scale(0.16 -0.16)">
       <use xlink:href="#STIXGeneral-Regular-32" transform="translate(0 0.40625)"/>
       <use xlink:href="#STIXGeneral-Regular-30" transform="translate(49.999985 0.40625)"/>
       <use xlink:href="#STIXGeneral-Regular-31" transform="translate(99.999969 0.40625)"/>
       <use xlink:href="#STIXGeneral-Regular-30" transform="translate(149.999954 0.40625)"/>
      </g>
     </g>
    </g>
    <g id="xtick_18">
     <g id="line2d_63">
      <g>
       <use xlink:href="#med36c3fe69" x="653.514048" y="396.4925" style="fill: #323034; stroke: #323034; stroke-width: 0.8"/>
      </g>
     </g>
     <g id="text_38">
      <!-- $\mathdefault{2020}$ -->
      <g style="fill: #323034" transform="translate(637.514048 414.42) scale(0.16 -0.16)">
       <use xlink:href="#STIXGeneral-Regular-32" transform="translate(0 0.40625)"/>
       <use xlink:href="#STIXGeneral-Regular-30" transform="translate(49.999985 0.40625)"/>
       <use xlink:href="#STIXGeneral-Regular-32" transform="translate(99.999969 0.40625)"/>
       <use xlink:href="#STIXGeneral-Regular-30" transform="translate(149.999954 0.40625)"/>
      </g>
     </g>
    </g>
   </g>
   <g id="matplotlib.axis_12">
    <g id="ytick_16">
     <g id="line2d_64">
      <g>
       <use xlink:href="#m7327c6ca97" x="669.409453" y="361.012635" style="fill: #323034; stroke: #323034; stroke-width: 0.8"/>
      </g>
     </g>
     <g id="text_39">
      <!-- $\mathdefault{100}$ -->
      <g style="fill: #323034" transform="translate(676.409453 366.476385) scale(0.16 -0.16)">
       <use xlink:href="#STIXGeneral-Regular-31" transform="translate(0 0.40625)"/>
       <use xlink:href="#STIXGeneral-Regular-30" transform="translate(49.999985 0.40625)"/>
       <use xlink:href="#STIXGeneral-Regular-30" transform="translate(99.999969 0.40625)"/>
      </g>
     </g>
    </g>
    <g id="ytick_17">
     <g id="line2d_65">
      <g>
       <use xlink:href="#m7327c6ca97" x="669.409453" y="322.44217" style="fill: #323034; stroke: #323034; stroke-width: 0.8"/>
      </g>
     </g>
     <g id="text_40">
      <!-- $\mathdefault{110}$ -->
      <g style="fill: #323034" transform="translate(676.409453 327.90592) scale(0.16 -0.16)">
       <use xlink:href="#STIXGeneral-Regular-31" transform="translate(0 0.40625)"/>
       <use xlink:href="#STIXGeneral-Regular-31" transform="translate(49.999985 0.40625)"/>
       <use xlink:href="#STIXGeneral-Regular-30" transform="translate(99.999969 0.40625)"/>
      </g>
     </g>
    </g>
    <g id="ytick_18">
     <g id="line2d_66">
      <g>
       <use xlink:href="#m7327c6ca97" x="669.409453" y="283.871706" style="fill: #323034; stroke: #323034; stroke-width: 0.8"/>
      </g>
     </g>
     <g id="text_41">
      <!-- $\mathdefault{120}$ -->
      <g style="fill: #323034" transform="translate(676.409453 289.335456) scale(0.16 -0.16)">
       <use xlink:href="#STIXGeneral-Regular-31" transform="translate(0 0.40625)"/>
       <use xlink:href="#STIXGeneral-Regular-32" transform="translate(49.999985 0.40625)"/>
       <use xlink:href="#STIXGeneral-Regular-30" transform="translate(99.999969 0.40625)"/>
      </g>
     </g>
    </g>
   </g>
   <g id="line2d_67">
    <path d="M 494.56 361.012635 
L 502.507702 356.220149 
L 510.455405 354.653517 
L 518.403107 354.224588 
L 526.35081 346.073987 
L 534.298512 342.453452 
L 542.246214 335.414874 
L 550.193917 328.031024 
L 558.141619 329.297482 
L 566.089322 343.366187 
L 574.037024 337.524674 
L 581.984727 330.565902 
L 589.932429 331.278193 
L 597.880131 331.036617 
L 605.827834 329.022376 
L 613.775536 325.872855 
L 621.723239 322.383816 
L 629.670941 313.91837 
L 637.618643 307.424053 
L 645.566346 300.85267 
L 653.514048 335.59002 
L 661.461751 310.380678 
L 669.409453 301.031155 
" clip-path="url(#p70fe95fde9)" style="fill: none; stroke: #000000; stroke-opacity: 0.1; stroke-linecap: square"/>
   </g>
   <g id="line2d_68">
    <path d="M 494.56 361.012635 
L 502.507702 355.186341 
L 510.455405 356.617889 
L 518.403107 359.563441 
L 526.35081 354.928995 
L 534.298512 351.83811 
L 542.246214 336.305103 
L 550.193917 323.523858 
L 558.141619 318.648544 
L 566.089322 341.997884 
L 574.037024 324.434653 
L 581.984727 299.648202 
L 589.932429 298.619223 
L 597.880131 297.884922 
L 605.827834 289.876218 
L 613.775536 287.057028 
L 621.723239 280.584542 
L 629.670941 269.876513 
L 637.618643 266.642519 
L 645.566346 262.572526 
L 653.514048 281.479848 
L 661.461751 266.963682 
L 669.409453 261.806562 
" clip-path="url(#p70fe95fde9)" style="fill: none; stroke: #000000; stroke-opacity: 0.1; stroke-linecap: square"/>
   </g>
   <g id="line2d_69">
    <path d="M 494.56 361.012635 
L 502.507702 353.706911 
L 510.455405 353.295195 
L 518.403107 354.497134 
L 526.35081 351.479715 
L 534.298512 350.200504 
L 542.246214 344.311606 
L 550.193917 340.38444 
L 558.141619 346.950537 
L 566.089322 369.783248 
L 574.037024 364.502722 
L 581.984727 362.460597 
L 589.932429 374.91843 
L 597.880131 385.969793 
L 605.827834 389.280783 
L 613.775536 386.151508 
L 621.723239 380.86673 
L 629.670941 374.207028 
L 637.618643 370.043047 
L 645.566346 363.833559 
L 653.514048 396.4925 
L 661.461751 365.414715 
L 669.409453 349.919527 
" clip-path="url(#p70fe95fde9)" style="fill: none; stroke: #000000; stroke-opacity: 0.1; stroke-linecap: square"/>
   </g>
   <g id="line2d_70">
    <path d="M 494.56 361.012635 
L 502.507702 360.455246 
L 510.455405 361.190658 
L 518.403107 356.109063 
L 526.35081 347.704255 
L 534.298512 340.544606 
L 542.246214 335.23135 
L 550.193917 329.6046 
L 558.141619 334.910732 
L 566.089322 358.307324 
L 574.037024 342.463216 
L 581.984727 341.617307 
L 589.932429 335.391785 
L 597.880131 326.538534 
L 605.827834 324.734366 
L 613.775536 317.693728 
L 621.723239 314.238532 
L 629.670941 306.63291 
L 637.618643 303.239118 
L 645.566346 304.401788 
L 653.514048 322.079289 
L 661.461751 310.9819 
L 669.409453 304.541561 
" clip-path="url(#p70fe95fde9)" style="fill: none; stroke: #000000; stroke-opacity: 0.1; stroke-linecap: square"/>
   </g>
   <g id="line2d_71">
    <path d="M 494.56 361.012635 
L 502.507702 352.586544 
L 510.455405 347.218589 
L 518.403107 336.562376 
L 526.35081 328.993366 
L 534.298512 320.489167 
L 542.246214 313.514176 
L 550.193917 305.610973 
L 558.141619 310.056888 
L 566.089322 333.347128 
L 574.037024 327.393009 
L 581.984727 325.892975 
L 589.932429 322.486352 
L 597.880131 317.765274 
L 605.827834 307.304961 
L 613.775536 301.093873 
L 621.723239 295.9623 
L 629.670941 287.127408 
L 637.618643 283.491065 
L 645.566346 278.535317 
L 653.514048 328.570709 
L 661.461751 291.924403 
L 669.409453 271.767551 
" clip-path="url(#p70fe95fde9)" style="fill: none; stroke: #000000; stroke-opacity: 0.1; stroke-linecap: square"/>
   </g>
   <g id="line2d_72">
    <path d="M 494.56 361.012635 
L 502.507702 361.166607 
L 510.455405 358.24886 
L 518.403107 350.803938 
L 526.35081 339.338891 
L 534.298512 329.016802 
L 542.246214 321.51287 
L 550.193917 317.069781 
L 558.141619 320.594471 
L 566.089322 335.295776 
L 574.037024 327.642136 
L 581.984727 324.228688 
L 589.932429 317.751506 
L 597.880131 312.866906 
L 605.827834 306.183959 
L 613.775536 297.580325 
L 621.723239 293.388191 
L 629.670941 286.147911 
L 637.618643 275.071826 
L 645.566346 266.442279 
L 653.514048 284.217028 
L 661.461751 257.486603 
L 669.409453 249.89625 
" clip-path="url(#p70fe95fde9)" style="fill: none; stroke: #8dd3c7; stroke-width: 3; stroke-linecap: square"/>
   </g>
   <g id="patch_18">
    <path d="M 669.409453 396.4925 
L 669.409453 249.89625 
" style="fill: none; stroke: #000000; stroke-width: 0.6; stroke-linejoin: miter; stroke-linecap: square"/>
   </g>
   <g id="patch_19">
    <path d="M 494.56 396.4925 
L 669.409453 396.4925 
" style="fill: none; stroke: #000000; stroke-width: 0.6; stroke-linejoin: miter; stroke-linecap: square"/>
   </g>
   <g id="text_42">
    <!-- United States -->
    <g style="fill: #323034" transform="translate(547.137617 243.89625) scale(0.13 -0.13)">
     <defs>
      <path id="STIXGeneral-Regular-53" d="M 3002 2963 
L 2842 2963 
Q 2733 3360 2579 3565 
Q 2189 4064 1651 4064 
Q 1357 4064 1181 3894 
Q 1005 3725 1005 3456 
Q 1005 3328 1069 3206 
Q 1133 3085 1206 2998 
Q 1280 2912 1465 2784 
Q 1651 2656 1766 2589 
Q 1882 2522 2150 2362 
Q 2669 2061 2905 1763 
Q 3142 1466 3142 1107 
Q 3142 576 2771 243 
Q 2400 -90 1837 -90 
Q 1421 -90 1082 58 
Q 915 128 781 128 
Q 704 128 653 70 
Q 602 13 602 -83 
L 461 -83 
L 275 1274 
L 416 1274 
Q 845 141 1734 141 
Q 2074 141 2285 342 
Q 2496 544 2496 858 
Q 2496 1158 2310 1363 
Q 2003 1696 1235 2106 
Q 454 2522 454 3206 
Q 454 3718 768 4022 
Q 1082 4326 1568 4326 
Q 1907 4326 2240 4186 
Q 2413 4109 2522 4109 
Q 2688 4109 2726 4326 
L 2861 4326 
L 3002 2963 
z
" transform="scale(0.015625)"/>
      <path id="STIXGeneral-Regular-73" d="M 998 1926 
L 1664 1523 
Q 1984 1331 2105 1164 
Q 2227 998 2227 736 
Q 2227 416 1961 176 
Q 1696 -64 1331 -64 
Q 1030 -64 864 -6 
Q 691 51 570 51 
Q 461 51 416 -26 
L 333 -26 
L 333 979 
L 435 979 
Q 538 512 730 294 
Q 922 77 1248 77 
Q 1485 77 1632 211 
Q 1779 346 1779 550 
Q 1779 845 1440 1030 
L 1094 1222 
Q 326 1651 326 2150 
Q 326 2522 566 2730 
Q 806 2938 1210 2938 
Q 1491 2938 1638 2867 
Q 1754 2816 1818 2816 
Q 1862 2816 1920 2880 
L 1990 2880 
L 2022 2010 
L 1926 2010 
Q 1818 2445 1654 2621 
Q 1491 2797 1203 2797 
Q 986 2797 854 2688 
Q 723 2579 723 2362 
Q 723 2253 796 2128 
Q 870 2003 998 1926 
z
" transform="scale(0.015625)"/>
     </defs>
     <use xlink:href="#STIXGeneral-Regular-55"/>
     <use xlink:href="#STIXGeneral-Regular-6e" x="72.199982"/>
     <use xlink:href="#STIXGeneral-Regular-69" x="122.199966"/>
     <use xlink:href="#STIXGeneral-Regular-74" x="149.999954"/>
     <use xlink:href="#STIXGeneral-Regular-65" x="177.799942"/>
     <use xlink:href="#STIXGeneral-Regular-64" x="222.199936"/>
     <use xlink:href="#STIXGeneral-Regular-20" x="272.199921"/>
     <use xlink:href="#STIXGeneral-Regular-53" x="297.199905"/>
     <use xlink:href="#STIXGeneral-Regular-74" x="352.799896"/>
     <use xlink:href="#STIXGeneral-Regular-61" x="380.599884"/>
     <use xlink:href="#STIXGeneral-Regular-74" x="424.999878"/>
     <use xlink:href="#STIXGeneral-Regular-65" x="452.799866"/>
     <use xlink:href="#STIXGeneral-Regular-73" x="497.19986"/>
    </g>
   </g>
  </g>
  <g id="text_43">
   <!-- GDP per capita (indexed to 100 in 2000) -->
   <g style="fill: #323034" transform="translate(231.668125 17.444531) scale(0.15 -0.15)">
    <defs>
     <path id="STIXGeneral-Regular-44" d="M 102 4237 
L 1830 4237 
Q 3078 4237 3750 3654 
Q 4384 3110 4384 2138 
Q 4384 966 3514 410 
Q 2880 0 1901 0 
L 102 0 
L 102 122 
Q 474 147 570 252 
Q 666 358 666 736 
L 666 3520 
Q 666 3891 570 3990 
Q 474 4090 102 4115 
L 102 4237 
z
M 1318 3731 
L 1318 538 
Q 1318 365 1379 301 
Q 1440 237 1626 237 
Q 2125 237 2432 307 
Q 2739 378 3021 570 
Q 3686 1018 3686 2099 
Q 3686 3027 3078 3558 
Q 2803 3802 2476 3901 
Q 2150 4000 1658 4000 
Q 1472 4000 1395 3942 
Q 1318 3885 1318 3731 
z
" transform="scale(0.015625)"/>
     <path id="STIXGeneral-Regular-50" d="M 102 4237 
L 1760 4237 
Q 2669 4237 3149 3834 
Q 3469 3565 3469 3072 
Q 3469 2560 3104 2234 
Q 2835 1990 2553 1916 
Q 2272 1843 1734 1843 
Q 1549 1843 1293 1862 
L 1293 717 
Q 1293 352 1398 246 
Q 1504 141 1894 122 
L 1894 0 
L 102 0 
L 102 122 
Q 474 147 557 256 
Q 640 365 640 781 
L 640 3526 
Q 640 3885 547 3987 
Q 454 4090 102 4115 
L 102 4237 
z
M 1293 3770 
L 1293 2118 
Q 1510 2099 1683 2099 
Q 2202 2099 2486 2352 
Q 2771 2605 2771 3040 
Q 2771 3558 2476 3779 
Q 2182 4000 1517 4000 
Q 1382 4000 1337 3952 
Q 1293 3904 1293 3770 
z
" transform="scale(0.015625)"/>
     <path id="STIXGeneral-Regular-28" d="M 1946 -1030 
L 1869 -1133 
Q 1126 -710 716 32 
Q 307 774 307 1613 
Q 307 3386 1888 4326 
L 1946 4224 
Q 1293 3667 1075 3126 
Q 858 2586 858 1632 
Q 858 685 1082 96 
Q 1306 -493 1946 -1030 
z
" transform="scale(0.015625)"/>
     <path id="STIXGeneral-Regular-78" d="M 3066 0 
L 1779 0 
L 1779 96 
Q 1939 109 1987 137 
Q 2035 166 2035 250 
Q 2035 307 1997 365 
L 1414 1261 
L 909 474 
Q 781 275 781 211 
Q 781 96 1037 96 
L 1037 0 
L 109 0 
L 109 96 
Q 269 109 355 169 
Q 442 230 576 422 
L 1306 1478 
L 704 2400 
Q 557 2624 454 2704 
Q 352 2784 211 2784 
L 154 2784 
L 154 2880 
L 1478 2880 
L 1478 2784 
Q 1203 2778 1203 2643 
Q 1203 2509 1498 2074 
Q 1581 1958 1587 1946 
Q 1619 1990 1779 2227 
Q 1811 2285 1856 2349 
Q 1901 2413 1923 2451 
Q 1946 2490 1971 2528 
Q 1997 2566 2006 2595 
Q 2016 2624 2016 2643 
Q 2016 2765 1760 2784 
L 1760 2880 
L 2771 2880 
L 2771 2784 
Q 2445 2771 2253 2502 
L 1722 1734 
L 2541 480 
Q 2790 96 3066 96 
L 3066 0 
z
" transform="scale(0.015625)"/>
     <path id="STIXGeneral-Regular-29" d="M 186 4224 
L 262 4326 
Q 992 3891 1408 3148 
Q 1824 2406 1824 1581 
Q 1824 -166 243 -1133 
L 186 -1030 
Q 845 -486 1059 54 
Q 1274 595 1274 1562 
Q 1274 2534 1059 3120 
Q 845 3706 186 4224 
z
" transform="scale(0.015625)"/>
    </defs>
    <use xlink:href="#STIXGeneral-Regular-47"/>
    <use xlink:href="#STIXGeneral-Regular-44" x="72.199982"/>
    <use xlink:href="#STIXGeneral-Regular-50" x="144.399963"/>
    <use xlink:href="#STIXGeneral-Regular-20" x="200.09996"/>
    <use xlink:href="#STIXGeneral-Regular-70" x="225.099945"/>
    <use xlink:href="#STIXGeneral-Regular-65" x="275.09993"/>
    <use xlink:href="#STIXGeneral-Regular-72" x="319.499924"/>
    <use xlink:href="#STIXGeneral-Regular-20" x="352.799911"/>
    <use xlink:href="#STIXGeneral-Regular-63" x="377.799896"/>
    <use xlink:href="#STIXGeneral-Regular-61" x="422.19989"/>
    <use xlink:href="#STIXGeneral-Regular-70" x="466.599884"/>
    <use xlink:href="#STIXGeneral-Regular-69" x="516.599869"/>
    <use xlink:href="#STIXGeneral-Regular-74" x="544.399857"/>
    <use xlink:href="#STIXGeneral-Regular-61" x="572.199844"/>
    <use xlink:href="#STIXGeneral-Regular-20" x="616.599838"/>
    <use xlink:href="#STIXGeneral-Regular-28" x="641.599823"/>
    <use xlink:href="#STIXGeneral-Regular-69" x="674.899811"/>
    <use xlink:href="#STIXGeneral-Regular-6e" x="702.699799"/>
    <use xlink:href="#STIXGeneral-Regular-64" x="752.699783"/>
    <use xlink:href="#STIXGeneral-Regular-65" x="802.699768"/>
    <use xlink:href="#STIXGeneral-Regular-78" x="847.099762"/>
    <use xlink:href="#STIXGeneral-Regular-65" x="897.099747"/>
    <use xlink:href="#STIXGeneral-Regular-64" x="941.499741"/>
    <use xlink:href="#STIXGeneral-Regular-20" x="991.499725"/>
    <use xlink:href="#STIXGeneral-Regular-74" x="1016.49971"/>
    <use xlink:href="#STIXGeneral-Regular-6f" x="1044.299698"/>
    <use xlink:href="#STIXGeneral-Regular-20" x="1094.299683"/>
    <use xlink:href="#STIXGeneral-Regular-31" x="1119.299667"/>
    <use xlink:href="#STIXGeneral-Regular-30" x="1169.299652"/>
    <use xlink:href="#STIXGeneral-Regular-30" x="1219.299637"/>
    <use xlink:href="#STIXGeneral-Regular-20" x="1269.299622"/>
    <use xlink:href="#STIXGeneral-Regular-69" x="1294.299606"/>
    <use xlink:href="#STIXGeneral-Regular-6e" x="1322.099594"/>
    <use xlink:href="#STIXGeneral-Regular-20" x="1372.099579"/>
    <use xlink:href="#STIXGeneral-Regular-32" x="1397.099564"/>
    <use xlink:href="#STIXGeneral-Regular-30" x="1447.099548"/>
    <use xlink:href="#STIXGeneral-Regular-30" x="1497.099533"/>
    <use xlink:href="#STIXGeneral-Regular-30" x="1547.099518"/>
    <use xlink:href="#STIXGeneral-Regular-29" x="1597.099503"/>
   </g>
  </g>
 </g>
 <defs>
  <clipPath id="p33f5c81ead">
   <rect x="23.2" y="53.79" width="174.849453" height="146.59625"/>
  </clipPath>
  <clipPath id="pc0bffd061a">
   <rect x="258.88" y="53.79" width="174.849453" height="146.59625"/>
  </clipPath>
  <clipPath id="p12bbf1cedf">
   <rect x="494.56" y="53.79" width="174.849453" height="146.59625"/>
  </clipPath>
  <clipPath id="p0c0417ce29">
   <rect x="23.2" y="249.89625" width="174.849453" height="146.59625"/>
  </clipPath>
  <clipPath id="p1fb57a73a0">
   <rect x="258.88" y="249.89625" width="174.849453" height="146.59625"/>
  </clipPath>
  <clipPath id="p70fe95fde9">
   <rect x="494.56" y="249.89625" width="174.849453" height="146.59625"/>
  </clipPath>
 </defs>
</svg>