<?xml version="1.0" encoding="utf-8" standalone="no"?>
<!DOCTYPE svg PUBLIC "-//W3C//DTD SVG 1.1//EN"
  "http://www.w3.org/Graphics/SVG/1.1/DTD/svg11.dtd">
<svg xmlns:xlink="http://www.w3.org/1999/xlink" width="491.8pt" height="263.02375pt" viewBox="0 0 491.8 263.02375" xmlns="http://www.w3.org/2000/svg" version="1.1">
 <metadata>
  <rdf:RDF xmlns:dc="http://purl.org/dc/elements/1.1/" xmlns:cc="http://creativecommons.org/ns#" xmlns:rdf="http://www.w3.org/1999/02/22-rdf-syntax-ns#">
   <cc:Work>
    <dc:type rdf:resource="http://purl.org/dc/dcmitype/StillImage"/>
    <dc:date>2025-03-26T16:02:27.253814</dc:date>
    <dc:format>image/svg+xml</dc:format>
    <dc:creator>
     <cc:Agent>
      <dc:title>Matplotlib v3.10.0, https://matplotlib.org/</dc:title>
     </cc:Agent>
    </dc:creator>
   </cc:Work>
  </rdf:RDF>
 </metadata>
 <defs>
  <style type="text/css">*{stroke-linejoin: round; stroke-linecap: butt}</style>
 </defs>
 <g id="figure_1">
  <g id="patch_1">
   <path d="M 0 263.02375 
L 491.8 263.02375 
L 491.8 0 
L 0 0 
z
" style="fill: #ffffff"/>
  </g>
  <g id="axes_1">
   <g id="patch_2">
    <path d="M 34.2 234.42375 
L 480.6 234.42375 
L 480.6 12.66375 
L 34.2 12.66375 
z
" style="fill: #ffffff"/>
   </g>
   <g id="patch_3">
    <path d="M 60.429408 234.42375 
L 65.301543 234.42375 
L 65.301543 232.307257 
L 60.429408 232.307257 
z
" clip-path="url(#pc5813042ed)" style="fill: #bc80bd; opacity: 0.8; stroke: #000000; stroke-width: 0.8; stroke-linejoin: miter"/>
   </g>
   <g id="patch_4">
    <path d="M 65.301543 234.42375 
L 70.173677 234.42375 
L 70.173677 234.42375 
L 65.301543 234.42375 
z
" clip-path="url(#pc5813042ed)" style="fill: #bc80bd; opacity: 0.8; stroke: #000000; stroke-width: 0.8; stroke-linejoin: miter"/>
   </g>
   <g id="patch_5">
    <path d="M 70.173677 234.42375 
L 75.045812 234.42375 
L 75.045812 234.42375 
L 70.173677 234.42375 
z
" clip-path="url(#pc5813042ed)" style="fill: #bc80bd; opacity: 0.8; stroke: #000000; stroke-width: 0.8; stroke-linejoin: miter"/>
   </g>
   <g id="patch_6">
    <path d="M 75.045812 234.42375 
L 79.917947 234.42375 
L 79.917947 234.42375 
L 75.045812 234.42375 
z
" clip-path="url(#pc5813042ed)" style="fill: #bc80bd; opacity: 0.8; stroke: #000000; stroke-width: 0.8; stroke-linejoin: miter"/>
   </g>
   <g id="patch_7">
    <path d="M 79.917947 234.42375 
L 84.790081 234.42375 
L 84.790081 230.190764 
L 79.917947 230.190764 
z
" clip-path="url(#pc5813042ed)" style="fill: #bc80bd; opacity: 0.8; stroke: #000000; stroke-width: 0.8; stroke-linejoin: miter"/>
   </g>
   <g id="patch_8">
    <path d="M 84.790081 234.42375 
L 89.662216 234.42375 
L 89.662216 232.307257 
L 84.790081 232.307257 
z
" clip-path="url(#pc5813042ed)" style="fill: #bc80bd; opacity: 0.8; stroke: #000000; stroke-width: 0.8; stroke-linejoin: miter"/>
   </g>
   <g id="patch_9">
    <path d="M 89.662216 234.42375 
L 94.53435 234.42375 
L 94.53435 232.307257 
L 89.662216 232.307257 
z
" clip-path="url(#pc5813042ed)" style="fill: #bc80bd; opacity: 0.8; stroke: #000000; stroke-width: 0.8; stroke-linejoin: miter"/>
   </g>
   <g id="patch_10">
    <path d="M 94.53435 234.42375 
L 99.406485 234.42375 
L 99.406485 234.42375 
L 94.53435 234.42375 
z
" clip-path="url(#pc5813042ed)" style="fill: #bc80bd; opacity: 0.8; stroke: #000000; stroke-width: 0.8; stroke-linejoin: miter"/>
   </g>
   <g id="patch_11">
    <path d="M 99.406485 234.42375 
L 104.27862 234.42375 
L 104.27862 232.307257 
L 99.406485 232.307257 
z
" clip-path="url(#pc5813042ed)" style="fill: #bc80bd; opacity: 0.8; stroke: #000000; stroke-width: 0.8; stroke-linejoin: miter"/>
   </g>
   <g id="patch_12">
    <path d="M 104.27862 234.42375 
L 109.150754 234.42375 
L 109.150754 230.190764 
L 104.27862 230.190764 
z
" clip-path="url(#pc5813042ed)" style="fill: #bc80bd; opacity: 0.8; stroke: #000000; stroke-width: 0.8; stroke-linejoin: miter"/>
   </g>
   <g id="patch_13">
    <path d="M 109.150754 234.42375 
L 114.022889 234.42375 
L 114.022889 225.957777 
L 109.150754 225.957777 
z
" clip-path="url(#pc5813042ed)" style="fill: #bc80bd; opacity: 0.8; stroke: #000000; stroke-width: 0.8; stroke-linejoin: miter"/>
   </g>
   <g id="patch_14">
    <path d="M 114.022889 234.42375 
L 118.895024 234.42375 
L 118.895024 234.42375 
L 114.022889 234.42375 
z
" clip-path="url(#pc5813042ed)" style="fill: #bc80bd; opacity: 0.8; stroke: #000000; stroke-width: 0.8; stroke-linejoin: miter"/>
   </g>
   <g id="patch_15">
    <path d="M 118.895024 234.42375 
L 123.767158 234.42375 
L 123.767158 230.190764 
L 118.895024 230.190764 
z
" clip-path="url(#pc5813042ed)" style="fill: #bc80bd; opacity: 0.8; stroke: #000000; stroke-width: 0.8; stroke-linejoin: miter"/>
   </g>
   <g id="patch_16">
    <path d="M 123.767158 234.42375 
L 128.639293 234.42375 
L 128.639293 223.841284 
L 123.767158 223.841284 
z
" clip-path="url(#pc5813042ed)" style="fill: #bc80bd; opacity: 0.8; stroke: #000000; stroke-width: 0.8; stroke-linejoin: miter"/>
   </g>
   <g id="patch_17">
    <path d="M 128.639293 234.42375 
L 133.511428 234.42375 
L 133.511428 215.375311 
L 128.639293 215.375311 
z
" clip-path="url(#pc5813042ed)" style="fill: #bc80bd; opacity: 0.8; stroke: #000000; stroke-width: 0.8; stroke-linejoin: miter"/>
   </g>
   <g id="patch_18">
    <path d="M 133.511428 234.42375 
L 138.383562 234.42375 
L 138.383562 217.491804 
L 133.511428 217.491804 
z
" clip-path="url(#pc5813042ed)" style="fill: #bc80bd; opacity: 0.8; stroke: #000000; stroke-width: 0.8; stroke-linejoin: miter"/>
   </g>
   <g id="patch_19">
    <path d="M 138.383562 234.42375 
L 143.255697 234.42375 
L 143.255697 223.841284 
L 138.383562 223.841284 
z
" clip-path="url(#pc5813042ed)" style="fill: #bc80bd; opacity: 0.8; stroke: #000000; stroke-width: 0.8; stroke-linejoin: miter"/>
   </g>
   <g id="patch_20">
    <path d="M 143.255697 234.42375 
L 148.127832 234.42375 
L 148.127832 215.375311 
L 143.255697 215.375311 
z
" clip-path="url(#pc5813042ed)" style="fill: #bc80bd; opacity: 0.8; stroke: #000000; stroke-width: 0.8; stroke-linejoin: miter"/>
   </g>
   <g id="patch_21">
    <path d="M 148.127832 234.42375 
L 152.999966 234.42375 
L 152.999966 217.491804 
L 148.127832 217.491804 
z
" clip-path="url(#pc5813042ed)" style="fill: #bc80bd; opacity: 0.8; stroke: #000000; stroke-width: 0.8; stroke-linejoin: miter"/>
   </g>
   <g id="patch_22">
    <path d="M 152.999966 234.42375 
L 157.872101 234.42375 
L 157.872101 209.025831 
L 152.999966 209.025831 
z
" clip-path="url(#pc5813042ed)" style="fill: #bc80bd; opacity: 0.8; stroke: #000000; stroke-width: 0.8; stroke-linejoin: miter"/>
   </g>
   <g id="patch_23">
    <path d="M 157.872101 234.42375 
L 162.744235 234.42375 
L 162.744235 187.860899 
L 157.872101 187.860899 
z
" clip-path="url(#pc5813042ed)" style="fill: #bc80bd; opacity: 0.8; stroke: #000000; stroke-width: 0.8; stroke-linejoin: miter"/>
   </g>
   <g id="patch_24">
    <path d="M 162.744235 234.42375 
L 167.61637 234.42375 
L 167.61637 198.443365 
L 162.744235 198.443365 
z
" clip-path="url(#pc5813042ed)" style="fill: #bc80bd; opacity: 0.8; stroke: #000000; stroke-width: 0.8; stroke-linejoin: miter"/>
   </g>
   <g id="patch_25">
    <path d="M 167.61637 234.42375 
L 172.488505 234.42375 
L 172.488505 177.278433 
L 167.61637 177.278433 
z
" clip-path="url(#pc5813042ed)" style="fill: #bc80bd; opacity: 0.8; stroke: #000000; stroke-width: 0.8; stroke-linejoin: miter"/>
   </g>
   <g id="patch_26">
    <path d="M 172.488505 234.42375 
L 177.360639 234.42375 
L 177.360639 185.744406 
L 172.488505 185.744406 
z
" clip-path="url(#pc5813042ed)" style="fill: #bc80bd; opacity: 0.8; stroke: #000000; stroke-width: 0.8; stroke-linejoin: miter"/>
   </g>
   <g id="patch_27">
    <path d="M 177.360639 234.42375 
L 182.232774 234.42375 
L 182.232774 160.346487 
L 177.360639 160.346487 
z
" clip-path="url(#pc5813042ed)" style="fill: #bc80bd; opacity: 0.8; stroke: #000000; stroke-width: 0.8; stroke-linejoin: miter"/>
   </g>
   <g id="patch_28">
    <path d="M 182.232774 234.42375 
L 187.104909 234.42375 
L 187.104909 168.81246 
L 182.232774 168.81246 
z
" clip-path="url(#pc5813042ed)" style="fill: #bc80bd; opacity: 0.8; stroke: #000000; stroke-width: 0.8; stroke-linejoin: miter"/>
   </g>
   <g id="patch_29">
    <path d="M 187.104909 234.42375 
L 191.977043 234.42375 
L 191.977043 166.695967 
L 187.104909 166.695967 
z
" clip-path="url(#pc5813042ed)" style="fill: #bc80bd; opacity: 0.8; stroke: #000000; stroke-width: 0.8; stroke-linejoin: miter"/>
   </g>
   <g id="patch_30">
    <path d="M 191.977043 234.42375 
L 196.849178 234.42375 
L 196.849178 158.229994 
L 191.977043 158.229994 
z
" clip-path="url(#pc5813042ed)" style="fill: #bc80bd; opacity: 0.8; stroke: #000000; stroke-width: 0.8; stroke-linejoin: miter"/>
   </g>
   <g id="patch_31">
    <path d="M 196.849178 234.42375 
L 201.721313 234.42375 
L 201.721313 141.298048 
L 196.849178 141.298048 
z
" clip-path="url(#pc5813042ed)" style="fill: #bc80bd; opacity: 0.8; stroke: #000000; stroke-width: 0.8; stroke-linejoin: miter"/>
   </g>
   <g id="patch_32">
    <path d="M 201.721313 234.42375 
L 206.593447 234.42375 
L 206.593447 147.647527 
L 201.721313 147.647527 
z
" clip-path="url(#pc5813042ed)" style="fill: #bc80bd; opacity: 0.8; stroke: #000000; stroke-width: 0.8; stroke-linejoin: miter"/>
   </g>
   <g id="patch_33">
    <path d="M 206.593447 234.42375 
L 211.465582 234.42375 
L 211.465582 130.715582 
L 206.593447 130.715582 
z
" clip-path="url(#pc5813042ed)" style="fill: #bc80bd; opacity: 0.8; stroke: #000000; stroke-width: 0.8; stroke-linejoin: miter"/>
   </g>
   <g id="patch_34">
    <path d="M 211.465582 234.42375 
L 216.337717 234.42375 
L 216.337717 105.317663 
L 211.465582 105.317663 
z
" clip-path="url(#pc5813042ed)" style="fill: #bc80bd; opacity: 0.8; stroke: #000000; stroke-width: 0.8; stroke-linejoin: miter"/>
   </g>
   <g id="patch_35">
    <path d="M 216.337717 234.42375 
L 221.209851 234.42375 
L 221.209851 118.016622 
L 216.337717 118.016622 
z
" clip-path="url(#pc5813042ed)" style="fill: #bc80bd; opacity: 0.8; stroke: #000000; stroke-width: 0.8; stroke-linejoin: miter"/>
   </g>
   <g id="patch_36">
    <path d="M 221.209851 234.42375 
L 226.081986 234.42375 
L 226.081986 128.599088 
L 221.209851 128.599088 
z
" clip-path="url(#pc5813042ed)" style="fill: #bc80bd; opacity: 0.8; stroke: #000000; stroke-width: 0.8; stroke-linejoin: miter"/>
   </g>
   <g id="patch_37">
    <path d="M 226.081986 234.42375 
L 230.95412 234.42375 
L 230.95412 109.550649 
L 226.081986 109.550649 
z
" clip-path="url(#pc5813042ed)" style="fill: #bc80bd; opacity: 0.8; stroke: #000000; stroke-width: 0.8; stroke-linejoin: miter"/>
   </g>
   <g id="patch_38">
    <path d="M 230.95412 234.42375 
L 235.826255 234.42375 
L 235.826255 128.599088 
L 230.95412 128.599088 
z
" clip-path="url(#pc5813042ed)" style="fill: #bc80bd; opacity: 0.8; stroke: #000000; stroke-width: 0.8; stroke-linejoin: miter"/>
   </g>
   <g id="patch_39">
    <path d="M 235.826255 234.42375 
L 240.69839 234.42375 
L 240.69839 90.50221 
L 235.826255 90.50221 
z
" clip-path="url(#pc5813042ed)" style="fill: #bc80bd; opacity: 0.8; stroke: #000000; stroke-width: 0.8; stroke-linejoin: miter"/>
   </g>
   <g id="patch_40">
    <path d="M 240.69839 234.42375 
L 245.570524 234.42375 
L 245.570524 98.968183 
L 240.69839 98.968183 
z
" clip-path="url(#pc5813042ed)" style="fill: #bc80bd; opacity: 0.8; stroke: #000000; stroke-width: 0.8; stroke-linejoin: miter"/>
   </g>
   <g id="patch_41">
    <path d="M 245.570524 234.42375 
L 250.442659 234.42375 
L 250.442659 96.85169 
L 245.570524 96.85169 
z
" clip-path="url(#pc5813042ed)" style="fill: #bc80bd; opacity: 0.8; stroke: #000000; stroke-width: 0.8; stroke-linejoin: miter"/>
   </g>
   <g id="patch_42">
    <path d="M 250.442659 234.42375 
L 255.314794 234.42375 
L 255.314794 101.084676 
L 250.442659 101.084676 
z
" clip-path="url(#pc5813042ed)" style="fill: #bc80bd; opacity: 0.8; stroke: #000000; stroke-width: 0.8; stroke-linejoin: miter"/>
   </g>
   <g id="patch_43">
    <path d="M 255.314794 234.42375 
L 260.186928 234.42375 
L 260.186928 101.084676 
L 255.314794 101.084676 
z
" clip-path="url(#pc5813042ed)" style="fill: #bc80bd; opacity: 0.8; stroke: #000000; stroke-width: 0.8; stroke-linejoin: miter"/>
   </g>
   <g id="patch_44">
    <path d="M 260.186928 234.42375 
L 265.059063 234.42375 
L 265.059063 88.385717 
L 260.186928 88.385717 
z
" clip-path="url(#pc5813042ed)" style="fill: #bc80bd; opacity: 0.8; stroke: #000000; stroke-width: 0.8; stroke-linejoin: miter"/>
   </g>
   <g id="patch_45">
    <path d="M 265.059063 234.42375 
L 269.931198 234.42375 
L 269.931198 92.618703 
L 265.059063 92.618703 
z
" clip-path="url(#pc5813042ed)" style="fill: #bc80bd; opacity: 0.8; stroke: #000000; stroke-width: 0.8; stroke-linejoin: miter"/>
   </g>
   <g id="patch_46">
    <path d="M 269.931198 234.42375 
L 274.803332 234.42375 
L 274.803332 88.385717 
L 269.931198 88.385717 
z
" clip-path="url(#pc5813042ed)" style="fill: #bc80bd; opacity: 0.8; stroke: #000000; stroke-width: 0.8; stroke-linejoin: miter"/>
   </g>
   <g id="patch_47">
    <path d="M 274.803332 234.42375 
L 279.675467 234.42375 
L 279.675467 103.20117 
L 274.803332 103.20117 
z
" clip-path="url(#pc5813042ed)" style="fill: #bc80bd; opacity: 0.8; stroke: #000000; stroke-width: 0.8; stroke-linejoin: miter"/>
   </g>
   <g id="patch_48">
    <path d="M 279.675467 234.42375 
L 284.547602 234.42375 
L 284.547602 118.016622 
L 279.675467 118.016622 
z
" clip-path="url(#pc5813042ed)" style="fill: #bc80bd; opacity: 0.8; stroke: #000000; stroke-width: 0.8; stroke-linejoin: miter"/>
   </g>
   <g id="patch_49">
    <path d="M 284.547602 234.42375 
L 289.419736 234.42375 
L 289.419736 75.686758 
L 284.547602 75.686758 
z
" clip-path="url(#pc5813042ed)" style="fill: #bc80bd; opacity: 0.8; stroke: #000000; stroke-width: 0.8; stroke-linejoin: miter"/>
   </g>
   <g id="patch_50">
    <path d="M 289.419736 234.42375 
L 294.291871 234.42375 
L 294.291871 111.667143 
L 289.419736 111.667143 
z
" clip-path="url(#pc5813042ed)" style="fill: #bc80bd; opacity: 0.8; stroke: #000000; stroke-width: 0.8; stroke-linejoin: miter"/>
   </g>
   <g id="patch_51">
    <path d="M 294.291871 234.42375 
L 299.164005 234.42375 
L 299.164005 94.735197 
L 294.291871 94.735197 
z
" clip-path="url(#pc5813042ed)" style="fill: #bc80bd; opacity: 0.8; stroke: #000000; stroke-width: 0.8; stroke-linejoin: miter"/>
   </g>
   <g id="patch_52">
    <path d="M 299.164005 234.42375 
L 304.03614 234.42375 
L 304.03614 132.832075 
L 299.164005 132.832075 
z
" clip-path="url(#pc5813042ed)" style="fill: #bc80bd; opacity: 0.8; stroke: #000000; stroke-width: 0.8; stroke-linejoin: miter"/>
   </g>
   <g id="patch_53">
    <path d="M 304.03614 234.42375 
L 308.908275 234.42375 
L 308.908275 153.997007 
L 304.03614 153.997007 
z
" clip-path="url(#pc5813042ed)" style="fill: #bc80bd; opacity: 0.8; stroke: #000000; stroke-width: 0.8; stroke-linejoin: miter"/>
   </g>
   <g id="patch_54">
    <path d="M 308.908275 234.42375 
L 313.780409 234.42375 
L 313.780409 134.948568 
L 308.908275 134.948568 
z
" clip-path="url(#pc5813042ed)" style="fill: #bc80bd; opacity: 0.8; stroke: #000000; stroke-width: 0.8; stroke-linejoin: miter"/>
   </g>
   <g id="patch_55">
    <path d="M 313.780409 234.42375 
L 318.652544 234.42375 
L 318.652544 128.599088 
L 313.780409 128.599088 
z
" clip-path="url(#pc5813042ed)" style="fill: #bc80bd; opacity: 0.8; stroke: #000000; stroke-width: 0.8; stroke-linejoin: miter"/>
   </g>
   <g id="patch_56">
    <path d="M 318.652544 234.42375 
L 323.524679 234.42375 
L 323.524679 168.81246 
L 318.652544 168.81246 
z
" clip-path="url(#pc5813042ed)" style="fill: #bc80bd; opacity: 0.8; stroke: #000000; stroke-width: 0.8; stroke-linejoin: miter"/>
   </g>
   <g id="patch_57">
    <path d="M 323.524679 234.42375 
L 328.396813 234.42375 
L 328.396813 164.579473 
L 323.524679 164.579473 
z
" clip-path="url(#pc5813042ed)" style="fill: #bc80bd; opacity: 0.8; stroke: #000000; stroke-width: 0.8; stroke-linejoin: miter"/>
   </g>
   <g id="patch_58">
    <path d="M 328.396813 234.42375 
L 333.268948 234.42375 
L 333.268948 166.695967 
L 328.396813 166.695967 
z
" clip-path="url(#pc5813042ed)" style="fill: #bc80bd; opacity: 0.8; stroke: #000000; stroke-width: 0.8; stroke-linejoin: miter"/>
   </g>
   <g id="patch_59">
    <path d="M 333.268948 234.42375 
L 338.141083 234.42375 
L 338.141083 177.278433 
L 333.268948 177.278433 
z
" clip-path="url(#pc5813042ed)" style="fill: #bc80bd; opacity: 0.8; stroke: #000000; stroke-width: 0.8; stroke-linejoin: miter"/>
   </g>
   <g id="patch_60">
    <path d="M 338.141083 234.42375 
L 343.013217 234.42375 
L 343.013217 173.045446 
L 338.141083 173.045446 
z
" clip-path="url(#pc5813042ed)" style="fill: #bc80bd; opacity: 0.8; stroke: #000000; stroke-width: 0.8; stroke-linejoin: miter"/>
   </g>
   <g id="patch_61">
    <path d="M 343.013217 234.42375 
L 347.885352 234.42375 
L 347.885352 179.394926 
L 343.013217 179.394926 
z
" clip-path="url(#pc5813042ed)" style="fill: #bc80bd; opacity: 0.8; stroke: #000000; stroke-width: 0.8; stroke-linejoin: miter"/>
   </g>
   <g id="patch_62">
    <path d="M 347.885352 234.42375 
L 352.757487 234.42375 
L 352.757487 196.326872 
L 347.885352 196.326872 
z
" clip-path="url(#pc5813042ed)" style="fill: #bc80bd; opacity: 0.8; stroke: #000000; stroke-width: 0.8; stroke-linejoin: miter"/>
   </g>
   <g id="patch_63">
    <path d="M 352.757487 234.42375 
L 357.629621 234.42375 
L 357.629621 198.443365 
L 352.757487 198.443365 
z
" clip-path="url(#pc5813042ed)" style="fill: #bc80bd; opacity: 0.8; stroke: #000000; stroke-width: 0.8; stroke-linejoin: miter"/>
   </g>
   <g id="patch_64">
    <path d="M 357.629621 234.42375 
L 362.501756 234.42375 
L 362.501756 223.841284 
L 357.629621 223.841284 
z
" clip-path="url(#pc5813042ed)" style="fill: #bc80bd; opacity: 0.8; stroke: #000000; stroke-width: 0.8; stroke-linejoin: miter"/>
   </g>
   <g id="patch_65">
    <path d="M 362.501756 234.42375 
L 367.37389 234.42375 
L 367.37389 215.375311 
L 362.501756 215.375311 
z
" clip-path="url(#pc5813042ed)" style="fill: #bc80bd; opacity: 0.8; stroke: #000000; stroke-width: 0.8; stroke-linejoin: miter"/>
   </g>
   <g id="patch_66">
    <path d="M 367.37389 234.42375 
L 372.246025 234.42375 
L 372.246025 219.608297 
L 367.37389 219.608297 
z
" clip-path="url(#pc5813042ed)" style="fill: #bc80bd; opacity: 0.8; stroke: #000000; stroke-width: 0.8; stroke-linejoin: miter"/>
   </g>
   <g id="patch_67">
    <path d="M 372.246025 234.42375 
L 377.11816 234.42375 
L 377.11816 225.957777 
L 372.246025 225.957777 
z
" clip-path="url(#pc5813042ed)" style="fill: #bc80bd; opacity: 0.8; stroke: #000000; stroke-width: 0.8; stroke-linejoin: miter"/>
   </g>
   <g id="patch_68">
    <path d="M 377.11816 234.42375 
L 381.990294 234.42375 
L 381.990294 217.491804 
L 377.11816 217.491804 
z
" clip-path="url(#pc5813042ed)" style="fill: #bc80bd; opacity: 0.8; stroke: #000000; stroke-width: 0.8; stroke-linejoin: miter"/>
   </g>
   <g id="patch_69">
    <path d="M 381.990294 234.42375 
L 386.862429 234.42375 
L 386.862429 225.957777 
L 381.990294 225.957777 
z
" clip-path="url(#pc5813042ed)" style="fill: #bc80bd; opacity: 0.8; stroke: #000000; stroke-width: 0.8; stroke-linejoin: miter"/>
   </g>
   <g id="patch_70">
    <path d="M 386.862429 234.42375 
L 391.734564 234.42375 
L 391.734564 228.07427 
L 386.862429 228.07427 
z
" clip-path="url(#pc5813042ed)" style="fill: #bc80bd; opacity: 0.8; stroke: #000000; stroke-width: 0.8; stroke-linejoin: miter"/>
   </g>
   <g id="patch_71">
    <path d="M 391.734564 234.42375 
L 396.606698 234.42375 
L 396.606698 228.07427 
L 391.734564 228.07427 
z
" clip-path="url(#pc5813042ed)" style="fill: #bc80bd; opacity: 0.8; stroke: #000000; stroke-width: 0.8; stroke-linejoin: miter"/>
   </g>
   <g id="patch_72">
    <path d="M 396.606698 234.42375 
L 401.478833 234.42375 
L 401.478833 225.957777 
L 396.606698 225.957777 
z
" clip-path="url(#pc5813042ed)" style="fill: #bc80bd; opacity: 0.8; stroke: #000000; stroke-width: 0.8; stroke-linejoin: miter"/>
   </g>
   <g id="patch_73">
    <path d="M 401.478833 234.42375 
L 406.350968 234.42375 
L 406.350968 230.190764 
L 401.478833 230.190764 
z
" clip-path="url(#pc5813042ed)" style="fill: #bc80bd; opacity: 0.8; stroke: #000000; stroke-width: 0.8; stroke-linejoin: miter"/>
   </g>
   <g id="patch_74">
    <path d="M 406.350968 234.42375 
L 411.223102 234.42375 
L 411.223102 232.307257 
L 406.350968 232.307257 
z
" clip-path="url(#pc5813042ed)" style="fill: #bc80bd; opacity: 0.8; stroke: #000000; stroke-width: 0.8; stroke-linejoin: miter"/>
   </g>
   <g id="patch_75">
    <path d="M 411.223102 234.42375 
L 416.095237 234.42375 
L 416.095237 230.190764 
L 411.223102 230.190764 
z
" clip-path="url(#pc5813042ed)" style="fill: #bc80bd; opacity: 0.8; stroke: #000000; stroke-width: 0.8; stroke-linejoin: miter"/>
   </g>
   <g id="patch_76">
    <path d="M 416.095237 234.42375 
L 420.967372 234.42375 
L 420.967372 234.42375 
L 416.095237 234.42375 
z
" clip-path="url(#pc5813042ed)" style="fill: #bc80bd; opacity: 0.8; stroke: #000000; stroke-width: 0.8; stroke-linejoin: miter"/>
   </g>
   <g id="patch_77">
    <path d="M 420.967372 234.42375 
L 425.839506 234.42375 
L 425.839506 230.190764 
L 420.967372 230.190764 
z
" clip-path="url(#pc5813042ed)" style="fill: #bc80bd; opacity: 0.8; stroke: #000000; stroke-width: 0.8; stroke-linejoin: miter"/>
   </g>
   <g id="patch_78">
    <path d="M 425.839506 234.42375 
L 430.711641 234.42375 
L 430.711641 232.307257 
L 425.839506 232.307257 
z
" clip-path="url(#pc5813042ed)" style="fill: #bc80bd; opacity: 0.8; stroke: #000000; stroke-width: 0.8; stroke-linejoin: miter"/>
   </g>
   <g id="patch_79">
    <path d="M 430.711641 234.42375 
L 435.583775 234.42375 
L 435.583775 230.190764 
L 430.711641 230.190764 
z
" clip-path="url(#pc5813042ed)" style="fill: #bc80bd; opacity: 0.8; stroke: #000000; stroke-width: 0.8; stroke-linejoin: miter"/>
   </g>
   <g id="patch_80">
    <path d="M 435.583775 234.42375 
L 440.45591 234.42375 
L 440.45591 234.42375 
L 435.583775 234.42375 
z
" clip-path="url(#pc5813042ed)" style="fill: #bc80bd; opacity: 0.8; stroke: #000000; stroke-width: 0.8; stroke-linejoin: miter"/>
   </g>
   <g id="patch_81">
    <path d="M 440.45591 234.42375 
L 445.328045 234.42375 
L 445.328045 234.42375 
L 440.45591 234.42375 
z
" clip-path="url(#pc5813042ed)" style="fill: #bc80bd; opacity: 0.8; stroke: #000000; stroke-width: 0.8; stroke-linejoin: miter"/>
   </g>
   <g id="patch_82">
    <path d="M 445.328045 234.42375 
L 450.200179 234.42375 
L 450.200179 232.307257 
L 445.328045 232.307257 
z
" clip-path="url(#pc5813042ed)" style="fill: #bc80bd; opacity: 0.8; stroke: #000000; stroke-width: 0.8; stroke-linejoin: miter"/>
   </g>
   <g id="matplotlib.axis_1">
    <g id="xtick_1">
     <g id="line2d_1">
      <defs>
       <path id="mcd29e0d7b4" d="M 0 0 
L 0 3.5 
" style="stroke: #323034; stroke-width: 0.8"/>
      </defs>
      <g>
       <use xlink:href="#mcd29e0d7b4" x="34.2" y="234.42375" style="fill: #323034; stroke: #323034; stroke-width: 0.8"/>
      </g>
     </g>
     <g id="text_1">
      <!-- $\mathdefault{−4}$ -->
      <g style="fill: #323034" transform="translate(24.68 252.35125) scale(0.16 -0.16)">
       <defs>
        <path id="STIXGeneral-Regular-2212" d="M 3974 1408 
L 410 1408 
L 410 1830 
L 3974 1830 
L 3974 1408 
z
" transform="scale(0.015625)"/>
        <path id="STIXGeneral-Regular-34" d="M 3027 1069 
L 2368 1069 
L 2368 0 
L 1869 0 
L 1869 1069 
L 77 1069 
L 77 1478 
L 2086 4326 
L 2368 4326 
L 2368 1478 
L 3027 1478 
L 3027 1069 
z
M 1869 1478 
L 1869 3674 
L 333 1478 
L 1869 1478 
z
" transform="scale(0.015625)"/>
       </defs>
       <use xlink:href="#STIXGeneral-Regular-2212" transform="translate(0 0.40625)"/>
       <use xlink:href="#STIXGeneral-Regular-34" transform="translate(68.499985 0.40625)"/>
      </g>
     </g>
    </g>
    <g id="xtick_2">
     <g id="line2d_2">
      <g>
       <use xlink:href="#mcd29e0d7b4" x="108.6" y="234.42375" style="fill: #323034; stroke: #323034; stroke-width: 0.8"/>
      </g>
     </g>
     <g id="text_2">
      <!-- $\mathdefault{−2}$ -->
      <g style="fill: #323034" transform="translate(99.08 252.35125) scale(0.16 -0.16)">
       <defs>
        <path id="STIXGeneral-Regular-32" d="M 3034 877 
L 2688 0 
L 186 0 
L 186 77 
L 1325 1286 
Q 1773 1754 1965 2144 
Q 2157 2534 2157 2950 
Q 2157 3379 1920 3616 
Q 1683 3853 1267 3853 
Q 922 3853 720 3673 
Q 518 3494 326 3021 
L 192 3053 
Q 301 3648 630 3987 
Q 960 4326 1523 4326 
Q 2054 4326 2380 4006 
Q 2707 3686 2707 3200 
Q 2707 2477 1888 1613 
L 832 486 
L 2330 486 
Q 2541 486 2665 569 
Q 2790 653 2944 915 
L 3034 877 
z
" transform="scale(0.015625)"/>
       </defs>
       <use xlink:href="#STIXGeneral-Regular-2212" transform="translate(0 0.40625)"/>
       <use xlink:href="#STIXGeneral-Regular-32" transform="translate(68.499985 0.40625)"/>
      </g>
     </g>
    </g>
    <g id="xtick_3">
     <g id="line2d_3">
      <g>
       <use xlink:href="#mcd29e0d7b4" x="183" y="234.42375" style="fill: #323034; stroke: #323034; stroke-width: 0.8"/>
      </g>
     </g>
     <g id="text_3">
      <!-- $\mathdefault{0}$ -->
      <g style="fill: #323034" transform="translate(179 252.35125) scale(0.16 -0.16)">
       <defs>
        <path id="STIXGeneral-Regular-30" d="M 3046 2112 
Q 3046 1683 2963 1302 
Q 2880 922 2717 602 
Q 2554 282 2266 96 
Q 1978 -90 1600 -90 
Q 1210 -90 915 108 
Q 621 307 461 640 
Q 301 973 227 1350 
Q 154 1728 154 2150 
Q 154 2746 301 3222 
Q 448 3699 790 4012 
Q 1133 4326 1626 4326 
Q 2253 4326 2649 3712 
Q 3046 3098 3046 2112 
z
M 2432 2080 
Q 2432 3091 2217 3625 
Q 2003 4160 1587 4160 
Q 1190 4160 979 3622 
Q 768 3085 768 2106 
Q 768 1120 979 598 
Q 1190 77 1600 77 
Q 2003 77 2217 598 
Q 2432 1120 2432 2080 
z
" transform="scale(0.015625)"/>
       </defs>
       <use xlink:href="#STIXGeneral-Regular-30" transform="translate(0 0.40625)"/>
      </g>
     </g>
    </g>
    <g id="xtick_4">
     <g id="line2d_4">
      <g>
       <use xlink:href="#mcd29e0d7b4" x="257.4" y="234.42375" style="fill: #323034; stroke: #323034; stroke-width: 0.8"/>
      </g>
     </g>
     <g id="text_4">
      <!-- $\mathdefault{2}$ -->
      <g style="fill: #323034" transform="translate(253.4 252.35125) scale(0.16 -0.16)">
       <use xlink:href="#STIXGeneral-Regular-32" transform="translate(0 0.40625)"/>
      </g>
     </g>
    </g>
    <g id="xtick_5">
     <g id="line2d_5">
      <g>
       <use xlink:href="#mcd29e0d7b4" x="331.8" y="234.42375" style="fill: #323034; stroke: #323034; stroke-width: 0.8"/>
      </g>
     </g>
     <g id="text_5">
      <!-- $\mathdefault{4}$ -->
      <g style="fill: #323034" transform="translate(327.8 252.35125) scale(0.16 -0.16)">
       <use xlink:href="#STIXGeneral-Regular-34" transform="translate(0 0.40625)"/>
      </g>
     </g>
    </g>
    <g id="xtick_6">
     <g id="line2d_6">
      <g>
       <use xlink:href="#mcd29e0d7b4" x="406.2" y="234.42375" style="fill: #323034; stroke: #323034; stroke-width: 0.8"/>
      </g>
     </g>
     <g id="text_6">
      <!-- $\mathdefault{6}$ -->
      <g style="fill: #323034" transform="translate(402.2 252.35125) scale(0.16 -0.16)">
       <defs>
        <path id="STIXGeneral-Regular-36" d="M 2854 4378 
L 2867 4275 
Q 2112 4154 1606 3664 
Q 1101 3174 973 2451 
Q 1344 2739 1786 2739 
Q 2349 2739 2672 2380 
Q 2995 2022 2995 1402 
Q 2995 774 2669 378 
Q 2291 -90 1651 -90 
Q 870 -90 518 557 
Q 218 1107 218 1786 
Q 218 2835 915 3552 
Q 1312 3962 1731 4131 
Q 2150 4301 2854 4378 
z
M 2419 1203 
Q 2419 2445 1555 2445 
Q 1235 2445 1024 2275 
Q 813 2106 813 1702 
Q 813 954 1046 522 
Q 1280 90 1722 90 
Q 2061 90 2240 394 
Q 2419 698 2419 1203 
z
" transform="scale(0.015625)"/>
       </defs>
       <use xlink:href="#STIXGeneral-Regular-36" transform="translate(0 0.59375)"/>
      </g>
     </g>
    </g>
    <g id="xtick_7">
     <g id="line2d_7">
      <g>
       <use xlink:href="#mcd29e0d7b4" x="480.6" y="234.42375" style="fill: #323034; stroke: #323034; stroke-width: 0.8"/>
      </g>
     </g>
     <g id="text_7">
      <!-- $\mathdefault{8}$ -->
      <g style="fill: #323034" transform="translate(476.6 252.35125) scale(0.16 -0.16)">
       <defs>
        <path id="STIXGeneral-Regular-38" d="M 2848 992 
Q 2848 499 2505 204 
Q 2163 -90 1587 -90 
Q 1050 -90 704 204 
Q 358 499 358 954 
Q 358 1293 524 1533 
Q 691 1773 1190 2125 
Q 710 2522 553 2765 
Q 397 3008 397 3328 
Q 397 3782 745 4054 
Q 1094 4326 1638 4326 
Q 2106 4326 2410 4060 
Q 2714 3795 2714 3411 
Q 2714 3059 2531 2848 
Q 2349 2637 1856 2374 
Q 2432 1990 2640 1689 
Q 2848 1389 2848 992 
z
M 2272 3411 
Q 2272 3744 2086 3945 
Q 1901 4147 1574 4147 
Q 1248 4147 1059 3977 
Q 870 3808 870 3513 
Q 870 3219 1059 2979 
Q 1248 2739 1670 2490 
Q 1997 2682 2134 2896 
Q 2272 3110 2272 3411 
z
M 1734 1741 
L 1357 1997 
Q 1075 1766 960 1545 
Q 845 1325 845 1011 
Q 845 576 1065 333 
Q 1286 90 1658 90 
Q 1971 90 2166 285 
Q 2362 480 2362 794 
Q 2362 1082 2214 1299 
Q 2067 1517 1734 1741 
z
" transform="scale(0.015625)"/>
       </defs>
       <use xlink:href="#STIXGeneral-Regular-38" transform="translate(0 0.40625)"/>
      </g>
     </g>
    </g>
   </g>
   <g id="matplotlib.axis_2">
    <g id="ytick_1">
     <g id="line2d_8">
      <defs>
       <path id="md9141fdc81" d="M 0 0 
L -3.5 0 
" style="stroke: #323034; stroke-width: 0.8"/>
      </defs>
      <g>
       <use xlink:href="#md9141fdc81" x="34.2" y="234.42375" style="fill: #323034; stroke: #323034; stroke-width: 0.8"/>
      </g>
     </g>
     <g id="text_8">
      <!-- $\mathdefault{0.0}$ -->
      <g style="fill: #323034" transform="translate(7.2 239.8875) scale(0.16 -0.16)">
       <defs>
        <path id="STIXGeneral-Regular-2e" d="M 1158 275 
Q 1158 134 1052 32 
Q 947 -70 800 -70 
Q 653 -70 550 32 
Q 448 134 448 281 
Q 448 429 553 534 
Q 659 640 806 640 
Q 947 640 1052 531 
Q 1158 422 1158 275 
z
" transform="scale(0.015625)"/>
       </defs>
       <use xlink:href="#STIXGeneral-Regular-30" transform="translate(0 0.40625)"/>
       <use xlink:href="#STIXGeneral-Regular-2e" transform="translate(49.999985 0.40625)"/>
       <use xlink:href="#STIXGeneral-Regular-30" transform="translate(74.999969 0.40625)"/>
      </g>
     </g>
    </g>
    <g id="ytick_2">
     <g id="line2d_9">
      <g>
       <use xlink:href="#md9141fdc81" x="34.2" y="178.98375" style="fill: #323034; stroke: #323034; stroke-width: 0.8"/>
      </g>
     </g>
     <g id="text_9">
      <!-- $\mathdefault{0.1}$ -->
      <g style="fill: #323034" transform="translate(7.2 184.4475) scale(0.16 -0.16)">
       <defs>
        <path id="STIXGeneral-Regular-31" d="M 2522 0 
L 755 0 
L 755 96 
Q 1107 115 1235 227 
Q 1363 339 1363 608 
L 1363 3482 
Q 1363 3795 1171 3795 
Q 1082 3795 883 3718 
L 710 3654 
L 710 3744 
L 1856 4326 
L 1914 4307 
L 1914 486 
Q 1914 275 2042 185 
Q 2170 96 2522 96 
L 2522 0 
z
" transform="scale(0.015625)"/>
       </defs>
       <use xlink:href="#STIXGeneral-Regular-30" transform="translate(0 0.40625)"/>
       <use xlink:href="#STIXGeneral-Regular-2e" transform="translate(49.999985 0.40625)"/>
       <use xlink:href="#STIXGeneral-Regular-31" transform="translate(74.999969 0.40625)"/>
      </g>
     </g>
    </g>
    <g id="ytick_3">
     <g id="line2d_10">
      <g>
       <use xlink:href="#md9141fdc81" x="34.2" y="123.54375" style="fill: #323034; stroke: #323034; stroke-width: 0.8"/>
      </g>
     </g>
     <g id="text_10">
      <!-- $\mathdefault{0.2}$ -->
      <g style="fill: #323034" transform="translate(7.2 129.0075) scale(0.16 -0.16)">
       <use xlink:href="#STIXGeneral-Regular-30" transform="translate(0 0.40625)"/>
       <use xlink:href="#STIXGeneral-Regular-2e" transform="translate(49.999985 0.40625)"/>
       <use xlink:href="#STIXGeneral-Regular-32" transform="translate(74.999969 0.40625)"/>
      </g>
     </g>
    </g>
    <g id="ytick_4">
     <g id="line2d_11">
      <g>
       <use xlink:href="#md9141fdc81" x="34.2" y="68.10375" style="fill: #323034; stroke: #323034; stroke-width: 0.8"/>
      </g>
     </g>
     <g id="text_11">
      <!-- $\mathdefault{0.3}$ -->
      <g style="fill: #323034" transform="translate(7.2 73.5675) scale(0.16 -0.16)">
       <defs>
        <path id="STIXGeneral-Regular-33" d="M 390 3264 
L 288 3290 
Q 435 3770 748 4048 
Q 1062 4326 1542 4326 
Q 1990 4326 2265 4083 
Q 2541 3840 2541 3450 
Q 2541 2925 1946 2566 
Q 2298 2413 2477 2227 
Q 2758 1914 2758 1402 
Q 2758 890 2464 506 
Q 2246 211 1840 60 
Q 1434 -90 979 -90 
Q 262 -90 262 275 
Q 262 378 339 442 
Q 416 506 525 506 
Q 685 506 915 339 
Q 1197 141 1466 141 
Q 1818 141 2058 425 
Q 2298 710 2298 1120 
Q 2298 1856 1632 2048 
Q 1434 2112 979 2112 
L 979 2202 
Q 1338 2323 1517 2432 
Q 2035 2726 2035 3290 
Q 2035 3610 1852 3776 
Q 1670 3942 1344 3942 
Q 768 3942 390 3264 
z
" transform="scale(0.015625)"/>
       </defs>
       <use xlink:href="#STIXGeneral-Regular-30" transform="translate(0 0.40625)"/>
       <use xlink:href="#STIXGeneral-Regular-2e" transform="translate(49.999985 0.40625)"/>
       <use xlink:href="#STIXGeneral-Regular-33" transform="translate(74.999969 0.40625)"/>
      </g>
     </g>
    </g>
    <g id="ytick_5">
     <g id="line2d_12">
      <g>
       <use xlink:href="#md9141fdc81" x="34.2" y="12.66375" style="fill: #323034; stroke: #323034; stroke-width: 0.8"/>
      </g>
     </g>
     <g id="text_12">
      <!-- $\mathdefault{0.4}$ -->
      <g style="fill: #323034" transform="translate(7.2 18.1275) scale(0.16 -0.16)">
       <use xlink:href="#STIXGeneral-Regular-30" transform="translate(0 0.40625)"/>
       <use xlink:href="#STIXGeneral-Regular-2e" transform="translate(49.999985 0.40625)"/>
       <use xlink:href="#STIXGeneral-Regular-34" transform="translate(74.999969 0.40625)"/>
      </g>
     </g>
    </g>
   </g>
   <g id="line2d_13">
    <path d="M -1 234.419572 
L 45.382365 234.295943 
L 62.081363 234.052455 
L 73.561924 233.689089 
L 82.95511 233.178657 
L 90.260922 232.58262 
L 96.523046 231.883331 
L 102.78517 230.961336 
L 108.003607 229.984027 
L 113.222044 228.77933 
L 118.440481 227.308838 
L 122.61523 225.913622 
L 126.78998 224.300357 
L 130.964729 222.446982 
L 135.139479 220.33162 
L 139.314228 217.933124 
L 143.488978 215.231711 
L 147.663727 212.209657 
L 151.838477 208.852054 
L 156.013226 205.147601 
L 160.187976 201.08941 
L 164.362725 196.67581 
L 168.537475 191.911105 
L 172.712224 186.806262 
L 176.886974 181.379499 
L 182.105411 174.183586 
L 187.323848 166.59393 
L 193.585972 157.091523 
L 215.503407 123.36799 
L 219.678156 117.459368 
L 223.852906 111.90864 
L 228.027655 106.79481 
L 231.158717 103.291593 
L 234.28978 100.106295 
L 237.420842 97.266454 
L 240.551904 94.797015 
L 243.682966 92.719962 
L 245.770341 91.56263 
L 247.857715 90.592746 
L 249.94509 89.814243 
L 252.032465 89.230292 
L 254.11984 88.843279 
L 256.207214 88.654787 
L 258.294589 88.665589 
L 260.381964 88.875641 
L 262.469339 89.284083 
L 264.556713 89.889241 
L 266.644088 90.688646 
L 268.731463 91.679042 
L 270.818838 92.856415 
L 272.906212 94.216017 
L 276.037275 96.584995 
L 279.168337 99.330415 
L 282.299399 102.428071 
L 285.430461 105.851064 
L 288.561523 109.570191 
L 292.736273 114.935715 
L 296.911022 120.694704 
L 302.129459 128.324298 
L 308.391583 137.902782 
L 327.177956 166.929889 
L 332.396393 174.50416 
L 337.61483 181.681326 
L 341.789579 187.091244 
L 345.964329 192.17806 
L 350.139078 196.923964 
L 354.313828 201.318364 
L 358.488577 205.357299 
L 362.663327 209.042743 
L 366.838076 212.381843 
L 371.012826 215.386116 
L 375.187575 218.070644 
L 379.362325 220.45328 
L 383.537074 222.553899 
L 387.711824 224.393702 
L 391.886573 225.994592 
L 396.061323 227.378622 
L 401.27976 228.836761 
L 406.498196 230.030829 
L 411.716633 230.999104 
L 417.978758 231.912159 
L 424.240882 232.604322 
L 431.546693 233.193971 
L 439.896192 233.653723 
L 450.333066 234.007852 
L 464.944689 234.25798 
L 480.6 234.366314 
L 480.6 234.366314 
" clip-path="url(#pc5813042ed)" style="fill: none; stroke: #fb8072; stroke-width: 3; stroke-linecap: square"/>
   </g>
   <g id="patch_83">
    <path d="M 34.2 234.42375 
L 34.2 12.66375 
" style="fill: none; stroke: #000000; stroke-width: 0.6; stroke-linejoin: miter; stroke-linecap: square"/>
   </g>
   <g id="patch_84">
    <path d="M 34.2 234.42375 
L 480.6 234.42375 
" style="fill: none; stroke: #000000; stroke-width: 0.6; stroke-linejoin: miter; stroke-linecap: square"/>
   </g>
   <g id="legend_1">
    <g id="patch_85">
     <path d="M 42.6 29.46375 
L 66.6 29.46375 
L 66.6 21.06375 
L 42.6 21.06375 
z
" style="fill: #bc80bd; opacity: 0.8; stroke: #000000; stroke-width: 0.8; stroke-linejoin: miter"/>
    </g>
    <g id="text_13">
     <!-- Histogram -->
     <g style="fill: #323034" transform="translate(76.2 29.46375) scale(0.12 -0.12)">
      <defs>
       <path id="STIXGeneral-Regular-48" d="M 4499 0 
L 2714 0 
L 2714 122 
Q 3085 147 3181 265 
Q 3277 384 3277 794 
L 3277 2016 
L 1338 2016 
L 1338 723 
Q 1338 371 1440 256 
Q 1542 141 1894 122 
L 1901 0 
L 115 0 
L 115 122 
Q 493 147 589 259 
Q 685 371 685 781 
L 685 3507 
Q 685 3878 585 3980 
Q 486 4083 115 4115 
L 115 4237 
L 1907 4237 
L 1907 4115 
Q 1549 4083 1443 3977 
Q 1338 3872 1338 3507 
L 1338 2298 
L 3277 2298 
L 3277 3507 
Q 3277 3878 3177 3980 
Q 3078 4083 2707 4115 
L 2707 4237 
L 4499 4237 
L 4499 4115 
Q 4141 4083 4035 3977 
Q 3930 3872 3930 3507 
L 3930 710 
Q 3930 371 4035 259 
Q 4141 147 4499 122 
L 4499 0 
z
" transform="scale(0.015625)"/>
       <path id="STIXGeneral-Regular-69" d="M 1152 4045 
Q 1152 3904 1056 3811 
Q 960 3718 819 3718 
Q 685 3718 592 3811 
Q 499 3904 499 4045 
Q 499 4179 595 4275 
Q 691 4371 826 4371 
Q 966 4371 1059 4275 
Q 1152 4179 1152 4045 
z
M 1619 0 
L 102 0 
L 102 96 
Q 435 115 521 211 
Q 608 307 608 666 
L 608 2118 
Q 608 2342 563 2432 
Q 518 2522 397 2522 
Q 243 2522 128 2490 
L 128 2592 
L 1120 2944 
L 1146 2918 
L 1146 672 
Q 1146 314 1226 218 
Q 1306 122 1619 96 
L 1619 0 
z
" transform="scale(0.015625)"/>
       <path id="STIXGeneral-Regular-73" d="M 998 1926 
L 1664 1523 
Q 1984 1331 2105 1164 
Q 2227 998 2227 736 
Q 2227 416 1961 176 
Q 1696 -64 1331 -64 
Q 1030 -64 864 -6 
Q 691 51 570 51 
Q 461 51 416 -26 
L 333 -26 
L 333 979 
L 435 979 
Q 538 512 730 294 
Q 922 77 1248 77 
Q 1485 77 1632 211 
Q 1779 346 1779 550 
Q 1779 845 1440 1030 
L 1094 1222 
Q 326 1651 326 2150 
Q 326 2522 566 2730 
Q 806 2938 1210 2938 
Q 1491 2938 1638 2867 
Q 1754 2816 1818 2816 
Q 1862 2816 1920 2880 
L 1990 2880 
L 2022 2010 
L 1926 2010 
Q 1818 2445 1654 2621 
Q 1491 2797 1203 2797 
Q 986 2797 854 2688 
Q 723 2579 723 2362 
Q 723 2253 796 2128 
Q 870 2003 998 1926 
z
" transform="scale(0.015625)"/>
       <path id="STIXGeneral-Regular-74" d="M 1702 493 
L 1786 422 
Q 1478 -64 1011 -64 
Q 448 -64 448 749 
L 448 2675 
L 109 2675 
Q 83 2694 83 2720 
Q 83 2771 192 2842 
Q 435 2982 813 3526 
Q 826 3546 874 3606 
Q 922 3667 941 3706 
Q 986 3706 986 3622 
L 986 2880 
L 1632 2880 
L 1632 2675 
L 986 2675 
L 986 845 
Q 986 538 1062 403 
Q 1139 269 1318 269 
Q 1510 269 1702 493 
z
" transform="scale(0.015625)"/>
       <path id="STIXGeneral-Regular-6f" d="M 3008 1478 
Q 3008 806 2608 371 
Q 2208 -64 1568 -64 
Q 979 -64 582 368 
Q 186 800 186 1459 
Q 186 2125 582 2534 
Q 979 2944 1626 2944 
Q 2221 2944 2614 2537 
Q 3008 2131 3008 1478 
z
M 2432 1306 
Q 2432 2035 2112 2445 
Q 1856 2765 1504 2765 
Q 1171 2765 966 2493 
Q 762 2221 762 1747 
Q 762 928 1101 435 
Q 1318 115 1677 115 
Q 2029 115 2230 432 
Q 2432 749 2432 1306 
z
" transform="scale(0.015625)"/>
       <path id="STIXGeneral-Regular-67" d="M 3008 2483 
L 2477 2483 
Q 2598 2208 2598 1946 
Q 2598 1453 2265 1203 
Q 1933 954 1600 954 
Q 1530 954 1357 973 
L 1235 986 
Q 1107 947 979 812 
Q 851 678 851 582 
Q 851 435 1350 410 
L 2176 371 
Q 2528 358 2739 172 
Q 2950 -13 2950 -314 
Q 2950 -685 2566 -986 
Q 2035 -1395 1286 -1395 
Q 826 -1395 502 -1212 
Q 179 -1030 179 -774 
Q 179 -595 320 -419 
Q 461 -243 806 6 
Q 602 102 534 172 
Q 467 243 467 346 
Q 467 531 762 787 
Q 909 915 1037 1043 
Q 717 1203 579 1401 
Q 442 1600 442 1901 
Q 442 2336 752 2640 
Q 1062 2944 1510 2944 
Q 1766 2944 2022 2848 
L 2163 2797 
Q 2349 2733 2515 2733 
L 3008 2733 
L 3008 2483 
z
M 973 2163 
L 973 2144 
Q 973 1683 1155 1398 
Q 1338 1114 1632 1114 
Q 1850 1114 1978 1270 
Q 2106 1427 2106 1690 
Q 2106 2112 1914 2464 
Q 1754 2765 1446 2765 
Q 1222 2765 1097 2605 
Q 973 2445 973 2163 
z
M 2771 -410 
Q 2771 -230 2595 -163 
Q 2419 -96 1978 -96 
Q 1344 -96 941 -13 
Q 749 -243 688 -348 
Q 627 -454 627 -563 
Q 627 -774 880 -902 
Q 1133 -1030 1555 -1030 
Q 2099 -1030 2435 -860 
Q 2771 -691 2771 -410 
z
" transform="scale(0.015625)"/>
       <path id="STIXGeneral-Regular-72" d="M 1024 2931 
L 1024 2342 
Q 1267 2688 1430 2816 
Q 1594 2944 1792 2944 
Q 1958 2944 2051 2854 
Q 2144 2765 2144 2605 
Q 2144 2470 2077 2393 
Q 2010 2317 1894 2317 
Q 1773 2317 1638 2445 
Q 1536 2541 1472 2541 
Q 1338 2541 1181 2355 
Q 1024 2170 1024 2016 
L 1024 576 
Q 1024 301 1133 205 
Q 1242 109 1568 96 
L 1568 0 
L 32 0 
L 32 96 
Q 339 154 412 224 
Q 486 294 486 538 
L 486 2138 
Q 486 2349 438 2435 
Q 390 2522 269 2522 
Q 166 2522 45 2496 
L 45 2598 
Q 448 2726 992 2944 
L 1024 2931 
z
" transform="scale(0.015625)"/>
       <path id="STIXGeneral-Regular-61" d="M 2829 422 
L 2829 243 
Q 2586 -64 2253 -64 
Q 1888 -64 1843 403 
L 1837 403 
Q 1427 -64 909 -64 
Q 608 -64 422 112 
Q 237 288 237 602 
Q 237 1050 685 1350 
Q 992 1555 1837 1869 
L 1837 2214 
Q 1837 2502 1699 2646 
Q 1562 2790 1338 2790 
Q 1146 2790 1018 2697 
Q 890 2605 890 2477 
Q 890 2419 909 2348 
Q 928 2278 928 2208 
Q 928 2112 841 2029 
Q 755 1946 634 1946 
Q 525 1946 441 2029 
Q 358 2112 358 2240 
Q 358 2547 685 2752 
Q 986 2944 1421 2944 
Q 1939 2944 2176 2656 
Q 2291 2522 2323 2384 
Q 2355 2246 2355 1946 
L 2355 723 
Q 2355 301 2554 301 
Q 2682 301 2829 422 
z
M 1837 813 
L 1837 1715 
Q 1248 1510 1018 1293 
Q 800 1094 800 800 
Q 800 557 921 432 
Q 1043 307 1242 307 
Q 1453 307 1613 410 
Q 1747 506 1792 589 
Q 1837 672 1837 813 
z
" transform="scale(0.015625)"/>
       <path id="STIXGeneral-Regular-6d" d="M 4960 0 
L 3565 0 
L 3565 96 
Q 3834 122 3907 208 
Q 3981 294 3981 576 
L 3981 1894 
Q 3981 2278 3869 2444 
Q 3757 2611 3488 2611 
Q 3264 2611 3107 2521 
Q 2950 2432 2803 2221 
L 2803 608 
Q 2803 301 2896 201 
Q 2989 102 3264 96 
L 3264 0 
L 1830 0 
L 1830 96 
Q 2112 115 2189 188 
Q 2266 262 2266 550 
L 2266 1901 
Q 2266 2611 1850 2611 
Q 1670 2611 1468 2531 
Q 1267 2451 1171 2336 
Q 1088 2240 1088 2227 
L 1088 448 
Q 1088 243 1177 176 
Q 1267 109 1523 96 
L 1523 0 
L 102 0 
L 102 96 
Q 371 102 460 195 
Q 550 288 550 563 
L 550 2150 
Q 550 2387 499 2480 
Q 448 2573 326 2573 
Q 230 2573 122 2547 
L 122 2656 
Q 557 2778 1011 2944 
L 1062 2925 
L 1062 2451 
L 1075 2451 
Q 1363 2752 1584 2848 
Q 1805 2944 2054 2944 
Q 2560 2944 2733 2406 
Q 3232 2944 3776 2944 
Q 4518 2944 4518 1792 
L 4518 493 
Q 4518 282 4582 202 
Q 4646 122 4794 109 
L 4960 96 
L 4960 0 
z
" transform="scale(0.015625)"/>
      </defs>
      <use xlink:href="#STIXGeneral-Regular-48"/>
      <use xlink:href="#STIXGeneral-Regular-69" transform="translate(72.199982 0)"/>
      <use xlink:href="#STIXGeneral-Regular-73" transform="translate(99.999969 0)"/>
      <use xlink:href="#STIXGeneral-Regular-74" transform="translate(138.899963 0)"/>
      <use xlink:href="#STIXGeneral-Regular-6f" transform="translate(166.699951 0)"/>
      <use xlink:href="#STIXGeneral-Regular-67" transform="translate(216.699936 0)"/>
      <use xlink:href="#STIXGeneral-Regular-72" transform="translate(266.699921 0)"/>
      <use xlink:href="#STIXGeneral-Regular-61" transform="translate(299.999908 0)"/>
      <use xlink:href="#STIXGeneral-Regular-6d" transform="translate(344.399902 0)"/>
     </g>
    </g>
    <g id="line2d_14">
     <path d="M 42.6 41.235 
L 54.6 41.235 
L 66.6 41.235 
" style="fill: none; stroke: #fb8072; stroke-width: 3; stroke-linecap: square"/>
    </g>
    <g id="text_14">
     <!-- Est. normal dist. ($\hat{\mu}=$1.99 and $\hat{\sigma}=$1.52 ) -->
     <g style="fill: #323034" transform="translate(76.2 45.435) scale(0.12 -0.12)">
      <defs>
       <path id="STIXGeneral-Regular-45" d="M 3821 1082 
L 3526 0 
L 77 0 
L 77 122 
Q 442 147 538 252 
Q 634 358 634 730 
L 634 3520 
Q 634 3878 534 3987 
Q 435 4096 77 4115 
L 77 4237 
L 3469 4237 
L 3494 3322 
L 3334 3322 
Q 3264 3750 3085 3872 
Q 2906 3994 2349 3994 
L 1510 3994 
Q 1370 3994 1328 3952 
Q 1286 3910 1286 3763 
L 1286 2355 
L 2253 2355 
Q 2656 2355 2787 2470 
Q 2918 2586 2976 2970 
L 3123 2970 
L 3123 1472 
L 2976 1472 
Q 2918 1875 2790 1984 
Q 2662 2093 2253 2093 
L 1286 2093 
L 1286 538 
Q 1286 346 1420 291 
Q 1555 237 1933 237 
L 2163 237 
Q 2848 237 3136 403 
Q 3424 570 3642 1082 
L 3821 1082 
z
" transform="scale(0.015625)"/>
       <path id="STIXGeneral-Regular-20" transform="scale(0.015625)"/>
       <path id="STIXGeneral-Regular-6e" d="M 3104 0 
L 1773 0 
L 1779 96 
Q 2016 115 2096 233 
Q 2176 352 2176 672 
L 2176 1946 
Q 2176 2592 1709 2592 
Q 1549 2592 1408 2515 
Q 1267 2438 1050 2227 
L 1050 461 
Q 1050 269 1136 192 
Q 1222 115 1466 96 
L 1466 0 
L 115 0 
L 115 96 
Q 358 115 435 214 
Q 512 314 512 602 
L 512 2157 
Q 512 2394 467 2483 
Q 422 2573 288 2573 
Q 160 2573 102 2547 
L 102 2656 
Q 550 2784 979 2944 
L 1030 2925 
L 1030 2426 
L 1037 2426 
Q 1491 2944 1958 2944 
Q 2323 2944 2518 2688 
Q 2714 2432 2714 1958 
L 2714 544 
Q 2714 288 2790 205 
Q 2867 122 3104 96 
L 3104 0 
z
" transform="scale(0.015625)"/>
       <path id="STIXGeneral-Regular-6c" d="M 1645 0 
L 134 0 
L 134 96 
Q 435 122 531 221 
Q 627 320 627 589 
L 627 3590 
Q 627 3821 569 3910 
Q 512 4000 358 4000 
Q 224 4000 122 3987 
L 122 4090 
Q 730 4237 1133 4371 
L 1165 4346 
L 1165 557 
Q 1165 288 1254 201 
Q 1344 115 1645 96 
L 1645 0 
z
" transform="scale(0.015625)"/>
       <path id="STIXGeneral-Regular-64" d="M 3142 269 
L 2202 -64 
L 2176 -45 
L 2176 365 
Q 1869 -64 1357 -64 
Q 826 -64 499 317 
Q 173 698 173 1312 
Q 173 1990 563 2467 
Q 954 2944 1504 2944 
Q 1850 2944 2176 2669 
L 2176 3667 
Q 2176 3866 2118 3930 
Q 2061 3994 1882 3994 
Q 1792 3994 1741 3987 
L 1741 4090 
Q 2323 4243 2682 4371 
L 2714 4358 
L 2714 730 
Q 2714 506 2768 435 
Q 2822 365 2995 365 
Q 3034 365 3142 371 
L 3142 269 
z
M 2176 653 
L 2176 2125 
Q 2176 2381 1981 2573 
Q 1786 2765 1523 2765 
Q 1158 2765 940 2438 
Q 723 2112 723 1568 
Q 723 979 963 624 
Q 1203 269 1606 269 
Q 1907 269 2080 474 
Q 2176 582 2176 653 
z
" transform="scale(0.015625)"/>
       <path id="STIXGeneral-Regular-28" d="M 1946 -1030 
L 1869 -1133 
Q 1126 -710 716 32 
Q 307 774 307 1613 
Q 307 3386 1888 4326 
L 1946 4224 
Q 1293 3667 1075 3126 
Q 858 2586 858 1632 
Q 858 685 1082 96 
Q 1306 -493 1946 -1030 
z
" transform="scale(0.015625)"/>
       <path id="STIXGeneral-Regular-302" d="M -480 3245 
L -698 3245 
L -1478 3904 
L -2253 3245 
L -2470 3245 
L -1677 4314 
L -1280 4314 
L -480 3245 
z
" transform="scale(0.015625)"/>
       <path id="STIXGeneral-Italic-3bc" d="M 3002 749 
L 3091 691 
Q 2797 237 2614 83 
Q 2432 -70 2214 -70 
Q 2080 -70 1990 6 
Q 1901 83 1901 218 
Q 1901 416 1997 704 
L 2208 1370 
L 2202 1370 
Q 1766 595 1475 268 
Q 1184 -58 902 -58 
Q 723 -58 672 122 
Q 614 -109 547 -374 
Q 480 -640 451 -758 
Q 422 -877 384 -1005 
Q 346 -1133 314 -1197 
Q 282 -1261 243 -1312 
L -211 -1312 
Q -58 -1088 70 -595 
L 909 2739 
L 1389 2739 
L 909 832 
Q 883 717 883 659 
Q 883 352 1139 352 
Q 1395 352 1811 969 
Q 2227 1587 2323 1958 
L 2534 2739 
L 3027 2739 
L 2522 819 
Q 2400 333 2400 326 
Q 2400 230 2470 230 
Q 2547 230 2652 329 
Q 2758 429 3002 749 
z
" transform="scale(0.015625)"/>
       <path id="STIXGeneral-Regular-3d" d="M 4077 2048 
L 307 2048 
L 307 2470 
L 4077 2470 
L 4077 2048 
z
M 4077 768 
L 307 768 
L 307 1190 
L 4077 1190 
L 4077 768 
z
" transform="scale(0.015625)"/>
       <path id="STIXGeneral-Regular-39" d="M 378 -141 
L 358 -13 
Q 1094 115 1603 608 
Q 2112 1101 2304 1882 
Q 1933 1517 1344 1517 
Q 826 1517 509 1875 
Q 192 2234 192 2816 
Q 192 3462 573 3894 
Q 954 4326 1523 4326 
Q 2131 4326 2528 3840 
Q 2938 3328 2938 2522 
Q 2938 1958 2742 1462 
Q 2547 966 2170 621 
Q 1773 262 1395 105 
Q 1018 -51 378 -141 
z
M 2317 2272 
L 2317 2522 
Q 2317 4147 1472 4147 
Q 1171 4147 1005 3930 
Q 909 3802 845 3546 
Q 781 3290 781 3034 
Q 781 2464 995 2128 
Q 1210 1792 1568 1792 
Q 1824 1792 2070 1917 
Q 2317 2042 2317 2272 
z
" transform="scale(0.015625)"/>
       <path id="STIXGeneral-Italic-3c3" d="M 3398 2739 
L 3283 2266 
L 2195 2266 
Q 2291 2112 2457 1981 
Q 2624 1850 2717 1725 
Q 2810 1600 2810 1389 
Q 2810 851 2288 390 
Q 1766 -70 1107 -70 
Q 659 -70 416 170 
Q 173 410 173 832 
Q 173 1274 409 1706 
Q 646 2138 1113 2438 
Q 1581 2739 2157 2739 
L 3398 2739 
z
M 2272 1414 
Q 2272 1709 2166 1939 
Q 2061 2170 1901 2266 
Q 1530 2266 1120 1770 
Q 710 1274 710 640 
Q 710 358 844 211 
Q 979 64 1210 64 
Q 1638 64 1955 525 
Q 2272 986 2272 1414 
z
" transform="scale(0.015625)"/>
       <path id="STIXGeneral-Regular-35" d="M 2803 4358 
L 2573 3814 
Q 2534 3731 2400 3731 
L 1158 3731 
L 902 3187 
Q 1606 3053 1920 2896 
Q 2234 2739 2502 2368 
Q 2726 2061 2726 1555 
Q 2726 1094 2576 780 
Q 2426 467 2099 224 
Q 1664 -90 1011 -90 
Q 646 -90 422 19 
Q 198 128 198 307 
Q 198 550 486 550 
Q 717 550 960 352 
Q 1210 147 1414 147 
Q 1747 147 2012 480 
Q 2278 813 2278 1229 
Q 2278 1843 1850 2189 
Q 1293 2637 486 2637 
Q 410 2637 410 2688 
L 416 2720 
L 1114 4237 
L 2438 4237 
Q 2547 4237 2608 4269 
Q 2669 4301 2746 4403 
L 2803 4358 
z
" transform="scale(0.015625)"/>
       <path id="STIXGeneral-Regular-29" d="M 186 4224 
L 262 4326 
Q 992 3891 1408 3148 
Q 1824 2406 1824 1581 
Q 1824 -166 243 -1133 
L 186 -1030 
Q 845 -486 1059 54 
Q 1274 595 1274 1562 
Q 1274 2534 1059 3120 
Q 845 3706 186 4224 
z
" transform="scale(0.015625)"/>
      </defs>
      <use xlink:href="#STIXGeneral-Regular-45"/>
      <use xlink:href="#STIXGeneral-Regular-73" transform="translate(61.099991 0)"/>
      <use xlink:href="#STIXGeneral-Regular-74" transform="translate(99.999985 0)"/>
      <use xlink:href="#STIXGeneral-Regular-2e" transform="translate(127.799973 0)"/>
      <use xlink:href="#STIXGeneral-Regular-20" transform="translate(152.799957 0)"/>
      <use xlink:href="#STIXGeneral-Regular-6e" transform="translate(177.799942 0)"/>
      <use xlink:href="#STIXGeneral-Regular-6f" transform="translate(227.799927 0)"/>
      <use xlink:href="#STIXGeneral-Regular-72" transform="translate(277.799911 0)"/>
      <use xlink:href="#STIXGeneral-Regular-6d" transform="translate(311.099899 0)"/>
      <use xlink:href="#STIXGeneral-Regular-61" transform="translate(388.899887 0)"/>
      <use xlink:href="#STIXGeneral-Regular-6c" transform="translate(433.299881 0)"/>
      <use xlink:href="#STIXGeneral-Regular-20" transform="translate(461.099869 0)"/>
      <use xlink:href="#STIXGeneral-Regular-64" transform="translate(486.099854 0)"/>
      <use xlink:href="#STIXGeneral-Regular-69" transform="translate(536.099838 0)"/>
      <use xlink:href="#STIXGeneral-Regular-73" transform="translate(563.899826 0)"/>
      <use xlink:href="#STIXGeneral-Regular-74" transform="translate(602.79982 0)"/>
      <use xlink:href="#STIXGeneral-Regular-2e" transform="translate(630.599808 0)"/>
      <use xlink:href="#STIXGeneral-Regular-20" transform="translate(655.599792 0)"/>
      <use xlink:href="#STIXGeneral-Regular-28" transform="translate(680.599777 0)"/>
      <use xlink:href="#STIXGeneral-Regular-302" transform="translate(769.643513 4.59375)"/>
      <use xlink:href="#STIXGeneral-Italic-3bc" transform="translate(713.899765 0)"/>
      <use xlink:href="#STIXGeneral-Regular-3d" transform="translate(780.939752 0)"/>
      <use xlink:href="#STIXGeneral-Regular-31" transform="translate(863.879733 0)"/>
      <use xlink:href="#STIXGeneral-Regular-2e" transform="translate(913.879718 0)"/>
      <use xlink:href="#STIXGeneral-Regular-39" transform="translate(938.879703 0)"/>
      <use xlink:href="#STIXGeneral-Regular-39" transform="translate(988.879688 0)"/>
      <use xlink:href="#STIXGeneral-Regular-20" transform="translate(1038.879672 0)"/>
      <use xlink:href="#STIXGeneral-Regular-61" transform="translate(1063.879657 0)"/>
      <use xlink:href="#STIXGeneral-Regular-6e" transform="translate(1108.279651 0)"/>
      <use xlink:href="#STIXGeneral-Regular-64" transform="translate(1158.279636 0)"/>
      <use xlink:href="#STIXGeneral-Regular-20" transform="translate(1208.27962 0)"/>
      <use xlink:href="#STIXGeneral-Regular-302" transform="translate(1287.323352 4.59375)"/>
      <use xlink:href="#STIXGeneral-Italic-3c3" transform="translate(1233.279605 0)"/>
      <use xlink:href="#STIXGeneral-Regular-3d" transform="translate(1297.519589 0)"/>
      <use xlink:href="#STIXGeneral-Regular-31" transform="translate(1380.45957 0)"/>
      <use xlink:href="#STIXGeneral-Regular-2e" transform="translate(1430.459555 0)"/>
      <use xlink:href="#STIXGeneral-Regular-35" transform="translate(1455.45954 0)"/>
      <use xlink:href="#STIXGeneral-Regular-32" transform="translate(1505.459525 0)"/>
      <use xlink:href="#STIXGeneral-Regular-20" transform="translate(1555.459509 0)"/>
      <use xlink:href="#STIXGeneral-Regular-29" transform="translate(1580.459494 0)"/>
     </g>
    </g>
   </g>
  </g>
 </g>
 <defs>
  <clipPath id="pc5813042ed">
   <rect x="34.2" y="12.66375" width="446.4" height="221.76"/>
  </clipPath>
 </defs>
</svg>