<?xml version="1.0" encoding="utf-8" standalone="no"?>
<!DOCTYPE svg PUBLIC "-//W3C//DTD SVG 1.1//EN"
  "http://www.w3.org/Graphics/SVG/1.1/DTD/svg11.dtd">
<svg xmlns:xlink="http://www.w3.org/1999/xlink" width="447.267266pt" height="349.155pt" viewBox="0 0 447.267266 349.155" xmlns="http://www.w3.org/2000/svg" version="1.1">
 <metadata>
  <rdf:RDF xmlns:dc="http://purl.org/dc/elements/1.1/" xmlns:cc="http://creativecommons.org/ns#" xmlns:rdf="http://www.w3.org/1999/02/22-rdf-syntax-ns#">
   <cc:Work>
    <dc:type rdf:resource="http://purl.org/dc/dcmitype/StillImage"/>
    <dc:date>2024-03-24T10:33:07.124360</dc:date>
    <dc:format>image/svg+xml</dc:format>
    <dc:creator>
     <cc:Agent>
      <dc:title>Matplotlib v3.8.2, https://matplotlib.org/</dc:title>
     </cc:Agent>
    </dc:creator>
   </cc:Work>
  </rdf:RDF>
 </metadata>
 <defs>
  <style type="text/css">*{stroke-linejoin: round; stroke-linecap: butt}</style>
 </defs>
 <g id="figure_1">
  <g id="patch_1">
   <path d="M 0 349.155 
L 447.267266 349.155 
L 447.267266 0 
L 0 0 
z
" style="fill: #ffffff"/>
  </g>
  <g id="axes_1">
   <g id="patch_2">
    <path d="M 51.615 303.155 
L 332.226266 303.155 
L 332.226266 12.66375 
L 51.615 12.66375 
z
" style="fill: #ffffff"/>
   </g>
   <g id="PolyCollection_1">
    <defs>
     <path id="mae2851a8c3" d="M 92.57337 -46.012627 
L 92.57337 -46 
L 93.37442 -46 
L 94.17547 -46 
L 94.97652 -46 
L 95.77757 -46 
L 96.57862 -46 
L 97.37967 -46 
L 98.18072 -46 
L 98.98177 -46 
L 99.78282 -46 
L 100.58387 -46 
L 101.38492 -46 
L 102.18597 -46 
L 102.98702 -46 
L 103.78807 -46 
L 104.58912 -46 
L 105.39017 -46 
L 106.19122 -46 
L 106.99227 -46 
L 107.79332 -46 
L 108.59437 -46 
L 109.39542 -46 
L 110.19647 -46 
L 110.99752 -46 
L 111.79857 -46 
L 112.59962 -46 
L 113.40067 -46 
L 114.20172 -46 
L 115.00277 -46 
L 115.80382 -46 
L 116.60487 -46 
L 117.405919 -46 
L 118.206969 -46 
L 119.008019 -46 
L 119.809069 -46 
L 120.610119 -46 
L 121.411169 -46 
L 122.212219 -46 
L 123.013269 -46 
L 123.814319 -46 
L 124.615369 -46 
L 125.416419 -46 
L 126.217469 -46 
L 127.018519 -46 
L 127.819569 -46 
L 128.620619 -46 
L 129.421669 -46 
L 130.222719 -46 
L 131.023769 -46 
L 131.824819 -46 
L 132.625869 -46 
L 133.426919 -46 
L 134.227969 -46 
L 135.029019 -46 
L 135.830069 -46 
L 136.631119 -46 
L 137.432169 -46 
L 138.233219 -46 
L 139.034269 -46 
L 139.835319 -46 
L 140.636369 -46 
L 141.437419 -46 
L 142.238469 -46 
L 143.039519 -46 
L 143.840569 -46 
L 144.641619 -46 
L 145.442669 -46 
L 146.243719 -46 
L 147.044769 -46 
L 147.845819 -46 
L 148.646869 -46 
L 149.447919 -46 
L 150.248969 -46 
L 151.050019 -46 
L 151.851069 -46 
L 152.652119 -46 
L 153.453169 -46 
L 154.254219 -46 
L 155.055269 -46 
L 155.856319 -46 
L 156.657369 -46 
L 157.458419 -46 
L 158.259469 -46 
L 159.060519 -46 
L 159.861569 -46 
L 160.662619 -46 
L 161.463669 -46 
L 162.264719 -46 
L 163.065769 -46 
L 163.866819 -46 
L 164.667869 -46 
L 165.468919 -46 
L 166.269969 -46 
L 167.071019 -46 
L 167.872069 -46 
L 168.673119 -46 
L 169.474169 -46 
L 170.275219 -46 
L 171.076269 -46 
L 171.877319 -46 
L 172.678369 -46 
L 173.479419 -46 
L 174.280469 -46 
L 175.081519 -46 
L 175.882569 -46 
L 176.683619 -46 
L 177.484669 -46 
L 178.285719 -46 
L 179.086769 -46 
L 179.887819 -46 
L 180.688869 -46 
L 181.489919 -46 
L 182.290969 -46 
L 183.092019 -46 
L 183.893069 -46 
L 184.694119 -46 
L 185.495169 -46 
L 186.296219 -46 
L 187.097269 -46 
L 187.898319 -46 
L 188.699369 -46 
L 189.500419 -46 
L 190.301469 -46 
L 191.102519 -46 
L 191.903569 -46 
L 192.704619 -46 
L 193.505669 -46 
L 194.306719 -46 
L 195.107769 -46 
L 195.908819 -46 
L 196.709869 -46 
L 197.510919 -46 
L 198.311969 -46 
L 199.113019 -46 
L 199.914069 -46 
L 200.715119 -46 
L 201.516169 -46 
L 202.317219 -46 
L 203.118269 -46 
L 203.919319 -46 
L 204.720369 -46 
L 205.521419 -46 
L 206.322469 -46 
L 207.123519 -46 
L 207.924569 -46 
L 208.725619 -46 
L 209.526669 -46 
L 210.327719 -46 
L 211.128769 -46 
L 211.929819 -46 
L 212.730869 -46 
L 213.531919 -46 
L 214.332969 -46 
L 215.134019 -46 
L 215.935069 -46 
L 216.736119 -46 
L 217.537169 -46 
L 218.338219 -46 
L 219.139269 -46 
L 219.940319 -46 
L 220.741369 -46 
L 221.542419 -46 
L 222.343469 -46 
L 223.144519 -46 
L 223.945569 -46 
L 224.746619 -46 
L 225.547669 -46 
L 226.348719 -46 
L 227.149769 -46 
L 227.950819 -46 
L 228.751869 -46 
L 229.552919 -46 
L 230.353969 -46 
L 231.155019 -46 
L 231.956069 -46 
L 232.757119 -46 
L 233.558169 -46 
L 234.359219 -46 
L 235.160269 -46 
L 235.961319 -46 
L 236.762369 -46 
L 237.563419 -46 
L 238.364469 -46 
L 239.165519 -46 
L 239.966569 -46 
L 240.767619 -46 
L 241.568669 -46 
L 242.369719 -46 
L 243.170769 -46 
L 243.971819 -46 
L 244.772869 -46 
L 245.573919 -46 
L 246.374969 -46 
L 247.176019 -46 
L 247.977069 -46 
L 248.778119 -46 
L 249.579169 -46 
L 250.380219 -46 
L 251.181269 -46 
L 251.982319 -46 
L 251.982319 -46.021263 
L 251.982319 -46.021263 
L 251.181269 -46.026715 
L 250.380219 -46.033371 
L 249.579169 -46.041441 
L 248.778119 -46.051165 
L 247.977069 -46.062802 
L 247.176019 -46.076637 
L 246.374969 -46.092975 
L 245.573919 -46.112141 
L 244.772869 -46.134471 
L 243.971819 -46.160309 
L 243.170769 -46.190001 
L 242.369719 -46.223882 
L 241.568669 -46.262271 
L 240.767619 -46.305458 
L 239.966569 -46.353689 
L 239.165519 -46.407157 
L 238.364469 -46.465989 
L 237.563419 -46.530227 
L 236.762369 -46.599824 
L 235.961319 -46.674628 
L 235.160269 -46.754371 
L 234.359219 -46.838668 
L 233.558169 -46.927008 
L 232.757119 -47.018756 
L 231.956069 -47.113157 
L 231.155019 -47.209343 
L 230.353969 -47.306345 
L 229.552919 -47.403114 
L 228.751869 -47.498537 
L 227.950819 -47.591466 
L 227.149769 -47.680742 
L 226.348719 -47.765234 
L 225.547669 -47.843861 
L 224.746619 -47.915635 
L 223.945569 -47.979685 
L 223.144519 -48.035292 
L 222.343469 -48.081915 
L 221.542419 -48.119215 
L 220.741369 -48.14707 
L 219.940319 -48.165589 
L 219.139269 -48.175115 
L 218.338219 -48.176226 
L 217.537169 -48.169722 
L 216.736119 -48.156612 
L 215.935069 -48.138087 
L 215.134019 -48.115496 
L 214.332969 -48.090308 
L 213.531919 -48.064076 
L 212.730869 -48.0384 
L 211.929819 -48.014881 
L 211.128769 -47.995084 
L 210.327719 -47.980498 
L 209.526669 -47.972501 
L 208.725619 -47.972331 
L 207.924569 -47.981057 
L 207.123519 -47.999564 
L 206.322469 -48.028539 
L 205.521419 -48.068471 
L 204.720369 -48.119653 
L 203.919319 -48.182192 
L 203.118269 -48.256033 
L 202.317219 -48.340983 
L 201.516169 -48.436742 
L 200.715119 -48.54294 
L 199.914069 -48.659177 
L 199.113019 -48.785067 
L 198.311969 -48.920274 
L 197.510919 -49.064559 
L 196.709869 -49.217815 
L 195.908819 -49.380099 
L 195.107769 -49.551659 
L 194.306719 -49.732957 
L 193.505669 -49.924676 
L 192.704619 -50.127724 
L 191.903569 -50.343221 
L 191.102519 -50.572485 
L 190.301469 -50.817002 
L 189.500419 -51.07838 
L 188.699369 -51.358305 
L 187.898319 -51.658485 
L 187.097269 -51.980578 
L 186.296219 -52.326129 
L 185.495169 -52.696493 
L 184.694119 -53.092763 
L 183.893069 -53.515696 
L 183.092019 -53.965641 
L 182.290969 -54.442483 
L 181.489919 -54.945583 
L 180.688869 -55.473738 
L 179.887819 -56.02515 
L 179.086769 -56.597415 
L 178.285719 -57.18752 
L 177.484669 -57.79187 
L 176.683619 -58.406318 
L 175.882569 -59.026227 
L 175.081519 -59.64654 
L 174.280469 -60.261868 
L 173.479419 -60.866594 
L 172.678369 -61.454984 
L 171.877319 -62.021309 
L 171.076269 -62.559969 
L 170.275219 -63.065617 
L 169.474169 -63.533281 
L 168.673119 -63.958479 
L 167.872069 -64.337315 
L 167.071019 -64.666569 
L 166.269969 -64.94376 
L 165.468919 -65.167193 
L 164.667869 -65.335982 
L 163.866819 -65.450049 
L 163.065769 -65.5101 
L 162.264719 -65.517575 
L 161.463669 -65.474589 
L 160.662619 -65.383842 
L 159.861569 -65.248524 
L 159.060519 -65.072209 
L 158.259469 -64.85874 
L 157.458419 -64.61212 
L 156.657369 -64.336397 
L 155.856319 -64.035566 
L 155.055269 -63.713476 
L 154.254219 -63.37375 
L 153.453169 -63.019724 
L 152.652119 -62.654401 
L 151.851069 -62.280425 
L 151.050019 -61.900059 
L 150.248969 -61.515201 
L 149.447919 -61.127388 
L 148.646869 -60.73783 
L 147.845819 -60.347444 
L 147.044769 -59.956896 
L 146.243719 -59.566645 
L 145.442669 -59.176987 
L 144.641619 -58.788101 
L 143.840569 -58.400091 
L 143.039519 -58.013016 
L 142.238469 -57.626927 
L 141.437419 -57.241887 
L 140.636369 -56.857991 
L 139.835319 -56.475377 
L 139.034269 -56.094235 
L 138.233219 -55.714808 
L 137.432169 -55.337395 
L 136.631119 -54.96234 
L 135.830069 -54.590036 
L 135.029019 -54.220908 
L 134.227969 -53.855417 
L 133.426919 -53.494044 
L 132.625869 -53.137289 
L 131.824819 -52.78566 
L 131.023769 -52.439673 
L 130.222719 -52.099844 
L 129.421669 -51.766683 
L 128.620619 -51.440695 
L 127.819569 -51.122371 
L 127.018519 -50.812188 
L 126.217469 -50.510604 
L 125.416419 -50.218055 
L 124.615369 -49.934951 
L 123.814319 -49.66167 
L 123.013269 -49.398558 
L 122.212219 -49.145924 
L 121.411169 -48.904031 
L 120.610119 -48.673102 
L 119.809069 -48.453309 
L 119.008019 -48.244772 
L 118.206969 -48.047558 
L 117.405919 -47.86168 
L 116.60487 -47.687096 
L 115.80382 -47.523705 
L 115.00277 -47.371353 
L 114.20172 -47.229834 
L 113.40067 -47.098889 
L 112.59962 -46.978213 
L 111.79857 -46.867455 
L 110.99752 -46.766227 
L 110.19647 -46.674107 
L 109.39542 -46.590642 
L 108.59437 -46.515358 
L 107.79332 -46.447763 
L 106.99227 -46.387353 
L 106.19122 -46.333622 
L 105.39017 -46.286061 
L 104.58912 -46.244167 
L 103.78807 -46.207449 
L 102.98702 -46.175429 
L 102.18597 -46.147649 
L 101.38492 -46.123672 
L 100.58387 -46.103085 
L 99.78282 -46.085503 
L 98.98177 -46.070568 
L 98.18072 -46.05795 
L 97.37967 -46.047346 
L 96.57862 -46.038485 
L 95.77757 -46.031121 
L 94.97652 -46.025036 
L 94.17547 -46.020034 
L 93.37442 -46.015948 
L 92.57337 -46.012627 
z
" style="stroke: #fccde5; stroke-width: 0.8"/>
    </defs>
    <g clip-path="url(#pc71c65dde6)">
     <use xlink:href="#mae2851a8c3" x="0" y="349.155" style="fill: #fccde5; fill-opacity: 0.25; stroke: #fccde5; stroke-width: 0.8"/>
    </g>
   </g>
   <g id="PolyCollection_2">
    <defs>
     <path id="m2031d82dc1" d="M 90.565758 -46.062477 
L 90.565758 -46 
L 91.372884 -46 
L 92.18001 -46 
L 92.987136 -46 
L 93.794262 -46 
L 94.601388 -46 
L 95.408514 -46 
L 96.21564 -46 
L 97.022766 -46 
L 97.829892 -46 
L 98.637018 -46 
L 99.444143 -46 
L 100.251269 -46 
L 101.058395 -46 
L 101.865521 -46 
L 102.672647 -46 
L 103.479773 -46 
L 104.286899 -46 
L 105.094025 -46 
L 105.901151 -46 
L 106.708277 -46 
L 107.515403 -46 
L 108.322529 -46 
L 109.129655 -46 
L 109.936781 -46 
L 110.743906 -46 
L 111.551032 -46 
L 112.358158 -46 
L 113.165284 -46 
L 113.97241 -46 
L 114.779536 -46 
L 115.586662 -46 
L 116.393788 -46 
L 117.200914 -46 
L 118.00804 -46 
L 118.815166 -46 
L 119.622292 -46 
L 120.429418 -46 
L 121.236543 -46 
L 122.043669 -46 
L 122.850795 -46 
L 123.657921 -46 
L 124.465047 -46 
L 125.272173 -46 
L 126.079299 -46 
L 126.886425 -46 
L 127.693551 -46 
L 128.500677 -46 
L 129.307803 -46 
L 130.114929 -46 
L 130.922055 -46 
L 131.72918 -46 
L 132.536306 -46 
L 133.343432 -46 
L 134.150558 -46 
L 134.957684 -46 
L 135.76481 -46 
L 136.571936 -46 
L 137.379062 -46 
L 138.186188 -46 
L 138.993314 -46 
L 139.80044 -46 
L 140.607566 -46 
L 141.414692 -46 
L 142.221818 -46 
L 143.028943 -46 
L 143.836069 -46 
L 144.643195 -46 
L 145.450321 -46 
L 146.257447 -46 
L 147.064573 -46 
L 147.871699 -46 
L 148.678825 -46 
L 149.485951 -46 
L 150.293077 -46 
L 151.100203 -46 
L 151.907329 -46 
L 152.714455 -46 
L 153.52158 -46 
L 154.328706 -46 
L 155.135832 -46 
L 155.942958 -46 
L 156.750084 -46 
L 157.55721 -46 
L 158.364336 -46 
L 159.171462 -46 
L 159.978588 -46 
L 160.785714 -46 
L 161.59284 -46 
L 162.399966 -46 
L 163.207092 -46 
L 164.014218 -46 
L 164.821343 -46 
L 165.628469 -46 
L 166.435595 -46 
L 167.242721 -46 
L 168.049847 -46 
L 168.856973 -46 
L 169.664099 -46 
L 170.471225 -46 
L 171.278351 -46 
L 172.085477 -46 
L 172.892603 -46 
L 173.699729 -46 
L 174.506855 -46 
L 175.31398 -46 
L 176.121106 -46 
L 176.928232 -46 
L 177.735358 -46 
L 178.542484 -46 
L 179.34961 -46 
L 180.156736 -46 
L 180.963862 -46 
L 181.770988 -46 
L 182.578114 -46 
L 183.38524 -46 
L 184.192366 -46 
L 184.999492 -46 
L 185.806618 -46 
L 186.613743 -46 
L 187.420869 -46 
L 188.227995 -46 
L 189.035121 -46 
L 189.842247 -46 
L 190.649373 -46 
L 191.456499 -46 
L 192.263625 -46 
L 193.070751 -46 
L 193.877877 -46 
L 194.685003 -46 
L 195.492129 -46 
L 196.299255 -46 
L 197.10638 -46 
L 197.913506 -46 
L 198.720632 -46 
L 199.527758 -46 
L 200.334884 -46 
L 201.14201 -46 
L 201.949136 -46 
L 202.756262 -46 
L 203.563388 -46 
L 204.370514 -46 
L 205.17764 -46 
L 205.984766 -46 
L 206.791892 -46 
L 207.599018 -46 
L 208.406143 -46 
L 209.213269 -46 
L 210.020395 -46 
L 210.827521 -46 
L 211.634647 -46 
L 212.441773 -46 
L 213.248899 -46 
L 214.056025 -46 
L 214.863151 -46 
L 215.670277 -46 
L 216.477403 -46 
L 217.284529 -46 
L 218.091655 -46 
L 218.89878 -46 
L 219.705906 -46 
L 220.513032 -46 
L 221.320158 -46 
L 222.127284 -46 
L 222.93441 -46 
L 223.741536 -46 
L 224.548662 -46 
L 225.355788 -46 
L 226.162914 -46 
L 226.97004 -46 
L 227.777166 -46 
L 228.584292 -46 
L 229.391417 -46 
L 230.198543 -46 
L 231.005669 -46 
L 231.812795 -46 
L 232.619921 -46 
L 233.427047 -46 
L 234.234173 -46 
L 235.041299 -46 
L 235.848425 -46 
L 236.655551 -46 
L 237.462677 -46 
L 238.269803 -46 
L 239.076929 -46 
L 239.884055 -46 
L 240.69118 -46 
L 241.498306 -46 
L 242.305432 -46 
L 243.112558 -46 
L 243.919684 -46 
L 244.72681 -46 
L 245.533936 -46 
L 246.341062 -46 
L 247.148188 -46 
L 247.955314 -46 
L 248.76244 -46 
L 249.569566 -46 
L 250.376692 -46 
L 251.183817 -46 
L 251.183817 -46.021774 
L 251.183817 -46.021774 
L 250.376692 -46.027569 
L 249.569566 -46.034688 
L 248.76244 -46.043374 
L 247.955314 -46.053898 
L 247.148188 -46.06656 
L 246.341062 -46.081684 
L 245.533936 -46.099622 
L 244.72681 -46.120744 
L 243.919684 -46.145436 
L 243.112558 -46.174087 
L 242.305432 -46.207089 
L 241.498306 -46.244818 
L 240.69118 -46.287624 
L 239.884055 -46.335818 
L 239.076929 -46.389657 
L 238.269803 -46.449327 
L 237.462677 -46.514927 
L 236.655551 -46.586457 
L 235.848425 -46.663801 
L 235.041299 -46.746716 
L 234.234173 -46.834823 
L 233.427047 -46.927604 
L 232.619921 -47.024397 
L 231.812795 -47.124405 
L 231.005669 -47.226703 
L 230.198543 -47.330253 
L 229.391417 -47.43393 
L 228.584292 -47.536543 
L 227.777166 -47.636872 
L 226.97004 -47.733704 
L 226.162914 -47.825869 
L 225.355788 -47.912291 
L 224.548662 -47.992021 
L 223.741536 -48.064285 
L 222.93441 -48.128522 
L 222.127284 -48.184417 
L 221.320158 -48.231928 
L 220.513032 -48.271313 
L 219.705906 -48.303134 
L 218.89878 -48.328262 
L 218.091655 -48.347868 
L 217.284529 -48.363402 
L 216.477403 -48.376559 
L 215.670277 -48.389242 
L 214.863151 -48.403507 
L 214.056025 -48.421501 
L 213.248899 -48.445402 
L 212.441773 -48.477342 
L 211.634647 -48.519337 
L 210.827521 -48.573217 
L 210.020395 -48.640549 
L 209.213269 -48.722583 
L 208.406143 -48.820188 
L 207.599018 -48.933812 
L 206.791892 -49.063451 
L 205.984766 -49.208632 
L 205.17764 -49.368409 
L 204.370514 -49.541388 
L 203.563388 -49.725757 
L 202.756262 -49.91934 
L 201.949136 -50.119668 
L 201.14201 -50.324066 
L 200.334884 -50.529747 
L 199.527758 -50.733925 
L 198.720632 -50.933928 
L 197.913506 -51.127318 
L 197.10638 -51.312011 
L 196.299255 -51.486386 
L 195.492129 -51.649393 
L 194.685003 -51.800639 
L 193.877877 -51.940462 
L 193.070751 -52.069983 
L 192.263625 -52.19113 
L 191.456499 -52.30664 
L 190.649373 -52.420035 
L 189.842247 -52.53556 
L 189.035121 -52.658108 
L 188.227995 -52.793102 
L 187.420869 -52.94637 
L 186.613743 -53.123979 
L 185.806618 -53.332072 
L 184.999492 -53.576676 
L 184.192366 -53.863507 
L 183.38524 -54.19778 
L 182.578114 -54.584007 
L 181.770988 -55.025821 
L 180.963862 -55.525802 
L 180.156736 -56.085336 
L 179.34961 -56.704493 
L 178.542484 -57.381939 
L 177.735358 -58.114891 
L 176.928232 -58.899103 
L 176.121106 -59.728903 
L 175.31398 -60.59727 
L 174.506855 -61.495951 
L 173.699729 -62.415632 
L 172.892603 -63.346132 
L 172.085477 -64.276643 
L 171.278351 -65.19599 
L 170.471225 -66.092912 
L 169.664099 -66.956357 
L 168.856973 -67.775771 
L 168.049847 -68.541381 
L 167.242721 -69.244464 
L 166.435595 -69.877579 
L 165.628469 -70.434767 
L 164.821343 -70.911709 
L 164.014218 -71.305827 
L 163.207092 -71.616343 
L 162.399966 -71.844275 
L 161.59284 -71.992384 
L 160.785714 -72.065075 
L 159.978588 -72.068247 
L 159.171462 -72.009107 
L 158.364336 -71.895958 
L 157.55721 -71.73796 
L 156.750084 -71.544883 
L 155.942958 -71.326855 
L 155.135832 -71.09411 
L 154.328706 -70.85676 
L 153.52158 -70.624568 
L 152.714455 -70.40676 
L 151.907329 -70.211848 
L 151.100203 -70.047487 
L 150.293077 -69.920355 
L 149.485951 -69.836065 
L 148.678825 -69.799087 
L 147.871699 -69.812705 
L 147.064573 -69.878982 
L 146.257447 -69.998747 
L 145.450321 -70.171591 
L 144.643195 -70.39588 
L 143.836069 -70.668772 
L 143.028943 -70.986251 
L 142.221818 -71.343173 
L 141.414692 -71.73332 
L 140.607566 -72.149471 
L 139.80044 -72.583492 
L 138.993314 -73.026441 
L 138.186188 -73.468689 
L 137.379062 -73.900071 
L 136.571936 -74.310044 
L 135.76481 -74.687874 
L 134.957684 -75.022834 
L 134.150558 -75.304414 
L 133.343432 -75.522545 
L 132.536306 -75.667817 
L 131.72918 -75.731704 
L 130.922055 -75.706766 
L 130.114929 -75.586847 
L 129.307803 -75.36724 
L 128.500677 -75.044823 
L 127.693551 -74.618162 
L 126.886425 -74.087569 
L 126.079299 -73.455118 
L 125.272173 -72.724619 
L 124.465047 -71.901538 
L 123.657921 -70.992883 
L 122.850795 -70.007041 
L 122.043669 -68.953588 
L 121.236543 -67.843063 
L 120.429418 -66.686725 
L 119.622292 -65.496292 
L 118.815166 -64.283682 
L 118.00804 -63.060748 
L 117.200914 -61.839036 
L 116.393788 -60.629551 
L 115.586662 -59.442554 
L 114.779536 -58.287392 
L 113.97241 -57.172354 
L 113.165284 -56.104574 
L 112.358158 -55.089966 
L 111.551032 -54.133191 
L 110.743906 -53.237672 
L 109.936781 -52.405627 
L 109.129655 -51.638139 
L 108.322529 -50.935245 
L 107.515403 -50.296042 
L 106.708277 -49.718812 
L 105.901151 -49.201144 
L 105.094025 -48.740071 
L 104.286899 -48.332195 
L 103.479773 -47.973811 
L 102.672647 -47.661025 
L 101.865521 -47.389852 
L 101.058395 -47.156314 
L 100.251269 -46.956513 
L 99.444143 -46.786697 
L 98.637018 -46.64331 
L 97.829892 -46.523026 
L 97.022766 -46.422776 
L 96.21564 -46.339765 
L 95.408514 -46.271469 
L 94.601388 -46.215642 
L 93.794262 -46.170299 
L 92.987136 -46.133707 
L 92.18001 -46.104365 
L 91.372884 -46.080987 
L 90.565758 -46.062477 
z
" style="stroke: #fdb462; stroke-width: 0.8"/>
    </defs>
    <g clip-path="url(#pc71c65dde6)">
     <use xlink:href="#m2031d82dc1" x="0" y="349.155" style="fill: #fdb462; fill-opacity: 0.25; stroke: #fdb462; stroke-width: 0.8"/>
    </g>
   </g>
   <g id="PolyCollection_3">
    <defs>
     <path id="m094c53ffc3" d="M 97.482229 -46.184391 
L 97.482229 -46 
L 98.253685 -46 
L 99.025141 -46 
L 99.796598 -46 
L 100.568054 -46 
L 101.33951 -46 
L 102.110966 -46 
L 102.882422 -46 
L 103.653879 -46 
L 104.425335 -46 
L 105.196791 -46 
L 105.968247 -46 
L 106.739704 -46 
L 107.51116 -46 
L 108.282616 -46 
L 109.054072 -46 
L 109.825528 -46 
L 110.596985 -46 
L 111.368441 -46 
L 112.139897 -46 
L 112.911353 -46 
L 113.68281 -46 
L 114.454266 -46 
L 115.225722 -46 
L 115.997178 -46 
L 116.768634 -46 
L 117.540091 -46 
L 118.311547 -46 
L 119.083003 -46 
L 119.854459 -46 
L 120.625916 -46 
L 121.397372 -46 
L 122.168828 -46 
L 122.940284 -46 
L 123.71174 -46 
L 124.483197 -46 
L 125.254653 -46 
L 126.026109 -46 
L 126.797565 -46 
L 127.569022 -46 
L 128.340478 -46 
L 129.111934 -46 
L 129.88339 -46 
L 130.654846 -46 
L 131.426303 -46 
L 132.197759 -46 
L 132.969215 -46 
L 133.740671 -46 
L 134.512128 -46 
L 135.283584 -46 
L 136.05504 -46 
L 136.826496 -46 
L 137.597952 -46 
L 138.369409 -46 
L 139.140865 -46 
L 139.912321 -46 
L 140.683777 -46 
L 141.455234 -46 
L 142.22669 -46 
L 142.998146 -46 
L 143.769602 -46 
L 144.541059 -46 
L 145.312515 -46 
L 146.083971 -46 
L 146.855427 -46 
L 147.626883 -46 
L 148.39834 -46 
L 149.169796 -46 
L 149.941252 -46 
L 150.712708 -46 
L 151.484165 -46 
L 152.255621 -46 
L 153.027077 -46 
L 153.798533 -46 
L 154.569989 -46 
L 155.341446 -46 
L 156.112902 -46 
L 156.884358 -46 
L 157.655814 -46 
L 158.427271 -46 
L 159.198727 -46 
L 159.970183 -46 
L 160.741639 -46 
L 161.513095 -46 
L 162.284552 -46 
L 163.056008 -46 
L 163.827464 -46 
L 164.59892 -46 
L 165.370377 -46 
L 166.141833 -46 
L 166.913289 -46 
L 167.684745 -46 
L 168.456201 -46 
L 169.227658 -46 
L 169.999114 -46 
L 170.77057 -46 
L 171.542026 -46 
L 172.313483 -46 
L 173.084939 -46 
L 173.856395 -46 
L 174.627851 -46 
L 175.399307 -46 
L 176.170764 -46 
L 176.94222 -46 
L 177.713676 -46 
L 178.485132 -46 
L 179.256589 -46 
L 180.028045 -46 
L 180.799501 -46 
L 181.570957 -46 
L 182.342413 -46 
L 183.11387 -46 
L 183.885326 -46 
L 184.656782 -46 
L 185.428238 -46 
L 186.199695 -46 
L 186.971151 -46 
L 187.742607 -46 
L 188.514063 -46 
L 189.285519 -46 
L 190.056976 -46 
L 190.828432 -46 
L 191.599888 -46 
L 192.371344 -46 
L 193.142801 -46 
L 193.914257 -46 
L 194.685713 -46 
L 195.457169 -46 
L 196.228625 -46 
L 197.000082 -46 
L 197.771538 -46 
L 198.542994 -46 
L 199.31445 -46 
L 200.085907 -46 
L 200.857363 -46 
L 201.628819 -46 
L 202.400275 -46 
L 203.171731 -46 
L 203.943188 -46 
L 204.714644 -46 
L 205.4861 -46 
L 206.257556 -46 
L 207.029013 -46 
L 207.800469 -46 
L 208.571925 -46 
L 209.343381 -46 
L 210.114837 -46 
L 210.886294 -46 
L 211.65775 -46 
L 212.429206 -46 
L 213.200662 -46 
L 213.972119 -46 
L 214.743575 -46 
L 215.515031 -46 
L 216.286487 -46 
L 217.057943 -46 
L 217.8294 -46 
L 218.600856 -46 
L 219.372312 -46 
L 220.143768 -46 
L 220.915225 -46 
L 221.686681 -46 
L 222.458137 -46 
L 223.229593 -46 
L 224.001049 -46 
L 224.772506 -46 
L 225.543962 -46 
L 226.315418 -46 
L 227.086874 -46 
L 227.858331 -46 
L 228.629787 -46 
L 229.401243 -46 
L 230.172699 -46 
L 230.944155 -46 
L 231.715612 -46 
L 232.487068 -46 
L 233.258524 -46 
L 234.02998 -46 
L 234.801437 -46 
L 235.572893 -46 
L 236.344349 -46 
L 237.115805 -46 
L 237.887261 -46 
L 238.658718 -46 
L 239.430174 -46 
L 240.20163 -46 
L 240.973086 -46 
L 241.744543 -46 
L 242.515999 -46 
L 243.287455 -46 
L 244.058911 -46 
L 244.830367 -46 
L 245.601824 -46 
L 246.37328 -46 
L 247.144736 -46 
L 247.916192 -46 
L 248.687649 -46 
L 249.459105 -46 
L 250.230561 -46 
L 251.002017 -46 
L 251.002017 -46.01774 
L 251.002017 -46.01774 
L 250.230561 -46.02409 
L 249.459105 -46.032416 
L 248.687649 -46.04323 
L 247.916192 -46.057136 
L 247.144736 -46.074848 
L 246.37328 -46.097188 
L 245.601824 -46.125097 
L 244.830367 -46.159627 
L 244.058911 -46.20194 
L 243.287455 -46.253295 
L 242.515999 -46.315028 
L 241.744543 -46.388522 
L 240.973086 -46.475178 
L 240.20163 -46.576366 
L 239.430174 -46.693371 
L 238.658718 -46.827339 
L 237.887261 -46.979204 
L 237.115805 -47.14962 
L 236.344349 -47.338887 
L 235.572893 -47.546879 
L 234.801437 -47.772981 
L 234.02998 -48.016024 
L 233.258524 -48.274251 
L 232.487068 -48.545283 
L 231.715612 -48.826124 
L 230.944155 -49.113179 
L 230.172699 -49.402313 
L 229.401243 -49.688932 
L 228.629787 -49.968107 
L 227.858331 -50.234713 
L 227.086874 -50.48361 
L 226.315418 -50.709831 
L 225.543962 -50.908799 
L 224.772506 -51.076528 
L 224.001049 -51.209838 
L 223.229593 -51.306534 
L 222.458137 -51.365571 
L 221.686681 -51.387175 
L 220.915225 -51.372914 
L 220.143768 -51.325725 
L 219.372312 -51.249887 
L 218.600856 -51.150933 
L 217.8294 -51.035523 
L 217.057943 -50.911272 
L 216.286487 -50.786542 
L 215.515031 -50.670219 
L 214.743575 -50.571475 
L 213.972119 -50.499531 
L 213.200662 -50.463434 
L 212.429206 -50.471841 
L 211.65775 -50.532835 
L 210.886294 -50.653755 
L 210.114837 -50.841052 
L 209.343381 -51.100159 
L 208.571925 -51.435375 
L 207.800469 -51.849763 
L 207.029013 -52.345039 
L 206.257556 -52.921478 
L 205.4861 -53.577818 
L 204.714644 -54.311167 
L 203.943188 -55.116934 
L 203.171731 -55.988784 
L 202.400275 -56.918634 
L 201.628819 -57.896701 
L 200.857363 -58.911626 
L 200.085907 -59.950671 
L 199.31445 -61.000008 
L 198.542994 -62.045095 
L 197.771538 -63.07114 
L 197.000082 -64.063629 
L 196.228625 -65.008911 
L 195.457169 -65.894806 
L 194.685713 -66.711202 
L 193.914257 -67.450618 
L 193.142801 -68.108687 
L 192.371344 -68.684534 
L 191.599888 -69.18102 
L 190.828432 -69.604842 
L 190.056976 -69.966466 
L 189.285519 -70.27991 
L 188.514063 -70.56238 
L 187.742607 -70.833775 
L 186.971151 -71.116109 
L 186.199695 -71.432852 
L 185.428238 -71.808255 
L 184.656782 -72.266662 
L 183.885326 -72.831857 
L 183.11387 -73.52645 
L 182.342413 -74.371322 
L 181.570957 -75.385123 
L 180.799501 -76.583829 
L 180.028045 -77.980328 
L 179.256589 -79.58404 
L 178.485132 -81.400552 
L 177.713676 -83.431251 
L 176.94222 -85.672972 
L 176.170764 -88.117666 
L 175.399307 -90.7521 
L 174.627851 -93.557648 
L 173.856395 -96.510186 
L 173.084939 -99.580167 
L 172.313483 -102.732895 
L 171.542026 -105.929057 
L 170.77057 -109.125528 
L 169.999114 -112.276454 
L 169.227658 -115.3346 
L 168.456201 -118.252919 
L 167.684745 -120.986273 
L 166.913289 -123.493223 
L 166.141833 -125.737773 
L 165.370377 -127.690971 
L 164.59892 -129.33225 
L 163.827464 -130.650399 
L 163.056008 -131.644113 
L 162.284552 -132.322044 
L 161.513095 -132.702352 
L 160.741639 -132.811773 
L 159.970183 -132.684257 
L 159.198727 -132.35927 
L 158.427271 -131.879861 
L 157.655814 -131.290635 
L 156.884358 -130.635756 
L 156.112902 -129.957116 
L 155.341446 -129.292772 
L 154.569989 -128.675749 
L 153.798533 -128.133257 
L 153.027077 -127.686348 
L 152.255621 -127.349997 
L 151.484165 -127.133559 
L 150.712708 -127.041535 
L 149.941252 -127.074555 
L 149.169796 -127.230466 
L 148.39834 -127.505446 
L 147.626883 -127.895024 
L 146.855427 -128.394946 
L 146.083971 -129.001827 
L 145.312515 -129.713536 
L 144.541059 -130.529321 
L 143.769602 -131.449669 
L 142.998146 -132.475923 
L 142.22669 -133.609697 
L 141.455234 -134.852127 
L 140.683777 -136.203008 
L 139.912321 -137.65987 
L 139.140865 -139.217031 
L 138.369409 -140.86469 
L 137.597952 -142.588095 
L 136.826496 -144.366843 
L 136.05504 -146.17437 
L 135.283584 -147.977663 
L 134.512128 -149.737269 
L 133.740671 -151.407627 
L 132.969215 -152.937772 
L 132.197759 -154.272425 
L 131.426303 -155.353475 
L 130.654846 -156.121818 
L 129.88339 -156.519501 
L 129.111934 -156.492087 
L 128.340478 -155.991115 
L 127.569022 -154.976536 
L 126.797565 -153.418958 
L 126.026109 -151.30156 
L 125.254653 -148.621532 
L 124.483197 -145.390929 
L 123.71174 -141.636851 
L 122.940284 -137.400919 
L 122.168828 -132.73805 
L 121.397372 -127.714595 
L 120.625916 -122.405939 
L 119.854459 -116.893707 
L 119.083003 -111.262726 
L 118.311547 -105.597943 
L 117.540091 -99.98144 
L 116.768634 -94.489737 
L 115.997178 -89.191497 
L 115.225722 -84.145728 
L 114.454266 -79.400557 
L 113.68281 -74.992582 
L 112.911353 -70.946781 
L 112.139897 -67.276935 
L 111.368441 -63.986478 
L 110.596985 -61.06968 
L 109.825528 -58.513058 
L 109.054072 -56.296921 
L 108.282616 -54.396931 
L 107.51116 -52.785621 
L 106.739704 -51.433786 
L 105.968247 -50.311701 
L 105.196791 -49.390147 
L 104.425335 -48.641215 
L 103.653879 -48.038904 
L 102.882422 -47.559519 
L 102.110966 -47.181898 
L 101.33951 -46.88748 
L 100.568054 -46.660271 
L 99.796598 -46.486705 
L 99.025141 -46.355456 
L 98.253685 -46.257204 
L 97.482229 -46.184391 
z
" style="stroke: #b3de69; stroke-width: 0.8"/>
    </defs>
    <g clip-path="url(#pc71c65dde6)">
     <use xlink:href="#m094c53ffc3" x="0" y="349.155" style="fill: #b3de69; fill-opacity: 0.25; stroke: #b3de69; stroke-width: 0.8"/>
    </g>
   </g>
   <g id="PolyCollection_4">
    <defs>
     <path id="mf05bcfbdd1" d="M 94.246293 -46.132699 
L 94.246293 -46 
L 95.126417 -46 
L 96.006541 -46 
L 96.886665 -46 
L 97.766789 -46 
L 98.646913 -46 
L 99.527037 -46 
L 100.407161 -46 
L 101.287284 -46 
L 102.167408 -46 
L 103.047532 -46 
L 103.927656 -46 
L 104.80778 -46 
L 105.687904 -46 
L 106.568028 -46 
L 107.448152 -46 
L 108.328276 -46 
L 109.2084 -46 
L 110.088524 -46 
L 110.968648 -46 
L 111.848772 -46 
L 112.728896 -46 
L 113.60902 -46 
L 114.489144 -46 
L 115.369268 -46 
L 116.249392 -46 
L 117.129516 -46 
L 118.00964 -46 
L 118.889764 -46 
L 119.769888 -46 
L 120.650012 -46 
L 121.530136 -46 
L 122.41026 -46 
L 123.290384 -46 
L 124.170508 -46 
L 125.050632 -46 
L 125.930755 -46 
L 126.810879 -46 
L 127.691003 -46 
L 128.571127 -46 
L 129.451251 -46 
L 130.331375 -46 
L 131.211499 -46 
L 132.091623 -46 
L 132.971747 -46 
L 133.851871 -46 
L 134.731995 -46 
L 135.612119 -46 
L 136.492243 -46 
L 137.372367 -46 
L 138.252491 -46 
L 139.132615 -46 
L 140.012739 -46 
L 140.892863 -46 
L 141.772987 -46 
L 142.653111 -46 
L 143.533235 -46 
L 144.413359 -46 
L 145.293483 -46 
L 146.173607 -46 
L 147.053731 -46 
L 147.933855 -46 
L 148.813979 -46 
L 149.694103 -46 
L 150.574227 -46 
L 151.45435 -46 
L 152.334474 -46 
L 153.214598 -46 
L 154.094722 -46 
L 154.974846 -46 
L 155.85497 -46 
L 156.735094 -46 
L 157.615218 -46 
L 158.495342 -46 
L 159.375466 -46 
L 160.25559 -46 
L 161.135714 -46 
L 162.015838 -46 
L 162.895962 -46 
L 163.776086 -46 
L 164.65621 -46 
L 165.536334 -46 
L 166.416458 -46 
L 167.296582 -46 
L 168.176706 -46 
L 169.05683 -46 
L 169.936954 -46 
L 170.817078 -46 
L 171.697202 -46 
L 172.577326 -46 
L 173.45745 -46 
L 174.337574 -46 
L 175.217698 -46 
L 176.097821 -46 
L 176.977945 -46 
L 177.858069 -46 
L 178.738193 -46 
L 179.618317 -46 
L 180.498441 -46 
L 181.378565 -46 
L 182.258689 -46 
L 183.138813 -46 
L 184.018937 -46 
L 184.899061 -46 
L 185.779185 -46 
L 186.659309 -46 
L 187.539433 -46 
L 188.419557 -46 
L 189.299681 -46 
L 190.179805 -46 
L 191.059929 -46 
L 191.940053 -46 
L 192.820177 -46 
L 193.700301 -46 
L 194.580425 -46 
L 195.460549 -46 
L 196.340673 -46 
L 197.220797 -46 
L 198.100921 -46 
L 198.981045 -46 
L 199.861169 -46 
L 200.741292 -46 
L 201.621416 -46 
L 202.50154 -46 
L 203.381664 -46 
L 204.261788 -46 
L 205.141912 -46 
L 206.022036 -46 
L 206.90216 -46 
L 207.782284 -46 
L 208.662408 -46 
L 209.542532 -46 
L 210.422656 -46 
L 211.30278 -46 
L 212.182904 -46 
L 213.063028 -46 
L 213.943152 -46 
L 214.823276 -46 
L 215.7034 -46 
L 216.583524 -46 
L 217.463648 -46 
L 218.343772 -46 
L 219.223896 -46 
L 220.10402 -46 
L 220.984144 -46 
L 221.864268 -46 
L 222.744392 -46 
L 223.624516 -46 
L 224.50464 -46 
L 225.384764 -46 
L 226.264887 -46 
L 227.145011 -46 
L 228.025135 -46 
L 228.905259 -46 
L 229.785383 -46 
L 230.665507 -46 
L 231.545631 -46 
L 232.425755 -46 
L 233.305879 -46 
L 234.186003 -46 
L 235.066127 -46 
L 235.946251 -46 
L 236.826375 -46 
L 237.706499 -46 
L 238.586623 -46 
L 239.466747 -46 
L 240.346871 -46 
L 241.226995 -46 
L 242.107119 -46 
L 242.987243 -46 
L 243.867367 -46 
L 244.747491 -46 
L 245.627615 -46 
L 246.507739 -46 
L 247.387863 -46 
L 248.267987 -46 
L 249.148111 -46 
L 250.028235 -46 
L 250.908358 -46 
L 251.788482 -46 
L 252.668606 -46 
L 253.54873 -46 
L 254.428854 -46 
L 255.308978 -46 
L 256.189102 -46 
L 257.069226 -46 
L 257.94935 -46 
L 258.829474 -46 
L 259.709598 -46 
L 260.589722 -46 
L 261.469846 -46 
L 262.34997 -46 
L 263.230094 -46 
L 264.110218 -46 
L 264.990342 -46 
L 265.870466 -46 
L 266.75059 -46 
L 267.630714 -46 
L 268.510838 -46 
L 269.390962 -46 
L 269.390962 -46.01413 
L 269.390962 -46.01413 
L 268.510838 -46.019133 
L 267.630714 -46.025644 
L 266.75059 -46.034026 
L 265.870466 -46.044696 
L 264.990342 -46.058129 
L 264.110218 -46.074854 
L 263.230094 -46.095448 
L 262.34997 -46.120532 
L 261.469846 -46.150755 
L 260.589722 -46.186783 
L 259.709598 -46.229282 
L 258.829474 -46.278905 
L 257.94935 -46.33627 
L 257.069226 -46.401956 
L 256.189102 -46.47649 
L 255.308978 -46.560349 
L 254.428854 -46.653966 
L 253.54873 -46.757752 
L 252.668606 -46.872122 
L 251.788482 -46.997534 
L 250.908358 -47.134539 
L 250.028235 -47.283828 
L 249.148111 -47.44629 
L 248.267987 -47.623059 
L 247.387863 -47.815547 
L 246.507739 -48.025472 
L 245.627615 -48.254847 
L 244.747491 -48.50595 
L 243.867367 -48.781258 
L 242.987243 -49.083341 
L 242.107119 -49.41473 
L 241.226995 -49.777741 
L 240.346871 -50.174286 
L 239.466747 -50.605658 
L 238.586623 -51.072317 
L 237.706499 -51.573683 
L 236.826375 -52.10795 
L 235.946251 -52.671943 
L 235.066127 -53.261032 
L 234.186003 -53.869105 
L 233.305879 -54.488626 
L 232.425755 -55.110778 
L 231.545631 -55.725691 
L 230.665507 -56.322759 
L 229.785383 -56.891029 
L 228.905259 -57.419665 
L 228.025135 -57.898444 
L 227.145011 -58.318286 
L 226.264887 -58.671768 
L 225.384764 -58.953612 
L 224.50464 -59.161106 
L 223.624516 -59.294424 
L 222.744392 -59.356845 
L 221.864268 -59.354815 
L 220.984144 -59.297878 
L 220.10402 -59.198442 
L 219.223896 -59.071405 
L 218.343772 -58.933641 
L 217.463648 -58.803386 
L 216.583524 -58.699535 
L 215.7034 -58.640901 
L 214.823276 -58.645463 
L 213.943152 -58.729645 
L 213.063028 -58.907663 
L 212.182904 -59.190958 
L 211.30278 -59.587757 
L 210.422656 -60.102766 
L 209.542532 -60.736995 
L 208.662408 -61.487742 
L 207.782284 -62.3487 
L 206.90216 -63.310196 
L 206.022036 -64.359547 
L 205.141912 -65.481504 
L 204.261788 -66.658787 
L 203.381664 -67.872688 
L 202.50154 -69.103721 
L 201.621416 -70.332321 
L 200.741292 -71.539569 
L 199.861169 -72.70793 
L 198.981045 -73.821987 
L 198.100921 -74.869157 
L 197.220797 -75.840348 
L 196.340673 -76.730557 
L 195.460549 -77.53935 
L 194.580425 -78.271219 
L 193.700301 -78.935772 
L 192.820177 -79.547743 
L 191.940053 -80.126806 
L 191.059929 -80.697173 
L 190.179805 -81.28701 
L 189.299681 -81.927649 
L 188.419557 -82.652655 
L 187.539433 -83.496756 
L 186.659309 -84.49469 
L 185.779185 -85.679994 
L 184.899061 -87.083791 
L 184.018937 -88.733594 
L 183.138813 -90.65217 
L 182.258689 -92.856476 
L 181.378565 -95.356706 
L 180.498441 -98.15545 
L 179.618317 -101.247003 
L 178.738193 -104.616826 
L 177.858069 -108.241216 
L 176.977945 -112.087192 
L 176.097821 -116.112657 
L 175.217698 -120.266866 
L 174.337574 -124.491251 
L 173.45745 -128.720616 
L 172.577326 -132.88473 
L 171.697202 -136.910293 
L 170.817078 -140.723247 
L 169.936954 -144.251342 
L 169.05683 -147.426862 
L 168.176706 -150.189366 
L 167.296582 -152.488295 
L 166.416458 -154.28528 
L 165.536334 -155.555979 
L 164.65621 -156.291319 
L 163.776086 -156.498038 
L 162.895962 -156.198447 
L 162.015838 -155.429443 
L 161.135714 -154.240797 
L 160.25559 -152.69285 
L 159.375466 -150.85376 
L 158.495342 -148.796495 
L 157.615218 -146.595783 
L 156.735094 -144.325226 
L 155.85497 -142.054745 
L 154.974846 -139.84854 
L 154.094722 -137.76362 
L 153.214598 -135.848981 
L 152.334474 -134.145395 
L 151.45435 -132.685737 
L 150.574227 -131.495737 
L 149.694103 -130.595011 
L 148.813979 -129.998184 
L 147.933855 -129.715963 
L 147.053731 -129.755994 
L 146.173607 -130.123387 
L 145.293483 -130.820839 
L 144.413359 -131.848316 
L 143.533235 -133.202321 
L 142.653111 -134.874809 
L 141.772987 -136.851861 
L 140.892863 -139.11225 
L 140.012739 -141.626063 
L 139.132615 -144.353534 
L 138.252491 -147.244259 
L 137.372367 -150.236915 
L 136.492243 -153.259604 
L 135.612119 -156.230881 
L 134.731995 -159.061495 
L 133.851871 -161.656805 
L 132.971747 -163.919795 
L 132.091623 -165.754554 
L 131.211499 -167.07006 
L 130.331375 -167.784044 
L 129.451251 -167.826736 
L 128.571127 -167.14424 
L 127.691003 -165.701345 
L 126.810879 -163.483564 
L 125.930755 -160.498275 
L 125.050632 -156.774856 
L 124.170508 -152.363801 
L 123.290384 -147.334854 
L 122.41026 -141.774254 
L 121.530136 -135.781265 
L 120.650012 -129.464189 
L 119.769888 -122.93609 
L 118.889764 -116.310491 
L 118.00964 -109.697256 
L 117.129516 -103.198891 
L 116.249392 -96.907429 
L 115.369268 -90.902025 
L 114.489144 -85.247334 
L 113.60902 -79.992682 
L 112.728896 -75.172008 
L 111.848772 -70.80448 
L 110.968648 -66.895681 
L 110.088524 -63.439235 
L 109.2084 -60.41872 
L 108.328276 -57.809734 
L 107.448152 -55.581973 
L 106.568028 -53.701229 
L 105.687904 -52.131203 
L 104.80778 -50.835075 
L 103.927656 -49.776811 
L 103.047532 -48.92217 
L 102.167408 -48.239434 
L 101.287284 -47.699884 
L 100.407161 -47.27804 
L 99.527037 -46.951723 
L 98.646913 -46.701965 
L 97.766789 -46.512811 
L 96.886665 -46.371051 
L 96.006541 -46.265916 
L 95.126417 -46.188751 
L 94.246293 -46.132699 
z
" style="stroke: #fb8072; stroke-width: 0.8"/>
    </defs>
    <g clip-path="url(#pc71c65dde6)">
     <use xlink:href="#mf05bcfbdd1" x="0" y="349.155" style="fill: #fb8072; fill-opacity: 0.25; stroke: #fb8072; stroke-width: 0.8"/>
    </g>
   </g>
   <g id="PolyCollection_5">
    <defs>
     <path id="m97f95b2915" d="M 99.01482 -46.429224 
L 99.01482 -46 
L 99.838559 -46 
L 100.662297 -46 
L 101.486035 -46 
L 102.309774 -46 
L 103.133512 -46 
L 103.957251 -46 
L 104.780989 -46 
L 105.604728 -46 
L 106.428466 -46 
L 107.252204 -46 
L 108.075943 -46 
L 108.899681 -46 
L 109.72342 -46 
L 110.547158 -46 
L 111.370897 -46 
L 112.194635 -46 
L 113.018373 -46 
L 113.842112 -46 
L 114.66585 -46 
L 115.489589 -46 
L 116.313327 -46 
L 117.137066 -46 
L 117.960804 -46 
L 118.784542 -46 
L 119.608281 -46 
L 120.432019 -46 
L 121.255758 -46 
L 122.079496 -46 
L 122.903234 -46 
L 123.726973 -46 
L 124.550711 -46 
L 125.37445 -46 
L 126.198188 -46 
L 127.021927 -46 
L 127.845665 -46 
L 128.669403 -46 
L 129.493142 -46 
L 130.31688 -46 
L 131.140619 -46 
L 131.964357 -46 
L 132.788096 -46 
L 133.611834 -46 
L 134.435572 -46 
L 135.259311 -46 
L 136.083049 -46 
L 136.906788 -46 
L 137.730526 -46 
L 138.554265 -46 
L 139.378003 -46 
L 140.201741 -46 
L 141.02548 -46 
L 141.849218 -46 
L 142.672957 -46 
L 143.496695 -46 
L 144.320434 -46 
L 145.144172 -46 
L 145.96791 -46 
L 146.791649 -46 
L 147.615387 -46 
L 148.439126 -46 
L 149.262864 -46 
L 150.086603 -46 
L 150.910341 -46 
L 151.734079 -46 
L 152.557818 -46 
L 153.381556 -46 
L 154.205295 -46 
L 155.029033 -46 
L 155.852771 -46 
L 156.67651 -46 
L 157.500248 -46 
L 158.323987 -46 
L 159.147725 -46 
L 159.971464 -46 
L 160.795202 -46 
L 161.61894 -46 
L 162.442679 -46 
L 163.266417 -46 
L 164.090156 -46 
L 164.913894 -46 
L 165.737633 -46 
L 166.561371 -46 
L 167.385109 -46 
L 168.208848 -46 
L 169.032586 -46 
L 169.856325 -46 
L 170.680063 -46 
L 171.503802 -46 
L 172.32754 -46 
L 173.151278 -46 
L 173.975017 -46 
L 174.798755 -46 
L 175.622494 -46 
L 176.446232 -46 
L 177.269971 -46 
L 178.093709 -46 
L 178.917447 -46 
L 179.741186 -46 
L 180.564924 -46 
L 181.388663 -46 
L 182.212401 -46 
L 183.03614 -46 
L 183.859878 -46 
L 184.683616 -46 
L 185.507355 -46 
L 186.331093 -46 
L 187.154832 -46 
L 187.97857 -46 
L 188.802308 -46 
L 189.626047 -46 
L 190.449785 -46 
L 191.273524 -46 
L 192.097262 -46 
L 192.921001 -46 
L 193.744739 -46 
L 194.568477 -46 
L 195.392216 -46 
L 196.215954 -46 
L 197.039693 -46 
L 197.863431 -46 
L 198.68717 -46 
L 199.510908 -46 
L 200.334646 -46 
L 201.158385 -46 
L 201.982123 -46 
L 202.805862 -46 
L 203.6296 -46 
L 204.453339 -46 
L 205.277077 -46 
L 206.100815 -46 
L 206.924554 -46 
L 207.748292 -46 
L 208.572031 -46 
L 209.395769 -46 
L 210.219508 -46 
L 211.043246 -46 
L 211.866984 -46 
L 212.690723 -46 
L 213.514461 -46 
L 214.3382 -46 
L 215.161938 -46 
L 215.985677 -46 
L 216.809415 -46 
L 217.633153 -46 
L 218.456892 -46 
L 219.28063 -46 
L 220.104369 -46 
L 220.928107 -46 
L 221.751845 -46 
L 222.575584 -46 
L 223.399322 -46 
L 224.223061 -46 
L 225.046799 -46 
L 225.870538 -46 
L 226.694276 -46 
L 227.518014 -46 
L 228.341753 -46 
L 229.165491 -46 
L 229.98923 -46 
L 230.812968 -46 
L 231.636707 -46 
L 232.460445 -46 
L 233.284183 -46 
L 234.107922 -46 
L 234.93166 -46 
L 235.755399 -46 
L 236.579137 -46 
L 237.402876 -46 
L 238.226614 -46 
L 239.050352 -46 
L 239.874091 -46 
L 240.697829 -46 
L 241.521568 -46 
L 242.345306 -46 
L 243.169045 -46 
L 243.992783 -46 
L 244.816521 -46 
L 245.64026 -46 
L 246.463998 -46 
L 247.287737 -46 
L 248.111475 -46 
L 248.935214 -46 
L 249.758952 -46 
L 250.58269 -46 
L 251.406429 -46 
L 252.230167 -46 
L 253.053906 -46 
L 253.877644 -46 
L 254.701382 -46 
L 255.525121 -46 
L 256.348859 -46 
L 257.172598 -46 
L 257.996336 -46 
L 258.820075 -46 
L 259.643813 -46 
L 260.467551 -46 
L 261.29129 -46 
L 262.115028 -46 
L 262.938767 -46 
L 262.938767 -46.020436 
L 262.938767 -46.020436 
L 262.115028 -46.028541 
L 261.29129 -46.039426 
L 260.467551 -46.053878 
L 259.643813 -46.072838 
L 258.820075 -46.097424 
L 257.996336 -46.128935 
L 257.172598 -46.168854 
L 256.348859 -46.218838 
L 255.525121 -46.280708 
L 254.701382 -46.356409 
L 253.877644 -46.447976 
L 253.053906 -46.557473 
L 252.230167 -46.686926 
L 251.406429 -46.838241 
L 250.58269 -47.013118 
L 249.758952 -47.212957 
L 248.935214 -47.438763 
L 248.111475 -47.691059 
L 247.287737 -47.969805 
L 246.463998 -48.274337 
L 245.64026 -48.603327 
L 244.816521 -48.954762 
L 243.992783 -49.325963 
L 243.169045 -49.713624 
L 242.345306 -50.11389 
L 241.521568 -50.522464 
L 240.697829 -50.934734 
L 239.874091 -51.345926 
L 239.050352 -51.751275 
L 238.226614 -52.146191 
L 237.402876 -52.526421 
L 236.579137 -52.888208 
L 235.755399 -53.228404 
L 234.93166 -53.544566 
L 234.107922 -53.835 
L 233.284183 -54.098764 
L 232.460445 -54.335627 
L 231.636707 -54.545988 
L 230.812968 -54.730763 
L 229.98923 -54.891253 
L 229.165491 -55.029011 
L 228.341753 -55.145722 
L 227.518014 -55.243105 
L 226.694276 -55.322868 
L 225.870538 -55.386706 
L 225.046799 -55.436352 
L 224.223061 -55.473681 
L 223.399322 -55.500858 
L 222.575584 -55.52051 
L 221.751845 -55.535902 
L 220.928107 -55.551105 
L 220.104369 -55.57113 
L 219.28063 -55.601997 
L 218.456892 -55.650751 
L 217.633153 -55.725396 
L 216.809415 -55.834744 
L 215.985677 -55.9882 
L 215.161938 -56.19548 
L 214.3382 -56.466281 
L 213.514461 -56.809921 
L 212.690723 -57.234975 
L 211.866984 -57.74891 
L 211.043246 -58.357758 
L 210.219508 -59.06582 
L 209.395769 -59.875419 
L 208.572031 -60.786719 
L 207.748292 -61.797588 
L 206.924554 -62.90353 
L 206.100815 -64.097678 
L 205.277077 -65.37084 
L 204.453339 -66.711612 
L 203.6296 -68.106569 
L 202.805862 -69.540516 
L 201.982123 -70.996835 
L 201.158385 -72.457915 
L 200.334646 -73.905687 
L 199.510908 -75.322239 
L 198.68717 -76.690527 
L 197.863431 -77.995146 
L 197.039693 -79.223134 
L 196.215954 -80.364771 
L 195.392216 -81.414332 
L 194.568477 -82.370725 
L 193.744739 -83.237983 
L 192.921001 -84.025548 
L 192.097262 -84.748321 
L 191.273524 -85.426454 
L 190.449785 -86.08487 
L 189.626047 -86.752537 
L 188.802308 -87.461511 
L 187.97857 -88.245796 
L 187.154832 -89.14006 
L 186.331093 -90.178278 
L 185.507355 -91.392337 
L 184.683616 -92.810658 
L 183.859878 -94.456886 
L 183.03614 -96.348672 
L 182.212401 -98.496581 
L 181.388663 -100.903161 
L 180.564924 -103.562181 
L 179.741186 -106.45809 
L 178.917447 -109.565713 
L 178.093709 -112.850239 
L 177.269971 -116.267537 
L 176.446232 -119.764855 
L 175.622494 -123.281938 
L 174.798755 -126.752598 
L 173.975017 -130.106741 
L 173.151278 -133.272826 
L 172.32754 -136.180693 
L 171.503802 -138.764672 
L 170.680063 -140.966803 
L 169.856325 -142.740023 
L 169.032586 -144.051093 
L 168.208848 -144.883061 
L 167.385109 -145.237067 
L 166.561371 -145.133293 
L 165.737633 -144.610957 
L 164.913894 -143.72727 
L 164.090156 -142.555362 
L 163.266417 -141.181292 
L 162.442679 -139.700287 
L 161.61894 -138.212455 
L 160.795202 -136.818258 
L 159.971464 -135.614044 
L 159.147725 -134.687957 
L 158.323987 -134.116491 
L 157.500248 -133.961917 
L 156.67651 -134.270734 
L 155.852771 -135.073198 
L 155.029033 -136.383909 
L 154.205295 -138.203341 
L 153.381556 -140.520109 
L 152.557818 -143.313759 
L 151.734079 -146.557792 
L 150.910341 -150.222653 
L 150.086603 -154.278449 
L 149.262864 -158.697184 
L 148.439126 -163.454373 
L 147.615387 -168.529951 
L 146.791649 -173.908486 
L 145.96791 -179.578701 
L 145.144172 -185.532429 
L 144.320434 -191.76307 
L 143.496695 -198.263693 
L 142.672957 -205.024863 
L 141.849218 -212.032306 
L 141.02548 -219.264479 
L 140.201741 -226.690136 
L 139.378003 -234.265948 
L 138.554265 -241.934296 
L 137.730526 -249.621367 
L 136.906788 -257.235703 
L 136.083049 -264.667433 
L 135.259311 -271.788393 
L 134.435572 -278.453363 
L 133.611834 -284.502604 
L 132.788096 -289.765826 
L 131.964357 -294.067577 
L 131.140619 -297.233959 
L 130.31688 -299.100378 
L 129.493142 -299.519957 
L 128.669403 -298.372039 
L 127.845665 -295.570211 
L 127.021927 -291.069187 
L 126.198188 -284.869955 
L 125.37445 -277.022697 
L 124.550711 -267.627113 
L 123.726973 -256.83003 
L 122.903234 -244.820344 
L 122.079496 -231.821593 
L 121.255758 -218.082642 
L 120.432019 -203.867112 
L 119.608281 -189.442269 
L 118.784542 -175.068115 
L 117.960804 -160.987379 
L 117.137066 -147.416986 
L 116.313327 -134.54147 
L 115.489589 -122.508568 
L 114.66585 -111.427088 
L 113.842112 -101.36696 
L 113.018373 -92.36121 
L 112.194635 -84.409522 
L 111.370897 -77.482945 
L 110.547158 -71.529321 
L 109.72342 -66.478979 
L 108.899681 -62.250341 
L 108.075943 -58.755096 
L 107.252204 -55.902753 
L 106.428466 -53.604392 
L 105.604728 -51.775589 
L 104.780989 -50.338499 
L 103.957251 -49.223172 
L 103.133512 -48.368201 
L 102.309774 -47.720822 
L 101.486035 -47.236596 
L 100.662297 -46.878795 
L 99.838559 -46.617601 
L 99.01482 -46.429224 
z
" style="stroke: #bc80bd; stroke-width: 0.8"/>
    </defs>
    <g clip-path="url(#pc71c65dde6)">
     <use xlink:href="#m97f95b2915" x="0" y="349.155" style="fill: #bc80bd; fill-opacity: 0.25; stroke: #bc80bd; stroke-width: 0.8"/>
    </g>
   </g>
   <g id="matplotlib.axis_1">
    <g id="xtick_1">
     <g id="line2d_1">
      <defs>
       <path id="m118ad3e70e" d="M 0 0 
L 0 3.5 
" style="stroke: #323034; stroke-width: 0.8"/>
      </defs>
      <g>
       <use xlink:href="#m118ad3e70e" x="51.615" y="303.155" style="fill: #323034; stroke: #323034; stroke-width: 0.8"/>
      </g>
     </g>
     <g id="text_1">
      <!-- $\mathdefault{−1}$ -->
      <g style="fill: #323034" transform="translate(42.095 321.0825) scale(0.16 -0.16)">
       <defs>
        <path id="STIXGeneral-Regular-2212" d="M 3974 1408 
L 410 1408 
L 410 1830 
L 3974 1830 
L 3974 1408 
z
" transform="scale(0.015625)"/>
        <path id="STIXGeneral-Regular-31" d="M 2522 0 
L 755 0 
L 755 96 
Q 1107 115 1235 227 
Q 1363 339 1363 608 
L 1363 3482 
Q 1363 3795 1171 3795 
Q 1082 3795 883 3718 
L 710 3654 
L 710 3744 
L 1856 4326 
L 1914 4307 
L 1914 486 
Q 1914 275 2042 185 
Q 2170 96 2522 96 
L 2522 0 
z
" transform="scale(0.015625)"/>
       </defs>
       <use xlink:href="#STIXGeneral-Regular-2212" transform="translate(0 0.40625)"/>
       <use xlink:href="#STIXGeneral-Regular-31" transform="translate(68.499985 0.40625)"/>
      </g>
     </g>
    </g>
    <g id="xtick_2">
     <g id="line2d_2">
      <g>
       <use xlink:href="#m118ad3e70e" x="107.737253" y="303.155" style="fill: #323034; stroke: #323034; stroke-width: 0.8"/>
      </g>
     </g>
     <g id="text_2">
      <!-- $\mathdefault{0}$ -->
      <g style="fill: #323034" transform="translate(103.737253 321.0825) scale(0.16 -0.16)">
       <defs>
        <path id="STIXGeneral-Regular-30" d="M 3046 2112 
Q 3046 1683 2963 1302 
Q 2880 922 2717 602 
Q 2554 282 2266 96 
Q 1978 -90 1600 -90 
Q 1210 -90 915 108 
Q 621 307 461 640 
Q 301 973 227 1350 
Q 154 1728 154 2150 
Q 154 2746 301 3222 
Q 448 3699 790 4012 
Q 1133 4326 1626 4326 
Q 2253 4326 2649 3712 
Q 3046 3098 3046 2112 
z
M 2432 2080 
Q 2432 3091 2217 3625 
Q 2003 4160 1587 4160 
Q 1190 4160 979 3622 
Q 768 3085 768 2106 
Q 768 1120 979 598 
Q 1190 77 1600 77 
Q 2003 77 2217 598 
Q 2432 1120 2432 2080 
z
" transform="scale(0.015625)"/>
       </defs>
       <use xlink:href="#STIXGeneral-Regular-30" transform="translate(0 0.40625)"/>
      </g>
     </g>
    </g>
    <g id="xtick_3">
     <g id="line2d_3">
      <g>
       <use xlink:href="#m118ad3e70e" x="163.859506" y="303.155" style="fill: #323034; stroke: #323034; stroke-width: 0.8"/>
      </g>
     </g>
     <g id="text_3">
      <!-- $\mathdefault{1}$ -->
      <g style="fill: #323034" transform="translate(159.859506 321.0825) scale(0.16 -0.16)">
       <use xlink:href="#STIXGeneral-Regular-31" transform="translate(0 0.40625)"/>
      </g>
     </g>
    </g>
    <g id="xtick_4">
     <g id="line2d_4">
      <g>
       <use xlink:href="#m118ad3e70e" x="219.981759" y="303.155" style="fill: #323034; stroke: #323034; stroke-width: 0.8"/>
      </g>
     </g>
     <g id="text_4">
      <!-- $\mathdefault{2}$ -->
      <g style="fill: #323034" transform="translate(215.981759 321.0825) scale(0.16 -0.16)">
       <defs>
        <path id="STIXGeneral-Regular-32" d="M 3034 877 
L 2688 0 
L 186 0 
L 186 77 
L 1325 1286 
Q 1773 1754 1965 2144 
Q 2157 2534 2157 2950 
Q 2157 3379 1920 3616 
Q 1683 3853 1267 3853 
Q 922 3853 720 3673 
Q 518 3494 326 3021 
L 192 3053 
Q 301 3648 630 3987 
Q 960 4326 1523 4326 
Q 2054 4326 2380 4006 
Q 2707 3686 2707 3200 
Q 2707 2477 1888 1613 
L 832 486 
L 2330 486 
Q 2541 486 2665 569 
Q 2790 653 2944 915 
L 3034 877 
z
" transform="scale(0.015625)"/>
       </defs>
       <use xlink:href="#STIXGeneral-Regular-32" transform="translate(0 0.40625)"/>
      </g>
     </g>
    </g>
    <g id="xtick_5">
     <g id="line2d_5">
      <g>
       <use xlink:href="#m118ad3e70e" x="276.104013" y="303.155" style="fill: #323034; stroke: #323034; stroke-width: 0.8"/>
      </g>
     </g>
     <g id="text_5">
      <!-- $\mathdefault{3}$ -->
      <g style="fill: #323034" transform="translate(272.104013 321.0825) scale(0.16 -0.16)">
       <defs>
        <path id="STIXGeneral-Regular-33" d="M 390 3264 
L 288 3290 
Q 435 3770 748 4048 
Q 1062 4326 1542 4326 
Q 1990 4326 2265 4083 
Q 2541 3840 2541 3450 
Q 2541 2925 1946 2566 
Q 2298 2413 2477 2227 
Q 2758 1914 2758 1402 
Q 2758 890 2464 506 
Q 2246 211 1840 60 
Q 1434 -90 979 -90 
Q 262 -90 262 275 
Q 262 378 339 442 
Q 416 506 525 506 
Q 685 506 915 339 
Q 1197 141 1466 141 
Q 1818 141 2058 425 
Q 2298 710 2298 1120 
Q 2298 1856 1632 2048 
Q 1434 2112 979 2112 
L 979 2202 
Q 1338 2323 1517 2432 
Q 2035 2726 2035 3290 
Q 2035 3610 1852 3776 
Q 1670 3942 1344 3942 
Q 768 3942 390 3264 
z
" transform="scale(0.015625)"/>
       </defs>
       <use xlink:href="#STIXGeneral-Regular-33" transform="translate(0 0.40625)"/>
      </g>
     </g>
    </g>
    <g id="xtick_6">
     <g id="line2d_6">
      <g>
       <use xlink:href="#m118ad3e70e" x="332.226266" y="303.155" style="fill: #323034; stroke: #323034; stroke-width: 0.8"/>
      </g>
     </g>
     <g id="text_6">
      <!-- $\mathdefault{4}$ -->
      <g style="fill: #323034" transform="translate(328.226266 321.0825) scale(0.16 -0.16)">
       <defs>
        <path id="STIXGeneral-Regular-34" d="M 3027 1069 
L 2368 1069 
L 2368 0 
L 1869 0 
L 1869 1069 
L 77 1069 
L 77 1478 
L 2086 4326 
L 2368 4326 
L 2368 1478 
L 3027 1478 
L 3027 1069 
z
M 1869 1478 
L 1869 3674 
L 333 1478 
L 1869 1478 
z
" transform="scale(0.015625)"/>
       </defs>
       <use xlink:href="#STIXGeneral-Regular-34" transform="translate(0 0.40625)"/>
      </g>
     </g>
    </g>
    <g id="text_7">
     <!-- carat -->
     <g transform="translate(176.375633 338.4825) scale(0.16 -0.16)">
      <defs>
       <path id="STIXGeneral-Regular-63" d="M 2547 998 
L 2637 941 
Q 2362 403 2112 205 
Q 1786 -64 1376 -64 
Q 845 -64 502 336 
Q 160 736 160 1357 
Q 160 2170 698 2618 
Q 1094 2944 1562 2944 
Q 1965 2944 2256 2749 
Q 2547 2554 2547 2285 
Q 2547 2176 2457 2096 
Q 2368 2016 2246 2016 
Q 2022 2016 1939 2310 
L 1901 2451 
Q 1850 2630 1773 2694 
Q 1696 2758 1523 2758 
Q 1133 2758 893 2451 
Q 653 2144 653 1645 
Q 653 1094 928 745 
Q 1203 397 1645 397 
Q 1920 397 2118 528 
Q 2317 659 2547 998 
z
" transform="scale(0.015625)"/>
       <path id="STIXGeneral-Regular-61" d="M 2829 422 
L 2829 243 
Q 2586 -64 2253 -64 
Q 1888 -64 1843 403 
L 1837 403 
Q 1427 -64 909 -64 
Q 608 -64 422 112 
Q 237 288 237 602 
Q 237 1050 685 1350 
Q 992 1555 1837 1869 
L 1837 2214 
Q 1837 2502 1699 2646 
Q 1562 2790 1338 2790 
Q 1146 2790 1018 2697 
Q 890 2605 890 2477 
Q 890 2419 909 2348 
Q 928 2278 928 2208 
Q 928 2112 841 2029 
Q 755 1946 634 1946 
Q 525 1946 441 2029 
Q 358 2112 358 2240 
Q 358 2547 685 2752 
Q 986 2944 1421 2944 
Q 1939 2944 2176 2656 
Q 2291 2522 2323 2384 
Q 2355 2246 2355 1946 
L 2355 723 
Q 2355 301 2554 301 
Q 2682 301 2829 422 
z
M 1837 813 
L 1837 1715 
Q 1248 1510 1018 1293 
Q 800 1094 800 800 
Q 800 557 921 432 
Q 1043 307 1242 307 
Q 1453 307 1613 410 
Q 1747 506 1792 589 
Q 1837 672 1837 813 
z
" transform="scale(0.015625)"/>
       <path id="STIXGeneral-Regular-72" d="M 1024 2931 
L 1024 2342 
Q 1267 2688 1430 2816 
Q 1594 2944 1792 2944 
Q 1958 2944 2051 2854 
Q 2144 2765 2144 2605 
Q 2144 2470 2077 2393 
Q 2010 2317 1894 2317 
Q 1773 2317 1638 2445 
Q 1536 2541 1472 2541 
Q 1338 2541 1181 2355 
Q 1024 2170 1024 2016 
L 1024 576 
Q 1024 301 1133 205 
Q 1242 109 1568 96 
L 1568 0 
L 32 0 
L 32 96 
Q 339 154 412 224 
Q 486 294 486 538 
L 486 2138 
Q 486 2349 438 2435 
Q 390 2522 269 2522 
Q 166 2522 45 2496 
L 45 2598 
Q 448 2726 992 2944 
L 1024 2931 
z
" transform="scale(0.015625)"/>
       <path id="STIXGeneral-Regular-74" d="M 1702 493 
L 1786 422 
Q 1478 -64 1011 -64 
Q 448 -64 448 749 
L 448 2675 
L 109 2675 
Q 83 2694 83 2720 
Q 83 2771 192 2842 
Q 435 2982 813 3526 
Q 826 3546 874 3606 
Q 922 3667 941 3706 
Q 986 3706 986 3622 
L 986 2880 
L 1632 2880 
L 1632 2675 
L 986 2675 
L 986 845 
Q 986 538 1062 403 
Q 1139 269 1318 269 
Q 1510 269 1702 493 
z
" transform="scale(0.015625)"/>
      </defs>
      <use xlink:href="#STIXGeneral-Regular-63"/>
      <use xlink:href="#STIXGeneral-Regular-61" x="44.399994"/>
      <use xlink:href="#STIXGeneral-Regular-72" x="88.799988"/>
      <use xlink:href="#STIXGeneral-Regular-61" x="122.099976"/>
      <use xlink:href="#STIXGeneral-Regular-74" x="166.499969"/>
     </g>
    </g>
   </g>
   <g id="matplotlib.axis_2">
    <g id="ytick_1">
     <g id="line2d_7">
      <defs>
       <path id="m42a82ca240" d="M 0 0 
L -3.5 0 
" style="stroke: #323034; stroke-width: 0.8"/>
      </defs>
      <g>
       <use xlink:href="#m42a82ca240" x="51.615" y="303.155" style="fill: #323034; stroke: #323034; stroke-width: 0.8"/>
      </g>
     </g>
     <g id="text_8">
      <!-- $\mathdefault{0.0}$ -->
      <g style="fill: #323034" transform="translate(24.615 308.61875) scale(0.16 -0.16)">
       <defs>
        <path id="STIXGeneral-Regular-2e" d="M 1158 275 
Q 1158 134 1052 32 
Q 947 -70 800 -70 
Q 653 -70 550 32 
Q 448 134 448 281 
Q 448 429 553 534 
Q 659 640 806 640 
Q 947 640 1052 531 
Q 1158 422 1158 275 
z
" transform="scale(0.015625)"/>
       </defs>
       <use xlink:href="#STIXGeneral-Regular-30" transform="translate(0 0.40625)"/>
       <use xlink:href="#STIXGeneral-Regular-2e" transform="translate(49.999985 0.40625)"/>
       <use xlink:href="#STIXGeneral-Regular-30" transform="translate(74.999969 0.40625)"/>
      </g>
     </g>
    </g>
    <g id="ytick_2">
     <g id="line2d_8">
      <g>
       <use xlink:href="#m42a82ca240" x="51.615" y="254.739792" style="fill: #323034; stroke: #323034; stroke-width: 0.8"/>
      </g>
     </g>
     <g id="text_9">
      <!-- $\mathdefault{0.1}$ -->
      <g style="fill: #323034" transform="translate(24.615 260.203542) scale(0.16 -0.16)">
       <use xlink:href="#STIXGeneral-Regular-30" transform="translate(0 0.40625)"/>
       <use xlink:href="#STIXGeneral-Regular-2e" transform="translate(49.999985 0.40625)"/>
       <use xlink:href="#STIXGeneral-Regular-31" transform="translate(74.999969 0.40625)"/>
      </g>
     </g>
    </g>
    <g id="ytick_3">
     <g id="line2d_9">
      <g>
       <use xlink:href="#m42a82ca240" x="51.615" y="206.324583" style="fill: #323034; stroke: #323034; stroke-width: 0.8"/>
      </g>
     </g>
     <g id="text_10">
      <!-- $\mathdefault{0.2}$ -->
      <g style="fill: #323034" transform="translate(24.615 211.788333) scale(0.16 -0.16)">
       <use xlink:href="#STIXGeneral-Regular-30" transform="translate(0 0.40625)"/>
       <use xlink:href="#STIXGeneral-Regular-2e" transform="translate(49.999985 0.40625)"/>
       <use xlink:href="#STIXGeneral-Regular-32" transform="translate(74.999969 0.40625)"/>
      </g>
     </g>
    </g>
    <g id="ytick_4">
     <g id="line2d_10">
      <g>
       <use xlink:href="#m42a82ca240" x="51.615" y="157.909375" style="fill: #323034; stroke: #323034; stroke-width: 0.8"/>
      </g>
     </g>
     <g id="text_11">
      <!-- $\mathdefault{0.3}$ -->
      <g style="fill: #323034" transform="translate(24.615 163.373125) scale(0.16 -0.16)">
       <use xlink:href="#STIXGeneral-Regular-30" transform="translate(0 0.40625)"/>
       <use xlink:href="#STIXGeneral-Regular-2e" transform="translate(49.999985 0.40625)"/>
       <use xlink:href="#STIXGeneral-Regular-33" transform="translate(74.999969 0.40625)"/>
      </g>
     </g>
    </g>
    <g id="ytick_5">
     <g id="line2d_11">
      <g>
       <use xlink:href="#m42a82ca240" x="51.615" y="109.494167" style="fill: #323034; stroke: #323034; stroke-width: 0.8"/>
      </g>
     </g>
     <g id="text_12">
      <!-- $\mathdefault{0.4}$ -->
      <g style="fill: #323034" transform="translate(24.615 114.957917) scale(0.16 -0.16)">
       <use xlink:href="#STIXGeneral-Regular-30" transform="translate(0 0.40625)"/>
       <use xlink:href="#STIXGeneral-Regular-2e" transform="translate(49.999985 0.40625)"/>
       <use xlink:href="#STIXGeneral-Regular-34" transform="translate(74.999969 0.40625)"/>
      </g>
     </g>
    </g>
    <g id="ytick_6">
     <g id="line2d_12">
      <g>
       <use xlink:href="#m42a82ca240" x="51.615" y="61.078958" style="fill: #323034; stroke: #323034; stroke-width: 0.8"/>
      </g>
     </g>
     <g id="text_13">
      <!-- $\mathdefault{0.5}$ -->
      <g style="fill: #323034" transform="translate(24.615 66.542708) scale(0.16 -0.16)">
       <defs>
        <path id="STIXGeneral-Regular-35" d="M 2803 4358 
L 2573 3814 
Q 2534 3731 2400 3731 
L 1158 3731 
L 902 3187 
Q 1606 3053 1920 2896 
Q 2234 2739 2502 2368 
Q 2726 2061 2726 1555 
Q 2726 1094 2576 780 
Q 2426 467 2099 224 
Q 1664 -90 1011 -90 
Q 646 -90 422 19 
Q 198 128 198 307 
Q 198 550 486 550 
Q 717 550 960 352 
Q 1210 147 1414 147 
Q 1747 147 2012 480 
Q 2278 813 2278 1229 
Q 2278 1843 1850 2189 
Q 1293 2637 486 2637 
Q 410 2637 410 2688 
L 416 2720 
L 1114 4237 
L 2438 4237 
Q 2547 4237 2608 4269 
Q 2669 4301 2746 4403 
L 2803 4358 
z
" transform="scale(0.015625)"/>
       </defs>
       <use xlink:href="#STIXGeneral-Regular-30" transform="translate(0 0.203125)"/>
       <use xlink:href="#STIXGeneral-Regular-2e" transform="translate(49.999985 0.203125)"/>
       <use xlink:href="#STIXGeneral-Regular-35" transform="translate(74.999969 0.203125)"/>
      </g>
     </g>
    </g>
    <g id="ytick_7">
     <g id="line2d_13">
      <g>
       <use xlink:href="#m42a82ca240" x="51.615" y="12.66375" style="fill: #323034; stroke: #323034; stroke-width: 0.8"/>
      </g>
     </g>
     <g id="text_14">
      <!-- $\mathdefault{0.6}$ -->
      <g style="fill: #323034" transform="translate(24.615 18.1275) scale(0.16 -0.16)">
       <defs>
        <path id="STIXGeneral-Regular-36" d="M 2854 4378 
L 2867 4275 
Q 2112 4154 1606 3664 
Q 1101 3174 973 2451 
Q 1344 2739 1786 2739 
Q 2349 2739 2672 2380 
Q 2995 2022 2995 1402 
Q 2995 774 2669 378 
Q 2291 -90 1651 -90 
Q 870 -90 518 557 
Q 218 1107 218 1786 
Q 218 2835 915 3552 
Q 1312 3962 1731 4131 
Q 2150 4301 2854 4378 
z
M 2419 1203 
Q 2419 2445 1555 2445 
Q 1235 2445 1024 2275 
Q 813 2106 813 1702 
Q 813 954 1046 522 
Q 1280 90 1722 90 
Q 2061 90 2240 394 
Q 2419 698 2419 1203 
z
" transform="scale(0.015625)"/>
       </defs>
       <use xlink:href="#STIXGeneral-Regular-30" transform="translate(0 0.59375)"/>
       <use xlink:href="#STIXGeneral-Regular-2e" transform="translate(49.999985 0.59375)"/>
       <use xlink:href="#STIXGeneral-Regular-36" transform="translate(74.999969 0.59375)"/>
      </g>
     </g>
    </g>
    <g id="text_15">
     <!-- Density -->
     <g transform="translate(18.1275 182.798125) rotate(-90) scale(0.16 -0.16)">
      <defs>
       <path id="STIXGeneral-Regular-44" d="M 102 4237 
L 1830 4237 
Q 3078 4237 3750 3654 
Q 4384 3110 4384 2138 
Q 4384 966 3514 410 
Q 2880 0 1901 0 
L 102 0 
L 102 122 
Q 474 147 570 252 
Q 666 358 666 736 
L 666 3520 
Q 666 3891 570 3990 
Q 474 4090 102 4115 
L 102 4237 
z
M 1318 3731 
L 1318 538 
Q 1318 365 1379 301 
Q 1440 237 1626 237 
Q 2125 237 2432 307 
Q 2739 378 3021 570 
Q 3686 1018 3686 2099 
Q 3686 3027 3078 3558 
Q 2803 3802 2476 3901 
Q 2150 4000 1658 4000 
Q 1472 4000 1395 3942 
Q 1318 3885 1318 3731 
z
" transform="scale(0.015625)"/>
       <path id="STIXGeneral-Regular-65" d="M 2611 1050 
L 2714 1005 
Q 2330 -64 1376 -64 
Q 813 -64 486 329 
Q 160 723 160 1389 
Q 160 2074 525 2509 
Q 890 2944 1485 2944 
Q 2061 2944 2374 2502 
Q 2560 2246 2592 1773 
L 621 1773 
Q 646 1370 700 1158 
Q 755 947 915 730 
Q 1184 378 1626 378 
Q 1939 378 2153 531 
Q 2368 685 2611 1050 
z
M 634 1978 
L 1939 1978 
Q 1882 2381 1750 2547 
Q 1619 2714 1312 2714 
Q 1043 2714 864 2525 
Q 685 2336 634 1978 
z
" transform="scale(0.015625)"/>
       <path id="STIXGeneral-Regular-6e" d="M 3104 0 
L 1773 0 
L 1779 96 
Q 2016 115 2096 233 
Q 2176 352 2176 672 
L 2176 1946 
Q 2176 2592 1709 2592 
Q 1549 2592 1408 2515 
Q 1267 2438 1050 2227 
L 1050 461 
Q 1050 269 1136 192 
Q 1222 115 1466 96 
L 1466 0 
L 115 0 
L 115 96 
Q 358 115 435 214 
Q 512 314 512 602 
L 512 2157 
Q 512 2394 467 2483 
Q 422 2573 288 2573 
Q 160 2573 102 2547 
L 102 2656 
Q 550 2784 979 2944 
L 1030 2925 
L 1030 2426 
L 1037 2426 
Q 1491 2944 1958 2944 
Q 2323 2944 2518 2688 
Q 2714 2432 2714 1958 
L 2714 544 
Q 2714 288 2790 205 
Q 2867 122 3104 96 
L 3104 0 
z
" transform="scale(0.015625)"/>
       <path id="STIXGeneral-Regular-73" d="M 998 1926 
L 1664 1523 
Q 1984 1331 2105 1164 
Q 2227 998 2227 736 
Q 2227 416 1961 176 
Q 1696 -64 1331 -64 
Q 1030 -64 864 -6 
Q 691 51 570 51 
Q 461 51 416 -26 
L 333 -26 
L 333 979 
L 435 979 
Q 538 512 730 294 
Q 922 77 1248 77 
Q 1485 77 1632 211 
Q 1779 346 1779 550 
Q 1779 845 1440 1030 
L 1094 1222 
Q 326 1651 326 2150 
Q 326 2522 566 2730 
Q 806 2938 1210 2938 
Q 1491 2938 1638 2867 
Q 1754 2816 1818 2816 
Q 1862 2816 1920 2880 
L 1990 2880 
L 2022 2010 
L 1926 2010 
Q 1818 2445 1654 2621 
Q 1491 2797 1203 2797 
Q 986 2797 854 2688 
Q 723 2579 723 2362 
Q 723 2253 796 2128 
Q 870 2003 998 1926 
z
" transform="scale(0.015625)"/>
       <path id="STIXGeneral-Regular-69" d="M 1152 4045 
Q 1152 3904 1056 3811 
Q 960 3718 819 3718 
Q 685 3718 592 3811 
Q 499 3904 499 4045 
Q 499 4179 595 4275 
Q 691 4371 826 4371 
Q 966 4371 1059 4275 
Q 1152 4179 1152 4045 
z
M 1619 0 
L 102 0 
L 102 96 
Q 435 115 521 211 
Q 608 307 608 666 
L 608 2118 
Q 608 2342 563 2432 
Q 518 2522 397 2522 
Q 243 2522 128 2490 
L 128 2592 
L 1120 2944 
L 1146 2918 
L 1146 672 
Q 1146 314 1226 218 
Q 1306 122 1619 96 
L 1619 0 
z
" transform="scale(0.015625)"/>
       <path id="STIXGeneral-Regular-79" d="M 3040 2880 
L 3040 2784 
Q 2925 2771 2854 2700 
Q 2784 2630 2720 2458 
L 1760 -160 
Q 1510 -838 1257 -1116 
Q 1005 -1395 640 -1395 
Q 435 -1395 313 -1289 
Q 192 -1184 192 -1024 
Q 192 -902 272 -816 
Q 352 -730 467 -730 
Q 653 -730 800 -813 
Q 883 -858 966 -858 
Q 1101 -858 1286 -576 
Q 1376 -448 1459 -211 
Q 1542 26 1542 115 
Q 1542 198 1274 762 
L 429 2566 
Q 346 2752 90 2790 
L 90 2880 
L 1402 2880 
L 1402 2784 
Q 1197 2778 1117 2739 
Q 1037 2701 1037 2611 
Q 1037 2541 1120 2349 
L 1837 749 
L 2458 2515 
Q 2483 2573 2483 2630 
Q 2483 2784 2189 2784 
L 2189 2880 
L 3040 2880 
z
" transform="scale(0.015625)"/>
      </defs>
      <use xlink:href="#STIXGeneral-Regular-44"/>
      <use xlink:href="#STIXGeneral-Regular-65" x="72.199982"/>
      <use xlink:href="#STIXGeneral-Regular-6e" x="116.599976"/>
      <use xlink:href="#STIXGeneral-Regular-73" x="166.59996"/>
      <use xlink:href="#STIXGeneral-Regular-69" x="205.499954"/>
      <use xlink:href="#STIXGeneral-Regular-74" x="233.299942"/>
      <use xlink:href="#STIXGeneral-Regular-79" x="261.09993"/>
     </g>
    </g>
   </g>
   <g id="patch_3">
    <path d="M 51.615 303.155 
L 51.615 12.66375 
" style="fill: none; stroke: #000000; stroke-width: 0.6; stroke-linejoin: miter; stroke-linecap: square"/>
   </g>
   <g id="patch_4">
    <path d="M 51.615 303.155 
L 332.226266 303.155 
" style="fill: none; stroke: #000000; stroke-width: 0.6; stroke-linejoin: miter; stroke-linecap: square"/>
   </g>
  </g>
  <g id="legend_1">
   <g id="text_16">
    <!-- cut -->
    <g style="fill: #323034" transform="translate(385.464453 138.788437) scale(0.16 -0.16)">
     <defs>
      <path id="STIXGeneral-Regular-75" d="M 3072 320 
L 3072 230 
Q 2573 96 2195 -58 
L 2163 -38 
L 2163 486 
L 2150 486 
Q 1747 -64 1235 -64 
Q 870 -64 662 160 
Q 454 384 454 755 
L 454 2362 
Q 454 2598 371 2688 
Q 288 2778 58 2790 
L 58 2880 
L 992 2880 
L 992 813 
Q 992 595 1123 451 
Q 1254 307 1446 307 
Q 1760 307 1984 506 
Q 2067 582 2099 649 
Q 2131 717 2131 877 
L 2131 2355 
Q 2131 2605 2041 2678 
Q 1952 2752 1658 2771 
L 1658 2880 
L 2669 2880 
L 2669 685 
Q 2669 461 2742 390 
Q 2816 320 3034 320 
L 3072 320 
z
" transform="scale(0.015625)"/>
     </defs>
     <use xlink:href="#STIXGeneral-Regular-63"/>
     <use xlink:href="#STIXGeneral-Regular-75" x="44.399994"/>
     <use xlink:href="#STIXGeneral-Regular-74" x="94.399979"/>
    </g>
   </g>
   <g id="patch_5">
    <path d="M 351.614141 155.460938 
L 375.614141 155.460938 
L 375.614141 147.060937 
L 351.614141 147.060937 
z
" style="fill: #bc80bd; fill-opacity: 0.25; stroke: #bc80bd; stroke-width: 0.8; stroke-linejoin: miter"/>
   </g>
   <g id="text_17">
    <!-- Ideal -->
    <g style="fill: #323034" transform="translate(385.214141 155.460938) scale(0.12 -0.12)">
     <defs>
      <path id="STIXGeneral-Regular-49" d="M 2016 0 
L 115 0 
L 115 122 
Q 518 134 627 240 
Q 736 346 736 717 
L 736 3526 
Q 736 3898 633 3994 
Q 531 4090 115 4115 
L 115 4237 
L 2016 4237 
L 2016 4115 
Q 1613 4096 1501 3993 
Q 1389 3891 1389 3526 
L 1389 717 
Q 1389 358 1504 246 
Q 1619 134 2016 122 
L 2016 0 
z
" transform="scale(0.015625)"/>
      <path id="STIXGeneral-Regular-64" d="M 3142 269 
L 2202 -64 
L 2176 -45 
L 2176 365 
Q 1869 -64 1357 -64 
Q 826 -64 499 317 
Q 173 698 173 1312 
Q 173 1990 563 2467 
Q 954 2944 1504 2944 
Q 1850 2944 2176 2669 
L 2176 3667 
Q 2176 3866 2118 3930 
Q 2061 3994 1882 3994 
Q 1792 3994 1741 3987 
L 1741 4090 
Q 2323 4243 2682 4371 
L 2714 4358 
L 2714 730 
Q 2714 506 2768 435 
Q 2822 365 2995 365 
Q 3034 365 3142 371 
L 3142 269 
z
M 2176 653 
L 2176 2125 
Q 2176 2381 1981 2573 
Q 1786 2765 1523 2765 
Q 1158 2765 940 2438 
Q 723 2112 723 1568 
Q 723 979 963 624 
Q 1203 269 1606 269 
Q 1907 269 2080 474 
Q 2176 582 2176 653 
z
" transform="scale(0.015625)"/>
      <path id="STIXGeneral-Regular-6c" d="M 1645 0 
L 134 0 
L 134 96 
Q 435 122 531 221 
Q 627 320 627 589 
L 627 3590 
Q 627 3821 569 3910 
Q 512 4000 358 4000 
Q 224 4000 122 3987 
L 122 4090 
Q 730 4237 1133 4371 
L 1165 4346 
L 1165 557 
Q 1165 288 1254 201 
Q 1344 115 1645 96 
L 1645 0 
z
" transform="scale(0.015625)"/>
     </defs>
     <use xlink:href="#STIXGeneral-Regular-49"/>
     <use xlink:href="#STIXGeneral-Regular-64" x="33.299988"/>
     <use xlink:href="#STIXGeneral-Regular-65" x="83.299973"/>
     <use xlink:href="#STIXGeneral-Regular-61" x="127.699966"/>
     <use xlink:href="#STIXGeneral-Regular-6c" x="172.09996"/>
    </g>
   </g>
   <g id="patch_6">
    <path d="M 351.614141 171.265312 
L 375.614141 171.265312 
L 375.614141 162.865312 
L 351.614141 162.865312 
z
" style="fill: #fb8072; fill-opacity: 0.25; stroke: #fb8072; stroke-width: 0.8; stroke-linejoin: miter"/>
   </g>
   <g id="text_18">
    <!-- Premium -->
    <g style="fill: #323034" transform="translate(385.214141 171.265312) scale(0.12 -0.12)">
     <defs>
      <path id="STIXGeneral-Regular-50" d="M 102 4237 
L 1760 4237 
Q 2669 4237 3149 3834 
Q 3469 3565 3469 3072 
Q 3469 2560 3104 2234 
Q 2835 1990 2553 1916 
Q 2272 1843 1734 1843 
Q 1549 1843 1293 1862 
L 1293 717 
Q 1293 352 1398 246 
Q 1504 141 1894 122 
L 1894 0 
L 102 0 
L 102 122 
Q 474 147 557 256 
Q 640 365 640 781 
L 640 3526 
Q 640 3885 547 3987 
Q 454 4090 102 4115 
L 102 4237 
z
M 1293 3770 
L 1293 2118 
Q 1510 2099 1683 2099 
Q 2202 2099 2486 2352 
Q 2771 2605 2771 3040 
Q 2771 3558 2476 3779 
Q 2182 4000 1517 4000 
Q 1382 4000 1337 3952 
Q 1293 3904 1293 3770 
z
" transform="scale(0.015625)"/>
      <path id="STIXGeneral-Regular-6d" d="M 4960 0 
L 3565 0 
L 3565 96 
Q 3834 122 3907 208 
Q 3981 294 3981 576 
L 3981 1894 
Q 3981 2278 3869 2444 
Q 3757 2611 3488 2611 
Q 3264 2611 3107 2521 
Q 2950 2432 2803 2221 
L 2803 608 
Q 2803 301 2896 201 
Q 2989 102 3264 96 
L 3264 0 
L 1830 0 
L 1830 96 
Q 2112 115 2189 188 
Q 2266 262 2266 550 
L 2266 1901 
Q 2266 2611 1850 2611 
Q 1670 2611 1468 2531 
Q 1267 2451 1171 2336 
Q 1088 2240 1088 2227 
L 1088 448 
Q 1088 243 1177 176 
Q 1267 109 1523 96 
L 1523 0 
L 102 0 
L 102 96 
Q 371 102 460 195 
Q 550 288 550 563 
L 550 2150 
Q 550 2387 499 2480 
Q 448 2573 326 2573 
Q 230 2573 122 2547 
L 122 2656 
Q 557 2778 1011 2944 
L 1062 2925 
L 1062 2451 
L 1075 2451 
Q 1363 2752 1584 2848 
Q 1805 2944 2054 2944 
Q 2560 2944 2733 2406 
Q 3232 2944 3776 2944 
Q 4518 2944 4518 1792 
L 4518 493 
Q 4518 282 4582 202 
Q 4646 122 4794 109 
L 4960 96 
L 4960 0 
z
" transform="scale(0.015625)"/>
     </defs>
     <use xlink:href="#STIXGeneral-Regular-50"/>
     <use xlink:href="#STIXGeneral-Regular-72" x="55.699997"/>
     <use xlink:href="#STIXGeneral-Regular-65" x="88.999985"/>
     <use xlink:href="#STIXGeneral-Regular-6d" x="133.399979"/>
     <use xlink:href="#STIXGeneral-Regular-69" x="211.199966"/>
     <use xlink:href="#STIXGeneral-Regular-75" x="238.999954"/>
     <use xlink:href="#STIXGeneral-Regular-6d" x="288.999939"/>
    </g>
   </g>
   <g id="patch_7">
    <path d="M 351.614141 187.069687 
L 375.614141 187.069687 
L 375.614141 178.669687 
L 351.614141 178.669687 
z
" style="fill: #b3de69; fill-opacity: 0.25; stroke: #b3de69; stroke-width: 0.8; stroke-linejoin: miter"/>
   </g>
   <g id="text_19">
    <!-- Very Good -->
    <g style="fill: #323034" transform="translate(385.214141 187.069687) scale(0.12 -0.12)">
     <defs>
      <path id="STIXGeneral-Regular-56" d="M 4461 4237 
L 4461 4115 
Q 4262 4109 4134 3990 
Q 4006 3872 3872 3533 
L 2451 -70 
L 2355 -70 
L 794 3411 
Q 589 3866 467 3987 
Q 346 4109 102 4115 
L 102 4237 
L 1798 4237 
L 1798 4115 
L 1619 4102 
Q 1331 4083 1331 3904 
Q 1331 3776 1581 3219 
L 2554 1030 
L 3494 3392 
Q 3616 3699 3616 3853 
Q 3616 3898 3606 3933 
Q 3597 3968 3584 3993 
Q 3571 4019 3536 4038 
Q 3501 4058 3481 4067 
Q 3462 4077 3411 4086 
Q 3360 4096 3337 4099 
Q 3315 4102 3248 4108 
Q 3181 4115 3155 4115 
L 3155 4237 
L 4461 4237 
z
" transform="scale(0.015625)"/>
      <path id="STIXGeneral-Regular-20" transform="scale(0.015625)"/>
      <path id="STIXGeneral-Regular-47" d="M 4538 2266 
L 4538 2150 
Q 4256 2125 4173 2035 
Q 4090 1946 4090 1638 
L 4090 358 
Q 3539 -90 2464 -90 
Q 1965 -90 1507 89 
Q 1050 269 736 595 
Q 205 1152 205 2093 
Q 205 3155 890 3776 
Q 1491 4326 2419 4326 
Q 2829 4326 3270 4179 
Q 3443 4115 3552 4115 
Q 3654 4115 3731 4176 
Q 3808 4237 3840 4326 
L 3981 4326 
L 4032 2976 
L 3885 2976 
Q 3680 3475 3430 3718 
Q 3059 4070 2496 4070 
Q 1856 4070 1427 3629 
Q 934 3136 934 2074 
Q 934 1190 1395 678 
Q 1856 166 2618 166 
Q 2982 166 3225 281 
Q 3469 397 3469 557 
L 3469 1562 
Q 3469 1933 3376 2025 
Q 3283 2118 2899 2150 
L 2899 2266 
L 4538 2266 
z
" transform="scale(0.015625)"/>
      <path id="STIXGeneral-Regular-6f" d="M 3008 1478 
Q 3008 806 2608 371 
Q 2208 -64 1568 -64 
Q 979 -64 582 368 
Q 186 800 186 1459 
Q 186 2125 582 2534 
Q 979 2944 1626 2944 
Q 2221 2944 2614 2537 
Q 3008 2131 3008 1478 
z
M 2432 1306 
Q 2432 2035 2112 2445 
Q 1856 2765 1504 2765 
Q 1171 2765 966 2493 
Q 762 2221 762 1747 
Q 762 928 1101 435 
Q 1318 115 1677 115 
Q 2029 115 2230 432 
Q 2432 749 2432 1306 
z
" transform="scale(0.015625)"/>
     </defs>
     <use xlink:href="#STIXGeneral-Regular-56"/>
     <use xlink:href="#STIXGeneral-Regular-65" x="72.199982"/>
     <use xlink:href="#STIXGeneral-Regular-72" x="116.599976"/>
     <use xlink:href="#STIXGeneral-Regular-79" x="149.899963"/>
     <use xlink:href="#STIXGeneral-Regular-20" x="199.899948"/>
     <use xlink:href="#STIXGeneral-Regular-47" x="224.899933"/>
     <use xlink:href="#STIXGeneral-Regular-6f" x="297.099915"/>
     <use xlink:href="#STIXGeneral-Regular-6f" x="347.099899"/>
     <use xlink:href="#STIXGeneral-Regular-64" x="397.099884"/>
    </g>
   </g>
   <g id="patch_8">
    <path d="M 351.614141 202.885312 
L 375.614141 202.885312 
L 375.614141 194.485312 
L 351.614141 194.485312 
z
" style="fill: #fdb462; fill-opacity: 0.25; stroke: #fdb462; stroke-width: 0.8; stroke-linejoin: miter"/>
   </g>
   <g id="text_20">
    <!-- Good -->
    <g style="fill: #323034" transform="translate(385.214141 202.885312) scale(0.12 -0.12)">
     <use xlink:href="#STIXGeneral-Regular-47"/>
     <use xlink:href="#STIXGeneral-Regular-6f" x="72.199982"/>
     <use xlink:href="#STIXGeneral-Regular-6f" x="122.199966"/>
     <use xlink:href="#STIXGeneral-Regular-64" x="172.199951"/>
    </g>
   </g>
   <g id="patch_9">
    <path d="M 351.614141 218.689687 
L 375.614141 218.689687 
L 375.614141 210.289687 
L 351.614141 210.289687 
z
" style="fill: #fccde5; fill-opacity: 0.25; stroke: #fccde5; stroke-width: 0.8; stroke-linejoin: miter"/>
   </g>
   <g id="text_21">
    <!-- Fair -->
    <g style="fill: #323034" transform="translate(385.214141 218.689687) scale(0.12 -0.12)">
     <defs>
      <path id="STIXGeneral-Regular-46" d="M 3494 3322 
L 3334 3322 
Q 3264 3757 3094 3875 
Q 2925 3994 2349 3994 
L 1504 3994 
Q 1370 3994 1328 3946 
Q 1286 3898 1286 3744 
L 1286 2355 
L 2195 2355 
Q 2598 2355 2736 2470 
Q 2874 2586 2918 2963 
L 3066 2963 
L 3066 1472 
L 2918 1472 
Q 2880 1862 2745 1977 
Q 2611 2093 2195 2093 
L 1286 2093 
L 1286 717 
Q 1286 352 1392 246 
Q 1498 141 1869 122 
L 1869 0 
L 70 0 
L 70 122 
Q 435 147 534 259 
Q 634 371 634 787 
L 634 3526 
Q 634 3878 538 3984 
Q 442 4090 77 4115 
L 77 4237 
L 3462 4237 
L 3494 3322 
z
" transform="scale(0.015625)"/>
     </defs>
     <use xlink:href="#STIXGeneral-Regular-46"/>
     <use xlink:href="#STIXGeneral-Regular-61" x="55.599991"/>
     <use xlink:href="#STIXGeneral-Regular-69" x="99.999985"/>
     <use xlink:href="#STIXGeneral-Regular-72" x="127.799973"/>
    </g>
   </g>
  </g>
 </g>
 <defs>
  <clipPath id="pc71c65dde6">
   <rect x="51.615" y="12.66375" width="280.611266" height="290.49125"/>
  </clipPath>
 </defs>
</svg>