<?xml version="1.0" encoding="utf-8" standalone="no"?>
<!DOCTYPE svg PUBLIC "-//W3C//DTD SVG 1.1//EN"
  "http://www.w3.org/Graphics/SVG/1.1/DTD/svg11.dtd">
<svg xmlns:xlink="http://www.w3.org/1999/xlink" width="492.584399pt" height="362.061pt" viewBox="0 0 492.584399 362.061" xmlns="http://www.w3.org/2000/svg" version="1.1">
 <metadata>
  <rdf:RDF xmlns:dc="http://purl.org/dc/elements/1.1/" xmlns:cc="http://creativecommons.org/ns#" xmlns:rdf="http://www.w3.org/1999/02/22-rdf-syntax-ns#">
   <cc:Work>
    <dc:type rdf:resource="http://purl.org/dc/dcmitype/StillImage"/>
    <dc:date>2024-01-05T15:41:18.970785</dc:date>
    <dc:format>image/svg+xml</dc:format>
    <dc:creator>
     <cc:Agent>
      <dc:title>Matplotlib v3.8.2, https://matplotlib.org/</dc:title>
     </cc:Agent>
    </dc:creator>
   </cc:Work>
  </rdf:RDF>
 </metadata>
 <defs>
  <style type="text/css">*{stroke-linejoin: round; stroke-linecap: butt}</style>
 </defs>
 <g id="figure_1">
  <g id="patch_1">
   <path d="M 0 362.061 
L 492.584399 362.061 
L 492.584399 0 
L 0 0 
z
" style="fill: #ffffff"/>
  </g>
  <g id="axes_1">
   <g id="patch_2">
    <path d="M 19.64 141.806833 
L 439.344399 141.806833 
L 439.344399 70.7325 
L 19.64 70.7325 
z
" style="fill: #ffffff"/>
   </g>
   <g id="matplotlib.axis_1">
    <g id="xtick_1">
     <g id="line2d_1">
      <defs>
       <path id="mb16a8ea460" d="M 0 0 
L 0 3.5 
" style="stroke: #323034; stroke-width: 0.8"/>
      </defs>
      <g>
       <use xlink:href="#mb16a8ea460" x="19.64" y="141.806833" style="fill: #323034; stroke: #323034; stroke-width: 0.8"/>
      </g>
     </g>
    </g>
    <g id="xtick_2">
     <g id="line2d_2">
      <g>
       <use xlink:href="#mb16a8ea460" x="60.78749" y="141.806833" style="fill: #323034; stroke: #323034; stroke-width: 0.8"/>
      </g>
     </g>
    </g>
    <g id="xtick_3">
     <g id="line2d_3">
      <g>
       <use xlink:href="#mb16a8ea460" x="103.306563" y="141.806833" style="fill: #323034; stroke: #323034; stroke-width: 0.8"/>
      </g>
     </g>
    </g>
    <g id="xtick_4">
     <g id="line2d_4">
      <g>
       <use xlink:href="#mb16a8ea460" x="144.454053" y="141.806833" style="fill: #323034; stroke: #323034; stroke-width: 0.8"/>
      </g>
     </g>
    </g>
    <g id="xtick_5">
     <g id="line2d_5">
      <g>
       <use xlink:href="#mb16a8ea460" x="186.973127" y="141.806833" style="fill: #323034; stroke: #323034; stroke-width: 0.8"/>
      </g>
     </g>
    </g>
    <g id="xtick_6">
     <g id="line2d_6">
      <g>
       <use xlink:href="#mb16a8ea460" x="229.4922" y="141.806833" style="fill: #323034; stroke: #323034; stroke-width: 0.8"/>
      </g>
     </g>
    </g>
    <g id="xtick_7">
     <g id="line2d_7">
      <g>
       <use xlink:href="#mb16a8ea460" x="270.63969" y="141.806833" style="fill: #323034; stroke: #323034; stroke-width: 0.8"/>
      </g>
     </g>
    </g>
    <g id="xtick_8">
     <g id="line2d_8">
      <g>
       <use xlink:href="#mb16a8ea460" x="313.158763" y="141.806833" style="fill: #323034; stroke: #323034; stroke-width: 0.8"/>
      </g>
     </g>
    </g>
    <g id="xtick_9">
     <g id="line2d_9">
      <g>
       <use xlink:href="#mb16a8ea460" x="354.306253" y="141.806833" style="fill: #323034; stroke: #323034; stroke-width: 0.8"/>
      </g>
     </g>
    </g>
    <g id="xtick_10">
     <g id="line2d_10">
      <g>
       <use xlink:href="#mb16a8ea460" x="396.825326" y="141.806833" style="fill: #323034; stroke: #323034; stroke-width: 0.8"/>
      </g>
     </g>
    </g>
    <g id="xtick_11">
     <g id="line2d_11">
      <g>
       <use xlink:href="#mb16a8ea460" x="439.344399" y="141.806833" style="fill: #323034; stroke: #323034; stroke-width: 0.8"/>
      </g>
     </g>
    </g>
   </g>
   <g id="matplotlib.axis_2">
    <g id="ytick_1">
     <g id="line2d_12">
      <defs>
       <path id="mc8b2930d70" d="M 0 0 
L 3.5 0 
" style="stroke: #323034; stroke-width: 0.8"/>
      </defs>
      <g>
       <use xlink:href="#mc8b2930d70" x="439.344399" y="124.03825" style="fill: #323034; stroke: #323034; stroke-width: 0.8"/>
      </g>
     </g>
     <g id="text_1">
      <!-- $\mathdefault{10.0}$ -->
      <g style="fill: #323034" transform="translate(446.344399 129.502) scale(0.16 -0.16)">
       <defs>
        <path id="STIXGeneral-Regular-31" d="M 2522 0 
L 755 0 
L 755 96 
Q 1107 115 1235 227 
Q 1363 339 1363 608 
L 1363 3482 
Q 1363 3795 1171 3795 
Q 1082 3795 883 3718 
L 710 3654 
L 710 3744 
L 1856 4326 
L 1914 4307 
L 1914 486 
Q 1914 275 2042 185 
Q 2170 96 2522 96 
L 2522 0 
z
" transform="scale(0.015625)"/>
        <path id="STIXGeneral-Regular-30" d="M 3046 2112 
Q 3046 1683 2963 1302 
Q 2880 922 2717 602 
Q 2554 282 2266 96 
Q 1978 -90 1600 -90 
Q 1210 -90 915 108 
Q 621 307 461 640 
Q 301 973 227 1350 
Q 154 1728 154 2150 
Q 154 2746 301 3222 
Q 448 3699 790 4012 
Q 1133 4326 1626 4326 
Q 2253 4326 2649 3712 
Q 3046 3098 3046 2112 
z
M 2432 2080 
Q 2432 3091 2217 3625 
Q 2003 4160 1587 4160 
Q 1190 4160 979 3622 
Q 768 3085 768 2106 
Q 768 1120 979 598 
Q 1190 77 1600 77 
Q 2003 77 2217 598 
Q 2432 1120 2432 2080 
z
" transform="scale(0.015625)"/>
        <path id="STIXGeneral-Regular-2e" d="M 1158 275 
Q 1158 134 1052 32 
Q 947 -70 800 -70 
Q 653 -70 550 32 
Q 448 134 448 281 
Q 448 429 553 534 
Q 659 640 806 640 
Q 947 640 1052 531 
Q 1158 422 1158 275 
z
" transform="scale(0.015625)"/>
       </defs>
       <use xlink:href="#STIXGeneral-Regular-31" transform="translate(0 0.40625)"/>
       <use xlink:href="#STIXGeneral-Regular-30" transform="translate(49.999985 0.40625)"/>
       <use xlink:href="#STIXGeneral-Regular-2e" transform="translate(99.999969 0.40625)"/>
       <use xlink:href="#STIXGeneral-Regular-30" transform="translate(124.999954 0.40625)"/>
      </g>
     </g>
    </g>
    <g id="ytick_2">
     <g id="line2d_13">
      <g>
       <use xlink:href="#mc8b2930d70" x="439.344399" y="79.616792" style="fill: #323034; stroke: #323034; stroke-width: 0.8"/>
      </g>
     </g>
     <g id="text_2">
      <!-- $\mathdefault{12.5}$ -->
      <g style="fill: #323034" transform="translate(446.344399 85.080542) scale(0.16 -0.16)">
       <defs>
        <path id="STIXGeneral-Regular-32" d="M 3034 877 
L 2688 0 
L 186 0 
L 186 77 
L 1325 1286 
Q 1773 1754 1965 2144 
Q 2157 2534 2157 2950 
Q 2157 3379 1920 3616 
Q 1683 3853 1267 3853 
Q 922 3853 720 3673 
Q 518 3494 326 3021 
L 192 3053 
Q 301 3648 630 3987 
Q 960 4326 1523 4326 
Q 2054 4326 2380 4006 
Q 2707 3686 2707 3200 
Q 2707 2477 1888 1613 
L 832 486 
L 2330 486 
Q 2541 486 2665 569 
Q 2790 653 2944 915 
L 3034 877 
z
" transform="scale(0.015625)"/>
        <path id="STIXGeneral-Regular-35" d="M 2803 4358 
L 2573 3814 
Q 2534 3731 2400 3731 
L 1158 3731 
L 902 3187 
Q 1606 3053 1920 2896 
Q 2234 2739 2502 2368 
Q 2726 2061 2726 1555 
Q 2726 1094 2576 780 
Q 2426 467 2099 224 
Q 1664 -90 1011 -90 
Q 646 -90 422 19 
Q 198 128 198 307 
Q 198 550 486 550 
Q 717 550 960 352 
Q 1210 147 1414 147 
Q 1747 147 2012 480 
Q 2278 813 2278 1229 
Q 2278 1843 1850 2189 
Q 1293 2637 486 2637 
Q 410 2637 410 2688 
L 416 2720 
L 1114 4237 
L 2438 4237 
Q 2547 4237 2608 4269 
Q 2669 4301 2746 4403 
L 2803 4358 
z
" transform="scale(0.015625)"/>
       </defs>
       <use xlink:href="#STIXGeneral-Regular-31" transform="translate(0 0.203125)"/>
       <use xlink:href="#STIXGeneral-Regular-32" transform="translate(49.999985 0.203125)"/>
       <use xlink:href="#STIXGeneral-Regular-2e" transform="translate(99.999969 0.203125)"/>
       <use xlink:href="#STIXGeneral-Regular-35" transform="translate(124.999954 0.203125)"/>
      </g>
     </g>
    </g>
    <g id="ytick_3">
     <g id="line2d_14">
      <defs>
       <path id="m098b18d572" d="M 0 0 
L 2 0 
" style="stroke: #323034; stroke-width: 0.6"/>
      </defs>
      <g>
       <use xlink:href="#m098b18d572" x="439.344399" y="101.827521" style="fill: #323034; stroke: #323034; stroke-width: 0.6"/>
      </g>
     </g>
    </g>
   </g>
   <g id="line2d_15">
    <path d="M 19.64 119.435591 
L 23.754749 118.61499 
L 26.497915 118.255845 
L 29.241081 118.161988 
L 31.984247 118.305615 
L 41.585328 119.121785 
L 45.700077 119.106683 
L 51.186409 119.032382 
L 53.929575 119.232659 
L 59.415907 119.966621 
L 63.530656 120.749236 
L 73.131737 122.987986 
L 75.874903 123.365379 
L 79.989652 123.631399 
L 86.847567 123.997341 
L 95.077065 124.634666 
L 97.820231 124.639627 
L 104.678146 124.506481 
L 111.536061 124.636684 
L 114.279227 124.511489 
L 117.022393 124.126386 
L 119.765559 123.458893 
L 122.508725 122.488553 
L 125.251891 121.198423 
L 127.995057 119.642418 
L 138.967721 112.846345 
L 141.710887 111.458072 
L 144.454053 110.283124 
L 148.568802 108.851062 
L 158.169883 105.811355 
L 160.913049 105.119994 
L 163.656215 104.658272 
L 166.399381 104.42127 
L 170.514131 104.324982 
L 174.62888 104.525958 
L 178.743629 104.978311 
L 182.858378 105.676425 
L 192.459459 107.709594 
L 202.06054 109.175375 
L 206.175289 110.214282 
L 210.290038 111.324147 
L 213.033204 111.901198 
L 215.77637 112.308091 
L 219.891119 112.671403 
L 225.377451 113.161861 
L 229.4922 113.784923 
L 237.721698 115.357489 
L 239.093281 115.424786 
L 241.836447 115.191946 
L 244.579613 114.642971 
L 252.809111 112.748767 
L 255.552277 112.318799 
L 258.295443 112.105391 
L 267.896524 111.704976 
L 270.63969 111.298391 
L 274.754439 110.410071 
L 280.240771 109.208915 
L 287.098686 107.728954 
L 292.585018 106.317248 
L 296.699767 105.00085 
L 306.300848 101.515055 
L 310.415597 99.814373 
L 313.158763 98.487293 
L 317.273512 96.166133 
L 324.131427 92.109906 
L 326.874593 90.705133 
L 329.617759 89.543947 
L 332.360925 88.68454 
L 335.104091 88.144392 
L 337.847257 87.907422 
L 340.590423 87.930126 
L 347.448338 88.280112 
L 348.819921 88.145519 
L 351.563087 87.545769 
L 354.306253 86.620279 
L 359.792585 84.694508 
L 362.535751 83.967017 
L 365.278917 83.46826 
L 368.022083 83.214364 
L 370.765249 83.211828 
L 373.508415 83.410427 
L 376.251581 83.813821 
L 378.994747 84.434959 
L 384.481079 85.854607 
L 385.852662 86.105855 
L 387.224245 86.224143 
L 388.595828 86.157461 
L 389.967411 85.946056 
L 392.710577 85.194814 
L 395.453743 84.184014 
L 400.940075 81.999385 
L 403.683241 81.340351 
L 405.054824 81.185571 
L 406.426407 81.162257 
L 407.79799 81.274543 
L 410.541156 81.848538 
L 413.284322 82.785645 
L 417.399071 84.572993 
L 421.51382 86.34826 
L 425.628569 87.810486 
L 429.743318 89.068932 
L 435.22965 90.524653 
L 439.344399 91.506568 
L 439.344399 91.506568 
" clip-path="url(#p15a3dbeff0)" style="fill: none; stroke-dasharray: 3.7,1.6; stroke-dashoffset: 0; stroke: #000000"/>
   </g>
   <g id="line2d_16">
    <path d="M 19.64 120.466833 
L 21.011583 118.717011 
L 23.754749 115.759371 
L 25.126332 121.355684 
L 26.497915 118.014183 
L 27.869498 118.350111 
L 29.241081 117.502071 
L 30.612664 115.96303 
L 31.984247 116.602197 
L 33.35583 117.558 
L 34.727413 120.326847 
L 36.098996 121.249871 
L 37.470579 120.62523 
L 38.842162 118.529064 
L 40.213745 117.61804 
L 41.585328 117.676591 
L 44.328494 121.552378 
L 45.700077 120.162641 
L 47.07166 121.426577 
L 48.443243 119.254832 
L 49.814826 116.442078 
L 51.186409 114.94698 
L 52.557992 116.112673 
L 53.929575 120.595963 
L 55.301158 123.118224 
L 56.672741 122.03655 
L 58.044324 120.715999 
L 59.415907 118.338401 
L 60.78749 116.340312 
L 62.159073 118.862905 
L 63.530656 120.995878 
L 64.902239 124.09033 
L 66.273822 122.731804 
L 67.645405 122.141367 
L 69.016988 119.474977 
L 70.388571 119.999297 
L 71.760154 121.882261 
L 73.131737 125.473716 
L 74.50332 128.003369 
L 75.874903 123.818951 
L 77.246486 124.763941 
L 78.618069 120.445731 
L 79.989652 120.930064 
L 81.361235 122.767816 
L 82.732818 126.651461 
L 84.104401 124.199891 
L 85.475984 124.905679 
L 86.847567 123.215772 
L 88.21915 121.274711 
L 89.590733 122.662982 
L 90.962316 123.844467 
L 92.333899 125.725619 
L 93.705482 126.571275 
L 96.448648 126.905584 
L 97.820231 123.650828 
L 99.191814 122.11239 
L 100.563397 122.965683 
L 101.93498 125.198619 
L 103.306563 124.142997 
L 104.678146 125.063933 
L 106.049729 125.764693 
L 107.421312 124.372494 
L 108.792895 119.330181 
L 110.164478 123.647671 
L 111.536061 127.02734 
L 112.907644 127.422074 
L 114.279227 126.847853 
L 115.65081 123.384474 
L 117.022393 123.114395 
L 118.393976 121.441208 
L 119.765559 121.552378 
L 121.137142 126.543388 
L 122.508725 125.649496 
L 123.880308 121.870119 
L 125.251891 121.328652 
L 127.995057 118.060221 
L 129.36664 117.387965 
L 130.738223 120.834157 
L 133.481389 115.779125 
L 134.852972 114.827446 
L 137.596138 111.136787 
L 140.339304 113.656805 
L 141.710887 113.662203 
L 143.08247 110.053881 
L 144.454053 109.480838 
L 145.825636 107.598743 
L 147.197219 107.095823 
L 148.568802 109.469819 
L 149.940385 111.436299 
L 151.311968 110.452324 
L 152.683551 108.076844 
L 154.055134 106.394491 
L 155.426717 106.265258 
L 156.7983 103.949167 
L 158.169883 106.020109 
L 159.541466 106.894578 
L 162.284632 104.646303 
L 163.656215 103.919242 
L 165.027798 102.105391 
L 166.399381 103.260556 
L 167.770964 105.520942 
L 169.142548 105.571089 
L 170.514131 106.265554 
L 171.885714 104.734549 
L 173.257297 103.559692 
L 174.62888 103.491793 
L 176.000463 102.620341 
L 177.372046 104.331132 
L 178.743629 108.033202 
L 180.115212 106.476567 
L 182.858378 104.329535 
L 184.229961 103.76238 
L 185.601544 103.726337 
L 186.973127 107.197463 
L 188.34471 109.192003 
L 189.716293 110.389347 
L 191.087876 108.253486 
L 192.459459 108.195843 
L 195.202625 105.89298 
L 196.574208 107.701057 
L 197.945791 110.020497 
L 199.317374 110.506106 
L 200.688957 108.31731 
L 202.06054 108.013222 
L 203.432123 108.084402 
L 204.803706 106.387917 
L 206.175289 109.209853 
L 207.546872 112.512099 
L 208.918455 114.572759 
L 210.290038 112.055839 
L 211.661621 112.146489 
L 214.404787 109.825124 
L 215.77637 111.333795 
L 217.147953 117.217892 
L 218.519536 113.258334 
L 219.891119 113.827173 
L 221.262702 111.286109 
L 224.005868 110.736991 
L 225.377451 111.499122 
L 226.749034 116.625569 
L 228.120617 115.070245 
L 229.4922 111.723592 
L 230.863783 117.156996 
L 232.235366 110.800832 
L 233.606949 108.740576 
L 234.978532 112.46325 
L 236.350115 118.549784 
L 237.721698 121.670601 
L 241.836447 114.319805 
L 243.20803 110.358315 
L 244.579613 113.839438 
L 245.951196 116.67134 
L 247.322779 114.876511 
L 248.694362 113.788165 
L 250.065945 113.765073 
L 251.437528 111.222072 
L 252.809111 109.871949 
L 254.180694 112.650103 
L 255.552277 115.134155 
L 256.92386 107.793938 
L 258.295443 114.635377 
L 259.667026 112.761796 
L 261.038609 111.263689 
L 262.410192 107.914307 
L 263.781775 112.278342 
L 265.153358 114.679626 
L 266.524941 114.650114 
L 267.896524 111.866153 
L 269.268107 112.545443 
L 270.63969 110.792791 
L 272.011273 108.243203 
L 273.382856 110.279299 
L 274.754439 115.777605 
L 276.126022 105.531758 
L 277.497605 112.208977 
L 278.869188 108.430897 
L 280.240771 107.337465 
L 281.612354 106.542442 
L 284.35552 111.42995 
L 285.727103 110.191378 
L 287.098686 107.975615 
L 289.841852 104.713874 
L 291.213435 103.375925 
L 292.585018 108.516903 
L 293.956601 110.241035 
L 295.328184 104.690236 
L 296.699767 106.057312 
L 298.07135 105.01992 
L 299.442933 102.236638 
L 300.814516 99.981462 
L 302.186099 101.439104 
L 303.557682 106.316957 
L 304.929265 102.353381 
L 306.300848 102.413236 
L 310.415597 97.179178 
L 311.78718 100.209987 
L 313.158763 102.459158 
L 314.530346 98.254012 
L 315.901929 98.557117 
L 317.273512 95.775391 
L 318.645095 93.717478 
L 320.016678 92.112145 
L 321.388261 93.058913 
L 322.759844 96.574856 
L 324.131427 92.433283 
L 325.50301 91.217224 
L 326.874593 90.795494 
L 328.246176 88.403509 
L 329.617759 86.564505 
L 330.989342 88.912124 
L 332.360925 91.79881 
L 333.732508 88.090116 
L 335.104091 88.624198 
L 336.475674 87.490471 
L 337.847257 85.985464 
L 339.21884 84.941124 
L 340.590423 87.526296 
L 341.962006 91.076584 
L 343.333589 86.748826 
L 344.705172 86.924286 
L 346.076755 86.653425 
L 347.448338 96.631525 
L 348.819921 84.328139 
L 350.191504 89.785157 
L 351.563087 91.676208 
L 352.93467 87.973686 
L 355.677836 84.735644 
L 357.049419 83.329577 
L 358.421002 82.250721 
L 359.792585 84.339451 
L 361.164168 87.527536 
L 362.535751 84.442104 
L 363.907334 83.169052 
L 365.278917 83.16889 
L 366.6505 82.689701 
L 368.022083 78.859814 
L 369.393666 84.182592 
L 370.765249 86.299902 
L 372.136832 84.761012 
L 373.508415 84.561528 
L 374.879998 81.246044 
L 376.251581 81.770299 
L 377.623164 80.790142 
L 378.994747 85.389385 
L 380.36633 86.720359 
L 381.737913 84.70511 
L 383.109496 84.69462 
L 384.481079 82.529757 
L 385.852662 85.425526 
L 387.224245 96.991048 
L 388.595828 83.401289 
L 389.967411 89.705417 
L 391.338994 85.843699 
L 392.710577 84.748191 
L 394.08216 82.437473 
L 395.453743 82.277159 
L 396.825326 90.280189 
L 398.196909 78.138933 
L 399.568492 84.682024 
L 400.940075 80.744927 
L 402.311658 81.972748 
L 405.054824 78.839647 
L 406.426407 77.588963 
L 409.169573 84.117385 
L 410.541156 82.643003 
L 411.912739 82.35787 
L 413.284322 82.408316 
L 414.655905 81.635293 
L 416.027488 81.610755 
L 418.770654 87.717373 
L 420.142237 91.033853 
L 421.51382 86.03899 
L 422.885403 86.177922 
L 424.256986 85.705855 
L 425.628569 85.605116 
L 427.000152 87.946258 
L 428.371735 92.538207 
L 429.743318 89.188784 
L 431.114901 89.875752 
L 432.486484 89.280487 
L 433.858067 88.131555 
L 435.22965 88.299149 
L 436.601233 91.981923 
L 437.972816 94.821288 
L 439.344399 90.974026 
L 439.344399 90.974026 
" clip-path="url(#p15a3dbeff0)" style="fill: none; stroke: #bc80bd; stroke-opacity: 0.7; stroke-width: 3; stroke-linecap: square"/>
   </g>
   <g id="patch_3">
    <path d="M 439.344399 141.806833 
L 439.344399 70.7325 
" style="fill: none; stroke: #000000; stroke-width: 0.6; stroke-linejoin: miter; stroke-linecap: square"/>
   </g>
   <g id="patch_4">
    <path d="M 19.64 141.806833 
L 439.344399 141.806833 
" style="fill: none; stroke: #000000; stroke-width: 0.6; stroke-linejoin: miter; stroke-linecap: square"/>
   </g>
   <g id="text_3">
    <!-- log new cases -->
    <g style="fill: #323034" transform="translate(333.811274 64.7325) scale(0.19 -0.19)">
     <defs>
      <path id="STIXGeneral-Regular-6c" d="M 1645 0 
L 134 0 
L 134 96 
Q 435 122 531 221 
Q 627 320 627 589 
L 627 3590 
Q 627 3821 569 3910 
Q 512 4000 358 4000 
Q 224 4000 122 3987 
L 122 4090 
Q 730 4237 1133 4371 
L 1165 4346 
L 1165 557 
Q 1165 288 1254 201 
Q 1344 115 1645 96 
L 1645 0 
z
" transform="scale(0.015625)"/>
      <path id="STIXGeneral-Regular-6f" d="M 3008 1478 
Q 3008 806 2608 371 
Q 2208 -64 1568 -64 
Q 979 -64 582 368 
Q 186 800 186 1459 
Q 186 2125 582 2534 
Q 979 2944 1626 2944 
Q 2221 2944 2614 2537 
Q 3008 2131 3008 1478 
z
M 2432 1306 
Q 2432 2035 2112 2445 
Q 1856 2765 1504 2765 
Q 1171 2765 966 2493 
Q 762 2221 762 1747 
Q 762 928 1101 435 
Q 1318 115 1677 115 
Q 2029 115 2230 432 
Q 2432 749 2432 1306 
z
" transform="scale(0.015625)"/>
      <path id="STIXGeneral-Regular-67" d="M 3008 2483 
L 2477 2483 
Q 2598 2208 2598 1946 
Q 2598 1453 2265 1203 
Q 1933 954 1600 954 
Q 1530 954 1357 973 
L 1235 986 
Q 1107 947 979 812 
Q 851 678 851 582 
Q 851 435 1350 410 
L 2176 371 
Q 2528 358 2739 172 
Q 2950 -13 2950 -314 
Q 2950 -685 2566 -986 
Q 2035 -1395 1286 -1395 
Q 826 -1395 502 -1212 
Q 179 -1030 179 -774 
Q 179 -595 320 -419 
Q 461 -243 806 6 
Q 602 102 534 172 
Q 467 243 467 346 
Q 467 531 762 787 
Q 909 915 1037 1043 
Q 717 1203 579 1401 
Q 442 1600 442 1901 
Q 442 2336 752 2640 
Q 1062 2944 1510 2944 
Q 1766 2944 2022 2848 
L 2163 2797 
Q 2349 2733 2515 2733 
L 3008 2733 
L 3008 2483 
z
M 973 2163 
L 973 2144 
Q 973 1683 1155 1398 
Q 1338 1114 1632 1114 
Q 1850 1114 1978 1270 
Q 2106 1427 2106 1690 
Q 2106 2112 1914 2464 
Q 1754 2765 1446 2765 
Q 1222 2765 1097 2605 
Q 973 2445 973 2163 
z
M 2771 -410 
Q 2771 -230 2595 -163 
Q 2419 -96 1978 -96 
Q 1344 -96 941 -13 
Q 749 -243 688 -348 
Q 627 -454 627 -563 
Q 627 -774 880 -902 
Q 1133 -1030 1555 -1030 
Q 2099 -1030 2435 -860 
Q 2771 -691 2771 -410 
z
" transform="scale(0.015625)"/>
      <path id="STIXGeneral-Regular-20" transform="scale(0.015625)"/>
      <path id="STIXGeneral-Regular-6e" d="M 3104 0 
L 1773 0 
L 1779 96 
Q 2016 115 2096 233 
Q 2176 352 2176 672 
L 2176 1946 
Q 2176 2592 1709 2592 
Q 1549 2592 1408 2515 
Q 1267 2438 1050 2227 
L 1050 461 
Q 1050 269 1136 192 
Q 1222 115 1466 96 
L 1466 0 
L 115 0 
L 115 96 
Q 358 115 435 214 
Q 512 314 512 602 
L 512 2157 
Q 512 2394 467 2483 
Q 422 2573 288 2573 
Q 160 2573 102 2547 
L 102 2656 
Q 550 2784 979 2944 
L 1030 2925 
L 1030 2426 
L 1037 2426 
Q 1491 2944 1958 2944 
Q 2323 2944 2518 2688 
Q 2714 2432 2714 1958 
L 2714 544 
Q 2714 288 2790 205 
Q 2867 122 3104 96 
L 3104 0 
z
" transform="scale(0.015625)"/>
      <path id="STIXGeneral-Regular-65" d="M 2611 1050 
L 2714 1005 
Q 2330 -64 1376 -64 
Q 813 -64 486 329 
Q 160 723 160 1389 
Q 160 2074 525 2509 
Q 890 2944 1485 2944 
Q 2061 2944 2374 2502 
Q 2560 2246 2592 1773 
L 621 1773 
Q 646 1370 700 1158 
Q 755 947 915 730 
Q 1184 378 1626 378 
Q 1939 378 2153 531 
Q 2368 685 2611 1050 
z
M 634 1978 
L 1939 1978 
Q 1882 2381 1750 2547 
Q 1619 2714 1312 2714 
Q 1043 2714 864 2525 
Q 685 2336 634 1978 
z
" transform="scale(0.015625)"/>
      <path id="STIXGeneral-Regular-77" d="M 4442 2880 
L 4442 2784 
Q 4346 2752 4301 2691 
Q 4256 2630 4179 2438 
L 3296 224 
Q 3168 -90 3117 -90 
Q 3085 -90 3062 -48 
Q 3040 -6 2963 186 
L 2381 1696 
L 1664 160 
Q 1549 -90 1504 -90 
Q 1446 -90 1338 192 
L 474 2381 
Q 378 2630 314 2700 
Q 250 2771 134 2784 
L 134 2880 
L 1286 2880 
L 1286 2784 
Q 1120 2765 1056 2720 
Q 992 2675 992 2573 
Q 992 2477 1030 2381 
L 1664 710 
L 2246 1984 
L 2118 2342 
Q 2029 2598 1942 2681 
Q 1856 2765 1677 2784 
L 1677 2880 
L 2976 2880 
L 2976 2784 
Q 2752 2752 2678 2707 
Q 2605 2662 2605 2560 
Q 2605 2458 2714 2176 
L 3251 742 
L 3827 2163 
Q 3936 2432 3936 2592 
Q 3936 2669 3875 2710 
Q 3814 2752 3654 2784 
L 3654 2880 
L 4442 2880 
z
" transform="scale(0.015625)"/>
      <path id="STIXGeneral-Regular-63" d="M 2547 998 
L 2637 941 
Q 2362 403 2112 205 
Q 1786 -64 1376 -64 
Q 845 -64 502 336 
Q 160 736 160 1357 
Q 160 2170 698 2618 
Q 1094 2944 1562 2944 
Q 1965 2944 2256 2749 
Q 2547 2554 2547 2285 
Q 2547 2176 2457 2096 
Q 2368 2016 2246 2016 
Q 2022 2016 1939 2310 
L 1901 2451 
Q 1850 2630 1773 2694 
Q 1696 2758 1523 2758 
Q 1133 2758 893 2451 
Q 653 2144 653 1645 
Q 653 1094 928 745 
Q 1203 397 1645 397 
Q 1920 397 2118 528 
Q 2317 659 2547 998 
z
" transform="scale(0.015625)"/>
      <path id="STIXGeneral-Regular-61" d="M 2829 422 
L 2829 243 
Q 2586 -64 2253 -64 
Q 1888 -64 1843 403 
L 1837 403 
Q 1427 -64 909 -64 
Q 608 -64 422 112 
Q 237 288 237 602 
Q 237 1050 685 1350 
Q 992 1555 1837 1869 
L 1837 2214 
Q 1837 2502 1699 2646 
Q 1562 2790 1338 2790 
Q 1146 2790 1018 2697 
Q 890 2605 890 2477 
Q 890 2419 909 2348 
Q 928 2278 928 2208 
Q 928 2112 841 2029 
Q 755 1946 634 1946 
Q 525 1946 441 2029 
Q 358 2112 358 2240 
Q 358 2547 685 2752 
Q 986 2944 1421 2944 
Q 1939 2944 2176 2656 
Q 2291 2522 2323 2384 
Q 2355 2246 2355 1946 
L 2355 723 
Q 2355 301 2554 301 
Q 2682 301 2829 422 
z
M 1837 813 
L 1837 1715 
Q 1248 1510 1018 1293 
Q 800 1094 800 800 
Q 800 557 921 432 
Q 1043 307 1242 307 
Q 1453 307 1613 410 
Q 1747 506 1792 589 
Q 1837 672 1837 813 
z
" transform="scale(0.015625)"/>
      <path id="STIXGeneral-Regular-73" d="M 998 1926 
L 1664 1523 
Q 1984 1331 2105 1164 
Q 2227 998 2227 736 
Q 2227 416 1961 176 
Q 1696 -64 1331 -64 
Q 1030 -64 864 -6 
Q 691 51 570 51 
Q 461 51 416 -26 
L 333 -26 
L 333 979 
L 435 979 
Q 538 512 730 294 
Q 922 77 1248 77 
Q 1485 77 1632 211 
Q 1779 346 1779 550 
Q 1779 845 1440 1030 
L 1094 1222 
Q 326 1651 326 2150 
Q 326 2522 566 2730 
Q 806 2938 1210 2938 
Q 1491 2938 1638 2867 
Q 1754 2816 1818 2816 
Q 1862 2816 1920 2880 
L 1990 2880 
L 2022 2010 
L 1926 2010 
Q 1818 2445 1654 2621 
Q 1491 2797 1203 2797 
Q 986 2797 854 2688 
Q 723 2579 723 2362 
Q 723 2253 796 2128 
Q 870 2003 998 1926 
z
" transform="scale(0.015625)"/>
     </defs>
     <use xlink:href="#STIXGeneral-Regular-6c"/>
     <use xlink:href="#STIXGeneral-Regular-6f" x="27.799988"/>
     <use xlink:href="#STIXGeneral-Regular-67" x="77.799973"/>
     <use xlink:href="#STIXGeneral-Regular-20" x="127.799957"/>
     <use xlink:href="#STIXGeneral-Regular-6e" x="152.799942"/>
     <use xlink:href="#STIXGeneral-Regular-65" x="202.799927"/>
     <use xlink:href="#STIXGeneral-Regular-77" x="247.199921"/>
     <use xlink:href="#STIXGeneral-Regular-20" x="319.399902"/>
     <use xlink:href="#STIXGeneral-Regular-63" x="344.399887"/>
     <use xlink:href="#STIXGeneral-Regular-61" x="388.799881"/>
     <use xlink:href="#STIXGeneral-Regular-73" x="433.199875"/>
     <use xlink:href="#STIXGeneral-Regular-65" x="472.099869"/>
     <use xlink:href="#STIXGeneral-Regular-73" x="516.499863"/>
    </g>
   </g>
   <g id="legend_1">
    <g id="patch_5">
     <path d="M 28.04 108.3525 
L 101.635625 108.3525 
Q 104.035625 108.3525 104.035625 105.9525 
L 104.035625 79.1325 
Q 104.035625 76.7325 101.635625 76.7325 
L 28.04 76.7325 
Q 25.64 76.7325 25.64 79.1325 
L 25.64 105.9525 
Q 25.64 108.3525 28.04 108.3525 
z
" style="fill: #ffffff; opacity: 0.8; stroke: #e6e6e6; stroke-width: 0.8; stroke-linejoin: miter"/>
    </g>
    <g id="line2d_17">
     <path d="M 28.04 83.3325 
L 40.04 83.3325 
L 52.04 83.3325 
" style="fill: none; stroke-dasharray: 3.7,1.6; stroke-dashoffset: 0; stroke: #000000"/>
    </g>
    <g id="text_4">
     <!-- Trend -->
     <g style="fill: #323034" transform="translate(61.64 87.5325) scale(0.12 -0.12)">
      <defs>
       <path id="STIXGeneral-Regular-54" d="M 3795 3149 
L 3642 3149 
Q 3539 3674 3353 3821 
Q 3168 3968 2656 3968 
L 2278 3968 
L 2278 710 
Q 2278 346 2387 243 
Q 2496 141 2893 122 
L 2893 0 
L 1024 0 
L 1024 122 
Q 1427 147 1526 256 
Q 1626 365 1626 787 
L 1626 3968 
L 1242 3968 
Q 723 3968 540 3817 
Q 358 3667 262 3149 
L 109 3149 
L 154 4237 
L 3750 4237 
L 3795 3149 
z
" transform="scale(0.015625)"/>
       <path id="STIXGeneral-Regular-72" d="M 1024 2931 
L 1024 2342 
Q 1267 2688 1430 2816 
Q 1594 2944 1792 2944 
Q 1958 2944 2051 2854 
Q 2144 2765 2144 2605 
Q 2144 2470 2077 2393 
Q 2010 2317 1894 2317 
Q 1773 2317 1638 2445 
Q 1536 2541 1472 2541 
Q 1338 2541 1181 2355 
Q 1024 2170 1024 2016 
L 1024 576 
Q 1024 301 1133 205 
Q 1242 109 1568 96 
L 1568 0 
L 32 0 
L 32 96 
Q 339 154 412 224 
Q 486 294 486 538 
L 486 2138 
Q 486 2349 438 2435 
Q 390 2522 269 2522 
Q 166 2522 45 2496 
L 45 2598 
Q 448 2726 992 2944 
L 1024 2931 
z
" transform="scale(0.015625)"/>
       <path id="STIXGeneral-Regular-64" d="M 3142 269 
L 2202 -64 
L 2176 -45 
L 2176 365 
Q 1869 -64 1357 -64 
Q 826 -64 499 317 
Q 173 698 173 1312 
Q 173 1990 563 2467 
Q 954 2944 1504 2944 
Q 1850 2944 2176 2669 
L 2176 3667 
Q 2176 3866 2118 3930 
Q 2061 3994 1882 3994 
Q 1792 3994 1741 3987 
L 1741 4090 
Q 2323 4243 2682 4371 
L 2714 4358 
L 2714 730 
Q 2714 506 2768 435 
Q 2822 365 2995 365 
Q 3034 365 3142 371 
L 3142 269 
z
M 2176 653 
L 2176 2125 
Q 2176 2381 1981 2573 
Q 1786 2765 1523 2765 
Q 1158 2765 940 2438 
Q 723 2112 723 1568 
Q 723 979 963 624 
Q 1203 269 1606 269 
Q 1907 269 2080 474 
Q 2176 582 2176 653 
z
" transform="scale(0.015625)"/>
      </defs>
      <use xlink:href="#STIXGeneral-Regular-54"/>
      <use xlink:href="#STIXGeneral-Regular-72" x="61.099991"/>
      <use xlink:href="#STIXGeneral-Regular-65" x="94.399979"/>
      <use xlink:href="#STIXGeneral-Regular-6e" x="138.799973"/>
      <use xlink:href="#STIXGeneral-Regular-64" x="188.799957"/>
     </g>
    </g>
    <g id="line2d_18">
     <path d="M 28.04 99.136875 
L 40.04 99.136875 
L 52.04 99.136875 
" style="fill: none; stroke: #bc80bd; stroke-opacity: 0.7; stroke-width: 3; stroke-linecap: square"/>
    </g>
    <g id="text_5">
     <!-- Original -->
     <g style="fill: #323034" transform="translate(61.64 103.336875) scale(0.12 -0.12)">
      <defs>
       <path id="STIXGeneral-Regular-4f" d="M 4403 2118 
Q 4403 1133 3820 521 
Q 3238 -90 2310 -90 
Q 1376 -90 797 524 
Q 218 1139 218 2138 
Q 218 3110 797 3718 
Q 1376 4326 2310 4326 
Q 3245 4326 3824 3702 
Q 4403 3078 4403 2118 
z
M 3674 2157 
Q 3674 2701 3520 3133 
Q 3366 3565 3091 3795 
Q 2733 4096 2304 4096 
Q 1760 4096 1389 3667 
Q 1184 3437 1065 3011 
Q 947 2586 947 2125 
Q 947 960 1523 429 
Q 1837 141 2317 141 
Q 2816 141 3142 448 
Q 3674 960 3674 2157 
z
" transform="scale(0.015625)"/>
       <path id="STIXGeneral-Regular-69" d="M 1152 4045 
Q 1152 3904 1056 3811 
Q 960 3718 819 3718 
Q 685 3718 592 3811 
Q 499 3904 499 4045 
Q 499 4179 595 4275 
Q 691 4371 826 4371 
Q 966 4371 1059 4275 
Q 1152 4179 1152 4045 
z
M 1619 0 
L 102 0 
L 102 96 
Q 435 115 521 211 
Q 608 307 608 666 
L 608 2118 
Q 608 2342 563 2432 
Q 518 2522 397 2522 
Q 243 2522 128 2490 
L 128 2592 
L 1120 2944 
L 1146 2918 
L 1146 672 
Q 1146 314 1226 218 
Q 1306 122 1619 96 
L 1619 0 
z
" transform="scale(0.015625)"/>
      </defs>
      <use xlink:href="#STIXGeneral-Regular-4f"/>
      <use xlink:href="#STIXGeneral-Regular-72" x="72.199982"/>
      <use xlink:href="#STIXGeneral-Regular-69" x="105.499969"/>
      <use xlink:href="#STIXGeneral-Regular-67" x="133.299957"/>
      <use xlink:href="#STIXGeneral-Regular-69" x="183.299942"/>
      <use xlink:href="#STIXGeneral-Regular-6e" x="211.09993"/>
      <use xlink:href="#STIXGeneral-Regular-61" x="261.099915"/>
      <use xlink:href="#STIXGeneral-Regular-6c" x="305.499908"/>
     </g>
    </g>
   </g>
  </g>
  <g id="axes_2">
   <g id="patch_6">
    <path d="M 19.64 229.341167 
L 439.344399 229.341167 
L 439.344399 158.266833 
L 19.64 158.266833 
z
" style="fill: #ffffff"/>
   </g>
   <g id="matplotlib.axis_3">
    <g id="xtick_12">
     <g id="line2d_19">
      <g>
       <use xlink:href="#mb16a8ea460" x="19.64" y="229.341167" style="fill: #323034; stroke: #323034; stroke-width: 0.8"/>
      </g>
     </g>
    </g>
    <g id="xtick_13">
     <g id="line2d_20">
      <g>
       <use xlink:href="#mb16a8ea460" x="60.78749" y="229.341167" style="fill: #323034; stroke: #323034; stroke-width: 0.8"/>
      </g>
     </g>
    </g>
    <g id="xtick_14">
     <g id="line2d_21">
      <g>
       <use xlink:href="#mb16a8ea460" x="103.306563" y="229.341167" style="fill: #323034; stroke: #323034; stroke-width: 0.8"/>
      </g>
     </g>
    </g>
    <g id="xtick_15">
     <g id="line2d_22">
      <g>
       <use xlink:href="#mb16a8ea460" x="144.454053" y="229.341167" style="fill: #323034; stroke: #323034; stroke-width: 0.8"/>
      </g>
     </g>
    </g>
    <g id="xtick_16">
     <g id="line2d_23">
      <g>
       <use xlink:href="#mb16a8ea460" x="186.973127" y="229.341167" style="fill: #323034; stroke: #323034; stroke-width: 0.8"/>
      </g>
     </g>
    </g>
    <g id="xtick_17">
     <g id="line2d_24">
      <g>
       <use xlink:href="#mb16a8ea460" x="229.4922" y="229.341167" style="fill: #323034; stroke: #323034; stroke-width: 0.8"/>
      </g>
     </g>
    </g>
    <g id="xtick_18">
     <g id="line2d_25">
      <g>
       <use xlink:href="#mb16a8ea460" x="270.63969" y="229.341167" style="fill: #323034; stroke: #323034; stroke-width: 0.8"/>
      </g>
     </g>
    </g>
    <g id="xtick_19">
     <g id="line2d_26">
      <g>
       <use xlink:href="#mb16a8ea460" x="313.158763" y="229.341167" style="fill: #323034; stroke: #323034; stroke-width: 0.8"/>
      </g>
     </g>
    </g>
    <g id="xtick_20">
     <g id="line2d_27">
      <g>
       <use xlink:href="#mb16a8ea460" x="354.306253" y="229.341167" style="fill: #323034; stroke: #323034; stroke-width: 0.8"/>
      </g>
     </g>
    </g>
    <g id="xtick_21">
     <g id="line2d_28">
      <g>
       <use xlink:href="#mb16a8ea460" x="396.825326" y="229.341167" style="fill: #323034; stroke: #323034; stroke-width: 0.8"/>
      </g>
     </g>
    </g>
    <g id="xtick_22">
     <g id="line2d_29">
      <g>
       <use xlink:href="#mb16a8ea460" x="439.344399" y="229.341167" style="fill: #323034; stroke: #323034; stroke-width: 0.8"/>
      </g>
     </g>
    </g>
   </g>
   <g id="matplotlib.axis_4">
    <g id="ytick_4">
     <g id="line2d_30">
      <g>
       <use xlink:href="#mc8b2930d70" x="439.344399" y="211.572583" style="fill: #323034; stroke: #323034; stroke-width: 0.8"/>
      </g>
     </g>
     <g id="text_6">
      <!-- $\mathdefault{−0.25}$ -->
      <g style="fill: #323034" transform="translate(446.344399 217.036333) scale(0.16 -0.16)">
       <defs>
        <path id="STIXGeneral-Regular-2212" d="M 3974 1408 
L 410 1408 
L 410 1830 
L 3974 1830 
L 3974 1408 
z
" transform="scale(0.015625)"/>
       </defs>
       <use xlink:href="#STIXGeneral-Regular-2212" transform="translate(0 0.203125)"/>
       <use xlink:href="#STIXGeneral-Regular-30" transform="translate(68.499985 0.203125)"/>
       <use xlink:href="#STIXGeneral-Regular-2e" transform="translate(118.499969 0.203125)"/>
       <use xlink:href="#STIXGeneral-Regular-32" transform="translate(143.499954 0.203125)"/>
       <use xlink:href="#STIXGeneral-Regular-35" transform="translate(193.499939 0.203125)"/>
      </g>
     </g>
    </g>
    <g id="ytick_5">
     <g id="line2d_31">
      <g>
       <use xlink:href="#mc8b2930d70" x="439.344399" y="181.958278" style="fill: #323034; stroke: #323034; stroke-width: 0.8"/>
      </g>
     </g>
     <g id="text_7">
      <!-- $\mathdefault{0.00}$ -->
      <g style="fill: #323034" transform="translate(446.344399 187.422028) scale(0.16 -0.16)">
       <use xlink:href="#STIXGeneral-Regular-30" transform="translate(0 0.40625)"/>
       <use xlink:href="#STIXGeneral-Regular-2e" transform="translate(49.999985 0.40625)"/>
       <use xlink:href="#STIXGeneral-Regular-30" transform="translate(74.999969 0.40625)"/>
       <use xlink:href="#STIXGeneral-Regular-30" transform="translate(124.999954 0.40625)"/>
      </g>
     </g>
    </g>
    <g id="ytick_6">
     <g id="line2d_32">
      <g>
       <use xlink:href="#m098b18d572" x="439.344399" y="226.379736" style="fill: #323034; stroke: #323034; stroke-width: 0.6"/>
      </g>
     </g>
    </g>
    <g id="ytick_7">
     <g id="line2d_33">
      <g>
       <use xlink:href="#m098b18d572" x="439.344399" y="196.765431" style="fill: #323034; stroke: #323034; stroke-width: 0.6"/>
      </g>
     </g>
    </g>
    <g id="ytick_8">
     <g id="line2d_34">
      <g>
       <use xlink:href="#m098b18d572" x="439.344399" y="167.151125" style="fill: #323034; stroke: #323034; stroke-width: 0.6"/>
      </g>
     </g>
    </g>
   </g>
   <g id="line2d_35">
    <path d="M 19.64 182.564387 
L 21.011583 170.429915 
L 22.383166 166.728525 
L 23.754749 174.516142 
L 25.126332 196.921724 
L 26.497915 193.885156 
L 27.869498 188.731981 
L 29.241081 182.521033 
L 30.612664 170.354603 
L 31.984247 166.600401 
L 33.35583 174.874611 
L 34.727413 196.536937 
L 36.098996 194.176837 
L 37.470579 188.720552 
L 38.842162 182.488196 
L 40.213745 170.343902 
L 41.585328 166.359537 
L 42.956911 175.217364 
L 44.328494 196.282421 
L 45.700077 194.388771 
L 48.443243 182.611077 
L 49.814826 170.316589 
L 51.186409 166.111124 
L 52.557992 175.440088 
L 53.929575 196.031432 
L 55.301158 194.841798 
L 56.672741 188.246254 
L 58.044324 182.755048 
L 59.415907 170.294102 
L 60.78749 165.905658 
L 62.159073 175.779891 
L 63.530656 195.874736 
L 64.902239 195.086055 
L 66.273822 187.851932 
L 67.645405 182.897198 
L 69.016988 170.208064 
L 70.388571 165.87453 
L 71.760154 175.97412 
L 73.131737 196.019974 
L 74.50332 195.070293 
L 75.874903 187.489161 
L 77.246486 182.971719 
L 78.618069 170.266862 
L 79.989652 165.78524 
L 81.361235 176.187125 
L 82.732818 196.323924 
L 84.104401 194.633703 
L 85.475984 187.476722 
L 86.847567 182.748869 
L 88.21915 170.592025 
L 89.590733 165.631112 
L 90.962316 176.443698 
L 92.333899 196.399988 
L 93.705482 194.491479 
L 95.077065 187.257947 
L 96.448648 182.588887 
L 97.820231 171.083561 
L 99.191814 165.286027 
L 100.563397 176.651183 
L 101.93498 196.644104 
L 103.306563 194.362154 
L 104.678146 187.010145 
L 106.049729 182.255735 
L 107.421312 171.641062 
L 108.792895 164.92789 
L 110.164478 176.864022 
L 111.536061 196.890062 
L 112.907644 194.433971 
L 114.279227 186.715813 
L 115.65081 181.832341 
L 117.022393 171.884272 
L 118.393976 165.057681 
L 119.765559 176.918483 
L 121.137142 197.167744 
L 122.508725 194.496708 
L 123.880308 186.180221 
L 125.251891 181.70765 
L 126.623474 171.993723 
L 127.995057 165.11719 
L 129.36664 177.24756 
L 130.738223 197.269729 
L 132.109806 194.414058 
L 133.481389 185.847778 
L 134.852972 181.568312 
L 136.224555 172.069673 
L 137.596138 165.043001 
L 138.967721 177.796782 
L 140.339304 197.181367 
L 141.710887 194.399309 
L 143.08247 185.580676 
L 144.454053 181.414184 
L 145.825636 172.124254 
L 147.197219 164.975313 
L 148.568802 178.261775 
L 149.940385 197.246551 
L 151.311968 194.179369 
L 152.683551 185.483096 
L 154.055134 181.216172 
L 155.426717 172.254658 
L 156.7983 164.892121 
L 158.169883 178.632565 
L 159.541466 197.338333 
L 160.913049 193.918812 
L 162.284632 185.38732 
L 163.656215 181.185196 
L 165.027798 172.203911 
L 166.399381 164.89822 
L 167.770964 178.856713 
L 169.142548 197.524868 
L 170.514131 193.710245 
L 171.885714 185.268518 
L 173.257297 181.122463 
L 174.62888 172.351529 
L 176.000463 164.746993 
L 177.372046 178.862071 
L 178.743629 198.00736 
L 180.115212 193.385376 
L 181.486795 185.125787 
L 182.858378 181.191097 
L 184.229961 172.42444 
L 185.601544 164.543805 
L 186.973127 178.957525 
L 188.34471 198.362092 
L 189.716293 193.129404 
L 191.087876 184.942753 
L 192.459459 181.343578 
L 195.202625 164.352409 
L 196.574208 178.888531 
L 197.945791 198.933822 
L 199.317374 192.661001 
L 200.688957 184.865308 
L 202.06054 181.470483 
L 204.803706 164.123837 
L 206.175289 178.795485 
L 207.546872 199.660932 
L 210.290038 184.875978 
L 211.661621 181.683029 
L 214.404787 163.970858 
L 215.77637 178.668267 
L 217.147953 200.614186 
L 218.519536 191.012398 
L 219.891119 185.03932 
L 221.262702 181.867851 
L 224.005868 163.755688 
L 225.377451 178.788019 
L 226.749034 201.189995 
L 228.120617 190.313476 
L 229.4922 184.940558 
L 230.863783 182.288802 
L 233.606949 163.350465 
L 234.978532 179.147829 
L 236.350115 201.638294 
L 237.721698 189.418159 
L 239.093281 185.461934 
L 240.464864 181.911998 
L 243.20803 163.096078 
L 244.579613 179.610737 
L 245.951196 202.258847 
L 247.322779 188.02331 
L 248.694362 185.986482 
L 250.065945 181.616555 
L 251.437528 172.976691 
L 252.809111 163.105914 
L 254.180694 179.959 
L 255.552277 202.947489 
L 256.92386 186.544927 
L 258.295443 186.615357 
L 259.667026 181.180045 
L 261.038609 173.24605 
L 262.410192 163.121885 
L 263.781775 180.213718 
L 265.153358 203.34105 
L 266.524941 185.932225 
L 267.896524 186.655591 
L 269.268107 180.798263 
L 270.63969 173.402018 
L 272.011273 163.407994 
L 273.382856 180.256793 
L 274.754439 204.008268 
L 276.126022 184.916253 
L 277.497605 187.030037 
L 280.240771 173.530881 
L 281.612354 163.737888 
L 282.983937 180.481507 
L 284.35552 203.983447 
L 285.727103 184.920031 
L 287.098686 186.725816 
L 288.470269 179.913033 
L 289.841852 173.71569 
L 291.213435 164.006231 
L 292.585018 180.645143 
L 293.956601 204.153826 
L 295.328184 184.619999 
L 296.699767 186.556908 
L 298.07135 179.573441 
L 299.442933 173.95702 
L 300.814516 164.463852 
L 302.186099 180.480895 
L 303.557682 204.26577 
L 304.929265 184.596325 
L 306.300848 186.310178 
L 307.672431 179.089934 
L 309.044014 174.281045 
L 310.415597 164.912735 
L 311.78718 180.483967 
L 313.158763 204.205574 
L 314.530346 184.634365 
L 315.901929 186.033487 
L 317.273512 178.57381 
L 318.645095 174.66536 
L 320.016678 165.439477 
L 321.388261 180.341722 
L 322.759844 204.151839 
L 324.131427 184.776716 
L 325.50301 185.628783 
L 326.874593 178.073283 
L 328.246176 175.142813 
L 329.617759 165.886269 
L 330.989342 180.289558 
L 332.360925 204.00818 
L 333.732508 184.907849 
L 335.104091 185.372846 
L 336.475674 177.370338 
L 337.847257 175.726637 
L 339.21884 166.374761 
L 340.590423 180.16781 
L 341.962006 203.845738 
L 343.333589 185.130181 
L 344.705172 185.081715 
L 346.076755 176.563663 
L 347.448338 176.425661 
L 348.819921 166.870864 
L 350.191504 180.004683 
L 351.563087 203.568774 
L 352.93467 185.478873 
L 354.306253 184.85408 
L 355.677836 176.431 
L 357.049419 175.583388 
L 358.421002 168.442327 
L 359.792585 179.468145 
L 361.164168 203.346635 
L 362.535751 185.787532 
L 363.907334 184.723191 
L 365.278917 176.22514 
L 366.6505 174.833489 
L 368.022083 170.043677 
L 369.393666 178.866614 
L 370.765249 203.116359 
L 372.136832 186.04274 
L 373.508415 184.765139 
L 374.879998 175.899988 
L 376.251581 173.867824 
L 377.623164 172.168456 
L 378.994747 177.850901 
L 380.36633 203.071279 
L 381.737913 186.217922 
L 383.109496 184.656392 
L 384.481079 175.779686 
L 385.852662 172.782476 
L 388.595828 176.372698 
L 389.967411 203.245578 
L 391.338994 186.37219 
L 392.710577 184.471814 
L 394.08216 175.97556 
L 395.453743 172.297425 
L 396.825326 175.220938 
L 398.196909 176.103703 
L 399.568492 203.160907 
L 400.940075 186.571787 
L 402.311658 184.275155 
L 403.683241 176.28076 
L 405.054824 172.348011 
L 406.426407 174.347509 
L 407.79799 176.92879 
L 409.169573 202.778638 
L 410.541156 186.988659 
L 411.912739 183.929908 
L 413.284322 176.524417 
L 414.655905 172.349831 
L 416.027488 173.784553 
L 417.399071 177.502523 
L 418.770654 202.491877 
L 420.142237 187.345248 
L 421.51382 183.652563 
L 422.885403 176.666729 
L 424.256986 172.341738 
L 425.628569 173.421791 
L 427.000152 177.842035 
L 428.371735 202.672417 
L 429.743318 186.95993 
L 431.114901 183.796206 
L 432.486484 176.736277 
L 433.858067 172.302809 
L 435.22965 173.204725 
L 436.601233 178.122912 
L 437.972816 202.716327 
L 439.344399 186.73585 
L 439.344399 186.73585 
" clip-path="url(#p4c0764356e)" style="fill: none; stroke: #0000ff; stroke-opacity: 0.3; stroke-width: 3; stroke-linecap: square"/>
   </g>
   <g id="patch_7">
    <path d="M 439.344399 229.341167 
L 439.344399 158.266833 
" style="fill: none; stroke: #000000; stroke-width: 0.6; stroke-linejoin: miter; stroke-linecap: square"/>
   </g>
   <g id="patch_8">
    <path d="M 19.64 229.341167 
L 439.344399 229.341167 
" style="fill: none; stroke: #000000; stroke-width: 0.6; stroke-linejoin: miter; stroke-linecap: square"/>
   </g>
   <g id="legend_2">
    <g id="patch_9">
     <path d="M 28.04 223.341167 
L 104.301875 223.341167 
Q 106.701875 223.341167 106.701875 220.941167 
L 106.701875 209.936792 
Q 106.701875 207.536792 104.301875 207.536792 
L 28.04 207.536792 
Q 25.64 207.536792 25.64 209.936792 
L 25.64 220.941167 
Q 25.64 223.341167 28.04 223.341167 
z
" style="fill: #ffffff; opacity: 0.8; stroke: #e6e6e6; stroke-width: 0.8; stroke-linejoin: miter"/>
    </g>
    <g id="line2d_36">
     <path d="M 28.04 214.136792 
L 40.04 214.136792 
L 52.04 214.136792 
" style="fill: none; stroke: #0000ff; stroke-opacity: 0.3; stroke-width: 3; stroke-linecap: square"/>
    </g>
    <g id="text_8">
     <!-- Seasonal -->
     <g style="fill: #323034" transform="translate(61.64 218.336792) scale(0.12 -0.12)">
      <defs>
       <path id="STIXGeneral-Regular-53" d="M 3002 2963 
L 2842 2963 
Q 2733 3360 2579 3565 
Q 2189 4064 1651 4064 
Q 1357 4064 1181 3894 
Q 1005 3725 1005 3456 
Q 1005 3328 1069 3206 
Q 1133 3085 1206 2998 
Q 1280 2912 1465 2784 
Q 1651 2656 1766 2589 
Q 1882 2522 2150 2362 
Q 2669 2061 2905 1763 
Q 3142 1466 3142 1107 
Q 3142 576 2771 243 
Q 2400 -90 1837 -90 
Q 1421 -90 1082 58 
Q 915 128 781 128 
Q 704 128 653 70 
Q 602 13 602 -83 
L 461 -83 
L 275 1274 
L 416 1274 
Q 845 141 1734 141 
Q 2074 141 2285 342 
Q 2496 544 2496 858 
Q 2496 1158 2310 1363 
Q 2003 1696 1235 2106 
Q 454 2522 454 3206 
Q 454 3718 768 4022 
Q 1082 4326 1568 4326 
Q 1907 4326 2240 4186 
Q 2413 4109 2522 4109 
Q 2688 4109 2726 4326 
L 2861 4326 
L 3002 2963 
z
" transform="scale(0.015625)"/>
      </defs>
      <use xlink:href="#STIXGeneral-Regular-53"/>
      <use xlink:href="#STIXGeneral-Regular-65" x="55.599991"/>
      <use xlink:href="#STIXGeneral-Regular-61" x="99.999985"/>
      <use xlink:href="#STIXGeneral-Regular-73" x="144.399979"/>
      <use xlink:href="#STIXGeneral-Regular-6f" x="183.299973"/>
      <use xlink:href="#STIXGeneral-Regular-6e" x="233.299957"/>
      <use xlink:href="#STIXGeneral-Regular-61" x="283.299942"/>
      <use xlink:href="#STIXGeneral-Regular-6c" x="327.699936"/>
     </g>
    </g>
   </g>
  </g>
  <g id="axes_3">
   <g id="patch_10">
    <path d="M 19.64 316.8755 
L 439.344399 316.8755 
L 439.344399 245.801167 
L 19.64 245.801167 
z
" style="fill: #ffffff"/>
   </g>
   <g id="matplotlib.axis_5">
    <g id="xtick_23">
     <g id="line2d_37">
      <g>
       <use xlink:href="#mb16a8ea460" x="19.64" y="316.8755" style="fill: #323034; stroke: #323034; stroke-width: 0.8"/>
      </g>
     </g>
     <g id="text_9">
      <!-- Apr -->
      <g style="fill: #323034" transform="translate(7.2 334.803) scale(0.16 -0.16)">
       <defs>
        <path id="STIXGeneral-Regular-41" d="M 4525 0 
L 2893 0 
L 2893 122 
Q 3149 122 3245 179 
Q 3334 224 3334 333 
Q 3334 499 3213 781 
L 2950 1382 
L 1274 1382 
L 979 653 
Q 922 506 922 384 
Q 922 237 1027 179 
Q 1133 122 1370 122 
L 1370 0 
L 96 0 
L 96 122 
Q 365 147 486 316 
Q 608 486 902 1190 
L 2221 4314 
L 2349 4314 
L 3923 710 
Q 4064 378 4176 262 
Q 4288 147 4525 122 
L 4525 0 
z
M 2861 1645 
L 2118 3405 
L 1382 1645 
L 2861 1645 
z
" transform="scale(0.015625)"/>
        <path id="STIXGeneral-Regular-70" d="M 1018 2931 
L 1018 2438 
Q 1421 2944 1939 2944 
Q 2406 2944 2707 2560 
Q 3008 2176 3008 1581 
Q 3008 883 2621 409 
Q 2234 -64 1664 -64 
Q 1466 -64 1328 -6 
Q 1190 51 1018 211 
L 1018 -794 
Q 1018 -1094 1120 -1180 
Q 1222 -1267 1581 -1274 
L 1581 -1389 
L 32 -1389 
L 32 -1280 
Q 314 -1254 397 -1171 
Q 480 -1088 480 -838 
L 480 2157 
Q 480 2381 429 2451 
Q 378 2522 218 2522 
Q 115 2522 58 2515 
L 58 2618 
Q 506 2752 979 2944 
L 1018 2931 
z
M 1018 2138 
L 1018 563 
Q 1018 422 1238 281 
Q 1459 141 1683 141 
Q 2029 141 2243 467 
Q 2458 794 2458 1325 
Q 2458 1888 2243 2224 
Q 2029 2560 1670 2560 
Q 1446 2560 1232 2419 
Q 1018 2278 1018 2138 
z
" transform="scale(0.015625)"/>
       </defs>
       <use xlink:href="#STIXGeneral-Regular-41"/>
       <use xlink:href="#STIXGeneral-Regular-70" x="72.199982"/>
       <use xlink:href="#STIXGeneral-Regular-72" x="122.199966"/>
      </g>
     </g>
    </g>
    <g id="xtick_24">
     <g id="line2d_38">
      <g>
       <use xlink:href="#mb16a8ea460" x="60.78749" y="316.8755" style="fill: #323034; stroke: #323034; stroke-width: 0.8"/>
      </g>
     </g>
     <g id="text_10">
      <!-- May -->
      <g style="fill: #323034" transform="translate(46.12249 334.788) scale(0.16 -0.16)">
       <defs>
        <path id="STIXGeneral-Regular-4d" d="M 5530 0 
L 3738 0 
L 3738 122 
Q 4115 147 4214 265 
Q 4314 384 4314 787 
L 4314 3661 
L 2682 0 
L 2592 0 
L 979 3514 
L 979 966 
Q 979 448 1088 294 
Q 1197 141 1574 122 
L 1574 0 
L 77 0 
L 77 122 
Q 358 141 480 205 
Q 602 269 650 432 
Q 698 595 698 966 
L 698 3514 
Q 698 3878 589 3984 
Q 480 4090 90 4115 
L 90 4237 
L 1357 4237 
L 2835 1024 
L 4250 4237 
L 5523 4237 
L 5523 4115 
Q 5178 4109 5072 3993 
Q 4966 3878 4966 3520 
L 4966 717 
Q 4966 378 5072 262 
Q 5178 147 5530 122 
L 5530 0 
z
" transform="scale(0.015625)"/>
        <path id="STIXGeneral-Regular-79" d="M 3040 2880 
L 3040 2784 
Q 2925 2771 2854 2700 
Q 2784 2630 2720 2458 
L 1760 -160 
Q 1510 -838 1257 -1116 
Q 1005 -1395 640 -1395 
Q 435 -1395 313 -1289 
Q 192 -1184 192 -1024 
Q 192 -902 272 -816 
Q 352 -730 467 -730 
Q 653 -730 800 -813 
Q 883 -858 966 -858 
Q 1101 -858 1286 -576 
Q 1376 -448 1459 -211 
Q 1542 26 1542 115 
Q 1542 198 1274 762 
L 429 2566 
Q 346 2752 90 2790 
L 90 2880 
L 1402 2880 
L 1402 2784 
Q 1197 2778 1117 2739 
Q 1037 2701 1037 2611 
Q 1037 2541 1120 2349 
L 1837 749 
L 2458 2515 
Q 2483 2573 2483 2630 
Q 2483 2784 2189 2784 
L 2189 2880 
L 3040 2880 
z
" transform="scale(0.015625)"/>
       </defs>
       <use xlink:href="#STIXGeneral-Regular-4d"/>
       <use xlink:href="#STIXGeneral-Regular-61" x="88.899994"/>
       <use xlink:href="#STIXGeneral-Regular-79" x="133.299988"/>
      </g>
     </g>
    </g>
    <g id="xtick_25">
     <g id="line2d_39">
      <g>
       <use xlink:href="#mb16a8ea460" x="103.306563" y="316.8755" style="fill: #323034; stroke: #323034; stroke-width: 0.8"/>
      </g>
     </g>
     <g id="text_11">
      <!-- Jun -->
      <g style="fill: #323034" transform="translate(92.322813 334.803) scale(0.16 -0.16)">
       <defs>
        <path id="STIXGeneral-Regular-4a" d="M 2266 4237 
L 2266 4115 
Q 1875 4083 1776 3984 
Q 1677 3885 1677 3514 
L 1677 1184 
Q 1677 -90 608 -90 
Q 314 -90 138 32 
Q -38 154 -38 371 
Q -38 499 54 601 
Q 147 704 275 704 
Q 486 704 589 435 
Q 602 403 621 348 
Q 640 294 649 265 
Q 659 237 678 208 
Q 698 179 723 166 
Q 749 154 787 154 
Q 928 154 976 253 
Q 1024 352 1024 602 
L 1024 3520 
Q 1024 3898 928 3990 
Q 832 4083 429 4115 
L 429 4237 
L 2266 4237 
z
" transform="scale(0.015625)"/>
        <path id="STIXGeneral-Regular-75" d="M 3072 320 
L 3072 230 
Q 2573 96 2195 -58 
L 2163 -38 
L 2163 486 
L 2150 486 
Q 1747 -64 1235 -64 
Q 870 -64 662 160 
Q 454 384 454 755 
L 454 2362 
Q 454 2598 371 2688 
Q 288 2778 58 2790 
L 58 2880 
L 992 2880 
L 992 813 
Q 992 595 1123 451 
Q 1254 307 1446 307 
Q 1760 307 1984 506 
Q 2067 582 2099 649 
Q 2131 717 2131 877 
L 2131 2355 
Q 2131 2605 2041 2678 
Q 1952 2752 1658 2771 
L 1658 2880 
L 2669 2880 
L 2669 685 
Q 2669 461 2742 390 
Q 2816 320 3034 320 
L 3072 320 
z
" transform="scale(0.015625)"/>
       </defs>
       <use xlink:href="#STIXGeneral-Regular-4a"/>
       <use xlink:href="#STIXGeneral-Regular-75" x="37.299988"/>
       <use xlink:href="#STIXGeneral-Regular-6e" x="87.299973"/>
      </g>
     </g>
    </g>
    <g id="xtick_26">
     <g id="line2d_40">
      <g>
       <use xlink:href="#mb16a8ea460" x="144.454053" y="316.8755" style="fill: #323034; stroke: #323034; stroke-width: 0.8"/>
      </g>
     </g>
     <g id="text_12">
      <!-- Jul -->
      <g style="fill: #323034" transform="translate(135.246553 334.803) scale(0.16 -0.16)">
       <use xlink:href="#STIXGeneral-Regular-4a"/>
       <use xlink:href="#STIXGeneral-Regular-75" x="37.299988"/>
       <use xlink:href="#STIXGeneral-Regular-6c" x="87.299973"/>
      </g>
     </g>
    </g>
    <g id="xtick_27">
     <g id="line2d_41">
      <g>
       <use xlink:href="#mb16a8ea460" x="186.973127" y="316.8755" style="fill: #323034; stroke: #323034; stroke-width: 0.8"/>
      </g>
     </g>
     <g id="text_13">
      <!-- Aug -->
      <g style="fill: #323034" transform="translate(173.196877 334.788) scale(0.16 -0.16)">
       <use xlink:href="#STIXGeneral-Regular-41"/>
       <use xlink:href="#STIXGeneral-Regular-75" x="72.199982"/>
       <use xlink:href="#STIXGeneral-Regular-67" x="122.199966"/>
      </g>
     </g>
    </g>
    <g id="xtick_28">
     <g id="line2d_42">
      <g>
       <use xlink:href="#mb16a8ea460" x="229.4922" y="316.8755" style="fill: #323034; stroke: #323034; stroke-width: 0.8"/>
      </g>
     </g>
     <g id="text_14">
      <!-- Sep -->
      <g style="fill: #323034" transform="translate(217.4922 334.803) scale(0.16 -0.16)">
       <use xlink:href="#STIXGeneral-Regular-53"/>
       <use xlink:href="#STIXGeneral-Regular-65" x="55.599991"/>
       <use xlink:href="#STIXGeneral-Regular-70" x="99.999985"/>
      </g>
     </g>
    </g>
    <g id="xtick_29">
     <g id="line2d_43">
      <g>
       <use xlink:href="#mb16a8ea460" x="270.63969" y="316.8755" style="fill: #323034; stroke: #323034; stroke-width: 0.8"/>
      </g>
     </g>
     <g id="text_15">
      <!-- Oct -->
      <g style="fill: #323034" transform="translate(259.08719 334.803) scale(0.16 -0.16)">
       <defs>
        <path id="STIXGeneral-Regular-74" d="M 1702 493 
L 1786 422 
Q 1478 -64 1011 -64 
Q 448 -64 448 749 
L 448 2675 
L 109 2675 
Q 83 2694 83 2720 
Q 83 2771 192 2842 
Q 435 2982 813 3526 
Q 826 3546 874 3606 
Q 922 3667 941 3706 
Q 986 3706 986 3622 
L 986 2880 
L 1632 2880 
L 1632 2675 
L 986 2675 
L 986 845 
Q 986 538 1062 403 
Q 1139 269 1318 269 
Q 1510 269 1702 493 
z
" transform="scale(0.015625)"/>
       </defs>
       <use xlink:href="#STIXGeneral-Regular-4f"/>
       <use xlink:href="#STIXGeneral-Regular-63" x="72.199982"/>
       <use xlink:href="#STIXGeneral-Regular-74" x="116.599976"/>
      </g>
     </g>
    </g>
    <g id="xtick_30">
     <g id="line2d_44">
      <g>
       <use xlink:href="#mb16a8ea460" x="313.158763" y="316.8755" style="fill: #323034; stroke: #323034; stroke-width: 0.8"/>
      </g>
     </g>
     <g id="text_16">
      <!-- Nov -->
      <g style="fill: #323034" transform="translate(299.382513 334.803) scale(0.16 -0.16)">
       <defs>
        <path id="STIXGeneral-Regular-4e" d="M 4525 4237 
L 4525 4115 
Q 4198 4083 4102 4000 
Q 4000 3910 3958 3756 
Q 3917 3603 3917 3245 
L 3917 -70 
L 3802 -70 
L 979 3443 
L 979 960 
Q 979 474 1088 323 
Q 1197 173 1574 122 
L 1574 0 
L 77 0 
L 77 122 
Q 474 166 586 310 
Q 698 454 698 960 
L 698 3776 
Q 531 3981 416 4048 
Q 301 4115 77 4115 
L 77 4237 
L 1165 4237 
L 3635 1146 
L 3635 3322 
Q 3635 3808 3514 3949 
Q 3437 4032 3344 4061 
Q 3251 4090 3008 4115 
L 3008 4237 
L 4525 4237 
z
" transform="scale(0.015625)"/>
        <path id="STIXGeneral-Regular-76" d="M 3053 2880 
L 3053 2784 
Q 2906 2771 2835 2688 
Q 2765 2605 2637 2285 
L 1818 230 
Q 1690 -90 1638 -90 
Q 1587 -90 1523 77 
Q 1510 96 1497 141 
Q 1485 186 1472 211 
L 704 2048 
Q 499 2534 403 2652 
Q 307 2771 122 2784 
L 122 2880 
L 1376 2880 
L 1376 2784 
Q 1210 2771 1146 2732 
Q 1082 2694 1082 2611 
Q 1082 2509 1139 2368 
L 1792 730 
L 2426 2387 
Q 2464 2483 2464 2579 
Q 2464 2758 2163 2784 
L 2163 2880 
L 3053 2880 
z
" transform="scale(0.015625)"/>
       </defs>
       <use xlink:href="#STIXGeneral-Regular-4e"/>
       <use xlink:href="#STIXGeneral-Regular-6f" x="72.199982"/>
       <use xlink:href="#STIXGeneral-Regular-76" x="122.199966"/>
      </g>
     </g>
    </g>
    <g id="xtick_31">
     <g id="line2d_45">
      <g>
       <use xlink:href="#mb16a8ea460" x="354.306253" y="316.8755" style="fill: #323034; stroke: #323034; stroke-width: 0.8"/>
      </g>
     </g>
     <g id="text_17">
      <!-- Dec -->
      <g style="fill: #323034" transform="translate(341.425003 334.803) scale(0.16 -0.16)">
       <defs>
        <path id="STIXGeneral-Regular-44" d="M 102 4237 
L 1830 4237 
Q 3078 4237 3750 3654 
Q 4384 3110 4384 2138 
Q 4384 966 3514 410 
Q 2880 0 1901 0 
L 102 0 
L 102 122 
Q 474 147 570 252 
Q 666 358 666 736 
L 666 3520 
Q 666 3891 570 3990 
Q 474 4090 102 4115 
L 102 4237 
z
M 1318 3731 
L 1318 538 
Q 1318 365 1379 301 
Q 1440 237 1626 237 
Q 2125 237 2432 307 
Q 2739 378 3021 570 
Q 3686 1018 3686 2099 
Q 3686 3027 3078 3558 
Q 2803 3802 2476 3901 
Q 2150 4000 1658 4000 
Q 1472 4000 1395 3942 
Q 1318 3885 1318 3731 
z
" transform="scale(0.015625)"/>
       </defs>
       <use xlink:href="#STIXGeneral-Regular-44"/>
       <use xlink:href="#STIXGeneral-Regular-65" x="72.199982"/>
       <use xlink:href="#STIXGeneral-Regular-63" x="116.599976"/>
      </g>
     </g>
    </g>
    <g id="xtick_32">
     <g id="line2d_46">
      <g>
       <use xlink:href="#mb16a8ea460" x="396.825326" y="316.8755" style="fill: #323034; stroke: #323034; stroke-width: 0.8"/>
      </g>
     </g>
     <g id="text_18">
      <!-- Jan -->
      <g style="fill: #323034" transform="translate(386.289076 334.803) scale(0.16 -0.16)">
       <use xlink:href="#STIXGeneral-Regular-4a"/>
       <use xlink:href="#STIXGeneral-Regular-61" x="37.299988"/>
       <use xlink:href="#STIXGeneral-Regular-6e" x="81.699982"/>
      </g>
      <!-- 2021 -->
      <g style="fill: #323034" transform="translate(380.825326 351.3885) scale(0.16 -0.16)">
       <use xlink:href="#STIXGeneral-Regular-32"/>
       <use xlink:href="#STIXGeneral-Regular-30" x="49.999985"/>
       <use xlink:href="#STIXGeneral-Regular-32" x="99.999969"/>
       <use xlink:href="#STIXGeneral-Regular-31" x="149.999954"/>
      </g>
     </g>
    </g>
    <g id="xtick_33">
     <g id="line2d_47">
      <g>
       <use xlink:href="#mb16a8ea460" x="439.344399" y="316.8755" style="fill: #323034; stroke: #323034; stroke-width: 0.8"/>
      </g>
     </g>
     <g id="text_19">
      <!-- Feb -->
      <g style="fill: #323034" transform="translate(427.344399 334.803) scale(0.16 -0.16)">
       <defs>
        <path id="STIXGeneral-Regular-46" d="M 3494 3322 
L 3334 3322 
Q 3264 3757 3094 3875 
Q 2925 3994 2349 3994 
L 1504 3994 
Q 1370 3994 1328 3946 
Q 1286 3898 1286 3744 
L 1286 2355 
L 2195 2355 
Q 2598 2355 2736 2470 
Q 2874 2586 2918 2963 
L 3066 2963 
L 3066 1472 
L 2918 1472 
Q 2880 1862 2745 1977 
Q 2611 2093 2195 2093 
L 1286 2093 
L 1286 717 
Q 1286 352 1392 246 
Q 1498 141 1869 122 
L 1869 0 
L 70 0 
L 70 122 
Q 435 147 534 259 
Q 634 371 634 787 
L 634 3526 
Q 634 3878 538 3984 
Q 442 4090 77 4115 
L 77 4237 
L 3462 4237 
L 3494 3322 
z
" transform="scale(0.015625)"/>
        <path id="STIXGeneral-Regular-62" d="M 979 4358 
L 979 2406 
Q 1082 2650 1315 2797 
Q 1549 2944 1843 2944 
Q 2349 2944 2672 2541 
Q 2995 2138 2995 1536 
Q 2995 832 2566 384 
Q 2138 -64 1498 -64 
Q 1107 -64 774 67 
Q 442 198 442 358 
L 442 3622 
Q 442 3859 384 3926 
Q 326 3994 128 3994 
Q 83 3994 19 3981 
L 19 4090 
L 211 4147 
Q 864 4346 947 4371 
L 979 4358 
z
M 979 2035 
L 979 474 
Q 979 326 1161 233 
Q 1344 141 1600 141 
Q 1978 141 2195 416 
Q 2432 710 2432 1261 
Q 2432 1888 2182 2240 
Q 1971 2541 1613 2541 
Q 1357 2541 1168 2390 
Q 979 2240 979 2035 
z
" transform="scale(0.015625)"/>
       </defs>
       <use xlink:href="#STIXGeneral-Regular-46"/>
       <use xlink:href="#STIXGeneral-Regular-65" x="55.599991"/>
       <use xlink:href="#STIXGeneral-Regular-62" x="99.999985"/>
      </g>
     </g>
    </g>
   </g>
   <g id="matplotlib.axis_6">
    <g id="ytick_9">
     <g id="line2d_48">
      <g>
       <use xlink:href="#mc8b2930d70" x="439.344399" y="316.8755" style="fill: #323034; stroke: #323034; stroke-width: 0.8"/>
      </g>
     </g>
     <g id="text_20">
      <!-- $\mathdefault{−1}$ -->
      <g style="fill: #323034" transform="translate(446.344399 322.33925) scale(0.16 -0.16)">
       <use xlink:href="#STIXGeneral-Regular-2212" transform="translate(0 0.40625)"/>
       <use xlink:href="#STIXGeneral-Regular-31" transform="translate(68.499985 0.40625)"/>
      </g>
     </g>
    </g>
    <g id="ytick_10">
     <g id="line2d_49">
      <g>
       <use xlink:href="#mc8b2930d70" x="439.344399" y="269.492611" style="fill: #323034; stroke: #323034; stroke-width: 0.8"/>
      </g>
     </g>
     <g id="text_21">
      <!-- $\mathdefault{0}$ -->
      <g style="fill: #323034" transform="translate(446.344399 274.956361) scale(0.16 -0.16)">
       <use xlink:href="#STIXGeneral-Regular-30" transform="translate(0 0.40625)"/>
      </g>
     </g>
    </g>
    <g id="ytick_11">
     <g id="line2d_50">
      <g>
       <use xlink:href="#m098b18d572" x="439.344399" y="293.184056" style="fill: #323034; stroke: #323034; stroke-width: 0.6"/>
      </g>
     </g>
    </g>
    <g id="ytick_12">
     <g id="line2d_51">
      <g>
       <use xlink:href="#m098b18d572" x="439.344399" y="245.801167" style="fill: #323034; stroke: #323034; stroke-width: 0.6"/>
      </g>
     </g>
    </g>
   </g>
   <g id="line2d_52">
    <path d="M 19.64 272.000145 
L 21.011583 272.952124 
L 22.383166 271.2019 
L 23.754749 264.854481 
L 25.126332 271.369197 
L 26.497915 264.077427 
L 27.869498 267.251395 
L 29.241081 267.50773 
L 30.612664 268.141409 
L 31.984247 271.093314 
L 33.35583 270.000029 
L 34.727413 268.342896 
L 36.098996 271.360013 
L 37.470579 271.515771 
L 38.842162 268.110441 
L 40.213745 270.292367 
L 41.585328 271.878257 
L 42.956911 273.193278 
L 45.700077 267.336301 
L 47.07166 273.12167 
L 48.443243 269.831231 
L 51.186409 264.937066 
L 52.557992 264.117504 
L 53.929575 267.498827 
L 55.301158 274.263483 
L 56.672741 273.537298 
L 59.415907 269.816362 
L 60.78749 265.642953 
L 62.159073 267.724989 
L 63.530656 264.583741 
L 64.902239 272.276117 
L 66.273822 270.638812 
L 67.645405 270.133591 
L 69.016988 267.201786 
L 70.388571 269.466783 
L 71.760154 269.644828 
L 73.131737 270.496547 
L 74.50332 277.042991 
L 75.874903 268.489782 
L 77.246486 272.506752 
L 78.618069 265.853793 
L 79.989652 268.758269 
L 81.361235 269.336333 
L 82.732818 271.477659 
L 84.104401 265.442253 
L 85.475984 269.968961 
L 86.847567 267.09219 
L 88.21915 266.471175 
L 89.590733 271.819771 
L 90.962316 270.316657 
L 92.333899 267.052227 
L 93.705482 269.817632 
L 95.077065 273.045835 
L 96.448648 275.23251 
L 97.820231 271.205701 
L 99.191814 269.545734 
L 101.93498 265.481354 
L 103.306563 263.611319 
L 104.678146 268.958403 
L 106.049729 272.635951 
L 107.421312 273.075536 
L 108.792895 262.238118 
L 110.164478 268.907917 
L 111.536061 269.894979 
L 112.907644 272.020321 
L 114.279227 273.8199 
L 115.65081 266.962868 
L 117.022393 270.82357 
L 118.393976 269.88491 
L 119.765559 266.424491 
L 121.137142 272.81753 
L 122.508725 272.906422 
L 123.880308 267.778694 
L 125.251891 269.94014 
L 126.623474 271.576029 
L 127.995057 272.009855 
L 129.36664 267.646501 
L 130.738223 271.182101 
L 132.109806 267.887874 
L 133.481389 267.030001 
L 134.852972 268.516593 
L 136.224555 269.472511 
L 137.596138 269.661675 
L 138.967721 270.084068 
L 140.339304 267.484288 
L 141.710887 270.393881 
L 143.08247 265.941054 
L 144.454053 267.570818 
L 145.825636 267.625973 
L 147.197219 270.401742 
L 148.568802 272.621231 
L 149.940385 271.460624 
L 151.311968 271.254368 
L 154.055134 267.991855 
L 155.426717 272.386398 
L 156.7983 270.281072 
L 158.169883 271.379573 
L 159.541466 267.216407 
L 160.913049 266.453094 
L 162.284632 267.555223 
L 163.656215 267.831098 
L 165.027798 266.967488 
L 166.399381 273.221398 
L 167.770964 273.83033 
L 169.142548 266.588932 
L 170.514131 269.966684 
L 171.885714 269.171463 
L 173.257297 267.517709 
L 174.62888 270.577539 
L 176.000463 270.956826 
L 177.372046 269.471721 
L 178.743629 271.219354 
L 180.115212 268.382853 
L 181.486795 268.018384 
L 182.858378 266.207778 
L 184.229961 267.405652 
L 185.601544 269.607954 
L 186.973127 272.233353 
L 188.34471 268.958195 
L 189.716293 273.46908 
L 191.087876 270.357809 
L 192.459459 271.035155 
L 195.202625 270.667193 
L 196.574208 269.20566 
L 197.945791 266.8811 
L 199.317374 270.131729 
L 200.688957 266.779373 
L 202.06054 266.588654 
L 203.432123 269.47083 
L 204.803706 267.418847 
L 206.175289 268.07925 
L 207.546872 267.513554 
L 208.918455 275.062107 
L 210.290038 270.276711 
L 211.661621 270.969332 
L 213.033204 270.667179 
L 214.404787 270.554589 
L 215.77637 268.210493 
L 217.147953 274.727885 
L 218.519536 267.702225 
L 219.891119 271.342248 
L 221.262702 265.577731 
L 222.634285 268.285727 
L 224.005868 270.715848 
L 225.377451 266.326745 
L 226.749034 270.551152 
L 228.120617 270.200378 
L 229.4922 262.802817 
L 230.863783 277.656356 
L 232.235366 263.885777 
L 233.606949 261.296429 
L 234.978532 264.119153 
L 236.350115 270.641068 
L 237.721698 283.343625 
L 240.464864 273.015224 
L 241.836447 270.827211 
L 243.20803 264.817742 
L 244.579613 268.288871 
L 245.951196 267.646488 
L 247.322779 269.447159 
L 248.694362 268.250606 
L 250.065945 270.797398 
L 251.437528 268.282615 
L 252.809111 269.362042 
L 254.180694 270.661543 
L 255.552277 268.604543 
L 256.92386 255.959814 
L 258.295443 274.376407 
L 259.667026 271.672093 
L 261.038609 270.931468 
L 262.410192 266.122295 
L 263.781775 271.005936 
L 265.153358 268.295652 
L 266.524941 275.404402 
L 267.896524 268.043493 
L 269.268107 272.674374 
L 270.63969 271.566848 
L 272.011273 269.48677 
L 273.382856 268.977719 
L 274.754439 274.986039 
L 276.126022 256.16344 
L 277.497605 273.930306 
L 278.869188 267.346019 
L 280.240771 267.873038 
L 281.612354 270.407432 
L 282.983937 270.733313 
L 284.35552 268.867679 
L 285.727103 274.005999 
L 287.098686 268.243358 
L 288.470269 267.335873 
L 289.841852 266.569286 
L 291.213435 267.830723 
L 292.585018 275.88361 
L 293.956601 272.171705 
L 295.328184 266.363056 
L 296.699767 270.470389 
L 298.07135 271.785432 
L 299.442933 267.936693 
L 300.814516 267.055113 
L 302.186099 265.860017 
L 303.557682 270.668555 
L 304.929265 269.300606 
L 306.300848 270.147 
L 307.672431 269.918347 
L 309.044014 268.519356 
L 310.415597 269.28364 
L 311.78718 272.84156 
L 313.158763 271.185332 
L 314.530346 269.76093 
L 315.901929 272.079284 
L 317.273512 269.804418 
L 318.645095 268.089188 
L 320.016678 269.715826 
L 321.388261 268.473801 
L 322.759844 270.463976 
L 324.131427 269.227575 
L 325.50301 267.588639 
L 326.874593 271.287573 
L 328.246176 267.723578 
L 329.617759 267.976235 
L 330.989342 269.725154 
L 332.360925 268.977369 
L 333.732508 267.555644 
L 335.104091 269.406266 
L 336.475674 269.994114 
L 337.847257 266.860047 
L 339.21884 267.859463 
L 340.590423 269.131919 
L 341.962006 268.919618 
L 343.333589 264.598182 
L 344.705172 264.810586 
L 346.076755 267.301276 
L 347.448338 293.976091 
L 348.819921 265.347896 
L 350.191504 275.304545 
L 351.563087 271.862918 
L 352.93467 270.388459 
L 354.306253 267.477637 
L 355.677836 268.03815 
L 357.049419 265.972281 
L 358.421002 267.220902 
L 359.792585 269.541845 
L 361.164168 269.530807 
L 362.535751 269.227808 
L 363.907334 267.006913 
L 365.278917 270.987546 
L 366.6505 270.687876 
L 368.022083 262.646318 
L 369.393666 273.385887 
L 370.765249 269.264242 
L 372.136832 271.787545 
L 373.508415 271.439469 
L 374.879998 265.684335 
L 376.251581 267.2794 
L 377.623164 264.580118 
L 378.994747 273.680698 
L 380.36633 266.186748 
L 381.737913 266.564336 
L 383.109496 266.191506 
L 384.481079 263.097783 
L 385.852662 271.34872 
L 387.224245 301.138828 
L 388.595828 264.37705 
L 389.967411 271.002654 
L 391.338994 268.336212 
L 392.710577 267.296202 
L 394.08216 265.822754 
L 395.453743 268.272007 
L 396.825326 289.940354 
L 398.196909 258.78253 
L 399.568492 266.881306 
L 400.940075 264.301986 
L 402.311658 269.518708 
L 403.683241 269.403938 
L 405.054824 267.080919 
L 406.426407 263.008134 
L 407.79799 270.075356 
L 409.169573 268.123735 
L 410.541156 269.599032 
L 411.912739 268.9113 
L 413.284322 270.659945 
L 414.655905 268.772294 
L 416.027488 266.528981 
L 417.399071 271.468779 
L 418.770654 268.004568 
L 420.142237 281.307498 
L 421.51382 267.990178 
L 422.885403 269.778247 
L 424.256986 268.955453 
L 425.628569 267.02622 
L 427.000152 270.324704 
L 428.371735 271.519313 
L 429.743318 267.811558 
L 431.114901 269.889172 
L 432.486484 270.143914 
L 433.858067 267.903231 
L 435.22965 267.059355 
L 436.601233 274.00398 
L 437.972816 270.8705 
L 439.344399 266.16147 
L 439.344399 266.16147 
" clip-path="url(#pb13e118eb6)" style="fill: none; stroke: #ff0000; stroke-opacity: 0.4; stroke-width: 3; stroke-linecap: square"/>
   </g>
   <g id="patch_11">
    <path d="M 439.344399 316.8755 
L 439.344399 245.801167 
" style="fill: none; stroke: #000000; stroke-width: 0.6; stroke-linejoin: miter; stroke-linecap: square"/>
   </g>
   <g id="patch_12">
    <path d="M 19.64 316.8755 
L 439.344399 316.8755 
" style="fill: none; stroke: #000000; stroke-width: 0.6; stroke-linejoin: miter; stroke-linecap: square"/>
   </g>
   <g id="legend_3">
    <g id="patch_13">
     <path d="M 28.04 310.8755 
L 86.958125 310.8755 
Q 89.358125 310.8755 89.358125 308.4755 
L 89.358125 297.471125 
Q 89.358125 295.071125 86.958125 295.071125 
L 28.04 295.071125 
Q 25.64 295.071125 25.64 297.471125 
L 25.64 308.4755 
Q 25.64 310.8755 28.04 310.8755 
z
" style="fill: #ffffff; opacity: 0.8; stroke: #e6e6e6; stroke-width: 0.8; stroke-linejoin: miter"/>
    </g>
    <g id="line2d_53">
     <path d="M 28.04 301.671125 
L 40.04 301.671125 
L 52.04 301.671125 
" style="fill: none; stroke: #ff0000; stroke-opacity: 0.4; stroke-width: 3; stroke-linecap: square"/>
    </g>
    <g id="text_22">
     <!-- Error -->
     <g style="fill: #323034" transform="translate(61.64 305.871125) scale(0.12 -0.12)">
      <defs>
       <path id="STIXGeneral-Regular-45" d="M 3821 1082 
L 3526 0 
L 77 0 
L 77 122 
Q 442 147 538 252 
Q 634 358 634 730 
L 634 3520 
Q 634 3878 534 3987 
Q 435 4096 77 4115 
L 77 4237 
L 3469 4237 
L 3494 3322 
L 3334 3322 
Q 3264 3750 3085 3872 
Q 2906 3994 2349 3994 
L 1510 3994 
Q 1370 3994 1328 3952 
Q 1286 3910 1286 3763 
L 1286 2355 
L 2253 2355 
Q 2656 2355 2787 2470 
Q 2918 2586 2976 2970 
L 3123 2970 
L 3123 1472 
L 2976 1472 
Q 2918 1875 2790 1984 
Q 2662 2093 2253 2093 
L 1286 2093 
L 1286 538 
Q 1286 346 1420 291 
Q 1555 237 1933 237 
L 2163 237 
Q 2848 237 3136 403 
Q 3424 570 3642 1082 
L 3821 1082 
z
" transform="scale(0.015625)"/>
      </defs>
      <use xlink:href="#STIXGeneral-Regular-45"/>
      <use xlink:href="#STIXGeneral-Regular-72" x="61.099991"/>
      <use xlink:href="#STIXGeneral-Regular-72" x="94.399979"/>
      <use xlink:href="#STIXGeneral-Regular-6f" x="127.699966"/>
      <use xlink:href="#STIXGeneral-Regular-72" x="177.699951"/>
     </g>
    </g>
   </g>
  </g>
  <g id="text_23">
   <!-- Unobserved Components (smooth trend) -->
   <g style="fill: #323034" transform="translate(75.065703 21.542344) scale(0.21 -0.21)">
    <defs>
     <path id="STIXGeneral-Regular-55" d="M 4512 4237 
L 4512 4115 
Q 4122 4077 4016 3926 
Q 3910 3776 3910 3302 
L 3910 1670 
Q 3910 1178 3840 896 
Q 3770 614 3565 378 
Q 3155 -90 2272 -90 
Q 1574 -90 1184 205 
Q 666 589 666 1594 
L 666 3578 
Q 666 3898 566 3994 
Q 467 4090 90 4115 
L 90 4237 
L 1901 4237 
L 1901 4115 
Q 1517 4083 1417 3977 
Q 1318 3872 1318 3514 
L 1318 1517 
Q 1318 1101 1369 877 
Q 1421 653 1600 480 
Q 1901 192 2419 192 
Q 3066 192 3392 570 
Q 3539 749 3584 963 
Q 3629 1178 3629 1600 
L 3629 3283 
Q 3629 3782 3520 3936 
Q 3411 4090 3027 4115 
L 3027 4237 
L 4512 4237 
z
" transform="scale(0.015625)"/>
     <path id="STIXGeneral-Regular-43" d="M 3930 838 
L 4051 723 
Q 3482 -90 2304 -90 
Q 1376 -90 794 480 
Q 179 1082 179 2080 
Q 179 3014 755 3661 
Q 1357 4326 2310 4326 
Q 2720 4326 3072 4230 
Q 3475 4115 3514 4115 
Q 3725 4115 3782 4326 
L 3910 4326 
L 3968 2874 
L 3821 2874 
Q 3718 3334 3488 3584 
Q 3034 4070 2458 4070 
Q 1747 4070 1334 3548 
Q 922 3027 922 2182 
Q 922 1152 1382 653 
Q 1811 192 2522 192 
Q 2944 192 3251 339 
Q 3558 486 3930 838 
z
" transform="scale(0.015625)"/>
     <path id="STIXGeneral-Regular-6d" d="M 4960 0 
L 3565 0 
L 3565 96 
Q 3834 122 3907 208 
Q 3981 294 3981 576 
L 3981 1894 
Q 3981 2278 3869 2444 
Q 3757 2611 3488 2611 
Q 3264 2611 3107 2521 
Q 2950 2432 2803 2221 
L 2803 608 
Q 2803 301 2896 201 
Q 2989 102 3264 96 
L 3264 0 
L 1830 0 
L 1830 96 
Q 2112 115 2189 188 
Q 2266 262 2266 550 
L 2266 1901 
Q 2266 2611 1850 2611 
Q 1670 2611 1468 2531 
Q 1267 2451 1171 2336 
Q 1088 2240 1088 2227 
L 1088 448 
Q 1088 243 1177 176 
Q 1267 109 1523 96 
L 1523 0 
L 102 0 
L 102 96 
Q 371 102 460 195 
Q 550 288 550 563 
L 550 2150 
Q 550 2387 499 2480 
Q 448 2573 326 2573 
Q 230 2573 122 2547 
L 122 2656 
Q 557 2778 1011 2944 
L 1062 2925 
L 1062 2451 
L 1075 2451 
Q 1363 2752 1584 2848 
Q 1805 2944 2054 2944 
Q 2560 2944 2733 2406 
Q 3232 2944 3776 2944 
Q 4518 2944 4518 1792 
L 4518 493 
Q 4518 282 4582 202 
Q 4646 122 4794 109 
L 4960 96 
L 4960 0 
z
" transform="scale(0.015625)"/>
     <path id="STIXGeneral-Regular-28" d="M 1946 -1030 
L 1869 -1133 
Q 1126 -710 716 32 
Q 307 774 307 1613 
Q 307 3386 1888 4326 
L 1946 4224 
Q 1293 3667 1075 3126 
Q 858 2586 858 1632 
Q 858 685 1082 96 
Q 1306 -493 1946 -1030 
z
" transform="scale(0.015625)"/>
     <path id="STIXGeneral-Regular-68" d="M 3117 0 
L 1760 0 
L 1760 96 
Q 2042 128 2118 224 
Q 2195 320 2195 653 
L 2195 1920 
Q 2195 2598 1722 2598 
Q 1530 2598 1370 2508 
Q 1210 2419 1005 2195 
L 1005 653 
Q 1005 320 1081 224 
Q 1158 128 1440 96 
L 1440 0 
L 58 0 
L 58 96 
Q 333 134 400 224 
Q 467 314 467 653 
L 467 3667 
Q 467 3872 406 3933 
Q 346 3994 141 3994 
Q 83 3994 64 3987 
L 64 4090 
L 237 4141 
Q 730 4288 973 4371 
L 1005 4352 
L 1005 2406 
Q 1229 2694 1446 2819 
Q 1664 2944 1946 2944 
Q 2733 2944 2733 1926 
L 2733 653 
Q 2733 320 2793 233 
Q 2854 147 3117 96 
L 3117 0 
z
" transform="scale(0.015625)"/>
     <path id="STIXGeneral-Regular-29" d="M 186 4224 
L 262 4326 
Q 992 3891 1408 3148 
Q 1824 2406 1824 1581 
Q 1824 -166 243 -1133 
L 186 -1030 
Q 845 -486 1059 54 
Q 1274 595 1274 1562 
Q 1274 2534 1059 3120 
Q 845 3706 186 4224 
z
" transform="scale(0.015625)"/>
    </defs>
    <use xlink:href="#STIXGeneral-Regular-55"/>
    <use xlink:href="#STIXGeneral-Regular-6e" x="72.199982"/>
    <use xlink:href="#STIXGeneral-Regular-6f" x="122.199966"/>
    <use xlink:href="#STIXGeneral-Regular-62" x="172.199951"/>
    <use xlink:href="#STIXGeneral-Regular-73" x="222.199936"/>
    <use xlink:href="#STIXGeneral-Regular-65" x="261.09993"/>
    <use xlink:href="#STIXGeneral-Regular-72" x="305.499924"/>
    <use xlink:href="#STIXGeneral-Regular-76" x="338.799911"/>
    <use xlink:href="#STIXGeneral-Regular-65" x="388.799896"/>
    <use xlink:href="#STIXGeneral-Regular-64" x="433.19989"/>
    <use xlink:href="#STIXGeneral-Regular-20" x="483.199875"/>
    <use xlink:href="#STIXGeneral-Regular-43" x="508.19986"/>
    <use xlink:href="#STIXGeneral-Regular-6f" x="574.899857"/>
    <use xlink:href="#STIXGeneral-Regular-6d" x="624.899841"/>
    <use xlink:href="#STIXGeneral-Regular-70" x="702.699829"/>
    <use xlink:href="#STIXGeneral-Regular-6f" x="752.699814"/>
    <use xlink:href="#STIXGeneral-Regular-6e" x="802.699799"/>
    <use xlink:href="#STIXGeneral-Regular-65" x="852.699783"/>
    <use xlink:href="#STIXGeneral-Regular-6e" x="897.099777"/>
    <use xlink:href="#STIXGeneral-Regular-74" x="947.099762"/>
    <use xlink:href="#STIXGeneral-Regular-73" x="974.89975"/>
    <use xlink:href="#STIXGeneral-Regular-20" x="1013.799744"/>
    <use xlink:href="#STIXGeneral-Regular-28" x="1038.799728"/>
    <use xlink:href="#STIXGeneral-Regular-73" x="1072.099716"/>
    <use xlink:href="#STIXGeneral-Regular-6d" x="1110.99971"/>
    <use xlink:href="#STIXGeneral-Regular-6f" x="1188.799698"/>
    <use xlink:href="#STIXGeneral-Regular-6f" x="1238.799683"/>
    <use xlink:href="#STIXGeneral-Regular-74" x="1288.799667"/>
    <use xlink:href="#STIXGeneral-Regular-68" x="1316.599655"/>
    <use xlink:href="#STIXGeneral-Regular-20" x="1366.59964"/>
    <use xlink:href="#STIXGeneral-Regular-74" x="1391.599625"/>
    <use xlink:href="#STIXGeneral-Regular-72" x="1419.399612"/>
    <use xlink:href="#STIXGeneral-Regular-65" x="1452.6996"/>
    <use xlink:href="#STIXGeneral-Regular-6e" x="1497.099594"/>
    <use xlink:href="#STIXGeneral-Regular-64" x="1547.099579"/>
    <use xlink:href="#STIXGeneral-Regular-29" x="1597.099564"/>
   </g>
  </g>
 </g>
 <defs>
  <clipPath id="p15a3dbeff0">
   <rect x="19.64" y="70.7325" width="419.704399" height="71.074333"/>
  </clipPath>
  <clipPath id="p4c0764356e">
   <rect x="19.64" y="158.266833" width="419.704399" height="71.074333"/>
  </clipPath>
  <clipPath id="pb13e118eb6">
   <rect x="19.64" y="245.801167" width="419.704399" height="71.074333"/>
  </clipPath>
 </defs>
</svg>