<?xml version="1.0" encoding="utf-8" standalone="no"?>
<!DOCTYPE svg PUBLIC "-//W3C//DTD SVG 1.1//EN"
  "http://www.w3.org/Graphics/SVG/1.1/DTD/svg11.dtd">
<svg xmlns:xlink="http://www.w3.org/1999/xlink" width="460.07394pt" height="347.04pt" viewBox="0 0 460.07394 347.04" xmlns="http://www.w3.org/2000/svg" version="1.1">
 <metadata>
  <rdf:RDF xmlns:dc="http://purl.org/dc/elements/1.1/" xmlns:cc="http://creativecommons.org/ns#" xmlns:rdf="http://www.w3.org/1999/02/22-rdf-syntax-ns#">
   <cc:Work>
    <dc:type rdf:resource="http://purl.org/dc/dcmitype/StillImage"/>
    <dc:date>2025-03-26T16:03:56.373003</dc:date>
    <dc:format>image/svg+xml</dc:format>
    <dc:creator>
     <cc:Agent>
      <dc:title>Matplotlib v3.10.0, https://matplotlib.org/</dc:title>
     </cc:Agent>
    </dc:creator>
   </cc:Work>
  </rdf:RDF>
 </metadata>
 <defs>
  <style type="text/css">*{stroke-linejoin: round; stroke-linecap: butt}</style>
 </defs>
 <g id="figure_1">
  <g id="patch_1">
   <path d="M 0 347.04 
L 460.07394 347.04 
L 460.07394 -0 
L 0 -0 
z
" style="fill: #ffffff"/>
  </g>
  <g id="axes_1">
   <g id="patch_2">
    <path d="M 44.339495 104.22 
L 44.339495 34.92 
L 137.188232 34.92 
L 137.188232 104.22 
L 44.339495 104.22 
" clip-path="url(#pb510fa4399)" style="fill: none; stroke: #000000; stroke-width: 0.2; stroke-linejoin: miter"/>
   </g>
   <g id="patch_3">
    <path d="M 44.339495 173.52 
L 44.339495 104.22 
L 137.188232 104.22 
L 137.188232 173.52 
L 44.339495 173.52 
" clip-path="url(#pb510fa4399)" style="fill: none; stroke: #000000; stroke-width: 0.2; stroke-linejoin: miter"/>
   </g>
   <g id="patch_4">
    <path d="M 137.188232 104.22 
L 137.188232 34.92 
L 230.03697 34.92 
L 230.03697 104.22 
L 137.188232 104.22 
" clip-path="url(#pb510fa4399)" style="fill: none; stroke: #000000; stroke-width: 0.2; stroke-linejoin: miter"/>
   </g>
   <g id="patch_5">
    <path d="M 137.188232 138.87 
L 137.188232 104.22 
L 183.612601 104.22 
L 183.612601 138.87 
L 137.188232 138.87 
" clip-path="url(#pb510fa4399)" style="fill: none; stroke: #000000; stroke-width: 0.2; stroke-linejoin: miter"/>
   </g>
   <g id="patch_6">
    <path d="M 137.188232 173.52 
L 137.188232 138.87 
L 183.612601 138.87 
L 183.612601 173.52 
L 137.188232 173.52 
" clip-path="url(#pb510fa4399)" style="fill: none; stroke: #000000; stroke-width: 0.2; stroke-linejoin: miter"/>
   </g>
   <g id="patch_7">
    <path d="M 183.612601 121.545 
L 183.612601 104.22 
L 206.824786 104.22 
L 206.824786 121.545 
L 183.612601 121.545 
" clip-path="url(#pb510fa4399)" style="fill: none; stroke: #000000; stroke-width: 0.2; stroke-linejoin: miter"/>
   </g>
   <g id="patch_8">
    <path d="M 183.612601 138.87 
L 183.612601 121.545 
L 206.824786 121.545 
L 206.824786 138.87 
L 183.612601 138.87 
" clip-path="url(#pb510fa4399)" style="fill: none; stroke: #000000; stroke-width: 0.2; stroke-linejoin: miter"/>
   </g>
   <g id="patch_9">
    <path d="M 206.824786 121.545 
L 206.824786 104.22 
L 230.03697 104.22 
L 230.03697 121.545 
L 206.824786 121.545 
" clip-path="url(#pb510fa4399)" style="fill: none; stroke: #000000; stroke-width: 0.2; stroke-linejoin: miter"/>
   </g>
   <g id="patch_10">
    <path d="M 206.824786 130.2075 
L 206.824786 121.545 
L 218.430878 121.545 
L 218.430878 130.2075 
L 206.824786 130.2075 
" clip-path="url(#pb510fa4399)" style="fill: none; stroke: #000000; stroke-width: 0.2; stroke-linejoin: miter"/>
   </g>
   <g id="patch_11">
    <path d="M 206.824786 134.53875 
L 206.824786 130.2075 
L 212.627832 130.2075 
L 212.627832 134.53875 
L 206.824786 134.53875 
" clip-path="url(#pb510fa4399)" style="fill: none; stroke: #000000; stroke-width: 0.2; stroke-linejoin: miter"/>
   </g>
   <g id="patch_12">
    <path d="M 206.824786 138.87 
L 206.824786 134.53875 
L 212.627832 134.53875 
L 212.627832 138.87 
L 206.824786 138.87 
" clip-path="url(#pb510fa4399)" style="fill: none; stroke: #000000; stroke-width: 0.2; stroke-linejoin: miter"/>
   </g>
   <g id="patch_13">
    <path d="M 212.627832 134.53875 
L 212.627832 130.2075 
L 218.430878 130.2075 
L 218.430878 134.53875 
L 212.627832 134.53875 
" clip-path="url(#pb510fa4399)" style="fill: none; stroke: #000000; stroke-width: 0.2; stroke-linejoin: miter"/>
   </g>
   <g id="patch_14">
    <path d="M 212.627832 138.87 
L 212.627832 134.53875 
L 218.430878 134.53875 
L 218.430878 138.87 
L 212.627832 138.87 
" clip-path="url(#pb510fa4399)" style="fill: none; stroke: #000000; stroke-width: 0.2; stroke-linejoin: miter"/>
   </g>
   <g id="patch_15">
    <path d="M 218.430878 130.2075 
L 218.430878 121.545 
L 230.03697 121.545 
L 230.03697 130.2075 
L 218.430878 130.2075 
" clip-path="url(#pb510fa4399)" style="fill: none; stroke: #000000; stroke-width: 0.2; stroke-linejoin: miter"/>
   </g>
   <g id="patch_16">
    <path d="M 218.430878 134.53875 
L 218.430878 130.2075 
L 224.233924 130.2075 
L 224.233924 134.53875 
L 218.430878 134.53875 
" clip-path="url(#pb510fa4399)" style="fill: none; stroke: #000000; stroke-width: 0.2; stroke-linejoin: miter"/>
   </g>
   <g id="patch_17">
    <path d="M 218.430878 138.87 
L 218.430878 134.53875 
L 224.233924 134.53875 
L 224.233924 138.87 
L 218.430878 138.87 
" clip-path="url(#pb510fa4399)" style="fill: none; stroke: #000000; stroke-width: 0.2; stroke-linejoin: miter"/>
   </g>
   <g id="patch_18">
    <path d="M 224.233924 134.53875 
L 224.233924 130.2075 
L 230.03697 130.2075 
L 230.03697 134.53875 
L 224.233924 134.53875 
" clip-path="url(#pb510fa4399)" style="fill: none; stroke: #000000; stroke-width: 0.2; stroke-linejoin: miter"/>
   </g>
   <g id="patch_19">
    <path d="M 224.233924 138.87 
L 224.233924 134.53875 
L 230.03697 134.53875 
L 230.03697 138.87 
L 224.233924 138.87 
" clip-path="url(#pb510fa4399)" style="fill: none; stroke: #000000; stroke-width: 0.2; stroke-linejoin: miter"/>
   </g>
   <g id="patch_20">
    <path d="M 183.612601 156.195 
L 183.612601 138.87 
L 206.824786 138.87 
L 206.824786 156.195 
L 183.612601 156.195 
" clip-path="url(#pb510fa4399)" style="fill: none; stroke: #000000; stroke-width: 0.2; stroke-linejoin: miter"/>
   </g>
   <g id="patch_21">
    <path d="M 183.612601 173.52 
L 183.612601 156.195 
L 206.824786 156.195 
L 206.824786 173.52 
L 183.612601 173.52 
" clip-path="url(#pb510fa4399)" style="fill: none; stroke: #000000; stroke-width: 0.2; stroke-linejoin: miter"/>
   </g>
   <g id="patch_22">
    <path d="M 206.824786 143.20125 
L 206.824786 138.87 
L 212.627832 138.87 
L 212.627832 143.20125 
L 206.824786 143.20125 
" clip-path="url(#pb510fa4399)" style="fill: none; stroke: #000000; stroke-width: 0.2; stroke-linejoin: miter"/>
   </g>
   <g id="patch_23">
    <path d="M 206.824786 147.5325 
L 206.824786 143.20125 
L 212.627832 143.20125 
L 212.627832 147.5325 
L 206.824786 147.5325 
" clip-path="url(#pb510fa4399)" style="fill: none; stroke: #000000; stroke-width: 0.2; stroke-linejoin: miter"/>
   </g>
   <g id="patch_24">
    <path d="M 212.627832 143.20125 
L 212.627832 138.87 
L 218.430878 138.87 
L 218.430878 143.20125 
L 212.627832 143.20125 
" clip-path="url(#pb510fa4399)" style="fill: none; stroke: #000000; stroke-width: 0.2; stroke-linejoin: miter"/>
   </g>
   <g id="patch_25">
    <path d="M 212.627832 147.5325 
L 212.627832 143.20125 
L 218.430878 143.20125 
L 218.430878 147.5325 
L 212.627832 147.5325 
" clip-path="url(#pb510fa4399)" style="fill: none; stroke: #000000; stroke-width: 0.2; stroke-linejoin: miter"/>
   </g>
   <g id="patch_26">
    <path d="M 206.824786 151.86375 
L 206.824786 147.5325 
L 212.627832 147.5325 
L 212.627832 151.86375 
L 206.824786 151.86375 
" clip-path="url(#pb510fa4399)" style="fill: none; stroke: #000000; stroke-width: 0.2; stroke-linejoin: miter"/>
   </g>
   <g id="patch_27">
    <path d="M 206.824786 156.195 
L 206.824786 151.86375 
L 212.627832 151.86375 
L 212.627832 156.195 
L 206.824786 156.195 
" clip-path="url(#pb510fa4399)" style="fill: none; stroke: #000000; stroke-width: 0.2; stroke-linejoin: miter"/>
   </g>
   <g id="patch_28">
    <path d="M 212.627832 151.86375 
L 212.627832 147.5325 
L 218.430878 147.5325 
L 218.430878 151.86375 
L 212.627832 151.86375 
" clip-path="url(#pb510fa4399)" style="fill: none; stroke: #000000; stroke-width: 0.2; stroke-linejoin: miter"/>
   </g>
   <g id="patch_29">
    <path d="M 212.627832 156.195 
L 212.627832 151.86375 
L 218.430878 151.86375 
L 218.430878 156.195 
L 212.627832 156.195 
" clip-path="url(#pb510fa4399)" style="fill: none; stroke: #000000; stroke-width: 0.2; stroke-linejoin: miter"/>
   </g>
   <g id="patch_30">
    <path d="M 218.430878 143.20125 
L 218.430878 138.87 
L 224.233924 138.87 
L 224.233924 143.20125 
L 218.430878 143.20125 
" clip-path="url(#pb510fa4399)" style="fill: none; stroke: #000000; stroke-width: 0.2; stroke-linejoin: miter"/>
   </g>
   <g id="patch_31">
    <path d="M 218.430878 147.5325 
L 218.430878 143.20125 
L 224.233924 143.20125 
L 224.233924 147.5325 
L 218.430878 147.5325 
" clip-path="url(#pb510fa4399)" style="fill: none; stroke: #000000; stroke-width: 0.2; stroke-linejoin: miter"/>
   </g>
   <g id="patch_32">
    <path d="M 224.233924 143.20125 
L 224.233924 138.87 
L 230.03697 138.87 
L 230.03697 143.20125 
L 224.233924 143.20125 
" clip-path="url(#pb510fa4399)" style="fill: none; stroke: #000000; stroke-width: 0.2; stroke-linejoin: miter"/>
   </g>
   <g id="patch_33">
    <path d="M 224.233924 147.5325 
L 224.233924 143.20125 
L 230.03697 143.20125 
L 230.03697 147.5325 
L 224.233924 147.5325 
" clip-path="url(#pb510fa4399)" style="fill: none; stroke: #000000; stroke-width: 0.2; stroke-linejoin: miter"/>
   </g>
   <g id="patch_34">
    <path d="M 218.430878 151.86375 
L 218.430878 147.5325 
L 224.233924 147.5325 
L 224.233924 151.86375 
L 218.430878 151.86375 
" clip-path="url(#pb510fa4399)" style="fill: none; stroke: #000000; stroke-width: 0.2; stroke-linejoin: miter"/>
   </g>
   <g id="patch_35">
    <path d="M 218.430878 156.195 
L 218.430878 151.86375 
L 224.233924 151.86375 
L 224.233924 156.195 
L 218.430878 156.195 
" clip-path="url(#pb510fa4399)" style="fill: none; stroke: #000000; stroke-width: 0.2; stroke-linejoin: miter"/>
   </g>
   <g id="patch_36">
    <path d="M 224.233924 151.86375 
L 224.233924 147.5325 
L 230.03697 147.5325 
L 230.03697 151.86375 
L 224.233924 151.86375 
" clip-path="url(#pb510fa4399)" style="fill: none; stroke: #000000; stroke-width: 0.2; stroke-linejoin: miter"/>
   </g>
   <g id="patch_37">
    <path d="M 224.233924 156.195 
L 224.233924 151.86375 
L 230.03697 151.86375 
L 230.03697 156.195 
L 224.233924 156.195 
" clip-path="url(#pb510fa4399)" style="fill: none; stroke: #000000; stroke-width: 0.2; stroke-linejoin: miter"/>
   </g>
   <g id="patch_38">
    <path d="M 206.824786 160.52625 
L 206.824786 156.195 
L 212.627832 156.195 
L 212.627832 160.52625 
L 206.824786 160.52625 
" clip-path="url(#pb510fa4399)" style="fill: none; stroke: #000000; stroke-width: 0.2; stroke-linejoin: miter"/>
   </g>
   <g id="patch_39">
    <path d="M 206.824786 164.8575 
L 206.824786 160.52625 
L 212.627832 160.52625 
L 212.627832 164.8575 
L 206.824786 164.8575 
" clip-path="url(#pb510fa4399)" style="fill: none; stroke: #000000; stroke-width: 0.2; stroke-linejoin: miter"/>
   </g>
   <g id="patch_40">
    <path d="M 212.627832 160.52625 
L 212.627832 156.195 
L 218.430878 156.195 
L 218.430878 160.52625 
L 212.627832 160.52625 
" clip-path="url(#pb510fa4399)" style="fill: none; stroke: #000000; stroke-width: 0.2; stroke-linejoin: miter"/>
   </g>
   <g id="patch_41">
    <path d="M 212.627832 164.8575 
L 212.627832 160.52625 
L 218.430878 160.52625 
L 218.430878 164.8575 
L 212.627832 164.8575 
" clip-path="url(#pb510fa4399)" style="fill: none; stroke: #000000; stroke-width: 0.2; stroke-linejoin: miter"/>
   </g>
   <g id="patch_42">
    <path d="M 206.824786 173.52 
L 206.824786 164.8575 
L 218.430878 164.8575 
L 218.430878 173.52 
L 206.824786 173.52 
" clip-path="url(#pb510fa4399)" style="fill: none; stroke: #000000; stroke-width: 0.2; stroke-linejoin: miter"/>
   </g>
   <g id="patch_43">
    <path d="M 218.430878 164.8575 
L 218.430878 156.195 
L 230.03697 156.195 
L 230.03697 164.8575 
L 218.430878 164.8575 
" clip-path="url(#pb510fa4399)" style="fill: none; stroke: #000000; stroke-width: 0.2; stroke-linejoin: miter"/>
   </g>
   <g id="patch_44">
    <path d="M 218.430878 173.52 
L 218.430878 164.8575 
L 230.03697 164.8575 
L 230.03697 173.52 
L 218.430878 173.52 
" clip-path="url(#pb510fa4399)" style="fill: none; stroke: #000000; stroke-width: 0.2; stroke-linejoin: miter"/>
   </g>
   <g id="patch_45">
    <path d="M 44.339495 242.82 
L 44.339495 173.52 
L 137.188232 173.52 
L 137.188232 242.82 
L 44.339495 242.82 
" clip-path="url(#pb510fa4399)" style="fill: none; stroke: #000000; stroke-width: 0.2; stroke-linejoin: miter"/>
   </g>
   <g id="patch_46">
    <path d="M 44.339495 277.47 
L 44.339495 242.82 
L 90.763864 242.82 
L 90.763864 277.47 
L 44.339495 277.47 
" clip-path="url(#pb510fa4399)" style="fill: none; stroke: #000000; stroke-width: 0.2; stroke-linejoin: miter"/>
   </g>
   <g id="patch_47">
    <path d="M 44.339495 312.12 
L 44.339495 277.47 
L 90.763864 277.47 
L 90.763864 312.12 
L 44.339495 312.12 
" clip-path="url(#pb510fa4399)" style="fill: none; stroke: #000000; stroke-width: 0.2; stroke-linejoin: miter"/>
   </g>
   <g id="patch_48">
    <path d="M 90.763864 277.47 
L 90.763864 242.82 
L 137.188232 242.82 
L 137.188232 277.47 
L 90.763864 277.47 
" clip-path="url(#pb510fa4399)" style="fill: none; stroke: #000000; stroke-width: 0.2; stroke-linejoin: miter"/>
   </g>
   <g id="patch_49">
    <path d="M 90.763864 312.12 
L 90.763864 277.47 
L 137.188232 277.47 
L 137.188232 312.12 
L 90.763864 312.12 
" clip-path="url(#pb510fa4399)" style="fill: none; stroke: #000000; stroke-width: 0.2; stroke-linejoin: miter"/>
   </g>
   <g id="patch_50">
    <path d="M 137.188232 208.17 
L 137.188232 173.52 
L 183.612601 173.52 
L 183.612601 208.17 
L 137.188232 208.17 
" clip-path="url(#pb510fa4399)" style="fill: none; stroke: #000000; stroke-width: 0.2; stroke-linejoin: miter"/>
   </g>
   <g id="patch_51">
    <path d="M 137.188232 242.82 
L 137.188232 208.17 
L 183.612601 208.17 
L 183.612601 242.82 
L 137.188232 242.82 
" clip-path="url(#pb510fa4399)" style="fill: none; stroke: #000000; stroke-width: 0.2; stroke-linejoin: miter"/>
   </g>
   <g id="patch_52">
    <path d="M 183.612601 190.845 
L 183.612601 173.52 
L 206.824786 173.52 
L 206.824786 190.845 
L 183.612601 190.845 
" clip-path="url(#pb510fa4399)" style="fill: none; stroke: #000000; stroke-width: 0.2; stroke-linejoin: miter"/>
   </g>
   <g id="patch_53">
    <path d="M 183.612601 208.17 
L 183.612601 190.845 
L 206.824786 190.845 
L 206.824786 208.17 
L 183.612601 208.17 
" clip-path="url(#pb510fa4399)" style="fill: none; stroke: #000000; stroke-width: 0.2; stroke-linejoin: miter"/>
   </g>
   <g id="patch_54">
    <path d="M 206.824786 182.1825 
L 206.824786 173.52 
L 218.430878 173.52 
L 218.430878 182.1825 
L 206.824786 182.1825 
" clip-path="url(#pb510fa4399)" style="fill: none; stroke: #000000; stroke-width: 0.2; stroke-linejoin: miter"/>
   </g>
   <g id="patch_55">
    <path d="M 206.824786 190.845 
L 206.824786 182.1825 
L 218.430878 182.1825 
L 218.430878 190.845 
L 206.824786 190.845 
" clip-path="url(#pb510fa4399)" style="fill: none; stroke: #000000; stroke-width: 0.2; stroke-linejoin: miter"/>
   </g>
   <g id="patch_56">
    <path d="M 218.430878 182.1825 
L 218.430878 173.52 
L 230.03697 173.52 
L 230.03697 182.1825 
L 218.430878 182.1825 
" clip-path="url(#pb510fa4399)" style="fill: none; stroke: #000000; stroke-width: 0.2; stroke-linejoin: miter"/>
   </g>
   <g id="patch_57">
    <path d="M 218.430878 190.845 
L 218.430878 182.1825 
L 230.03697 182.1825 
L 230.03697 190.845 
L 218.430878 190.845 
" clip-path="url(#pb510fa4399)" style="fill: none; stroke: #000000; stroke-width: 0.2; stroke-linejoin: miter"/>
   </g>
   <g id="patch_58">
    <path d="M 206.824786 208.17 
L 206.824786 190.845 
L 230.03697 190.845 
L 230.03697 208.17 
L 206.824786 208.17 
" clip-path="url(#pb510fa4399)" style="fill: none; stroke: #000000; stroke-width: 0.2; stroke-linejoin: miter"/>
   </g>
   <g id="patch_59">
    <path d="M 183.612601 216.8325 
L 183.612601 208.17 
L 195.218693 208.17 
L 195.218693 216.8325 
L 183.612601 216.8325 
" clip-path="url(#pb510fa4399)" style="fill: none; stroke: #000000; stroke-width: 0.2; stroke-linejoin: miter"/>
   </g>
   <g id="patch_60">
    <path d="M 183.612601 225.495 
L 183.612601 216.8325 
L 195.218693 216.8325 
L 195.218693 225.495 
L 183.612601 225.495 
" clip-path="url(#pb510fa4399)" style="fill: none; stroke: #000000; stroke-width: 0.2; stroke-linejoin: miter"/>
   </g>
   <g id="patch_61">
    <path d="M 195.218693 216.8325 
L 195.218693 208.17 
L 206.824786 208.17 
L 206.824786 216.8325 
L 195.218693 216.8325 
" clip-path="url(#pb510fa4399)" style="fill: none; stroke: #000000; stroke-width: 0.2; stroke-linejoin: miter"/>
   </g>
   <g id="patch_62">
    <path d="M 195.218693 225.495 
L 195.218693 216.8325 
L 206.824786 216.8325 
L 206.824786 225.495 
L 195.218693 225.495 
" clip-path="url(#pb510fa4399)" style="fill: none; stroke: #000000; stroke-width: 0.2; stroke-linejoin: miter"/>
   </g>
   <g id="patch_63">
    <path d="M 183.612601 234.1575 
L 183.612601 225.495 
L 195.218693 225.495 
L 195.218693 234.1575 
L 183.612601 234.1575 
" clip-path="url(#pb510fa4399)" style="fill: none; stroke: #000000; stroke-width: 0.2; stroke-linejoin: miter"/>
   </g>
   <g id="patch_64">
    <path d="M 183.612601 242.82 
L 183.612601 234.1575 
L 195.218693 234.1575 
L 195.218693 242.82 
L 183.612601 242.82 
" clip-path="url(#pb510fa4399)" style="fill: none; stroke: #000000; stroke-width: 0.2; stroke-linejoin: miter"/>
   </g>
   <g id="patch_65">
    <path d="M 195.218693 234.1575 
L 195.218693 225.495 
L 206.824786 225.495 
L 206.824786 234.1575 
L 195.218693 234.1575 
" clip-path="url(#pb510fa4399)" style="fill: none; stroke: #000000; stroke-width: 0.2; stroke-linejoin: miter"/>
   </g>
   <g id="patch_66">
    <path d="M 195.218693 242.82 
L 195.218693 234.1575 
L 206.824786 234.1575 
L 206.824786 242.82 
L 195.218693 242.82 
" clip-path="url(#pb510fa4399)" style="fill: none; stroke: #000000; stroke-width: 0.2; stroke-linejoin: miter"/>
   </g>
   <g id="patch_67">
    <path d="M 206.824786 216.8325 
L 206.824786 208.17 
L 218.430878 208.17 
L 218.430878 216.8325 
L 206.824786 216.8325 
" clip-path="url(#pb510fa4399)" style="fill: none; stroke: #000000; stroke-width: 0.2; stroke-linejoin: miter"/>
   </g>
   <g id="patch_68">
    <path d="M 206.824786 225.495 
L 206.824786 216.8325 
L 218.430878 216.8325 
L 218.430878 225.495 
L 206.824786 225.495 
" clip-path="url(#pb510fa4399)" style="fill: none; stroke: #000000; stroke-width: 0.2; stroke-linejoin: miter"/>
   </g>
   <g id="patch_69">
    <path d="M 218.430878 216.8325 
L 218.430878 208.17 
L 230.03697 208.17 
L 230.03697 216.8325 
L 218.430878 216.8325 
" clip-path="url(#pb510fa4399)" style="fill: none; stroke: #000000; stroke-width: 0.2; stroke-linejoin: miter"/>
   </g>
   <g id="patch_70">
    <path d="M 218.430878 225.495 
L 218.430878 216.8325 
L 230.03697 216.8325 
L 230.03697 225.495 
L 218.430878 225.495 
" clip-path="url(#pb510fa4399)" style="fill: none; stroke: #000000; stroke-width: 0.2; stroke-linejoin: miter"/>
   </g>
   <g id="patch_71">
    <path d="M 206.824786 234.1575 
L 206.824786 225.495 
L 218.430878 225.495 
L 218.430878 234.1575 
L 206.824786 234.1575 
" clip-path="url(#pb510fa4399)" style="fill: none; stroke: #000000; stroke-width: 0.2; stroke-linejoin: miter"/>
   </g>
   <g id="patch_72">
    <path d="M 206.824786 242.82 
L 206.824786 234.1575 
L 218.430878 234.1575 
L 218.430878 242.82 
L 206.824786 242.82 
" clip-path="url(#pb510fa4399)" style="fill: none; stroke: #000000; stroke-width: 0.2; stroke-linejoin: miter"/>
   </g>
   <g id="patch_73">
    <path d="M 218.430878 234.1575 
L 218.430878 225.495 
L 230.03697 225.495 
L 230.03697 234.1575 
L 218.430878 234.1575 
" clip-path="url(#pb510fa4399)" style="fill: none; stroke: #000000; stroke-width: 0.2; stroke-linejoin: miter"/>
   </g>
   <g id="patch_74">
    <path d="M 218.430878 242.82 
L 218.430878 234.1575 
L 230.03697 234.1575 
L 230.03697 242.82 
L 218.430878 242.82 
" clip-path="url(#pb510fa4399)" style="fill: none; stroke: #000000; stroke-width: 0.2; stroke-linejoin: miter"/>
   </g>
   <g id="patch_75">
    <path d="M 137.188232 277.47 
L 137.188232 242.82 
L 183.612601 242.82 
L 183.612601 277.47 
L 137.188232 277.47 
" clip-path="url(#pb510fa4399)" style="fill: none; stroke: #000000; stroke-width: 0.2; stroke-linejoin: miter"/>
   </g>
   <g id="patch_76">
    <path d="M 137.188232 312.12 
L 137.188232 277.47 
L 183.612601 277.47 
L 183.612601 312.12 
L 137.188232 312.12 
" clip-path="url(#pb510fa4399)" style="fill: none; stroke: #000000; stroke-width: 0.2; stroke-linejoin: miter"/>
   </g>
   <g id="patch_77">
    <path d="M 183.612601 277.47 
L 183.612601 242.82 
L 230.03697 242.82 
L 230.03697 277.47 
L 183.612601 277.47 
" clip-path="url(#pb510fa4399)" style="fill: none; stroke: #000000; stroke-width: 0.2; stroke-linejoin: miter"/>
   </g>
   <g id="patch_78">
    <path d="M 183.612601 312.12 
L 183.612601 277.47 
L 230.03697 277.47 
L 230.03697 312.12 
L 183.612601 312.12 
" clip-path="url(#pb510fa4399)" style="fill: none; stroke: #000000; stroke-width: 0.2; stroke-linejoin: miter"/>
   </g>
   <g id="patch_79">
    <path d="M 230.03697 69.57 
L 230.03697 34.92 
L 276.461339 34.92 
L 276.461339 69.57 
L 230.03697 69.57 
" clip-path="url(#pb510fa4399)" style="fill: none; stroke: #000000; stroke-width: 0.2; stroke-linejoin: miter"/>
   </g>
   <g id="patch_80">
    <path d="M 230.03697 86.895 
L 230.03697 69.57 
L 253.249154 69.57 
L 253.249154 86.895 
L 230.03697 86.895 
" clip-path="url(#pb510fa4399)" style="fill: none; stroke: #000000; stroke-width: 0.2; stroke-linejoin: miter"/>
   </g>
   <g id="patch_81">
    <path d="M 230.03697 104.22 
L 230.03697 86.895 
L 253.249154 86.895 
L 253.249154 104.22 
L 230.03697 104.22 
" clip-path="url(#pb510fa4399)" style="fill: none; stroke: #000000; stroke-width: 0.2; stroke-linejoin: miter"/>
   </g>
   <g id="patch_82">
    <path d="M 253.249154 78.2325 
L 253.249154 69.57 
L 264.855246 69.57 
L 264.855246 78.2325 
L 253.249154 78.2325 
" clip-path="url(#pb510fa4399)" style="fill: none; stroke: #000000; stroke-width: 0.2; stroke-linejoin: miter"/>
   </g>
   <g id="patch_83">
    <path d="M 253.249154 86.895 
L 253.249154 78.2325 
L 264.855246 78.2325 
L 264.855246 86.895 
L 253.249154 86.895 
" clip-path="url(#pb510fa4399)" style="fill: none; stroke: #000000; stroke-width: 0.2; stroke-linejoin: miter"/>
   </g>
   <g id="patch_84">
    <path d="M 264.855246 78.2325 
L 264.855246 69.57 
L 276.461339 69.57 
L 276.461339 78.2325 
L 264.855246 78.2325 
" clip-path="url(#pb510fa4399)" style="fill: none; stroke: #000000; stroke-width: 0.2; stroke-linejoin: miter"/>
   </g>
   <g id="patch_85">
    <path d="M 264.855246 86.895 
L 264.855246 78.2325 
L 276.461339 78.2325 
L 276.461339 86.895 
L 264.855246 86.895 
" clip-path="url(#pb510fa4399)" style="fill: none; stroke: #000000; stroke-width: 0.2; stroke-linejoin: miter"/>
   </g>
   <g id="patch_86">
    <path d="M 253.249154 95.5575 
L 253.249154 86.895 
L 264.855246 86.895 
L 264.855246 95.5575 
L 253.249154 95.5575 
" clip-path="url(#pb510fa4399)" style="fill: none; stroke: #000000; stroke-width: 0.2; stroke-linejoin: miter"/>
   </g>
   <g id="patch_87">
    <path d="M 253.249154 104.22 
L 253.249154 95.5575 
L 264.855246 95.5575 
L 264.855246 104.22 
L 253.249154 104.22 
" clip-path="url(#pb510fa4399)" style="fill: none; stroke: #000000; stroke-width: 0.2; stroke-linejoin: miter"/>
   </g>
   <g id="patch_88">
    <path d="M 264.855246 95.5575 
L 264.855246 86.895 
L 276.461339 86.895 
L 276.461339 95.5575 
L 264.855246 95.5575 
" clip-path="url(#pb510fa4399)" style="fill: none; stroke: #000000; stroke-width: 0.2; stroke-linejoin: miter"/>
   </g>
   <g id="patch_89">
    <path d="M 264.855246 104.22 
L 264.855246 95.5575 
L 276.461339 95.5575 
L 276.461339 104.22 
L 264.855246 104.22 
" clip-path="url(#pb510fa4399)" style="fill: none; stroke: #000000; stroke-width: 0.2; stroke-linejoin: miter"/>
   </g>
   <g id="patch_90">
    <path d="M 276.461339 52.245 
L 276.461339 34.92 
L 299.673523 34.92 
L 299.673523 52.245 
L 276.461339 52.245 
" clip-path="url(#pb510fa4399)" style="fill: none; stroke: #000000; stroke-width: 0.2; stroke-linejoin: miter"/>
   </g>
   <g id="patch_91">
    <path d="M 276.461339 69.57 
L 276.461339 52.245 
L 299.673523 52.245 
L 299.673523 69.57 
L 276.461339 69.57 
" clip-path="url(#pb510fa4399)" style="fill: none; stroke: #000000; stroke-width: 0.2; stroke-linejoin: miter"/>
   </g>
   <g id="patch_92">
    <path d="M 299.673523 52.245 
L 299.673523 34.92 
L 322.885707 34.92 
L 322.885707 52.245 
L 299.673523 52.245 
" clip-path="url(#pb510fa4399)" style="fill: none; stroke: #000000; stroke-width: 0.2; stroke-linejoin: miter"/>
   </g>
   <g id="patch_93">
    <path d="M 299.673523 69.57 
L 299.673523 52.245 
L 322.885707 52.245 
L 322.885707 69.57 
L 299.673523 69.57 
" clip-path="url(#pb510fa4399)" style="fill: none; stroke: #000000; stroke-width: 0.2; stroke-linejoin: miter"/>
   </g>
   <g id="patch_94">
    <path d="M 276.461339 78.2325 
L 276.461339 69.57 
L 288.067431 69.57 
L 288.067431 78.2325 
L 276.461339 78.2325 
" clip-path="url(#pb510fa4399)" style="fill: none; stroke: #000000; stroke-width: 0.2; stroke-linejoin: miter"/>
   </g>
   <g id="patch_95">
    <path d="M 276.461339 86.895 
L 276.461339 78.2325 
L 288.067431 78.2325 
L 288.067431 86.895 
L 276.461339 86.895 
" clip-path="url(#pb510fa4399)" style="fill: none; stroke: #000000; stroke-width: 0.2; stroke-linejoin: miter"/>
   </g>
   <g id="patch_96">
    <path d="M 288.067431 78.2325 
L 288.067431 69.57 
L 299.673523 69.57 
L 299.673523 78.2325 
L 288.067431 78.2325 
" clip-path="url(#pb510fa4399)" style="fill: none; stroke: #000000; stroke-width: 0.2; stroke-linejoin: miter"/>
   </g>
   <g id="patch_97">
    <path d="M 288.067431 86.895 
L 288.067431 78.2325 
L 299.673523 78.2325 
L 299.673523 86.895 
L 288.067431 86.895 
" clip-path="url(#pb510fa4399)" style="fill: none; stroke: #000000; stroke-width: 0.2; stroke-linejoin: miter"/>
   </g>
   <g id="patch_98">
    <path d="M 276.461339 104.22 
L 276.461339 86.895 
L 299.673523 86.895 
L 299.673523 104.22 
L 276.461339 104.22 
" clip-path="url(#pb510fa4399)" style="fill: none; stroke: #000000; stroke-width: 0.2; stroke-linejoin: miter"/>
   </g>
   <g id="patch_99">
    <path d="M 299.673523 86.895 
L 299.673523 69.57 
L 322.885707 69.57 
L 322.885707 86.895 
L 299.673523 86.895 
" clip-path="url(#pb510fa4399)" style="fill: none; stroke: #000000; stroke-width: 0.2; stroke-linejoin: miter"/>
   </g>
   <g id="patch_100">
    <path d="M 299.673523 104.22 
L 299.673523 86.895 
L 322.885707 86.895 
L 322.885707 104.22 
L 299.673523 104.22 
" clip-path="url(#pb510fa4399)" style="fill: none; stroke: #000000; stroke-width: 0.2; stroke-linejoin: miter"/>
   </g>
   <g id="patch_101">
    <path d="M 230.03697 112.8825 
L 230.03697 104.22 
L 241.643062 104.22 
L 241.643062 112.8825 
L 230.03697 112.8825 
" clip-path="url(#pb510fa4399)" style="fill: none; stroke: #000000; stroke-width: 0.2; stroke-linejoin: miter"/>
   </g>
   <g id="patch_102">
    <path d="M 230.03697 121.545 
L 230.03697 112.8825 
L 241.643062 112.8825 
L 241.643062 121.545 
L 230.03697 121.545 
" clip-path="url(#pb510fa4399)" style="fill: none; stroke: #000000; stroke-width: 0.2; stroke-linejoin: miter"/>
   </g>
   <g id="patch_103">
    <path d="M 241.643062 112.8825 
L 241.643062 104.22 
L 253.249154 104.22 
L 253.249154 112.8825 
L 241.643062 112.8825 
" clip-path="url(#pb510fa4399)" style="fill: none; stroke: #000000; stroke-width: 0.2; stroke-linejoin: miter"/>
   </g>
   <g id="patch_104">
    <path d="M 241.643062 121.545 
L 241.643062 112.8825 
L 253.249154 112.8825 
L 253.249154 121.545 
L 241.643062 121.545 
" clip-path="url(#pb510fa4399)" style="fill: none; stroke: #000000; stroke-width: 0.2; stroke-linejoin: miter"/>
   </g>
   <g id="patch_105">
    <path d="M 230.03697 130.2075 
L 230.03697 121.545 
L 241.643062 121.545 
L 241.643062 130.2075 
L 230.03697 130.2075 
" clip-path="url(#pb510fa4399)" style="fill: none; stroke: #000000; stroke-width: 0.2; stroke-linejoin: miter"/>
   </g>
   <g id="patch_106">
    <path d="M 230.03697 134.53875 
L 230.03697 130.2075 
L 235.840016 130.2075 
L 235.840016 134.53875 
L 230.03697 134.53875 
" clip-path="url(#pb510fa4399)" style="fill: none; stroke: #000000; stroke-width: 0.2; stroke-linejoin: miter"/>
   </g>
   <g id="patch_107">
    <path d="M 230.03697 138.87 
L 230.03697 134.53875 
L 235.840016 134.53875 
L 235.840016 138.87 
L 230.03697 138.87 
" clip-path="url(#pb510fa4399)" style="fill: none; stroke: #000000; stroke-width: 0.2; stroke-linejoin: miter"/>
   </g>
   <g id="patch_108">
    <path d="M 235.840016 134.53875 
L 235.840016 130.2075 
L 241.643062 130.2075 
L 241.643062 134.53875 
L 235.840016 134.53875 
" clip-path="url(#pb510fa4399)" style="fill: none; stroke: #000000; stroke-width: 0.2; stroke-linejoin: miter"/>
   </g>
   <g id="patch_109">
    <path d="M 235.840016 138.87 
L 235.840016 134.53875 
L 241.643062 134.53875 
L 241.643062 138.87 
L 235.840016 138.87 
" clip-path="url(#pb510fa4399)" style="fill: none; stroke: #000000; stroke-width: 0.2; stroke-linejoin: miter"/>
   </g>
   <g id="patch_110">
    <path d="M 241.643062 130.2075 
L 241.643062 121.545 
L 253.249154 121.545 
L 253.249154 130.2075 
L 241.643062 130.2075 
" clip-path="url(#pb510fa4399)" style="fill: none; stroke: #000000; stroke-width: 0.2; stroke-linejoin: miter"/>
   </g>
   <g id="patch_111">
    <path d="M 241.643062 138.87 
L 241.643062 130.2075 
L 253.249154 130.2075 
L 253.249154 138.87 
L 241.643062 138.87 
" clip-path="url(#pb510fa4399)" style="fill: none; stroke: #000000; stroke-width: 0.2; stroke-linejoin: miter"/>
   </g>
   <g id="patch_112">
    <path d="M 253.249154 121.545 
L 253.249154 104.22 
L 276.461339 104.22 
L 276.461339 121.545 
L 253.249154 121.545 
" clip-path="url(#pb510fa4399)" style="fill: none; stroke: #000000; stroke-width: 0.2; stroke-linejoin: miter"/>
   </g>
   <g id="patch_113">
    <path d="M 253.249154 130.2075 
L 253.249154 121.545 
L 264.855246 121.545 
L 264.855246 130.2075 
L 253.249154 130.2075 
" clip-path="url(#pb510fa4399)" style="fill: none; stroke: #000000; stroke-width: 0.2; stroke-linejoin: miter"/>
   </g>
   <g id="patch_114">
    <path d="M 253.249154 138.87 
L 253.249154 130.2075 
L 264.855246 130.2075 
L 264.855246 138.87 
L 253.249154 138.87 
" clip-path="url(#pb510fa4399)" style="fill: none; stroke: #000000; stroke-width: 0.2; stroke-linejoin: miter"/>
   </g>
   <g id="patch_115">
    <path d="M 264.855246 130.2075 
L 264.855246 121.545 
L 276.461339 121.545 
L 276.461339 130.2075 
L 264.855246 130.2075 
" clip-path="url(#pb510fa4399)" style="fill: none; stroke: #000000; stroke-width: 0.2; stroke-linejoin: miter"/>
   </g>
   <g id="patch_116">
    <path d="M 264.855246 138.87 
L 264.855246 130.2075 
L 276.461339 130.2075 
L 276.461339 138.87 
L 264.855246 138.87 
" clip-path="url(#pb510fa4399)" style="fill: none; stroke: #000000; stroke-width: 0.2; stroke-linejoin: miter"/>
   </g>
   <g id="patch_117">
    <path d="M 230.03697 147.5325 
L 230.03697 138.87 
L 241.643062 138.87 
L 241.643062 147.5325 
L 230.03697 147.5325 
" clip-path="url(#pb510fa4399)" style="fill: none; stroke: #000000; stroke-width: 0.2; stroke-linejoin: miter"/>
   </g>
   <g id="patch_118">
    <path d="M 230.03697 156.195 
L 230.03697 147.5325 
L 241.643062 147.5325 
L 241.643062 156.195 
L 230.03697 156.195 
" clip-path="url(#pb510fa4399)" style="fill: none; stroke: #000000; stroke-width: 0.2; stroke-linejoin: miter"/>
   </g>
   <g id="patch_119">
    <path d="M 241.643062 147.5325 
L 241.643062 138.87 
L 253.249154 138.87 
L 253.249154 147.5325 
L 241.643062 147.5325 
" clip-path="url(#pb510fa4399)" style="fill: none; stroke: #000000; stroke-width: 0.2; stroke-linejoin: miter"/>
   </g>
   <g id="patch_120">
    <path d="M 241.643062 156.195 
L 241.643062 147.5325 
L 253.249154 147.5325 
L 253.249154 156.195 
L 241.643062 156.195 
" clip-path="url(#pb510fa4399)" style="fill: none; stroke: #000000; stroke-width: 0.2; stroke-linejoin: miter"/>
   </g>
   <g id="patch_121">
    <path d="M 230.03697 164.8575 
L 230.03697 156.195 
L 241.643062 156.195 
L 241.643062 164.8575 
L 230.03697 164.8575 
" clip-path="url(#pb510fa4399)" style="fill: none; stroke: #000000; stroke-width: 0.2; stroke-linejoin: miter"/>
   </g>
   <g id="patch_122">
    <path d="M 230.03697 173.52 
L 230.03697 164.8575 
L 241.643062 164.8575 
L 241.643062 173.52 
L 230.03697 173.52 
" clip-path="url(#pb510fa4399)" style="fill: none; stroke: #000000; stroke-width: 0.2; stroke-linejoin: miter"/>
   </g>
   <g id="patch_123">
    <path d="M 241.643062 160.52625 
L 241.643062 156.195 
L 247.446108 156.195 
L 247.446108 160.52625 
L 241.643062 160.52625 
" clip-path="url(#pb510fa4399)" style="fill: none; stroke: #000000; stroke-width: 0.2; stroke-linejoin: miter"/>
   </g>
   <g id="patch_124">
    <path d="M 241.643062 164.8575 
L 241.643062 160.52625 
L 247.446108 160.52625 
L 247.446108 164.8575 
L 241.643062 164.8575 
" clip-path="url(#pb510fa4399)" style="fill: none; stroke: #000000; stroke-width: 0.2; stroke-linejoin: miter"/>
   </g>
   <g id="patch_125">
    <path d="M 247.446108 160.52625 
L 247.446108 156.195 
L 253.249154 156.195 
L 253.249154 160.52625 
L 247.446108 160.52625 
" clip-path="url(#pb510fa4399)" style="fill: none; stroke: #000000; stroke-width: 0.2; stroke-linejoin: miter"/>
   </g>
   <g id="patch_126">
    <path d="M 247.446108 164.8575 
L 247.446108 160.52625 
L 253.249154 160.52625 
L 253.249154 164.8575 
L 247.446108 164.8575 
" clip-path="url(#pb510fa4399)" style="fill: none; stroke: #000000; stroke-width: 0.2; stroke-linejoin: miter"/>
   </g>
   <g id="patch_127">
    <path d="M 241.643062 169.18875 
L 241.643062 164.8575 
L 247.446108 164.8575 
L 247.446108 169.18875 
L 241.643062 169.18875 
" clip-path="url(#pb510fa4399)" style="fill: none; stroke: #000000; stroke-width: 0.2; stroke-linejoin: miter"/>
   </g>
   <g id="patch_128">
    <path d="M 241.643062 173.52 
L 241.643062 169.18875 
L 247.446108 169.18875 
L 247.446108 173.52 
L 241.643062 173.52 
" clip-path="url(#pb510fa4399)" style="fill: none; stroke: #000000; stroke-width: 0.2; stroke-linejoin: miter"/>
   </g>
   <g id="patch_129">
    <path d="M 247.446108 169.18875 
L 247.446108 164.8575 
L 253.249154 164.8575 
L 253.249154 169.18875 
L 247.446108 169.18875 
" clip-path="url(#pb510fa4399)" style="fill: none; stroke: #000000; stroke-width: 0.2; stroke-linejoin: miter"/>
   </g>
   <g id="patch_130">
    <path d="M 247.446108 173.52 
L 247.446108 169.18875 
L 253.249154 169.18875 
L 253.249154 173.52 
L 247.446108 173.52 
" clip-path="url(#pb510fa4399)" style="fill: none; stroke: #000000; stroke-width: 0.2; stroke-linejoin: miter"/>
   </g>
   <g id="patch_131">
    <path d="M 253.249154 143.20125 
L 253.249154 138.87 
L 259.0522 138.87 
L 259.0522 143.20125 
L 253.249154 143.20125 
" clip-path="url(#pb510fa4399)" style="fill: none; stroke: #000000; stroke-width: 0.2; stroke-linejoin: miter"/>
   </g>
   <g id="patch_132">
    <path d="M 253.249154 147.5325 
L 253.249154 143.20125 
L 259.0522 143.20125 
L 259.0522 147.5325 
L 253.249154 147.5325 
" clip-path="url(#pb510fa4399)" style="fill: none; stroke: #000000; stroke-width: 0.2; stroke-linejoin: miter"/>
   </g>
   <g id="patch_133">
    <path d="M 259.0522 143.20125 
L 259.0522 138.87 
L 264.855246 138.87 
L 264.855246 143.20125 
L 259.0522 143.20125 
" clip-path="url(#pb510fa4399)" style="fill: none; stroke: #000000; stroke-width: 0.2; stroke-linejoin: miter"/>
   </g>
   <g id="patch_134">
    <path d="M 259.0522 147.5325 
L 259.0522 143.20125 
L 264.855246 143.20125 
L 264.855246 147.5325 
L 259.0522 147.5325 
" clip-path="url(#pb510fa4399)" style="fill: none; stroke: #000000; stroke-width: 0.2; stroke-linejoin: miter"/>
   </g>
   <g id="patch_135">
    <path d="M 253.249154 156.195 
L 253.249154 147.5325 
L 264.855246 147.5325 
L 264.855246 156.195 
L 253.249154 156.195 
" clip-path="url(#pb510fa4399)" style="fill: none; stroke: #000000; stroke-width: 0.2; stroke-linejoin: miter"/>
   </g>
   <g id="patch_136">
    <path d="M 264.855246 147.5325 
L 264.855246 138.87 
L 276.461339 138.87 
L 276.461339 147.5325 
L 264.855246 147.5325 
" clip-path="url(#pb510fa4399)" style="fill: none; stroke: #000000; stroke-width: 0.2; stroke-linejoin: miter"/>
   </g>
   <g id="patch_137">
    <path d="M 264.855246 156.195 
L 264.855246 147.5325 
L 276.461339 147.5325 
L 276.461339 156.195 
L 264.855246 156.195 
" clip-path="url(#pb510fa4399)" style="fill: none; stroke: #000000; stroke-width: 0.2; stroke-linejoin: miter"/>
   </g>
   <g id="patch_138">
    <path d="M 253.249154 164.8575 
L 253.249154 156.195 
L 264.855246 156.195 
L 264.855246 164.8575 
L 253.249154 164.8575 
" clip-path="url(#pb510fa4399)" style="fill: none; stroke: #000000; stroke-width: 0.2; stroke-linejoin: miter"/>
   </g>
   <g id="patch_139">
    <path d="M 253.249154 173.52 
L 253.249154 164.8575 
L 264.855246 164.8575 
L 264.855246 173.52 
L 253.249154 173.52 
" clip-path="url(#pb510fa4399)" style="fill: none; stroke: #000000; stroke-width: 0.2; stroke-linejoin: miter"/>
   </g>
   <g id="patch_140">
    <path d="M 264.855246 164.8575 
L 264.855246 156.195 
L 276.461339 156.195 
L 276.461339 164.8575 
L 264.855246 164.8575 
" clip-path="url(#pb510fa4399)" style="fill: none; stroke: #000000; stroke-width: 0.2; stroke-linejoin: miter"/>
   </g>
   <g id="patch_141">
    <path d="M 264.855246 173.52 
L 264.855246 164.8575 
L 276.461339 164.8575 
L 276.461339 173.52 
L 264.855246 173.52 
" clip-path="url(#pb510fa4399)" style="fill: none; stroke: #000000; stroke-width: 0.2; stroke-linejoin: miter"/>
   </g>
   <g id="patch_142">
    <path d="M 276.461339 121.545 
L 276.461339 104.22 
L 299.673523 104.22 
L 299.673523 121.545 
L 276.461339 121.545 
" clip-path="url(#pb510fa4399)" style="fill: none; stroke: #000000; stroke-width: 0.2; stroke-linejoin: miter"/>
   </g>
   <g id="patch_143">
    <path d="M 276.461339 138.87 
L 276.461339 121.545 
L 299.673523 121.545 
L 299.673523 138.87 
L 276.461339 138.87 
" clip-path="url(#pb510fa4399)" style="fill: none; stroke: #000000; stroke-width: 0.2; stroke-linejoin: miter"/>
   </g>
   <g id="patch_144">
    <path d="M 299.673523 121.545 
L 299.673523 104.22 
L 322.885707 104.22 
L 322.885707 121.545 
L 299.673523 121.545 
" clip-path="url(#pb510fa4399)" style="fill: none; stroke: #000000; stroke-width: 0.2; stroke-linejoin: miter"/>
   </g>
   <g id="patch_145">
    <path d="M 299.673523 138.87 
L 299.673523 121.545 
L 322.885707 121.545 
L 322.885707 138.87 
L 299.673523 138.87 
" clip-path="url(#pb510fa4399)" style="fill: none; stroke: #000000; stroke-width: 0.2; stroke-linejoin: miter"/>
   </g>
   <g id="patch_146">
    <path d="M 276.461339 147.5325 
L 276.461339 138.87 
L 288.067431 138.87 
L 288.067431 147.5325 
L 276.461339 147.5325 
" clip-path="url(#pb510fa4399)" style="fill: none; stroke: #000000; stroke-width: 0.2; stroke-linejoin: miter"/>
   </g>
   <g id="patch_147">
    <path d="M 276.461339 156.195 
L 276.461339 147.5325 
L 288.067431 147.5325 
L 288.067431 156.195 
L 276.461339 156.195 
" clip-path="url(#pb510fa4399)" style="fill: none; stroke: #000000; stroke-width: 0.2; stroke-linejoin: miter"/>
   </g>
   <g id="patch_148">
    <path d="M 288.067431 147.5325 
L 288.067431 138.87 
L 299.673523 138.87 
L 299.673523 147.5325 
L 288.067431 147.5325 
" clip-path="url(#pb510fa4399)" style="fill: none; stroke: #000000; stroke-width: 0.2; stroke-linejoin: miter"/>
   </g>
   <g id="patch_149">
    <path d="M 288.067431 156.195 
L 288.067431 147.5325 
L 299.673523 147.5325 
L 299.673523 156.195 
L 288.067431 156.195 
" clip-path="url(#pb510fa4399)" style="fill: none; stroke: #000000; stroke-width: 0.2; stroke-linejoin: miter"/>
   </g>
   <g id="patch_150">
    <path d="M 276.461339 173.52 
L 276.461339 156.195 
L 299.673523 156.195 
L 299.673523 173.52 
L 276.461339 173.52 
" clip-path="url(#pb510fa4399)" style="fill: none; stroke: #000000; stroke-width: 0.2; stroke-linejoin: miter"/>
   </g>
   <g id="patch_151">
    <path d="M 299.673523 147.5325 
L 299.673523 138.87 
L 311.279615 138.87 
L 311.279615 147.5325 
L 299.673523 147.5325 
" clip-path="url(#pb510fa4399)" style="fill: none; stroke: #000000; stroke-width: 0.2; stroke-linejoin: miter"/>
   </g>
   <g id="patch_152">
    <path d="M 299.673523 156.195 
L 299.673523 147.5325 
L 311.279615 147.5325 
L 311.279615 156.195 
L 299.673523 156.195 
" clip-path="url(#pb510fa4399)" style="fill: none; stroke: #000000; stroke-width: 0.2; stroke-linejoin: miter"/>
   </g>
   <g id="patch_153">
    <path d="M 311.279615 147.5325 
L 311.279615 138.87 
L 322.885707 138.87 
L 322.885707 147.5325 
L 311.279615 147.5325 
" clip-path="url(#pb510fa4399)" style="fill: none; stroke: #000000; stroke-width: 0.2; stroke-linejoin: miter"/>
   </g>
   <g id="patch_154">
    <path d="M 311.279615 156.195 
L 311.279615 147.5325 
L 322.885707 147.5325 
L 322.885707 156.195 
L 311.279615 156.195 
" clip-path="url(#pb510fa4399)" style="fill: none; stroke: #000000; stroke-width: 0.2; stroke-linejoin: miter"/>
   </g>
   <g id="patch_155">
    <path d="M 299.673523 164.8575 
L 299.673523 156.195 
L 311.279615 156.195 
L 311.279615 164.8575 
L 299.673523 164.8575 
" clip-path="url(#pb510fa4399)" style="fill: none; stroke: #000000; stroke-width: 0.2; stroke-linejoin: miter"/>
   </g>
   <g id="patch_156">
    <path d="M 299.673523 173.52 
L 299.673523 164.8575 
L 311.279615 164.8575 
L 311.279615 173.52 
L 299.673523 173.52 
" clip-path="url(#pb510fa4399)" style="fill: none; stroke: #000000; stroke-width: 0.2; stroke-linejoin: miter"/>
   </g>
   <g id="patch_157">
    <path d="M 311.279615 164.8575 
L 311.279615 156.195 
L 322.885707 156.195 
L 322.885707 164.8575 
L 311.279615 164.8575 
" clip-path="url(#pb510fa4399)" style="fill: none; stroke: #000000; stroke-width: 0.2; stroke-linejoin: miter"/>
   </g>
   <g id="patch_158">
    <path d="M 311.279615 173.52 
L 311.279615 164.8575 
L 322.885707 164.8575 
L 322.885707 173.52 
L 311.279615 173.52 
" clip-path="url(#pb510fa4399)" style="fill: none; stroke: #000000; stroke-width: 0.2; stroke-linejoin: miter"/>
   </g>
   <g id="patch_159">
    <path d="M 322.885707 104.22 
L 322.885707 34.92 
L 415.734445 34.92 
L 415.734445 104.22 
L 322.885707 104.22 
" clip-path="url(#pb510fa4399)" style="fill: none; stroke: #000000; stroke-width: 0.2; stroke-linejoin: miter"/>
   </g>
   <g id="patch_160">
    <path d="M 322.885707 121.545 
L 322.885707 104.22 
L 346.097892 104.22 
L 346.097892 121.545 
L 322.885707 121.545 
" clip-path="url(#pb510fa4399)" style="fill: none; stroke: #000000; stroke-width: 0.2; stroke-linejoin: miter"/>
   </g>
   <g id="patch_161">
    <path d="M 322.885707 130.2075 
L 322.885707 121.545 
L 334.4918 121.545 
L 334.4918 130.2075 
L 322.885707 130.2075 
" clip-path="url(#pb510fa4399)" style="fill: none; stroke: #000000; stroke-width: 0.2; stroke-linejoin: miter"/>
   </g>
   <g id="patch_162">
    <path d="M 322.885707 134.53875 
L 322.885707 130.2075 
L 328.688753 130.2075 
L 328.688753 134.53875 
L 322.885707 134.53875 
" clip-path="url(#pb510fa4399)" style="fill: none; stroke: #000000; stroke-width: 0.2; stroke-linejoin: miter"/>
   </g>
   <g id="patch_163">
    <path d="M 322.885707 138.87 
L 322.885707 134.53875 
L 328.688753 134.53875 
L 328.688753 138.87 
L 322.885707 138.87 
" clip-path="url(#pb510fa4399)" style="fill: none; stroke: #000000; stroke-width: 0.2; stroke-linejoin: miter"/>
   </g>
   <g id="patch_164">
    <path d="M 328.688753 134.53875 
L 328.688753 130.2075 
L 334.4918 130.2075 
L 334.4918 134.53875 
L 328.688753 134.53875 
" clip-path="url(#pb510fa4399)" style="fill: none; stroke: #000000; stroke-width: 0.2; stroke-linejoin: miter"/>
   </g>
   <g id="patch_165">
    <path d="M 328.688753 138.87 
L 328.688753 134.53875 
L 334.4918 134.53875 
L 334.4918 138.87 
L 328.688753 138.87 
" clip-path="url(#pb510fa4399)" style="fill: none; stroke: #000000; stroke-width: 0.2; stroke-linejoin: miter"/>
   </g>
   <g id="patch_166">
    <path d="M 334.4918 130.2075 
L 334.4918 121.545 
L 346.097892 121.545 
L 346.097892 130.2075 
L 334.4918 130.2075 
" clip-path="url(#pb510fa4399)" style="fill: none; stroke: #000000; stroke-width: 0.2; stroke-linejoin: miter"/>
   </g>
   <g id="patch_167">
    <path d="M 334.4918 134.53875 
L 334.4918 130.2075 
L 340.294846 130.2075 
L 340.294846 134.53875 
L 334.4918 134.53875 
" clip-path="url(#pb510fa4399)" style="fill: none; stroke: #000000; stroke-width: 0.2; stroke-linejoin: miter"/>
   </g>
   <g id="patch_168">
    <path d="M 334.4918 138.87 
L 334.4918 134.53875 
L 340.294846 134.53875 
L 340.294846 138.87 
L 334.4918 138.87 
" clip-path="url(#pb510fa4399)" style="fill: none; stroke: #000000; stroke-width: 0.2; stroke-linejoin: miter"/>
   </g>
   <g id="patch_169">
    <path d="M 340.294846 134.53875 
L 340.294846 130.2075 
L 346.097892 130.2075 
L 346.097892 134.53875 
L 340.294846 134.53875 
" clip-path="url(#pb510fa4399)" style="fill: none; stroke: #000000; stroke-width: 0.2; stroke-linejoin: miter"/>
   </g>
   <g id="patch_170">
    <path d="M 340.294846 138.87 
L 340.294846 134.53875 
L 346.097892 134.53875 
L 346.097892 138.87 
L 340.294846 138.87 
" clip-path="url(#pb510fa4399)" style="fill: none; stroke: #000000; stroke-width: 0.2; stroke-linejoin: miter"/>
   </g>
   <g id="patch_171">
    <path d="M 346.097892 121.545 
L 346.097892 104.22 
L 369.310076 104.22 
L 369.310076 121.545 
L 346.097892 121.545 
" clip-path="url(#pb510fa4399)" style="fill: none; stroke: #000000; stroke-width: 0.2; stroke-linejoin: miter"/>
   </g>
   <g id="patch_172">
    <path d="M 346.097892 130.2075 
L 346.097892 121.545 
L 357.703984 121.545 
L 357.703984 130.2075 
L 346.097892 130.2075 
" clip-path="url(#pb510fa4399)" style="fill: none; stroke: #000000; stroke-width: 0.2; stroke-linejoin: miter"/>
   </g>
   <g id="patch_173">
    <path d="M 346.097892 138.87 
L 346.097892 130.2075 
L 357.703984 130.2075 
L 357.703984 138.87 
L 346.097892 138.87 
" clip-path="url(#pb510fa4399)" style="fill: none; stroke: #000000; stroke-width: 0.2; stroke-linejoin: miter"/>
   </g>
   <g id="patch_174">
    <path d="M 357.703984 130.2075 
L 357.703984 121.545 
L 369.310076 121.545 
L 369.310076 130.2075 
L 357.703984 130.2075 
" clip-path="url(#pb510fa4399)" style="fill: none; stroke: #000000; stroke-width: 0.2; stroke-linejoin: miter"/>
   </g>
   <g id="patch_175">
    <path d="M 357.703984 138.87 
L 357.703984 130.2075 
L 369.310076 130.2075 
L 369.310076 138.87 
L 357.703984 138.87 
" clip-path="url(#pb510fa4399)" style="fill: none; stroke: #000000; stroke-width: 0.2; stroke-linejoin: miter"/>
   </g>
   <g id="patch_176">
    <path d="M 322.885707 143.20125 
L 322.885707 138.87 
L 328.688753 138.87 
L 328.688753 143.20125 
L 322.885707 143.20125 
" clip-path="url(#pb510fa4399)" style="fill: none; stroke: #000000; stroke-width: 0.2; stroke-linejoin: miter"/>
   </g>
   <g id="patch_177">
    <path d="M 322.885707 147.5325 
L 322.885707 143.20125 
L 328.688753 143.20125 
L 328.688753 147.5325 
L 322.885707 147.5325 
" clip-path="url(#pb510fa4399)" style="fill: none; stroke: #000000; stroke-width: 0.2; stroke-linejoin: miter"/>
   </g>
   <g id="patch_178">
    <path d="M 328.688753 143.20125 
L 328.688753 138.87 
L 334.4918 138.87 
L 334.4918 143.20125 
L 328.688753 143.20125 
" clip-path="url(#pb510fa4399)" style="fill: none; stroke: #000000; stroke-width: 0.2; stroke-linejoin: miter"/>
   </g>
   <g id="patch_179">
    <path d="M 328.688753 147.5325 
L 328.688753 143.20125 
L 334.4918 143.20125 
L 334.4918 147.5325 
L 328.688753 147.5325 
" clip-path="url(#pb510fa4399)" style="fill: none; stroke: #000000; stroke-width: 0.2; stroke-linejoin: miter"/>
   </g>
   <g id="patch_180">
    <path d="M 322.885707 156.195 
L 322.885707 147.5325 
L 334.4918 147.5325 
L 334.4918 156.195 
L 322.885707 156.195 
" clip-path="url(#pb510fa4399)" style="fill: none; stroke: #000000; stroke-width: 0.2; stroke-linejoin: miter"/>
   </g>
   <g id="patch_181">
    <path d="M 334.4918 147.5325 
L 334.4918 138.87 
L 346.097892 138.87 
L 346.097892 147.5325 
L 334.4918 147.5325 
" clip-path="url(#pb510fa4399)" style="fill: none; stroke: #000000; stroke-width: 0.2; stroke-linejoin: miter"/>
   </g>
   <g id="patch_182">
    <path d="M 334.4918 156.195 
L 334.4918 147.5325 
L 346.097892 147.5325 
L 346.097892 156.195 
L 334.4918 156.195 
" clip-path="url(#pb510fa4399)" style="fill: none; stroke: #000000; stroke-width: 0.2; stroke-linejoin: miter"/>
   </g>
   <g id="patch_183">
    <path d="M 322.885707 173.52 
L 322.885707 156.195 
L 346.097892 156.195 
L 346.097892 173.52 
L 322.885707 173.52 
" clip-path="url(#pb510fa4399)" style="fill: none; stroke: #000000; stroke-width: 0.2; stroke-linejoin: miter"/>
   </g>
   <g id="patch_184">
    <path d="M 346.097892 156.195 
L 346.097892 138.87 
L 369.310076 138.87 
L 369.310076 156.195 
L 346.097892 156.195 
" clip-path="url(#pb510fa4399)" style="fill: none; stroke: #000000; stroke-width: 0.2; stroke-linejoin: miter"/>
   </g>
   <g id="patch_185">
    <path d="M 346.097892 173.52 
L 346.097892 156.195 
L 369.310076 156.195 
L 369.310076 173.52 
L 346.097892 173.52 
" clip-path="url(#pb510fa4399)" style="fill: none; stroke: #000000; stroke-width: 0.2; stroke-linejoin: miter"/>
   </g>
   <g id="patch_186">
    <path d="M 369.310076 138.87 
L 369.310076 104.22 
L 415.734445 104.22 
L 415.734445 138.87 
L 369.310076 138.87 
" clip-path="url(#pb510fa4399)" style="fill: none; stroke: #000000; stroke-width: 0.2; stroke-linejoin: miter"/>
   </g>
   <g id="patch_187">
    <path d="M 369.310076 156.195 
L 369.310076 138.87 
L 392.52226 138.87 
L 392.52226 156.195 
L 369.310076 156.195 
" clip-path="url(#pb510fa4399)" style="fill: none; stroke: #000000; stroke-width: 0.2; stroke-linejoin: miter"/>
   </g>
   <g id="patch_188">
    <path d="M 369.310076 173.52 
L 369.310076 156.195 
L 392.52226 156.195 
L 392.52226 173.52 
L 369.310076 173.52 
" clip-path="url(#pb510fa4399)" style="fill: none; stroke: #000000; stroke-width: 0.2; stroke-linejoin: miter"/>
   </g>
   <g id="patch_189">
    <path d="M 392.52226 156.195 
L 392.52226 138.87 
L 415.734445 138.87 
L 415.734445 156.195 
L 392.52226 156.195 
" clip-path="url(#pb510fa4399)" style="fill: none; stroke: #000000; stroke-width: 0.2; stroke-linejoin: miter"/>
   </g>
   <g id="patch_190">
    <path d="M 392.52226 173.52 
L 392.52226 156.195 
L 415.734445 156.195 
L 415.734445 173.52 
L 392.52226 173.52 
" clip-path="url(#pb510fa4399)" style="fill: none; stroke: #000000; stroke-width: 0.2; stroke-linejoin: miter"/>
   </g>
   <g id="patch_191">
    <path d="M 230.03697 182.1825 
L 230.03697 173.52 
L 241.643062 173.52 
L 241.643062 182.1825 
L 230.03697 182.1825 
" clip-path="url(#pb510fa4399)" style="fill: none; stroke: #000000; stroke-width: 0.2; stroke-linejoin: miter"/>
   </g>
   <g id="patch_192">
    <path d="M 230.03697 190.845 
L 230.03697 182.1825 
L 241.643062 182.1825 
L 241.643062 190.845 
L 230.03697 190.845 
" clip-path="url(#pb510fa4399)" style="fill: none; stroke: #000000; stroke-width: 0.2; stroke-linejoin: miter"/>
   </g>
   <g id="patch_193">
    <path d="M 241.643062 182.1825 
L 241.643062 173.52 
L 253.249154 173.52 
L 253.249154 182.1825 
L 241.643062 182.1825 
" clip-path="url(#pb510fa4399)" style="fill: none; stroke: #000000; stroke-width: 0.2; stroke-linejoin: miter"/>
   </g>
   <g id="patch_194">
    <path d="M 241.643062 190.845 
L 241.643062 182.1825 
L 253.249154 182.1825 
L 253.249154 190.845 
L 241.643062 190.845 
" clip-path="url(#pb510fa4399)" style="fill: none; stroke: #000000; stroke-width: 0.2; stroke-linejoin: miter"/>
   </g>
   <g id="patch_195">
    <path d="M 230.03697 199.5075 
L 230.03697 190.845 
L 241.643062 190.845 
L 241.643062 199.5075 
L 230.03697 199.5075 
" clip-path="url(#pb510fa4399)" style="fill: none; stroke: #000000; stroke-width: 0.2; stroke-linejoin: miter"/>
   </g>
   <g id="patch_196">
    <path d="M 230.03697 208.17 
L 230.03697 199.5075 
L 241.643062 199.5075 
L 241.643062 208.17 
L 230.03697 208.17 
" clip-path="url(#pb510fa4399)" style="fill: none; stroke: #000000; stroke-width: 0.2; stroke-linejoin: miter"/>
   </g>
   <g id="patch_197">
    <path d="M 241.643062 199.5075 
L 241.643062 190.845 
L 253.249154 190.845 
L 253.249154 199.5075 
L 241.643062 199.5075 
" clip-path="url(#pb510fa4399)" style="fill: none; stroke: #000000; stroke-width: 0.2; stroke-linejoin: miter"/>
   </g>
   <g id="patch_198">
    <path d="M 241.643062 208.17 
L 241.643062 199.5075 
L 253.249154 199.5075 
L 253.249154 208.17 
L 241.643062 208.17 
" clip-path="url(#pb510fa4399)" style="fill: none; stroke: #000000; stroke-width: 0.2; stroke-linejoin: miter"/>
   </g>
   <g id="patch_199">
    <path d="M 253.249154 182.1825 
L 253.249154 173.52 
L 264.855246 173.52 
L 264.855246 182.1825 
L 253.249154 182.1825 
" clip-path="url(#pb510fa4399)" style="fill: none; stroke: #000000; stroke-width: 0.2; stroke-linejoin: miter"/>
   </g>
   <g id="patch_200">
    <path d="M 253.249154 190.845 
L 253.249154 182.1825 
L 264.855246 182.1825 
L 264.855246 190.845 
L 253.249154 190.845 
" clip-path="url(#pb510fa4399)" style="fill: none; stroke: #000000; stroke-width: 0.2; stroke-linejoin: miter"/>
   </g>
   <g id="patch_201">
    <path d="M 264.855246 182.1825 
L 264.855246 173.52 
L 276.461339 173.52 
L 276.461339 182.1825 
L 264.855246 182.1825 
" clip-path="url(#pb510fa4399)" style="fill: none; stroke: #000000; stroke-width: 0.2; stroke-linejoin: miter"/>
   </g>
   <g id="patch_202">
    <path d="M 264.855246 190.845 
L 264.855246 182.1825 
L 276.461339 182.1825 
L 276.461339 190.845 
L 264.855246 190.845 
" clip-path="url(#pb510fa4399)" style="fill: none; stroke: #000000; stroke-width: 0.2; stroke-linejoin: miter"/>
   </g>
   <g id="patch_203">
    <path d="M 253.249154 199.5075 
L 253.249154 190.845 
L 264.855246 190.845 
L 264.855246 199.5075 
L 253.249154 199.5075 
" clip-path="url(#pb510fa4399)" style="fill: none; stroke: #000000; stroke-width: 0.2; stroke-linejoin: miter"/>
   </g>
   <g id="patch_204">
    <path d="M 253.249154 208.17 
L 253.249154 199.5075 
L 264.855246 199.5075 
L 264.855246 208.17 
L 253.249154 208.17 
" clip-path="url(#pb510fa4399)" style="fill: none; stroke: #000000; stroke-width: 0.2; stroke-linejoin: miter"/>
   </g>
   <g id="patch_205">
    <path d="M 264.855246 199.5075 
L 264.855246 190.845 
L 276.461339 190.845 
L 276.461339 199.5075 
L 264.855246 199.5075 
" clip-path="url(#pb510fa4399)" style="fill: none; stroke: #000000; stroke-width: 0.2; stroke-linejoin: miter"/>
   </g>
   <g id="patch_206">
    <path d="M 264.855246 208.17 
L 264.855246 199.5075 
L 276.461339 199.5075 
L 276.461339 208.17 
L 264.855246 208.17 
" clip-path="url(#pb510fa4399)" style="fill: none; stroke: #000000; stroke-width: 0.2; stroke-linejoin: miter"/>
   </g>
   <g id="patch_207">
    <path d="M 230.03697 216.8325 
L 230.03697 208.17 
L 241.643062 208.17 
L 241.643062 216.8325 
L 230.03697 216.8325 
" clip-path="url(#pb510fa4399)" style="fill: none; stroke: #000000; stroke-width: 0.2; stroke-linejoin: miter"/>
   </g>
   <g id="patch_208">
    <path d="M 230.03697 225.495 
L 230.03697 216.8325 
L 241.643062 216.8325 
L 241.643062 225.495 
L 230.03697 225.495 
" clip-path="url(#pb510fa4399)" style="fill: none; stroke: #000000; stroke-width: 0.2; stroke-linejoin: miter"/>
   </g>
   <g id="patch_209">
    <path d="M 241.643062 216.8325 
L 241.643062 208.17 
L 253.249154 208.17 
L 253.249154 216.8325 
L 241.643062 216.8325 
" clip-path="url(#pb510fa4399)" style="fill: none; stroke: #000000; stroke-width: 0.2; stroke-linejoin: miter"/>
   </g>
   <g id="patch_210">
    <path d="M 241.643062 225.495 
L 241.643062 216.8325 
L 253.249154 216.8325 
L 253.249154 225.495 
L 241.643062 225.495 
" clip-path="url(#pb510fa4399)" style="fill: none; stroke: #000000; stroke-width: 0.2; stroke-linejoin: miter"/>
   </g>
   <g id="patch_211">
    <path d="M 230.03697 234.1575 
L 230.03697 225.495 
L 241.643062 225.495 
L 241.643062 234.1575 
L 230.03697 234.1575 
" clip-path="url(#pb510fa4399)" style="fill: none; stroke: #000000; stroke-width: 0.2; stroke-linejoin: miter"/>
   </g>
   <g id="patch_212">
    <path d="M 230.03697 242.82 
L 230.03697 234.1575 
L 241.643062 234.1575 
L 241.643062 242.82 
L 230.03697 242.82 
" clip-path="url(#pb510fa4399)" style="fill: none; stroke: #000000; stroke-width: 0.2; stroke-linejoin: miter"/>
   </g>
   <g id="patch_213">
    <path d="M 241.643062 234.1575 
L 241.643062 225.495 
L 253.249154 225.495 
L 253.249154 234.1575 
L 241.643062 234.1575 
" clip-path="url(#pb510fa4399)" style="fill: none; stroke: #000000; stroke-width: 0.2; stroke-linejoin: miter"/>
   </g>
   <g id="patch_214">
    <path d="M 241.643062 242.82 
L 241.643062 234.1575 
L 253.249154 234.1575 
L 253.249154 242.82 
L 241.643062 242.82 
" clip-path="url(#pb510fa4399)" style="fill: none; stroke: #000000; stroke-width: 0.2; stroke-linejoin: miter"/>
   </g>
   <g id="patch_215">
    <path d="M 253.249154 216.8325 
L 253.249154 208.17 
L 264.855246 208.17 
L 264.855246 216.8325 
L 253.249154 216.8325 
" clip-path="url(#pb510fa4399)" style="fill: none; stroke: #000000; stroke-width: 0.2; stroke-linejoin: miter"/>
   </g>
   <g id="patch_216">
    <path d="M 253.249154 225.495 
L 253.249154 216.8325 
L 264.855246 216.8325 
L 264.855246 225.495 
L 253.249154 225.495 
" clip-path="url(#pb510fa4399)" style="fill: none; stroke: #000000; stroke-width: 0.2; stroke-linejoin: miter"/>
   </g>
   <g id="patch_217">
    <path d="M 264.855246 216.8325 
L 264.855246 208.17 
L 276.461339 208.17 
L 276.461339 216.8325 
L 264.855246 216.8325 
" clip-path="url(#pb510fa4399)" style="fill: none; stroke: #000000; stroke-width: 0.2; stroke-linejoin: miter"/>
   </g>
   <g id="patch_218">
    <path d="M 264.855246 225.495 
L 264.855246 216.8325 
L 276.461339 216.8325 
L 276.461339 225.495 
L 264.855246 225.495 
" clip-path="url(#pb510fa4399)" style="fill: none; stroke: #000000; stroke-width: 0.2; stroke-linejoin: miter"/>
   </g>
   <g id="patch_219">
    <path d="M 253.249154 234.1575 
L 253.249154 225.495 
L 264.855246 225.495 
L 264.855246 234.1575 
L 253.249154 234.1575 
" clip-path="url(#pb510fa4399)" style="fill: none; stroke: #000000; stroke-width: 0.2; stroke-linejoin: miter"/>
   </g>
   <g id="patch_220">
    <path d="M 253.249154 242.82 
L 253.249154 234.1575 
L 264.855246 234.1575 
L 264.855246 242.82 
L 253.249154 242.82 
" clip-path="url(#pb510fa4399)" style="fill: none; stroke: #000000; stroke-width: 0.2; stroke-linejoin: miter"/>
   </g>
   <g id="patch_221">
    <path d="M 264.855246 234.1575 
L 264.855246 225.495 
L 276.461339 225.495 
L 276.461339 234.1575 
L 264.855246 234.1575 
" clip-path="url(#pb510fa4399)" style="fill: none; stroke: #000000; stroke-width: 0.2; stroke-linejoin: miter"/>
   </g>
   <g id="patch_222">
    <path d="M 264.855246 242.82 
L 264.855246 234.1575 
L 276.461339 234.1575 
L 276.461339 242.82 
L 264.855246 242.82 
" clip-path="url(#pb510fa4399)" style="fill: none; stroke: #000000; stroke-width: 0.2; stroke-linejoin: miter"/>
   </g>
   <g id="patch_223">
    <path d="M 276.461339 190.845 
L 276.461339 173.52 
L 299.673523 173.52 
L 299.673523 190.845 
L 276.461339 190.845 
" clip-path="url(#pb510fa4399)" style="fill: none; stroke: #000000; stroke-width: 0.2; stroke-linejoin: miter"/>
   </g>
   <g id="patch_224">
    <path d="M 276.461339 199.5075 
L 276.461339 190.845 
L 288.067431 190.845 
L 288.067431 199.5075 
L 276.461339 199.5075 
" clip-path="url(#pb510fa4399)" style="fill: none; stroke: #000000; stroke-width: 0.2; stroke-linejoin: miter"/>
   </g>
   <g id="patch_225">
    <path d="M 276.461339 208.17 
L 276.461339 199.5075 
L 288.067431 199.5075 
L 288.067431 208.17 
L 276.461339 208.17 
" clip-path="url(#pb510fa4399)" style="fill: none; stroke: #000000; stroke-width: 0.2; stroke-linejoin: miter"/>
   </g>
   <g id="patch_226">
    <path d="M 288.067431 199.5075 
L 288.067431 190.845 
L 299.673523 190.845 
L 299.673523 199.5075 
L 288.067431 199.5075 
" clip-path="url(#pb510fa4399)" style="fill: none; stroke: #000000; stroke-width: 0.2; stroke-linejoin: miter"/>
   </g>
   <g id="patch_227">
    <path d="M 288.067431 208.17 
L 288.067431 199.5075 
L 299.673523 199.5075 
L 299.673523 208.17 
L 288.067431 208.17 
" clip-path="url(#pb510fa4399)" style="fill: none; stroke: #000000; stroke-width: 0.2; stroke-linejoin: miter"/>
   </g>
   <g id="patch_228">
    <path d="M 299.673523 182.1825 
L 299.673523 173.52 
L 311.279615 173.52 
L 311.279615 182.1825 
L 299.673523 182.1825 
" clip-path="url(#pb510fa4399)" style="fill: none; stroke: #000000; stroke-width: 0.2; stroke-linejoin: miter"/>
   </g>
   <g id="patch_229">
    <path d="M 299.673523 190.845 
L 299.673523 182.1825 
L 311.279615 182.1825 
L 311.279615 190.845 
L 299.673523 190.845 
" clip-path="url(#pb510fa4399)" style="fill: none; stroke: #000000; stroke-width: 0.2; stroke-linejoin: miter"/>
   </g>
   <g id="patch_230">
    <path d="M 311.279615 182.1825 
L 311.279615 173.52 
L 322.885707 173.52 
L 322.885707 182.1825 
L 311.279615 182.1825 
" clip-path="url(#pb510fa4399)" style="fill: none; stroke: #000000; stroke-width: 0.2; stroke-linejoin: miter"/>
   </g>
   <g id="patch_231">
    <path d="M 311.279615 190.845 
L 311.279615 182.1825 
L 322.885707 182.1825 
L 322.885707 190.845 
L 311.279615 190.845 
" clip-path="url(#pb510fa4399)" style="fill: none; stroke: #000000; stroke-width: 0.2; stroke-linejoin: miter"/>
   </g>
   <g id="patch_232">
    <path d="M 299.673523 208.17 
L 299.673523 190.845 
L 322.885707 190.845 
L 322.885707 208.17 
L 299.673523 208.17 
" clip-path="url(#pb510fa4399)" style="fill: none; stroke: #000000; stroke-width: 0.2; stroke-linejoin: miter"/>
   </g>
   <g id="patch_233">
    <path d="M 276.461339 242.82 
L 276.461339 208.17 
L 322.885707 208.17 
L 322.885707 242.82 
L 276.461339 242.82 
" clip-path="url(#pb510fa4399)" style="fill: none; stroke: #000000; stroke-width: 0.2; stroke-linejoin: miter"/>
   </g>
   <g id="patch_234">
    <path d="M 230.03697 251.4825 
L 230.03697 242.82 
L 241.643062 242.82 
L 241.643062 251.4825 
L 230.03697 251.4825 
" clip-path="url(#pb510fa4399)" style="fill: none; stroke: #000000; stroke-width: 0.2; stroke-linejoin: miter"/>
   </g>
   <g id="patch_235">
    <path d="M 230.03697 260.145 
L 230.03697 251.4825 
L 241.643062 251.4825 
L 241.643062 260.145 
L 230.03697 260.145 
" clip-path="url(#pb510fa4399)" style="fill: none; stroke: #000000; stroke-width: 0.2; stroke-linejoin: miter"/>
   </g>
   <g id="patch_236">
    <path d="M 241.643062 251.4825 
L 241.643062 242.82 
L 253.249154 242.82 
L 253.249154 251.4825 
L 241.643062 251.4825 
" clip-path="url(#pb510fa4399)" style="fill: none; stroke: #000000; stroke-width: 0.2; stroke-linejoin: miter"/>
   </g>
   <g id="patch_237">
    <path d="M 241.643062 260.145 
L 241.643062 251.4825 
L 253.249154 251.4825 
L 253.249154 260.145 
L 241.643062 260.145 
" clip-path="url(#pb510fa4399)" style="fill: none; stroke: #000000; stroke-width: 0.2; stroke-linejoin: miter"/>
   </g>
   <g id="patch_238">
    <path d="M 230.03697 277.47 
L 230.03697 260.145 
L 253.249154 260.145 
L 253.249154 277.47 
L 230.03697 277.47 
" clip-path="url(#pb510fa4399)" style="fill: none; stroke: #000000; stroke-width: 0.2; stroke-linejoin: miter"/>
   </g>
   <g id="patch_239">
    <path d="M 253.249154 260.145 
L 253.249154 242.82 
L 276.461339 242.82 
L 276.461339 260.145 
L 253.249154 260.145 
" clip-path="url(#pb510fa4399)" style="fill: none; stroke: #000000; stroke-width: 0.2; stroke-linejoin: miter"/>
   </g>
   <g id="patch_240">
    <path d="M 253.249154 277.47 
L 253.249154 260.145 
L 276.461339 260.145 
L 276.461339 277.47 
L 253.249154 277.47 
" clip-path="url(#pb510fa4399)" style="fill: none; stroke: #000000; stroke-width: 0.2; stroke-linejoin: miter"/>
   </g>
   <g id="patch_241">
    <path d="M 230.03697 312.12 
L 230.03697 277.47 
L 276.461339 277.47 
L 276.461339 312.12 
L 230.03697 312.12 
" clip-path="url(#pb510fa4399)" style="fill: none; stroke: #000000; stroke-width: 0.2; stroke-linejoin: miter"/>
   </g>
   <g id="patch_242">
    <path d="M 276.461339 277.47 
L 276.461339 242.82 
L 322.885707 242.82 
L 322.885707 277.47 
L 276.461339 277.47 
" clip-path="url(#pb510fa4399)" style="fill: none; stroke: #000000; stroke-width: 0.2; stroke-linejoin: miter"/>
   </g>
   <g id="patch_243">
    <path d="M 276.461339 312.12 
L 276.461339 277.47 
L 322.885707 277.47 
L 322.885707 312.12 
L 276.461339 312.12 
" clip-path="url(#pb510fa4399)" style="fill: none; stroke: #000000; stroke-width: 0.2; stroke-linejoin: miter"/>
   </g>
   <g id="patch_244">
    <path d="M 322.885707 182.1825 
L 322.885707 173.52 
L 334.4918 173.52 
L 334.4918 182.1825 
L 322.885707 182.1825 
" clip-path="url(#pb510fa4399)" style="fill: none; stroke: #000000; stroke-width: 0.2; stroke-linejoin: miter"/>
   </g>
   <g id="patch_245">
    <path d="M 322.885707 190.845 
L 322.885707 182.1825 
L 334.4918 182.1825 
L 334.4918 190.845 
L 322.885707 190.845 
" clip-path="url(#pb510fa4399)" style="fill: none; stroke: #000000; stroke-width: 0.2; stroke-linejoin: miter"/>
   </g>
   <g id="patch_246">
    <path d="M 334.4918 182.1825 
L 334.4918 173.52 
L 346.097892 173.52 
L 346.097892 182.1825 
L 334.4918 182.1825 
" clip-path="url(#pb510fa4399)" style="fill: none; stroke: #000000; stroke-width: 0.2; stroke-linejoin: miter"/>
   </g>
   <g id="patch_247">
    <path d="M 334.4918 190.845 
L 334.4918 182.1825 
L 346.097892 182.1825 
L 346.097892 190.845 
L 334.4918 190.845 
" clip-path="url(#pb510fa4399)" style="fill: none; stroke: #000000; stroke-width: 0.2; stroke-linejoin: miter"/>
   </g>
   <g id="patch_248">
    <path d="M 322.885707 208.17 
L 322.885707 190.845 
L 346.097892 190.845 
L 346.097892 208.17 
L 322.885707 208.17 
" clip-path="url(#pb510fa4399)" style="fill: none; stroke: #000000; stroke-width: 0.2; stroke-linejoin: miter"/>
   </g>
   <g id="patch_249">
    <path d="M 346.097892 190.845 
L 346.097892 173.52 
L 369.310076 173.52 
L 369.310076 190.845 
L 346.097892 190.845 
" clip-path="url(#pb510fa4399)" style="fill: none; stroke: #000000; stroke-width: 0.2; stroke-linejoin: miter"/>
   </g>
   <g id="patch_250">
    <path d="M 346.097892 208.17 
L 346.097892 190.845 
L 369.310076 190.845 
L 369.310076 208.17 
L 346.097892 208.17 
" clip-path="url(#pb510fa4399)" style="fill: none; stroke: #000000; stroke-width: 0.2; stroke-linejoin: miter"/>
   </g>
   <g id="patch_251">
    <path d="M 322.885707 242.82 
L 322.885707 208.17 
L 369.310076 208.17 
L 369.310076 242.82 
L 322.885707 242.82 
" clip-path="url(#pb510fa4399)" style="fill: none; stroke: #000000; stroke-width: 0.2; stroke-linejoin: miter"/>
   </g>
   <g id="patch_252">
    <path d="M 369.310076 190.845 
L 369.310076 173.52 
L 392.52226 173.52 
L 392.52226 190.845 
L 369.310076 190.845 
" clip-path="url(#pb510fa4399)" style="fill: none; stroke: #000000; stroke-width: 0.2; stroke-linejoin: miter"/>
   </g>
   <g id="patch_253">
    <path d="M 369.310076 208.17 
L 369.310076 190.845 
L 392.52226 190.845 
L 392.52226 208.17 
L 369.310076 208.17 
" clip-path="url(#pb510fa4399)" style="fill: none; stroke: #000000; stroke-width: 0.2; stroke-linejoin: miter"/>
   </g>
   <g id="patch_254">
    <path d="M 392.52226 190.845 
L 392.52226 173.52 
L 415.734445 173.52 
L 415.734445 190.845 
L 392.52226 190.845 
" clip-path="url(#pb510fa4399)" style="fill: none; stroke: #000000; stroke-width: 0.2; stroke-linejoin: miter"/>
   </g>
   <g id="patch_255">
    <path d="M 392.52226 208.17 
L 392.52226 190.845 
L 415.734445 190.845 
L 415.734445 208.17 
L 392.52226 208.17 
" clip-path="url(#pb510fa4399)" style="fill: none; stroke: #000000; stroke-width: 0.2; stroke-linejoin: miter"/>
   </g>
   <g id="patch_256">
    <path d="M 369.310076 242.82 
L 369.310076 208.17 
L 415.734445 208.17 
L 415.734445 242.82 
L 369.310076 242.82 
" clip-path="url(#pb510fa4399)" style="fill: none; stroke: #000000; stroke-width: 0.2; stroke-linejoin: miter"/>
   </g>
   <g id="patch_257">
    <path d="M 322.885707 312.12 
L 322.885707 242.82 
L 415.734445 242.82 
L 415.734445 312.12 
L 322.885707 312.12 
" clip-path="url(#pb510fa4399)" style="fill: none; stroke: #000000; stroke-width: 0.2; stroke-linejoin: miter"/>
   </g>
  </g>
 </g>
 <defs>
  <clipPath id="pb510fa4399">
   <rect x="7.2" y="7.2" width="445.67394" height="332.64"/>
  </clipPath>
 </defs>
</svg>