<?xml version="1.0" encoding="utf-8" standalone="no"?>
<!DOCTYPE svg PUBLIC "-//W3C//DTD SVG 1.1//EN"
  "http://www.w3.org/Graphics/SVG/1.1/DTD/svg11.dtd">
<svg xmlns:xlink="http://www.w3.org/1999/xlink" width="563.774922pt" height="277.005pt" viewBox="0 0 563.774922 277.005" xmlns="http://www.w3.org/2000/svg" version="1.1">
 <metadata>
  <rdf:RDF xmlns:dc="http://purl.org/dc/elements/1.1/" xmlns:cc="http://creativecommons.org/ns#" xmlns:rdf="http://www.w3.org/1999/02/22-rdf-syntax-ns#">
   <cc:Work>
    <dc:type rdf:resource="http://purl.org/dc/dcmitype/StillImage"/>
    <dc:date>2024-01-05T15:51:52.385662</dc:date>
    <dc:format>image/svg+xml</dc:format>
    <dc:creator>
     <cc:Agent>
      <dc:title>Matplotlib v3.8.2, https://matplotlib.org/</dc:title>
     </cc:Agent>
    </dc:creator>
   </cc:Work>
  </rdf:RDF>
 </metadata>
 <defs>
  <style type="text/css">*{stroke-linejoin: round; stroke-linecap: butt}</style>
 </defs>
 <g id="figure_1">
  <g id="patch_1">
   <path d="M 0 277.005 
L 563.774922 277.005 
L 563.774922 0 
L 0 0 
z
" style="fill: #ffffff"/>
  </g>
  <g id="axes_1">
   <g id="patch_2">
    <path d="M 39.9825 230.6225 
L 548.574922 230.6225 
L 548.574922 12.66375 
L 39.9825 12.66375 
z
" style="fill: #ffffff"/>
   </g>
   <g id="Quiver_1">
    <path d="M 166.973804 155.485434 
L 229.532325 174.732148 
L 228.971337 171.366844 
L 242.208534 180.228458 
L 226.279344 180.11676 
L 228.634994 177.648787 
L 166.076473 158.402073 
L 166.973804 155.485434 
" clip-path="url(#pe5f362228b)" style="fill-opacity: 0.3"/>
    <path d="M 242.799392 178.82173 
L 245.275521 179.861761 
L 245.050509 176.457447 
L 257.345214 186.58621 
L 241.505362 184.897814 
L 244.093805 182.675217 
L 241.617676 181.635186 
L 242.799392 178.82173 
" clip-path="url(#pe5f362228b)" style="fill-opacity: 0.3"/>
    <path d="M 256.924819 188.052929 
L 237.430063 182.465294 
L 238.055993 185.819127 
L 224.649987 177.215024 
L 240.57836 177.018813 
L 238.270852 179.531856 
L 257.765608 185.119491 
L 256.924819 188.052929 
" clip-path="url(#pe5f362228b)" style="fill-opacity: 0.3"/>
    <path d="M 224.199747 178.672858 
L 204.019561 172.440384 
L 204.576917 175.806292 
L 191.349292 166.930395 
L 207.278353 167.059286 
L 204.92004 169.524715 
L 225.100226 175.75719 
L 224.199747 178.672858 
" clip-path="url(#pe5f362228b)" style="fill-opacity: 0.3"/>
    <path d="M 190.923945 168.395685 
L 169.599928 162.205702 
L 170.214523 165.561631 
L 156.837664 156.912283 
L 172.766609 156.769889 
L 170.450624 159.275122 
L 191.77464 165.465105 
L 190.923945 168.395685 
" clip-path="url(#pe5f362228b)" style="fill-opacity: 0.3"/>
    <path d="M 157.544491 155.560103 
L 156.020055 155.624062 
L 155.313227 156.976242 
L 156.130836 158.264463 
L 157.655272 158.200503 
L 158.3621 156.848323 
L 157.544491 155.560103 
L 156.020055 155.624062 
" clip-path="url(#pe5f362228b)" style="fill-opacity: 0.3"/>
    <path d="M 157.815344 154.274327 
L 230.47456 172.551736 
L 229.739306 169.220162 
L 243.419469 177.381335 
L 227.506027 178.098244 
L 229.730133 175.511097 
L 157.070918 157.233688 
L 157.815344 154.274327 
" clip-path="url(#pe5f362228b)" style="fill-opacity: 0.3"/>
    <path d="M 243.603108 175.86665 
L 483.056214 204.897794 
L 481.908807 201.684783 
L 496.504745 208.065236 
L 480.80697 210.772898 
L 482.688934 207.927166 
L 243.235829 178.896021 
L 243.603108 175.86665 
" clip-path="url(#pe5f362228b)" style="fill-opacity: 0.3"/>
    <path d="M 495.84624 206.688876 
L 507.07222 201.317919 
L 504.378849 199.223705 
L 520.117965 196.767729 
L 508.329882 207.481864 
L 508.389231 204.070639 
L 497.163251 209.441596 
L 495.84624 206.688876 
" clip-path="url(#pe5f362228b)" style="fill-opacity: 0.3"/>
    <path d="M 519.78641 198.257047 
L 484.147429 190.323021 
L 484.973637 193.633212 
L 471.075124 185.849707 
L 486.962967 184.697305 
L 484.810539 187.344385 
L 520.44952 195.278411 
L 519.78641 198.257047 
" clip-path="url(#pe5f362228b)" style="fill-opacity: 0.3"/>
    <path d="M 470.859698 187.3602 
L 422.091012 180.404804 
L 423.170651 183.641216 
L 408.712006 176.955472 
L 424.463211 174.578261 
L 422.521865 177.383819 
L 471.290551 184.339215 
L 470.859698 187.3602 
" clip-path="url(#pe5f362228b)" style="fill-opacity: 0.3"/>
    <path d="M 408.564906 178.474142 
L 370.162757 174.754468 
L 371.387227 177.938907 
L 356.641829 171.911898 
L 372.269827 168.826889 
L 370.456957 171.717128 
L 408.859106 175.436802 
L 408.564906 178.474142 
" clip-path="url(#pe5f362228b)" style="fill-opacity: 0.3"/>
    <path d="M 356.364623 173.412282 
L 282.680808 159.798668 
L 283.626779 163.076643 
L 269.454557 155.803423 
L 285.290019 154.074338 
L 283.235221 156.7979 
L 356.919036 170.411513 
L 356.364623 173.412282 
" clip-path="url(#pe5f362228b)" style="fill-opacity: 0.3"/>
    <path d="M 269.052275 157.275213 
L 218.118863 143.353653 
L 218.786088 146.699515 
L 205.275037 138.261322 
L 221.199782 137.868776 
L 218.923428 140.410073 
L 269.856839 154.331633 
L 269.052275 157.275213 
" clip-path="url(#pe5f362228b)" style="fill-opacity: 0.3"/>
    <path d="M 205.018488 139.765377 
L 189.492552 137.117096 
L 190.483509 140.381753 
L 176.212613 133.304104 
L 192.022801 131.357427 
L 190.00565 134.108987 
L 205.531586 136.757268 
L 205.018488 139.765377 
" clip-path="url(#pe5f362228b)" style="fill-opacity: 0.3"/>
    <path d="M 176.012486 134.816699 
L 152.086883 131.65118 
L 153.199225 134.876498 
L 138.673649 128.337445 
L 154.399985 125.800924 
L 152.487136 128.625989 
L 176.41274 131.791508 
L 176.012486 134.816699 
" clip-path="url(#pe5f362228b)" style="fill-opacity: 0.3"/>
    <path d="M 137.881288 129.641347 
L 115.710248 116.168367 
L 115.42943 119.568532 
L 104.767487 107.733222 
L 120.183592 111.745118 
L 117.294969 113.560562 
L 139.466009 127.033542 
L 137.881288 129.641347 
" clip-path="url(#pe5f362228b)" style="fill-opacity: 0.3"/>
    <path d="M 104.781475 109.258936 
L 102.770747 109.27737 
L 104.324435 112.314808 
L 89.025341 107.877545 
L 104.24051 103.16053 
L 102.742771 106.225943 
L 104.7535 106.207509 
L 104.781475 109.258936 
" clip-path="url(#pe5f362228b)" style="fill-opacity: 0.3"/>
    <path d="M 89.097598 106.353479 
L 397.489544 120.974626 
L 396.109993 117.854238 
L 411.133875 123.149007 
L 395.676449 126.99863 
L 397.345029 124.022756 
L 88.953083 109.40161 
L 89.097598 106.353479 
" clip-path="url(#pe5f362228b)" style="fill-opacity: 0.3"/>
    <path d="M 410.289508 124.41985 
L 297.606326 49.551548 
L 297.188437 52.9376 
L 287.013105 40.681409 
L 302.254634 45.312542 
L 299.295059 47.009862 
L 411.978241 121.878164 
L 410.289508 124.41985 
" clip-path="url(#pe5f362228b)" style="fill-opacity: 0.3"/>
    <path clip-path="url(#pe5f362228b)" style="fill-opacity: 0.3"/>
   </g>
   <g id="PathCollection_1">
    <defs>
     <path id="medf2bce538" d="M 0 2.95804 
C 0.784481 2.95804 1.536938 2.646362 2.09165 2.09165 
C 2.646362 1.536938 2.95804 0.784481 2.95804 0 
C 2.95804 -0.784481 2.646362 -1.536938 2.09165 -2.09165 
C 1.536938 -2.646362 0.784481 -2.95804 0 -2.95804 
C -0.784481 -2.95804 -1.536938 -2.646362 -2.09165 -2.09165 
C -2.646362 -1.536938 -2.95804 -0.784481 -2.95804 0 
C -2.95804 0.784481 -2.646362 1.536938 -2.09165 2.09165 
C -1.536938 2.646362 -0.784481 2.95804 0 2.95804 
z
" style="stroke: #000000; stroke-opacity: 0.9; stroke-width: 0.2"/>
    </defs>
    <g clip-path="url(#pe5f362228b)">
     <use xlink:href="#medf2bce538" x="166.525138" y="156.943754" style="fill: #bc80bd; fill-opacity: 0.9; stroke: #000000; stroke-opacity: 0.9; stroke-width: 0.2"/>
     <use xlink:href="#medf2bce538" x="242.208534" y="180.228458" style="fill: #bc80bd; fill-opacity: 0.9; stroke: #000000; stroke-opacity: 0.9; stroke-width: 0.2"/>
     <use xlink:href="#medf2bce538" x="257.345214" y="186.58621" style="fill: #bc80bd; fill-opacity: 0.9; stroke: #000000; stroke-opacity: 0.9; stroke-width: 0.2"/>
     <use xlink:href="#medf2bce538" x="224.649987" y="177.215024" style="fill: #bc80bd; fill-opacity: 0.9; stroke: #000000; stroke-opacity: 0.9; stroke-width: 0.2"/>
     <use xlink:href="#medf2bce538" x="191.349292" y="166.930395" style="fill: #bc80bd; fill-opacity: 0.9; stroke: #000000; stroke-opacity: 0.9; stroke-width: 0.2"/>
     <use xlink:href="#medf2bce538" x="156.837664" y="156.912283" style="fill: #bc80bd; fill-opacity: 0.9; stroke: #000000; stroke-opacity: 0.9; stroke-width: 0.2"/>
     <use xlink:href="#medf2bce538" x="157.443131" y="155.754007" style="fill: #bc80bd; fill-opacity: 0.9; stroke: #000000; stroke-opacity: 0.9; stroke-width: 0.2"/>
     <use xlink:href="#medf2bce538" x="243.419469" y="177.381335" style="fill: #bc80bd; fill-opacity: 0.9; stroke: #000000; stroke-opacity: 0.9; stroke-width: 0.2"/>
     <use xlink:href="#medf2bce538" x="496.504745" y="208.065236" style="fill: #bc80bd; fill-opacity: 0.9; stroke: #000000; stroke-opacity: 0.9; stroke-width: 0.2"/>
     <use xlink:href="#medf2bce538" x="520.117965" y="196.767729" style="fill: #bc80bd; fill-opacity: 0.9; stroke: #000000; stroke-opacity: 0.9; stroke-width: 0.2"/>
     <use xlink:href="#medf2bce538" x="471.075124" y="185.849707" style="fill: #bc80bd; fill-opacity: 0.9; stroke: #000000; stroke-opacity: 0.9; stroke-width: 0.2"/>
     <use xlink:href="#medf2bce538" x="408.712006" y="176.955472" style="fill: #bc80bd; fill-opacity: 0.9; stroke: #000000; stroke-opacity: 0.9; stroke-width: 0.2"/>
     <use xlink:href="#medf2bce538" x="356.641829" y="171.911898" style="fill: #bc80bd; fill-opacity: 0.9; stroke: #000000; stroke-opacity: 0.9; stroke-width: 0.2"/>
     <use xlink:href="#medf2bce538" x="269.454557" y="155.803423" style="fill: #bc80bd; fill-opacity: 0.9; stroke: #000000; stroke-opacity: 0.9; stroke-width: 0.2"/>
     <use xlink:href="#medf2bce538" x="205.275037" y="138.261322" style="fill: #bc80bd; fill-opacity: 0.9; stroke: #000000; stroke-opacity: 0.9; stroke-width: 0.2"/>
     <use xlink:href="#medf2bce538" x="176.212613" y="133.304104" style="fill: #bc80bd; fill-opacity: 0.9; stroke: #000000; stroke-opacity: 0.9; stroke-width: 0.2"/>
     <use xlink:href="#medf2bce538" x="138.673649" y="128.337445" style="fill: #bc80bd; fill-opacity: 0.9; stroke: #000000; stroke-opacity: 0.9; stroke-width: 0.2"/>
     <use xlink:href="#medf2bce538" x="104.767487" y="107.733222" style="fill: #bc80bd; fill-opacity: 0.9; stroke: #000000; stroke-opacity: 0.9; stroke-width: 0.2"/>
     <use xlink:href="#medf2bce538" x="89.025341" y="107.877545" style="fill: #bc80bd; fill-opacity: 0.9; stroke: #000000; stroke-opacity: 0.9; stroke-width: 0.2"/>
     <use xlink:href="#medf2bce538" x="411.133875" y="123.149007" style="fill: #bc80bd; fill-opacity: 0.9; stroke: #000000; stroke-opacity: 0.9; stroke-width: 0.2"/>
     <use xlink:href="#medf2bce538" x="287.013105" y="40.681409" style="fill: #bc80bd; fill-opacity: 0.9; stroke: #000000; stroke-opacity: 0.9; stroke-width: 0.2"/>
    </g>
   </g>
   <g id="matplotlib.axis_1">
    <g id="xtick_1">
     <g id="line2d_1">
      <defs>
       <path id="m6bc03f2900" d="M 0 0 
L 0 3.5 
" style="stroke: #323034; stroke-width: 0.8"/>
      </defs>
      <g>
       <use xlink:href="#m6bc03f2900" x="39.9825" y="230.6225" style="fill: #323034; stroke: #323034; stroke-width: 0.8"/>
      </g>
     </g>
     <g id="text_1">
      <!-- $\mathdefault{3}$ -->
      <g style="fill: #323034" transform="translate(35.9825 248.55) scale(0.16 -0.16)">
       <defs>
        <path id="STIXGeneral-Regular-33" d="M 390 3264 
L 288 3290 
Q 435 3770 748 4048 
Q 1062 4326 1542 4326 
Q 1990 4326 2265 4083 
Q 2541 3840 2541 3450 
Q 2541 2925 1946 2566 
Q 2298 2413 2477 2227 
Q 2758 1914 2758 1402 
Q 2758 890 2464 506 
Q 2246 211 1840 60 
Q 1434 -90 979 -90 
Q 262 -90 262 275 
Q 262 378 339 442 
Q 416 506 525 506 
Q 685 506 915 339 
Q 1197 141 1466 141 
Q 1818 141 2058 425 
Q 2298 710 2298 1120 
Q 2298 1856 1632 2048 
Q 1434 2112 979 2112 
L 979 2202 
Q 1338 2323 1517 2432 
Q 2035 2726 2035 3290 
Q 2035 3610 1852 3776 
Q 1670 3942 1344 3942 
Q 768 3942 390 3264 
z
" transform="scale(0.015625)"/>
       </defs>
       <use xlink:href="#STIXGeneral-Regular-33" transform="translate(0 0.40625)"/>
      </g>
     </g>
    </g>
    <g id="xtick_2">
     <g id="line2d_2">
      <g>
       <use xlink:href="#m6bc03f2900" x="112.63856" y="230.6225" style="fill: #323034; stroke: #323034; stroke-width: 0.8"/>
      </g>
     </g>
     <g id="text_2">
      <!-- $\mathdefault{4}$ -->
      <g style="fill: #323034" transform="translate(108.63856 248.55) scale(0.16 -0.16)">
       <defs>
        <path id="STIXGeneral-Regular-34" d="M 3027 1069 
L 2368 1069 
L 2368 0 
L 1869 0 
L 1869 1069 
L 77 1069 
L 77 1478 
L 2086 4326 
L 2368 4326 
L 2368 1478 
L 3027 1478 
L 3027 1069 
z
M 1869 1478 
L 1869 3674 
L 333 1478 
L 1869 1478 
z
" transform="scale(0.015625)"/>
       </defs>
       <use xlink:href="#STIXGeneral-Regular-34" transform="translate(0 0.40625)"/>
      </g>
     </g>
    </g>
    <g id="xtick_3">
     <g id="line2d_3">
      <g>
       <use xlink:href="#m6bc03f2900" x="185.294621" y="230.6225" style="fill: #323034; stroke: #323034; stroke-width: 0.8"/>
      </g>
     </g>
     <g id="text_3">
      <!-- $\mathdefault{5}$ -->
      <g style="fill: #323034" transform="translate(181.294621 248.55) scale(0.16 -0.16)">
       <defs>
        <path id="STIXGeneral-Regular-35" d="M 2803 4358 
L 2573 3814 
Q 2534 3731 2400 3731 
L 1158 3731 
L 902 3187 
Q 1606 3053 1920 2896 
Q 2234 2739 2502 2368 
Q 2726 2061 2726 1555 
Q 2726 1094 2576 780 
Q 2426 467 2099 224 
Q 1664 -90 1011 -90 
Q 646 -90 422 19 
Q 198 128 198 307 
Q 198 550 486 550 
Q 717 550 960 352 
Q 1210 147 1414 147 
Q 1747 147 2012 480 
Q 2278 813 2278 1229 
Q 2278 1843 1850 2189 
Q 1293 2637 486 2637 
Q 410 2637 410 2688 
L 416 2720 
L 1114 4237 
L 2438 4237 
Q 2547 4237 2608 4269 
Q 2669 4301 2746 4403 
L 2803 4358 
z
" transform="scale(0.015625)"/>
       </defs>
       <use xlink:href="#STIXGeneral-Regular-35" transform="translate(0 0.203125)"/>
      </g>
     </g>
    </g>
    <g id="xtick_4">
     <g id="line2d_4">
      <g>
       <use xlink:href="#m6bc03f2900" x="257.950681" y="230.6225" style="fill: #323034; stroke: #323034; stroke-width: 0.8"/>
      </g>
     </g>
     <g id="text_4">
      <!-- $\mathdefault{6}$ -->
      <g style="fill: #323034" transform="translate(253.950681 248.55) scale(0.16 -0.16)">
       <defs>
        <path id="STIXGeneral-Regular-36" d="M 2854 4378 
L 2867 4275 
Q 2112 4154 1606 3664 
Q 1101 3174 973 2451 
Q 1344 2739 1786 2739 
Q 2349 2739 2672 2380 
Q 2995 2022 2995 1402 
Q 2995 774 2669 378 
Q 2291 -90 1651 -90 
Q 870 -90 518 557 
Q 218 1107 218 1786 
Q 218 2835 915 3552 
Q 1312 3962 1731 4131 
Q 2150 4301 2854 4378 
z
M 2419 1203 
Q 2419 2445 1555 2445 
Q 1235 2445 1024 2275 
Q 813 2106 813 1702 
Q 813 954 1046 522 
Q 1280 90 1722 90 
Q 2061 90 2240 394 
Q 2419 698 2419 1203 
z
" transform="scale(0.015625)"/>
       </defs>
       <use xlink:href="#STIXGeneral-Regular-36" transform="translate(0 0.59375)"/>
      </g>
     </g>
    </g>
    <g id="xtick_5">
     <g id="line2d_5">
      <g>
       <use xlink:href="#m6bc03f2900" x="330.606741" y="230.6225" style="fill: #323034; stroke: #323034; stroke-width: 0.8"/>
      </g>
     </g>
     <g id="text_5">
      <!-- $\mathdefault{7}$ -->
      <g style="fill: #323034" transform="translate(326.606741 248.55) scale(0.16 -0.16)">
       <defs>
        <path id="STIXGeneral-Regular-37" d="M 2874 4134 
L 1517 -51 
L 1101 -51 
L 2368 3763 
L 992 3763 
Q 717 3763 582 3667 
Q 448 3571 243 3238 
L 128 3296 
L 512 4237 
L 2874 4237 
L 2874 4134 
z
" transform="scale(0.015625)"/>
       </defs>
       <use xlink:href="#STIXGeneral-Regular-37" transform="translate(0 0.796875)"/>
      </g>
     </g>
    </g>
    <g id="xtick_6">
     <g id="line2d_6">
      <g>
       <use xlink:href="#m6bc03f2900" x="403.262801" y="230.6225" style="fill: #323034; stroke: #323034; stroke-width: 0.8"/>
      </g>
     </g>
     <g id="text_6">
      <!-- $\mathdefault{8}$ -->
      <g style="fill: #323034" transform="translate(399.262801 248.55) scale(0.16 -0.16)">
       <defs>
        <path id="STIXGeneral-Regular-38" d="M 2848 992 
Q 2848 499 2505 204 
Q 2163 -90 1587 -90 
Q 1050 -90 704 204 
Q 358 499 358 954 
Q 358 1293 524 1533 
Q 691 1773 1190 2125 
Q 710 2522 553 2765 
Q 397 3008 397 3328 
Q 397 3782 745 4054 
Q 1094 4326 1638 4326 
Q 2106 4326 2410 4060 
Q 2714 3795 2714 3411 
Q 2714 3059 2531 2848 
Q 2349 2637 1856 2374 
Q 2432 1990 2640 1689 
Q 2848 1389 2848 992 
z
M 2272 3411 
Q 2272 3744 2086 3945 
Q 1901 4147 1574 4147 
Q 1248 4147 1059 3977 
Q 870 3808 870 3513 
Q 870 3219 1059 2979 
Q 1248 2739 1670 2490 
Q 1997 2682 2134 2896 
Q 2272 3110 2272 3411 
z
M 1734 1741 
L 1357 1997 
Q 1075 1766 960 1545 
Q 845 1325 845 1011 
Q 845 576 1065 333 
Q 1286 90 1658 90 
Q 1971 90 2166 285 
Q 2362 480 2362 794 
Q 2362 1082 2214 1299 
Q 2067 1517 1734 1741 
z
" transform="scale(0.015625)"/>
       </defs>
       <use xlink:href="#STIXGeneral-Regular-38" transform="translate(0 0.40625)"/>
      </g>
     </g>
    </g>
    <g id="xtick_7">
     <g id="line2d_7">
      <g>
       <use xlink:href="#m6bc03f2900" x="475.918862" y="230.6225" style="fill: #323034; stroke: #323034; stroke-width: 0.8"/>
      </g>
     </g>
     <g id="text_7">
      <!-- $\mathdefault{9}$ -->
      <g style="fill: #323034" transform="translate(471.918862 248.55) scale(0.16 -0.16)">
       <defs>
        <path id="STIXGeneral-Regular-39" d="M 378 -141 
L 358 -13 
Q 1094 115 1603 608 
Q 2112 1101 2304 1882 
Q 1933 1517 1344 1517 
Q 826 1517 509 1875 
Q 192 2234 192 2816 
Q 192 3462 573 3894 
Q 954 4326 1523 4326 
Q 2131 4326 2528 3840 
Q 2938 3328 2938 2522 
Q 2938 1958 2742 1462 
Q 2547 966 2170 621 
Q 1773 262 1395 105 
Q 1018 -51 378 -141 
z
M 2317 2272 
L 2317 2522 
Q 2317 4147 1472 4147 
Q 1171 4147 1005 3930 
Q 909 3802 845 3546 
Q 781 3290 781 3034 
Q 781 2464 995 2128 
Q 1210 1792 1568 1792 
Q 1824 1792 2070 1917 
Q 2317 2042 2317 2272 
z
" transform="scale(0.015625)"/>
       </defs>
       <use xlink:href="#STIXGeneral-Regular-39" transform="translate(0 0.40625)"/>
      </g>
     </g>
    </g>
    <g id="xtick_8">
     <g id="line2d_8">
      <g>
       <use xlink:href="#m6bc03f2900" x="548.574922" y="230.6225" style="fill: #323034; stroke: #323034; stroke-width: 0.8"/>
      </g>
     </g>
     <g id="text_8">
      <!-- $\mathdefault{10}$ -->
      <g style="fill: #323034" transform="translate(540.574922 248.55) scale(0.16 -0.16)">
       <defs>
        <path id="STIXGeneral-Regular-31" d="M 2522 0 
L 755 0 
L 755 96 
Q 1107 115 1235 227 
Q 1363 339 1363 608 
L 1363 3482 
Q 1363 3795 1171 3795 
Q 1082 3795 883 3718 
L 710 3654 
L 710 3744 
L 1856 4326 
L 1914 4307 
L 1914 486 
Q 1914 275 2042 185 
Q 2170 96 2522 96 
L 2522 0 
z
" transform="scale(0.015625)"/>
        <path id="STIXGeneral-Regular-30" d="M 3046 2112 
Q 3046 1683 2963 1302 
Q 2880 922 2717 602 
Q 2554 282 2266 96 
Q 1978 -90 1600 -90 
Q 1210 -90 915 108 
Q 621 307 461 640 
Q 301 973 227 1350 
Q 154 1728 154 2150 
Q 154 2746 301 3222 
Q 448 3699 790 4012 
Q 1133 4326 1626 4326 
Q 2253 4326 2649 3712 
Q 3046 3098 3046 2112 
z
M 2432 2080 
Q 2432 3091 2217 3625 
Q 2003 4160 1587 4160 
Q 1190 4160 979 3622 
Q 768 3085 768 2106 
Q 768 1120 979 598 
Q 1190 77 1600 77 
Q 2003 77 2217 598 
Q 2432 1120 2432 2080 
z
" transform="scale(0.015625)"/>
       </defs>
       <use xlink:href="#STIXGeneral-Regular-31" transform="translate(0 0.40625)"/>
       <use xlink:href="#STIXGeneral-Regular-30" transform="translate(49.999985 0.40625)"/>
      </g>
     </g>
    </g>
    <g id="text_9">
     <!-- Unemployment rate, % -->
     <g transform="translate(220.533711 266.3175) scale(0.16 -0.16)">
      <defs>
       <path id="STIXGeneral-Regular-55" d="M 4512 4237 
L 4512 4115 
Q 4122 4077 4016 3926 
Q 3910 3776 3910 3302 
L 3910 1670 
Q 3910 1178 3840 896 
Q 3770 614 3565 378 
Q 3155 -90 2272 -90 
Q 1574 -90 1184 205 
Q 666 589 666 1594 
L 666 3578 
Q 666 3898 566 3994 
Q 467 4090 90 4115 
L 90 4237 
L 1901 4237 
L 1901 4115 
Q 1517 4083 1417 3977 
Q 1318 3872 1318 3514 
L 1318 1517 
Q 1318 1101 1369 877 
Q 1421 653 1600 480 
Q 1901 192 2419 192 
Q 3066 192 3392 570 
Q 3539 749 3584 963 
Q 3629 1178 3629 1600 
L 3629 3283 
Q 3629 3782 3520 3936 
Q 3411 4090 3027 4115 
L 3027 4237 
L 4512 4237 
z
" transform="scale(0.015625)"/>
       <path id="STIXGeneral-Regular-6e" d="M 3104 0 
L 1773 0 
L 1779 96 
Q 2016 115 2096 233 
Q 2176 352 2176 672 
L 2176 1946 
Q 2176 2592 1709 2592 
Q 1549 2592 1408 2515 
Q 1267 2438 1050 2227 
L 1050 461 
Q 1050 269 1136 192 
Q 1222 115 1466 96 
L 1466 0 
L 115 0 
L 115 96 
Q 358 115 435 214 
Q 512 314 512 602 
L 512 2157 
Q 512 2394 467 2483 
Q 422 2573 288 2573 
Q 160 2573 102 2547 
L 102 2656 
Q 550 2784 979 2944 
L 1030 2925 
L 1030 2426 
L 1037 2426 
Q 1491 2944 1958 2944 
Q 2323 2944 2518 2688 
Q 2714 2432 2714 1958 
L 2714 544 
Q 2714 288 2790 205 
Q 2867 122 3104 96 
L 3104 0 
z
" transform="scale(0.015625)"/>
       <path id="STIXGeneral-Regular-65" d="M 2611 1050 
L 2714 1005 
Q 2330 -64 1376 -64 
Q 813 -64 486 329 
Q 160 723 160 1389 
Q 160 2074 525 2509 
Q 890 2944 1485 2944 
Q 2061 2944 2374 2502 
Q 2560 2246 2592 1773 
L 621 1773 
Q 646 1370 700 1158 
Q 755 947 915 730 
Q 1184 378 1626 378 
Q 1939 378 2153 531 
Q 2368 685 2611 1050 
z
M 634 1978 
L 1939 1978 
Q 1882 2381 1750 2547 
Q 1619 2714 1312 2714 
Q 1043 2714 864 2525 
Q 685 2336 634 1978 
z
" transform="scale(0.015625)"/>
       <path id="STIXGeneral-Regular-6d" d="M 4960 0 
L 3565 0 
L 3565 96 
Q 3834 122 3907 208 
Q 3981 294 3981 576 
L 3981 1894 
Q 3981 2278 3869 2444 
Q 3757 2611 3488 2611 
Q 3264 2611 3107 2521 
Q 2950 2432 2803 2221 
L 2803 608 
Q 2803 301 2896 201 
Q 2989 102 3264 96 
L 3264 0 
L 1830 0 
L 1830 96 
Q 2112 115 2189 188 
Q 2266 262 2266 550 
L 2266 1901 
Q 2266 2611 1850 2611 
Q 1670 2611 1468 2531 
Q 1267 2451 1171 2336 
Q 1088 2240 1088 2227 
L 1088 448 
Q 1088 243 1177 176 
Q 1267 109 1523 96 
L 1523 0 
L 102 0 
L 102 96 
Q 371 102 460 195 
Q 550 288 550 563 
L 550 2150 
Q 550 2387 499 2480 
Q 448 2573 326 2573 
Q 230 2573 122 2547 
L 122 2656 
Q 557 2778 1011 2944 
L 1062 2925 
L 1062 2451 
L 1075 2451 
Q 1363 2752 1584 2848 
Q 1805 2944 2054 2944 
Q 2560 2944 2733 2406 
Q 3232 2944 3776 2944 
Q 4518 2944 4518 1792 
L 4518 493 
Q 4518 282 4582 202 
Q 4646 122 4794 109 
L 4960 96 
L 4960 0 
z
" transform="scale(0.015625)"/>
       <path id="STIXGeneral-Regular-70" d="M 1018 2931 
L 1018 2438 
Q 1421 2944 1939 2944 
Q 2406 2944 2707 2560 
Q 3008 2176 3008 1581 
Q 3008 883 2621 409 
Q 2234 -64 1664 -64 
Q 1466 -64 1328 -6 
Q 1190 51 1018 211 
L 1018 -794 
Q 1018 -1094 1120 -1180 
Q 1222 -1267 1581 -1274 
L 1581 -1389 
L 32 -1389 
L 32 -1280 
Q 314 -1254 397 -1171 
Q 480 -1088 480 -838 
L 480 2157 
Q 480 2381 429 2451 
Q 378 2522 218 2522 
Q 115 2522 58 2515 
L 58 2618 
Q 506 2752 979 2944 
L 1018 2931 
z
M 1018 2138 
L 1018 563 
Q 1018 422 1238 281 
Q 1459 141 1683 141 
Q 2029 141 2243 467 
Q 2458 794 2458 1325 
Q 2458 1888 2243 2224 
Q 2029 2560 1670 2560 
Q 1446 2560 1232 2419 
Q 1018 2278 1018 2138 
z
" transform="scale(0.015625)"/>
       <path id="STIXGeneral-Regular-6c" d="M 1645 0 
L 134 0 
L 134 96 
Q 435 122 531 221 
Q 627 320 627 589 
L 627 3590 
Q 627 3821 569 3910 
Q 512 4000 358 4000 
Q 224 4000 122 3987 
L 122 4090 
Q 730 4237 1133 4371 
L 1165 4346 
L 1165 557 
Q 1165 288 1254 201 
Q 1344 115 1645 96 
L 1645 0 
z
" transform="scale(0.015625)"/>
       <path id="STIXGeneral-Regular-6f" d="M 3008 1478 
Q 3008 806 2608 371 
Q 2208 -64 1568 -64 
Q 979 -64 582 368 
Q 186 800 186 1459 
Q 186 2125 582 2534 
Q 979 2944 1626 2944 
Q 2221 2944 2614 2537 
Q 3008 2131 3008 1478 
z
M 2432 1306 
Q 2432 2035 2112 2445 
Q 1856 2765 1504 2765 
Q 1171 2765 966 2493 
Q 762 2221 762 1747 
Q 762 928 1101 435 
Q 1318 115 1677 115 
Q 2029 115 2230 432 
Q 2432 749 2432 1306 
z
" transform="scale(0.015625)"/>
       <path id="STIXGeneral-Regular-79" d="M 3040 2880 
L 3040 2784 
Q 2925 2771 2854 2700 
Q 2784 2630 2720 2458 
L 1760 -160 
Q 1510 -838 1257 -1116 
Q 1005 -1395 640 -1395 
Q 435 -1395 313 -1289 
Q 192 -1184 192 -1024 
Q 192 -902 272 -816 
Q 352 -730 467 -730 
Q 653 -730 800 -813 
Q 883 -858 966 -858 
Q 1101 -858 1286 -576 
Q 1376 -448 1459 -211 
Q 1542 26 1542 115 
Q 1542 198 1274 762 
L 429 2566 
Q 346 2752 90 2790 
L 90 2880 
L 1402 2880 
L 1402 2784 
Q 1197 2778 1117 2739 
Q 1037 2701 1037 2611 
Q 1037 2541 1120 2349 
L 1837 749 
L 2458 2515 
Q 2483 2573 2483 2630 
Q 2483 2784 2189 2784 
L 2189 2880 
L 3040 2880 
z
" transform="scale(0.015625)"/>
       <path id="STIXGeneral-Regular-74" d="M 1702 493 
L 1786 422 
Q 1478 -64 1011 -64 
Q 448 -64 448 749 
L 448 2675 
L 109 2675 
Q 83 2694 83 2720 
Q 83 2771 192 2842 
Q 435 2982 813 3526 
Q 826 3546 874 3606 
Q 922 3667 941 3706 
Q 986 3706 986 3622 
L 986 2880 
L 1632 2880 
L 1632 2675 
L 986 2675 
L 986 845 
Q 986 538 1062 403 
Q 1139 269 1318 269 
Q 1510 269 1702 493 
z
" transform="scale(0.015625)"/>
       <path id="STIXGeneral-Regular-20" transform="scale(0.015625)"/>
       <path id="STIXGeneral-Regular-72" d="M 1024 2931 
L 1024 2342 
Q 1267 2688 1430 2816 
Q 1594 2944 1792 2944 
Q 1958 2944 2051 2854 
Q 2144 2765 2144 2605 
Q 2144 2470 2077 2393 
Q 2010 2317 1894 2317 
Q 1773 2317 1638 2445 
Q 1536 2541 1472 2541 
Q 1338 2541 1181 2355 
Q 1024 2170 1024 2016 
L 1024 576 
Q 1024 301 1133 205 
Q 1242 109 1568 96 
L 1568 0 
L 32 0 
L 32 96 
Q 339 154 412 224 
Q 486 294 486 538 
L 486 2138 
Q 486 2349 438 2435 
Q 390 2522 269 2522 
Q 166 2522 45 2496 
L 45 2598 
Q 448 2726 992 2944 
L 1024 2931 
z
" transform="scale(0.015625)"/>
       <path id="STIXGeneral-Regular-61" d="M 2829 422 
L 2829 243 
Q 2586 -64 2253 -64 
Q 1888 -64 1843 403 
L 1837 403 
Q 1427 -64 909 -64 
Q 608 -64 422 112 
Q 237 288 237 602 
Q 237 1050 685 1350 
Q 992 1555 1837 1869 
L 1837 2214 
Q 1837 2502 1699 2646 
Q 1562 2790 1338 2790 
Q 1146 2790 1018 2697 
Q 890 2605 890 2477 
Q 890 2419 909 2348 
Q 928 2278 928 2208 
Q 928 2112 841 2029 
Q 755 1946 634 1946 
Q 525 1946 441 2029 
Q 358 2112 358 2240 
Q 358 2547 685 2752 
Q 986 2944 1421 2944 
Q 1939 2944 2176 2656 
Q 2291 2522 2323 2384 
Q 2355 2246 2355 1946 
L 2355 723 
Q 2355 301 2554 301 
Q 2682 301 2829 422 
z
M 1837 813 
L 1837 1715 
Q 1248 1510 1018 1293 
Q 800 1094 800 800 
Q 800 557 921 432 
Q 1043 307 1242 307 
Q 1453 307 1613 410 
Q 1747 506 1792 589 
Q 1837 672 1837 813 
z
" transform="scale(0.015625)"/>
       <path id="STIXGeneral-Regular-2c" d="M 531 -902 
L 467 -781 
Q 998 -422 998 -96 
Q 998 -13 909 -13 
Q 883 -13 822 -25 
Q 762 -38 723 -38 
Q 352 -38 352 288 
Q 352 454 457 553 
Q 563 653 736 653 
Q 954 653 1101 496 
Q 1248 339 1248 96 
Q 1248 -198 1053 -473 
Q 858 -749 531 -902 
z
" transform="scale(0.015625)"/>
       <path id="STIXGeneral-Regular-25" d="M 4390 1363 
Q 4390 781 4070 329 
Q 3750 -122 3341 -122 
Q 3014 -122 2790 134 
Q 2566 390 2566 762 
Q 2566 1274 2940 1693 
Q 3315 2112 3776 2112 
Q 4070 2112 4230 1917 
Q 4390 1722 4390 1363 
z
M 4243 1376 
Q 4243 1626 4131 1779 
Q 4019 1933 3840 1933 
Q 3654 1933 3526 1786 
Q 3315 1562 3171 1187 
Q 3027 813 3027 486 
Q 3027 301 3129 176 
Q 3232 51 3386 51 
Q 3718 51 3980 457 
Q 4243 864 4243 1376 
z
M 3974 4518 
L 1222 -115 
L 922 -115 
L 3443 4096 
Q 3264 3891 3094 3811 
Q 2925 3731 2669 3731 
Q 2445 3731 2182 3821 
Q 2208 3674 2208 3539 
Q 2208 3206 2067 2873 
Q 1926 2541 1696 2323 
Q 1453 2086 1146 2086 
Q 826 2086 608 2339 
Q 390 2592 390 2963 
Q 390 3507 761 3916 
Q 1133 4326 1626 4326 
Q 1792 4326 2010 4147 
Q 2310 3898 2624 3898 
Q 2918 3898 3084 3994 
Q 3251 4090 3693 4518 
L 3974 4518 
z
M 2054 3642 
Q 2054 3782 2025 3833 
Q 1997 3885 1894 3936 
Q 1747 4006 1613 4154 
Q 1414 4058 1331 3984 
Q 1248 3910 1152 3750 
Q 845 3264 845 2707 
Q 845 2509 944 2384 
Q 1043 2259 1210 2259 
Q 1549 2259 1801 2675 
Q 2054 3091 2054 3642 
z
" transform="scale(0.015625)"/>
      </defs>
      <use xlink:href="#STIXGeneral-Regular-55"/>
      <use xlink:href="#STIXGeneral-Regular-6e" x="72.199982"/>
      <use xlink:href="#STIXGeneral-Regular-65" x="122.199966"/>
      <use xlink:href="#STIXGeneral-Regular-6d" x="166.59996"/>
      <use xlink:href="#STIXGeneral-Regular-70" x="244.399948"/>
      <use xlink:href="#STIXGeneral-Regular-6c" x="294.399933"/>
      <use xlink:href="#STIXGeneral-Regular-6f" x="322.199921"/>
      <use xlink:href="#STIXGeneral-Regular-79" x="372.199905"/>
      <use xlink:href="#STIXGeneral-Regular-6d" x="422.19989"/>
      <use xlink:href="#STIXGeneral-Regular-65" x="499.999878"/>
      <use xlink:href="#STIXGeneral-Regular-6e" x="544.399872"/>
      <use xlink:href="#STIXGeneral-Regular-74" x="594.399857"/>
      <use xlink:href="#STIXGeneral-Regular-20" x="622.199844"/>
      <use xlink:href="#STIXGeneral-Regular-72" x="647.199829"/>
      <use xlink:href="#STIXGeneral-Regular-61" x="680.499817"/>
      <use xlink:href="#STIXGeneral-Regular-74" x="724.899811"/>
      <use xlink:href="#STIXGeneral-Regular-65" x="752.699799"/>
      <use xlink:href="#STIXGeneral-Regular-2c" x="797.099792"/>
      <use xlink:href="#STIXGeneral-Regular-20" x="822.099777"/>
      <use xlink:href="#STIXGeneral-Regular-25" x="847.099762"/>
     </g>
    </g>
   </g>
   <g id="matplotlib.axis_2">
    <g id="ytick_1">
     <g id="line2d_9">
      <defs>
       <path id="m1e0b0d437f" d="M 0 0 
L -3.5 0 
" style="stroke: #323034; stroke-width: 0.8"/>
      </defs>
      <g>
       <use xlink:href="#m1e0b0d437f" x="39.9825" y="230.6225" style="fill: #323034; stroke: #323034; stroke-width: 0.8"/>
      </g>
     </g>
     <g id="text_10">
      <!-- $\mathdefault{1}$ -->
      <g style="fill: #323034" transform="translate(24.9825 236.08625) scale(0.16 -0.16)">
       <use xlink:href="#STIXGeneral-Regular-31" transform="translate(0 0.40625)"/>
      </g>
     </g>
    </g>
    <g id="ytick_2">
     <g id="line2d_10">
      <g>
       <use xlink:href="#m1e0b0d437f" x="39.9825" y="194.296042" style="fill: #323034; stroke: #323034; stroke-width: 0.8"/>
      </g>
     </g>
     <g id="text_11">
      <!-- $\mathdefault{2}$ -->
      <g style="fill: #323034" transform="translate(24.9825 199.759792) scale(0.16 -0.16)">
       <defs>
        <path id="STIXGeneral-Regular-32" d="M 3034 877 
L 2688 0 
L 186 0 
L 186 77 
L 1325 1286 
Q 1773 1754 1965 2144 
Q 2157 2534 2157 2950 
Q 2157 3379 1920 3616 
Q 1683 3853 1267 3853 
Q 922 3853 720 3673 
Q 518 3494 326 3021 
L 192 3053 
Q 301 3648 630 3987 
Q 960 4326 1523 4326 
Q 2054 4326 2380 4006 
Q 2707 3686 2707 3200 
Q 2707 2477 1888 1613 
L 832 486 
L 2330 486 
Q 2541 486 2665 569 
Q 2790 653 2944 915 
L 3034 877 
z
" transform="scale(0.015625)"/>
       </defs>
       <use xlink:href="#STIXGeneral-Regular-32" transform="translate(0 0.40625)"/>
      </g>
     </g>
    </g>
    <g id="ytick_3">
     <g id="line2d_11">
      <g>
       <use xlink:href="#m1e0b0d437f" x="39.9825" y="157.969583" style="fill: #323034; stroke: #323034; stroke-width: 0.8"/>
      </g>
     </g>
     <g id="text_12">
      <!-- $\mathdefault{3}$ -->
      <g style="fill: #323034" transform="translate(24.9825 163.433333) scale(0.16 -0.16)">
       <use xlink:href="#STIXGeneral-Regular-33" transform="translate(0 0.40625)"/>
      </g>
     </g>
    </g>
    <g id="ytick_4">
     <g id="line2d_12">
      <g>
       <use xlink:href="#m1e0b0d437f" x="39.9825" y="121.643125" style="fill: #323034; stroke: #323034; stroke-width: 0.8"/>
      </g>
     </g>
     <g id="text_13">
      <!-- $\mathdefault{4}$ -->
      <g style="fill: #323034" transform="translate(24.9825 127.106875) scale(0.16 -0.16)">
       <use xlink:href="#STIXGeneral-Regular-34" transform="translate(0 0.40625)"/>
      </g>
     </g>
    </g>
    <g id="ytick_5">
     <g id="line2d_13">
      <g>
       <use xlink:href="#m1e0b0d437f" x="39.9825" y="85.316667" style="fill: #323034; stroke: #323034; stroke-width: 0.8"/>
      </g>
     </g>
     <g id="text_14">
      <!-- $\mathdefault{5}$ -->
      <g style="fill: #323034" transform="translate(24.9825 90.780417) scale(0.16 -0.16)">
       <use xlink:href="#STIXGeneral-Regular-35" transform="translate(0 0.203125)"/>
      </g>
     </g>
    </g>
    <g id="ytick_6">
     <g id="line2d_14">
      <g>
       <use xlink:href="#m1e0b0d437f" x="39.9825" y="48.990208" style="fill: #323034; stroke: #323034; stroke-width: 0.8"/>
      </g>
     </g>
     <g id="text_15">
      <!-- $\mathdefault{6}$ -->
      <g style="fill: #323034" transform="translate(24.9825 54.453958) scale(0.16 -0.16)">
       <use xlink:href="#STIXGeneral-Regular-36" transform="translate(0 0.59375)"/>
      </g>
     </g>
    </g>
    <g id="ytick_7">
     <g id="line2d_15">
      <g>
       <use xlink:href="#m1e0b0d437f" x="39.9825" y="12.66375" style="fill: #323034; stroke: #323034; stroke-width: 0.8"/>
      </g>
     </g>
     <g id="text_16">
      <!-- $\mathdefault{7}$ -->
      <g style="fill: #323034" transform="translate(24.9825 18.1275) scale(0.16 -0.16)">
       <use xlink:href="#STIXGeneral-Regular-37" transform="translate(0 0.796875)"/>
      </g>
     </g>
    </g>
    <g id="text_17">
     <!-- Vacancy rate, % -->
     <g transform="translate(18.495 173.598125) rotate(-90) scale(0.16 -0.16)">
      <defs>
       <path id="STIXGeneral-Regular-56" d="M 4461 4237 
L 4461 4115 
Q 4262 4109 4134 3990 
Q 4006 3872 3872 3533 
L 2451 -70 
L 2355 -70 
L 794 3411 
Q 589 3866 467 3987 
Q 346 4109 102 4115 
L 102 4237 
L 1798 4237 
L 1798 4115 
L 1619 4102 
Q 1331 4083 1331 3904 
Q 1331 3776 1581 3219 
L 2554 1030 
L 3494 3392 
Q 3616 3699 3616 3853 
Q 3616 3898 3606 3933 
Q 3597 3968 3584 3993 
Q 3571 4019 3536 4038 
Q 3501 4058 3481 4067 
Q 3462 4077 3411 4086 
Q 3360 4096 3337 4099 
Q 3315 4102 3248 4108 
Q 3181 4115 3155 4115 
L 3155 4237 
L 4461 4237 
z
" transform="scale(0.015625)"/>
       <path id="STIXGeneral-Regular-63" d="M 2547 998 
L 2637 941 
Q 2362 403 2112 205 
Q 1786 -64 1376 -64 
Q 845 -64 502 336 
Q 160 736 160 1357 
Q 160 2170 698 2618 
Q 1094 2944 1562 2944 
Q 1965 2944 2256 2749 
Q 2547 2554 2547 2285 
Q 2547 2176 2457 2096 
Q 2368 2016 2246 2016 
Q 2022 2016 1939 2310 
L 1901 2451 
Q 1850 2630 1773 2694 
Q 1696 2758 1523 2758 
Q 1133 2758 893 2451 
Q 653 2144 653 1645 
Q 653 1094 928 745 
Q 1203 397 1645 397 
Q 1920 397 2118 528 
Q 2317 659 2547 998 
z
" transform="scale(0.015625)"/>
      </defs>
      <use xlink:href="#STIXGeneral-Regular-56"/>
      <use xlink:href="#STIXGeneral-Regular-61" x="72.199982"/>
      <use xlink:href="#STIXGeneral-Regular-63" x="116.599976"/>
      <use xlink:href="#STIXGeneral-Regular-61" x="160.999969"/>
      <use xlink:href="#STIXGeneral-Regular-6e" x="205.399963"/>
      <use xlink:href="#STIXGeneral-Regular-63" x="255.399948"/>
      <use xlink:href="#STIXGeneral-Regular-79" x="299.799942"/>
      <use xlink:href="#STIXGeneral-Regular-20" x="349.799927"/>
      <use xlink:href="#STIXGeneral-Regular-72" x="374.799911"/>
      <use xlink:href="#STIXGeneral-Regular-61" x="408.099899"/>
      <use xlink:href="#STIXGeneral-Regular-74" x="452.499893"/>
      <use xlink:href="#STIXGeneral-Regular-65" x="480.299881"/>
      <use xlink:href="#STIXGeneral-Regular-2c" x="524.699875"/>
      <use xlink:href="#STIXGeneral-Regular-20" x="549.69986"/>
      <use xlink:href="#STIXGeneral-Regular-25" x="574.699844"/>
     </g>
    </g>
   </g>
   <g id="patch_3">
    <path d="M 39.9825 230.6225 
L 39.9825 12.66375 
" style="fill: none; stroke: #000000; stroke-width: 0.6; stroke-linejoin: miter; stroke-linecap: square"/>
   </g>
   <g id="patch_4">
    <path d="M 39.9825 230.6225 
L 548.574922 230.6225 
" style="fill: none; stroke: #000000; stroke-width: 0.6; stroke-linejoin: miter; stroke-linecap: square"/>
   </g>
   <g id="patch_5">
    <path d="M 164.619608 184.39707 
Q 166.418836 175.619866 166.513825 159.836464 
" style="fill: none; stroke: #000000; stroke-width: 0.8; stroke-linecap: round"/>
    <path d="M 164.084981 164.621933 
L 166.513825 159.836464 
L 168.884895 164.65082 
" style="fill: none; stroke: #000000; stroke-width: 0.8; stroke-linecap: round"/>
   </g>
   <g id="text_18">
    <!-- 2001 -->
    <g style="fill: #323034" transform="translate(146.525138 196.943754) scale(0.12 -0.12)">
     <use xlink:href="#STIXGeneral-Regular-32"/>
     <use xlink:href="#STIXGeneral-Regular-30" x="49.999985"/>
     <use xlink:href="#STIXGeneral-Regular-30" x="99.999969"/>
     <use xlink:href="#STIXGeneral-Regular-31" x="149.999954"/>
    </g>
   </g>
   <g id="patch_6">
    <path d="M 285.107575 68.134725 
Q 286.906803 59.357521 287.001792 43.574119 
" style="fill: none; stroke: #000000; stroke-width: 0.8; stroke-linecap: round"/>
    <path d="M 284.572948 48.359589 
L 287.001792 43.574119 
L 289.372861 48.388476 
" style="fill: none; stroke: #000000; stroke-width: 0.8; stroke-linecap: round"/>
   </g>
   <g id="text_19">
    <!-- 2021 -->
    <g style="fill: #323034" transform="translate(267.013105 80.681409) scale(0.12 -0.12)">
     <use xlink:href="#STIXGeneral-Regular-32"/>
     <use xlink:href="#STIXGeneral-Regular-30" x="49.999985"/>
     <use xlink:href="#STIXGeneral-Regular-32" x="99.999969"/>
     <use xlink:href="#STIXGeneral-Regular-31" x="149.999954"/>
    </g>
   </g>
  </g>
 </g>
 <defs>
  <clipPath id="pe5f362228b">
   <rect x="39.9825" y="12.66375" width="508.592422" height="217.95875"/>
  </clipPath>
 </defs>
</svg>