<?xml version="1.0" encoding="utf-8" standalone="no"?>
<!DOCTYPE svg PUBLIC "-//W3C//DTD SVG 1.1//EN"
  "http://www.w3.org/Graphics/SVG/1.1/DTD/svg11.dtd">
<svg xmlns:xlink="http://www.w3.org/1999/xlink" width="555.639609pt" height="283.9725pt" viewBox="0 0 555.639609 283.9725" xmlns="http://www.w3.org/2000/svg" version="1.1">
 <metadata>
  <rdf:RDF xmlns:dc="http://purl.org/dc/elements/1.1/" xmlns:cc="http://creativecommons.org/ns#" xmlns:rdf="http://www.w3.org/1999/02/22-rdf-syntax-ns#">
   <cc:Work>
    <dc:type rdf:resource="http://purl.org/dc/dcmitype/StillImage"/>
    <dc:date>2024-01-05T14:08:17.873663</dc:date>
    <dc:format>image/svg+xml</dc:format>
    <dc:creator>
     <cc:Agent>
      <dc:title>Matplotlib v3.8.2, https://matplotlib.org/</dc:title>
     </cc:Agent>
    </dc:creator>
   </cc:Work>
  </rdf:RDF>
 </metadata>
 <defs>
  <style type="text/css">*{stroke-linejoin: round; stroke-linecap: butt}</style>
 </defs>
 <g id="figure_1">
  <g id="patch_1">
   <path d="M 0 283.9725 
L 555.639609 283.9725 
L 555.639609 0 
L 0 0 
z
" style="fill: #ffffff"/>
  </g>
  <g id="axes_1">
   <g id="patch_2">
    <path d="M 34.2 132.074 
L 262.919609 132.074 
L 262.919609 57.915 
L 34.2 57.915 
z
" style="fill: #ffffff"/>
   </g>
   <g id="patch_3">
    <path d="M 148.581774 132.074 
L 155.745641 132.074 
L 155.745641 71.402661 
L 148.581774 71.402661 
z
" clip-path="url(#pda167b0495)" style="fill: #bc80bd; stroke: #000000; stroke-width: 0.8; stroke-linejoin: miter"/>
   </g>
   <g id="patch_4">
    <path d="M 155.745641 132.074 
L 162.909509 132.074 
L 162.909509 77.617774 
L 155.745641 77.617774 
z
" clip-path="url(#pda167b0495)" style="fill: #bc80bd; stroke: #000000; stroke-width: 0.8; stroke-linejoin: miter"/>
   </g>
   <g id="patch_5">
    <path d="M 162.909509 132.074 
L 170.073377 132.074 
L 170.073377 89.752041 
L 162.909509 89.752041 
z
" clip-path="url(#pda167b0495)" style="fill: #bc80bd; stroke: #000000; stroke-width: 0.8; stroke-linejoin: miter"/>
   </g>
   <g id="patch_6">
    <path d="M 170.073377 132.074 
L 177.237244 132.074 
L 177.237244 98.038858 
L 170.073377 98.038858 
z
" clip-path="url(#pda167b0495)" style="fill: #bc80bd; stroke: #000000; stroke-width: 0.8; stroke-linejoin: miter"/>
   </g>
   <g id="patch_7">
    <path d="M 177.237244 132.074 
L 184.401112 132.074 
L 184.401112 109.285253 
L 177.237244 109.285253 
z
" clip-path="url(#pda167b0495)" style="fill: #bc80bd; stroke: #000000; stroke-width: 0.8; stroke-linejoin: miter"/>
   </g>
   <g id="patch_8">
    <path d="M 184.401112 132.074 
L 191.56498 132.074 
L 191.56498 114.020577 
L 184.401112 114.020577 
z
" clip-path="url(#pda167b0495)" style="fill: #bc80bd; stroke: #000000; stroke-width: 0.8; stroke-linejoin: miter"/>
   </g>
   <g id="patch_9">
    <path d="M 191.56498 132.074 
L 198.728848 132.074 
L 198.728848 120.531648 
L 191.56498 120.531648 
z
" clip-path="url(#pda167b0495)" style="fill: #bc80bd; stroke: #000000; stroke-width: 0.8; stroke-linejoin: miter"/>
   </g>
   <g id="patch_10">
    <path d="M 198.728848 132.074 
L 205.892715 132.074 
L 205.892715 119.939732 
L 198.728848 119.939732 
z
" clip-path="url(#pda167b0495)" style="fill: #bc80bd; stroke: #000000; stroke-width: 0.8; stroke-linejoin: miter"/>
   </g>
   <g id="patch_11">
    <path d="M 205.892715 132.074 
L 213.056583 132.074 
L 213.056583 119.051859 
L 205.892715 119.051859 
z
" clip-path="url(#pda167b0495)" style="fill: #bc80bd; stroke: #000000; stroke-width: 0.8; stroke-linejoin: miter"/>
   </g>
   <g id="patch_12">
    <path d="M 213.056583 132.074 
L 220.220451 132.074 
L 220.220451 126.154845 
L 213.056583 126.154845 
z
" clip-path="url(#pda167b0495)" style="fill: #bc80bd; stroke: #000000; stroke-width: 0.8; stroke-linejoin: miter"/>
   </g>
   <g id="patch_13">
    <path d="M 220.220451 132.074 
L 227.384318 132.074 
L 227.384318 127.634634 
L 220.220451 127.634634 
z
" clip-path="url(#pda167b0495)" style="fill: #bc80bd; stroke: #000000; stroke-width: 0.8; stroke-linejoin: miter"/>
   </g>
   <g id="patch_14">
    <path d="M 227.384318 132.074 
L 234.548186 132.074 
L 234.548186 128.522507 
L 227.384318 128.522507 
z
" clip-path="url(#pda167b0495)" style="fill: #bc80bd; stroke: #000000; stroke-width: 0.8; stroke-linejoin: miter"/>
   </g>
   <g id="patch_15">
    <path d="M 234.548186 132.074 
L 241.712054 132.074 
L 241.712054 129.706338 
L 234.548186 129.706338 
z
" clip-path="url(#pda167b0495)" style="fill: #bc80bd; stroke: #000000; stroke-width: 0.8; stroke-linejoin: miter"/>
   </g>
   <g id="patch_16">
    <path d="M 241.712054 132.074 
L 248.875922 132.074 
L 248.875922 130.002296 
L 241.712054 130.002296 
z
" clip-path="url(#pda167b0495)" style="fill: #bc80bd; stroke: #000000; stroke-width: 0.8; stroke-linejoin: miter"/>
   </g>
   <g id="patch_17">
    <path d="M 248.875922 132.074 
L 256.039789 132.074 
L 256.039789 131.186127 
L 248.875922 131.186127 
z
" clip-path="url(#pda167b0495)" style="fill: #bc80bd; stroke: #000000; stroke-width: 0.8; stroke-linejoin: miter"/>
   </g>
   <g id="patch_18">
    <path d="M 256.039789 132.074 
L 263.203657 132.074 
L 263.203657 130.298253 
L 256.039789 130.298253 
z
" clip-path="url(#pda167b0495)" style="fill: #bc80bd; stroke: #000000; stroke-width: 0.8; stroke-linejoin: miter"/>
   </g>
   <g id="patch_19">
    <path d="M 263.203657 132.074 
L 270.367525 132.074 
L 270.367525 130.890169 
L 263.203657 130.890169 
z
" clip-path="url(#pda167b0495)" style="fill: #bc80bd; stroke: #000000; stroke-width: 0.8; stroke-linejoin: miter"/>
   </g>
   <g id="patch_20">
    <path d="M 270.367525 132.074 
L 277.531392 132.074 
L 277.531392 130.890169 
L 270.367525 130.890169 
z
" clip-path="url(#pda167b0495)" style="fill: #bc80bd; stroke: #000000; stroke-width: 0.8; stroke-linejoin: miter"/>
   </g>
   <g id="patch_21">
    <path d="M 277.531392 132.074 
L 284.69526 132.074 
L 284.69526 131.482084 
L 277.531392 131.482084 
z
" clip-path="url(#pda167b0495)" style="fill: #bc80bd; stroke: #000000; stroke-width: 0.8; stroke-linejoin: miter"/>
   </g>
   <g id="patch_22">
    <path d="M 284.69526 132.074 
L 291.859128 132.074 
L 291.859128 132.074 
L 284.69526 132.074 
z
" clip-path="url(#pda167b0495)" style="fill: #bc80bd; stroke: #000000; stroke-width: 0.8; stroke-linejoin: miter"/>
   </g>
   <g id="patch_23">
    <path d="M 291.859128 132.074 
L 299.022996 132.074 
L 299.022996 131.482084 
L 291.859128 131.482084 
z
" clip-path="url(#pda167b0495)" style="fill: #bc80bd; stroke: #000000; stroke-width: 0.8; stroke-linejoin: miter"/>
   </g>
   <g id="patch_24">
    <path d="M 299.022996 132.074 
L 306.186863 132.074 
L 306.186863 131.186127 
L 299.022996 131.186127 
z
" clip-path="url(#pda167b0495)" style="fill: #bc80bd; stroke: #000000; stroke-width: 0.8; stroke-linejoin: miter"/>
   </g>
   <g id="patch_25">
    <path d="M 306.186863 132.074 
L 313.350731 132.074 
L 313.350731 131.778042 
L 306.186863 131.778042 
z
" clip-path="url(#pda167b0495)" style="fill: #bc80bd; stroke: #000000; stroke-width: 0.8; stroke-linejoin: miter"/>
   </g>
   <g id="patch_26">
    <path d="M 313.350731 132.074 
L 320.514599 132.074 
L 320.514599 131.482084 
L 313.350731 131.482084 
z
" clip-path="url(#pda167b0495)" style="fill: #bc80bd; stroke: #000000; stroke-width: 0.8; stroke-linejoin: miter"/>
   </g>
   <g id="patch_27">
    <path d="M 320.514599 132.074 
L 327.678467 132.074 
L 327.678467 131.778042 
L 320.514599 131.778042 
z
" clip-path="url(#pda167b0495)" style="fill: #bc80bd; stroke: #000000; stroke-width: 0.8; stroke-linejoin: miter"/>
   </g>
   <g id="patch_28">
    <path d="M 327.678467 132.074 
L 334.842334 132.074 
L 334.842334 132.074 
L 327.678467 132.074 
z
" clip-path="url(#pda167b0495)" style="fill: #bc80bd; stroke: #000000; stroke-width: 0.8; stroke-linejoin: miter"/>
   </g>
   <g id="patch_29">
    <path d="M 334.842334 132.074 
L 342.006202 132.074 
L 342.006202 132.074 
L 334.842334 132.074 
z
" clip-path="url(#pda167b0495)" style="fill: #bc80bd; stroke: #000000; stroke-width: 0.8; stroke-linejoin: miter"/>
   </g>
   <g id="patch_30">
    <path d="M 342.006202 132.074 
L 349.17007 132.074 
L 349.17007 132.074 
L 342.006202 132.074 
z
" clip-path="url(#pda167b0495)" style="fill: #bc80bd; stroke: #000000; stroke-width: 0.8; stroke-linejoin: miter"/>
   </g>
   <g id="patch_31">
    <path d="M 349.17007 132.074 
L 356.333937 132.074 
L 356.333937 132.074 
L 349.17007 132.074 
z
" clip-path="url(#pda167b0495)" style="fill: #bc80bd; stroke: #000000; stroke-width: 0.8; stroke-linejoin: miter"/>
   </g>
   <g id="patch_32">
    <path d="M 356.333937 132.074 
L 363.497805 132.074 
L 363.497805 131.778042 
L 356.333937 131.778042 
z
" clip-path="url(#pda167b0495)" style="fill: #bc80bd; stroke: #000000; stroke-width: 0.8; stroke-linejoin: miter"/>
   </g>
   <g id="matplotlib.axis_1">
    <g id="xtick_1">
     <g id="line2d_1">
      <defs>
       <path id="mea18c70df2" d="M 0 0 
L 0 3.5 
" style="stroke: #323034; stroke-width: 0.8"/>
      </defs>
      <g>
       <use xlink:href="#mea18c70df2" x="34.2" y="132.074" style="fill: #323034; stroke: #323034; stroke-width: 0.8"/>
      </g>
     </g>
     <g id="text_1">
      <!-- $\mathdefault{−4}$ -->
      <g style="fill: #323034" transform="translate(24.68 150.0015) scale(0.16 -0.16)">
       <defs>
        <path id="STIXGeneral-Regular-2212" d="M 3974 1408 
L 410 1408 
L 410 1830 
L 3974 1830 
L 3974 1408 
z
" transform="scale(0.015625)"/>
        <path id="STIXGeneral-Regular-34" d="M 3027 1069 
L 2368 1069 
L 2368 0 
L 1869 0 
L 1869 1069 
L 77 1069 
L 77 1478 
L 2086 4326 
L 2368 4326 
L 2368 1478 
L 3027 1478 
L 3027 1069 
z
M 1869 1478 
L 1869 3674 
L 333 1478 
L 1869 1478 
z
" transform="scale(0.015625)"/>
       </defs>
       <use xlink:href="#STIXGeneral-Regular-2212" transform="translate(0 0.40625)"/>
       <use xlink:href="#STIXGeneral-Regular-34" transform="translate(68.499985 0.40625)"/>
      </g>
     </g>
    </g>
    <g id="xtick_2">
     <g id="line2d_2">
      <g>
       <use xlink:href="#mea18c70df2" x="91.379902" y="132.074" style="fill: #323034; stroke: #323034; stroke-width: 0.8"/>
      </g>
     </g>
     <g id="text_2">
      <!-- $\mathdefault{−2}$ -->
      <g style="fill: #323034" transform="translate(81.859902 150.0015) scale(0.16 -0.16)">
       <defs>
        <path id="STIXGeneral-Regular-32" d="M 3034 877 
L 2688 0 
L 186 0 
L 186 77 
L 1325 1286 
Q 1773 1754 1965 2144 
Q 2157 2534 2157 2950 
Q 2157 3379 1920 3616 
Q 1683 3853 1267 3853 
Q 922 3853 720 3673 
Q 518 3494 326 3021 
L 192 3053 
Q 301 3648 630 3987 
Q 960 4326 1523 4326 
Q 2054 4326 2380 4006 
Q 2707 3686 2707 3200 
Q 2707 2477 1888 1613 
L 832 486 
L 2330 486 
Q 2541 486 2665 569 
Q 2790 653 2944 915 
L 3034 877 
z
" transform="scale(0.015625)"/>
       </defs>
       <use xlink:href="#STIXGeneral-Regular-2212" transform="translate(0 0.40625)"/>
       <use xlink:href="#STIXGeneral-Regular-32" transform="translate(68.499985 0.40625)"/>
      </g>
     </g>
    </g>
    <g id="xtick_3">
     <g id="line2d_3">
      <g>
       <use xlink:href="#mea18c70df2" x="148.559805" y="132.074" style="fill: #323034; stroke: #323034; stroke-width: 0.8"/>
      </g>
     </g>
     <g id="text_3">
      <!-- $\mathdefault{0}$ -->
      <g style="fill: #323034" transform="translate(144.559805 150.0015) scale(0.16 -0.16)">
       <defs>
        <path id="STIXGeneral-Regular-30" d="M 3046 2112 
Q 3046 1683 2963 1302 
Q 2880 922 2717 602 
Q 2554 282 2266 96 
Q 1978 -90 1600 -90 
Q 1210 -90 915 108 
Q 621 307 461 640 
Q 301 973 227 1350 
Q 154 1728 154 2150 
Q 154 2746 301 3222 
Q 448 3699 790 4012 
Q 1133 4326 1626 4326 
Q 2253 4326 2649 3712 
Q 3046 3098 3046 2112 
z
M 2432 2080 
Q 2432 3091 2217 3625 
Q 2003 4160 1587 4160 
Q 1190 4160 979 3622 
Q 768 3085 768 2106 
Q 768 1120 979 598 
Q 1190 77 1600 77 
Q 2003 77 2217 598 
Q 2432 1120 2432 2080 
z
" transform="scale(0.015625)"/>
       </defs>
       <use xlink:href="#STIXGeneral-Regular-30" transform="translate(0 0.40625)"/>
      </g>
     </g>
    </g>
    <g id="xtick_4">
     <g id="line2d_4">
      <g>
       <use xlink:href="#mea18c70df2" x="205.739707" y="132.074" style="fill: #323034; stroke: #323034; stroke-width: 0.8"/>
      </g>
     </g>
     <g id="text_4">
      <!-- $\mathdefault{2}$ -->
      <g style="fill: #323034" transform="translate(201.739707 150.0015) scale(0.16 -0.16)">
       <use xlink:href="#STIXGeneral-Regular-32" transform="translate(0 0.40625)"/>
      </g>
     </g>
    </g>
    <g id="xtick_5">
     <g id="line2d_5">
      <g>
       <use xlink:href="#mea18c70df2" x="262.919609" y="132.074" style="fill: #323034; stroke: #323034; stroke-width: 0.8"/>
      </g>
     </g>
     <g id="text_5">
      <!-- $\mathdefault{4}$ -->
      <g style="fill: #323034" transform="translate(258.919609 150.0015) scale(0.16 -0.16)">
       <use xlink:href="#STIXGeneral-Regular-34" transform="translate(0 0.40625)"/>
      </g>
     </g>
    </g>
   </g>
   <g id="matplotlib.axis_2">
    <g id="ytick_1">
     <g id="line2d_6">
      <defs>
       <path id="mddb28dafc4" d="M 0 0 
L -3.5 0 
" style="stroke: #323034; stroke-width: 0.8"/>
      </defs>
      <g>
       <use xlink:href="#mddb28dafc4" x="34.2" y="132.074" style="fill: #323034; stroke: #323034; stroke-width: 0.8"/>
      </g>
     </g>
     <g id="text_6">
      <!-- $\mathdefault{0.0}$ -->
      <g style="fill: #323034" transform="translate(7.2 137.53775) scale(0.16 -0.16)">
       <defs>
        <path id="STIXGeneral-Regular-2e" d="M 1158 275 
Q 1158 134 1052 32 
Q 947 -70 800 -70 
Q 653 -70 550 32 
Q 448 134 448 281 
Q 448 429 553 534 
Q 659 640 806 640 
Q 947 640 1052 531 
Q 1158 422 1158 275 
z
" transform="scale(0.015625)"/>
       </defs>
       <use xlink:href="#STIXGeneral-Regular-30" transform="translate(0 0.40625)"/>
       <use xlink:href="#STIXGeneral-Regular-2e" transform="translate(49.999985 0.40625)"/>
       <use xlink:href="#STIXGeneral-Regular-30" transform="translate(74.999969 0.40625)"/>
      </g>
     </g>
    </g>
    <g id="ytick_2">
     <g id="line2d_7">
      <g>
       <use xlink:href="#mddb28dafc4" x="34.2" y="94.9945" style="fill: #323034; stroke: #323034; stroke-width: 0.8"/>
      </g>
     </g>
     <g id="text_7">
      <!-- $\mathdefault{0.5}$ -->
      <g style="fill: #323034" transform="translate(7.2 100.45825) scale(0.16 -0.16)">
       <defs>
        <path id="STIXGeneral-Regular-35" d="M 2803 4358 
L 2573 3814 
Q 2534 3731 2400 3731 
L 1158 3731 
L 902 3187 
Q 1606 3053 1920 2896 
Q 2234 2739 2502 2368 
Q 2726 2061 2726 1555 
Q 2726 1094 2576 780 
Q 2426 467 2099 224 
Q 1664 -90 1011 -90 
Q 646 -90 422 19 
Q 198 128 198 307 
Q 198 550 486 550 
Q 717 550 960 352 
Q 1210 147 1414 147 
Q 1747 147 2012 480 
Q 2278 813 2278 1229 
Q 2278 1843 1850 2189 
Q 1293 2637 486 2637 
Q 410 2637 410 2688 
L 416 2720 
L 1114 4237 
L 2438 4237 
Q 2547 4237 2608 4269 
Q 2669 4301 2746 4403 
L 2803 4358 
z
" transform="scale(0.015625)"/>
       </defs>
       <use xlink:href="#STIXGeneral-Regular-30" transform="translate(0 0.203125)"/>
       <use xlink:href="#STIXGeneral-Regular-2e" transform="translate(49.999985 0.203125)"/>
       <use xlink:href="#STIXGeneral-Regular-35" transform="translate(74.999969 0.203125)"/>
      </g>
     </g>
    </g>
    <g id="ytick_3">
     <g id="line2d_8">
      <g>
       <use xlink:href="#mddb28dafc4" x="34.2" y="57.915" style="fill: #323034; stroke: #323034; stroke-width: 0.8"/>
      </g>
     </g>
     <g id="text_8">
      <!-- $\mathdefault{1.0}$ -->
      <g style="fill: #323034" transform="translate(7.2 63.37875) scale(0.16 -0.16)">
       <defs>
        <path id="STIXGeneral-Regular-31" d="M 2522 0 
L 755 0 
L 755 96 
Q 1107 115 1235 227 
Q 1363 339 1363 608 
L 1363 3482 
Q 1363 3795 1171 3795 
Q 1082 3795 883 3718 
L 710 3654 
L 710 3744 
L 1856 4326 
L 1914 4307 
L 1914 486 
Q 1914 275 2042 185 
Q 2170 96 2522 96 
L 2522 0 
z
" transform="scale(0.015625)"/>
       </defs>
       <use xlink:href="#STIXGeneral-Regular-31" transform="translate(0 0.40625)"/>
       <use xlink:href="#STIXGeneral-Regular-2e" transform="translate(49.999985 0.40625)"/>
       <use xlink:href="#STIXGeneral-Regular-30" transform="translate(74.999969 0.40625)"/>
      </g>
     </g>
    </g>
   </g>
   <g id="patch_33">
    <path d="M 34.2 132.074 
L 34.2 57.915 
" style="fill: none; stroke: #000000; stroke-width: 0.6; stroke-linejoin: miter; stroke-linecap: square"/>
   </g>
   <g id="patch_34">
    <path d="M 34.2 132.074 
L 262.919609 132.074 
" style="fill: none; stroke: #000000; stroke-width: 0.6; stroke-linejoin: miter; stroke-linecap: square"/>
   </g>
   <g id="text_9">
    <!-- Original -->
    <g style="fill: #323034" transform="translate(34.2 51.915) scale(0.12 -0.12)">
     <defs>
      <path id="STIXGeneral-Regular-4f" d="M 4403 2118 
Q 4403 1133 3820 521 
Q 3238 -90 2310 -90 
Q 1376 -90 797 524 
Q 218 1139 218 2138 
Q 218 3110 797 3718 
Q 1376 4326 2310 4326 
Q 3245 4326 3824 3702 
Q 4403 3078 4403 2118 
z
M 3674 2157 
Q 3674 2701 3520 3133 
Q 3366 3565 3091 3795 
Q 2733 4096 2304 4096 
Q 1760 4096 1389 3667 
Q 1184 3437 1065 3011 
Q 947 2586 947 2125 
Q 947 960 1523 429 
Q 1837 141 2317 141 
Q 2816 141 3142 448 
Q 3674 960 3674 2157 
z
" transform="scale(0.015625)"/>
      <path id="STIXGeneral-Regular-72" d="M 1024 2931 
L 1024 2342 
Q 1267 2688 1430 2816 
Q 1594 2944 1792 2944 
Q 1958 2944 2051 2854 
Q 2144 2765 2144 2605 
Q 2144 2470 2077 2393 
Q 2010 2317 1894 2317 
Q 1773 2317 1638 2445 
Q 1536 2541 1472 2541 
Q 1338 2541 1181 2355 
Q 1024 2170 1024 2016 
L 1024 576 
Q 1024 301 1133 205 
Q 1242 109 1568 96 
L 1568 0 
L 32 0 
L 32 96 
Q 339 154 412 224 
Q 486 294 486 538 
L 486 2138 
Q 486 2349 438 2435 
Q 390 2522 269 2522 
Q 166 2522 45 2496 
L 45 2598 
Q 448 2726 992 2944 
L 1024 2931 
z
" transform="scale(0.015625)"/>
      <path id="STIXGeneral-Regular-69" d="M 1152 4045 
Q 1152 3904 1056 3811 
Q 960 3718 819 3718 
Q 685 3718 592 3811 
Q 499 3904 499 4045 
Q 499 4179 595 4275 
Q 691 4371 826 4371 
Q 966 4371 1059 4275 
Q 1152 4179 1152 4045 
z
M 1619 0 
L 102 0 
L 102 96 
Q 435 115 521 211 
Q 608 307 608 666 
L 608 2118 
Q 608 2342 563 2432 
Q 518 2522 397 2522 
Q 243 2522 128 2490 
L 128 2592 
L 1120 2944 
L 1146 2918 
L 1146 672 
Q 1146 314 1226 218 
Q 1306 122 1619 96 
L 1619 0 
z
" transform="scale(0.015625)"/>
      <path id="STIXGeneral-Regular-67" d="M 3008 2483 
L 2477 2483 
Q 2598 2208 2598 1946 
Q 2598 1453 2265 1203 
Q 1933 954 1600 954 
Q 1530 954 1357 973 
L 1235 986 
Q 1107 947 979 812 
Q 851 678 851 582 
Q 851 435 1350 410 
L 2176 371 
Q 2528 358 2739 172 
Q 2950 -13 2950 -314 
Q 2950 -685 2566 -986 
Q 2035 -1395 1286 -1395 
Q 826 -1395 502 -1212 
Q 179 -1030 179 -774 
Q 179 -595 320 -419 
Q 461 -243 806 6 
Q 602 102 534 172 
Q 467 243 467 346 
Q 467 531 762 787 
Q 909 915 1037 1043 
Q 717 1203 579 1401 
Q 442 1600 442 1901 
Q 442 2336 752 2640 
Q 1062 2944 1510 2944 
Q 1766 2944 2022 2848 
L 2163 2797 
Q 2349 2733 2515 2733 
L 3008 2733 
L 3008 2483 
z
M 973 2163 
L 973 2144 
Q 973 1683 1155 1398 
Q 1338 1114 1632 1114 
Q 1850 1114 1978 1270 
Q 2106 1427 2106 1690 
Q 2106 2112 1914 2464 
Q 1754 2765 1446 2765 
Q 1222 2765 1097 2605 
Q 973 2445 973 2163 
z
M 2771 -410 
Q 2771 -230 2595 -163 
Q 2419 -96 1978 -96 
Q 1344 -96 941 -13 
Q 749 -243 688 -348 
Q 627 -454 627 -563 
Q 627 -774 880 -902 
Q 1133 -1030 1555 -1030 
Q 2099 -1030 2435 -860 
Q 2771 -691 2771 -410 
z
" transform="scale(0.015625)"/>
      <path id="STIXGeneral-Regular-6e" d="M 3104 0 
L 1773 0 
L 1779 96 
Q 2016 115 2096 233 
Q 2176 352 2176 672 
L 2176 1946 
Q 2176 2592 1709 2592 
Q 1549 2592 1408 2515 
Q 1267 2438 1050 2227 
L 1050 461 
Q 1050 269 1136 192 
Q 1222 115 1466 96 
L 1466 0 
L 115 0 
L 115 96 
Q 358 115 435 214 
Q 512 314 512 602 
L 512 2157 
Q 512 2394 467 2483 
Q 422 2573 288 2573 
Q 160 2573 102 2547 
L 102 2656 
Q 550 2784 979 2944 
L 1030 2925 
L 1030 2426 
L 1037 2426 
Q 1491 2944 1958 2944 
Q 2323 2944 2518 2688 
Q 2714 2432 2714 1958 
L 2714 544 
Q 2714 288 2790 205 
Q 2867 122 3104 96 
L 3104 0 
z
" transform="scale(0.015625)"/>
      <path id="STIXGeneral-Regular-61" d="M 2829 422 
L 2829 243 
Q 2586 -64 2253 -64 
Q 1888 -64 1843 403 
L 1837 403 
Q 1427 -64 909 -64 
Q 608 -64 422 112 
Q 237 288 237 602 
Q 237 1050 685 1350 
Q 992 1555 1837 1869 
L 1837 2214 
Q 1837 2502 1699 2646 
Q 1562 2790 1338 2790 
Q 1146 2790 1018 2697 
Q 890 2605 890 2477 
Q 890 2419 909 2348 
Q 928 2278 928 2208 
Q 928 2112 841 2029 
Q 755 1946 634 1946 
Q 525 1946 441 2029 
Q 358 2112 358 2240 
Q 358 2547 685 2752 
Q 986 2944 1421 2944 
Q 1939 2944 2176 2656 
Q 2291 2522 2323 2384 
Q 2355 2246 2355 1946 
L 2355 723 
Q 2355 301 2554 301 
Q 2682 301 2829 422 
z
M 1837 813 
L 1837 1715 
Q 1248 1510 1018 1293 
Q 800 1094 800 800 
Q 800 557 921 432 
Q 1043 307 1242 307 
Q 1453 307 1613 410 
Q 1747 506 1792 589 
Q 1837 672 1837 813 
z
" transform="scale(0.015625)"/>
      <path id="STIXGeneral-Regular-6c" d="M 1645 0 
L 134 0 
L 134 96 
Q 435 122 531 221 
Q 627 320 627 589 
L 627 3590 
Q 627 3821 569 3910 
Q 512 4000 358 4000 
Q 224 4000 122 3987 
L 122 4090 
Q 730 4237 1133 4371 
L 1165 4346 
L 1165 557 
Q 1165 288 1254 201 
Q 1344 115 1645 96 
L 1645 0 
z
" transform="scale(0.015625)"/>
     </defs>
     <use xlink:href="#STIXGeneral-Regular-4f"/>
     <use xlink:href="#STIXGeneral-Regular-72" x="72.199982"/>
     <use xlink:href="#STIXGeneral-Regular-69" x="105.499969"/>
     <use xlink:href="#STIXGeneral-Regular-67" x="133.299957"/>
     <use xlink:href="#STIXGeneral-Regular-69" x="183.299942"/>
     <use xlink:href="#STIXGeneral-Regular-6e" x="211.09993"/>
     <use xlink:href="#STIXGeneral-Regular-61" x="261.099915"/>
     <use xlink:href="#STIXGeneral-Regular-6c" x="305.499908"/>
    </g>
   </g>
  </g>
  <g id="axes_2">
   <g id="patch_35">
    <path d="M 315.72 132.074 
L 544.439609 132.074 
L 544.439609 57.915 
L 315.72 57.915 
z
" style="fill: #ffffff"/>
   </g>
   <g id="patch_36">
    <path d="M 225.056056 132.074 
L 233.81266 132.074 
L 233.81266 131.468685 
L 225.056056 131.468685 
z
" clip-path="url(#pab740ae3f9)" style="fill: #bc80bd; stroke: #000000; stroke-width: 0.8; stroke-linejoin: miter"/>
   </g>
   <g id="patch_37">
    <path d="M 233.81266 132.074 
L 242.569263 132.074 
L 242.569263 132.074 
L 233.81266 132.074 
z
" clip-path="url(#pab740ae3f9)" style="fill: #bc80bd; stroke: #000000; stroke-width: 0.8; stroke-linejoin: miter"/>
   </g>
   <g id="patch_38">
    <path d="M 242.569263 132.074 
L 251.325866 132.074 
L 251.325866 131.468685 
L 242.569263 131.468685 
z
" clip-path="url(#pab740ae3f9)" style="fill: #bc80bd; stroke: #000000; stroke-width: 0.8; stroke-linejoin: miter"/>
   </g>
   <g id="patch_39">
    <path d="M 251.325866 132.074 
L 260.082469 132.074 
L 260.082469 131.468685 
L 251.325866 131.468685 
z
" clip-path="url(#pab740ae3f9)" style="fill: #bc80bd; stroke: #000000; stroke-width: 0.8; stroke-linejoin: miter"/>
   </g>
   <g id="patch_40">
    <path d="M 260.082469 132.074 
L 268.839072 132.074 
L 268.839072 131.468685 
L 260.082469 131.468685 
z
" clip-path="url(#pab740ae3f9)" style="fill: #bc80bd; stroke: #000000; stroke-width: 0.8; stroke-linejoin: miter"/>
   </g>
   <g id="patch_41">
    <path d="M 268.839072 132.074 
L 277.595675 132.074 
L 277.595675 131.468685 
L 268.839072 131.468685 
z
" clip-path="url(#pab740ae3f9)" style="fill: #bc80bd; stroke: #000000; stroke-width: 0.8; stroke-linejoin: miter"/>
   </g>
   <g id="patch_42">
    <path d="M 277.595675 132.074 
L 286.352278 132.074 
L 286.352278 129.652739 
L 277.595675 129.652739 
z
" clip-path="url(#pab740ae3f9)" style="fill: #bc80bd; stroke: #000000; stroke-width: 0.8; stroke-linejoin: miter"/>
   </g>
   <g id="patch_43">
    <path d="M 286.352278 132.074 
L 295.108882 132.074 
L 295.108882 130.863369 
L 286.352278 130.863369 
z
" clip-path="url(#pab740ae3f9)" style="fill: #bc80bd; stroke: #000000; stroke-width: 0.8; stroke-linejoin: miter"/>
   </g>
   <g id="patch_44">
    <path d="M 295.108882 132.074 
L 303.865485 132.074 
L 303.865485 128.442108 
L 295.108882 128.442108 
z
" clip-path="url(#pab740ae3f9)" style="fill: #bc80bd; stroke: #000000; stroke-width: 0.8; stroke-linejoin: miter"/>
   </g>
   <g id="patch_45">
    <path d="M 303.865485 132.074 
L 312.622088 132.074 
L 312.622088 129.047424 
L 303.865485 129.047424 
z
" clip-path="url(#pab740ae3f9)" style="fill: #bc80bd; stroke: #000000; stroke-width: 0.8; stroke-linejoin: miter"/>
   </g>
   <g id="patch_46">
    <path d="M 312.622088 132.074 
L 321.378691 132.074 
L 321.378691 126.626163 
L 312.622088 126.626163 
z
" clip-path="url(#pab740ae3f9)" style="fill: #bc80bd; stroke: #000000; stroke-width: 0.8; stroke-linejoin: miter"/>
   </g>
   <g id="patch_47">
    <path d="M 321.378691 132.074 
L 330.135294 132.074 
L 330.135294 127.836793 
L 321.378691 127.836793 
z
" clip-path="url(#pab740ae3f9)" style="fill: #bc80bd; stroke: #000000; stroke-width: 0.8; stroke-linejoin: miter"/>
   </g>
   <g id="patch_48">
    <path d="M 330.135294 132.074 
L 338.891897 132.074 
L 338.891897 126.020847 
L 330.135294 126.020847 
z
" clip-path="url(#pab740ae3f9)" style="fill: #bc80bd; stroke: #000000; stroke-width: 0.8; stroke-linejoin: miter"/>
   </g>
   <g id="patch_49">
    <path d="M 338.891897 132.074 
L 347.6485 132.074 
L 347.6485 124.204902 
L 338.891897 124.204902 
z
" clip-path="url(#pab740ae3f9)" style="fill: #bc80bd; stroke: #000000; stroke-width: 0.8; stroke-linejoin: miter"/>
   </g>
   <g id="patch_50">
    <path d="M 347.6485 132.074 
L 356.405104 132.074 
L 356.405104 119.36238 
L 347.6485 119.36238 
z
" clip-path="url(#pab740ae3f9)" style="fill: #bc80bd; stroke: #000000; stroke-width: 0.8; stroke-linejoin: miter"/>
   </g>
   <g id="patch_51">
    <path d="M 356.405104 132.074 
L 365.161707 132.074 
L 365.161707 119.967695 
L 356.405104 119.967695 
z
" clip-path="url(#pab740ae3f9)" style="fill: #bc80bd; stroke: #000000; stroke-width: 0.8; stroke-linejoin: miter"/>
   </g>
   <g id="patch_52">
    <path d="M 365.161707 132.074 
L 373.91831 132.074 
L 373.91831 111.493281 
L 365.161707 111.493281 
z
" clip-path="url(#pab740ae3f9)" style="fill: #bc80bd; stroke: #000000; stroke-width: 0.8; stroke-linejoin: miter"/>
   </g>
   <g id="patch_53">
    <path d="M 373.91831 132.074 
L 382.674913 132.074 
L 382.674913 112.703912 
L 373.91831 112.703912 
z
" clip-path="url(#pab740ae3f9)" style="fill: #bc80bd; stroke: #000000; stroke-width: 0.8; stroke-linejoin: miter"/>
   </g>
   <g id="patch_54">
    <path d="M 382.674913 132.074 
L 391.431516 132.074 
L 391.431516 107.256075 
L 382.674913 107.256075 
z
" clip-path="url(#pab740ae3f9)" style="fill: #bc80bd; stroke: #000000; stroke-width: 0.8; stroke-linejoin: miter"/>
   </g>
   <g id="patch_55">
    <path d="M 391.431516 132.074 
L 400.188119 132.074 
L 400.188119 87.885986 
L 391.431516 87.885986 
z
" clip-path="url(#pab740ae3f9)" style="fill: #bc80bd; stroke: #000000; stroke-width: 0.8; stroke-linejoin: miter"/>
   </g>
   <g id="patch_56">
    <path d="M 400.188119 132.074 
L 408.944722 132.074 
L 408.944722 78.200942 
L 400.188119 78.200942 
z
" clip-path="url(#pab740ae3f9)" style="fill: #bc80bd; stroke: #000000; stroke-width: 0.8; stroke-linejoin: miter"/>
   </g>
   <g id="patch_57">
    <path d="M 408.944722 132.074 
L 417.701326 132.074 
L 417.701326 64.278691 
L 408.944722 64.278691 
z
" clip-path="url(#pab740ae3f9)" style="fill: #bc80bd; stroke: #000000; stroke-width: 0.8; stroke-linejoin: miter"/>
   </g>
   <g id="patch_58">
    <path d="M 417.701326 132.074 
L 426.457929 132.074 
L 426.457929 63.673376 
L 417.701326 63.673376 
z
" clip-path="url(#pab740ae3f9)" style="fill: #bc80bd; stroke: #000000; stroke-width: 0.8; stroke-linejoin: miter"/>
   </g>
   <g id="patch_59">
    <path d="M 426.457929 132.074 
L 435.214532 132.074 
L 435.214532 66.094637 
L 426.457929 66.094637 
z
" clip-path="url(#pab740ae3f9)" style="fill: #bc80bd; stroke: #000000; stroke-width: 0.8; stroke-linejoin: miter"/>
   </g>
   <g id="patch_60">
    <path d="M 435.214532 132.074 
L 443.971135 132.074 
L 443.971135 69.121213 
L 435.214532 69.121213 
z
" clip-path="url(#pab740ae3f9)" style="fill: #bc80bd; stroke: #000000; stroke-width: 0.8; stroke-linejoin: miter"/>
   </g>
   <g id="patch_61">
    <path d="M 443.971135 132.074 
L 452.727738 132.074 
L 452.727738 76.990312 
L 443.971135 76.990312 
z
" clip-path="url(#pab740ae3f9)" style="fill: #bc80bd; stroke: #000000; stroke-width: 0.8; stroke-linejoin: miter"/>
   </g>
   <g id="patch_62">
    <path d="M 452.727738 132.074 
L 461.484341 132.074 
L 461.484341 98.176346 
L 452.727738 98.176346 
z
" clip-path="url(#pab740ae3f9)" style="fill: #bc80bd; stroke: #000000; stroke-width: 0.8; stroke-linejoin: miter"/>
   </g>
   <g id="patch_63">
    <path d="M 461.484341 132.074 
L 470.240944 132.074 
L 470.240944 117.546434 
L 461.484341 117.546434 
z
" clip-path="url(#pab740ae3f9)" style="fill: #bc80bd; stroke: #000000; stroke-width: 0.8; stroke-linejoin: miter"/>
   </g>
   <g id="patch_64">
    <path d="M 470.240944 132.074 
L 478.997548 132.074 
L 478.997548 122.994271 
L 470.240944 122.994271 
z
" clip-path="url(#pab740ae3f9)" style="fill: #bc80bd; stroke: #000000; stroke-width: 0.8; stroke-linejoin: miter"/>
   </g>
   <g id="patch_65">
    <path d="M 478.997548 132.074 
L 487.754151 132.074 
L 487.754151 129.047424 
L 478.997548 129.047424 
z
" clip-path="url(#pab740ae3f9)" style="fill: #bc80bd; stroke: #000000; stroke-width: 0.8; stroke-linejoin: miter"/>
   </g>
   <g id="matplotlib.axis_3">
    <g id="xtick_6">
     <g id="line2d_9">
      <g>
       <use xlink:href="#mea18c70df2" x="315.72" y="132.074" style="fill: #323034; stroke: #323034; stroke-width: 0.8"/>
      </g>
     </g>
     <g id="text_10">
      <!-- $\mathdefault{−4}$ -->
      <g style="fill: #323034" transform="translate(306.2 150.0015) scale(0.16 -0.16)">
       <use xlink:href="#STIXGeneral-Regular-2212" transform="translate(0 0.40625)"/>
       <use xlink:href="#STIXGeneral-Regular-34" transform="translate(68.499985 0.40625)"/>
      </g>
     </g>
    </g>
    <g id="xtick_7">
     <g id="line2d_10">
      <g>
       <use xlink:href="#mea18c70df2" x="372.899902" y="132.074" style="fill: #323034; stroke: #323034; stroke-width: 0.8"/>
      </g>
     </g>
     <g id="text_11">
      <!-- $\mathdefault{−2}$ -->
      <g style="fill: #323034" transform="translate(363.379902 150.0015) scale(0.16 -0.16)">
       <use xlink:href="#STIXGeneral-Regular-2212" transform="translate(0 0.40625)"/>
       <use xlink:href="#STIXGeneral-Regular-32" transform="translate(68.499985 0.40625)"/>
      </g>
     </g>
    </g>
    <g id="xtick_8">
     <g id="line2d_11">
      <g>
       <use xlink:href="#mea18c70df2" x="430.079805" y="132.074" style="fill: #323034; stroke: #323034; stroke-width: 0.8"/>
      </g>
     </g>
     <g id="text_12">
      <!-- $\mathdefault{0}$ -->
      <g style="fill: #323034" transform="translate(426.079805 150.0015) scale(0.16 -0.16)">
       <use xlink:href="#STIXGeneral-Regular-30" transform="translate(0 0.40625)"/>
      </g>
     </g>
    </g>
    <g id="xtick_9">
     <g id="line2d_12">
      <g>
       <use xlink:href="#mea18c70df2" x="487.259707" y="132.074" style="fill: #323034; stroke: #323034; stroke-width: 0.8"/>
      </g>
     </g>
     <g id="text_13">
      <!-- $\mathdefault{2}$ -->
      <g style="fill: #323034" transform="translate(483.259707 150.0015) scale(0.16 -0.16)">
       <use xlink:href="#STIXGeneral-Regular-32" transform="translate(0 0.40625)"/>
      </g>
     </g>
    </g>
    <g id="xtick_10">
     <g id="line2d_13">
      <g>
       <use xlink:href="#mea18c70df2" x="544.439609" y="132.074" style="fill: #323034; stroke: #323034; stroke-width: 0.8"/>
      </g>
     </g>
     <g id="text_14">
      <!-- $\mathdefault{4}$ -->
      <g style="fill: #323034" transform="translate(540.439609 150.0015) scale(0.16 -0.16)">
       <use xlink:href="#STIXGeneral-Regular-34" transform="translate(0 0.40625)"/>
      </g>
     </g>
    </g>
   </g>
   <g id="matplotlib.axis_4">
    <g id="ytick_4">
     <g id="line2d_14">
      <g>
       <use xlink:href="#mddb28dafc4" x="315.72" y="132.074" style="fill: #323034; stroke: #323034; stroke-width: 0.8"/>
      </g>
     </g>
     <g id="text_15">
      <!-- $\mathdefault{0.0}$ -->
      <g style="fill: #323034" transform="translate(288.72 137.53775) scale(0.16 -0.16)">
       <use xlink:href="#STIXGeneral-Regular-30" transform="translate(0 0.40625)"/>
       <use xlink:href="#STIXGeneral-Regular-2e" transform="translate(49.999985 0.40625)"/>
       <use xlink:href="#STIXGeneral-Regular-30" transform="translate(74.999969 0.40625)"/>
      </g>
     </g>
    </g>
    <g id="ytick_5">
     <g id="line2d_15">
      <g>
       <use xlink:href="#mddb28dafc4" x="315.72" y="94.9945" style="fill: #323034; stroke: #323034; stroke-width: 0.8"/>
      </g>
     </g>
     <g id="text_16">
      <!-- $\mathdefault{0.2}$ -->
      <g style="fill: #323034" transform="translate(288.72 100.45825) scale(0.16 -0.16)">
       <use xlink:href="#STIXGeneral-Regular-30" transform="translate(0 0.40625)"/>
       <use xlink:href="#STIXGeneral-Regular-2e" transform="translate(49.999985 0.40625)"/>
       <use xlink:href="#STIXGeneral-Regular-32" transform="translate(74.999969 0.40625)"/>
      </g>
     </g>
    </g>
    <g id="ytick_6">
     <g id="line2d_16">
      <g>
       <use xlink:href="#mddb28dafc4" x="315.72" y="57.915" style="fill: #323034; stroke: #323034; stroke-width: 0.8"/>
      </g>
     </g>
     <g id="text_17">
      <!-- $\mathdefault{0.4}$ -->
      <g style="fill: #323034" transform="translate(288.72 63.37875) scale(0.16 -0.16)">
       <use xlink:href="#STIXGeneral-Regular-30" transform="translate(0 0.40625)"/>
       <use xlink:href="#STIXGeneral-Regular-2e" transform="translate(49.999985 0.40625)"/>
       <use xlink:href="#STIXGeneral-Regular-34" transform="translate(74.999969 0.40625)"/>
      </g>
     </g>
    </g>
   </g>
   <g id="line2d_17">
    <path d="M 287.130049 131.881913 
L 290.017923 131.82547 
L 292.905797 131.754356 
L 295.79367 131.665341 
L 298.681544 131.554649 
L 301.569418 131.417904 
L 304.457292 131.250091 
L 307.345166 131.045515 
L 310.23304 130.797788 
L 313.120914 130.499822 
L 316.008787 130.143849 
L 318.896661 129.721473 
L 321.784535 129.223741 
L 324.672409 128.641266 
L 327.560283 127.964375 
L 330.448157 127.183306 
L 333.336031 126.288445 
L 336.223904 125.270605 
L 339.111778 124.121337 
L 341.999652 122.833282 
L 344.887526 121.400545 
L 347.7754 119.819078 
L 350.663274 118.087074 
L 353.551148 116.205341 
L 356.439021 114.177654 
L 359.326895 112.011053 
L 362.214769 109.716085 
L 365.102643 107.306962 
L 367.990517 104.801619 
L 370.878391 102.221669 
L 373.766265 99.592233 
L 376.654138 96.941646 
L 379.542012 94.301035 
L 382.429886 91.703782 
L 385.31776 89.184861 
L 388.205634 86.780095 
L 391.093508 84.525326 
L 393.981381 82.455541 
L 396.869255 80.60398 
L 399.757129 79.001248 
L 402.645003 77.674478 
L 405.532877 76.646566 
L 408.420751 75.935517 
L 411.308625 75.553919 
L 414.196498 75.50857 
L 417.084372 75.800282 
L 419.972246 76.42385 
L 422.86012 77.368212 
L 425.747994 78.616774 
L 428.635868 80.147892 
L 431.523742 81.9355 
L 434.411615 83.949846 
L 437.299489 86.158313 
L 440.187363 88.526295 
L 443.075237 91.018092 
L 445.963111 93.597792 
L 448.850985 96.230115 
L 451.738859 98.881185 
L 454.626732 101.519209 
L 457.514606 104.115057 
L 460.40248 106.64271 
L 463.290354 109.079591 
L 466.178228 111.406769 
L 469.066102 113.609032 
L 471.953976 115.674861 
L 474.841849 117.596295 
L 477.729723 119.368709 
L 480.617597 120.990531 
L 483.505471 122.462902 
L 486.393345 123.789305 
L 489.281219 124.975178 
L 492.169093 126.027526 
L 495.056966 126.954538 
L 497.94484 127.765236 
L 500.832714 128.46915 
L 503.720588 129.076025 
L 506.608462 129.59558 
L 509.496336 130.037295 
L 512.38421 130.410252 
L 515.272083 130.723007 
L 518.159957 130.983502 
L 521.047831 131.19901 
L 523.935705 131.37611 
L 526.823579 131.520678 
L 529.711453 131.637912 
L 532.599327 131.732353 
L 535.4872 131.807936 
L 538.375074 131.868031 
L 541.262948 131.915502 
L 544.150822 131.952759 
L 547.038696 131.98181 
L 549.92657 132.004317 
L 552.814444 132.021643 
L 555.702317 132.034896 
L 556.639609 132.038165 
" clip-path="url(#pab740ae3f9)" style="fill: none; stroke: #fb8072; stroke-opacity: 0.9; stroke-width: 2; stroke-linecap: square"/>
   </g>
   <g id="patch_66">
    <path d="M 315.72 132.074 
L 315.72 57.915 
" style="fill: none; stroke: #000000; stroke-width: 0.6; stroke-linejoin: miter; stroke-linecap: square"/>
   </g>
   <g id="patch_67">
    <path d="M 315.72 132.074 
L 544.439609 132.074 
" style="fill: none; stroke: #000000; stroke-width: 0.6; stroke-linejoin: miter; stroke-linecap: square"/>
   </g>
   <g id="text_18">
    <!-- $\lambda =$0 -->
    <g style="fill: #323034" transform="translate(315.72 51.915) scale(0.12 -0.12)">
     <defs>
      <path id="STIXGeneral-Italic-3bb" d="M 2656 787 
L 2758 787 
Q 2560 -102 2112 -102 
Q 1965 -102 1869 48 
Q 1773 198 1773 499 
Q 1773 672 1789 889 
Q 1805 1107 1833 1446 
Q 1862 1786 1875 2016 
L 538 0 
L -77 0 
L 1907 2739 
Q 1933 2970 1933 3245 
Q 1933 3936 1619 3936 
Q 1530 3936 1408 3821 
Q 1286 3706 1203 3462 
L 1101 3462 
Q 1312 4339 1747 4339 
Q 1926 4339 2041 4115 
Q 2157 3891 2157 3475 
Q 2157 3040 2093 2192 
Q 2029 1344 2029 941 
Q 2029 602 2089 451 
Q 2150 301 2291 301 
Q 2483 301 2656 787 
z
" transform="scale(0.015625)"/>
      <path id="STIXGeneral-Regular-3d" d="M 4077 2048 
L 307 2048 
L 307 2470 
L 4077 2470 
L 4077 2048 
z
M 4077 768 
L 307 768 
L 307 1190 
L 4077 1190 
L 4077 768 
z
" transform="scale(0.015625)"/>
     </defs>
     <use xlink:href="#STIXGeneral-Italic-3bb" transform="translate(0 0.203125)"/>
     <use xlink:href="#STIXGeneral-Regular-3d" transform="translate(60.239984 0.203125)"/>
     <use xlink:href="#STIXGeneral-Regular-30" transform="translate(143.179965 0.203125)"/>
    </g>
   </g>
  </g>
  <g id="axes_3">
   <g id="patch_68">
    <path d="M 34.2 255.3725 
L 262.919609 255.3725 
L 262.919609 181.2135 
L 34.2 181.2135 
z
" style="fill: #ffffff"/>
   </g>
   <g id="patch_69">
    <path d="M 101.554677 255.3725 
L 106.861633 255.3725 
L 106.861633 230.069957 
L 101.554677 230.069957 
z
" clip-path="url(#p5989e5e5f7)" style="fill: #bc80bd; stroke: #000000; stroke-width: 0.8; stroke-linejoin: miter"/>
   </g>
   <g id="patch_70">
    <path d="M 106.861633 255.3725 
L 112.168589 255.3725 
L 112.168589 217.418685 
L 106.861633 217.418685 
z
" clip-path="url(#p5989e5e5f7)" style="fill: #bc80bd; stroke: #000000; stroke-width: 0.8; stroke-linejoin: miter"/>
   </g>
   <g id="patch_71">
    <path d="M 112.168589 255.3725 
L 117.475544 255.3725 
L 117.475544 218.084542 
L 112.168589 218.084542 
z
" clip-path="url(#p5989e5e5f7)" style="fill: #bc80bd; stroke: #000000; stroke-width: 0.8; stroke-linejoin: miter"/>
   </g>
   <g id="patch_72">
    <path d="M 117.475544 255.3725 
L 122.7825 255.3725 
L 122.7825 205.43327 
L 117.475544 205.43327 
z
" clip-path="url(#p5989e5e5f7)" style="fill: #bc80bd; stroke: #000000; stroke-width: 0.8; stroke-linejoin: miter"/>
   </g>
   <g id="patch_73">
    <path d="M 122.7825 255.3725 
L 128.089455 255.3725 
L 128.089455 199.440563 
L 122.7825 199.440563 
z
" clip-path="url(#p5989e5e5f7)" style="fill: #bc80bd; stroke: #000000; stroke-width: 0.8; stroke-linejoin: miter"/>
   </g>
   <g id="patch_74">
    <path d="M 128.089455 255.3725 
L 133.396411 255.3725 
L 133.396411 188.78686 
L 128.089455 188.78686 
z
" clip-path="url(#p5989e5e5f7)" style="fill: #bc80bd; stroke: #000000; stroke-width: 0.8; stroke-linejoin: miter"/>
   </g>
   <g id="patch_75">
    <path d="M 133.396411 255.3725 
L 138.703367 255.3725 
L 138.703367 195.445424 
L 133.396411 195.445424 
z
" clip-path="url(#p5989e5e5f7)" style="fill: #bc80bd; stroke: #000000; stroke-width: 0.8; stroke-linejoin: miter"/>
   </g>
   <g id="patch_76">
    <path d="M 138.703367 255.3725 
L 144.010322 255.3725 
L 144.010322 204.101558 
L 138.703367 204.101558 
z
" clip-path="url(#p5989e5e5f7)" style="fill: #bc80bd; stroke: #000000; stroke-width: 0.8; stroke-linejoin: miter"/>
   </g>
   <g id="patch_77">
    <path d="M 144.010322 255.3725 
L 149.317278 255.3725 
L 149.317278 202.769845 
L 144.010322 202.769845 
z
" clip-path="url(#p5989e5e5f7)" style="fill: #bc80bd; stroke: #000000; stroke-width: 0.8; stroke-linejoin: miter"/>
   </g>
   <g id="patch_78">
    <path d="M 149.317278 255.3725 
L 154.624233 255.3725 
L 154.624233 218.084542 
L 149.317278 218.084542 
z
" clip-path="url(#p5989e5e5f7)" style="fill: #bc80bd; stroke: #000000; stroke-width: 0.8; stroke-linejoin: miter"/>
   </g>
   <g id="patch_79">
    <path d="M 154.624233 255.3725 
L 159.931189 255.3725 
L 159.931189 214.089403 
L 154.624233 214.089403 
z
" clip-path="url(#p5989e5e5f7)" style="fill: #bc80bd; stroke: #000000; stroke-width: 0.8; stroke-linejoin: miter"/>
   </g>
   <g id="patch_80">
    <path d="M 159.931189 255.3725 
L 165.238144 255.3725 
L 165.238144 229.404101 
L 159.931189 229.404101 
z
" clip-path="url(#p5989e5e5f7)" style="fill: #bc80bd; stroke: #000000; stroke-width: 0.8; stroke-linejoin: miter"/>
   </g>
   <g id="patch_81">
    <path d="M 165.238144 255.3725 
L 170.5451 255.3725 
L 170.5451 234.730952 
L 165.238144 234.730952 
z
" clip-path="url(#p5989e5e5f7)" style="fill: #bc80bd; stroke: #000000; stroke-width: 0.8; stroke-linejoin: miter"/>
   </g>
   <g id="patch_82">
    <path d="M 170.5451 255.3725 
L 175.852056 255.3725 
L 175.852056 228.072388 
L 170.5451 228.072388 
z
" clip-path="url(#p5989e5e5f7)" style="fill: #bc80bd; stroke: #000000; stroke-width: 0.8; stroke-linejoin: miter"/>
   </g>
   <g id="patch_83">
    <path d="M 175.852056 255.3725 
L 181.159011 255.3725 
L 181.159011 233.399239 
L 175.852056 233.399239 
z
" clip-path="url(#p5989e5e5f7)" style="fill: #bc80bd; stroke: #000000; stroke-width: 0.8; stroke-linejoin: miter"/>
   </g>
   <g id="patch_84">
    <path d="M 181.159011 255.3725 
L 186.465967 255.3725 
L 186.465967 240.723659 
L 181.159011 240.723659 
z
" clip-path="url(#p5989e5e5f7)" style="fill: #bc80bd; stroke: #000000; stroke-width: 0.8; stroke-linejoin: miter"/>
   </g>
   <g id="patch_85">
    <path d="M 186.465967 255.3725 
L 191.772922 255.3725 
L 191.772922 245.384654 
L 186.465967 245.384654 
z
" clip-path="url(#p5989e5e5f7)" style="fill: #bc80bd; stroke: #000000; stroke-width: 0.8; stroke-linejoin: miter"/>
   </g>
   <g id="patch_86">
    <path d="M 191.772922 255.3725 
L 197.079878 255.3725 
L 197.079878 250.045649 
L 191.772922 250.045649 
z
" clip-path="url(#p5989e5e5f7)" style="fill: #bc80bd; stroke: #000000; stroke-width: 0.8; stroke-linejoin: miter"/>
   </g>
   <g id="patch_87">
    <path d="M 197.079878 255.3725 
L 202.386833 255.3725 
L 202.386833 250.045649 
L 197.079878 250.045649 
z
" clip-path="url(#p5989e5e5f7)" style="fill: #bc80bd; stroke: #000000; stroke-width: 0.8; stroke-linejoin: miter"/>
   </g>
   <g id="patch_88">
    <path d="M 202.386833 255.3725 
L 207.693789 255.3725 
L 207.693789 252.043218 
L 202.386833 252.043218 
z
" clip-path="url(#p5989e5e5f7)" style="fill: #bc80bd; stroke: #000000; stroke-width: 0.8; stroke-linejoin: miter"/>
   </g>
   <g id="patch_89">
    <path d="M 207.693789 255.3725 
L 213.000745 255.3725 
L 213.000745 250.711505 
L 207.693789 250.711505 
z
" clip-path="url(#p5989e5e5f7)" style="fill: #bc80bd; stroke: #000000; stroke-width: 0.8; stroke-linejoin: miter"/>
   </g>
   <g id="patch_90">
    <path d="M 213.000745 255.3725 
L 218.3077 255.3725 
L 218.3077 252.709074 
L 213.000745 252.709074 
z
" clip-path="url(#p5989e5e5f7)" style="fill: #bc80bd; stroke: #000000; stroke-width: 0.8; stroke-linejoin: miter"/>
   </g>
   <g id="patch_91">
    <path d="M 218.3077 255.3725 
L 223.614656 255.3725 
L 223.614656 253.374931 
L 218.3077 253.374931 
z
" clip-path="url(#p5989e5e5f7)" style="fill: #bc80bd; stroke: #000000; stroke-width: 0.8; stroke-linejoin: miter"/>
   </g>
   <g id="patch_92">
    <path d="M 223.614656 255.3725 
L 228.921611 255.3725 
L 228.921611 254.040787 
L 223.614656 254.040787 
z
" clip-path="url(#p5989e5e5f7)" style="fill: #bc80bd; stroke: #000000; stroke-width: 0.8; stroke-linejoin: miter"/>
   </g>
   <g id="patch_93">
    <path d="M 228.921611 255.3725 
L 234.228567 255.3725 
L 234.228567 253.374931 
L 228.921611 253.374931 
z
" clip-path="url(#p5989e5e5f7)" style="fill: #bc80bd; stroke: #000000; stroke-width: 0.8; stroke-linejoin: miter"/>
   </g>
   <g id="patch_94">
    <path d="M 234.228567 255.3725 
L 239.535523 255.3725 
L 239.535523 253.374931 
L 234.228567 253.374931 
z
" clip-path="url(#p5989e5e5f7)" style="fill: #bc80bd; stroke: #000000; stroke-width: 0.8; stroke-linejoin: miter"/>
   </g>
   <g id="patch_95">
    <path d="M 239.535523 255.3725 
L 244.842478 255.3725 
L 244.842478 254.706644 
L 239.535523 254.706644 
z
" clip-path="url(#p5989e5e5f7)" style="fill: #bc80bd; stroke: #000000; stroke-width: 0.8; stroke-linejoin: miter"/>
   </g>
   <g id="patch_96">
    <path d="M 244.842478 255.3725 
L 250.149434 255.3725 
L 250.149434 255.3725 
L 244.842478 255.3725 
z
" clip-path="url(#p5989e5e5f7)" style="fill: #bc80bd; stroke: #000000; stroke-width: 0.8; stroke-linejoin: miter"/>
   </g>
   <g id="patch_97">
    <path d="M 250.149434 255.3725 
L 255.456389 255.3725 
L 255.456389 255.3725 
L 250.149434 255.3725 
z
" clip-path="url(#p5989e5e5f7)" style="fill: #bc80bd; stroke: #000000; stroke-width: 0.8; stroke-linejoin: miter"/>
   </g>
   <g id="patch_98">
    <path d="M 255.456389 255.3725 
L 260.763345 255.3725 
L 260.763345 254.706644 
L 255.456389 254.706644 
z
" clip-path="url(#p5989e5e5f7)" style="fill: #bc80bd; stroke: #000000; stroke-width: 0.8; stroke-linejoin: miter"/>
   </g>
   <g id="matplotlib.axis_5">
    <g id="xtick_11">
     <g id="line2d_18">
      <g>
       <use xlink:href="#mea18c70df2" x="34.2" y="255.3725" style="fill: #323034; stroke: #323034; stroke-width: 0.8"/>
      </g>
     </g>
     <g id="text_19">
      <!-- $\mathdefault{−4}$ -->
      <g style="fill: #323034" transform="translate(24.68 273.3) scale(0.16 -0.16)">
       <use xlink:href="#STIXGeneral-Regular-2212" transform="translate(0 0.40625)"/>
       <use xlink:href="#STIXGeneral-Regular-34" transform="translate(68.499985 0.40625)"/>
      </g>
     </g>
    </g>
    <g id="xtick_12">
     <g id="line2d_19">
      <g>
       <use xlink:href="#mea18c70df2" x="91.379902" y="255.3725" style="fill: #323034; stroke: #323034; stroke-width: 0.8"/>
      </g>
     </g>
     <g id="text_20">
      <!-- $\mathdefault{−2}$ -->
      <g style="fill: #323034" transform="translate(81.859902 273.3) scale(0.16 -0.16)">
       <use xlink:href="#STIXGeneral-Regular-2212" transform="translate(0 0.40625)"/>
       <use xlink:href="#STIXGeneral-Regular-32" transform="translate(68.499985 0.40625)"/>
      </g>
     </g>
    </g>
    <g id="xtick_13">
     <g id="line2d_20">
      <g>
       <use xlink:href="#mea18c70df2" x="148.559805" y="255.3725" style="fill: #323034; stroke: #323034; stroke-width: 0.8"/>
      </g>
     </g>
     <g id="text_21">
      <!-- $\mathdefault{0}$ -->
      <g style="fill: #323034" transform="translate(144.559805 273.3) scale(0.16 -0.16)">
       <use xlink:href="#STIXGeneral-Regular-30" transform="translate(0 0.40625)"/>
      </g>
     </g>
    </g>
    <g id="xtick_14">
     <g id="line2d_21">
      <g>
       <use xlink:href="#mea18c70df2" x="205.739707" y="255.3725" style="fill: #323034; stroke: #323034; stroke-width: 0.8"/>
      </g>
     </g>
     <g id="text_22">
      <!-- $\mathdefault{2}$ -->
      <g style="fill: #323034" transform="translate(201.739707 273.3) scale(0.16 -0.16)">
       <use xlink:href="#STIXGeneral-Regular-32" transform="translate(0 0.40625)"/>
      </g>
     </g>
    </g>
    <g id="xtick_15">
     <g id="line2d_22">
      <g>
       <use xlink:href="#mea18c70df2" x="262.919609" y="255.3725" style="fill: #323034; stroke: #323034; stroke-width: 0.8"/>
      </g>
     </g>
     <g id="text_23">
      <!-- $\mathdefault{4}$ -->
      <g style="fill: #323034" transform="translate(258.919609 273.3) scale(0.16 -0.16)">
       <use xlink:href="#STIXGeneral-Regular-34" transform="translate(0 0.40625)"/>
      </g>
     </g>
    </g>
   </g>
   <g id="matplotlib.axis_6">
    <g id="ytick_7">
     <g id="line2d_23">
      <g>
       <use xlink:href="#mddb28dafc4" x="34.2" y="255.3725" style="fill: #323034; stroke: #323034; stroke-width: 0.8"/>
      </g>
     </g>
     <g id="text_24">
      <!-- $\mathdefault{0.0}$ -->
      <g style="fill: #323034" transform="translate(7.2 260.83625) scale(0.16 -0.16)">
       <use xlink:href="#STIXGeneral-Regular-30" transform="translate(0 0.40625)"/>
       <use xlink:href="#STIXGeneral-Regular-2e" transform="translate(49.999985 0.40625)"/>
       <use xlink:href="#STIXGeneral-Regular-30" transform="translate(74.999969 0.40625)"/>
      </g>
     </g>
    </g>
    <g id="ytick_8">
     <g id="line2d_24">
      <g>
       <use xlink:href="#mddb28dafc4" x="34.2" y="193.573333" style="fill: #323034; stroke: #323034; stroke-width: 0.8"/>
      </g>
     </g>
     <g id="text_25">
      <!-- $\mathdefault{0.5}$ -->
      <g style="fill: #323034" transform="translate(7.2 199.037083) scale(0.16 -0.16)">
       <use xlink:href="#STIXGeneral-Regular-30" transform="translate(0 0.203125)"/>
       <use xlink:href="#STIXGeneral-Regular-2e" transform="translate(49.999985 0.203125)"/>
       <use xlink:href="#STIXGeneral-Regular-35" transform="translate(74.999969 0.203125)"/>
      </g>
     </g>
    </g>
   </g>
   <g id="line2d_25">
    <path d="M 5.610049 255.372455 
L 8.497923 255.372419 
L 11.385797 255.372358 
L 14.27367 255.372251 
L 17.161544 255.372072 
L 20.049418 255.371771 
L 22.937292 255.371274 
L 25.825166 255.370464 
L 28.71304 255.369159 
L 31.600914 255.367086 
L 34.488787 255.363835 
L 37.376661 255.358801 
L 40.264535 255.351107 
L 43.152409 255.339502 
L 46.040283 255.322224 
L 48.928157 255.296839 
L 51.816031 255.260031 
L 54.703904 255.207366 
L 57.591778 255.133008 
L 60.479652 255.029424 
L 63.367526 254.887057 
L 66.2554 254.694029 
L 69.143274 254.435861 
L 72.031148 254.095298 
L 74.919021 253.652241 
L 77.806895 253.083874 
L 80.694769 252.36502 
L 83.582643 251.468791 
L 86.470517 250.36756 
L 89.358391 249.034281 
L 92.246265 247.444157 
L 95.134138 245.576598 
L 98.022012 243.4174 
L 100.909886 240.96101 
L 103.79776 238.212735 
L 106.685634 235.190666 
L 109.573508 231.927148 
L 112.461381 228.469563 
L 115.349255 224.88025 
L 118.237129 221.235444 
L 121.125003 217.623149 
L 124.012877 214.139994 
L 126.900751 210.887172 
L 129.788625 207.965694 
L 132.676498 205.471251 
L 135.564372 203.489037 
L 138.452246 202.088929 
L 141.34012 201.321402 
L 144.227994 201.21451 
L 147.115868 201.77218 
L 150.003742 202.973976 
L 152.891615 204.776341 
L 155.779489 207.115217 
L 158.667363 209.909822 
L 161.555237 213.067278 
L 164.443111 216.487708 
L 167.330985 220.069436 
L 170.218859 223.71389 
L 173.106732 227.329911 
L 175.994606 230.83721 
L 178.88248 234.168826 
L 181.770354 237.27253 
L 184.658228 240.111203 
L 187.546102 242.662316 
L 190.433976 244.916657 
L 193.321849 246.876528 
L 196.209723 248.553606 
L 199.097597 249.966679 
L 201.985471 251.139423 
L 204.873345 252.098358 
L 207.761219 252.871085 
L 210.649093 253.484853 
L 213.536966 253.965473 
L 216.42484 254.336568 
L 219.312714 254.619133 
L 222.200588 254.831336 
L 225.088462 254.988529 
L 227.976336 255.1034 
L 230.86421 255.186215 
L 233.752083 255.245124 
L 236.639957 255.286471 
L 239.527831 255.315109 
L 242.415705 255.334682 
L 245.303579 255.347885 
L 248.191453 255.356675 
L 251.079327 255.362451 
L 253.9672 255.366197 
L 256.855074 255.368595 
L 259.742948 255.37011 
L 262.630822 255.371055 
L 265.518696 255.371637 
L 268.40657 255.371991 
L 271.294444 255.372204 
L 274.182317 255.372329 
L 277.070191 255.372403 
L 279.958065 255.372446 
L 282.845939 255.37247 
L 285.733813 255.372483 
L 288.621687 255.372491 
L 291.509561 255.372495 
" clip-path="url(#p5989e5e5f7)" style="fill: none; stroke: #fb8072; stroke-opacity: 0.9; stroke-width: 2; stroke-linecap: square"/>
   </g>
   <g id="patch_99">
    <path d="M 34.2 255.3725 
L 34.2 181.2135 
" style="fill: none; stroke: #000000; stroke-width: 0.6; stroke-linejoin: miter; stroke-linecap: square"/>
   </g>
   <g id="patch_100">
    <path d="M 34.2 255.3725 
L 262.919609 255.3725 
" style="fill: none; stroke: #000000; stroke-width: 0.6; stroke-linejoin: miter; stroke-linecap: square"/>
   </g>
   <g id="text_26">
    <!-- $\lambda =$0.6 -->
    <g style="fill: #323034" transform="translate(34.2 175.2135) scale(0.12 -0.12)">
     <defs>
      <path id="STIXGeneral-Regular-36" d="M 2854 4378 
L 2867 4275 
Q 2112 4154 1606 3664 
Q 1101 3174 973 2451 
Q 1344 2739 1786 2739 
Q 2349 2739 2672 2380 
Q 2995 2022 2995 1402 
Q 2995 774 2669 378 
Q 2291 -90 1651 -90 
Q 870 -90 518 557 
Q 218 1107 218 1786 
Q 218 2835 915 3552 
Q 1312 3962 1731 4131 
Q 2150 4301 2854 4378 
z
M 2419 1203 
Q 2419 2445 1555 2445 
Q 1235 2445 1024 2275 
Q 813 2106 813 1702 
Q 813 954 1046 522 
Q 1280 90 1722 90 
Q 2061 90 2240 394 
Q 2419 698 2419 1203 
z
" transform="scale(0.015625)"/>
     </defs>
     <use xlink:href="#STIXGeneral-Italic-3bb" transform="translate(0 0.59375)"/>
     <use xlink:href="#STIXGeneral-Regular-3d" transform="translate(60.239984 0.59375)"/>
     <use xlink:href="#STIXGeneral-Regular-30" transform="translate(143.179965 0.59375)"/>
     <use xlink:href="#STIXGeneral-Regular-2e" transform="translate(193.17995 0.59375)"/>
     <use xlink:href="#STIXGeneral-Regular-36" transform="translate(218.179935 0.59375)"/>
    </g>
   </g>
  </g>
  <g id="axes_4">
   <g id="patch_101">
    <path d="M 315.72 255.3725 
L 544.439609 255.3725 
L 544.439609 181.2135 
L 315.72 181.2135 
z
" style="fill: #ffffff"/>
   </g>
   <g id="patch_102">
    <path d="M 342.079549 255.3725 
L 347.602011 255.3725 
L 347.602011 253.452883 
L 342.079549 253.452883 
z
" clip-path="url(#pc99f5e2d6a)" style="fill: #bc80bd; stroke: #000000; stroke-width: 0.8; stroke-linejoin: miter"/>
   </g>
   <g id="patch_103">
    <path d="M 347.602011 255.3725 
L 353.124473 255.3725 
L 353.124473 251.533266 
L 347.602011 251.533266 
z
" clip-path="url(#pc99f5e2d6a)" style="fill: #bc80bd; stroke: #000000; stroke-width: 0.8; stroke-linejoin: miter"/>
   </g>
   <g id="patch_104">
    <path d="M 353.124473 255.3725 
L 358.646934 255.3725 
L 358.646934 248.333905 
L 353.124473 248.333905 
z
" clip-path="url(#pc99f5e2d6a)" style="fill: #bc80bd; stroke: #000000; stroke-width: 0.8; stroke-linejoin: miter"/>
   </g>
   <g id="patch_105">
    <path d="M 358.646934 255.3725 
L 364.169396 255.3725 
L 364.169396 247.694032 
L 358.646934 247.694032 
z
" clip-path="url(#pc99f5e2d6a)" style="fill: #bc80bd; stroke: #000000; stroke-width: 0.8; stroke-linejoin: miter"/>
   </g>
   <g id="patch_106">
    <path d="M 364.169396 255.3725 
L 369.691858 255.3725 
L 369.691858 246.414288 
L 364.169396 246.414288 
z
" clip-path="url(#pc99f5e2d6a)" style="fill: #bc80bd; stroke: #000000; stroke-width: 0.8; stroke-linejoin: miter"/>
   </g>
   <g id="patch_107">
    <path d="M 369.691858 255.3725 
L 375.21432 255.3725 
L 375.21432 241.295309 
L 369.691858 241.295309 
z
" clip-path="url(#pc99f5e2d6a)" style="fill: #bc80bd; stroke: #000000; stroke-width: 0.8; stroke-linejoin: miter"/>
   </g>
   <g id="patch_108">
    <path d="M 375.21432 255.3725 
L 380.736781 255.3725 
L 380.736781 236.176331 
L 375.21432 236.176331 
z
" clip-path="url(#pc99f5e2d6a)" style="fill: #bc80bd; stroke: #000000; stroke-width: 0.8; stroke-linejoin: miter"/>
   </g>
   <g id="patch_109">
    <path d="M 380.736781 255.3725 
L 386.259243 255.3725 
L 386.259243 236.176331 
L 380.736781 236.176331 
z
" clip-path="url(#pc99f5e2d6a)" style="fill: #bc80bd; stroke: #000000; stroke-width: 0.8; stroke-linejoin: miter"/>
   </g>
   <g id="patch_110">
    <path d="M 386.259243 255.3725 
L 391.781705 255.3725 
L 391.781705 230.41748 
L 386.259243 230.41748 
z
" clip-path="url(#pc99f5e2d6a)" style="fill: #bc80bd; stroke: #000000; stroke-width: 0.8; stroke-linejoin: miter"/>
   </g>
   <g id="patch_111">
    <path d="M 391.781705 255.3725 
L 397.304167 255.3725 
L 397.304167 232.337097 
L 391.781705 232.337097 
z
" clip-path="url(#pc99f5e2d6a)" style="fill: #bc80bd; stroke: #000000; stroke-width: 0.8; stroke-linejoin: miter"/>
   </g>
   <g id="patch_112">
    <path d="M 397.304167 255.3725 
L 402.826628 255.3725 
L 402.826628 215.060545 
L 397.304167 215.060545 
z
" clip-path="url(#pc99f5e2d6a)" style="fill: #bc80bd; stroke: #000000; stroke-width: 0.8; stroke-linejoin: miter"/>
   </g>
   <g id="patch_113">
    <path d="M 402.826628 255.3725 
L 408.34909 255.3725 
L 408.34909 213.140928 
L 402.826628 213.140928 
z
" clip-path="url(#pc99f5e2d6a)" style="fill: #bc80bd; stroke: #000000; stroke-width: 0.8; stroke-linejoin: miter"/>
   </g>
   <g id="patch_114">
    <path d="M 408.34909 255.3725 
L 413.871552 255.3725 
L 413.871552 200.983354 
L 408.34909 200.983354 
z
" clip-path="url(#pc99f5e2d6a)" style="fill: #bc80bd; stroke: #000000; stroke-width: 0.8; stroke-linejoin: miter"/>
   </g>
   <g id="patch_115">
    <path d="M 413.871552 255.3725 
L 419.394014 255.3725 
L 419.394014 205.46246 
L 413.871552 205.46246 
z
" clip-path="url(#pc99f5e2d6a)" style="fill: #bc80bd; stroke: #000000; stroke-width: 0.8; stroke-linejoin: miter"/>
   </g>
   <g id="patch_116">
    <path d="M 419.394014 255.3725 
L 424.916475 255.3725 
L 424.916475 208.661822 
L 419.394014 208.661822 
z
" clip-path="url(#pc99f5e2d6a)" style="fill: #bc80bd; stroke: #000000; stroke-width: 0.8; stroke-linejoin: miter"/>
   </g>
   <g id="patch_117">
    <path d="M 424.916475 255.3725 
L 430.438937 255.3725 
L 430.438937 203.542843 
L 424.916475 203.542843 
z
" clip-path="url(#pc99f5e2d6a)" style="fill: #bc80bd; stroke: #000000; stroke-width: 0.8; stroke-linejoin: miter"/>
   </g>
   <g id="patch_118">
    <path d="M 430.438937 255.3725 
L 435.961399 255.3725 
L 435.961399 215.060545 
L 430.438937 215.060545 
z
" clip-path="url(#pc99f5e2d6a)" style="fill: #bc80bd; stroke: #000000; stroke-width: 0.8; stroke-linejoin: miter"/>
   </g>
   <g id="patch_119">
    <path d="M 435.961399 255.3725 
L 441.483861 255.3725 
L 441.483861 213.140928 
L 435.961399 213.140928 
z
" clip-path="url(#pc99f5e2d6a)" style="fill: #bc80bd; stroke: #000000; stroke-width: 0.8; stroke-linejoin: miter"/>
   </g>
   <g id="patch_120">
    <path d="M 441.483861 255.3725 
L 447.006322 255.3725 
L 447.006322 227.218119 
L 441.483861 227.218119 
z
" clip-path="url(#pc99f5e2d6a)" style="fill: #bc80bd; stroke: #000000; stroke-width: 0.8; stroke-linejoin: miter"/>
   </g>
   <g id="patch_121">
    <path d="M 447.006322 255.3725 
L 452.528784 255.3725 
L 452.528784 225.938374 
L 447.006322 225.938374 
z
" clip-path="url(#pc99f5e2d6a)" style="fill: #bc80bd; stroke: #000000; stroke-width: 0.8; stroke-linejoin: miter"/>
   </g>
   <g id="patch_122">
    <path d="M 452.528784 255.3725 
L 458.051246 255.3725 
L 458.051246 224.018757 
L 452.528784 224.018757 
z
" clip-path="url(#pc99f5e2d6a)" style="fill: #bc80bd; stroke: #000000; stroke-width: 0.8; stroke-linejoin: miter"/>
   </g>
   <g id="patch_123">
    <path d="M 458.051246 255.3725 
L 463.573708 255.3725 
L 463.573708 238.095948 
L 458.051246 238.095948 
z
" clip-path="url(#pc99f5e2d6a)" style="fill: #bc80bd; stroke: #000000; stroke-width: 0.8; stroke-linejoin: miter"/>
   </g>
   <g id="patch_124">
    <path d="M 463.573708 255.3725 
L 469.096169 255.3725 
L 469.096169 245.774415 
L 463.573708 245.774415 
z
" clip-path="url(#pc99f5e2d6a)" style="fill: #bc80bd; stroke: #000000; stroke-width: 0.8; stroke-linejoin: miter"/>
   </g>
   <g id="patch_125">
    <path d="M 469.096169 255.3725 
L 474.618631 255.3725 
L 474.618631 246.414288 
L 469.096169 246.414288 
z
" clip-path="url(#pc99f5e2d6a)" style="fill: #bc80bd; stroke: #000000; stroke-width: 0.8; stroke-linejoin: miter"/>
   </g>
   <g id="patch_126">
    <path d="M 474.618631 255.3725 
L 480.141093 255.3725 
L 480.141093 249.613649 
L 474.618631 249.613649 
z
" clip-path="url(#pc99f5e2d6a)" style="fill: #bc80bd; stroke: #000000; stroke-width: 0.8; stroke-linejoin: miter"/>
   </g>
   <g id="patch_127">
    <path d="M 480.141093 255.3725 
L 485.663555 255.3725 
L 485.663555 250.893394 
L 480.141093 250.893394 
z
" clip-path="url(#pc99f5e2d6a)" style="fill: #bc80bd; stroke: #000000; stroke-width: 0.8; stroke-linejoin: miter"/>
   </g>
   <g id="patch_128">
    <path d="M 485.663555 255.3725 
L 491.186016 255.3725 
L 491.186016 253.452883 
L 485.663555 253.452883 
z
" clip-path="url(#pc99f5e2d6a)" style="fill: #bc80bd; stroke: #000000; stroke-width: 0.8; stroke-linejoin: miter"/>
   </g>
   <g id="patch_129">
    <path d="M 491.186016 255.3725 
L 496.708478 255.3725 
L 496.708478 251.533266 
L 491.186016 251.533266 
z
" clip-path="url(#pc99f5e2d6a)" style="fill: #bc80bd; stroke: #000000; stroke-width: 0.8; stroke-linejoin: miter"/>
   </g>
   <g id="patch_130">
    <path d="M 496.708478 255.3725 
L 502.23094 255.3725 
L 502.23094 254.732628 
L 496.708478 254.732628 
z
" clip-path="url(#pc99f5e2d6a)" style="fill: #bc80bd; stroke: #000000; stroke-width: 0.8; stroke-linejoin: miter"/>
   </g>
   <g id="patch_131">
    <path d="M 502.23094 255.3725 
L 507.753402 255.3725 
L 507.753402 254.732628 
L 502.23094 254.732628 
z
" clip-path="url(#pc99f5e2d6a)" style="fill: #bc80bd; stroke: #000000; stroke-width: 0.8; stroke-linejoin: miter"/>
   </g>
   <g id="matplotlib.axis_7">
    <g id="xtick_16">
     <g id="line2d_26">
      <g>
       <use xlink:href="#mea18c70df2" x="315.72" y="255.3725" style="fill: #323034; stroke: #323034; stroke-width: 0.8"/>
      </g>
     </g>
     <g id="text_27">
      <!-- $\mathdefault{−4}$ -->
      <g style="fill: #323034" transform="translate(306.2 273.3) scale(0.16 -0.16)">
       <use xlink:href="#STIXGeneral-Regular-2212" transform="translate(0 0.40625)"/>
       <use xlink:href="#STIXGeneral-Regular-34" transform="translate(68.499985 0.40625)"/>
      </g>
     </g>
    </g>
    <g id="xtick_17">
     <g id="line2d_27">
      <g>
       <use xlink:href="#mea18c70df2" x="372.899902" y="255.3725" style="fill: #323034; stroke: #323034; stroke-width: 0.8"/>
      </g>
     </g>
     <g id="text_28">
      <!-- $\mathdefault{−2}$ -->
      <g style="fill: #323034" transform="translate(363.379902 273.3) scale(0.16 -0.16)">
       <use xlink:href="#STIXGeneral-Regular-2212" transform="translate(0 0.40625)"/>
       <use xlink:href="#STIXGeneral-Regular-32" transform="translate(68.499985 0.40625)"/>
      </g>
     </g>
    </g>
    <g id="xtick_18">
     <g id="line2d_28">
      <g>
       <use xlink:href="#mea18c70df2" x="430.079805" y="255.3725" style="fill: #323034; stroke: #323034; stroke-width: 0.8"/>
      </g>
     </g>
     <g id="text_29">
      <!-- $\mathdefault{0}$ -->
      <g style="fill: #323034" transform="translate(426.079805 273.3) scale(0.16 -0.16)">
       <use xlink:href="#STIXGeneral-Regular-30" transform="translate(0 0.40625)"/>
      </g>
     </g>
    </g>
    <g id="xtick_19">
     <g id="line2d_29">
      <g>
       <use xlink:href="#mea18c70df2" x="487.259707" y="255.3725" style="fill: #323034; stroke: #323034; stroke-width: 0.8"/>
      </g>
     </g>
     <g id="text_30">
      <!-- $\mathdefault{2}$ -->
      <g style="fill: #323034" transform="translate(483.259707 273.3) scale(0.16 -0.16)">
       <use xlink:href="#STIXGeneral-Regular-32" transform="translate(0 0.40625)"/>
      </g>
     </g>
    </g>
    <g id="xtick_20">
     <g id="line2d_30">
      <g>
       <use xlink:href="#mea18c70df2" x="544.439609" y="255.3725" style="fill: #323034; stroke: #323034; stroke-width: 0.8"/>
      </g>
     </g>
     <g id="text_31">
      <!-- $\mathdefault{4}$ -->
      <g style="fill: #323034" transform="translate(540.439609 273.3) scale(0.16 -0.16)">
       <use xlink:href="#STIXGeneral-Regular-34" transform="translate(0 0.40625)"/>
      </g>
     </g>
    </g>
   </g>
   <g id="matplotlib.axis_8">
    <g id="ytick_9">
     <g id="line2d_31">
      <g>
       <use xlink:href="#mddb28dafc4" x="315.72" y="255.3725" style="fill: #323034; stroke: #323034; stroke-width: 0.8"/>
      </g>
     </g>
     <g id="text_32">
      <!-- $\mathdefault{0.0}$ -->
      <g style="fill: #323034" transform="translate(288.72 260.83625) scale(0.16 -0.16)">
       <use xlink:href="#STIXGeneral-Regular-30" transform="translate(0 0.40625)"/>
       <use xlink:href="#STIXGeneral-Regular-2e" transform="translate(49.999985 0.40625)"/>
       <use xlink:href="#STIXGeneral-Regular-30" transform="translate(74.999969 0.40625)"/>
      </g>
     </g>
    </g>
    <g id="ytick_10">
     <g id="line2d_32">
      <g>
       <use xlink:href="#mddb28dafc4" x="315.72" y="193.573333" style="fill: #323034; stroke: #323034; stroke-width: 0.8"/>
      </g>
     </g>
     <g id="text_33">
      <!-- $\mathdefault{0.5}$ -->
      <g style="fill: #323034" transform="translate(288.72 199.037083) scale(0.16 -0.16)">
       <use xlink:href="#STIXGeneral-Regular-30" transform="translate(0 0.203125)"/>
       <use xlink:href="#STIXGeneral-Regular-2e" transform="translate(49.999985 0.203125)"/>
       <use xlink:href="#STIXGeneral-Regular-35" transform="translate(74.999969 0.203125)"/>
      </g>
     </g>
    </g>
   </g>
   <g id="line2d_33">
    <path d="M 287.130049 255.371491 
L 290.017923 255.370894 
L 292.905797 255.369968 
L 295.79367 255.36855 
L 298.681544 255.3664 
L 301.569418 255.363176 
L 304.457292 255.358393 
L 307.345166 255.351374 
L 310.23304 255.341185 
L 313.120914 255.326555 
L 316.008787 255.305778 
L 318.896661 255.276592 
L 321.784535 255.236046 
L 324.672409 255.180338 
L 327.560283 255.104644 
L 330.448157 255.002941 
L 333.336031 254.867819 
L 336.223904 254.690318 
L 339.111778 254.459788 
L 341.999652 254.163804 
L 344.887526 253.788152 
L 347.7754 253.31692 
L 350.663274 252.732717 
L 353.551148 252.017039 
L 356.439021 251.150811 
L 359.326895 250.115106 
L 362.214769 248.892054 
L 365.102643 247.465906 
L 367.990517 245.824242 
L 370.878391 243.95926 
L 373.766265 241.869076 
L 376.654138 239.558964 
L 379.542012 237.042426 
L 382.429886 234.342 
L 385.31776 231.489707 
L 388.205634 228.527046 
L 391.093508 225.504473 
L 393.981381 222.480334 
L 396.869255 219.51925 
L 399.757129 216.689982 
L 402.645003 214.062892 
L 405.532877 211.707088 
L 408.420751 209.687442 
L 411.308625 208.061629 
L 414.196498 206.877402 
L 417.084372 206.17026 
L 419.972246 205.961681 
L 422.86012 206.258041 
L 425.747994 207.050286 
L 428.635868 208.314397 
L 431.523742 210.012594 
L 434.411615 212.095214 
L 437.299489 214.503122 
L 440.187363 217.170493 
L 443.075237 220.027787 
L 445.963111 223.004722 
L 448.850985 226.033085 
L 451.738859 229.049211 
L 454.626732 231.996026 
L 457.514606 234.824574 
L 460.40248 237.494987 
L 463.290354 239.976909 
L 466.178228 242.24942 
L 469.066102 244.30052 
L 471.953976 246.126264 
L 474.841849 247.72966 
L 477.729723 249.119409 
L 480.617597 250.308603 
L 483.505471 251.313444 
L 486.393345 252.152058 
L 489.281219 252.843459 
L 492.169093 253.406667 
L 495.056966 253.860028 
L 497.94484 254.220697 
L 500.832714 254.504301 
L 503.720588 254.724745 
L 506.608462 254.894143 
L 509.496336 255.022842 
L 512.38421 255.119521 
L 515.272083 255.191334 
L 518.159957 255.244084 
L 521.047831 255.282403 
L 523.935705 255.309932 
L 526.823579 255.329492 
L 529.711453 255.343239 
L 532.599327 255.352795 
L 535.4872 255.359365 
L 538.375074 255.363834 
L 541.262948 255.366841 
L 544.150822 255.368842 
L 547.038696 255.37016 
L 549.92657 255.371018 
L 552.814444 255.371571 
L 555.702317 255.371924 
L 556.639609 255.371996 
" clip-path="url(#pc99f5e2d6a)" style="fill: none; stroke: #fb8072; stroke-opacity: 0.9; stroke-width: 2; stroke-linecap: square"/>
   </g>
   <g id="patch_132">
    <path d="M 315.72 255.3725 
L 315.72 181.2135 
" style="fill: none; stroke: #000000; stroke-width: 0.6; stroke-linejoin: miter; stroke-linecap: square"/>
   </g>
   <g id="patch_133">
    <path d="M 315.72 255.3725 
L 544.439609 255.3725 
" style="fill: none; stroke: #000000; stroke-width: 0.6; stroke-linejoin: miter; stroke-linecap: square"/>
   </g>
   <g id="text_34">
    <!-- $\lambda^*=$0.28 -->
    <g style="fill: #323034" transform="translate(315.72 175.2135) scale(0.12 -0.12)">
     <defs>
      <path id="STIXGeneral-Regular-2a" d="M 1715 3014 
L 1773 2976 
Q 2010 2822 2387 2758 
Q 2605 2726 2688 2665 
Q 2771 2605 2771 2483 
Q 2771 2374 2707 2304 
Q 2643 2234 2541 2234 
Q 2381 2234 2157 2515 
Q 2010 2694 1715 2886 
L 1664 2918 
L 1664 2861 
Q 1664 2502 1792 2157 
Q 1850 1997 1850 1946 
Q 1850 1850 1770 1773 
Q 1690 1696 1594 1696 
Q 1504 1696 1433 1766 
Q 1363 1837 1363 1926 
Q 1363 2016 1440 2227 
Q 1542 2502 1542 2861 
L 1542 2918 
Q 1286 2758 1210 2688 
Q 1133 2611 947 2400 
Q 806 2240 672 2240 
Q 563 2240 499 2304 
Q 435 2368 435 2470 
Q 435 2592 528 2656 
Q 621 2720 838 2758 
Q 1062 2803 1180 2848 
Q 1299 2893 1498 3014 
Q 1222 3181 877 3251 
Q 640 3302 544 3366 
Q 448 3430 448 3546 
Q 448 3648 505 3715 
Q 563 3782 659 3782 
Q 787 3782 973 3578 
Q 1242 3277 1542 3110 
L 1542 3194 
Q 1542 3456 1446 3776 
Q 1376 3987 1376 4109 
Q 1376 4198 1443 4262 
Q 1510 4326 1606 4326 
Q 1702 4326 1772 4259 
Q 1843 4192 1843 4096 
Q 1843 3994 1773 3795 
Q 1664 3507 1664 3264 
L 1664 3110 
Q 1882 3238 2035 3379 
Q 2067 3411 2153 3504 
Q 2240 3597 2291 3648 
Q 2342 3699 2409 3747 
Q 2477 3795 2528 3795 
Q 2637 3795 2701 3728 
Q 2765 3661 2765 3552 
Q 2765 3424 2691 3363 
Q 2618 3302 2432 3277 
Q 2074 3219 1715 3014 
z
" transform="scale(0.015625)"/>
      <path id="STIXGeneral-Regular-38" d="M 2848 992 
Q 2848 499 2505 204 
Q 2163 -90 1587 -90 
Q 1050 -90 704 204 
Q 358 499 358 954 
Q 358 1293 524 1533 
Q 691 1773 1190 2125 
Q 710 2522 553 2765 
Q 397 3008 397 3328 
Q 397 3782 745 4054 
Q 1094 4326 1638 4326 
Q 2106 4326 2410 4060 
Q 2714 3795 2714 3411 
Q 2714 3059 2531 2848 
Q 2349 2637 1856 2374 
Q 2432 1990 2640 1689 
Q 2848 1389 2848 992 
z
M 2272 3411 
Q 2272 3744 2086 3945 
Q 1901 4147 1574 4147 
Q 1248 4147 1059 3977 
Q 870 3808 870 3513 
Q 870 3219 1059 2979 
Q 1248 2739 1670 2490 
Q 1997 2682 2134 2896 
Q 2272 3110 2272 3411 
z
M 1734 1741 
L 1357 1997 
Q 1075 1766 960 1545 
Q 845 1325 845 1011 
Q 845 576 1065 333 
Q 1286 90 1658 90 
Q 1971 90 2166 285 
Q 2362 480 2362 794 
Q 2362 1082 2214 1299 
Q 2067 1517 1734 1741 
z
" transform="scale(0.015625)"/>
     </defs>
     <use xlink:href="#STIXGeneral-Italic-3bb" transform="translate(0 0.409375)"/>
     <use xlink:href="#STIXGeneral-Regular-2a" transform="translate(67.058766 35.684375) scale(0.7)"/>
     <use xlink:href="#STIXGeneral-Regular-3d" transform="translate(131.016125 0.409375)"/>
     <use xlink:href="#STIXGeneral-Regular-30" transform="translate(213.956106 0.409375)"/>
     <use xlink:href="#STIXGeneral-Regular-2e" transform="translate(263.95609 0.409375)"/>
     <use xlink:href="#STIXGeneral-Regular-32" transform="translate(288.956075 0.409375)"/>
     <use xlink:href="#STIXGeneral-Regular-38" transform="translate(338.95606 0.409375)"/>
    </g>
   </g>
  </g>
  <g id="text_35">
   <!-- Box Cox Transformed Distributions -->
   <g style="fill: #323034" transform="translate(143.411328 19.493437) scale(0.18 -0.18)">
    <defs>
     <path id="STIXGeneral-Regular-42" d="M 2701 2234 
L 2701 2227 
Q 3181 2150 3482 1875 
Q 3795 1594 3795 1139 
Q 3795 608 3379 304 
Q 2963 0 2266 0 
L 109 0 
L 109 122 
Q 486 134 604 246 
Q 723 358 723 723 
L 723 3520 
Q 723 3891 614 3990 
Q 506 4090 109 4115 
L 109 4237 
L 1901 4237 
Q 2726 4237 3152 3958 
Q 3578 3680 3578 3168 
Q 3578 2733 3315 2502 
Q 3130 2342 2701 2234 
z
M 1376 2342 
L 1965 2342 
Q 2925 2342 2925 3136 
Q 2925 3546 2640 3773 
Q 2355 4000 1792 4000 
L 1530 4000 
Q 1376 4000 1376 3795 
L 1376 2342 
z
M 1376 2086 
L 1376 525 
Q 1376 365 1462 301 
Q 1549 237 1773 237 
Q 2208 237 2413 285 
Q 2618 333 2816 512 
Q 3059 723 3059 1146 
Q 3059 1632 2758 1830 
Q 2688 1882 2617 1917 
Q 2547 1952 2492 1974 
Q 2438 1997 2348 2016 
Q 2259 2035 2211 2044 
Q 2163 2054 2041 2060 
Q 1920 2067 1862 2070 
Q 1805 2074 1635 2080 
Q 1466 2086 1376 2086 
z
" transform="scale(0.015625)"/>
     <path id="STIXGeneral-Regular-6f" d="M 3008 1478 
Q 3008 806 2608 371 
Q 2208 -64 1568 -64 
Q 979 -64 582 368 
Q 186 800 186 1459 
Q 186 2125 582 2534 
Q 979 2944 1626 2944 
Q 2221 2944 2614 2537 
Q 3008 2131 3008 1478 
z
M 2432 1306 
Q 2432 2035 2112 2445 
Q 1856 2765 1504 2765 
Q 1171 2765 966 2493 
Q 762 2221 762 1747 
Q 762 928 1101 435 
Q 1318 115 1677 115 
Q 2029 115 2230 432 
Q 2432 749 2432 1306 
z
" transform="scale(0.015625)"/>
     <path id="STIXGeneral-Regular-78" d="M 3066 0 
L 1779 0 
L 1779 96 
Q 1939 109 1987 137 
Q 2035 166 2035 250 
Q 2035 307 1997 365 
L 1414 1261 
L 909 474 
Q 781 275 781 211 
Q 781 96 1037 96 
L 1037 0 
L 109 0 
L 109 96 
Q 269 109 355 169 
Q 442 230 576 422 
L 1306 1478 
L 704 2400 
Q 557 2624 454 2704 
Q 352 2784 211 2784 
L 154 2784 
L 154 2880 
L 1478 2880 
L 1478 2784 
Q 1203 2778 1203 2643 
Q 1203 2509 1498 2074 
Q 1581 1958 1587 1946 
Q 1619 1990 1779 2227 
Q 1811 2285 1856 2349 
Q 1901 2413 1923 2451 
Q 1946 2490 1971 2528 
Q 1997 2566 2006 2595 
Q 2016 2624 2016 2643 
Q 2016 2765 1760 2784 
L 1760 2880 
L 2771 2880 
L 2771 2784 
Q 2445 2771 2253 2502 
L 1722 1734 
L 2541 480 
Q 2790 96 3066 96 
L 3066 0 
z
" transform="scale(0.015625)"/>
     <path id="STIXGeneral-Regular-20" transform="scale(0.015625)"/>
     <path id="STIXGeneral-Regular-43" d="M 3930 838 
L 4051 723 
Q 3482 -90 2304 -90 
Q 1376 -90 794 480 
Q 179 1082 179 2080 
Q 179 3014 755 3661 
Q 1357 4326 2310 4326 
Q 2720 4326 3072 4230 
Q 3475 4115 3514 4115 
Q 3725 4115 3782 4326 
L 3910 4326 
L 3968 2874 
L 3821 2874 
Q 3718 3334 3488 3584 
Q 3034 4070 2458 4070 
Q 1747 4070 1334 3548 
Q 922 3027 922 2182 
Q 922 1152 1382 653 
Q 1811 192 2522 192 
Q 2944 192 3251 339 
Q 3558 486 3930 838 
z
" transform="scale(0.015625)"/>
     <path id="STIXGeneral-Regular-54" d="M 3795 3149 
L 3642 3149 
Q 3539 3674 3353 3821 
Q 3168 3968 2656 3968 
L 2278 3968 
L 2278 710 
Q 2278 346 2387 243 
Q 2496 141 2893 122 
L 2893 0 
L 1024 0 
L 1024 122 
Q 1427 147 1526 256 
Q 1626 365 1626 787 
L 1626 3968 
L 1242 3968 
Q 723 3968 540 3817 
Q 358 3667 262 3149 
L 109 3149 
L 154 4237 
L 3750 4237 
L 3795 3149 
z
" transform="scale(0.015625)"/>
     <path id="STIXGeneral-Regular-73" d="M 998 1926 
L 1664 1523 
Q 1984 1331 2105 1164 
Q 2227 998 2227 736 
Q 2227 416 1961 176 
Q 1696 -64 1331 -64 
Q 1030 -64 864 -6 
Q 691 51 570 51 
Q 461 51 416 -26 
L 333 -26 
L 333 979 
L 435 979 
Q 538 512 730 294 
Q 922 77 1248 77 
Q 1485 77 1632 211 
Q 1779 346 1779 550 
Q 1779 845 1440 1030 
L 1094 1222 
Q 326 1651 326 2150 
Q 326 2522 566 2730 
Q 806 2938 1210 2938 
Q 1491 2938 1638 2867 
Q 1754 2816 1818 2816 
Q 1862 2816 1920 2880 
L 1990 2880 
L 2022 2010 
L 1926 2010 
Q 1818 2445 1654 2621 
Q 1491 2797 1203 2797 
Q 986 2797 854 2688 
Q 723 2579 723 2362 
Q 723 2253 796 2128 
Q 870 2003 998 1926 
z
" transform="scale(0.015625)"/>
     <path id="STIXGeneral-Regular-66" d="M 134 2880 
L 659 2880 
Q 666 3264 710 3478 
Q 755 3693 883 3910 
Q 1152 4371 1786 4371 
Q 2074 4371 2262 4259 
Q 2451 4147 2451 3974 
Q 2451 3866 2374 3789 
Q 2298 3712 2182 3712 
Q 2029 3712 1894 3942 
Q 1741 4192 1555 4192 
Q 1197 4192 1197 3622 
L 1197 2880 
L 1978 2880 
L 1978 2675 
L 1197 2675 
L 1197 666 
Q 1197 307 1299 208 
Q 1402 109 1792 96 
L 1792 0 
L 128 0 
L 128 96 
Q 474 115 566 214 
Q 659 314 659 666 
L 659 2675 
L 134 2675 
L 134 2880 
z
" transform="scale(0.015625)"/>
     <path id="STIXGeneral-Regular-6d" d="M 4960 0 
L 3565 0 
L 3565 96 
Q 3834 122 3907 208 
Q 3981 294 3981 576 
L 3981 1894 
Q 3981 2278 3869 2444 
Q 3757 2611 3488 2611 
Q 3264 2611 3107 2521 
Q 2950 2432 2803 2221 
L 2803 608 
Q 2803 301 2896 201 
Q 2989 102 3264 96 
L 3264 0 
L 1830 0 
L 1830 96 
Q 2112 115 2189 188 
Q 2266 262 2266 550 
L 2266 1901 
Q 2266 2611 1850 2611 
Q 1670 2611 1468 2531 
Q 1267 2451 1171 2336 
Q 1088 2240 1088 2227 
L 1088 448 
Q 1088 243 1177 176 
Q 1267 109 1523 96 
L 1523 0 
L 102 0 
L 102 96 
Q 371 102 460 195 
Q 550 288 550 563 
L 550 2150 
Q 550 2387 499 2480 
Q 448 2573 326 2573 
Q 230 2573 122 2547 
L 122 2656 
Q 557 2778 1011 2944 
L 1062 2925 
L 1062 2451 
L 1075 2451 
Q 1363 2752 1584 2848 
Q 1805 2944 2054 2944 
Q 2560 2944 2733 2406 
Q 3232 2944 3776 2944 
Q 4518 2944 4518 1792 
L 4518 493 
Q 4518 282 4582 202 
Q 4646 122 4794 109 
L 4960 96 
L 4960 0 
z
" transform="scale(0.015625)"/>
     <path id="STIXGeneral-Regular-65" d="M 2611 1050 
L 2714 1005 
Q 2330 -64 1376 -64 
Q 813 -64 486 329 
Q 160 723 160 1389 
Q 160 2074 525 2509 
Q 890 2944 1485 2944 
Q 2061 2944 2374 2502 
Q 2560 2246 2592 1773 
L 621 1773 
Q 646 1370 700 1158 
Q 755 947 915 730 
Q 1184 378 1626 378 
Q 1939 378 2153 531 
Q 2368 685 2611 1050 
z
M 634 1978 
L 1939 1978 
Q 1882 2381 1750 2547 
Q 1619 2714 1312 2714 
Q 1043 2714 864 2525 
Q 685 2336 634 1978 
z
" transform="scale(0.015625)"/>
     <path id="STIXGeneral-Regular-64" d="M 3142 269 
L 2202 -64 
L 2176 -45 
L 2176 365 
Q 1869 -64 1357 -64 
Q 826 -64 499 317 
Q 173 698 173 1312 
Q 173 1990 563 2467 
Q 954 2944 1504 2944 
Q 1850 2944 2176 2669 
L 2176 3667 
Q 2176 3866 2118 3930 
Q 2061 3994 1882 3994 
Q 1792 3994 1741 3987 
L 1741 4090 
Q 2323 4243 2682 4371 
L 2714 4358 
L 2714 730 
Q 2714 506 2768 435 
Q 2822 365 2995 365 
Q 3034 365 3142 371 
L 3142 269 
z
M 2176 653 
L 2176 2125 
Q 2176 2381 1981 2573 
Q 1786 2765 1523 2765 
Q 1158 2765 940 2438 
Q 723 2112 723 1568 
Q 723 979 963 624 
Q 1203 269 1606 269 
Q 1907 269 2080 474 
Q 2176 582 2176 653 
z
" transform="scale(0.015625)"/>
     <path id="STIXGeneral-Regular-44" d="M 102 4237 
L 1830 4237 
Q 3078 4237 3750 3654 
Q 4384 3110 4384 2138 
Q 4384 966 3514 410 
Q 2880 0 1901 0 
L 102 0 
L 102 122 
Q 474 147 570 252 
Q 666 358 666 736 
L 666 3520 
Q 666 3891 570 3990 
Q 474 4090 102 4115 
L 102 4237 
z
M 1318 3731 
L 1318 538 
Q 1318 365 1379 301 
Q 1440 237 1626 237 
Q 2125 237 2432 307 
Q 2739 378 3021 570 
Q 3686 1018 3686 2099 
Q 3686 3027 3078 3558 
Q 2803 3802 2476 3901 
Q 2150 4000 1658 4000 
Q 1472 4000 1395 3942 
Q 1318 3885 1318 3731 
z
" transform="scale(0.015625)"/>
     <path id="STIXGeneral-Regular-74" d="M 1702 493 
L 1786 422 
Q 1478 -64 1011 -64 
Q 448 -64 448 749 
L 448 2675 
L 109 2675 
Q 83 2694 83 2720 
Q 83 2771 192 2842 
Q 435 2982 813 3526 
Q 826 3546 874 3606 
Q 922 3667 941 3706 
Q 986 3706 986 3622 
L 986 2880 
L 1632 2880 
L 1632 2675 
L 986 2675 
L 986 845 
Q 986 538 1062 403 
Q 1139 269 1318 269 
Q 1510 269 1702 493 
z
" transform="scale(0.015625)"/>
     <path id="STIXGeneral-Regular-62" d="M 979 4358 
L 979 2406 
Q 1082 2650 1315 2797 
Q 1549 2944 1843 2944 
Q 2349 2944 2672 2541 
Q 2995 2138 2995 1536 
Q 2995 832 2566 384 
Q 2138 -64 1498 -64 
Q 1107 -64 774 67 
Q 442 198 442 358 
L 442 3622 
Q 442 3859 384 3926 
Q 326 3994 128 3994 
Q 83 3994 19 3981 
L 19 4090 
L 211 4147 
Q 864 4346 947 4371 
L 979 4358 
z
M 979 2035 
L 979 474 
Q 979 326 1161 233 
Q 1344 141 1600 141 
Q 1978 141 2195 416 
Q 2432 710 2432 1261 
Q 2432 1888 2182 2240 
Q 1971 2541 1613 2541 
Q 1357 2541 1168 2390 
Q 979 2240 979 2035 
z
" transform="scale(0.015625)"/>
     <path id="STIXGeneral-Regular-75" d="M 3072 320 
L 3072 230 
Q 2573 96 2195 -58 
L 2163 -38 
L 2163 486 
L 2150 486 
Q 1747 -64 1235 -64 
Q 870 -64 662 160 
Q 454 384 454 755 
L 454 2362 
Q 454 2598 371 2688 
Q 288 2778 58 2790 
L 58 2880 
L 992 2880 
L 992 813 
Q 992 595 1123 451 
Q 1254 307 1446 307 
Q 1760 307 1984 506 
Q 2067 582 2099 649 
Q 2131 717 2131 877 
L 2131 2355 
Q 2131 2605 2041 2678 
Q 1952 2752 1658 2771 
L 1658 2880 
L 2669 2880 
L 2669 685 
Q 2669 461 2742 390 
Q 2816 320 3034 320 
L 3072 320 
z
" transform="scale(0.015625)"/>
    </defs>
    <use xlink:href="#STIXGeneral-Regular-42"/>
    <use xlink:href="#STIXGeneral-Regular-6f" x="66.699997"/>
    <use xlink:href="#STIXGeneral-Regular-78" x="116.699982"/>
    <use xlink:href="#STIXGeneral-Regular-20" x="166.699966"/>
    <use xlink:href="#STIXGeneral-Regular-43" x="191.699951"/>
    <use xlink:href="#STIXGeneral-Regular-6f" x="258.399948"/>
    <use xlink:href="#STIXGeneral-Regular-78" x="308.399933"/>
    <use xlink:href="#STIXGeneral-Regular-20" x="358.399918"/>
    <use xlink:href="#STIXGeneral-Regular-54" x="383.399902"/>
    <use xlink:href="#STIXGeneral-Regular-72" x="444.499893"/>
    <use xlink:href="#STIXGeneral-Regular-61" x="477.799881"/>
    <use xlink:href="#STIXGeneral-Regular-6e" x="522.199875"/>
    <use xlink:href="#STIXGeneral-Regular-73" x="572.19986"/>
    <use xlink:href="#STIXGeneral-Regular-66" x="611.099854"/>
    <use xlink:href="#STIXGeneral-Regular-6f" x="644.399841"/>
    <use xlink:href="#STIXGeneral-Regular-72" x="694.399826"/>
    <use xlink:href="#STIXGeneral-Regular-6d" x="727.699814"/>
    <use xlink:href="#STIXGeneral-Regular-65" x="805.499802"/>
    <use xlink:href="#STIXGeneral-Regular-64" x="849.899796"/>
    <use xlink:href="#STIXGeneral-Regular-20" x="899.89978"/>
    <use xlink:href="#STIXGeneral-Regular-44" x="924.899765"/>
    <use xlink:href="#STIXGeneral-Regular-69" x="997.099747"/>
    <use xlink:href="#STIXGeneral-Regular-73" x="1024.899734"/>
    <use xlink:href="#STIXGeneral-Regular-74" x="1063.799728"/>
    <use xlink:href="#STIXGeneral-Regular-72" x="1091.599716"/>
    <use xlink:href="#STIXGeneral-Regular-69" x="1124.899704"/>
    <use xlink:href="#STIXGeneral-Regular-62" x="1152.699692"/>
    <use xlink:href="#STIXGeneral-Regular-75" x="1202.699677"/>
    <use xlink:href="#STIXGeneral-Regular-74" x="1252.699661"/>
    <use xlink:href="#STIXGeneral-Regular-69" x="1280.499649"/>
    <use xlink:href="#STIXGeneral-Regular-6f" x="1308.299637"/>
    <use xlink:href="#STIXGeneral-Regular-6e" x="1358.299622"/>
    <use xlink:href="#STIXGeneral-Regular-73" x="1408.299606"/>
   </g>
  </g>
 </g>
 <defs>
  <clipPath id="pda167b0495">
   <rect x="34.2" y="57.915" width="228.719609" height="74.159"/>
  </clipPath>
  <clipPath id="pab740ae3f9">
   <rect x="315.72" y="57.915" width="228.719609" height="74.159"/>
  </clipPath>
  <clipPath id="p5989e5e5f7">
   <rect x="34.2" y="181.2135" width="228.719609" height="74.159"/>
  </clipPath>
  <clipPath id="pc99f5e2d6a">
   <rect x="315.72" y="181.2135" width="228.719609" height="74.159"/>
  </clipPath>
 </defs>
</svg>