<?xml version="1.0" encoding="utf-8" standalone="no"?>
<!DOCTYPE svg PUBLIC "-//W3C//DTD SVG 1.1//EN"
  "http://www.w3.org/Graphics/SVG/1.1/DTD/svg11.dtd">
<svg xmlns:xlink="http://www.w3.org/1999/xlink" width="582.917491pt" height="479.32pt" viewBox="0 0 582.917491 479.32" xmlns="http://www.w3.org/2000/svg" version="1.1">
 <metadata>
  <rdf:RDF xmlns:dc="http://purl.org/dc/elements/1.1/" xmlns:cc="http://creativecommons.org/ns#" xmlns:rdf="http://www.w3.org/1999/02/22-rdf-syntax-ns#">
   <cc:Work>
    <dc:type rdf:resource="http://purl.org/dc/dcmitype/StillImage"/>
    <dc:date>2023-12-29T00:19:49.646303</dc:date>
    <dc:format>image/svg+xml</dc:format>
    <dc:creator>
     <cc:Agent>
      <dc:title>Matplotlib v3.7.2, https://matplotlib.org/</dc:title>
     </cc:Agent>
    </dc:creator>
   </cc:Work>
  </rdf:RDF>
 </metadata>
 <defs>
  <style type="text/css">*{stroke-linejoin: round; stroke-linecap: butt}</style>
 </defs>
 <g id="figure_1">
  <g id="patch_1">
   <path d="M 0 479.32 
L 582.917491 479.32 
L 582.917491 0 
L 0 0 
z
" style="fill: #ffffff"/>
  </g>
  <g id="axes_1">
   <g id="patch_2">
    <path d="M 41.24 450.72 
L 574.812969 450.72 
L 574.812969 7.2 
L 41.24 7.2 
z
" style="fill: #ffffff"/>
   </g>
   <g id="PatchCollection_1">
    <path d="M 359.397214 73.494817 
L 359.289293 74.311754 
L 359.367818 74.551103 
L 359.516813 74.717914 
L 359.586076 74.901297 
L 359.71091 77.080702 
L 359.687151 77.254304 
L 359.182983 78.129653 
L 359.069424 78.38666 
L 359.044457 79.471745 
L 358.959489 79.763256 
L 358.780695 80.050691 
L 358.461361 80.980375 
L 358.183907 81.398489 
L 357.428863 80.888548 
L 356.983487 80.668217 
L 356.765229 80.430498 
L 356.622676 80.266404 
L 356.71449 80.047703 
L 356.917446 79.820308 
L 356.949661 79.641544 
L 356.47207 79.438871 
L 356.253409 79.303575 
L 356.256228 79.066672 
L 356.421331 78.697189 
L 356.346028 78.392637 
L 356.070587 78.408123 
L 355.857161 78.361666 
L 355.829376 78.203549 
L 355.98723 78.000877 
L 356.189784 77.736262 
L 356.183341 77.444208 
L 355.938505 77.318421 
L 355.716622 77.081245 
L 355.627628 76.758763 
L 355.799577 76.53816 
L 356.078239 76.3958 
L 355.873672 76.065439 
L 355.735549 76.058104 
L 355.625212 75.985837 
L 355.715414 75.832339 
L 355.932062 75.602771 
L 356.233274 74.917326 
L 356.652878 74.593757 
L 357.395439 74.385651 
L 357.596382 74.294639 
L 357.780814 74.05366 
L 357.984978 73.89826 
L 358.233036 73.918907 
L 358.461764 74.012093 
L 358.602706 74.111256 
L 358.708613 74.008018 
L 358.811702 73.709171 
L 358.74848 73.44673 
L 358.781097 72.72488 
L 358.913985 72.31546 
L 359.128619 72.292639 
L 359.326743 72.517861 
L 359.316676 72.717001 
L 359.389966 73.188364 
L 359.397214 73.494817 
" clip-path="url(#p90336bdd40)" style="fill: #bc80bd; stroke: #000000; stroke-width: 0.2"/>
    <path d="M 351.707838 46.858368 
L 351.210112 47.110757 
L 351.096554 47.331632 
L 350.901249 47.623686 
L 350.584331 47.746485 
L 350.264998 47.787237 
L 350.006873 47.748658 
L 349.859891 47.631836 
L 349.86714 47.523165 
L 349.730225 47.430794 
L 349.389549 47.433511 
L 349.038805 47.634553 
L 348.758532 47.962741 
L 348.845514 48.146396 
L 349.103638 48.194754 
L 349.171693 48.267564 
L 349.171693 48.361837 
L 349.080685 48.47567 
L 348.971556 48.669648 
L 348.429937 49.248324 
L 347.883083 49.832161 
L 347.795699 50.008752 
L 347.62214 50.132094 
L 346.927096 50.443709 
L 346.854209 50.568681 
L 346.814745 51.089489 
L 346.737026 51.517111 
L 346.221582 51.919739 
L 345.708554 52.320464 
L 345.580499 52.565518 
L 345.487074 52.848879 
L 345.325998 53.168916 
L 345.294186 53.337901 
L 345.553921 53.613654 
L 345.523719 53.841592 
L 345.441168 54.165705 
L 345.194721 54.395545 
L 344.9221 54.525679 
L 344.92814 54.878861 
L 345.073109 54.928307 
L 345.402912 54.902225 
L 345.86802 54.646033 
L 346.171246 54.316758 
L 345.992451 54.004056 
L 345.970303 53.942929 
L 346.013391 53.869575 
L 346.372994 53.529706 
L 346.814342 53.32486 
L 347.430056 53.286825 
L 348.171812 53.406907 
L 348.245907 53.457711 
L 348.210068 53.666088 
L 348.279331 53.973357 
L 348.413829 54.189069 
L 348.229397 54.801433 
L 348.367923 54.993238 
L 348.583765 55.222806 
L 348.745646 55.43227 
L 348.978401 55.62489 
L 349.185384 55.949274 
L 349.256258 56.133201 
L 348.925246 56.452695 
L 348.36309 56.752085 
L 348.299868 56.94389 
L 348.307116 57.162047 
L 348.370339 57.333748 
L 348.68041 57.554351 
L 349.014241 58.053968 
L 349.225653 58.499521 
L 349.68915 58.926871 
L 349.801904 59.053473 
L 349.77291 59.160243 
L 349.650895 59.342268 
L 349.492235 59.949197 
L 349.30297 60.045643 
L 349.09196 60.084765 
L 348.518932 60.529503 
L 348.263626 60.47571 
L 347.900399 60.481416 
L 347.63422 60.62785 
L 347.663214 60.904962 
L 347.896775 61.158439 
L 348.034092 61.434464 
L 348.089663 61.721628 
L 348.348996 61.934352 
L 348.713028 62.061498 
L 348.921219 62.070192 
L 349.057329 62.146533 
L 349.139075 62.245153 
L 349.295722 62.860504 
L 349.201895 63.014818 
L 349.005784 63.080564 
L 348.888601 63.333768 
L 348.654638 63.707055 
L 348.52175 64.006716 
L 348.668732 64.270516 
L 348.731552 64.465853 
L 348.653028 64.666895 
L 348.757727 64.98014 
L 349.034375 65.290126 
L 349.785393 65.725898 
L 350.482853 66.080438 
L 350.698695 66.139393 
L 351.640991 65.911454 
L 351.796833 65.931015 
L 351.911599 66.202694 
L 351.961533 66.385533 
L 351.855625 66.661015 
L 351.600722 67.04055 
L 351.324477 67.342928 
L 351.156957 67.599936 
L 351.191991 67.833308 
L 351.202864 68.143837 
L 350.978163 68.236751 
L 350.970914 68.175351 
L 350.878295 68.122917 
L 350.79816 68.153889 
L 350.736548 68.221265 
L 350.726884 68.340804 
L 350.247682 68.539129 
L 349.917476 68.74479 
L 348.61155 69.97332 
L 348.000669 70.333566 
L 347.880264 70.550637 
L 347.755833 70.956253 
L 347.397036 71.304545 
L 347.082937 71.470269 
L 346.304939 71.640339 
L 345.523719 72.00955 
L 345.171768 71.850347 
L 344.260076 71.867463 
L 343.691477 71.422725 
L 342.598575 71.140723 
L 342.242597 70.493041 
L 341.744871 70.450931 
L 341.418692 70.470492 
L 341.22379 70.372416 
L 341.173051 70.151541 
L 341.168621 69.938817 
L 340.823113 70.036621 
L 340.558948 70.036621 
L 340.401496 70.121928 
L 340.277064 70.220276 
L 340.130082 70.157518 
L 340.044712 70.178709 
L 340.052363 70.303953 
L 339.735043 70.335196 
L 339.391145 70.258311 
L 338.488313 69.923874 
L 338.349787 69.872799 
L 337.723201 69.74348 
L 337.469908 69.609814 
L 337.264939 69.279453 
L 337.108292 69.174857 
L 337.015673 69.112371 
L 336.430967 69.279181 
L 336.228011 69.539178 
L 335.911093 69.843729 
L 333.742605 71.337146 
L 333.34676 71.962822 
L 332.888498 72.884355 
L 332.852659 73.314151 
L 333.049977 74.688572 
L 333.490923 75.410151 
L 333.546897 75.577233 
L 333.302464 75.578048 
L 332.892122 75.487851 
L 332.551446 75.376462 
L 332.22728 75.438677 
L 331.914792 75.587828 
L 331.641768 75.678026 
L 331.445658 75.703292 
L 331.314381 75.789414 
L 331.251561 75.961386 
L 331.238675 76.08174 
L 330.893569 76.052127 
L 330.095436 75.804628 
L 329.377842 75.634014 
L 328.95703 75.827992 
L 328.686422 76.009202 
L 328.495949 75.98149 
L 328.351384 75.790772 
L 328.254335 75.604129 
L 327.973257 75.432972 
L 327.339422 75.175692 
L 327.37204 75.051535 
L 327.480364 74.878476 
L 327.477142 74.771706 
L 327.355127 74.613046 
L 326.770823 74.442975 
L 326.495383 74.40005 
L 326.320212 74.517143 
L 326.19417 74.66059 
L 325.868796 74.133261 
L 325.637249 74.025948 
L 325.286909 74.008289 
L 324.886231 73.847456 
L 324.469447 73.642067 
L 323.45668 73.313336 
L 323.178018 73.273942 
L 323.066473 73.326105 
L 322.991975 73.522528 
L 322.951706 74.077839 
L 322.909021 74.139238 
L 322.439081 74.157713 
L 321.860012 74.080556 
L 321.594639 74.118863 
L 321.357857 74.120764 
L 321.134766 73.973786 
L 320.134684 74.141955 
L 319.968373 74.059908 
L 319.72696 73.809149 
L 319.457761 73.606749 
L 319.248564 73.502967 
L 319.070172 73.383972 
L 318.90829 73.364683 
L 318.661441 73.479875 
L 318.320362 73.528777 
L 318.037271 73.513834 
L 317.886262 73.530679 
L 317.252225 72.915598 
L 317.159607 72.747158 
L 316.843897 72.700429 
L 316.45369 72.693094 
L 315.457434 72.294541 
L 315.003803 72.080459 
L 314.937359 71.953313 
L 314.9436 71.850347 
L 314.866083 71.872624 
L 314.726349 72.054649 
L 314.653059 72.202986 
L 314.556011 72.230697 
L 314.412854 72.207604 
L 314.28057 72.124199 
L 314.19963 72.016342 
L 314.286409 71.828069 
L 314.438224 71.582472 
L 314.501245 71.315412 
L 314.487352 71.076335 
L 314.23567 70.922836 
L 313.865598 70.85872 
L 313.594788 70.840518 
L 313.241428 70.703863 
L 313.074714 70.605516 
L 312.912027 70.339271 
L 312.90659 70.145836 
L 313.57707 69.97495 
L 314.181509 69.275378 
L 314.754135 66.735727 
L 315.168503 63.733136 
L 315.476561 63.165871 
L 315.863547 63.009928 
L 315.550455 62.597248 
L 315.354546 62.806169 
L 315.272397 63.027858 
L 315.169711 63.138703 
L 315.401258 60.385785 
L 315.56616 59.377857 
L 315.846835 58.321843 
L 316.421072 58.741043 
L 316.897052 59.16622 
L 317.143096 59.535159 
L 317.454577 60.764233 
L 317.690151 61.022056 
L 318.042707 61.280966 
L 317.903376 60.99842 
L 317.660755 60.782435 
L 317.28142 59.144214 
L 317.043632 58.680187 
L 316.672955 58.289785 
L 315.479984 57.467686 
L 315.372667 57.309026 
L 315.315082 56.994965 
L 315.709317 57.008277 
L 316.049993 57.160961 
L 316.009724 56.985185 
L 315.908648 56.80153 
L 315.750391 56.135646 
L 315.61851 54.580558 
L 315.63643 54.314313 
L 315.577637 53.987756 
L 315.196087 53.914674 
L 314.891049 53.901362 
L 314.562454 53.772314 
L 312.937597 52.855671 
L 312.381281 51.909958 
L 311.81248 51.211744 
L 311.675968 50.907193 
L 311.685029 50.598566 
L 311.979395 49.946809 
L 311.719459 49.535216 
L 311.465361 49.453441 
L 311.244686 49.249682 
L 311.444622 48.910356 
L 311.610732 48.693284 
L 311.943556 48.634059 
L 312.380072 48.706053 
L 312.79424 48.902477 
L 313.11901 48.954639 
L 312.158794 48.427583 
L 310.60159 48.605261 
L 310.265947 48.537341 
L 309.982654 48.419976 
L 309.871713 48.033106 
L 310.093193 47.858688 
L 310.293733 47.536206 
L 310.066817 47.309626 
L 309.772651 47.223775 
L 309.311369 47.228666 
L 308.880893 47.297129 
L 308.771764 47.166995 
L 309.034318 46.807835 
L 308.811227 46.6758 
L 308.513639 46.737471 
L 308.081955 46.811911 
L 307.668996 46.699164 
L 307.278789 46.291103 
L 307.02006 46.294091 
L 306.842272 46.344352 
L 306.578711 46.187322 
L 306.301257 46.147928 
L 306.103134 46.200091 
L 305.839774 45.965904 
L 304.218743 45.496172 
L 303.518666 45.438847 
L 302.876576 45.651572 
L 302.523215 45.577675 
L 302.263479 45.27421 
L 302.045422 44.765085 
L 301.011112 44.372509 
L 301.215678 44.114958 
L 301.697296 44.054102 
L 302.252204 43.875609 
L 302.451737 43.646584 
L 302.018039 43.379524 
L 301.698102 43.31405 
L 301.565616 43.218147 
L 301.430312 42.978527 
L 301.621993 42.86904 
L 301.757096 42.927179 
L 302.147102 42.961683 
L 302.814763 42.902728 
L 302.5659 42.661206 
L 302.307574 42.607414 
L 302.188981 42.54683 
L 301.646155 42.520748 
L 301.399104 42.603067 
L 300.843794 42.571824 
L 300.723591 42.311013 
L 300.666006 42.087149 
L 300.838156 41.588348 
L 301.619778 41.142795 
L 303.567391 40.655675 
L 304.40539 40.726855 
L 304.986271 40.639103 
L 305.682322 40.332106 
L 305.989575 40.069121 
L 306.979388 39.913993 
L 307.920476 40.193007 
L 308.787871 41.247934 
L 309.202441 41.605463 
L 310.217423 40.985221 
L 311.729727 41.003424 
L 312.042014 41.353617 
L 312.168056 41.058575 
L 312.446114 40.713543 
L 312.667795 40.870845 
L 312.780145 41.084112 
L 314.376209 41.023528 
L 314.628495 40.961314 
L 314.19963 40.710826 
L 313.849088 40.110417 
L 313.776402 37.902213 
L 313.334248 37.285775 
L 312.826656 36.301212 
L 312.593096 35.717103 
L 312.571149 35.515246 
L 312.649271 35.223735 
L 313.27324 35.239492 
L 313.755261 35.313389 
L 314.672791 35.093058 
L 315.114341 35.243839 
L 315.088368 35.699716 
L 315.223068 36.274859 
L 315.376895 36.55333 
L 315.609651 36.870107 
L 316.349393 36.840765 
L 317.147727 37.026865 
L 318.156467 37.055663 
L 319.630314 37.377059 
L 320.25831 37.190959 
L 320.865769 36.794308 
L 322.023504 36.533497 
L 322.11572 36.395484 
L 321.449268 36.450635 
L 320.837983 36.199332 
L 320.755432 35.926296 
L 320.826305 35.681242 
L 321.074363 35.116694 
L 322.845396 34.226946 
L 324.115079 33.963962 
L 325.440334 33.474125 
L 326.107189 32.971792 
L 326.547733 32.323295 
L 326.68948 32.180664 
L 326.872301 32.061125 
L 326.702366 31.82884 
L 326.817535 29.351132 
L 326.941564 28.904764 
L 327.200091 28.540172 
L 327.59352 28.258169 
L 328.19071 27.952531 
L 330.3894 27.530342 
L 330.715982 27.36 
L 330.761889 27.624887 
L 330.921757 27.963941 
L 331.031692 28.149226 
L 330.940281 28.391292 
L 331.012363 28.590704 
L 331.310756 28.949591 
L 331.682842 29.287831 
L 332.014257 29.504087 
L 332.107681 29.480451 
L 332.353322 29.419052 
L 332.769302 29.197362 
L 333.115615 29.12754 
L 333.313739 29.29734 
L 333.425687 29.393242 
L 333.643945 29.775765 
L 333.705154 30.175133 
L 333.802203 30.506852 
L 333.978984 30.641333 
L 334.641813 30.685345 
L 335.130276 30.808416 
L 335.25954 30.919804 
L 335.426656 31.657139 
L 335.517665 31.761464 
L 335.639277 31.674527 
L 335.759682 31.553086 
L 335.926798 31.533797 
L 336.213514 31.580526 
L 336.591238 31.595197 
L 336.980639 31.676428 
L 337.518634 32.092912 
L 337.498097 32.230381 
L 337.392994 32.471631 
L 337.35635 32.664252 
L 337.448968 32.74168 
L 337.591118 32.940549 
L 337.556889 33.170389 
L 337.418364 33.331494 
L 337.362793 33.464345 
L 337.363598 33.550739 
L 337.414337 33.622462 
L 337.524674 33.685491 
L 338.319183 33.770526 
L 339.046039 33.685491 
L 339.504301 33.450761 
L 339.582423 33.203533 
L 339.712492 32.924248 
L 339.985516 32.690604 
L 340.174378 32.612089 
L 340.347132 32.708263 
L 340.05639 33.689295 
L 340.268608 33.940054 
L 340.300017 34.31497 
L 340.376126 34.643158 
L 340.635861 34.636909 
L 340.950765 34.697494 
L 341.173856 34.818934 
L 341.433994 35.013999 
L 341.808899 35.193307 
L 342.071856 35.256336 
L 342.167294 35.406303 
L 342.379914 35.579634 
L 342.71455 35.94314 
L 343.014152 36.185749 
L 343.158718 36.184934 
L 343.437782 36.089303 
L 343.851748 36.028175 
L 344.178733 36.033337 
L 344.317661 36.218078 
L 344.639008 36.303385 
L 344.752567 36.371305 
L 344.878609 36.498722 
L 345.09284 36.549798 
L 345.351368 36.498722 
L 345.54023 36.328651 
L 345.792314 36.25231 
L 346.044398 36.277848 
L 346.189367 36.371305 
L 346.465612 36.509318 
L 346.621856 36.479161 
L 346.934747 36.564197 
L 347.248846 36.832343 
L 347.380928 37.10212 
L 347.415559 37.249642 
L 347.551266 37.409932 
L 348.078388 38.13477 
L 348.246713 38.170632 
L 348.429937 38.060602 
L 348.548731 37.904659 
L 348.72068 37.873687 
L 348.997328 37.94541 
L 349.175317 38.027457 
L 349.260688 38.341518 
L 349.320688 38.401287 
L 349.440288 38.333639 
L 349.653311 38.318697 
L 349.993584 38.396125 
L 350.461511 38.307558 
L 350.836013 38.176609 
L 351.027291 38.181499 
L 351.336155 38.547722 
L 351.688509 38.684648 
L 352.464896 38.795221 
L 353.298063 38.967465 
L 353.62545 39.106836 
L 353.848944 39.175299 
L 353.871494 39.660245 
L 353.804245 39.733327 
L 352.9743 40.705664 
L 352.624764 41.053413 
L 352.446775 41.549769 
L 352.324357 42.311013 
L 352.079119 43.034221 
L 351.711865 43.719937 
L 351.578172 44.234497 
L 351.678442 44.577898 
L 351.615622 45.11718 
L 351.390115 45.851799 
L 351.352262 46.406838 
L 351.500855 46.781483 
L 351.707838 46.858368 
" clip-path="url(#p90336bdd40)" style="fill: #bc80bd; stroke: #000000; stroke-width: 0.2"/>
    <path d="M 315.445554 56.254098 
L 315.300183 56.740674 
L 315.025145 56.292676 
L 314.660509 55.900101 
L 314.577353 55.536866 
L 314.578159 55.439877 
L 315.005413 55.705307 
L 315.445554 56.254098 
" clip-path="url(#p90336bdd40)" style="fill: #bc80bd; stroke: #000000; stroke-width: 0.2"/>
    <path d="M 506.607589 383.865525 
L 506.349062 383.911167 
L 506.225839 383.763918 
L 506.150536 383.413996 
L 506.228255 383.077114 
L 506.25 382.804892 
L 506.039796 382.332715 
L 506.245168 382.064297 
L 506.419935 382.376727 
L 506.518997 382.397918 
L 506.78437 382.615804 
L 506.706651 383.017345 
L 506.72437 383.148837 
L 506.603965 383.550922 
L 506.607589 383.865525 
" clip-path="url(#p90336bdd40)" style="fill: #bc80bd; stroke: #000000; stroke-width: 0.2"/>
    <path d="M 550.387703 430.394819 
L 549.805412 430.56 
L 549.399098 430.500231 
L 548.595327 430.02914 
L 548.379485 429.716167 
L 548.059749 428.831581 
L 548.130622 428.520238 
L 548.383512 427.973077 
L 548.957346 427.756278 
L 549.559368 427.836694 
L 549.829171 427.985031 
L 550.147699 428.626192 
L 550.559652 429.277677 
L 550.491194 430.052505 
L 550.387703 430.394819 
" clip-path="url(#p90336bdd40)" style="fill: #bc80bd; stroke: #000000; stroke-width: 0.2"/>
    <path d="M 69.484181 231.016199 
L 69.441496 231.333791 
L 69.336394 231.395734 
L 69.182566 231.131391 
L 68.505039 231.168611 
L 68.401347 230.93225 
L 68.395306 230.820319 
L 68.721083 230.418506 
L 68.337721 230.310921 
L 68.185907 230.137591 
L 67.861741 229.291855 
L 67.888117 229.045986 
L 68.022213 228.916124 
L 68.242485 228.897378 
L 68.656048 229.170687 
L 68.963503 229.55973 
L 69.068202 229.565707 
L 69.103236 229.676009 
L 69.041222 229.949589 
L 69.224849 230.181331 
L 69.303977 230.35276 
L 69.484181 231.016199 
" clip-path="url(#p90336bdd40)" style="fill: #bc80bd; stroke: #000000; stroke-width: 0.2"/>
    <path d="M 67.418782 221.357484 
L 66.933539 221.419427 
L 66.614609 221.370796 
L 66.541118 220.972516 
L 66.703603 220.635362 
L 66.586823 220.225943 
L 66.662126 219.981704 
L 66.824813 219.820599 
L 67.091797 220.033866 
L 67.134281 220.339233 
L 67.302001 220.61879 
L 68.056039 221.214581 
L 67.418782 221.357484 
" clip-path="url(#p90336bdd40)" style="fill: #bc80bd; stroke: #000000; stroke-width: 0.2"/>
    <path d="M 66.336752 222.600957 
L 66.003123 222.850629 
L 65.839027 222.773472 
L 65.636272 222.294232 
L 65.493317 220.964909 
L 65.604459 220.745121 
L 65.683185 220.662802 
L 66.122521 220.825809 
L 66.305946 221.013811 
L 66.490177 221.132263 
L 66.396552 221.375686 
L 66.44266 222.373833 
L 66.336752 222.600957 
" clip-path="url(#p90336bdd40)" style="fill: #bc80bd; stroke: #000000; stroke-width: 0.2"/>
    <path d="M 67.817445 223.251898 
L 67.587509 223.273633 
L 67.486434 223.225546 
L 67.454822 222.890566 
L 67.63261 222.660454 
L 67.736907 222.604488 
L 67.892144 222.862583 
L 67.928991 223.077752 
L 67.817445 223.251898 
" clip-path="url(#p90336bdd40)" style="fill: #bc80bd; stroke: #000000; stroke-width: 0.2"/>
    <path d="M 95.091475 298.717129 
L 95.138992 298.666868 
L 95.288793 298.629105 
L 95.422688 298.62503 
L 95.630476 298.219957 
L 95.974978 297.967296 
L 96.57398 296.564077 
L 96.826467 295.984586 
L 96.857071 295.667537 
L 96.92875 295.006815 
L 96.795057 294.202375 
L 96.857273 293.97661 
L 97.372113 293.00536 
L 97.59319 292.475586 
L 97.608089 292.019438 
L 97.671916 291.690979 
L 97.608291 291.519278 
L 97.49151 291.469289 
L 97.294595 291.043297 
L 97.167546 290.690115 
L 96.818413 290.328511 
L 96.579014 289.95767 
L 96.18639 289.106229 
L 96.221827 288.628075 
L 96.110483 288.456103 
L 95.989877 288.280598 
L 95.998736 288.064071 
L 95.917192 287.528592 
L 95.815512 287.025715 
L 95.778666 286.708666 
L 95.875715 286.163408 
L 95.817324 285.557021 
L 95.689873 285.238071 
L 95.654637 284.752853 
L 95.680812 284.317895 
L 95.789941 284.07257 
L 95.767995 283.76829 
L 96.265116 282.800571 
L 96.642236 282.239555 
L 96.989557 281.845892 
L 97.280903 281.551936 
L 97.67554 280.081884 
L 97.96286 279.564608 
L 98.262864 279.490983 
L 99.882284 280.708103 
L 100.641356 280.820578 
L 102.171379 281.478311 
L 102.725279 282.321602 
L 104.007849 283.724549 
L 104.681751 284.16494 
L 104.688396 284.532521 
L 104.541212 285.117989 
L 104.972695 284.60669 
L 105.640155 285.415748 
L 105.829017 285.812942 
L 106.036805 286.545116 
L 105.964925 287.015391 
L 105.872709 287.258272 
L 105.867675 287.447089 
L 106.066201 287.186821 
L 106.177948 286.980617 
L 106.211371 286.489965 
L 106.373454 285.881134 
L 106.590907 285.870266 
L 106.763662 286.232957 
L 107.122459 287.81141 
L 107.257763 288.134164 
L 107.309509 288.635139 
L 107.289575 288.859274 
L 107.312529 289.066293 
L 107.185077 289.186375 
L 106.840173 289.448001 
L 106.682721 289.797108 
L 106.591109 290.132902 
L 106.376676 290.361112 
L 106.172914 290.648277 
L 106.109289 290.881105 
L 105.918414 291.065303 
L 105.881769 291.372028 
L 105.400957 292.454667 
L 105.209276 292.942058 
L 104.933634 293.459606 
L 104.761283 293.651954 
L 104.527722 293.960038 
L 104.40913 294.316208 
L 104.40913 294.684333 
L 104.245235 295.12581 
L 104.154428 295.50616 
L 103.999996 295.727035 
L 103.592473 296.931658 
L 103.572742 297.346239 
L 103.475693 297.59238 
L 103.18636 298.166436 
L 102.990652 298.51174 
L 102.649372 298.770378 
L 102.290575 299.051565 
L 102.154264 299.35829 
L 101.901173 299.513962 
L 101.716137 299.524014 
L 101.416938 299.412898 
L 101.013643 299.359377 
L 100.808674 299.395238 
L 100.716256 299.242827 
L 100.578939 298.892633 
L 100.377191 298.644862 
L 100.24692 298.731256 
L 99.975507 298.980385 
L 99.657381 299.12682 
L 99.430667 299.077918 
L 98.936968 298.905402 
L 98.726562 298.818465 
L 98.662937 298.671215 
L 98.590251 298.560914 
L 98.481122 298.610087 
L 98.33555 298.794014 
L 98.141453 298.986906 
L 97.853529 299.241197 
L 97.262581 299.697888 
L 97.09627 299.86171 
L 96.942442 299.7726 
L 96.692572 299.682131 
L 96.424179 299.676969 
L 95.846721 299.380568 
L 95.508662 299.169474 
L 95.362687 298.904587 
L 95.191745 298.789395 
L 95.091475 298.717129 
" clip-path="url(#p90336bdd40)" style="fill: #bc80bd; stroke: #000000; stroke-width: 0.2"/>
   </g>
   <g id="PathCollection_1">
    <defs>
     <path id="m542c8eee1d" d="M 0 4.5 
C 1.193414 4.5 2.338109 4.025852 3.181981 3.181981 
C 4.025852 2.338109 4.5 1.193414 4.5 0 
C 4.5 -1.193414 4.025852 -2.338109 3.181981 -3.181981 
C 2.338109 -4.025852 1.193414 -4.5 0 -4.5 
C -1.193414 -4.5 -2.338109 -4.025852 -3.181981 -3.181981 
C -4.025852 -2.338109 -4.5 -1.193414 -4.5 0 
C -4.5 1.193414 -4.025852 2.338109 -3.181981 3.181981 
C -2.338109 4.025852 -1.193414 4.5 0 4.5 
z
" style="stroke: #ff0000; stroke-width: 0.2"/>
    </defs>
    <g clip-path="url(#p90336bdd40)">
     <use xlink:href="#m542c8eee1d" x="308.916286" y="77.011138" style="fill: #ff0000; stroke: #ff0000; stroke-width: 0.2"/>
    </g>
   </g>
   <g id="matplotlib.axis_1">
    <g id="xtick_1">
     <g id="line2d_1">
      <defs>
       <path id="m0cd21f12fc" d="M 0 0 
L 0 3.5 
" style="stroke: #323034; stroke-width: 0.8"/>
      </defs>
      <g>
       <use xlink:href="#m0cd21f12fc" x="72.891346" y="450.72" style="fill: #323034; stroke: #323034; stroke-width: 0.8"/>
      </g>
     </g>
     <g id="text_1">
      <!-- $\mathdefault{−60}$ -->
      <g style="fill: #323034" transform="translate(59.371346 468.6475) scale(0.16 -0.16)">
       <defs>
        <path id="STIXGeneral-Regular-2212" d="M 3974 1408 
L 410 1408 
L 410 1830 
L 3974 1830 
L 3974 1408 
z
" transform="scale(0.015625)"/>
        <path id="STIXGeneral-Regular-36" d="M 2854 4378 
L 2867 4275 
Q 2112 4154 1606 3664 
Q 1101 3174 973 2451 
Q 1344 2739 1786 2739 
Q 2349 2739 2672 2380 
Q 2995 2022 2995 1402 
Q 2995 774 2669 378 
Q 2291 -90 1651 -90 
Q 870 -90 518 557 
Q 218 1107 218 1786 
Q 218 2835 915 3552 
Q 1312 3962 1731 4131 
Q 2150 4301 2854 4378 
z
M 2419 1203 
Q 2419 2445 1555 2445 
Q 1235 2445 1024 2275 
Q 813 2106 813 1702 
Q 813 954 1046 522 
Q 1280 90 1722 90 
Q 2061 90 2240 394 
Q 2419 698 2419 1203 
z
" transform="scale(0.015625)"/>
        <path id="STIXGeneral-Regular-30" d="M 3046 2112 
Q 3046 1683 2963 1302 
Q 2880 922 2717 602 
Q 2554 282 2266 96 
Q 1978 -90 1600 -90 
Q 1210 -90 915 108 
Q 621 307 461 640 
Q 301 973 227 1350 
Q 154 1728 154 2150 
Q 154 2746 301 3222 
Q 448 3699 790 4012 
Q 1133 4326 1626 4326 
Q 2253 4326 2649 3712 
Q 3046 3098 3046 2112 
z
M 2432 2080 
Q 2432 3091 2217 3625 
Q 2003 4160 1587 4160 
Q 1190 4160 979 3622 
Q 768 3085 768 2106 
Q 768 1120 979 598 
Q 1190 77 1600 77 
Q 2003 77 2217 598 
Q 2432 1120 2432 2080 
z
" transform="scale(0.015625)"/>
       </defs>
       <use xlink:href="#STIXGeneral-Regular-2212" transform="translate(0 0.59375)"/>
       <use xlink:href="#STIXGeneral-Regular-36" transform="translate(68.499985 0.59375)"/>
       <use xlink:href="#STIXGeneral-Regular-30" transform="translate(118.499969 0.59375)"/>
      </g>
     </g>
    </g>
    <g id="xtick_2">
     <g id="line2d_2">
      <g>
       <use xlink:href="#m0cd21f12fc" x="155.36237" y="450.72" style="fill: #323034; stroke: #323034; stroke-width: 0.8"/>
      </g>
     </g>
     <g id="text_2">
      <!-- $\mathdefault{−40}$ -->
      <g style="fill: #323034" transform="translate(141.84237 468.6475) scale(0.16 -0.16)">
       <defs>
        <path id="STIXGeneral-Regular-34" d="M 3027 1069 
L 2368 1069 
L 2368 0 
L 1869 0 
L 1869 1069 
L 77 1069 
L 77 1478 
L 2086 4326 
L 2368 4326 
L 2368 1478 
L 3027 1478 
L 3027 1069 
z
M 1869 1478 
L 1869 3674 
L 333 1478 
L 1869 1478 
z
" transform="scale(0.015625)"/>
       </defs>
       <use xlink:href="#STIXGeneral-Regular-2212" transform="translate(0 0.40625)"/>
       <use xlink:href="#STIXGeneral-Regular-34" transform="translate(68.499985 0.40625)"/>
       <use xlink:href="#STIXGeneral-Regular-30" transform="translate(118.499969 0.40625)"/>
      </g>
     </g>
    </g>
    <g id="xtick_3">
     <g id="line2d_3">
      <g>
       <use xlink:href="#m0cd21f12fc" x="237.833394" y="450.72" style="fill: #323034; stroke: #323034; stroke-width: 0.8"/>
      </g>
     </g>
     <g id="text_3">
      <!-- $\mathdefault{−20}$ -->
      <g style="fill: #323034" transform="translate(224.313394 468.6475) scale(0.16 -0.16)">
       <defs>
        <path id="STIXGeneral-Regular-32" d="M 3034 877 
L 2688 0 
L 186 0 
L 186 77 
L 1325 1286 
Q 1773 1754 1965 2144 
Q 2157 2534 2157 2950 
Q 2157 3379 1920 3616 
Q 1683 3853 1267 3853 
Q 922 3853 720 3673 
Q 518 3494 326 3021 
L 192 3053 
Q 301 3648 630 3987 
Q 960 4326 1523 4326 
Q 2054 4326 2380 4006 
Q 2707 3686 2707 3200 
Q 2707 2477 1888 1613 
L 832 486 
L 2330 486 
Q 2541 486 2665 569 
Q 2790 653 2944 915 
L 3034 877 
z
" transform="scale(0.015625)"/>
       </defs>
       <use xlink:href="#STIXGeneral-Regular-2212" transform="translate(0 0.40625)"/>
       <use xlink:href="#STIXGeneral-Regular-32" transform="translate(68.499985 0.40625)"/>
       <use xlink:href="#STIXGeneral-Regular-30" transform="translate(118.499969 0.40625)"/>
      </g>
     </g>
    </g>
    <g id="xtick_4">
     <g id="line2d_4">
      <g>
       <use xlink:href="#m0cd21f12fc" x="320.304418" y="450.72" style="fill: #323034; stroke: #323034; stroke-width: 0.8"/>
      </g>
     </g>
     <g id="text_4">
      <!-- $\mathdefault{0}$ -->
      <g style="fill: #323034" transform="translate(316.304418 468.6475) scale(0.16 -0.16)">
       <use xlink:href="#STIXGeneral-Regular-30" transform="translate(0 0.40625)"/>
      </g>
     </g>
    </g>
    <g id="xtick_5">
     <g id="line2d_5">
      <g>
       <use xlink:href="#m0cd21f12fc" x="402.775442" y="450.72" style="fill: #323034; stroke: #323034; stroke-width: 0.8"/>
      </g>
     </g>
     <g id="text_5">
      <!-- $\mathdefault{20}$ -->
      <g style="fill: #323034" transform="translate(394.775442 468.6475) scale(0.16 -0.16)">
       <use xlink:href="#STIXGeneral-Regular-32" transform="translate(0 0.40625)"/>
       <use xlink:href="#STIXGeneral-Regular-30" transform="translate(49.999985 0.40625)"/>
      </g>
     </g>
    </g>
    <g id="xtick_6">
     <g id="line2d_6">
      <g>
       <use xlink:href="#m0cd21f12fc" x="485.246467" y="450.72" style="fill: #323034; stroke: #323034; stroke-width: 0.8"/>
      </g>
     </g>
     <g id="text_6">
      <!-- $\mathdefault{40}$ -->
      <g style="fill: #323034" transform="translate(477.246467 468.6475) scale(0.16 -0.16)">
       <use xlink:href="#STIXGeneral-Regular-34" transform="translate(0 0.40625)"/>
       <use xlink:href="#STIXGeneral-Regular-30" transform="translate(49.999985 0.40625)"/>
      </g>
     </g>
    </g>
    <g id="xtick_7">
     <g id="line2d_7">
      <g>
       <use xlink:href="#m0cd21f12fc" x="567.717491" y="450.72" style="fill: #323034; stroke: #323034; stroke-width: 0.8"/>
      </g>
     </g>
     <g id="text_7">
      <!-- $\mathdefault{60}$ -->
      <g style="fill: #323034" transform="translate(559.717491 468.6475) scale(0.16 -0.16)">
       <use xlink:href="#STIXGeneral-Regular-36" transform="translate(0 0.59375)"/>
       <use xlink:href="#STIXGeneral-Regular-30" transform="translate(49.999985 0.59375)"/>
      </g>
     </g>
    </g>
   </g>
   <g id="matplotlib.axis_2">
    <g id="ytick_1">
     <g id="line2d_8">
      <defs>
       <path id="mc2df20aeea" d="M 0 0 
L -3.5 0 
" style="stroke: #323034; stroke-width: 0.8"/>
      </defs>
      <g>
       <use xlink:href="#mc2df20aeea" x="41.24" y="422.942678" style="fill: #323034; stroke: #323034; stroke-width: 0.8"/>
      </g>
     </g>
     <g id="text_8">
      <!-- $\mathdefault{−20}$ -->
      <g style="fill: #323034" transform="translate(7.2 428.406428) scale(0.16 -0.16)">
       <use xlink:href="#STIXGeneral-Regular-2212" transform="translate(0 0.40625)"/>
       <use xlink:href="#STIXGeneral-Regular-32" transform="translate(68.499985 0.40625)"/>
       <use xlink:href="#STIXGeneral-Regular-30" transform="translate(118.499969 0.40625)"/>
      </g>
     </g>
    </g>
    <g id="ytick_2">
     <g id="line2d_9">
      <g>
       <use xlink:href="#mc2df20aeea" x="41.24" y="367.302916" style="fill: #323034; stroke: #323034; stroke-width: 0.8"/>
      </g>
     </g>
     <g id="text_9">
      <!-- $\mathdefault{−10}$ -->
      <g style="fill: #323034" transform="translate(7.2 372.766666) scale(0.16 -0.16)">
       <defs>
        <path id="STIXGeneral-Regular-31" d="M 2522 0 
L 755 0 
L 755 96 
Q 1107 115 1235 227 
Q 1363 339 1363 608 
L 1363 3482 
Q 1363 3795 1171 3795 
Q 1082 3795 883 3718 
L 710 3654 
L 710 3744 
L 1856 4326 
L 1914 4307 
L 1914 486 
Q 1914 275 2042 185 
Q 2170 96 2522 96 
L 2522 0 
z
" transform="scale(0.015625)"/>
       </defs>
       <use xlink:href="#STIXGeneral-Regular-2212" transform="translate(0 0.40625)"/>
       <use xlink:href="#STIXGeneral-Regular-31" transform="translate(68.499985 0.40625)"/>
       <use xlink:href="#STIXGeneral-Regular-30" transform="translate(118.499969 0.40625)"/>
      </g>
     </g>
    </g>
    <g id="ytick_3">
     <g id="line2d_10">
      <g>
       <use xlink:href="#mc2df20aeea" x="41.24" y="311.663154" style="fill: #323034; stroke: #323034; stroke-width: 0.8"/>
      </g>
     </g>
     <g id="text_10">
      <!-- $\mathdefault{0}$ -->
      <g style="fill: #323034" transform="translate(26.24 317.126904) scale(0.16 -0.16)">
       <use xlink:href="#STIXGeneral-Regular-30" transform="translate(0 0.40625)"/>
      </g>
     </g>
    </g>
    <g id="ytick_4">
     <g id="line2d_11">
      <g>
       <use xlink:href="#mc2df20aeea" x="41.24" y="256.023392" style="fill: #323034; stroke: #323034; stroke-width: 0.8"/>
      </g>
     </g>
     <g id="text_11">
      <!-- $\mathdefault{10}$ -->
      <g style="fill: #323034" transform="translate(18.24 261.487142) scale(0.16 -0.16)">
       <use xlink:href="#STIXGeneral-Regular-31" transform="translate(0 0.40625)"/>
       <use xlink:href="#STIXGeneral-Regular-30" transform="translate(49.999985 0.40625)"/>
      </g>
     </g>
    </g>
    <g id="ytick_5">
     <g id="line2d_12">
      <g>
       <use xlink:href="#mc2df20aeea" x="41.24" y="200.38363" style="fill: #323034; stroke: #323034; stroke-width: 0.8"/>
      </g>
     </g>
     <g id="text_12">
      <!-- $\mathdefault{20}$ -->
      <g style="fill: #323034" transform="translate(18.24 205.84738) scale(0.16 -0.16)">
       <use xlink:href="#STIXGeneral-Regular-32" transform="translate(0 0.40625)"/>
       <use xlink:href="#STIXGeneral-Regular-30" transform="translate(49.999985 0.40625)"/>
      </g>
     </g>
    </g>
    <g id="ytick_6">
     <g id="line2d_13">
      <g>
       <use xlink:href="#mc2df20aeea" x="41.24" y="144.743868" style="fill: #323034; stroke: #323034; stroke-width: 0.8"/>
      </g>
     </g>
     <g id="text_13">
      <!-- $\mathdefault{30}$ -->
      <g style="fill: #323034" transform="translate(18.24 150.207618) scale(0.16 -0.16)">
       <defs>
        <path id="STIXGeneral-Regular-33" d="M 390 3264 
L 288 3290 
Q 435 3770 748 4048 
Q 1062 4326 1542 4326 
Q 1990 4326 2265 4083 
Q 2541 3840 2541 3450 
Q 2541 2925 1946 2566 
Q 2298 2413 2477 2227 
Q 2758 1914 2758 1402 
Q 2758 890 2464 506 
Q 2246 211 1840 60 
Q 1434 -90 979 -90 
Q 262 -90 262 275 
Q 262 378 339 442 
Q 416 506 525 506 
Q 685 506 915 339 
Q 1197 141 1466 141 
Q 1818 141 2058 425 
Q 2298 710 2298 1120 
Q 2298 1856 1632 2048 
Q 1434 2112 979 2112 
L 979 2202 
Q 1338 2323 1517 2432 
Q 2035 2726 2035 3290 
Q 2035 3610 1852 3776 
Q 1670 3942 1344 3942 
Q 768 3942 390 3264 
z
" transform="scale(0.015625)"/>
       </defs>
       <use xlink:href="#STIXGeneral-Regular-33" transform="translate(0 0.40625)"/>
       <use xlink:href="#STIXGeneral-Regular-30" transform="translate(49.999985 0.40625)"/>
      </g>
     </g>
    </g>
    <g id="ytick_7">
     <g id="line2d_14">
      <g>
       <use xlink:href="#mc2df20aeea" x="41.24" y="89.104107" style="fill: #323034; stroke: #323034; stroke-width: 0.8"/>
      </g>
     </g>
     <g id="text_14">
      <!-- $\mathdefault{40}$ -->
      <g style="fill: #323034" transform="translate(18.24 94.567857) scale(0.16 -0.16)">
       <use xlink:href="#STIXGeneral-Regular-34" transform="translate(0 0.40625)"/>
       <use xlink:href="#STIXGeneral-Regular-30" transform="translate(49.999985 0.40625)"/>
      </g>
     </g>
    </g>
    <g id="ytick_8">
     <g id="line2d_15">
      <g>
       <use xlink:href="#mc2df20aeea" x="41.24" y="33.464345" style="fill: #323034; stroke: #323034; stroke-width: 0.8"/>
      </g>
     </g>
     <g id="text_15">
      <!-- $\mathdefault{50}$ -->
      <g style="fill: #323034" transform="translate(18.24 38.928095) scale(0.16 -0.16)">
       <defs>
        <path id="STIXGeneral-Regular-35" d="M 2803 4358 
L 2573 3814 
Q 2534 3731 2400 3731 
L 1158 3731 
L 902 3187 
Q 1606 3053 1920 2896 
Q 2234 2739 2502 2368 
Q 2726 2061 2726 1555 
Q 2726 1094 2576 780 
Q 2426 467 2099 224 
Q 1664 -90 1011 -90 
Q 646 -90 422 19 
Q 198 128 198 307 
Q 198 550 486 550 
Q 717 550 960 352 
Q 1210 147 1414 147 
Q 1747 147 2012 480 
Q 2278 813 2278 1229 
Q 2278 1843 1850 2189 
Q 1293 2637 486 2637 
Q 410 2637 410 2688 
L 416 2720 
L 1114 4237 
L 2438 4237 
Q 2547 4237 2608 4269 
Q 2669 4301 2746 4403 
L 2803 4358 
z
" transform="scale(0.015625)"/>
       </defs>
       <use xlink:href="#STIXGeneral-Regular-35" transform="translate(0 0.203125)"/>
       <use xlink:href="#STIXGeneral-Regular-30" transform="translate(49.999985 0.203125)"/>
      </g>
     </g>
    </g>
   </g>
   <g id="patch_3">
    <path d="M 41.24 450.72 
L 41.24 7.2 
" style="fill: none; stroke: #000000; stroke-width: 0.6; stroke-linejoin: miter; stroke-linecap: square"/>
   </g>
   <g id="patch_4">
    <path d="M 41.24 450.72 
L 574.812969 450.72 
" style="fill: none; stroke: #000000; stroke-width: 0.6; stroke-linejoin: miter; stroke-linecap: square"/>
   </g>
  </g>
 </g>
 <defs>
  <clipPath id="p90336bdd40">
   <rect x="41.24" y="7.2" width="533.572969" height="443.52"/>
  </clipPath>
 </defs>
</svg>