<?xml version="1.0" encoding="utf-8" standalone="no"?>
<!DOCTYPE svg PUBLIC "-//W3C//DTD SVG 1.1//EN"
  "http://www.w3.org/Graphics/SVG/1.1/DTD/svg11.dtd">
<svg xmlns:xlink="http://www.w3.org/1999/xlink" width="491.8pt" height="280.42375pt" viewBox="0 0 491.8 280.42375" xmlns="http://www.w3.org/2000/svg" version="1.1">
 <metadata>
  <rdf:RDF xmlns:dc="http://purl.org/dc/elements/1.1/" xmlns:cc="http://creativecommons.org/ns#" xmlns:rdf="http://www.w3.org/1999/02/22-rdf-syntax-ns#">
   <cc:Work>
    <dc:type rdf:resource="http://purl.org/dc/dcmitype/StillImage"/>
    <dc:date>2023-12-29T00:21:38.337026</dc:date>
    <dc:format>image/svg+xml</dc:format>
    <dc:creator>
     <cc:Agent>
      <dc:title>Matplotlib v3.7.2, https://matplotlib.org/</dc:title>
     </cc:Agent>
    </dc:creator>
   </cc:Work>
  </rdf:RDF>
 </metadata>
 <defs>
  <style type="text/css">*{stroke-linejoin: round; stroke-linecap: butt}</style>
 </defs>
 <g id="figure_1">
  <g id="patch_1">
   <path d="M 0 280.42375 
L 491.8 280.42375 
L 491.8 0 
L 0 0 
z
" style="fill: #ffffff"/>
  </g>
  <g id="axes_1">
   <g id="patch_2">
    <path d="M 38.2 234.42375 
L 484.6 234.42375 
L 484.6 12.66375 
L 38.2 12.66375 
z
" style="fill: #ffffff"/>
   </g>
   <g id="matplotlib.axis_1">
    <g id="xtick_1">
     <g id="line2d_1">
      <defs>
       <path id="m025f01ffd5" d="M 0 0 
L 0 3.5 
" style="stroke: #323034; stroke-width: 0.8"/>
      </defs>
      <g>
       <use xlink:href="#m025f01ffd5" x="80.462722" y="234.42375" style="fill: #323034; stroke: #323034; stroke-width: 0.8"/>
      </g>
     </g>
     <g id="text_1">
      <!-- 2011 -->
      <g style="fill: #323034" transform="translate(64.462722 252.35125) scale(0.16 -0.16)">
       <defs>
        <path id="STIXGeneral-Regular-32" d="M 3034 877 
L 2688 0 
L 186 0 
L 186 77 
L 1325 1286 
Q 1773 1754 1965 2144 
Q 2157 2534 2157 2950 
Q 2157 3379 1920 3616 
Q 1683 3853 1267 3853 
Q 922 3853 720 3673 
Q 518 3494 326 3021 
L 192 3053 
Q 301 3648 630 3987 
Q 960 4326 1523 4326 
Q 2054 4326 2380 4006 
Q 2707 3686 2707 3200 
Q 2707 2477 1888 1613 
L 832 486 
L 2330 486 
Q 2541 486 2665 569 
Q 2790 653 2944 915 
L 3034 877 
z
" transform="scale(0.015625)"/>
        <path id="STIXGeneral-Regular-30" d="M 3046 2112 
Q 3046 1683 2963 1302 
Q 2880 922 2717 602 
Q 2554 282 2266 96 
Q 1978 -90 1600 -90 
Q 1210 -90 915 108 
Q 621 307 461 640 
Q 301 973 227 1350 
Q 154 1728 154 2150 
Q 154 2746 301 3222 
Q 448 3699 790 4012 
Q 1133 4326 1626 4326 
Q 2253 4326 2649 3712 
Q 3046 3098 3046 2112 
z
M 2432 2080 
Q 2432 3091 2217 3625 
Q 2003 4160 1587 4160 
Q 1190 4160 979 3622 
Q 768 3085 768 2106 
Q 768 1120 979 598 
Q 1190 77 1600 77 
Q 2003 77 2217 598 
Q 2432 1120 2432 2080 
z
" transform="scale(0.015625)"/>
        <path id="STIXGeneral-Regular-31" d="M 2522 0 
L 755 0 
L 755 96 
Q 1107 115 1235 227 
Q 1363 339 1363 608 
L 1363 3482 
Q 1363 3795 1171 3795 
Q 1082 3795 883 3718 
L 710 3654 
L 710 3744 
L 1856 4326 
L 1914 4307 
L 1914 486 
Q 1914 275 2042 185 
Q 2170 96 2522 96 
L 2522 0 
z
" transform="scale(0.015625)"/>
       </defs>
       <use xlink:href="#STIXGeneral-Regular-32"/>
       <use xlink:href="#STIXGeneral-Regular-30" x="49.999985"/>
       <use xlink:href="#STIXGeneral-Regular-31" x="99.999969"/>
       <use xlink:href="#STIXGeneral-Regular-31" x="149.999954"/>
      </g>
     </g>
    </g>
    <g id="xtick_2">
     <g id="line2d_2">
      <g>
       <use xlink:href="#m025f01ffd5" x="143.856805" y="234.42375" style="fill: #323034; stroke: #323034; stroke-width: 0.8"/>
      </g>
     </g>
     <g id="text_2">
      <!-- 2013 -->
      <g style="fill: #323034" transform="translate(127.856805 252.35125) scale(0.16 -0.16)">
       <defs>
        <path id="STIXGeneral-Regular-33" d="M 390 3264 
L 288 3290 
Q 435 3770 748 4048 
Q 1062 4326 1542 4326 
Q 1990 4326 2265 4083 
Q 2541 3840 2541 3450 
Q 2541 2925 1946 2566 
Q 2298 2413 2477 2227 
Q 2758 1914 2758 1402 
Q 2758 890 2464 506 
Q 2246 211 1840 60 
Q 1434 -90 979 -90 
Q 262 -90 262 275 
Q 262 378 339 442 
Q 416 506 525 506 
Q 685 506 915 339 
Q 1197 141 1466 141 
Q 1818 141 2058 425 
Q 2298 710 2298 1120 
Q 2298 1856 1632 2048 
Q 1434 2112 979 2112 
L 979 2202 
Q 1338 2323 1517 2432 
Q 2035 2726 2035 3290 
Q 2035 3610 1852 3776 
Q 1670 3942 1344 3942 
Q 768 3942 390 3264 
z
" transform="scale(0.015625)"/>
       </defs>
       <use xlink:href="#STIXGeneral-Regular-32"/>
       <use xlink:href="#STIXGeneral-Regular-30" x="49.999985"/>
       <use xlink:href="#STIXGeneral-Regular-31" x="99.999969"/>
       <use xlink:href="#STIXGeneral-Regular-33" x="149.999954"/>
      </g>
     </g>
    </g>
    <g id="xtick_3">
     <g id="line2d_3">
      <g>
       <use xlink:href="#m025f01ffd5" x="207.250888" y="234.42375" style="fill: #323034; stroke: #323034; stroke-width: 0.8"/>
      </g>
     </g>
     <g id="text_3">
      <!-- 2015 -->
      <g style="fill: #323034" transform="translate(191.250888 252.35125) scale(0.16 -0.16)">
       <defs>
        <path id="STIXGeneral-Regular-35" d="M 2803 4358 
L 2573 3814 
Q 2534 3731 2400 3731 
L 1158 3731 
L 902 3187 
Q 1606 3053 1920 2896 
Q 2234 2739 2502 2368 
Q 2726 2061 2726 1555 
Q 2726 1094 2576 780 
Q 2426 467 2099 224 
Q 1664 -90 1011 -90 
Q 646 -90 422 19 
Q 198 128 198 307 
Q 198 550 486 550 
Q 717 550 960 352 
Q 1210 147 1414 147 
Q 1747 147 2012 480 
Q 2278 813 2278 1229 
Q 2278 1843 1850 2189 
Q 1293 2637 486 2637 
Q 410 2637 410 2688 
L 416 2720 
L 1114 4237 
L 2438 4237 
Q 2547 4237 2608 4269 
Q 2669 4301 2746 4403 
L 2803 4358 
z
" transform="scale(0.015625)"/>
       </defs>
       <use xlink:href="#STIXGeneral-Regular-32"/>
       <use xlink:href="#STIXGeneral-Regular-30" x="49.999985"/>
       <use xlink:href="#STIXGeneral-Regular-31" x="99.999969"/>
       <use xlink:href="#STIXGeneral-Regular-35" x="149.999954"/>
      </g>
     </g>
    </g>
    <g id="xtick_4">
     <g id="line2d_4">
      <g>
       <use xlink:href="#m025f01ffd5" x="270.64497" y="234.42375" style="fill: #323034; stroke: #323034; stroke-width: 0.8"/>
      </g>
     </g>
     <g id="text_4">
      <!-- 2017 -->
      <g style="fill: #323034" transform="translate(254.64497 252.35125) scale(0.16 -0.16)">
       <defs>
        <path id="STIXGeneral-Regular-37" d="M 2874 4134 
L 1517 -51 
L 1101 -51 
L 2368 3763 
L 992 3763 
Q 717 3763 582 3667 
Q 448 3571 243 3238 
L 128 3296 
L 512 4237 
L 2874 4237 
L 2874 4134 
z
" transform="scale(0.015625)"/>
       </defs>
       <use xlink:href="#STIXGeneral-Regular-32"/>
       <use xlink:href="#STIXGeneral-Regular-30" x="49.999985"/>
       <use xlink:href="#STIXGeneral-Regular-31" x="99.999969"/>
       <use xlink:href="#STIXGeneral-Regular-37" x="149.999954"/>
      </g>
     </g>
    </g>
    <g id="xtick_5">
     <g id="line2d_5">
      <g>
       <use xlink:href="#m025f01ffd5" x="334.039053" y="234.42375" style="fill: #323034; stroke: #323034; stroke-width: 0.8"/>
      </g>
     </g>
     <g id="text_5">
      <!-- 2019 -->
      <g style="fill: #323034" transform="translate(318.039053 252.35125) scale(0.16 -0.16)">
       <defs>
        <path id="STIXGeneral-Regular-39" d="M 378 -141 
L 358 -13 
Q 1094 115 1603 608 
Q 2112 1101 2304 1882 
Q 1933 1517 1344 1517 
Q 826 1517 509 1875 
Q 192 2234 192 2816 
Q 192 3462 573 3894 
Q 954 4326 1523 4326 
Q 2131 4326 2528 3840 
Q 2938 3328 2938 2522 
Q 2938 1958 2742 1462 
Q 2547 966 2170 621 
Q 1773 262 1395 105 
Q 1018 -51 378 -141 
z
M 2317 2272 
L 2317 2522 
Q 2317 4147 1472 4147 
Q 1171 4147 1005 3930 
Q 909 3802 845 3546 
Q 781 3290 781 3034 
Q 781 2464 995 2128 
Q 1210 1792 1568 1792 
Q 1824 1792 2070 1917 
Q 2317 2042 2317 2272 
z
" transform="scale(0.015625)"/>
       </defs>
       <use xlink:href="#STIXGeneral-Regular-32"/>
       <use xlink:href="#STIXGeneral-Regular-30" x="49.999985"/>
       <use xlink:href="#STIXGeneral-Regular-31" x="99.999969"/>
       <use xlink:href="#STIXGeneral-Regular-39" x="149.999954"/>
      </g>
     </g>
    </g>
    <g id="xtick_6">
     <g id="line2d_6">
      <g>
       <use xlink:href="#m025f01ffd5" x="397.433136" y="234.42375" style="fill: #323034; stroke: #323034; stroke-width: 0.8"/>
      </g>
     </g>
     <g id="text_6">
      <!-- 2021 -->
      <g style="fill: #323034" transform="translate(381.433136 252.35125) scale(0.16 -0.16)">
       <use xlink:href="#STIXGeneral-Regular-32"/>
       <use xlink:href="#STIXGeneral-Regular-30" x="49.999985"/>
       <use xlink:href="#STIXGeneral-Regular-32" x="99.999969"/>
       <use xlink:href="#STIXGeneral-Regular-31" x="149.999954"/>
      </g>
     </g>
    </g>
    <g id="xtick_7">
     <g id="line2d_7">
      <g>
       <use xlink:href="#m025f01ffd5" x="460.827219" y="234.42375" style="fill: #323034; stroke: #323034; stroke-width: 0.8"/>
      </g>
     </g>
     <g id="text_7">
      <!-- 2023 -->
      <g style="fill: #323034" transform="translate(444.827219 252.35125) scale(0.16 -0.16)">
       <use xlink:href="#STIXGeneral-Regular-32"/>
       <use xlink:href="#STIXGeneral-Regular-30" x="49.999985"/>
       <use xlink:href="#STIXGeneral-Regular-32" x="99.999969"/>
       <use xlink:href="#STIXGeneral-Regular-33" x="149.999954"/>
      </g>
     </g>
    </g>
    <g id="xtick_8">
     <g id="line2d_8">
      <defs>
       <path id="m204ac61cfb" d="M 0 0 
L 0 2 
" style="stroke: #323034; stroke-width: 0.6"/>
      </defs>
      <g>
       <use xlink:href="#m204ac61cfb" x="48.76568" y="234.42375" style="fill: #323034; stroke: #323034; stroke-width: 0.6"/>
      </g>
     </g>
    </g>
    <g id="xtick_9">
     <g id="line2d_9">
      <g>
       <use xlink:href="#m204ac61cfb" x="112.159763" y="234.42375" style="fill: #323034; stroke: #323034; stroke-width: 0.6"/>
      </g>
     </g>
    </g>
    <g id="xtick_10">
     <g id="line2d_10">
      <g>
       <use xlink:href="#m204ac61cfb" x="175.553846" y="234.42375" style="fill: #323034; stroke: #323034; stroke-width: 0.6"/>
      </g>
     </g>
    </g>
    <g id="xtick_11">
     <g id="line2d_11">
      <g>
       <use xlink:href="#m204ac61cfb" x="238.947929" y="234.42375" style="fill: #323034; stroke: #323034; stroke-width: 0.6"/>
      </g>
     </g>
    </g>
    <g id="xtick_12">
     <g id="line2d_12">
      <g>
       <use xlink:href="#m204ac61cfb" x="302.342012" y="234.42375" style="fill: #323034; stroke: #323034; stroke-width: 0.6"/>
      </g>
     </g>
    </g>
    <g id="xtick_13">
     <g id="line2d_13">
      <g>
       <use xlink:href="#m204ac61cfb" x="365.736095" y="234.42375" style="fill: #323034; stroke: #323034; stroke-width: 0.6"/>
      </g>
     </g>
    </g>
    <g id="xtick_14">
     <g id="line2d_14">
      <g>
       <use xlink:href="#m204ac61cfb" x="429.130178" y="234.42375" style="fill: #323034; stroke: #323034; stroke-width: 0.6"/>
      </g>
     </g>
    </g>
    <g id="text_8">
     <!-- date -->
     <g transform="translate(248.07125 269.75125) scale(0.16 -0.16)">
      <defs>
       <path id="STIXGeneral-Regular-64" d="M 3142 269 
L 2202 -64 
L 2176 -45 
L 2176 365 
Q 1869 -64 1357 -64 
Q 826 -64 499 317 
Q 173 698 173 1312 
Q 173 1990 563 2467 
Q 954 2944 1504 2944 
Q 1850 2944 2176 2669 
L 2176 3667 
Q 2176 3866 2118 3930 
Q 2061 3994 1882 3994 
Q 1792 3994 1741 3987 
L 1741 4090 
Q 2323 4243 2682 4371 
L 2714 4358 
L 2714 730 
Q 2714 506 2768 435 
Q 2822 365 2995 365 
Q 3034 365 3142 371 
L 3142 269 
z
M 2176 653 
L 2176 2125 
Q 2176 2381 1981 2573 
Q 1786 2765 1523 2765 
Q 1158 2765 940 2438 
Q 723 2112 723 1568 
Q 723 979 963 624 
Q 1203 269 1606 269 
Q 1907 269 2080 474 
Q 2176 582 2176 653 
z
" transform="scale(0.015625)"/>
       <path id="STIXGeneral-Regular-61" d="M 2829 422 
L 2829 243 
Q 2586 -64 2253 -64 
Q 1888 -64 1843 403 
L 1837 403 
Q 1427 -64 909 -64 
Q 608 -64 422 112 
Q 237 288 237 602 
Q 237 1050 685 1350 
Q 992 1555 1837 1869 
L 1837 2214 
Q 1837 2502 1699 2646 
Q 1562 2790 1338 2790 
Q 1146 2790 1018 2697 
Q 890 2605 890 2477 
Q 890 2419 909 2348 
Q 928 2278 928 2208 
Q 928 2112 841 2029 
Q 755 1946 634 1946 
Q 525 1946 441 2029 
Q 358 2112 358 2240 
Q 358 2547 685 2752 
Q 986 2944 1421 2944 
Q 1939 2944 2176 2656 
Q 2291 2522 2323 2384 
Q 2355 2246 2355 1946 
L 2355 723 
Q 2355 301 2554 301 
Q 2682 301 2829 422 
z
M 1837 813 
L 1837 1715 
Q 1248 1510 1018 1293 
Q 800 1094 800 800 
Q 800 557 921 432 
Q 1043 307 1242 307 
Q 1453 307 1613 410 
Q 1747 506 1792 589 
Q 1837 672 1837 813 
z
" transform="scale(0.015625)"/>
       <path id="STIXGeneral-Regular-74" d="M 1702 493 
L 1786 422 
Q 1478 -64 1011 -64 
Q 448 -64 448 749 
L 448 2675 
L 109 2675 
Q 83 2694 83 2720 
Q 83 2771 192 2842 
Q 435 2982 813 3526 
Q 826 3546 874 3606 
Q 922 3667 941 3706 
Q 986 3706 986 3622 
L 986 2880 
L 1632 2880 
L 1632 2675 
L 986 2675 
L 986 845 
Q 986 538 1062 403 
Q 1139 269 1318 269 
Q 1510 269 1702 493 
z
" transform="scale(0.015625)"/>
       <path id="STIXGeneral-Regular-65" d="M 2611 1050 
L 2714 1005 
Q 2330 -64 1376 -64 
Q 813 -64 486 329 
Q 160 723 160 1389 
Q 160 2074 525 2509 
Q 890 2944 1485 2944 
Q 2061 2944 2374 2502 
Q 2560 2246 2592 1773 
L 621 1773 
Q 646 1370 700 1158 
Q 755 947 915 730 
Q 1184 378 1626 378 
Q 1939 378 2153 531 
Q 2368 685 2611 1050 
z
M 634 1978 
L 1939 1978 
Q 1882 2381 1750 2547 
Q 1619 2714 1312 2714 
Q 1043 2714 864 2525 
Q 685 2336 634 1978 
z
" transform="scale(0.015625)"/>
      </defs>
      <use xlink:href="#STIXGeneral-Regular-64"/>
      <use xlink:href="#STIXGeneral-Regular-61" x="49.999985"/>
      <use xlink:href="#STIXGeneral-Regular-74" x="94.399979"/>
      <use xlink:href="#STIXGeneral-Regular-65" x="122.199966"/>
     </g>
    </g>
   </g>
   <g id="matplotlib.axis_2">
    <g id="ytick_1">
     <g id="line2d_15">
      <defs>
       <path id="m871a5b12db" d="M 0 0 
L -3.5 0 
" style="stroke: #323034; stroke-width: 0.8"/>
      </defs>
      <g>
       <use xlink:href="#m871a5b12db" x="38.2" y="234.42375" style="fill: #323034; stroke: #323034; stroke-width: 0.8"/>
      </g>
     </g>
     <g id="text_9">
      <!-- $\mathdefault{0}$ -->
      <g style="fill: #323034" transform="translate(23.2 239.8875) scale(0.16 -0.16)">
       <use xlink:href="#STIXGeneral-Regular-30" transform="translate(0 0.40625)"/>
      </g>
     </g>
    </g>
    <g id="ytick_2">
     <g id="line2d_16">
      <g>
       <use xlink:href="#m871a5b12db" x="38.2" y="190.07175" style="fill: #323034; stroke: #323034; stroke-width: 0.8"/>
      </g>
     </g>
     <g id="text_10">
      <!-- $\mathdefault{20}$ -->
      <g style="fill: #323034" transform="translate(15.2 195.5355) scale(0.16 -0.16)">
       <use xlink:href="#STIXGeneral-Regular-32" transform="translate(0 0.40625)"/>
       <use xlink:href="#STIXGeneral-Regular-30" transform="translate(49.999985 0.40625)"/>
      </g>
     </g>
    </g>
    <g id="ytick_3">
     <g id="line2d_17">
      <g>
       <use xlink:href="#m871a5b12db" x="38.2" y="145.71975" style="fill: #323034; stroke: #323034; stroke-width: 0.8"/>
      </g>
     </g>
     <g id="text_11">
      <!-- $\mathdefault{40}$ -->
      <g style="fill: #323034" transform="translate(15.2 151.1835) scale(0.16 -0.16)">
       <defs>
        <path id="STIXGeneral-Regular-34" d="M 3027 1069 
L 2368 1069 
L 2368 0 
L 1869 0 
L 1869 1069 
L 77 1069 
L 77 1478 
L 2086 4326 
L 2368 4326 
L 2368 1478 
L 3027 1478 
L 3027 1069 
z
M 1869 1478 
L 1869 3674 
L 333 1478 
L 1869 1478 
z
" transform="scale(0.015625)"/>
       </defs>
       <use xlink:href="#STIXGeneral-Regular-34" transform="translate(0 0.40625)"/>
       <use xlink:href="#STIXGeneral-Regular-30" transform="translate(49.999985 0.40625)"/>
      </g>
     </g>
    </g>
    <g id="ytick_4">
     <g id="line2d_18">
      <g>
       <use xlink:href="#m871a5b12db" x="38.2" y="101.36775" style="fill: #323034; stroke: #323034; stroke-width: 0.8"/>
      </g>
     </g>
     <g id="text_12">
      <!-- $\mathdefault{60}$ -->
      <g style="fill: #323034" transform="translate(15.2 106.8315) scale(0.16 -0.16)">
       <defs>
        <path id="STIXGeneral-Regular-36" d="M 2854 4378 
L 2867 4275 
Q 2112 4154 1606 3664 
Q 1101 3174 973 2451 
Q 1344 2739 1786 2739 
Q 2349 2739 2672 2380 
Q 2995 2022 2995 1402 
Q 2995 774 2669 378 
Q 2291 -90 1651 -90 
Q 870 -90 518 557 
Q 218 1107 218 1786 
Q 218 2835 915 3552 
Q 1312 3962 1731 4131 
Q 2150 4301 2854 4378 
z
M 2419 1203 
Q 2419 2445 1555 2445 
Q 1235 2445 1024 2275 
Q 813 2106 813 1702 
Q 813 954 1046 522 
Q 1280 90 1722 90 
Q 2061 90 2240 394 
Q 2419 698 2419 1203 
z
" transform="scale(0.015625)"/>
       </defs>
       <use xlink:href="#STIXGeneral-Regular-36" transform="translate(0 0.59375)"/>
       <use xlink:href="#STIXGeneral-Regular-30" transform="translate(49.999985 0.59375)"/>
      </g>
     </g>
    </g>
    <g id="ytick_5">
     <g id="line2d_19">
      <g>
       <use xlink:href="#m871a5b12db" x="38.2" y="57.01575" style="fill: #323034; stroke: #323034; stroke-width: 0.8"/>
      </g>
     </g>
     <g id="text_13">
      <!-- $\mathdefault{80}$ -->
      <g style="fill: #323034" transform="translate(15.2 62.4795) scale(0.16 -0.16)">
       <defs>
        <path id="STIXGeneral-Regular-38" d="M 2848 992 
Q 2848 499 2505 204 
Q 2163 -90 1587 -90 
Q 1050 -90 704 204 
Q 358 499 358 954 
Q 358 1293 524 1533 
Q 691 1773 1190 2125 
Q 710 2522 553 2765 
Q 397 3008 397 3328 
Q 397 3782 745 4054 
Q 1094 4326 1638 4326 
Q 2106 4326 2410 4060 
Q 2714 3795 2714 3411 
Q 2714 3059 2531 2848 
Q 2349 2637 1856 2374 
Q 2432 1990 2640 1689 
Q 2848 1389 2848 992 
z
M 2272 3411 
Q 2272 3744 2086 3945 
Q 1901 4147 1574 4147 
Q 1248 4147 1059 3977 
Q 870 3808 870 3513 
Q 870 3219 1059 2979 
Q 1248 2739 1670 2490 
Q 1997 2682 2134 2896 
Q 2272 3110 2272 3411 
z
M 1734 1741 
L 1357 1997 
Q 1075 1766 960 1545 
Q 845 1325 845 1011 
Q 845 576 1065 333 
Q 1286 90 1658 90 
Q 1971 90 2166 285 
Q 2362 480 2362 794 
Q 2362 1082 2214 1299 
Q 2067 1517 1734 1741 
z
" transform="scale(0.015625)"/>
       </defs>
       <use xlink:href="#STIXGeneral-Regular-38" transform="translate(0 0.40625)"/>
       <use xlink:href="#STIXGeneral-Regular-30" transform="translate(49.999985 0.40625)"/>
      </g>
     </g>
    </g>
    <g id="ytick_6">
     <g id="line2d_20">
      <g>
       <use xlink:href="#m871a5b12db" x="38.2" y="12.66375" style="fill: #323034; stroke: #323034; stroke-width: 0.8"/>
      </g>
     </g>
     <g id="text_14">
      <!-- $\mathdefault{100}$ -->
      <g style="fill: #323034" transform="translate(7.2 18.1275) scale(0.16 -0.16)">
       <use xlink:href="#STIXGeneral-Regular-31" transform="translate(0 0.40625)"/>
       <use xlink:href="#STIXGeneral-Regular-30" transform="translate(49.999985 0.40625)"/>
       <use xlink:href="#STIXGeneral-Regular-30" transform="translate(99.999969 0.40625)"/>
      </g>
     </g>
    </g>
   </g>
   <g id="line2d_21">
    <path d="M 38.2 181.20135 
L 40.84142 178.98375 
L 56.689941 178.98375 
L 61.972781 174.54855 
L 64.614201 174.54855 
L 69.897041 170.11335 
L 75.179882 170.11335 
L 77.821302 167.89575 
L 80.462722 163.46055 
L 83.104142 161.24295 
L 85.745562 161.24295 
L 91.028402 165.67815 
L 96.311243 161.24295 
L 98.952663 161.24295 
L 101.594083 163.46055 
L 104.235503 163.46055 
L 109.518343 159.02535 
L 114.801183 163.46055 
L 120.084024 163.46055 
L 133.291124 174.54855 
L 135.932544 174.54855 
L 138.573964 172.33095 
L 141.215385 172.33095 
L 143.856805 170.11335 
L 151.781065 170.11335 
L 157.063905 165.67815 
L 162.346746 165.67815 
L 164.988166 170.11335 
L 167.629586 163.46055 
L 170.271006 161.24295 
L 172.912426 161.24295 
L 175.553846 165.67815 
L 178.195266 165.67815 
L 180.836686 163.46055 
L 186.119527 167.89575 
L 188.760947 172.33095 
L 194.043787 159.02535 
L 196.685207 150.15495 
L 199.326627 152.37255 
L 201.968047 156.80775 
L 207.250888 156.80775 
L 209.892308 154.59015 
L 212.533728 156.80775 
L 215.175148 152.37255 
L 217.816568 154.59015 
L 220.457988 152.37255 
L 223.099408 152.37255 
L 225.740828 150.15495 
L 228.382249 145.71975 
L 231.023669 145.71975 
L 233.665089 143.50215 
L 236.306509 147.93735 
L 238.947929 143.50215 
L 241.589349 141.28455 
L 246.872189 141.28455 
L 249.513609 134.63175 
L 252.15503 132.41415 
L 254.79645 134.63175 
L 257.43787 145.71975 
L 260.07929 150.15495 
L 262.72071 152.37255 
L 265.36213 152.37255 
L 268.00355 147.93735 
L 270.64497 147.93735 
L 278.569231 141.28455 
L 281.210651 143.50215 
L 286.493491 139.06695 
L 289.134911 141.28455 
L 291.776331 141.28455 
L 294.417751 145.71975 
L 297.059172 139.06695 
L 299.700592 136.84935 
L 302.342012 136.84935 
L 312.907692 127.97895 
L 315.549112 127.97895 
L 318.190533 132.41415 
L 323.473373 127.97895 
L 326.114793 123.54375 
L 328.756213 121.32615 
L 331.397633 116.89095 
L 339.321893 130.19655 
L 341.963314 132.41415 
L 344.604734 139.06695 
L 347.246154 141.28455 
L 349.887574 141.28455 
L 352.528994 139.06695 
L 355.170414 139.06695 
L 357.811834 143.50215 
L 360.453254 143.50215 
L 363.094675 136.84935 
L 365.736095 139.06695 
L 368.377515 139.06695 
L 371.018935 163.46055 
L 373.660355 185.63655 
L 376.301775 205.59495 
L 378.943195 198.94215 
L 381.584615 194.50695 
L 384.226036 185.63655 
L 386.867456 178.98375 
L 389.508876 170.11335 
L 392.150296 163.46055 
L 394.791716 154.59015 
L 400.074556 145.71975 
L 405.357396 132.41415 
L 407.998817 127.97895 
L 410.640237 112.45575 
L 413.281657 105.80295 
L 415.923077 92.49735 
L 418.564497 90.27975 
L 421.205917 83.62695 
L 423.847337 81.40935 
L 426.488757 63.66855 
L 431.771598 63.66855 
L 434.413018 59.23335 
L 437.054438 61.45095 
L 439.695858 59.23335 
L 442.337278 79.19175 
L 444.978698 88.06215 
L 447.620118 92.49735 
L 450.261538 101.36775 
L 452.902959 101.36775 
L 455.544379 112.45575 
L 458.185799 114.67335 
L 460.827219 121.32615 
L 463.468639 116.89095 
L 468.751479 121.32615 
L 471.392899 130.19655 
L 474.03432 127.97895 
L 476.67574 132.41415 
L 479.31716 132.41415 
L 481.95858 141.28455 
L 484.6 139.06695 
L 484.6 139.06695 
" clip-path="url(#p2ad74ac23d)" style="fill: none; stroke: #bc80bd; stroke-width: 3; stroke-linecap: square"/>
   </g>
   <g id="line2d_22">
    <path d="M 38.2 170.11335 
L 43.48284 170.11335 
L 46.12426 167.89575 
L 48.76568 163.46055 
L 51.407101 161.24295 
L 54.048521 161.24295 
L 59.331361 165.67815 
L 64.614201 161.24295 
L 67.255621 161.24295 
L 69.897041 163.46055 
L 72.538462 163.46055 
L 77.821302 159.02535 
L 83.104142 163.46055 
L 88.386982 163.46055 
L 101.594083 174.54855 
L 104.235503 174.54855 
L 106.876923 172.33095 
L 109.518343 172.33095 
L 112.159763 170.11335 
L 120.084024 170.11335 
L 125.366864 165.67815 
L 130.649704 165.67815 
L 133.291124 170.11335 
L 135.932544 163.46055 
L 138.573964 161.24295 
L 141.215385 161.24295 
L 143.856805 165.67815 
L 146.498225 165.67815 
L 149.139645 163.46055 
L 154.422485 167.89575 
L 157.063905 172.33095 
L 162.346746 159.02535 
L 164.988166 150.15495 
L 167.629586 152.37255 
L 170.271006 156.80775 
L 175.553846 156.80775 
L 178.195266 154.59015 
L 180.836686 156.80775 
L 183.478107 152.37255 
L 186.119527 154.59015 
L 188.760947 152.37255 
L 191.402367 152.37255 
L 194.043787 150.15495 
L 196.685207 145.71975 
L 199.326627 145.71975 
L 201.968047 143.50215 
L 204.609467 147.93735 
L 207.250888 143.50215 
L 209.892308 141.28455 
L 215.175148 141.28455 
L 217.816568 134.63175 
L 220.457988 132.41415 
L 223.099408 134.63175 
L 225.740828 145.71975 
L 228.382249 150.15495 
L 231.023669 152.37255 
L 233.665089 152.37255 
L 236.306509 147.93735 
L 238.947929 147.93735 
L 246.872189 141.28455 
L 249.513609 143.50215 
L 254.79645 139.06695 
L 257.43787 141.28455 
L 260.07929 141.28455 
L 262.72071 145.71975 
L 265.36213 139.06695 
L 268.00355 136.84935 
L 270.64497 136.84935 
L 281.210651 127.97895 
L 283.852071 127.97895 
L 286.493491 132.41415 
L 291.776331 127.97895 
L 294.417751 123.54375 
L 297.059172 121.32615 
L 299.700592 116.89095 
L 307.624852 130.19655 
L 310.266272 132.41415 
L 312.907692 139.06695 
L 315.549112 141.28455 
L 318.190533 141.28455 
L 320.831953 139.06695 
L 323.473373 139.06695 
L 326.114793 143.50215 
L 328.756213 143.50215 
L 331.397633 136.84935 
L 334.039053 139.06695 
L 336.680473 139.06695 
L 339.321893 163.46055 
L 341.963314 185.63655 
L 344.604734 205.59495 
L 347.246154 198.94215 
L 349.887574 194.50695 
L 352.528994 185.63655 
L 355.170414 178.98375 
L 357.811834 170.11335 
L 360.453254 163.46055 
L 363.094675 154.59015 
L 368.377515 145.71975 
L 373.660355 132.41415 
L 376.301775 127.97895 
L 378.943195 112.45575 
L 381.584615 105.80295 
L 384.226036 92.49735 
L 386.867456 90.27975 
L 389.508876 83.62695 
L 392.150296 81.40935 
L 394.791716 63.66855 
L 400.074556 63.66855 
L 402.715976 59.23335 
L 405.357396 61.45095 
L 407.998817 59.23335 
L 410.640237 79.19175 
L 413.281657 88.06215 
L 415.923077 92.49735 
L 418.564497 101.36775 
L 421.205917 101.36775 
L 423.847337 112.45575 
L 426.488757 114.67335 
L 429.130178 121.32615 
L 431.771598 116.89095 
L 437.054438 121.32615 
L 439.695858 130.19655 
L 442.337278 127.97895 
L 444.978698 132.41415 
L 447.620118 132.41415 
L 450.261538 141.28455 
L 452.902959 139.06695 
L 452.902959 139.06695 
" clip-path="url(#p2ad74ac23d)" style="fill: none; stroke: #fb8072; stroke-width: 3; stroke-linecap: square"/>
   </g>
   <g id="line2d_23">
    <path d="M 38.2 185.63655 
L 40.84142 185.63655 
L 48.76568 178.98375 
L 64.614201 178.98375 
L 69.897041 174.54855 
L 72.538462 174.54855 
L 77.821302 170.11335 
L 83.104142 170.11335 
L 85.745562 167.89575 
L 88.386982 163.46055 
L 91.028402 161.24295 
L 93.669822 161.24295 
L 98.952663 165.67815 
L 104.235503 161.24295 
L 106.876923 161.24295 
L 109.518343 163.46055 
L 112.159763 163.46055 
L 117.442604 159.02535 
L 122.725444 163.46055 
L 128.008284 163.46055 
L 141.215385 174.54855 
L 143.856805 174.54855 
L 146.498225 172.33095 
L 149.139645 172.33095 
L 151.781065 170.11335 
L 159.705325 170.11335 
L 164.988166 165.67815 
L 170.271006 165.67815 
L 172.912426 170.11335 
L 175.553846 163.46055 
L 178.195266 161.24295 
L 180.836686 161.24295 
L 183.478107 165.67815 
L 186.119527 165.67815 
L 188.760947 163.46055 
L 194.043787 167.89575 
L 196.685207 172.33095 
L 201.968047 159.02535 
L 204.609467 150.15495 
L 207.250888 152.37255 
L 209.892308 156.80775 
L 215.175148 156.80775 
L 217.816568 154.59015 
L 220.457988 156.80775 
L 223.099408 152.37255 
L 225.740828 154.59015 
L 228.382249 152.37255 
L 231.023669 152.37255 
L 233.665089 150.15495 
L 236.306509 145.71975 
L 238.947929 145.71975 
L 241.589349 143.50215 
L 244.230769 147.93735 
L 246.872189 143.50215 
L 249.513609 141.28455 
L 254.79645 141.28455 
L 257.43787 134.63175 
L 260.07929 132.41415 
L 262.72071 134.63175 
L 265.36213 145.71975 
L 268.00355 150.15495 
L 270.64497 152.37255 
L 273.286391 152.37255 
L 275.927811 147.93735 
L 278.569231 147.93735 
L 286.493491 141.28455 
L 289.134911 143.50215 
L 294.417751 139.06695 
L 297.059172 141.28455 
L 299.700592 141.28455 
L 302.342012 145.71975 
L 304.983432 139.06695 
L 307.624852 136.84935 
L 310.266272 136.84935 
L 320.831953 127.97895 
L 323.473373 127.97895 
L 326.114793 132.41415 
L 331.397633 127.97895 
L 334.039053 123.54375 
L 336.680473 121.32615 
L 339.321893 116.89095 
L 347.246154 130.19655 
L 349.887574 132.41415 
L 352.528994 139.06695 
L 355.170414 141.28455 
L 357.811834 141.28455 
L 360.453254 139.06695 
L 363.094675 139.06695 
L 365.736095 143.50215 
L 368.377515 143.50215 
L 371.018935 136.84935 
L 373.660355 139.06695 
L 376.301775 139.06695 
L 378.943195 163.46055 
L 381.584615 185.63655 
L 384.226036 205.59495 
L 386.867456 198.94215 
L 389.508876 194.50695 
L 392.150296 185.63655 
L 394.791716 178.98375 
L 397.433136 170.11335 
L 400.074556 163.46055 
L 402.715976 154.59015 
L 407.998817 145.71975 
L 413.281657 132.41415 
L 415.923077 127.97895 
L 418.564497 112.45575 
L 421.205917 105.80295 
L 423.847337 92.49735 
L 426.488757 90.27975 
L 429.130178 83.62695 
L 431.771598 81.40935 
L 434.413018 63.66855 
L 439.695858 63.66855 
L 442.337278 59.23335 
L 444.978698 61.45095 
L 447.620118 59.23335 
L 450.261538 79.19175 
L 452.902959 88.06215 
L 455.544379 92.49735 
L 458.185799 101.36775 
L 460.827219 101.36775 
L 463.468639 112.45575 
L 466.110059 114.67335 
L 468.751479 121.32615 
L 471.392899 116.89095 
L 476.67574 121.32615 
L 479.31716 130.19655 
L 481.95858 127.97895 
L 484.6 132.41415 
L 484.6 132.41415 
" clip-path="url(#p2ad74ac23d)" style="fill: none; stroke: #b3de69; stroke-width: 3; stroke-linecap: square"/>
   </g>
   <g id="patch_3">
    <path d="M 38.2 234.42375 
L 38.2 12.66375 
" style="fill: none; stroke: #000000; stroke-width: 0.6; stroke-linejoin: miter; stroke-linecap: square"/>
   </g>
   <g id="patch_4">
    <path d="M 38.2 234.42375 
L 484.6 234.42375 
" style="fill: none; stroke: #000000; stroke-width: 0.6; stroke-linejoin: miter; stroke-linecap: square"/>
   </g>
   <g id="legend_1">
    <g id="patch_5">
     <path d="M 46.6 66.088125 
L 213.836875 66.088125 
Q 216.236875 66.088125 216.236875 63.688125 
L 216.236875 21.06375 
Q 216.236875 18.66375 213.836875 18.66375 
L 46.6 18.66375 
Q 44.2 18.66375 44.2 21.06375 
L 44.2 63.688125 
Q 44.2 66.088125 46.6 66.088125 
z
" style="fill: #ffffff; opacity: 0.8; stroke: #e6e6e6; stroke-width: 0.8; stroke-linejoin: miter"/>
    </g>
    <g id="line2d_24">
     <path d="M 46.6 25.26375 
L 58.6 25.26375 
L 70.6 25.26375 
" style="fill: none; stroke: #bc80bd; stroke-width: 3; stroke-linecap: square"/>
    </g>
    <g id="text_15">
     <!-- Vacancies (ICT), thousands -->
     <g style="fill: #323034" transform="translate(80.2 29.46375) scale(0.12 -0.12)">
      <defs>
       <path id="STIXGeneral-Regular-56" d="M 4461 4237 
L 4461 4115 
Q 4262 4109 4134 3990 
Q 4006 3872 3872 3533 
L 2451 -70 
L 2355 -70 
L 794 3411 
Q 589 3866 467 3987 
Q 346 4109 102 4115 
L 102 4237 
L 1798 4237 
L 1798 4115 
L 1619 4102 
Q 1331 4083 1331 3904 
Q 1331 3776 1581 3219 
L 2554 1030 
L 3494 3392 
Q 3616 3699 3616 3853 
Q 3616 3898 3606 3933 
Q 3597 3968 3584 3993 
Q 3571 4019 3536 4038 
Q 3501 4058 3481 4067 
Q 3462 4077 3411 4086 
Q 3360 4096 3337 4099 
Q 3315 4102 3248 4108 
Q 3181 4115 3155 4115 
L 3155 4237 
L 4461 4237 
z
" transform="scale(0.015625)"/>
       <path id="STIXGeneral-Regular-63" d="M 2547 998 
L 2637 941 
Q 2362 403 2112 205 
Q 1786 -64 1376 -64 
Q 845 -64 502 336 
Q 160 736 160 1357 
Q 160 2170 698 2618 
Q 1094 2944 1562 2944 
Q 1965 2944 2256 2749 
Q 2547 2554 2547 2285 
Q 2547 2176 2457 2096 
Q 2368 2016 2246 2016 
Q 2022 2016 1939 2310 
L 1901 2451 
Q 1850 2630 1773 2694 
Q 1696 2758 1523 2758 
Q 1133 2758 893 2451 
Q 653 2144 653 1645 
Q 653 1094 928 745 
Q 1203 397 1645 397 
Q 1920 397 2118 528 
Q 2317 659 2547 998 
z
" transform="scale(0.015625)"/>
       <path id="STIXGeneral-Regular-6e" d="M 3104 0 
L 1773 0 
L 1779 96 
Q 2016 115 2096 233 
Q 2176 352 2176 672 
L 2176 1946 
Q 2176 2592 1709 2592 
Q 1549 2592 1408 2515 
Q 1267 2438 1050 2227 
L 1050 461 
Q 1050 269 1136 192 
Q 1222 115 1466 96 
L 1466 0 
L 115 0 
L 115 96 
Q 358 115 435 214 
Q 512 314 512 602 
L 512 2157 
Q 512 2394 467 2483 
Q 422 2573 288 2573 
Q 160 2573 102 2547 
L 102 2656 
Q 550 2784 979 2944 
L 1030 2925 
L 1030 2426 
L 1037 2426 
Q 1491 2944 1958 2944 
Q 2323 2944 2518 2688 
Q 2714 2432 2714 1958 
L 2714 544 
Q 2714 288 2790 205 
Q 2867 122 3104 96 
L 3104 0 
z
" transform="scale(0.015625)"/>
       <path id="STIXGeneral-Regular-69" d="M 1152 4045 
Q 1152 3904 1056 3811 
Q 960 3718 819 3718 
Q 685 3718 592 3811 
Q 499 3904 499 4045 
Q 499 4179 595 4275 
Q 691 4371 826 4371 
Q 966 4371 1059 4275 
Q 1152 4179 1152 4045 
z
M 1619 0 
L 102 0 
L 102 96 
Q 435 115 521 211 
Q 608 307 608 666 
L 608 2118 
Q 608 2342 563 2432 
Q 518 2522 397 2522 
Q 243 2522 128 2490 
L 128 2592 
L 1120 2944 
L 1146 2918 
L 1146 672 
Q 1146 314 1226 218 
Q 1306 122 1619 96 
L 1619 0 
z
" transform="scale(0.015625)"/>
       <path id="STIXGeneral-Regular-73" d="M 998 1926 
L 1664 1523 
Q 1984 1331 2105 1164 
Q 2227 998 2227 736 
Q 2227 416 1961 176 
Q 1696 -64 1331 -64 
Q 1030 -64 864 -6 
Q 691 51 570 51 
Q 461 51 416 -26 
L 333 -26 
L 333 979 
L 435 979 
Q 538 512 730 294 
Q 922 77 1248 77 
Q 1485 77 1632 211 
Q 1779 346 1779 550 
Q 1779 845 1440 1030 
L 1094 1222 
Q 326 1651 326 2150 
Q 326 2522 566 2730 
Q 806 2938 1210 2938 
Q 1491 2938 1638 2867 
Q 1754 2816 1818 2816 
Q 1862 2816 1920 2880 
L 1990 2880 
L 2022 2010 
L 1926 2010 
Q 1818 2445 1654 2621 
Q 1491 2797 1203 2797 
Q 986 2797 854 2688 
Q 723 2579 723 2362 
Q 723 2253 796 2128 
Q 870 2003 998 1926 
z
" transform="scale(0.015625)"/>
       <path id="STIXGeneral-Regular-20" transform="scale(0.015625)"/>
       <path id="STIXGeneral-Regular-28" d="M 1946 -1030 
L 1869 -1133 
Q 1126 -710 716 32 
Q 307 774 307 1613 
Q 307 3386 1888 4326 
L 1946 4224 
Q 1293 3667 1075 3126 
Q 858 2586 858 1632 
Q 858 685 1082 96 
Q 1306 -493 1946 -1030 
z
" transform="scale(0.015625)"/>
       <path id="STIXGeneral-Regular-49" d="M 2016 0 
L 115 0 
L 115 122 
Q 518 134 627 240 
Q 736 346 736 717 
L 736 3526 
Q 736 3898 633 3994 
Q 531 4090 115 4115 
L 115 4237 
L 2016 4237 
L 2016 4115 
Q 1613 4096 1501 3993 
Q 1389 3891 1389 3526 
L 1389 717 
Q 1389 358 1504 246 
Q 1619 134 2016 122 
L 2016 0 
z
" transform="scale(0.015625)"/>
       <path id="STIXGeneral-Regular-43" d="M 3930 838 
L 4051 723 
Q 3482 -90 2304 -90 
Q 1376 -90 794 480 
Q 179 1082 179 2080 
Q 179 3014 755 3661 
Q 1357 4326 2310 4326 
Q 2720 4326 3072 4230 
Q 3475 4115 3514 4115 
Q 3725 4115 3782 4326 
L 3910 4326 
L 3968 2874 
L 3821 2874 
Q 3718 3334 3488 3584 
Q 3034 4070 2458 4070 
Q 1747 4070 1334 3548 
Q 922 3027 922 2182 
Q 922 1152 1382 653 
Q 1811 192 2522 192 
Q 2944 192 3251 339 
Q 3558 486 3930 838 
z
" transform="scale(0.015625)"/>
       <path id="STIXGeneral-Regular-54" d="M 3795 3149 
L 3642 3149 
Q 3539 3674 3353 3821 
Q 3168 3968 2656 3968 
L 2278 3968 
L 2278 710 
Q 2278 346 2387 243 
Q 2496 141 2893 122 
L 2893 0 
L 1024 0 
L 1024 122 
Q 1427 147 1526 256 
Q 1626 365 1626 787 
L 1626 3968 
L 1242 3968 
Q 723 3968 540 3817 
Q 358 3667 262 3149 
L 109 3149 
L 154 4237 
L 3750 4237 
L 3795 3149 
z
" transform="scale(0.015625)"/>
       <path id="STIXGeneral-Regular-29" d="M 186 4224 
L 262 4326 
Q 992 3891 1408 3148 
Q 1824 2406 1824 1581 
Q 1824 -166 243 -1133 
L 186 -1030 
Q 845 -486 1059 54 
Q 1274 595 1274 1562 
Q 1274 2534 1059 3120 
Q 845 3706 186 4224 
z
" transform="scale(0.015625)"/>
       <path id="STIXGeneral-Regular-2c" d="M 531 -902 
L 467 -781 
Q 998 -422 998 -96 
Q 998 -13 909 -13 
Q 883 -13 822 -25 
Q 762 -38 723 -38 
Q 352 -38 352 288 
Q 352 454 457 553 
Q 563 653 736 653 
Q 954 653 1101 496 
Q 1248 339 1248 96 
Q 1248 -198 1053 -473 
Q 858 -749 531 -902 
z
" transform="scale(0.015625)"/>
       <path id="STIXGeneral-Regular-68" d="M 3117 0 
L 1760 0 
L 1760 96 
Q 2042 128 2118 224 
Q 2195 320 2195 653 
L 2195 1920 
Q 2195 2598 1722 2598 
Q 1530 2598 1370 2508 
Q 1210 2419 1005 2195 
L 1005 653 
Q 1005 320 1081 224 
Q 1158 128 1440 96 
L 1440 0 
L 58 0 
L 58 96 
Q 333 134 400 224 
Q 467 314 467 653 
L 467 3667 
Q 467 3872 406 3933 
Q 346 3994 141 3994 
Q 83 3994 64 3987 
L 64 4090 
L 237 4141 
Q 730 4288 973 4371 
L 1005 4352 
L 1005 2406 
Q 1229 2694 1446 2819 
Q 1664 2944 1946 2944 
Q 2733 2944 2733 1926 
L 2733 653 
Q 2733 320 2793 233 
Q 2854 147 3117 96 
L 3117 0 
z
" transform="scale(0.015625)"/>
       <path id="STIXGeneral-Regular-6f" d="M 3008 1478 
Q 3008 806 2608 371 
Q 2208 -64 1568 -64 
Q 979 -64 582 368 
Q 186 800 186 1459 
Q 186 2125 582 2534 
Q 979 2944 1626 2944 
Q 2221 2944 2614 2537 
Q 3008 2131 3008 1478 
z
M 2432 1306 
Q 2432 2035 2112 2445 
Q 1856 2765 1504 2765 
Q 1171 2765 966 2493 
Q 762 2221 762 1747 
Q 762 928 1101 435 
Q 1318 115 1677 115 
Q 2029 115 2230 432 
Q 2432 749 2432 1306 
z
" transform="scale(0.015625)"/>
       <path id="STIXGeneral-Regular-75" d="M 3072 320 
L 3072 230 
Q 2573 96 2195 -58 
L 2163 -38 
L 2163 486 
L 2150 486 
Q 1747 -64 1235 -64 
Q 870 -64 662 160 
Q 454 384 454 755 
L 454 2362 
Q 454 2598 371 2688 
Q 288 2778 58 2790 
L 58 2880 
L 992 2880 
L 992 813 
Q 992 595 1123 451 
Q 1254 307 1446 307 
Q 1760 307 1984 506 
Q 2067 582 2099 649 
Q 2131 717 2131 877 
L 2131 2355 
Q 2131 2605 2041 2678 
Q 1952 2752 1658 2771 
L 1658 2880 
L 2669 2880 
L 2669 685 
Q 2669 461 2742 390 
Q 2816 320 3034 320 
L 3072 320 
z
" transform="scale(0.015625)"/>
      </defs>
      <use xlink:href="#STIXGeneral-Regular-56"/>
      <use xlink:href="#STIXGeneral-Regular-61" x="72.199982"/>
      <use xlink:href="#STIXGeneral-Regular-63" x="116.599976"/>
      <use xlink:href="#STIXGeneral-Regular-61" x="160.999969"/>
      <use xlink:href="#STIXGeneral-Regular-6e" x="205.399963"/>
      <use xlink:href="#STIXGeneral-Regular-63" x="255.399948"/>
      <use xlink:href="#STIXGeneral-Regular-69" x="299.799942"/>
      <use xlink:href="#STIXGeneral-Regular-65" x="327.59993"/>
      <use xlink:href="#STIXGeneral-Regular-73" x="371.999924"/>
      <use xlink:href="#STIXGeneral-Regular-20" x="410.899918"/>
      <use xlink:href="#STIXGeneral-Regular-28" x="435.899902"/>
      <use xlink:href="#STIXGeneral-Regular-49" x="469.19989"/>
      <use xlink:href="#STIXGeneral-Regular-43" x="502.499878"/>
      <use xlink:href="#STIXGeneral-Regular-54" x="569.199875"/>
      <use xlink:href="#STIXGeneral-Regular-29" x="630.299866"/>
      <use xlink:href="#STIXGeneral-Regular-2c" x="663.599854"/>
      <use xlink:href="#STIXGeneral-Regular-20" x="688.599838"/>
      <use xlink:href="#STIXGeneral-Regular-74" x="713.599823"/>
      <use xlink:href="#STIXGeneral-Regular-68" x="741.399811"/>
      <use xlink:href="#STIXGeneral-Regular-6f" x="791.399796"/>
      <use xlink:href="#STIXGeneral-Regular-75" x="841.39978"/>
      <use xlink:href="#STIXGeneral-Regular-73" x="891.399765"/>
      <use xlink:href="#STIXGeneral-Regular-61" x="930.299759"/>
      <use xlink:href="#STIXGeneral-Regular-6e" x="974.699753"/>
      <use xlink:href="#STIXGeneral-Regular-64" x="1024.699738"/>
      <use xlink:href="#STIXGeneral-Regular-73" x="1074.699722"/>
     </g>
    </g>
    <g id="line2d_25">
     <path d="M 46.6 41.068125 
L 58.6 41.068125 
L 70.6 41.068125 
" style="fill: none; stroke: #fb8072; stroke-width: 3; stroke-linecap: square"/>
    </g>
    <g id="text_16">
     <!-- lead (12 months) -->
     <g style="fill: #323034" transform="translate(80.2 45.268125) scale(0.12 -0.12)">
      <defs>
       <path id="STIXGeneral-Regular-6c" d="M 1645 0 
L 134 0 
L 134 96 
Q 435 122 531 221 
Q 627 320 627 589 
L 627 3590 
Q 627 3821 569 3910 
Q 512 4000 358 4000 
Q 224 4000 122 3987 
L 122 4090 
Q 730 4237 1133 4371 
L 1165 4346 
L 1165 557 
Q 1165 288 1254 201 
Q 1344 115 1645 96 
L 1645 0 
z
" transform="scale(0.015625)"/>
       <path id="STIXGeneral-Regular-6d" d="M 4960 0 
L 3565 0 
L 3565 96 
Q 3834 122 3907 208 
Q 3981 294 3981 576 
L 3981 1894 
Q 3981 2278 3869 2444 
Q 3757 2611 3488 2611 
Q 3264 2611 3107 2521 
Q 2950 2432 2803 2221 
L 2803 608 
Q 2803 301 2896 201 
Q 2989 102 3264 96 
L 3264 0 
L 1830 0 
L 1830 96 
Q 2112 115 2189 188 
Q 2266 262 2266 550 
L 2266 1901 
Q 2266 2611 1850 2611 
Q 1670 2611 1468 2531 
Q 1267 2451 1171 2336 
Q 1088 2240 1088 2227 
L 1088 448 
Q 1088 243 1177 176 
Q 1267 109 1523 96 
L 1523 0 
L 102 0 
L 102 96 
Q 371 102 460 195 
Q 550 288 550 563 
L 550 2150 
Q 550 2387 499 2480 
Q 448 2573 326 2573 
Q 230 2573 122 2547 
L 122 2656 
Q 557 2778 1011 2944 
L 1062 2925 
L 1062 2451 
L 1075 2451 
Q 1363 2752 1584 2848 
Q 1805 2944 2054 2944 
Q 2560 2944 2733 2406 
Q 3232 2944 3776 2944 
Q 4518 2944 4518 1792 
L 4518 493 
Q 4518 282 4582 202 
Q 4646 122 4794 109 
L 4960 96 
L 4960 0 
z
" transform="scale(0.015625)"/>
      </defs>
      <use xlink:href="#STIXGeneral-Regular-6c"/>
      <use xlink:href="#STIXGeneral-Regular-65" x="27.799988"/>
      <use xlink:href="#STIXGeneral-Regular-61" x="72.199982"/>
      <use xlink:href="#STIXGeneral-Regular-64" x="116.599976"/>
      <use xlink:href="#STIXGeneral-Regular-20" x="166.59996"/>
      <use xlink:href="#STIXGeneral-Regular-28" x="191.599945"/>
      <use xlink:href="#STIXGeneral-Regular-31" x="224.899933"/>
      <use xlink:href="#STIXGeneral-Regular-32" x="274.899918"/>
      <use xlink:href="#STIXGeneral-Regular-20" x="324.899902"/>
      <use xlink:href="#STIXGeneral-Regular-6d" x="349.899887"/>
      <use xlink:href="#STIXGeneral-Regular-6f" x="427.699875"/>
      <use xlink:href="#STIXGeneral-Regular-6e" x="477.69986"/>
      <use xlink:href="#STIXGeneral-Regular-74" x="527.699844"/>
      <use xlink:href="#STIXGeneral-Regular-68" x="555.499832"/>
      <use xlink:href="#STIXGeneral-Regular-73" x="605.499817"/>
      <use xlink:href="#STIXGeneral-Regular-29" x="644.399811"/>
     </g>
    </g>
    <g id="line2d_26">
     <path d="M 46.6 56.8725 
L 58.6 56.8725 
L 70.6 56.8725 
" style="fill: none; stroke: #b3de69; stroke-width: 3; stroke-linecap: square"/>
    </g>
    <g id="text_17">
     <!-- lag (3 months) -->
     <g style="fill: #323034" transform="translate(80.2 61.0725) scale(0.12 -0.12)">
      <defs>
       <path id="STIXGeneral-Regular-67" d="M 3008 2483 
L 2477 2483 
Q 2598 2208 2598 1946 
Q 2598 1453 2265 1203 
Q 1933 954 1600 954 
Q 1530 954 1357 973 
L 1235 986 
Q 1107 947 979 812 
Q 851 678 851 582 
Q 851 435 1350 410 
L 2176 371 
Q 2528 358 2739 172 
Q 2950 -13 2950 -314 
Q 2950 -685 2566 -986 
Q 2035 -1395 1286 -1395 
Q 826 -1395 502 -1212 
Q 179 -1030 179 -774 
Q 179 -595 320 -419 
Q 461 -243 806 6 
Q 602 102 534 172 
Q 467 243 467 346 
Q 467 531 762 787 
Q 909 915 1037 1043 
Q 717 1203 579 1401 
Q 442 1600 442 1901 
Q 442 2336 752 2640 
Q 1062 2944 1510 2944 
Q 1766 2944 2022 2848 
L 2163 2797 
Q 2349 2733 2515 2733 
L 3008 2733 
L 3008 2483 
z
M 973 2163 
L 973 2144 
Q 973 1683 1155 1398 
Q 1338 1114 1632 1114 
Q 1850 1114 1978 1270 
Q 2106 1427 2106 1690 
Q 2106 2112 1914 2464 
Q 1754 2765 1446 2765 
Q 1222 2765 1097 2605 
Q 973 2445 973 2163 
z
M 2771 -410 
Q 2771 -230 2595 -163 
Q 2419 -96 1978 -96 
Q 1344 -96 941 -13 
Q 749 -243 688 -348 
Q 627 -454 627 -563 
Q 627 -774 880 -902 
Q 1133 -1030 1555 -1030 
Q 2099 -1030 2435 -860 
Q 2771 -691 2771 -410 
z
" transform="scale(0.015625)"/>
      </defs>
      <use xlink:href="#STIXGeneral-Regular-6c"/>
      <use xlink:href="#STIXGeneral-Regular-61" x="27.799988"/>
      <use xlink:href="#STIXGeneral-Regular-67" x="72.199982"/>
      <use xlink:href="#STIXGeneral-Regular-20" x="122.199966"/>
      <use xlink:href="#STIXGeneral-Regular-28" x="147.199951"/>
      <use xlink:href="#STIXGeneral-Regular-33" x="180.499939"/>
      <use xlink:href="#STIXGeneral-Regular-20" x="230.499924"/>
      <use xlink:href="#STIXGeneral-Regular-6d" x="255.499908"/>
      <use xlink:href="#STIXGeneral-Regular-6f" x="333.299896"/>
      <use xlink:href="#STIXGeneral-Regular-6e" x="383.299881"/>
      <use xlink:href="#STIXGeneral-Regular-74" x="433.299866"/>
      <use xlink:href="#STIXGeneral-Regular-68" x="461.099854"/>
      <use xlink:href="#STIXGeneral-Regular-73" x="511.099838"/>
      <use xlink:href="#STIXGeneral-Regular-29" x="549.999832"/>
     </g>
    </g>
   </g>
  </g>
 </g>
 <defs>
  <clipPath id="p2ad74ac23d">
   <rect x="38.2" y="12.66375" width="446.4" height="221.76"/>
  </clipPath>
 </defs>
</svg>