<?xml version="1.0" encoding="utf-8" standalone="no"?>
<!DOCTYPE svg PUBLIC "-//W3C//DTD SVG 1.1//EN"
  "http://www.w3.org/Graphics/SVG/1.1/DTD/svg11.dtd">
<svg xmlns:xlink="http://www.w3.org/1999/xlink" width="285.3pt" height="422.330625pt" viewBox="0 0 285.3 422.330625" xmlns="http://www.w3.org/2000/svg" version="1.1">
 <metadata>
  <rdf:RDF xmlns:dc="http://purl.org/dc/elements/1.1/" xmlns:cc="http://creativecommons.org/ns#" xmlns:rdf="http://www.w3.org/1999/02/22-rdf-syntax-ns#">
   <cc:Work>
    <dc:type rdf:resource="http://purl.org/dc/dcmitype/StillImage"/>
    <dc:date>2025-03-26T16:07:23.254214</dc:date>
    <dc:format>image/svg+xml</dc:format>
    <dc:creator>
     <cc:Agent>
      <dc:title>Matplotlib v3.10.0, https://matplotlib.org/</dc:title>
     </cc:Agent>
    </dc:creator>
   </cc:Work>
  </rdf:RDF>
 </metadata>
 <defs>
  <style type="text/css">*{stroke-linejoin: round; stroke-linecap: butt}</style>
 </defs>
 <g id="figure_1">
  <g id="patch_1">
   <path d="M 0 422.330625 
L 285.3 422.330625 
L 285.3 0 
L 0 0 
z
" style="fill: #ffffff"/>
  </g>
  <g id="axes_1">
   <g id="patch_2">
    <path d="M 110.7 400.32 
L 278.1 400.32 
L 278.1 67.68 
L 110.7 67.68 
z
" style="fill: #ffffff"/>
   </g>
   <g id="patch_3">
    <path d="M 8.1 7.2 
L 34.02 7.2 
L 34.02 15.84 
L 8.1 15.84 
z
" style="fill: #e3120b"/>
   </g>
   <g id="matplotlib.axis_1">
    <g id="xtick_1">
     <g id="line2d_1">
      <path d="M 110.7 400.32 
L 110.7 67.68 
" clip-path="url(#p212fd301fc)" style="fill: none; stroke: #758d99; stroke-opacity: 0.6; stroke-width: 0.8; stroke-linecap: square"/>
     </g>
     <g id="text_1">
      <!-- 0 -->
      <g style="fill: #323034" transform="translate(107.968906 62.918125) scale(0.11 -0.11)">
       <defs>
        <path id="Varta-Regular-30" d="M 1588 4275 
Q 2009 4275 2301 4026 
Q 2594 3778 2745 3295 
Q 2897 2813 2897 2119 
Q 2897 1422 2745 930 
Q 2594 438 2301 180 
Q 2009 -78 1588 -78 
Q 1166 -78 873 180 
Q 581 438 431 930 
Q 281 1422 281 2119 
Q 281 3166 615 3720 
Q 950 4275 1588 4275 
z
M 1588 3859 
Q 1200 3859 994 3432 
Q 788 3006 788 2119 
Q 788 1222 995 783 
Q 1203 344 1588 344 
Q 1972 344 2181 784 
Q 2391 1225 2391 2119 
Q 2391 3006 2183 3432 
Q 1975 3859 1588 3859 
z
" transform="scale(0.015625)"/>
       </defs>
       <use xlink:href="#Varta-Regular-30"/>
      </g>
     </g>
    </g>
    <g id="xtick_2">
     <g id="line2d_2">
      <path d="M 139.456222 400.32 
L 139.456222 67.68 
" clip-path="url(#p212fd301fc)" style="fill: none; stroke: #758d99; stroke-opacity: 0.6; stroke-width: 0.8; stroke-linecap: square"/>
     </g>
     <g id="text_2">
      <!-- 5 -->
      <g style="fill: #323034" transform="translate(136.725128 62.918125) scale(0.11 -0.11)">
       <defs>
        <path id="Varta-Regular-35" d="M 1447 353 
Q 1697 353 1903 478 
Q 2109 603 2228 831 
Q 2347 1059 2347 1353 
Q 2347 1638 2244 1858 
Q 2141 2078 1942 2201 
Q 1744 2325 1472 2325 
Q 1275 2325 1125 2267 
Q 975 2209 772 2078 
L 494 2256 
L 628 4213 
L 2666 4213 
L 2666 3763 
L 1084 3763 
L 972 2553 
Q 1131 2638 1278 2678 
Q 1425 2719 1603 2719 
Q 1963 2719 2250 2561 
Q 2538 2403 2705 2098 
Q 2872 1794 2872 1366 
Q 2872 925 2680 597 
Q 2488 269 2173 95 
Q 1859 -78 1497 -78 
Q 1050 -78 729 75 
Q 409 228 159 481 
L 416 822 
Q 634 603 875 478 
Q 1116 353 1447 353 
z
" transform="scale(0.015625)"/>
       </defs>
       <use xlink:href="#Varta-Regular-35"/>
      </g>
     </g>
    </g>
    <g id="xtick_3">
     <g id="line2d_3">
      <path d="M 168.212444 400.32 
L 168.212444 67.68 
" clip-path="url(#p212fd301fc)" style="fill: none; stroke: #758d99; stroke-opacity: 0.6; stroke-width: 0.8; stroke-linecap: square"/>
     </g>
     <g id="text_3">
      <!-- 10 -->
      <g style="fill: #323034" transform="translate(162.750256 62.918125) scale(0.11 -0.11)">
       <defs>
        <path id="Varta-Regular-31" d="M 1441 428 
L 1441 3609 
L 700 3575 
L 700 3909 
Q 1206 4000 1563 4213 
L 1963 4213 
L 1963 428 
L 2806 428 
L 2806 0 
L 506 0 
L 506 428 
L 1441 428 
z
" transform="scale(0.015625)"/>
       </defs>
       <use xlink:href="#Varta-Regular-31"/>
       <use xlink:href="#Varta-Regular-30" transform="translate(49.658203 0)"/>
      </g>
     </g>
    </g>
    <g id="xtick_4">
     <g id="line2d_4">
      <path d="M 196.968665 400.32 
L 196.968665 67.68 
" clip-path="url(#p212fd301fc)" style="fill: none; stroke: #758d99; stroke-opacity: 0.6; stroke-width: 0.8; stroke-linecap: square"/>
     </g>
     <g id="text_4">
      <!-- 15 -->
      <g style="fill: #323034" transform="translate(191.506478 62.918125) scale(0.11 -0.11)">
       <use xlink:href="#Varta-Regular-31"/>
       <use xlink:href="#Varta-Regular-35" transform="translate(49.658203 0)"/>
      </g>
     </g>
    </g>
    <g id="xtick_5">
     <g id="line2d_5">
      <path d="M 225.724887 400.32 
L 225.724887 67.68 
" clip-path="url(#p212fd301fc)" style="fill: none; stroke: #758d99; stroke-opacity: 0.6; stroke-width: 0.8; stroke-linecap: square"/>
     </g>
     <g id="text_5">
      <!-- 20 -->
      <g style="fill: #323034" transform="translate(220.2627 62.918125) scale(0.11 -0.11)">
       <defs>
        <path id="Varta-Regular-32" d="M 2178 3050 
Q 2178 3413 1978 3633 
Q 1778 3853 1394 3853 
Q 1150 3853 929 3726 
Q 709 3600 519 3378 
L 222 3678 
Q 491 3972 784 4123 
Q 1078 4275 1456 4275 
Q 1834 4275 2111 4129 
Q 2388 3984 2536 3715 
Q 2684 3447 2684 3084 
Q 2684 2706 2478 2287 
Q 2272 1869 1915 1423 
Q 1559 978 1016 409 
Q 1459 447 1700 447 
L 2891 447 
L 2891 0 
L 256 0 
L 256 309 
Q 913 963 1327 1447 
Q 1741 1931 1959 2329 
Q 2178 2728 2178 3050 
z
" transform="scale(0.015625)"/>
       </defs>
       <use xlink:href="#Varta-Regular-32"/>
       <use xlink:href="#Varta-Regular-30" transform="translate(49.658203 0)"/>
      </g>
     </g>
    </g>
   </g>
   <g id="matplotlib.axis_2">
    <g id="ytick_1">
     <g id="text_6">
      <!-- Italy -->
      <g style="fill: #323034" transform="translate(7.2 371.327077) scale(0.11 -0.11)">
       <defs>
        <path id="Varta-Regular-49" d="M 1088 4197 
L 1088 0 
L 556 0 
L 556 4197 
L 1088 4197 
z
" transform="scale(0.015625)"/>
        <path id="Varta-Regular-74" d="M 153 2684 
L 153 3078 
L 641 3109 
L 703 3981 
L 1141 3981 
L 1141 3109 
L 1981 3109 
L 1981 2684 
L 1141 2684 
L 1141 950 
Q 1141 650 1252 500 
Q 1363 350 1622 350 
Q 1753 350 1975 431 
L 2078 38 
Q 1719 -78 1500 -78 
Q 1028 -78 822 194 
Q 616 466 616 956 
L 616 2684 
L 153 2684 
z
" transform="scale(0.015625)"/>
        <path id="Varta-Regular-61" d="M 1634 2756 
Q 1372 2756 1123 2681 
Q 875 2606 684 2481 
L 478 2838 
Q 713 2988 1039 3088 
Q 1366 3188 1719 3188 
Q 2278 3188 2542 2861 
Q 2806 2534 2806 1906 
L 2806 0 
L 2378 0 
L 2331 372 
L 2319 372 
Q 2125 213 1994 125 
Q 1863 38 1695 -20 
Q 1528 -78 1319 -78 
Q 1041 -78 827 28 
Q 613 134 492 336 
Q 372 538 372 813 
Q 372 1334 837 1629 
Q 1303 1925 2288 1972 
Q 2288 2353 2141 2554 
Q 1994 2756 1634 2756 
z
M 2288 759 
L 2288 1628 
Q 1541 1597 1214 1384 
Q 888 1172 888 841 
Q 888 588 1041 466 
Q 1194 344 1463 344 
Q 1675 344 1858 442 
Q 2041 541 2288 759 
z
" transform="scale(0.015625)"/>
        <path id="Varta-Regular-6c" d="M 1047 4556 
L 1047 581 
Q 1047 466 1087 409 
Q 1128 353 1191 353 
Q 1247 353 1306 366 
L 1375 -25 
Q 1259 -78 1078 -78 
Q 791 -78 659 97 
Q 528 272 528 622 
L 528 4556 
L 1047 4556 
z
" transform="scale(0.015625)"/>
        <path id="Varta-Regular-79" d="M 1253 -241 
L 1325 -6 
L 78 3109 
L 616 3109 
L 1250 1381 
Q 1378 1028 1553 506 
L 1578 506 
Q 1656 753 1725 1003 
Q 1747 1075 1773 1172 
Q 1800 1269 1834 1381 
L 2388 3109 
L 2906 3109 
L 1734 -259 
Q 1550 -772 1279 -1056 
Q 1009 -1341 572 -1341 
Q 375 -1341 213 -1278 
L 309 -863 
Q 450 -909 547 -909 
Q 800 -909 975 -729 
Q 1150 -550 1253 -241 
z
" transform="scale(0.015625)"/>
       </defs>
       <use xlink:href="#Varta-Regular-49"/>
       <use xlink:href="#Varta-Regular-74" transform="translate(25.683594 0)"/>
       <use xlink:href="#Varta-Regular-61" transform="translate(59.375 0)"/>
       <use xlink:href="#Varta-Regular-6c" transform="translate(110.546875 0)"/>
       <use xlink:href="#Varta-Regular-79" transform="translate(135.986328 0)"/>
      </g>
     </g>
    </g>
    <g id="ytick_2">
     <g id="text_7">
      <!-- France -->
      <g style="fill: #323034" transform="translate(7.2 326.856489) scale(0.11 -0.11)">
       <defs>
        <path id="Varta-Regular-46" d="M 2978 4197 
L 2978 3756 
L 1088 3756 
L 1088 2328 
L 2691 2328 
L 2691 1884 
L 1088 1884 
L 1088 0 
L 556 0 
L 556 4197 
L 2978 4197 
z
" transform="scale(0.015625)"/>
        <path id="Varta-Regular-72" d="M 956 3109 
L 1003 2547 
L 1022 2547 
Q 1181 2844 1412 3016 
Q 1644 3188 1903 3188 
Q 2003 3188 2079 3172 
Q 2156 3156 2234 3122 
L 2134 2666 
Q 2044 2694 1983 2705 
Q 1922 2716 1834 2716 
Q 1616 2716 1405 2542 
Q 1194 2369 1047 2000 
L 1047 0 
L 528 0 
L 528 3109 
L 956 3109 
z
" transform="scale(0.015625)"/>
        <path id="Varta-Regular-6e" d="M 956 3109 
L 1003 2659 
L 1022 2659 
Q 1272 2913 1519 3050 
Q 1766 3188 2066 3188 
Q 2566 3188 2789 2892 
Q 3013 2597 3013 1988 
L 3013 0 
L 2494 0 
L 2494 1916 
Q 2494 2216 2436 2392 
Q 2378 2569 2250 2651 
Q 2122 2734 1900 2734 
Q 1672 2734 1487 2623 
Q 1303 2513 1047 2256 
L 1047 0 
L 528 0 
L 528 3109 
L 956 3109 
z
" transform="scale(0.015625)"/>
        <path id="Varta-Regular-63" d="M 2697 2825 
L 2438 2491 
Q 2291 2619 2134 2687 
Q 1978 2756 1800 2756 
Q 1516 2756 1295 2612 
Q 1075 2469 951 2198 
Q 828 1928 828 1563 
Q 828 1194 948 920 
Q 1069 647 1286 500 
Q 1503 353 1788 353 
Q 2178 353 2500 638 
L 2734 294 
Q 2309 -78 1744 -78 
Q 1325 -78 997 111 
Q 669 300 481 670 
Q 294 1041 294 1563 
Q 294 2084 494 2451 
Q 694 2819 1033 3003 
Q 1372 3188 1781 3188 
Q 2316 3188 2697 2825 
z
" transform="scale(0.015625)"/>
        <path id="Varta-Regular-65" d="M 2928 1728 
Q 2928 1553 2909 1441 
L 806 1441 
Q 825 1097 958 850 
Q 1091 603 1320 473 
Q 1550 344 1847 344 
Q 2072 344 2259 395 
Q 2447 447 2619 556 
L 2800 216 
Q 2347 -78 1784 -78 
Q 1363 -78 1023 112 
Q 684 303 487 672 
Q 291 1041 291 1553 
Q 291 2059 478 2429 
Q 666 2800 983 2995 
Q 1300 3191 1684 3191 
Q 2306 3191 2617 2812 
Q 2928 2434 2928 1728 
z
M 1697 2775 
Q 1459 2775 1267 2659 
Q 1075 2544 951 2319 
Q 828 2094 800 1781 
L 2475 1781 
Q 2475 2775 1697 2775 
z
" transform="scale(0.015625)"/>
       </defs>
       <use xlink:href="#Varta-Regular-46"/>
       <use xlink:href="#Varta-Regular-72" transform="translate(48.779297 0)"/>
       <use xlink:href="#Varta-Regular-61" transform="translate(83.398438 0)"/>
       <use xlink:href="#Varta-Regular-6e" transform="translate(134.570312 0)"/>
       <use xlink:href="#Varta-Regular-63" transform="translate(189.208984 0)"/>
       <use xlink:href="#Varta-Regular-65" transform="translate(234.765625 0)"/>
      </g>
     </g>
    </g>
    <g id="ytick_3">
     <g id="text_8">
      <!-- United Kingdom -->
      <g style="fill: #323034" transform="translate(7.2 282.385901) scale(0.11 -0.11)">
       <defs>
        <path id="Varta-Regular-55" d="M 1069 4197 
L 1069 1691 
Q 1069 384 2047 384 
Q 2509 384 2779 682 
Q 3050 981 3050 1691 
L 3050 4197 
L 3556 4197 
L 3556 1700 
Q 3556 753 3151 337 
Q 2747 -78 2047 -78 
Q 1353 -78 945 340 
Q 538 759 538 1700 
L 538 4197 
L 1069 4197 
z
" transform="scale(0.015625)"/>
        <path id="Varta-Regular-69" d="M 794 4425 
Q 947 4425 1051 4331 
Q 1156 4238 1156 4091 
Q 1156 3944 1051 3848 
Q 947 3753 794 3753 
Q 638 3753 533 3848 
Q 428 3944 428 4091 
Q 428 4238 533 4331 
Q 638 4425 794 4425 
z
M 1047 3109 
L 1047 0 
L 528 0 
L 528 3109 
L 1047 3109 
z
" transform="scale(0.015625)"/>
        <path id="Varta-Regular-64" d="M 2525 2828 
L 2500 3359 
L 2500 4556 
L 3025 4556 
L 3025 0 
L 2591 0 
L 2550 366 
L 2531 366 
Q 2328 169 2087 45 
Q 1847 -78 1588 -78 
Q 1197 -78 908 108 
Q 619 294 459 659 
Q 300 1025 300 1556 
Q 300 2066 479 2434 
Q 659 2803 967 2995 
Q 1275 3188 1650 3188 
Q 1903 3188 2101 3100 
Q 2300 3013 2525 2828 
z
M 2500 791 
L 2500 2422 
Q 2306 2597 2122 2673 
Q 1938 2750 1741 2750 
Q 1472 2750 1265 2606 
Q 1059 2463 943 2194 
Q 828 1925 828 1563 
Q 828 978 1050 668 
Q 1272 359 1703 359 
Q 1916 359 2109 465 
Q 2303 572 2500 791 
z
" transform="scale(0.015625)"/>
        <path id="Varta-Regular-20" transform="scale(0.015625)"/>
        <path id="Varta-Regular-4b" d="M 1088 4197 
L 1088 2088 
L 1100 2088 
L 2856 4197 
L 3459 4197 
L 2138 2597 
L 3656 0 
L 3069 0 
L 1813 2188 
L 1088 1334 
L 1088 0 
L 556 0 
L 556 4197 
L 1088 4197 
z
" transform="scale(0.015625)"/>
        <path id="Varta-Regular-67" d="M 744 175 
Q 619 253 544 379 
Q 469 506 469 681 
Q 469 859 562 986 
Q 656 1113 806 1216 
L 806 1241 
Q 631 1388 517 1595 
Q 403 1803 403 2078 
Q 403 2428 554 2679 
Q 706 2931 972 3059 
Q 1238 3188 1575 3188 
Q 1716 3188 1819 3167 
Q 1922 3147 2013 3109 
L 3094 3109 
L 3094 2709 
L 2453 2709 
Q 2572 2603 2644 2436 
Q 2716 2269 2716 2066 
Q 2716 1722 2570 1478 
Q 2425 1234 2167 1109 
Q 1909 984 1575 984 
Q 1328 984 1103 1094 
Q 1091 1084 1027 1028 
Q 963 972 934 906 
Q 906 841 906 759 
Q 906 600 1031 511 
Q 1156 422 1456 422 
L 2125 422 
Q 2659 422 2903 228 
Q 3147 34 3147 -363 
Q 3147 -653 2959 -898 
Q 2772 -1144 2414 -1289 
Q 2056 -1434 1569 -1434 
Q 934 -1434 611 -1217 
Q 288 -1000 288 -594 
Q 288 -384 409 -184 
Q 531 16 744 150 
L 744 175 
z
M 1575 2806 
Q 1266 2806 1087 2620 
Q 909 2434 909 2078 
Q 909 1844 998 1675 
Q 1088 1506 1239 1420 
Q 1391 1334 1575 1334 
Q 1759 1334 1909 1418 
Q 2059 1503 2148 1670 
Q 2238 1838 2238 2078 
Q 2238 2434 2059 2620 
Q 1881 2806 1575 2806 
z
M 2641 -434 
Q 2641 -219 2480 -109 
Q 2319 0 2009 0 
L 1469 0 
Q 1250 0 1066 50 
Q 906 -63 829 -217 
Q 753 -372 753 -528 
Q 753 -781 981 -923 
Q 1209 -1066 1650 -1066 
Q 1953 -1066 2178 -978 
Q 2403 -891 2522 -747 
Q 2641 -603 2641 -434 
z
" transform="scale(0.015625)"/>
        <path id="Varta-Regular-6f" d="M 3172 1556 
Q 3172 1047 2980 676 
Q 2788 306 2459 114 
Q 2131 -78 1731 -78 
Q 1334 -78 1007 114 
Q 681 306 489 676 
Q 297 1047 297 1556 
Q 297 2072 487 2440 
Q 678 2809 1004 2998 
Q 1331 3188 1731 3188 
Q 2131 3188 2459 2997 
Q 2788 2806 2980 2437 
Q 3172 2069 3172 1556 
z
M 2634 1556 
Q 2634 1919 2525 2191 
Q 2416 2463 2211 2609 
Q 2006 2756 1731 2756 
Q 1459 2756 1256 2609 
Q 1053 2463 943 2191 
Q 834 1919 834 1556 
Q 834 1194 943 922 
Q 1053 650 1256 501 
Q 1459 353 1731 353 
Q 2006 353 2211 501 
Q 2416 650 2525 922 
Q 2634 1194 2634 1556 
z
" transform="scale(0.015625)"/>
        <path id="Varta-Regular-6d" d="M 956 3109 
L 1003 2659 
L 1022 2659 
Q 1500 3188 1988 3188 
Q 2350 3188 2547 3042 
Q 2744 2897 2844 2603 
Q 3109 2891 3354 3039 
Q 3600 3188 3869 3188 
Q 4363 3188 4589 2891 
Q 4816 2594 4816 1988 
L 4816 0 
L 4297 0 
L 4297 1916 
Q 4297 2213 4240 2391 
Q 4184 2569 4057 2651 
Q 3931 2734 3719 2734 
Q 3531 2734 3339 2621 
Q 3147 2509 2934 2269 
L 2934 0 
L 2416 0 
L 2416 1916 
Q 2416 2213 2358 2391 
Q 2300 2569 2173 2651 
Q 2047 2734 1831 2734 
Q 1478 2734 1047 2256 
L 1047 0 
L 528 0 
L 528 3109 
L 956 3109 
z
" transform="scale(0.015625)"/>
       </defs>
       <use xlink:href="#Varta-Regular-55"/>
       <use xlink:href="#Varta-Regular-6e" transform="translate(63.964844 0)"/>
       <use xlink:href="#Varta-Regular-69" transform="translate(118.603516 0)"/>
       <use xlink:href="#Varta-Regular-74" transform="translate(143.164062 0)"/>
       <use xlink:href="#Varta-Regular-65" transform="translate(176.855469 0)"/>
       <use xlink:href="#Varta-Regular-64" transform="translate(226.416016 0)"/>
       <use xlink:href="#Varta-Regular-20" transform="translate(281.884766 0)"/>
       <use xlink:href="#Varta-Regular-4b" transform="translate(302.050781 0)"/>
       <use xlink:href="#Varta-Regular-69" transform="translate(359.375 0)"/>
       <use xlink:href="#Varta-Regular-6e" transform="translate(383.935547 0)"/>
       <use xlink:href="#Varta-Regular-67" transform="translate(438.574219 0)"/>
       <use xlink:href="#Varta-Regular-64" transform="translate(488.916016 0)"/>
       <use xlink:href="#Varta-Regular-6f" transform="translate(544.384766 0)"/>
       <use xlink:href="#Varta-Regular-6d" transform="translate(598.535156 0)"/>
      </g>
     </g>
    </g>
    <g id="ytick_4">
     <g id="text_9">
      <!-- India -->
      <g style="fill: #323034" transform="translate(7.2 237.915312) scale(0.11 -0.11)">
       <use xlink:href="#Varta-Regular-49"/>
       <use xlink:href="#Varta-Regular-6e" transform="translate(25.683594 0)"/>
       <use xlink:href="#Varta-Regular-64" transform="translate(80.322266 0)"/>
       <use xlink:href="#Varta-Regular-69" transform="translate(135.791016 0)"/>
       <use xlink:href="#Varta-Regular-61" transform="translate(160.351562 0)"/>
      </g>
     </g>
    </g>
    <g id="ytick_5">
     <g id="text_10">
      <!-- Germany -->
      <g style="fill: #323034" transform="translate(7.2 193.42324) scale(0.11 -0.11)">
       <defs>
        <path id="Varta-Regular-47" d="M 3453 3788 
L 3150 3453 
Q 2981 3631 2768 3723 
Q 2556 3816 2256 3816 
Q 1828 3816 1514 3620 
Q 1200 3425 1029 3040 
Q 859 2656 859 2103 
Q 859 1556 1021 1172 
Q 1184 788 1496 586 
Q 1809 384 2256 384 
Q 2481 384 2687 453 
Q 2894 522 3025 638 
L 3025 1738 
L 2156 1738 
L 2156 2172 
L 3503 2172 
L 3503 409 
Q 3281 194 2940 58 
Q 2600 -78 2200 -78 
Q 1644 -78 1217 170 
Q 791 419 552 908 
Q 313 1397 313 2091 
Q 313 2803 558 3293 
Q 803 3784 1240 4029 
Q 1678 4275 2253 4275 
Q 2978 4275 3453 3788 
z
" transform="scale(0.015625)"/>
       </defs>
       <use xlink:href="#Varta-Regular-47"/>
       <use xlink:href="#Varta-Regular-65" transform="translate(61.132812 0)"/>
       <use xlink:href="#Varta-Regular-72" transform="translate(110.693359 0)"/>
       <use xlink:href="#Varta-Regular-6d" transform="translate(145.3125 0)"/>
       <use xlink:href="#Varta-Regular-61" transform="translate(228.173828 0)"/>
       <use xlink:href="#Varta-Regular-6e" transform="translate(279.345703 0)"/>
       <use xlink:href="#Varta-Regular-79" transform="translate(333.984375 0)"/>
      </g>
     </g>
    </g>
    <g id="ytick_6">
     <g id="text_11">
      <!-- China -->
      <g style="fill: #323034" transform="translate(7.2 148.974136) scale(0.11 -0.11)">
       <defs>
        <path id="Varta-Regular-43" d="M 3331 3766 
L 3034 3431 
Q 2669 3816 2178 3816 
Q 1778 3816 1479 3616 
Q 1181 3416 1018 3033 
Q 856 2650 856 2119 
Q 856 1575 1012 1184 
Q 1169 794 1461 589 
Q 1753 384 2153 384 
Q 2444 384 2676 498 
Q 2909 613 3116 844 
L 3416 522 
Q 2903 -78 2141 -78 
Q 1606 -78 1193 175 
Q 781 428 547 920 
Q 313 1413 313 2100 
Q 313 2781 550 3273 
Q 788 3766 1209 4020 
Q 1631 4275 2172 4275 
Q 2525 4275 2826 4133 
Q 3128 3991 3331 3766 
z
" transform="scale(0.015625)"/>
        <path id="Varta-Regular-68" d="M 1047 4556 
L 1047 3316 
L 1028 2672 
Q 1284 2919 1526 3053 
Q 1769 3188 2066 3188 
Q 2559 3188 2786 2889 
Q 3013 2591 3013 1984 
L 3013 0 
L 2494 0 
L 2494 1913 
Q 2494 2209 2434 2389 
Q 2375 2569 2245 2651 
Q 2116 2734 1903 2734 
Q 1675 2734 1489 2623 
Q 1303 2513 1047 2256 
L 1047 0 
L 528 0 
L 528 4556 
L 1047 4556 
z
" transform="scale(0.015625)"/>
       </defs>
       <use xlink:href="#Varta-Regular-43"/>
       <use xlink:href="#Varta-Regular-68" transform="translate(56.542969 0)"/>
       <use xlink:href="#Varta-Regular-69" transform="translate(110.888672 0)"/>
       <use xlink:href="#Varta-Regular-6e" transform="translate(135.449219 0)"/>
       <use xlink:href="#Varta-Regular-61" transform="translate(190.087891 0)"/>
      </g>
     </g>
    </g>
    <g id="ytick_7">
     <g id="text_12">
      <!-- United States -->
      <g style="fill: #323034" transform="translate(7.2 104.503548) scale(0.11 -0.11)">
       <defs>
        <path id="Varta-Regular-53" d="M 1734 384 
Q 2006 384 2204 468 
Q 2403 553 2509 706 
Q 2616 859 2616 1066 
Q 2616 1269 2522 1401 
Q 2428 1534 2289 1617 
Q 2150 1700 1884 1822 
L 1284 2084 
Q 928 2234 684 2506 
Q 441 2778 441 3197 
Q 441 3509 616 3754 
Q 791 4000 1095 4137 
Q 1400 4275 1778 4275 
Q 2147 4275 2461 4148 
Q 2775 4022 3000 3788 
L 2719 3447 
Q 2331 3816 1778 3816 
Q 1413 3816 1192 3661 
Q 972 3506 972 3225 
Q 972 3038 1069 2900 
Q 1166 2763 1311 2673 
Q 1456 2584 1663 2497 
L 2263 2238 
Q 2684 2053 2918 1795 
Q 3153 1538 3153 1109 
Q 3153 775 2978 504 
Q 2803 234 2478 78 
Q 2153 -78 1722 -78 
Q 1284 -78 915 73 
Q 547 225 269 513 
L 584 881 
Q 816 644 1111 514 
Q 1406 384 1734 384 
z
" transform="scale(0.015625)"/>
        <path id="Varta-Regular-73" d="M 1356 328 
Q 1656 328 1815 461 
Q 1975 594 1975 806 
Q 1975 956 1875 1064 
Q 1775 1172 1633 1244 
Q 1491 1316 1263 1400 
Q 991 1497 792 1608 
Q 594 1719 462 1894 
Q 331 2069 331 2313 
Q 331 2563 459 2763 
Q 588 2963 830 3075 
Q 1072 3188 1403 3188 
Q 1678 3188 1926 3094 
Q 2175 3000 2366 2847 
L 2119 2519 
Q 1947 2647 1775 2714 
Q 1603 2781 1406 2781 
Q 1125 2781 978 2662 
Q 831 2544 831 2356 
Q 831 2222 925 2120 
Q 1019 2019 1162 1945 
Q 1306 1872 1525 1788 
Q 1825 1678 2015 1575 
Q 2206 1472 2340 1292 
Q 2475 1113 2475 838 
Q 2475 581 2342 373 
Q 2209 166 1951 44 
Q 1694 -78 1338 -78 
Q 1022 -78 726 40 
Q 431 159 194 353 
L 453 700 
Q 681 516 889 422 
Q 1097 328 1356 328 
z
" transform="scale(0.015625)"/>
       </defs>
       <use xlink:href="#Varta-Regular-55"/>
       <use xlink:href="#Varta-Regular-6e" transform="translate(63.964844 0)"/>
       <use xlink:href="#Varta-Regular-69" transform="translate(118.603516 0)"/>
       <use xlink:href="#Varta-Regular-74" transform="translate(143.164062 0)"/>
       <use xlink:href="#Varta-Regular-65" transform="translate(176.855469 0)"/>
       <use xlink:href="#Varta-Regular-64" transform="translate(226.416016 0)"/>
       <use xlink:href="#Varta-Regular-20" transform="translate(281.884766 0)"/>
       <use xlink:href="#Varta-Regular-53" transform="translate(302.050781 0)"/>
       <use xlink:href="#Varta-Regular-74" transform="translate(354.882812 0)"/>
       <use xlink:href="#Varta-Regular-61" transform="translate(388.574219 0)"/>
       <use xlink:href="#Varta-Regular-74" transform="translate(439.746094 0)"/>
       <use xlink:href="#Varta-Regular-65" transform="translate(473.4375 0)"/>
       <use xlink:href="#Varta-Regular-73" transform="translate(522.998047 0)"/>
      </g>
     </g>
    </g>
   </g>
   <g id="patch_4">
    <path d="M 110.7 385.2 
L 123.933275 385.2 
L 123.933275 349.623529 
L 110.7 349.623529 
z
" clip-path="url(#p212fd301fc)" style="fill: #006ba2"/>
   </g>
   <g id="patch_5">
    <path d="M 110.7 340.729412 
L 128.251829 340.729412 
L 128.251829 305.152941 
L 110.7 305.152941 
z
" clip-path="url(#p212fd301fc)" style="fill: #006ba2"/>
   </g>
   <g id="patch_6">
    <path d="M 110.7 296.258824 
L 130.144121 296.258824 
L 130.144121 260.682353 
L 110.7 260.682353 
z
" clip-path="url(#p212fd301fc)" style="fill: #006ba2"/>
   </g>
   <g id="patch_7">
    <path d="M 110.7 251.788235 
L 131.217861 251.788235 
L 131.217861 216.211765 
L 110.7 216.211765 
z
" clip-path="url(#p212fd301fc)" style="fill: #006ba2"/>
   </g>
   <g id="patch_8">
    <path d="M 110.7 207.317647 
L 136.728429 207.317647 
L 136.728429 171.741176 
L 110.7 171.741176 
z
" clip-path="url(#p212fd301fc)" style="fill: #006ba2"/>
   </g>
   <g id="patch_9">
    <path d="M 110.7 162.847059 
L 213.042146 162.847059 
L 213.042146 127.270588 
L 110.7 127.270588 
z
" clip-path="url(#p212fd301fc)" style="fill: #006ba2"/>
   </g>
   <g id="patch_10">
    <path d="M 110.7 118.376471 
L 270.128571 118.376471 
L 270.128571 82.8 
L 110.7 82.8 
z
" clip-path="url(#p212fd301fc)" style="fill: #006ba2"/>
   </g>
   <g id="line2d_6">
    <path d="M 8.1 7.2 
L 271.62 7.2 
" style="fill: none; stroke: #e3120b; stroke-width: 0.6; stroke-linecap: square"/>
   </g>
   <g id="patch_11">
    <path d="M 110.7 400.32 
L 110.7 67.68 
" style="fill: none; stroke: #000000; stroke-width: 1.1; stroke-linejoin: miter; stroke-linecap: square"/>
   </g>
   <g id="text_13">
    <!-- The big leagues -->
    <g style="fill: #323034" transform="translate(8.1 33.12) scale(0.13 -0.13)">
     <defs>
      <path id="Varta-Bold-54" d="M 3297 4188 
L 3297 3609 
L 2072 3609 
L 2072 0 
L 1384 0 
L 1384 3609 
L 156 3609 
L 156 4188 
L 3297 4188 
z
" transform="scale(0.015625)"/>
      <path id="Varta-Bold-68" d="M 1138 2728 
Q 1378 2956 1618 3084 
Q 1859 3213 2153 3213 
Q 2650 3213 2883 2900 
Q 3116 2588 3116 1978 
L 3116 0 
L 2431 0 
L 2431 1888 
Q 2431 2159 2379 2318 
Q 2328 2478 2215 2551 
Q 2103 2625 1919 2625 
Q 1716 2625 1552 2528 
Q 1388 2431 1166 2213 
L 1166 0 
L 484 0 
L 484 4531 
L 1166 4531 
L 1166 3341 
L 1138 2728 
z
" transform="scale(0.015625)"/>
      <path id="Varta-Bold-65" d="M 2963 1400 
L 938 1400 
Q 969 947 1226 703 
Q 1484 459 1894 459 
Q 2097 459 2278 511 
Q 2459 563 2631 669 
L 2863 241 
Q 2638 91 2369 6 
Q 2100 -78 1803 -78 
Q 1369 -78 1020 117 
Q 672 313 470 684 
Q 269 1056 269 1566 
Q 269 2075 464 2448 
Q 659 2822 986 3017 
Q 1313 3213 1700 3213 
Q 2334 3213 2661 2817 
Q 2988 2422 2988 1728 
Q 2988 1550 2963 1400 
z
M 931 1834 
L 2397 1834 
Q 2397 2681 1716 2681 
Q 1403 2681 1189 2464 
Q 975 2247 931 1834 
z
" transform="scale(0.015625)"/>
      <path id="Varta-Bold-20" transform="scale(0.015625)"/>
      <path id="Varta-Bold-62" d="M 1150 2809 
Q 1359 2997 1595 3105 
Q 1831 3213 2075 3213 
Q 2681 3213 2995 2795 
Q 3309 2378 3309 1616 
Q 3309 1078 3129 695 
Q 2950 313 2645 117 
Q 2341 -78 1972 -78 
Q 1750 -78 1526 23 
Q 1303 125 1103 316 
L 1081 316 
L 1025 0 
L 484 0 
L 484 4531 
L 1166 4531 
L 1166 3341 
L 1150 2809 
z
M 1888 2647 
Q 1709 2647 1534 2555 
Q 1359 2463 1166 2272 
L 1166 769 
Q 1331 622 1500 556 
Q 1669 491 1828 491 
Q 2059 491 2232 616 
Q 2406 741 2504 992 
Q 2603 1244 2603 1606 
Q 2603 2122 2436 2384 
Q 2269 2647 1888 2647 
z
" transform="scale(0.015625)"/>
      <path id="Varta-Bold-69" d="M 1263 4106 
Q 1263 3934 1139 3821 
Q 1016 3709 828 3709 
Q 641 3709 517 3821 
Q 394 3934 394 4106 
Q 394 4281 517 4392 
Q 641 4503 828 4503 
Q 1016 4503 1139 4392 
Q 1263 4281 1263 4106 
z
M 484 0 
L 484 3134 
L 1166 3134 
L 1166 0 
L 484 0 
z
" transform="scale(0.015625)"/>
      <path id="Varta-Bold-67" d="M 781 1244 
L 781 1269 
Q 603 1406 484 1620 
Q 366 1834 366 2103 
Q 366 2459 528 2709 
Q 691 2959 969 3086 
Q 1247 3213 1591 3213 
Q 1844 3213 2053 3134 
L 3163 3134 
L 3163 2644 
L 2572 2644 
Q 2663 2547 2719 2400 
Q 2775 2253 2775 2081 
Q 2775 1734 2623 1492 
Q 2472 1250 2203 1128 
Q 1934 1006 1591 1006 
Q 1372 1006 1156 1097 
Q 1066 1016 1028 961 
Q 991 906 991 803 
Q 991 656 1111 579 
Q 1231 503 1513 503 
L 2122 503 
Q 2678 503 2947 303 
Q 3216 103 3216 -303 
Q 3216 -609 3017 -859 
Q 2819 -1109 2444 -1256 
Q 2069 -1403 1563 -1403 
Q 944 -1403 603 -1192 
Q 263 -981 263 -575 
Q 263 -366 383 -164 
Q 503 38 716 166 
L 716 191 
Q 581 278 507 393 
Q 434 509 434 688 
Q 434 859 531 1000 
Q 628 1141 781 1244 
z
M 1016 2103 
Q 1016 1891 1092 1742 
Q 1169 1594 1298 1517 
Q 1428 1441 1591 1441 
Q 1753 1441 1883 1516 
Q 2013 1591 2089 1739 
Q 2166 1888 2166 2103 
Q 2166 2413 2011 2572 
Q 1856 2731 1591 2731 
Q 1325 2731 1170 2573 
Q 1016 2416 1016 2103 
z
M 1984 0 
L 1525 0 
Q 1278 0 1106 44 
Q 972 -56 909 -184 
Q 847 -313 847 -475 
Q 847 -700 1061 -823 
Q 1275 -947 1669 -947 
Q 1934 -947 2136 -873 
Q 2338 -800 2447 -676 
Q 2556 -553 2556 -409 
Q 2556 -216 2407 -108 
Q 2259 0 1984 0 
z
" transform="scale(0.015625)"/>
      <path id="Varta-Bold-6c" d="M 1322 484 
Q 1381 484 1438 497 
L 1522 -16 
Q 1375 -78 1156 -78 
Q 800 -78 642 137 
Q 484 353 484 766 
L 484 4531 
L 1166 4531 
L 1166 725 
Q 1166 600 1211 542 
Q 1256 484 1322 484 
z
" transform="scale(0.015625)"/>
      <path id="Varta-Bold-61" d="M 706 2381 
L 450 2844 
Q 716 3009 1050 3111 
Q 1384 3213 1741 3213 
Q 2328 3213 2611 2875 
Q 2894 2538 2894 1872 
L 2894 0 
L 2331 0 
L 2275 353 
L 2259 353 
Q 2088 209 1953 120 
Q 1819 31 1658 -23 
Q 1497 -78 1300 -78 
Q 1016 -78 798 37 
Q 581 153 462 362 
Q 344 572 344 844 
Q 344 1363 797 1653 
Q 1250 1944 2209 1981 
Q 2209 2334 2076 2495 
Q 1944 2656 1616 2656 
Q 1375 2656 1144 2584 
Q 913 2513 706 2381 
z
M 2209 1566 
Q 1556 1547 1281 1362 
Q 1006 1178 1006 891 
Q 1006 675 1139 569 
Q 1272 463 1503 463 
Q 1694 463 1856 550 
Q 2019 638 2209 822 
L 2209 1566 
z
" transform="scale(0.015625)"/>
      <path id="Varta-Bold-75" d="M 1644 509 
Q 1866 509 2020 612 
Q 2175 716 2375 969 
L 2375 3134 
L 3059 3134 
L 3059 0 
L 2497 0 
L 2444 469 
L 2422 469 
Q 2194 197 1959 59 
Q 1725 -78 1409 -78 
Q 903 -78 673 233 
Q 444 544 444 1156 
L 444 3134 
L 1131 3134 
L 1131 1247 
Q 1131 975 1181 815 
Q 1231 656 1342 582 
Q 1453 509 1644 509 
z
" transform="scale(0.015625)"/>
      <path id="Varta-Bold-73" d="M 1897 838 
Q 1897 969 1803 1064 
Q 1709 1159 1578 1220 
Q 1447 1281 1209 1372 
Q 813 1519 564 1730 
Q 316 1941 316 2294 
Q 316 2559 453 2768 
Q 591 2978 847 3095 
Q 1103 3213 1444 3213 
Q 1744 3213 2001 3113 
Q 2259 3013 2469 2847 
L 2153 2428 
Q 1972 2563 1811 2628 
Q 1650 2694 1453 2694 
Q 1206 2694 1087 2601 
Q 969 2509 969 2344 
Q 969 2222 1056 2131 
Q 1144 2041 1272 1981 
Q 1400 1922 1631 1831 
Q 1906 1731 2097 1625 
Q 2288 1519 2417 1336 
Q 2547 1153 2547 878 
Q 2547 609 2406 392 
Q 2266 175 1994 48 
Q 1722 -78 1344 -78 
Q 1031 -78 718 42 
Q 406 163 172 359 
L 494 800 
Q 725 622 928 531 
Q 1131 441 1363 441 
Q 1631 441 1764 548 
Q 1897 656 1897 838 
z
" transform="scale(0.015625)"/>
     </defs>
     <use xlink:href="#Varta-Bold-54"/>
     <use xlink:href="#Varta-Bold-68" transform="translate(54.003906 0)"/>
     <use xlink:href="#Varta-Bold-65" transform="translate(109.423828 0)"/>
     <use xlink:href="#Varta-Bold-20" transform="translate(159.863281 0)"/>
     <use xlink:href="#Varta-Bold-62" transform="translate(180.322266 0)"/>
     <use xlink:href="#Varta-Bold-69" transform="translate(236.523438 0)"/>
     <use xlink:href="#Varta-Bold-67" transform="translate(262.255859 0)"/>
     <use xlink:href="#Varta-Bold-20" transform="translate(313.818359 0)"/>
     <use xlink:href="#Varta-Bold-6c" transform="translate(334.277344 0)"/>
     <use xlink:href="#Varta-Bold-65" transform="translate(360.9375 0)"/>
     <use xlink:href="#Varta-Bold-61" transform="translate(411.376953 0)"/>
     <use xlink:href="#Varta-Bold-67" transform="translate(463.427734 0)"/>
     <use xlink:href="#Varta-Bold-75" transform="translate(514.990234 0)"/>
     <use xlink:href="#Varta-Bold-65" transform="translate(570.3125 0)"/>
     <use xlink:href="#Varta-Bold-73" transform="translate(620.751953 0)"/>
    </g>
   </g>
   <g id="text_14">
    <!-- 2023 GDP, trillions of USD -->
    <g style="fill: #323034" transform="translate(8.1 48.24) scale(0.11 -0.11)">
     <defs>
      <path id="Varta-Regular-33" d="M 1478 353 
Q 1728 353 1920 440 
Q 2113 528 2219 698 
Q 2325 869 2325 1106 
Q 2325 1497 2020 1709 
Q 1716 1922 1019 1922 
L 1019 2322 
Q 1628 2322 1903 2556 
Q 2178 2791 2178 3150 
Q 2178 3475 1987 3664 
Q 1797 3853 1472 3853 
Q 988 3853 600 3459 
L 319 3788 
Q 838 4275 1491 4275 
Q 1856 4275 2132 4140 
Q 2409 4006 2559 3761 
Q 2709 3516 2709 3188 
Q 2709 2825 2507 2551 
Q 2306 2278 1969 2150 
L 1969 2125 
Q 2219 2069 2419 1928 
Q 2619 1788 2734 1573 
Q 2850 1359 2850 1088 
Q 2850 734 2678 470 
Q 2506 206 2201 64 
Q 1897 -78 1509 -78 
Q 691 -78 166 500 
L 431 841 
Q 644 616 894 484 
Q 1144 353 1478 353 
z
" transform="scale(0.015625)"/>
      <path id="Varta-Regular-44" d="M 1650 4197 
Q 2616 4197 3100 3673 
Q 3584 3150 3584 2122 
Q 3584 1091 3089 545 
Q 2594 0 1644 0 
L 556 0 
L 556 4197 
L 1650 4197 
z
M 3044 2122 
Q 3044 2947 2695 3358 
Q 2347 3769 1613 3769 
L 1088 3769 
L 1088 428 
L 1584 428 
Q 2316 428 2680 861 
Q 3044 1294 3044 2122 
z
" transform="scale(0.015625)"/>
      <path id="Varta-Regular-50" d="M 1878 4197 
Q 2628 4197 3011 3901 
Q 3394 3606 3394 2941 
Q 3394 2288 3000 1947 
Q 2606 1606 1888 1606 
L 1088 1606 
L 1088 0 
L 556 0 
L 556 4197 
L 1878 4197 
z
M 2872 2941 
Q 2872 3247 2764 3430 
Q 2656 3613 2423 3694 
Q 2191 3775 1806 3775 
L 1088 3775 
L 1088 2038 
L 1816 2038 
Q 2381 2038 2626 2259 
Q 2872 2481 2872 2941 
z
" transform="scale(0.015625)"/>
      <path id="Varta-Regular-2c" d="M 875 0 
Q 853 -6 809 -6 
Q 650 -6 542 91 
Q 434 188 434 356 
Q 434 522 546 622 
Q 659 722 822 722 
Q 1028 722 1145 559 
Q 1263 397 1263 109 
Q 1263 -166 1161 -412 
Q 1059 -659 871 -850 
Q 684 -1041 428 -1147 
L 300 -844 
Q 566 -725 720 -494 
Q 875 -263 875 0 
z
" transform="scale(0.015625)"/>
      <path id="Varta-Regular-66" d="M 1572 4213 
Q 1350 4213 1242 4066 
Q 1134 3919 1134 3619 
L 1134 3109 
L 1794 3109 
L 1794 2684 
L 1134 2684 
L 1134 0 
L 616 0 
L 616 2684 
L 191 2684 
L 191 3078 
L 616 3109 
L 616 3619 
Q 616 4106 841 4370 
Q 1066 4634 1519 4634 
Q 1778 4634 2034 4531 
L 1922 4134 
Q 1747 4213 1572 4213 
z
" transform="scale(0.015625)"/>
     </defs>
     <use xlink:href="#Varta-Regular-32"/>
     <use xlink:href="#Varta-Regular-30" transform="translate(49.658203 0)"/>
     <use xlink:href="#Varta-Regular-32" transform="translate(99.316406 0)"/>
     <use xlink:href="#Varta-Regular-33" transform="translate(148.974609 0)"/>
     <use xlink:href="#Varta-Regular-20" transform="translate(198.632812 0)"/>
     <use xlink:href="#Varta-Regular-47" transform="translate(218.798828 0)"/>
     <use xlink:href="#Varta-Regular-44" transform="translate(279.931641 0)"/>
     <use xlink:href="#Varta-Regular-50" transform="translate(341.064453 0)"/>
     <use xlink:href="#Varta-Regular-2c" transform="translate(387.796875 0)"/>
     <use xlink:href="#Varta-Regular-20" transform="translate(412.601562 0)"/>
     <use xlink:href="#Varta-Regular-74" transform="translate(432.767578 0)"/>
     <use xlink:href="#Varta-Regular-72" transform="translate(466.458984 0)"/>
     <use xlink:href="#Varta-Regular-69" transform="translate(501.078125 0)"/>
     <use xlink:href="#Varta-Regular-6c" transform="translate(525.638672 0)"/>
     <use xlink:href="#Varta-Regular-6c" transform="translate(551.078125 0)"/>
     <use xlink:href="#Varta-Regular-69" transform="translate(576.517578 0)"/>
     <use xlink:href="#Varta-Regular-6f" transform="translate(601.078125 0)"/>
     <use xlink:href="#Varta-Regular-6e" transform="translate(655.228516 0)"/>
     <use xlink:href="#Varta-Regular-73" transform="translate(709.867188 0)"/>
     <use xlink:href="#Varta-Regular-20" transform="translate(751.712891 0)"/>
     <use xlink:href="#Varta-Regular-6f" transform="translate(771.878906 0)"/>
     <use xlink:href="#Varta-Regular-66" transform="translate(826.029297 0)"/>
     <use xlink:href="#Varta-Regular-20" transform="translate(855.130859 0)"/>
     <use xlink:href="#Varta-Regular-55" transform="translate(875.296875 0)"/>
     <use xlink:href="#Varta-Regular-53" transform="translate(939.261719 0)"/>
     <use xlink:href="#Varta-Regular-44" transform="translate(992.09375 0)"/>
    </g>
   </g>
   <g id="text_15">
    <!-- Source: World Bank -->
    <g style="fill: #323034; opacity: 0.7" transform="translate(8.1 413.28) scale(0.09 -0.09)">
     <defs>
      <path id="Varta-Regular-75" d="M 1006 3109 
L 1006 1197 
Q 1006 897 1061 719 
Q 1116 541 1242 456 
Q 1369 372 1591 372 
Q 1766 372 1898 426 
Q 2031 481 2153 592 
Q 2275 703 2434 900 
L 2434 3109 
L 2953 3109 
L 2953 0 
L 2522 0 
L 2478 488 
L 2456 488 
Q 2216 203 1986 62 
Q 1756 -78 1434 -78 
Q 931 -78 707 220 
Q 484 519 484 1128 
L 484 3109 
L 1006 3109 
z
" transform="scale(0.015625)"/>
      <path id="Varta-Regular-3a" d="M 1181 316 
Q 1181 147 1072 34 
Q 963 -78 806 -78 
Q 647 -78 536 34 
Q 425 147 425 316 
Q 425 494 536 608 
Q 647 722 806 722 
Q 966 722 1073 608 
Q 1181 494 1181 316 
z
M 1181 2635 
Q 1181 2466 1072 2353 
Q 963 2241 806 2241 
Q 647 2241 536 2353 
Q 425 2466 425 2635 
Q 425 2813 536 2927 
Q 647 3041 806 3041 
Q 966 3041 1073 2927 
Q 1181 2813 1181 2635 
z
" transform="scale(0.015625)"/>
      <path id="Varta-Regular-57" d="M 672 4197 
L 1116 1909 
L 1181 1550 
Q 1325 781 1366 550 
L 1391 550 
Q 1503 1109 1691 1909 
L 2272 4197 
L 2756 4197 
L 3338 1909 
Q 3366 1775 3405 1603 
Q 3444 1431 3491 1216 
L 3641 550 
L 3669 550 
Q 3791 1234 3903 1909 
L 4350 4197 
L 4859 4197 
L 3988 0 
L 3350 0 
L 2713 2538 
L 2647 2838 
Q 2544 3313 2513 3491 
L 2488 3491 
L 2275 2538 
L 1644 0 
L 1022 0 
L 128 4197 
L 672 4197 
z
" transform="scale(0.015625)"/>
      <path id="Varta-Regular-42" d="M 1831 4197 
Q 2509 4197 2878 3961 
Q 3247 3725 3247 3188 
Q 3247 2838 3070 2586 
Q 2894 2334 2513 2259 
L 2513 2234 
Q 2972 2200 3228 1940 
Q 3484 1681 3484 1241 
Q 3484 831 3289 553 
Q 3094 275 2742 137 
Q 2391 0 1916 0 
L 556 0 
L 556 4197 
L 1831 4197 
z
M 2728 3141 
Q 2728 3484 2495 3632 
Q 2263 3781 1766 3781 
L 1088 3781 
L 1088 2406 
L 1731 2406 
Q 2253 2406 2490 2589 
Q 2728 2772 2728 3141 
z
M 2966 1266 
Q 2966 1653 2686 1833 
Q 2406 2013 1841 2013 
L 1088 2013 
L 1088 419 
L 1841 419 
Q 2391 419 2678 628 
Q 2966 838 2966 1266 
z
" transform="scale(0.015625)"/>
      <path id="Varta-Regular-6b" d="M 1041 4556 
L 1041 1466 
L 1059 1466 
L 2388 3109 
L 2963 3109 
L 1919 1863 
L 3103 0 
L 2534 0 
L 1622 1500 
L 1041 819 
L 1041 0 
L 528 0 
L 528 4556 
L 1041 4556 
z
" transform="scale(0.015625)"/>
     </defs>
     <use xlink:href="#Varta-Regular-53"/>
     <use xlink:href="#Varta-Regular-6f" transform="translate(52.832031 0)"/>
     <use xlink:href="#Varta-Regular-75" transform="translate(106.982422 0)"/>
     <use xlink:href="#Varta-Regular-72" transform="translate(161.328125 0)"/>
     <use xlink:href="#Varta-Regular-63" transform="translate(195.947266 0)"/>
     <use xlink:href="#Varta-Regular-65" transform="translate(241.503906 0)"/>
     <use xlink:href="#Varta-Regular-3a" transform="translate(291.064453 0)"/>
     <use xlink:href="#Varta-Regular-20" transform="translate(315.869141 0)"/>
     <use xlink:href="#Varta-Regular-57" transform="translate(336.035156 0)"/>
     <use xlink:href="#Varta-Regular-6f" transform="translate(412.5625 0)"/>
     <use xlink:href="#Varta-Regular-72" transform="translate(466.712891 0)"/>
     <use xlink:href="#Varta-Regular-6c" transform="translate(501.332031 0)"/>
     <use xlink:href="#Varta-Regular-64" transform="translate(526.771484 0)"/>
     <use xlink:href="#Varta-Regular-20" transform="translate(582.240234 0)"/>
     <use xlink:href="#Varta-Regular-42" transform="translate(602.40625 0)"/>
     <use xlink:href="#Varta-Regular-61" transform="translate(660.658203 0)"/>
     <use xlink:href="#Varta-Regular-6e" transform="translate(711.830078 0)"/>
     <use xlink:href="#Varta-Regular-6b" transform="translate(766.46875 0)"/>
    </g>
   </g>
  </g>
 </g>
 <defs>
  <clipPath id="p212fd301fc">
   <rect x="110.7" y="67.68" width="167.4" height="332.64"/>
  </clipPath>
 </defs>
</svg>