<?xml version="1.0" encoding="utf-8" standalone="no"?>
<!DOCTYPE svg PUBLIC "-//W3C//DTD SVG 1.1//EN"
  "http://www.w3.org/Graphics/SVG/1.1/DTD/svg11.dtd">
<svg xmlns:xlink="http://www.w3.org/1999/xlink" width="526.79952pt" height="353.99952pt" viewBox="0 0 526.79952 353.99952" xmlns="http://www.w3.org/2000/svg" version="1.1">
 <metadata>
  <rdf:RDF xmlns:dc="http://purl.org/dc/elements/1.1/" xmlns:cc="http://creativecommons.org/ns#" xmlns:rdf="http://www.w3.org/1999/02/22-rdf-syntax-ns#">
   <cc:Work>
    <dc:type rdf:resource="http://purl.org/dc/dcmitype/StillImage"/>
    <dc:date>2024-01-05T15:38:28.798706</dc:date>
    <dc:format>image/svg+xml</dc:format>
    <dc:creator>
     <cc:Agent>
      <dc:title>Matplotlib v3.8.2, https://matplotlib.org/</dc:title>
     </cc:Agent>
    </dc:creator>
   </cc:Work>
  </rdf:RDF>
 </metadata>
 <defs>
  <style type="text/css">*{stroke-linejoin: round; stroke-linecap: butt}</style>
 </defs>
 <g id="figure_1">
  <g id="patch_1">
   <path d="M 0 353.99952 
L 526.79952 353.99952 
L 526.79952 0 
L 0 0 
z
" style="fill: #ffffff"/>
  </g>
  <g id="axes_1">
   <g id="patch_2">
    <path d="M 61.36 314.19952 
L 516.09952 314.19952 
L 516.09952 24.1275 
L 61.36 24.1275 
z
" style="fill: #eeeeee"/>
   </g>
   <g id="matplotlib.axis_1">
    <g id="xtick_1">
     <g id="line2d_1">
      <path d="M 61.36 314.19952 
L 61.36 24.1275 
" clip-path="url(#p62a7e72d03)" style="fill: none; stroke: #ffffff; stroke-width: 0.8; stroke-linecap: round"/>
     </g>
     <g id="line2d_2"/>
     <g id="text_1">
      <!-- $\mathdefault{−3}$ -->
      <g style="fill: #262626" transform="translate(53.03 327.261082) scale(0.14 -0.14)">
       <defs>
        <path id="STIXGeneral-Regular-2212" d="M 3974 1408 
L 410 1408 
L 410 1830 
L 3974 1830 
L 3974 1408 
z
" transform="scale(0.015625)"/>
        <path id="STIXGeneral-Regular-33" d="M 390 3264 
L 288 3290 
Q 435 3770 748 4048 
Q 1062 4326 1542 4326 
Q 1990 4326 2265 4083 
Q 2541 3840 2541 3450 
Q 2541 2925 1946 2566 
Q 2298 2413 2477 2227 
Q 2758 1914 2758 1402 
Q 2758 890 2464 506 
Q 2246 211 1840 60 
Q 1434 -90 979 -90 
Q 262 -90 262 275 
Q 262 378 339 442 
Q 416 506 525 506 
Q 685 506 915 339 
Q 1197 141 1466 141 
Q 1818 141 2058 425 
Q 2298 710 2298 1120 
Q 2298 1856 1632 2048 
Q 1434 2112 979 2112 
L 979 2202 
Q 1338 2323 1517 2432 
Q 2035 2726 2035 3290 
Q 2035 3610 1852 3776 
Q 1670 3942 1344 3942 
Q 768 3942 390 3264 
z
" transform="scale(0.015625)"/>
       </defs>
       <use xlink:href="#STIXGeneral-Regular-2212" transform="translate(0 0.40625)"/>
       <use xlink:href="#STIXGeneral-Regular-33" transform="translate(68.499985 0.40625)"/>
      </g>
     </g>
    </g>
    <g id="xtick_2">
     <g id="line2d_3">
      <path d="M 137.14992 314.19952 
L 137.14992 24.1275 
" clip-path="url(#p62a7e72d03)" style="fill: none; stroke: #ffffff; stroke-width: 0.8; stroke-linecap: round"/>
     </g>
     <g id="line2d_4"/>
     <g id="text_2">
      <!-- $\mathdefault{−2}$ -->
      <g style="fill: #262626" transform="translate(128.81992 327.261082) scale(0.14 -0.14)">
       <defs>
        <path id="STIXGeneral-Regular-32" d="M 3034 877 
L 2688 0 
L 186 0 
L 186 77 
L 1325 1286 
Q 1773 1754 1965 2144 
Q 2157 2534 2157 2950 
Q 2157 3379 1920 3616 
Q 1683 3853 1267 3853 
Q 922 3853 720 3673 
Q 518 3494 326 3021 
L 192 3053 
Q 301 3648 630 3987 
Q 960 4326 1523 4326 
Q 2054 4326 2380 4006 
Q 2707 3686 2707 3200 
Q 2707 2477 1888 1613 
L 832 486 
L 2330 486 
Q 2541 486 2665 569 
Q 2790 653 2944 915 
L 3034 877 
z
" transform="scale(0.015625)"/>
       </defs>
       <use xlink:href="#STIXGeneral-Regular-2212" transform="translate(0 0.40625)"/>
       <use xlink:href="#STIXGeneral-Regular-32" transform="translate(68.499985 0.40625)"/>
      </g>
     </g>
    </g>
    <g id="xtick_3">
     <g id="line2d_5">
      <path d="M 212.93984 314.19952 
L 212.93984 24.1275 
" clip-path="url(#p62a7e72d03)" style="fill: none; stroke: #ffffff; stroke-width: 0.8; stroke-linecap: round"/>
     </g>
     <g id="line2d_6"/>
     <g id="text_3">
      <!-- $\mathdefault{−1}$ -->
      <g style="fill: #262626" transform="translate(204.60984 327.261082) scale(0.14 -0.14)">
       <defs>
        <path id="STIXGeneral-Regular-31" d="M 2522 0 
L 755 0 
L 755 96 
Q 1107 115 1235 227 
Q 1363 339 1363 608 
L 1363 3482 
Q 1363 3795 1171 3795 
Q 1082 3795 883 3718 
L 710 3654 
L 710 3744 
L 1856 4326 
L 1914 4307 
L 1914 486 
Q 1914 275 2042 185 
Q 2170 96 2522 96 
L 2522 0 
z
" transform="scale(0.015625)"/>
       </defs>
       <use xlink:href="#STIXGeneral-Regular-2212" transform="translate(0 0.40625)"/>
       <use xlink:href="#STIXGeneral-Regular-31" transform="translate(68.499985 0.40625)"/>
      </g>
     </g>
    </g>
    <g id="xtick_4">
     <g id="line2d_7">
      <path d="M 288.72976 314.19952 
L 288.72976 24.1275 
" clip-path="url(#p62a7e72d03)" style="fill: none; stroke: #ffffff; stroke-width: 0.8; stroke-linecap: round"/>
     </g>
     <g id="line2d_8"/>
     <g id="text_4">
      <!-- $\mathdefault{0}$ -->
      <g style="fill: #262626" transform="translate(285.22976 327.261082) scale(0.14 -0.14)">
       <defs>
        <path id="STIXGeneral-Regular-30" d="M 3046 2112 
Q 3046 1683 2963 1302 
Q 2880 922 2717 602 
Q 2554 282 2266 96 
Q 1978 -90 1600 -90 
Q 1210 -90 915 108 
Q 621 307 461 640 
Q 301 973 227 1350 
Q 154 1728 154 2150 
Q 154 2746 301 3222 
Q 448 3699 790 4012 
Q 1133 4326 1626 4326 
Q 2253 4326 2649 3712 
Q 3046 3098 3046 2112 
z
M 2432 2080 
Q 2432 3091 2217 3625 
Q 2003 4160 1587 4160 
Q 1190 4160 979 3622 
Q 768 3085 768 2106 
Q 768 1120 979 598 
Q 1190 77 1600 77 
Q 2003 77 2217 598 
Q 2432 1120 2432 2080 
z
" transform="scale(0.015625)"/>
       </defs>
       <use xlink:href="#STIXGeneral-Regular-30" transform="translate(0 0.40625)"/>
      </g>
     </g>
    </g>
    <g id="xtick_5">
     <g id="line2d_9">
      <path d="M 364.51968 314.19952 
L 364.51968 24.1275 
" clip-path="url(#p62a7e72d03)" style="fill: none; stroke: #ffffff; stroke-width: 0.8; stroke-linecap: round"/>
     </g>
     <g id="line2d_10"/>
     <g id="text_5">
      <!-- $\mathdefault{1}$ -->
      <g style="fill: #262626" transform="translate(361.01968 327.261082) scale(0.14 -0.14)">
       <use xlink:href="#STIXGeneral-Regular-31" transform="translate(0 0.40625)"/>
      </g>
     </g>
    </g>
    <g id="xtick_6">
     <g id="line2d_11">
      <path d="M 440.3096 314.19952 
L 440.3096 24.1275 
" clip-path="url(#p62a7e72d03)" style="fill: none; stroke: #ffffff; stroke-width: 0.8; stroke-linecap: round"/>
     </g>
     <g id="line2d_12"/>
     <g id="text_6">
      <!-- $\mathdefault{2}$ -->
      <g style="fill: #262626" transform="translate(436.8096 327.261082) scale(0.14 -0.14)">
       <use xlink:href="#STIXGeneral-Regular-32" transform="translate(0 0.40625)"/>
      </g>
     </g>
    </g>
    <g id="xtick_7">
     <g id="line2d_13">
      <path d="M 516.09952 314.19952 
L 516.09952 24.1275 
" clip-path="url(#p62a7e72d03)" style="fill: none; stroke: #ffffff; stroke-width: 0.8; stroke-linecap: round"/>
     </g>
     <g id="line2d_14"/>
     <g id="text_7">
      <!-- $\mathdefault{3}$ -->
      <g style="fill: #262626" transform="translate(512.59952 327.261082) scale(0.14 -0.14)">
       <use xlink:href="#STIXGeneral-Regular-33" transform="translate(0 0.40625)"/>
      </g>
     </g>
    </g>
    <g id="text_8">
     <!-- Predictor (X) -->
     <g style="fill: #262626" transform="translate(248.94226 343.544051) scale(0.15 -0.15)">
      <defs>
       <path id="STIXGeneral-Regular-50" d="M 102 4237 
L 1760 4237 
Q 2669 4237 3149 3834 
Q 3469 3565 3469 3072 
Q 3469 2560 3104 2234 
Q 2835 1990 2553 1916 
Q 2272 1843 1734 1843 
Q 1549 1843 1293 1862 
L 1293 717 
Q 1293 352 1398 246 
Q 1504 141 1894 122 
L 1894 0 
L 102 0 
L 102 122 
Q 474 147 557 256 
Q 640 365 640 781 
L 640 3526 
Q 640 3885 547 3987 
Q 454 4090 102 4115 
L 102 4237 
z
M 1293 3770 
L 1293 2118 
Q 1510 2099 1683 2099 
Q 2202 2099 2486 2352 
Q 2771 2605 2771 3040 
Q 2771 3558 2476 3779 
Q 2182 4000 1517 4000 
Q 1382 4000 1337 3952 
Q 1293 3904 1293 3770 
z
" transform="scale(0.015625)"/>
       <path id="STIXGeneral-Regular-72" d="M 1024 2931 
L 1024 2342 
Q 1267 2688 1430 2816 
Q 1594 2944 1792 2944 
Q 1958 2944 2051 2854 
Q 2144 2765 2144 2605 
Q 2144 2470 2077 2393 
Q 2010 2317 1894 2317 
Q 1773 2317 1638 2445 
Q 1536 2541 1472 2541 
Q 1338 2541 1181 2355 
Q 1024 2170 1024 2016 
L 1024 576 
Q 1024 301 1133 205 
Q 1242 109 1568 96 
L 1568 0 
L 32 0 
L 32 96 
Q 339 154 412 224 
Q 486 294 486 538 
L 486 2138 
Q 486 2349 438 2435 
Q 390 2522 269 2522 
Q 166 2522 45 2496 
L 45 2598 
Q 448 2726 992 2944 
L 1024 2931 
z
" transform="scale(0.015625)"/>
       <path id="STIXGeneral-Regular-65" d="M 2611 1050 
L 2714 1005 
Q 2330 -64 1376 -64 
Q 813 -64 486 329 
Q 160 723 160 1389 
Q 160 2074 525 2509 
Q 890 2944 1485 2944 
Q 2061 2944 2374 2502 
Q 2560 2246 2592 1773 
L 621 1773 
Q 646 1370 700 1158 
Q 755 947 915 730 
Q 1184 378 1626 378 
Q 1939 378 2153 531 
Q 2368 685 2611 1050 
z
M 634 1978 
L 1939 1978 
Q 1882 2381 1750 2547 
Q 1619 2714 1312 2714 
Q 1043 2714 864 2525 
Q 685 2336 634 1978 
z
" transform="scale(0.015625)"/>
       <path id="STIXGeneral-Regular-64" d="M 3142 269 
L 2202 -64 
L 2176 -45 
L 2176 365 
Q 1869 -64 1357 -64 
Q 826 -64 499 317 
Q 173 698 173 1312 
Q 173 1990 563 2467 
Q 954 2944 1504 2944 
Q 1850 2944 2176 2669 
L 2176 3667 
Q 2176 3866 2118 3930 
Q 2061 3994 1882 3994 
Q 1792 3994 1741 3987 
L 1741 4090 
Q 2323 4243 2682 4371 
L 2714 4358 
L 2714 730 
Q 2714 506 2768 435 
Q 2822 365 2995 365 
Q 3034 365 3142 371 
L 3142 269 
z
M 2176 653 
L 2176 2125 
Q 2176 2381 1981 2573 
Q 1786 2765 1523 2765 
Q 1158 2765 940 2438 
Q 723 2112 723 1568 
Q 723 979 963 624 
Q 1203 269 1606 269 
Q 1907 269 2080 474 
Q 2176 582 2176 653 
z
" transform="scale(0.015625)"/>
       <path id="STIXGeneral-Regular-69" d="M 1152 4045 
Q 1152 3904 1056 3811 
Q 960 3718 819 3718 
Q 685 3718 592 3811 
Q 499 3904 499 4045 
Q 499 4179 595 4275 
Q 691 4371 826 4371 
Q 966 4371 1059 4275 
Q 1152 4179 1152 4045 
z
M 1619 0 
L 102 0 
L 102 96 
Q 435 115 521 211 
Q 608 307 608 666 
L 608 2118 
Q 608 2342 563 2432 
Q 518 2522 397 2522 
Q 243 2522 128 2490 
L 128 2592 
L 1120 2944 
L 1146 2918 
L 1146 672 
Q 1146 314 1226 218 
Q 1306 122 1619 96 
L 1619 0 
z
" transform="scale(0.015625)"/>
       <path id="STIXGeneral-Regular-63" d="M 2547 998 
L 2637 941 
Q 2362 403 2112 205 
Q 1786 -64 1376 -64 
Q 845 -64 502 336 
Q 160 736 160 1357 
Q 160 2170 698 2618 
Q 1094 2944 1562 2944 
Q 1965 2944 2256 2749 
Q 2547 2554 2547 2285 
Q 2547 2176 2457 2096 
Q 2368 2016 2246 2016 
Q 2022 2016 1939 2310 
L 1901 2451 
Q 1850 2630 1773 2694 
Q 1696 2758 1523 2758 
Q 1133 2758 893 2451 
Q 653 2144 653 1645 
Q 653 1094 928 745 
Q 1203 397 1645 397 
Q 1920 397 2118 528 
Q 2317 659 2547 998 
z
" transform="scale(0.015625)"/>
       <path id="STIXGeneral-Regular-74" d="M 1702 493 
L 1786 422 
Q 1478 -64 1011 -64 
Q 448 -64 448 749 
L 448 2675 
L 109 2675 
Q 83 2694 83 2720 
Q 83 2771 192 2842 
Q 435 2982 813 3526 
Q 826 3546 874 3606 
Q 922 3667 941 3706 
Q 986 3706 986 3622 
L 986 2880 
L 1632 2880 
L 1632 2675 
L 986 2675 
L 986 845 
Q 986 538 1062 403 
Q 1139 269 1318 269 
Q 1510 269 1702 493 
z
" transform="scale(0.015625)"/>
       <path id="STIXGeneral-Regular-6f" d="M 3008 1478 
Q 3008 806 2608 371 
Q 2208 -64 1568 -64 
Q 979 -64 582 368 
Q 186 800 186 1459 
Q 186 2125 582 2534 
Q 979 2944 1626 2944 
Q 2221 2944 2614 2537 
Q 3008 2131 3008 1478 
z
M 2432 1306 
Q 2432 2035 2112 2445 
Q 1856 2765 1504 2765 
Q 1171 2765 966 2493 
Q 762 2221 762 1747 
Q 762 928 1101 435 
Q 1318 115 1677 115 
Q 2029 115 2230 432 
Q 2432 749 2432 1306 
z
" transform="scale(0.015625)"/>
       <path id="STIXGeneral-Regular-20" transform="scale(0.015625)"/>
       <path id="STIXGeneral-Regular-28" d="M 1946 -1030 
L 1869 -1133 
Q 1126 -710 716 32 
Q 307 774 307 1613 
Q 307 3386 1888 4326 
L 1946 4224 
Q 1293 3667 1075 3126 
Q 858 2586 858 1632 
Q 858 685 1082 96 
Q 1306 -493 1946 -1030 
z
" transform="scale(0.015625)"/>
       <path id="STIXGeneral-Regular-58" d="M 4506 0 
L 2611 0 
L 2611 122 
L 2778 134 
Q 3098 154 3098 320 
Q 3098 461 2771 947 
L 2163 1850 
L 1402 896 
Q 1062 474 1062 326 
Q 1062 230 1168 185 
Q 1274 141 1549 122 
L 1549 0 
L 64 0 
L 64 122 
Q 314 147 470 268 
Q 627 390 992 851 
L 1990 2099 
L 1312 3091 
Q 864 3744 665 3913 
Q 467 4083 141 4115 
L 141 4237 
L 2067 4237 
L 2067 4115 
L 1882 4109 
Q 1734 4102 1660 4064 
Q 1587 4026 1587 3923 
Q 1587 3885 1596 3843 
Q 1606 3802 1635 3744 
Q 1664 3686 1689 3638 
Q 1715 3590 1769 3507 
Q 1824 3424 1862 3366 
Q 1901 3309 1984 3190 
Q 2067 3072 2118 2995 
L 2400 2586 
L 3117 3482 
Q 3373 3795 3373 3910 
Q 3373 4019 3283 4064 
Q 3194 4109 2938 4115 
L 2938 4237 
L 4454 4237 
L 4454 4115 
Q 4147 4096 3968 3977 
Q 3789 3859 3482 3482 
L 2566 2349 
L 3795 595 
Q 3981 326 4115 240 
Q 4250 154 4506 122 
L 4506 0 
z
" transform="scale(0.015625)"/>
       <path id="STIXGeneral-Regular-29" d="M 186 4224 
L 262 4326 
Q 992 3891 1408 3148 
Q 1824 2406 1824 1581 
Q 1824 -166 243 -1133 
L 186 -1030 
Q 845 -486 1059 54 
Q 1274 595 1274 1562 
Q 1274 2534 1059 3120 
Q 845 3706 186 4224 
z
" transform="scale(0.015625)"/>
      </defs>
      <use xlink:href="#STIXGeneral-Regular-50"/>
      <use xlink:href="#STIXGeneral-Regular-72" x="55.699997"/>
      <use xlink:href="#STIXGeneral-Regular-65" x="88.999985"/>
      <use xlink:href="#STIXGeneral-Regular-64" x="133.399979"/>
      <use xlink:href="#STIXGeneral-Regular-69" x="183.399963"/>
      <use xlink:href="#STIXGeneral-Regular-63" x="211.199951"/>
      <use xlink:href="#STIXGeneral-Regular-74" x="255.599945"/>
      <use xlink:href="#STIXGeneral-Regular-6f" x="283.399933"/>
      <use xlink:href="#STIXGeneral-Regular-72" x="333.399918"/>
      <use xlink:href="#STIXGeneral-Regular-20" x="366.699905"/>
      <use xlink:href="#STIXGeneral-Regular-28" x="391.69989"/>
      <use xlink:href="#STIXGeneral-Regular-58" x="424.999878"/>
      <use xlink:href="#STIXGeneral-Regular-29" x="497.19986"/>
     </g>
    </g>
   </g>
   <g id="matplotlib.axis_2">
    <g id="ytick_1">
     <g id="line2d_15">
      <path d="M 61.36 314.19952 
L 516.09952 314.19952 
" clip-path="url(#p62a7e72d03)" style="fill: none; stroke: #ffffff; stroke-width: 0.8; stroke-linecap: round"/>
     </g>
     <g id="line2d_16"/>
     <g id="text_9">
      <!-- $\mathdefault{−10.0}$ -->
      <g style="fill: #262626" transform="translate(23.7 318.980301) scale(0.14 -0.14)">
       <defs>
        <path id="STIXGeneral-Regular-2e" d="M 1158 275 
Q 1158 134 1052 32 
Q 947 -70 800 -70 
Q 653 -70 550 32 
Q 448 134 448 281 
Q 448 429 553 534 
Q 659 640 806 640 
Q 947 640 1052 531 
Q 1158 422 1158 275 
z
" transform="scale(0.015625)"/>
       </defs>
       <use xlink:href="#STIXGeneral-Regular-2212" transform="translate(0 0.40625)"/>
       <use xlink:href="#STIXGeneral-Regular-31" transform="translate(68.499985 0.40625)"/>
       <use xlink:href="#STIXGeneral-Regular-30" transform="translate(118.499969 0.40625)"/>
       <use xlink:href="#STIXGeneral-Regular-2e" transform="translate(168.499954 0.40625)"/>
       <use xlink:href="#STIXGeneral-Regular-30" transform="translate(193.499939 0.40625)"/>
      </g>
     </g>
    </g>
    <g id="ytick_2">
     <g id="line2d_17">
      <path d="M 61.36 281.969296 
L 516.09952 281.969296 
" clip-path="url(#p62a7e72d03)" style="fill: none; stroke: #ffffff; stroke-width: 0.8; stroke-linecap: round"/>
     </g>
     <g id="line2d_18"/>
     <g id="text_10">
      <!-- $\mathdefault{−7.5}$ -->
      <g style="fill: #262626" transform="translate(30.7 286.750077) scale(0.14 -0.14)">
       <defs>
        <path id="STIXGeneral-Regular-37" d="M 2874 4134 
L 1517 -51 
L 1101 -51 
L 2368 3763 
L 992 3763 
Q 717 3763 582 3667 
Q 448 3571 243 3238 
L 128 3296 
L 512 4237 
L 2874 4237 
L 2874 4134 
z
" transform="scale(0.015625)"/>
        <path id="STIXGeneral-Regular-35" d="M 2803 4358 
L 2573 3814 
Q 2534 3731 2400 3731 
L 1158 3731 
L 902 3187 
Q 1606 3053 1920 2896 
Q 2234 2739 2502 2368 
Q 2726 2061 2726 1555 
Q 2726 1094 2576 780 
Q 2426 467 2099 224 
Q 1664 -90 1011 -90 
Q 646 -90 422 19 
Q 198 128 198 307 
Q 198 550 486 550 
Q 717 550 960 352 
Q 1210 147 1414 147 
Q 1747 147 2012 480 
Q 2278 813 2278 1229 
Q 2278 1843 1850 2189 
Q 1293 2637 486 2637 
Q 410 2637 410 2688 
L 416 2720 
L 1114 4237 
L 2438 4237 
Q 2547 4237 2608 4269 
Q 2669 4301 2746 4403 
L 2803 4358 
z
" transform="scale(0.015625)"/>
       </defs>
       <use xlink:href="#STIXGeneral-Regular-2212" transform="translate(0 0.203125)"/>
       <use xlink:href="#STIXGeneral-Regular-37" transform="translate(68.499985 0.203125)"/>
       <use xlink:href="#STIXGeneral-Regular-2e" transform="translate(118.499969 0.203125)"/>
       <use xlink:href="#STIXGeneral-Regular-35" transform="translate(143.499954 0.203125)"/>
      </g>
     </g>
    </g>
    <g id="ytick_3">
     <g id="line2d_19">
      <path d="M 61.36 249.739071 
L 516.09952 249.739071 
" clip-path="url(#p62a7e72d03)" style="fill: none; stroke: #ffffff; stroke-width: 0.8; stroke-linecap: round"/>
     </g>
     <g id="line2d_20"/>
     <g id="text_11">
      <!-- $\mathdefault{−5.0}$ -->
      <g style="fill: #262626" transform="translate(30.7 254.519852) scale(0.14 -0.14)">
       <use xlink:href="#STIXGeneral-Regular-2212" transform="translate(0 0.203125)"/>
       <use xlink:href="#STIXGeneral-Regular-35" transform="translate(68.499985 0.203125)"/>
       <use xlink:href="#STIXGeneral-Regular-2e" transform="translate(118.499969 0.203125)"/>
       <use xlink:href="#STIXGeneral-Regular-30" transform="translate(143.499954 0.203125)"/>
      </g>
     </g>
    </g>
    <g id="ytick_4">
     <g id="line2d_21">
      <path d="M 61.36 217.508847 
L 516.09952 217.508847 
" clip-path="url(#p62a7e72d03)" style="fill: none; stroke: #ffffff; stroke-width: 0.8; stroke-linecap: round"/>
     </g>
     <g id="line2d_22"/>
     <g id="text_12">
      <!-- $\mathdefault{−2.5}$ -->
      <g style="fill: #262626" transform="translate(30.7 222.289628) scale(0.14 -0.14)">
       <use xlink:href="#STIXGeneral-Regular-2212" transform="translate(0 0.203125)"/>
       <use xlink:href="#STIXGeneral-Regular-32" transform="translate(68.499985 0.203125)"/>
       <use xlink:href="#STIXGeneral-Regular-2e" transform="translate(118.499969 0.203125)"/>
       <use xlink:href="#STIXGeneral-Regular-35" transform="translate(143.499954 0.203125)"/>
      </g>
     </g>
    </g>
    <g id="ytick_5">
     <g id="line2d_23">
      <path d="M 61.36 185.278622 
L 516.09952 185.278622 
" clip-path="url(#p62a7e72d03)" style="fill: none; stroke: #ffffff; stroke-width: 0.8; stroke-linecap: round"/>
     </g>
     <g id="line2d_24"/>
     <g id="text_13">
      <!-- $\mathdefault{0.0}$ -->
      <g style="fill: #262626" transform="translate(40.36 190.059403) scale(0.14 -0.14)">
       <use xlink:href="#STIXGeneral-Regular-30" transform="translate(0 0.40625)"/>
       <use xlink:href="#STIXGeneral-Regular-2e" transform="translate(49.999985 0.40625)"/>
       <use xlink:href="#STIXGeneral-Regular-30" transform="translate(74.999969 0.40625)"/>
      </g>
     </g>
    </g>
    <g id="ytick_6">
     <g id="line2d_25">
      <path d="M 61.36 153.048398 
L 516.09952 153.048398 
" clip-path="url(#p62a7e72d03)" style="fill: none; stroke: #ffffff; stroke-width: 0.8; stroke-linecap: round"/>
     </g>
     <g id="line2d_26"/>
     <g id="text_14">
      <!-- $\mathdefault{2.5}$ -->
      <g style="fill: #262626" transform="translate(40.36 157.829179) scale(0.14 -0.14)">
       <use xlink:href="#STIXGeneral-Regular-32" transform="translate(0 0.203125)"/>
       <use xlink:href="#STIXGeneral-Regular-2e" transform="translate(49.999985 0.203125)"/>
       <use xlink:href="#STIXGeneral-Regular-35" transform="translate(74.999969 0.203125)"/>
      </g>
     </g>
    </g>
    <g id="ytick_7">
     <g id="line2d_27">
      <path d="M 61.36 120.818173 
L 516.09952 120.818173 
" clip-path="url(#p62a7e72d03)" style="fill: none; stroke: #ffffff; stroke-width: 0.8; stroke-linecap: round"/>
     </g>
     <g id="line2d_28"/>
     <g id="text_15">
      <!-- $\mathdefault{5.0}$ -->
      <g style="fill: #262626" transform="translate(40.36 125.598955) scale(0.14 -0.14)">
       <use xlink:href="#STIXGeneral-Regular-35" transform="translate(0 0.203125)"/>
       <use xlink:href="#STIXGeneral-Regular-2e" transform="translate(49.999985 0.203125)"/>
       <use xlink:href="#STIXGeneral-Regular-30" transform="translate(74.999969 0.203125)"/>
      </g>
     </g>
    </g>
    <g id="ytick_8">
     <g id="line2d_29">
      <path d="M 61.36 88.587949 
L 516.09952 88.587949 
" clip-path="url(#p62a7e72d03)" style="fill: none; stroke: #ffffff; stroke-width: 0.8; stroke-linecap: round"/>
     </g>
     <g id="line2d_30"/>
     <g id="text_16">
      <!-- $\mathdefault{7.5}$ -->
      <g style="fill: #262626" transform="translate(40.36 93.36873) scale(0.14 -0.14)">
       <use xlink:href="#STIXGeneral-Regular-37" transform="translate(0 0.203125)"/>
       <use xlink:href="#STIXGeneral-Regular-2e" transform="translate(49.999985 0.203125)"/>
       <use xlink:href="#STIXGeneral-Regular-35" transform="translate(74.999969 0.203125)"/>
      </g>
     </g>
    </g>
    <g id="ytick_9">
     <g id="line2d_31">
      <path d="M 61.36 56.357724 
L 516.09952 56.357724 
" clip-path="url(#p62a7e72d03)" style="fill: none; stroke: #ffffff; stroke-width: 0.8; stroke-linecap: round"/>
     </g>
     <g id="line2d_32"/>
     <g id="text_17">
      <!-- $\mathdefault{10.0}$ -->
      <g style="fill: #262626" transform="translate(33.36 61.138506) scale(0.14 -0.14)">
       <use xlink:href="#STIXGeneral-Regular-31" transform="translate(0 0.40625)"/>
       <use xlink:href="#STIXGeneral-Regular-30" transform="translate(49.999985 0.40625)"/>
       <use xlink:href="#STIXGeneral-Regular-2e" transform="translate(99.999969 0.40625)"/>
       <use xlink:href="#STIXGeneral-Regular-30" transform="translate(124.999954 0.40625)"/>
      </g>
     </g>
    </g>
    <g id="ytick_10">
     <g id="line2d_33">
      <path d="M 61.36 24.1275 
L 516.09952 24.1275 
" clip-path="url(#p62a7e72d03)" style="fill: none; stroke: #ffffff; stroke-width: 0.8; stroke-linecap: round"/>
     </g>
     <g id="line2d_34"/>
     <g id="text_18">
      <!-- $\mathdefault{12.5}$ -->
      <g style="fill: #262626" transform="translate(33.36 28.908281) scale(0.14 -0.14)">
       <use xlink:href="#STIXGeneral-Regular-31" transform="translate(0 0.203125)"/>
       <use xlink:href="#STIXGeneral-Regular-32" transform="translate(49.999985 0.203125)"/>
       <use xlink:href="#STIXGeneral-Regular-2e" transform="translate(99.999969 0.203125)"/>
       <use xlink:href="#STIXGeneral-Regular-35" transform="translate(124.999954 0.203125)"/>
      </g>
     </g>
    </g>
    <g id="text_19">
     <!-- Outcome (Y) -->
     <g style="fill: #262626" transform="translate(17.444531 208.943979) rotate(-90) scale(0.15 -0.15)">
      <defs>
       <path id="STIXGeneral-Regular-4f" d="M 4403 2118 
Q 4403 1133 3820 521 
Q 3238 -90 2310 -90 
Q 1376 -90 797 524 
Q 218 1139 218 2138 
Q 218 3110 797 3718 
Q 1376 4326 2310 4326 
Q 3245 4326 3824 3702 
Q 4403 3078 4403 2118 
z
M 3674 2157 
Q 3674 2701 3520 3133 
Q 3366 3565 3091 3795 
Q 2733 4096 2304 4096 
Q 1760 4096 1389 3667 
Q 1184 3437 1065 3011 
Q 947 2586 947 2125 
Q 947 960 1523 429 
Q 1837 141 2317 141 
Q 2816 141 3142 448 
Q 3674 960 3674 2157 
z
" transform="scale(0.015625)"/>
       <path id="STIXGeneral-Regular-75" d="M 3072 320 
L 3072 230 
Q 2573 96 2195 -58 
L 2163 -38 
L 2163 486 
L 2150 486 
Q 1747 -64 1235 -64 
Q 870 -64 662 160 
Q 454 384 454 755 
L 454 2362 
Q 454 2598 371 2688 
Q 288 2778 58 2790 
L 58 2880 
L 992 2880 
L 992 813 
Q 992 595 1123 451 
Q 1254 307 1446 307 
Q 1760 307 1984 506 
Q 2067 582 2099 649 
Q 2131 717 2131 877 
L 2131 2355 
Q 2131 2605 2041 2678 
Q 1952 2752 1658 2771 
L 1658 2880 
L 2669 2880 
L 2669 685 
Q 2669 461 2742 390 
Q 2816 320 3034 320 
L 3072 320 
z
" transform="scale(0.015625)"/>
       <path id="STIXGeneral-Regular-6d" d="M 4960 0 
L 3565 0 
L 3565 96 
Q 3834 122 3907 208 
Q 3981 294 3981 576 
L 3981 1894 
Q 3981 2278 3869 2444 
Q 3757 2611 3488 2611 
Q 3264 2611 3107 2521 
Q 2950 2432 2803 2221 
L 2803 608 
Q 2803 301 2896 201 
Q 2989 102 3264 96 
L 3264 0 
L 1830 0 
L 1830 96 
Q 2112 115 2189 188 
Q 2266 262 2266 550 
L 2266 1901 
Q 2266 2611 1850 2611 
Q 1670 2611 1468 2531 
Q 1267 2451 1171 2336 
Q 1088 2240 1088 2227 
L 1088 448 
Q 1088 243 1177 176 
Q 1267 109 1523 96 
L 1523 0 
L 102 0 
L 102 96 
Q 371 102 460 195 
Q 550 288 550 563 
L 550 2150 
Q 550 2387 499 2480 
Q 448 2573 326 2573 
Q 230 2573 122 2547 
L 122 2656 
Q 557 2778 1011 2944 
L 1062 2925 
L 1062 2451 
L 1075 2451 
Q 1363 2752 1584 2848 
Q 1805 2944 2054 2944 
Q 2560 2944 2733 2406 
Q 3232 2944 3776 2944 
Q 4518 2944 4518 1792 
L 4518 493 
Q 4518 282 4582 202 
Q 4646 122 4794 109 
L 4960 96 
L 4960 0 
z
" transform="scale(0.015625)"/>
       <path id="STIXGeneral-Regular-59" d="M 4499 4237 
L 4499 4115 
Q 4218 4090 4054 3955 
Q 3891 3821 3616 3398 
L 2669 1939 
L 2669 710 
Q 2669 346 2790 243 
Q 2912 141 3328 122 
L 3328 0 
L 1370 0 
L 1370 122 
Q 1805 154 1910 259 
Q 2016 365 2016 787 
L 2016 1882 
L 1178 3110 
Q 742 3750 556 3926 
Q 371 4102 141 4115 
L 141 4237 
L 1926 4237 
L 1926 4115 
L 1773 4109 
Q 1472 4102 1472 3942 
Q 1472 3808 1587 3642 
L 2522 2227 
L 3450 3648 
Q 3539 3782 3539 3917 
Q 3533 4026 3440 4067 
Q 3347 4109 3104 4115 
L 3104 4237 
L 4499 4237 
z
" transform="scale(0.015625)"/>
      </defs>
      <use xlink:href="#STIXGeneral-Regular-4f"/>
      <use xlink:href="#STIXGeneral-Regular-75" x="72.199982"/>
      <use xlink:href="#STIXGeneral-Regular-74" x="122.199966"/>
      <use xlink:href="#STIXGeneral-Regular-63" x="149.999954"/>
      <use xlink:href="#STIXGeneral-Regular-6f" x="194.399948"/>
      <use xlink:href="#STIXGeneral-Regular-6d" x="244.399933"/>
      <use xlink:href="#STIXGeneral-Regular-65" x="322.199921"/>
      <use xlink:href="#STIXGeneral-Regular-20" x="366.599915"/>
      <use xlink:href="#STIXGeneral-Regular-28" x="391.599899"/>
      <use xlink:href="#STIXGeneral-Regular-59" x="424.899887"/>
      <use xlink:href="#STIXGeneral-Regular-29" x="497.099869"/>
     </g>
    </g>
   </g>
   <g id="PolyCollection_1">
    <defs>
     <path id="m5685f5793a" d="M 127.623083 -124.886373 
L 127.623083 -106.401915 
L 128.552233 -107.244003 
L 130.410534 -108.08591 
L 132.268835 -108.927635 
L 134.127135 -109.769179 
L 135.985436 -110.610541 
L 137.843737 -111.451723 
L 139.702037 -112.292722 
L 141.560338 -113.133541 
L 143.418639 -113.974178 
L 145.276939 -114.814634 
L 147.13524 -115.654909 
L 148.993541 -116.495003 
L 150.851841 -117.334915 
L 152.710142 -118.174645 
L 154.568443 -119.014195 
L 156.426743 -119.853563 
L 158.285044 -120.69275 
L 160.143345 -121.531755 
L 162.001645 -122.37058 
L 163.859946 -123.209223 
L 165.718247 -124.047684 
L 167.576547 -124.885965 
L 169.434848 -125.724064 
L 171.293149 -126.561981 
L 173.151449 -127.399718 
L 175.00975 -128.237273 
L 176.868051 -129.074647 
L 178.726351 -129.924097 
L 180.584652 -130.76442 
L 182.442953 -131.603892 
L 184.301253 -132.442424 
L 186.159554 -133.279811 
L 188.017855 -134.115426 
L 189.876155 -134.948221 
L 191.734456 -135.781555 
L 193.592757 -136.614034 
L 195.451057 -137.445474 
L 197.309358 -138.275772 
L 199.167659 -139.104833 
L 201.025959 -139.933327 
L 202.88426 -140.762113 
L 204.742561 -141.592618 
L 206.600861 -142.421777 
L 208.459162 -143.249928 
L 210.317463 -144.077414 
L 212.175763 -144.905792 
L 214.034064 -145.734894 
L 215.892365 -146.562795 
L 217.750665 -147.388437 
L 219.608966 -148.213885 
L 221.467267 -149.03899 
L 223.325567 -149.865578 
L 225.183868 -150.690925 
L 227.042169 -151.515343 
L 228.900469 -152.339227 
L 230.75877 -153.167203 
L 232.617071 -153.99383 
L 234.475371 -154.81742 
L 236.333672 -155.638652 
L 238.191973 -156.45947 
L 240.050273 -157.279771 
L 241.908574 -158.099129 
L 243.766875 -158.915514 
L 245.625175 -159.728499 
L 247.483476 -160.538981 
L 249.341777 -161.34827 
L 251.200077 -162.153579 
L 253.058378 -162.954929 
L 254.916679 -163.753677 
L 256.774979 -164.548582 
L 258.63328 -165.340262 
L 260.491581 -166.130803 
L 262.349881 -166.923306 
L 264.208182 -167.718448 
L 266.066483 -168.516595 
L 267.924783 -169.316498 
L 269.783084 -170.115564 
L 271.641385 -170.913825 
L 273.499685 -171.710968 
L 275.357986 -172.507624 
L 277.216287 -173.303544 
L 279.074587 -174.09652 
L 280.932888 -174.88455 
L 282.791189 -175.667062 
L 284.649489 -176.445862 
L 286.50779 -177.221053 
L 288.366091 -177.992896 
L 290.224391 -178.762222 
L 292.082692 -179.530634 
L 293.940993 -180.289966 
L 295.799293 -181.047965 
L 297.657594 -181.804678 
L 299.515895 -182.5601 
L 301.374195 -183.314238 
L 303.232496 -184.067116 
L 305.090797 -184.818241 
L 306.949097 -185.566388 
L 308.807398 -186.314519 
L 310.665699 -187.062652 
L 312.523999 -187.810988 
L 314.3823 -188.558307 
L 316.240601 -189.303542 
L 318.098901 -190.048172 
L 319.957202 -190.793031 
L 321.815503 -191.538393 
L 323.673803 -192.284687 
L 325.532104 -193.03139 
L 327.390405 -193.780603 
L 329.248705 -194.524439 
L 331.107006 -195.268333 
L 332.965307 -196.008751 
L 334.823607 -196.750302 
L 336.681908 -197.493432 
L 338.540209 -198.236888 
L 340.398509 -198.977885 
L 342.25681 -199.715485 
L 344.115111 -200.448419 
L 345.973411 -201.177213 
L 347.831712 -201.902643 
L 349.690013 -202.624198 
L 351.548313 -203.340463 
L 353.406614 -204.054469 
L 355.264915 -204.76783 
L 357.123215 -205.483451 
L 358.981516 -206.199744 
L 360.839817 -206.916917 
L 362.698117 -207.633167 
L 364.556418 -208.347981 
L 366.414719 -209.060126 
L 368.273019 -209.774961 
L 370.13132 -210.498889 
L 371.989621 -211.224128 
L 373.847921 -211.943007 
L 375.706222 -212.655574 
L 377.564523 -213.360788 
L 379.422823 -214.058295 
L 381.281124 -214.750045 
L 383.139425 -215.436514 
L 384.997725 -216.118235 
L 386.856026 -216.795508 
L 388.714327 -217.465136 
L 390.572627 -218.127908 
L 392.430928 -218.785283 
L 394.289229 -219.443007 
L 396.147529 -220.107046 
L 398.00583 -220.771432 
L 399.864131 -221.435701 
L 401.722431 -222.099957 
L 403.580732 -222.764318 
L 405.439033 -223.428917 
L 407.297333 -224.093846 
L 409.155634 -224.758635 
L 411.013935 -225.423341 
L 412.872235 -226.088193 
L 414.730536 -226.753297 
L 416.588837 -227.418771 
L 418.447137 -228.084742 
L 420.305438 -228.751606 
L 422.163739 -229.420398 
L 424.022039 -230.08925 
L 425.88034 -230.757577 
L 427.738641 -231.422954 
L 429.596941 -232.084556 
L 431.455242 -232.750909 
L 433.313543 -233.417591 
L 435.171843 -234.082678 
L 437.030144 -234.745917 
L 438.888445 -235.407052 
L 440.746746 -236.06583 
L 442.605046 -236.722044 
L 444.463347 -237.375904 
L 446.321648 -238.029954 
L 448.179948 -238.690665 
L 450.038249 -239.351522 
L 451.89655 -240.012527 
L 453.75485 -240.673677 
L 455.613151 -241.334975 
L 457.471452 -241.996419 
L 459.329752 -242.65801 
L 461.188053 -243.319748 
L 463.046354 -243.981633 
L 464.904654 -244.643664 
L 466.762955 -245.305842 
L 468.621256 -245.968167 
L 470.479556 -246.630638 
L 472.337857 -247.293256 
L 474.196158 -247.956021 
L 476.054458 -248.618933 
L 477.912759 -249.281992 
L 479.77106 -249.945197 
L 481.62936 -250.608549 
L 483.487661 -251.272047 
L 485.345962 -251.935693 
L 487.204262 -252.599485 
L 489.062563 -253.263424 
L 490.920864 -253.927509 
L 492.779164 -254.591742 
L 494.637465 -255.256121 
L 496.495766 -255.920647 
L 496.495766 -276.706321 
L 496.495766 -276.706321 
L 494.637465 -275.878814 
L 492.779164 -275.051419 
L 490.920864 -274.224137 
L 489.062563 -273.396967 
L 487.204262 -272.56991 
L 485.345962 -271.742965 
L 483.487661 -270.916133 
L 481.62936 -270.089413 
L 479.77106 -269.262806 
L 477.912759 -268.436311 
L 476.054458 -267.609929 
L 474.196158 -266.783659 
L 472.337857 -265.957501 
L 470.479556 -265.131456 
L 468.621256 -264.305524 
L 466.762955 -263.479704 
L 464.904654 -262.653997 
L 463.046354 -261.828402 
L 461.188053 -261.002919 
L 459.329752 -260.177549 
L 457.471452 -259.352292 
L 455.613151 -258.527147 
L 453.75485 -257.702114 
L 451.89655 -256.877194 
L 450.038249 -256.052387 
L 448.179948 -255.227692 
L 446.321648 -254.403109 
L 444.463347 -253.585523 
L 442.605046 -252.767764 
L 440.746746 -251.947736 
L 438.888445 -251.125295 
L 437.030144 -250.30014 
L 435.171843 -249.472499 
L 433.313543 -248.642711 
L 431.455242 -247.811101 
L 429.596941 -246.979501 
L 427.738641 -246.152931 
L 425.88034 -245.322306 
L 424.022039 -244.488617 
L 422.163739 -243.65442 
L 420.305438 -242.82028 
L 418.447137 -241.987434 
L 416.588837 -241.155318 
L 414.730536 -240.323775 
L 412.872235 -239.492821 
L 411.013935 -238.662473 
L 409.155634 -237.832744 
L 407.297333 -237.003208 
L 405.439033 -236.173981 
L 403.580732 -235.344657 
L 401.722431 -234.515403 
L 399.864131 -233.686438 
L 398.00583 -232.857973 
L 396.147529 -232.030216 
L 394.289229 -231.204408 
L 392.430928 -230.387617 
L 390.572627 -229.57398 
L 388.714327 -228.757384 
L 386.856026 -227.936505 
L 384.997725 -227.110724 
L 383.139425 -226.283313 
L 381.281124 -225.454101 
L 379.422823 -224.622469 
L 377.564523 -223.788037 
L 375.706222 -222.948585 
L 373.847921 -222.104581 
L 371.989621 -221.257547 
L 370.13132 -220.407678 
L 368.273019 -219.562455 
L 366.414719 -218.729487 
L 364.556418 -217.902673 
L 362.698117 -217.076712 
L 360.839817 -216.253079 
L 358.981516 -215.431775 
L 357.123215 -214.613647 
L 355.264915 -213.798686 
L 353.406614 -212.987776 
L 351.548313 -212.178922 
L 349.690013 -211.370635 
L 347.831712 -210.559617 
L 345.973411 -209.747867 
L 344.115111 -208.935541 
L 342.25681 -208.121806 
L 340.398509 -207.306524 
L 338.540209 -206.491105 
L 336.681908 -205.676363 
L 334.823607 -204.864527 
L 332.965307 -204.057431 
L 331.107006 -203.254972 
L 329.248705 -202.45329 
L 327.390405 -201.654745 
L 325.532104 -200.853223 
L 323.673803 -200.056567 
L 321.815503 -199.263798 
L 319.957202 -198.475136 
L 318.098901 -197.690406 
L 316.240601 -196.910306 
L 314.3823 -196.133106 
L 312.523999 -195.357468 
L 310.665699 -194.58486 
L 308.807398 -193.816031 
L 306.949097 -193.050699 
L 305.090797 -192.289101 
L 303.232496 -191.528352 
L 301.374195 -190.770148 
L 299.515895 -190.015149 
L 297.657594 -189.263484 
L 295.799293 -188.515264 
L 293.940993 -187.770589 
L 292.082692 -187.029427 
L 290.224391 -186.283413 
L 288.366091 -185.54046 
L 286.50779 -184.799108 
L 284.649489 -184.058341 
L 282.791189 -183.317956 
L 280.932888 -182.577781 
L 279.074587 -181.835967 
L 277.216287 -181.093103 
L 275.357986 -180.35092 
L 273.499685 -179.611962 
L 271.641385 -178.876467 
L 269.783084 -178.143322 
L 267.924783 -177.412437 
L 266.066483 -176.683848 
L 264.208182 -175.959958 
L 262.349881 -175.241509 
L 260.491581 -174.52793 
L 258.63328 -173.818092 
L 256.774979 -173.109555 
L 254.916679 -172.400676 
L 253.058378 -171.690995 
L 251.200077 -170.980565 
L 249.341777 -170.268846 
L 247.483476 -169.55586 
L 245.625175 -168.844559 
L 243.766875 -168.133056 
L 241.908574 -167.420775 
L 240.050273 -166.709004 
L 238.191973 -165.998806 
L 236.333672 -165.289624 
L 234.475371 -164.581244 
L 232.617071 -163.872777 
L 230.75877 -163.163201 
L 228.900469 -162.453888 
L 227.042169 -161.749261 
L 225.183868 -161.045857 
L 223.325567 -160.343271 
L 221.467267 -159.641626 
L 219.608966 -158.942663 
L 217.750665 -158.2448 
L 215.892365 -157.548004 
L 214.034064 -156.849958 
L 212.175763 -156.152369 
L 210.317463 -155.456967 
L 208.459162 -154.763375 
L 206.600861 -154.070305 
L 204.742561 -153.377319 
L 202.88426 -152.683963 
L 201.025959 -151.992972 
L 199.167659 -151.303474 
L 197.309358 -150.61462 
L 195.451057 -149.925629 
L 193.592757 -149.236527 
L 191.734456 -148.547332 
L 189.876155 -147.858187 
L 188.017855 -147.17053 
L 186.159554 -146.481438 
L 184.301253 -145.791822 
L 182.442953 -145.102467 
L 180.584652 -144.413468 
L 178.726351 -143.724873 
L 176.868051 -143.030409 
L 175.00975 -142.346145 
L 173.151449 -141.662825 
L 171.293149 -140.980448 
L 169.434848 -140.299014 
L 167.576547 -139.618523 
L 165.718247 -138.938975 
L 163.859946 -138.260371 
L 162.001645 -137.58271 
L 160.143345 -136.905993 
L 158.285044 -136.230218 
L 156.426743 -135.555387 
L 154.568443 -134.881499 
L 152.710142 -134.208555 
L 150.851841 -133.536554 
L 148.993541 -132.865496 
L 147.13524 -132.195381 
L 145.276939 -131.526209 
L 143.418639 -130.857981 
L 141.560338 -130.190696 
L 139.702037 -129.524354 
L 137.843737 -128.858956 
L 135.985436 -128.1945 
L 134.127135 -127.530989 
L 132.268835 -126.86842 
L 130.410534 -126.206794 
L 128.552233 -125.546112 
L 127.623083 -124.886373 
z
" style="stroke: #da70d6; stroke-opacity: 0.5; stroke-width: 0.8"/>
    </defs>
    <g clip-path="url(#p62a7e72d03)">
     <use xlink:href="#m5685f5793a" x="0" y="353.99952" style="fill: #da70d6; fill-opacity: 0.5; stroke: #da70d6; stroke-opacity: 0.5; stroke-width: 0.8"/>
    </g>
   </g>
   <g id="PolyCollection_2">
    <defs>
     <path id="mdd8cf9d6ca" d="M 127.623083 -154.746927 
L 127.623083 -79.385524 
L 128.552233 -80.136904 
L 130.410534 -80.887292 
L 132.268835 -81.636686 
L 134.127135 -82.385088 
L 135.985436 -83.132497 
L 137.843737 -83.878914 
L 139.702037 -84.624337 
L 141.560338 -85.368767 
L 143.418639 -86.112205 
L 145.276939 -86.85465 
L 147.13524 -87.596102 
L 148.993541 -88.336561 
L 150.851841 -89.076027 
L 152.710142 -89.8145 
L 154.568443 -90.551981 
L 156.426743 -91.288468 
L 158.285044 -92.023963 
L 160.143345 -92.758465 
L 162.001645 -93.491974 
L 163.859946 -94.22449 
L 165.718247 -94.956013 
L 167.576547 -95.686544 
L 169.434848 -96.416082 
L 171.293149 -97.144626 
L 173.151449 -97.872178 
L 175.00975 -98.598737 
L 176.868051 -99.324303 
L 178.726351 -100.078896 
L 180.584652 -100.831179 
L 182.442953 -101.570405 
L 184.301253 -102.297042 
L 186.159554 -103.030174 
L 188.017855 -103.717737 
L 189.876155 -104.445131 
L 191.734456 -105.054147 
L 193.592757 -105.658059 
L 195.451057 -106.273709 
L 197.309358 -106.8985 
L 199.167659 -107.529828 
L 201.025959 -108.179509 
L 202.88426 -108.879595 
L 204.742561 -109.648622 
L 206.600861 -110.41217 
L 208.459162 -111.17555 
L 210.317463 -111.944058 
L 212.175763 -112.671903 
L 214.034064 -113.467412 
L 215.892365 -114.284089 
L 217.750665 -115.090298 
L 219.608966 -115.906573 
L 221.467267 -116.764045 
L 223.325567 -117.62399 
L 225.183868 -118.51209 
L 227.042169 -119.376226 
L 228.900469 -120.190079 
L 230.75877 -120.996611 
L 232.617071 -121.796275 
L 234.475371 -122.616257 
L 236.333672 -123.508895 
L 238.191973 -124.359116 
L 240.050273 -125.182957 
L 241.908574 -126.024687 
L 243.766875 -126.86826 
L 245.625175 -127.726092 
L 247.483476 -128.567402 
L 249.341777 -129.367245 
L 251.200077 -130.158881 
L 253.058378 -130.957692 
L 254.916679 -131.793019 
L 256.774979 -132.739426 
L 258.63328 -133.620859 
L 260.491581 -134.352955 
L 262.349881 -135.081601 
L 264.208182 -135.804228 
L 266.066483 -136.525764 
L 267.924783 -137.245303 
L 269.783084 -137.946735 
L 271.641385 -138.628333 
L 273.499685 -139.361023 
L 275.357986 -140.035241 
L 277.216287 -140.792517 
L 279.074587 -141.573339 
L 280.932888 -142.343446 
L 282.791189 -143.060767 
L 284.649489 -143.745259 
L 286.50779 -144.401824 
L 288.366091 -145.012843 
L 290.224391 -145.637671 
L 292.082692 -146.191943 
L 293.940993 -146.898831 
L 295.799293 -147.625119 
L 297.657594 -148.354979 
L 299.515895 -149.088723 
L 301.374195 -149.8266 
L 303.232496 -150.568796 
L 305.090797 -151.284343 
L 306.949097 -151.939928 
L 308.807398 -152.605348 
L 310.665699 -153.305267 
L 312.523999 -154.039443 
L 314.3823 -154.868635 
L 316.240601 -155.670623 
L 318.098901 -156.456611 
L 319.957202 -157.198822 
L 321.815503 -158.041943 
L 323.673803 -158.791765 
L 325.532104 -159.536552 
L 327.390405 -160.243991 
L 329.248705 -160.937504 
L 331.107006 -161.690579 
L 332.965307 -162.489559 
L 334.823607 -163.32844 
L 336.681908 -164.183234 
L 338.540209 -164.97558 
L 340.398509 -165.761603 
L 342.25681 -166.510021 
L 344.115111 -167.335481 
L 345.973411 -168.14079 
L 347.831712 -168.935141 
L 349.690013 -169.732097 
L 351.548313 -170.548366 
L 353.406614 -171.375314 
L 355.264915 -172.235837 
L 357.123215 -173.112684 
L 358.981516 -173.909636 
L 360.839817 -174.62617 
L 362.698117 -175.411457 
L 364.556418 -176.152923 
L 366.414719 -176.947361 
L 368.273019 -177.766498 
L 370.13132 -178.579664 
L 371.989621 -179.402411 
L 373.847921 -180.249645 
L 375.706222 -181.045331 
L 377.564523 -181.900269 
L 379.422823 -182.667669 
L 381.281124 -183.384056 
L 383.139425 -184.062027 
L 384.997725 -184.743469 
L 386.856026 -185.432154 
L 388.714327 -186.139948 
L 390.572627 -186.869787 
L 392.430928 -187.620197 
L 394.289229 -188.350196 
L 396.147529 -189.011687 
L 398.00583 -189.668672 
L 399.864131 -190.358321 
L 401.722431 -191.078956 
L 403.580732 -191.828992 
L 405.439033 -192.606932 
L 407.297333 -193.411486 
L 409.155634 -194.242683 
L 411.013935 -195.099548 
L 412.872235 -195.955678 
L 414.730536 -196.805406 
L 416.588837 -197.643413 
L 418.447137 -198.464323 
L 420.305438 -199.285338 
L 422.163739 -200.178135 
L 424.022039 -200.974342 
L 425.88034 -201.821988 
L 427.738641 -202.675223 
L 429.596941 -203.536848 
L 431.455242 -204.434576 
L 433.313543 -205.333961 
L 435.171843 -206.206637 
L 437.030144 -207.046796 
L 438.888445 -207.84852 
L 440.746746 -208.616882 
L 442.605046 -209.409033 
L 444.463347 -210.286472 
L 446.321648 -211.128889 
L 448.179948 -211.844868 
L 450.038249 -212.549575 
L 451.89655 -213.243011 
L 453.75485 -213.925175 
L 455.613151 -214.596067 
L 457.471452 -215.255687 
L 459.329752 -215.904036 
L 461.188053 -216.541113 
L 463.046354 -217.166918 
L 464.904654 -217.781452 
L 466.762955 -218.384714 
L 468.621256 -218.976704 
L 470.479556 -219.557422 
L 472.337857 -220.126869 
L 474.196158 -220.685043 
L 476.054458 -221.231947 
L 477.912759 -221.767578 
L 479.77106 -222.291938 
L 481.62936 -222.805026 
L 483.487661 -223.306842 
L 485.345962 -223.797386 
L 487.204262 -224.276659 
L 489.062563 -224.74466 
L 490.920864 -225.201389 
L 492.779164 -225.646847 
L 494.637465 -226.081033 
L 496.495766 -226.503947 
L 496.495766 -304.308326 
L 496.495766 -304.308326 
L 494.637465 -303.605897 
L 492.779164 -302.90058 
L 490.920864 -302.192374 
L 489.062563 -301.481279 
L 487.204262 -300.767296 
L 485.345962 -300.050425 
L 483.487661 -299.330665 
L 481.62936 -298.608016 
L 479.77106 -297.882479 
L 477.912759 -297.154054 
L 476.054458 -296.42274 
L 474.196158 -295.688537 
L 472.337857 -294.951446 
L 470.479556 -294.211467 
L 468.621256 -293.468599 
L 466.762955 -292.722842 
L 464.904654 -291.974197 
L 463.046354 -291.222664 
L 461.188053 -290.468242 
L 459.329752 -289.710931 
L 457.471452 -288.950732 
L 455.613151 -288.187644 
L 453.75485 -287.421668 
L 451.89655 -286.652804 
L 450.038249 -285.881051 
L 448.179948 -285.106409 
L 446.321648 -284.328879 
L 444.463347 -283.418918 
L 442.605046 -282.548597 
L 440.746746 -281.778899 
L 438.888445 -281.000857 
L 437.030144 -280.196128 
L 435.171843 -279.365184 
L 433.313543 -278.512418 
L 431.455242 -277.642128 
L 429.596941 -276.841403 
L 427.738641 -275.975367 
L 425.88034 -275.147083 
L 424.022039 -274.341876 
L 422.163739 -273.551272 
L 420.305438 -272.649089 
L 418.447137 -271.780684 
L 416.588837 -270.942893 
L 414.730536 -270.133027 
L 412.872235 -269.348692 
L 411.013935 -268.587655 
L 409.155634 -267.846659 
L 407.297333 -267.061944 
L 405.439033 -266.243927 
L 403.580732 -265.452189 
L 401.722431 -264.691312 
L 399.864131 -263.960856 
L 398.00583 -263.260471 
L 396.147529 -262.589901 
L 394.289229 -261.915862 
L 392.430928 -261.157775 
L 390.572627 -260.376387 
L 388.714327 -259.602786 
L 386.856026 -258.83697 
L 384.997725 -258.076126 
L 383.139425 -257.321457 
L 381.281124 -256.570825 
L 379.422823 -255.810536 
L 377.564523 -255.022733 
L 375.706222 -254.158396 
L 373.847921 -253.323416 
L 371.989621 -252.466372 
L 370.13132 -251.637934 
L 368.273019 -250.826604 
L 366.414719 -250.026385 
L 364.556418 -249.248669 
L 362.698117 -248.486646 
L 360.839817 -247.687418 
L 358.981516 -246.928681 
L 357.123215 -246.117132 
L 355.264915 -245.250737 
L 353.406614 -244.483291 
L 351.548313 -243.685711 
L 349.690013 -242.83531 
L 347.831712 -242.05154 
L 345.973411 -241.235038 
L 344.115111 -240.446989 
L 342.25681 -239.665442 
L 340.398509 -238.907936 
L 338.540209 -238.097753 
L 336.681908 -237.316998 
L 334.823607 -236.424465 
L 332.965307 -235.571466 
L 331.107006 -234.796823 
L 329.248705 -234.070976 
L 327.390405 -233.271053 
L 325.532104 -232.532838 
L 323.673803 -231.775483 
L 321.815503 -230.979161 
L 319.957202 -230.146411 
L 318.098901 -229.458354 
L 316.240601 -228.752084 
L 314.3823 -227.975545 
L 312.523999 -227.205201 
L 310.665699 -226.427641 
L 308.807398 -225.654192 
L 306.949097 -224.877899 
L 305.090797 -224.165118 
L 303.232496 -223.49001 
L 301.374195 -222.770219 
L 299.515895 -222.043558 
L 297.657594 -221.309744 
L 295.799293 -220.568372 
L 293.940993 -219.818915 
L 292.082692 -219.066868 
L 290.224391 -218.430996 
L 288.366091 -217.760643 
L 286.50779 -217.123271 
L 284.649489 -216.479391 
L 282.791189 -215.805615 
L 280.932888 -215.10066 
L 279.074587 -214.356391 
L 277.216287 -213.58934 
L 275.357986 -212.833456 
L 273.499685 -212.155122 
L 271.641385 -211.458007 
L 269.783084 -210.794154 
L 267.924783 -210.113809 
L 266.066483 -209.426717 
L 264.208182 -208.754128 
L 262.349881 -208.079974 
L 260.491581 -207.397363 
L 258.63328 -206.724556 
L 256.774979 -205.940057 
L 254.916679 -205.000175 
L 253.058378 -204.206589 
L 251.200077 -203.397799 
L 249.341777 -202.59069 
L 247.483476 -201.806075 
L 245.625175 -200.944319 
L 243.766875 -200.118785 
L 241.908574 -199.293877 
L 240.050273 -198.527787 
L 238.191973 -197.732392 
L 236.333672 -196.917704 
L 234.475371 -196.085027 
L 232.617071 -195.407065 
L 230.75877 -194.749489 
L 228.900469 -194.041749 
L 227.042169 -193.305639 
L 225.183868 -192.566439 
L 223.325567 -191.8265 
L 221.467267 -191.07193 
L 219.608966 -190.3265 
L 217.750665 -189.592679 
L 215.892365 -188.830939 
L 214.034064 -188.073562 
L 212.175763 -187.382138 
L 210.317463 -186.686313 
L 208.459162 -185.998148 
L 206.600861 -185.295822 
L 204.742561 -184.573842 
L 202.88426 -183.826596 
L 201.025959 -183.08505 
L 199.167659 -182.39064 
L 197.309358 -181.70496 
L 195.451057 -181.020799 
L 193.592757 -180.341314 
L 191.734456 -179.669664 
L 189.876155 -179.00164 
L 188.017855 -178.273412 
L 186.159554 -177.569192 
L 184.301253 -176.816969 
L 182.442953 -176.044284 
L 180.584652 -175.271894 
L 178.726351 -174.502 
L 176.868051 -173.739169 
L 175.00975 -173.026184 
L 173.151449 -172.313934 
L 171.293149 -171.60242 
L 169.434848 -170.891643 
L 167.576547 -170.181601 
L 165.718247 -169.472296 
L 163.859946 -168.763727 
L 162.001645 -168.055894 
L 160.143345 -167.348797 
L 158.285044 -166.642436 
L 156.426743 -165.936811 
L 154.568443 -165.231922 
L 152.710142 -164.52777 
L 150.851841 -163.824354 
L 148.993541 -163.121673 
L 147.13524 -162.419729 
L 145.276939 -161.718521 
L 143.418639 -161.018049 
L 141.560338 -160.318313 
L 139.702037 -159.619314 
L 137.843737 -158.92105 
L 135.985436 -158.223523 
L 134.127135 -157.526731 
L 132.268835 -156.830676 
L 130.410534 -156.135357 
L 128.552233 -155.440774 
L 127.623083 -154.746927 
z
" style="stroke: #ff7f50; stroke-opacity: 0.2; stroke-width: 0.8"/>
    </defs>
    <g clip-path="url(#p62a7e72d03)">
     <use xlink:href="#mdd8cf9d6ca" x="0" y="353.99952" style="fill: #ff7f50; fill-opacity: 0.2; stroke: #ff7f50; stroke-opacity: 0.2; stroke-width: 0.8"/>
    </g>
   </g>
   <g id="line2d_35">
    <defs>
     <path id="ma86b519c85" d="M 0 2 
C 0.530406 2 1.03916 1.789267 1.414214 1.414214 
C 1.789267 1.03916 2 0.530406 2 0 
C 2 -0.530406 1.789267 -1.03916 1.414214 -1.414214 
C 1.03916 -1.789267 0.530406 -2 0 -2 
C -0.530406 -2 -1.03916 -1.789267 -1.414214 -1.414214 
C -1.789267 -1.03916 -2 -0.530406 -2 0 
C -2 0.530406 -1.789267 1.03916 -1.414214 1.414214 
C -1.03916 1.789267 -0.530406 2 0 2 
z
" style="stroke: #000000; stroke-opacity: 0.4"/>
    </defs>
    <g clip-path="url(#p62a7e72d03)">
     <use xlink:href="#ma86b519c85" x="359.016476" y="141.619817" style="fill: #2a2eec; fill-opacity: 0.4; stroke: #000000; stroke-opacity: 0.4"/>
     <use xlink:href="#ma86b519c85" x="284.201008" y="193.877649" style="fill: #2a2eec; fill-opacity: 0.4; stroke: #000000; stroke-opacity: 0.4"/>
     <use xlink:href="#ma86b519c85" x="367.83442" y="143.275664" style="fill: #2a2eec; fill-opacity: 0.4; stroke: #000000; stroke-opacity: 0.4"/>
     <use xlink:href="#ma86b519c85" x="402.840494" y="124.70862" style="fill: #2a2eec; fill-opacity: 0.4; stroke: #000000; stroke-opacity: 0.4"/>
     <use xlink:href="#ma86b519c85" x="296.886834" y="178.420322" style="fill: #2a2eec; fill-opacity: 0.4; stroke: #000000; stroke-opacity: 0.4"/>
     <use xlink:href="#ma86b519c85" x="147.702705" y="202.418773" style="fill: #2a2eec; fill-opacity: 0.4; stroke: #000000; stroke-opacity: 0.4"/>
     <use xlink:href="#ma86b519c85" x="447.48389" y="77.118879" style="fill: #2a2eec; fill-opacity: 0.4; stroke: #000000; stroke-opacity: 0.4"/>
     <use xlink:href="#ma86b519c85" x="417.641965" y="125.654424" style="fill: #2a2eec; fill-opacity: 0.4; stroke: #000000; stroke-opacity: 0.4"/>
     <use xlink:href="#ma86b519c85" x="181.023927" y="222.556066" style="fill: #2a2eec; fill-opacity: 0.4; stroke: #000000; stroke-opacity: 0.4"/>
     <use xlink:href="#ma86b519c85" x="377.861135" y="119.877004" style="fill: #2a2eec; fill-opacity: 0.4; stroke: #000000; stroke-opacity: 0.4"/>
     <use xlink:href="#ma86b519c85" x="316.817372" y="186.678088" style="fill: #2a2eec; fill-opacity: 0.4; stroke: #000000; stroke-opacity: 0.4"/>
     <use xlink:href="#ma86b519c85" x="190.813861" y="207.827679" style="fill: #2a2eec; fill-opacity: 0.4; stroke: #000000; stroke-opacity: 0.4"/>
     <use xlink:href="#ma86b519c85" x="392.108383" y="144.632589" style="fill: #2a2eec; fill-opacity: 0.4; stroke: #000000; stroke-opacity: 0.4"/>
     <use xlink:href="#ma86b519c85" x="324.515777" y="112.645946" style="fill: #2a2eec; fill-opacity: 0.4; stroke: #000000; stroke-opacity: 0.4"/>
     <use xlink:href="#ma86b519c85" x="325.904782" y="150.178516" style="fill: #2a2eec; fill-opacity: 0.4; stroke: #000000; stroke-opacity: 0.4"/>
     <use xlink:href="#ma86b519c85" x="393.317481" y="109.767754" style="fill: #2a2eec; fill-opacity: 0.4; stroke: #000000; stroke-opacity: 0.4"/>
     <use xlink:href="#ma86b519c85" x="230.21903" y="183.619707" style="fill: #2a2eec; fill-opacity: 0.4; stroke: #000000; stroke-opacity: 0.4"/>
     <use xlink:href="#ma86b519c85" x="421.30589" y="98.859863" style="fill: #2a2eec; fill-opacity: 0.4; stroke: #000000; stroke-opacity: 0.4"/>
     <use xlink:href="#ma86b519c85" x="205.281453" y="207.531226" style="fill: #2a2eec; fill-opacity: 0.4; stroke: #000000; stroke-opacity: 0.4"/>
     <use xlink:href="#ma86b519c85" x="355.117225" y="154.584147" style="fill: #2a2eec; fill-opacity: 0.4; stroke: #000000; stroke-opacity: 0.4"/>
     <use xlink:href="#ma86b519c85" x="393.631352" y="134.032996" style="fill: #2a2eec; fill-opacity: 0.4; stroke: #000000; stroke-opacity: 0.4"/>
     <use xlink:href="#ma86b519c85" x="290.925205" y="177.902339" style="fill: #2a2eec; fill-opacity: 0.4; stroke: #000000; stroke-opacity: 0.4"/>
     <use xlink:href="#ma86b519c85" x="292.709806" y="207.823631" style="fill: #2a2eec; fill-opacity: 0.4; stroke: #000000; stroke-opacity: 0.4"/>
     <use xlink:href="#ma86b519c85" x="237.49863" y="197.580641" style="fill: #2a2eec; fill-opacity: 0.4; stroke: #000000; stroke-opacity: 0.4"/>
     <use xlink:href="#ma86b519c85" x="323.452662" y="180.0128" style="fill: #2a2eec; fill-opacity: 0.4; stroke: #000000; stroke-opacity: 0.4"/>
     <use xlink:href="#ma86b519c85" x="215.343368" y="194.770238" style="fill: #2a2eec; fill-opacity: 0.4; stroke: #000000; stroke-opacity: 0.4"/>
     <use xlink:href="#ma86b519c85" x="322.000827" y="156.253212" style="fill: #2a2eec; fill-opacity: 0.4; stroke: #000000; stroke-opacity: 0.4"/>
     <use xlink:href="#ma86b519c85" x="308.867828" y="177.624248" style="fill: #2a2eec; fill-opacity: 0.4; stroke: #000000; stroke-opacity: 0.4"/>
     <use xlink:href="#ma86b519c85" x="160.331384" y="245.464231" style="fill: #2a2eec; fill-opacity: 0.4; stroke: #000000; stroke-opacity: 0.4"/>
     <use xlink:href="#ma86b519c85" x="330.769603" y="143.944956" style="fill: #2a2eec; fill-opacity: 0.4; stroke: #000000; stroke-opacity: 0.4"/>
     <use xlink:href="#ma86b519c85" x="302.365929" y="166.693178" style="fill: #2a2eec; fill-opacity: 0.4; stroke: #000000; stroke-opacity: 0.4"/>
     <use xlink:href="#ma86b519c85" x="253.042435" y="184.85112" style="fill: #2a2eec; fill-opacity: 0.4; stroke: #000000; stroke-opacity: 0.4"/>
     <use xlink:href="#ma86b519c85" x="381.160977" y="133.167138" style="fill: #2a2eec; fill-opacity: 0.4; stroke: #000000; stroke-opacity: 0.4"/>
     <use xlink:href="#ma86b519c85" x="374.069203" y="131.811776" style="fill: #2a2eec; fill-opacity: 0.4; stroke: #000000; stroke-opacity: 0.4"/>
     <use xlink:href="#ma86b519c85" x="173.650664" y="207.107744" style="fill: #2a2eec; fill-opacity: 0.4; stroke: #000000; stroke-opacity: 0.4"/>
     <use xlink:href="#ma86b519c85" x="442.451677" y="93.812834" style="fill: #2a2eec; fill-opacity: 0.4; stroke: #000000; stroke-opacity: 0.4"/>
     <use xlink:href="#ma86b519c85" x="437.135825" y="81.760106" style="fill: #2a2eec; fill-opacity: 0.4; stroke: #000000; stroke-opacity: 0.4"/>
     <use xlink:href="#ma86b519c85" x="496.495766" y="108.993299" style="fill: #2a2eec; fill-opacity: 0.4; stroke: #000000; stroke-opacity: 0.4"/>
     <use xlink:href="#ma86b519c85" x="399.034205" y="110.632086" style="fill: #2a2eec; fill-opacity: 0.4; stroke: #000000; stroke-opacity: 0.4"/>
     <use xlink:href="#ma86b519c85" x="370.439637" y="141.141046" style="fill: #2a2eec; fill-opacity: 0.4; stroke: #000000; stroke-opacity: 0.4"/>
     <use xlink:href="#ma86b519c85" x="236.033391" y="194.880302" style="fill: #2a2eec; fill-opacity: 0.4; stroke: #000000; stroke-opacity: 0.4"/>
     <use xlink:href="#ma86b519c85" x="236.938434" y="182.471284" style="fill: #2a2eec; fill-opacity: 0.4; stroke: #000000; stroke-opacity: 0.4"/>
     <use xlink:href="#ma86b519c85" x="299.275806" y="195.0316" style="fill: #2a2eec; fill-opacity: 0.4; stroke: #000000; stroke-opacity: 0.4"/>
     <use xlink:href="#ma86b519c85" x="268.128946" y="161.999731" style="fill: #2a2eec; fill-opacity: 0.4; stroke: #000000; stroke-opacity: 0.4"/>
     <use xlink:href="#ma86b519c85" x="392.169633" y="131.957554" style="fill: #2a2eec; fill-opacity: 0.4; stroke: #000000; stroke-opacity: 0.4"/>
     <use xlink:href="#ma86b519c85" x="236.546162" y="159.824099" style="fill: #2a2eec; fill-opacity: 0.4; stroke: #000000; stroke-opacity: 0.4"/>
     <use xlink:href="#ma86b519c85" x="187.484277" y="220.288582" style="fill: #2a2eec; fill-opacity: 0.4; stroke: #000000; stroke-opacity: 0.4"/>
     <use xlink:href="#ma86b519c85" x="325.476776" y="166.715904" style="fill: #2a2eec; fill-opacity: 0.4; stroke: #000000; stroke-opacity: 0.4"/>
     <use xlink:href="#ma86b519c85" x="414.70661" y="125.625671" style="fill: #2a2eec; fill-opacity: 0.4; stroke: #000000; stroke-opacity: 0.4"/>
     <use xlink:href="#ma86b519c85" x="281.164068" y="185.21371" style="fill: #2a2eec; fill-opacity: 0.4; stroke: #000000; stroke-opacity: 0.4"/>
     <use xlink:href="#ma86b519c85" x="260.57565" y="214.033459" style="fill: #2a2eec; fill-opacity: 0.4; stroke: #000000; stroke-opacity: 0.4"/>
     <use xlink:href="#ma86b519c85" x="324.716539" y="179.398053" style="fill: #2a2eec; fill-opacity: 0.4; stroke: #000000; stroke-opacity: 0.4"/>
     <use xlink:href="#ma86b519c85" x="263.991268" y="185.945197" style="fill: #2a2eec; fill-opacity: 0.4; stroke: #000000; stroke-opacity: 0.4"/>
     <use xlink:href="#ma86b519c85" x="279.309655" y="176.858378" style="fill: #2a2eec; fill-opacity: 0.4; stroke: #000000; stroke-opacity: 0.4"/>
     <use xlink:href="#ma86b519c85" x="372.498339" y="168.595767" style="fill: #2a2eec; fill-opacity: 0.4; stroke: #000000; stroke-opacity: 0.4"/>
     <use xlink:href="#ma86b519c85" x="324.931639" y="159.527829" style="fill: #2a2eec; fill-opacity: 0.4; stroke: #000000; stroke-opacity: 0.4"/>
     <use xlink:href="#ma86b519c85" x="251.897955" y="166.689879" style="fill: #2a2eec; fill-opacity: 0.4; stroke: #000000; stroke-opacity: 0.4"/>
     <use xlink:href="#ma86b519c85" x="388.429802" y="126.675374" style="fill: #2a2eec; fill-opacity: 0.4; stroke: #000000; stroke-opacity: 0.4"/>
     <use xlink:href="#ma86b519c85" x="272.138004" y="174.69783" style="fill: #2a2eec; fill-opacity: 0.4; stroke: #000000; stroke-opacity: 0.4"/>
     <use xlink:href="#ma86b519c85" x="327.629131" y="145.976863" style="fill: #2a2eec; fill-opacity: 0.4; stroke: #000000; stroke-opacity: 0.4"/>
     <use xlink:href="#ma86b519c85" x="206.492171" y="186.765802" style="fill: #2a2eec; fill-opacity: 0.4; stroke: #000000; stroke-opacity: 0.4"/>
     <use xlink:href="#ma86b519c85" x="242.751896" y="136.961652" style="fill: #2a2eec; fill-opacity: 0.4; stroke: #000000; stroke-opacity: 0.4"/>
     <use xlink:href="#ma86b519c85" x="202.669579" y="219.086057" style="fill: #2a2eec; fill-opacity: 0.4; stroke: #000000; stroke-opacity: 0.4"/>
     <use xlink:href="#ma86b519c85" x="271.364956" y="188.283155" style="fill: #2a2eec; fill-opacity: 0.4; stroke: #000000; stroke-opacity: 0.4"/>
     <use xlink:href="#ma86b519c85" x="207.98506" y="169.465476" style="fill: #2a2eec; fill-opacity: 0.4; stroke: #000000; stroke-opacity: 0.4"/>
     <use xlink:href="#ma86b519c85" x="126.693933" y="241.823626" style="fill: #2a2eec; fill-opacity: 0.4; stroke: #000000; stroke-opacity: 0.4"/>
     <use xlink:href="#ma86b519c85" x="254.465698" y="189.360904" style="fill: #2a2eec; fill-opacity: 0.4; stroke: #000000; stroke-opacity: 0.4"/>
     <use xlink:href="#ma86b519c85" x="240.034913" y="199.38442" style="fill: #2a2eec; fill-opacity: 0.4; stroke: #000000; stroke-opacity: 0.4"/>
     <use xlink:href="#ma86b519c85" x="275.494599" y="203.764523" style="fill: #2a2eec; fill-opacity: 0.4; stroke: #000000; stroke-opacity: 0.4"/>
     <use xlink:href="#ma86b519c85" x="405.016808" y="164.382916" style="fill: #2a2eec; fill-opacity: 0.4; stroke: #000000; stroke-opacity: 0.4"/>
     <use xlink:href="#ma86b519c85" x="379.025608" y="131.683283" style="fill: #2a2eec; fill-opacity: 0.4; stroke: #000000; stroke-opacity: 0.4"/>
     <use xlink:href="#ma86b519c85" x="254.243245" y="153.693142" style="fill: #2a2eec; fill-opacity: 0.4; stroke: #000000; stroke-opacity: 0.4"/>
     <use xlink:href="#ma86b519c85" x="202.583761" y="205.213423" style="fill: #2a2eec; fill-opacity: 0.4; stroke: #000000; stroke-opacity: 0.4"/>
     <use xlink:href="#ma86b519c85" x="236.338401" y="214.605689" style="fill: #2a2eec; fill-opacity: 0.4; stroke: #000000; stroke-opacity: 0.4"/>
     <use xlink:href="#ma86b519c85" x="236.721214" y="177.081368" style="fill: #2a2eec; fill-opacity: 0.4; stroke: #000000; stroke-opacity: 0.4"/>
     <use xlink:href="#ma86b519c85" x="407.236655" y="121.503009" style="fill: #2a2eec; fill-opacity: 0.4; stroke: #000000; stroke-opacity: 0.4"/>
     <use xlink:href="#ma86b519c85" x="275.053983" y="222.35477" style="fill: #2a2eec; fill-opacity: 0.4; stroke: #000000; stroke-opacity: 0.4"/>
     <use xlink:href="#ma86b519c85" x="371.911634" y="159.352393" style="fill: #2a2eec; fill-opacity: 0.4; stroke: #000000; stroke-opacity: 0.4"/>
     <use xlink:href="#ma86b519c85" x="325.983938" y="118.280319" style="fill: #2a2eec; fill-opacity: 0.4; stroke: #000000; stroke-opacity: 0.4"/>
     <use xlink:href="#ma86b519c85" x="200.905504" y="197.719802" style="fill: #2a2eec; fill-opacity: 0.4; stroke: #000000; stroke-opacity: 0.4"/>
     <use xlink:href="#ma86b519c85" x="208.648519" y="203.690848" style="fill: #2a2eec; fill-opacity: 0.4; stroke: #000000; stroke-opacity: 0.4"/>
     <use xlink:href="#ma86b519c85" x="274.097412" y="180.418503" style="fill: #2a2eec; fill-opacity: 0.4; stroke: #000000; stroke-opacity: 0.4"/>
     <use xlink:href="#ma86b519c85" x="342.439837" y="137.467819" style="fill: #2a2eec; fill-opacity: 0.4; stroke: #000000; stroke-opacity: 0.4"/>
     <use xlink:href="#ma86b519c85" x="286.462449" y="144.806379" style="fill: #2a2eec; fill-opacity: 0.4; stroke: #000000; stroke-opacity: 0.4"/>
     <use xlink:href="#ma86b519c85" x="292.79295" y="147.363385" style="fill: #2a2eec; fill-opacity: 0.4; stroke: #000000; stroke-opacity: 0.4"/>
     <use xlink:href="#ma86b519c85" x="265.462969" y="168.866644" style="fill: #2a2eec; fill-opacity: 0.4; stroke: #000000; stroke-opacity: 0.4"/>
     <use xlink:href="#ma86b519c85" x="378.399344" y="116.460787" style="fill: #2a2eec; fill-opacity: 0.4; stroke: #000000; stroke-opacity: 0.4"/>
     <use xlink:href="#ma86b519c85" x="296.323341" y="183.617548" style="fill: #2a2eec; fill-opacity: 0.4; stroke: #000000; stroke-opacity: 0.4"/>
     <use xlink:href="#ma86b519c85" x="343.51265" y="151.164522" style="fill: #2a2eec; fill-opacity: 0.4; stroke: #000000; stroke-opacity: 0.4"/>
     <use xlink:href="#ma86b519c85" x="189.823316" y="217.120214" style="fill: #2a2eec; fill-opacity: 0.4; stroke: #000000; stroke-opacity: 0.4"/>
     <use xlink:href="#ma86b519c85" x="266.770831" y="191.822749" style="fill: #2a2eec; fill-opacity: 0.4; stroke: #000000; stroke-opacity: 0.4"/>
     <use xlink:href="#ma86b519c85" x="270.898558" y="211.14349" style="fill: #2a2eec; fill-opacity: 0.4; stroke: #000000; stroke-opacity: 0.4"/>
     <use xlink:href="#ma86b519c85" x="240.163616" y="218.861063" style="fill: #2a2eec; fill-opacity: 0.4; stroke: #000000; stroke-opacity: 0.4"/>
     <use xlink:href="#ma86b519c85" x="309.993815" y="149.600198" style="fill: #2a2eec; fill-opacity: 0.4; stroke: #000000; stroke-opacity: 0.4"/>
     <use xlink:href="#ma86b519c85" x="227.676301" y="227.135428" style="fill: #2a2eec; fill-opacity: 0.4; stroke: #000000; stroke-opacity: 0.4"/>
     <use xlink:href="#ma86b519c85" x="261.766138" y="197.918765" style="fill: #2a2eec; fill-opacity: 0.4; stroke: #000000; stroke-opacity: 0.4"/>
     <use xlink:href="#ma86b519c85" x="298.407127" y="197.44671" style="fill: #2a2eec; fill-opacity: 0.4; stroke: #000000; stroke-opacity: 0.4"/>
     <use xlink:href="#ma86b519c85" x="274.371913" y="160.305658" style="fill: #2a2eec; fill-opacity: 0.4; stroke: #000000; stroke-opacity: 0.4"/>
     <use xlink:href="#ma86b519c85" x="318.890158" y="141.872655" style="fill: #2a2eec; fill-opacity: 0.4; stroke: #000000; stroke-opacity: 0.4"/>
     <use xlink:href="#ma86b519c85" x="311.874445" y="161.450145" style="fill: #2a2eec; fill-opacity: 0.4; stroke: #000000; stroke-opacity: 0.4"/>
    </g>
   </g>
   <g id="line2d_36">
    <path d="M 359.016476 143.285816 
L 284.201008 173.879716 
L 367.83442 139.679941 
L 402.840494 125.365089 
L 296.886834 168.692167 
L 147.702705 229.697256 
L 447.48389 107.109298 
L 417.641965 119.312401 
L 181.023927 216.071382 
L 377.861135 135.579768 
L 316.817372 160.542076 
L 190.813861 212.068035 
L 392.108383 129.753716 
L 324.515777 157.394008 
L 325.904782 156.826009 
L 393.317481 129.259285 
L 230.21903 195.954285 
L 421.30589 117.814131 
L 205.281453 206.151878 
L 355.117225 144.880317 
L 393.631352 129.130935 
L 290.925205 171.130025 
L 292.709806 170.400258 
L 237.49863 192.977476 
L 323.452662 157.828741 
L 215.343368 202.037312 
L 322.000827 158.422433 
L 308.867828 163.792842 
L 160.331384 224.533076 
L 330.769603 154.836663 
L 302.365929 166.451629 
L 253.042435 186.621229 
L 381.160977 134.230381 
L 374.069203 137.130383 
L 173.650664 219.086492 
L 442.451677 109.167095 
L 437.135825 111.340878 
L 496.495766 87.067127 
L 399.034205 126.921575 
L 370.439637 138.614603 
L 236.033391 193.576648 
L 236.938434 193.206554 
L 299.275806 167.715257 
L 268.128946 180.451981 
L 392.169633 129.728669 
L 236.546162 193.366964 
L 187.484277 213.429585 
L 325.476776 157.001031 
L 414.70661 120.51274 
L 281.164068 175.121596 
L 260.57565 183.54071 
L 324.716539 157.311911 
L 263.991268 182.14398 
L 279.309655 175.879911 
L 372.498339 137.772749 
L 324.931639 157.223951 
L 251.897955 187.089235 
L 388.429802 131.257978 
L 272.138004 178.812577 
L 327.629131 156.12088 
L 206.492171 205.656786 
L 242.751896 190.829285 
L 202.669579 207.219938 
L 271.364956 179.128696 
L 207.98506 205.046306 
L 126.693933 238.288263 
L 254.465698 186.039221 
L 240.034913 191.940327 
L 275.494599 177.439982 
L 405.016808 124.47514 
L 379.025608 135.103586 
L 254.243245 186.130188 
L 202.583761 207.255031 
L 236.338401 193.451922 
L 236.721214 193.295381 
L 407.236655 123.56739 
L 275.053983 177.620161 
L 371.911634 138.012667 
L 325.983938 156.79364 
L 200.905504 207.941312 
L 208.648519 204.775001 
L 274.097412 178.011327 
L 342.439837 150.064415 
L 286.462449 172.954956 
L 292.79295 170.366258 
L 265.462969 181.542165 
L 378.399344 135.359681 
L 296.323341 168.922593 
L 343.51265 149.625715 
L 189.823316 212.473094 
L 266.770831 181.007347 
L 270.898558 179.319417 
L 240.163616 191.887697 
L 309.993815 163.332398 
L 227.676301 196.99407 
L 261.766138 183.05389 
L 298.407127 168.070482 
L 274.371913 177.899077 
L 318.890158 159.694463 
L 311.874445 162.563361 
" clip-path="url(#p62a7e72d03)" style="fill: none; stroke: #000000; stroke-width: 0.2; stroke-linecap: round"/>
   </g>
   <g id="line2d_37">
    <path d="M 127.623083 247.597605 
L 128.552233 246.755517 
L 197.309358 215.723748 
L 247.483476 193.460539 
L 266.066483 185.482925 
L 286.50779 176.778467 
L 303.232496 169.932404 
L 340.398509 155.021635 
L 355.264915 149.23169 
L 384.997725 137.881285 
L 401.722431 131.899563 
L 496.495766 98.078873 
L 496.495766 98.078873 
" clip-path="url(#p62a7e72d03)" style="fill: none; stroke: #fa7c17; stroke-opacity: 0; stroke-width: 3; stroke-linecap: round"/>
   </g>
   <g id="line2d_38">
    <path d="M 127.623083 229.113147 
L 128.552233 228.453408 
L 158.285044 217.769302 
L 186.159554 207.518082 
L 227.042169 192.250259 
L 264.208182 178.039562 
L 282.791189 170.681564 
L 306.949097 160.948821 
L 323.673803 153.942953 
L 344.115111 145.063979 
L 370.13132 133.591842 
L 386.856026 126.063015 
L 422.163739 110.3451 
L 450.038249 97.947133 
L 496.495766 77.293199 
L 496.495766 77.293199 
" clip-path="url(#p62a7e72d03)" style="fill: none; stroke: #fa7c17; stroke-opacity: 0; stroke-width: 3; stroke-linecap: round"/>
   </g>
   <g id="line2d_39">
    <path d="M 127.623083 274.613996 
L 128.552233 273.862616 
L 158.285044 261.975557 
L 189.876155 249.554389 
L 201.025959 245.820011 
L 204.742561 244.350898 
L 217.750665 238.909222 
L 223.325567 236.37553 
L 228.900469 233.809441 
L 236.333672 230.490625 
L 249.341777 224.632275 
L 254.916679 222.206501 
L 258.63328 220.378661 
L 273.499685 214.638497 
L 277.216287 213.207003 
L 282.791189 210.938753 
L 288.366091 208.986677 
L 295.799293 206.374401 
L 306.949097 202.059592 
L 312.523999 199.960077 
L 318.098901 197.542909 
L 332.965307 191.509961 
L 340.398509 188.237917 
L 344.115111 186.664039 
L 355.264915 181.763683 
L 358.981516 180.089884 
L 364.556418 177.846597 
L 371.989621 174.597109 
L 377.564523 172.099251 
L 381.281124 170.615464 
L 390.572627 167.129733 
L 396.147529 164.987833 
L 401.722431 162.920564 
L 407.297333 160.588034 
L 427.738641 151.324297 
L 440.746746 145.382638 
L 444.463347 143.713048 
L 446.321648 142.870631 
L 455.613151 139.403453 
L 464.904654 136.218068 
L 474.196158 133.314477 
L 483.487661 130.692678 
L 492.779164 128.352673 
L 496.495766 127.495573 
L 496.495766 127.495573 
" clip-path="url(#p62a7e72d03)" style="fill: none; stroke: #fa7c17; stroke-opacity: 0; stroke-width: 3; stroke-linecap: round"/>
   </g>
   <g id="line2d_40">
    <path d="M 127.623083 199.252593 
L 128.552233 198.558746 
L 162.001645 185.943626 
L 178.726351 179.49752 
L 189.876155 174.99788 
L 201.025959 170.91447 
L 210.317463 167.313207 
L 215.892365 165.168581 
L 227.042169 160.693881 
L 232.617071 158.592455 
L 234.475371 157.914493 
L 240.050273 155.471733 
L 245.625175 153.055201 
L 249.341777 151.40883 
L 260.491581 146.602157 
L 277.216287 140.41018 
L 282.791189 138.193905 
L 297.657594 132.689776 
L 319.957202 123.853109 
L 325.532104 121.466682 
L 332.965307 118.428054 
L 340.398509 115.091584 
L 347.831712 111.94798 
L 355.264915 108.748783 
L 358.981516 107.070839 
L 368.273019 103.172916 
L 375.706222 99.841124 
L 379.422823 98.188984 
L 396.147529 91.409619 
L 401.722431 89.308208 
L 414.730536 83.866493 
L 420.305438 81.350431 
L 424.022039 79.657644 
L 431.455242 76.357392 
L 438.888445 72.998663 
L 444.463347 70.580602 
L 446.321648 69.670641 
L 463.046354 62.776856 
L 479.77106 56.117041 
L 496.495766 49.691194 
L 496.495766 49.691194 
" clip-path="url(#p62a7e72d03)" style="fill: none; stroke: #fa7c17; stroke-opacity: 0; stroke-width: 3; stroke-linecap: round"/>
   </g>
   <g id="patch_3">
    <path d="M 61.36 314.19952 
L 61.36 24.1275 
" style="fill: none"/>
   </g>
   <g id="patch_4">
    <path d="M 61.36 314.19952 
L 516.09952 314.19952 
" style="fill: none"/>
   </g>
   <g id="text_20">
    <!-- Posterior predictive checks -->
    <g style="fill: #262626" transform="translate(61.36 18.1275) scale(0.16 -0.16)">
     <defs>
      <path id="STIXGeneral-Regular-73" d="M 998 1926 
L 1664 1523 
Q 1984 1331 2105 1164 
Q 2227 998 2227 736 
Q 2227 416 1961 176 
Q 1696 -64 1331 -64 
Q 1030 -64 864 -6 
Q 691 51 570 51 
Q 461 51 416 -26 
L 333 -26 
L 333 979 
L 435 979 
Q 538 512 730 294 
Q 922 77 1248 77 
Q 1485 77 1632 211 
Q 1779 346 1779 550 
Q 1779 845 1440 1030 
L 1094 1222 
Q 326 1651 326 2150 
Q 326 2522 566 2730 
Q 806 2938 1210 2938 
Q 1491 2938 1638 2867 
Q 1754 2816 1818 2816 
Q 1862 2816 1920 2880 
L 1990 2880 
L 2022 2010 
L 1926 2010 
Q 1818 2445 1654 2621 
Q 1491 2797 1203 2797 
Q 986 2797 854 2688 
Q 723 2579 723 2362 
Q 723 2253 796 2128 
Q 870 2003 998 1926 
z
" transform="scale(0.015625)"/>
      <path id="STIXGeneral-Regular-70" d="M 1018 2931 
L 1018 2438 
Q 1421 2944 1939 2944 
Q 2406 2944 2707 2560 
Q 3008 2176 3008 1581 
Q 3008 883 2621 409 
Q 2234 -64 1664 -64 
Q 1466 -64 1328 -6 
Q 1190 51 1018 211 
L 1018 -794 
Q 1018 -1094 1120 -1180 
Q 1222 -1267 1581 -1274 
L 1581 -1389 
L 32 -1389 
L 32 -1280 
Q 314 -1254 397 -1171 
Q 480 -1088 480 -838 
L 480 2157 
Q 480 2381 429 2451 
Q 378 2522 218 2522 
Q 115 2522 58 2515 
L 58 2618 
Q 506 2752 979 2944 
L 1018 2931 
z
M 1018 2138 
L 1018 563 
Q 1018 422 1238 281 
Q 1459 141 1683 141 
Q 2029 141 2243 467 
Q 2458 794 2458 1325 
Q 2458 1888 2243 2224 
Q 2029 2560 1670 2560 
Q 1446 2560 1232 2419 
Q 1018 2278 1018 2138 
z
" transform="scale(0.015625)"/>
      <path id="STIXGeneral-Regular-76" d="M 3053 2880 
L 3053 2784 
Q 2906 2771 2835 2688 
Q 2765 2605 2637 2285 
L 1818 230 
Q 1690 -90 1638 -90 
Q 1587 -90 1523 77 
Q 1510 96 1497 141 
Q 1485 186 1472 211 
L 704 2048 
Q 499 2534 403 2652 
Q 307 2771 122 2784 
L 122 2880 
L 1376 2880 
L 1376 2784 
Q 1210 2771 1146 2732 
Q 1082 2694 1082 2611 
Q 1082 2509 1139 2368 
L 1792 730 
L 2426 2387 
Q 2464 2483 2464 2579 
Q 2464 2758 2163 2784 
L 2163 2880 
L 3053 2880 
z
" transform="scale(0.015625)"/>
      <path id="STIXGeneral-Regular-68" d="M 3117 0 
L 1760 0 
L 1760 96 
Q 2042 128 2118 224 
Q 2195 320 2195 653 
L 2195 1920 
Q 2195 2598 1722 2598 
Q 1530 2598 1370 2508 
Q 1210 2419 1005 2195 
L 1005 653 
Q 1005 320 1081 224 
Q 1158 128 1440 96 
L 1440 0 
L 58 0 
L 58 96 
Q 333 134 400 224 
Q 467 314 467 653 
L 467 3667 
Q 467 3872 406 3933 
Q 346 3994 141 3994 
Q 83 3994 64 3987 
L 64 4090 
L 237 4141 
Q 730 4288 973 4371 
L 1005 4352 
L 1005 2406 
Q 1229 2694 1446 2819 
Q 1664 2944 1946 2944 
Q 2733 2944 2733 1926 
L 2733 653 
Q 2733 320 2793 233 
Q 2854 147 3117 96 
L 3117 0 
z
" transform="scale(0.015625)"/>
      <path id="STIXGeneral-Regular-6b" d="M 3232 0 
L 1837 0 
L 1837 96 
L 1958 96 
Q 2093 96 2093 192 
Q 2093 250 2022 339 
L 1062 1606 
L 1062 429 
Q 1062 262 1142 185 
Q 1222 109 1414 102 
L 1542 96 
L 1542 0 
L 45 0 
L 45 96 
Q 390 154 457 214 
Q 525 275 525 525 
L 525 3610 
Q 525 3840 467 3920 
Q 410 4000 250 4000 
Q 211 4000 45 3987 
L 45 4090 
L 237 4141 
Q 621 4243 1037 4371 
L 1062 4358 
L 1062 1670 
L 1939 2451 
Q 2086 2586 2086 2675 
Q 2086 2739 2019 2761 
Q 1952 2784 1766 2790 
L 1766 2880 
L 3072 2880 
L 3072 2784 
Q 2752 2784 2505 2646 
Q 2259 2509 1690 1978 
L 1504 1805 
L 2483 563 
Q 2829 122 3232 96 
L 3232 0 
z
" transform="scale(0.015625)"/>
     </defs>
     <use xlink:href="#STIXGeneral-Regular-50"/>
     <use xlink:href="#STIXGeneral-Regular-6f" x="55.699997"/>
     <use xlink:href="#STIXGeneral-Regular-73" x="105.699982"/>
     <use xlink:href="#STIXGeneral-Regular-74" x="144.599976"/>
     <use xlink:href="#STIXGeneral-Regular-65" x="172.399963"/>
     <use xlink:href="#STIXGeneral-Regular-72" x="216.799957"/>
     <use xlink:href="#STIXGeneral-Regular-69" x="250.099945"/>
     <use xlink:href="#STIXGeneral-Regular-6f" x="277.899933"/>
     <use xlink:href="#STIXGeneral-Regular-72" x="327.899918"/>
     <use xlink:href="#STIXGeneral-Regular-20" x="361.199905"/>
     <use xlink:href="#STIXGeneral-Regular-70" x="386.19989"/>
     <use xlink:href="#STIXGeneral-Regular-72" x="436.199875"/>
     <use xlink:href="#STIXGeneral-Regular-65" x="469.499863"/>
     <use xlink:href="#STIXGeneral-Regular-64" x="513.899857"/>
     <use xlink:href="#STIXGeneral-Regular-69" x="563.899841"/>
     <use xlink:href="#STIXGeneral-Regular-63" x="591.699829"/>
     <use xlink:href="#STIXGeneral-Regular-74" x="636.099823"/>
     <use xlink:href="#STIXGeneral-Regular-69" x="663.899811"/>
     <use xlink:href="#STIXGeneral-Regular-76" x="691.699799"/>
     <use xlink:href="#STIXGeneral-Regular-65" x="741.699783"/>
     <use xlink:href="#STIXGeneral-Regular-20" x="786.099777"/>
     <use xlink:href="#STIXGeneral-Regular-63" x="811.099762"/>
     <use xlink:href="#STIXGeneral-Regular-68" x="855.499756"/>
     <use xlink:href="#STIXGeneral-Regular-65" x="905.499741"/>
     <use xlink:href="#STIXGeneral-Regular-63" x="949.899734"/>
     <use xlink:href="#STIXGeneral-Regular-6b" x="994.299728"/>
     <use xlink:href="#STIXGeneral-Regular-73" x="1044.299713"/>
    </g>
   </g>
   <g id="legend_1">
    <g id="line2d_41">
     <g>
      <use xlink:href="#ma86b519c85" x="78.36" y="34.6275" style="fill: #2a2eec; fill-opacity: 0.4; stroke: #000000; stroke-opacity: 0.4"/>
     </g>
    </g>
    <g id="text_21">
     <!-- Data -->
     <g style="fill: #262626" transform="translate(96.36 38.1275) scale(0.1 -0.1)">
      <defs>
       <path id="STIXGeneral-Regular-44" d="M 102 4237 
L 1830 4237 
Q 3078 4237 3750 3654 
Q 4384 3110 4384 2138 
Q 4384 966 3514 410 
Q 2880 0 1901 0 
L 102 0 
L 102 122 
Q 474 147 570 252 
Q 666 358 666 736 
L 666 3520 
Q 666 3891 570 3990 
Q 474 4090 102 4115 
L 102 4237 
z
M 1318 3731 
L 1318 538 
Q 1318 365 1379 301 
Q 1440 237 1626 237 
Q 2125 237 2432 307 
Q 2739 378 3021 570 
Q 3686 1018 3686 2099 
Q 3686 3027 3078 3558 
Q 2803 3802 2476 3901 
Q 2150 4000 1658 4000 
Q 1472 4000 1395 3942 
Q 1318 3885 1318 3731 
z
" transform="scale(0.015625)"/>
       <path id="STIXGeneral-Regular-61" d="M 2829 422 
L 2829 243 
Q 2586 -64 2253 -64 
Q 1888 -64 1843 403 
L 1837 403 
Q 1427 -64 909 -64 
Q 608 -64 422 112 
Q 237 288 237 602 
Q 237 1050 685 1350 
Q 992 1555 1837 1869 
L 1837 2214 
Q 1837 2502 1699 2646 
Q 1562 2790 1338 2790 
Q 1146 2790 1018 2697 
Q 890 2605 890 2477 
Q 890 2419 909 2348 
Q 928 2278 928 2208 
Q 928 2112 841 2029 
Q 755 1946 634 1946 
Q 525 1946 441 2029 
Q 358 2112 358 2240 
Q 358 2547 685 2752 
Q 986 2944 1421 2944 
Q 1939 2944 2176 2656 
Q 2291 2522 2323 2384 
Q 2355 2246 2355 1946 
L 2355 723 
Q 2355 301 2554 301 
Q 2682 301 2829 422 
z
M 1837 813 
L 1837 1715 
Q 1248 1510 1018 1293 
Q 800 1094 800 800 
Q 800 557 921 432 
Q 1043 307 1242 307 
Q 1453 307 1613 410 
Q 1747 506 1792 589 
Q 1837 672 1837 813 
z
" transform="scale(0.015625)"/>
      </defs>
      <use xlink:href="#STIXGeneral-Regular-44"/>
      <use xlink:href="#STIXGeneral-Regular-61" x="72.199982"/>
      <use xlink:href="#STIXGeneral-Regular-74" x="116.599976"/>
      <use xlink:href="#STIXGeneral-Regular-61" x="144.399963"/>
     </g>
    </g>
    <g id="line2d_42">
     <path d="M 68.36 47.797812 
L 78.36 47.797812 
L 88.36 47.797812 
" style="fill: none; stroke: #000000; stroke-width: 0.2; stroke-linecap: round"/>
    </g>
    <g id="text_22">
     <!-- Mean outcomes -->
     <g style="fill: #262626" transform="translate(96.36 51.297812) scale(0.1 -0.1)">
      <defs>
       <path id="STIXGeneral-Regular-4d" d="M 5530 0 
L 3738 0 
L 3738 122 
Q 4115 147 4214 265 
Q 4314 384 4314 787 
L 4314 3661 
L 2682 0 
L 2592 0 
L 979 3514 
L 979 966 
Q 979 448 1088 294 
Q 1197 141 1574 122 
L 1574 0 
L 77 0 
L 77 122 
Q 358 141 480 205 
Q 602 269 650 432 
Q 698 595 698 966 
L 698 3514 
Q 698 3878 589 3984 
Q 480 4090 90 4115 
L 90 4237 
L 1357 4237 
L 2835 1024 
L 4250 4237 
L 5523 4237 
L 5523 4115 
Q 5178 4109 5072 3993 
Q 4966 3878 4966 3520 
L 4966 717 
Q 4966 378 5072 262 
Q 5178 147 5530 122 
L 5530 0 
z
" transform="scale(0.015625)"/>
       <path id="STIXGeneral-Regular-6e" d="M 3104 0 
L 1773 0 
L 1779 96 
Q 2016 115 2096 233 
Q 2176 352 2176 672 
L 2176 1946 
Q 2176 2592 1709 2592 
Q 1549 2592 1408 2515 
Q 1267 2438 1050 2227 
L 1050 461 
Q 1050 269 1136 192 
Q 1222 115 1466 96 
L 1466 0 
L 115 0 
L 115 96 
Q 358 115 435 214 
Q 512 314 512 602 
L 512 2157 
Q 512 2394 467 2483 
Q 422 2573 288 2573 
Q 160 2573 102 2547 
L 102 2656 
Q 550 2784 979 2944 
L 1030 2925 
L 1030 2426 
L 1037 2426 
Q 1491 2944 1958 2944 
Q 2323 2944 2518 2688 
Q 2714 2432 2714 1958 
L 2714 544 
Q 2714 288 2790 205 
Q 2867 122 3104 96 
L 3104 0 
z
" transform="scale(0.015625)"/>
      </defs>
      <use xlink:href="#STIXGeneral-Regular-4d"/>
      <use xlink:href="#STIXGeneral-Regular-65" x="88.899994"/>
      <use xlink:href="#STIXGeneral-Regular-61" x="133.299988"/>
      <use xlink:href="#STIXGeneral-Regular-6e" x="177.699982"/>
      <use xlink:href="#STIXGeneral-Regular-20" x="227.699966"/>
      <use xlink:href="#STIXGeneral-Regular-6f" x="252.699951"/>
      <use xlink:href="#STIXGeneral-Regular-75" x="302.699936"/>
      <use xlink:href="#STIXGeneral-Regular-74" x="352.699921"/>
      <use xlink:href="#STIXGeneral-Regular-63" x="380.499908"/>
      <use xlink:href="#STIXGeneral-Regular-6f" x="424.899902"/>
      <use xlink:href="#STIXGeneral-Regular-6d" x="474.899887"/>
      <use xlink:href="#STIXGeneral-Regular-65" x="552.699875"/>
      <use xlink:href="#STIXGeneral-Regular-73" x="597.099869"/>
     </g>
    </g>
    <g id="patch_5">
     <path d="M 174.963125 38.1275 
L 194.963125 38.1275 
L 194.963125 31.1275 
L 174.963125 31.1275 
z
" style="fill: #da70d6; fill-opacity: 0.5; stroke: #da70d6; stroke-opacity: 0.5; stroke-width: 0.8; stroke-linejoin: miter"/>
    </g>
    <g id="text_23">
     <!-- Mean Outcome 94% HPD -->
     <g style="fill: #262626" transform="translate(202.963125 38.1275) scale(0.1 -0.1)">
      <defs>
       <path id="STIXGeneral-Regular-39" d="M 378 -141 
L 358 -13 
Q 1094 115 1603 608 
Q 2112 1101 2304 1882 
Q 1933 1517 1344 1517 
Q 826 1517 509 1875 
Q 192 2234 192 2816 
Q 192 3462 573 3894 
Q 954 4326 1523 4326 
Q 2131 4326 2528 3840 
Q 2938 3328 2938 2522 
Q 2938 1958 2742 1462 
Q 2547 966 2170 621 
Q 1773 262 1395 105 
Q 1018 -51 378 -141 
z
M 2317 2272 
L 2317 2522 
Q 2317 4147 1472 4147 
Q 1171 4147 1005 3930 
Q 909 3802 845 3546 
Q 781 3290 781 3034 
Q 781 2464 995 2128 
Q 1210 1792 1568 1792 
Q 1824 1792 2070 1917 
Q 2317 2042 2317 2272 
z
" transform="scale(0.015625)"/>
       <path id="STIXGeneral-Regular-34" d="M 3027 1069 
L 2368 1069 
L 2368 0 
L 1869 0 
L 1869 1069 
L 77 1069 
L 77 1478 
L 2086 4326 
L 2368 4326 
L 2368 1478 
L 3027 1478 
L 3027 1069 
z
M 1869 1478 
L 1869 3674 
L 333 1478 
L 1869 1478 
z
" transform="scale(0.015625)"/>
       <path id="STIXGeneral-Regular-25" d="M 4390 1363 
Q 4390 781 4070 329 
Q 3750 -122 3341 -122 
Q 3014 -122 2790 134 
Q 2566 390 2566 762 
Q 2566 1274 2940 1693 
Q 3315 2112 3776 2112 
Q 4070 2112 4230 1917 
Q 4390 1722 4390 1363 
z
M 4243 1376 
Q 4243 1626 4131 1779 
Q 4019 1933 3840 1933 
Q 3654 1933 3526 1786 
Q 3315 1562 3171 1187 
Q 3027 813 3027 486 
Q 3027 301 3129 176 
Q 3232 51 3386 51 
Q 3718 51 3980 457 
Q 4243 864 4243 1376 
z
M 3974 4518 
L 1222 -115 
L 922 -115 
L 3443 4096 
Q 3264 3891 3094 3811 
Q 2925 3731 2669 3731 
Q 2445 3731 2182 3821 
Q 2208 3674 2208 3539 
Q 2208 3206 2067 2873 
Q 1926 2541 1696 2323 
Q 1453 2086 1146 2086 
Q 826 2086 608 2339 
Q 390 2592 390 2963 
Q 390 3507 761 3916 
Q 1133 4326 1626 4326 
Q 1792 4326 2010 4147 
Q 2310 3898 2624 3898 
Q 2918 3898 3084 3994 
Q 3251 4090 3693 4518 
L 3974 4518 
z
M 2054 3642 
Q 2054 3782 2025 3833 
Q 1997 3885 1894 3936 
Q 1747 4006 1613 4154 
Q 1414 4058 1331 3984 
Q 1248 3910 1152 3750 
Q 845 3264 845 2707 
Q 845 2509 944 2384 
Q 1043 2259 1210 2259 
Q 1549 2259 1801 2675 
Q 2054 3091 2054 3642 
z
" transform="scale(0.015625)"/>
       <path id="STIXGeneral-Regular-48" d="M 4499 0 
L 2714 0 
L 2714 122 
Q 3085 147 3181 265 
Q 3277 384 3277 794 
L 3277 2016 
L 1338 2016 
L 1338 723 
Q 1338 371 1440 256 
Q 1542 141 1894 122 
L 1901 0 
L 115 0 
L 115 122 
Q 493 147 589 259 
Q 685 371 685 781 
L 685 3507 
Q 685 3878 585 3980 
Q 486 4083 115 4115 
L 115 4237 
L 1907 4237 
L 1907 4115 
Q 1549 4083 1443 3977 
Q 1338 3872 1338 3507 
L 1338 2298 
L 3277 2298 
L 3277 3507 
Q 3277 3878 3177 3980 
Q 3078 4083 2707 4115 
L 2707 4237 
L 4499 4237 
L 4499 4115 
Q 4141 4083 4035 3977 
Q 3930 3872 3930 3507 
L 3930 710 
Q 3930 371 4035 259 
Q 4141 147 4499 122 
L 4499 0 
z
" transform="scale(0.015625)"/>
      </defs>
      <use xlink:href="#STIXGeneral-Regular-4d"/>
      <use xlink:href="#STIXGeneral-Regular-65" x="88.899994"/>
      <use xlink:href="#STIXGeneral-Regular-61" x="133.299988"/>
      <use xlink:href="#STIXGeneral-Regular-6e" x="177.699982"/>
      <use xlink:href="#STIXGeneral-Regular-20" x="227.699966"/>
      <use xlink:href="#STIXGeneral-Regular-4f" x="252.699951"/>
      <use xlink:href="#STIXGeneral-Regular-75" x="324.899933"/>
      <use xlink:href="#STIXGeneral-Regular-74" x="374.899918"/>
      <use xlink:href="#STIXGeneral-Regular-63" x="402.699905"/>
      <use xlink:href="#STIXGeneral-Regular-6f" x="447.099899"/>
      <use xlink:href="#STIXGeneral-Regular-6d" x="497.099884"/>
      <use xlink:href="#STIXGeneral-Regular-65" x="574.899872"/>
      <use xlink:href="#STIXGeneral-Regular-20" x="619.299866"/>
      <use xlink:href="#STIXGeneral-Regular-39" x="644.29985"/>
      <use xlink:href="#STIXGeneral-Regular-34" x="694.299835"/>
      <use xlink:href="#STIXGeneral-Regular-25" x="744.29982"/>
      <use xlink:href="#STIXGeneral-Regular-20" x="818.999802"/>
      <use xlink:href="#STIXGeneral-Regular-48" x="843.999786"/>
      <use xlink:href="#STIXGeneral-Regular-50" x="916.199768"/>
      <use xlink:href="#STIXGeneral-Regular-44" x="971.899765"/>
     </g>
    </g>
    <g id="patch_6">
     <path d="M 174.963125 51.297812 
L 194.963125 51.297812 
L 194.963125 44.297812 
L 174.963125 44.297812 
z
" style="fill: #ff7f50; fill-opacity: 0.2; stroke: #ff7f50; stroke-opacity: 0.2; stroke-width: 0.8; stroke-linejoin: miter"/>
    </g>
    <g id="text_24">
     <!-- Outcome 94% HPD -->
     <g style="fill: #262626" transform="translate(202.963125 51.297812) scale(0.1 -0.1)">
      <use xlink:href="#STIXGeneral-Regular-4f"/>
      <use xlink:href="#STIXGeneral-Regular-75" x="72.199982"/>
      <use xlink:href="#STIXGeneral-Regular-74" x="122.199966"/>
      <use xlink:href="#STIXGeneral-Regular-63" x="149.999954"/>
      <use xlink:href="#STIXGeneral-Regular-6f" x="194.399948"/>
      <use xlink:href="#STIXGeneral-Regular-6d" x="244.399933"/>
      <use xlink:href="#STIXGeneral-Regular-65" x="322.199921"/>
      <use xlink:href="#STIXGeneral-Regular-20" x="366.599915"/>
      <use xlink:href="#STIXGeneral-Regular-39" x="391.599899"/>
      <use xlink:href="#STIXGeneral-Regular-34" x="441.599884"/>
      <use xlink:href="#STIXGeneral-Regular-25" x="491.599869"/>
      <use xlink:href="#STIXGeneral-Regular-20" x="566.29985"/>
      <use xlink:href="#STIXGeneral-Regular-48" x="591.299835"/>
      <use xlink:href="#STIXGeneral-Regular-50" x="663.499817"/>
      <use xlink:href="#STIXGeneral-Regular-44" x="719.199814"/>
     </g>
    </g>
   </g>
  </g>
 </g>
 <defs>
  <clipPath id="p62a7e72d03">
   <rect x="61.36" y="24.1275" width="454.73952" height="290.07202"/>
  </clipPath>
 </defs>
</svg>