<?xml version="1.0" encoding="utf-8" standalone="no"?>
<!DOCTYPE svg PUBLIC "-//W3C//DTD SVG 1.1//EN"
  "http://www.w3.org/Graphics/SVG/1.1/DTD/svg11.dtd">
<svg xmlns:xlink="http://www.w3.org/1999/xlink" width="501.2pt" height="263.02375pt" viewBox="0 0 501.2 263.02375" xmlns="http://www.w3.org/2000/svg" version="1.1">
 <metadata>
  <rdf:RDF xmlns:dc="http://purl.org/dc/elements/1.1/" xmlns:cc="http://creativecommons.org/ns#" xmlns:rdf="http://www.w3.org/1999/02/22-rdf-syntax-ns#">
   <cc:Work>
    <dc:type rdf:resource="http://purl.org/dc/dcmitype/StillImage"/>
    <dc:date>2025-03-26T16:06:38.688663</dc:date>
    <dc:format>image/svg+xml</dc:format>
    <dc:creator>
     <cc:Agent>
      <dc:title>Matplotlib v3.10.0, https://matplotlib.org/</dc:title>
     </cc:Agent>
    </dc:creator>
   </cc:Work>
  </rdf:RDF>
 </metadata>
 <defs>
  <style type="text/css">*{stroke-linejoin: round; stroke-linecap: butt}</style>
 </defs>
 <g id="figure_1">
  <g id="patch_1">
   <path d="M 0 263.02375 
L 501.2 263.02375 
L 501.2 0 
L 0 0 
z
" style="fill: #ffffff"/>
  </g>
  <g id="axes_1">
   <g id="patch_2">
    <path d="M 47.6 234.42375 
L 494 234.42375 
L 494 12.66375 
L 47.6 12.66375 
z
" style="fill: #ffffff"/>
   </g>
   <g id="FillBetweenPolyCollection_1">
    <defs>
     <path id="m5e3c702dea" d="M 167.474594 -47.08 
L 126.125406 -47.08 
L 122.721966 -48.76 
L 119.162627 -50.44 
L 115.511551 -52.12 
L 111.842783 -53.8 
L 108.238563 -55.48 
L 104.785806 -57.16 
L 101.570304 -58.84 
L 98.668782 -60.52 
L 96.139732 -62.2 
L 94.014708 -63.88 
L 92.292195 -65.56 
L 90.936131 -67.24 
L 89.880401 -68.92 
L 89.039428 -70.6 
L 88.323507 -72.28 
L 87.656155 -73.96 
L 86.990025 -75.64 
L 86.317896 -77.32 
L 85.676214 -79 
L 85.140189 -80.68 
L 84.811337 -82.36 
L 84.8 -84.04 
L 85.206422 -85.72 
L 86.104076 -87.4 
L 87.528247 -89.08 
L 89.471482 -90.76 
L 91.885909 -92.44 
L 94.691048 -94.12 
L 97.784806 -95.8 
L 101.0552 -97.48 
L 104.390759 -99.16 
L 107.688424 -100.84 
L 110.858688 -102.52 
L 113.828487 -104.2 
L 116.542704 -105.88 
L 118.965083 -107.56 
L 121.078963 -109.24 
L 122.887707 -110.92 
L 124.414287 -112.6 
L 125.699329 -114.28 
L 126.797141 -115.96 
L 127.769711 -117.64 
L 128.679291 -119.32 
L 129.580705 -121 
L 130.514766 -122.68 
L 131.504021 -124.36 
L 132.551621 -126.04 
L 133.643372 -127.72 
L 134.752368 -129.4 
L 135.845108 -131.08 
L 136.887815 -132.76 
L 137.851803 -134.44 
L 138.717158 -136.12 
L 139.474421 -137.8 
L 140.124416 -139.48 
L 140.676654 -141.16 
L 141.146833 -142.84 
L 141.553942 -144.52 
L 141.917419 -146.2 
L 142.254655 -147.88 
L 142.579109 -149.56 
L 142.899194 -151.24 
L 143.218025 -152.92 
L 143.534026 -154.6 
L 143.84224 -156.28 
L 144.136083 -157.96 
L 144.409175 -159.64 
L 144.65687 -161.32 
L 144.877182 -163 
L 145.070957 -164.68 
L 145.241317 -166.36 
L 145.392593 -168.04 
L 145.529041 -169.72 
L 145.653697 -171.4 
L 145.767633 -173.08 
L 145.869775 -174.76 
L 145.957287 -176.44 
L 146.026394 -178.12 
L 146.073444 -179.8 
L 146.095958 -181.48 
L 146.09345 -183.16 
L 146.067852 -184.84 
L 146.023456 -186.52 
L 145.966399 -188.2 
L 145.90377 -189.88 
L 145.842541 -191.56 
L 145.788505 -193.24 
L 145.745467 -194.92 
L 145.714857 -196.6 
L 145.695848 -198.28 
L 145.685952 -199.96 
L 145.681969 -201.64 
L 145.681041 -203.32 
L 145.681564 -205 
L 145.683724 -206.68 
L 145.689537 -208.36 
L 145.702389 -210.04 
L 145.726196 -211.72 
L 145.764414 -213.4 
L 147.835586 -213.4 
L 147.835586 -213.4 
L 147.873804 -211.72 
L 147.897611 -210.04 
L 147.910463 -208.36 
L 147.916276 -206.68 
L 147.918436 -205 
L 147.918959 -203.32 
L 147.918031 -201.64 
L 147.914048 -199.96 
L 147.904152 -198.28 
L 147.885143 -196.6 
L 147.854533 -194.92 
L 147.811495 -193.24 
L 147.757459 -191.56 
L 147.69623 -189.88 
L 147.633601 -188.2 
L 147.576544 -186.52 
L 147.532148 -184.84 
L 147.50655 -183.16 
L 147.504042 -181.48 
L 147.526556 -179.8 
L 147.573606 -178.12 
L 147.642713 -176.44 
L 147.730225 -174.76 
L 147.832367 -173.08 
L 147.946303 -171.4 
L 148.070959 -169.72 
L 148.207407 -168.04 
L 148.358683 -166.36 
L 148.529043 -164.68 
L 148.722818 -163 
L 148.94313 -161.32 
L 149.190825 -159.64 
L 149.463917 -157.96 
L 149.75776 -156.28 
L 150.065974 -154.6 
L 150.381975 -152.92 
L 150.700806 -151.24 
L 151.020891 -149.56 
L 151.345345 -147.88 
L 151.682581 -146.2 
L 152.046058 -144.52 
L 152.453167 -142.84 
L 152.923346 -141.16 
L 153.475584 -139.48 
L 154.125579 -137.8 
L 154.882842 -136.12 
L 155.748197 -134.44 
L 156.712185 -132.76 
L 157.754892 -131.08 
L 158.847632 -129.4 
L 159.956628 -127.72 
L 161.048379 -126.04 
L 162.095979 -124.36 
L 163.085234 -122.68 
L 164.019295 -121 
L 164.920709 -119.32 
L 165.830289 -117.64 
L 166.802859 -115.96 
L 167.900671 -114.28 
L 169.185713 -112.6 
L 170.712293 -110.92 
L 172.521037 -109.24 
L 174.634917 -107.56 
L 177.057296 -105.88 
L 179.771513 -104.2 
L 182.741312 -102.52 
L 185.911576 -100.84 
L 189.209241 -99.16 
L 192.5448 -97.48 
L 195.815194 -95.8 
L 198.908952 -94.12 
L 201.714091 -92.44 
L 204.128518 -90.76 
L 206.071753 -89.08 
L 207.495924 -87.4 
L 208.393578 -85.72 
L 208.8 -84.04 
L 208.788663 -82.36 
L 208.459811 -80.68 
L 207.923786 -79 
L 207.282104 -77.32 
L 206.609975 -75.64 
L 205.943845 -73.96 
L 205.276493 -72.28 
L 204.560572 -70.6 
L 203.719599 -68.92 
L 202.663869 -67.24 
L 201.307805 -65.56 
L 199.585292 -63.88 
L 197.460268 -62.2 
L 194.931218 -60.52 
L 192.029696 -58.84 
L 188.814194 -57.16 
L 185.361437 -55.48 
L 181.757217 -53.8 
L 178.088449 -52.12 
L 174.437373 -50.44 
L 170.878034 -48.76 
L 167.474594 -47.08 
z
" style="stroke: #000000; stroke-opacity: 0.3; stroke-width: 0.8"/>
    </defs>
    <g clip-path="url(#pebfc1f0c23)">
     <use xlink:href="#m5e3c702dea" x="0" y="263.02375" style="fill: #bc80bd; fill-opacity: 0.3; stroke: #000000; stroke-opacity: 0.3; stroke-width: 0.8"/>
    </g>
   </g>
   <g id="FillBetweenPolyCollection_2">
    <defs>
     <path id="m79b493b56d" d="M 426.887347 -51.7 
L 362.712653 -51.7 
L 359.535973 -52.717333 
L 356.340206 -53.734667 
L 353.171211 -54.752 
L 350.0774 -55.769333 
L 347.108386 -56.786667 
L 344.313474 -57.804 
L 341.740054 -58.821333 
L 339.431956 -59.838667 
L 337.427868 -60.856 
L 335.759884 -61.873333 
L 334.452271 -62.890667 
L 333.520541 -63.908 
L 332.970882 -64.925333 
L 332.8 -65.942667 
L 332.995391 -66.96 
L 333.536025 -67.977333 
L 334.39342 -68.994667 
L 335.533028 -70.012 
L 336.915847 -71.029333 
L 338.500163 -72.046667 
L 340.243304 -73.064 
L 342.1033 -74.081333 
L 344.040355 -75.098667 
L 346.018051 -76.116 
L 348.004231 -77.133333 
L 349.971537 -78.150667 
L 351.897614 -79.168 
L 353.765003 -80.185333 
L 355.560781 -81.202667 
L 357.276021 -82.22 
L 358.905134 -83.237333 
L 360.445186 -84.254667 
L 361.895243 -85.272 
L 363.255808 -86.289333 
L 364.528387 -87.306667 
L 365.715191 -88.324 
L 366.818978 -89.341333 
L 367.843027 -90.358667 
L 368.791179 -91.376 
L 369.667936 -92.393333 
L 370.478554 -93.410667 
L 371.229087 -94.428 
L 371.926362 -95.445333 
L 372.577848 -96.462667 
L 373.191422 -97.48 
L 373.775044 -98.497333 
L 374.336363 -99.514667 
L 374.882287 -100.532 
L 375.418578 -101.549333 
L 375.949502 -102.566667 
L 376.477593 -103.584 
L 377.003549 -104.601333 
L 377.526304 -105.618667 
L 378.043251 -106.636 
L 378.550624 -107.653333 
L 379.043997 -108.670667 
L 379.518846 -109.688 
L 379.971138 -110.705333 
L 380.397867 -111.722667 
L 380.797493 -112.74 
L 381.170241 -113.757333 
L 381.518218 -114.774667 
L 381.845349 -115.792 
L 382.157124 -116.809333 
L 382.4602 -117.826667 
L 382.761881 -118.844 
L 383.069536 -119.861333 
L 383.390016 -120.878667 
L 383.729111 -121.896 
L 384.091112 -122.913333 
L 384.478501 -123.930667 
L 384.891793 -124.948 
L 385.329545 -125.965333 
L 385.788507 -126.982667 
L 386.263897 -128 
L 386.749774 -129.017333 
L 387.239459 -130.034667 
L 387.725974 -131.052 
L 388.202461 -132.069333 
L 388.662544 -133.086667 
L 389.100627 -134.104 
L 389.512106 -135.121333 
L 389.893503 -136.138667 
L 390.24251 -137.156 
L 390.55798 -138.173333 
L 390.83985 -139.190667 
L 391.089041 -140.208 
L 391.307318 -141.225333 
L 391.497149 -142.242667 
L 391.661554 -143.26 
L 391.803958 -144.277333 
L 391.928043 -145.294667 
L 392.037613 -146.312 
L 392.136456 -147.329333 
L 392.228221 -148.346667 
L 392.316296 -149.364 
L 392.403704 -150.381333 
L 392.493005 -151.398667 
L 392.586228 -152.416 
L 397.013772 -152.416 
L 397.013772 -152.416 
L 397.106995 -151.398667 
L 397.196296 -150.381333 
L 397.283704 -149.364 
L 397.371779 -148.346667 
L 397.463544 -147.329333 
L 397.562387 -146.312 
L 397.671957 -145.294667 
L 397.796042 -144.277333 
L 397.938446 -143.26 
L 398.102851 -142.242667 
L 398.292682 -141.225333 
L 398.510959 -140.208 
L 398.76015 -139.190667 
L 399.04202 -138.173333 
L 399.35749 -137.156 
L 399.706497 -136.138667 
L 400.087894 -135.121333 
L 400.499373 -134.104 
L 400.937456 -133.086667 
L 401.397539 -132.069333 
L 401.874026 -131.052 
L 402.360541 -130.034667 
L 402.850226 -129.017333 
L 403.336103 -128 
L 403.811493 -126.982667 
L 404.270455 -125.965333 
L 404.708207 -124.948 
L 405.121499 -123.930667 
L 405.508888 -122.913333 
L 405.870889 -121.896 
L 406.209984 -120.878667 
L 406.530464 -119.861333 
L 406.838119 -118.844 
L 407.1398 -117.826667 
L 407.442876 -116.809333 
L 407.754651 -115.792 
L 408.081782 -114.774667 
L 408.429759 -113.757333 
L 408.802507 -112.74 
L 409.202133 -111.722667 
L 409.628862 -110.705333 
L 410.081154 -109.688 
L 410.556003 -108.670667 
L 411.049376 -107.653333 
L 411.556749 -106.636 
L 412.073696 -105.618667 
L 412.596451 -104.601333 
L 413.122407 -103.584 
L 413.650498 -102.566667 
L 414.181422 -101.549333 
L 414.717713 -100.532 
L 415.263637 -99.514667 
L 415.824956 -98.497333 
L 416.408578 -97.48 
L 417.022152 -96.462667 
L 417.673638 -95.445333 
L 418.370913 -94.428 
L 419.121446 -93.410667 
L 419.932064 -92.393333 
L 420.808821 -91.376 
L 421.756973 -90.358667 
L 422.781022 -89.341333 
L 423.884809 -88.324 
L 425.071613 -87.306667 
L 426.344192 -86.289333 
L 427.704757 -85.272 
L 429.154814 -84.254667 
L 430.694866 -83.237333 
L 432.323979 -82.22 
L 434.039219 -81.202667 
L 435.834997 -80.185333 
L 437.702386 -79.168 
L 439.628463 -78.150667 
L 441.595769 -77.133333 
L 443.581949 -76.116 
L 445.559645 -75.098667 
L 447.4967 -74.081333 
L 449.356696 -73.064 
L 451.099837 -72.046667 
L 452.684153 -71.029333 
L 454.066972 -70.012 
L 455.20658 -68.994667 
L 456.063975 -67.977333 
L 456.604609 -66.96 
L 456.8 -65.942667 
L 456.629118 -64.925333 
L 456.079459 -63.908 
L 455.147729 -62.890667 
L 453.840116 -61.873333 
L 452.172132 -60.856 
L 450.168044 -59.838667 
L 447.859946 -58.821333 
L 445.286526 -57.804 
L 442.491614 -56.786667 
L 439.5226 -55.769333 
L 436.428789 -54.752 
L 433.259794 -53.734667 
L 430.064027 -52.717333 
L 426.887347 -51.7 
z
" style="stroke: #000000; stroke-opacity: 0.3; stroke-width: 0.8"/>
    </defs>
    <g clip-path="url(#pebfc1f0c23)">
     <use xlink:href="#m79b493b56d" x="0" y="263.02375" style="fill: #fb8072; fill-opacity: 0.3; stroke: #000000; stroke-opacity: 0.3; stroke-width: 0.8"/>
    </g>
   </g>
   <g id="matplotlib.axis_1">
    <g id="xtick_1">
     <g id="line2d_1">
      <defs>
       <path id="m2c0ddbda28" d="M 0 0 
L 0 3.5 
" style="stroke: #323034; stroke-width: 0.8"/>
      </defs>
      <g>
       <use xlink:href="#m2c0ddbda28" x="146.8" y="234.42375" style="fill: #323034; stroke: #323034; stroke-width: 0.8"/>
      </g>
     </g>
     <g id="text_1">
      <!-- Dinner -->
      <g style="fill: #323034" transform="translate(124.58375 252.35125) scale(0.16 -0.16)">
       <defs>
        <path id="STIXGeneral-Regular-44" d="M 102 4237 
L 1830 4237 
Q 3078 4237 3750 3654 
Q 4384 3110 4384 2138 
Q 4384 966 3514 410 
Q 2880 0 1901 0 
L 102 0 
L 102 122 
Q 474 147 570 252 
Q 666 358 666 736 
L 666 3520 
Q 666 3891 570 3990 
Q 474 4090 102 4115 
L 102 4237 
z
M 1318 3731 
L 1318 538 
Q 1318 365 1379 301 
Q 1440 237 1626 237 
Q 2125 237 2432 307 
Q 2739 378 3021 570 
Q 3686 1018 3686 2099 
Q 3686 3027 3078 3558 
Q 2803 3802 2476 3901 
Q 2150 4000 1658 4000 
Q 1472 4000 1395 3942 
Q 1318 3885 1318 3731 
z
" transform="scale(0.015625)"/>
        <path id="STIXGeneral-Regular-69" d="M 1152 4045 
Q 1152 3904 1056 3811 
Q 960 3718 819 3718 
Q 685 3718 592 3811 
Q 499 3904 499 4045 
Q 499 4179 595 4275 
Q 691 4371 826 4371 
Q 966 4371 1059 4275 
Q 1152 4179 1152 4045 
z
M 1619 0 
L 102 0 
L 102 96 
Q 435 115 521 211 
Q 608 307 608 666 
L 608 2118 
Q 608 2342 563 2432 
Q 518 2522 397 2522 
Q 243 2522 128 2490 
L 128 2592 
L 1120 2944 
L 1146 2918 
L 1146 672 
Q 1146 314 1226 218 
Q 1306 122 1619 96 
L 1619 0 
z
" transform="scale(0.015625)"/>
        <path id="STIXGeneral-Regular-6e" d="M 3104 0 
L 1773 0 
L 1779 96 
Q 2016 115 2096 233 
Q 2176 352 2176 672 
L 2176 1946 
Q 2176 2592 1709 2592 
Q 1549 2592 1408 2515 
Q 1267 2438 1050 2227 
L 1050 461 
Q 1050 269 1136 192 
Q 1222 115 1466 96 
L 1466 0 
L 115 0 
L 115 96 
Q 358 115 435 214 
Q 512 314 512 602 
L 512 2157 
Q 512 2394 467 2483 
Q 422 2573 288 2573 
Q 160 2573 102 2547 
L 102 2656 
Q 550 2784 979 2944 
L 1030 2925 
L 1030 2426 
L 1037 2426 
Q 1491 2944 1958 2944 
Q 2323 2944 2518 2688 
Q 2714 2432 2714 1958 
L 2714 544 
Q 2714 288 2790 205 
Q 2867 122 3104 96 
L 3104 0 
z
" transform="scale(0.015625)"/>
        <path id="STIXGeneral-Regular-65" d="M 2611 1050 
L 2714 1005 
Q 2330 -64 1376 -64 
Q 813 -64 486 329 
Q 160 723 160 1389 
Q 160 2074 525 2509 
Q 890 2944 1485 2944 
Q 2061 2944 2374 2502 
Q 2560 2246 2592 1773 
L 621 1773 
Q 646 1370 700 1158 
Q 755 947 915 730 
Q 1184 378 1626 378 
Q 1939 378 2153 531 
Q 2368 685 2611 1050 
z
M 634 1978 
L 1939 1978 
Q 1882 2381 1750 2547 
Q 1619 2714 1312 2714 
Q 1043 2714 864 2525 
Q 685 2336 634 1978 
z
" transform="scale(0.015625)"/>
        <path id="STIXGeneral-Regular-72" d="M 1024 2931 
L 1024 2342 
Q 1267 2688 1430 2816 
Q 1594 2944 1792 2944 
Q 1958 2944 2051 2854 
Q 2144 2765 2144 2605 
Q 2144 2470 2077 2393 
Q 2010 2317 1894 2317 
Q 1773 2317 1638 2445 
Q 1536 2541 1472 2541 
Q 1338 2541 1181 2355 
Q 1024 2170 1024 2016 
L 1024 576 
Q 1024 301 1133 205 
Q 1242 109 1568 96 
L 1568 0 
L 32 0 
L 32 96 
Q 339 154 412 224 
Q 486 294 486 538 
L 486 2138 
Q 486 2349 438 2435 
Q 390 2522 269 2522 
Q 166 2522 45 2496 
L 45 2598 
Q 448 2726 992 2944 
L 1024 2931 
z
" transform="scale(0.015625)"/>
       </defs>
       <use xlink:href="#STIXGeneral-Regular-44"/>
       <use xlink:href="#STIXGeneral-Regular-69" transform="translate(72.199982 0)"/>
       <use xlink:href="#STIXGeneral-Regular-6e" transform="translate(99.999969 0)"/>
       <use xlink:href="#STIXGeneral-Regular-6e" transform="translate(149.999954 0)"/>
       <use xlink:href="#STIXGeneral-Regular-65" transform="translate(199.999939 0)"/>
       <use xlink:href="#STIXGeneral-Regular-72" transform="translate(244.399933 0)"/>
      </g>
     </g>
    </g>
    <g id="xtick_2">
     <g id="line2d_2">
      <g>
       <use xlink:href="#m2c0ddbda28" x="394.8" y="234.42375" style="fill: #323034; stroke: #323034; stroke-width: 0.8"/>
      </g>
     </g>
     <g id="text_2">
      <!-- Lunch -->
      <g style="fill: #323034" transform="translate(374.36 252.35125) scale(0.16 -0.16)">
       <defs>
        <path id="STIXGeneral-Regular-4c" d="M 3827 1114 
L 3520 0 
L 77 0 
L 77 122 
Q 429 141 531 256 
Q 634 371 634 736 
L 634 3494 
Q 634 3872 541 3981 
Q 448 4090 77 4115 
L 77 4237 
L 1888 4237 
L 1888 4115 
Q 1498 4090 1392 3984 
Q 1286 3878 1286 3507 
L 1286 538 
Q 1286 358 1398 304 
Q 1510 250 1862 250 
L 2310 250 
Q 3085 250 3392 640 
Q 3520 813 3661 1114 
L 3827 1114 
z
" transform="scale(0.015625)"/>
        <path id="STIXGeneral-Regular-75" d="M 3072 320 
L 3072 230 
Q 2573 96 2195 -58 
L 2163 -38 
L 2163 486 
L 2150 486 
Q 1747 -64 1235 -64 
Q 870 -64 662 160 
Q 454 384 454 755 
L 454 2362 
Q 454 2598 371 2688 
Q 288 2778 58 2790 
L 58 2880 
L 992 2880 
L 992 813 
Q 992 595 1123 451 
Q 1254 307 1446 307 
Q 1760 307 1984 506 
Q 2067 582 2099 649 
Q 2131 717 2131 877 
L 2131 2355 
Q 2131 2605 2041 2678 
Q 1952 2752 1658 2771 
L 1658 2880 
L 2669 2880 
L 2669 685 
Q 2669 461 2742 390 
Q 2816 320 3034 320 
L 3072 320 
z
" transform="scale(0.015625)"/>
        <path id="STIXGeneral-Regular-63" d="M 2547 998 
L 2637 941 
Q 2362 403 2112 205 
Q 1786 -64 1376 -64 
Q 845 -64 502 336 
Q 160 736 160 1357 
Q 160 2170 698 2618 
Q 1094 2944 1562 2944 
Q 1965 2944 2256 2749 
Q 2547 2554 2547 2285 
Q 2547 2176 2457 2096 
Q 2368 2016 2246 2016 
Q 2022 2016 1939 2310 
L 1901 2451 
Q 1850 2630 1773 2694 
Q 1696 2758 1523 2758 
Q 1133 2758 893 2451 
Q 653 2144 653 1645 
Q 653 1094 928 745 
Q 1203 397 1645 397 
Q 1920 397 2118 528 
Q 2317 659 2547 998 
z
" transform="scale(0.015625)"/>
        <path id="STIXGeneral-Regular-68" d="M 3117 0 
L 1760 0 
L 1760 96 
Q 2042 128 2118 224 
Q 2195 320 2195 653 
L 2195 1920 
Q 2195 2598 1722 2598 
Q 1530 2598 1370 2508 
Q 1210 2419 1005 2195 
L 1005 653 
Q 1005 320 1081 224 
Q 1158 128 1440 96 
L 1440 0 
L 58 0 
L 58 96 
Q 333 134 400 224 
Q 467 314 467 653 
L 467 3667 
Q 467 3872 406 3933 
Q 346 3994 141 3994 
Q 83 3994 64 3987 
L 64 4090 
L 237 4141 
Q 730 4288 973 4371 
L 1005 4352 
L 1005 2406 
Q 1229 2694 1446 2819 
Q 1664 2944 1946 2944 
Q 2733 2944 2733 1926 
L 2733 653 
Q 2733 320 2793 233 
Q 2854 147 3117 96 
L 3117 0 
z
" transform="scale(0.015625)"/>
       </defs>
       <use xlink:href="#STIXGeneral-Regular-4c"/>
       <use xlink:href="#STIXGeneral-Regular-75" transform="translate(61.099991 0)"/>
       <use xlink:href="#STIXGeneral-Regular-6e" transform="translate(111.099976 0)"/>
       <use xlink:href="#STIXGeneral-Regular-63" transform="translate(161.09996 0)"/>
       <use xlink:href="#STIXGeneral-Regular-68" transform="translate(205.499954 0)"/>
      </g>
     </g>
    </g>
   </g>
   <g id="matplotlib.axis_2">
    <g id="ytick_1">
     <g id="line2d_3">
      <defs>
       <path id="mb02a54c56f" d="M 0 0 
L -3.5 0 
" style="stroke: #323034; stroke-width: 0.8"/>
      </defs>
      <g>
       <use xlink:href="#mb02a54c56f" x="47.6" y="234.42375" style="fill: #323034; stroke: #323034; stroke-width: 0.8"/>
      </g>
     </g>
     <g id="text_3">
      <!-- $\mathdefault{0}$ -->
      <g style="fill: #323034" transform="translate(32.6 239.8875) scale(0.16 -0.16)">
       <defs>
        <path id="STIXGeneral-Regular-30" d="M 3046 2112 
Q 3046 1683 2963 1302 
Q 2880 922 2717 602 
Q 2554 282 2266 96 
Q 1978 -90 1600 -90 
Q 1210 -90 915 108 
Q 621 307 461 640 
Q 301 973 227 1350 
Q 154 1728 154 2150 
Q 154 2746 301 3222 
Q 448 3699 790 4012 
Q 1133 4326 1626 4326 
Q 2253 4326 2649 3712 
Q 3046 3098 3046 2112 
z
M 2432 2080 
Q 2432 3091 2217 3625 
Q 2003 4160 1587 4160 
Q 1190 4160 979 3622 
Q 768 3085 768 2106 
Q 768 1120 979 598 
Q 1190 77 1600 77 
Q 2003 77 2217 598 
Q 2432 1120 2432 2080 
z
" transform="scale(0.015625)"/>
       </defs>
       <use xlink:href="#STIXGeneral-Regular-30" transform="translate(0 0.40625)"/>
      </g>
     </g>
    </g>
    <g id="ytick_2">
     <g id="line2d_4">
      <g>
       <use xlink:href="#mb02a54c56f" x="47.6" y="197.46375" style="fill: #323034; stroke: #323034; stroke-width: 0.8"/>
      </g>
     </g>
     <g id="text_4">
      <!-- $\mathdefault{2}$ -->
      <g style="fill: #323034" transform="translate(32.6 202.9275) scale(0.16 -0.16)">
       <defs>
        <path id="STIXGeneral-Regular-32" d="M 3034 877 
L 2688 0 
L 186 0 
L 186 77 
L 1325 1286 
Q 1773 1754 1965 2144 
Q 2157 2534 2157 2950 
Q 2157 3379 1920 3616 
Q 1683 3853 1267 3853 
Q 922 3853 720 3673 
Q 518 3494 326 3021 
L 192 3053 
Q 301 3648 630 3987 
Q 960 4326 1523 4326 
Q 2054 4326 2380 4006 
Q 2707 3686 2707 3200 
Q 2707 2477 1888 1613 
L 832 486 
L 2330 486 
Q 2541 486 2665 569 
Q 2790 653 2944 915 
L 3034 877 
z
" transform="scale(0.015625)"/>
       </defs>
       <use xlink:href="#STIXGeneral-Regular-32" transform="translate(0 0.40625)"/>
      </g>
     </g>
    </g>
    <g id="ytick_3">
     <g id="line2d_5">
      <g>
       <use xlink:href="#mb02a54c56f" x="47.6" y="160.50375" style="fill: #323034; stroke: #323034; stroke-width: 0.8"/>
      </g>
     </g>
     <g id="text_5">
      <!-- $\mathdefault{4}$ -->
      <g style="fill: #323034" transform="translate(32.6 165.9675) scale(0.16 -0.16)">
       <defs>
        <path id="STIXGeneral-Regular-34" d="M 3027 1069 
L 2368 1069 
L 2368 0 
L 1869 0 
L 1869 1069 
L 77 1069 
L 77 1478 
L 2086 4326 
L 2368 4326 
L 2368 1478 
L 3027 1478 
L 3027 1069 
z
M 1869 1478 
L 1869 3674 
L 333 1478 
L 1869 1478 
z
" transform="scale(0.015625)"/>
       </defs>
       <use xlink:href="#STIXGeneral-Regular-34" transform="translate(0 0.40625)"/>
      </g>
     </g>
    </g>
    <g id="ytick_4">
     <g id="line2d_6">
      <g>
       <use xlink:href="#mb02a54c56f" x="47.6" y="123.54375" style="fill: #323034; stroke: #323034; stroke-width: 0.8"/>
      </g>
     </g>
     <g id="text_6">
      <!-- $\mathdefault{6}$ -->
      <g style="fill: #323034" transform="translate(32.6 129.0075) scale(0.16 -0.16)">
       <defs>
        <path id="STIXGeneral-Regular-36" d="M 2854 4378 
L 2867 4275 
Q 2112 4154 1606 3664 
Q 1101 3174 973 2451 
Q 1344 2739 1786 2739 
Q 2349 2739 2672 2380 
Q 2995 2022 2995 1402 
Q 2995 774 2669 378 
Q 2291 -90 1651 -90 
Q 870 -90 518 557 
Q 218 1107 218 1786 
Q 218 2835 915 3552 
Q 1312 3962 1731 4131 
Q 2150 4301 2854 4378 
z
M 2419 1203 
Q 2419 2445 1555 2445 
Q 1235 2445 1024 2275 
Q 813 2106 813 1702 
Q 813 954 1046 522 
Q 1280 90 1722 90 
Q 2061 90 2240 394 
Q 2419 698 2419 1203 
z
" transform="scale(0.015625)"/>
       </defs>
       <use xlink:href="#STIXGeneral-Regular-36" transform="translate(0 0.59375)"/>
      </g>
     </g>
    </g>
    <g id="ytick_5">
     <g id="line2d_7">
      <g>
       <use xlink:href="#mb02a54c56f" x="47.6" y="86.58375" style="fill: #323034; stroke: #323034; stroke-width: 0.8"/>
      </g>
     </g>
     <g id="text_7">
      <!-- $\mathdefault{8}$ -->
      <g style="fill: #323034" transform="translate(32.6 92.0475) scale(0.16 -0.16)">
       <defs>
        <path id="STIXGeneral-Regular-38" d="M 2848 992 
Q 2848 499 2505 204 
Q 2163 -90 1587 -90 
Q 1050 -90 704 204 
Q 358 499 358 954 
Q 358 1293 524 1533 
Q 691 1773 1190 2125 
Q 710 2522 553 2765 
Q 397 3008 397 3328 
Q 397 3782 745 4054 
Q 1094 4326 1638 4326 
Q 2106 4326 2410 4060 
Q 2714 3795 2714 3411 
Q 2714 3059 2531 2848 
Q 2349 2637 1856 2374 
Q 2432 1990 2640 1689 
Q 2848 1389 2848 992 
z
M 2272 3411 
Q 2272 3744 2086 3945 
Q 1901 4147 1574 4147 
Q 1248 4147 1059 3977 
Q 870 3808 870 3513 
Q 870 3219 1059 2979 
Q 1248 2739 1670 2490 
Q 1997 2682 2134 2896 
Q 2272 3110 2272 3411 
z
M 1734 1741 
L 1357 1997 
Q 1075 1766 960 1545 
Q 845 1325 845 1011 
Q 845 576 1065 333 
Q 1286 90 1658 90 
Q 1971 90 2166 285 
Q 2362 480 2362 794 
Q 2362 1082 2214 1299 
Q 2067 1517 1734 1741 
z
" transform="scale(0.015625)"/>
       </defs>
       <use xlink:href="#STIXGeneral-Regular-38" transform="translate(0 0.40625)"/>
      </g>
     </g>
    </g>
    <g id="ytick_6">
     <g id="line2d_8">
      <g>
       <use xlink:href="#mb02a54c56f" x="47.6" y="49.62375" style="fill: #323034; stroke: #323034; stroke-width: 0.8"/>
      </g>
     </g>
     <g id="text_8">
      <!-- $\mathdefault{10}$ -->
      <g style="fill: #323034" transform="translate(24.6 55.0875) scale(0.16 -0.16)">
       <defs>
        <path id="STIXGeneral-Regular-31" d="M 2522 0 
L 755 0 
L 755 96 
Q 1107 115 1235 227 
Q 1363 339 1363 608 
L 1363 3482 
Q 1363 3795 1171 3795 
Q 1082 3795 883 3718 
L 710 3654 
L 710 3744 
L 1856 4326 
L 1914 4307 
L 1914 486 
Q 1914 275 2042 185 
Q 2170 96 2522 96 
L 2522 0 
z
" transform="scale(0.015625)"/>
       </defs>
       <use xlink:href="#STIXGeneral-Regular-31" transform="translate(0 0.40625)"/>
       <use xlink:href="#STIXGeneral-Regular-30" transform="translate(49.999985 0.40625)"/>
      </g>
     </g>
    </g>
    <g id="ytick_7">
     <g id="line2d_9">
      <g>
       <use xlink:href="#mb02a54c56f" x="47.6" y="12.66375" style="fill: #323034; stroke: #323034; stroke-width: 0.8"/>
      </g>
     </g>
     <g id="text_9">
      <!-- $\mathdefault{12}$ -->
      <g style="fill: #323034" transform="translate(24.6 18.1275) scale(0.16 -0.16)">
       <use xlink:href="#STIXGeneral-Regular-31" transform="translate(0 0.40625)"/>
       <use xlink:href="#STIXGeneral-Regular-32" transform="translate(49.999985 0.40625)"/>
      </g>
     </g>
    </g>
    <g id="text_10">
     <!-- Tip -->
     <g transform="translate(18.1275 134.655) rotate(-90) scale(0.16 -0.16)">
      <defs>
       <path id="STIXGeneral-Regular-54" d="M 3795 3149 
L 3642 3149 
Q 3539 3674 3353 3821 
Q 3168 3968 2656 3968 
L 2278 3968 
L 2278 710 
Q 2278 346 2387 243 
Q 2496 141 2893 122 
L 2893 0 
L 1024 0 
L 1024 122 
Q 1427 147 1526 256 
Q 1626 365 1626 787 
L 1626 3968 
L 1242 3968 
Q 723 3968 540 3817 
Q 358 3667 262 3149 
L 109 3149 
L 154 4237 
L 3750 4237 
L 3795 3149 
z
" transform="scale(0.015625)"/>
       <path id="STIXGeneral-Regular-70" d="M 1018 2931 
L 1018 2438 
Q 1421 2944 1939 2944 
Q 2406 2944 2707 2560 
Q 3008 2176 3008 1581 
Q 3008 883 2621 409 
Q 2234 -64 1664 -64 
Q 1466 -64 1328 -6 
Q 1190 51 1018 211 
L 1018 -794 
Q 1018 -1094 1120 -1180 
Q 1222 -1267 1581 -1274 
L 1581 -1389 
L 32 -1389 
L 32 -1280 
Q 314 -1254 397 -1171 
Q 480 -1088 480 -838 
L 480 2157 
Q 480 2381 429 2451 
Q 378 2522 218 2522 
Q 115 2522 58 2515 
L 58 2618 
Q 506 2752 979 2944 
L 1018 2931 
z
M 1018 2138 
L 1018 563 
Q 1018 422 1238 281 
Q 1459 141 1683 141 
Q 2029 141 2243 467 
Q 2458 794 2458 1325 
Q 2458 1888 2243 2224 
Q 2029 2560 1670 2560 
Q 1446 2560 1232 2419 
Q 1018 2278 1018 2138 
z
" transform="scale(0.015625)"/>
      </defs>
      <use xlink:href="#STIXGeneral-Regular-54"/>
      <use xlink:href="#STIXGeneral-Regular-69" transform="translate(61.099991 0)"/>
      <use xlink:href="#STIXGeneral-Regular-70" transform="translate(88.899979 0)"/>
     </g>
    </g>
   </g>
   <g id="LineCollection_1">
    <path d="M 115.8 49.62375 
L 177.8 49.62375 
" clip-path="url(#pebfc1f0c23)" style="fill: none; stroke: #bc80bd; stroke-width: 3"/>
   </g>
   <g id="LineCollection_2">
    <path d="M 115.8 215.94375 
L 177.8 215.94375 
" clip-path="url(#pebfc1f0c23)" style="fill: none; stroke: #bc80bd; stroke-width: 3"/>
   </g>
   <g id="LineCollection_3">
    <path d="M 146.8 215.94375 
L 146.8 49.62375 
" clip-path="url(#pebfc1f0c23)" style="fill: none; stroke: #bc80bd; stroke-width: 3"/>
   </g>
   <g id="LineCollection_4">
    <path d="M 363.8 110.60775 
L 425.8 110.60775 
" clip-path="url(#pebfc1f0c23)" style="fill: none; stroke: #fb8072; stroke-width: 3"/>
   </g>
   <g id="LineCollection_5">
    <path d="M 363.8 211.32375 
L 425.8 211.32375 
" clip-path="url(#pebfc1f0c23)" style="fill: none; stroke: #fb8072; stroke-width: 3"/>
   </g>
   <g id="LineCollection_6">
    <path d="M 394.8 211.32375 
L 394.8 110.60775 
" clip-path="url(#pebfc1f0c23)" style="fill: none; stroke: #fb8072; stroke-width: 3"/>
   </g>
   <g id="patch_3">
    <path d="M 47.6 234.42375 
L 47.6 12.66375 
" style="fill: none; stroke: #000000; stroke-width: 0.6; stroke-linejoin: miter; stroke-linecap: square"/>
   </g>
   <g id="patch_4">
    <path d="M 47.6 234.42375 
L 494 234.42375 
" style="fill: none; stroke: #000000; stroke-width: 0.6; stroke-linejoin: miter; stroke-linecap: square"/>
   </g>
  </g>
 </g>
 <defs>
  <clipPath id="pebfc1f0c23">
   <rect x="47.6" y="12.66375" width="446.4" height="221.76"/>
  </clipPath>
 </defs>
</svg>