<?xml version="1.0" encoding="utf-8" standalone="no"?>
<!DOCTYPE svg PUBLIC "-//W3C//DTD SVG 1.1//EN"
  "http://www.w3.org/Graphics/SVG/1.1/DTD/svg11.dtd">
<svg xmlns:xlink="http://www.w3.org/1999/xlink" width="506.84pt" height="276.536406pt" viewBox="0 0 506.84 276.536406" xmlns="http://www.w3.org/2000/svg" version="1.1">
 <metadata>
  <rdf:RDF xmlns:dc="http://purl.org/dc/elements/1.1/" xmlns:cc="http://creativecommons.org/ns#" xmlns:rdf="http://www.w3.org/1999/02/22-rdf-syntax-ns#">
   <cc:Work>
    <dc:type rdf:resource="http://purl.org/dc/dcmitype/StillImage"/>
    <dc:date>2025-03-26T16:06:12.910072</dc:date>
    <dc:format>image/svg+xml</dc:format>
    <dc:creator>
     <cc:Agent>
      <dc:title>Matplotlib v3.10.0, https://matplotlib.org/</dc:title>
     </cc:Agent>
    </dc:creator>
   </cc:Work>
  </rdf:RDF>
 </metadata>
 <defs>
  <style type="text/css">*{stroke-linejoin: round; stroke-linecap: butt}</style>
 </defs>
 <g id="figure_1">
  <g id="patch_1">
   <path d="M 0 276.536406 
L 506.84 276.536406 
L 506.84 0 
L 0 0 
z
" style="fill: #ffffff"/>
  </g>
  <g id="axes_1">
   <g id="patch_2">
    <path d="M 41.24 247.936406 
L 487.64 247.936406 
L 487.64 26.176406 
L 41.24 26.176406 
z
" style="fill: #ffffff"/>
   </g>
   <g id="patch_3">
    <path d="M 115.64 247.936406 
L 175.16 247.936406 
L 175.16 26.176406 
L 115.64 26.176406 
z
" clip-path="url(#peeccd9ee12)" style="fill: #ff0000; opacity: 0.2; stroke: #000000; stroke-width: 0.8; stroke-linejoin: miter"/>
   </g>
   <g id="patch_4">
    <path d="M 175.16 247.936406 
L 294.2 247.936406 
L 294.2 26.176406 
L 175.16 26.176406 
z
" clip-path="url(#peeccd9ee12)" style="fill: #0000ff; opacity: 0.2; stroke: #000000; stroke-width: 0.8; stroke-linejoin: miter"/>
   </g>
   <g id="patch_5">
    <path d="M 294.2 247.936406 
L 412.496 247.936406 
L 412.496 26.176406 
L 294.2 26.176406 
z
" clip-path="url(#peeccd9ee12)" style="fill: #ff0000; opacity: 0.2; stroke: #000000; stroke-width: 0.8; stroke-linejoin: miter"/>
   </g>
   <g id="matplotlib.axis_1">
    <g id="xtick_1">
     <g id="line2d_1">
      <defs>
       <path id="me092e6b968" d="M 0 0 
L 0 3.5 
" style="stroke: #323034; stroke-width: 0.8"/>
      </defs>
      <g>
       <use xlink:href="#me092e6b968" x="41.24" y="247.936406" style="fill: #323034; stroke: #323034; stroke-width: 0.8"/>
      </g>
     </g>
     <g id="text_1">
      <!-- $\mathdefault{−100}$ -->
      <g style="fill: #323034" transform="translate(23.72 265.863906) scale(0.16 -0.16)">
       <defs>
        <path id="STIXGeneral-Regular-2212" d="M 3974 1408 
L 410 1408 
L 410 1830 
L 3974 1830 
L 3974 1408 
z
" transform="scale(0.015625)"/>
        <path id="STIXGeneral-Regular-31" d="M 2522 0 
L 755 0 
L 755 96 
Q 1107 115 1235 227 
Q 1363 339 1363 608 
L 1363 3482 
Q 1363 3795 1171 3795 
Q 1082 3795 883 3718 
L 710 3654 
L 710 3744 
L 1856 4326 
L 1914 4307 
L 1914 486 
Q 1914 275 2042 185 
Q 2170 96 2522 96 
L 2522 0 
z
" transform="scale(0.015625)"/>
        <path id="STIXGeneral-Regular-30" d="M 3046 2112 
Q 3046 1683 2963 1302 
Q 2880 922 2717 602 
Q 2554 282 2266 96 
Q 1978 -90 1600 -90 
Q 1210 -90 915 108 
Q 621 307 461 640 
Q 301 973 227 1350 
Q 154 1728 154 2150 
Q 154 2746 301 3222 
Q 448 3699 790 4012 
Q 1133 4326 1626 4326 
Q 2253 4326 2649 3712 
Q 3046 3098 3046 2112 
z
M 2432 2080 
Q 2432 3091 2217 3625 
Q 2003 4160 1587 4160 
Q 1190 4160 979 3622 
Q 768 3085 768 2106 
Q 768 1120 979 598 
Q 1190 77 1600 77 
Q 2003 77 2217 598 
Q 2432 1120 2432 2080 
z
" transform="scale(0.015625)"/>
       </defs>
       <use xlink:href="#STIXGeneral-Regular-2212" transform="translate(0 0.40625)"/>
       <use xlink:href="#STIXGeneral-Regular-31" transform="translate(68.499985 0.40625)"/>
       <use xlink:href="#STIXGeneral-Regular-30" transform="translate(118.499969 0.40625)"/>
       <use xlink:href="#STIXGeneral-Regular-30" transform="translate(168.499954 0.40625)"/>
      </g>
     </g>
    </g>
    <g id="xtick_2">
     <g id="line2d_2">
      <g>
       <use xlink:href="#me092e6b968" x="115.64" y="247.936406" style="fill: #323034; stroke: #323034; stroke-width: 0.8"/>
      </g>
     </g>
     <g id="text_2">
      <!-- $\mathdefault{0}$ -->
      <g style="fill: #323034" transform="translate(111.64 265.863906) scale(0.16 -0.16)">
       <use xlink:href="#STIXGeneral-Regular-30" transform="translate(0 0.40625)"/>
      </g>
     </g>
    </g>
    <g id="xtick_3">
     <g id="line2d_3">
      <g>
       <use xlink:href="#me092e6b968" x="190.04" y="247.936406" style="fill: #323034; stroke: #323034; stroke-width: 0.8"/>
      </g>
     </g>
     <g id="text_3">
      <!-- $\mathdefault{100}$ -->
      <g style="fill: #323034" transform="translate(178.04 265.863906) scale(0.16 -0.16)">
       <use xlink:href="#STIXGeneral-Regular-31" transform="translate(0 0.40625)"/>
       <use xlink:href="#STIXGeneral-Regular-30" transform="translate(49.999985 0.40625)"/>
       <use xlink:href="#STIXGeneral-Regular-30" transform="translate(99.999969 0.40625)"/>
      </g>
     </g>
    </g>
    <g id="xtick_4">
     <g id="line2d_4">
      <g>
       <use xlink:href="#me092e6b968" x="264.44" y="247.936406" style="fill: #323034; stroke: #323034; stroke-width: 0.8"/>
      </g>
     </g>
     <g id="text_4">
      <!-- $\mathdefault{200}$ -->
      <g style="fill: #323034" transform="translate(252.44 265.863906) scale(0.16 -0.16)">
       <defs>
        <path id="STIXGeneral-Regular-32" d="M 3034 877 
L 2688 0 
L 186 0 
L 186 77 
L 1325 1286 
Q 1773 1754 1965 2144 
Q 2157 2534 2157 2950 
Q 2157 3379 1920 3616 
Q 1683 3853 1267 3853 
Q 922 3853 720 3673 
Q 518 3494 326 3021 
L 192 3053 
Q 301 3648 630 3987 
Q 960 4326 1523 4326 
Q 2054 4326 2380 4006 
Q 2707 3686 2707 3200 
Q 2707 2477 1888 1613 
L 832 486 
L 2330 486 
Q 2541 486 2665 569 
Q 2790 653 2944 915 
L 3034 877 
z
" transform="scale(0.015625)"/>
       </defs>
       <use xlink:href="#STIXGeneral-Regular-32" transform="translate(0 0.40625)"/>
       <use xlink:href="#STIXGeneral-Regular-30" transform="translate(49.999985 0.40625)"/>
       <use xlink:href="#STIXGeneral-Regular-30" transform="translate(99.999969 0.40625)"/>
      </g>
     </g>
    </g>
    <g id="xtick_5">
     <g id="line2d_5">
      <g>
       <use xlink:href="#me092e6b968" x="338.84" y="247.936406" style="fill: #323034; stroke: #323034; stroke-width: 0.8"/>
      </g>
     </g>
     <g id="text_5">
      <!-- $\mathdefault{300}$ -->
      <g style="fill: #323034" transform="translate(326.84 265.863906) scale(0.16 -0.16)">
       <defs>
        <path id="STIXGeneral-Regular-33" d="M 390 3264 
L 288 3290 
Q 435 3770 748 4048 
Q 1062 4326 1542 4326 
Q 1990 4326 2265 4083 
Q 2541 3840 2541 3450 
Q 2541 2925 1946 2566 
Q 2298 2413 2477 2227 
Q 2758 1914 2758 1402 
Q 2758 890 2464 506 
Q 2246 211 1840 60 
Q 1434 -90 979 -90 
Q 262 -90 262 275 
Q 262 378 339 442 
Q 416 506 525 506 
Q 685 506 915 339 
Q 1197 141 1466 141 
Q 1818 141 2058 425 
Q 2298 710 2298 1120 
Q 2298 1856 1632 2048 
Q 1434 2112 979 2112 
L 979 2202 
Q 1338 2323 1517 2432 
Q 2035 2726 2035 3290 
Q 2035 3610 1852 3776 
Q 1670 3942 1344 3942 
Q 768 3942 390 3264 
z
" transform="scale(0.015625)"/>
       </defs>
       <use xlink:href="#STIXGeneral-Regular-33" transform="translate(0 0.40625)"/>
       <use xlink:href="#STIXGeneral-Regular-30" transform="translate(49.999985 0.40625)"/>
       <use xlink:href="#STIXGeneral-Regular-30" transform="translate(99.999969 0.40625)"/>
      </g>
     </g>
    </g>
    <g id="xtick_6">
     <g id="line2d_6">
      <g>
       <use xlink:href="#me092e6b968" x="413.24" y="247.936406" style="fill: #323034; stroke: #323034; stroke-width: 0.8"/>
      </g>
     </g>
     <g id="text_6">
      <!-- $\mathdefault{400}$ -->
      <g style="fill: #323034" transform="translate(401.24 265.863906) scale(0.16 -0.16)">
       <defs>
        <path id="STIXGeneral-Regular-34" d="M 3027 1069 
L 2368 1069 
L 2368 0 
L 1869 0 
L 1869 1069 
L 77 1069 
L 77 1478 
L 2086 4326 
L 2368 4326 
L 2368 1478 
L 3027 1478 
L 3027 1069 
z
M 1869 1478 
L 1869 3674 
L 333 1478 
L 1869 1478 
z
" transform="scale(0.015625)"/>
       </defs>
       <use xlink:href="#STIXGeneral-Regular-34" transform="translate(0 0.40625)"/>
       <use xlink:href="#STIXGeneral-Regular-30" transform="translate(49.999985 0.40625)"/>
       <use xlink:href="#STIXGeneral-Regular-30" transform="translate(99.999969 0.40625)"/>
      </g>
     </g>
    </g>
    <g id="xtick_7">
     <g id="line2d_7">
      <g>
       <use xlink:href="#me092e6b968" x="487.64" y="247.936406" style="fill: #323034; stroke: #323034; stroke-width: 0.8"/>
      </g>
     </g>
     <g id="text_7">
      <!-- $\mathdefault{500}$ -->
      <g style="fill: #323034" transform="translate(475.64 265.863906) scale(0.16 -0.16)">
       <defs>
        <path id="STIXGeneral-Regular-35" d="M 2803 4358 
L 2573 3814 
Q 2534 3731 2400 3731 
L 1158 3731 
L 902 3187 
Q 1606 3053 1920 2896 
Q 2234 2739 2502 2368 
Q 2726 2061 2726 1555 
Q 2726 1094 2576 780 
Q 2426 467 2099 224 
Q 1664 -90 1011 -90 
Q 646 -90 422 19 
Q 198 128 198 307 
Q 198 550 486 550 
Q 717 550 960 352 
Q 1210 147 1414 147 
Q 1747 147 2012 480 
Q 2278 813 2278 1229 
Q 2278 1843 1850 2189 
Q 1293 2637 486 2637 
Q 410 2637 410 2688 
L 416 2720 
L 1114 4237 
L 2438 4237 
Q 2547 4237 2608 4269 
Q 2669 4301 2746 4403 
L 2803 4358 
z
" transform="scale(0.015625)"/>
       </defs>
       <use xlink:href="#STIXGeneral-Regular-35" transform="translate(0 0.203125)"/>
       <use xlink:href="#STIXGeneral-Regular-30" transform="translate(49.999985 0.203125)"/>
       <use xlink:href="#STIXGeneral-Regular-30" transform="translate(99.999969 0.203125)"/>
      </g>
     </g>
    </g>
   </g>
   <g id="matplotlib.axis_2">
    <g id="ytick_1">
     <g id="line2d_8">
      <defs>
       <path id="m99f92282b0" d="M 0 0 
L -3.5 0 
" style="stroke: #323034; stroke-width: 0.8"/>
      </defs>
      <g>
       <use xlink:href="#m99f92282b0" x="41.24" y="247.936406" style="fill: #323034; stroke: #323034; stroke-width: 0.8"/>
      </g>
     </g>
     <g id="text_8">
      <!-- $\mathdefault{−20}$ -->
      <g style="fill: #323034" transform="translate(7.2 253.400156) scale(0.16 -0.16)">
       <use xlink:href="#STIXGeneral-Regular-2212" transform="translate(0 0.40625)"/>
       <use xlink:href="#STIXGeneral-Regular-32" transform="translate(68.499985 0.40625)"/>
       <use xlink:href="#STIXGeneral-Regular-30" transform="translate(118.499969 0.40625)"/>
      </g>
     </g>
    </g>
    <g id="ytick_2">
     <g id="line2d_9">
      <g>
       <use xlink:href="#m99f92282b0" x="41.24" y="192.496406" style="fill: #323034; stroke: #323034; stroke-width: 0.8"/>
      </g>
     </g>
     <g id="text_9">
      <!-- $\mathdefault{−10}$ -->
      <g style="fill: #323034" transform="translate(7.2 197.960156) scale(0.16 -0.16)">
       <use xlink:href="#STIXGeneral-Regular-2212" transform="translate(0 0.40625)"/>
       <use xlink:href="#STIXGeneral-Regular-31" transform="translate(68.499985 0.40625)"/>
       <use xlink:href="#STIXGeneral-Regular-30" transform="translate(118.499969 0.40625)"/>
      </g>
     </g>
    </g>
    <g id="ytick_3">
     <g id="line2d_10">
      <g>
       <use xlink:href="#m99f92282b0" x="41.24" y="137.056406" style="fill: #323034; stroke: #323034; stroke-width: 0.8"/>
      </g>
     </g>
     <g id="text_10">
      <!-- $\mathdefault{0}$ -->
      <g style="fill: #323034" transform="translate(26.24 142.520156) scale(0.16 -0.16)">
       <use xlink:href="#STIXGeneral-Regular-30" transform="translate(0 0.40625)"/>
      </g>
     </g>
    </g>
    <g id="ytick_4">
     <g id="line2d_11">
      <g>
       <use xlink:href="#m99f92282b0" x="41.24" y="81.616406" style="fill: #323034; stroke: #323034; stroke-width: 0.8"/>
      </g>
     </g>
     <g id="text_11">
      <!-- $\mathdefault{10}$ -->
      <g style="fill: #323034" transform="translate(18.24 87.080156) scale(0.16 -0.16)">
       <use xlink:href="#STIXGeneral-Regular-31" transform="translate(0 0.40625)"/>
       <use xlink:href="#STIXGeneral-Regular-30" transform="translate(49.999985 0.40625)"/>
      </g>
     </g>
    </g>
    <g id="ytick_5">
     <g id="line2d_12">
      <g>
       <use xlink:href="#m99f92282b0" x="41.24" y="26.176406" style="fill: #323034; stroke: #323034; stroke-width: 0.8"/>
      </g>
     </g>
     <g id="text_12">
      <!-- $\mathdefault{20}$ -->
      <g style="fill: #323034" transform="translate(18.24 31.640156) scale(0.16 -0.16)">
       <use xlink:href="#STIXGeneral-Regular-32" transform="translate(0 0.40625)"/>
       <use xlink:href="#STIXGeneral-Regular-30" transform="translate(49.999985 0.40625)"/>
      </g>
     </g>
    </g>
   </g>
   <g id="line2d_13">
    <path d="M 115.64 247.936406 
L 115.64 26.176406 
" clip-path="url(#peeccd9ee12)" style="fill: none; stroke-dasharray: 3,4.95; stroke-dashoffset: 0; stroke: #bc80bd; stroke-width: 3"/>
   </g>
   <g id="line2d_14">
    <path d="M 175.16 247.936406 
L 175.16 26.176406 
" clip-path="url(#peeccd9ee12)" style="fill: none; stroke-dasharray: 3,4.95; stroke-dashoffset: 0; stroke: #bc80bd; stroke-width: 3"/>
   </g>
   <g id="line2d_15">
    <path d="M 294.2 247.936406 
L 294.2 26.176406 
" clip-path="url(#peeccd9ee12)" style="fill: none; stroke-dasharray: 3,4.95; stroke-dashoffset: 0; stroke: #bc80bd; stroke-width: 3"/>
   </g>
   <g id="line2d_16">
    <path d="M 115.64 190.073903 
L 116.384 132.479675 
L 117.128 150.340975 
L 117.872 187.209385 
L 118.616 128.310955 
L 119.36 148.088435 
L 120.104 147.682015 
L 120.848 127.957175 
L 121.592 175.679501 
L 122.336 119.767815 
L 123.08 182.976193 
L 123.824 139.134504 
L 124.568 127.865337 
L 125.312 157.916979 
L 126.056 157.394808 
L 126.8 173.549502 
L 127.544 148.399501 
L 128.288 180.032094 
L 129.032 148.824305 
L 129.776 152.666998 
L 130.52 196.128505 
L 131.264 146.258576 
L 132.008 154.569443 
L 132.752 169.001412 
L 133.496 131.514147 
L 134.24 133.589188 
L 134.984 192.231307 
L 135.728 113.580594 
L 136.472 115.136003 
L 137.216 97.767387 
L 137.96 126.284471 
L 138.704 134.651193 
L 139.448 173.978229 
L 140.192 173.713415 
L 140.936 155.473607 
L 141.68 164.587125 
L 142.424 128.293033 
L 143.168 173.828193 
L 143.912 188.183616 
L 144.656 147.807248 
L 145.4 121.698753 
L 146.144 160.77307 
L 146.888 166.797206 
L 147.632 148.029693 
L 148.376 165.797802 
L 149.12 161.315669 
L 149.864 134.04882 
L 150.608 147.966755 
L 151.352 169.336285 
L 152.096 129.387302 
L 152.84 163.414081 
L 153.584 147.177473 
L 154.328 182.621939 
L 155.072 172.012406 
L 155.816 183.740423 
L 156.56 163.640274 
L 157.304 182.185122 
L 158.048 205.970766 
L 158.792 168.584967 
L 159.536 172.80739 
L 160.28 162.431947 
L 161.024 124.533972 
L 161.768 132.138952 
L 162.512 168.650057 
L 163.256 183.765533 
L 164 173.888983 
L 164.744 173.776973 
L 165.488 123.884449 
L 166.232 162.560871 
L 166.976 134.220489 
L 167.72 147.658854 
L 168.464 184.256588 
L 169.208 181.990995 
L 170.696 142.843886 
L 171.44 159.222773 
L 172.184 157.37048 
L 172.928 165.367185 
L 173.672 132.322196 
L 174.416 156.337493 
L 175.16 142.529983 
L 175.904 133.041724 
L 176.648 110.527013 
L 177.392 109.319248 
L 178.136 118.312239 
L 178.88 97.880043 
L 179.624 121.966005 
L 181.112 101.270288 
L 181.856 108.30295 
L 182.6 95.276988 
L 183.344 97.329774 
L 184.088 103.096434 
L 184.832 126.538292 
L 185.576 109.295468 
L 186.32 105.074911 
L 187.064 114.999025 
L 187.808 69.767543 
L 188.552 72.272358 
L 189.296 113.377652 
L 190.04 109.109531 
L 190.784 87.352728 
L 191.528 134.188017 
L 192.272 96.993953 
L 193.016 122.689054 
L 193.76 53.045914 
L 194.504 96.763745 
L 195.248 83.297448 
L 195.992 88.449944 
L 196.736 84.437762 
L 197.48 103.709317 
L 198.224 116.061752 
L 198.968 111.276671 
L 199.712 111.497758 
L 200.456 146.680274 
L 201.2 108.009638 
L 201.944 129.780391 
L 202.688 93.982489 
L 203.432 101.826083 
L 204.176 119.928824 
L 204.92 125.288458 
L 205.664 91.987809 
L 206.408 104.222882 
L 207.152 100.992215 
L 207.896 104.202399 
L 208.64 99.189736 
L 209.384 87.798499 
L 210.128 88.962118 
L 210.872 72.548307 
L 211.616 132.725656 
L 212.36 87.07646 
L 213.104 108.118065 
L 213.848 104.198481 
L 214.592 90.4098 
L 215.336 135.213018 
L 216.08 82.144536 
L 216.824 108.183832 
L 217.568 64.24785 
L 218.312 109.659772 
L 219.056 115.519267 
L 219.8 111.913215 
L 220.544 115.121917 
L 221.288 138.130729 
L 222.032 129.691777 
L 222.776 107.586196 
L 223.52 104.636112 
L 224.264 140.605713 
L 225.008 107.0105 
L 225.752 79.607696 
L 226.496 100.302712 
L 227.24 98.66115 
L 227.984 92.786404 
L 228.728 80.486996 
L 229.472 41.056658 
L 230.216 115.6861 
L 230.96 113.863129 
L 231.704 61.375881 
L 232.448 104.709828 
L 233.192 106.857882 
L 233.936 111.314974 
L 234.68 133.630261 
L 235.424 151.632707 
L 236.168 101.459446 
L 236.912 81.874144 
L 237.656 115.762552 
L 238.4 142.994045 
L 239.144 100.149726 
L 239.888 119.569466 
L 240.632 170.760489 
L 241.376 145.746503 
L 242.12 76.249839 
L 242.864 106.350819 
L 243.608 116.974101 
L 244.352 122.203603 
L 245.096 106.278045 
L 245.84 87.395392 
L 246.584 93.414793 
L 247.328 104.745807 
L 248.072 99.724388 
L 248.816 136.710888 
L 249.56 122.507907 
L 250.304 123.193853 
L 251.048 131.70851 
L 251.792 155.877506 
L 252.536 149.739313 
L 253.28 104.368097 
L 254.024 153.138328 
L 254.768 136.258507 
L 255.512 153.585662 
L 256.256 99.273067 
L 257 99.844963 
L 257.744 118.874136 
L 258.488 101.919076 
L 259.232 139.973831 
L 259.976 120.757992 
L 260.72 110.587746 
L 261.464 132.137774 
L 262.208 99.328031 
L 262.952 104.914299 
L 263.696 133.014512 
L 264.44 149.712062 
L 265.184 151.947476 
L 265.928 111.391532 
L 266.672 113.404821 
L 267.416 96.924635 
L 268.16 116.276487 
L 268.904 129.571154 
L 269.648 117.560239 
L 270.392 126.583954 
L 271.136 89.894917 
L 271.88 131.632892 
L 272.624 100.716447 
L 273.368 180.047666 
L 274.112 154.301115 
L 274.856 115.833263 
L 275.6 64.9962 
L 276.344 114.380877 
L 277.088 60.018549 
L 277.832 107.125076 
L 278.576 110.393507 
L 279.32 107.198205 
L 280.064 137.667411 
L 280.808 90.598127 
L 281.552 139.92885 
L 282.296 132.576327 
L 283.04 135.853549 
L 283.784 115.806329 
L 284.528 107.574642 
L 285.272 137.242778 
L 286.016 116.613907 
L 286.76 129.732251 
L 287.504 93.38935 
L 288.248 107.733532 
L 288.992 114.971815 
L 289.736 117.060729 
L 290.48 133.890524 
L 291.224 122.775013 
L 291.968 86.011544 
L 292.712 121.095287 
L 293.456 130.189263 
L 294.2 117.732087 
L 294.944 181.230316 
L 295.688 203.487292 
L 296.432 195.209171 
L 297.176 151.721246 
L 297.92 198.191889 
L 298.664 147.98048 
L 299.408 148.669195 
L 300.152 179.989218 
L 300.896 166.663525 
L 301.64 150.478472 
L 302.384 154.223056 
L 303.128 178.624438 
L 303.872 162.192572 
L 304.616 199.163437 
L 305.36 153.174267 
L 306.104 198.23431 
L 306.848 191.733268 
L 307.592 189.895526 
L 308.336 220.388495 
L 309.08 189.249962 
L 309.824 193.958725 
L 310.568 168.860382 
L 311.312 191.392844 
L 312.056 172.360038 
L 312.8 181.015806 
L 313.544 182.683987 
L 314.288 148.664196 
L 315.032 177.252125 
L 315.776 189.768844 
L 316.52 193.971034 
L 317.264 166.88371 
L 318.008 179.601426 
L 318.752 171.764012 
L 319.496 228.351492 
L 320.24 151.737078 
L 320.984 142.812247 
L 321.728 166.941156 
L 322.472 128.770869 
L 323.216 214.859096 
L 323.96 131.56943 
L 324.704 164.238875 
L 326.192 192.133414 
L 326.936 192.454221 
L 327.68 170.507408 
L 328.424 193.022379 
L 329.168 159.300046 
L 329.912 173.750618 
L 330.656 184.612241 
L 331.4 160.610211 
L 332.144 171.596146 
L 332.888 226.86958 
L 333.632 193.042807 
L 334.376 170.786156 
L 335.12 186.065015 
L 335.864 156.34067 
L 336.608 201.560933 
L 337.352 166.912664 
L 338.096 202.670867 
L 338.84 186.529284 
L 339.584 180.736113 
L 340.328 183.526356 
L 341.072 187.324569 
L 341.816 208.269706 
L 342.56 174.954924 
L 343.304 179.863804 
L 344.048 142.292622 
L 344.792 209.050969 
L 345.536 179.598969 
L 346.28 198.820326 
L 347.024 148.002109 
L 347.768 165.799944 
L 348.512 152.46293 
L 349.256 178.40378 
L 350 164.407496 
L 350.744 155.92956 
L 351.488 205.564307 
L 352.232 199.918935 
L 352.976 186.555841 
L 353.72 140.489638 
L 354.464 173.91748 
L 355.208 173.518768 
L 355.952 210.468709 
L 356.696 146.890785 
L 357.44 198.872677 
L 358.184 186.299691 
L 358.928 168.972818 
L 359.672 219.25707 
L 360.416 212.491795 
L 361.16 168.415472 
L 361.904 190.590967 
L 362.648 158.741346 
L 363.392 195.672439 
L 364.136 197.907982 
L 364.88 193.094001 
L 365.624 228.82406 
L 366.368 183.038208 
L 367.112 194.532023 
L 367.856 176.374936 
L 368.6 147.383486 
L 369.344 141.619219 
L 370.088 172.455291 
L 370.832 174.001626 
L 372.32 218.097375 
L 373.064 162.501148 
L 373.808 218.742013 
L 374.552 169.185312 
L 375.296 185.744582 
L 376.04 161.260296 
L 377.528 224.200327 
L 378.272 201.884932 
L 379.016 175.813555 
L 379.76 234.691354 
L 380.504 167.017343 
L 381.248 206.073282 
L 381.992 174.038921 
L 382.736 172.800792 
L 383.48 177.598049 
L 384.224 163.972151 
L 384.968 198.666735 
L 385.712 136.594287 
L 386.456 208.152734 
L 387.2 204.095959 
L 387.944 177.302961 
L 388.688 160.989822 
L 389.432 198.51685 
L 390.176 207.952206 
L 390.92 160.471422 
L 391.664 166.888741 
L 392.408 228.858671 
L 393.152 226.226394 
L 393.896 174.958894 
L 394.64 191.211001 
L 395.384 166.978326 
L 396.872 228.531874 
L 397.616 160.929165 
L 398.36 206.763024 
L 399.104 221.862669 
L 400.592 178.623694 
L 401.336 206.334425 
L 402.08 180.708977 
L 402.824 198.370319 
L 403.568 209.205876 
L 404.312 214.3213 
L 405.056 176.692331 
L 406.544 218.233525 
L 407.288 172.37353 
L 408.032 166.858269 
L 408.776 214.682824 
L 409.52 183.545101 
L 410.264 171.389651 
L 411.008 187.494263 
L 411.752 158.400708 
L 412.496 208.671992 
L 412.496 208.671992 
" clip-path="url(#peeccd9ee12)" style="fill: none; stroke: #000000; stroke-width: 0.5; stroke-linecap: square"/>
   </g>
   <g id="patch_6">
    <path d="M 41.24 247.936406 
L 41.24 26.176406 
" style="fill: none; stroke: #000000; stroke-width: 0.6; stroke-linejoin: miter; stroke-linecap: square"/>
   </g>
   <g id="patch_7">
    <path d="M 41.24 247.936406 
L 487.64 247.936406 
" style="fill: none; stroke: #000000; stroke-width: 0.6; stroke-linejoin: miter; stroke-linecap: square"/>
   </g>
   <g id="text_13">
    <!-- synthetic data (changepoint detection) -->
    <g style="fill: #323034" transform="translate(41.24 20.176406) scale(0.19 -0.19)">
     <defs>
      <path id="STIXGeneral-Regular-73" d="M 998 1926 
L 1664 1523 
Q 1984 1331 2105 1164 
Q 2227 998 2227 736 
Q 2227 416 1961 176 
Q 1696 -64 1331 -64 
Q 1030 -64 864 -6 
Q 691 51 570 51 
Q 461 51 416 -26 
L 333 -26 
L 333 979 
L 435 979 
Q 538 512 730 294 
Q 922 77 1248 77 
Q 1485 77 1632 211 
Q 1779 346 1779 550 
Q 1779 845 1440 1030 
L 1094 1222 
Q 326 1651 326 2150 
Q 326 2522 566 2730 
Q 806 2938 1210 2938 
Q 1491 2938 1638 2867 
Q 1754 2816 1818 2816 
Q 1862 2816 1920 2880 
L 1990 2880 
L 2022 2010 
L 1926 2010 
Q 1818 2445 1654 2621 
Q 1491 2797 1203 2797 
Q 986 2797 854 2688 
Q 723 2579 723 2362 
Q 723 2253 796 2128 
Q 870 2003 998 1926 
z
" transform="scale(0.015625)"/>
      <path id="STIXGeneral-Regular-79" d="M 3040 2880 
L 3040 2784 
Q 2925 2771 2854 2700 
Q 2784 2630 2720 2458 
L 1760 -160 
Q 1510 -838 1257 -1116 
Q 1005 -1395 640 -1395 
Q 435 -1395 313 -1289 
Q 192 -1184 192 -1024 
Q 192 -902 272 -816 
Q 352 -730 467 -730 
Q 653 -730 800 -813 
Q 883 -858 966 -858 
Q 1101 -858 1286 -576 
Q 1376 -448 1459 -211 
Q 1542 26 1542 115 
Q 1542 198 1274 762 
L 429 2566 
Q 346 2752 90 2790 
L 90 2880 
L 1402 2880 
L 1402 2784 
Q 1197 2778 1117 2739 
Q 1037 2701 1037 2611 
Q 1037 2541 1120 2349 
L 1837 749 
L 2458 2515 
Q 2483 2573 2483 2630 
Q 2483 2784 2189 2784 
L 2189 2880 
L 3040 2880 
z
" transform="scale(0.015625)"/>
      <path id="STIXGeneral-Regular-6e" d="M 3104 0 
L 1773 0 
L 1779 96 
Q 2016 115 2096 233 
Q 2176 352 2176 672 
L 2176 1946 
Q 2176 2592 1709 2592 
Q 1549 2592 1408 2515 
Q 1267 2438 1050 2227 
L 1050 461 
Q 1050 269 1136 192 
Q 1222 115 1466 96 
L 1466 0 
L 115 0 
L 115 96 
Q 358 115 435 214 
Q 512 314 512 602 
L 512 2157 
Q 512 2394 467 2483 
Q 422 2573 288 2573 
Q 160 2573 102 2547 
L 102 2656 
Q 550 2784 979 2944 
L 1030 2925 
L 1030 2426 
L 1037 2426 
Q 1491 2944 1958 2944 
Q 2323 2944 2518 2688 
Q 2714 2432 2714 1958 
L 2714 544 
Q 2714 288 2790 205 
Q 2867 122 3104 96 
L 3104 0 
z
" transform="scale(0.015625)"/>
      <path id="STIXGeneral-Regular-74" d="M 1702 493 
L 1786 422 
Q 1478 -64 1011 -64 
Q 448 -64 448 749 
L 448 2675 
L 109 2675 
Q 83 2694 83 2720 
Q 83 2771 192 2842 
Q 435 2982 813 3526 
Q 826 3546 874 3606 
Q 922 3667 941 3706 
Q 986 3706 986 3622 
L 986 2880 
L 1632 2880 
L 1632 2675 
L 986 2675 
L 986 845 
Q 986 538 1062 403 
Q 1139 269 1318 269 
Q 1510 269 1702 493 
z
" transform="scale(0.015625)"/>
      <path id="STIXGeneral-Regular-68" d="M 3117 0 
L 1760 0 
L 1760 96 
Q 2042 128 2118 224 
Q 2195 320 2195 653 
L 2195 1920 
Q 2195 2598 1722 2598 
Q 1530 2598 1370 2508 
Q 1210 2419 1005 2195 
L 1005 653 
Q 1005 320 1081 224 
Q 1158 128 1440 96 
L 1440 0 
L 58 0 
L 58 96 
Q 333 134 400 224 
Q 467 314 467 653 
L 467 3667 
Q 467 3872 406 3933 
Q 346 3994 141 3994 
Q 83 3994 64 3987 
L 64 4090 
L 237 4141 
Q 730 4288 973 4371 
L 1005 4352 
L 1005 2406 
Q 1229 2694 1446 2819 
Q 1664 2944 1946 2944 
Q 2733 2944 2733 1926 
L 2733 653 
Q 2733 320 2793 233 
Q 2854 147 3117 96 
L 3117 0 
z
" transform="scale(0.015625)"/>
      <path id="STIXGeneral-Regular-65" d="M 2611 1050 
L 2714 1005 
Q 2330 -64 1376 -64 
Q 813 -64 486 329 
Q 160 723 160 1389 
Q 160 2074 525 2509 
Q 890 2944 1485 2944 
Q 2061 2944 2374 2502 
Q 2560 2246 2592 1773 
L 621 1773 
Q 646 1370 700 1158 
Q 755 947 915 730 
Q 1184 378 1626 378 
Q 1939 378 2153 531 
Q 2368 685 2611 1050 
z
M 634 1978 
L 1939 1978 
Q 1882 2381 1750 2547 
Q 1619 2714 1312 2714 
Q 1043 2714 864 2525 
Q 685 2336 634 1978 
z
" transform="scale(0.015625)"/>
      <path id="STIXGeneral-Regular-69" d="M 1152 4045 
Q 1152 3904 1056 3811 
Q 960 3718 819 3718 
Q 685 3718 592 3811 
Q 499 3904 499 4045 
Q 499 4179 595 4275 
Q 691 4371 826 4371 
Q 966 4371 1059 4275 
Q 1152 4179 1152 4045 
z
M 1619 0 
L 102 0 
L 102 96 
Q 435 115 521 211 
Q 608 307 608 666 
L 608 2118 
Q 608 2342 563 2432 
Q 518 2522 397 2522 
Q 243 2522 128 2490 
L 128 2592 
L 1120 2944 
L 1146 2918 
L 1146 672 
Q 1146 314 1226 218 
Q 1306 122 1619 96 
L 1619 0 
z
" transform="scale(0.015625)"/>
      <path id="STIXGeneral-Regular-63" d="M 2547 998 
L 2637 941 
Q 2362 403 2112 205 
Q 1786 -64 1376 -64 
Q 845 -64 502 336 
Q 160 736 160 1357 
Q 160 2170 698 2618 
Q 1094 2944 1562 2944 
Q 1965 2944 2256 2749 
Q 2547 2554 2547 2285 
Q 2547 2176 2457 2096 
Q 2368 2016 2246 2016 
Q 2022 2016 1939 2310 
L 1901 2451 
Q 1850 2630 1773 2694 
Q 1696 2758 1523 2758 
Q 1133 2758 893 2451 
Q 653 2144 653 1645 
Q 653 1094 928 745 
Q 1203 397 1645 397 
Q 1920 397 2118 528 
Q 2317 659 2547 998 
z
" transform="scale(0.015625)"/>
      <path id="STIXGeneral-Regular-20" transform="scale(0.015625)"/>
      <path id="STIXGeneral-Regular-64" d="M 3142 269 
L 2202 -64 
L 2176 -45 
L 2176 365 
Q 1869 -64 1357 -64 
Q 826 -64 499 317 
Q 173 698 173 1312 
Q 173 1990 563 2467 
Q 954 2944 1504 2944 
Q 1850 2944 2176 2669 
L 2176 3667 
Q 2176 3866 2118 3930 
Q 2061 3994 1882 3994 
Q 1792 3994 1741 3987 
L 1741 4090 
Q 2323 4243 2682 4371 
L 2714 4358 
L 2714 730 
Q 2714 506 2768 435 
Q 2822 365 2995 365 
Q 3034 365 3142 371 
L 3142 269 
z
M 2176 653 
L 2176 2125 
Q 2176 2381 1981 2573 
Q 1786 2765 1523 2765 
Q 1158 2765 940 2438 
Q 723 2112 723 1568 
Q 723 979 963 624 
Q 1203 269 1606 269 
Q 1907 269 2080 474 
Q 2176 582 2176 653 
z
" transform="scale(0.015625)"/>
      <path id="STIXGeneral-Regular-61" d="M 2829 422 
L 2829 243 
Q 2586 -64 2253 -64 
Q 1888 -64 1843 403 
L 1837 403 
Q 1427 -64 909 -64 
Q 608 -64 422 112 
Q 237 288 237 602 
Q 237 1050 685 1350 
Q 992 1555 1837 1869 
L 1837 2214 
Q 1837 2502 1699 2646 
Q 1562 2790 1338 2790 
Q 1146 2790 1018 2697 
Q 890 2605 890 2477 
Q 890 2419 909 2348 
Q 928 2278 928 2208 
Q 928 2112 841 2029 
Q 755 1946 634 1946 
Q 525 1946 441 2029 
Q 358 2112 358 2240 
Q 358 2547 685 2752 
Q 986 2944 1421 2944 
Q 1939 2944 2176 2656 
Q 2291 2522 2323 2384 
Q 2355 2246 2355 1946 
L 2355 723 
Q 2355 301 2554 301 
Q 2682 301 2829 422 
z
M 1837 813 
L 1837 1715 
Q 1248 1510 1018 1293 
Q 800 1094 800 800 
Q 800 557 921 432 
Q 1043 307 1242 307 
Q 1453 307 1613 410 
Q 1747 506 1792 589 
Q 1837 672 1837 813 
z
" transform="scale(0.015625)"/>
      <path id="STIXGeneral-Regular-28" d="M 1946 -1030 
L 1869 -1133 
Q 1126 -710 716 32 
Q 307 774 307 1613 
Q 307 3386 1888 4326 
L 1946 4224 
Q 1293 3667 1075 3126 
Q 858 2586 858 1632 
Q 858 685 1082 96 
Q 1306 -493 1946 -1030 
z
" transform="scale(0.015625)"/>
      <path id="STIXGeneral-Regular-67" d="M 3008 2483 
L 2477 2483 
Q 2598 2208 2598 1946 
Q 2598 1453 2265 1203 
Q 1933 954 1600 954 
Q 1530 954 1357 973 
L 1235 986 
Q 1107 947 979 812 
Q 851 678 851 582 
Q 851 435 1350 410 
L 2176 371 
Q 2528 358 2739 172 
Q 2950 -13 2950 -314 
Q 2950 -685 2566 -986 
Q 2035 -1395 1286 -1395 
Q 826 -1395 502 -1212 
Q 179 -1030 179 -774 
Q 179 -595 320 -419 
Q 461 -243 806 6 
Q 602 102 534 172 
Q 467 243 467 346 
Q 467 531 762 787 
Q 909 915 1037 1043 
Q 717 1203 579 1401 
Q 442 1600 442 1901 
Q 442 2336 752 2640 
Q 1062 2944 1510 2944 
Q 1766 2944 2022 2848 
L 2163 2797 
Q 2349 2733 2515 2733 
L 3008 2733 
L 3008 2483 
z
M 973 2163 
L 973 2144 
Q 973 1683 1155 1398 
Q 1338 1114 1632 1114 
Q 1850 1114 1978 1270 
Q 2106 1427 2106 1690 
Q 2106 2112 1914 2464 
Q 1754 2765 1446 2765 
Q 1222 2765 1097 2605 
Q 973 2445 973 2163 
z
M 2771 -410 
Q 2771 -230 2595 -163 
Q 2419 -96 1978 -96 
Q 1344 -96 941 -13 
Q 749 -243 688 -348 
Q 627 -454 627 -563 
Q 627 -774 880 -902 
Q 1133 -1030 1555 -1030 
Q 2099 -1030 2435 -860 
Q 2771 -691 2771 -410 
z
" transform="scale(0.015625)"/>
      <path id="STIXGeneral-Regular-70" d="M 1018 2931 
L 1018 2438 
Q 1421 2944 1939 2944 
Q 2406 2944 2707 2560 
Q 3008 2176 3008 1581 
Q 3008 883 2621 409 
Q 2234 -64 1664 -64 
Q 1466 -64 1328 -6 
Q 1190 51 1018 211 
L 1018 -794 
Q 1018 -1094 1120 -1180 
Q 1222 -1267 1581 -1274 
L 1581 -1389 
L 32 -1389 
L 32 -1280 
Q 314 -1254 397 -1171 
Q 480 -1088 480 -838 
L 480 2157 
Q 480 2381 429 2451 
Q 378 2522 218 2522 
Q 115 2522 58 2515 
L 58 2618 
Q 506 2752 979 2944 
L 1018 2931 
z
M 1018 2138 
L 1018 563 
Q 1018 422 1238 281 
Q 1459 141 1683 141 
Q 2029 141 2243 467 
Q 2458 794 2458 1325 
Q 2458 1888 2243 2224 
Q 2029 2560 1670 2560 
Q 1446 2560 1232 2419 
Q 1018 2278 1018 2138 
z
" transform="scale(0.015625)"/>
      <path id="STIXGeneral-Regular-6f" d="M 3008 1478 
Q 3008 806 2608 371 
Q 2208 -64 1568 -64 
Q 979 -64 582 368 
Q 186 800 186 1459 
Q 186 2125 582 2534 
Q 979 2944 1626 2944 
Q 2221 2944 2614 2537 
Q 3008 2131 3008 1478 
z
M 2432 1306 
Q 2432 2035 2112 2445 
Q 1856 2765 1504 2765 
Q 1171 2765 966 2493 
Q 762 2221 762 1747 
Q 762 928 1101 435 
Q 1318 115 1677 115 
Q 2029 115 2230 432 
Q 2432 749 2432 1306 
z
" transform="scale(0.015625)"/>
      <path id="STIXGeneral-Regular-29" d="M 186 4224 
L 262 4326 
Q 992 3891 1408 3148 
Q 1824 2406 1824 1581 
Q 1824 -166 243 -1133 
L 186 -1030 
Q 845 -486 1059 54 
Q 1274 595 1274 1562 
Q 1274 2534 1059 3120 
Q 845 3706 186 4224 
z
" transform="scale(0.015625)"/>
     </defs>
     <use xlink:href="#STIXGeneral-Regular-73"/>
     <use xlink:href="#STIXGeneral-Regular-79" transform="translate(38.899994 0)"/>
     <use xlink:href="#STIXGeneral-Regular-6e" transform="translate(88.899979 0)"/>
     <use xlink:href="#STIXGeneral-Regular-74" transform="translate(138.899963 0)"/>
     <use xlink:href="#STIXGeneral-Regular-68" transform="translate(166.699951 0)"/>
     <use xlink:href="#STIXGeneral-Regular-65" transform="translate(216.699936 0)"/>
     <use xlink:href="#STIXGeneral-Regular-74" transform="translate(261.09993 0)"/>
     <use xlink:href="#STIXGeneral-Regular-69" transform="translate(288.899918 0)"/>
     <use xlink:href="#STIXGeneral-Regular-63" transform="translate(316.699905 0)"/>
     <use xlink:href="#STIXGeneral-Regular-20" transform="translate(361.099899 0)"/>
     <use xlink:href="#STIXGeneral-Regular-64" transform="translate(386.099884 0)"/>
     <use xlink:href="#STIXGeneral-Regular-61" transform="translate(436.099869 0)"/>
     <use xlink:href="#STIXGeneral-Regular-74" transform="translate(480.499863 0)"/>
     <use xlink:href="#STIXGeneral-Regular-61" transform="translate(508.29985 0)"/>
     <use xlink:href="#STIXGeneral-Regular-20" transform="translate(552.699844 0)"/>
     <use xlink:href="#STIXGeneral-Regular-28" transform="translate(577.699829 0)"/>
     <use xlink:href="#STIXGeneral-Regular-63" transform="translate(610.999817 0)"/>
     <use xlink:href="#STIXGeneral-Regular-68" transform="translate(655.399811 0)"/>
     <use xlink:href="#STIXGeneral-Regular-61" transform="translate(705.399796 0)"/>
     <use xlink:href="#STIXGeneral-Regular-6e" transform="translate(749.799789 0)"/>
     <use xlink:href="#STIXGeneral-Regular-67" transform="translate(799.799774 0)"/>
     <use xlink:href="#STIXGeneral-Regular-65" transform="translate(849.799759 0)"/>
     <use xlink:href="#STIXGeneral-Regular-70" transform="translate(894.199753 0)"/>
     <use xlink:href="#STIXGeneral-Regular-6f" transform="translate(944.199738 0)"/>
     <use xlink:href="#STIXGeneral-Regular-69" transform="translate(994.199722 0)"/>
     <use xlink:href="#STIXGeneral-Regular-6e" transform="translate(1021.99971 0)"/>
     <use xlink:href="#STIXGeneral-Regular-74" transform="translate(1071.999695 0)"/>
     <use xlink:href="#STIXGeneral-Regular-20" transform="translate(1099.799683 0)"/>
     <use xlink:href="#STIXGeneral-Regular-64" transform="translate(1124.799667 0)"/>
     <use xlink:href="#STIXGeneral-Regular-65" transform="translate(1174.799652 0)"/>
     <use xlink:href="#STIXGeneral-Regular-74" transform="translate(1219.199646 0)"/>
     <use xlink:href="#STIXGeneral-Regular-65" transform="translate(1246.999634 0)"/>
     <use xlink:href="#STIXGeneral-Regular-63" transform="translate(1291.399628 0)"/>
     <use xlink:href="#STIXGeneral-Regular-74" transform="translate(1335.799622 0)"/>
     <use xlink:href="#STIXGeneral-Regular-69" transform="translate(1363.599609 0)"/>
     <use xlink:href="#STIXGeneral-Regular-6f" transform="translate(1391.399597 0)"/>
     <use xlink:href="#STIXGeneral-Regular-6e" transform="translate(1441.399582 0)"/>
     <use xlink:href="#STIXGeneral-Regular-29" transform="translate(1491.399567 0)"/>
    </g>
   </g>
  </g>
 </g>
 <defs>
  <clipPath id="peeccd9ee12">
   <rect x="41.24" y="26.176406" width="446.4" height="221.76"/>
  </clipPath>
 </defs>
</svg>