<?xml version="1.0" encoding="UTF-8" standalone="no"?>
<!DOCTYPE svg PUBLIC "-//W3C//DTD SVG 1.1//EN"
 "http://www.w3.org/Graphics/SVG/1.1/DTD/svg11.dtd">
<!-- Generated by graphviz version 8.1.0 (0)
 -->
<!-- Pages: 1 -->
<svg width="274pt" height="260pt"
 viewBox="0.00 0.00 273.80 260.00" xmlns="http://www.w3.org/2000/svg" xmlns:xlink="http://www.w3.org/1999/xlink">
<g id="graph0" class="graph" transform="scale(1 1) rotate(0) translate(4 256)">
<polygon fill="white" stroke="none" points="-4,4 -4,-256 269.8,-256 269.8,4 -4,4"/>
<!-- A -->
<g id="node1" class="node">
<title>A</title>
<ellipse fill="none" stroke="black" cx="156.15" cy="-234" rx="40.6" ry="18"/>
<text text-anchor="middle" x="156.15" y="-228.95" font-family="Times,serif" font-size="14.00">Utilities</text>
</g>
<!-- B -->
<g id="node2" class="node">
<title>B</title>
<ellipse fill="none" stroke="black" cx="64.15" cy="-162" rx="64.15" ry="18"/>
<text text-anchor="middle" x="64.15" y="-156.95" font-family="Times,serif" font-size="14.00">Data Cleaning</text>
</g>
<!-- A&#45;&gt;B -->
<g id="edge1" class="edge">
<title>A&#45;&gt;B</title>
<path fill="none" stroke="black" d="M136.64,-218.15C124.23,-208.72 107.93,-196.31 93.92,-185.66"/>
<polygon fill="black" stroke="black" points="96.63,-182.56 86.56,-179.29 92.4,-188.13 96.63,-182.56"/>
</g>
<!-- C -->
<g id="node3" class="node">
<title>C</title>
<ellipse fill="none" stroke="black" cx="123.15" cy="-90" rx="43.16" ry="18"/>
<text text-anchor="middle" x="123.15" y="-84.95" font-family="Times,serif" font-size="14.00">Analysis</text>
</g>
<!-- A&#45;&gt;C -->
<g id="edge2" class="edge">
<title>A&#45;&gt;C</title>
<path fill="none" stroke="black" d="M152.75,-215.88C149.12,-197.92 143.09,-168.9 137.15,-144 135.17,-135.73 132.87,-126.77 130.71,-118.62"/>
<polygon fill="black" stroke="black" points="133.87,-117.88 127.9,-109.13 127.11,-119.7 133.87,-117.88"/>
</g>
<!-- D -->
<g id="node4" class="node">
<title>D</title>
<ellipse fill="none" stroke="black" cx="158.15" cy="-18" rx="107.65" ry="18"/>
<text text-anchor="middle" x="158.15" y="-12.95" font-family="Times,serif" font-size="14.00">Generate Plots and Tables</text>
</g>
<!-- A&#45;&gt;D -->
<g id="edge3" class="edge">
<title>A&#45;&gt;D</title>
<path fill="none" stroke="black" d="M161.19,-216.02C169.24,-186.6 183.33,-124.28 175.15,-72 173.83,-63.6 171.41,-54.71 168.8,-46.66"/>
<polygon fill="black" stroke="black" points="171.8,-45.63 165.21,-37.33 165.19,-47.93 171.8,-45.63"/>
</g>
<!-- B&#45;&gt;C -->
<g id="edge4" class="edge">
<title>B&#45;&gt;C</title>
<path fill="none" stroke="black" d="M78.43,-144.05C85.64,-135.5 94.51,-124.97 102.45,-115.56"/>
<polygon fill="black" stroke="black" points="105.63,-118.21 109.4,-108.31 100.28,-113.7 105.63,-118.21"/>
</g>
<!-- C&#45;&gt;D -->
<g id="edge5" class="edge">
<title>C&#45;&gt;D</title>
<path fill="none" stroke="black" d="M131.62,-72.05C135.52,-64.26 140.24,-54.82 144.61,-46.08"/>
<polygon fill="black" stroke="black" points="148.17,-47.78 149.51,-37.28 141.91,-44.65 148.17,-47.78"/>
</g>
</g>
</svg>