<?xml version="1.0" encoding="utf-8" standalone="no"?>
<!DOCTYPE svg PUBLIC "-//W3C//DTD SVG 1.1//EN"
  "http://www.w3.org/Graphics/SVG/1.1/DTD/svg11.dtd">
<svg xmlns:xlink="http://www.w3.org/1999/xlink" width="525.215pt" height="280.42375pt" viewBox="0 0 525.215 280.42375" xmlns="http://www.w3.org/2000/svg" version="1.1">
 <metadata>
  <rdf:RDF xmlns:dc="http://purl.org/dc/elements/1.1/" xmlns:cc="http://creativecommons.org/ns#" xmlns:rdf="http://www.w3.org/1999/02/22-rdf-syntax-ns#">
   <cc:Work>
    <dc:type rdf:resource="http://purl.org/dc/dcmitype/StillImage"/>
    <dc:date>2025-03-26T15:57:52.572827</dc:date>
    <dc:format>image/svg+xml</dc:format>
    <dc:creator>
     <cc:Agent>
      <dc:title>Matplotlib v3.10.0, https://matplotlib.org/</dc:title>
     </cc:Agent>
    </dc:creator>
   </cc:Work>
  </rdf:RDF>
 </metadata>
 <defs>
  <style type="text/css">*{stroke-linejoin: round; stroke-linecap: butt}</style>
 </defs>
 <g id="figure_1">
  <g id="patch_1">
   <path d="M 0 280.42375 
L 525.215 280.42375 
L 525.215 0 
L 0 0 
z
" style="fill: #ffffff"/>
  </g>
  <g id="axes_1">
   <g id="patch_2">
    <path d="M 55.615 234.42375 
L 502.015 234.42375 
L 502.015 12.66375 
L 55.615 12.66375 
z
" style="fill: #ffffff"/>
   </g>
   <g id="PathCollection_1">
    <defs>
     <path id="m957b8fb411" d="M 0 2.236068 
C 0.593012 2.236068 1.161816 2.000462 1.581139 1.581139 
C 2.000462 1.161816 2.236068 0.593012 2.236068 0 
C 2.236068 -0.593012 2.000462 -1.161816 1.581139 -1.581139 
C 1.161816 -2.000462 0.593012 -2.236068 0 -2.236068 
C -0.593012 -2.236068 -1.161816 -2.000462 -1.581139 -1.581139 
C -2.000462 -1.161816 -2.236068 -0.593012 -2.236068 0 
C -2.236068 0.593012 -2.000462 1.161816 -1.581139 1.581139 
C -1.161816 2.000462 -0.593012 2.236068 0 2.236068 
z
" style="stroke: #000000; stroke-opacity: 0.5; stroke-width: 0.8"/>
    </defs>
    <g clip-path="url(#p2f9a505435)">
     <use xlink:href="#m957b8fb411" x="124.311" y="99.15015" style="fill: #bc80bd; fill-opacity: 0.5; stroke: #000000; stroke-opacity: 0.5; stroke-width: 0.8"/>
     <use xlink:href="#m957b8fb411" x="123.815" y="104.69415" style="fill: #bc80bd; fill-opacity: 0.5; stroke: #000000; stroke-opacity: 0.5; stroke-width: 0.8"/>
     <use xlink:href="#m957b8fb411" x="113.151" y="183.41895" style="fill: #bc80bd; fill-opacity: 0.5; stroke: #000000; stroke-opacity: 0.5; stroke-width: 0.8"/>
     <use xlink:href="#m957b8fb411" x="138.943" y="65.88615" style="fill: #bc80bd; fill-opacity: 0.5; stroke: #000000; stroke-opacity: 0.5; stroke-width: 0.8"/>
     <use xlink:href="#m957b8fb411" x="117.367" y="123.54375" style="fill: #bc80bd; fill-opacity: 0.5; stroke: #000000; stroke-opacity: 0.5; stroke-width: 0.8"/>
     <use xlink:href="#m957b8fb411" x="134.975" y="92.49735" style="fill: #bc80bd; fill-opacity: 0.5; stroke: #000000; stroke-opacity: 0.5; stroke-width: 0.8"/>
     <use xlink:href="#m957b8fb411" x="123.815" y="106.91175" style="fill: #bc80bd; fill-opacity: 0.5; stroke: #000000; stroke-opacity: 0.5; stroke-width: 0.8"/>
     <use xlink:href="#m957b8fb411" x="113.151" y="182.31015" style="fill: #bc80bd; fill-opacity: 0.5; stroke: #000000; stroke-opacity: 0.5; stroke-width: 0.8"/>
     <use xlink:href="#m957b8fb411" x="126.047" y="86.95335" style="fill: #bc80bd; fill-opacity: 0.5; stroke: #000000; stroke-opacity: 0.5; stroke-width: 0.8"/>
     <use xlink:href="#m957b8fb411" x="124.311" y="88.06215" style="fill: #bc80bd; fill-opacity: 0.5; stroke: #000000; stroke-opacity: 0.5; stroke-width: 0.8"/>
     <use xlink:href="#m957b8fb411" x="126.047" y="81.40935" style="fill: #bc80bd; fill-opacity: 0.5; stroke: #000000; stroke-opacity: 0.5; stroke-width: 0.8"/>
     <use xlink:href="#m957b8fb411" x="132.991" y="37.05735" style="fill: #bc80bd; fill-opacity: 0.5; stroke: #000000; stroke-opacity: 0.5; stroke-width: 0.8"/>
     <use xlink:href="#m957b8fb411" x="125.055" y="90.27975" style="fill: #bc80bd; fill-opacity: 0.5; stroke: #000000; stroke-opacity: 0.5; stroke-width: 0.8"/>
     <use xlink:href="#m957b8fb411" x="123.567" y="98.04135" style="fill: #bc80bd; fill-opacity: 0.5; stroke: #000000; stroke-opacity: 0.5; stroke-width: 0.8"/>
     <use xlink:href="#m957b8fb411" x="441.999" y="95.82375" style="fill: #bc80bd; fill-opacity: 0.5; stroke: #000000; stroke-opacity: 0.5; stroke-width: 0.8"/>
     <use xlink:href="#m957b8fb411" x="124.311" y="101.36775" style="fill: #bc80bd; fill-opacity: 0.5; stroke: #000000; stroke-opacity: 0.5; stroke-width: 0.8"/>
     <use xlink:href="#m957b8fb411" x="132.495" y="90.27975" style="fill: #bc80bd; fill-opacity: 0.5; stroke: #000000; stroke-opacity: 0.5; stroke-width: 0.8"/>
     <use xlink:href="#m957b8fb411" x="109.431" y="216.68295" style="fill: #bc80bd; fill-opacity: 0.5; stroke: #000000; stroke-opacity: 0.5; stroke-width: 0.8"/>
     <use xlink:href="#m957b8fb411" x="123.815" y="101.36775" style="fill: #bc80bd; fill-opacity: 0.5; stroke: #000000; stroke-opacity: 0.5; stroke-width: 0.8"/>
     <use xlink:href="#m957b8fb411" x="124.6086" y="86.95335" style="fill: #bc80bd; fill-opacity: 0.5; stroke: #000000; stroke-opacity: 0.5; stroke-width: 0.8"/>
     <use xlink:href="#m957b8fb411" x="139.935" y="68.10375" style="fill: #bc80bd; fill-opacity: 0.5; stroke: #000000; stroke-opacity: 0.5; stroke-width: 0.8"/>
     <use xlink:href="#m957b8fb411" x="133.239" y="79.19175" style="fill: #bc80bd; fill-opacity: 0.5; stroke: #000000; stroke-opacity: 0.5; stroke-width: 0.8"/>
     <use xlink:href="#m957b8fb411" x="124.807" y="93.60615" style="fill: #bc80bd; fill-opacity: 0.5; stroke: #000000; stroke-opacity: 0.5; stroke-width: 0.8"/>
     <use xlink:href="#m957b8fb411" x="124.807" y="95.82375" style="fill: #bc80bd; fill-opacity: 0.5; stroke: #000000; stroke-opacity: 0.5; stroke-width: 0.8"/>
     <use xlink:href="#m957b8fb411" x="125.799" y="90.27975" style="fill: #bc80bd; fill-opacity: 0.5; stroke: #000000; stroke-opacity: 0.5; stroke-width: 0.8"/>
     <use xlink:href="#m957b8fb411" x="110.175" y="192.28935" style="fill: #bc80bd; fill-opacity: 0.5; stroke: #000000; stroke-opacity: 0.5; stroke-width: 0.8"/>
     <use xlink:href="#m957b8fb411" x="122.079" y="112.45575" style="fill: #bc80bd; fill-opacity: 0.5; stroke: #000000; stroke-opacity: 0.5; stroke-width: 0.8"/>
     <use xlink:href="#m957b8fb411" x="127.287" y="75.86535" style="fill: #bc80bd; fill-opacity: 0.5; stroke: #000000; stroke-opacity: 0.5; stroke-width: 0.8"/>
     <use xlink:href="#m957b8fb411" x="127.535" y="78.08295" style="fill: #bc80bd; fill-opacity: 0.5; stroke: #000000; stroke-opacity: 0.5; stroke-width: 0.8"/>
     <use xlink:href="#m957b8fb411" x="121.583" y="72.53895" style="fill: #bc80bd; fill-opacity: 0.5; stroke: #000000; stroke-opacity: 0.5; stroke-width: 0.8"/>
     <use xlink:href="#m957b8fb411" x="125.551" y="41.49255" style="fill: #bc80bd; fill-opacity: 0.5; stroke: #000000; stroke-opacity: 0.5; stroke-width: 0.8"/>
     <use xlink:href="#m957b8fb411" x="115.135" y="165.67815" style="fill: #bc80bd; fill-opacity: 0.5; stroke: #000000; stroke-opacity: 0.5; stroke-width: 0.8"/>
     <use xlink:href="#m957b8fb411" x="125.055" y="95.82375" style="fill: #bc80bd; fill-opacity: 0.5; stroke: #000000; stroke-opacity: 0.5; stroke-width: 0.8"/>
     <use xlink:href="#m957b8fb411" x="118.855" y="92.49735" style="fill: #bc80bd; fill-opacity: 0.5; stroke: #000000; stroke-opacity: 0.5; stroke-width: 0.8"/>
     <use xlink:href="#m957b8fb411" x="116.375" y="185.63655" style="fill: #bc80bd; fill-opacity: 0.5; stroke: #000000; stroke-opacity: 0.5; stroke-width: 0.8"/>
     <use xlink:href="#m957b8fb411" x="121.335" y="109.12935" style="fill: #bc80bd; fill-opacity: 0.5; stroke: #000000; stroke-opacity: 0.5; stroke-width: 0.8"/>
     <use xlink:href="#m957b8fb411" x="126.047" y="81.40935" style="fill: #bc80bd; fill-opacity: 0.5; stroke: #000000; stroke-opacity: 0.5; stroke-width: 0.8"/>
     <use xlink:href="#m957b8fb411" x="125.551" y="70.32135" style="fill: #bc80bd; fill-opacity: 0.5; stroke: #000000; stroke-opacity: 0.5; stroke-width: 0.8"/>
     <use xlink:href="#m957b8fb411" x="126.791" y="72.53895" style="fill: #bc80bd; fill-opacity: 0.5; stroke: #000000; stroke-opacity: 0.5; stroke-width: 0.8"/>
     <use xlink:href="#m957b8fb411" x="117.615" y="85.84455" style="fill: #bc80bd; fill-opacity: 0.5; stroke: #000000; stroke-opacity: 0.5; stroke-width: 0.8"/>
     <use xlink:href="#m957b8fb411" x="125.055" y="81.40935" style="fill: #bc80bd; fill-opacity: 0.5; stroke: #000000; stroke-opacity: 0.5; stroke-width: 0.8"/>
     <use xlink:href="#m957b8fb411" x="126.295" y="84.73575" style="fill: #bc80bd; fill-opacity: 0.5; stroke: #000000; stroke-opacity: 0.5; stroke-width: 0.8"/>
     <use xlink:href="#m957b8fb411" x="125.055" y="86.95335" style="fill: #bc80bd; fill-opacity: 0.5; stroke: #000000; stroke-opacity: 0.5; stroke-width: 0.8"/>
     <use xlink:href="#m957b8fb411" x="119.1526" y="101.36775" style="fill: #bc80bd; fill-opacity: 0.5; stroke: #000000; stroke-opacity: 0.5; stroke-width: 0.8"/>
     <use xlink:href="#m957b8fb411" x="117.615" y="105.80295" style="fill: #bc80bd; fill-opacity: 0.5; stroke: #000000; stroke-opacity: 0.5; stroke-width: 0.8"/>
     <use xlink:href="#m957b8fb411" x="125.055" y="75.86535" style="fill: #bc80bd; fill-opacity: 0.5; stroke: #000000; stroke-opacity: 0.5; stroke-width: 0.8"/>
     <use xlink:href="#m957b8fb411" x="124.807" y="86.95335" style="fill: #bc80bd; fill-opacity: 0.5; stroke: #000000; stroke-opacity: 0.5; stroke-width: 0.8"/>
     <use xlink:href="#m957b8fb411" x="118.855" y="103.58535" style="fill: #bc80bd; fill-opacity: 0.5; stroke: #000000; stroke-opacity: 0.5; stroke-width: 0.8"/>
     <use xlink:href="#m957b8fb411" x="130.511" y="70.32135" style="fill: #bc80bd; fill-opacity: 0.5; stroke: #000000; stroke-opacity: 0.5; stroke-width: 0.8"/>
     <use xlink:href="#m957b8fb411" x="127.039" y="35.94855" style="fill: #bc80bd; fill-opacity: 0.5; stroke: #000000; stroke-opacity: 0.5; stroke-width: 0.8"/>
     <use xlink:href="#m957b8fb411" x="108.935" y="202.26855" style="fill: #bc80bd; fill-opacity: 0.5; stroke: #000000; stroke-opacity: 0.5; stroke-width: 0.8"/>
     <use xlink:href="#m957b8fb411" x="117.119" y="75.86535" style="fill: #bc80bd; fill-opacity: 0.5; stroke: #000000; stroke-opacity: 0.5; stroke-width: 0.8"/>
     <use xlink:href="#m957b8fb411" x="119.351" y="92.49735" style="fill: #bc80bd; fill-opacity: 0.5; stroke: #000000; stroke-opacity: 0.5; stroke-width: 0.8"/>
     <use xlink:href="#m957b8fb411" x="144.647" y="50.36295" style="fill: #bc80bd; fill-opacity: 0.5; stroke: #000000; stroke-opacity: 0.5; stroke-width: 0.8"/>
     <use xlink:href="#m957b8fb411" x="138.943" y="30.40455" style="fill: #bc80bd; fill-opacity: 0.5; stroke: #000000; stroke-opacity: 0.5; stroke-width: 0.8"/>
     <use xlink:href="#m957b8fb411" x="124.807" y="81.40935" style="fill: #bc80bd; fill-opacity: 0.5; stroke: #000000; stroke-opacity: 0.5; stroke-width: 0.8"/>
     <use xlink:href="#m957b8fb411" x="125.055" y="61.45095" style="fill: #bc80bd; fill-opacity: 0.5; stroke: #000000; stroke-opacity: 0.5; stroke-width: 0.8"/>
     <use xlink:href="#m957b8fb411" x="116.375" y="106.91175" style="fill: #bc80bd; fill-opacity: 0.5; stroke: #000000; stroke-opacity: 0.5; stroke-width: 0.8"/>
    </g>
   </g>
   <g id="matplotlib.axis_1">
    <g id="xtick_1">
     <g id="line2d_1">
      <defs>
       <path id="mf24e956dc0" d="M 0 0 
L 0 3.5 
" style="stroke: #323034; stroke-width: 0.8"/>
      </defs>
      <g>
       <use xlink:href="#mf24e956dc0" x="55.615" y="234.42375" style="fill: #323034; stroke: #323034; stroke-width: 0.8"/>
      </g>
     </g>
     <g id="text_1">
      <!-- $\mathdefault{−200}$ -->
      <g style="fill: #323034" transform="translate(38.095 252.35125) scale(0.16 -0.16)">
       <defs>
        <path id="STIXGeneral-Regular-2212" d="M 3974 1408 
L 410 1408 
L 410 1830 
L 3974 1830 
L 3974 1408 
z
" transform="scale(0.015625)"/>
        <path id="STIXGeneral-Regular-32" d="M 3034 877 
L 2688 0 
L 186 0 
L 186 77 
L 1325 1286 
Q 1773 1754 1965 2144 
Q 2157 2534 2157 2950 
Q 2157 3379 1920 3616 
Q 1683 3853 1267 3853 
Q 922 3853 720 3673 
Q 518 3494 326 3021 
L 192 3053 
Q 301 3648 630 3987 
Q 960 4326 1523 4326 
Q 2054 4326 2380 4006 
Q 2707 3686 2707 3200 
Q 2707 2477 1888 1613 
L 832 486 
L 2330 486 
Q 2541 486 2665 569 
Q 2790 653 2944 915 
L 3034 877 
z
" transform="scale(0.015625)"/>
        <path id="STIXGeneral-Regular-30" d="M 3046 2112 
Q 3046 1683 2963 1302 
Q 2880 922 2717 602 
Q 2554 282 2266 96 
Q 1978 -90 1600 -90 
Q 1210 -90 915 108 
Q 621 307 461 640 
Q 301 973 227 1350 
Q 154 1728 154 2150 
Q 154 2746 301 3222 
Q 448 3699 790 4012 
Q 1133 4326 1626 4326 
Q 2253 4326 2649 3712 
Q 3046 3098 3046 2112 
z
M 2432 2080 
Q 2432 3091 2217 3625 
Q 2003 4160 1587 4160 
Q 1190 4160 979 3622 
Q 768 3085 768 2106 
Q 768 1120 979 598 
Q 1190 77 1600 77 
Q 2003 77 2217 598 
Q 2432 1120 2432 2080 
z
" transform="scale(0.015625)"/>
       </defs>
       <use xlink:href="#STIXGeneral-Regular-2212" transform="translate(0 0.40625)"/>
       <use xlink:href="#STIXGeneral-Regular-32" transform="translate(68.499985 0.40625)"/>
       <use xlink:href="#STIXGeneral-Regular-30" transform="translate(118.499969 0.40625)"/>
       <use xlink:href="#STIXGeneral-Regular-30" transform="translate(168.499954 0.40625)"/>
      </g>
     </g>
    </g>
    <g id="xtick_2">
     <g id="line2d_2">
      <g>
       <use xlink:href="#mf24e956dc0" x="105.215" y="234.42375" style="fill: #323034; stroke: #323034; stroke-width: 0.8"/>
      </g>
     </g>
     <g id="text_2">
      <!-- $\mathdefault{0}$ -->
      <g style="fill: #323034" transform="translate(101.215 252.35125) scale(0.16 -0.16)">
       <use xlink:href="#STIXGeneral-Regular-30" transform="translate(0 0.40625)"/>
      </g>
     </g>
    </g>
    <g id="xtick_3">
     <g id="line2d_3">
      <g>
       <use xlink:href="#mf24e956dc0" x="154.815" y="234.42375" style="fill: #323034; stroke: #323034; stroke-width: 0.8"/>
      </g>
     </g>
     <g id="text_3">
      <!-- $\mathdefault{200}$ -->
      <g style="fill: #323034" transform="translate(142.815 252.35125) scale(0.16 -0.16)">
       <use xlink:href="#STIXGeneral-Regular-32" transform="translate(0 0.40625)"/>
       <use xlink:href="#STIXGeneral-Regular-30" transform="translate(49.999985 0.40625)"/>
       <use xlink:href="#STIXGeneral-Regular-30" transform="translate(99.999969 0.40625)"/>
      </g>
     </g>
    </g>
    <g id="xtick_4">
     <g id="line2d_4">
      <g>
       <use xlink:href="#mf24e956dc0" x="204.415" y="234.42375" style="fill: #323034; stroke: #323034; stroke-width: 0.8"/>
      </g>
     </g>
     <g id="text_4">
      <!-- $\mathdefault{400}$ -->
      <g style="fill: #323034" transform="translate(192.415 252.35125) scale(0.16 -0.16)">
       <defs>
        <path id="STIXGeneral-Regular-34" d="M 3027 1069 
L 2368 1069 
L 2368 0 
L 1869 0 
L 1869 1069 
L 77 1069 
L 77 1478 
L 2086 4326 
L 2368 4326 
L 2368 1478 
L 3027 1478 
L 3027 1069 
z
M 1869 1478 
L 1869 3674 
L 333 1478 
L 1869 1478 
z
" transform="scale(0.015625)"/>
       </defs>
       <use xlink:href="#STIXGeneral-Regular-34" transform="translate(0 0.40625)"/>
       <use xlink:href="#STIXGeneral-Regular-30" transform="translate(49.999985 0.40625)"/>
       <use xlink:href="#STIXGeneral-Regular-30" transform="translate(99.999969 0.40625)"/>
      </g>
     </g>
    </g>
    <g id="xtick_5">
     <g id="line2d_5">
      <g>
       <use xlink:href="#mf24e956dc0" x="254.015" y="234.42375" style="fill: #323034; stroke: #323034; stroke-width: 0.8"/>
      </g>
     </g>
     <g id="text_5">
      <!-- $\mathdefault{600}$ -->
      <g style="fill: #323034" transform="translate(242.015 252.35125) scale(0.16 -0.16)">
       <defs>
        <path id="STIXGeneral-Regular-36" d="M 2854 4378 
L 2867 4275 
Q 2112 4154 1606 3664 
Q 1101 3174 973 2451 
Q 1344 2739 1786 2739 
Q 2349 2739 2672 2380 
Q 2995 2022 2995 1402 
Q 2995 774 2669 378 
Q 2291 -90 1651 -90 
Q 870 -90 518 557 
Q 218 1107 218 1786 
Q 218 2835 915 3552 
Q 1312 3962 1731 4131 
Q 2150 4301 2854 4378 
z
M 2419 1203 
Q 2419 2445 1555 2445 
Q 1235 2445 1024 2275 
Q 813 2106 813 1702 
Q 813 954 1046 522 
Q 1280 90 1722 90 
Q 2061 90 2240 394 
Q 2419 698 2419 1203 
z
" transform="scale(0.015625)"/>
       </defs>
       <use xlink:href="#STIXGeneral-Regular-36" transform="translate(0 0.59375)"/>
       <use xlink:href="#STIXGeneral-Regular-30" transform="translate(49.999985 0.59375)"/>
       <use xlink:href="#STIXGeneral-Regular-30" transform="translate(99.999969 0.59375)"/>
      </g>
     </g>
    </g>
    <g id="xtick_6">
     <g id="line2d_6">
      <g>
       <use xlink:href="#mf24e956dc0" x="303.615" y="234.42375" style="fill: #323034; stroke: #323034; stroke-width: 0.8"/>
      </g>
     </g>
     <g id="text_6">
      <!-- $\mathdefault{800}$ -->
      <g style="fill: #323034" transform="translate(291.615 252.35125) scale(0.16 -0.16)">
       <defs>
        <path id="STIXGeneral-Regular-38" d="M 2848 992 
Q 2848 499 2505 204 
Q 2163 -90 1587 -90 
Q 1050 -90 704 204 
Q 358 499 358 954 
Q 358 1293 524 1533 
Q 691 1773 1190 2125 
Q 710 2522 553 2765 
Q 397 3008 397 3328 
Q 397 3782 745 4054 
Q 1094 4326 1638 4326 
Q 2106 4326 2410 4060 
Q 2714 3795 2714 3411 
Q 2714 3059 2531 2848 
Q 2349 2637 1856 2374 
Q 2432 1990 2640 1689 
Q 2848 1389 2848 992 
z
M 2272 3411 
Q 2272 3744 2086 3945 
Q 1901 4147 1574 4147 
Q 1248 4147 1059 3977 
Q 870 3808 870 3513 
Q 870 3219 1059 2979 
Q 1248 2739 1670 2490 
Q 1997 2682 2134 2896 
Q 2272 3110 2272 3411 
z
M 1734 1741 
L 1357 1997 
Q 1075 1766 960 1545 
Q 845 1325 845 1011 
Q 845 576 1065 333 
Q 1286 90 1658 90 
Q 1971 90 2166 285 
Q 2362 480 2362 794 
Q 2362 1082 2214 1299 
Q 2067 1517 1734 1741 
z
" transform="scale(0.015625)"/>
       </defs>
       <use xlink:href="#STIXGeneral-Regular-38" transform="translate(0 0.40625)"/>
       <use xlink:href="#STIXGeneral-Regular-30" transform="translate(49.999985 0.40625)"/>
       <use xlink:href="#STIXGeneral-Regular-30" transform="translate(99.999969 0.40625)"/>
      </g>
     </g>
    </g>
    <g id="xtick_7">
     <g id="line2d_7">
      <g>
       <use xlink:href="#mf24e956dc0" x="353.215" y="234.42375" style="fill: #323034; stroke: #323034; stroke-width: 0.8"/>
      </g>
     </g>
     <g id="text_7">
      <!-- $\mathdefault{1000}$ -->
      <g style="fill: #323034" transform="translate(337.215 252.35125) scale(0.16 -0.16)">
       <defs>
        <path id="STIXGeneral-Regular-31" d="M 2522 0 
L 755 0 
L 755 96 
Q 1107 115 1235 227 
Q 1363 339 1363 608 
L 1363 3482 
Q 1363 3795 1171 3795 
Q 1082 3795 883 3718 
L 710 3654 
L 710 3744 
L 1856 4326 
L 1914 4307 
L 1914 486 
Q 1914 275 2042 185 
Q 2170 96 2522 96 
L 2522 0 
z
" transform="scale(0.015625)"/>
       </defs>
       <use xlink:href="#STIXGeneral-Regular-31" transform="translate(0 0.40625)"/>
       <use xlink:href="#STIXGeneral-Regular-30" transform="translate(49.999985 0.40625)"/>
       <use xlink:href="#STIXGeneral-Regular-30" transform="translate(99.999969 0.40625)"/>
       <use xlink:href="#STIXGeneral-Regular-30" transform="translate(149.999954 0.40625)"/>
      </g>
     </g>
    </g>
    <g id="xtick_8">
     <g id="line2d_8">
      <g>
       <use xlink:href="#mf24e956dc0" x="402.815" y="234.42375" style="fill: #323034; stroke: #323034; stroke-width: 0.8"/>
      </g>
     </g>
     <g id="text_8">
      <!-- $\mathdefault{1200}$ -->
      <g style="fill: #323034" transform="translate(386.815 252.35125) scale(0.16 -0.16)">
       <use xlink:href="#STIXGeneral-Regular-31" transform="translate(0 0.40625)"/>
       <use xlink:href="#STIXGeneral-Regular-32" transform="translate(49.999985 0.40625)"/>
       <use xlink:href="#STIXGeneral-Regular-30" transform="translate(99.999969 0.40625)"/>
       <use xlink:href="#STIXGeneral-Regular-30" transform="translate(149.999954 0.40625)"/>
      </g>
     </g>
    </g>
    <g id="xtick_9">
     <g id="line2d_9">
      <g>
       <use xlink:href="#mf24e956dc0" x="452.415" y="234.42375" style="fill: #323034; stroke: #323034; stroke-width: 0.8"/>
      </g>
     </g>
     <g id="text_9">
      <!-- $\mathdefault{1400}$ -->
      <g style="fill: #323034" transform="translate(436.415 252.35125) scale(0.16 -0.16)">
       <use xlink:href="#STIXGeneral-Regular-31" transform="translate(0 0.40625)"/>
       <use xlink:href="#STIXGeneral-Regular-34" transform="translate(49.999985 0.40625)"/>
       <use xlink:href="#STIXGeneral-Regular-30" transform="translate(99.999969 0.40625)"/>
       <use xlink:href="#STIXGeneral-Regular-30" transform="translate(149.999954 0.40625)"/>
      </g>
     </g>
    </g>
    <g id="xtick_10">
     <g id="line2d_10">
      <g>
       <use xlink:href="#mf24e956dc0" x="502.015" y="234.42375" style="fill: #323034; stroke: #323034; stroke-width: 0.8"/>
      </g>
     </g>
     <g id="text_10">
      <!-- $\mathdefault{1600}$ -->
      <g style="fill: #323034" transform="translate(486.015 252.35125) scale(0.16 -0.16)">
       <use xlink:href="#STIXGeneral-Regular-31" transform="translate(0 0.59375)"/>
       <use xlink:href="#STIXGeneral-Regular-36" transform="translate(49.999985 0.59375)"/>
       <use xlink:href="#STIXGeneral-Regular-30" transform="translate(99.999969 0.59375)"/>
       <use xlink:href="#STIXGeneral-Regular-30" transform="translate(149.999954 0.59375)"/>
      </g>
     </g>
    </g>
    <g id="text_11">
     <!-- mass -->
     <g transform="translate(262.81375 269.75125) scale(0.16 -0.16)">
      <defs>
       <path id="STIXGeneral-Regular-6d" d="M 4960 0 
L 3565 0 
L 3565 96 
Q 3834 122 3907 208 
Q 3981 294 3981 576 
L 3981 1894 
Q 3981 2278 3869 2444 
Q 3757 2611 3488 2611 
Q 3264 2611 3107 2521 
Q 2950 2432 2803 2221 
L 2803 608 
Q 2803 301 2896 201 
Q 2989 102 3264 96 
L 3264 0 
L 1830 0 
L 1830 96 
Q 2112 115 2189 188 
Q 2266 262 2266 550 
L 2266 1901 
Q 2266 2611 1850 2611 
Q 1670 2611 1468 2531 
Q 1267 2451 1171 2336 
Q 1088 2240 1088 2227 
L 1088 448 
Q 1088 243 1177 176 
Q 1267 109 1523 96 
L 1523 0 
L 102 0 
L 102 96 
Q 371 102 460 195 
Q 550 288 550 563 
L 550 2150 
Q 550 2387 499 2480 
Q 448 2573 326 2573 
Q 230 2573 122 2547 
L 122 2656 
Q 557 2778 1011 2944 
L 1062 2925 
L 1062 2451 
L 1075 2451 
Q 1363 2752 1584 2848 
Q 1805 2944 2054 2944 
Q 2560 2944 2733 2406 
Q 3232 2944 3776 2944 
Q 4518 2944 4518 1792 
L 4518 493 
Q 4518 282 4582 202 
Q 4646 122 4794 109 
L 4960 96 
L 4960 0 
z
" transform="scale(0.015625)"/>
       <path id="STIXGeneral-Regular-61" d="M 2829 422 
L 2829 243 
Q 2586 -64 2253 -64 
Q 1888 -64 1843 403 
L 1837 403 
Q 1427 -64 909 -64 
Q 608 -64 422 112 
Q 237 288 237 602 
Q 237 1050 685 1350 
Q 992 1555 1837 1869 
L 1837 2214 
Q 1837 2502 1699 2646 
Q 1562 2790 1338 2790 
Q 1146 2790 1018 2697 
Q 890 2605 890 2477 
Q 890 2419 909 2348 
Q 928 2278 928 2208 
Q 928 2112 841 2029 
Q 755 1946 634 1946 
Q 525 1946 441 2029 
Q 358 2112 358 2240 
Q 358 2547 685 2752 
Q 986 2944 1421 2944 
Q 1939 2944 2176 2656 
Q 2291 2522 2323 2384 
Q 2355 2246 2355 1946 
L 2355 723 
Q 2355 301 2554 301 
Q 2682 301 2829 422 
z
M 1837 813 
L 1837 1715 
Q 1248 1510 1018 1293 
Q 800 1094 800 800 
Q 800 557 921 432 
Q 1043 307 1242 307 
Q 1453 307 1613 410 
Q 1747 506 1792 589 
Q 1837 672 1837 813 
z
" transform="scale(0.015625)"/>
       <path id="STIXGeneral-Regular-73" d="M 998 1926 
L 1664 1523 
Q 1984 1331 2105 1164 
Q 2227 998 2227 736 
Q 2227 416 1961 176 
Q 1696 -64 1331 -64 
Q 1030 -64 864 -6 
Q 691 51 570 51 
Q 461 51 416 -26 
L 333 -26 
L 333 979 
L 435 979 
Q 538 512 730 294 
Q 922 77 1248 77 
Q 1485 77 1632 211 
Q 1779 346 1779 550 
Q 1779 845 1440 1030 
L 1094 1222 
Q 326 1651 326 2150 
Q 326 2522 566 2730 
Q 806 2938 1210 2938 
Q 1491 2938 1638 2867 
Q 1754 2816 1818 2816 
Q 1862 2816 1920 2880 
L 1990 2880 
L 2022 2010 
L 1926 2010 
Q 1818 2445 1654 2621 
Q 1491 2797 1203 2797 
Q 986 2797 854 2688 
Q 723 2579 723 2362 
Q 723 2253 796 2128 
Q 870 2003 998 1926 
z
" transform="scale(0.015625)"/>
      </defs>
      <use xlink:href="#STIXGeneral-Regular-6d"/>
      <use xlink:href="#STIXGeneral-Regular-61" transform="translate(77.799988 0)"/>
      <use xlink:href="#STIXGeneral-Regular-73" transform="translate(122.199982 0)"/>
      <use xlink:href="#STIXGeneral-Regular-73" transform="translate(161.099976 0)"/>
     </g>
    </g>
   </g>
   <g id="matplotlib.axis_2">
    <g id="ytick_1">
     <g id="line2d_11">
      <defs>
       <path id="mabe6667e2d" d="M 0 0 
L -3.5 0 
" style="stroke: #323034; stroke-width: 0.8"/>
      </defs>
      <g>
       <use xlink:href="#mabe6667e2d" x="55.615" y="234.42375" style="fill: #323034; stroke: #323034; stroke-width: 0.8"/>
      </g>
     </g>
     <g id="text_12">
      <!-- $\mathdefault{50}$ -->
      <g style="fill: #323034" transform="translate(32.615 239.8875) scale(0.16 -0.16)">
       <defs>
        <path id="STIXGeneral-Regular-35" d="M 2803 4358 
L 2573 3814 
Q 2534 3731 2400 3731 
L 1158 3731 
L 902 3187 
Q 1606 3053 1920 2896 
Q 2234 2739 2502 2368 
Q 2726 2061 2726 1555 
Q 2726 1094 2576 780 
Q 2426 467 2099 224 
Q 1664 -90 1011 -90 
Q 646 -90 422 19 
Q 198 128 198 307 
Q 198 550 486 550 
Q 717 550 960 352 
Q 1210 147 1414 147 
Q 1747 147 2012 480 
Q 2278 813 2278 1229 
Q 2278 1843 1850 2189 
Q 1293 2637 486 2637 
Q 410 2637 410 2688 
L 416 2720 
L 1114 4237 
L 2438 4237 
Q 2547 4237 2608 4269 
Q 2669 4301 2746 4403 
L 2803 4358 
z
" transform="scale(0.015625)"/>
       </defs>
       <use xlink:href="#STIXGeneral-Regular-35" transform="translate(0 0.203125)"/>
       <use xlink:href="#STIXGeneral-Regular-30" transform="translate(49.999985 0.203125)"/>
      </g>
     </g>
    </g>
    <g id="ytick_2">
     <g id="line2d_12">
      <g>
       <use xlink:href="#mabe6667e2d" x="55.615" y="178.98375" style="fill: #323034; stroke: #323034; stroke-width: 0.8"/>
      </g>
     </g>
     <g id="text_13">
      <!-- $\mathdefault{100}$ -->
      <g style="fill: #323034" transform="translate(24.615 184.4475) scale(0.16 -0.16)">
       <use xlink:href="#STIXGeneral-Regular-31" transform="translate(0 0.40625)"/>
       <use xlink:href="#STIXGeneral-Regular-30" transform="translate(49.999985 0.40625)"/>
       <use xlink:href="#STIXGeneral-Regular-30" transform="translate(99.999969 0.40625)"/>
      </g>
     </g>
    </g>
    <g id="ytick_3">
     <g id="line2d_13">
      <g>
       <use xlink:href="#mabe6667e2d" x="55.615" y="123.54375" style="fill: #323034; stroke: #323034; stroke-width: 0.8"/>
      </g>
     </g>
     <g id="text_14">
      <!-- $\mathdefault{150}$ -->
      <g style="fill: #323034" transform="translate(24.615 129.0075) scale(0.16 -0.16)">
       <use xlink:href="#STIXGeneral-Regular-31" transform="translate(0 0.203125)"/>
       <use xlink:href="#STIXGeneral-Regular-35" transform="translate(49.999985 0.203125)"/>
       <use xlink:href="#STIXGeneral-Regular-30" transform="translate(99.999969 0.203125)"/>
      </g>
     </g>
    </g>
    <g id="ytick_4">
     <g id="line2d_14">
      <g>
       <use xlink:href="#mabe6667e2d" x="55.615" y="68.10375" style="fill: #323034; stroke: #323034; stroke-width: 0.8"/>
      </g>
     </g>
     <g id="text_15">
      <!-- $\mathdefault{200}$ -->
      <g style="fill: #323034" transform="translate(24.615 73.5675) scale(0.16 -0.16)">
       <use xlink:href="#STIXGeneral-Regular-32" transform="translate(0 0.40625)"/>
       <use xlink:href="#STIXGeneral-Regular-30" transform="translate(49.999985 0.40625)"/>
       <use xlink:href="#STIXGeneral-Regular-30" transform="translate(99.999969 0.40625)"/>
      </g>
     </g>
    </g>
    <g id="ytick_5">
     <g id="line2d_15">
      <g>
       <use xlink:href="#mabe6667e2d" x="55.615" y="12.66375" style="fill: #323034; stroke: #323034; stroke-width: 0.8"/>
      </g>
     </g>
     <g id="text_16">
      <!-- $\mathdefault{250}$ -->
      <g style="fill: #323034" transform="translate(24.615 18.1275) scale(0.16 -0.16)">
       <use xlink:href="#STIXGeneral-Regular-32" transform="translate(0 0.203125)"/>
       <use xlink:href="#STIXGeneral-Regular-35" transform="translate(49.999985 0.203125)"/>
       <use xlink:href="#STIXGeneral-Regular-30" transform="translate(99.999969 0.203125)"/>
      </g>
     </g>
    </g>
    <g id="text_17">
     <!-- height -->
     <g transform="translate(18.1275 143.54375) rotate(-90) scale(0.16 -0.16)">
      <defs>
       <path id="STIXGeneral-Regular-68" d="M 3117 0 
L 1760 0 
L 1760 96 
Q 2042 128 2118 224 
Q 2195 320 2195 653 
L 2195 1920 
Q 2195 2598 1722 2598 
Q 1530 2598 1370 2508 
Q 1210 2419 1005 2195 
L 1005 653 
Q 1005 320 1081 224 
Q 1158 128 1440 96 
L 1440 0 
L 58 0 
L 58 96 
Q 333 134 400 224 
Q 467 314 467 653 
L 467 3667 
Q 467 3872 406 3933 
Q 346 3994 141 3994 
Q 83 3994 64 3987 
L 64 4090 
L 237 4141 
Q 730 4288 973 4371 
L 1005 4352 
L 1005 2406 
Q 1229 2694 1446 2819 
Q 1664 2944 1946 2944 
Q 2733 2944 2733 1926 
L 2733 653 
Q 2733 320 2793 233 
Q 2854 147 3117 96 
L 3117 0 
z
" transform="scale(0.015625)"/>
       <path id="STIXGeneral-Regular-65" d="M 2611 1050 
L 2714 1005 
Q 2330 -64 1376 -64 
Q 813 -64 486 329 
Q 160 723 160 1389 
Q 160 2074 525 2509 
Q 890 2944 1485 2944 
Q 2061 2944 2374 2502 
Q 2560 2246 2592 1773 
L 621 1773 
Q 646 1370 700 1158 
Q 755 947 915 730 
Q 1184 378 1626 378 
Q 1939 378 2153 531 
Q 2368 685 2611 1050 
z
M 634 1978 
L 1939 1978 
Q 1882 2381 1750 2547 
Q 1619 2714 1312 2714 
Q 1043 2714 864 2525 
Q 685 2336 634 1978 
z
" transform="scale(0.015625)"/>
       <path id="STIXGeneral-Regular-69" d="M 1152 4045 
Q 1152 3904 1056 3811 
Q 960 3718 819 3718 
Q 685 3718 592 3811 
Q 499 3904 499 4045 
Q 499 4179 595 4275 
Q 691 4371 826 4371 
Q 966 4371 1059 4275 
Q 1152 4179 1152 4045 
z
M 1619 0 
L 102 0 
L 102 96 
Q 435 115 521 211 
Q 608 307 608 666 
L 608 2118 
Q 608 2342 563 2432 
Q 518 2522 397 2522 
Q 243 2522 128 2490 
L 128 2592 
L 1120 2944 
L 1146 2918 
L 1146 672 
Q 1146 314 1226 218 
Q 1306 122 1619 96 
L 1619 0 
z
" transform="scale(0.015625)"/>
       <path id="STIXGeneral-Regular-67" d="M 3008 2483 
L 2477 2483 
Q 2598 2208 2598 1946 
Q 2598 1453 2265 1203 
Q 1933 954 1600 954 
Q 1530 954 1357 973 
L 1235 986 
Q 1107 947 979 812 
Q 851 678 851 582 
Q 851 435 1350 410 
L 2176 371 
Q 2528 358 2739 172 
Q 2950 -13 2950 -314 
Q 2950 -685 2566 -986 
Q 2035 -1395 1286 -1395 
Q 826 -1395 502 -1212 
Q 179 -1030 179 -774 
Q 179 -595 320 -419 
Q 461 -243 806 6 
Q 602 102 534 172 
Q 467 243 467 346 
Q 467 531 762 787 
Q 909 915 1037 1043 
Q 717 1203 579 1401 
Q 442 1600 442 1901 
Q 442 2336 752 2640 
Q 1062 2944 1510 2944 
Q 1766 2944 2022 2848 
L 2163 2797 
Q 2349 2733 2515 2733 
L 3008 2733 
L 3008 2483 
z
M 973 2163 
L 973 2144 
Q 973 1683 1155 1398 
Q 1338 1114 1632 1114 
Q 1850 1114 1978 1270 
Q 2106 1427 2106 1690 
Q 2106 2112 1914 2464 
Q 1754 2765 1446 2765 
Q 1222 2765 1097 2605 
Q 973 2445 973 2163 
z
M 2771 -410 
Q 2771 -230 2595 -163 
Q 2419 -96 1978 -96 
Q 1344 -96 941 -13 
Q 749 -243 688 -348 
Q 627 -454 627 -563 
Q 627 -774 880 -902 
Q 1133 -1030 1555 -1030 
Q 2099 -1030 2435 -860 
Q 2771 -691 2771 -410 
z
" transform="scale(0.015625)"/>
       <path id="STIXGeneral-Regular-74" d="M 1702 493 
L 1786 422 
Q 1478 -64 1011 -64 
Q 448 -64 448 749 
L 448 2675 
L 109 2675 
Q 83 2694 83 2720 
Q 83 2771 192 2842 
Q 435 2982 813 3526 
Q 826 3546 874 3606 
Q 922 3667 941 3706 
Q 986 3706 986 3622 
L 986 2880 
L 1632 2880 
L 1632 2675 
L 986 2675 
L 986 845 
Q 986 538 1062 403 
Q 1139 269 1318 269 
Q 1510 269 1702 493 
z
" transform="scale(0.015625)"/>
      </defs>
      <use xlink:href="#STIXGeneral-Regular-68"/>
      <use xlink:href="#STIXGeneral-Regular-65" transform="translate(49.999985 0)"/>
      <use xlink:href="#STIXGeneral-Regular-69" transform="translate(94.399979 0)"/>
      <use xlink:href="#STIXGeneral-Regular-67" transform="translate(122.199966 0)"/>
      <use xlink:href="#STIXGeneral-Regular-68" transform="translate(172.199951 0)"/>
      <use xlink:href="#STIXGeneral-Regular-74" transform="translate(222.199936 0)"/>
     </g>
    </g>
   </g>
   <g id="patch_3">
    <path d="M 55.615 234.42375 
L 55.615 12.66375 
" style="fill: none; stroke: #000000; stroke-width: 0.6; stroke-linejoin: miter; stroke-linecap: square"/>
   </g>
   <g id="patch_4">
    <path d="M 55.615 234.42375 
L 502.015 234.42375 
" style="fill: none; stroke: #000000; stroke-width: 0.6; stroke-linejoin: miter; stroke-linecap: square"/>
   </g>
  </g>
 </g>
 <defs>
  <clipPath id="p2f9a505435">
   <rect x="55.615" y="12.66375" width="446.4" height="221.76"/>
  </clipPath>
 </defs>
</svg>