<?xml version="1.0" encoding="utf-8" standalone="no"?>
<!DOCTYPE svg PUBLIC "-//W3C//DTD SVG 1.1//EN"
  "http://www.w3.org/Graphics/SVG/1.1/DTD/svg11.dtd">
<svg xmlns:xlink="http://www.w3.org/1999/xlink" width="590.4pt" height="302.4pt" viewBox="0 0 590.4 302.4" xmlns="http://www.w3.org/2000/svg" version="1.1">
 <metadata>
  <rdf:RDF xmlns:dc="http://purl.org/dc/elements/1.1/" xmlns:cc="http://creativecommons.org/ns#" xmlns:rdf="http://www.w3.org/1999/02/22-rdf-syntax-ns#">
   <cc:Work>
    <dc:type rdf:resource="http://purl.org/dc/dcmitype/StillImage"/>
    <dc:date>2024-03-24T10:33:14.030494</dc:date>
    <dc:format>image/svg+xml</dc:format>
    <dc:creator>
     <cc:Agent>
      <dc:title>Matplotlib v3.8.2, https://matplotlib.org/</dc:title>
     </cc:Agent>
    </dc:creator>
   </cc:Work>
  </rdf:RDF>
 </metadata>
 <defs>
  <style type="text/css">*{stroke-linejoin: round; stroke-linecap: butt}</style>
 </defs>
 <g id="figure_1">
  <g id="patch_1">
   <path d="M 0 302.4 
L 590.4 302.4 
L 590.4 0 
L 0 0 
z
" style="fill: #ffffff"/>
  </g>
  <g id="axes_1">
   <g id="LineCollection_1">
    <path d="M 328.072093 125.177579 
L 288.941395 51.352758 
" clip-path="url(#pda5c0b10a9)" style="fill: none; stroke: #000000"/>
    <path d="M 328.072093 125.177579 
L 484.603943 83.884345 
" clip-path="url(#pda5c0b10a9)" style="fill: none; stroke: #000000"/>
    <path d="M 328.072093 125.177579 
L 232.612702 196.08588 
" clip-path="url(#pda5c0b10a9)" style="fill: none; stroke: #000000"/>
    <path d="M 328.072093 125.177579 
L 107.023146 143.669841 
" clip-path="url(#pda5c0b10a9)" style="fill: none; stroke: #000000"/>
    <path d="M 288.941395 51.352758 
L 173.08886 83.029597 
" clip-path="url(#pda5c0b10a9)" style="fill: none; stroke: #000000"/>
    <path d="M 484.603943 83.884345 
L 173.08886 83.029597 
" clip-path="url(#pda5c0b10a9)" style="fill: none; stroke: #000000"/>
    <path d="M 232.612702 196.08588 
L 107.023146 143.669841 
" clip-path="url(#pda5c0b10a9)" style="fill: none; stroke: #000000"/>
    <path d="M 232.612702 196.08588 
L 228.057862 263.2 
" clip-path="url(#pda5c0b10a9)" style="fill: none; stroke: #000000"/>
    <path d="M 107.023146 143.669841 
L 173.08886 83.029597 
" clip-path="url(#pda5c0b10a9)" style="fill: none; stroke: #000000"/>
    <path d="M 228.057862 263.2 
L 228.057862 263.2 
" clip-path="url(#pda5c0b10a9)" style="fill: none; stroke: #000000"/>
   </g>
   <g id="patch_2">
    <path d="M 228.057862 242.015276 
C 281.019672 242.015276 281.019672 263.2 228.057862 263.2 
C 175.096051 263.2 175.096051 242.015276 228.057862 242.015276 
" clip-path="url(#pda5c0b10a9)" style="fill: none; stroke: #000000; stroke-linecap: round"/>
   </g>
   <g id="PathCollection_1">
    <defs>
     <path id="m35d0cbc3cb" d="M 0 11.18034 
C 2.965061 11.18034 5.80908 10.002309 7.905694 7.905694 
C 10.002309 5.80908 11.18034 2.965061 11.18034 0 
C 11.18034 -2.965061 10.002309 -5.80908 7.905694 -7.905694 
C 5.80908 -10.002309 2.965061 -11.18034 0 -11.18034 
C -2.965061 -11.18034 -5.80908 -10.002309 -7.905694 -7.905694 
C -10.002309 -5.80908 -11.18034 -2.965061 -11.18034 0 
C -11.18034 2.965061 -10.002309 5.80908 -7.905694 7.905694 
C -5.80908 10.002309 -2.965061 11.18034 0 11.18034 
z
" style="stroke: #000000; stroke-width: 0.8"/>
    </defs>
    <g clip-path="url(#pda5c0b10a9)">
     <use xlink:href="#m35d0cbc3cb" x="328.072093" y="125.177579" style="fill: #87ceeb; stroke: #000000; stroke-width: 0.8"/>
     <use xlink:href="#m35d0cbc3cb" x="288.941395" y="51.352758" style="fill: #87ceeb; stroke: #000000; stroke-width: 0.8"/>
     <use xlink:href="#m35d0cbc3cb" x="484.603943" y="83.884345" style="fill: #87ceeb; stroke: #000000; stroke-width: 0.8"/>
     <use xlink:href="#m35d0cbc3cb" x="232.612702" y="196.08588" style="fill: #87ceeb; stroke: #000000; stroke-width: 0.8"/>
     <use xlink:href="#m35d0cbc3cb" x="107.023146" y="143.669841" style="fill: #87ceeb; stroke: #000000; stroke-width: 0.8"/>
     <use xlink:href="#m35d0cbc3cb" x="228.057862" y="263.2" style="fill: #87ceeb; stroke: #000000; stroke-width: 0.8"/>
     <use xlink:href="#m35d0cbc3cb" x="173.08886" y="83.029597" style="fill: #87ceeb; stroke: #000000; stroke-width: 0.8"/>
    </g>
   </g>
   <g id="text_1">
    <g clip-path="url(#pda5c0b10a9)">
     <!-- A -->
     <g transform="translate(323.967718 128.488829) scale(0.12 -0.12)">
      <defs>
       <path id="DejaVuSans-41" d="M 2188 4044 
L 1331 1722 
L 3047 1722 
L 2188 4044 
z
M 1831 4666 
L 2547 4666 
L 4325 0 
L 3669 0 
L 3244 1197 
L 1141 1197 
L 716 0 
L 50 0 
L 1831 4666 
z
" transform="scale(0.015625)"/>
      </defs>
      <use xlink:href="#DejaVuSans-41"/>
     </g>
    </g>
   </g>
   <g id="text_2">
    <g clip-path="url(#pda5c0b10a9)">
     <!-- D -->
     <g transform="translate(284.321395 54.664008) scale(0.12 -0.12)">
      <defs>
       <path id="DejaVuSans-44" d="M 1259 4147 
L 1259 519 
L 2022 519 
Q 2988 519 3436 956 
Q 3884 1394 3884 2338 
Q 3884 3275 3436 3711 
Q 2988 4147 2022 4147 
L 1259 4147 
z
M 628 4666 
L 1925 4666 
Q 3281 4666 3915 4102 
Q 4550 3538 4550 2338 
Q 4550 1131 3912 565 
Q 3275 0 1925 0 
L 628 0 
L 628 4666 
z
" transform="scale(0.015625)"/>
      </defs>
      <use xlink:href="#DejaVuSans-44"/>
     </g>
    </g>
   </g>
   <g id="text_3">
    <g clip-path="url(#pda5c0b10a9)">
     <!-- B -->
     <g transform="translate(480.48738 87.195595) scale(0.12 -0.12)">
      <defs>
       <path id="DejaVuSans-42" d="M 1259 2228 
L 1259 519 
L 2272 519 
Q 2781 519 3026 730 
Q 3272 941 3272 1375 
Q 3272 1813 3026 2020 
Q 2781 2228 2272 2228 
L 1259 2228 
z
M 1259 4147 
L 1259 2741 
L 2194 2741 
Q 2656 2741 2882 2914 
Q 3109 3088 3109 3444 
Q 3109 3797 2882 3972 
Q 2656 4147 2194 4147 
L 1259 4147 
z
M 628 4666 
L 2241 4666 
Q 2963 4666 3353 4366 
Q 3744 4066 3744 3513 
Q 3744 3084 3544 2831 
Q 3344 2578 2956 2516 
Q 3422 2416 3680 2098 
Q 3938 1781 3938 1306 
Q 3938 681 3513 340 
Q 3088 0 2303 0 
L 628 0 
L 628 4666 
z
" transform="scale(0.015625)"/>
      </defs>
      <use xlink:href="#DejaVuSans-42"/>
     </g>
    </g>
   </g>
   <g id="text_4">
    <g clip-path="url(#pda5c0b10a9)">
     <!-- C -->
     <g transform="translate(228.423014 199.39713) scale(0.12 -0.12)">
      <defs>
       <path id="DejaVuSans-43" d="M 4122 4306 
L 4122 3641 
Q 3803 3938 3442 4084 
Q 3081 4231 2675 4231 
Q 1875 4231 1450 3742 
Q 1025 3253 1025 2328 
Q 1025 1406 1450 917 
Q 1875 428 2675 428 
Q 3081 428 3442 575 
Q 3803 722 4122 1019 
L 4122 359 
Q 3791 134 3420 21 
Q 3050 -91 2638 -91 
Q 1578 -91 968 557 
Q 359 1206 359 2328 
Q 359 3453 968 4101 
Q 1578 4750 2638 4750 
Q 3056 4750 3426 4639 
Q 3797 4528 4122 4306 
z
" transform="scale(0.015625)"/>
      </defs>
      <use xlink:href="#DejaVuSans-43"/>
     </g>
    </g>
   </g>
   <g id="text_5">
    <g clip-path="url(#pda5c0b10a9)">
     <!-- E -->
     <g transform="translate(103.231896 146.981091) scale(0.12 -0.12)">
      <defs>
       <path id="DejaVuSans-45" d="M 628 4666 
L 3578 4666 
L 3578 4134 
L 1259 4134 
L 1259 2753 
L 3481 2753 
L 3481 2222 
L 1259 2222 
L 1259 531 
L 3634 531 
L 3634 0 
L 628 0 
L 628 4666 
z
" transform="scale(0.015625)"/>
      </defs>
      <use xlink:href="#DejaVuSans-45"/>
     </g>
    </g>
   </g>
   <g id="text_6">
    <g clip-path="url(#pda5c0b10a9)">
     <!-- F -->
     <g transform="translate(224.606924 266.51125) scale(0.12 -0.12)">
      <defs>
       <path id="DejaVuSans-46" d="M 628 4666 
L 3309 4666 
L 3309 4134 
L 1259 4134 
L 1259 2759 
L 3109 2759 
L 3109 2228 
L 1259 2228 
L 1259 0 
L 628 0 
L 628 4666 
z
" transform="scale(0.015625)"/>
      </defs>
      <use xlink:href="#DejaVuSans-46"/>
     </g>
    </g>
   </g>
   <g id="text_7">
    <g clip-path="url(#pda5c0b10a9)">
     <!-- G -->
     <g transform="translate(168.439797 86.340847) scale(0.12 -0.12)">
      <defs>
       <path id="DejaVuSans-47" d="M 3809 666 
L 3809 1919 
L 2778 1919 
L 2778 2438 
L 4434 2438 
L 4434 434 
Q 4069 175 3628 42 
Q 3188 -91 2688 -91 
Q 1594 -91 976 548 
Q 359 1188 359 2328 
Q 359 3472 976 4111 
Q 1594 4750 2688 4750 
Q 3144 4750 3555 4637 
Q 3966 4525 4313 4306 
L 4313 3634 
Q 3963 3931 3569 4081 
Q 3175 4231 2741 4231 
Q 1884 4231 1454 3753 
Q 1025 3275 1025 2328 
Q 1025 1384 1454 906 
Q 1884 428 2741 428 
Q 3075 428 3337 486 
Q 3600 544 3809 666 
z
" transform="scale(0.015625)"/>
      </defs>
      <use xlink:href="#DejaVuSans-47"/>
     </g>
    </g>
   </g>
  </g>
 </g>
 <defs>
  <clipPath id="pda5c0b10a9">
   <rect x="7.2" y="7.2" width="576" height="288"/>
  </clipPath>
 </defs>
</svg>