<?xml version="1.0" encoding="utf-8" standalone="no"?>
<!DOCTYPE svg PUBLIC "-//W3C//DTD SVG 1.1//EN"
  "http://www.w3.org/Graphics/SVG/1.1/DTD/svg11.dtd">
<svg xmlns:xlink="http://www.w3.org/1999/xlink" width="516.24pt" height="293.936406pt" viewBox="0 0 516.24 293.936406" xmlns="http://www.w3.org/2000/svg" version="1.1">
 <metadata>
  <rdf:RDF xmlns:dc="http://purl.org/dc/elements/1.1/" xmlns:cc="http://creativecommons.org/ns#" xmlns:rdf="http://www.w3.org/1999/02/22-rdf-syntax-ns#">
   <cc:Work>
    <dc:type rdf:resource="http://purl.org/dc/dcmitype/StillImage"/>
    <dc:date>2025-03-26T16:02:13.959122</dc:date>
    <dc:format>image/svg+xml</dc:format>
    <dc:creator>
     <cc:Agent>
      <dc:title>Matplotlib v3.10.0, https://matplotlib.org/</dc:title>
     </cc:Agent>
    </dc:creator>
   </cc:Work>
  </rdf:RDF>
 </metadata>
 <defs>
  <style type="text/css">*{stroke-linejoin: round; stroke-linecap: butt}</style>
 </defs>
 <g id="figure_1">
  <g id="patch_1">
   <path d="M 0 293.936406 
L 516.24 293.936406 
L 516.24 0 
L 0 0 
z
" style="fill: #ffffff"/>
  </g>
  <g id="axes_1">
   <g id="patch_2">
    <path d="M 58.64 247.936406 
L 505.04 247.936406 
L 505.04 26.176406 
L 58.64 26.176406 
z
" style="fill: #ffffff"/>
   </g>
   <g id="matplotlib.axis_1">
    <g id="xtick_1">
     <g id="line2d_1">
      <defs>
       <path id="m9c8d40246e" d="M 0 0 
L 0 3.5 
" style="stroke: #323034; stroke-width: 0.8"/>
      </defs>
      <g>
       <use xlink:href="#m9c8d40246e" x="58.64" y="247.936406" style="fill: #323034; stroke: #323034; stroke-width: 0.8"/>
      </g>
     </g>
     <g id="text_1">
      <!-- $\mathdefault{−3}$ -->
      <g style="fill: #323034" transform="translate(49.12 265.863906) scale(0.16 -0.16)">
       <defs>
        <path id="STIXGeneral-Regular-2212" d="M 3974 1408 
L 410 1408 
L 410 1830 
L 3974 1830 
L 3974 1408 
z
" transform="scale(0.015625)"/>
        <path id="STIXGeneral-Regular-33" d="M 390 3264 
L 288 3290 
Q 435 3770 748 4048 
Q 1062 4326 1542 4326 
Q 1990 4326 2265 4083 
Q 2541 3840 2541 3450 
Q 2541 2925 1946 2566 
Q 2298 2413 2477 2227 
Q 2758 1914 2758 1402 
Q 2758 890 2464 506 
Q 2246 211 1840 60 
Q 1434 -90 979 -90 
Q 262 -90 262 275 
Q 262 378 339 442 
Q 416 506 525 506 
Q 685 506 915 339 
Q 1197 141 1466 141 
Q 1818 141 2058 425 
Q 2298 710 2298 1120 
Q 2298 1856 1632 2048 
Q 1434 2112 979 2112 
L 979 2202 
Q 1338 2323 1517 2432 
Q 2035 2726 2035 3290 
Q 2035 3610 1852 3776 
Q 1670 3942 1344 3942 
Q 768 3942 390 3264 
z
" transform="scale(0.015625)"/>
       </defs>
       <use xlink:href="#STIXGeneral-Regular-2212" transform="translate(0 0.40625)"/>
       <use xlink:href="#STIXGeneral-Regular-33" transform="translate(68.499985 0.40625)"/>
      </g>
     </g>
    </g>
    <g id="xtick_2">
     <g id="line2d_2">
      <g>
       <use xlink:href="#m9c8d40246e" x="133.04" y="247.936406" style="fill: #323034; stroke: #323034; stroke-width: 0.8"/>
      </g>
     </g>
     <g id="text_2">
      <!-- $\mathdefault{−2}$ -->
      <g style="fill: #323034" transform="translate(123.52 265.863906) scale(0.16 -0.16)">
       <defs>
        <path id="STIXGeneral-Regular-32" d="M 3034 877 
L 2688 0 
L 186 0 
L 186 77 
L 1325 1286 
Q 1773 1754 1965 2144 
Q 2157 2534 2157 2950 
Q 2157 3379 1920 3616 
Q 1683 3853 1267 3853 
Q 922 3853 720 3673 
Q 518 3494 326 3021 
L 192 3053 
Q 301 3648 630 3987 
Q 960 4326 1523 4326 
Q 2054 4326 2380 4006 
Q 2707 3686 2707 3200 
Q 2707 2477 1888 1613 
L 832 486 
L 2330 486 
Q 2541 486 2665 569 
Q 2790 653 2944 915 
L 3034 877 
z
" transform="scale(0.015625)"/>
       </defs>
       <use xlink:href="#STIXGeneral-Regular-2212" transform="translate(0 0.40625)"/>
       <use xlink:href="#STIXGeneral-Regular-32" transform="translate(68.499985 0.40625)"/>
      </g>
     </g>
    </g>
    <g id="xtick_3">
     <g id="line2d_3">
      <g>
       <use xlink:href="#m9c8d40246e" x="207.44" y="247.936406" style="fill: #323034; stroke: #323034; stroke-width: 0.8"/>
      </g>
     </g>
     <g id="text_3">
      <!-- $\mathdefault{−1}$ -->
      <g style="fill: #323034" transform="translate(197.92 265.863906) scale(0.16 -0.16)">
       <defs>
        <path id="STIXGeneral-Regular-31" d="M 2522 0 
L 755 0 
L 755 96 
Q 1107 115 1235 227 
Q 1363 339 1363 608 
L 1363 3482 
Q 1363 3795 1171 3795 
Q 1082 3795 883 3718 
L 710 3654 
L 710 3744 
L 1856 4326 
L 1914 4307 
L 1914 486 
Q 1914 275 2042 185 
Q 2170 96 2522 96 
L 2522 0 
z
" transform="scale(0.015625)"/>
       </defs>
       <use xlink:href="#STIXGeneral-Regular-2212" transform="translate(0 0.40625)"/>
       <use xlink:href="#STIXGeneral-Regular-31" transform="translate(68.499985 0.40625)"/>
      </g>
     </g>
    </g>
    <g id="xtick_4">
     <g id="line2d_4">
      <g>
       <use xlink:href="#m9c8d40246e" x="281.84" y="247.936406" style="fill: #323034; stroke: #323034; stroke-width: 0.8"/>
      </g>
     </g>
     <g id="text_4">
      <!-- $\mathdefault{0}$ -->
      <g style="fill: #323034" transform="translate(277.84 265.863906) scale(0.16 -0.16)">
       <defs>
        <path id="STIXGeneral-Regular-30" d="M 3046 2112 
Q 3046 1683 2963 1302 
Q 2880 922 2717 602 
Q 2554 282 2266 96 
Q 1978 -90 1600 -90 
Q 1210 -90 915 108 
Q 621 307 461 640 
Q 301 973 227 1350 
Q 154 1728 154 2150 
Q 154 2746 301 3222 
Q 448 3699 790 4012 
Q 1133 4326 1626 4326 
Q 2253 4326 2649 3712 
Q 3046 3098 3046 2112 
z
M 2432 2080 
Q 2432 3091 2217 3625 
Q 2003 4160 1587 4160 
Q 1190 4160 979 3622 
Q 768 3085 768 2106 
Q 768 1120 979 598 
Q 1190 77 1600 77 
Q 2003 77 2217 598 
Q 2432 1120 2432 2080 
z
" transform="scale(0.015625)"/>
       </defs>
       <use xlink:href="#STIXGeneral-Regular-30" transform="translate(0 0.40625)"/>
      </g>
     </g>
    </g>
    <g id="xtick_5">
     <g id="line2d_5">
      <g>
       <use xlink:href="#m9c8d40246e" x="356.24" y="247.936406" style="fill: #323034; stroke: #323034; stroke-width: 0.8"/>
      </g>
     </g>
     <g id="text_5">
      <!-- $\mathdefault{1}$ -->
      <g style="fill: #323034" transform="translate(352.24 265.863906) scale(0.16 -0.16)">
       <use xlink:href="#STIXGeneral-Regular-31" transform="translate(0 0.40625)"/>
      </g>
     </g>
    </g>
    <g id="xtick_6">
     <g id="line2d_6">
      <g>
       <use xlink:href="#m9c8d40246e" x="430.64" y="247.936406" style="fill: #323034; stroke: #323034; stroke-width: 0.8"/>
      </g>
     </g>
     <g id="text_6">
      <!-- $\mathdefault{2}$ -->
      <g style="fill: #323034" transform="translate(426.64 265.863906) scale(0.16 -0.16)">
       <use xlink:href="#STIXGeneral-Regular-32" transform="translate(0 0.40625)"/>
      </g>
     </g>
    </g>
    <g id="xtick_7">
     <g id="line2d_7">
      <g>
       <use xlink:href="#m9c8d40246e" x="505.04" y="247.936406" style="fill: #323034; stroke: #323034; stroke-width: 0.8"/>
      </g>
     </g>
     <g id="text_7">
      <!-- $\mathdefault{3}$ -->
      <g style="fill: #323034" transform="translate(501.04 265.863906) scale(0.16 -0.16)">
       <use xlink:href="#STIXGeneral-Regular-33" transform="translate(0 0.40625)"/>
      </g>
     </g>
    </g>
    <g id="text_8">
     <!-- Theoretical quantiles -->
     <g transform="translate(214.51875 283.263906) scale(0.16 -0.16)">
      <defs>
       <path id="STIXGeneral-Regular-54" d="M 3795 3149 
L 3642 3149 
Q 3539 3674 3353 3821 
Q 3168 3968 2656 3968 
L 2278 3968 
L 2278 710 
Q 2278 346 2387 243 
Q 2496 141 2893 122 
L 2893 0 
L 1024 0 
L 1024 122 
Q 1427 147 1526 256 
Q 1626 365 1626 787 
L 1626 3968 
L 1242 3968 
Q 723 3968 540 3817 
Q 358 3667 262 3149 
L 109 3149 
L 154 4237 
L 3750 4237 
L 3795 3149 
z
" transform="scale(0.015625)"/>
       <path id="STIXGeneral-Regular-68" d="M 3117 0 
L 1760 0 
L 1760 96 
Q 2042 128 2118 224 
Q 2195 320 2195 653 
L 2195 1920 
Q 2195 2598 1722 2598 
Q 1530 2598 1370 2508 
Q 1210 2419 1005 2195 
L 1005 653 
Q 1005 320 1081 224 
Q 1158 128 1440 96 
L 1440 0 
L 58 0 
L 58 96 
Q 333 134 400 224 
Q 467 314 467 653 
L 467 3667 
Q 467 3872 406 3933 
Q 346 3994 141 3994 
Q 83 3994 64 3987 
L 64 4090 
L 237 4141 
Q 730 4288 973 4371 
L 1005 4352 
L 1005 2406 
Q 1229 2694 1446 2819 
Q 1664 2944 1946 2944 
Q 2733 2944 2733 1926 
L 2733 653 
Q 2733 320 2793 233 
Q 2854 147 3117 96 
L 3117 0 
z
" transform="scale(0.015625)"/>
       <path id="STIXGeneral-Regular-65" d="M 2611 1050 
L 2714 1005 
Q 2330 -64 1376 -64 
Q 813 -64 486 329 
Q 160 723 160 1389 
Q 160 2074 525 2509 
Q 890 2944 1485 2944 
Q 2061 2944 2374 2502 
Q 2560 2246 2592 1773 
L 621 1773 
Q 646 1370 700 1158 
Q 755 947 915 730 
Q 1184 378 1626 378 
Q 1939 378 2153 531 
Q 2368 685 2611 1050 
z
M 634 1978 
L 1939 1978 
Q 1882 2381 1750 2547 
Q 1619 2714 1312 2714 
Q 1043 2714 864 2525 
Q 685 2336 634 1978 
z
" transform="scale(0.015625)"/>
       <path id="STIXGeneral-Regular-6f" d="M 3008 1478 
Q 3008 806 2608 371 
Q 2208 -64 1568 -64 
Q 979 -64 582 368 
Q 186 800 186 1459 
Q 186 2125 582 2534 
Q 979 2944 1626 2944 
Q 2221 2944 2614 2537 
Q 3008 2131 3008 1478 
z
M 2432 1306 
Q 2432 2035 2112 2445 
Q 1856 2765 1504 2765 
Q 1171 2765 966 2493 
Q 762 2221 762 1747 
Q 762 928 1101 435 
Q 1318 115 1677 115 
Q 2029 115 2230 432 
Q 2432 749 2432 1306 
z
" transform="scale(0.015625)"/>
       <path id="STIXGeneral-Regular-72" d="M 1024 2931 
L 1024 2342 
Q 1267 2688 1430 2816 
Q 1594 2944 1792 2944 
Q 1958 2944 2051 2854 
Q 2144 2765 2144 2605 
Q 2144 2470 2077 2393 
Q 2010 2317 1894 2317 
Q 1773 2317 1638 2445 
Q 1536 2541 1472 2541 
Q 1338 2541 1181 2355 
Q 1024 2170 1024 2016 
L 1024 576 
Q 1024 301 1133 205 
Q 1242 109 1568 96 
L 1568 0 
L 32 0 
L 32 96 
Q 339 154 412 224 
Q 486 294 486 538 
L 486 2138 
Q 486 2349 438 2435 
Q 390 2522 269 2522 
Q 166 2522 45 2496 
L 45 2598 
Q 448 2726 992 2944 
L 1024 2931 
z
" transform="scale(0.015625)"/>
       <path id="STIXGeneral-Regular-74" d="M 1702 493 
L 1786 422 
Q 1478 -64 1011 -64 
Q 448 -64 448 749 
L 448 2675 
L 109 2675 
Q 83 2694 83 2720 
Q 83 2771 192 2842 
Q 435 2982 813 3526 
Q 826 3546 874 3606 
Q 922 3667 941 3706 
Q 986 3706 986 3622 
L 986 2880 
L 1632 2880 
L 1632 2675 
L 986 2675 
L 986 845 
Q 986 538 1062 403 
Q 1139 269 1318 269 
Q 1510 269 1702 493 
z
" transform="scale(0.015625)"/>
       <path id="STIXGeneral-Regular-69" d="M 1152 4045 
Q 1152 3904 1056 3811 
Q 960 3718 819 3718 
Q 685 3718 592 3811 
Q 499 3904 499 4045 
Q 499 4179 595 4275 
Q 691 4371 826 4371 
Q 966 4371 1059 4275 
Q 1152 4179 1152 4045 
z
M 1619 0 
L 102 0 
L 102 96 
Q 435 115 521 211 
Q 608 307 608 666 
L 608 2118 
Q 608 2342 563 2432 
Q 518 2522 397 2522 
Q 243 2522 128 2490 
L 128 2592 
L 1120 2944 
L 1146 2918 
L 1146 672 
Q 1146 314 1226 218 
Q 1306 122 1619 96 
L 1619 0 
z
" transform="scale(0.015625)"/>
       <path id="STIXGeneral-Regular-63" d="M 2547 998 
L 2637 941 
Q 2362 403 2112 205 
Q 1786 -64 1376 -64 
Q 845 -64 502 336 
Q 160 736 160 1357 
Q 160 2170 698 2618 
Q 1094 2944 1562 2944 
Q 1965 2944 2256 2749 
Q 2547 2554 2547 2285 
Q 2547 2176 2457 2096 
Q 2368 2016 2246 2016 
Q 2022 2016 1939 2310 
L 1901 2451 
Q 1850 2630 1773 2694 
Q 1696 2758 1523 2758 
Q 1133 2758 893 2451 
Q 653 2144 653 1645 
Q 653 1094 928 745 
Q 1203 397 1645 397 
Q 1920 397 2118 528 
Q 2317 659 2547 998 
z
" transform="scale(0.015625)"/>
       <path id="STIXGeneral-Regular-61" d="M 2829 422 
L 2829 243 
Q 2586 -64 2253 -64 
Q 1888 -64 1843 403 
L 1837 403 
Q 1427 -64 909 -64 
Q 608 -64 422 112 
Q 237 288 237 602 
Q 237 1050 685 1350 
Q 992 1555 1837 1869 
L 1837 2214 
Q 1837 2502 1699 2646 
Q 1562 2790 1338 2790 
Q 1146 2790 1018 2697 
Q 890 2605 890 2477 
Q 890 2419 909 2348 
Q 928 2278 928 2208 
Q 928 2112 841 2029 
Q 755 1946 634 1946 
Q 525 1946 441 2029 
Q 358 2112 358 2240 
Q 358 2547 685 2752 
Q 986 2944 1421 2944 
Q 1939 2944 2176 2656 
Q 2291 2522 2323 2384 
Q 2355 2246 2355 1946 
L 2355 723 
Q 2355 301 2554 301 
Q 2682 301 2829 422 
z
M 1837 813 
L 1837 1715 
Q 1248 1510 1018 1293 
Q 800 1094 800 800 
Q 800 557 921 432 
Q 1043 307 1242 307 
Q 1453 307 1613 410 
Q 1747 506 1792 589 
Q 1837 672 1837 813 
z
" transform="scale(0.015625)"/>
       <path id="STIXGeneral-Regular-6c" d="M 1645 0 
L 134 0 
L 134 96 
Q 435 122 531 221 
Q 627 320 627 589 
L 627 3590 
Q 627 3821 569 3910 
Q 512 4000 358 4000 
Q 224 4000 122 3987 
L 122 4090 
Q 730 4237 1133 4371 
L 1165 4346 
L 1165 557 
Q 1165 288 1254 201 
Q 1344 115 1645 96 
L 1645 0 
z
" transform="scale(0.015625)"/>
       <path id="STIXGeneral-Regular-20" transform="scale(0.015625)"/>
       <path id="STIXGeneral-Regular-71" d="M 3123 -1389 
L 1613 -1389 
L 1613 -1280 
Q 1952 -1254 2067 -1158 
Q 2182 -1062 2182 -794 
L 2182 410 
Q 1747 -64 1178 -64 
Q 730 -64 442 320 
Q 154 704 154 1312 
Q 154 2003 560 2473 
Q 966 2944 1562 2944 
Q 1920 2944 2304 2720 
L 2650 2925 
L 2720 2925 
L 2720 -902 
Q 2720 -1107 2797 -1180 
Q 2874 -1254 3123 -1280 
L 3123 -1389 
z
M 2182 813 
L 2182 2131 
Q 2182 2758 1587 2758 
Q 1178 2758 941 2432 
Q 704 2106 704 1542 
Q 704 1210 803 925 
Q 902 640 1062 499 
Q 1254 326 1542 326 
Q 1882 326 2106 531 
Q 2182 602 2182 813 
z
" transform="scale(0.015625)"/>
       <path id="STIXGeneral-Regular-75" d="M 3072 320 
L 3072 230 
Q 2573 96 2195 -58 
L 2163 -38 
L 2163 486 
L 2150 486 
Q 1747 -64 1235 -64 
Q 870 -64 662 160 
Q 454 384 454 755 
L 454 2362 
Q 454 2598 371 2688 
Q 288 2778 58 2790 
L 58 2880 
L 992 2880 
L 992 813 
Q 992 595 1123 451 
Q 1254 307 1446 307 
Q 1760 307 1984 506 
Q 2067 582 2099 649 
Q 2131 717 2131 877 
L 2131 2355 
Q 2131 2605 2041 2678 
Q 1952 2752 1658 2771 
L 1658 2880 
L 2669 2880 
L 2669 685 
Q 2669 461 2742 390 
Q 2816 320 3034 320 
L 3072 320 
z
" transform="scale(0.015625)"/>
       <path id="STIXGeneral-Regular-6e" d="M 3104 0 
L 1773 0 
L 1779 96 
Q 2016 115 2096 233 
Q 2176 352 2176 672 
L 2176 1946 
Q 2176 2592 1709 2592 
Q 1549 2592 1408 2515 
Q 1267 2438 1050 2227 
L 1050 461 
Q 1050 269 1136 192 
Q 1222 115 1466 96 
L 1466 0 
L 115 0 
L 115 96 
Q 358 115 435 214 
Q 512 314 512 602 
L 512 2157 
Q 512 2394 467 2483 
Q 422 2573 288 2573 
Q 160 2573 102 2547 
L 102 2656 
Q 550 2784 979 2944 
L 1030 2925 
L 1030 2426 
L 1037 2426 
Q 1491 2944 1958 2944 
Q 2323 2944 2518 2688 
Q 2714 2432 2714 1958 
L 2714 544 
Q 2714 288 2790 205 
Q 2867 122 3104 96 
L 3104 0 
z
" transform="scale(0.015625)"/>
       <path id="STIXGeneral-Regular-73" d="M 998 1926 
L 1664 1523 
Q 1984 1331 2105 1164 
Q 2227 998 2227 736 
Q 2227 416 1961 176 
Q 1696 -64 1331 -64 
Q 1030 -64 864 -6 
Q 691 51 570 51 
Q 461 51 416 -26 
L 333 -26 
L 333 979 
L 435 979 
Q 538 512 730 294 
Q 922 77 1248 77 
Q 1485 77 1632 211 
Q 1779 346 1779 550 
Q 1779 845 1440 1030 
L 1094 1222 
Q 326 1651 326 2150 
Q 326 2522 566 2730 
Q 806 2938 1210 2938 
Q 1491 2938 1638 2867 
Q 1754 2816 1818 2816 
Q 1862 2816 1920 2880 
L 1990 2880 
L 2022 2010 
L 1926 2010 
Q 1818 2445 1654 2621 
Q 1491 2797 1203 2797 
Q 986 2797 854 2688 
Q 723 2579 723 2362 
Q 723 2253 796 2128 
Q 870 2003 998 1926 
z
" transform="scale(0.015625)"/>
      </defs>
      <use xlink:href="#STIXGeneral-Regular-54"/>
      <use xlink:href="#STIXGeneral-Regular-68" transform="translate(61.099991 0)"/>
      <use xlink:href="#STIXGeneral-Regular-65" transform="translate(111.099976 0)"/>
      <use xlink:href="#STIXGeneral-Regular-6f" transform="translate(155.499969 0)"/>
      <use xlink:href="#STIXGeneral-Regular-72" transform="translate(205.499954 0)"/>
      <use xlink:href="#STIXGeneral-Regular-65" transform="translate(238.799942 0)"/>
      <use xlink:href="#STIXGeneral-Regular-74" transform="translate(283.199936 0)"/>
      <use xlink:href="#STIXGeneral-Regular-69" transform="translate(310.999924 0)"/>
      <use xlink:href="#STIXGeneral-Regular-63" transform="translate(338.799911 0)"/>
      <use xlink:href="#STIXGeneral-Regular-61" transform="translate(383.199905 0)"/>
      <use xlink:href="#STIXGeneral-Regular-6c" transform="translate(427.599899 0)"/>
      <use xlink:href="#STIXGeneral-Regular-20" transform="translate(455.399887 0)"/>
      <use xlink:href="#STIXGeneral-Regular-71" transform="translate(480.399872 0)"/>
      <use xlink:href="#STIXGeneral-Regular-75" transform="translate(530.399857 0)"/>
      <use xlink:href="#STIXGeneral-Regular-61" transform="translate(580.399841 0)"/>
      <use xlink:href="#STIXGeneral-Regular-6e" transform="translate(624.799835 0)"/>
      <use xlink:href="#STIXGeneral-Regular-74" transform="translate(674.79982 0)"/>
      <use xlink:href="#STIXGeneral-Regular-69" transform="translate(702.599808 0)"/>
      <use xlink:href="#STIXGeneral-Regular-6c" transform="translate(730.399796 0)"/>
      <use xlink:href="#STIXGeneral-Regular-65" transform="translate(758.199783 0)"/>
      <use xlink:href="#STIXGeneral-Regular-73" transform="translate(802.599777 0)"/>
     </g>
    </g>
   </g>
   <g id="matplotlib.axis_2">
    <g id="ytick_1">
     <g id="line2d_8">
      <defs>
       <path id="m114b357c01" d="M 0 0 
L -3.5 0 
" style="stroke: #323034; stroke-width: 0.8"/>
      </defs>
      <g>
       <use xlink:href="#m114b357c01" x="58.64" y="247.936406" style="fill: #323034; stroke: #323034; stroke-width: 0.8"/>
      </g>
     </g>
     <g id="text_9">
      <!-- $\mathdefault{−10}$ -->
      <g style="fill: #323034" transform="translate(24.6 253.400156) scale(0.16 -0.16)">
       <use xlink:href="#STIXGeneral-Regular-2212" transform="translate(0 0.40625)"/>
       <use xlink:href="#STIXGeneral-Regular-31" transform="translate(68.499985 0.40625)"/>
       <use xlink:href="#STIXGeneral-Regular-30" transform="translate(118.499969 0.40625)"/>
      </g>
     </g>
    </g>
    <g id="ytick_2">
     <g id="line2d_9">
      <g>
       <use xlink:href="#m114b357c01" x="58.64" y="192.496406" style="fill: #323034; stroke: #323034; stroke-width: 0.8"/>
      </g>
     </g>
     <g id="text_10">
      <!-- $\mathdefault{0}$ -->
      <g style="fill: #323034" transform="translate(43.64 197.960156) scale(0.16 -0.16)">
       <use xlink:href="#STIXGeneral-Regular-30" transform="translate(0 0.40625)"/>
      </g>
     </g>
    </g>
    <g id="ytick_3">
     <g id="line2d_10">
      <g>
       <use xlink:href="#m114b357c01" x="58.64" y="137.056406" style="fill: #323034; stroke: #323034; stroke-width: 0.8"/>
      </g>
     </g>
     <g id="text_11">
      <!-- $\mathdefault{10}$ -->
      <g style="fill: #323034" transform="translate(35.64 142.520156) scale(0.16 -0.16)">
       <use xlink:href="#STIXGeneral-Regular-31" transform="translate(0 0.40625)"/>
       <use xlink:href="#STIXGeneral-Regular-30" transform="translate(49.999985 0.40625)"/>
      </g>
     </g>
    </g>
    <g id="ytick_4">
     <g id="line2d_11">
      <g>
       <use xlink:href="#m114b357c01" x="58.64" y="81.616406" style="fill: #323034; stroke: #323034; stroke-width: 0.8"/>
      </g>
     </g>
     <g id="text_12">
      <!-- $\mathdefault{20}$ -->
      <g style="fill: #323034" transform="translate(35.64 87.080156) scale(0.16 -0.16)">
       <use xlink:href="#STIXGeneral-Regular-32" transform="translate(0 0.40625)"/>
       <use xlink:href="#STIXGeneral-Regular-30" transform="translate(49.999985 0.40625)"/>
      </g>
     </g>
    </g>
    <g id="ytick_5">
     <g id="line2d_12">
      <g>
       <use xlink:href="#m114b357c01" x="58.64" y="26.176406" style="fill: #323034; stroke: #323034; stroke-width: 0.8"/>
      </g>
     </g>
     <g id="text_13">
      <!-- $\mathdefault{30}$ -->
      <g style="fill: #323034" transform="translate(35.64 31.640156) scale(0.16 -0.16)">
       <use xlink:href="#STIXGeneral-Regular-33" transform="translate(0 0.40625)"/>
       <use xlink:href="#STIXGeneral-Regular-30" transform="translate(49.999985 0.40625)"/>
      </g>
     </g>
    </g>
    <g id="text_14">
     <!-- Ordered Values -->
     <g transform="translate(18.1275 187.482656) rotate(-90) scale(0.16 -0.16)">
      <defs>
       <path id="STIXGeneral-Regular-4f" d="M 4403 2118 
Q 4403 1133 3820 521 
Q 3238 -90 2310 -90 
Q 1376 -90 797 524 
Q 218 1139 218 2138 
Q 218 3110 797 3718 
Q 1376 4326 2310 4326 
Q 3245 4326 3824 3702 
Q 4403 3078 4403 2118 
z
M 3674 2157 
Q 3674 2701 3520 3133 
Q 3366 3565 3091 3795 
Q 2733 4096 2304 4096 
Q 1760 4096 1389 3667 
Q 1184 3437 1065 3011 
Q 947 2586 947 2125 
Q 947 960 1523 429 
Q 1837 141 2317 141 
Q 2816 141 3142 448 
Q 3674 960 3674 2157 
z
" transform="scale(0.015625)"/>
       <path id="STIXGeneral-Regular-64" d="M 3142 269 
L 2202 -64 
L 2176 -45 
L 2176 365 
Q 1869 -64 1357 -64 
Q 826 -64 499 317 
Q 173 698 173 1312 
Q 173 1990 563 2467 
Q 954 2944 1504 2944 
Q 1850 2944 2176 2669 
L 2176 3667 
Q 2176 3866 2118 3930 
Q 2061 3994 1882 3994 
Q 1792 3994 1741 3987 
L 1741 4090 
Q 2323 4243 2682 4371 
L 2714 4358 
L 2714 730 
Q 2714 506 2768 435 
Q 2822 365 2995 365 
Q 3034 365 3142 371 
L 3142 269 
z
M 2176 653 
L 2176 2125 
Q 2176 2381 1981 2573 
Q 1786 2765 1523 2765 
Q 1158 2765 940 2438 
Q 723 2112 723 1568 
Q 723 979 963 624 
Q 1203 269 1606 269 
Q 1907 269 2080 474 
Q 2176 582 2176 653 
z
" transform="scale(0.015625)"/>
       <path id="STIXGeneral-Regular-56" d="M 4461 4237 
L 4461 4115 
Q 4262 4109 4134 3990 
Q 4006 3872 3872 3533 
L 2451 -70 
L 2355 -70 
L 794 3411 
Q 589 3866 467 3987 
Q 346 4109 102 4115 
L 102 4237 
L 1798 4237 
L 1798 4115 
L 1619 4102 
Q 1331 4083 1331 3904 
Q 1331 3776 1581 3219 
L 2554 1030 
L 3494 3392 
Q 3616 3699 3616 3853 
Q 3616 3898 3606 3933 
Q 3597 3968 3584 3993 
Q 3571 4019 3536 4038 
Q 3501 4058 3481 4067 
Q 3462 4077 3411 4086 
Q 3360 4096 3337 4099 
Q 3315 4102 3248 4108 
Q 3181 4115 3155 4115 
L 3155 4237 
L 4461 4237 
z
" transform="scale(0.015625)"/>
      </defs>
      <use xlink:href="#STIXGeneral-Regular-4f"/>
      <use xlink:href="#STIXGeneral-Regular-72" transform="translate(72.199982 0)"/>
      <use xlink:href="#STIXGeneral-Regular-64" transform="translate(105.499969 0)"/>
      <use xlink:href="#STIXGeneral-Regular-65" transform="translate(155.499954 0)"/>
      <use xlink:href="#STIXGeneral-Regular-72" transform="translate(199.899948 0)"/>
      <use xlink:href="#STIXGeneral-Regular-65" transform="translate(233.199936 0)"/>
      <use xlink:href="#STIXGeneral-Regular-64" transform="translate(277.59993 0)"/>
      <use xlink:href="#STIXGeneral-Regular-20" transform="translate(327.599915 0)"/>
      <use xlink:href="#STIXGeneral-Regular-56" transform="translate(352.599899 0)"/>
      <use xlink:href="#STIXGeneral-Regular-61" transform="translate(424.799881 0)"/>
      <use xlink:href="#STIXGeneral-Regular-6c" transform="translate(469.199875 0)"/>
      <use xlink:href="#STIXGeneral-Regular-75" transform="translate(496.999863 0)"/>
      <use xlink:href="#STIXGeneral-Regular-65" transform="translate(546.999847 0)"/>
      <use xlink:href="#STIXGeneral-Regular-73" transform="translate(591.399841 0)"/>
     </g>
    </g>
   </g>
   <g id="line2d_13">
    <defs>
     <path id="me4957a0c8e" d="M 0 4.5 
C 1.193414 4.5 2.338109 4.025852 3.181981 3.181981 
C 4.025852 2.338109 4.5 1.193414 4.5 0 
C 4.5 -1.193414 4.025852 -2.338109 3.181981 -3.181981 
C 2.338109 -4.025852 1.193414 -4.5 0 -4.5 
C -1.193414 -4.5 -2.338109 -4.025852 -3.181981 -3.181981 
C -4.025852 -2.338109 -4.5 -1.193414 -4.5 0 
C -4.5 1.193414 -4.025852 2.338109 -3.181981 3.181981 
C -2.338109 4.025852 -1.193414 4.5 0 4.5 
z
" style="stroke: #000000"/>
    </defs>
    <g clip-path="url(#p89f4221dbd)">
     <use xlink:href="#me4957a0c8e" x="117.301309" y="187.506806" style="fill: #0000ff; stroke: #000000"/>
     <use xlink:href="#me4957a0c8e" x="144.813703" y="185.289206" style="fill: #0000ff; stroke: #000000"/>
     <use xlink:href="#me4957a0c8e" x="161.039752" y="185.289206" style="fill: #0000ff; stroke: #000000"/>
     <use xlink:href="#me4957a0c8e" x="172.970552" y="184.734806" style="fill: #0000ff; stroke: #000000"/>
     <use xlink:href="#me4957a0c8e" x="182.617349" y="184.180406" style="fill: #0000ff; stroke: #000000"/>
     <use xlink:href="#me4957a0c8e" x="190.834993" y="184.180406" style="fill: #0000ff; stroke: #000000"/>
     <use xlink:href="#me4957a0c8e" x="198.071068" y="182.517206" style="fill: #0000ff; stroke: #000000"/>
     <use xlink:href="#me4957a0c8e" x="204.590998" y="181.408406" style="fill: #0000ff; stroke: #000000"/>
     <use xlink:href="#me4957a0c8e" x="210.565967" y="181.408406" style="fill: #0000ff; stroke: #000000"/>
     <use xlink:href="#me4957a0c8e" x="216.113318" y="181.408406" style="fill: #0000ff; stroke: #000000"/>
     <use xlink:href="#me4957a0c8e" x="221.317322" y="179.745206" style="fill: #0000ff; stroke: #000000"/>
     <use xlink:href="#me4957a0c8e" x="226.240786" y="178.636406" style="fill: #0000ff; stroke: #000000"/>
     <use xlink:href="#me4957a0c8e" x="230.931969" y="178.082006" style="fill: #0000ff; stroke: #000000"/>
     <use xlink:href="#me4957a0c8e" x="235.428921" y="177.527606" style="fill: #0000ff; stroke: #000000"/>
     <use xlink:href="#me4957a0c8e" x="239.762321" y="176.973206" style="fill: #0000ff; stroke: #000000"/>
     <use xlink:href="#me4957a0c8e" x="243.957406" y="175.864406" style="fill: #0000ff; stroke: #000000"/>
     <use xlink:href="#me4957a0c8e" x="248.035315" y="175.864406" style="fill: #0000ff; stroke: #000000"/>
     <use xlink:href="#me4957a0c8e" x="252.01406" y="174.755606" style="fill: #0000ff; stroke: #000000"/>
     <use xlink:href="#me4957a0c8e" x="255.909237" y="174.755606" style="fill: #0000ff; stroke: #000000"/>
     <use xlink:href="#me4957a0c8e" x="259.734563" y="174.755606" style="fill: #0000ff; stroke: #000000"/>
     <use xlink:href="#me4957a0c8e" x="263.502293" y="172.538006" style="fill: #0000ff; stroke: #000000"/>
     <use xlink:href="#me4957a0c8e" x="267.223546" y="171.983606" style="fill: #0000ff; stroke: #000000"/>
     <use xlink:href="#me4957a0c8e" x="270.908565" y="170.320406" style="fill: #0000ff; stroke: #000000"/>
     <use xlink:href="#me4957a0c8e" x="274.566946" y="168.657206" style="fill: #0000ff; stroke: #000000"/>
     <use xlink:href="#me4957a0c8e" x="278.207814" y="166.994006" style="fill: #0000ff; stroke: #000000"/>
     <use xlink:href="#me4957a0c8e" x="281.84" y="166.439606" style="fill: #0000ff; stroke: #000000"/>
     <use xlink:href="#me4957a0c8e" x="285.472186" y="166.439606" style="fill: #0000ff; stroke: #000000"/>
     <use xlink:href="#me4957a0c8e" x="289.113054" y="165.330806" style="fill: #0000ff; stroke: #000000"/>
     <use xlink:href="#me4957a0c8e" x="292.771435" y="164.776406" style="fill: #0000ff; stroke: #000000"/>
     <use xlink:href="#me4957a0c8e" x="296.456454" y="163.113206" style="fill: #0000ff; stroke: #000000"/>
     <use xlink:href="#me4957a0c8e" x="300.177707" y="162.558806" style="fill: #0000ff; stroke: #000000"/>
     <use xlink:href="#me4957a0c8e" x="303.945437" y="162.558806" style="fill: #0000ff; stroke: #000000"/>
     <use xlink:href="#me4957a0c8e" x="307.770763" y="162.558806" style="fill: #0000ff; stroke: #000000"/>
     <use xlink:href="#me4957a0c8e" x="311.66594" y="162.558806" style="fill: #0000ff; stroke: #000000"/>
     <use xlink:href="#me4957a0c8e" x="315.644685" y="162.004406" style="fill: #0000ff; stroke: #000000"/>
     <use xlink:href="#me4957a0c8e" x="319.722594" y="162.004406" style="fill: #0000ff; stroke: #000000"/>
     <use xlink:href="#me4957a0c8e" x="323.917679" y="159.786806" style="fill: #0000ff; stroke: #000000"/>
     <use xlink:href="#me4957a0c8e" x="328.251079" y="159.232406" style="fill: #0000ff; stroke: #000000"/>
     <use xlink:href="#me4957a0c8e" x="332.748031" y="157.569206" style="fill: #0000ff; stroke: #000000"/>
     <use xlink:href="#me4957a0c8e" x="337.439214" y="157.569206" style="fill: #0000ff; stroke: #000000"/>
     <use xlink:href="#me4957a0c8e" x="342.362678" y="156.460406" style="fill: #0000ff; stroke: #000000"/>
     <use xlink:href="#me4957a0c8e" x="347.566682" y="155.906006" style="fill: #0000ff; stroke: #000000"/>
     <use xlink:href="#me4957a0c8e" x="353.114033" y="155.351606" style="fill: #0000ff; stroke: #000000"/>
     <use xlink:href="#me4957a0c8e" x="359.089002" y="154.242806" style="fill: #0000ff; stroke: #000000"/>
     <use xlink:href="#me4957a0c8e" x="365.608932" y="153.134006" style="fill: #0000ff; stroke: #000000"/>
     <use xlink:href="#me4957a0c8e" x="372.845007" y="151.470806" style="fill: #0000ff; stroke: #000000"/>
     <use xlink:href="#me4957a0c8e" x="381.062651" y="149.807606" style="fill: #0000ff; stroke: #000000"/>
     <use xlink:href="#me4957a0c8e" x="390.709448" y="145.926806" style="fill: #0000ff; stroke: #000000"/>
     <use xlink:href="#me4957a0c8e" x="402.640248" y="137.056406" style="fill: #0000ff; stroke: #000000"/>
     <use xlink:href="#me4957a0c8e" x="418.866297" y="124.305206" style="fill: #0000ff; stroke: #000000"/>
     <use xlink:href="#me4957a0c8e" x="446.378691" y="58.331606" style="fill: #0000ff; stroke: #000000"/>
    </g>
   </g>
   <g id="line2d_14">
    <path d="M 117.301309 203.938328 
L 144.813703 197.482792 
L 161.039752 193.675496 
L 172.970552 190.876041 
L 182.617349 188.612507 
L 190.834993 186.684311 
L 198.071068 184.986431 
L 204.590998 183.456589 
L 210.565967 182.054616 
L 216.113318 180.75298 
L 221.317322 179.531907 
L 226.240786 178.376661 
L 230.931969 177.275917 
L 235.428921 176.220748 
L 239.762321 175.203955 
L 243.957406 174.219616 
L 248.035315 173.262771 
L 252.01406 172.329194 
L 255.909237 171.415226 
L 259.734563 170.517648 
L 263.502293 169.633584 
L 267.223546 168.760426 
L 270.908565 167.895769 
L 274.566946 167.037363 
L 278.207814 166.183066 
L 281.84 165.330806 
L 285.472186 164.478547 
L 289.113054 163.62425 
L 292.771435 162.765844 
L 296.456454 161.901187 
L 300.177707 161.028029 
L 303.945437 160.143965 
L 307.770763 159.246386 
L 311.66594 158.332418 
L 315.644685 157.398841 
L 319.722594 156.441997 
L 323.917679 155.457658 
L 328.251079 154.440865 
L 332.748031 153.385695 
L 337.439214 152.284952 
L 342.362678 151.129705 
L 347.566682 149.908632 
L 353.114033 148.606997 
L 359.089002 147.205024 
L 365.608932 145.675181 
L 372.845007 143.977301 
L 381.062651 142.049105 
L 390.709448 139.785571 
L 402.640248 136.986117 
L 418.866297 133.17882 
L 446.378691 126.723285 
" clip-path="url(#p89f4221dbd)" style="fill: none; stroke: #ff0000; stroke-width: 3; stroke-linecap: square"/>
   </g>
   <g id="patch_3">
    <path d="M 58.64 247.936406 
L 58.64 26.176406 
" style="fill: none; stroke: #000000; stroke-width: 0.6; stroke-linejoin: miter; stroke-linecap: square"/>
   </g>
   <g id="patch_4">
    <path d="M 58.64 247.936406 
L 505.04 247.936406 
" style="fill: none; stroke: #000000; stroke-width: 0.6; stroke-linejoin: miter; stroke-linecap: square"/>
   </g>
   <g id="text_15">
    <!-- Probability Plot -->
    <g style="fill: #323034" transform="translate(58.64 20.176406) scale(0.19 -0.19)">
     <defs>
      <path id="STIXGeneral-Regular-50" d="M 102 4237 
L 1760 4237 
Q 2669 4237 3149 3834 
Q 3469 3565 3469 3072 
Q 3469 2560 3104 2234 
Q 2835 1990 2553 1916 
Q 2272 1843 1734 1843 
Q 1549 1843 1293 1862 
L 1293 717 
Q 1293 352 1398 246 
Q 1504 141 1894 122 
L 1894 0 
L 102 0 
L 102 122 
Q 474 147 557 256 
Q 640 365 640 781 
L 640 3526 
Q 640 3885 547 3987 
Q 454 4090 102 4115 
L 102 4237 
z
M 1293 3770 
L 1293 2118 
Q 1510 2099 1683 2099 
Q 2202 2099 2486 2352 
Q 2771 2605 2771 3040 
Q 2771 3558 2476 3779 
Q 2182 4000 1517 4000 
Q 1382 4000 1337 3952 
Q 1293 3904 1293 3770 
z
" transform="scale(0.015625)"/>
      <path id="STIXGeneral-Regular-62" d="M 979 4358 
L 979 2406 
Q 1082 2650 1315 2797 
Q 1549 2944 1843 2944 
Q 2349 2944 2672 2541 
Q 2995 2138 2995 1536 
Q 2995 832 2566 384 
Q 2138 -64 1498 -64 
Q 1107 -64 774 67 
Q 442 198 442 358 
L 442 3622 
Q 442 3859 384 3926 
Q 326 3994 128 3994 
Q 83 3994 19 3981 
L 19 4090 
L 211 4147 
Q 864 4346 947 4371 
L 979 4358 
z
M 979 2035 
L 979 474 
Q 979 326 1161 233 
Q 1344 141 1600 141 
Q 1978 141 2195 416 
Q 2432 710 2432 1261 
Q 2432 1888 2182 2240 
Q 1971 2541 1613 2541 
Q 1357 2541 1168 2390 
Q 979 2240 979 2035 
z
" transform="scale(0.015625)"/>
      <path id="STIXGeneral-Regular-79" d="M 3040 2880 
L 3040 2784 
Q 2925 2771 2854 2700 
Q 2784 2630 2720 2458 
L 1760 -160 
Q 1510 -838 1257 -1116 
Q 1005 -1395 640 -1395 
Q 435 -1395 313 -1289 
Q 192 -1184 192 -1024 
Q 192 -902 272 -816 
Q 352 -730 467 -730 
Q 653 -730 800 -813 
Q 883 -858 966 -858 
Q 1101 -858 1286 -576 
Q 1376 -448 1459 -211 
Q 1542 26 1542 115 
Q 1542 198 1274 762 
L 429 2566 
Q 346 2752 90 2790 
L 90 2880 
L 1402 2880 
L 1402 2784 
Q 1197 2778 1117 2739 
Q 1037 2701 1037 2611 
Q 1037 2541 1120 2349 
L 1837 749 
L 2458 2515 
Q 2483 2573 2483 2630 
Q 2483 2784 2189 2784 
L 2189 2880 
L 3040 2880 
z
" transform="scale(0.015625)"/>
     </defs>
     <use xlink:href="#STIXGeneral-Regular-50"/>
     <use xlink:href="#STIXGeneral-Regular-72" transform="translate(55.699997 0)"/>
     <use xlink:href="#STIXGeneral-Regular-6f" transform="translate(88.999985 0)"/>
     <use xlink:href="#STIXGeneral-Regular-62" transform="translate(138.999969 0)"/>
     <use xlink:href="#STIXGeneral-Regular-61" transform="translate(188.999954 0)"/>
     <use xlink:href="#STIXGeneral-Regular-62" transform="translate(233.399948 0)"/>
     <use xlink:href="#STIXGeneral-Regular-69" transform="translate(283.399933 0)"/>
     <use xlink:href="#STIXGeneral-Regular-6c" transform="translate(311.199921 0)"/>
     <use xlink:href="#STIXGeneral-Regular-69" transform="translate(338.999908 0)"/>
     <use xlink:href="#STIXGeneral-Regular-74" transform="translate(366.799896 0)"/>
     <use xlink:href="#STIXGeneral-Regular-79" transform="translate(394.599884 0)"/>
     <use xlink:href="#STIXGeneral-Regular-20" transform="translate(444.599869 0)"/>
     <use xlink:href="#STIXGeneral-Regular-50" transform="translate(469.599854 0)"/>
     <use xlink:href="#STIXGeneral-Regular-6c" transform="translate(525.29985 0)"/>
     <use xlink:href="#STIXGeneral-Regular-6f" transform="translate(553.099838 0)"/>
     <use xlink:href="#STIXGeneral-Regular-74" transform="translate(603.099823 0)"/>
    </g>
   </g>
  </g>
 </g>
 <defs>
  <clipPath id="p89f4221dbd">
   <rect x="58.64" y="26.176406" width="446.4" height="221.76"/>
  </clipPath>
 </defs>
</svg>