<?xml version="1.0" encoding="utf-8" standalone="no"?>
<!DOCTYPE svg PUBLIC "-//W3C//DTD SVG 1.1//EN"
  "http://www.w3.org/Graphics/SVG/1.1/DTD/svg11.dtd">
<svg xmlns:xlink="http://www.w3.org/1999/xlink" width="501.265pt" height="279.238266pt" viewBox="0 0 501.265 279.238266" xmlns="http://www.w3.org/2000/svg" version="1.1">
 <metadata>
  <rdf:RDF xmlns:dc="http://purl.org/dc/elements/1.1/" xmlns:cc="http://creativecommons.org/ns#" xmlns:rdf="http://www.w3.org/1999/02/22-rdf-syntax-ns#">
   <cc:Work>
    <dc:type rdf:resource="http://purl.org/dc/dcmitype/StillImage"/>
    <dc:date>2024-01-05T14:08:16.203948</dc:date>
    <dc:format>image/svg+xml</dc:format>
    <dc:creator>
     <cc:Agent>
      <dc:title>Matplotlib v3.8.2, https://matplotlib.org/</dc:title>
     </cc:Agent>
    </dc:creator>
   </cc:Work>
  </rdf:RDF>
 </metadata>
 <defs>
  <style type="text/css">*{stroke-linejoin: round; stroke-linecap: butt}</style>
 </defs>
 <g id="figure_1">
  <g id="patch_1">
   <path d="M 0 279.238266 
L 501.265 279.238266 
L 501.265 0 
L 0 0 
z
" style="fill: #ffffff"/>
  </g>
  <g id="axes_1">
   <g id="patch_2">
    <path d="M 47.665 208.50375 
L 494.065 208.50375 
L 494.065 12.66375 
L 47.665 12.66375 
z
" style="fill: #ffffff"/>
   </g>
   <g id="matplotlib.axis_1">
    <g id="xtick_1">
     <g id="line2d_1">
      <defs>
       <path id="mc53fb7143d" d="M 0 0 
L 0 3.5 
" style="stroke: #323034; stroke-width: 0.8"/>
      </defs>
      <g>
       <use xlink:href="#mc53fb7143d" x="67.031494" y="208.50375" style="fill: #323034; stroke: #323034; stroke-width: 0.8"/>
      </g>
     </g>
     <g id="text_1">
      <!-- 2017-01 -->
      <g style="fill: #323034" transform="translate(19.112274 251.630993) rotate(-30) scale(0.16 -0.16)">
       <defs>
        <path id="STIXGeneral-Regular-32" d="M 3034 877 
L 2688 0 
L 186 0 
L 186 77 
L 1325 1286 
Q 1773 1754 1965 2144 
Q 2157 2534 2157 2950 
Q 2157 3379 1920 3616 
Q 1683 3853 1267 3853 
Q 922 3853 720 3673 
Q 518 3494 326 3021 
L 192 3053 
Q 301 3648 630 3987 
Q 960 4326 1523 4326 
Q 2054 4326 2380 4006 
Q 2707 3686 2707 3200 
Q 2707 2477 1888 1613 
L 832 486 
L 2330 486 
Q 2541 486 2665 569 
Q 2790 653 2944 915 
L 3034 877 
z
" transform="scale(0.015625)"/>
        <path id="STIXGeneral-Regular-30" d="M 3046 2112 
Q 3046 1683 2963 1302 
Q 2880 922 2717 602 
Q 2554 282 2266 96 
Q 1978 -90 1600 -90 
Q 1210 -90 915 108 
Q 621 307 461 640 
Q 301 973 227 1350 
Q 154 1728 154 2150 
Q 154 2746 301 3222 
Q 448 3699 790 4012 
Q 1133 4326 1626 4326 
Q 2253 4326 2649 3712 
Q 3046 3098 3046 2112 
z
M 2432 2080 
Q 2432 3091 2217 3625 
Q 2003 4160 1587 4160 
Q 1190 4160 979 3622 
Q 768 3085 768 2106 
Q 768 1120 979 598 
Q 1190 77 1600 77 
Q 2003 77 2217 598 
Q 2432 1120 2432 2080 
z
" transform="scale(0.015625)"/>
        <path id="STIXGeneral-Regular-31" d="M 2522 0 
L 755 0 
L 755 96 
Q 1107 115 1235 227 
Q 1363 339 1363 608 
L 1363 3482 
Q 1363 3795 1171 3795 
Q 1082 3795 883 3718 
L 710 3654 
L 710 3744 
L 1856 4326 
L 1914 4307 
L 1914 486 
Q 1914 275 2042 185 
Q 2170 96 2522 96 
L 2522 0 
z
" transform="scale(0.015625)"/>
        <path id="STIXGeneral-Regular-37" d="M 2874 4134 
L 1517 -51 
L 1101 -51 
L 2368 3763 
L 992 3763 
Q 717 3763 582 3667 
Q 448 3571 243 3238 
L 128 3296 
L 512 4237 
L 2874 4237 
L 2874 4134 
z
" transform="scale(0.015625)"/>
        <path id="STIXGeneral-Regular-2d" d="M 1824 1242 
L 250 1242 
L 250 1645 
L 1824 1645 
L 1824 1242 
z
" transform="scale(0.015625)"/>
       </defs>
       <use xlink:href="#STIXGeneral-Regular-32"/>
       <use xlink:href="#STIXGeneral-Regular-30" x="49.999985"/>
       <use xlink:href="#STIXGeneral-Regular-31" x="99.999969"/>
       <use xlink:href="#STIXGeneral-Regular-37" x="149.999954"/>
       <use xlink:href="#STIXGeneral-Regular-2d" x="199.999939"/>
       <use xlink:href="#STIXGeneral-Regular-30" x="233.299927"/>
       <use xlink:href="#STIXGeneral-Regular-31" x="283.299911"/>
      </g>
     </g>
    </g>
    <g id="xtick_2">
     <g id="line2d_2">
      <g>
       <use xlink:href="#mc53fb7143d" x="108.630169" y="208.50375" style="fill: #323034; stroke: #323034; stroke-width: 0.8"/>
      </g>
     </g>
     <g id="text_2">
      <!-- 2017-04 -->
      <g style="fill: #323034" transform="translate(60.710949 251.630993) rotate(-30) scale(0.16 -0.16)">
       <defs>
        <path id="STIXGeneral-Regular-34" d="M 3027 1069 
L 2368 1069 
L 2368 0 
L 1869 0 
L 1869 1069 
L 77 1069 
L 77 1478 
L 2086 4326 
L 2368 4326 
L 2368 1478 
L 3027 1478 
L 3027 1069 
z
M 1869 1478 
L 1869 3674 
L 333 1478 
L 1869 1478 
z
" transform="scale(0.015625)"/>
       </defs>
       <use xlink:href="#STIXGeneral-Regular-32"/>
       <use xlink:href="#STIXGeneral-Regular-30" x="49.999985"/>
       <use xlink:href="#STIXGeneral-Regular-31" x="99.999969"/>
       <use xlink:href="#STIXGeneral-Regular-37" x="149.999954"/>
       <use xlink:href="#STIXGeneral-Regular-2d" x="199.999939"/>
       <use xlink:href="#STIXGeneral-Regular-30" x="233.299927"/>
       <use xlink:href="#STIXGeneral-Regular-34" x="283.299911"/>
      </g>
     </g>
    </g>
    <g id="xtick_3">
     <g id="line2d_3">
      <g>
       <use xlink:href="#mc53fb7143d" x="150.691051" y="208.50375" style="fill: #323034; stroke: #323034; stroke-width: 0.8"/>
      </g>
     </g>
     <g id="text_3">
      <!-- 2017-07 -->
      <g style="fill: #323034" transform="translate(102.771831 251.630993) rotate(-30) scale(0.16 -0.16)">
       <use xlink:href="#STIXGeneral-Regular-32"/>
       <use xlink:href="#STIXGeneral-Regular-30" x="49.999985"/>
       <use xlink:href="#STIXGeneral-Regular-31" x="99.999969"/>
       <use xlink:href="#STIXGeneral-Regular-37" x="149.999954"/>
       <use xlink:href="#STIXGeneral-Regular-2d" x="199.999939"/>
       <use xlink:href="#STIXGeneral-Regular-30" x="233.299927"/>
       <use xlink:href="#STIXGeneral-Regular-37" x="283.299911"/>
      </g>
     </g>
    </g>
    <g id="xtick_4">
     <g id="line2d_4">
      <g>
       <use xlink:href="#mc53fb7143d" x="193.214141" y="208.50375" style="fill: #323034; stroke: #323034; stroke-width: 0.8"/>
      </g>
     </g>
     <g id="text_4">
      <!-- 2017-10 -->
      <g style="fill: #323034" transform="translate(145.294921 251.630993) rotate(-30) scale(0.16 -0.16)">
       <use xlink:href="#STIXGeneral-Regular-32"/>
       <use xlink:href="#STIXGeneral-Regular-30" x="49.999985"/>
       <use xlink:href="#STIXGeneral-Regular-31" x="99.999969"/>
       <use xlink:href="#STIXGeneral-Regular-37" x="149.999954"/>
       <use xlink:href="#STIXGeneral-Regular-2d" x="199.999939"/>
       <use xlink:href="#STIXGeneral-Regular-31" x="233.299927"/>
       <use xlink:href="#STIXGeneral-Regular-30" x="283.299911"/>
      </g>
     </g>
    </g>
    <g id="xtick_5">
     <g id="line2d_5">
      <g>
       <use xlink:href="#mc53fb7143d" x="235.73723" y="208.50375" style="fill: #323034; stroke: #323034; stroke-width: 0.8"/>
      </g>
     </g>
     <g id="text_5">
      <!-- 2018-01 -->
      <g style="fill: #323034" transform="translate(187.818011 251.630993) rotate(-30) scale(0.16 -0.16)">
       <defs>
        <path id="STIXGeneral-Regular-38" d="M 2848 992 
Q 2848 499 2505 204 
Q 2163 -90 1587 -90 
Q 1050 -90 704 204 
Q 358 499 358 954 
Q 358 1293 524 1533 
Q 691 1773 1190 2125 
Q 710 2522 553 2765 
Q 397 3008 397 3328 
Q 397 3782 745 4054 
Q 1094 4326 1638 4326 
Q 2106 4326 2410 4060 
Q 2714 3795 2714 3411 
Q 2714 3059 2531 2848 
Q 2349 2637 1856 2374 
Q 2432 1990 2640 1689 
Q 2848 1389 2848 992 
z
M 2272 3411 
Q 2272 3744 2086 3945 
Q 1901 4147 1574 4147 
Q 1248 4147 1059 3977 
Q 870 3808 870 3513 
Q 870 3219 1059 2979 
Q 1248 2739 1670 2490 
Q 1997 2682 2134 2896 
Q 2272 3110 2272 3411 
z
M 1734 1741 
L 1357 1997 
Q 1075 1766 960 1545 
Q 845 1325 845 1011 
Q 845 576 1065 333 
Q 1286 90 1658 90 
Q 1971 90 2166 285 
Q 2362 480 2362 794 
Q 2362 1082 2214 1299 
Q 2067 1517 1734 1741 
z
" transform="scale(0.015625)"/>
       </defs>
       <use xlink:href="#STIXGeneral-Regular-32"/>
       <use xlink:href="#STIXGeneral-Regular-30" x="49.999985"/>
       <use xlink:href="#STIXGeneral-Regular-31" x="99.999969"/>
       <use xlink:href="#STIXGeneral-Regular-38" x="149.999954"/>
       <use xlink:href="#STIXGeneral-Regular-2d" x="199.999939"/>
       <use xlink:href="#STIXGeneral-Regular-30" x="233.299927"/>
       <use xlink:href="#STIXGeneral-Regular-31" x="283.299911"/>
      </g>
     </g>
    </g>
    <g id="xtick_6">
     <g id="line2d_6">
      <g>
       <use xlink:href="#mc53fb7143d" x="277.335905" y="208.50375" style="fill: #323034; stroke: #323034; stroke-width: 0.8"/>
      </g>
     </g>
     <g id="text_6">
      <!-- 2018-04 -->
      <g style="fill: #323034" transform="translate(229.416685 251.630993) rotate(-30) scale(0.16 -0.16)">
       <use xlink:href="#STIXGeneral-Regular-32"/>
       <use xlink:href="#STIXGeneral-Regular-30" x="49.999985"/>
       <use xlink:href="#STIXGeneral-Regular-31" x="99.999969"/>
       <use xlink:href="#STIXGeneral-Regular-38" x="149.999954"/>
       <use xlink:href="#STIXGeneral-Regular-2d" x="199.999939"/>
       <use xlink:href="#STIXGeneral-Regular-30" x="233.299927"/>
       <use xlink:href="#STIXGeneral-Regular-34" x="283.299911"/>
      </g>
     </g>
    </g>
    <g id="xtick_7">
     <g id="line2d_7">
      <g>
       <use xlink:href="#mc53fb7143d" x="319.396787" y="208.50375" style="fill: #323034; stroke: #323034; stroke-width: 0.8"/>
      </g>
     </g>
     <g id="text_7">
      <!-- 2018-07 -->
      <g style="fill: #323034" transform="translate(271.477567 251.630993) rotate(-30) scale(0.16 -0.16)">
       <use xlink:href="#STIXGeneral-Regular-32"/>
       <use xlink:href="#STIXGeneral-Regular-30" x="49.999985"/>
       <use xlink:href="#STIXGeneral-Regular-31" x="99.999969"/>
       <use xlink:href="#STIXGeneral-Regular-38" x="149.999954"/>
       <use xlink:href="#STIXGeneral-Regular-2d" x="199.999939"/>
       <use xlink:href="#STIXGeneral-Regular-30" x="233.299927"/>
       <use xlink:href="#STIXGeneral-Regular-37" x="283.299911"/>
      </g>
     </g>
    </g>
    <g id="xtick_8">
     <g id="line2d_8">
      <g>
       <use xlink:href="#mc53fb7143d" x="361.919877" y="208.50375" style="fill: #323034; stroke: #323034; stroke-width: 0.8"/>
      </g>
     </g>
     <g id="text_8">
      <!-- 2018-10 -->
      <g style="fill: #323034" transform="translate(314.000657 251.630993) rotate(-30) scale(0.16 -0.16)">
       <use xlink:href="#STIXGeneral-Regular-32"/>
       <use xlink:href="#STIXGeneral-Regular-30" x="49.999985"/>
       <use xlink:href="#STIXGeneral-Regular-31" x="99.999969"/>
       <use xlink:href="#STIXGeneral-Regular-38" x="149.999954"/>
       <use xlink:href="#STIXGeneral-Regular-2d" x="199.999939"/>
       <use xlink:href="#STIXGeneral-Regular-31" x="233.299927"/>
       <use xlink:href="#STIXGeneral-Regular-30" x="283.299911"/>
      </g>
     </g>
    </g>
    <g id="xtick_9">
     <g id="line2d_9">
      <g>
       <use xlink:href="#mc53fb7143d" x="404.442966" y="208.50375" style="fill: #323034; stroke: #323034; stroke-width: 0.8"/>
      </g>
     </g>
     <g id="text_9">
      <!-- 2019-01 -->
      <g style="fill: #323034" transform="translate(356.523747 251.630993) rotate(-30) scale(0.16 -0.16)">
       <defs>
        <path id="STIXGeneral-Regular-39" d="M 378 -141 
L 358 -13 
Q 1094 115 1603 608 
Q 2112 1101 2304 1882 
Q 1933 1517 1344 1517 
Q 826 1517 509 1875 
Q 192 2234 192 2816 
Q 192 3462 573 3894 
Q 954 4326 1523 4326 
Q 2131 4326 2528 3840 
Q 2938 3328 2938 2522 
Q 2938 1958 2742 1462 
Q 2547 966 2170 621 
Q 1773 262 1395 105 
Q 1018 -51 378 -141 
z
M 2317 2272 
L 2317 2522 
Q 2317 4147 1472 4147 
Q 1171 4147 1005 3930 
Q 909 3802 845 3546 
Q 781 3290 781 3034 
Q 781 2464 995 2128 
Q 1210 1792 1568 1792 
Q 1824 1792 2070 1917 
Q 2317 2042 2317 2272 
z
" transform="scale(0.015625)"/>
       </defs>
       <use xlink:href="#STIXGeneral-Regular-32"/>
       <use xlink:href="#STIXGeneral-Regular-30" x="49.999985"/>
       <use xlink:href="#STIXGeneral-Regular-31" x="99.999969"/>
       <use xlink:href="#STIXGeneral-Regular-39" x="149.999954"/>
       <use xlink:href="#STIXGeneral-Regular-2d" x="199.999939"/>
       <use xlink:href="#STIXGeneral-Regular-30" x="233.299927"/>
       <use xlink:href="#STIXGeneral-Regular-31" x="283.299911"/>
      </g>
     </g>
    </g>
    <g id="xtick_10">
     <g id="line2d_10">
      <g>
       <use xlink:href="#mc53fb7143d" x="446.041641" y="208.50375" style="fill: #323034; stroke: #323034; stroke-width: 0.8"/>
      </g>
     </g>
     <g id="text_10">
      <!-- 2019-04 -->
      <g style="fill: #323034" transform="translate(398.122421 251.630993) rotate(-30) scale(0.16 -0.16)">
       <use xlink:href="#STIXGeneral-Regular-32"/>
       <use xlink:href="#STIXGeneral-Regular-30" x="49.999985"/>
       <use xlink:href="#STIXGeneral-Regular-31" x="99.999969"/>
       <use xlink:href="#STIXGeneral-Regular-39" x="149.999954"/>
       <use xlink:href="#STIXGeneral-Regular-2d" x="199.999939"/>
       <use xlink:href="#STIXGeneral-Regular-30" x="233.299927"/>
       <use xlink:href="#STIXGeneral-Regular-34" x="283.299911"/>
      </g>
     </g>
    </g>
    <g id="xtick_11">
     <g id="line2d_11">
      <g>
       <use xlink:href="#mc53fb7143d" x="488.102523" y="208.50375" style="fill: #323034; stroke: #323034; stroke-width: 0.8"/>
      </g>
     </g>
     <g id="text_11">
      <!-- 2019-07 -->
      <g style="fill: #323034" transform="translate(440.183304 251.630993) rotate(-30) scale(0.16 -0.16)">
       <use xlink:href="#STIXGeneral-Regular-32"/>
       <use xlink:href="#STIXGeneral-Regular-30" x="49.999985"/>
       <use xlink:href="#STIXGeneral-Regular-31" x="99.999969"/>
       <use xlink:href="#STIXGeneral-Regular-39" x="149.999954"/>
       <use xlink:href="#STIXGeneral-Regular-2d" x="199.999939"/>
       <use xlink:href="#STIXGeneral-Regular-30" x="233.299927"/>
       <use xlink:href="#STIXGeneral-Regular-37" x="283.299911"/>
      </g>
     </g>
    </g>
    <g id="text_12">
     <!-- Date -->
     <g transform="translate(255.76 268.565766) scale(0.16 -0.16)">
      <defs>
       <path id="STIXGeneral-Regular-44" d="M 102 4237 
L 1830 4237 
Q 3078 4237 3750 3654 
Q 4384 3110 4384 2138 
Q 4384 966 3514 410 
Q 2880 0 1901 0 
L 102 0 
L 102 122 
Q 474 147 570 252 
Q 666 358 666 736 
L 666 3520 
Q 666 3891 570 3990 
Q 474 4090 102 4115 
L 102 4237 
z
M 1318 3731 
L 1318 538 
Q 1318 365 1379 301 
Q 1440 237 1626 237 
Q 2125 237 2432 307 
Q 2739 378 3021 570 
Q 3686 1018 3686 2099 
Q 3686 3027 3078 3558 
Q 2803 3802 2476 3901 
Q 2150 4000 1658 4000 
Q 1472 4000 1395 3942 
Q 1318 3885 1318 3731 
z
" transform="scale(0.015625)"/>
       <path id="STIXGeneral-Regular-61" d="M 2829 422 
L 2829 243 
Q 2586 -64 2253 -64 
Q 1888 -64 1843 403 
L 1837 403 
Q 1427 -64 909 -64 
Q 608 -64 422 112 
Q 237 288 237 602 
Q 237 1050 685 1350 
Q 992 1555 1837 1869 
L 1837 2214 
Q 1837 2502 1699 2646 
Q 1562 2790 1338 2790 
Q 1146 2790 1018 2697 
Q 890 2605 890 2477 
Q 890 2419 909 2348 
Q 928 2278 928 2208 
Q 928 2112 841 2029 
Q 755 1946 634 1946 
Q 525 1946 441 2029 
Q 358 2112 358 2240 
Q 358 2547 685 2752 
Q 986 2944 1421 2944 
Q 1939 2944 2176 2656 
Q 2291 2522 2323 2384 
Q 2355 2246 2355 1946 
L 2355 723 
Q 2355 301 2554 301 
Q 2682 301 2829 422 
z
M 1837 813 
L 1837 1715 
Q 1248 1510 1018 1293 
Q 800 1094 800 800 
Q 800 557 921 432 
Q 1043 307 1242 307 
Q 1453 307 1613 410 
Q 1747 506 1792 589 
Q 1837 672 1837 813 
z
" transform="scale(0.015625)"/>
       <path id="STIXGeneral-Regular-74" d="M 1702 493 
L 1786 422 
Q 1478 -64 1011 -64 
Q 448 -64 448 749 
L 448 2675 
L 109 2675 
Q 83 2694 83 2720 
Q 83 2771 192 2842 
Q 435 2982 813 3526 
Q 826 3546 874 3606 
Q 922 3667 941 3706 
Q 986 3706 986 3622 
L 986 2880 
L 1632 2880 
L 1632 2675 
L 986 2675 
L 986 845 
Q 986 538 1062 403 
Q 1139 269 1318 269 
Q 1510 269 1702 493 
z
" transform="scale(0.015625)"/>
       <path id="STIXGeneral-Regular-65" d="M 2611 1050 
L 2714 1005 
Q 2330 -64 1376 -64 
Q 813 -64 486 329 
Q 160 723 160 1389 
Q 160 2074 525 2509 
Q 890 2944 1485 2944 
Q 2061 2944 2374 2502 
Q 2560 2246 2592 1773 
L 621 1773 
Q 646 1370 700 1158 
Q 755 947 915 730 
Q 1184 378 1626 378 
Q 1939 378 2153 531 
Q 2368 685 2611 1050 
z
M 634 1978 
L 1939 1978 
Q 1882 2381 1750 2547 
Q 1619 2714 1312 2714 
Q 1043 2714 864 2525 
Q 685 2336 634 1978 
z
" transform="scale(0.015625)"/>
      </defs>
      <use xlink:href="#STIXGeneral-Regular-44"/>
      <use xlink:href="#STIXGeneral-Regular-61" x="72.199982"/>
      <use xlink:href="#STIXGeneral-Regular-74" x="116.599976"/>
      <use xlink:href="#STIXGeneral-Regular-65" x="144.399963"/>
     </g>
    </g>
   </g>
   <g id="matplotlib.axis_2">
    <g id="ytick_1">
     <g id="line2d_12">
      <defs>
       <path id="m4bc48a2b29" d="M 0 0 
L -3.5 0 
" style="stroke: #323034; stroke-width: 0.8"/>
      </defs>
      <g>
       <use xlink:href="#m4bc48a2b29" x="47.665" y="208.50375" style="fill: #323034; stroke: #323034; stroke-width: 0.8"/>
      </g>
     </g>
     <g id="text_13">
      <!-- $\mathdefault{20}$ -->
      <g style="fill: #323034" transform="translate(24.665 213.9675) scale(0.16 -0.16)">
       <use xlink:href="#STIXGeneral-Regular-32" transform="translate(0 0.40625)"/>
       <use xlink:href="#STIXGeneral-Regular-30" transform="translate(49.999985 0.40625)"/>
      </g>
     </g>
    </g>
    <g id="ytick_2">
     <g id="line2d_13">
      <g>
       <use xlink:href="#m4bc48a2b29" x="47.665" y="159.54375" style="fill: #323034; stroke: #323034; stroke-width: 0.8"/>
      </g>
     </g>
     <g id="text_14">
      <!-- $\mathdefault{30}$ -->
      <g style="fill: #323034" transform="translate(24.665 165.0075) scale(0.16 -0.16)">
       <defs>
        <path id="STIXGeneral-Regular-33" d="M 390 3264 
L 288 3290 
Q 435 3770 748 4048 
Q 1062 4326 1542 4326 
Q 1990 4326 2265 4083 
Q 2541 3840 2541 3450 
Q 2541 2925 1946 2566 
Q 2298 2413 2477 2227 
Q 2758 1914 2758 1402 
Q 2758 890 2464 506 
Q 2246 211 1840 60 
Q 1434 -90 979 -90 
Q 262 -90 262 275 
Q 262 378 339 442 
Q 416 506 525 506 
Q 685 506 915 339 
Q 1197 141 1466 141 
Q 1818 141 2058 425 
Q 2298 710 2298 1120 
Q 2298 1856 1632 2048 
Q 1434 2112 979 2112 
L 979 2202 
Q 1338 2323 1517 2432 
Q 2035 2726 2035 3290 
Q 2035 3610 1852 3776 
Q 1670 3942 1344 3942 
Q 768 3942 390 3264 
z
" transform="scale(0.015625)"/>
       </defs>
       <use xlink:href="#STIXGeneral-Regular-33" transform="translate(0 0.40625)"/>
       <use xlink:href="#STIXGeneral-Regular-30" transform="translate(49.999985 0.40625)"/>
      </g>
     </g>
    </g>
    <g id="ytick_3">
     <g id="line2d_14">
      <g>
       <use xlink:href="#m4bc48a2b29" x="47.665" y="110.58375" style="fill: #323034; stroke: #323034; stroke-width: 0.8"/>
      </g>
     </g>
     <g id="text_15">
      <!-- $\mathdefault{40}$ -->
      <g style="fill: #323034" transform="translate(24.665 116.0475) scale(0.16 -0.16)">
       <use xlink:href="#STIXGeneral-Regular-34" transform="translate(0 0.40625)"/>
       <use xlink:href="#STIXGeneral-Regular-30" transform="translate(49.999985 0.40625)"/>
      </g>
     </g>
    </g>
    <g id="ytick_4">
     <g id="line2d_15">
      <g>
       <use xlink:href="#m4bc48a2b29" x="47.665" y="61.62375" style="fill: #323034; stroke: #323034; stroke-width: 0.8"/>
      </g>
     </g>
     <g id="text_16">
      <!-- $\mathdefault{50}$ -->
      <g style="fill: #323034" transform="translate(24.665 67.0875) scale(0.16 -0.16)">
       <defs>
        <path id="STIXGeneral-Regular-35" d="M 2803 4358 
L 2573 3814 
Q 2534 3731 2400 3731 
L 1158 3731 
L 902 3187 
Q 1606 3053 1920 2896 
Q 2234 2739 2502 2368 
Q 2726 2061 2726 1555 
Q 2726 1094 2576 780 
Q 2426 467 2099 224 
Q 1664 -90 1011 -90 
Q 646 -90 422 19 
Q 198 128 198 307 
Q 198 550 486 550 
Q 717 550 960 352 
Q 1210 147 1414 147 
Q 1747 147 2012 480 
Q 2278 813 2278 1229 
Q 2278 1843 1850 2189 
Q 1293 2637 486 2637 
Q 410 2637 410 2688 
L 416 2720 
L 1114 4237 
L 2438 4237 
Q 2547 4237 2608 4269 
Q 2669 4301 2746 4403 
L 2803 4358 
z
" transform="scale(0.015625)"/>
       </defs>
       <use xlink:href="#STIXGeneral-Regular-35" transform="translate(0 0.203125)"/>
       <use xlink:href="#STIXGeneral-Regular-30" transform="translate(49.999985 0.203125)"/>
      </g>
     </g>
    </g>
    <g id="ytick_5">
     <g id="line2d_16">
      <g>
       <use xlink:href="#m4bc48a2b29" x="47.665" y="12.66375" style="fill: #323034; stroke: #323034; stroke-width: 0.8"/>
      </g>
     </g>
     <g id="text_17">
      <!-- $\mathdefault{60}$ -->
      <g style="fill: #323034" transform="translate(24.665 18.1275) scale(0.16 -0.16)">
       <defs>
        <path id="STIXGeneral-Regular-36" d="M 2854 4378 
L 2867 4275 
Q 2112 4154 1606 3664 
Q 1101 3174 973 2451 
Q 1344 2739 1786 2739 
Q 2349 2739 2672 2380 
Q 2995 2022 2995 1402 
Q 2995 774 2669 378 
Q 2291 -90 1651 -90 
Q 870 -90 518 557 
Q 218 1107 218 1786 
Q 218 2835 915 3552 
Q 1312 3962 1731 4131 
Q 2150 4301 2854 4378 
z
M 2419 1203 
Q 2419 2445 1555 2445 
Q 1235 2445 1024 2275 
Q 813 2106 813 1702 
Q 813 954 1046 522 
Q 1280 90 1722 90 
Q 2061 90 2240 394 
Q 2419 698 2419 1203 
z
" transform="scale(0.015625)"/>
       </defs>
       <use xlink:href="#STIXGeneral-Regular-36" transform="translate(0 0.59375)"/>
       <use xlink:href="#STIXGeneral-Regular-30" transform="translate(49.999985 0.59375)"/>
      </g>
     </g>
    </g>
    <g id="text_18">
     <!-- Close ($) -->
     <g transform="translate(18.1925 140.13625) rotate(-90) scale(0.16 -0.16)">
      <defs>
       <path id="STIXGeneral-Regular-43" d="M 3930 838 
L 4051 723 
Q 3482 -90 2304 -90 
Q 1376 -90 794 480 
Q 179 1082 179 2080 
Q 179 3014 755 3661 
Q 1357 4326 2310 4326 
Q 2720 4326 3072 4230 
Q 3475 4115 3514 4115 
Q 3725 4115 3782 4326 
L 3910 4326 
L 3968 2874 
L 3821 2874 
Q 3718 3334 3488 3584 
Q 3034 4070 2458 4070 
Q 1747 4070 1334 3548 
Q 922 3027 922 2182 
Q 922 1152 1382 653 
Q 1811 192 2522 192 
Q 2944 192 3251 339 
Q 3558 486 3930 838 
z
" transform="scale(0.015625)"/>
       <path id="STIXGeneral-Regular-6c" d="M 1645 0 
L 134 0 
L 134 96 
Q 435 122 531 221 
Q 627 320 627 589 
L 627 3590 
Q 627 3821 569 3910 
Q 512 4000 358 4000 
Q 224 4000 122 3987 
L 122 4090 
Q 730 4237 1133 4371 
L 1165 4346 
L 1165 557 
Q 1165 288 1254 201 
Q 1344 115 1645 96 
L 1645 0 
z
" transform="scale(0.015625)"/>
       <path id="STIXGeneral-Regular-6f" d="M 3008 1478 
Q 3008 806 2608 371 
Q 2208 -64 1568 -64 
Q 979 -64 582 368 
Q 186 800 186 1459 
Q 186 2125 582 2534 
Q 979 2944 1626 2944 
Q 2221 2944 2614 2537 
Q 3008 2131 3008 1478 
z
M 2432 1306 
Q 2432 2035 2112 2445 
Q 1856 2765 1504 2765 
Q 1171 2765 966 2493 
Q 762 2221 762 1747 
Q 762 928 1101 435 
Q 1318 115 1677 115 
Q 2029 115 2230 432 
Q 2432 749 2432 1306 
z
" transform="scale(0.015625)"/>
       <path id="STIXGeneral-Regular-73" d="M 998 1926 
L 1664 1523 
Q 1984 1331 2105 1164 
Q 2227 998 2227 736 
Q 2227 416 1961 176 
Q 1696 -64 1331 -64 
Q 1030 -64 864 -6 
Q 691 51 570 51 
Q 461 51 416 -26 
L 333 -26 
L 333 979 
L 435 979 
Q 538 512 730 294 
Q 922 77 1248 77 
Q 1485 77 1632 211 
Q 1779 346 1779 550 
Q 1779 845 1440 1030 
L 1094 1222 
Q 326 1651 326 2150 
Q 326 2522 566 2730 
Q 806 2938 1210 2938 
Q 1491 2938 1638 2867 
Q 1754 2816 1818 2816 
Q 1862 2816 1920 2880 
L 1990 2880 
L 2022 2010 
L 1926 2010 
Q 1818 2445 1654 2621 
Q 1491 2797 1203 2797 
Q 986 2797 854 2688 
Q 723 2579 723 2362 
Q 723 2253 796 2128 
Q 870 2003 998 1926 
z
" transform="scale(0.015625)"/>
       <path id="STIXGeneral-Regular-20" transform="scale(0.015625)"/>
       <path id="STIXGeneral-Regular-28" d="M 1946 -1030 
L 1869 -1133 
Q 1126 -710 716 32 
Q 307 774 307 1613 
Q 307 3386 1888 4326 
L 1946 4224 
Q 1293 3667 1075 3126 
Q 858 2586 858 1632 
Q 858 685 1082 96 
Q 1306 -493 1946 -1030 
z
" transform="scale(0.015625)"/>
       <path id="STIXGeneral-Regular-24" d="M 1690 4077 
L 1690 2502 
Q 2234 2208 2445 2045 
Q 2656 1882 2797 1664 
Q 2931 1466 2931 1088 
Q 2931 570 2614 326 
Q 2298 83 1690 0 
L 1690 -557 
L 1472 -557 
L 1472 0 
Q 1062 0 806 73 
Q 550 147 282 326 
L 282 1158 
L 378 1158 
Q 480 685 761 432 
Q 1043 179 1472 179 
L 1472 1984 
Q 800 2362 566 2624 
Q 333 2886 333 3283 
Q 333 3731 659 3974 
Q 986 4218 1472 4250 
L 1472 4653 
L 1690 4653 
L 1690 4250 
Q 2426 4205 2720 3910 
L 2720 3200 
L 2624 3200 
Q 2528 3597 2301 3814 
Q 2074 4032 1690 4077 
z
M 1472 2605 
L 1472 4077 
Q 806 3942 806 3405 
Q 806 3194 937 3037 
Q 1069 2880 1472 2605 
z
M 1690 1875 
L 1690 179 
Q 2086 262 2252 432 
Q 2419 602 2419 941 
Q 2419 1235 2272 1427 
Q 2125 1619 1690 1875 
z
" transform="scale(0.015625)"/>
       <path id="STIXGeneral-Regular-29" d="M 186 4224 
L 262 4326 
Q 992 3891 1408 3148 
Q 1824 2406 1824 1581 
Q 1824 -166 243 -1133 
L 186 -1030 
Q 845 -486 1059 54 
Q 1274 595 1274 1562 
Q 1274 2534 1059 3120 
Q 845 3706 186 4224 
z
" transform="scale(0.015625)"/>
      </defs>
      <use xlink:href="#STIXGeneral-Regular-43"/>
      <use xlink:href="#STIXGeneral-Regular-6c" x="66.699997"/>
      <use xlink:href="#STIXGeneral-Regular-6f" x="94.499985"/>
      <use xlink:href="#STIXGeneral-Regular-73" x="144.499969"/>
      <use xlink:href="#STIXGeneral-Regular-65" x="183.399963"/>
      <use xlink:href="#STIXGeneral-Regular-20" x="227.799957"/>
      <use xlink:href="#STIXGeneral-Regular-28" x="252.799942"/>
      <use xlink:href="#STIXGeneral-Regular-24" x="286.09993"/>
      <use xlink:href="#STIXGeneral-Regular-29" x="336.099915"/>
     </g>
    </g>
   </g>
   <g id="line2d_17">
    <path d="M 67.955909 173.369564 
L 68.418117 173.515955 
L 68.880324 172.828067 
L 69.342532 171.363673 
L 70.729154 170.128412 
L 71.191362 169.982022 
L 71.653569 169.25007 
L 72.115777 169.806256 
L 72.577984 170.065254 
L 74.426814 168.967081 
L 74.889022 168.976873 
L 75.351229 169.210902 
L 75.813437 168.967081 
L 77.200059 168.859369 
L 77.662267 169.006249 
L 78.124474 166.809414 
L 79.048889 166.731078 
L 80.435511 167.116883 
L 80.897719 167.409664 
L 81.359926 158.950844 
L 81.822134 159.175081 
L 82.284341 158.58952 
L 83.670964 157.149606 
L 84.133171 155.772851 
L 84.595379 155.206873 
L 85.057586 154.05974 
L 85.519794 154.416169 
L 86.906416 153.059488 
L 87.368624 151.096681 
L 87.830831 150.520912 
L 88.293039 150.702064 
L 88.755246 150.272195 
L 90.604076 149.144646 
L 91.066284 148.675609 
L 91.528491 149.383571 
L 91.990699 149.18871 
L 93.839529 148.822489 
L 94.301736 145.586233 
L 94.763944 146.572288 
L 95.226151 145.596025 
L 96.612774 146.123324 
L 97.074981 145.90839 
L 97.537189 146.523328 
L 97.999396 146.894444 
L 98.461604 146.357353 
L 99.848226 146.279507 
L 100.310434 146.538016 
L 100.772641 144.820009 
L 101.234849 144.565907 
L 101.697056 145.376684 
L 103.083679 143.677283 
L 103.545886 145.537273 
L 104.008094 143.726243 
L 104.470301 144.307398 
L 104.932509 144.614867 
L 106.319131 144.356358 
L 106.781339 140.9884 
L 107.243546 140.631971 
L 108.167961 141.15927 
L 109.554584 141.11031 
L 110.016791 139.870153 
L 110.478999 140.729401 
L 111.403414 141.535283 
L 112.790036 141.730144 
L 113.252244 143.49711 
L 113.714451 143.287561 
L 114.176659 144.151216 
L 116.025489 143.253289 
L 116.949904 144.580595 
L 117.412111 142.545328 
L 117.874319 142.730886 
L 119.260941 141.18375 
L 119.723149 140.14384 
L 120.185356 141.13479 
L 120.647564 141.002598 
L 121.109771 141.169062 
L 122.958601 136.707337 
L 123.883016 137.849574 
L 124.345224 135.048083 
L 125.731846 130.395904 
L 126.194054 129.24926 
L 126.656261 130.117811 
L 127.118469 128.595155 
L 127.580676 126.095747 
L 129.429506 126.818396 
L 129.891714 132.856144 
L 130.353921 130.201043 
L 130.816129 129.610096 
L 132.202751 128.546195 
L 132.664959 128.726857 
L 133.127166 129.273251 
L 133.589374 128.653417 
L 134.051581 128.95599 
L 135.900411 128.883529 
L 136.362619 129.97142 
L 136.824826 129.469091 
L 137.287034 126.832595 
L 138.673656 128.604457 
L 139.135864 128.009593 
L 139.598071 126.930515 
L 140.060279 127.384864 
L 140.522486 134.335225 
L 141.909109 138.444928 
L 142.371316 137.053974 
L 142.833524 138.752396 
L 143.295731 139.724252 
L 143.757938 142.07678 
L 145.144561 137.361443 
L 145.606768 138.913964 
L 146.068976 137.913222 
L 146.531183 138.186419 
L 146.993391 137.434883 
L 148.380013 137.971974 
L 148.842221 140.38815 
L 149.304428 137.962182 
L 149.766636 140.451308 
L 150.228843 140.046409 
L 151.615466 140.661347 
L 152.539881 139.968073 
L 153.002088 141.554867 
L 153.464296 139.855465 
L 154.850918 138.850316 
L 155.313126 138.308819 
L 155.775333 138.064019 
L 156.237541 135.726179 
L 156.699748 134.256889 
L 158.086371 133.641952 
L 158.548578 133.046598 
L 159.010786 131.958217 
L 159.472993 132.753817 
L 159.935201 132.841456 
L 162.246238 129.12735 
L 162.708446 132.499715 
L 163.170653 133.7056 
L 164.557276 134.628006 
L 165.019483 133.085766 
L 165.481691 124.90504 
L 165.943898 126.711174 
L 167.792728 122.947619 
L 168.717143 120.360572 
L 169.179351 126.291097 
L 169.641558 123.777491 
L 171.028181 121.053846 
L 171.490388 119.028371 
L 171.952596 119.764729 
L 172.414803 123.33783 
L 172.877011 123.757907 
L 174.263633 124.10944 
L 174.725841 121.137078 
L 175.188048 120.892768 
L 175.650256 121.717744 
L 177.499086 119.184064 
L 177.961293 117.461161 
L 178.423501 116.958342 
L 178.885708 116.240588 
L 179.347916 116.192608 
L 181.196746 118.4668 
L 181.658953 118.66215 
L 182.121161 119.398998 
L 182.583368 122.425216 
L 183.969991 119.145385 
L 184.432198 119.872441 
L 185.356613 122.840396 
L 185.818821 121.014678 
L 187.205443 122.376745 
L 187.667651 122.327785 
L 188.592066 128.546195 
L 189.054273 130.264691 
L 190.440896 131.811827 
L 190.903103 128.795401 
L 191.365311 127.565036 
L 191.827518 128.653417 
L 192.289726 127.697228 
L 193.676348 128.058064 
L 194.138556 127.286944 
L 194.600763 128.45366 
L 195.062971 126.208355 
L 195.525178 126.320473 
L 196.911801 125.671264 
L 197.374008 125.598313 
L 197.836216 124.88056 
L 198.298423 125.495497 
L 200.147253 121.014678 
L 200.609461 120.312102 
L 201.071668 121.161068 
L 201.533876 125.505289 
L 201.996083 125.241884 
L 203.382706 125.315324 
L 203.844913 124.246038 
L 204.307121 125.046534 
L 204.769328 123.865619 
L 205.231536 117.290291 
L 206.618158 113.077772 
L 207.080366 110.36392 
L 207.542573 112.8976 
L 208.00478 111.45279 
L 208.466988 106.381024 
L 210.315818 103.701443 
L 210.778025 102.0275 
L 211.240233 102.442192 
L 211.70244 103.135465 
L 213.089063 103.92568 
L 214.013478 109.64176 
L 214.475685 107.259856 
L 214.937893 108.387404 
L 216.324515 108.596953 
L 216.786723 104.897536 
L 217.24893 102.79862 
L 218.173345 102.783932 
L 219.559968 103.808665 
L 220.022175 104.975382 
L 220.484383 109.158524 
L 220.94659 106.420192 
L 221.408798 107.323504 
L 222.79542 108.783001 
L 223.257628 108.963174 
L 223.719835 109.676032 
L 224.182043 109.353875 
L 224.64425 109.290227 
L 226.030873 105.453721 
L 226.49308 106.600854 
L 226.955288 105.917372 
L 227.417495 105.98102 
L 227.879703 103.92568 
L 229.266325 101.080614 
L 229.728533 103.30095 
L 230.19074 103.49679 
L 230.652948 102.734972 
L 231.115155 102.734972 
L 232.963985 107.904169 
L 233.426193 107.869897 
L 233.8884 107.289232 
L 234.350608 109.461097 
L 236.199438 105.93206 
L 236.661645 105.966332 
L 237.123853 105.018956 
L 237.58606 102.74966 
L 238.972683 103.44783 
L 239.897098 103.574147 
L 240.359305 102.40792 
L 240.821513 100.33838 
L 242.670343 101.348915 
L 243.13255 97.965779 
L 243.594758 97.775814 
L 244.056965 98.703116 
L 245.443588 100.416227 
L 245.905795 100.372652 
L 246.83021 107.250064 
L 247.292418 106.810403 
L 249.141248 112.086822 
L 250.065663 111.155113 
L 250.52787 119.618828 
L 251.914493 124.30479 
L 252.3767 116.670457 
L 253.301115 125.832342 
L 253.763323 123.620819 
L 256.07436 110.823164 
L 256.536568 104.248326 
L 256.998775 104.912224 
L 258.847605 105.595216 
L 259.309813 106.517622 
L 259.77202 104.828992 
L 260.234228 101.309747 
L 261.62085 97.268099 
L 262.083058 97.936403 
L 262.545265 98.239465 
L 263.007473 101.900204 
L 263.46968 100.499459 
L 264.856303 99.806185 
L 265.31851 99.986848 
L 265.780718 101.865932 
L 266.242925 99.660284 
L 266.705133 96.096976 
L 268.091755 94.066115 
L 269.01617 97.883526 
L 269.478378 97.638726 
L 269.940585 98.361376 
L 271.327207 101.553568 
L 271.789415 101.61232 
L 272.251622 106.283593 
L 272.71383 109.085574 
L 273.176037 113.64424 
L 274.56266 104.511731 
L 275.024867 109.705408 
L 275.487075 111.862585 
L 275.949282 110.329648 
L 277.798112 111.633452 
L 278.26032 109.64176 
L 278.722527 105.873798 
L 279.184735 104.477459 
L 279.646942 109.656448 
L 281.033565 107.699027 
L 281.495772 103.940368 
L 281.95798 104.897536 
L 282.420187 102.929833 
L 282.882395 102.212569 
L 284.269017 100.948422 
L 284.731225 98.107763 
L 285.193432 98.581206 
L 285.65564 104.477459 
L 286.117847 112.760512 
L 287.50447 113.302499 
L 287.966677 116.035936 
L 288.891092 114.502998 
L 289.3533 116.719417 
L 290.739922 113.282915 
L 291.20213 108.792793 
L 291.664337 100.098966 
L 292.126545 99.718057 
L 292.588752 91.576988 
L 293.975375 90.039155 
L 294.437582 88.985046 
L 294.89979 87.476588 
L 295.361997 84.347555 
L 295.824205 85.177916 
L 297.210827 85.69983 
L 297.673035 87.716003 
L 298.135242 85.660662 
L 298.59745 87.056512 
L 299.059657 87.857497 
L 300.44628 86.300569 
L 300.908487 86.846963 
L 301.370695 85.446217 
L 301.832902 85.69983 
L 302.29511 85.187708 
L 304.14394 86.002403 
L 304.606147 86.456262 
L 305.068355 87.203392 
L 305.530562 83.23959 
L 306.917185 81.370787 
L 307.379392 79.646905 
L 307.8416 78.851795 
L 308.303807 79.466732 
L 308.766015 81.516688 
L 310.152637 82.083155 
L 310.614845 80.87727 
L 311.077052 82.6883 
L 311.53926 82.570796 
L 312.001467 84.88024 
L 313.38809 84.991868 
L 313.850297 88.584553 
L 314.312505 87.642563 
L 314.774712 88.838166 
L 315.23692 89.478073 
L 316.623542 92.71384 
L 317.08575 90.063635 
L 317.547957 90.390688 
L 318.010165 88.794102 
L 318.472372 89.258243 
L 319.858995 86.822483 
L 320.321202 90.66878 
L 321.245617 88.90671 
L 321.707825 85.914764 
L 323.094447 82.834691 
L 323.556655 83.113273 
L 324.018862 86.026883 
L 324.48107 82.287808 
L 324.943277 81.956348 
L 326.3299 82.434688 
L 326.792107 81.809468 
L 327.254315 83.054521 
L 327.716522 81.312035 
L 328.17873 81.824156 
L 329.565352 81.614608 
L 330.02756 80.013126 
L 330.489767 77.879939 
L 330.951975 78.573702 
L 331.414182 82.351456 
L 332.800805 83.635187 
L 333.263012 83.19063 
L 333.72522 70.016963 
L 334.187427 63.119478 
L 334.649634 62.416902 
L 336.036257 61.142963 
L 336.498464 63.461219 
L 336.960672 63.295734 
L 337.422879 61.372096 
L 337.885087 62.094745 
L 339.271709 60.552505 
L 339.733917 59.483708 
L 340.196124 58.917241 
L 340.658332 55.29567 
L 341.120539 50.287552 
L 342.507162 52.776678 
L 342.969369 53.264809 
L 343.431577 53.255017 
L 343.893784 52.742896 
L 344.355992 51.94191 
L 345.742614 49.862579 
L 346.204822 47.783248 
L 346.667029 43.932054 
L 347.129237 41.511472 
L 347.591444 38.446086 
L 349.440274 37.562358 
L 349.902482 39.339116 
L 350.364689 43.785664 
L 350.826897 45.884579 
L 352.213519 49.389136 
L 352.675727 42.877945 
L 353.137934 46.153369 
L 353.600142 39.88551 
L 354.062349 42.892633 
L 355.448972 49.931123 
L 355.911179 49.496848 
L 356.373387 49.340665 
L 356.835594 47.407724 
L 357.297802 50.189632 
L 358.684424 46.49511 
L 359.146632 44.85446 
L 359.608839 46.933792 
L 360.071047 41.594214 
L 360.533254 40.661526 
L 361.919877 38.889664 
L 362.382084 36.503353 
L 362.844292 33.208345 
L 363.768707 42.340854 
L 365.155329 42.975865 
L 365.617537 39.339116 
L 366.079744 51.707881 
L 366.541952 53.972281 
L 367.004159 44.95238 
L 368.390782 50.531372 
L 368.852989 44.90342 
L 369.315197 46.006489 
L 369.777404 52.103478 
L 370.239612 48.2327 
L 371.626234 46.665491 
L 372.088442 44.224835 
L 372.550649 53.206547 
L 373.012857 47.671129 
L 373.475064 51.771529 
L 374.861687 56.545129 
L 375.323894 55.310358 
L 375.786102 48.75951 
L 376.248309 44.815292 
L 376.710517 62.148601 
L 378.097139 69.084275 
L 378.559347 66.541782 
L 379.021554 59.263388 
L 379.483762 60.123126 
L 379.945969 64.857068 
L 381.332592 77.030972 
L 381.794799 79.319852 
L 382.257007 85.74879 
L 382.719214 80.316188 
L 383.181422 77.797686 
L 384.568044 86.846963 
L 385.030252 97.341049 
L 385.492459 97.566265 
L 386.416874 102.896051 
L 387.803497 100.157718 
L 388.265704 100.582201 
L 388.727912 92.66488 
L 389.190119 94.315321 
L 389.652327 95.457558 
L 391.038949 88.081734 
L 391.501157 97.663206 
L 392.425572 100.035808 
L 392.887779 107.371974 
L 394.274402 106.063763 
L 394.736609 107.201104 
L 395.198817 106.649814 
L 395.661024 104.462771 
L 396.123232 110.930387 
L 397.509854 112.75072 
L 397.972062 110.222915 
L 399.358684 128.365532 
L 400.745306 132.954064 
L 401.669721 120.751273 
L 402.131929 121.961564 
L 402.594136 121.863644 
L 403.980759 120.067792 
L 404.905174 119.862649 
L 405.367381 138.444928 
L 405.829589 131.279632 
L 407.216211 131.680124 
L 408.140626 125.315324 
L 408.602834 124.734169 
L 409.065041 126.506032 
L 410.451664 129.2003 
L 410.913871 125.573833 
L 411.376079 123.367206 
L 412.300494 121.17086 
L 414.149324 125.325116 
L 414.611531 124.607363 
L 415.073739 126.027692 
L 415.535946 120.043312 
L 416.922569 121.781392 
L 417.384776 123.679571 
L 417.846984 111.213376 
L 418.309191 109.78815 
L 418.771399 109.705408 
L 420.158021 104.101936 
L 420.620229 100.655641 
L 421.082436 100.582201 
L 421.544644 104.477459 
L 422.006851 104.233638 
L 423.393474 105.409657 
L 423.855681 103.676963 
L 424.317889 104.511731 
L 424.780096 103.779779 
L 425.242304 104.21895 
L 427.091134 103.632899 
L 427.553341 102.310489 
L 428.015549 103.477206 
L 428.477756 101.206931 
L 429.864379 99.718057 
L 430.326586 99.596636 
L 430.788794 98.952323 
L 431.251001 100.982694 
L 431.713209 98.834819 
L 433.099831 97.775814 
L 433.562039 98.156723 
L 434.024246 99.376806 
L 434.486454 101.753814 
L 434.948661 101.275475 
L 436.797491 91.771849 
L 437.259699 90.834755 
L 438.184114 85.6024 
L 439.570736 83.347302 
L 440.032944 85.119164 
L 440.495151 83.175942 
L 440.957359 74.976121 
L 441.419566 79.759513 
L 442.806189 82.473366 
L 443.268396 84.801904 
L 443.730604 82.800419 
L 444.192811 82.497846 
L 444.655019 81.067724 
L 446.041641 79.525484 
L 446.503849 76.220684 
L 446.966056 74.65886 
L 447.428264 74.263753 
L 447.890471 72.691648 
L 449.277094 68.996636 
L 449.739301 69.724182 
L 450.201509 68.405689 
L 450.663716 70.383184 
L 451.125924 70.480614 
L 452.512546 70.041443 
L 452.974754 70.016963 
L 453.436961 65.424025 
L 453.899169 64.564288 
L 455.747999 63.764281 
L 456.210206 60.269516 
L 456.672414 60.649936 
L 457.134621 62.865865 
L 457.596829 64.027686 
L 458.983451 63.666851 
L 459.445659 68.34302 
L 459.907866 56.64256 
L 460.370074 58.277824 
L 460.832281 55.19775 
L 462.218903 59.088112 
L 462.681111 65.7359 
L 463.143318 65.702118 
L 463.605526 68.279372 
L 464.067733 71.578787 
L 465.454356 85.226387 
L 466.378771 79.031968 
L 467.303186 81.321827 
L 468.689808 88.365212 
L 469.152016 84.191862 
L 470.076431 92.445539 
L 470.538638 93.275411 
L 472.387468 94.148857 
L 472.849676 95.164288 
L 473.311883 94.066115 
L 473.774091 97.907516 
L 473.774091 97.907516 
" clip-path="url(#p9a85dd960f)" style="fill: none; stroke: #bc80bd; stroke-opacity: 0.5; stroke-width: 3; stroke-linecap: square"/>
   </g>
   <g id="line2d_18">
    <path d="M 67.955909 173.369564 
L 68.418117 173.44276 
L 68.880324 173.237862 
L 69.342532 172.769315 
L 70.729154 172.241134 
L 71.653569 171.491109 
L 72.577984 171.145475 
L 74.426814 170.927635 
L 75.813437 170.494709 
L 77.662267 170.286455 
L 79.048889 169.69906 
L 80.897719 169.455482 
L 82.284341 168.079351 
L 83.670964 167.623945 
L 85.519794 165.801083 
L 86.906416 165.361717 
L 88.755246 163.578232 
L 90.604076 163.153715 
L 91.990699 162.012816 
L 93.377321 161.667506 
L 95.226151 160.236721 
L 96.612774 159.908502 
L 98.461604 158.760619 
L 99.848226 158.500596 
L 101.697056 157.4871 
L 103.083679 157.226538 
L 104.932509 156.336707 
L 106.319131 156.130149 
L 108.167961 155.147908 
L 109.554584 154.925089 
L 111.403414 154.083205 
L 113.252244 153.750753 
L 114.176659 153.468179 
L 116.487696 153.198279 
L 117.874319 152.806989 
L 119.723149 152.495625 
L 121.109771 152.073645 
L 122.496394 151.899404 
L 124.345224 151.192688 
L 125.731846 150.953645 
L 127.580676 149.967309 
L 128.967299 149.712928 
L 130.353921 149.089105 
L 130.816129 148.886198 
L 132.202751 148.676508 
L 134.051581 147.893374 
L 135.900411 147.707003 
L 137.287034 147.165594 
L 138.673656 146.990489 
L 140.522486 146.342291 
L 142.833524 146.123038 
L 143.757938 146.032212 
L 146.068976 145.829602 
L 146.993391 145.695953 
L 154.850918 145.240188 
L 159.472993 144.630296 
L 159.935201 144.545484 
L 161.784031 144.344194 
L 163.170653 144.082389 
L 165.019483 143.942314 
L 166.406106 143.576767 
L 168.254936 143.294189 
L 169.641558 142.908128 
L 171.490388 142.614961 
L 172.877011 142.231411 
L 174.725841 141.987831 
L 176.112463 141.607869 
L 177.961293 141.327324 
L 179.347916 140.88596 
L 181.658953 140.62489 
L 182.583368 140.396997 
L 184.432198 140.158276 
L 185.818821 139.847478 
L 188.129858 139.574435 
L 189.054273 139.463298 
L 191.365311 139.300838 
L 195.525178 138.873751 
L 197.836216 138.667266 
L 201.996083 138.137401 
L 204.307121 137.944176 
L 208.00478 137.28985 
L 208.466988 137.144738 
L 210.315818 136.836567 
L 211.70244 136.364527 
L 213.55127 136.083609 
L 214.937893 135.711583 
L 216.786723 135.454122 
L 217.24893 135.309629 
L 220.94659 134.662869 
L 221.408798 134.545027 
L 223.257628 134.325609 
L 224.64425 134.010602 
L 226.49308 133.776432 
L 227.879703 133.423104 
L 229.728533 133.167102 
L 231.115155 132.800565 
L 233.426193 132.600456 
L 234.350608 132.407426 
L 236.661645 132.19827 
L 237.58606 131.9762 
L 239.43489 131.754492 
L 240.821513 131.412404 
L 243.13255 131.169999 
L 244.056965 130.920525 
L 245.905795 130.691005 
L 247.292418 130.414592 
L 249.603455 130.206205 
L 250.52787 130.098036 
L 253.763323 129.957261 
L 256.07436 129.785622 
L 256.998775 129.60812 
L 259.309813 129.443423 
L 260.234228 129.26027 
L 262.083058 129.041938 
L 263.46968 128.746762 
L 265.31851 128.551167 
L 266.705133 128.255763 
L 268.553963 128.034635 
L 269.940585 127.736878 
L 272.251622 127.495828 
L 273.176037 127.391082 
L 278.722527 126.984164 
L 279.646942 126.858503 
L 281.95798 126.658383 
L 282.882395 126.508773 
L 284.731225 126.342226 
L 286.117847 126.148931 
L 290.739922 125.945122 
L 294.437582 125.424592 
L 295.824205 125.075844 
L 297.673035 124.852775 
L 299.059657 124.524292 
L 300.908487 124.30681 
L 302.29511 123.975598 
L 304.606147 123.762342 
L 305.530562 123.545821 
L 307.379392 123.305391 
L 308.766015 122.945056 
L 310.614845 122.716599 
L 312.001467 122.394166 
L 313.850297 122.200656 
L 315.23692 121.92938 
L 317.08575 121.765623 
L 318.472372 121.508033 
L 321.245617 121.249125 
L 321.707825 121.15614 
L 323.556655 120.956234 
L 324.943277 120.663772 
L 326.792107 120.46459 
L 328.17873 120.169198 
L 330.02756 119.968405 
L 331.414182 119.661823 
L 333.263012 119.479209 
L 334.649634 119.071998 
L 336.498464 118.78956 
L 337.885087 118.37078 
L 339.733917 118.084035 
L 341.120539 117.621226 
L 342.969369 117.307631 
L 344.355992 116.840202 
L 346.204822 116.51398 
L 347.591444 115.976713 
L 349.440274 115.790455 
L 350.826897 115.275451 
L 352.213519 115.120424 
L 354.062349 114.447528 
L 355.911179 114.147141 
L 357.297802 113.696672 
L 359.146632 113.384645 
L 360.533254 112.904088 
L 361.919877 112.735874 
L 363.768707 112.058206 
L 365.617537 111.740265 
L 367.004159 111.329156 
L 368.852989 111.047064 
L 370.239612 110.635613 
L 372.088442 110.34969 
L 373.475064 109.961019 
L 375.323894 109.726602 
L 376.710517 109.352773 
L 378.559347 109.174491 
L 379.945969 108.86899 
L 382.719214 108.629962 
L 383.181422 108.564915 
L 396.123232 108.244021 
L 399.358684 108.339883 
L 408.602834 108.766577 
L 412.300494 108.952038 
L 423.855681 109.05011 
L 437.259699 108.714963 
L 453.436961 107.33826 
L 453.899169 107.264128 
L 456.210206 107.107834 
L 457.596829 106.877971 
L 459.907866 106.652362 
L 460.832281 106.482295 
L 463.143318 106.263785 
L 464.067733 106.141033 
L 466.840978 105.975695 
L 469.152016 105.86877 
L 472.387468 105.777793 
L 473.774091 105.727965 
L 473.774091 105.727965 
" clip-path="url(#p9a85dd960f)" style="fill: none; stroke-dasharray: 3,4.95; stroke-dashoffset: 0; stroke: #fb8072; stroke-width: 3"/>
   </g>
   <g id="line2d_19">
    <path d="M 67.955909 173.369564 
L 68.418117 173.443874 
L 68.880324 173.232322 
L 69.342532 172.743604 
L 70.729154 172.188228 
L 71.653569 171.394834 
L 72.577984 171.035675 
L 74.426814 170.799333 
L 75.813437 170.332525 
L 77.662267 170.107147 
L 79.048889 169.414849 
L 80.897719 169.136408 
L 82.284341 167.361938 
L 83.670964 166.771155 
L 85.519794 164.386873 
L 86.906416 163.807557 
L 88.755246 161.42511 
L 90.604076 160.853918 
L 91.990699 159.333932 
L 93.377321 158.877054 
L 94.301736 157.895477 
L 95.226151 156.927726 
L 96.612774 156.483777 
L 97.999396 155.321426 
L 98.461604 154.968079 
L 99.848226 154.628786 
L 101.697056 153.284093 
L 103.083679 152.924277 
L 104.932509 151.75662 
L 106.319131 151.488848 
L 108.167961 150.058807 
L 109.554584 149.744176 
L 110.941206 148.822071 
L 111.403414 148.570823 
L 113.252244 148.170623 
L 114.176659 147.873802 
L 116.487696 147.592048 
L 117.412111 147.325912 
L 117.874319 147.172953 
L 119.260941 146.974237 
L 120.647564 146.380433 
L 121.109771 146.209601 
L 122.496394 145.934234 
L 124.345224 144.790313 
L 125.731846 144.32565 
L 127.580676 142.38582 
L 128.967299 141.880515 
L 129.429506 141.400395 
L 130.353921 140.781506 
L 130.816129 140.42734 
L 132.202751 140.051313 
L 134.051581 138.710637 
L 135.900411 138.402015 
L 137.287034 137.521039 
L 138.673656 137.242509 
L 140.060279 136.353962 
L 140.522486 136.291199 
L 142.833524 136.45321 
L 143.757938 136.725298 
L 146.068976 136.845896 
L 146.993391 136.90408 
L 148.842221 137.043059 
L 149.766636 137.175075 
L 150.228843 137.263171 
L 153.002088 137.572831 
L 153.464296 137.642683 
L 156.237541 137.649435 
L 156.699748 137.545911 
L 158.548578 137.293314 
L 159.935201 136.870942 
L 161.321823 136.683872 
L 162.708446 136.142446 
L 163.170653 136.068419 
L 165.019483 135.935466 
L 166.406106 135.040377 
L 167.792728 134.673793 
L 169.179351 133.625048 
L 169.641558 133.326884 
L 171.028181 132.955385 
L 171.952596 132.147622 
L 172.877011 131.635528 
L 174.263633 131.408006 
L 176.112463 130.228938 
L 177.499086 129.895402 
L 179.347916 128.372484 
L 181.196746 128.073628 
L 182.121161 127.536666 
L 182.583368 127.382529 
L 183.969991 127.134175 
L 184.894406 126.74594 
L 185.818821 126.459083 
L 188.592066 126.262217 
L 189.054273 126.382748 
L 192.289726 126.733022 
L 196.911801 126.770414 
L 198.760631 126.575629 
L 200.147253 126.40841 
L 201.071668 126.072851 
L 204.769328 125.867396 
L 205.231536 125.609626 
L 206.618158 125.233023 
L 208.466988 123.508523 
L 209.85361 122.932348 
L 211.70244 120.622533 
L 213.089063 120.120991 
L 214.475685 119.058654 
L 214.937893 118.738157 
L 216.324515 118.433589 
L 217.24893 117.569756 
L 218.173345 117.12574 
L 219.559968 116.725843 
L 220.484383 116.156368 
L 221.408798 115.607592 
L 222.79542 115.402684 
L 224.64425 114.704818 
L 226.030873 114.427087 
L 227.879703 113.411138 
L 229.266325 113.040996 
L 231.115155 111.895203 
L 233.426193 111.658184 
L 234.350608 111.465042 
L 236.199438 111.298976 
L 237.58606 110.708974 
L 238.972683 110.49105 
L 240.821513 109.564957 
L 242.670343 109.318389 
L 244.056965 108.343278 
L 245.443588 108.105392 
L 246.368003 107.746823 
L 247.292418 107.704263 
L 249.141248 107.929679 
L 250.065663 108.131707 
L 250.52787 108.476402 
L 252.3767 109.182988 
L 252.838908 109.53114 
L 253.763323 110.428378 
L 256.07436 110.720045 
L 256.998775 110.35742 
L 259.309813 110.103604 
L 261.62085 109.313632 
L 262.545265 108.650236 
L 263.46968 108.209228 
L 264.856303 107.957104 
L 266.705133 106.969588 
L 268.091755 106.58244 
L 269.478378 105.765211 
L 269.940585 105.543074 
L 272.251622 105.338275 
L 272.71383 105.450703 
L 273.176037 105.69653 
L 274.56266 105.660983 
L 275.949282 106.095704 
L 279.646942 106.393358 
L 281.495772 106.357762 
L 282.420187 106.212423 
L 282.882395 106.092421 
L 284.269017 105.938092 
L 285.193432 105.489501 
L 285.65564 105.459138 
L 286.117847 105.67819 
L 287.50447 105.906929 
L 289.3533 107.020625 
L 291.20213 107.256031 
L 292.126545 106.821606 
L 292.588752 106.364251 
L 293.975375 105.874482 
L 295.361997 104.216506 
L 295.824205 103.645331 
L 297.210827 103.106951 
L 299.059657 101.268489 
L 300.44628 100.81944 
L 302.29511 99.09396 
L 304.14394 98.701205 
L 305.530562 97.55711 
L 306.917185 97.071511 
L 308.766015 95.101157 
L 310.152637 94.710611 
L 311.53926 93.606077 
L 312.001467 93.344298 
L 313.850297 92.958445 
L 315.23692 92.584078 
L 317.08575 92.512239 
L 321.707825 91.766341 
L 323.094447 91.498389 
L 324.943277 90.560062 
L 326.3299 90.316299 
L 328.17873 89.361607 
L 329.565352 89.129195 
L 331.414182 88.051559 
L 333.263012 87.777214 
L 333.72522 87.244403 
L 334.649634 85.797535 
L 336.036257 85.057894 
L 337.885087 82.47413 
L 339.271709 81.816479 
L 340.658332 79.724091 
L 341.120539 78.840992 
L 342.507162 78.05906 
L 344.355992 75.15982 
L 345.742614 74.400901 
L 346.667029 72.712257 
L 347.591444 70.776323 
L 349.440274 69.779902 
L 350.364689 68.114243 
L 350.826897 67.447352 
L 352.213519 66.905604 
L 354.062349 64.155269 
L 355.448972 63.728544 
L 357.297802 62.051644 
L 358.684424 61.584948 
L 360.533254 59.503869 
L 361.919877 58.885442 
L 363.306499 56.880086 
L 363.768707 56.443909 
L 365.155329 56.039867 
L 365.617537 55.538844 
L 366.541952 55.380366 
L 367.004159 55.067526 
L 368.390782 54.931441 
L 369.315197 54.371876 
L 369.777404 54.303824 
L 370.239612 54.12169 
L 371.626234 53.898004 
L 372.088442 53.607809 
L 372.550649 53.595771 
L 373.012857 53.418032 
L 373.475064 53.368636 
L 375.323894 53.519324 
L 376.248309 53.119692 
L 376.710517 53.39056 
L 378.097139 53.861372 
L 378.559347 54.241784 
L 379.483762 54.564353 
L 379.945969 54.873135 
L 381.332592 55.53787 
L 383.181422 58.430634 
L 384.568044 59.283125 
L 385.492459 61.539106 
L 386.416874 62.779815 
L 387.803497 63.901152 
L 388.727912 65.831483 
L 389.652327 67.549146 
L 391.038949 68.165124 
L 391.501157 69.050067 
L 392.425572 69.979639 
L 392.887779 71.10141 
L 394.274402 72.150281 
L 396.123232 76.187495 
L 397.509854 77.284392 
L 398.434269 79.415262 
L 399.358684 82.098573 
L 401.669721 84.73805 
L 402.594136 86.935022 
L 403.980759 87.929006 
L 404.905174 88.887015 
L 405.829589 91.60093 
L 407.216211 92.803306 
L 408.140626 94.8131 
L 409.065041 96.634591 
L 410.451664 97.611563 
L 411.376079 99.197934 
L 412.300494 100.529204 
L 414.149324 101.273081 
L 415.535946 103.215204 
L 416.922569 103.77219 
L 417.384776 104.369412 
L 418.771399 104.880361 
L 420.158021 104.857009 
L 421.082436 104.606505 
L 427.553341 104.457251 
L 428.477756 104.331222 
L 430.326586 104.054941 
L 431.713209 103.664903 
L 433.562039 103.328285 
L 434.486454 103.166063 
L 436.335284 102.841118 
L 437.721906 101.747192 
L 438.184114 101.262848 
L 439.570736 100.725382 
L 440.495151 99.744758 
L 441.419566 98.424433 
L 442.806189 97.945901 
L 444.192811 96.67071 
L 444.655019 96.202621 
L 446.041641 95.702307 
L 447.890471 93.260721 
L 449.277094 92.532798 
L 451.125924 89.921139 
L 452.512546 89.324748 
L 453.436961 88.04587 
L 453.899169 87.341422 
L 455.747999 86.634108 
L 457.134621 84.420728 
L 457.596829 83.808937 
L 458.983451 83.204674 
L 459.445659 82.758824 
L 460.832281 80.482411 
L 462.218903 79.840582 
L 463.605526 78.684184 
L 464.067733 78.471022 
L 469.152016 79.321537 
L 470.076431 79.989513 
L 470.538638 80.38809 
L 472.387468 80.800913 
L 473.774091 82.105563 
L 473.774091 82.105563 
" clip-path="url(#p9a85dd960f)" style="fill: none; stroke-dasharray: 11.1,4.8; stroke-dashoffset: 0; stroke: #b3de69; stroke-width: 3"/>
   </g>
   <g id="line2d_20">
    <path d="M 85.519794 165.801083 
L 86.906416 165.075723 
L 88.755246 162.031285 
L 90.604076 161.287093 
L 91.990699 159.077319 
L 93.377321 158.360317 
L 94.763944 155.996965 
L 95.226151 155.166131 
L 96.612774 154.348884 
L 98.461604 151.430326 
L 99.848226 150.675678 
L 101.697056 148.798376 
L 103.083679 148.366392 
L 104.932509 146.989374 
L 106.319131 146.748649 
L 108.167961 145.426571 
L 109.554584 145.156382 
L 110.941206 144.238364 
L 111.403414 143.978107 
L 113.714451 143.648117 
L 114.176659 143.577684 
L 116.487696 143.392038 
L 119.260941 142.855297 
L 120.647564 142.409534 
L 122.496394 142.04312 
L 124.345224 140.965091 
L 125.731846 140.586788 
L 127.118469 139.348537 
L 127.580676 138.812302 
L 128.967299 138.337093 
L 129.429506 137.840272 
L 130.353921 137.138937 
L 130.816129 136.706078 
L 132.202751 136.172117 
L 134.051581 134.062728 
L 135.900411 133.502118 
L 137.287034 132.066873 
L 138.673656 131.654753 
L 140.060279 130.191128 
L 140.522486 130.067889 
L 142.833524 130.156437 
L 143.295731 130.323443 
L 143.757938 130.740617 
L 145.144561 131.030338 
L 146.068976 131.677274 
L 146.993391 132.497319 
L 148.380013 132.895661 
L 149.766636 133.829031 
L 150.228843 134.239753 
L 152.539881 135.047943 
L 153.464296 135.897976 
L 154.850918 136.253933 
L 156.699748 137.378159 
L 158.086371 137.579315 
L 159.010786 137.96108 
L 159.472993 137.904602 
L 159.935201 137.704478 
L 161.321823 137.47837 
L 163.170653 136.314223 
L 164.557276 136.161153 
L 165.019483 135.988744 
L 166.406106 134.694714 
L 167.792728 134.071838 
L 169.641558 131.673427 
L 171.028181 130.997919 
L 171.952596 129.475875 
L 172.877011 128.402182 
L 174.263633 127.903805 
L 175.650256 126.479611 
L 176.112463 126.050774 
L 177.499086 125.594554 
L 179.347916 123.471281 
L 181.196746 123.090547 
L 182.583368 121.649584 
L 185.818821 120.605897 
L 188.129858 120.674948 
L 188.592066 120.845259 
L 189.054273 121.174218 
L 190.440896 121.63077 
L 190.903103 121.953294 
L 192.289726 122.40724 
L 193.676348 122.654418 
L 195.525178 123.562836 
L 196.911801 123.856054 
L 198.760631 125.016546 
L 201.071668 125.088028 
L 201.996083 125.506933 
L 204.769328 125.897791 
L 206.618158 125.277188 
L 208.00478 123.280459 
L 208.466988 122.479946 
L 209.85361 121.650161 
L 211.70244 118.064838 
L 213.089063 117.188839 
L 214.937893 114.63498 
L 216.324515 114.053423 
L 217.24893 112.547098 
L 218.173345 111.896 
L 219.559968 111.306592 
L 221.408798 108.82995 
L 222.79542 108.277699 
L 223.719835 107.196522 
L 224.182043 106.913079 
L 224.64425 106.777809 
L 226.030873 106.602445 
L 226.955288 106.179868 
L 231.115155 106.083819 
L 234.350608 106.092177 
L 236.661645 106.035174 
L 237.58606 106.113247 
L 239.43489 106.048585 
L 240.821513 105.456379 
L 242.670343 105.190876 
L 244.056965 103.99272 
L 246.83021 103.436797 
L 247.292418 103.466417 
L 248.67904 103.716585 
L 249.603455 104.404106 
L 250.065663 104.677618 
L 250.52787 105.280613 
L 252.3767 106.364045 
L 252.838908 106.825318 
L 253.763323 107.993276 
L 255.149945 108.363187 
L 256.07436 108.87015 
L 256.998775 108.975974 
L 259.309813 109.15501 
L 260.234228 109.276168 
L 262.083058 109.129376 
L 264.856303 109.242858 
L 265.780718 108.919477 
L 266.242925 108.664116 
L 266.705133 108.134351 
L 268.091755 107.490754 
L 269.478378 105.680389 
L 269.940585 104.753838 
L 271.327207 104.213949 
L 272.71383 102.311906 
L 275.024867 101.82589 
L 275.949282 102.291307 
L 279.184735 102.768982 
L 279.646942 103.211423 
L 282.882395 104.043481 
L 284.269017 104.077823 
L 285.193432 103.905064 
L 285.65564 104.204367 
L 286.117847 104.872024 
L 287.50447 105.486157 
L 288.891092 107.337475 
L 289.3533 107.879112 
L 291.20213 108.385533 
L 291.664337 108.064583 
L 292.588752 107.105264 
L 293.975375 106.402898 
L 295.824205 102.921458 
L 297.210827 102.200959 
L 297.673035 101.602335 
L 298.59745 100.00811 
L 299.059657 99.433722 
L 300.44628 98.769545 
L 302.29511 96.590335 
L 304.14394 96.141092 
L 304.606147 95.497478 
L 305.530562 93.511048 
L 306.917185 92.273007 
L 308.766015 87.265693 
L 310.152637 86.311778 
L 311.077052 85.017083 
L 311.53926 84.695433 
L 312.001467 84.511186 
L 313.850297 84.408143 
L 315.23692 84.791482 
L 317.08575 85.127225 
L 318.472372 85.385384 
L 319.858995 85.38451 
L 320.321202 85.57103 
L 321.707825 85.711528 
L 324.943277 85.423905 
L 326.792107 85.6291 
L 327.254315 85.757236 
L 330.02756 85.671468 
L 331.414182 85.184404 
L 333.263012 84.848643 
L 333.72522 84.176457 
L 334.649634 82.153045 
L 336.036257 81.120164 
L 337.885087 77.368674 
L 339.271709 76.293093 
L 341.120539 72.12219 
L 342.507162 70.934683 
L 344.355992 66.74598 
L 345.742614 65.560554 
L 346.667029 63.009808 
L 347.591444 60.093016 
L 349.440274 58.653102 
L 350.826897 54.526281 
L 352.213519 53.319085 
L 352.675727 52.349834 
L 353.137934 51.743902 
L 354.062349 50.287412 
L 355.448972 49.804194 
L 357.297802 47.987044 
L 358.684424 47.523165 
L 359.146632 47.020923 
L 360.071047 46.411808 
L 360.533254 45.979124 
L 361.919877 45.465726 
L 363.306499 43.672094 
L 363.768707 43.403461 
L 365.617537 43.067735 
L 366.079744 43.431893 
L 366.541952 43.9864 
L 367.004159 44.250329 
L 368.852989 44.689972 
L 369.777404 44.791267 
L 370.239612 44.982508 
L 371.626234 45.000798 
L 372.088442 45.155774 
L 372.550649 45.524128 
L 373.012857 45.443414 
L 374.861687 45.781955 
L 375.323894 46.064192 
L 376.248309 45.953123 
L 376.710517 46.570771 
L 378.097139 47.361859 
L 379.021554 48.917196 
L 379.483762 49.675534 
L 379.945969 50.688167 
L 381.332592 52.253261 
L 383.181422 57.986127 
L 384.568044 59.241094 
L 385.492459 62.669046 
L 386.416874 64.539213 
L 387.803497 66.512581 
L 388.265704 68.461713 
L 389.190119 71.556143 
L 389.652327 73.298717 
L 391.038949 74.865034 
L 391.501157 76.452772 
L 392.425572 78.322939 
L 392.887779 80.30867 
L 394.274402 82.077192 
L 395.198817 85.997944 
L 396.123232 89.870418 
L 397.509854 91.429934 
L 397.972062 92.989974 
L 399.358684 99.477331 
L 401.669721 102.954278 
L 402.594136 105.731429 
L 403.980759 107.241076 
L 404.905174 108.420208 
L 405.829589 111.092252 
L 407.216211 112.120255 
L 409.065041 116.305478 
L 410.451664 117.510576 
L 410.913871 118.849579 
L 411.838286 120.562497 
L 412.300494 121.055315 
L 414.149324 121.74322 
L 415.535946 123.613387 
L 416.922569 124.000923 
L 417.384776 124.391239 
L 417.846984 124.426613 
L 418.309191 124.191797 
L 418.771399 123.782667 
L 420.158021 122.91611 
L 420.620229 121.762594 
L 422.006851 119.788195 
L 423.393474 119.26469 
L 423.855681 118.68663 
L 424.780096 116.492593 
L 425.242304 115.511836 
L 427.091134 114.629053 
L 428.477756 112.144735 
L 429.864379 111.091797 
L 431.251001 108.53098 
L 431.713209 107.733264 
L 433.099831 106.74936 
L 434.024246 104.852877 
L 434.948661 103.467327 
L 436.335284 102.413358 
L 438.184114 99.621868 
L 439.570736 99.003713 
L 440.032944 98.451462 
L 440.495151 97.690694 
L 441.419566 95.729706 
L 442.806189 94.972434 
L 444.192811 92.743495 
L 444.655019 91.937596 
L 446.041641 91.123846 
L 447.890471 87.332279 
L 449.277094 86.262433 
L 450.663716 83.080995 
L 451.125924 82.092562 
L 452.512546 81.044871 
L 453.899169 77.573711 
L 455.747999 76.573441 
L 456.672414 74.489389 
L 457.596829 72.987383 
L 458.983451 72.221229 
L 459.907866 71.036712 
L 460.832281 69.29538 
L 462.218903 68.37703 
L 463.605526 66.711009 
L 464.067733 66.427198 
L 465.454356 66.74883 
L 468.689808 68.53984 
L 469.614223 69.759451 
L 470.538638 71.373697 
L 472.387468 72.23555 
L 473.774091 75.57074 
L 473.774091 75.57074 
" clip-path="url(#p9a85dd960f)" style="fill: none; stroke-dasharray: 19.2,4.8,3,4.8; stroke-dashoffset: 0; stroke: #fdb462; stroke-width: 3"/>
   </g>
   <g id="patch_3">
    <path d="M 47.665 208.50375 
L 47.665 12.66375 
" style="fill: none; stroke: #000000; stroke-width: 0.6; stroke-linejoin: miter; stroke-linecap: square"/>
   </g>
   <g id="patch_4">
    <path d="M 47.665 208.50375 
L 494.065 208.50375 
" style="fill: none; stroke: #000000; stroke-width: 0.6; stroke-linejoin: miter; stroke-linecap: square"/>
   </g>
   <g id="legend_1">
    <g id="patch_5">
     <path d="M 56.065 81.8925 
L 185.306875 81.8925 
Q 187.706875 81.8925 187.706875 79.4925 
L 187.706875 21.06375 
Q 187.706875 18.66375 185.306875 18.66375 
L 56.065 18.66375 
Q 53.665 18.66375 53.665 21.06375 
L 53.665 79.4925 
Q 53.665 81.8925 56.065 81.8925 
z
" style="fill: #ffffff; opacity: 0.8; stroke: #e6e6e6; stroke-width: 0.8; stroke-linejoin: miter"/>
    </g>
    <g id="line2d_21">
     <path d="M 56.065 25.26375 
L 68.065 25.26375 
L 80.065 25.26375 
" style="fill: none; stroke: #bc80bd; stroke-opacity: 0.5; stroke-width: 3; stroke-linecap: square"/>
    </g>
    <g id="text_19">
     <!-- Raw -->
     <g style="fill: #323034" transform="translate(89.665 29.46375) scale(0.12 -0.12)">
      <defs>
       <path id="STIXGeneral-Regular-52" d="M 4224 0 
L 3187 0 
L 1664 1971 
L 1306 1958 
L 1306 717 
Q 1306 352 1405 249 
Q 1504 147 1875 122 
L 1875 0 
L 109 0 
L 109 122 
Q 474 154 563 262 
Q 653 371 653 794 
L 653 3526 
Q 653 3885 563 3987 
Q 474 4090 109 4115 
L 109 4237 
L 1850 4237 
Q 2726 4237 3187 3859 
Q 3501 3603 3501 3091 
Q 3501 2221 2342 2042 
L 3622 422 
Q 3757 256 3878 198 
Q 4000 141 4224 122 
L 4224 0 
z
M 1306 3731 
L 1306 2195 
Q 1766 2202 1990 2246 
Q 2214 2291 2438 2413 
Q 2803 2618 2803 3142 
Q 2803 4000 1632 4000 
Q 1459 4000 1382 3945 
Q 1306 3891 1306 3731 
z
" transform="scale(0.015625)"/>
       <path id="STIXGeneral-Regular-77" d="M 4442 2880 
L 4442 2784 
Q 4346 2752 4301 2691 
Q 4256 2630 4179 2438 
L 3296 224 
Q 3168 -90 3117 -90 
Q 3085 -90 3062 -48 
Q 3040 -6 2963 186 
L 2381 1696 
L 1664 160 
Q 1549 -90 1504 -90 
Q 1446 -90 1338 192 
L 474 2381 
Q 378 2630 314 2700 
Q 250 2771 134 2784 
L 134 2880 
L 1286 2880 
L 1286 2784 
Q 1120 2765 1056 2720 
Q 992 2675 992 2573 
Q 992 2477 1030 2381 
L 1664 710 
L 2246 1984 
L 2118 2342 
Q 2029 2598 1942 2681 
Q 1856 2765 1677 2784 
L 1677 2880 
L 2976 2880 
L 2976 2784 
Q 2752 2752 2678 2707 
Q 2605 2662 2605 2560 
Q 2605 2458 2714 2176 
L 3251 742 
L 3827 2163 
Q 3936 2432 3936 2592 
Q 3936 2669 3875 2710 
Q 3814 2752 3654 2784 
L 3654 2880 
L 4442 2880 
z
" transform="scale(0.015625)"/>
      </defs>
      <use xlink:href="#STIXGeneral-Regular-52"/>
      <use xlink:href="#STIXGeneral-Regular-61" x="66.699997"/>
      <use xlink:href="#STIXGeneral-Regular-77" x="111.099991"/>
     </g>
    </g>
    <g id="line2d_22">
     <path d="M 56.065 41.068125 
L 68.065 41.068125 
L 80.065 41.068125 
" style="fill: none; stroke-dasharray: 3,4.95; stroke-dashoffset: 0; stroke: #fb8072; stroke-width: 3"/>
    </g>
    <g id="text_20">
     <!-- Expanding Average -->
     <g style="fill: #323034" transform="translate(89.665 45.268125) scale(0.12 -0.12)">
      <defs>
       <path id="STIXGeneral-Regular-45" d="M 3821 1082 
L 3526 0 
L 77 0 
L 77 122 
Q 442 147 538 252 
Q 634 358 634 730 
L 634 3520 
Q 634 3878 534 3987 
Q 435 4096 77 4115 
L 77 4237 
L 3469 4237 
L 3494 3322 
L 3334 3322 
Q 3264 3750 3085 3872 
Q 2906 3994 2349 3994 
L 1510 3994 
Q 1370 3994 1328 3952 
Q 1286 3910 1286 3763 
L 1286 2355 
L 2253 2355 
Q 2656 2355 2787 2470 
Q 2918 2586 2976 2970 
L 3123 2970 
L 3123 1472 
L 2976 1472 
Q 2918 1875 2790 1984 
Q 2662 2093 2253 2093 
L 1286 2093 
L 1286 538 
Q 1286 346 1420 291 
Q 1555 237 1933 237 
L 2163 237 
Q 2848 237 3136 403 
Q 3424 570 3642 1082 
L 3821 1082 
z
" transform="scale(0.015625)"/>
       <path id="STIXGeneral-Regular-78" d="M 3066 0 
L 1779 0 
L 1779 96 
Q 1939 109 1987 137 
Q 2035 166 2035 250 
Q 2035 307 1997 365 
L 1414 1261 
L 909 474 
Q 781 275 781 211 
Q 781 96 1037 96 
L 1037 0 
L 109 0 
L 109 96 
Q 269 109 355 169 
Q 442 230 576 422 
L 1306 1478 
L 704 2400 
Q 557 2624 454 2704 
Q 352 2784 211 2784 
L 154 2784 
L 154 2880 
L 1478 2880 
L 1478 2784 
Q 1203 2778 1203 2643 
Q 1203 2509 1498 2074 
Q 1581 1958 1587 1946 
Q 1619 1990 1779 2227 
Q 1811 2285 1856 2349 
Q 1901 2413 1923 2451 
Q 1946 2490 1971 2528 
Q 1997 2566 2006 2595 
Q 2016 2624 2016 2643 
Q 2016 2765 1760 2784 
L 1760 2880 
L 2771 2880 
L 2771 2784 
Q 2445 2771 2253 2502 
L 1722 1734 
L 2541 480 
Q 2790 96 3066 96 
L 3066 0 
z
" transform="scale(0.015625)"/>
       <path id="STIXGeneral-Regular-70" d="M 1018 2931 
L 1018 2438 
Q 1421 2944 1939 2944 
Q 2406 2944 2707 2560 
Q 3008 2176 3008 1581 
Q 3008 883 2621 409 
Q 2234 -64 1664 -64 
Q 1466 -64 1328 -6 
Q 1190 51 1018 211 
L 1018 -794 
Q 1018 -1094 1120 -1180 
Q 1222 -1267 1581 -1274 
L 1581 -1389 
L 32 -1389 
L 32 -1280 
Q 314 -1254 397 -1171 
Q 480 -1088 480 -838 
L 480 2157 
Q 480 2381 429 2451 
Q 378 2522 218 2522 
Q 115 2522 58 2515 
L 58 2618 
Q 506 2752 979 2944 
L 1018 2931 
z
M 1018 2138 
L 1018 563 
Q 1018 422 1238 281 
Q 1459 141 1683 141 
Q 2029 141 2243 467 
Q 2458 794 2458 1325 
Q 2458 1888 2243 2224 
Q 2029 2560 1670 2560 
Q 1446 2560 1232 2419 
Q 1018 2278 1018 2138 
z
" transform="scale(0.015625)"/>
       <path id="STIXGeneral-Regular-6e" d="M 3104 0 
L 1773 0 
L 1779 96 
Q 2016 115 2096 233 
Q 2176 352 2176 672 
L 2176 1946 
Q 2176 2592 1709 2592 
Q 1549 2592 1408 2515 
Q 1267 2438 1050 2227 
L 1050 461 
Q 1050 269 1136 192 
Q 1222 115 1466 96 
L 1466 0 
L 115 0 
L 115 96 
Q 358 115 435 214 
Q 512 314 512 602 
L 512 2157 
Q 512 2394 467 2483 
Q 422 2573 288 2573 
Q 160 2573 102 2547 
L 102 2656 
Q 550 2784 979 2944 
L 1030 2925 
L 1030 2426 
L 1037 2426 
Q 1491 2944 1958 2944 
Q 2323 2944 2518 2688 
Q 2714 2432 2714 1958 
L 2714 544 
Q 2714 288 2790 205 
Q 2867 122 3104 96 
L 3104 0 
z
" transform="scale(0.015625)"/>
       <path id="STIXGeneral-Regular-64" d="M 3142 269 
L 2202 -64 
L 2176 -45 
L 2176 365 
Q 1869 -64 1357 -64 
Q 826 -64 499 317 
Q 173 698 173 1312 
Q 173 1990 563 2467 
Q 954 2944 1504 2944 
Q 1850 2944 2176 2669 
L 2176 3667 
Q 2176 3866 2118 3930 
Q 2061 3994 1882 3994 
Q 1792 3994 1741 3987 
L 1741 4090 
Q 2323 4243 2682 4371 
L 2714 4358 
L 2714 730 
Q 2714 506 2768 435 
Q 2822 365 2995 365 
Q 3034 365 3142 371 
L 3142 269 
z
M 2176 653 
L 2176 2125 
Q 2176 2381 1981 2573 
Q 1786 2765 1523 2765 
Q 1158 2765 940 2438 
Q 723 2112 723 1568 
Q 723 979 963 624 
Q 1203 269 1606 269 
Q 1907 269 2080 474 
Q 2176 582 2176 653 
z
" transform="scale(0.015625)"/>
       <path id="STIXGeneral-Regular-69" d="M 1152 4045 
Q 1152 3904 1056 3811 
Q 960 3718 819 3718 
Q 685 3718 592 3811 
Q 499 3904 499 4045 
Q 499 4179 595 4275 
Q 691 4371 826 4371 
Q 966 4371 1059 4275 
Q 1152 4179 1152 4045 
z
M 1619 0 
L 102 0 
L 102 96 
Q 435 115 521 211 
Q 608 307 608 666 
L 608 2118 
Q 608 2342 563 2432 
Q 518 2522 397 2522 
Q 243 2522 128 2490 
L 128 2592 
L 1120 2944 
L 1146 2918 
L 1146 672 
Q 1146 314 1226 218 
Q 1306 122 1619 96 
L 1619 0 
z
" transform="scale(0.015625)"/>
       <path id="STIXGeneral-Regular-67" d="M 3008 2483 
L 2477 2483 
Q 2598 2208 2598 1946 
Q 2598 1453 2265 1203 
Q 1933 954 1600 954 
Q 1530 954 1357 973 
L 1235 986 
Q 1107 947 979 812 
Q 851 678 851 582 
Q 851 435 1350 410 
L 2176 371 
Q 2528 358 2739 172 
Q 2950 -13 2950 -314 
Q 2950 -685 2566 -986 
Q 2035 -1395 1286 -1395 
Q 826 -1395 502 -1212 
Q 179 -1030 179 -774 
Q 179 -595 320 -419 
Q 461 -243 806 6 
Q 602 102 534 172 
Q 467 243 467 346 
Q 467 531 762 787 
Q 909 915 1037 1043 
Q 717 1203 579 1401 
Q 442 1600 442 1901 
Q 442 2336 752 2640 
Q 1062 2944 1510 2944 
Q 1766 2944 2022 2848 
L 2163 2797 
Q 2349 2733 2515 2733 
L 3008 2733 
L 3008 2483 
z
M 973 2163 
L 973 2144 
Q 973 1683 1155 1398 
Q 1338 1114 1632 1114 
Q 1850 1114 1978 1270 
Q 2106 1427 2106 1690 
Q 2106 2112 1914 2464 
Q 1754 2765 1446 2765 
Q 1222 2765 1097 2605 
Q 973 2445 973 2163 
z
M 2771 -410 
Q 2771 -230 2595 -163 
Q 2419 -96 1978 -96 
Q 1344 -96 941 -13 
Q 749 -243 688 -348 
Q 627 -454 627 -563 
Q 627 -774 880 -902 
Q 1133 -1030 1555 -1030 
Q 2099 -1030 2435 -860 
Q 2771 -691 2771 -410 
z
" transform="scale(0.015625)"/>
       <path id="STIXGeneral-Regular-41" d="M 4525 0 
L 2893 0 
L 2893 122 
Q 3149 122 3245 179 
Q 3334 224 3334 333 
Q 3334 499 3213 781 
L 2950 1382 
L 1274 1382 
L 979 653 
Q 922 506 922 384 
Q 922 237 1027 179 
Q 1133 122 1370 122 
L 1370 0 
L 96 0 
L 96 122 
Q 365 147 486 316 
Q 608 486 902 1190 
L 2221 4314 
L 2349 4314 
L 3923 710 
Q 4064 378 4176 262 
Q 4288 147 4525 122 
L 4525 0 
z
M 2861 1645 
L 2118 3405 
L 1382 1645 
L 2861 1645 
z
" transform="scale(0.015625)"/>
       <path id="STIXGeneral-Regular-76" d="M 3053 2880 
L 3053 2784 
Q 2906 2771 2835 2688 
Q 2765 2605 2637 2285 
L 1818 230 
Q 1690 -90 1638 -90 
Q 1587 -90 1523 77 
Q 1510 96 1497 141 
Q 1485 186 1472 211 
L 704 2048 
Q 499 2534 403 2652 
Q 307 2771 122 2784 
L 122 2880 
L 1376 2880 
L 1376 2784 
Q 1210 2771 1146 2732 
Q 1082 2694 1082 2611 
Q 1082 2509 1139 2368 
L 1792 730 
L 2426 2387 
Q 2464 2483 2464 2579 
Q 2464 2758 2163 2784 
L 2163 2880 
L 3053 2880 
z
" transform="scale(0.015625)"/>
       <path id="STIXGeneral-Regular-72" d="M 1024 2931 
L 1024 2342 
Q 1267 2688 1430 2816 
Q 1594 2944 1792 2944 
Q 1958 2944 2051 2854 
Q 2144 2765 2144 2605 
Q 2144 2470 2077 2393 
Q 2010 2317 1894 2317 
Q 1773 2317 1638 2445 
Q 1536 2541 1472 2541 
Q 1338 2541 1181 2355 
Q 1024 2170 1024 2016 
L 1024 576 
Q 1024 301 1133 205 
Q 1242 109 1568 96 
L 1568 0 
L 32 0 
L 32 96 
Q 339 154 412 224 
Q 486 294 486 538 
L 486 2138 
Q 486 2349 438 2435 
Q 390 2522 269 2522 
Q 166 2522 45 2496 
L 45 2598 
Q 448 2726 992 2944 
L 1024 2931 
z
" transform="scale(0.015625)"/>
      </defs>
      <use xlink:href="#STIXGeneral-Regular-45"/>
      <use xlink:href="#STIXGeneral-Regular-78" x="61.099991"/>
      <use xlink:href="#STIXGeneral-Regular-70" x="111.099976"/>
      <use xlink:href="#STIXGeneral-Regular-61" x="161.09996"/>
      <use xlink:href="#STIXGeneral-Regular-6e" x="205.499954"/>
      <use xlink:href="#STIXGeneral-Regular-64" x="255.499939"/>
      <use xlink:href="#STIXGeneral-Regular-69" x="305.499924"/>
      <use xlink:href="#STIXGeneral-Regular-6e" x="333.299911"/>
      <use xlink:href="#STIXGeneral-Regular-67" x="383.299896"/>
      <use xlink:href="#STIXGeneral-Regular-20" x="433.299881"/>
      <use xlink:href="#STIXGeneral-Regular-41" x="458.299866"/>
      <use xlink:href="#STIXGeneral-Regular-76" x="530.499847"/>
      <use xlink:href="#STIXGeneral-Regular-65" x="580.499832"/>
      <use xlink:href="#STIXGeneral-Regular-72" x="624.899826"/>
      <use xlink:href="#STIXGeneral-Regular-61" x="658.199814"/>
      <use xlink:href="#STIXGeneral-Regular-67" x="702.599808"/>
      <use xlink:href="#STIXGeneral-Regular-65" x="752.599792"/>
     </g>
    </g>
    <g id="line2d_23">
     <path d="M 56.065 56.88375 
L 68.065 56.88375 
L 80.065 56.88375 
" style="fill: none; stroke-dasharray: 11.1,4.8; stroke-dashoffset: 0; stroke: #b3de69; stroke-width: 3"/>
    </g>
    <g id="text_21">
     <!-- EWMA ($\alpha=$0.03) -->
     <g style="fill: #323034" transform="translate(89.665 61.08375) scale(0.12 -0.12)">
      <defs>
       <path id="STIXGeneral-Regular-57" d="M 5965 4237 
L 5965 4115 
Q 5709 4064 5616 3990 
Q 5523 3917 5434 3667 
Q 4704 1709 4128 -70 
L 4032 -70 
Q 3642 1011 3008 2637 
L 2022 -70 
L 1926 -70 
Q 1709 576 1277 1753 
Q 845 2931 698 3347 
Q 538 3808 406 3958 
Q 275 4109 32 4115 
L 32 4237 
L 1594 4237 
L 1594 4115 
Q 1357 4109 1270 4064 
Q 1184 4019 1184 3917 
Q 1184 3808 1254 3616 
L 2176 1210 
L 2842 3021 
L 2662 3501 
Q 2509 3917 2400 4013 
Q 2291 4109 2010 4115 
L 2010 4237 
L 3706 4237 
L 3706 4115 
Q 3213 4102 3213 3891 
Q 3213 3808 3322 3520 
L 4237 1190 
L 5043 3360 
Q 5152 3667 5152 3853 
Q 5152 4109 4704 4115 
L 4704 4237 
L 5965 4237 
z
" transform="scale(0.015625)"/>
       <path id="STIXGeneral-Regular-4d" d="M 5530 0 
L 3738 0 
L 3738 122 
Q 4115 147 4214 265 
Q 4314 384 4314 787 
L 4314 3661 
L 2682 0 
L 2592 0 
L 979 3514 
L 979 966 
Q 979 448 1088 294 
Q 1197 141 1574 122 
L 1574 0 
L 77 0 
L 77 122 
Q 358 141 480 205 
Q 602 269 650 432 
Q 698 595 698 966 
L 698 3514 
Q 698 3878 589 3984 
Q 480 4090 90 4115 
L 90 4237 
L 1357 4237 
L 2835 1024 
L 4250 4237 
L 5523 4237 
L 5523 4115 
Q 5178 4109 5072 3993 
Q 4966 3878 4966 3520 
L 4966 717 
Q 4966 378 5072 262 
Q 5178 147 5530 122 
L 5530 0 
z
" transform="scale(0.015625)"/>
       <path id="STIXGeneral-Italic-3b1" d="M 3514 2739 
L 2605 1069 
L 2605 954 
Q 2605 704 2662 512 
Q 2720 320 2822 320 
Q 2970 320 3149 794 
L 3251 749 
Q 3014 -58 2605 -58 
Q 2291 -58 2272 614 
Q 1709 -70 1030 -70 
Q 589 -70 381 198 
Q 173 467 173 902 
Q 173 1293 329 1673 
Q 486 2054 755 2330 
Q 973 2547 1270 2684 
Q 1568 2822 1862 2822 
Q 2246 2822 2457 2595 
Q 2669 2368 2669 2061 
L 2963 2739 
L 3514 2739 
z
M 2298 1741 
Q 2298 2688 1805 2688 
Q 1472 2688 1085 2099 
Q 698 1510 698 800 
Q 698 493 806 278 
Q 915 64 1139 64 
Q 1606 64 2195 1286 
Q 2202 1325 2230 1411 
Q 2259 1498 2278 1581 
Q 2298 1664 2298 1741 
z
" transform="scale(0.015625)"/>
       <path id="STIXGeneral-Regular-3d" d="M 4077 2048 
L 307 2048 
L 307 2470 
L 4077 2470 
L 4077 2048 
z
M 4077 768 
L 307 768 
L 307 1190 
L 4077 1190 
L 4077 768 
z
" transform="scale(0.015625)"/>
       <path id="STIXGeneral-Regular-2e" d="M 1158 275 
Q 1158 134 1052 32 
Q 947 -70 800 -70 
Q 653 -70 550 32 
Q 448 134 448 281 
Q 448 429 553 534 
Q 659 640 806 640 
Q 947 640 1052 531 
Q 1158 422 1158 275 
z
" transform="scale(0.015625)"/>
      </defs>
      <use xlink:href="#STIXGeneral-Regular-45" transform="translate(0 0.40625)"/>
      <use xlink:href="#STIXGeneral-Regular-57" transform="translate(61.099991 0.40625)"/>
      <use xlink:href="#STIXGeneral-Regular-4d" transform="translate(155.499985 0.40625)"/>
      <use xlink:href="#STIXGeneral-Regular-41" transform="translate(244.399979 0.40625)"/>
      <use xlink:href="#STIXGeneral-Regular-20" transform="translate(316.59996 0.40625)"/>
      <use xlink:href="#STIXGeneral-Regular-28" transform="translate(341.599945 0.40625)"/>
      <use xlink:href="#STIXGeneral-Italic-3b1" transform="translate(374.899933 0.40625)"/>
      <use xlink:href="#STIXGeneral-Regular-3d" transform="translate(444.539926 0.40625)"/>
      <use xlink:href="#STIXGeneral-Regular-30" transform="translate(527.479907 0.40625)"/>
      <use xlink:href="#STIXGeneral-Regular-2e" transform="translate(577.479892 0.40625)"/>
      <use xlink:href="#STIXGeneral-Regular-30" transform="translate(602.479877 0.40625)"/>
      <use xlink:href="#STIXGeneral-Regular-33" transform="translate(652.479861 0.40625)"/>
      <use xlink:href="#STIXGeneral-Regular-29" transform="translate(702.479846 0.40625)"/>
     </g>
    </g>
    <g id="line2d_24">
     <path d="M 56.065 72.688125 
L 68.065 72.688125 
L 80.065 72.688125 
" style="fill: none; stroke-dasharray: 19.2,4.8,3,4.8; stroke-dashoffset: 0; stroke: #fdb462; stroke-width: 3"/>
    </g>
    <g id="text_22">
     <!-- 28D MA -->
     <g style="fill: #323034" transform="translate(89.665 76.888125) scale(0.12 -0.12)">
      <use xlink:href="#STIXGeneral-Regular-32"/>
      <use xlink:href="#STIXGeneral-Regular-38" x="49.999985"/>
      <use xlink:href="#STIXGeneral-Regular-44" x="99.999969"/>
      <use xlink:href="#STIXGeneral-Regular-20" x="172.199951"/>
      <use xlink:href="#STIXGeneral-Regular-4d" x="197.199936"/>
      <use xlink:href="#STIXGeneral-Regular-41" x="286.09993"/>
     </g>
    </g>
   </g>
  </g>
 </g>
 <defs>
  <clipPath id="p9a85dd960f">
   <rect x="47.665" y="12.66375" width="446.4" height="195.84"/>
  </clipPath>
 </defs>
</svg>