<?xml version="1.0" encoding="utf-8" standalone="no"?>
<!DOCTYPE svg PUBLIC "-//W3C//DTD SVG 1.1//EN"
  "http://www.w3.org/Graphics/SVG/1.1/DTD/svg11.dtd">
<svg xmlns:xlink="http://www.w3.org/1999/xlink" width="563.747504pt" height="277.005pt" viewBox="0 0 563.747504 277.005" xmlns="http://www.w3.org/2000/svg" version="1.1">
 <metadata>
  <rdf:RDF xmlns:dc="http://purl.org/dc/elements/1.1/" xmlns:cc="http://creativecommons.org/ns#" xmlns:rdf="http://www.w3.org/1999/02/22-rdf-syntax-ns#">
   <cc:Work>
    <dc:type rdf:resource="http://purl.org/dc/dcmitype/StillImage"/>
    <dc:date>2025-03-26T16:06:30.088442</dc:date>
    <dc:format>image/svg+xml</dc:format>
    <dc:creator>
     <cc:Agent>
      <dc:title>Matplotlib v3.10.0, https://matplotlib.org/</dc:title>
     </cc:Agent>
    </dc:creator>
   </cc:Work>
  </rdf:RDF>
 </metadata>
 <defs>
  <style type="text/css">*{stroke-linejoin: round; stroke-linecap: butt}</style>
 </defs>
 <g id="figure_1">
  <g id="patch_1">
   <path d="M 0 277.005 
L 563.747504 277.005 
L 563.747504 0 
L 0 0 
z
" style="fill: #ffffff"/>
  </g>
  <g id="axes_1">
   <g id="patch_2">
    <path d="M 39.9825 230.6225 
L 548.547504 230.6225 
L 548.547504 12.66375 
L 39.9825 12.66375 
z
" style="fill: #ffffff"/>
   </g>
   <g id="Quiver_1">
    <path d="M 166.861366 146.631963 
L 229.161033 161.008054 
L 228.360505 157.691749 
L 242.197632 165.582131 
L 226.302205 166.611515 
L 228.474933 163.981309 
L 166.175266 149.605218 
L 166.861366 146.631963 
" clip-path="url(#p4fb745bf10)" style="fill-opacity: 0.3"/>
    <path d="M 242.656066 164.126939 
L 244.695202 164.769335 
L 244.156878 161.400517 
L 257.333496 170.350433 
L 241.406274 170.131669 
L 243.778334 167.679719 
L 241.739198 167.037323 
L 242.656066 164.126939 
" clip-path="url(#p4fb745bf10)" style="fill-opacity: 0.3"/>
    <path d="M 257.012831 171.842049 
L 237.743914 167.699655 
L 238.5942 171.003552 
L 224.640031 163.322055 
L 240.518189 162.053854 
L 238.385243 164.716422 
L 257.65416 168.858816 
L 257.012831 171.842049 
" clip-path="url(#p4fb745bf10)" style="fill-opacity: 0.3"/>
    <path d="M 224.29573 164.808394 
L 204.373877 160.19362 
L 205.171613 163.510598 
L 191.341132 155.608571 
L 207.23742 154.592567 
L 205.062479 157.220943 
L 224.984332 161.835717 
L 224.29573 164.808394 
" clip-path="url(#p4fb745bf10)" style="fill-opacity: 0.3"/>
    <path d="M 191.016556 157.099342 
L 169.92372 152.506934 
L 170.765339 155.81305 
L 156.831364 148.094981 
L 172.712793 146.868429 
L 170.572872 149.525393 
L 191.665708 154.117801 
L 191.016556 157.099342 
" clip-path="url(#p4fb745bf10)" style="fill-opacity: 0.3"/>
    <path d="M 157.703718 146.843285 
L 156.183541 146.713652 
L 155.311186 147.965348 
L 155.959009 149.346677 
L 157.479187 149.47631 
L 158.351542 148.224615 
L 157.703718 146.843285 
L 156.183541 146.713652 
" clip-path="url(#p4fb745bf10)" style="fill-opacity: 0.3"/>
    <path d="M 157.719665 145.727031 
L 230.198174 159.401742 
L 229.264662 156.120389 
L 243.408501 163.446783 
L 227.567465 165.115851 
L 229.632441 162.40023 
L 157.153932 148.725519 
L 157.719665 145.727031 
" clip-path="url(#p4fb745bf10)" style="fill-opacity: 0.3"/>
    <path d="M 243.54667 161.927357 
L 482.94347 183.696775 
L 481.700381 180.519755 
L 496.480134 186.459714 
L 480.871372 189.63631 
L 482.667134 186.735627 
L 243.270333 164.966209 
L 243.54667 161.927357 
" clip-path="url(#p4fb745bf10)" style="fill-opacity: 0.3"/>
    <path d="M 495.964814 185.023681 
L 506.652464 181.188423 
L 504.185791 178.831677 
L 520.092081 177.986578 
L 507.27771 187.447875 
L 507.683104 184.060489 
L 496.995454 187.895747 
L 495.964814 185.023681 
" clip-path="url(#p4fb745bf10)" style="fill-opacity: 0.3"/>
    <path d="M 519.840806 179.491439 
L 484.344356 173.564393 
L 485.346666 176.82539 
L 471.051884 169.798056 
L 486.854318 167.796225 
L 484.846906 170.554672 
L 520.343356 176.481717 
L 519.840806 179.491439 
" clip-path="url(#p4fb745bf10)" style="fill-opacity: 0.3"/>
    <path d="M 470.889605 171.315096 
L 422.18321 166.104936 
L 423.375692 169.301295 
L 408.692128 163.127385 
L 424.349366 160.199054 
L 422.507768 163.070856 
L 471.214163 168.281016 
L 470.889605 171.315096 
" clip-path="url(#p4fb745bf10)" style="fill-opacity: 0.3"/>
    <path d="M 408.581578 164.64907 
L 370.209369 161.861339 
L 371.509954 165.015258 
L 356.624758 159.344704 
L 372.173254 155.885151 
L 370.430469 158.81797 
L 408.802678 161.605701 
L 408.581578 164.64907 
" clip-path="url(#p4fb745bf10)" style="fill-opacity: 0.3"/>
    <path d="M 356.415336 160.855958 
L 282.834046 150.659395 
L 283.926454 153.891325 
L 269.442186 147.263337 
L 285.18299 144.823803 
L 283.252891 147.636888 
L 356.834181 157.833451 
L 356.415336 160.855958 
" clip-path="url(#p4fb745bf10)" style="fill-opacity: 0.3"/>
    <path d="M 269.13578 148.757947 
L 218.411214 138.359034 
L 219.293012 141.654661 
L 205.266126 134.106767 
L 221.13145 132.686998 
L 219.024027 135.369813 
L 269.748592 145.768726 
L 269.13578 148.757947 
" clip-path="url(#p4fb745bf10)" style="fill-opacity: 0.3"/>
    <path d="M 205.072514 135.620128 
L 189.6319 133.644729 
L 190.758036 136.865062 
L 176.205269 130.388859 
L 191.919709 127.784899 
L 190.019124 130.618008 
L 205.459738 132.593407 
L 205.072514 135.620128 
" clip-path="url(#p4fb745bf10)" style="fill-opacity: 0.3"/>
    <path d="M 176.054605 131.907097 
L 152.181804 129.538062 
L 153.398715 132.725201 
L 138.668328 126.663854 
L 154.302696 123.615774 
L 152.483131 126.501587 
L 176.355932 128.870621 
L 176.054605 131.907097 
" clip-path="url(#p4fb745bf10)" style="fill-opacity: 0.3"/>
    <path d="M 138.035563 128.052145 
L 116.625853 118.293877 
L 116.748614 121.703225 
L 104.763995 111.210698 
L 120.545206 113.373476 
L 117.891384 115.517294 
L 139.301093 125.275562 
L 138.035563 128.052145 
" clip-path="url(#p4fb745bf10)" style="fill-opacity: 0.3"/>
    <path d="M 104.78175 112.73629 
L 102.770778 112.759695 
L 104.33188 115.793122 
L 89.022697 111.393903 
L 104.225347 106.639572 
L 102.735266 109.708511 
L 104.746239 109.685106 
L 104.78175 112.73629 
" clip-path="url(#p4fb745bf10)" style="fill-opacity: 0.3"/>
    <path d="M 89.076888 109.869171 
L 396.840031 120.807423 
L 395.42368 117.703767 
L 410.508431 122.819871 
L 395.098536 126.852161 
L 396.73165 123.856887 
L 88.968506 112.918636 
L 89.076888 109.869171 
" clip-path="url(#p4fb745bf10)" style="fill-opacity: 0.3"/>
    <path d="M 410.062077 124.278814 
L 224.0046 67.355704 
L 224.570834 70.719943 
L 211.320471 61.879573 
L 227.248959 61.966288 
L 224.897308 64.437819 
L 410.954785 121.360929 
L 410.062077 124.278814 
" clip-path="url(#p4fb745bf10)" style="fill-opacity: 0.3"/>
    <path d="M 211.118243 63.391806 
L 100.008828 48.533325 
L 101.116604 51.760019 
L 86.600959 45.201035 
L 102.329975 42.686621 
L 100.413285 45.508858 
L 211.5227 60.36734 
L 211.118243 63.391806 
" clip-path="url(#p4fb745bf10)" style="fill-opacity: 0.3"/>
    <path d="M 88.126396 45.229062 
L 87.7732 64.452991 
L 90.852102 62.983607 
L 85.995524 78.153903 
L 81.699476 62.815448 
L 84.722325 64.396938 
L 85.075521 45.173009 
L 88.126396 45.229062 
" clip-path="url(#p4fb745bf10)" style="fill-opacity: 0.3"/>
    <path clip-path="url(#p4fb745bf10)" style="fill-opacity: 0.3"/>
   </g>
   <g id="PathCollection_1">
    <defs>
     <path id="m63c0ad089b" d="M 0 2.95804 
C 0.784481 2.95804 1.536938 2.646362 2.09165 2.09165 
C 2.646362 1.536938 2.95804 0.784481 2.95804 0 
C 2.95804 -0.784481 2.646362 -1.536938 2.09165 -2.09165 
C 1.536938 -2.646362 0.784481 -2.95804 0 -2.95804 
C -0.784481 -2.95804 -1.536938 -2.646362 -2.09165 -2.09165 
C -2.646362 -1.536938 -2.95804 -0.784481 -2.95804 0 
C -2.95804 0.784481 -2.646362 1.536938 -2.09165 2.09165 
C -1.536938 2.646362 -0.784481 2.95804 0 2.95804 
z
" style="stroke: #000000; stroke-opacity: 0.9; stroke-width: 0.2"/>
    </defs>
    <g clip-path="url(#p4fb745bf10)">
     <use xlink:href="#m63c0ad089b" x="166.518316" y="148.11859" style="fill: #bc80bd; fill-opacity: 0.9; stroke: #000000; stroke-opacity: 0.9; stroke-width: 0.2"/>
     <use xlink:href="#m63c0ad089b" x="242.197632" y="165.582131" style="fill: #bc80bd; fill-opacity: 0.9; stroke: #000000; stroke-opacity: 0.9; stroke-width: 0.2"/>
     <use xlink:href="#m63c0ad089b" x="257.333496" y="170.350433" style="fill: #bc80bd; fill-opacity: 0.9; stroke: #000000; stroke-opacity: 0.9; stroke-width: 0.2"/>
     <use xlink:href="#m63c0ad089b" x="224.640031" y="163.322055" style="fill: #bc80bd; fill-opacity: 0.9; stroke: #000000; stroke-opacity: 0.9; stroke-width: 0.2"/>
     <use xlink:href="#m63c0ad089b" x="191.341132" y="155.608571" style="fill: #bc80bd; fill-opacity: 0.9; stroke: #000000; stroke-opacity: 0.9; stroke-width: 0.2"/>
     <use xlink:href="#m63c0ad089b" x="156.831364" y="148.094981" style="fill: #bc80bd; fill-opacity: 0.9; stroke: #000000; stroke-opacity: 0.9; stroke-width: 0.2"/>
     <use xlink:href="#m63c0ad089b" x="157.436798" y="147.226275" style="fill: #bc80bd; fill-opacity: 0.9; stroke: #000000; stroke-opacity: 0.9; stroke-width: 0.2"/>
     <use xlink:href="#m63c0ad089b" x="243.408501" y="163.446783" style="fill: #bc80bd; fill-opacity: 0.9; stroke: #000000; stroke-opacity: 0.9; stroke-width: 0.2"/>
     <use xlink:href="#m63c0ad089b" x="496.480134" y="186.459714" style="fill: #bc80bd; fill-opacity: 0.9; stroke: #000000; stroke-opacity: 0.9; stroke-width: 0.2"/>
     <use xlink:href="#m63c0ad089b" x="520.092081" y="177.986578" style="fill: #bc80bd; fill-opacity: 0.9; stroke: #000000; stroke-opacity: 0.9; stroke-width: 0.2"/>
     <use xlink:href="#m63c0ad089b" x="471.051884" y="169.798056" style="fill: #bc80bd; fill-opacity: 0.9; stroke: #000000; stroke-opacity: 0.9; stroke-width: 0.2"/>
     <use xlink:href="#m63c0ad089b" x="408.692128" y="163.127385" style="fill: #bc80bd; fill-opacity: 0.9; stroke: #000000; stroke-opacity: 0.9; stroke-width: 0.2"/>
     <use xlink:href="#m63c0ad089b" x="356.624758" y="159.344704" style="fill: #bc80bd; fill-opacity: 0.9; stroke: #000000; stroke-opacity: 0.9; stroke-width: 0.2"/>
     <use xlink:href="#m63c0ad089b" x="269.442186" y="147.263337" style="fill: #bc80bd; fill-opacity: 0.9; stroke: #000000; stroke-opacity: 0.9; stroke-width: 0.2"/>
     <use xlink:href="#m63c0ad089b" x="205.266126" y="134.106767" style="fill: #bc80bd; fill-opacity: 0.9; stroke: #000000; stroke-opacity: 0.9; stroke-width: 0.2"/>
     <use xlink:href="#m63c0ad089b" x="176.205269" y="130.388859" style="fill: #bc80bd; fill-opacity: 0.9; stroke: #000000; stroke-opacity: 0.9; stroke-width: 0.2"/>
     <use xlink:href="#m63c0ad089b" x="138.668328" y="126.663854" style="fill: #bc80bd; fill-opacity: 0.9; stroke: #000000; stroke-opacity: 0.9; stroke-width: 0.2"/>
     <use xlink:href="#m63c0ad089b" x="104.763995" y="111.210698" style="fill: #bc80bd; fill-opacity: 0.9; stroke: #000000; stroke-opacity: 0.9; stroke-width: 0.2"/>
     <use xlink:href="#m63c0ad089b" x="89.022697" y="111.393903" style="fill: #bc80bd; fill-opacity: 0.9; stroke: #000000; stroke-opacity: 0.9; stroke-width: 0.2"/>
     <use xlink:href="#m63c0ad089b" x="410.508431" y="122.819871" style="fill: #bc80bd; fill-opacity: 0.9; stroke: #000000; stroke-opacity: 0.9; stroke-width: 0.2"/>
     <use xlink:href="#m63c0ad089b" x="211.320471" y="61.879573" style="fill: #bc80bd; fill-opacity: 0.9; stroke: #000000; stroke-opacity: 0.9; stroke-width: 0.2"/>
     <use xlink:href="#m63c0ad089b" x="86.600959" y="45.201035" style="fill: #bc80bd; fill-opacity: 0.9; stroke: #000000; stroke-opacity: 0.9; stroke-width: 0.2"/>
     <use xlink:href="#m63c0ad089b" x="85.995524" y="78.153903" style="fill: #bc80bd; fill-opacity: 0.9; stroke: #000000; stroke-opacity: 0.9; stroke-width: 0.2"/>
    </g>
   </g>
   <g id="matplotlib.axis_1">
    <g id="xtick_1">
     <g id="line2d_1">
      <defs>
       <path id="m7bdaaa47bc" d="M 0 0 
L 0 3.5 
" style="stroke: #323034; stroke-width: 0.8"/>
      </defs>
      <g>
       <use xlink:href="#m7bdaaa47bc" x="39.9825" y="230.6225" style="fill: #323034; stroke: #323034; stroke-width: 0.8"/>
      </g>
     </g>
     <g id="text_1">
      <!-- $\mathdefault{3}$ -->
      <g style="fill: #323034" transform="translate(35.9825 248.55) scale(0.16 -0.16)">
       <defs>
        <path id="STIXGeneral-Regular-33" d="M 390 3264 
L 288 3290 
Q 435 3770 748 4048 
Q 1062 4326 1542 4326 
Q 1990 4326 2265 4083 
Q 2541 3840 2541 3450 
Q 2541 2925 1946 2566 
Q 2298 2413 2477 2227 
Q 2758 1914 2758 1402 
Q 2758 890 2464 506 
Q 2246 211 1840 60 
Q 1434 -90 979 -90 
Q 262 -90 262 275 
Q 262 378 339 442 
Q 416 506 525 506 
Q 685 506 915 339 
Q 1197 141 1466 141 
Q 1818 141 2058 425 
Q 2298 710 2298 1120 
Q 2298 1856 1632 2048 
Q 1434 2112 979 2112 
L 979 2202 
Q 1338 2323 1517 2432 
Q 2035 2726 2035 3290 
Q 2035 3610 1852 3776 
Q 1670 3942 1344 3942 
Q 768 3942 390 3264 
z
" transform="scale(0.015625)"/>
       </defs>
       <use xlink:href="#STIXGeneral-Regular-33" transform="translate(0 0.40625)"/>
      </g>
     </g>
    </g>
    <g id="xtick_2">
     <g id="line2d_2">
      <g>
       <use xlink:href="#m7bdaaa47bc" x="112.634643" y="230.6225" style="fill: #323034; stroke: #323034; stroke-width: 0.8"/>
      </g>
     </g>
     <g id="text_2">
      <!-- $\mathdefault{4}$ -->
      <g style="fill: #323034" transform="translate(108.634643 248.55) scale(0.16 -0.16)">
       <defs>
        <path id="STIXGeneral-Regular-34" d="M 3027 1069 
L 2368 1069 
L 2368 0 
L 1869 0 
L 1869 1069 
L 77 1069 
L 77 1478 
L 2086 4326 
L 2368 4326 
L 2368 1478 
L 3027 1478 
L 3027 1069 
z
M 1869 1478 
L 1869 3674 
L 333 1478 
L 1869 1478 
z
" transform="scale(0.015625)"/>
       </defs>
       <use xlink:href="#STIXGeneral-Regular-34" transform="translate(0 0.40625)"/>
      </g>
     </g>
    </g>
    <g id="xtick_3">
     <g id="line2d_3">
      <g>
       <use xlink:href="#m7bdaaa47bc" x="185.286787" y="230.6225" style="fill: #323034; stroke: #323034; stroke-width: 0.8"/>
      </g>
     </g>
     <g id="text_3">
      <!-- $\mathdefault{5}$ -->
      <g style="fill: #323034" transform="translate(181.286787 248.55) scale(0.16 -0.16)">
       <defs>
        <path id="STIXGeneral-Regular-35" d="M 2803 4358 
L 2573 3814 
Q 2534 3731 2400 3731 
L 1158 3731 
L 902 3187 
Q 1606 3053 1920 2896 
Q 2234 2739 2502 2368 
Q 2726 2061 2726 1555 
Q 2726 1094 2576 780 
Q 2426 467 2099 224 
Q 1664 -90 1011 -90 
Q 646 -90 422 19 
Q 198 128 198 307 
Q 198 550 486 550 
Q 717 550 960 352 
Q 1210 147 1414 147 
Q 1747 147 2012 480 
Q 2278 813 2278 1229 
Q 2278 1843 1850 2189 
Q 1293 2637 486 2637 
Q 410 2637 410 2688 
L 416 2720 
L 1114 4237 
L 2438 4237 
Q 2547 4237 2608 4269 
Q 2669 4301 2746 4403 
L 2803 4358 
z
" transform="scale(0.015625)"/>
       </defs>
       <use xlink:href="#STIXGeneral-Regular-35" transform="translate(0 0.203125)"/>
      </g>
     </g>
    </g>
    <g id="xtick_4">
     <g id="line2d_4">
      <g>
       <use xlink:href="#m7bdaaa47bc" x="257.93893" y="230.6225" style="fill: #323034; stroke: #323034; stroke-width: 0.8"/>
      </g>
     </g>
     <g id="text_4">
      <!-- $\mathdefault{6}$ -->
      <g style="fill: #323034" transform="translate(253.93893 248.55) scale(0.16 -0.16)">
       <defs>
        <path id="STIXGeneral-Regular-36" d="M 2854 4378 
L 2867 4275 
Q 2112 4154 1606 3664 
Q 1101 3174 973 2451 
Q 1344 2739 1786 2739 
Q 2349 2739 2672 2380 
Q 2995 2022 2995 1402 
Q 2995 774 2669 378 
Q 2291 -90 1651 -90 
Q 870 -90 518 557 
Q 218 1107 218 1786 
Q 218 2835 915 3552 
Q 1312 3962 1731 4131 
Q 2150 4301 2854 4378 
z
M 2419 1203 
Q 2419 2445 1555 2445 
Q 1235 2445 1024 2275 
Q 813 2106 813 1702 
Q 813 954 1046 522 
Q 1280 90 1722 90 
Q 2061 90 2240 394 
Q 2419 698 2419 1203 
z
" transform="scale(0.015625)"/>
       </defs>
       <use xlink:href="#STIXGeneral-Regular-36" transform="translate(0 0.59375)"/>
      </g>
     </g>
    </g>
    <g id="xtick_5">
     <g id="line2d_5">
      <g>
       <use xlink:href="#m7bdaaa47bc" x="330.591074" y="230.6225" style="fill: #323034; stroke: #323034; stroke-width: 0.8"/>
      </g>
     </g>
     <g id="text_5">
      <!-- $\mathdefault{7}$ -->
      <g style="fill: #323034" transform="translate(326.591074 248.55) scale(0.16 -0.16)">
       <defs>
        <path id="STIXGeneral-Regular-37" d="M 2874 4134 
L 1517 -51 
L 1101 -51 
L 2368 3763 
L 992 3763 
Q 717 3763 582 3667 
Q 448 3571 243 3238 
L 128 3296 
L 512 4237 
L 2874 4237 
L 2874 4134 
z
" transform="scale(0.015625)"/>
       </defs>
       <use xlink:href="#STIXGeneral-Regular-37" transform="translate(0 0.796875)"/>
      </g>
     </g>
    </g>
    <g id="xtick_6">
     <g id="line2d_6">
      <g>
       <use xlink:href="#m7bdaaa47bc" x="403.243217" y="230.6225" style="fill: #323034; stroke: #323034; stroke-width: 0.8"/>
      </g>
     </g>
     <g id="text_6">
      <!-- $\mathdefault{8}$ -->
      <g style="fill: #323034" transform="translate(399.243217 248.55) scale(0.16 -0.16)">
       <defs>
        <path id="STIXGeneral-Regular-38" d="M 2848 992 
Q 2848 499 2505 204 
Q 2163 -90 1587 -90 
Q 1050 -90 704 204 
Q 358 499 358 954 
Q 358 1293 524 1533 
Q 691 1773 1190 2125 
Q 710 2522 553 2765 
Q 397 3008 397 3328 
Q 397 3782 745 4054 
Q 1094 4326 1638 4326 
Q 2106 4326 2410 4060 
Q 2714 3795 2714 3411 
Q 2714 3059 2531 2848 
Q 2349 2637 1856 2374 
Q 2432 1990 2640 1689 
Q 2848 1389 2848 992 
z
M 2272 3411 
Q 2272 3744 2086 3945 
Q 1901 4147 1574 4147 
Q 1248 4147 1059 3977 
Q 870 3808 870 3513 
Q 870 3219 1059 2979 
Q 1248 2739 1670 2490 
Q 1997 2682 2134 2896 
Q 2272 3110 2272 3411 
z
M 1734 1741 
L 1357 1997 
Q 1075 1766 960 1545 
Q 845 1325 845 1011 
Q 845 576 1065 333 
Q 1286 90 1658 90 
Q 1971 90 2166 285 
Q 2362 480 2362 794 
Q 2362 1082 2214 1299 
Q 2067 1517 1734 1741 
z
" transform="scale(0.015625)"/>
       </defs>
       <use xlink:href="#STIXGeneral-Regular-38" transform="translate(0 0.40625)"/>
      </g>
     </g>
    </g>
    <g id="xtick_7">
     <g id="line2d_7">
      <g>
       <use xlink:href="#m7bdaaa47bc" x="475.89536" y="230.6225" style="fill: #323034; stroke: #323034; stroke-width: 0.8"/>
      </g>
     </g>
     <g id="text_7">
      <!-- $\mathdefault{9}$ -->
      <g style="fill: #323034" transform="translate(471.89536 248.55) scale(0.16 -0.16)">
       <defs>
        <path id="STIXGeneral-Regular-39" d="M 378 -141 
L 358 -13 
Q 1094 115 1603 608 
Q 2112 1101 2304 1882 
Q 1933 1517 1344 1517 
Q 826 1517 509 1875 
Q 192 2234 192 2816 
Q 192 3462 573 3894 
Q 954 4326 1523 4326 
Q 2131 4326 2528 3840 
Q 2938 3328 2938 2522 
Q 2938 1958 2742 1462 
Q 2547 966 2170 621 
Q 1773 262 1395 105 
Q 1018 -51 378 -141 
z
M 2317 2272 
L 2317 2522 
Q 2317 4147 1472 4147 
Q 1171 4147 1005 3930 
Q 909 3802 845 3546 
Q 781 3290 781 3034 
Q 781 2464 995 2128 
Q 1210 1792 1568 1792 
Q 1824 1792 2070 1917 
Q 2317 2042 2317 2272 
z
" transform="scale(0.015625)"/>
       </defs>
       <use xlink:href="#STIXGeneral-Regular-39" transform="translate(0 0.40625)"/>
      </g>
     </g>
    </g>
    <g id="xtick_8">
     <g id="line2d_8">
      <g>
       <use xlink:href="#m7bdaaa47bc" x="548.547504" y="230.6225" style="fill: #323034; stroke: #323034; stroke-width: 0.8"/>
      </g>
     </g>
     <g id="text_8">
      <!-- $\mathdefault{10}$ -->
      <g style="fill: #323034" transform="translate(540.547504 248.55) scale(0.16 -0.16)">
       <defs>
        <path id="STIXGeneral-Regular-31" d="M 2522 0 
L 755 0 
L 755 96 
Q 1107 115 1235 227 
Q 1363 339 1363 608 
L 1363 3482 
Q 1363 3795 1171 3795 
Q 1082 3795 883 3718 
L 710 3654 
L 710 3744 
L 1856 4326 
L 1914 4307 
L 1914 486 
Q 1914 275 2042 185 
Q 2170 96 2522 96 
L 2522 0 
z
" transform="scale(0.015625)"/>
        <path id="STIXGeneral-Regular-30" d="M 3046 2112 
Q 3046 1683 2963 1302 
Q 2880 922 2717 602 
Q 2554 282 2266 96 
Q 1978 -90 1600 -90 
Q 1210 -90 915 108 
Q 621 307 461 640 
Q 301 973 227 1350 
Q 154 1728 154 2150 
Q 154 2746 301 3222 
Q 448 3699 790 4012 
Q 1133 4326 1626 4326 
Q 2253 4326 2649 3712 
Q 3046 3098 3046 2112 
z
M 2432 2080 
Q 2432 3091 2217 3625 
Q 2003 4160 1587 4160 
Q 1190 4160 979 3622 
Q 768 3085 768 2106 
Q 768 1120 979 598 
Q 1190 77 1600 77 
Q 2003 77 2217 598 
Q 2432 1120 2432 2080 
z
" transform="scale(0.015625)"/>
       </defs>
       <use xlink:href="#STIXGeneral-Regular-31" transform="translate(0 0.40625)"/>
       <use xlink:href="#STIXGeneral-Regular-30" transform="translate(49.999985 0.40625)"/>
      </g>
     </g>
    </g>
    <g id="text_9">
     <!-- Unemployment rate, % -->
     <g transform="translate(220.520002 266.3175) scale(0.16 -0.16)">
      <defs>
       <path id="STIXGeneral-Regular-55" d="M 4512 4237 
L 4512 4115 
Q 4122 4077 4016 3926 
Q 3910 3776 3910 3302 
L 3910 1670 
Q 3910 1178 3840 896 
Q 3770 614 3565 378 
Q 3155 -90 2272 -90 
Q 1574 -90 1184 205 
Q 666 589 666 1594 
L 666 3578 
Q 666 3898 566 3994 
Q 467 4090 90 4115 
L 90 4237 
L 1901 4237 
L 1901 4115 
Q 1517 4083 1417 3977 
Q 1318 3872 1318 3514 
L 1318 1517 
Q 1318 1101 1369 877 
Q 1421 653 1600 480 
Q 1901 192 2419 192 
Q 3066 192 3392 570 
Q 3539 749 3584 963 
Q 3629 1178 3629 1600 
L 3629 3283 
Q 3629 3782 3520 3936 
Q 3411 4090 3027 4115 
L 3027 4237 
L 4512 4237 
z
" transform="scale(0.015625)"/>
       <path id="STIXGeneral-Regular-6e" d="M 3104 0 
L 1773 0 
L 1779 96 
Q 2016 115 2096 233 
Q 2176 352 2176 672 
L 2176 1946 
Q 2176 2592 1709 2592 
Q 1549 2592 1408 2515 
Q 1267 2438 1050 2227 
L 1050 461 
Q 1050 269 1136 192 
Q 1222 115 1466 96 
L 1466 0 
L 115 0 
L 115 96 
Q 358 115 435 214 
Q 512 314 512 602 
L 512 2157 
Q 512 2394 467 2483 
Q 422 2573 288 2573 
Q 160 2573 102 2547 
L 102 2656 
Q 550 2784 979 2944 
L 1030 2925 
L 1030 2426 
L 1037 2426 
Q 1491 2944 1958 2944 
Q 2323 2944 2518 2688 
Q 2714 2432 2714 1958 
L 2714 544 
Q 2714 288 2790 205 
Q 2867 122 3104 96 
L 3104 0 
z
" transform="scale(0.015625)"/>
       <path id="STIXGeneral-Regular-65" d="M 2611 1050 
L 2714 1005 
Q 2330 -64 1376 -64 
Q 813 -64 486 329 
Q 160 723 160 1389 
Q 160 2074 525 2509 
Q 890 2944 1485 2944 
Q 2061 2944 2374 2502 
Q 2560 2246 2592 1773 
L 621 1773 
Q 646 1370 700 1158 
Q 755 947 915 730 
Q 1184 378 1626 378 
Q 1939 378 2153 531 
Q 2368 685 2611 1050 
z
M 634 1978 
L 1939 1978 
Q 1882 2381 1750 2547 
Q 1619 2714 1312 2714 
Q 1043 2714 864 2525 
Q 685 2336 634 1978 
z
" transform="scale(0.015625)"/>
       <path id="STIXGeneral-Regular-6d" d="M 4960 0 
L 3565 0 
L 3565 96 
Q 3834 122 3907 208 
Q 3981 294 3981 576 
L 3981 1894 
Q 3981 2278 3869 2444 
Q 3757 2611 3488 2611 
Q 3264 2611 3107 2521 
Q 2950 2432 2803 2221 
L 2803 608 
Q 2803 301 2896 201 
Q 2989 102 3264 96 
L 3264 0 
L 1830 0 
L 1830 96 
Q 2112 115 2189 188 
Q 2266 262 2266 550 
L 2266 1901 
Q 2266 2611 1850 2611 
Q 1670 2611 1468 2531 
Q 1267 2451 1171 2336 
Q 1088 2240 1088 2227 
L 1088 448 
Q 1088 243 1177 176 
Q 1267 109 1523 96 
L 1523 0 
L 102 0 
L 102 96 
Q 371 102 460 195 
Q 550 288 550 563 
L 550 2150 
Q 550 2387 499 2480 
Q 448 2573 326 2573 
Q 230 2573 122 2547 
L 122 2656 
Q 557 2778 1011 2944 
L 1062 2925 
L 1062 2451 
L 1075 2451 
Q 1363 2752 1584 2848 
Q 1805 2944 2054 2944 
Q 2560 2944 2733 2406 
Q 3232 2944 3776 2944 
Q 4518 2944 4518 1792 
L 4518 493 
Q 4518 282 4582 202 
Q 4646 122 4794 109 
L 4960 96 
L 4960 0 
z
" transform="scale(0.015625)"/>
       <path id="STIXGeneral-Regular-70" d="M 1018 2931 
L 1018 2438 
Q 1421 2944 1939 2944 
Q 2406 2944 2707 2560 
Q 3008 2176 3008 1581 
Q 3008 883 2621 409 
Q 2234 -64 1664 -64 
Q 1466 -64 1328 -6 
Q 1190 51 1018 211 
L 1018 -794 
Q 1018 -1094 1120 -1180 
Q 1222 -1267 1581 -1274 
L 1581 -1389 
L 32 -1389 
L 32 -1280 
Q 314 -1254 397 -1171 
Q 480 -1088 480 -838 
L 480 2157 
Q 480 2381 429 2451 
Q 378 2522 218 2522 
Q 115 2522 58 2515 
L 58 2618 
Q 506 2752 979 2944 
L 1018 2931 
z
M 1018 2138 
L 1018 563 
Q 1018 422 1238 281 
Q 1459 141 1683 141 
Q 2029 141 2243 467 
Q 2458 794 2458 1325 
Q 2458 1888 2243 2224 
Q 2029 2560 1670 2560 
Q 1446 2560 1232 2419 
Q 1018 2278 1018 2138 
z
" transform="scale(0.015625)"/>
       <path id="STIXGeneral-Regular-6c" d="M 1645 0 
L 134 0 
L 134 96 
Q 435 122 531 221 
Q 627 320 627 589 
L 627 3590 
Q 627 3821 569 3910 
Q 512 4000 358 4000 
Q 224 4000 122 3987 
L 122 4090 
Q 730 4237 1133 4371 
L 1165 4346 
L 1165 557 
Q 1165 288 1254 201 
Q 1344 115 1645 96 
L 1645 0 
z
" transform="scale(0.015625)"/>
       <path id="STIXGeneral-Regular-6f" d="M 3008 1478 
Q 3008 806 2608 371 
Q 2208 -64 1568 -64 
Q 979 -64 582 368 
Q 186 800 186 1459 
Q 186 2125 582 2534 
Q 979 2944 1626 2944 
Q 2221 2944 2614 2537 
Q 3008 2131 3008 1478 
z
M 2432 1306 
Q 2432 2035 2112 2445 
Q 1856 2765 1504 2765 
Q 1171 2765 966 2493 
Q 762 2221 762 1747 
Q 762 928 1101 435 
Q 1318 115 1677 115 
Q 2029 115 2230 432 
Q 2432 749 2432 1306 
z
" transform="scale(0.015625)"/>
       <path id="STIXGeneral-Regular-79" d="M 3040 2880 
L 3040 2784 
Q 2925 2771 2854 2700 
Q 2784 2630 2720 2458 
L 1760 -160 
Q 1510 -838 1257 -1116 
Q 1005 -1395 640 -1395 
Q 435 -1395 313 -1289 
Q 192 -1184 192 -1024 
Q 192 -902 272 -816 
Q 352 -730 467 -730 
Q 653 -730 800 -813 
Q 883 -858 966 -858 
Q 1101 -858 1286 -576 
Q 1376 -448 1459 -211 
Q 1542 26 1542 115 
Q 1542 198 1274 762 
L 429 2566 
Q 346 2752 90 2790 
L 90 2880 
L 1402 2880 
L 1402 2784 
Q 1197 2778 1117 2739 
Q 1037 2701 1037 2611 
Q 1037 2541 1120 2349 
L 1837 749 
L 2458 2515 
Q 2483 2573 2483 2630 
Q 2483 2784 2189 2784 
L 2189 2880 
L 3040 2880 
z
" transform="scale(0.015625)"/>
       <path id="STIXGeneral-Regular-74" d="M 1702 493 
L 1786 422 
Q 1478 -64 1011 -64 
Q 448 -64 448 749 
L 448 2675 
L 109 2675 
Q 83 2694 83 2720 
Q 83 2771 192 2842 
Q 435 2982 813 3526 
Q 826 3546 874 3606 
Q 922 3667 941 3706 
Q 986 3706 986 3622 
L 986 2880 
L 1632 2880 
L 1632 2675 
L 986 2675 
L 986 845 
Q 986 538 1062 403 
Q 1139 269 1318 269 
Q 1510 269 1702 493 
z
" transform="scale(0.015625)"/>
       <path id="STIXGeneral-Regular-20" transform="scale(0.015625)"/>
       <path id="STIXGeneral-Regular-72" d="M 1024 2931 
L 1024 2342 
Q 1267 2688 1430 2816 
Q 1594 2944 1792 2944 
Q 1958 2944 2051 2854 
Q 2144 2765 2144 2605 
Q 2144 2470 2077 2393 
Q 2010 2317 1894 2317 
Q 1773 2317 1638 2445 
Q 1536 2541 1472 2541 
Q 1338 2541 1181 2355 
Q 1024 2170 1024 2016 
L 1024 576 
Q 1024 301 1133 205 
Q 1242 109 1568 96 
L 1568 0 
L 32 0 
L 32 96 
Q 339 154 412 224 
Q 486 294 486 538 
L 486 2138 
Q 486 2349 438 2435 
Q 390 2522 269 2522 
Q 166 2522 45 2496 
L 45 2598 
Q 448 2726 992 2944 
L 1024 2931 
z
" transform="scale(0.015625)"/>
       <path id="STIXGeneral-Regular-61" d="M 2829 422 
L 2829 243 
Q 2586 -64 2253 -64 
Q 1888 -64 1843 403 
L 1837 403 
Q 1427 -64 909 -64 
Q 608 -64 422 112 
Q 237 288 237 602 
Q 237 1050 685 1350 
Q 992 1555 1837 1869 
L 1837 2214 
Q 1837 2502 1699 2646 
Q 1562 2790 1338 2790 
Q 1146 2790 1018 2697 
Q 890 2605 890 2477 
Q 890 2419 909 2348 
Q 928 2278 928 2208 
Q 928 2112 841 2029 
Q 755 1946 634 1946 
Q 525 1946 441 2029 
Q 358 2112 358 2240 
Q 358 2547 685 2752 
Q 986 2944 1421 2944 
Q 1939 2944 2176 2656 
Q 2291 2522 2323 2384 
Q 2355 2246 2355 1946 
L 2355 723 
Q 2355 301 2554 301 
Q 2682 301 2829 422 
z
M 1837 813 
L 1837 1715 
Q 1248 1510 1018 1293 
Q 800 1094 800 800 
Q 800 557 921 432 
Q 1043 307 1242 307 
Q 1453 307 1613 410 
Q 1747 506 1792 589 
Q 1837 672 1837 813 
z
" transform="scale(0.015625)"/>
       <path id="STIXGeneral-Regular-2c" d="M 531 -902 
L 467 -781 
Q 998 -422 998 -96 
Q 998 -13 909 -13 
Q 883 -13 822 -25 
Q 762 -38 723 -38 
Q 352 -38 352 288 
Q 352 454 457 553 
Q 563 653 736 653 
Q 954 653 1101 496 
Q 1248 339 1248 96 
Q 1248 -198 1053 -473 
Q 858 -749 531 -902 
z
" transform="scale(0.015625)"/>
       <path id="STIXGeneral-Regular-25" d="M 4390 1363 
Q 4390 781 4070 329 
Q 3750 -122 3341 -122 
Q 3014 -122 2790 134 
Q 2566 390 2566 762 
Q 2566 1274 2940 1693 
Q 3315 2112 3776 2112 
Q 4070 2112 4230 1917 
Q 4390 1722 4390 1363 
z
M 4243 1376 
Q 4243 1626 4131 1779 
Q 4019 1933 3840 1933 
Q 3654 1933 3526 1786 
Q 3315 1562 3171 1187 
Q 3027 813 3027 486 
Q 3027 301 3129 176 
Q 3232 51 3386 51 
Q 3718 51 3980 457 
Q 4243 864 4243 1376 
z
M 3974 4518 
L 1222 -115 
L 922 -115 
L 3443 4096 
Q 3264 3891 3094 3811 
Q 2925 3731 2669 3731 
Q 2445 3731 2182 3821 
Q 2208 3674 2208 3539 
Q 2208 3206 2067 2873 
Q 1926 2541 1696 2323 
Q 1453 2086 1146 2086 
Q 826 2086 608 2339 
Q 390 2592 390 2963 
Q 390 3507 761 3916 
Q 1133 4326 1626 4326 
Q 1792 4326 2010 4147 
Q 2310 3898 2624 3898 
Q 2918 3898 3084 3994 
Q 3251 4090 3693 4518 
L 3974 4518 
z
M 2054 3642 
Q 2054 3782 2025 3833 
Q 1997 3885 1894 3936 
Q 1747 4006 1613 4154 
Q 1414 4058 1331 3984 
Q 1248 3910 1152 3750 
Q 845 3264 845 2707 
Q 845 2509 944 2384 
Q 1043 2259 1210 2259 
Q 1549 2259 1801 2675 
Q 2054 3091 2054 3642 
z
" transform="scale(0.015625)"/>
      </defs>
      <use xlink:href="#STIXGeneral-Regular-55"/>
      <use xlink:href="#STIXGeneral-Regular-6e" transform="translate(72.199982 0)"/>
      <use xlink:href="#STIXGeneral-Regular-65" transform="translate(122.199966 0)"/>
      <use xlink:href="#STIXGeneral-Regular-6d" transform="translate(166.59996 0)"/>
      <use xlink:href="#STIXGeneral-Regular-70" transform="translate(244.399948 0)"/>
      <use xlink:href="#STIXGeneral-Regular-6c" transform="translate(294.399933 0)"/>
      <use xlink:href="#STIXGeneral-Regular-6f" transform="translate(322.199921 0)"/>
      <use xlink:href="#STIXGeneral-Regular-79" transform="translate(372.199905 0)"/>
      <use xlink:href="#STIXGeneral-Regular-6d" transform="translate(422.19989 0)"/>
      <use xlink:href="#STIXGeneral-Regular-65" transform="translate(499.999878 0)"/>
      <use xlink:href="#STIXGeneral-Regular-6e" transform="translate(544.399872 0)"/>
      <use xlink:href="#STIXGeneral-Regular-74" transform="translate(594.399857 0)"/>
      <use xlink:href="#STIXGeneral-Regular-20" transform="translate(622.199844 0)"/>
      <use xlink:href="#STIXGeneral-Regular-72" transform="translate(647.199829 0)"/>
      <use xlink:href="#STIXGeneral-Regular-61" transform="translate(680.499817 0)"/>
      <use xlink:href="#STIXGeneral-Regular-74" transform="translate(724.899811 0)"/>
      <use xlink:href="#STIXGeneral-Regular-65" transform="translate(752.699799 0)"/>
      <use xlink:href="#STIXGeneral-Regular-2c" transform="translate(797.099792 0)"/>
      <use xlink:href="#STIXGeneral-Regular-20" transform="translate(822.099777 0)"/>
      <use xlink:href="#STIXGeneral-Regular-25" transform="translate(847.099762 0)"/>
     </g>
    </g>
   </g>
   <g id="matplotlib.axis_2">
    <g id="ytick_1">
     <g id="line2d_9">
      <defs>
       <path id="maa6ba4c654" d="M 0 0 
L -3.5 0 
" style="stroke: #323034; stroke-width: 0.8"/>
      </defs>
      <g>
       <use xlink:href="#maa6ba4c654" x="39.9825" y="230.6225" style="fill: #323034; stroke: #323034; stroke-width: 0.8"/>
      </g>
     </g>
     <g id="text_10">
      <!-- $\mathdefault{0}$ -->
      <g style="fill: #323034" transform="translate(24.9825 236.08625) scale(0.16 -0.16)">
       <use xlink:href="#STIXGeneral-Regular-30" transform="translate(0 0.40625)"/>
      </g>
     </g>
    </g>
    <g id="ytick_2">
     <g id="line2d_10">
      <g>
       <use xlink:href="#maa6ba4c654" x="39.9825" y="176.132812" style="fill: #323034; stroke: #323034; stroke-width: 0.8"/>
      </g>
     </g>
     <g id="text_11">
      <!-- $\mathdefault{2}$ -->
      <g style="fill: #323034" transform="translate(24.9825 181.596562) scale(0.16 -0.16)">
       <defs>
        <path id="STIXGeneral-Regular-32" d="M 3034 877 
L 2688 0 
L 186 0 
L 186 77 
L 1325 1286 
Q 1773 1754 1965 2144 
Q 2157 2534 2157 2950 
Q 2157 3379 1920 3616 
Q 1683 3853 1267 3853 
Q 922 3853 720 3673 
Q 518 3494 326 3021 
L 192 3053 
Q 301 3648 630 3987 
Q 960 4326 1523 4326 
Q 2054 4326 2380 4006 
Q 2707 3686 2707 3200 
Q 2707 2477 1888 1613 
L 832 486 
L 2330 486 
Q 2541 486 2665 569 
Q 2790 653 2944 915 
L 3034 877 
z
" transform="scale(0.015625)"/>
       </defs>
       <use xlink:href="#STIXGeneral-Regular-32" transform="translate(0 0.40625)"/>
      </g>
     </g>
    </g>
    <g id="ytick_3">
     <g id="line2d_11">
      <g>
       <use xlink:href="#maa6ba4c654" x="39.9825" y="121.643125" style="fill: #323034; stroke: #323034; stroke-width: 0.8"/>
      </g>
     </g>
     <g id="text_12">
      <!-- $\mathdefault{4}$ -->
      <g style="fill: #323034" transform="translate(24.9825 127.106875) scale(0.16 -0.16)">
       <use xlink:href="#STIXGeneral-Regular-34" transform="translate(0 0.40625)"/>
      </g>
     </g>
    </g>
    <g id="ytick_4">
     <g id="line2d_12">
      <g>
       <use xlink:href="#maa6ba4c654" x="39.9825" y="67.153437" style="fill: #323034; stroke: #323034; stroke-width: 0.8"/>
      </g>
     </g>
     <g id="text_13">
      <!-- $\mathdefault{6}$ -->
      <g style="fill: #323034" transform="translate(24.9825 72.617188) scale(0.16 -0.16)">
       <use xlink:href="#STIXGeneral-Regular-36" transform="translate(0 0.59375)"/>
      </g>
     </g>
    </g>
    <g id="ytick_5">
     <g id="line2d_13">
      <g>
       <use xlink:href="#maa6ba4c654" x="39.9825" y="12.66375" style="fill: #323034; stroke: #323034; stroke-width: 0.8"/>
      </g>
     </g>
     <g id="text_14">
      <!-- $\mathdefault{8}$ -->
      <g style="fill: #323034" transform="translate(24.9825 18.1275) scale(0.16 -0.16)">
       <use xlink:href="#STIXGeneral-Regular-38" transform="translate(0 0.40625)"/>
      </g>
     </g>
    </g>
    <g id="text_15">
     <!-- Vacancy rate, % -->
     <g transform="translate(18.495 173.598125) rotate(-90) scale(0.16 -0.16)">
      <defs>
       <path id="STIXGeneral-Regular-56" d="M 4461 4237 
L 4461 4115 
Q 4262 4109 4134 3990 
Q 4006 3872 3872 3533 
L 2451 -70 
L 2355 -70 
L 794 3411 
Q 589 3866 467 3987 
Q 346 4109 102 4115 
L 102 4237 
L 1798 4237 
L 1798 4115 
L 1619 4102 
Q 1331 4083 1331 3904 
Q 1331 3776 1581 3219 
L 2554 1030 
L 3494 3392 
Q 3616 3699 3616 3853 
Q 3616 3898 3606 3933 
Q 3597 3968 3584 3993 
Q 3571 4019 3536 4038 
Q 3501 4058 3481 4067 
Q 3462 4077 3411 4086 
Q 3360 4096 3337 4099 
Q 3315 4102 3248 4108 
Q 3181 4115 3155 4115 
L 3155 4237 
L 4461 4237 
z
" transform="scale(0.015625)"/>
       <path id="STIXGeneral-Regular-63" d="M 2547 998 
L 2637 941 
Q 2362 403 2112 205 
Q 1786 -64 1376 -64 
Q 845 -64 502 336 
Q 160 736 160 1357 
Q 160 2170 698 2618 
Q 1094 2944 1562 2944 
Q 1965 2944 2256 2749 
Q 2547 2554 2547 2285 
Q 2547 2176 2457 2096 
Q 2368 2016 2246 2016 
Q 2022 2016 1939 2310 
L 1901 2451 
Q 1850 2630 1773 2694 
Q 1696 2758 1523 2758 
Q 1133 2758 893 2451 
Q 653 2144 653 1645 
Q 653 1094 928 745 
Q 1203 397 1645 397 
Q 1920 397 2118 528 
Q 2317 659 2547 998 
z
" transform="scale(0.015625)"/>
      </defs>
      <use xlink:href="#STIXGeneral-Regular-56"/>
      <use xlink:href="#STIXGeneral-Regular-61" transform="translate(72.199982 0)"/>
      <use xlink:href="#STIXGeneral-Regular-63" transform="translate(116.599976 0)"/>
      <use xlink:href="#STIXGeneral-Regular-61" transform="translate(160.999969 0)"/>
      <use xlink:href="#STIXGeneral-Regular-6e" transform="translate(205.399963 0)"/>
      <use xlink:href="#STIXGeneral-Regular-63" transform="translate(255.399948 0)"/>
      <use xlink:href="#STIXGeneral-Regular-79" transform="translate(299.799942 0)"/>
      <use xlink:href="#STIXGeneral-Regular-20" transform="translate(349.799927 0)"/>
      <use xlink:href="#STIXGeneral-Regular-72" transform="translate(374.799911 0)"/>
      <use xlink:href="#STIXGeneral-Regular-61" transform="translate(408.099899 0)"/>
      <use xlink:href="#STIXGeneral-Regular-74" transform="translate(452.499893 0)"/>
      <use xlink:href="#STIXGeneral-Regular-65" transform="translate(480.299881 0)"/>
      <use xlink:href="#STIXGeneral-Regular-2c" transform="translate(524.699875 0)"/>
      <use xlink:href="#STIXGeneral-Regular-20" transform="translate(549.69986 0)"/>
      <use xlink:href="#STIXGeneral-Regular-25" transform="translate(574.699844 0)"/>
     </g>
    </g>
   </g>
   <g id="patch_3">
    <path d="M 39.9825 230.6225 
L 39.9825 12.66375 
" style="fill: none; stroke: #000000; stroke-width: 0.6; stroke-linejoin: miter; stroke-linecap: square"/>
   </g>
   <g id="patch_4">
    <path d="M 39.9825 230.6225 
L 548.547504 230.6225 
" style="fill: none; stroke: #000000; stroke-width: 0.6; stroke-linejoin: miter; stroke-linecap: square"/>
   </g>
   <g id="patch_5">
    <path d="M 164.612786 175.571906 
Q 166.412014 166.794702 166.507003 151.0113 
" style="fill: none; stroke: #000000; stroke-width: 0.8; stroke-linecap: round"/>
    <path d="M 164.07816 155.79677 
L 166.507003 151.0113 
L 168.878073 155.825657 
" style="fill: none; stroke: #000000; stroke-width: 0.8; stroke-linecap: round"/>
   </g>
   <g id="text_16">
    <!-- 2001 -->
    <g style="fill: #323034" transform="translate(146.518316 188.11859) scale(0.12 -0.12)">
     <use xlink:href="#STIXGeneral-Regular-32"/>
     <use xlink:href="#STIXGeneral-Regular-30" transform="translate(49.999985 0)"/>
     <use xlink:href="#STIXGeneral-Regular-30" transform="translate(99.999969 0)"/>
     <use xlink:href="#STIXGeneral-Regular-31" transform="translate(149.999954 0)"/>
    </g>
   </g>
   <g id="patch_6">
    <path d="M 84.089994 105.607219 
Q 85.889222 96.830015 85.984211 81.046613 
" style="fill: none; stroke: #000000; stroke-width: 0.8; stroke-linecap: round"/>
    <path d="M 83.555367 85.832082 
L 85.984211 81.046613 
L 88.35528 85.860969 
" style="fill: none; stroke: #000000; stroke-width: 0.8; stroke-linecap: round"/>
   </g>
   <g id="text_17">
    <!-- 2023 -->
    <g style="fill: #323034" transform="translate(65.995524 118.153903) scale(0.12 -0.12)">
     <use xlink:href="#STIXGeneral-Regular-32"/>
     <use xlink:href="#STIXGeneral-Regular-30" transform="translate(49.999985 0)"/>
     <use xlink:href="#STIXGeneral-Regular-32" transform="translate(99.999969 0)"/>
     <use xlink:href="#STIXGeneral-Regular-33" transform="translate(149.999954 0)"/>
    </g>
   </g>
  </g>
 </g>
 <defs>
  <clipPath id="p4fb745bf10">
   <rect x="39.9825" y="12.66375" width="508.565004" height="217.95875"/>
  </clipPath>
 </defs>
</svg>