<?xml version="1.0" encoding="utf-8" standalone="no"?>
<!DOCTYPE svg PUBLIC "-//W3C//DTD SVG 1.1//EN"
  "http://www.w3.org/Graphics/SVG/1.1/DTD/svg11.dtd">
<svg xmlns:xlink="http://www.w3.org/1999/xlink" width="501.265pt" height="279.238266pt" viewBox="0 0 501.265 279.238266" xmlns="http://www.w3.org/2000/svg" version="1.1">
 <metadata>
  <rdf:RDF xmlns:dc="http://purl.org/dc/elements/1.1/" xmlns:cc="http://creativecommons.org/ns#" xmlns:rdf="http://www.w3.org/1999/02/22-rdf-syntax-ns#">
   <cc:Work>
    <dc:type rdf:resource="http://purl.org/dc/dcmitype/StillImage"/>
    <dc:date>2025-03-26T16:06:02.378777</dc:date>
    <dc:format>image/svg+xml</dc:format>
    <dc:creator>
     <cc:Agent>
      <dc:title>Matplotlib v3.10.0, https://matplotlib.org/</dc:title>
     </cc:Agent>
    </dc:creator>
   </cc:Work>
  </rdf:RDF>
 </metadata>
 <defs>
  <style type="text/css">*{stroke-linejoin: round; stroke-linecap: butt}</style>
 </defs>
 <g id="figure_1">
  <g id="patch_1">
   <path d="M 0 279.238266 
L 501.265 279.238266 
L 501.265 0 
L 0 0 
z
" style="fill: #ffffff"/>
  </g>
  <g id="axes_1">
   <g id="patch_2">
    <path d="M 47.665 208.50375 
L 494.065 208.50375 
L 494.065 12.66375 
L 47.665 12.66375 
z
" style="fill: #ffffff"/>
   </g>
   <g id="matplotlib.axis_1">
    <g id="xtick_1">
     <g id="line2d_1">
      <defs>
       <path id="m6d7f38e155" d="M 0 0 
L 0 3.5 
" style="stroke: #323034; stroke-width: 0.8"/>
      </defs>
      <g>
       <use xlink:href="#m6d7f38e155" x="67.031494" y="208.50375" style="fill: #323034; stroke: #323034; stroke-width: 0.8"/>
      </g>
     </g>
     <g id="text_1">
      <!-- 2017-01 -->
      <g style="fill: #323034" transform="translate(19.112274 251.630993) rotate(-30) scale(0.16 -0.16)">
       <defs>
        <path id="STIXGeneral-Regular-32" d="M 3034 877 
L 2688 0 
L 186 0 
L 186 77 
L 1325 1286 
Q 1773 1754 1965 2144 
Q 2157 2534 2157 2950 
Q 2157 3379 1920 3616 
Q 1683 3853 1267 3853 
Q 922 3853 720 3673 
Q 518 3494 326 3021 
L 192 3053 
Q 301 3648 630 3987 
Q 960 4326 1523 4326 
Q 2054 4326 2380 4006 
Q 2707 3686 2707 3200 
Q 2707 2477 1888 1613 
L 832 486 
L 2330 486 
Q 2541 486 2665 569 
Q 2790 653 2944 915 
L 3034 877 
z
" transform="scale(0.015625)"/>
        <path id="STIXGeneral-Regular-30" d="M 3046 2112 
Q 3046 1683 2963 1302 
Q 2880 922 2717 602 
Q 2554 282 2266 96 
Q 1978 -90 1600 -90 
Q 1210 -90 915 108 
Q 621 307 461 640 
Q 301 973 227 1350 
Q 154 1728 154 2150 
Q 154 2746 301 3222 
Q 448 3699 790 4012 
Q 1133 4326 1626 4326 
Q 2253 4326 2649 3712 
Q 3046 3098 3046 2112 
z
M 2432 2080 
Q 2432 3091 2217 3625 
Q 2003 4160 1587 4160 
Q 1190 4160 979 3622 
Q 768 3085 768 2106 
Q 768 1120 979 598 
Q 1190 77 1600 77 
Q 2003 77 2217 598 
Q 2432 1120 2432 2080 
z
" transform="scale(0.015625)"/>
        <path id="STIXGeneral-Regular-31" d="M 2522 0 
L 755 0 
L 755 96 
Q 1107 115 1235 227 
Q 1363 339 1363 608 
L 1363 3482 
Q 1363 3795 1171 3795 
Q 1082 3795 883 3718 
L 710 3654 
L 710 3744 
L 1856 4326 
L 1914 4307 
L 1914 486 
Q 1914 275 2042 185 
Q 2170 96 2522 96 
L 2522 0 
z
" transform="scale(0.015625)"/>
        <path id="STIXGeneral-Regular-37" d="M 2874 4134 
L 1517 -51 
L 1101 -51 
L 2368 3763 
L 992 3763 
Q 717 3763 582 3667 
Q 448 3571 243 3238 
L 128 3296 
L 512 4237 
L 2874 4237 
L 2874 4134 
z
" transform="scale(0.015625)"/>
        <path id="STIXGeneral-Regular-2d" d="M 1824 1242 
L 250 1242 
L 250 1645 
L 1824 1645 
L 1824 1242 
z
" transform="scale(0.015625)"/>
       </defs>
       <use xlink:href="#STIXGeneral-Regular-32"/>
       <use xlink:href="#STIXGeneral-Regular-30" transform="translate(49.999985 0)"/>
       <use xlink:href="#STIXGeneral-Regular-31" transform="translate(99.999969 0)"/>
       <use xlink:href="#STIXGeneral-Regular-37" transform="translate(149.999954 0)"/>
       <use xlink:href="#STIXGeneral-Regular-2d" transform="translate(199.999939 0)"/>
       <use xlink:href="#STIXGeneral-Regular-30" transform="translate(233.299927 0)"/>
       <use xlink:href="#STIXGeneral-Regular-31" transform="translate(283.299911 0)"/>
      </g>
     </g>
    </g>
    <g id="xtick_2">
     <g id="line2d_2">
      <g>
       <use xlink:href="#m6d7f38e155" x="108.630169" y="208.50375" style="fill: #323034; stroke: #323034; stroke-width: 0.8"/>
      </g>
     </g>
     <g id="text_2">
      <!-- 2017-04 -->
      <g style="fill: #323034" transform="translate(60.710949 251.630993) rotate(-30) scale(0.16 -0.16)">
       <defs>
        <path id="STIXGeneral-Regular-34" d="M 3027 1069 
L 2368 1069 
L 2368 0 
L 1869 0 
L 1869 1069 
L 77 1069 
L 77 1478 
L 2086 4326 
L 2368 4326 
L 2368 1478 
L 3027 1478 
L 3027 1069 
z
M 1869 1478 
L 1869 3674 
L 333 1478 
L 1869 1478 
z
" transform="scale(0.015625)"/>
       </defs>
       <use xlink:href="#STIXGeneral-Regular-32"/>
       <use xlink:href="#STIXGeneral-Regular-30" transform="translate(49.999985 0)"/>
       <use xlink:href="#STIXGeneral-Regular-31" transform="translate(99.999969 0)"/>
       <use xlink:href="#STIXGeneral-Regular-37" transform="translate(149.999954 0)"/>
       <use xlink:href="#STIXGeneral-Regular-2d" transform="translate(199.999939 0)"/>
       <use xlink:href="#STIXGeneral-Regular-30" transform="translate(233.299927 0)"/>
       <use xlink:href="#STIXGeneral-Regular-34" transform="translate(283.299911 0)"/>
      </g>
     </g>
    </g>
    <g id="xtick_3">
     <g id="line2d_3">
      <g>
       <use xlink:href="#m6d7f38e155" x="150.691051" y="208.50375" style="fill: #323034; stroke: #323034; stroke-width: 0.8"/>
      </g>
     </g>
     <g id="text_3">
      <!-- 2017-07 -->
      <g style="fill: #323034" transform="translate(102.771831 251.630993) rotate(-30) scale(0.16 -0.16)">
       <use xlink:href="#STIXGeneral-Regular-32"/>
       <use xlink:href="#STIXGeneral-Regular-30" transform="translate(49.999985 0)"/>
       <use xlink:href="#STIXGeneral-Regular-31" transform="translate(99.999969 0)"/>
       <use xlink:href="#STIXGeneral-Regular-37" transform="translate(149.999954 0)"/>
       <use xlink:href="#STIXGeneral-Regular-2d" transform="translate(199.999939 0)"/>
       <use xlink:href="#STIXGeneral-Regular-30" transform="translate(233.299927 0)"/>
       <use xlink:href="#STIXGeneral-Regular-37" transform="translate(283.299911 0)"/>
      </g>
     </g>
    </g>
    <g id="xtick_4">
     <g id="line2d_4">
      <g>
       <use xlink:href="#m6d7f38e155" x="193.214141" y="208.50375" style="fill: #323034; stroke: #323034; stroke-width: 0.8"/>
      </g>
     </g>
     <g id="text_4">
      <!-- 2017-10 -->
      <g style="fill: #323034" transform="translate(145.294921 251.630993) rotate(-30) scale(0.16 -0.16)">
       <use xlink:href="#STIXGeneral-Regular-32"/>
       <use xlink:href="#STIXGeneral-Regular-30" transform="translate(49.999985 0)"/>
       <use xlink:href="#STIXGeneral-Regular-31" transform="translate(99.999969 0)"/>
       <use xlink:href="#STIXGeneral-Regular-37" transform="translate(149.999954 0)"/>
       <use xlink:href="#STIXGeneral-Regular-2d" transform="translate(199.999939 0)"/>
       <use xlink:href="#STIXGeneral-Regular-31" transform="translate(233.299927 0)"/>
       <use xlink:href="#STIXGeneral-Regular-30" transform="translate(283.299911 0)"/>
      </g>
     </g>
    </g>
    <g id="xtick_5">
     <g id="line2d_5">
      <g>
       <use xlink:href="#m6d7f38e155" x="235.73723" y="208.50375" style="fill: #323034; stroke: #323034; stroke-width: 0.8"/>
      </g>
     </g>
     <g id="text_5">
      <!-- 2018-01 -->
      <g style="fill: #323034" transform="translate(187.818011 251.630993) rotate(-30) scale(0.16 -0.16)">
       <defs>
        <path id="STIXGeneral-Regular-38" d="M 2848 992 
Q 2848 499 2505 204 
Q 2163 -90 1587 -90 
Q 1050 -90 704 204 
Q 358 499 358 954 
Q 358 1293 524 1533 
Q 691 1773 1190 2125 
Q 710 2522 553 2765 
Q 397 3008 397 3328 
Q 397 3782 745 4054 
Q 1094 4326 1638 4326 
Q 2106 4326 2410 4060 
Q 2714 3795 2714 3411 
Q 2714 3059 2531 2848 
Q 2349 2637 1856 2374 
Q 2432 1990 2640 1689 
Q 2848 1389 2848 992 
z
M 2272 3411 
Q 2272 3744 2086 3945 
Q 1901 4147 1574 4147 
Q 1248 4147 1059 3977 
Q 870 3808 870 3513 
Q 870 3219 1059 2979 
Q 1248 2739 1670 2490 
Q 1997 2682 2134 2896 
Q 2272 3110 2272 3411 
z
M 1734 1741 
L 1357 1997 
Q 1075 1766 960 1545 
Q 845 1325 845 1011 
Q 845 576 1065 333 
Q 1286 90 1658 90 
Q 1971 90 2166 285 
Q 2362 480 2362 794 
Q 2362 1082 2214 1299 
Q 2067 1517 1734 1741 
z
" transform="scale(0.015625)"/>
       </defs>
       <use xlink:href="#STIXGeneral-Regular-32"/>
       <use xlink:href="#STIXGeneral-Regular-30" transform="translate(49.999985 0)"/>
       <use xlink:href="#STIXGeneral-Regular-31" transform="translate(99.999969 0)"/>
       <use xlink:href="#STIXGeneral-Regular-38" transform="translate(149.999954 0)"/>
       <use xlink:href="#STIXGeneral-Regular-2d" transform="translate(199.999939 0)"/>
       <use xlink:href="#STIXGeneral-Regular-30" transform="translate(233.299927 0)"/>
       <use xlink:href="#STIXGeneral-Regular-31" transform="translate(283.299911 0)"/>
      </g>
     </g>
    </g>
    <g id="xtick_6">
     <g id="line2d_6">
      <g>
       <use xlink:href="#m6d7f38e155" x="277.335905" y="208.50375" style="fill: #323034; stroke: #323034; stroke-width: 0.8"/>
      </g>
     </g>
     <g id="text_6">
      <!-- 2018-04 -->
      <g style="fill: #323034" transform="translate(229.416685 251.630993) rotate(-30) scale(0.16 -0.16)">
       <use xlink:href="#STIXGeneral-Regular-32"/>
       <use xlink:href="#STIXGeneral-Regular-30" transform="translate(49.999985 0)"/>
       <use xlink:href="#STIXGeneral-Regular-31" transform="translate(99.999969 0)"/>
       <use xlink:href="#STIXGeneral-Regular-38" transform="translate(149.999954 0)"/>
       <use xlink:href="#STIXGeneral-Regular-2d" transform="translate(199.999939 0)"/>
       <use xlink:href="#STIXGeneral-Regular-30" transform="translate(233.299927 0)"/>
       <use xlink:href="#STIXGeneral-Regular-34" transform="translate(283.299911 0)"/>
      </g>
     </g>
    </g>
    <g id="xtick_7">
     <g id="line2d_7">
      <g>
       <use xlink:href="#m6d7f38e155" x="319.396787" y="208.50375" style="fill: #323034; stroke: #323034; stroke-width: 0.8"/>
      </g>
     </g>
     <g id="text_7">
      <!-- 2018-07 -->
      <g style="fill: #323034" transform="translate(271.477567 251.630993) rotate(-30) scale(0.16 -0.16)">
       <use xlink:href="#STIXGeneral-Regular-32"/>
       <use xlink:href="#STIXGeneral-Regular-30" transform="translate(49.999985 0)"/>
       <use xlink:href="#STIXGeneral-Regular-31" transform="translate(99.999969 0)"/>
       <use xlink:href="#STIXGeneral-Regular-38" transform="translate(149.999954 0)"/>
       <use xlink:href="#STIXGeneral-Regular-2d" transform="translate(199.999939 0)"/>
       <use xlink:href="#STIXGeneral-Regular-30" transform="translate(233.299927 0)"/>
       <use xlink:href="#STIXGeneral-Regular-37" transform="translate(283.299911 0)"/>
      </g>
     </g>
    </g>
    <g id="xtick_8">
     <g id="line2d_8">
      <g>
       <use xlink:href="#m6d7f38e155" x="361.919877" y="208.50375" style="fill: #323034; stroke: #323034; stroke-width: 0.8"/>
      </g>
     </g>
     <g id="text_8">
      <!-- 2018-10 -->
      <g style="fill: #323034" transform="translate(314.000657 251.630993) rotate(-30) scale(0.16 -0.16)">
       <use xlink:href="#STIXGeneral-Regular-32"/>
       <use xlink:href="#STIXGeneral-Regular-30" transform="translate(49.999985 0)"/>
       <use xlink:href="#STIXGeneral-Regular-31" transform="translate(99.999969 0)"/>
       <use xlink:href="#STIXGeneral-Regular-38" transform="translate(149.999954 0)"/>
       <use xlink:href="#STIXGeneral-Regular-2d" transform="translate(199.999939 0)"/>
       <use xlink:href="#STIXGeneral-Regular-31" transform="translate(233.299927 0)"/>
       <use xlink:href="#STIXGeneral-Regular-30" transform="translate(283.299911 0)"/>
      </g>
     </g>
    </g>
    <g id="xtick_9">
     <g id="line2d_9">
      <g>
       <use xlink:href="#m6d7f38e155" x="404.442966" y="208.50375" style="fill: #323034; stroke: #323034; stroke-width: 0.8"/>
      </g>
     </g>
     <g id="text_9">
      <!-- 2019-01 -->
      <g style="fill: #323034" transform="translate(356.523747 251.630993) rotate(-30) scale(0.16 -0.16)">
       <defs>
        <path id="STIXGeneral-Regular-39" d="M 378 -141 
L 358 -13 
Q 1094 115 1603 608 
Q 2112 1101 2304 1882 
Q 1933 1517 1344 1517 
Q 826 1517 509 1875 
Q 192 2234 192 2816 
Q 192 3462 573 3894 
Q 954 4326 1523 4326 
Q 2131 4326 2528 3840 
Q 2938 3328 2938 2522 
Q 2938 1958 2742 1462 
Q 2547 966 2170 621 
Q 1773 262 1395 105 
Q 1018 -51 378 -141 
z
M 2317 2272 
L 2317 2522 
Q 2317 4147 1472 4147 
Q 1171 4147 1005 3930 
Q 909 3802 845 3546 
Q 781 3290 781 3034 
Q 781 2464 995 2128 
Q 1210 1792 1568 1792 
Q 1824 1792 2070 1917 
Q 2317 2042 2317 2272 
z
" transform="scale(0.015625)"/>
       </defs>
       <use xlink:href="#STIXGeneral-Regular-32"/>
       <use xlink:href="#STIXGeneral-Regular-30" transform="translate(49.999985 0)"/>
       <use xlink:href="#STIXGeneral-Regular-31" transform="translate(99.999969 0)"/>
       <use xlink:href="#STIXGeneral-Regular-39" transform="translate(149.999954 0)"/>
       <use xlink:href="#STIXGeneral-Regular-2d" transform="translate(199.999939 0)"/>
       <use xlink:href="#STIXGeneral-Regular-30" transform="translate(233.299927 0)"/>
       <use xlink:href="#STIXGeneral-Regular-31" transform="translate(283.299911 0)"/>
      </g>
     </g>
    </g>
    <g id="xtick_10">
     <g id="line2d_10">
      <g>
       <use xlink:href="#m6d7f38e155" x="446.041641" y="208.50375" style="fill: #323034; stroke: #323034; stroke-width: 0.8"/>
      </g>
     </g>
     <g id="text_10">
      <!-- 2019-04 -->
      <g style="fill: #323034" transform="translate(398.122421 251.630993) rotate(-30) scale(0.16 -0.16)">
       <use xlink:href="#STIXGeneral-Regular-32"/>
       <use xlink:href="#STIXGeneral-Regular-30" transform="translate(49.999985 0)"/>
       <use xlink:href="#STIXGeneral-Regular-31" transform="translate(99.999969 0)"/>
       <use xlink:href="#STIXGeneral-Regular-39" transform="translate(149.999954 0)"/>
       <use xlink:href="#STIXGeneral-Regular-2d" transform="translate(199.999939 0)"/>
       <use xlink:href="#STIXGeneral-Regular-30" transform="translate(233.299927 0)"/>
       <use xlink:href="#STIXGeneral-Regular-34" transform="translate(283.299911 0)"/>
      </g>
     </g>
    </g>
    <g id="xtick_11">
     <g id="line2d_11">
      <g>
       <use xlink:href="#m6d7f38e155" x="488.102523" y="208.50375" style="fill: #323034; stroke: #323034; stroke-width: 0.8"/>
      </g>
     </g>
     <g id="text_11">
      <!-- 2019-07 -->
      <g style="fill: #323034" transform="translate(440.183304 251.630993) rotate(-30) scale(0.16 -0.16)">
       <use xlink:href="#STIXGeneral-Regular-32"/>
       <use xlink:href="#STIXGeneral-Regular-30" transform="translate(49.999985 0)"/>
       <use xlink:href="#STIXGeneral-Regular-31" transform="translate(99.999969 0)"/>
       <use xlink:href="#STIXGeneral-Regular-39" transform="translate(149.999954 0)"/>
       <use xlink:href="#STIXGeneral-Regular-2d" transform="translate(199.999939 0)"/>
       <use xlink:href="#STIXGeneral-Regular-30" transform="translate(233.299927 0)"/>
       <use xlink:href="#STIXGeneral-Regular-37" transform="translate(283.299911 0)"/>
      </g>
     </g>
    </g>
    <g id="text_12">
     <!-- Date -->
     <g transform="translate(255.76 268.565766) scale(0.16 -0.16)">
      <defs>
       <path id="STIXGeneral-Regular-44" d="M 102 4237 
L 1830 4237 
Q 3078 4237 3750 3654 
Q 4384 3110 4384 2138 
Q 4384 966 3514 410 
Q 2880 0 1901 0 
L 102 0 
L 102 122 
Q 474 147 570 252 
Q 666 358 666 736 
L 666 3520 
Q 666 3891 570 3990 
Q 474 4090 102 4115 
L 102 4237 
z
M 1318 3731 
L 1318 538 
Q 1318 365 1379 301 
Q 1440 237 1626 237 
Q 2125 237 2432 307 
Q 2739 378 3021 570 
Q 3686 1018 3686 2099 
Q 3686 3027 3078 3558 
Q 2803 3802 2476 3901 
Q 2150 4000 1658 4000 
Q 1472 4000 1395 3942 
Q 1318 3885 1318 3731 
z
" transform="scale(0.015625)"/>
       <path id="STIXGeneral-Regular-61" d="M 2829 422 
L 2829 243 
Q 2586 -64 2253 -64 
Q 1888 -64 1843 403 
L 1837 403 
Q 1427 -64 909 -64 
Q 608 -64 422 112 
Q 237 288 237 602 
Q 237 1050 685 1350 
Q 992 1555 1837 1869 
L 1837 2214 
Q 1837 2502 1699 2646 
Q 1562 2790 1338 2790 
Q 1146 2790 1018 2697 
Q 890 2605 890 2477 
Q 890 2419 909 2348 
Q 928 2278 928 2208 
Q 928 2112 841 2029 
Q 755 1946 634 1946 
Q 525 1946 441 2029 
Q 358 2112 358 2240 
Q 358 2547 685 2752 
Q 986 2944 1421 2944 
Q 1939 2944 2176 2656 
Q 2291 2522 2323 2384 
Q 2355 2246 2355 1946 
L 2355 723 
Q 2355 301 2554 301 
Q 2682 301 2829 422 
z
M 1837 813 
L 1837 1715 
Q 1248 1510 1018 1293 
Q 800 1094 800 800 
Q 800 557 921 432 
Q 1043 307 1242 307 
Q 1453 307 1613 410 
Q 1747 506 1792 589 
Q 1837 672 1837 813 
z
" transform="scale(0.015625)"/>
       <path id="STIXGeneral-Regular-74" d="M 1702 493 
L 1786 422 
Q 1478 -64 1011 -64 
Q 448 -64 448 749 
L 448 2675 
L 109 2675 
Q 83 2694 83 2720 
Q 83 2771 192 2842 
Q 435 2982 813 3526 
Q 826 3546 874 3606 
Q 922 3667 941 3706 
Q 986 3706 986 3622 
L 986 2880 
L 1632 2880 
L 1632 2675 
L 986 2675 
L 986 845 
Q 986 538 1062 403 
Q 1139 269 1318 269 
Q 1510 269 1702 493 
z
" transform="scale(0.015625)"/>
       <path id="STIXGeneral-Regular-65" d="M 2611 1050 
L 2714 1005 
Q 2330 -64 1376 -64 
Q 813 -64 486 329 
Q 160 723 160 1389 
Q 160 2074 525 2509 
Q 890 2944 1485 2944 
Q 2061 2944 2374 2502 
Q 2560 2246 2592 1773 
L 621 1773 
Q 646 1370 700 1158 
Q 755 947 915 730 
Q 1184 378 1626 378 
Q 1939 378 2153 531 
Q 2368 685 2611 1050 
z
M 634 1978 
L 1939 1978 
Q 1882 2381 1750 2547 
Q 1619 2714 1312 2714 
Q 1043 2714 864 2525 
Q 685 2336 634 1978 
z
" transform="scale(0.015625)"/>
      </defs>
      <use xlink:href="#STIXGeneral-Regular-44"/>
      <use xlink:href="#STIXGeneral-Regular-61" transform="translate(72.199982 0)"/>
      <use xlink:href="#STIXGeneral-Regular-74" transform="translate(116.599976 0)"/>
      <use xlink:href="#STIXGeneral-Regular-65" transform="translate(144.399963 0)"/>
     </g>
    </g>
   </g>
   <g id="matplotlib.axis_2">
    <g id="ytick_1">
     <g id="line2d_12">
      <defs>
       <path id="m63ee398a4a" d="M 0 0 
L -3.5 0 
" style="stroke: #323034; stroke-width: 0.8"/>
      </defs>
      <g>
       <use xlink:href="#m63ee398a4a" x="47.665" y="208.50375" style="fill: #323034; stroke: #323034; stroke-width: 0.8"/>
      </g>
     </g>
     <g id="text_13">
      <!-- $\mathdefault{20}$ -->
      <g style="fill: #323034" transform="translate(24.665 213.9675) scale(0.16 -0.16)">
       <use xlink:href="#STIXGeneral-Regular-32" transform="translate(0 0.40625)"/>
       <use xlink:href="#STIXGeneral-Regular-30" transform="translate(49.999985 0.40625)"/>
      </g>
     </g>
    </g>
    <g id="ytick_2">
     <g id="line2d_13">
      <g>
       <use xlink:href="#m63ee398a4a" x="47.665" y="159.54375" style="fill: #323034; stroke: #323034; stroke-width: 0.8"/>
      </g>
     </g>
     <g id="text_14">
      <!-- $\mathdefault{30}$ -->
      <g style="fill: #323034" transform="translate(24.665 165.0075) scale(0.16 -0.16)">
       <defs>
        <path id="STIXGeneral-Regular-33" d="M 390 3264 
L 288 3290 
Q 435 3770 748 4048 
Q 1062 4326 1542 4326 
Q 1990 4326 2265 4083 
Q 2541 3840 2541 3450 
Q 2541 2925 1946 2566 
Q 2298 2413 2477 2227 
Q 2758 1914 2758 1402 
Q 2758 890 2464 506 
Q 2246 211 1840 60 
Q 1434 -90 979 -90 
Q 262 -90 262 275 
Q 262 378 339 442 
Q 416 506 525 506 
Q 685 506 915 339 
Q 1197 141 1466 141 
Q 1818 141 2058 425 
Q 2298 710 2298 1120 
Q 2298 1856 1632 2048 
Q 1434 2112 979 2112 
L 979 2202 
Q 1338 2323 1517 2432 
Q 2035 2726 2035 3290 
Q 2035 3610 1852 3776 
Q 1670 3942 1344 3942 
Q 768 3942 390 3264 
z
" transform="scale(0.015625)"/>
       </defs>
       <use xlink:href="#STIXGeneral-Regular-33" transform="translate(0 0.40625)"/>
       <use xlink:href="#STIXGeneral-Regular-30" transform="translate(49.999985 0.40625)"/>
      </g>
     </g>
    </g>
    <g id="ytick_3">
     <g id="line2d_14">
      <g>
       <use xlink:href="#m63ee398a4a" x="47.665" y="110.58375" style="fill: #323034; stroke: #323034; stroke-width: 0.8"/>
      </g>
     </g>
     <g id="text_15">
      <!-- $\mathdefault{40}$ -->
      <g style="fill: #323034" transform="translate(24.665 116.0475) scale(0.16 -0.16)">
       <use xlink:href="#STIXGeneral-Regular-34" transform="translate(0 0.40625)"/>
       <use xlink:href="#STIXGeneral-Regular-30" transform="translate(49.999985 0.40625)"/>
      </g>
     </g>
    </g>
    <g id="ytick_4">
     <g id="line2d_15">
      <g>
       <use xlink:href="#m63ee398a4a" x="47.665" y="61.62375" style="fill: #323034; stroke: #323034; stroke-width: 0.8"/>
      </g>
     </g>
     <g id="text_16">
      <!-- $\mathdefault{50}$ -->
      <g style="fill: #323034" transform="translate(24.665 67.0875) scale(0.16 -0.16)">
       <defs>
        <path id="STIXGeneral-Regular-35" d="M 2803 4358 
L 2573 3814 
Q 2534 3731 2400 3731 
L 1158 3731 
L 902 3187 
Q 1606 3053 1920 2896 
Q 2234 2739 2502 2368 
Q 2726 2061 2726 1555 
Q 2726 1094 2576 780 
Q 2426 467 2099 224 
Q 1664 -90 1011 -90 
Q 646 -90 422 19 
Q 198 128 198 307 
Q 198 550 486 550 
Q 717 550 960 352 
Q 1210 147 1414 147 
Q 1747 147 2012 480 
Q 2278 813 2278 1229 
Q 2278 1843 1850 2189 
Q 1293 2637 486 2637 
Q 410 2637 410 2688 
L 416 2720 
L 1114 4237 
L 2438 4237 
Q 2547 4237 2608 4269 
Q 2669 4301 2746 4403 
L 2803 4358 
z
" transform="scale(0.015625)"/>
       </defs>
       <use xlink:href="#STIXGeneral-Regular-35" transform="translate(0 0.203125)"/>
       <use xlink:href="#STIXGeneral-Regular-30" transform="translate(49.999985 0.203125)"/>
      </g>
     </g>
    </g>
    <g id="ytick_5">
     <g id="line2d_16">
      <g>
       <use xlink:href="#m63ee398a4a" x="47.665" y="12.66375" style="fill: #323034; stroke: #323034; stroke-width: 0.8"/>
      </g>
     </g>
     <g id="text_17">
      <!-- $\mathdefault{60}$ -->
      <g style="fill: #323034" transform="translate(24.665 18.1275) scale(0.16 -0.16)">
       <defs>
        <path id="STIXGeneral-Regular-36" d="M 2854 4378 
L 2867 4275 
Q 2112 4154 1606 3664 
Q 1101 3174 973 2451 
Q 1344 2739 1786 2739 
Q 2349 2739 2672 2380 
Q 2995 2022 2995 1402 
Q 2995 774 2669 378 
Q 2291 -90 1651 -90 
Q 870 -90 518 557 
Q 218 1107 218 1786 
Q 218 2835 915 3552 
Q 1312 3962 1731 4131 
Q 2150 4301 2854 4378 
z
M 2419 1203 
Q 2419 2445 1555 2445 
Q 1235 2445 1024 2275 
Q 813 2106 813 1702 
Q 813 954 1046 522 
Q 1280 90 1722 90 
Q 2061 90 2240 394 
Q 2419 698 2419 1203 
z
" transform="scale(0.015625)"/>
       </defs>
       <use xlink:href="#STIXGeneral-Regular-36" transform="translate(0 0.59375)"/>
       <use xlink:href="#STIXGeneral-Regular-30" transform="translate(49.999985 0.59375)"/>
      </g>
     </g>
    </g>
    <g id="text_18">
     <!-- Close ($) -->
     <g transform="translate(18.1925 140.13625) rotate(-90) scale(0.16 -0.16)">
      <defs>
       <path id="STIXGeneral-Regular-43" d="M 3930 838 
L 4051 723 
Q 3482 -90 2304 -90 
Q 1376 -90 794 480 
Q 179 1082 179 2080 
Q 179 3014 755 3661 
Q 1357 4326 2310 4326 
Q 2720 4326 3072 4230 
Q 3475 4115 3514 4115 
Q 3725 4115 3782 4326 
L 3910 4326 
L 3968 2874 
L 3821 2874 
Q 3718 3334 3488 3584 
Q 3034 4070 2458 4070 
Q 1747 4070 1334 3548 
Q 922 3027 922 2182 
Q 922 1152 1382 653 
Q 1811 192 2522 192 
Q 2944 192 3251 339 
Q 3558 486 3930 838 
z
" transform="scale(0.015625)"/>
       <path id="STIXGeneral-Regular-6c" d="M 1645 0 
L 134 0 
L 134 96 
Q 435 122 531 221 
Q 627 320 627 589 
L 627 3590 
Q 627 3821 569 3910 
Q 512 4000 358 4000 
Q 224 4000 122 3987 
L 122 4090 
Q 730 4237 1133 4371 
L 1165 4346 
L 1165 557 
Q 1165 288 1254 201 
Q 1344 115 1645 96 
L 1645 0 
z
" transform="scale(0.015625)"/>
       <path id="STIXGeneral-Regular-6f" d="M 3008 1478 
Q 3008 806 2608 371 
Q 2208 -64 1568 -64 
Q 979 -64 582 368 
Q 186 800 186 1459 
Q 186 2125 582 2534 
Q 979 2944 1626 2944 
Q 2221 2944 2614 2537 
Q 3008 2131 3008 1478 
z
M 2432 1306 
Q 2432 2035 2112 2445 
Q 1856 2765 1504 2765 
Q 1171 2765 966 2493 
Q 762 2221 762 1747 
Q 762 928 1101 435 
Q 1318 115 1677 115 
Q 2029 115 2230 432 
Q 2432 749 2432 1306 
z
" transform="scale(0.015625)"/>
       <path id="STIXGeneral-Regular-73" d="M 998 1926 
L 1664 1523 
Q 1984 1331 2105 1164 
Q 2227 998 2227 736 
Q 2227 416 1961 176 
Q 1696 -64 1331 -64 
Q 1030 -64 864 -6 
Q 691 51 570 51 
Q 461 51 416 -26 
L 333 -26 
L 333 979 
L 435 979 
Q 538 512 730 294 
Q 922 77 1248 77 
Q 1485 77 1632 211 
Q 1779 346 1779 550 
Q 1779 845 1440 1030 
L 1094 1222 
Q 326 1651 326 2150 
Q 326 2522 566 2730 
Q 806 2938 1210 2938 
Q 1491 2938 1638 2867 
Q 1754 2816 1818 2816 
Q 1862 2816 1920 2880 
L 1990 2880 
L 2022 2010 
L 1926 2010 
Q 1818 2445 1654 2621 
Q 1491 2797 1203 2797 
Q 986 2797 854 2688 
Q 723 2579 723 2362 
Q 723 2253 796 2128 
Q 870 2003 998 1926 
z
" transform="scale(0.015625)"/>
       <path id="STIXGeneral-Regular-20" transform="scale(0.015625)"/>
       <path id="STIXGeneral-Regular-28" d="M 1946 -1030 
L 1869 -1133 
Q 1126 -710 716 32 
Q 307 774 307 1613 
Q 307 3386 1888 4326 
L 1946 4224 
Q 1293 3667 1075 3126 
Q 858 2586 858 1632 
Q 858 685 1082 96 
Q 1306 -493 1946 -1030 
z
" transform="scale(0.015625)"/>
       <path id="STIXGeneral-Regular-24" d="M 1690 4077 
L 1690 2502 
Q 2234 2208 2445 2045 
Q 2656 1882 2797 1664 
Q 2931 1466 2931 1088 
Q 2931 570 2614 326 
Q 2298 83 1690 0 
L 1690 -557 
L 1472 -557 
L 1472 0 
Q 1062 0 806 73 
Q 550 147 282 326 
L 282 1158 
L 378 1158 
Q 480 685 761 432 
Q 1043 179 1472 179 
L 1472 1984 
Q 800 2362 566 2624 
Q 333 2886 333 3283 
Q 333 3731 659 3974 
Q 986 4218 1472 4250 
L 1472 4653 
L 1690 4653 
L 1690 4250 
Q 2426 4205 2720 3910 
L 2720 3200 
L 2624 3200 
Q 2528 3597 2301 3814 
Q 2074 4032 1690 4077 
z
M 1472 2605 
L 1472 4077 
Q 806 3942 806 3405 
Q 806 3194 937 3037 
Q 1069 2880 1472 2605 
z
M 1690 1875 
L 1690 179 
Q 2086 262 2252 432 
Q 2419 602 2419 941 
Q 2419 1235 2272 1427 
Q 2125 1619 1690 1875 
z
" transform="scale(0.015625)"/>
       <path id="STIXGeneral-Regular-29" d="M 186 4224 
L 262 4326 
Q 992 3891 1408 3148 
Q 1824 2406 1824 1581 
Q 1824 -166 243 -1133 
L 186 -1030 
Q 845 -486 1059 54 
Q 1274 595 1274 1562 
Q 1274 2534 1059 3120 
Q 845 3706 186 4224 
z
" transform="scale(0.015625)"/>
      </defs>
      <use xlink:href="#STIXGeneral-Regular-43"/>
      <use xlink:href="#STIXGeneral-Regular-6c" transform="translate(66.699997 0)"/>
      <use xlink:href="#STIXGeneral-Regular-6f" transform="translate(94.499985 0)"/>
      <use xlink:href="#STIXGeneral-Regular-73" transform="translate(144.499969 0)"/>
      <use xlink:href="#STIXGeneral-Regular-65" transform="translate(183.399963 0)"/>
      <use xlink:href="#STIXGeneral-Regular-20" transform="translate(227.799957 0)"/>
      <use xlink:href="#STIXGeneral-Regular-28" transform="translate(252.799942 0)"/>
      <use xlink:href="#STIXGeneral-Regular-24" transform="translate(286.09993 0)"/>
      <use xlink:href="#STIXGeneral-Regular-29" transform="translate(336.099915 0)"/>
     </g>
    </g>
   </g>
   <g id="line2d_17">
    <path d="M 67.955909 174.898585 
L 68.418117 175.043507 
L 68.880324 174.363452 
L 69.342532 172.915705 
L 70.729154 171.694643 
L 71.191362 171.550211 
L 71.653569 170.826582 
L 72.115777 171.376403 
L 72.577984 171.632464 
L 74.426814 170.54751 
L 74.889022 170.556812 
L 75.351229 170.787904 
L 75.813437 170.54751 
L 77.200059 170.440288 
L 77.662267 170.586188 
L 78.124474 168.413833 
L 79.048889 168.337456 
L 80.435511 168.718364 
L 80.897719 169.008208 
L 81.359926 160.64535 
L 81.822134 160.867139 
L 82.284341 160.288432 
L 83.670964 158.865164 
L 84.133171 157.504076 
L 84.595379 156.944464 
L 85.057586 155.81055 
L 85.519794 156.162572 
L 86.906416 154.821558 
L 87.368624 152.882742 
L 87.830831 152.312358 
L 88.293039 152.492531 
L 88.755246 152.067068 
L 90.604076 150.952249 
L 91.066284 150.487619 
L 91.528491 151.188236 
L 91.990699 150.996313 
L 93.839529 150.634009 
L 94.301736 147.434963 
L 94.763944 148.409267 
L 95.226151 147.444755 
L 96.612774 147.9652 
L 97.074981 147.753203 
L 97.537189 148.360796 
L 97.999396 148.727996 
L 98.461604 148.19678 
L 99.848226 148.120403 
L 100.310434 148.375484 
L 100.772641 146.676572 
L 101.234849 146.426387 
L 101.697056 147.227862 
L 103.083679 145.547065 
L 103.545886 147.386492 
L 104.008094 145.596025 
L 104.470301 146.171305 
L 104.932509 146.474857 
L 106.319131 146.219776 
L 106.781339 142.889516 
L 107.243546 142.537494 
L 108.167961 143.059408 
L 109.554584 143.010448 
L 110.016791 141.784489 
L 110.478999 142.633456 
L 111.403414 143.430035 
L 112.790036 143.623427 
L 113.252244 145.36983 
L 113.714451 145.162729 
L 114.176659 146.016102 
L 116.025489 145.128457 
L 116.949904 146.440585 
L 117.412111 144.428819 
L 117.874319 144.612419 
L 119.260941 143.082908 
L 119.723149 142.054748 
L 120.185356 143.034928 
L 120.647564 142.903715 
L 121.109771 143.06871 
L 122.958601 138.656924 
L 123.883016 139.786921 
L 124.345224 137.018233 
L 125.731846 132.418931 
L 126.194054 131.285996 
L 126.656261 132.143776 
L 127.118469 130.638745 
L 127.580676 128.167734 
L 129.429506 128.88255 
L 129.891714 134.850774 
L 130.353921 132.226518 
L 130.816129 131.642915 
L 132.202751 130.591254 
L 132.664959 130.768979 
L 133.127166 131.309987 
L 133.589374 130.696518 
L 134.051581 130.996153 
L 135.900411 130.924672 
L 136.362619 131.999344 
L 136.824826 131.502889 
L 137.287034 128.896748 
L 138.673656 130.648048 
L 139.135864 130.060528 
L 139.598071 128.9932 
L 140.060279 129.441673 
L 140.522486 136.313209 
L 141.909109 140.37542 
L 142.371316 139.000134 
L 142.833524 140.679462 
L 143.295731 141.640547 
L 143.757938 143.965657 
L 145.144561 139.304176 
L 145.606768 140.839561 
L 146.068976 139.850569 
L 146.531183 140.11936 
L 146.993391 139.376636 
L 148.380013 139.909321 
L 148.842221 142.296611 
L 149.304428 139.899529 
L 149.766636 142.35928 
L 150.228843 141.958787 
L 151.615466 142.56638 
L 152.539881 141.88094 
L 153.002088 143.449619 
L 153.464296 141.769801 
L 154.850918 140.775913 
L 155.313126 140.24127 
L 155.775333 139.998918 
L 156.237541 137.688985 
L 156.699748 136.235852 
L 158.086371 135.628259 
L 158.548578 135.03927 
L 159.010786 133.963129 
L 159.472993 134.750406 
L 159.935201 134.836086 
L 162.246238 131.164576 
L 162.708446 134.498752 
L 163.170653 135.690928 
L 164.557276 136.602563 
L 165.019483 135.077948 
L 165.481691 126.991715 
L 165.943898 128.777286 
L 167.792728 125.056326 
L 168.717143 122.499145 
L 169.179351 128.361616 
L 169.641558 125.877385 
L 171.028181 123.183606 
L 171.490388 121.182611 
L 171.952596 121.909667 
L 172.414803 125.442131 
L 172.877011 125.857801 
L 174.263633 126.205417 
L 174.725841 123.266838 
L 175.188048 123.025955 
L 175.650256 123.840649 
L 177.499086 121.335856 
L 177.961293 119.632537 
L 178.423501 119.136083 
L 178.885708 118.426163 
L 179.347916 118.378672 
L 181.196746 120.626425 
L 181.658953 120.820796 
L 182.121161 121.548342 
L 182.583368 124.539308 
L 183.969991 121.298156 
L 184.432198 122.016889 
L 185.356613 124.950083 
L 185.818821 123.144928 
L 187.205443 124.491328 
L 187.667651 124.444326 
L 188.592066 130.591254 
L 189.054273 132.289676 
L 190.440896 133.819187 
L 190.903103 130.836544 
L 191.365311 129.620867 
L 191.827518 130.696518 
L 192.289726 129.75159 
L 193.676348 130.108019 
L 194.138556 129.346201 
L 194.600763 130.499209 
L 195.062971 128.279363 
L 195.525178 128.390992 
L 196.911801 127.748636 
L 197.374008 127.676665 
L 197.836216 126.967235 
L 198.298423 127.574828 
L 200.147253 123.144928 
L 200.609461 122.451164 
L 201.071668 123.290828 
L 201.533876 127.58462 
L 201.996083 127.324153 
L 203.382706 127.397104 
L 203.844913 126.339568 
L 204.307121 127.130761 
L 204.769328 125.964044 
L 205.231536 119.464604 
L 206.618158 115.299577 
L 207.080366 112.617059 
L 207.542573 115.121852 
L 208.00478 113.694179 
L 208.466988 108.680675 
L 210.315818 106.031449 
L 210.778025 104.377091 
L 211.240233 104.786886 
L 211.70244 105.471836 
L 213.089063 106.252748 
L 214.013478 111.903712 
L 214.475685 109.548736 
L 214.937893 110.664044 
L 216.324515 110.870166 
L 216.786723 107.213833 
L 217.24893 105.138908 
L 218.173345 105.12471 
L 219.559968 106.137692 
L 220.022175 107.290211 
L 220.484383 111.426352 
L 220.94659 108.718864 
L 221.408798 109.611894 
L 222.79542 111.055235 
L 223.257628 111.23198 
L 223.719835 111.937494 
L 224.182043 111.618275 
L 224.64425 111.556096 
L 226.030873 107.763654 
L 226.49308 108.897568 
L 226.955288 108.222409 
L 227.417495 108.284588 
L 227.879703 106.252748 
L 229.266325 103.440486 
L 229.728533 105.635852 
L 230.19074 105.828755 
L 230.652948 105.07575 
L 231.115155 105.07575 
L 232.963985 110.185216 
L 233.426193 110.151923 
L 233.8884 109.577622 
L 234.350608 111.724518 
L 236.199438 108.236608 
L 236.661645 108.27039 
L 237.123853 107.333296 
L 237.58606 105.090438 
L 238.972683 105.780284 
L 239.897098 105.905132 
L 240.359305 104.753104 
L 240.821513 102.706576 
L 242.670343 103.705849 
L 243.13255 100.362371 
L 243.594758 100.173875 
L 244.056965 101.090406 
L 245.443588 102.782953 
L 245.905795 102.740358 
L 246.83021 109.538944 
L 247.292418 109.104668 
L 249.141248 114.319888 
L 250.065663 113.39895 
L 250.52787 121.766214 
L 251.914493 126.39734 
L 252.3767 118.851136 
L 253.301115 127.907756 
L 253.763323 125.721692 
L 256.07436 113.070428 
L 256.536568 106.572947 
L 256.998775 107.228032 
L 258.847605 107.90368 
L 259.309813 108.814825 
L 259.77202 107.146268 
L 260.234228 103.667171 
L 261.62085 99.671545 
L 262.083058 100.332995 
L 262.545265 100.63214 
L 263.007473 104.250774 
L 263.46968 102.866185 
L 264.856303 102.180745 
L 265.31851 102.35896 
L 265.780718 104.216992 
L 266.242925 102.036313 
L 266.705133 98.51462 
L 268.091755 96.505792 
L 269.01617 100.280118 
L 269.478378 100.037766 
L 269.940585 100.753072 
L 271.327207 103.908544 
L 271.789415 103.966316 
L 272.251622 108.584224 
L 272.71383 111.353401 
L 273.176037 115.860169 
L 274.56266 106.832924 
L 275.024867 111.96638 
L 275.487075 114.099568 
L 275.949282 112.583766 
L 277.798112 113.871904 
L 278.26032 111.903712 
L 278.722527 108.178835 
L 279.184735 106.798652 
L 279.646942 111.9184 
L 281.033565 109.983011 
L 281.495772 106.266457 
L 281.95798 107.213833 
L 282.420187 105.269632 
L 282.882395 104.559222 
L 284.269017 103.310252 
L 284.731225 100.501417 
L 285.193432 100.969475 
L 285.65564 106.798652 
L 286.117847 114.986723 
L 287.50447 115.521856 
L 287.966677 118.223958 
L 288.891092 116.709136 
L 289.3533 118.899606 
L 290.739922 115.502761 
L 291.20213 111.064537 
L 291.664337 102.470099 
L 292.126545 102.094086 
L 292.588752 94.046041 
L 293.975375 92.526323 
L 294.437582 91.484454 
L 294.89979 89.993622 
L 295.361997 86.89984 
L 295.824205 87.720899 
L 297.210827 88.236448 
L 297.673035 90.229609 
L 298.135242 88.197769 
L 298.59745 89.577952 
L 299.059657 90.370124 
L 300.44628 88.831312 
L 300.908487 89.370361 
L 301.370695 87.985772 
L 301.832902 88.236448 
L 302.29511 87.730691 
L 304.14394 88.535593 
L 304.606147 88.984067 
L 305.068355 89.722873 
L 305.530562 85.804604 
L 306.917185 83.957344 
L 307.379392 82.253046 
L 307.8416 81.467238 
L 308.303807 82.075321 
L 308.766015 84.101776 
L 310.152637 84.661388 
L 310.614845 83.469702 
L 311.077052 85.260169 
L 311.53926 85.143644 
L 312.001467 87.426649 
L 313.38809 87.536809 
L 313.850297 91.088368 
L 314.312505 90.156659 
L 314.774712 91.339532 
L 315.23692 91.972096 
L 316.623542 95.169673 
L 317.08575 92.549824 
L 317.547957 92.873939 
L 318.010165 91.295468 
L 318.472372 91.754224 
L 319.858995 89.345881 
L 320.321202 93.148604 
L 321.245617 91.406608 
L 321.707825 88.448934 
L 323.094447 85.404112 
L 323.556655 85.680246 
L 324.018862 88.560073 
L 324.48107 84.864083 
L 324.943277 84.536051 
L 326.3299 85.008515 
L 326.792107 84.39064 
L 327.254315 85.621984 
L 327.716522 83.899571 
L 328.17873 84.405328 
L 329.565352 84.198716 
L 330.02756 82.61535 
L 330.489767 80.507132 
L 330.951975 81.193062 
L 331.414182 84.926752 
L 332.800805 86.196284 
L 333.263012 85.756134 
L 333.72522 72.734732 
L 334.187427 65.916073 
L 334.649634 65.221331 
L 336.036257 63.96159 
L 336.498464 66.253408 
L 336.960672 66.090371 
L 337.422879 64.188275 
L 337.885087 64.902112 
L 339.271709 63.378966 
L 339.733917 62.32192 
L 340.196124 61.761817 
L 340.658332 58.181372 
L 341.120539 53.232006 
L 342.507162 55.692736 
L 342.969369 56.174012 
L 343.431577 56.16422 
L 343.893784 55.658953 
L 344.355992 54.86678 
L 345.742614 52.812419 
L 346.204822 50.755609 
L 346.667029 46.94848 
L 347.129237 44.556294 
L 347.591444 41.52616 
L 349.440274 40.652224 
L 349.902482 42.409398 
L 350.364689 46.804537 
L 350.826897 48.878483 
L 352.213519 52.343382 
L 352.675727 45.906611 
L 353.137934 49.144825 
L 353.600142 42.948937 
L 354.062349 45.921299 
L 355.448972 52.879004 
L 355.911179 52.450115 
L 356.373387 52.294912 
L 356.835594 50.384982 
L 357.297802 53.135065 
L 358.684424 49.482649 
L 359.146632 47.861094 
L 359.608839 49.916435 
L 360.071047 44.638547 
L 360.533254 43.71614 
L 361.919877 41.965331 
L 362.382084 39.604969 
L 362.844292 36.34864 
L 363.768707 45.375884 
L 365.155329 46.004041 
L 365.617537 42.409398 
L 366.079744 54.635689 
L 366.541952 56.873161 
L 367.004159 47.957056 
L 368.390782 53.4724 
L 368.852989 47.909564 
L 369.315197 48.999904 
L 369.777404 55.02688 
L 370.239612 51.199676 
L 371.626234 49.651072 
L 372.088442 47.238323 
L 372.550649 56.11624 
L 373.012857 50.64496 
L 373.475064 54.697379 
L 374.861687 59.417612 
L 375.323894 58.19606 
L 375.786102 51.720611 
L 376.248309 47.822416 
L 376.710517 64.955968 
L 378.097139 71.812326 
L 378.559347 69.299209 
L 379.021554 62.104537 
L 379.483762 62.954483 
L 379.945969 67.632611 
L 381.332592 79.666979 
L 381.794799 81.9304 
L 382.257007 88.285408 
L 382.719214 82.914985 
L 383.181422 80.425369 
L 384.568044 89.370361 
L 385.030252 99.743516 
L 385.492459 99.966774 
L 386.416874 105.235849 
L 387.803497 102.528361 
L 388.265704 102.948438 
L 388.727912 95.121692 
L 389.190119 96.754019 
L 389.652327 97.882057 
L 391.038949 90.591424 
L 391.501157 100.062246 
L 392.425572 102.40743 
L 392.887779 109.660364 
L 394.274402 108.366841 
L 394.736609 109.490473 
L 395.198817 108.946038 
L 395.661024 106.783964 
L 396.123232 113.177651 
L 397.509854 114.976931 
L 397.972062 112.478502 
L 399.358684 130.411571 
L 400.745306 134.947715 
L 401.669721 122.88544 
L 402.131929 124.081532 
L 402.594136 123.985081 
L 403.980759 122.209302 
L 404.905174 122.007097 
L 405.367381 140.37542 
L 405.829589 133.291888 
L 407.216211 133.688464 
L 408.140626 127.397104 
L 408.602834 126.822313 
L 409.065041 128.573123 
L 410.451664 131.237036 
L 410.913871 127.652185 
L 411.376079 125.471507 
L 412.300494 123.30062 
L 414.149324 127.406896 
L 414.611531 126.697465 
L 415.073739 128.100659 
L 415.535946 122.185312 
L 416.922569 123.903318 
L 417.384776 125.779955 
L 417.846984 113.456233 
L 418.309191 112.048144 
L 418.771399 111.96638 
L 420.158021 106.427536 
L 420.620229 103.021388 
L 421.082436 102.948438 
L 421.544644 106.798652 
L 422.006851 106.558259 
L 423.393474 107.71959 
L 423.855681 106.007459 
L 424.317889 106.832924 
L 424.780096 106.109785 
L 425.242304 106.543571 
L 427.091134 105.963395 
L 427.553341 104.656652 
L 428.015549 105.80966 
L 428.477756 103.565824 
L 429.864379 102.094086 
L 430.326586 101.973155 
L 430.788794 101.336675 
L 431.251001 103.344035 
L 431.713209 101.22015 
L 433.099831 100.173875 
L 433.562039 100.549888 
L 434.024246 101.756752 
L 434.486454 104.105852 
L 434.948661 103.632899 
L 436.797491 94.238944 
L 437.259699 93.312131 
L 438.184114 88.140486 
L 439.570736 85.910848 
L 440.032944 87.662147 
L 440.495151 85.741446 
L 440.957359 77.636608 
L 441.419566 82.365654 
L 442.806189 85.047193 
L 443.268396 87.349292 
L 443.730604 85.36984 
L 444.192811 85.071184 
L 444.655019 83.657708 
L 446.041641 82.133094 
L 446.503849 78.866483 
L 446.966056 77.322774 
L 447.428264 76.932073 
L 447.890471 75.377593 
L 449.277094 71.725177 
L 449.739301 72.44391 
L 450.201509 71.140595 
L 450.663716 73.096547 
L 451.125924 73.192998 
L 452.512546 72.758723 
L 452.974754 72.734732 
L 453.436961 68.193692 
L 453.899169 67.343747 
L 455.747999 66.553532 
L 456.210206 63.097936 
L 456.672414 63.474928 
L 457.134621 65.664908 
L 457.596829 66.814 
L 458.983451 66.457571 
L 459.445659 71.079395 
L 459.907866 59.513084 
L 460.370074 61.130233 
L 460.832281 58.084921 
L 462.218903 61.930729 
L 462.681111 68.501651 
L 463.143318 68.468358 
L 463.605526 71.016726 
L 464.067733 74.277462 
L 465.454356 87.76888 
L 466.378771 81.646432 
L 467.303186 83.909363 
L 468.689808 90.871475 
L 469.152016 86.745616 
L 470.076431 94.905289 
L 470.538638 95.72488 
L 472.387468 96.588044 
L 472.849676 97.592214 
L 473.311883 96.505792 
L 473.774091 100.304108 
L 473.774091 100.304108 
" clip-path="url(#p3305950a40)" style="fill: none; stroke: #bc80bd; stroke-opacity: 0.5; stroke-width: 3; stroke-linecap: square"/>
   </g>
   <g id="line2d_18">
    <path d="M 67.955909 174.898585 
L 68.418117 174.971046 
L 68.880324 174.768515 
L 69.342532 174.305312 
L 70.729154 173.783178 
L 71.653569 173.041812 
L 72.577984 172.700172 
L 74.426814 172.484906 
L 75.813437 172.057022 
L 77.662267 171.851184 
L 79.048889 171.270595 
L 80.897719 171.029864 
L 82.284341 169.669487 
L 83.670964 169.219307 
L 85.519794 167.417322 
L 86.906416 166.982986 
L 88.755246 165.220039 
L 90.604076 164.800398 
L 91.990699 163.672586 
L 93.377321 163.33127 
L 95.226151 161.916934 
L 96.612774 161.592476 
L 98.461604 160.457771 
L 99.848226 160.200742 
L 101.697056 159.198883 
L 103.083679 158.941302 
L 104.932509 158.061714 
L 106.319131 157.857542 
L 108.167961 156.886604 
L 109.554584 156.666347 
L 111.403414 155.834138 
L 113.252244 155.505515 
L 114.176659 155.226188 
L 116.487696 154.959384 
L 117.874319 154.57259 
L 119.723149 154.264801 
L 121.109771 153.847677 
L 122.496394 153.675434 
L 124.345224 152.976836 
L 125.731846 152.740539 
L 127.580676 151.765529 
L 128.967299 151.514071 
L 130.353921 150.897414 
L 130.816129 150.696846 
L 132.202751 150.489572 
L 134.051581 149.715447 
L 135.900411 149.531224 
L 137.287034 148.996036 
L 138.673656 148.822942 
L 140.522486 148.182186 
L 142.833524 147.965447 
L 143.757938 147.875667 
L 146.068976 147.67539 
L 146.993391 147.543266 
L 154.850918 147.092755 
L 161.784031 146.207074 
L 163.170653 145.948275 
L 165.019483 145.809809 
L 166.406106 145.448468 
L 168.254936 145.169139 
L 169.641558 144.787521 
L 171.490388 144.497721 
L 172.877011 144.118579 
L 174.725841 143.877803 
L 176.112463 143.502209 
L 177.961293 143.224884 
L 179.347916 142.788589 
L 181.658953 142.530519 
L 182.583368 142.30524 
L 184.432198 142.069266 
L 185.818821 141.762031 
L 188.129858 141.492128 
L 189.054273 141.382273 
L 191.365311 141.221681 
L 195.525178 140.799505 
L 197.836216 140.595393 
L 201.996083 140.071613 
L 204.307121 139.880606 
L 208.00478 139.233803 
L 208.466988 139.090361 
L 210.315818 138.785728 
L 211.70244 138.319116 
L 213.55127 138.041426 
L 214.937893 137.673678 
L 216.786723 137.419174 
L 217.24893 137.276341 
L 220.94659 136.637017 
L 221.408798 136.520529 
L 223.257628 136.303633 
L 224.64425 135.992244 
L 226.49308 135.760766 
L 227.879703 135.4115 
L 229.728533 135.158439 
L 231.115155 134.796111 
L 233.426193 134.5983 
L 234.350608 134.407485 
L 236.661645 134.200734 
L 237.58606 133.981214 
L 239.43489 133.76205 
L 240.821513 133.423891 
L 243.13255 133.184275 
L 244.056965 132.937668 
L 245.905795 132.71078 
L 247.292418 132.437543 
L 249.603455 132.231547 
L 250.52787 132.12462 
L 253.763323 131.985461 
L 256.07436 131.81579 
L 256.998775 131.640331 
L 259.309813 131.477526 
L 260.234228 131.296479 
L 262.083058 131.080656 
L 263.46968 130.788872 
L 265.31851 130.595523 
L 266.705133 130.303514 
L 268.553963 130.084924 
L 269.940585 129.790588 
L 272.251622 129.552312 
L 273.176037 129.448769 
L 278.722527 129.046533 
L 279.646942 128.922319 
L 281.95798 128.724495 
L 282.882395 128.576606 
L 284.731225 128.411972 
L 286.117847 128.220898 
L 291.20213 127.968668 
L 302.29511 126.072548 
L 304.606147 125.861742 
L 305.530562 125.647708 
L 307.379392 125.41004 
L 308.766015 125.053847 
L 310.614845 124.828016 
L 312.001467 124.50929 
L 313.850297 124.318004 
L 315.23692 124.049848 
L 317.08575 123.887971 
L 318.472372 123.633343 
L 321.245617 123.377409 
L 321.707825 123.285492 
L 323.556655 123.087883 
L 324.943277 122.798783 
L 326.792107 122.601888 
L 328.17873 122.309891 
L 330.02756 122.111407 
L 331.414182 121.808351 
L 333.263012 121.627836 
L 334.649634 121.225308 
L 336.498464 120.946115 
L 337.885087 120.532145 
L 339.733917 120.248697 
L 341.120539 119.791207 
L 342.969369 119.481218 
L 344.355992 119.01916 
L 346.204822 118.69669 
L 347.591444 118.165597 
L 349.440274 117.981479 
L 350.826897 117.472394 
L 352.213519 117.31915 
L 354.062349 116.653987 
L 355.911179 116.357052 
L 357.297802 115.911761 
L 359.146632 115.603321 
L 360.533254 115.12829 
L 361.919877 114.96201 
L 363.768707 114.29213 
L 365.617537 113.977846 
L 367.004159 113.571459 
L 368.852989 113.29261 
L 370.239612 112.885889 
L 372.088442 112.603252 
L 373.475064 112.219045 
L 375.323894 111.987322 
L 376.710517 111.617789 
L 378.559347 111.441558 
L 379.945969 111.139568 
L 382.719214 110.903288 
L 383.181422 110.838989 
L 396.123232 110.521785 
L 399.358684 110.616546 
L 408.602834 111.038334 
L 412.300494 111.221664 
L 423.855681 111.318611 
L 437.259699 110.987315 
L 453.436961 109.626432 
L 453.899169 109.553152 
L 456.210206 109.398653 
L 457.596829 109.171433 
L 459.907866 108.948417 
L 460.832281 108.780305 
L 463.143318 108.564305 
L 464.067733 108.442963 
L 466.840978 108.279528 
L 469.614223 108.145621 
L 473.774091 108.034642 
L 473.774091 108.034642 
" clip-path="url(#p3305950a40)" style="fill: none; stroke-dasharray: 3,4.95; stroke-dashoffset: 0; stroke: #fb8072; stroke-width: 3"/>
   </g>
   <g id="line2d_19">
    <path d="M 67.955909 174.898585 
L 68.418117 174.972149 
L 68.880324 174.76304 
L 69.342532 174.279896 
L 70.729154 173.730878 
L 71.653569 172.946644 
L 72.577984 172.591638 
L 74.426814 172.358091 
L 75.813437 171.896724 
L 77.662267 171.67396 
L 79.048889 170.989684 
L 80.897719 170.714502 
L 82.284341 168.960335 
L 83.670964 168.37633 
L 85.519794 166.019346 
L 86.906416 165.446658 
L 88.755246 163.091659 
L 90.604076 162.527027 
L 91.990699 161.024473 
L 93.377321 160.572888 
L 94.301736 159.602604 
L 95.226151 158.645974 
L 96.612774 158.207105 
L 97.999396 157.058098 
L 98.461604 156.708801 
L 99.848226 156.37342 
L 101.697056 155.044163 
L 103.083679 154.688457 
L 104.932509 153.534256 
L 106.319131 153.269588 
L 108.167961 151.856012 
L 109.554584 151.545 
L 110.941206 150.633504 
L 111.403414 150.385129 
L 113.252244 149.989544 
L 114.176659 149.69613 
L 116.487696 149.417598 
L 117.412111 149.154513 
L 117.874319 149.003316 
L 119.260941 148.806883 
L 120.647564 148.219902 
L 121.109771 148.051044 
L 122.496394 147.778828 
L 124.345224 146.648043 
L 125.731846 146.188716 
L 127.580676 144.271153 
L 128.967299 143.771653 
L 129.429506 143.297048 
L 130.353921 142.685268 
L 130.816129 142.335194 
L 132.202751 141.96351 
L 134.051581 140.638266 
L 135.900411 140.33321 
L 137.287034 139.462352 
L 138.673656 139.187017 
L 140.060279 138.308649 
L 140.522486 138.246611 
L 142.833524 138.406738 
L 143.757938 138.675709 
L 146.068976 138.79494 
L 146.993391 138.852417 
L 148.842221 138.989843 
L 149.766636 139.120386 
L 150.228843 139.207472 
L 153.002088 139.513549 
L 153.464296 139.582594 
L 156.237541 139.589283 
L 156.699748 139.486953 
L 158.548578 139.237268 
L 159.935201 138.819739 
L 161.321823 138.634838 
L 162.708446 138.099617 
L 163.170653 138.026445 
L 165.019483 137.895016 
L 166.406106 137.010232 
L 167.792728 136.647857 
L 169.179351 135.611177 
L 169.641558 135.316458 
L 171.028181 134.949202 
L 171.952596 134.150718 
L 172.877011 133.64452 
L 174.263633 133.419628 
L 176.112463 132.254115 
L 177.499086 131.924402 
L 179.347916 130.418951 
L 181.196746 130.123509 
L 182.121161 129.592729 
L 182.583368 129.440342 
L 183.969991 129.194851 
L 184.894406 128.811073 
L 185.818821 128.527481 
L 188.592066 128.332908 
L 189.054273 128.452063 
L 192.289726 128.798315 
L 196.911801 128.835286 
L 198.760631 128.642726 
L 200.147253 128.477407 
L 201.071668 128.145718 
L 204.769328 127.942608 
L 205.231536 127.687816 
L 206.618158 127.315529 
L 208.466988 125.61087 
L 209.85361 125.0413 
L 211.70244 122.758047 
L 213.089063 122.262259 
L 214.475685 121.21214 
L 214.937893 120.895342 
L 216.324515 120.594259 
L 217.24893 119.740353 
L 218.173345 119.301448 
L 219.559968 118.906154 
L 220.484383 118.343226 
L 221.408798 117.800754 
L 222.79542 117.598221 
L 224.64425 116.908341 
L 226.030873 116.633805 
L 227.879703 115.629531 
L 229.266325 115.263637 
L 231.115155 114.130992 
L 233.426193 113.896678 
L 234.350608 113.705738 
L 236.199438 113.541588 
L 237.58606 112.958355 
L 238.972683 112.742924 
L 240.821513 111.827453 
L 242.670343 111.583719 
L 244.056965 110.619838 
L 245.443588 110.384658 
L 246.368003 110.030201 
L 247.292418 109.988128 
L 249.141248 110.210954 
L 250.065663 110.410626 
L 250.52787 110.751374 
L 252.3767 111.449821 
L 252.838908 111.793992 
L 253.763323 112.680914 
L 256.07436 112.969197 
L 256.998775 112.610768 
L 259.309813 112.359872 
L 261.62085 111.578983 
L 262.545265 110.923227 
L 263.46968 110.487289 
L 264.856303 110.238061 
L 266.705133 109.261887 
L 268.091755 108.879162 
L 269.478378 108.071323 
L 269.940585 107.851753 
L 272.251622 107.649338 
L 272.71383 107.76047 
L 273.176037 108.003481 
L 274.56266 107.968362 
L 275.949282 108.398126 
L 279.646942 108.692379 
L 281.495772 108.657157 
L 282.420187 108.513522 
L 282.882395 108.394886 
L 284.269017 108.242339 
L 285.193432 107.79887 
L 285.65564 107.768862 
L 286.117847 107.985408 
L 287.50447 108.211512 
L 289.3533 109.312405 
L 291.20213 109.545117 
L 292.126545 109.115688 
L 292.588752 108.663583 
L 293.975375 108.179448 
L 295.361997 106.540553 
L 295.824205 105.975946 
L 297.210827 105.443746 
L 299.059657 103.626428 
L 300.44628 103.182563 
L 302.29511 101.476897 
L 304.14394 101.088649 
L 305.530562 99.957686 
L 306.917185 99.477666 
L 308.766015 97.529955 
L 310.152637 97.143892 
L 311.53926 96.05207 
L 312.001467 95.793304 
L 313.850297 95.411887 
L 315.23692 95.041844 
L 317.08575 94.970802 
L 321.707825 94.233463 
L 323.094447 93.96858 
L 324.943277 93.041054 
L 326.3299 92.800076 
L 328.17873 91.856354 
L 329.565352 91.626623 
L 331.414182 90.561404 
L 333.263012 90.290219 
L 333.72522 89.763552 
L 334.649634 88.333316 
L 336.036257 87.602161 
L 337.885087 85.048058 
L 339.271709 84.397982 
L 340.658332 82.329623 
L 341.120539 81.456691 
L 342.507162 80.683769 
L 344.355992 77.817833 
L 345.742614 77.067668 
L 346.667029 75.398407 
L 347.591444 73.484729 
L 349.440274 72.499751 
L 350.364689 70.853261 
L 350.826897 70.194016 
L 352.213519 69.658496 
L 354.062349 66.939755 
L 355.448972 66.517932 
L 357.297802 64.860321 
L 358.684424 64.39899 
L 360.533254 62.341863 
L 361.919877 61.730566 
L 363.306499 59.74825 
L 363.768707 59.317078 
L 365.155329 58.917686 
L 365.617537 58.422437 
L 366.541952 58.265764 
L 367.004159 57.956503 
L 368.390782 57.82198 
L 369.315197 57.268865 
L 369.777404 57.201606 
L 370.239612 57.021548 
L 371.626234 56.800433 
L 372.088442 56.51357 
L 372.550649 56.50165 
L 373.012857 56.325949 
L 373.475064 56.277092 
L 375.323894 56.42605 
L 376.248309 56.031012 
L 376.710517 56.298761 
L 378.097139 56.764169 
L 378.559347 57.14022 
L 379.483762 57.45911 
L 379.945969 57.764315 
L 381.332592 58.421395 
L 383.181422 61.280932 
L 384.568044 62.123615 
L 385.492459 64.35365 
L 386.416874 65.580117 
L 387.803497 66.688565 
L 388.727912 68.596722 
L 389.652327 70.29466 
L 391.038949 70.903563 
L 391.501157 71.778324 
L 392.425572 72.697197 
L 392.887779 73.806093 
L 394.274402 74.842915 
L 396.123232 78.833729 
L 397.509854 79.918025 
L 398.434269 82.024422 
L 399.358684 84.67689 
L 401.669721 87.286028 
L 402.594136 89.457749 
L 403.980759 90.440296 
L 404.905174 91.3873 
L 405.829589 94.069993 
L 407.216211 95.258547 
L 408.140626 97.245244 
L 409.065041 99.045774 
L 410.451664 100.011512 
L 411.376079 101.579655 
L 412.300494 102.895649 
L 414.149324 103.630987 
L 415.535946 105.550782 
L 416.922569 106.101358 
L 417.384776 106.691716 
L 418.771399 107.19677 
L 420.158021 107.173693 
L 421.082436 106.926103 
L 427.553341 106.778631 
L 428.477756 106.654049 
L 430.326586 106.380928 
L 431.713209 105.995347 
L 433.562039 105.662578 
L 434.486454 105.502217 
L 436.335284 105.180982 
L 437.721906 104.099626 
L 438.184114 103.620852 
L 439.570736 103.089552 
L 440.495151 102.120171 
L 441.419566 100.815064 
L 442.806189 100.342027 
L 444.192811 99.081466 
L 444.655019 98.618753 
L 446.041641 98.124183 
L 447.890471 95.710654 
L 449.277094 94.99109 
L 451.125924 92.409442 
L 452.512546 91.81992 
L 453.436961 90.555754 
L 453.899169 89.859394 
L 455.747999 89.160218 
L 457.134621 86.972257 
L 457.596829 86.367509 
L 458.983451 85.770211 
L 459.445659 85.329486 
L 460.832281 83.079232 
L 462.218903 82.444777 
L 463.605526 81.301649 
L 464.067733 81.090923 
L 469.152016 81.931711 
L 470.076431 82.592007 
L 470.538638 82.985993 
L 472.387468 83.394055 
L 473.774091 84.68368 
L 473.774091 84.68368 
" clip-path="url(#p3305950a40)" style="fill: none; stroke-dasharray: 11.1,4.8; stroke-dashoffset: 0; stroke: #b3de69; stroke-width: 3"/>
   </g>
   <g id="line2d_20">
    <path d="M 85.519794 167.417322 
L 86.906416 166.700286 
L 88.755246 163.690907 
L 90.604076 162.955265 
L 91.990699 160.770862 
L 93.377321 160.062114 
L 94.763944 157.7259 
L 95.226151 156.904631 
L 96.612774 156.096739 
L 98.461604 153.211648 
L 99.848226 152.465655 
L 101.697056 150.609949 
L 103.083679 150.182913 
L 104.932509 148.821825 
L 106.319131 148.583862 
L 108.167961 147.276997 
L 109.554584 147.009955 
L 110.941206 146.102464 
L 111.403414 145.845179 
L 113.714451 145.519001 
L 114.176659 145.44939 
L 116.487696 145.265877 
L 119.260941 144.735308 
L 120.647564 144.294686 
L 122.496394 143.932504 
L 124.345224 142.866802 
L 125.731846 142.492853 
L 127.580676 140.738686 
L 128.967299 140.268932 
L 129.429506 139.777829 
L 130.353921 139.084538 
L 130.816129 138.656662 
L 132.202751 138.128856 
L 134.051581 136.043754 
L 135.900411 135.489615 
L 137.287034 134.070859 
L 138.673656 133.663477 
L 140.060279 132.216621 
L 140.522486 132.094816 
L 142.833524 132.182349 
L 143.295731 132.347432 
L 143.757938 132.759815 
L 145.144561 133.046178 
L 146.068976 133.685736 
L 146.993391 134.496339 
L 148.380013 134.890152 
L 149.766636 135.812838 
L 150.228843 136.218821 
L 152.539881 137.017691 
L 153.464296 137.857932 
L 154.850918 138.209762 
L 156.699748 139.321119 
L 158.086371 139.519967 
L 159.010786 139.897378 
L 159.472993 139.841564 
L 159.935201 139.643731 
L 161.321823 139.420263 
L 163.170653 138.269493 
L 164.557276 138.118172 
L 165.019483 137.947721 
L 166.406106 136.668589 
L 167.792728 136.052864 
L 169.641558 133.682011 
L 171.028181 133.014249 
L 171.952596 131.509709 
L 172.877011 130.448378 
L 174.263633 129.955753 
L 175.650256 128.547908 
L 176.112463 128.123985 
L 177.499086 127.673011 
L 179.347916 125.574078 
L 181.196746 125.197715 
L 182.583368 123.773294 
L 185.818821 122.74155 
L 188.129858 122.809796 
L 188.592066 122.978149 
L 189.054273 123.303366 
L 190.440896 123.754672 
L 190.903103 124.073489 
L 192.289726 124.52219 
L 193.676348 124.766518 
L 195.525178 125.664514 
L 196.911801 125.954375 
L 198.760631 127.10156 
L 201.071668 127.17222 
L 201.996083 127.586282 
L 204.769328 127.972716 
L 206.618158 127.359212 
L 208.00478 125.38539 
L 208.466988 124.594109 
L 209.85361 123.773836 
L 211.70244 120.229727 
L 213.089063 119.363782 
L 214.937893 116.839299 
L 216.324515 116.264404 
L 217.24893 114.775408 
L 218.173345 114.131829 
L 219.559968 113.549205 
L 221.408798 111.101012 
L 222.79542 110.555143 
L 223.719835 109.486382 
L 224.182043 109.206155 
L 224.64425 109.07246 
L 226.030873 108.899124 
L 226.955288 108.481408 
L 231.115155 108.386408 
L 234.350608 108.394591 
L 236.661645 108.33827 
L 237.58606 108.415417 
L 239.43489 108.351471 
L 240.821513 107.766032 
L 242.670343 107.503554 
L 244.056965 106.319229 
L 246.83021 105.769601 
L 247.292418 105.798889 
L 248.67904 106.046207 
L 249.603455 106.725772 
L 250.065663 106.996136 
L 250.52787 107.592224 
L 252.3767 108.663207 
L 252.838908 109.119199 
L 253.763323 110.273746 
L 255.149945 110.63939 
L 256.07436 111.140495 
L 256.998775 111.245147 
L 259.309813 111.422155 
L 260.234228 111.541932 
L 262.545265 111.413167 
L 263.46968 111.52901 
L 264.856303 111.509024 
L 265.780718 111.18935 
L 266.242925 110.936909 
L 266.705133 110.413229 
L 268.091755 109.777012 
L 269.478378 107.987471 
L 269.940585 107.071604 
L 271.327207 106.53794 
L 272.71383 104.657754 
L 275.024867 104.177404 
L 275.949282 104.637488 
L 279.184735 105.109672 
L 279.646942 105.54706 
L 282.882395 106.369535 
L 284.269017 106.40351 
L 285.193432 106.23271 
L 285.65564 106.528568 
L 286.117847 107.188601 
L 287.50447 107.795653 
L 288.891092 109.625708 
L 289.3533 110.161103 
L 291.20213 110.661701 
L 291.664337 110.344441 
L 292.588752 109.39612 
L 293.975375 108.701833 
L 295.824205 105.260399 
L 297.210827 104.548171 
L 297.673035 103.956419 
L 298.59745 102.380502 
L 299.059657 101.812776 
L 300.44628 101.156257 
L 302.29511 99.00207 
L 304.14394 98.558002 
L 304.606147 97.921767 
L 305.530562 95.958157 
L 306.917185 94.734349 
L 308.766015 89.78458 
L 310.152637 88.841611 
L 311.077052 87.561814 
L 311.53926 87.243871 
L 312.001467 87.06174 
L 313.850297 86.959851 
L 315.23692 87.338818 
L 317.08575 87.67068 
L 318.472372 87.925831 
L 319.858995 87.924957 
L 320.321202 88.109344 
L 321.707825 88.248215 
L 324.943277 87.963933 
L 326.792107 88.16675 
L 327.254315 88.293416 
L 330.02756 88.208628 
L 331.414182 87.727194 
L 333.263012 87.395315 
L 333.72522 86.730858 
L 334.649634 84.730702 
L 336.036257 83.709693 
L 337.885087 80.001288 
L 339.271709 78.938087 
L 341.120539 74.81513 
L 342.507162 73.641297 
L 344.355992 69.50075 
L 345.742614 68.328979 
L 346.667029 65.807522 
L 347.591444 62.92425 
L 349.440274 61.50086 
L 350.826897 57.421443 
L 352.213519 56.228131 
L 352.675727 55.269983 
L 353.137934 54.67101 
L 354.062349 53.231272 
L 355.448972 52.753614 
L 357.297802 50.957377 
L 358.684424 50.498831 
L 359.146632 50.002377 
L 360.071047 49.400291 
L 360.533254 48.972556 
L 361.919877 48.465103 
L 363.306499 46.692087 
L 363.768707 46.426496 
L 365.617537 46.094687 
L 366.079744 46.454666 
L 366.541952 47.002773 
L 367.004159 47.26366 
L 368.852989 47.698232 
L 369.777404 47.798408 
L 370.239612 47.987446 
L 371.626234 48.005526 
L 372.088442 48.158718 
L 372.550649 48.522823 
L 373.012857 48.443036 
L 374.861687 48.777678 
L 375.323894 49.056645 
L 376.248309 48.946834 
L 376.710517 49.557366 
L 378.097139 50.339362 
L 379.021554 51.876828 
L 379.483762 52.626441 
L 379.945969 53.627428 
L 381.332592 55.174511 
L 383.181422 60.841474 
L 384.568044 62.081998 
L 385.492459 65.470572 
L 386.416874 67.319267 
L 387.803497 69.269938 
L 388.265704 71.196671 
L 389.190119 74.25557 
L 389.652327 75.978105 
L 391.038949 77.52643 
L 391.501157 79.09593 
L 392.425572 80.94459 
L 392.887779 82.907554 
L 394.274402 84.655741 
L 395.198817 88.531449 
L 396.123232 92.359422 
L 397.509854 93.901015 
L 397.972062 95.443132 
L 399.358684 101.855931 
L 401.669721 105.292923 
L 402.594136 108.038145 
L 403.980759 109.530428 
L 404.905174 110.696026 
L 405.829589 113.337348 
L 407.216211 114.353513 
L 409.065041 118.490563 
L 410.451664 119.681812 
L 410.913871 121.005411 
L 411.838286 122.698692 
L 412.300494 123.185844 
L 414.149324 123.865846 
L 415.535946 125.714523 
L 416.922569 126.097583 
L 417.384776 126.483405 
L 417.846984 126.518324 
L 418.309191 126.286201 
L 418.771399 125.881757 
L 420.158021 125.025184 
L 420.620229 123.884958 
L 422.006851 121.93329 
L 423.393474 121.4158 
L 423.855681 120.844385 
L 424.780096 118.675649 
L 425.242304 117.706189 
L 427.091134 116.833546 
L 428.477756 114.377818 
L 429.864379 113.336998 
L 431.251001 110.805574 
L 431.713209 110.016986 
L 433.099831 109.044378 
L 434.024246 107.169682 
L 434.948661 105.800043 
L 436.335284 104.758174 
L 438.184114 101.998789 
L 439.570736 101.387698 
L 440.032944 100.841759 
L 440.495151 100.089716 
L 441.419566 98.151302 
L 442.806189 97.402721 
L 444.192811 95.199294 
L 444.655019 94.402662 
L 446.041641 93.59825 
L 447.890471 89.850257 
L 449.277094 88.792703 
L 450.663716 85.64781 
L 451.125924 84.670778 
L 452.512546 83.635134 
L 453.899169 80.203913 
L 455.747999 79.215148 
L 456.672414 77.155034 
L 457.596829 75.670304 
L 458.983451 74.912998 
L 459.907866 73.742084 
L 460.832281 72.020738 
L 462.218903 71.112932 
L 463.605526 69.466075 
L 464.067733 69.185517 
L 465.454356 69.50346 
L 468.689808 71.273993 
L 469.614223 72.479563 
L 470.538638 74.075222 
L 472.387468 74.927126 
L 473.774091 78.223953 
L 473.774091 78.223953 
" clip-path="url(#p3305950a40)" style="fill: none; stroke-dasharray: 19.2,4.8,3,4.8; stroke-dashoffset: 0; stroke: #fdb462; stroke-width: 3"/>
   </g>
   <g id="patch_3">
    <path d="M 47.665 208.50375 
L 47.665 12.66375 
" style="fill: none; stroke: #000000; stroke-width: 0.6; stroke-linejoin: miter; stroke-linecap: square"/>
   </g>
   <g id="patch_4">
    <path d="M 47.665 208.50375 
L 494.065 208.50375 
" style="fill: none; stroke: #000000; stroke-width: 0.6; stroke-linejoin: miter; stroke-linecap: square"/>
   </g>
   <g id="legend_1">
    <g id="patch_5">
     <path d="M 56.065 81.8925 
L 185.306875 81.8925 
Q 187.706875 81.8925 187.706875 79.4925 
L 187.706875 21.06375 
Q 187.706875 18.66375 185.306875 18.66375 
L 56.065 18.66375 
Q 53.665 18.66375 53.665 21.06375 
L 53.665 79.4925 
Q 53.665 81.8925 56.065 81.8925 
z
" style="fill: #ffffff; opacity: 0.8; stroke: #e6e6e6; stroke-width: 0.8; stroke-linejoin: miter"/>
    </g>
    <g id="line2d_21">
     <path d="M 56.065 25.26375 
L 68.065 25.26375 
L 80.065 25.26375 
" style="fill: none; stroke: #bc80bd; stroke-opacity: 0.5; stroke-width: 3; stroke-linecap: square"/>
    </g>
    <g id="text_19">
     <!-- Raw -->
     <g style="fill: #323034" transform="translate(89.665 29.46375) scale(0.12 -0.12)">
      <defs>
       <path id="STIXGeneral-Regular-52" d="M 4224 0 
L 3187 0 
L 1664 1971 
L 1306 1958 
L 1306 717 
Q 1306 352 1405 249 
Q 1504 147 1875 122 
L 1875 0 
L 109 0 
L 109 122 
Q 474 154 563 262 
Q 653 371 653 794 
L 653 3526 
Q 653 3885 563 3987 
Q 474 4090 109 4115 
L 109 4237 
L 1850 4237 
Q 2726 4237 3187 3859 
Q 3501 3603 3501 3091 
Q 3501 2221 2342 2042 
L 3622 422 
Q 3757 256 3878 198 
Q 4000 141 4224 122 
L 4224 0 
z
M 1306 3731 
L 1306 2195 
Q 1766 2202 1990 2246 
Q 2214 2291 2438 2413 
Q 2803 2618 2803 3142 
Q 2803 4000 1632 4000 
Q 1459 4000 1382 3945 
Q 1306 3891 1306 3731 
z
" transform="scale(0.015625)"/>
       <path id="STIXGeneral-Regular-77" d="M 4442 2880 
L 4442 2784 
Q 4346 2752 4301 2691 
Q 4256 2630 4179 2438 
L 3296 224 
Q 3168 -90 3117 -90 
Q 3085 -90 3062 -48 
Q 3040 -6 2963 186 
L 2381 1696 
L 1664 160 
Q 1549 -90 1504 -90 
Q 1446 -90 1338 192 
L 474 2381 
Q 378 2630 314 2700 
Q 250 2771 134 2784 
L 134 2880 
L 1286 2880 
L 1286 2784 
Q 1120 2765 1056 2720 
Q 992 2675 992 2573 
Q 992 2477 1030 2381 
L 1664 710 
L 2246 1984 
L 2118 2342 
Q 2029 2598 1942 2681 
Q 1856 2765 1677 2784 
L 1677 2880 
L 2976 2880 
L 2976 2784 
Q 2752 2752 2678 2707 
Q 2605 2662 2605 2560 
Q 2605 2458 2714 2176 
L 3251 742 
L 3827 2163 
Q 3936 2432 3936 2592 
Q 3936 2669 3875 2710 
Q 3814 2752 3654 2784 
L 3654 2880 
L 4442 2880 
z
" transform="scale(0.015625)"/>
      </defs>
      <use xlink:href="#STIXGeneral-Regular-52"/>
      <use xlink:href="#STIXGeneral-Regular-61" transform="translate(66.699997 0)"/>
      <use xlink:href="#STIXGeneral-Regular-77" transform="translate(111.099991 0)"/>
     </g>
    </g>
    <g id="line2d_22">
     <path d="M 56.065 41.068125 
L 68.065 41.068125 
L 80.065 41.068125 
" style="fill: none; stroke-dasharray: 3,4.95; stroke-dashoffset: 0; stroke: #fb8072; stroke-width: 3"/>
    </g>
    <g id="text_20">
     <!-- Expanding Average -->
     <g style="fill: #323034" transform="translate(89.665 45.268125) scale(0.12 -0.12)">
      <defs>
       <path id="STIXGeneral-Regular-45" d="M 3821 1082 
L 3526 0 
L 77 0 
L 77 122 
Q 442 147 538 252 
Q 634 358 634 730 
L 634 3520 
Q 634 3878 534 3987 
Q 435 4096 77 4115 
L 77 4237 
L 3469 4237 
L 3494 3322 
L 3334 3322 
Q 3264 3750 3085 3872 
Q 2906 3994 2349 3994 
L 1510 3994 
Q 1370 3994 1328 3952 
Q 1286 3910 1286 3763 
L 1286 2355 
L 2253 2355 
Q 2656 2355 2787 2470 
Q 2918 2586 2976 2970 
L 3123 2970 
L 3123 1472 
L 2976 1472 
Q 2918 1875 2790 1984 
Q 2662 2093 2253 2093 
L 1286 2093 
L 1286 538 
Q 1286 346 1420 291 
Q 1555 237 1933 237 
L 2163 237 
Q 2848 237 3136 403 
Q 3424 570 3642 1082 
L 3821 1082 
z
" transform="scale(0.015625)"/>
       <path id="STIXGeneral-Regular-78" d="M 3066 0 
L 1779 0 
L 1779 96 
Q 1939 109 1987 137 
Q 2035 166 2035 250 
Q 2035 307 1997 365 
L 1414 1261 
L 909 474 
Q 781 275 781 211 
Q 781 96 1037 96 
L 1037 0 
L 109 0 
L 109 96 
Q 269 109 355 169 
Q 442 230 576 422 
L 1306 1478 
L 704 2400 
Q 557 2624 454 2704 
Q 352 2784 211 2784 
L 154 2784 
L 154 2880 
L 1478 2880 
L 1478 2784 
Q 1203 2778 1203 2643 
Q 1203 2509 1498 2074 
Q 1581 1958 1587 1946 
Q 1619 1990 1779 2227 
Q 1811 2285 1856 2349 
Q 1901 2413 1923 2451 
Q 1946 2490 1971 2528 
Q 1997 2566 2006 2595 
Q 2016 2624 2016 2643 
Q 2016 2765 1760 2784 
L 1760 2880 
L 2771 2880 
L 2771 2784 
Q 2445 2771 2253 2502 
L 1722 1734 
L 2541 480 
Q 2790 96 3066 96 
L 3066 0 
z
" transform="scale(0.015625)"/>
       <path id="STIXGeneral-Regular-70" d="M 1018 2931 
L 1018 2438 
Q 1421 2944 1939 2944 
Q 2406 2944 2707 2560 
Q 3008 2176 3008 1581 
Q 3008 883 2621 409 
Q 2234 -64 1664 -64 
Q 1466 -64 1328 -6 
Q 1190 51 1018 211 
L 1018 -794 
Q 1018 -1094 1120 -1180 
Q 1222 -1267 1581 -1274 
L 1581 -1389 
L 32 -1389 
L 32 -1280 
Q 314 -1254 397 -1171 
Q 480 -1088 480 -838 
L 480 2157 
Q 480 2381 429 2451 
Q 378 2522 218 2522 
Q 115 2522 58 2515 
L 58 2618 
Q 506 2752 979 2944 
L 1018 2931 
z
M 1018 2138 
L 1018 563 
Q 1018 422 1238 281 
Q 1459 141 1683 141 
Q 2029 141 2243 467 
Q 2458 794 2458 1325 
Q 2458 1888 2243 2224 
Q 2029 2560 1670 2560 
Q 1446 2560 1232 2419 
Q 1018 2278 1018 2138 
z
" transform="scale(0.015625)"/>
       <path id="STIXGeneral-Regular-6e" d="M 3104 0 
L 1773 0 
L 1779 96 
Q 2016 115 2096 233 
Q 2176 352 2176 672 
L 2176 1946 
Q 2176 2592 1709 2592 
Q 1549 2592 1408 2515 
Q 1267 2438 1050 2227 
L 1050 461 
Q 1050 269 1136 192 
Q 1222 115 1466 96 
L 1466 0 
L 115 0 
L 115 96 
Q 358 115 435 214 
Q 512 314 512 602 
L 512 2157 
Q 512 2394 467 2483 
Q 422 2573 288 2573 
Q 160 2573 102 2547 
L 102 2656 
Q 550 2784 979 2944 
L 1030 2925 
L 1030 2426 
L 1037 2426 
Q 1491 2944 1958 2944 
Q 2323 2944 2518 2688 
Q 2714 2432 2714 1958 
L 2714 544 
Q 2714 288 2790 205 
Q 2867 122 3104 96 
L 3104 0 
z
" transform="scale(0.015625)"/>
       <path id="STIXGeneral-Regular-64" d="M 3142 269 
L 2202 -64 
L 2176 -45 
L 2176 365 
Q 1869 -64 1357 -64 
Q 826 -64 499 317 
Q 173 698 173 1312 
Q 173 1990 563 2467 
Q 954 2944 1504 2944 
Q 1850 2944 2176 2669 
L 2176 3667 
Q 2176 3866 2118 3930 
Q 2061 3994 1882 3994 
Q 1792 3994 1741 3987 
L 1741 4090 
Q 2323 4243 2682 4371 
L 2714 4358 
L 2714 730 
Q 2714 506 2768 435 
Q 2822 365 2995 365 
Q 3034 365 3142 371 
L 3142 269 
z
M 2176 653 
L 2176 2125 
Q 2176 2381 1981 2573 
Q 1786 2765 1523 2765 
Q 1158 2765 940 2438 
Q 723 2112 723 1568 
Q 723 979 963 624 
Q 1203 269 1606 269 
Q 1907 269 2080 474 
Q 2176 582 2176 653 
z
" transform="scale(0.015625)"/>
       <path id="STIXGeneral-Regular-69" d="M 1152 4045 
Q 1152 3904 1056 3811 
Q 960 3718 819 3718 
Q 685 3718 592 3811 
Q 499 3904 499 4045 
Q 499 4179 595 4275 
Q 691 4371 826 4371 
Q 966 4371 1059 4275 
Q 1152 4179 1152 4045 
z
M 1619 0 
L 102 0 
L 102 96 
Q 435 115 521 211 
Q 608 307 608 666 
L 608 2118 
Q 608 2342 563 2432 
Q 518 2522 397 2522 
Q 243 2522 128 2490 
L 128 2592 
L 1120 2944 
L 1146 2918 
L 1146 672 
Q 1146 314 1226 218 
Q 1306 122 1619 96 
L 1619 0 
z
" transform="scale(0.015625)"/>
       <path id="STIXGeneral-Regular-67" d="M 3008 2483 
L 2477 2483 
Q 2598 2208 2598 1946 
Q 2598 1453 2265 1203 
Q 1933 954 1600 954 
Q 1530 954 1357 973 
L 1235 986 
Q 1107 947 979 812 
Q 851 678 851 582 
Q 851 435 1350 410 
L 2176 371 
Q 2528 358 2739 172 
Q 2950 -13 2950 -314 
Q 2950 -685 2566 -986 
Q 2035 -1395 1286 -1395 
Q 826 -1395 502 -1212 
Q 179 -1030 179 -774 
Q 179 -595 320 -419 
Q 461 -243 806 6 
Q 602 102 534 172 
Q 467 243 467 346 
Q 467 531 762 787 
Q 909 915 1037 1043 
Q 717 1203 579 1401 
Q 442 1600 442 1901 
Q 442 2336 752 2640 
Q 1062 2944 1510 2944 
Q 1766 2944 2022 2848 
L 2163 2797 
Q 2349 2733 2515 2733 
L 3008 2733 
L 3008 2483 
z
M 973 2163 
L 973 2144 
Q 973 1683 1155 1398 
Q 1338 1114 1632 1114 
Q 1850 1114 1978 1270 
Q 2106 1427 2106 1690 
Q 2106 2112 1914 2464 
Q 1754 2765 1446 2765 
Q 1222 2765 1097 2605 
Q 973 2445 973 2163 
z
M 2771 -410 
Q 2771 -230 2595 -163 
Q 2419 -96 1978 -96 
Q 1344 -96 941 -13 
Q 749 -243 688 -348 
Q 627 -454 627 -563 
Q 627 -774 880 -902 
Q 1133 -1030 1555 -1030 
Q 2099 -1030 2435 -860 
Q 2771 -691 2771 -410 
z
" transform="scale(0.015625)"/>
       <path id="STIXGeneral-Regular-41" d="M 4525 0 
L 2893 0 
L 2893 122 
Q 3149 122 3245 179 
Q 3334 224 3334 333 
Q 3334 499 3213 781 
L 2950 1382 
L 1274 1382 
L 979 653 
Q 922 506 922 384 
Q 922 237 1027 179 
Q 1133 122 1370 122 
L 1370 0 
L 96 0 
L 96 122 
Q 365 147 486 316 
Q 608 486 902 1190 
L 2221 4314 
L 2349 4314 
L 3923 710 
Q 4064 378 4176 262 
Q 4288 147 4525 122 
L 4525 0 
z
M 2861 1645 
L 2118 3405 
L 1382 1645 
L 2861 1645 
z
" transform="scale(0.015625)"/>
       <path id="STIXGeneral-Regular-76" d="M 3053 2880 
L 3053 2784 
Q 2906 2771 2835 2688 
Q 2765 2605 2637 2285 
L 1818 230 
Q 1690 -90 1638 -90 
Q 1587 -90 1523 77 
Q 1510 96 1497 141 
Q 1485 186 1472 211 
L 704 2048 
Q 499 2534 403 2652 
Q 307 2771 122 2784 
L 122 2880 
L 1376 2880 
L 1376 2784 
Q 1210 2771 1146 2732 
Q 1082 2694 1082 2611 
Q 1082 2509 1139 2368 
L 1792 730 
L 2426 2387 
Q 2464 2483 2464 2579 
Q 2464 2758 2163 2784 
L 2163 2880 
L 3053 2880 
z
" transform="scale(0.015625)"/>
       <path id="STIXGeneral-Regular-72" d="M 1024 2931 
L 1024 2342 
Q 1267 2688 1430 2816 
Q 1594 2944 1792 2944 
Q 1958 2944 2051 2854 
Q 2144 2765 2144 2605 
Q 2144 2470 2077 2393 
Q 2010 2317 1894 2317 
Q 1773 2317 1638 2445 
Q 1536 2541 1472 2541 
Q 1338 2541 1181 2355 
Q 1024 2170 1024 2016 
L 1024 576 
Q 1024 301 1133 205 
Q 1242 109 1568 96 
L 1568 0 
L 32 0 
L 32 96 
Q 339 154 412 224 
Q 486 294 486 538 
L 486 2138 
Q 486 2349 438 2435 
Q 390 2522 269 2522 
Q 166 2522 45 2496 
L 45 2598 
Q 448 2726 992 2944 
L 1024 2931 
z
" transform="scale(0.015625)"/>
      </defs>
      <use xlink:href="#STIXGeneral-Regular-45"/>
      <use xlink:href="#STIXGeneral-Regular-78" transform="translate(61.099991 0)"/>
      <use xlink:href="#STIXGeneral-Regular-70" transform="translate(111.099976 0)"/>
      <use xlink:href="#STIXGeneral-Regular-61" transform="translate(161.09996 0)"/>
      <use xlink:href="#STIXGeneral-Regular-6e" transform="translate(205.499954 0)"/>
      <use xlink:href="#STIXGeneral-Regular-64" transform="translate(255.499939 0)"/>
      <use xlink:href="#STIXGeneral-Regular-69" transform="translate(305.499924 0)"/>
      <use xlink:href="#STIXGeneral-Regular-6e" transform="translate(333.299911 0)"/>
      <use xlink:href="#STIXGeneral-Regular-67" transform="translate(383.299896 0)"/>
      <use xlink:href="#STIXGeneral-Regular-20" transform="translate(433.299881 0)"/>
      <use xlink:href="#STIXGeneral-Regular-41" transform="translate(458.299866 0)"/>
      <use xlink:href="#STIXGeneral-Regular-76" transform="translate(530.499847 0)"/>
      <use xlink:href="#STIXGeneral-Regular-65" transform="translate(580.499832 0)"/>
      <use xlink:href="#STIXGeneral-Regular-72" transform="translate(624.899826 0)"/>
      <use xlink:href="#STIXGeneral-Regular-61" transform="translate(658.199814 0)"/>
      <use xlink:href="#STIXGeneral-Regular-67" transform="translate(702.599808 0)"/>
      <use xlink:href="#STIXGeneral-Regular-65" transform="translate(752.599792 0)"/>
     </g>
    </g>
    <g id="line2d_23">
     <path d="M 56.065 56.88375 
L 68.065 56.88375 
L 80.065 56.88375 
" style="fill: none; stroke-dasharray: 11.1,4.8; stroke-dashoffset: 0; stroke: #b3de69; stroke-width: 3"/>
    </g>
    <g id="text_21">
     <!-- EWMA ($\alpha=$0.03) -->
     <g style="fill: #323034" transform="translate(89.665 61.08375) scale(0.12 -0.12)">
      <defs>
       <path id="STIXGeneral-Regular-57" d="M 5965 4237 
L 5965 4115 
Q 5709 4064 5616 3990 
Q 5523 3917 5434 3667 
Q 4704 1709 4128 -70 
L 4032 -70 
Q 3642 1011 3008 2637 
L 2022 -70 
L 1926 -70 
Q 1709 576 1277 1753 
Q 845 2931 698 3347 
Q 538 3808 406 3958 
Q 275 4109 32 4115 
L 32 4237 
L 1594 4237 
L 1594 4115 
Q 1357 4109 1270 4064 
Q 1184 4019 1184 3917 
Q 1184 3808 1254 3616 
L 2176 1210 
L 2842 3021 
L 2662 3501 
Q 2509 3917 2400 4013 
Q 2291 4109 2010 4115 
L 2010 4237 
L 3706 4237 
L 3706 4115 
Q 3213 4102 3213 3891 
Q 3213 3808 3322 3520 
L 4237 1190 
L 5043 3360 
Q 5152 3667 5152 3853 
Q 5152 4109 4704 4115 
L 4704 4237 
L 5965 4237 
z
" transform="scale(0.015625)"/>
       <path id="STIXGeneral-Regular-4d" d="M 5530 0 
L 3738 0 
L 3738 122 
Q 4115 147 4214 265 
Q 4314 384 4314 787 
L 4314 3661 
L 2682 0 
L 2592 0 
L 979 3514 
L 979 966 
Q 979 448 1088 294 
Q 1197 141 1574 122 
L 1574 0 
L 77 0 
L 77 122 
Q 358 141 480 205 
Q 602 269 650 432 
Q 698 595 698 966 
L 698 3514 
Q 698 3878 589 3984 
Q 480 4090 90 4115 
L 90 4237 
L 1357 4237 
L 2835 1024 
L 4250 4237 
L 5523 4237 
L 5523 4115 
Q 5178 4109 5072 3993 
Q 4966 3878 4966 3520 
L 4966 717 
Q 4966 378 5072 262 
Q 5178 147 5530 122 
L 5530 0 
z
" transform="scale(0.015625)"/>
       <path id="STIXGeneral-Italic-3b1" d="M 3514 2739 
L 2605 1069 
L 2605 954 
Q 2605 704 2662 512 
Q 2720 320 2822 320 
Q 2970 320 3149 794 
L 3251 749 
Q 3014 -58 2605 -58 
Q 2291 -58 2272 614 
Q 1709 -70 1030 -70 
Q 589 -70 381 198 
Q 173 467 173 902 
Q 173 1293 329 1673 
Q 486 2054 755 2330 
Q 973 2547 1270 2684 
Q 1568 2822 1862 2822 
Q 2246 2822 2457 2595 
Q 2669 2368 2669 2061 
L 2963 2739 
L 3514 2739 
z
M 2298 1741 
Q 2298 2688 1805 2688 
Q 1472 2688 1085 2099 
Q 698 1510 698 800 
Q 698 493 806 278 
Q 915 64 1139 64 
Q 1606 64 2195 1286 
Q 2202 1325 2230 1411 
Q 2259 1498 2278 1581 
Q 2298 1664 2298 1741 
z
" transform="scale(0.015625)"/>
       <path id="STIXGeneral-Regular-3d" d="M 4077 2048 
L 307 2048 
L 307 2470 
L 4077 2470 
L 4077 2048 
z
M 4077 768 
L 307 768 
L 307 1190 
L 4077 1190 
L 4077 768 
z
" transform="scale(0.015625)"/>
       <path id="STIXGeneral-Regular-2e" d="M 1158 275 
Q 1158 134 1052 32 
Q 947 -70 800 -70 
Q 653 -70 550 32 
Q 448 134 448 281 
Q 448 429 553 534 
Q 659 640 806 640 
Q 947 640 1052 531 
Q 1158 422 1158 275 
z
" transform="scale(0.015625)"/>
      </defs>
      <use xlink:href="#STIXGeneral-Regular-45" transform="translate(0 0.40625)"/>
      <use xlink:href="#STIXGeneral-Regular-57" transform="translate(61.099991 0.40625)"/>
      <use xlink:href="#STIXGeneral-Regular-4d" transform="translate(155.499985 0.40625)"/>
      <use xlink:href="#STIXGeneral-Regular-41" transform="translate(244.399979 0.40625)"/>
      <use xlink:href="#STIXGeneral-Regular-20" transform="translate(316.59996 0.40625)"/>
      <use xlink:href="#STIXGeneral-Regular-28" transform="translate(341.599945 0.40625)"/>
      <use xlink:href="#STIXGeneral-Italic-3b1" transform="translate(374.899933 0.40625)"/>
      <use xlink:href="#STIXGeneral-Regular-3d" transform="translate(444.539926 0.40625)"/>
      <use xlink:href="#STIXGeneral-Regular-30" transform="translate(527.479907 0.40625)"/>
      <use xlink:href="#STIXGeneral-Regular-2e" transform="translate(577.479892 0.40625)"/>
      <use xlink:href="#STIXGeneral-Regular-30" transform="translate(602.479877 0.40625)"/>
      <use xlink:href="#STIXGeneral-Regular-33" transform="translate(652.479861 0.40625)"/>
      <use xlink:href="#STIXGeneral-Regular-29" transform="translate(702.479846 0.40625)"/>
     </g>
    </g>
    <g id="line2d_24">
     <path d="M 56.065 72.688125 
L 68.065 72.688125 
L 80.065 72.688125 
" style="fill: none; stroke-dasharray: 19.2,4.8,3,4.8; stroke-dashoffset: 0; stroke: #fdb462; stroke-width: 3"/>
    </g>
    <g id="text_22">
     <!-- 28D MA -->
     <g style="fill: #323034" transform="translate(89.665 76.888125) scale(0.12 -0.12)">
      <use xlink:href="#STIXGeneral-Regular-32"/>
      <use xlink:href="#STIXGeneral-Regular-38" transform="translate(49.999985 0)"/>
      <use xlink:href="#STIXGeneral-Regular-44" transform="translate(99.999969 0)"/>
      <use xlink:href="#STIXGeneral-Regular-20" transform="translate(172.199951 0)"/>
      <use xlink:href="#STIXGeneral-Regular-4d" transform="translate(197.199936 0)"/>
      <use xlink:href="#STIXGeneral-Regular-41" transform="translate(286.09993 0)"/>
     </g>
    </g>
   </g>
  </g>
 </g>
 <defs>
  <clipPath id="p3305950a40">
   <rect x="47.665" y="12.66375" width="446.4" height="195.84"/>
  </clipPath>
 </defs>
</svg>