<?xml version="1.0" encoding="utf-8" standalone="no"?>
<!DOCTYPE svg PUBLIC "-//W3C//DTD SVG 1.1//EN"
  "http://www.w3.org/Graphics/SVG/1.1/DTD/svg11.dtd">
<svg xmlns:xlink="http://www.w3.org/1999/xlink" width="492.556321pt" height="362.061pt" viewBox="0 0 492.556321 362.061" xmlns="http://www.w3.org/2000/svg" version="1.1">
 <metadata>
  <rdf:RDF xmlns:dc="http://purl.org/dc/elements/1.1/" xmlns:cc="http://creativecommons.org/ns#" xmlns:rdf="http://www.w3.org/1999/02/22-rdf-syntax-ns#">
   <cc:Work>
    <dc:type rdf:resource="http://purl.org/dc/dcmitype/StillImage"/>
    <dc:date>2025-03-26T16:06:10.312642</dc:date>
    <dc:format>image/svg+xml</dc:format>
    <dc:creator>
     <cc:Agent>
      <dc:title>Matplotlib v3.10.0, https://matplotlib.org/</dc:title>
     </cc:Agent>
    </dc:creator>
   </cc:Work>
  </rdf:RDF>
 </metadata>
 <defs>
  <style type="text/css">*{stroke-linejoin: round; stroke-linecap: butt}</style>
 </defs>
 <g id="figure_1">
  <g id="patch_1">
   <path d="M 0 362.061 
L 492.556321 362.061 
L 492.556321 0 
L 0 0 
z
" style="fill: #ffffff"/>
  </g>
  <g id="axes_1">
   <g id="patch_2">
    <path d="M 19.64 138.559333 
L 447.316321 138.559333 
L 447.316321 71.235 
L 19.64 71.235 
z
" style="fill: #ffffff"/>
   </g>
   <g id="matplotlib.axis_1">
    <g id="xtick_1">
     <g id="line2d_1">
      <defs>
       <path id="maf2491418c" d="M 0 0 
L 0 3.5 
" style="stroke: #323034; stroke-width: 0.8"/>
      </defs>
      <g>
       <use xlink:href="#maf2491418c" x="19.64" y="138.559333" style="fill: #323034; stroke: #323034; stroke-width: 0.8"/>
      </g>
     </g>
    </g>
    <g id="xtick_2">
     <g id="line2d_2">
      <g>
       <use xlink:href="#maf2491418c" x="61.569051" y="138.559333" style="fill: #323034; stroke: #323034; stroke-width: 0.8"/>
      </g>
     </g>
    </g>
    <g id="xtick_3">
     <g id="line2d_3">
      <g>
       <use xlink:href="#maf2491418c" x="104.895737" y="138.559333" style="fill: #323034; stroke: #323034; stroke-width: 0.8"/>
      </g>
     </g>
    </g>
    <g id="xtick_4">
     <g id="line2d_4">
      <g>
       <use xlink:href="#maf2491418c" x="146.824788" y="138.559333" style="fill: #323034; stroke: #323034; stroke-width: 0.8"/>
      </g>
     </g>
    </g>
    <g id="xtick_5">
     <g id="line2d_5">
      <g>
       <use xlink:href="#maf2491418c" x="190.151474" y="138.559333" style="fill: #323034; stroke: #323034; stroke-width: 0.8"/>
      </g>
     </g>
    </g>
    <g id="xtick_6">
     <g id="line2d_6">
      <g>
       <use xlink:href="#maf2491418c" x="233.47816" y="138.559333" style="fill: #323034; stroke: #323034; stroke-width: 0.8"/>
      </g>
     </g>
    </g>
    <g id="xtick_7">
     <g id="line2d_7">
      <g>
       <use xlink:href="#maf2491418c" x="275.407211" y="138.559333" style="fill: #323034; stroke: #323034; stroke-width: 0.8"/>
      </g>
     </g>
    </g>
    <g id="xtick_8">
     <g id="line2d_8">
      <g>
       <use xlink:href="#maf2491418c" x="318.733898" y="138.559333" style="fill: #323034; stroke: #323034; stroke-width: 0.8"/>
      </g>
     </g>
    </g>
    <g id="xtick_9">
     <g id="line2d_9">
      <g>
       <use xlink:href="#maf2491418c" x="360.662949" y="138.559333" style="fill: #323034; stroke: #323034; stroke-width: 0.8"/>
      </g>
     </g>
    </g>
    <g id="xtick_10">
     <g id="line2d_10">
      <g>
       <use xlink:href="#maf2491418c" x="403.989635" y="138.559333" style="fill: #323034; stroke: #323034; stroke-width: 0.8"/>
      </g>
     </g>
    </g>
    <g id="xtick_11">
     <g id="line2d_11">
      <g>
       <use xlink:href="#maf2491418c" x="447.316321" y="138.559333" style="fill: #323034; stroke: #323034; stroke-width: 0.8"/>
      </g>
     </g>
    </g>
   </g>
   <g id="matplotlib.axis_2">
    <g id="ytick_1">
     <g id="line2d_12">
      <defs>
       <path id="m6fa6c083d7" d="M 0 0 
L 3.5 0 
" style="stroke: #323034; stroke-width: 0.8"/>
      </defs>
      <g>
       <use xlink:href="#m6fa6c083d7" x="447.316321" y="121.72825" style="fill: #323034; stroke: #323034; stroke-width: 0.8"/>
      </g>
     </g>
     <g id="text_1">
      <!-- $\mathdefault{10.0}$ -->
      <g style="fill: #323034" transform="translate(454.316321 127.192) scale(0.16 -0.16)">
       <defs>
        <path id="STIXGeneral-Regular-31" d="M 2522 0 
L 755 0 
L 755 96 
Q 1107 115 1235 227 
Q 1363 339 1363 608 
L 1363 3482 
Q 1363 3795 1171 3795 
Q 1082 3795 883 3718 
L 710 3654 
L 710 3744 
L 1856 4326 
L 1914 4307 
L 1914 486 
Q 1914 275 2042 185 
Q 2170 96 2522 96 
L 2522 0 
z
" transform="scale(0.015625)"/>
        <path id="STIXGeneral-Regular-30" d="M 3046 2112 
Q 3046 1683 2963 1302 
Q 2880 922 2717 602 
Q 2554 282 2266 96 
Q 1978 -90 1600 -90 
Q 1210 -90 915 108 
Q 621 307 461 640 
Q 301 973 227 1350 
Q 154 1728 154 2150 
Q 154 2746 301 3222 
Q 448 3699 790 4012 
Q 1133 4326 1626 4326 
Q 2253 4326 2649 3712 
Q 3046 3098 3046 2112 
z
M 2432 2080 
Q 2432 3091 2217 3625 
Q 2003 4160 1587 4160 
Q 1190 4160 979 3622 
Q 768 3085 768 2106 
Q 768 1120 979 598 
Q 1190 77 1600 77 
Q 2003 77 2217 598 
Q 2432 1120 2432 2080 
z
" transform="scale(0.015625)"/>
        <path id="STIXGeneral-Regular-2e" d="M 1158 275 
Q 1158 134 1052 32 
Q 947 -70 800 -70 
Q 653 -70 550 32 
Q 448 134 448 281 
Q 448 429 553 534 
Q 659 640 806 640 
Q 947 640 1052 531 
Q 1158 422 1158 275 
z
" transform="scale(0.015625)"/>
       </defs>
       <use xlink:href="#STIXGeneral-Regular-31" transform="translate(0 0.40625)"/>
       <use xlink:href="#STIXGeneral-Regular-30" transform="translate(49.999985 0.40625)"/>
       <use xlink:href="#STIXGeneral-Regular-2e" transform="translate(99.999969 0.40625)"/>
       <use xlink:href="#STIXGeneral-Regular-30" transform="translate(124.999954 0.40625)"/>
      </g>
     </g>
    </g>
    <g id="ytick_2">
     <g id="line2d_13">
      <g>
       <use xlink:href="#m6fa6c083d7" x="447.316321" y="79.650542" style="fill: #323034; stroke: #323034; stroke-width: 0.8"/>
      </g>
     </g>
     <g id="text_2">
      <!-- $\mathdefault{12.5}$ -->
      <g style="fill: #323034" transform="translate(454.316321 85.114292) scale(0.16 -0.16)">
       <defs>
        <path id="STIXGeneral-Regular-32" d="M 3034 877 
L 2688 0 
L 186 0 
L 186 77 
L 1325 1286 
Q 1773 1754 1965 2144 
Q 2157 2534 2157 2950 
Q 2157 3379 1920 3616 
Q 1683 3853 1267 3853 
Q 922 3853 720 3673 
Q 518 3494 326 3021 
L 192 3053 
Q 301 3648 630 3987 
Q 960 4326 1523 4326 
Q 2054 4326 2380 4006 
Q 2707 3686 2707 3200 
Q 2707 2477 1888 1613 
L 832 486 
L 2330 486 
Q 2541 486 2665 569 
Q 2790 653 2944 915 
L 3034 877 
z
" transform="scale(0.015625)"/>
        <path id="STIXGeneral-Regular-35" d="M 2803 4358 
L 2573 3814 
Q 2534 3731 2400 3731 
L 1158 3731 
L 902 3187 
Q 1606 3053 1920 2896 
Q 2234 2739 2502 2368 
Q 2726 2061 2726 1555 
Q 2726 1094 2576 780 
Q 2426 467 2099 224 
Q 1664 -90 1011 -90 
Q 646 -90 422 19 
Q 198 128 198 307 
Q 198 550 486 550 
Q 717 550 960 352 
Q 1210 147 1414 147 
Q 1747 147 2012 480 
Q 2278 813 2278 1229 
Q 2278 1843 1850 2189 
Q 1293 2637 486 2637 
Q 410 2637 410 2688 
L 416 2720 
L 1114 4237 
L 2438 4237 
Q 2547 4237 2608 4269 
Q 2669 4301 2746 4403 
L 2803 4358 
z
" transform="scale(0.015625)"/>
       </defs>
       <use xlink:href="#STIXGeneral-Regular-31" transform="translate(0 0.203125)"/>
       <use xlink:href="#STIXGeneral-Regular-32" transform="translate(49.999985 0.203125)"/>
       <use xlink:href="#STIXGeneral-Regular-2e" transform="translate(99.999969 0.203125)"/>
       <use xlink:href="#STIXGeneral-Regular-35" transform="translate(124.999954 0.203125)"/>
      </g>
     </g>
    </g>
    <g id="ytick_3">
     <g id="line2d_14">
      <defs>
       <path id="md24383ee62" d="M 0 0 
L 2 0 
" style="stroke: #323034; stroke-width: 0.6"/>
      </defs>
      <g>
       <use xlink:href="#md24383ee62" x="447.316321" y="100.689396" style="fill: #323034; stroke: #323034; stroke-width: 0.6"/>
      </g>
     </g>
    </g>
   </g>
   <g id="line2d_15">
    <path d="M 19.64 117.113561 
L 25.23054 116.381355 
L 29.423445 115.98897 
L 33.61635 116.341472 
L 40.604526 117.26132 
L 43.399796 117.336936 
L 50.387971 117.215655 
L 55.978511 117.664203 
L 64.364321 118.655659 
L 67.159591 119.173579 
L 71.352496 120.15436 
L 76.943036 120.906693 
L 81.135942 121.164166 
L 85.328847 121.484532 
L 92.317022 122.256587 
L 95.112292 122.542977 
L 97.907562 122.541569 
L 103.498102 122.395366 
L 107.691007 122.471039 
L 110.486277 122.597872 
L 113.281547 122.41768 
L 117.474452 121.856912 
L 121.667358 120.987314 
L 124.462628 120.185684 
L 127.257898 119.065442 
L 130.053168 117.577639 
L 139.836613 111.755174 
L 142.631883 110.349817 
L 145.427153 109.191039 
L 148.222423 108.306077 
L 156.608233 105.930155 
L 160.801139 104.491188 
L 163.596409 103.807486 
L 166.391679 103.409782 
L 169.186949 103.260312 
L 176.175124 103.324849 
L 180.368029 103.502224 
L 183.163299 103.756468 
L 185.958569 104.23525 
L 190.151474 105.313348 
L 192.946744 106.043897 
L 195.742014 106.522068 
L 199.93492 106.766269 
L 202.73019 106.949981 
L 205.52546 107.345407 
L 208.32073 108.086477 
L 216.70654 110.73148 
L 218.104175 111.065244 
L 220.899445 111.417343 
L 225.09235 111.598372 
L 227.88762 111.532648 
L 232.080525 111.20929 
L 234.875795 111.230652 
L 237.671066 111.487208 
L 243.261606 112.12528 
L 247.454511 112.350047 
L 257.237956 111.36068 
L 264.226131 110.954348 
L 276.804846 110.005466 
L 282.395387 108.791046 
L 286.588292 107.728927 
L 290.781197 106.485827 
L 304.757547 102.630649 
L 311.745722 100.19986 
L 315.938627 98.714293 
L 318.733898 97.502252 
L 321.529168 96.126003 
L 332.710248 90.200674 
L 335.505518 89.096732 
L 338.300788 88.273127 
L 341.096058 87.680604 
L 345.288963 87.079485 
L 349.481868 86.719021 
L 355.072408 86.515735 
L 359.265314 86.059486 
L 360.662949 85.79404 
L 367.651124 83.928205 
L 371.844029 83.357987 
L 377.434569 83.018164 
L 380.229839 82.941688 
L 390.013284 83.144961 
L 398.399095 83.263789 
L 399.79673 83.206225 
L 402.592 82.751527 
L 410.97781 80.988367 
L 413.77308 81.001355 
L 416.56835 81.415731 
L 419.36362 82.156022 
L 423.556525 83.573518 
L 434.737605 87.66406 
L 438.930511 88.866757 
L 447.316321 90.976849 
L 447.316321 90.976849 
" clip-path="url(#peb5f7ef9c2)" style="fill: none; stroke-dasharray: 3.7,1.6; stroke-dashoffset: 0; stroke: #000000"/>
   </g>
   <g id="line2d_16">
    <path d="M 19.64 118.345266 
L 21.037635 116.687769 
L 23.832905 113.886178 
L 25.23054 119.18722 
L 26.628175 116.022022 
L 28.02581 116.340227 
L 29.423445 115.536931 
L 30.82108 114.079092 
L 32.218715 114.684535 
L 33.61635 115.589909 
L 35.013985 118.212666 
L 36.41162 119.08699 
L 37.809255 118.495307 
L 39.20689 116.509738 
L 40.604526 115.646781 
L 42.002161 115.702243 
L 44.797431 119.373537 
L 46.195066 118.057125 
L 47.592701 119.254374 
L 48.990336 117.197213 
L 50.387971 114.532865 
L 51.785606 113.11665 
L 53.183241 114.22084 
L 54.580876 118.467584 
L 55.978511 120.856766 
L 57.376146 119.832163 
L 58.773781 118.581286 
L 60.171416 116.329134 
L 61.569051 114.436468 
L 62.966686 116.825965 
L 64.364321 118.846398 
L 65.761956 121.777582 
L 67.159591 120.490734 
L 68.557226 119.93145 
L 69.954861 117.405743 
L 71.352496 117.902399 
L 72.750131 119.686015 
L 74.147766 123.087978 
L 75.545401 125.484163 
L 76.943036 121.520521 
L 78.340671 122.415652 
L 79.738307 118.325279 
L 81.135942 118.784057 
L 82.533577 120.524847 
L 83.931212 124.203583 
L 85.328847 121.881362 
L 86.726482 122.549912 
L 88.124117 120.949167 
L 89.521752 119.11052 
L 90.919387 120.425544 
L 92.317022 121.544691 
L 93.714657 123.326591 
L 95.112292 124.127628 
L 97.907562 124.444299 
L 99.305197 121.361269 
L 100.702832 119.904002 
L 102.100467 120.712274 
L 103.498102 122.827396 
L 104.895737 121.827471 
L 106.293372 122.699816 
L 107.691007 123.363603 
L 109.088642 122.044858 
L 110.486277 117.268586 
L 111.883912 121.358278 
L 113.281547 124.55963 
L 114.679182 124.933538 
L 116.076817 124.389613 
L 117.474452 121.108968 
L 118.872088 120.853139 
L 120.269723 119.268233 
L 121.667358 119.373537 
L 123.064993 124.101213 
L 124.462628 123.254484 
L 125.860263 119.674513 
L 127.257898 119.161615 
L 130.053168 116.065632 
L 131.450803 115.428845 
L 132.848438 118.69321 
L 135.643708 113.904891 
L 137.041343 113.003423 
L 139.836613 109.50749 
L 142.631883 111.894547 
L 144.029518 111.89966 
L 145.427153 108.48172 
L 146.824788 107.938911 
L 148.222423 106.156118 
L 149.620058 105.679734 
L 151.017693 107.928474 
L 152.415328 109.791199 
L 153.812963 108.85914 
L 155.210598 106.608994 
L 156.608233 105.015405 
L 158.005868 104.89299 
L 159.403504 102.6991 
L 160.801139 104.660776 
L 162.198774 105.489107 
L 164.994044 103.359454 
L 166.391679 102.670754 
L 167.789314 100.952605 
L 169.186949 102.046822 
L 170.584584 104.187946 
L 171.982219 104.235447 
L 173.379854 104.893271 
L 174.777489 103.443045 
L 176.175124 102.330174 
L 177.572759 102.265859 
L 178.970394 101.440386 
L 180.368029 103.060912 
L 181.765664 106.567655 
L 183.163299 105.093151 
L 185.958569 103.0594 
L 187.356204 102.522168 
L 188.753839 102.488027 
L 190.151474 105.776011 
L 191.549109 107.665316 
L 192.946744 108.799485 
L 194.344379 106.776317 
L 195.742014 106.721715 
L 198.537285 104.540354 
L 199.93492 106.253035 
L 201.332555 108.450097 
L 202.73019 108.910084 
L 204.127825 106.836773 
L 205.52546 106.548729 
L 206.923095 106.616154 
L 208.32073 105.009178 
L 209.718365 107.682224 
L 211.116 110.810238 
L 212.513635 112.762174 
L 213.91127 110.378051 
L 215.308905 110.463918 
L 218.104175 108.265032 
L 219.50181 109.694103 
L 220.899445 115.267745 
L 222.29708 111.5171 
L 223.694715 112.055927 
L 225.09235 109.648933 
L 227.88762 109.128787 
L 229.285255 109.850707 
L 230.68289 114.706674 
L 232.080525 113.233412 
L 233.47816 110.063334 
L 234.875795 115.210063 
L 236.27343 109.18926 
L 237.671066 107.237707 
L 239.068701 110.763967 
L 240.466336 116.529364 
L 241.863971 119.485522 
L 246.056876 112.522566 
L 247.454511 108.770091 
L 248.852146 112.067544 
L 250.249781 114.75003 
L 251.647416 113.0499 
L 253.045051 112.018977 
L 254.442686 111.997103 
L 255.840321 109.588275 
L 257.237956 108.309386 
L 258.635591 110.940961 
L 260.033226 113.29395 
L 261.430861 106.341015 
L 262.828496 112.821488 
L 264.226131 111.046761 
L 265.623766 109.627697 
L 267.021401 106.455033 
L 268.419036 110.588815 
L 269.816671 112.863403 
L 271.214306 112.835448 
L 272.611941 110.198373 
L 274.009576 110.841823 
L 275.407211 109.181644 
L 276.804846 106.766576 
L 278.202482 108.695244 
L 279.600117 113.90345 
L 280.997752 104.198191 
L 282.395387 110.523109 
L 283.793022 106.944367 
L 285.190657 105.908627 
L 286.588292 105.15555 
L 289.383562 109.785185 
L 290.781197 108.611962 
L 292.178832 106.513106 
L 294.974102 103.42346 
L 296.371737 102.156103 
L 297.769372 107.025835 
L 299.167007 108.658999 
L 300.564642 103.401069 
L 301.962277 104.696016 
L 303.359912 103.713358 
L 304.757547 101.076928 
L 306.155182 98.940738 
L 307.552817 100.321472 
L 308.950452 104.941962 
L 310.348087 101.187511 
L 311.745722 101.244208 
L 315.938627 96.286307 
L 317.336263 99.157206 
L 318.733898 101.287706 
L 320.131533 97.304431 
L 321.529168 97.591544 
L 322.926803 94.956586 
L 324.324438 93.007252 
L 325.722073 91.486619 
L 327.119708 92.383434 
L 328.517343 95.71387 
L 329.914978 91.790814 
L 331.312613 90.638916 
L 332.710248 90.239437 
L 334.107883 87.973657 
L 335.505518 86.231682 
L 336.903153 88.455437 
L 338.300788 91.189816 
L 339.698423 87.676799 
L 341.096058 88.182702 
L 342.493693 87.108793 
L 343.891328 85.683193 
L 345.288963 84.693954 
L 346.686598 87.142728 
L 348.084233 90.505697 
L 349.481868 86.406278 
L 350.879503 86.57248 
L 352.277138 86.315911 
L 353.674773 95.767549 
L 355.072408 84.11331 
L 356.470044 89.282408 
L 357.867679 91.073683 
L 359.265314 87.566512 
L 362.060584 84.499315 
L 363.458219 83.167434 
L 364.855854 82.145501 
L 366.253489 84.124025 
L 367.651124 87.143902 
L 369.048759 84.221263 
L 370.446394 83.015379 
L 371.844029 83.015225 
L 373.241664 82.561319 
L 374.639299 78.933503 
L 376.036934 83.975443 
L 377.434569 85.98104 
L 378.832204 84.523344 
L 380.229839 84.334385 
L 381.627474 81.193832 
L 383.025109 81.690427 
L 384.422744 80.761984 
L 385.820379 85.118563 
L 387.218014 86.379313 
L 388.615649 84.470392 
L 390.013284 84.460456 
L 391.410919 82.409814 
L 392.808554 85.152797 
L 394.206189 96.108103 
L 395.603824 83.235363 
L 397.00146 89.206875 
L 398.399095 85.548907 
L 399.79673 84.5112 
L 401.194365 82.3224 
L 402.592 82.170544 
L 403.989635 89.75132 
L 405.38727 78.250657 
L 406.784905 84.448523 
L 408.18254 80.719155 
L 409.580175 81.882194 
L 413.77308 77.729704 
L 416.56835 83.913676 
L 417.965985 82.517085 
L 419.36362 82.246996 
L 420.761255 82.294781 
L 422.15889 81.562543 
L 423.556525 81.5393 
L 426.351795 87.323723 
L 427.74943 90.46522 
L 429.147065 85.733895 
L 430.5447 85.865495 
L 431.942335 85.418335 
L 433.33997 85.322912 
L 434.737605 87.540531 
L 436.135241 91.890201 
L 437.532876 88.7175 
L 438.930511 89.368222 
L 440.328146 88.804365 
L 441.725781 87.716052 
L 443.123416 87.874803 
L 444.521051 91.363269 
L 445.918686 94.052823 
L 447.316321 90.408549 
L 447.316321 90.408549 
" clip-path="url(#peb5f7ef9c2)" style="fill: none; stroke: #bc80bd; stroke-opacity: 0.7; stroke-width: 3; stroke-linecap: square"/>
   </g>
   <g id="patch_3">
    <path d="M 447.316321 138.559333 
L 447.316321 71.235 
" style="fill: none; stroke: #000000; stroke-width: 0.6; stroke-linejoin: miter; stroke-linecap: square"/>
   </g>
   <g id="patch_4">
    <path d="M 19.64 138.559333 
L 447.316321 138.559333 
" style="fill: none; stroke: #000000; stroke-width: 0.6; stroke-linejoin: miter; stroke-linecap: square"/>
   </g>
   <g id="text_3">
    <!-- log new cases -->
    <g style="fill: #323034" transform="translate(341.783196 65.235) scale(0.19 -0.19)">
     <defs>
      <path id="STIXGeneral-Regular-6c" d="M 1645 0 
L 134 0 
L 134 96 
Q 435 122 531 221 
Q 627 320 627 589 
L 627 3590 
Q 627 3821 569 3910 
Q 512 4000 358 4000 
Q 224 4000 122 3987 
L 122 4090 
Q 730 4237 1133 4371 
L 1165 4346 
L 1165 557 
Q 1165 288 1254 201 
Q 1344 115 1645 96 
L 1645 0 
z
" transform="scale(0.015625)"/>
      <path id="STIXGeneral-Regular-6f" d="M 3008 1478 
Q 3008 806 2608 371 
Q 2208 -64 1568 -64 
Q 979 -64 582 368 
Q 186 800 186 1459 
Q 186 2125 582 2534 
Q 979 2944 1626 2944 
Q 2221 2944 2614 2537 
Q 3008 2131 3008 1478 
z
M 2432 1306 
Q 2432 2035 2112 2445 
Q 1856 2765 1504 2765 
Q 1171 2765 966 2493 
Q 762 2221 762 1747 
Q 762 928 1101 435 
Q 1318 115 1677 115 
Q 2029 115 2230 432 
Q 2432 749 2432 1306 
z
" transform="scale(0.015625)"/>
      <path id="STIXGeneral-Regular-67" d="M 3008 2483 
L 2477 2483 
Q 2598 2208 2598 1946 
Q 2598 1453 2265 1203 
Q 1933 954 1600 954 
Q 1530 954 1357 973 
L 1235 986 
Q 1107 947 979 812 
Q 851 678 851 582 
Q 851 435 1350 410 
L 2176 371 
Q 2528 358 2739 172 
Q 2950 -13 2950 -314 
Q 2950 -685 2566 -986 
Q 2035 -1395 1286 -1395 
Q 826 -1395 502 -1212 
Q 179 -1030 179 -774 
Q 179 -595 320 -419 
Q 461 -243 806 6 
Q 602 102 534 172 
Q 467 243 467 346 
Q 467 531 762 787 
Q 909 915 1037 1043 
Q 717 1203 579 1401 
Q 442 1600 442 1901 
Q 442 2336 752 2640 
Q 1062 2944 1510 2944 
Q 1766 2944 2022 2848 
L 2163 2797 
Q 2349 2733 2515 2733 
L 3008 2733 
L 3008 2483 
z
M 973 2163 
L 973 2144 
Q 973 1683 1155 1398 
Q 1338 1114 1632 1114 
Q 1850 1114 1978 1270 
Q 2106 1427 2106 1690 
Q 2106 2112 1914 2464 
Q 1754 2765 1446 2765 
Q 1222 2765 1097 2605 
Q 973 2445 973 2163 
z
M 2771 -410 
Q 2771 -230 2595 -163 
Q 2419 -96 1978 -96 
Q 1344 -96 941 -13 
Q 749 -243 688 -348 
Q 627 -454 627 -563 
Q 627 -774 880 -902 
Q 1133 -1030 1555 -1030 
Q 2099 -1030 2435 -860 
Q 2771 -691 2771 -410 
z
" transform="scale(0.015625)"/>
      <path id="STIXGeneral-Regular-20" transform="scale(0.015625)"/>
      <path id="STIXGeneral-Regular-6e" d="M 3104 0 
L 1773 0 
L 1779 96 
Q 2016 115 2096 233 
Q 2176 352 2176 672 
L 2176 1946 
Q 2176 2592 1709 2592 
Q 1549 2592 1408 2515 
Q 1267 2438 1050 2227 
L 1050 461 
Q 1050 269 1136 192 
Q 1222 115 1466 96 
L 1466 0 
L 115 0 
L 115 96 
Q 358 115 435 214 
Q 512 314 512 602 
L 512 2157 
Q 512 2394 467 2483 
Q 422 2573 288 2573 
Q 160 2573 102 2547 
L 102 2656 
Q 550 2784 979 2944 
L 1030 2925 
L 1030 2426 
L 1037 2426 
Q 1491 2944 1958 2944 
Q 2323 2944 2518 2688 
Q 2714 2432 2714 1958 
L 2714 544 
Q 2714 288 2790 205 
Q 2867 122 3104 96 
L 3104 0 
z
" transform="scale(0.015625)"/>
      <path id="STIXGeneral-Regular-65" d="M 2611 1050 
L 2714 1005 
Q 2330 -64 1376 -64 
Q 813 -64 486 329 
Q 160 723 160 1389 
Q 160 2074 525 2509 
Q 890 2944 1485 2944 
Q 2061 2944 2374 2502 
Q 2560 2246 2592 1773 
L 621 1773 
Q 646 1370 700 1158 
Q 755 947 915 730 
Q 1184 378 1626 378 
Q 1939 378 2153 531 
Q 2368 685 2611 1050 
z
M 634 1978 
L 1939 1978 
Q 1882 2381 1750 2547 
Q 1619 2714 1312 2714 
Q 1043 2714 864 2525 
Q 685 2336 634 1978 
z
" transform="scale(0.015625)"/>
      <path id="STIXGeneral-Regular-77" d="M 4442 2880 
L 4442 2784 
Q 4346 2752 4301 2691 
Q 4256 2630 4179 2438 
L 3296 224 
Q 3168 -90 3117 -90 
Q 3085 -90 3062 -48 
Q 3040 -6 2963 186 
L 2381 1696 
L 1664 160 
Q 1549 -90 1504 -90 
Q 1446 -90 1338 192 
L 474 2381 
Q 378 2630 314 2700 
Q 250 2771 134 2784 
L 134 2880 
L 1286 2880 
L 1286 2784 
Q 1120 2765 1056 2720 
Q 992 2675 992 2573 
Q 992 2477 1030 2381 
L 1664 710 
L 2246 1984 
L 2118 2342 
Q 2029 2598 1942 2681 
Q 1856 2765 1677 2784 
L 1677 2880 
L 2976 2880 
L 2976 2784 
Q 2752 2752 2678 2707 
Q 2605 2662 2605 2560 
Q 2605 2458 2714 2176 
L 3251 742 
L 3827 2163 
Q 3936 2432 3936 2592 
Q 3936 2669 3875 2710 
Q 3814 2752 3654 2784 
L 3654 2880 
L 4442 2880 
z
" transform="scale(0.015625)"/>
      <path id="STIXGeneral-Regular-63" d="M 2547 998 
L 2637 941 
Q 2362 403 2112 205 
Q 1786 -64 1376 -64 
Q 845 -64 502 336 
Q 160 736 160 1357 
Q 160 2170 698 2618 
Q 1094 2944 1562 2944 
Q 1965 2944 2256 2749 
Q 2547 2554 2547 2285 
Q 2547 2176 2457 2096 
Q 2368 2016 2246 2016 
Q 2022 2016 1939 2310 
L 1901 2451 
Q 1850 2630 1773 2694 
Q 1696 2758 1523 2758 
Q 1133 2758 893 2451 
Q 653 2144 653 1645 
Q 653 1094 928 745 
Q 1203 397 1645 397 
Q 1920 397 2118 528 
Q 2317 659 2547 998 
z
" transform="scale(0.015625)"/>
      <path id="STIXGeneral-Regular-61" d="M 2829 422 
L 2829 243 
Q 2586 -64 2253 -64 
Q 1888 -64 1843 403 
L 1837 403 
Q 1427 -64 909 -64 
Q 608 -64 422 112 
Q 237 288 237 602 
Q 237 1050 685 1350 
Q 992 1555 1837 1869 
L 1837 2214 
Q 1837 2502 1699 2646 
Q 1562 2790 1338 2790 
Q 1146 2790 1018 2697 
Q 890 2605 890 2477 
Q 890 2419 909 2348 
Q 928 2278 928 2208 
Q 928 2112 841 2029 
Q 755 1946 634 1946 
Q 525 1946 441 2029 
Q 358 2112 358 2240 
Q 358 2547 685 2752 
Q 986 2944 1421 2944 
Q 1939 2944 2176 2656 
Q 2291 2522 2323 2384 
Q 2355 2246 2355 1946 
L 2355 723 
Q 2355 301 2554 301 
Q 2682 301 2829 422 
z
M 1837 813 
L 1837 1715 
Q 1248 1510 1018 1293 
Q 800 1094 800 800 
Q 800 557 921 432 
Q 1043 307 1242 307 
Q 1453 307 1613 410 
Q 1747 506 1792 589 
Q 1837 672 1837 813 
z
" transform="scale(0.015625)"/>
      <path id="STIXGeneral-Regular-73" d="M 998 1926 
L 1664 1523 
Q 1984 1331 2105 1164 
Q 2227 998 2227 736 
Q 2227 416 1961 176 
Q 1696 -64 1331 -64 
Q 1030 -64 864 -6 
Q 691 51 570 51 
Q 461 51 416 -26 
L 333 -26 
L 333 979 
L 435 979 
Q 538 512 730 294 
Q 922 77 1248 77 
Q 1485 77 1632 211 
Q 1779 346 1779 550 
Q 1779 845 1440 1030 
L 1094 1222 
Q 326 1651 326 2150 
Q 326 2522 566 2730 
Q 806 2938 1210 2938 
Q 1491 2938 1638 2867 
Q 1754 2816 1818 2816 
Q 1862 2816 1920 2880 
L 1990 2880 
L 2022 2010 
L 1926 2010 
Q 1818 2445 1654 2621 
Q 1491 2797 1203 2797 
Q 986 2797 854 2688 
Q 723 2579 723 2362 
Q 723 2253 796 2128 
Q 870 2003 998 1926 
z
" transform="scale(0.015625)"/>
     </defs>
     <use xlink:href="#STIXGeneral-Regular-6c"/>
     <use xlink:href="#STIXGeneral-Regular-6f" transform="translate(27.799988 0)"/>
     <use xlink:href="#STIXGeneral-Regular-67" transform="translate(77.799973 0)"/>
     <use xlink:href="#STIXGeneral-Regular-20" transform="translate(127.799957 0)"/>
     <use xlink:href="#STIXGeneral-Regular-6e" transform="translate(152.799942 0)"/>
     <use xlink:href="#STIXGeneral-Regular-65" transform="translate(202.799927 0)"/>
     <use xlink:href="#STIXGeneral-Regular-77" transform="translate(247.199921 0)"/>
     <use xlink:href="#STIXGeneral-Regular-20" transform="translate(319.399902 0)"/>
     <use xlink:href="#STIXGeneral-Regular-63" transform="translate(344.399887 0)"/>
     <use xlink:href="#STIXGeneral-Regular-61" transform="translate(388.799881 0)"/>
     <use xlink:href="#STIXGeneral-Regular-73" transform="translate(433.199875 0)"/>
     <use xlink:href="#STIXGeneral-Regular-65" transform="translate(472.099869 0)"/>
     <use xlink:href="#STIXGeneral-Regular-73" transform="translate(516.499863 0)"/>
    </g>
   </g>
   <g id="legend_1">
    <g id="patch_5">
     <path d="M 28.04 108.855 
L 101.635625 108.855 
Q 104.035625 108.855 104.035625 106.455 
L 104.035625 79.635 
Q 104.035625 77.235 101.635625 77.235 
L 28.04 77.235 
Q 25.64 77.235 25.64 79.635 
L 25.64 106.455 
Q 25.64 108.855 28.04 108.855 
z
" style="fill: #ffffff; opacity: 0.8; stroke: #e6e6e6; stroke-width: 0.8; stroke-linejoin: miter"/>
    </g>
    <g id="line2d_17">
     <path d="M 28.04 83.835 
L 40.04 83.835 
L 52.04 83.835 
" style="fill: none; stroke-dasharray: 3.7,1.6; stroke-dashoffset: 0; stroke: #000000"/>
    </g>
    <g id="text_4">
     <!-- Trend -->
     <g style="fill: #323034" transform="translate(61.64 88.035) scale(0.12 -0.12)">
      <defs>
       <path id="STIXGeneral-Regular-54" d="M 3795 3149 
L 3642 3149 
Q 3539 3674 3353 3821 
Q 3168 3968 2656 3968 
L 2278 3968 
L 2278 710 
Q 2278 346 2387 243 
Q 2496 141 2893 122 
L 2893 0 
L 1024 0 
L 1024 122 
Q 1427 147 1526 256 
Q 1626 365 1626 787 
L 1626 3968 
L 1242 3968 
Q 723 3968 540 3817 
Q 358 3667 262 3149 
L 109 3149 
L 154 4237 
L 3750 4237 
L 3795 3149 
z
" transform="scale(0.015625)"/>
       <path id="STIXGeneral-Regular-72" d="M 1024 2931 
L 1024 2342 
Q 1267 2688 1430 2816 
Q 1594 2944 1792 2944 
Q 1958 2944 2051 2854 
Q 2144 2765 2144 2605 
Q 2144 2470 2077 2393 
Q 2010 2317 1894 2317 
Q 1773 2317 1638 2445 
Q 1536 2541 1472 2541 
Q 1338 2541 1181 2355 
Q 1024 2170 1024 2016 
L 1024 576 
Q 1024 301 1133 205 
Q 1242 109 1568 96 
L 1568 0 
L 32 0 
L 32 96 
Q 339 154 412 224 
Q 486 294 486 538 
L 486 2138 
Q 486 2349 438 2435 
Q 390 2522 269 2522 
Q 166 2522 45 2496 
L 45 2598 
Q 448 2726 992 2944 
L 1024 2931 
z
" transform="scale(0.015625)"/>
       <path id="STIXGeneral-Regular-64" d="M 3142 269 
L 2202 -64 
L 2176 -45 
L 2176 365 
Q 1869 -64 1357 -64 
Q 826 -64 499 317 
Q 173 698 173 1312 
Q 173 1990 563 2467 
Q 954 2944 1504 2944 
Q 1850 2944 2176 2669 
L 2176 3667 
Q 2176 3866 2118 3930 
Q 2061 3994 1882 3994 
Q 1792 3994 1741 3987 
L 1741 4090 
Q 2323 4243 2682 4371 
L 2714 4358 
L 2714 730 
Q 2714 506 2768 435 
Q 2822 365 2995 365 
Q 3034 365 3142 371 
L 3142 269 
z
M 2176 653 
L 2176 2125 
Q 2176 2381 1981 2573 
Q 1786 2765 1523 2765 
Q 1158 2765 940 2438 
Q 723 2112 723 1568 
Q 723 979 963 624 
Q 1203 269 1606 269 
Q 1907 269 2080 474 
Q 2176 582 2176 653 
z
" transform="scale(0.015625)"/>
      </defs>
      <use xlink:href="#STIXGeneral-Regular-54"/>
      <use xlink:href="#STIXGeneral-Regular-72" transform="translate(61.099991 0)"/>
      <use xlink:href="#STIXGeneral-Regular-65" transform="translate(94.399979 0)"/>
      <use xlink:href="#STIXGeneral-Regular-6e" transform="translate(138.799973 0)"/>
      <use xlink:href="#STIXGeneral-Regular-64" transform="translate(188.799957 0)"/>
     </g>
    </g>
    <g id="line2d_18">
     <path d="M 28.04 99.639375 
L 40.04 99.639375 
L 52.04 99.639375 
" style="fill: none; stroke: #bc80bd; stroke-opacity: 0.7; stroke-width: 3; stroke-linecap: square"/>
    </g>
    <g id="text_5">
     <!-- Original -->
     <g style="fill: #323034" transform="translate(61.64 103.839375) scale(0.12 -0.12)">
      <defs>
       <path id="STIXGeneral-Regular-4f" d="M 4403 2118 
Q 4403 1133 3820 521 
Q 3238 -90 2310 -90 
Q 1376 -90 797 524 
Q 218 1139 218 2138 
Q 218 3110 797 3718 
Q 1376 4326 2310 4326 
Q 3245 4326 3824 3702 
Q 4403 3078 4403 2118 
z
M 3674 2157 
Q 3674 2701 3520 3133 
Q 3366 3565 3091 3795 
Q 2733 4096 2304 4096 
Q 1760 4096 1389 3667 
Q 1184 3437 1065 3011 
Q 947 2586 947 2125 
Q 947 960 1523 429 
Q 1837 141 2317 141 
Q 2816 141 3142 448 
Q 3674 960 3674 2157 
z
" transform="scale(0.015625)"/>
       <path id="STIXGeneral-Regular-69" d="M 1152 4045 
Q 1152 3904 1056 3811 
Q 960 3718 819 3718 
Q 685 3718 592 3811 
Q 499 3904 499 4045 
Q 499 4179 595 4275 
Q 691 4371 826 4371 
Q 966 4371 1059 4275 
Q 1152 4179 1152 4045 
z
M 1619 0 
L 102 0 
L 102 96 
Q 435 115 521 211 
Q 608 307 608 666 
L 608 2118 
Q 608 2342 563 2432 
Q 518 2522 397 2522 
Q 243 2522 128 2490 
L 128 2592 
L 1120 2944 
L 1146 2918 
L 1146 672 
Q 1146 314 1226 218 
Q 1306 122 1619 96 
L 1619 0 
z
" transform="scale(0.015625)"/>
      </defs>
      <use xlink:href="#STIXGeneral-Regular-4f"/>
      <use xlink:href="#STIXGeneral-Regular-72" transform="translate(72.199982 0)"/>
      <use xlink:href="#STIXGeneral-Regular-69" transform="translate(105.499969 0)"/>
      <use xlink:href="#STIXGeneral-Regular-67" transform="translate(133.299957 0)"/>
      <use xlink:href="#STIXGeneral-Regular-69" transform="translate(183.299942 0)"/>
      <use xlink:href="#STIXGeneral-Regular-6e" transform="translate(211.09993 0)"/>
      <use xlink:href="#STIXGeneral-Regular-61" transform="translate(261.099915 0)"/>
      <use xlink:href="#STIXGeneral-Regular-6c" transform="translate(305.499908 0)"/>
     </g>
    </g>
   </g>
  </g>
  <g id="axes_2">
   <g id="patch_6">
    <path d="M 19.64 227.717417 
L 447.316321 227.717417 
L 447.316321 160.393083 
L 19.64 160.393083 
z
" style="fill: #ffffff"/>
   </g>
   <g id="matplotlib.axis_3">
    <g id="xtick_12">
     <g id="line2d_19">
      <g>
       <use xlink:href="#maf2491418c" x="19.64" y="227.717417" style="fill: #323034; stroke: #323034; stroke-width: 0.8"/>
      </g>
     </g>
    </g>
    <g id="xtick_13">
     <g id="line2d_20">
      <g>
       <use xlink:href="#maf2491418c" x="61.569051" y="227.717417" style="fill: #323034; stroke: #323034; stroke-width: 0.8"/>
      </g>
     </g>
    </g>
    <g id="xtick_14">
     <g id="line2d_21">
      <g>
       <use xlink:href="#maf2491418c" x="104.895737" y="227.717417" style="fill: #323034; stroke: #323034; stroke-width: 0.8"/>
      </g>
     </g>
    </g>
    <g id="xtick_15">
     <g id="line2d_22">
      <g>
       <use xlink:href="#maf2491418c" x="146.824788" y="227.717417" style="fill: #323034; stroke: #323034; stroke-width: 0.8"/>
      </g>
     </g>
    </g>
    <g id="xtick_16">
     <g id="line2d_23">
      <g>
       <use xlink:href="#maf2491418c" x="190.151474" y="227.717417" style="fill: #323034; stroke: #323034; stroke-width: 0.8"/>
      </g>
     </g>
    </g>
    <g id="xtick_17">
     <g id="line2d_24">
      <g>
       <use xlink:href="#maf2491418c" x="233.47816" y="227.717417" style="fill: #323034; stroke: #323034; stroke-width: 0.8"/>
      </g>
     </g>
    </g>
    <g id="xtick_18">
     <g id="line2d_25">
      <g>
       <use xlink:href="#maf2491418c" x="275.407211" y="227.717417" style="fill: #323034; stroke: #323034; stroke-width: 0.8"/>
      </g>
     </g>
    </g>
    <g id="xtick_19">
     <g id="line2d_26">
      <g>
       <use xlink:href="#maf2491418c" x="318.733898" y="227.717417" style="fill: #323034; stroke: #323034; stroke-width: 0.8"/>
      </g>
     </g>
    </g>
    <g id="xtick_20">
     <g id="line2d_27">
      <g>
       <use xlink:href="#maf2491418c" x="360.662949" y="227.717417" style="fill: #323034; stroke: #323034; stroke-width: 0.8"/>
      </g>
     </g>
    </g>
    <g id="xtick_21">
     <g id="line2d_28">
      <g>
       <use xlink:href="#maf2491418c" x="403.989635" y="227.717417" style="fill: #323034; stroke: #323034; stroke-width: 0.8"/>
      </g>
     </g>
    </g>
    <g id="xtick_22">
     <g id="line2d_29">
      <g>
       <use xlink:href="#maf2491418c" x="447.316321" y="227.717417" style="fill: #323034; stroke: #323034; stroke-width: 0.8"/>
      </g>
     </g>
    </g>
   </g>
   <g id="matplotlib.axis_4">
    <g id="ytick_4">
     <g id="line2d_30">
      <g>
       <use xlink:href="#m6fa6c083d7" x="447.316321" y="227.717417" style="fill: #323034; stroke: #323034; stroke-width: 0.8"/>
      </g>
     </g>
     <g id="text_6">
      <!-- $\mathdefault{−0.5}$ -->
      <g style="fill: #323034" transform="translate(454.316321 233.181167) scale(0.16 -0.16)">
       <defs>
        <path id="STIXGeneral-Regular-2212" d="M 3974 1408 
L 410 1408 
L 410 1830 
L 3974 1830 
L 3974 1408 
z
" transform="scale(0.015625)"/>
       </defs>
       <use xlink:href="#STIXGeneral-Regular-2212" transform="translate(0 0.203125)"/>
       <use xlink:href="#STIXGeneral-Regular-30" transform="translate(68.499985 0.203125)"/>
       <use xlink:href="#STIXGeneral-Regular-2e" transform="translate(118.499969 0.203125)"/>
       <use xlink:href="#STIXGeneral-Regular-35" transform="translate(143.499954 0.203125)"/>
      </g>
     </g>
    </g>
    <g id="ytick_5">
     <g id="line2d_31">
      <g>
       <use xlink:href="#m6fa6c083d7" x="447.316321" y="194.05525" style="fill: #323034; stroke: #323034; stroke-width: 0.8"/>
      </g>
     </g>
     <g id="text_7">
      <!-- $\mathdefault{0.0}$ -->
      <g style="fill: #323034" transform="translate(454.316321 199.519) scale(0.16 -0.16)">
       <use xlink:href="#STIXGeneral-Regular-30" transform="translate(0 0.40625)"/>
       <use xlink:href="#STIXGeneral-Regular-2e" transform="translate(49.999985 0.40625)"/>
       <use xlink:href="#STIXGeneral-Regular-30" transform="translate(74.999969 0.40625)"/>
      </g>
     </g>
    </g>
    <g id="ytick_6">
     <g id="line2d_32">
      <g>
       <use xlink:href="#m6fa6c083d7" x="447.316321" y="160.393083" style="fill: #323034; stroke: #323034; stroke-width: 0.8"/>
      </g>
     </g>
     <g id="text_8">
      <!-- $\mathdefault{0.5}$ -->
      <g style="fill: #323034" transform="translate(454.316321 165.856833) scale(0.16 -0.16)">
       <use xlink:href="#STIXGeneral-Regular-30" transform="translate(0 0.203125)"/>
       <use xlink:href="#STIXGeneral-Regular-2e" transform="translate(49.999985 0.203125)"/>
       <use xlink:href="#STIXGeneral-Regular-35" transform="translate(74.999969 0.203125)"/>
      </g>
     </g>
    </g>
    <g id="ytick_7">
     <g id="line2d_33">
      <g>
       <use xlink:href="#md24383ee62" x="447.316321" y="210.886333" style="fill: #323034; stroke: #323034; stroke-width: 0.6"/>
      </g>
     </g>
    </g>
    <g id="ytick_8">
     <g id="line2d_34">
      <g>
       <use xlink:href="#md24383ee62" x="447.316321" y="177.224167" style="fill: #323034; stroke: #323034; stroke-width: 0.6"/>
      </g>
     </g>
    </g>
   </g>
   <g id="line2d_35">
    <path d="M 19.64 195.579142 
L 21.037635 191.156144 
L 22.43527 189.457534 
L 23.832905 188.105274 
L 25.23054 204.464221 
L 26.628175 194.47617 
L 28.02581 197.737127 
L 29.423445 194.947579 
L 30.82108 189.238005 
L 32.218715 187.496075 
L 33.61635 189.332157 
L 35.013985 202.73465 
L 36.41162 197.822821 
L 37.809255 199.113469 
L 39.20689 194.509239 
L 40.604526 187.472415 
L 42.002161 185.573043 
L 43.399796 190.244521 
L 44.797431 201.135453 
L 46.195066 201.152982 
L 47.592701 200.173179 
L 48.990336 194.267555 
L 50.387971 185.929695 
L 51.785606 183.633185 
L 53.183241 190.915169 
L 54.580876 199.902504 
L 55.978511 203.868068 
L 57.376146 200.68508 
L 58.773781 195.524085 
L 60.171416 184.985186 
L 61.569051 182.551002 
L 62.966686 190.235983 
L 64.364321 200.874756 
L 65.761956 203.626566 
L 67.159591 199.533167 
L 68.557226 197.218846 
L 69.954861 184.400634 
L 71.352496 182.902445 
L 72.750131 189.998649 
L 74.147766 201.537214 
L 75.545401 201.885758 
L 76.943036 198.488658 
L 78.340671 198.524752 
L 79.738307 184.269786 
L 81.135942 184.745488 
L 82.533577 190.435847 
L 83.931212 201.465472 
L 86.726482 197.924888 
L 88.124117 199.233856 
L 89.521752 185.694546 
L 90.919387 185.187822 
L 92.317022 189.954067 
L 93.714657 200.303362 
L 95.112292 199.463806 
L 96.509927 197.440701 
L 97.907562 198.855409 
L 99.305197 187.801208 
L 100.702832 185.116425 
L 102.100467 188.950331 
L 103.498102 199.835062 
L 104.895737 201.845934 
L 106.293372 196.270276 
L 107.691007 196.940991 
L 109.088642 189.683699 
L 110.486277 185.153193 
L 111.883912 187.975657 
L 113.281547 201.382348 
L 114.679182 203.321296 
L 116.076817 194.737995 
L 117.474452 194.554544 
L 118.872088 190.443975 
L 120.269723 185.475674 
L 121.667358 188.367497 
L 123.064993 203.233245 
L 124.462628 203.486884 
L 125.860263 193.518733 
L 127.257898 192.959643 
L 128.655533 189.793855 
L 130.053168 186.040394 
L 131.450803 190.048292 
L 132.848438 203.946603 
L 134.246073 202.833452 
L 135.643708 193.080861 
L 137.041343 192.348362 
L 139.836613 185.929103 
L 141.234248 192.284611 
L 142.631883 203.485656 
L 144.029518 201.898153 
L 145.427153 193.359933 
L 146.824788 191.883761 
L 148.222423 188.786578 
L 149.620058 186.059684 
L 151.017693 194.570108 
L 152.415328 202.029046 
L 153.812963 201.210521 
L 155.210598 193.749879 
L 156.608233 191.345139 
L 158.005868 188.411145 
L 159.403504 186.609056 
L 160.801139 195.725852 
L 162.198774 201.472449 
L 163.596409 200.696285 
L 164.994044 194.323059 
L 166.391679 190.869528 
L 167.789314 188.573967 
L 169.186949 186.75549 
L 170.584584 195.590802 
L 171.982219 201.713353 
L 173.379854 200.434968 
L 174.777489 194.666738 
L 176.175124 190.979694 
L 177.572759 188.19014 
L 178.970394 186.516959 
L 180.368029 195.156476 
L 181.765664 201.679088 
L 183.163299 201.398966 
L 184.560934 194.759501 
L 185.958569 191.428166 
L 188.753839 185.44569 
L 191.549109 202.108473 
L 192.946744 202.699616 
L 194.344379 194.734426 
L 195.742014 191.954394 
L 197.139649 188.805145 
L 198.537285 184.068938 
L 199.93492 192.29965 
L 201.332555 202.270216 
L 202.73019 204.395303 
L 204.127825 194.904702 
L 205.52546 192.995099 
L 206.923095 188.616911 
L 208.32073 183.453448 
L 209.718365 190.47244 
L 211.116 203.832403 
L 212.513635 204.345332 
L 213.91127 194.72788 
L 215.308905 193.81067 
L 216.70654 187.836514 
L 218.104175 182.649862 
L 219.50181 189.200603 
L 220.899445 206.120782 
L 222.29708 203.743409 
L 223.694715 193.559965 
L 225.09235 197.593468 
L 226.489985 186.28301 
L 227.88762 181.28578 
L 229.285255 189.16683 
L 230.68289 207.573337 
L 232.080525 202.312722 
L 233.47816 193.425245 
L 234.875795 199.333069 
L 236.27343 185.720182 
L 237.671066 180.513152 
L 239.068701 190.169146 
L 240.466336 206.693265 
L 243.261606 193.754956 
L 244.659241 202.886926 
L 246.056876 185.97375 
L 247.454511 179.454611 
L 248.852146 191.55639 
L 250.249781 205.234566 
L 253.045051 195.266479 
L 254.442686 198.469651 
L 255.840321 187.307125 
L 257.237956 179.544457 
L 258.635591 192.57722 
L 260.033226 204.060418 
L 261.430861 201.053327 
L 262.828496 196.789251 
L 264.226131 195.475686 
L 267.021401 180.233887 
L 269.816671 204.386875 
L 271.214306 202.180918 
L 272.611941 197.341848 
L 274.009576 193.039577 
L 275.407211 187.629511 
L 276.804846 180.821148 
L 278.202482 192.441852 
L 279.600117 205.637501 
L 280.997752 202.333863 
L 283.793022 192.241088 
L 285.190657 187.183207 
L 286.588292 181.701879 
L 287.985927 191.652581 
L 289.383562 207.633272 
L 290.781197 200.355368 
L 292.178832 197.564455 
L 294.974102 186.88435 
L 296.371737 182.43838 
L 297.769372 191.101804 
L 299.167007 208.676829 
L 300.564642 198.586627 
L 301.962277 197.896566 
L 304.757547 187.249984 
L 306.155182 182.869546 
L 307.552817 191.020754 
L 308.950452 209.104971 
L 310.348087 196.540676 
L 311.745722 198.000059 
L 313.143357 193.550617 
L 314.540992 187.842006 
L 315.938627 183.365692 
L 317.336263 190.854819 
L 318.733898 208.807498 
L 320.131533 195.512871 
L 321.529168 197.445601 
L 322.926803 193.678906 
L 324.324438 188.089627 
L 325.722073 183.946408 
L 327.119708 192.416331 
L 328.517343 208.173773 
L 329.914978 194.868173 
L 331.312613 196.607114 
L 332.710248 193.409912 
L 334.107883 188.025021 
L 335.505518 184.338398 
L 336.903153 193.678672 
L 338.300788 208.424878 
L 339.698423 194.731575 
L 341.096058 195.426193 
L 342.493693 193.143437 
L 343.891328 187.828344 
L 345.288963 184.367486 
L 346.686598 194.25954 
L 348.084233 208.859687 
L 349.481868 195.432608 
L 350.879503 194.729142 
L 352.277138 192.48138 
L 355.072408 183.713968 
L 356.470044 194.875541 
L 357.867679 208.694198 
L 359.265314 196.519433 
L 360.662949 194.805272 
L 363.458219 188.607063 
L 364.855854 181.741873 
L 366.253489 195.772209 
L 367.651124 208.235706 
L 369.048759 198.232524 
L 370.446394 196.074786 
L 371.844029 190.912542 
L 373.241664 189.311464 
L 374.639299 178.173268 
L 376.036934 196.944209 
L 377.434569 207.464551 
L 378.832204 199.771378 
L 380.229839 197.977723 
L 381.627474 191.329792 
L 383.025109 190.804238 
L 384.422744 170.455505 
L 385.820379 197.408991 
L 387.218014 206.826868 
L 388.615649 201.150343 
L 390.013284 198.760964 
L 391.410919 190.620527 
L 392.808554 189.884605 
L 394.206189 178.930746 
L 395.603824 195.574196 
L 397.00146 205.687083 
L 398.399095 200.510015 
L 399.79673 198.414847 
L 401.194365 191.507265 
L 402.592 189.757811 
L 403.989635 176.534239 
L 405.38727 194.918174 
L 406.784905 205.610673 
L 408.18254 199.884348 
L 409.580175 197.301731 
L 410.97781 192.40416 
L 412.375445 189.332524 
L 413.77308 181.847918 
L 415.170715 194.011174 
L 416.56835 205.117696 
L 417.965985 198.163285 
L 419.36362 196.273416 
L 420.761255 192.542076 
L 423.556525 184.3195 
L 424.95416 194.582809 
L 426.351795 206.193402 
L 427.74943 196.099378 
L 429.147065 195.376537 
L 430.5447 192.646345 
L 431.942335 187.698951 
L 433.33997 185.652694 
L 434.737605 195.730732 
L 436.135241 207.207906 
L 437.532876 194.045711 
L 438.930511 194.587767 
L 440.328146 192.715593 
L 441.725781 187.015685 
L 443.123416 186.810843 
L 444.521051 196.965838 
L 445.918686 208.271496 
L 447.316321 192.017124 
L 447.316321 192.017124 
" clip-path="url(#pb732f836ba)" style="fill: none; stroke: #0000ff; stroke-opacity: 0.3; stroke-width: 3; stroke-linecap: square"/>
   </g>
   <g id="patch_7">
    <path d="M 447.316321 227.717417 
L 447.316321 160.393083 
" style="fill: none; stroke: #000000; stroke-width: 0.6; stroke-linejoin: miter; stroke-linecap: square"/>
   </g>
   <g id="patch_8">
    <path d="M 19.64 227.717417 
L 447.316321 227.717417 
" style="fill: none; stroke: #000000; stroke-width: 0.6; stroke-linejoin: miter; stroke-linecap: square"/>
   </g>
   <g id="legend_2">
    <g id="patch_9">
     <path d="M 28.04 182.197458 
L 104.301875 182.197458 
Q 106.701875 182.197458 106.701875 179.797458 
L 106.701875 168.793083 
Q 106.701875 166.393083 104.301875 166.393083 
L 28.04 166.393083 
Q 25.64 166.393083 25.64 168.793083 
L 25.64 179.797458 
Q 25.64 182.197458 28.04 182.197458 
z
" style="fill: #ffffff; opacity: 0.8; stroke: #e6e6e6; stroke-width: 0.8; stroke-linejoin: miter"/>
    </g>
    <g id="line2d_36">
     <path d="M 28.04 172.993083 
L 40.04 172.993083 
L 52.04 172.993083 
" style="fill: none; stroke: #0000ff; stroke-opacity: 0.3; stroke-width: 3; stroke-linecap: square"/>
    </g>
    <g id="text_9">
     <!-- Seasonal -->
     <g style="fill: #323034" transform="translate(61.64 177.193083) scale(0.12 -0.12)">
      <defs>
       <path id="STIXGeneral-Regular-53" d="M 3002 2963 
L 2842 2963 
Q 2733 3360 2579 3565 
Q 2189 4064 1651 4064 
Q 1357 4064 1181 3894 
Q 1005 3725 1005 3456 
Q 1005 3328 1069 3206 
Q 1133 3085 1206 2998 
Q 1280 2912 1465 2784 
Q 1651 2656 1766 2589 
Q 1882 2522 2150 2362 
Q 2669 2061 2905 1763 
Q 3142 1466 3142 1107 
Q 3142 576 2771 243 
Q 2400 -90 1837 -90 
Q 1421 -90 1082 58 
Q 915 128 781 128 
Q 704 128 653 70 
Q 602 13 602 -83 
L 461 -83 
L 275 1274 
L 416 1274 
Q 845 141 1734 141 
Q 2074 141 2285 342 
Q 2496 544 2496 858 
Q 2496 1158 2310 1363 
Q 2003 1696 1235 2106 
Q 454 2522 454 3206 
Q 454 3718 768 4022 
Q 1082 4326 1568 4326 
Q 1907 4326 2240 4186 
Q 2413 4109 2522 4109 
Q 2688 4109 2726 4326 
L 2861 4326 
L 3002 2963 
z
" transform="scale(0.015625)"/>
      </defs>
      <use xlink:href="#STIXGeneral-Regular-53"/>
      <use xlink:href="#STIXGeneral-Regular-65" transform="translate(55.599991 0)"/>
      <use xlink:href="#STIXGeneral-Regular-61" transform="translate(99.999985 0)"/>
      <use xlink:href="#STIXGeneral-Regular-73" transform="translate(144.399979 0)"/>
      <use xlink:href="#STIXGeneral-Regular-6f" transform="translate(183.299973 0)"/>
      <use xlink:href="#STIXGeneral-Regular-6e" transform="translate(233.299957 0)"/>
      <use xlink:href="#STIXGeneral-Regular-61" transform="translate(283.299942 0)"/>
      <use xlink:href="#STIXGeneral-Regular-6c" transform="translate(327.699936 0)"/>
     </g>
    </g>
   </g>
  </g>
  <g id="axes_3">
   <g id="patch_10">
    <path d="M 19.64 316.8755 
L 447.316321 316.8755 
L 447.316321 249.551167 
L 19.64 249.551167 
z
" style="fill: #ffffff"/>
   </g>
   <g id="matplotlib.axis_5">
    <g id="xtick_23">
     <g id="line2d_37">
      <g>
       <use xlink:href="#maf2491418c" x="19.64" y="316.8755" style="fill: #323034; stroke: #323034; stroke-width: 0.8"/>
      </g>
     </g>
     <g id="text_10">
      <!-- Apr -->
      <g style="fill: #323034" transform="translate(7.2 334.803) scale(0.16 -0.16)">
       <defs>
        <path id="STIXGeneral-Regular-41" d="M 4525 0 
L 2893 0 
L 2893 122 
Q 3149 122 3245 179 
Q 3334 224 3334 333 
Q 3334 499 3213 781 
L 2950 1382 
L 1274 1382 
L 979 653 
Q 922 506 922 384 
Q 922 237 1027 179 
Q 1133 122 1370 122 
L 1370 0 
L 96 0 
L 96 122 
Q 365 147 486 316 
Q 608 486 902 1190 
L 2221 4314 
L 2349 4314 
L 3923 710 
Q 4064 378 4176 262 
Q 4288 147 4525 122 
L 4525 0 
z
M 2861 1645 
L 2118 3405 
L 1382 1645 
L 2861 1645 
z
" transform="scale(0.015625)"/>
        <path id="STIXGeneral-Regular-70" d="M 1018 2931 
L 1018 2438 
Q 1421 2944 1939 2944 
Q 2406 2944 2707 2560 
Q 3008 2176 3008 1581 
Q 3008 883 2621 409 
Q 2234 -64 1664 -64 
Q 1466 -64 1328 -6 
Q 1190 51 1018 211 
L 1018 -794 
Q 1018 -1094 1120 -1180 
Q 1222 -1267 1581 -1274 
L 1581 -1389 
L 32 -1389 
L 32 -1280 
Q 314 -1254 397 -1171 
Q 480 -1088 480 -838 
L 480 2157 
Q 480 2381 429 2451 
Q 378 2522 218 2522 
Q 115 2522 58 2515 
L 58 2618 
Q 506 2752 979 2944 
L 1018 2931 
z
M 1018 2138 
L 1018 563 
Q 1018 422 1238 281 
Q 1459 141 1683 141 
Q 2029 141 2243 467 
Q 2458 794 2458 1325 
Q 2458 1888 2243 2224 
Q 2029 2560 1670 2560 
Q 1446 2560 1232 2419 
Q 1018 2278 1018 2138 
z
" transform="scale(0.015625)"/>
       </defs>
       <use xlink:href="#STIXGeneral-Regular-41"/>
       <use xlink:href="#STIXGeneral-Regular-70" transform="translate(72.199982 0)"/>
       <use xlink:href="#STIXGeneral-Regular-72" transform="translate(122.199966 0)"/>
      </g>
     </g>
    </g>
    <g id="xtick_24">
     <g id="line2d_38">
      <g>
       <use xlink:href="#maf2491418c" x="61.569051" y="316.8755" style="fill: #323034; stroke: #323034; stroke-width: 0.8"/>
      </g>
     </g>
     <g id="text_11">
      <!-- May -->
      <g style="fill: #323034" transform="translate(46.904051 334.788) scale(0.16 -0.16)">
       <defs>
        <path id="STIXGeneral-Regular-4d" d="M 5530 0 
L 3738 0 
L 3738 122 
Q 4115 147 4214 265 
Q 4314 384 4314 787 
L 4314 3661 
L 2682 0 
L 2592 0 
L 979 3514 
L 979 966 
Q 979 448 1088 294 
Q 1197 141 1574 122 
L 1574 0 
L 77 0 
L 77 122 
Q 358 141 480 205 
Q 602 269 650 432 
Q 698 595 698 966 
L 698 3514 
Q 698 3878 589 3984 
Q 480 4090 90 4115 
L 90 4237 
L 1357 4237 
L 2835 1024 
L 4250 4237 
L 5523 4237 
L 5523 4115 
Q 5178 4109 5072 3993 
Q 4966 3878 4966 3520 
L 4966 717 
Q 4966 378 5072 262 
Q 5178 147 5530 122 
L 5530 0 
z
" transform="scale(0.015625)"/>
        <path id="STIXGeneral-Regular-79" d="M 3040 2880 
L 3040 2784 
Q 2925 2771 2854 2700 
Q 2784 2630 2720 2458 
L 1760 -160 
Q 1510 -838 1257 -1116 
Q 1005 -1395 640 -1395 
Q 435 -1395 313 -1289 
Q 192 -1184 192 -1024 
Q 192 -902 272 -816 
Q 352 -730 467 -730 
Q 653 -730 800 -813 
Q 883 -858 966 -858 
Q 1101 -858 1286 -576 
Q 1376 -448 1459 -211 
Q 1542 26 1542 115 
Q 1542 198 1274 762 
L 429 2566 
Q 346 2752 90 2790 
L 90 2880 
L 1402 2880 
L 1402 2784 
Q 1197 2778 1117 2739 
Q 1037 2701 1037 2611 
Q 1037 2541 1120 2349 
L 1837 749 
L 2458 2515 
Q 2483 2573 2483 2630 
Q 2483 2784 2189 2784 
L 2189 2880 
L 3040 2880 
z
" transform="scale(0.015625)"/>
       </defs>
       <use xlink:href="#STIXGeneral-Regular-4d"/>
       <use xlink:href="#STIXGeneral-Regular-61" transform="translate(88.899994 0)"/>
       <use xlink:href="#STIXGeneral-Regular-79" transform="translate(133.299988 0)"/>
      </g>
     </g>
    </g>
    <g id="xtick_25">
     <g id="line2d_39">
      <g>
       <use xlink:href="#maf2491418c" x="104.895737" y="316.8755" style="fill: #323034; stroke: #323034; stroke-width: 0.8"/>
      </g>
     </g>
     <g id="text_12">
      <!-- Jun -->
      <g style="fill: #323034" transform="translate(93.911987 334.803) scale(0.16 -0.16)">
       <defs>
        <path id="STIXGeneral-Regular-4a" d="M 2266 4237 
L 2266 4115 
Q 1875 4083 1776 3984 
Q 1677 3885 1677 3514 
L 1677 1184 
Q 1677 -90 608 -90 
Q 314 -90 138 32 
Q -38 154 -38 371 
Q -38 499 54 601 
Q 147 704 275 704 
Q 486 704 589 435 
Q 602 403 621 348 
Q 640 294 649 265 
Q 659 237 678 208 
Q 698 179 723 166 
Q 749 154 787 154 
Q 928 154 976 253 
Q 1024 352 1024 602 
L 1024 3520 
Q 1024 3898 928 3990 
Q 832 4083 429 4115 
L 429 4237 
L 2266 4237 
z
" transform="scale(0.015625)"/>
        <path id="STIXGeneral-Regular-75" d="M 3072 320 
L 3072 230 
Q 2573 96 2195 -58 
L 2163 -38 
L 2163 486 
L 2150 486 
Q 1747 -64 1235 -64 
Q 870 -64 662 160 
Q 454 384 454 755 
L 454 2362 
Q 454 2598 371 2688 
Q 288 2778 58 2790 
L 58 2880 
L 992 2880 
L 992 813 
Q 992 595 1123 451 
Q 1254 307 1446 307 
Q 1760 307 1984 506 
Q 2067 582 2099 649 
Q 2131 717 2131 877 
L 2131 2355 
Q 2131 2605 2041 2678 
Q 1952 2752 1658 2771 
L 1658 2880 
L 2669 2880 
L 2669 685 
Q 2669 461 2742 390 
Q 2816 320 3034 320 
L 3072 320 
z
" transform="scale(0.015625)"/>
       </defs>
       <use xlink:href="#STIXGeneral-Regular-4a"/>
       <use xlink:href="#STIXGeneral-Regular-75" transform="translate(37.299988 0)"/>
       <use xlink:href="#STIXGeneral-Regular-6e" transform="translate(87.299973 0)"/>
      </g>
     </g>
    </g>
    <g id="xtick_26">
     <g id="line2d_40">
      <g>
       <use xlink:href="#maf2491418c" x="146.824788" y="316.8755" style="fill: #323034; stroke: #323034; stroke-width: 0.8"/>
      </g>
     </g>
     <g id="text_13">
      <!-- Jul -->
      <g style="fill: #323034" transform="translate(137.617288 334.803) scale(0.16 -0.16)">
       <use xlink:href="#STIXGeneral-Regular-4a"/>
       <use xlink:href="#STIXGeneral-Regular-75" transform="translate(37.299988 0)"/>
       <use xlink:href="#STIXGeneral-Regular-6c" transform="translate(87.299973 0)"/>
      </g>
     </g>
    </g>
    <g id="xtick_27">
     <g id="line2d_41">
      <g>
       <use xlink:href="#maf2491418c" x="190.151474" y="316.8755" style="fill: #323034; stroke: #323034; stroke-width: 0.8"/>
      </g>
     </g>
     <g id="text_14">
      <!-- Aug -->
      <g style="fill: #323034" transform="translate(176.375224 334.788) scale(0.16 -0.16)">
       <use xlink:href="#STIXGeneral-Regular-41"/>
       <use xlink:href="#STIXGeneral-Regular-75" transform="translate(72.199982 0)"/>
       <use xlink:href="#STIXGeneral-Regular-67" transform="translate(122.199966 0)"/>
      </g>
     </g>
    </g>
    <g id="xtick_28">
     <g id="line2d_42">
      <g>
       <use xlink:href="#maf2491418c" x="233.47816" y="316.8755" style="fill: #323034; stroke: #323034; stroke-width: 0.8"/>
      </g>
     </g>
     <g id="text_15">
      <!-- Sep -->
      <g style="fill: #323034" transform="translate(221.47816 334.803) scale(0.16 -0.16)">
       <use xlink:href="#STIXGeneral-Regular-53"/>
       <use xlink:href="#STIXGeneral-Regular-65" transform="translate(55.599991 0)"/>
       <use xlink:href="#STIXGeneral-Regular-70" transform="translate(99.999985 0)"/>
      </g>
     </g>
    </g>
    <g id="xtick_29">
     <g id="line2d_43">
      <g>
       <use xlink:href="#maf2491418c" x="275.407211" y="316.8755" style="fill: #323034; stroke: #323034; stroke-width: 0.8"/>
      </g>
     </g>
     <g id="text_16">
      <!-- Oct -->
      <g style="fill: #323034" transform="translate(263.854711 334.803) scale(0.16 -0.16)">
       <defs>
        <path id="STIXGeneral-Regular-74" d="M 1702 493 
L 1786 422 
Q 1478 -64 1011 -64 
Q 448 -64 448 749 
L 448 2675 
L 109 2675 
Q 83 2694 83 2720 
Q 83 2771 192 2842 
Q 435 2982 813 3526 
Q 826 3546 874 3606 
Q 922 3667 941 3706 
Q 986 3706 986 3622 
L 986 2880 
L 1632 2880 
L 1632 2675 
L 986 2675 
L 986 845 
Q 986 538 1062 403 
Q 1139 269 1318 269 
Q 1510 269 1702 493 
z
" transform="scale(0.015625)"/>
       </defs>
       <use xlink:href="#STIXGeneral-Regular-4f"/>
       <use xlink:href="#STIXGeneral-Regular-63" transform="translate(72.199982 0)"/>
       <use xlink:href="#STIXGeneral-Regular-74" transform="translate(116.599976 0)"/>
      </g>
     </g>
    </g>
    <g id="xtick_30">
     <g id="line2d_44">
      <g>
       <use xlink:href="#maf2491418c" x="318.733898" y="316.8755" style="fill: #323034; stroke: #323034; stroke-width: 0.8"/>
      </g>
     </g>
     <g id="text_17">
      <!-- Nov -->
      <g style="fill: #323034" transform="translate(304.957648 334.803) scale(0.16 -0.16)">
       <defs>
        <path id="STIXGeneral-Regular-4e" d="M 4525 4237 
L 4525 4115 
Q 4198 4083 4102 4000 
Q 4000 3910 3958 3756 
Q 3917 3603 3917 3245 
L 3917 -70 
L 3802 -70 
L 979 3443 
L 979 960 
Q 979 474 1088 323 
Q 1197 173 1574 122 
L 1574 0 
L 77 0 
L 77 122 
Q 474 166 586 310 
Q 698 454 698 960 
L 698 3776 
Q 531 3981 416 4048 
Q 301 4115 77 4115 
L 77 4237 
L 1165 4237 
L 3635 1146 
L 3635 3322 
Q 3635 3808 3514 3949 
Q 3437 4032 3344 4061 
Q 3251 4090 3008 4115 
L 3008 4237 
L 4525 4237 
z
" transform="scale(0.015625)"/>
        <path id="STIXGeneral-Regular-76" d="M 3053 2880 
L 3053 2784 
Q 2906 2771 2835 2688 
Q 2765 2605 2637 2285 
L 1818 230 
Q 1690 -90 1638 -90 
Q 1587 -90 1523 77 
Q 1510 96 1497 141 
Q 1485 186 1472 211 
L 704 2048 
Q 499 2534 403 2652 
Q 307 2771 122 2784 
L 122 2880 
L 1376 2880 
L 1376 2784 
Q 1210 2771 1146 2732 
Q 1082 2694 1082 2611 
Q 1082 2509 1139 2368 
L 1792 730 
L 2426 2387 
Q 2464 2483 2464 2579 
Q 2464 2758 2163 2784 
L 2163 2880 
L 3053 2880 
z
" transform="scale(0.015625)"/>
       </defs>
       <use xlink:href="#STIXGeneral-Regular-4e"/>
       <use xlink:href="#STIXGeneral-Regular-6f" transform="translate(72.199982 0)"/>
       <use xlink:href="#STIXGeneral-Regular-76" transform="translate(122.199966 0)"/>
      </g>
     </g>
    </g>
    <g id="xtick_31">
     <g id="line2d_45">
      <g>
       <use xlink:href="#maf2491418c" x="360.662949" y="316.8755" style="fill: #323034; stroke: #323034; stroke-width: 0.8"/>
      </g>
     </g>
     <g id="text_18">
      <!-- Dec -->
      <g style="fill: #323034" transform="translate(347.781699 334.803) scale(0.16 -0.16)">
       <defs>
        <path id="STIXGeneral-Regular-44" d="M 102 4237 
L 1830 4237 
Q 3078 4237 3750 3654 
Q 4384 3110 4384 2138 
Q 4384 966 3514 410 
Q 2880 0 1901 0 
L 102 0 
L 102 122 
Q 474 147 570 252 
Q 666 358 666 736 
L 666 3520 
Q 666 3891 570 3990 
Q 474 4090 102 4115 
L 102 4237 
z
M 1318 3731 
L 1318 538 
Q 1318 365 1379 301 
Q 1440 237 1626 237 
Q 2125 237 2432 307 
Q 2739 378 3021 570 
Q 3686 1018 3686 2099 
Q 3686 3027 3078 3558 
Q 2803 3802 2476 3901 
Q 2150 4000 1658 4000 
Q 1472 4000 1395 3942 
Q 1318 3885 1318 3731 
z
" transform="scale(0.015625)"/>
       </defs>
       <use xlink:href="#STIXGeneral-Regular-44"/>
       <use xlink:href="#STIXGeneral-Regular-65" transform="translate(72.199982 0)"/>
       <use xlink:href="#STIXGeneral-Regular-63" transform="translate(116.599976 0)"/>
      </g>
     </g>
    </g>
    <g id="xtick_32">
     <g id="line2d_46">
      <g>
       <use xlink:href="#maf2491418c" x="403.989635" y="316.8755" style="fill: #323034; stroke: #323034; stroke-width: 0.8"/>
      </g>
     </g>
     <g id="text_19">
      <!-- Jan -->
      <g style="fill: #323034" transform="translate(393.453385 334.803) scale(0.16 -0.16)">
       <use xlink:href="#STIXGeneral-Regular-4a"/>
       <use xlink:href="#STIXGeneral-Regular-61" transform="translate(37.299988 0)"/>
       <use xlink:href="#STIXGeneral-Regular-6e" transform="translate(81.699982 0)"/>
      </g>
      <!-- 2021 -->
      <g style="fill: #323034" transform="translate(387.989635 351.3885) scale(0.16 -0.16)">
       <use xlink:href="#STIXGeneral-Regular-32"/>
       <use xlink:href="#STIXGeneral-Regular-30" transform="translate(49.999985 0)"/>
       <use xlink:href="#STIXGeneral-Regular-32" transform="translate(99.999969 0)"/>
       <use xlink:href="#STIXGeneral-Regular-31" transform="translate(149.999954 0)"/>
      </g>
     </g>
    </g>
    <g id="xtick_33">
     <g id="line2d_47">
      <g>
       <use xlink:href="#maf2491418c" x="447.316321" y="316.8755" style="fill: #323034; stroke: #323034; stroke-width: 0.8"/>
      </g>
     </g>
     <g id="text_20">
      <!-- Feb -->
      <g style="fill: #323034" transform="translate(435.316321 334.803) scale(0.16 -0.16)">
       <defs>
        <path id="STIXGeneral-Regular-46" d="M 3494 3322 
L 3334 3322 
Q 3264 3757 3094 3875 
Q 2925 3994 2349 3994 
L 1504 3994 
Q 1370 3994 1328 3946 
Q 1286 3898 1286 3744 
L 1286 2355 
L 2195 2355 
Q 2598 2355 2736 2470 
Q 2874 2586 2918 2963 
L 3066 2963 
L 3066 1472 
L 2918 1472 
Q 2880 1862 2745 1977 
Q 2611 2093 2195 2093 
L 1286 2093 
L 1286 717 
Q 1286 352 1392 246 
Q 1498 141 1869 122 
L 1869 0 
L 70 0 
L 70 122 
Q 435 147 534 259 
Q 634 371 634 787 
L 634 3526 
Q 634 3878 538 3984 
Q 442 4090 77 4115 
L 77 4237 
L 3462 4237 
L 3494 3322 
z
" transform="scale(0.015625)"/>
        <path id="STIXGeneral-Regular-62" d="M 979 4358 
L 979 2406 
Q 1082 2650 1315 2797 
Q 1549 2944 1843 2944 
Q 2349 2944 2672 2541 
Q 2995 2138 2995 1536 
Q 2995 832 2566 384 
Q 2138 -64 1498 -64 
Q 1107 -64 774 67 
Q 442 198 442 358 
L 442 3622 
Q 442 3859 384 3926 
Q 326 3994 128 3994 
Q 83 3994 19 3981 
L 19 4090 
L 211 4147 
Q 864 4346 947 4371 
L 979 4358 
z
M 979 2035 
L 979 474 
Q 979 326 1161 233 
Q 1344 141 1600 141 
Q 1978 141 2195 416 
Q 2432 710 2432 1261 
Q 2432 1888 2182 2240 
Q 1971 2541 1613 2541 
Q 1357 2541 1168 2390 
Q 979 2240 979 2035 
z
" transform="scale(0.015625)"/>
       </defs>
       <use xlink:href="#STIXGeneral-Regular-46"/>
       <use xlink:href="#STIXGeneral-Regular-65" transform="translate(55.599991 0)"/>
       <use xlink:href="#STIXGeneral-Regular-62" transform="translate(99.999985 0)"/>
      </g>
     </g>
    </g>
   </g>
   <g id="matplotlib.axis_6">
    <g id="ytick_9">
     <g id="line2d_48">
      <g>
       <use xlink:href="#m6fa6c083d7" x="447.316321" y="316.8755" style="fill: #323034; stroke: #323034; stroke-width: 0.8"/>
      </g>
     </g>
     <g id="text_21">
      <!-- $\mathdefault{−2}$ -->
      <g style="fill: #323034" transform="translate(454.316321 322.33925) scale(0.16 -0.16)">
       <use xlink:href="#STIXGeneral-Regular-2212" transform="translate(0 0.40625)"/>
       <use xlink:href="#STIXGeneral-Regular-32" transform="translate(68.499985 0.40625)"/>
      </g>
     </g>
    </g>
    <g id="ytick_10">
     <g id="line2d_49">
      <g>
       <use xlink:href="#m6fa6c083d7" x="447.316321" y="271.992611" style="fill: #323034; stroke: #323034; stroke-width: 0.8"/>
      </g>
     </g>
     <g id="text_22">
      <!-- $\mathdefault{0}$ -->
      <g style="fill: #323034" transform="translate(454.316321 277.456361) scale(0.16 -0.16)">
       <use xlink:href="#STIXGeneral-Regular-30" transform="translate(0 0.40625)"/>
      </g>
     </g>
    </g>
    <g id="ytick_11">
     <g id="line2d_50">
      <g>
       <use xlink:href="#md24383ee62" x="447.316321" y="294.434056" style="fill: #323034; stroke: #323034; stroke-width: 0.6"/>
      </g>
     </g>
    </g>
    <g id="ytick_12">
     <g id="line2d_51">
      <g>
       <use xlink:href="#md24383ee62" x="447.316321" y="249.551167" style="fill: #323034; stroke: #323034; stroke-width: 0.6"/>
      </g>
     </g>
    </g>
   </g>
   <g id="line2d_52">
    <path d="M 19.64 273.12692 
L 21.037635 272.663196 
L 23.832905 270.430266 
L 25.23054 272.264108 
L 26.628175 271.5771 
L 28.02581 271.102755 
L 29.423445 271.092449 
L 30.82108 270.941594 
L 32.218715 272.166572 
L 33.61635 272.564892 
L 35.013985 271.33194 
L 36.41162 273.823203 
L 37.809255 272.309052 
L 39.20689 270.978215 
L 40.604526 272.034171 
L 42.002161 272.661955 
L 43.399796 273.416152 
L 44.797431 272.385022 
L 46.195066 270.705452 
L 47.592701 272.731176 
L 50.387971 271.124076 
L 53.183241 268.759274 
L 54.580876 271.265954 
L 55.978511 272.978423 
L 57.376146 272.477022 
L 58.773781 272.312276 
L 60.171416 272.614093 
L 61.569051 270.68342 
L 62.966686 271.077046 
L 64.364321 269.973762 
L 65.761956 272.659928 
L 67.159591 271.922845 
L 68.557226 271.478071 
L 69.954861 271.915567 
L 71.352496 272.707598 
L 72.750131 272.436363 
L 74.147766 272.87673 
L 75.545401 275.70769 
L 76.943036 271.333247 
L 78.340671 272.361797 
L 79.738307 271.557334 
L 82.533577 272.252662 
L 83.931212 273.337225 
L 85.328847 270.636556 
L 86.726482 271.940785 
L 88.124117 269.186677 
L 90.919387 272.761574 
L 92.317022 272.410478 
L 93.714657 271.096592 
L 95.112292 272.302628 
L 96.509927 273.182595 
L 99.305197 272.581726 
L 100.702832 271.584272 
L 102.100467 271.411819 
L 103.498102 270.642047 
L 104.895737 268.642172 
L 106.293372 271.628535 
L 109.088642 272.772087 
L 110.486277 267.854248 
L 111.883912 272.437755 
L 114.679182 272.460968 
L 116.076817 274.842036 
L 117.474452 270.828922 
L 118.872088 272.201998 
L 120.269723 272.132165 
L 121.667358 271.736826 
L 123.064993 273.570861 
L 124.462628 272.940466 
L 125.860263 272.17578 
L 127.257898 272.486044 
L 128.655533 272.466713 
L 130.053168 272.64822 
L 131.450803 271.583093 
L 132.848438 272.440115 
L 134.246073 270.720724 
L 135.643708 271.97187 
L 137.041343 272.138092 
L 139.836613 271.704415 
L 141.234248 272.206022 
L 142.631883 270.908782 
L 144.029518 272.269032 
L 145.427153 271.278625 
L 146.824788 271.670613 
L 148.222423 270.882223 
L 149.620058 271.671468 
L 151.017693 272.31393 
L 152.415328 272.794414 
L 153.812963 272.329311 
L 155.210598 272.373482 
L 156.608233 271.676314 
L 158.005868 273.155631 
L 159.403504 271.479935 
L 160.801139 271.661862 
L 162.198774 271.361447 
L 163.596409 270.606143 
L 164.994044 271.616569 
L 166.391679 272.069149 
L 167.789314 270.676603 
L 169.186949 272.807878 
L 170.584584 272.720486 
L 171.982219 270.719633 
L 173.379854 272.009724 
L 174.777489 271.978518 
L 176.175124 271.691563 
L 177.572759 272.486662 
L 178.970394 271.861975 
L 180.368029 271.037119 
L 181.765664 273.404206 
L 183.163299 271.326949 
L 184.560934 271.814386 
L 185.958569 271.300505 
L 187.356204 271.137646 
L 188.753839 271.609153 
L 190.151474 272.680265 
L 191.549109 271.932073 
L 192.946744 272.785273 
L 194.344379 272.367376 
L 195.742014 272.959092 
L 197.139649 272.32339 
L 198.537285 272.434892 
L 201.332555 271.400695 
L 202.73019 271.159399 
L 204.127825 271.347519 
L 205.52546 271.283757 
L 206.923095 272.393584 
L 208.32073 271.42348 
L 209.718365 272.035187 
L 211.116 271.129124 
L 212.513635 272.96226 
L 213.91127 272.404907 
L 218.104175 272.060791 
L 219.50181 271.494013 
L 220.899445 273.104637 
L 222.29708 268.781185 
L 223.694715 272.816582 
L 225.09235 268.213953 
L 226.489985 271.641988 
L 227.88762 273.043954 
L 229.285255 271.562478 
L 230.68289 272.065863 
L 232.080525 271.938949 
L 233.47816 270.684495 
L 234.875795 275.539219 
L 236.27343 271.928513 
L 237.671066 270.840642 
L 239.068701 272.074657 
L 240.466336 274.028067 
L 241.863971 279.964247 
L 243.261606 278.769052 
L 244.659241 272.408982 
L 246.056876 274.925472 
L 247.454511 272.086216 
L 248.852146 272.658438 
L 250.249781 271.923287 
L 251.647416 271.527981 
L 253.045051 272.017529 
L 254.442686 271.115718 
L 255.840321 271.775944 
L 257.237956 272.76115 
L 258.635591 272.00864 
L 260.033226 271.417668 
L 261.430861 263.260252 
L 262.828496 273.441011 
L 264.226131 271.64235 
L 265.623766 272.366993 
L 267.021401 270.861631 
L 268.419036 272.43109 
L 269.816671 271.580046 
L 271.214306 272.404866 
L 272.611941 270.622996 
L 274.009576 273.037323 
L 275.407211 272.774515 
L 276.804846 272.085458 
L 278.202482 271.156155 
L 279.600117 274.098421 
L 280.997752 262.665228 
L 282.395387 273.279453 
L 283.793022 270.579957 
L 285.190657 271.338012 
L 286.588292 272.679233 
L 287.985927 272.912563 
L 289.383562 271.341331 
L 290.781197 272.727419 
L 292.178832 271.358277 
L 293.576467 271.518443 
L 296.371737 272.039046 
L 297.769372 276.09017 
L 300.564642 269.75728 
L 301.962277 272.250748 
L 303.359912 273.263952 
L 304.757547 272.189405 
L 306.155182 271.47197 
L 307.552817 271.258867 
L 308.950452 272.042385 
L 310.348087 271.862605 
L 311.745722 272.070139 
L 313.143357 272.019051 
L 314.540992 272.282398 
L 315.938627 272.318483 
L 317.336263 274.431447 
L 318.733898 272.122467 
L 320.131533 272.133072 
L 321.529168 272.816549 
L 322.926803 271.558916 
L 325.722073 272.285135 
L 327.119708 271.690587 
L 329.914978 272.052143 
L 331.312613 270.85593 
L 332.710248 272.259409 
L 335.505518 271.411496 
L 336.903153 271.857277 
L 338.300788 271.091655 
L 339.698423 271.395708 
L 341.096058 272.205095 
L 342.493693 271.846153 
L 346.686598 272.20285 
L 348.084233 271.983055 
L 349.481868 271.116501 
L 352.277138 272.032588 
L 353.674773 286.148164 
L 355.072408 272.236473 
L 356.470044 275.592045 
L 357.867679 273.561259 
L 359.265314 273.180584 
L 360.662949 271.99084 
L 362.060584 271.560644 
L 363.458219 271.397597 
L 364.855854 272.896547 
L 366.253489 271.320125 
L 367.651124 271.553389 
L 369.048759 271.284593 
L 370.446394 270.651421 
L 371.844029 272.583166 
L 373.241664 272.658655 
L 374.639299 271.630797 
L 376.036934 272.191616 
L 377.434569 271.473345 
L 378.832204 272.183236 
L 380.229839 272.54205 
L 381.627474 270.551902 
L 383.025109 271.367556 
L 384.422744 276.889256 
L 385.820379 273.673708 
L 387.218014 272.152319 
L 388.615649 271.430786 
L 390.013284 272.178033 
L 391.410919 272.120714 
L 392.808554 275.971227 
L 394.206189 294.202206 
L 395.603824 271.466902 
L 397.00146 276.034425 
L 398.399095 272.887847 
L 399.79673 272.279378 
L 401.194365 271.903633 
L 402.592 272.650446 
L 403.989635 287.569985 
L 405.38727 266.545163 
L 406.784905 271.667395 
L 408.18254 269.002775 
L 409.580175 271.808589 
L 410.97781 271.818446 
L 412.375445 270.866619 
L 413.77308 271.69952 
L 415.170715 271.418973 
L 416.56835 271.635723 
L 417.965985 271.639398 
L 419.36362 271.374521 
L 420.761255 272.083943 
L 422.15889 271.830905 
L 423.556525 272.525571 
L 424.95416 272.238307 
L 426.351795 271.53327 
L 427.74943 278.391293 
L 429.147065 271.645578 
L 431.942335 272.435827 
L 433.33997 272.313374 
L 434.737605 271.269412 
L 436.135241 272.667016 
L 437.532876 272.282366 
L 438.930511 272.483726 
L 440.328146 271.875334 
L 441.725781 271.848663 
L 443.123416 271.658608 
L 444.521051 272.459431 
L 445.918686 271.814642 
L 447.316321 271.914254 
L 447.316321 271.914254 
" clip-path="url(#p600c9fbbcf)" style="fill: none; stroke: #ff0000; stroke-opacity: 0.4; stroke-width: 3; stroke-linecap: square"/>
   </g>
   <g id="patch_11">
    <path d="M 447.316321 316.8755 
L 447.316321 249.551167 
" style="fill: none; stroke: #000000; stroke-width: 0.6; stroke-linejoin: miter; stroke-linecap: square"/>
   </g>
   <g id="patch_12">
    <path d="M 19.64 316.8755 
L 447.316321 316.8755 
" style="fill: none; stroke: #000000; stroke-width: 0.6; stroke-linejoin: miter; stroke-linecap: square"/>
   </g>
   <g id="legend_3">
    <g id="patch_13">
     <path d="M 28.04 310.8755 
L 86.958125 310.8755 
Q 89.358125 310.8755 89.358125 308.4755 
L 89.358125 297.471125 
Q 89.358125 295.071125 86.958125 295.071125 
L 28.04 295.071125 
Q 25.64 295.071125 25.64 297.471125 
L 25.64 308.4755 
Q 25.64 310.8755 28.04 310.8755 
z
" style="fill: #ffffff; opacity: 0.8; stroke: #e6e6e6; stroke-width: 0.8; stroke-linejoin: miter"/>
    </g>
    <g id="line2d_53">
     <path d="M 28.04 301.671125 
L 40.04 301.671125 
L 52.04 301.671125 
" style="fill: none; stroke: #ff0000; stroke-opacity: 0.4; stroke-width: 3; stroke-linecap: square"/>
    </g>
    <g id="text_23">
     <!-- Error -->
     <g style="fill: #323034" transform="translate(61.64 305.871125) scale(0.12 -0.12)">
      <defs>
       <path id="STIXGeneral-Regular-45" d="M 3821 1082 
L 3526 0 
L 77 0 
L 77 122 
Q 442 147 538 252 
Q 634 358 634 730 
L 634 3520 
Q 634 3878 534 3987 
Q 435 4096 77 4115 
L 77 4237 
L 3469 4237 
L 3494 3322 
L 3334 3322 
Q 3264 3750 3085 3872 
Q 2906 3994 2349 3994 
L 1510 3994 
Q 1370 3994 1328 3952 
Q 1286 3910 1286 3763 
L 1286 2355 
L 2253 2355 
Q 2656 2355 2787 2470 
Q 2918 2586 2976 2970 
L 3123 2970 
L 3123 1472 
L 2976 1472 
Q 2918 1875 2790 1984 
Q 2662 2093 2253 2093 
L 1286 2093 
L 1286 538 
Q 1286 346 1420 291 
Q 1555 237 1933 237 
L 2163 237 
Q 2848 237 3136 403 
Q 3424 570 3642 1082 
L 3821 1082 
z
" transform="scale(0.015625)"/>
      </defs>
      <use xlink:href="#STIXGeneral-Regular-45"/>
      <use xlink:href="#STIXGeneral-Regular-72" transform="translate(61.099991 0)"/>
      <use xlink:href="#STIXGeneral-Regular-72" transform="translate(94.399979 0)"/>
      <use xlink:href="#STIXGeneral-Regular-6f" transform="translate(127.699966 0)"/>
      <use xlink:href="#STIXGeneral-Regular-72" transform="translate(177.699951 0)"/>
     </g>
    </g>
   </g>
  </g>
  <g id="text_24">
   <!-- STL -->
   <g style="fill: #323034" transform="translate(227.592969 21.542344) scale(0.21 -0.21)">
    <defs>
     <path id="STIXGeneral-Regular-4c" d="M 3827 1114 
L 3520 0 
L 77 0 
L 77 122 
Q 429 141 531 256 
Q 634 371 634 736 
L 634 3494 
Q 634 3872 541 3981 
Q 448 4090 77 4115 
L 77 4237 
L 1888 4237 
L 1888 4115 
Q 1498 4090 1392 3984 
Q 1286 3878 1286 3507 
L 1286 538 
Q 1286 358 1398 304 
Q 1510 250 1862 250 
L 2310 250 
Q 3085 250 3392 640 
Q 3520 813 3661 1114 
L 3827 1114 
z
" transform="scale(0.015625)"/>
    </defs>
    <use xlink:href="#STIXGeneral-Regular-53"/>
    <use xlink:href="#STIXGeneral-Regular-54" transform="translate(55.599991 0)"/>
    <use xlink:href="#STIXGeneral-Regular-4c" transform="translate(116.699982 0)"/>
   </g>
  </g>
 </g>
 <defs>
  <clipPath id="peb5f7ef9c2">
   <rect x="19.64" y="71.235" width="427.676321" height="67.324333"/>
  </clipPath>
  <clipPath id="pb732f836ba">
   <rect x="19.64" y="160.393083" width="427.676321" height="67.324333"/>
  </clipPath>
  <clipPath id="p600c9fbbcf">
   <rect x="19.64" y="249.551167" width="427.676321" height="67.324333"/>
  </clipPath>
 </defs>
</svg>