<?xml version="1.0" encoding="utf-8" standalone="no"?>
<!DOCTYPE svg PUBLIC "-//W3C//DTD SVG 1.1//EN"
  "http://www.w3.org/Graphics/SVG/1.1/DTD/svg11.dtd">
<svg xmlns:xlink="http://www.w3.org/1999/xlink" width="498.84pt" height="276.536406pt" viewBox="0 0 498.84 276.536406" xmlns="http://www.w3.org/2000/svg" version="1.1">
 <metadata>
  <rdf:RDF xmlns:dc="http://purl.org/dc/elements/1.1/" xmlns:cc="http://creativecommons.org/ns#" xmlns:rdf="http://www.w3.org/1999/02/22-rdf-syntax-ns#">
   <cc:Work>
    <dc:type rdf:resource="http://purl.org/dc/dcmitype/StillImage"/>
    <dc:date>2025-03-26T16:06:03.115497</dc:date>
    <dc:format>image/svg+xml</dc:format>
    <dc:creator>
     <cc:Agent>
      <dc:title>Matplotlib v3.10.0, https://matplotlib.org/</dc:title>
     </cc:Agent>
    </dc:creator>
   </cc:Work>
  </rdf:RDF>
 </metadata>
 <defs>
  <style type="text/css">*{stroke-linejoin: round; stroke-linecap: butt}</style>
 </defs>
 <g id="figure_1">
  <g id="patch_1">
   <path d="M 0 276.536406 
L 498.84 276.536406 
L 498.84 0 
L 0 0 
z
" style="fill: #ffffff"/>
  </g>
  <g id="axes_1">
   <g id="patch_2">
    <path d="M 45.24 247.936406 
L 491.64 247.936406 
L 491.64 26.176406 
L 45.24 26.176406 
z
" style="fill: #ffffff"/>
   </g>
   <g id="FillBetweenPolyCollection_1">
    <defs>
     <path id="m2c7d60b477" d="M 73.812913 -152.352974 
L 73.812913 -126.607026 
L 98.658924 -126.607026 
L 115.222931 -126.607026 
L 131.786939 -126.607026 
L 148.350946 -126.607026 
L 164.914954 -126.607026 
L 181.478961 -126.607026 
L 198.042968 -126.607026 
L 214.606976 -126.607026 
L 231.170983 -126.607026 
L 247.734991 -126.607026 
L 264.298998 -126.607026 
L 280.863006 -126.607026 
L 297.427013 -126.607026 
L 313.99102 -126.607026 
L 330.555028 -126.607026 
L 347.119035 -126.607026 
L 363.683043 -126.607026 
L 380.24705 -126.607026 
L 396.811058 -126.607026 
L 413.375065 -126.607026 
L 429.939072 -126.607026 
L 446.50308 -126.607026 
L 471.349091 -126.607026 
L 471.349091 -152.352974 
L 471.349091 -152.352974 
L 446.50308 -152.352974 
L 429.939072 -152.352974 
L 413.375065 -152.352974 
L 396.811058 -152.352974 
L 380.24705 -152.352974 
L 363.683043 -152.352974 
L 347.119035 -152.352974 
L 330.555028 -152.352974 
L 313.99102 -152.352974 
L 297.427013 -152.352974 
L 280.863006 -152.352974 
L 264.298998 -152.352974 
L 247.734991 -152.352974 
L 231.170983 -152.352974 
L 214.606976 -152.352974 
L 198.042968 -152.352974 
L 181.478961 -152.352974 
L 164.914954 -152.352974 
L 148.350946 -152.352974 
L 131.786939 -152.352974 
L 115.222931 -152.352974 
L 98.658924 -152.352974 
L 73.812913 -152.352974 
z
" style="stroke: #000000; stroke-opacity: 0.25; stroke-width: 0.8"/>
    </defs>
    <g clip-path="url(#p921c157306)">
     <use xlink:href="#m2c7d60b477" x="0" y="276.536406" style="fill: #bc80bd; fill-opacity: 0.25; stroke: #000000; stroke-opacity: 0.25; stroke-width: 0.8"/>
    </g>
   </g>
   <g id="matplotlib.axis_1">
    <g id="xtick_1">
     <g id="line2d_1">
      <defs>
       <path id="m00a4022a20" d="M 0 0 
L 0 3.5 
" style="stroke: #323034; stroke-width: 0.8"/>
      </defs>
      <g>
       <use xlink:href="#m00a4022a20" x="65.530909" y="247.936406" style="fill: #323034; stroke: #323034; stroke-width: 0.8"/>
      </g>
     </g>
     <g id="text_1">
      <!-- $\mathdefault{0}$ -->
      <g style="fill: #323034" transform="translate(61.530909 265.863906) scale(0.16 -0.16)">
       <defs>
        <path id="STIXGeneral-Regular-30" d="M 3046 2112 
Q 3046 1683 2963 1302 
Q 2880 922 2717 602 
Q 2554 282 2266 96 
Q 1978 -90 1600 -90 
Q 1210 -90 915 108 
Q 621 307 461 640 
Q 301 973 227 1350 
Q 154 1728 154 2150 
Q 154 2746 301 3222 
Q 448 3699 790 4012 
Q 1133 4326 1626 4326 
Q 2253 4326 2649 3712 
Q 3046 3098 3046 2112 
z
M 2432 2080 
Q 2432 3091 2217 3625 
Q 2003 4160 1587 4160 
Q 1190 4160 979 3622 
Q 768 3085 768 2106 
Q 768 1120 979 598 
Q 1190 77 1600 77 
Q 2003 77 2217 598 
Q 2432 1120 2432 2080 
z
" transform="scale(0.015625)"/>
       </defs>
       <use xlink:href="#STIXGeneral-Regular-30" transform="translate(0 0.40625)"/>
      </g>
     </g>
    </g>
    <g id="xtick_2">
     <g id="line2d_2">
      <g>
       <use xlink:href="#m00a4022a20" x="148.350946" y="247.936406" style="fill: #323034; stroke: #323034; stroke-width: 0.8"/>
      </g>
     </g>
     <g id="text_2">
      <!-- $\mathdefault{5}$ -->
      <g style="fill: #323034" transform="translate(144.350946 265.863906) scale(0.16 -0.16)">
       <defs>
        <path id="STIXGeneral-Regular-35" d="M 2803 4358 
L 2573 3814 
Q 2534 3731 2400 3731 
L 1158 3731 
L 902 3187 
Q 1606 3053 1920 2896 
Q 2234 2739 2502 2368 
Q 2726 2061 2726 1555 
Q 2726 1094 2576 780 
Q 2426 467 2099 224 
Q 1664 -90 1011 -90 
Q 646 -90 422 19 
Q 198 128 198 307 
Q 198 550 486 550 
Q 717 550 960 352 
Q 1210 147 1414 147 
Q 1747 147 2012 480 
Q 2278 813 2278 1229 
Q 2278 1843 1850 2189 
Q 1293 2637 486 2637 
Q 410 2637 410 2688 
L 416 2720 
L 1114 4237 
L 2438 4237 
Q 2547 4237 2608 4269 
Q 2669 4301 2746 4403 
L 2803 4358 
z
" transform="scale(0.015625)"/>
       </defs>
       <use xlink:href="#STIXGeneral-Regular-35" transform="translate(0 0.203125)"/>
      </g>
     </g>
    </g>
    <g id="xtick_3">
     <g id="line2d_3">
      <g>
       <use xlink:href="#m00a4022a20" x="231.170983" y="247.936406" style="fill: #323034; stroke: #323034; stroke-width: 0.8"/>
      </g>
     </g>
     <g id="text_3">
      <!-- $\mathdefault{10}$ -->
      <g style="fill: #323034" transform="translate(223.170983 265.863906) scale(0.16 -0.16)">
       <defs>
        <path id="STIXGeneral-Regular-31" d="M 2522 0 
L 755 0 
L 755 96 
Q 1107 115 1235 227 
Q 1363 339 1363 608 
L 1363 3482 
Q 1363 3795 1171 3795 
Q 1082 3795 883 3718 
L 710 3654 
L 710 3744 
L 1856 4326 
L 1914 4307 
L 1914 486 
Q 1914 275 2042 185 
Q 2170 96 2522 96 
L 2522 0 
z
" transform="scale(0.015625)"/>
       </defs>
       <use xlink:href="#STIXGeneral-Regular-31" transform="translate(0 0.40625)"/>
       <use xlink:href="#STIXGeneral-Regular-30" transform="translate(49.999985 0.40625)"/>
      </g>
     </g>
    </g>
    <g id="xtick_4">
     <g id="line2d_4">
      <g>
       <use xlink:href="#m00a4022a20" x="313.99102" y="247.936406" style="fill: #323034; stroke: #323034; stroke-width: 0.8"/>
      </g>
     </g>
     <g id="text_4">
      <!-- $\mathdefault{15}$ -->
      <g style="fill: #323034" transform="translate(305.99102 265.863906) scale(0.16 -0.16)">
       <use xlink:href="#STIXGeneral-Regular-31" transform="translate(0 0.203125)"/>
       <use xlink:href="#STIXGeneral-Regular-35" transform="translate(49.999985 0.203125)"/>
      </g>
     </g>
    </g>
    <g id="xtick_5">
     <g id="line2d_5">
      <g>
       <use xlink:href="#m00a4022a20" x="396.811058" y="247.936406" style="fill: #323034; stroke: #323034; stroke-width: 0.8"/>
      </g>
     </g>
     <g id="text_5">
      <!-- $\mathdefault{20}$ -->
      <g style="fill: #323034" transform="translate(388.811058 265.863906) scale(0.16 -0.16)">
       <defs>
        <path id="STIXGeneral-Regular-32" d="M 3034 877 
L 2688 0 
L 186 0 
L 186 77 
L 1325 1286 
Q 1773 1754 1965 2144 
Q 2157 2534 2157 2950 
Q 2157 3379 1920 3616 
Q 1683 3853 1267 3853 
Q 922 3853 720 3673 
Q 518 3494 326 3021 
L 192 3053 
Q 301 3648 630 3987 
Q 960 4326 1523 4326 
Q 2054 4326 2380 4006 
Q 2707 3686 2707 3200 
Q 2707 2477 1888 1613 
L 832 486 
L 2330 486 
Q 2541 486 2665 569 
Q 2790 653 2944 915 
L 3034 877 
z
" transform="scale(0.015625)"/>
       </defs>
       <use xlink:href="#STIXGeneral-Regular-32" transform="translate(0 0.40625)"/>
       <use xlink:href="#STIXGeneral-Regular-30" transform="translate(49.999985 0.40625)"/>
      </g>
     </g>
    </g>
    <g id="xtick_6">
     <g id="line2d_6">
      <g>
       <use xlink:href="#m00a4022a20" x="479.631095" y="247.936406" style="fill: #323034; stroke: #323034; stroke-width: 0.8"/>
      </g>
     </g>
     <g id="text_6">
      <!-- $\mathdefault{25}$ -->
      <g style="fill: #323034" transform="translate(471.631095 265.863906) scale(0.16 -0.16)">
       <use xlink:href="#STIXGeneral-Regular-32" transform="translate(0 0.203125)"/>
       <use xlink:href="#STIXGeneral-Regular-35" transform="translate(49.999985 0.203125)"/>
      </g>
     </g>
    </g>
   </g>
   <g id="matplotlib.axis_2">
    <g id="ytick_1">
     <g id="line2d_7">
      <defs>
       <path id="mf743382f5d" d="M 0 0 
L -3.5 0 
" style="stroke: #323034; stroke-width: 0.8"/>
      </defs>
      <g>
       <use xlink:href="#mf743382f5d" x="45.24" y="247.936406" style="fill: #323034; stroke: #323034; stroke-width: 0.8"/>
      </g>
     </g>
     <g id="text_7">
      <!-- $\mathdefault{−1.0}$ -->
      <g style="fill: #323034" transform="translate(7.2 253.400156) scale(0.16 -0.16)">
       <defs>
        <path id="STIXGeneral-Regular-2212" d="M 3974 1408 
L 410 1408 
L 410 1830 
L 3974 1830 
L 3974 1408 
z
" transform="scale(0.015625)"/>
        <path id="STIXGeneral-Regular-2e" d="M 1158 275 
Q 1158 134 1052 32 
Q 947 -70 800 -70 
Q 653 -70 550 32 
Q 448 134 448 281 
Q 448 429 553 534 
Q 659 640 806 640 
Q 947 640 1052 531 
Q 1158 422 1158 275 
z
" transform="scale(0.015625)"/>
       </defs>
       <use xlink:href="#STIXGeneral-Regular-2212" transform="translate(0 0.40625)"/>
       <use xlink:href="#STIXGeneral-Regular-31" transform="translate(68.499985 0.40625)"/>
       <use xlink:href="#STIXGeneral-Regular-2e" transform="translate(118.499969 0.40625)"/>
       <use xlink:href="#STIXGeneral-Regular-30" transform="translate(143.499954 0.40625)"/>
      </g>
     </g>
    </g>
    <g id="ytick_2">
     <g id="line2d_8">
      <g>
       <use xlink:href="#mf743382f5d" x="45.24" y="192.496406" style="fill: #323034; stroke: #323034; stroke-width: 0.8"/>
      </g>
     </g>
     <g id="text_8">
      <!-- $\mathdefault{−0.5}$ -->
      <g style="fill: #323034" transform="translate(7.2 197.960156) scale(0.16 -0.16)">
       <use xlink:href="#STIXGeneral-Regular-2212" transform="translate(0 0.203125)"/>
       <use xlink:href="#STIXGeneral-Regular-30" transform="translate(68.499985 0.203125)"/>
       <use xlink:href="#STIXGeneral-Regular-2e" transform="translate(118.499969 0.203125)"/>
       <use xlink:href="#STIXGeneral-Regular-35" transform="translate(143.499954 0.203125)"/>
      </g>
     </g>
    </g>
    <g id="ytick_3">
     <g id="line2d_9">
      <g>
       <use xlink:href="#mf743382f5d" x="45.24" y="137.056406" style="fill: #323034; stroke: #323034; stroke-width: 0.8"/>
      </g>
     </g>
     <g id="text_9">
      <!-- $\mathdefault{0.0}$ -->
      <g style="fill: #323034" transform="translate(18.24 142.520156) scale(0.16 -0.16)">
       <use xlink:href="#STIXGeneral-Regular-30" transform="translate(0 0.40625)"/>
       <use xlink:href="#STIXGeneral-Regular-2e" transform="translate(49.999985 0.40625)"/>
       <use xlink:href="#STIXGeneral-Regular-30" transform="translate(74.999969 0.40625)"/>
      </g>
     </g>
    </g>
    <g id="ytick_4">
     <g id="line2d_10">
      <g>
       <use xlink:href="#mf743382f5d" x="45.24" y="81.616406" style="fill: #323034; stroke: #323034; stroke-width: 0.8"/>
      </g>
     </g>
     <g id="text_10">
      <!-- $\mathdefault{0.5}$ -->
      <g style="fill: #323034" transform="translate(18.24 87.080156) scale(0.16 -0.16)">
       <use xlink:href="#STIXGeneral-Regular-30" transform="translate(0 0.203125)"/>
       <use xlink:href="#STIXGeneral-Regular-2e" transform="translate(49.999985 0.203125)"/>
       <use xlink:href="#STIXGeneral-Regular-35" transform="translate(74.999969 0.203125)"/>
      </g>
     </g>
    </g>
    <g id="ytick_5">
     <g id="line2d_11">
      <g>
       <use xlink:href="#mf743382f5d" x="45.24" y="26.176406" style="fill: #323034; stroke: #323034; stroke-width: 0.8"/>
      </g>
     </g>
     <g id="text_11">
      <!-- $\mathdefault{1.0}$ -->
      <g style="fill: #323034" transform="translate(18.24 31.640156) scale(0.16 -0.16)">
       <use xlink:href="#STIXGeneral-Regular-31" transform="translate(0 0.40625)"/>
       <use xlink:href="#STIXGeneral-Regular-2e" transform="translate(49.999985 0.40625)"/>
       <use xlink:href="#STIXGeneral-Regular-30" transform="translate(74.999969 0.40625)"/>
      </g>
     </g>
    </g>
   </g>
   <g id="LineCollection_1">
    <path d="M 65.530909 137.056406 
L 65.530909 26.176406 
" clip-path="url(#p921c157306)" style="fill: none; stroke: #bc80bd; stroke-width: 3"/>
    <path d="M 82.094917 137.056406 
L 82.094917 28.527442 
" clip-path="url(#p921c157306)" style="fill: none; stroke: #bc80bd; stroke-width: 3"/>
    <path d="M 98.658924 137.056406 
L 98.658924 178.831405 
" clip-path="url(#p921c157306)" style="fill: none; stroke: #bc80bd; stroke-width: 3"/>
    <path d="M 115.222931 137.056406 
L 115.222931 156.717564 
" clip-path="url(#p921c157306)" style="fill: none; stroke: #bc80bd; stroke-width: 3"/>
    <path d="M 131.786939 137.056406 
L 131.786939 122.361634 
" clip-path="url(#p921c157306)" style="fill: none; stroke: #bc80bd; stroke-width: 3"/>
    <path d="M 148.350946 137.056406 
L 148.350946 150.88109 
" clip-path="url(#p921c157306)" style="fill: none; stroke: #bc80bd; stroke-width: 3"/>
    <path d="M 164.914954 137.056406 
L 164.914954 154.145674 
" clip-path="url(#p921c157306)" style="fill: none; stroke: #bc80bd; stroke-width: 3"/>
    <path d="M 181.478961 137.056406 
L 181.478961 125.407703 
" clip-path="url(#p921c157306)" style="fill: none; stroke: #bc80bd; stroke-width: 3"/>
    <path d="M 198.042968 137.056406 
L 198.042968 148.151951 
" clip-path="url(#p921c157306)" style="fill: none; stroke: #bc80bd; stroke-width: 3"/>
    <path d="M 214.606976 137.056406 
L 214.606976 138.959126 
" clip-path="url(#p921c157306)" style="fill: none; stroke: #bc80bd; stroke-width: 3"/>
    <path d="M 231.170983 137.056406 
L 231.170983 153.64556 
" clip-path="url(#p921c157306)" style="fill: none; stroke: #bc80bd; stroke-width: 3"/>
    <path d="M 247.734991 137.056406 
L 247.734991 141.170416 
" clip-path="url(#p921c157306)" style="fill: none; stroke: #bc80bd; stroke-width: 3"/>
    <path d="M 264.298998 137.056406 
L 264.298998 136.713282 
" clip-path="url(#p921c157306)" style="fill: none; stroke: #bc80bd; stroke-width: 3"/>
    <path d="M 280.863006 137.056406 
L 280.863006 130.682019 
" clip-path="url(#p921c157306)" style="fill: none; stroke: #bc80bd; stroke-width: 3"/>
    <path d="M 297.427013 137.056406 
L 297.427013 142.8149 
" clip-path="url(#p921c157306)" style="fill: none; stroke: #bc80bd; stroke-width: 3"/>
    <path d="M 313.99102 137.056406 
L 313.99102 142.715417 
" clip-path="url(#p921c157306)" style="fill: none; stroke: #bc80bd; stroke-width: 3"/>
    <path d="M 330.555028 137.056406 
L 330.555028 117.332662 
" clip-path="url(#p921c157306)" style="fill: none; stroke: #bc80bd; stroke-width: 3"/>
    <path d="M 347.119035 137.056406 
L 347.119035 134.599332 
" clip-path="url(#p921c157306)" style="fill: none; stroke: #bc80bd; stroke-width: 3"/>
    <path d="M 363.683043 137.056406 
L 363.683043 136.612664 
" clip-path="url(#p921c157306)" style="fill: none; stroke: #bc80bd; stroke-width: 3"/>
    <path d="M 380.24705 137.056406 
L 380.24705 127.669589 
" clip-path="url(#p921c157306)" style="fill: none; stroke: #bc80bd; stroke-width: 3"/>
    <path d="M 396.811058 137.056406 
L 396.811058 130.242252 
" clip-path="url(#p921c157306)" style="fill: none; stroke: #bc80bd; stroke-width: 3"/>
    <path d="M 413.375065 137.056406 
L 413.375065 138.559088 
" clip-path="url(#p921c157306)" style="fill: none; stroke: #bc80bd; stroke-width: 3"/>
    <path d="M 429.939072 137.056406 
L 429.939072 134.669483 
" clip-path="url(#p921c157306)" style="fill: none; stroke: #bc80bd; stroke-width: 3"/>
    <path d="M 446.50308 137.056406 
L 446.50308 130.503354 
" clip-path="url(#p921c157306)" style="fill: none; stroke: #bc80bd; stroke-width: 3"/>
    <path d="M 463.067087 137.056406 
L 463.067087 129.654502 
" clip-path="url(#p921c157306)" style="fill: none; stroke: #bc80bd; stroke-width: 3"/>
   </g>
   <g id="line2d_12">
    <path d="M 45.24 137.056406 
L 491.64 137.056406 
" clip-path="url(#p921c157306)" style="fill: none; stroke: #bc80bd; stroke-width: 3; stroke-linecap: square"/>
   </g>
   <g id="line2d_13">
    <defs>
     <path id="m450d4d6a95" d="M 0 2.5 
C 0.663008 2.5 1.29895 2.236584 1.767767 1.767767 
C 2.236584 1.29895 2.5 0.663008 2.5 0 
C 2.5 -0.663008 2.236584 -1.29895 1.767767 -1.767767 
C 1.29895 -2.236584 0.663008 -2.5 0 -2.5 
C -0.663008 -2.5 -1.29895 -2.236584 -1.767767 -1.767767 
C -2.236584 -1.29895 -2.5 -0.663008 -2.5 0 
C -2.5 0.663008 -2.236584 1.29895 -1.767767 1.767767 
C -1.29895 2.236584 -0.663008 2.5 0 2.5 
z
" style="stroke: #000000"/>
    </defs>
    <g clip-path="url(#p921c157306)">
     <use xlink:href="#m450d4d6a95" x="65.530909" y="26.176406" style="fill: #bc80bd; stroke: #000000"/>
     <use xlink:href="#m450d4d6a95" x="82.094917" y="28.527442" style="fill: #bc80bd; stroke: #000000"/>
     <use xlink:href="#m450d4d6a95" x="98.658924" y="178.831405" style="fill: #bc80bd; stroke: #000000"/>
     <use xlink:href="#m450d4d6a95" x="115.222931" y="156.717564" style="fill: #bc80bd; stroke: #000000"/>
     <use xlink:href="#m450d4d6a95" x="131.786939" y="122.361634" style="fill: #bc80bd; stroke: #000000"/>
     <use xlink:href="#m450d4d6a95" x="148.350946" y="150.88109" style="fill: #bc80bd; stroke: #000000"/>
     <use xlink:href="#m450d4d6a95" x="164.914954" y="154.145674" style="fill: #bc80bd; stroke: #000000"/>
     <use xlink:href="#m450d4d6a95" x="181.478961" y="125.407703" style="fill: #bc80bd; stroke: #000000"/>
     <use xlink:href="#m450d4d6a95" x="198.042968" y="148.151951" style="fill: #bc80bd; stroke: #000000"/>
     <use xlink:href="#m450d4d6a95" x="214.606976" y="138.959126" style="fill: #bc80bd; stroke: #000000"/>
     <use xlink:href="#m450d4d6a95" x="231.170983" y="153.64556" style="fill: #bc80bd; stroke: #000000"/>
     <use xlink:href="#m450d4d6a95" x="247.734991" y="141.170416" style="fill: #bc80bd; stroke: #000000"/>
     <use xlink:href="#m450d4d6a95" x="264.298998" y="136.713282" style="fill: #bc80bd; stroke: #000000"/>
     <use xlink:href="#m450d4d6a95" x="280.863006" y="130.682019" style="fill: #bc80bd; stroke: #000000"/>
     <use xlink:href="#m450d4d6a95" x="297.427013" y="142.8149" style="fill: #bc80bd; stroke: #000000"/>
     <use xlink:href="#m450d4d6a95" x="313.99102" y="142.715417" style="fill: #bc80bd; stroke: #000000"/>
     <use xlink:href="#m450d4d6a95" x="330.555028" y="117.332662" style="fill: #bc80bd; stroke: #000000"/>
     <use xlink:href="#m450d4d6a95" x="347.119035" y="134.599332" style="fill: #bc80bd; stroke: #000000"/>
     <use xlink:href="#m450d4d6a95" x="363.683043" y="136.612664" style="fill: #bc80bd; stroke: #000000"/>
     <use xlink:href="#m450d4d6a95" x="380.24705" y="127.669589" style="fill: #bc80bd; stroke: #000000"/>
     <use xlink:href="#m450d4d6a95" x="396.811058" y="130.242252" style="fill: #bc80bd; stroke: #000000"/>
     <use xlink:href="#m450d4d6a95" x="413.375065" y="138.559088" style="fill: #bc80bd; stroke: #000000"/>
     <use xlink:href="#m450d4d6a95" x="429.939072" y="134.669483" style="fill: #bc80bd; stroke: #000000"/>
     <use xlink:href="#m450d4d6a95" x="446.50308" y="130.503354" style="fill: #bc80bd; stroke: #000000"/>
     <use xlink:href="#m450d4d6a95" x="463.067087" y="129.654502" style="fill: #bc80bd; stroke: #000000"/>
    </g>
   </g>
   <g id="patch_3">
    <path d="M 45.24 247.936406 
L 45.24 26.176406 
" style="fill: none; stroke: #000000; stroke-width: 0.6; stroke-linejoin: miter; stroke-linecap: square"/>
   </g>
   <g id="patch_4">
    <path d="M 45.24 247.936406 
L 491.64 247.936406 
" style="fill: none; stroke: #000000; stroke-width: 0.6; stroke-linejoin: miter; stroke-linecap: square"/>
   </g>
   <g id="text_12">
    <!-- Partial Autocorrelation -->
    <g style="fill: #323034" transform="translate(45.24 20.176406) scale(0.19 -0.19)">
     <defs>
      <path id="STIXGeneral-Regular-50" d="M 102 4237 
L 1760 4237 
Q 2669 4237 3149 3834 
Q 3469 3565 3469 3072 
Q 3469 2560 3104 2234 
Q 2835 1990 2553 1916 
Q 2272 1843 1734 1843 
Q 1549 1843 1293 1862 
L 1293 717 
Q 1293 352 1398 246 
Q 1504 141 1894 122 
L 1894 0 
L 102 0 
L 102 122 
Q 474 147 557 256 
Q 640 365 640 781 
L 640 3526 
Q 640 3885 547 3987 
Q 454 4090 102 4115 
L 102 4237 
z
M 1293 3770 
L 1293 2118 
Q 1510 2099 1683 2099 
Q 2202 2099 2486 2352 
Q 2771 2605 2771 3040 
Q 2771 3558 2476 3779 
Q 2182 4000 1517 4000 
Q 1382 4000 1337 3952 
Q 1293 3904 1293 3770 
z
" transform="scale(0.015625)"/>
      <path id="STIXGeneral-Regular-61" d="M 2829 422 
L 2829 243 
Q 2586 -64 2253 -64 
Q 1888 -64 1843 403 
L 1837 403 
Q 1427 -64 909 -64 
Q 608 -64 422 112 
Q 237 288 237 602 
Q 237 1050 685 1350 
Q 992 1555 1837 1869 
L 1837 2214 
Q 1837 2502 1699 2646 
Q 1562 2790 1338 2790 
Q 1146 2790 1018 2697 
Q 890 2605 890 2477 
Q 890 2419 909 2348 
Q 928 2278 928 2208 
Q 928 2112 841 2029 
Q 755 1946 634 1946 
Q 525 1946 441 2029 
Q 358 2112 358 2240 
Q 358 2547 685 2752 
Q 986 2944 1421 2944 
Q 1939 2944 2176 2656 
Q 2291 2522 2323 2384 
Q 2355 2246 2355 1946 
L 2355 723 
Q 2355 301 2554 301 
Q 2682 301 2829 422 
z
M 1837 813 
L 1837 1715 
Q 1248 1510 1018 1293 
Q 800 1094 800 800 
Q 800 557 921 432 
Q 1043 307 1242 307 
Q 1453 307 1613 410 
Q 1747 506 1792 589 
Q 1837 672 1837 813 
z
" transform="scale(0.015625)"/>
      <path id="STIXGeneral-Regular-72" d="M 1024 2931 
L 1024 2342 
Q 1267 2688 1430 2816 
Q 1594 2944 1792 2944 
Q 1958 2944 2051 2854 
Q 2144 2765 2144 2605 
Q 2144 2470 2077 2393 
Q 2010 2317 1894 2317 
Q 1773 2317 1638 2445 
Q 1536 2541 1472 2541 
Q 1338 2541 1181 2355 
Q 1024 2170 1024 2016 
L 1024 576 
Q 1024 301 1133 205 
Q 1242 109 1568 96 
L 1568 0 
L 32 0 
L 32 96 
Q 339 154 412 224 
Q 486 294 486 538 
L 486 2138 
Q 486 2349 438 2435 
Q 390 2522 269 2522 
Q 166 2522 45 2496 
L 45 2598 
Q 448 2726 992 2944 
L 1024 2931 
z
" transform="scale(0.015625)"/>
      <path id="STIXGeneral-Regular-74" d="M 1702 493 
L 1786 422 
Q 1478 -64 1011 -64 
Q 448 -64 448 749 
L 448 2675 
L 109 2675 
Q 83 2694 83 2720 
Q 83 2771 192 2842 
Q 435 2982 813 3526 
Q 826 3546 874 3606 
Q 922 3667 941 3706 
Q 986 3706 986 3622 
L 986 2880 
L 1632 2880 
L 1632 2675 
L 986 2675 
L 986 845 
Q 986 538 1062 403 
Q 1139 269 1318 269 
Q 1510 269 1702 493 
z
" transform="scale(0.015625)"/>
      <path id="STIXGeneral-Regular-69" d="M 1152 4045 
Q 1152 3904 1056 3811 
Q 960 3718 819 3718 
Q 685 3718 592 3811 
Q 499 3904 499 4045 
Q 499 4179 595 4275 
Q 691 4371 826 4371 
Q 966 4371 1059 4275 
Q 1152 4179 1152 4045 
z
M 1619 0 
L 102 0 
L 102 96 
Q 435 115 521 211 
Q 608 307 608 666 
L 608 2118 
Q 608 2342 563 2432 
Q 518 2522 397 2522 
Q 243 2522 128 2490 
L 128 2592 
L 1120 2944 
L 1146 2918 
L 1146 672 
Q 1146 314 1226 218 
Q 1306 122 1619 96 
L 1619 0 
z
" transform="scale(0.015625)"/>
      <path id="STIXGeneral-Regular-6c" d="M 1645 0 
L 134 0 
L 134 96 
Q 435 122 531 221 
Q 627 320 627 589 
L 627 3590 
Q 627 3821 569 3910 
Q 512 4000 358 4000 
Q 224 4000 122 3987 
L 122 4090 
Q 730 4237 1133 4371 
L 1165 4346 
L 1165 557 
Q 1165 288 1254 201 
Q 1344 115 1645 96 
L 1645 0 
z
" transform="scale(0.015625)"/>
      <path id="STIXGeneral-Regular-20" transform="scale(0.015625)"/>
      <path id="STIXGeneral-Regular-41" d="M 4525 0 
L 2893 0 
L 2893 122 
Q 3149 122 3245 179 
Q 3334 224 3334 333 
Q 3334 499 3213 781 
L 2950 1382 
L 1274 1382 
L 979 653 
Q 922 506 922 384 
Q 922 237 1027 179 
Q 1133 122 1370 122 
L 1370 0 
L 96 0 
L 96 122 
Q 365 147 486 316 
Q 608 486 902 1190 
L 2221 4314 
L 2349 4314 
L 3923 710 
Q 4064 378 4176 262 
Q 4288 147 4525 122 
L 4525 0 
z
M 2861 1645 
L 2118 3405 
L 1382 1645 
L 2861 1645 
z
" transform="scale(0.015625)"/>
      <path id="STIXGeneral-Regular-75" d="M 3072 320 
L 3072 230 
Q 2573 96 2195 -58 
L 2163 -38 
L 2163 486 
L 2150 486 
Q 1747 -64 1235 -64 
Q 870 -64 662 160 
Q 454 384 454 755 
L 454 2362 
Q 454 2598 371 2688 
Q 288 2778 58 2790 
L 58 2880 
L 992 2880 
L 992 813 
Q 992 595 1123 451 
Q 1254 307 1446 307 
Q 1760 307 1984 506 
Q 2067 582 2099 649 
Q 2131 717 2131 877 
L 2131 2355 
Q 2131 2605 2041 2678 
Q 1952 2752 1658 2771 
L 1658 2880 
L 2669 2880 
L 2669 685 
Q 2669 461 2742 390 
Q 2816 320 3034 320 
L 3072 320 
z
" transform="scale(0.015625)"/>
      <path id="STIXGeneral-Regular-6f" d="M 3008 1478 
Q 3008 806 2608 371 
Q 2208 -64 1568 -64 
Q 979 -64 582 368 
Q 186 800 186 1459 
Q 186 2125 582 2534 
Q 979 2944 1626 2944 
Q 2221 2944 2614 2537 
Q 3008 2131 3008 1478 
z
M 2432 1306 
Q 2432 2035 2112 2445 
Q 1856 2765 1504 2765 
Q 1171 2765 966 2493 
Q 762 2221 762 1747 
Q 762 928 1101 435 
Q 1318 115 1677 115 
Q 2029 115 2230 432 
Q 2432 749 2432 1306 
z
" transform="scale(0.015625)"/>
      <path id="STIXGeneral-Regular-63" d="M 2547 998 
L 2637 941 
Q 2362 403 2112 205 
Q 1786 -64 1376 -64 
Q 845 -64 502 336 
Q 160 736 160 1357 
Q 160 2170 698 2618 
Q 1094 2944 1562 2944 
Q 1965 2944 2256 2749 
Q 2547 2554 2547 2285 
Q 2547 2176 2457 2096 
Q 2368 2016 2246 2016 
Q 2022 2016 1939 2310 
L 1901 2451 
Q 1850 2630 1773 2694 
Q 1696 2758 1523 2758 
Q 1133 2758 893 2451 
Q 653 2144 653 1645 
Q 653 1094 928 745 
Q 1203 397 1645 397 
Q 1920 397 2118 528 
Q 2317 659 2547 998 
z
" transform="scale(0.015625)"/>
      <path id="STIXGeneral-Regular-65" d="M 2611 1050 
L 2714 1005 
Q 2330 -64 1376 -64 
Q 813 -64 486 329 
Q 160 723 160 1389 
Q 160 2074 525 2509 
Q 890 2944 1485 2944 
Q 2061 2944 2374 2502 
Q 2560 2246 2592 1773 
L 621 1773 
Q 646 1370 700 1158 
Q 755 947 915 730 
Q 1184 378 1626 378 
Q 1939 378 2153 531 
Q 2368 685 2611 1050 
z
M 634 1978 
L 1939 1978 
Q 1882 2381 1750 2547 
Q 1619 2714 1312 2714 
Q 1043 2714 864 2525 
Q 685 2336 634 1978 
z
" transform="scale(0.015625)"/>
      <path id="STIXGeneral-Regular-6e" d="M 3104 0 
L 1773 0 
L 1779 96 
Q 2016 115 2096 233 
Q 2176 352 2176 672 
L 2176 1946 
Q 2176 2592 1709 2592 
Q 1549 2592 1408 2515 
Q 1267 2438 1050 2227 
L 1050 461 
Q 1050 269 1136 192 
Q 1222 115 1466 96 
L 1466 0 
L 115 0 
L 115 96 
Q 358 115 435 214 
Q 512 314 512 602 
L 512 2157 
Q 512 2394 467 2483 
Q 422 2573 288 2573 
Q 160 2573 102 2547 
L 102 2656 
Q 550 2784 979 2944 
L 1030 2925 
L 1030 2426 
L 1037 2426 
Q 1491 2944 1958 2944 
Q 2323 2944 2518 2688 
Q 2714 2432 2714 1958 
L 2714 544 
Q 2714 288 2790 205 
Q 2867 122 3104 96 
L 3104 0 
z
" transform="scale(0.015625)"/>
     </defs>
     <use xlink:href="#STIXGeneral-Regular-50"/>
     <use xlink:href="#STIXGeneral-Regular-61" transform="translate(55.699997 0)"/>
     <use xlink:href="#STIXGeneral-Regular-72" transform="translate(100.099991 0)"/>
     <use xlink:href="#STIXGeneral-Regular-74" transform="translate(133.399979 0)"/>
     <use xlink:href="#STIXGeneral-Regular-69" transform="translate(161.199966 0)"/>
     <use xlink:href="#STIXGeneral-Regular-61" transform="translate(188.999954 0)"/>
     <use xlink:href="#STIXGeneral-Regular-6c" transform="translate(233.399948 0)"/>
     <use xlink:href="#STIXGeneral-Regular-20" transform="translate(261.199936 0)"/>
     <use xlink:href="#STIXGeneral-Regular-41" transform="translate(286.199921 0)"/>
     <use xlink:href="#STIXGeneral-Regular-75" transform="translate(358.399902 0)"/>
     <use xlink:href="#STIXGeneral-Regular-74" transform="translate(408.399887 0)"/>
     <use xlink:href="#STIXGeneral-Regular-6f" transform="translate(436.199875 0)"/>
     <use xlink:href="#STIXGeneral-Regular-63" transform="translate(486.19986 0)"/>
     <use xlink:href="#STIXGeneral-Regular-6f" transform="translate(530.599854 0)"/>
     <use xlink:href="#STIXGeneral-Regular-72" transform="translate(580.599838 0)"/>
     <use xlink:href="#STIXGeneral-Regular-72" transform="translate(613.899826 0)"/>
     <use xlink:href="#STIXGeneral-Regular-65" transform="translate(647.199814 0)"/>
     <use xlink:href="#STIXGeneral-Regular-6c" transform="translate(691.599808 0)"/>
     <use xlink:href="#STIXGeneral-Regular-61" transform="translate(719.399796 0)"/>
     <use xlink:href="#STIXGeneral-Regular-74" transform="translate(763.799789 0)"/>
     <use xlink:href="#STIXGeneral-Regular-69" transform="translate(791.599777 0)"/>
     <use xlink:href="#STIXGeneral-Regular-6f" transform="translate(819.399765 0)"/>
     <use xlink:href="#STIXGeneral-Regular-6e" transform="translate(869.39975 0)"/>
    </g>
   </g>
  </g>
 </g>
 <defs>
  <clipPath id="p921c157306">
   <rect x="45.24" y="26.176406" width="446.4" height="221.76"/>
  </clipPath>
 </defs>
</svg>