<?xml version="1.0" encoding="utf-8" standalone="no"?>
<!DOCTYPE svg PUBLIC "-//W3C//DTD SVG 1.1//EN"
  "http://www.w3.org/Graphics/SVG/1.1/DTD/svg11.dtd">
<svg xmlns:xlink="http://www.w3.org/1999/xlink" width="501.8pt" height="263.02375pt" viewBox="0 0 501.8 263.02375" xmlns="http://www.w3.org/2000/svg" version="1.1">
 <metadata>
  <rdf:RDF xmlns:dc="http://purl.org/dc/elements/1.1/" xmlns:cc="http://creativecommons.org/ns#" xmlns:rdf="http://www.w3.org/1999/02/22-rdf-syntax-ns#">
   <cc:Work>
    <dc:type rdf:resource="http://purl.org/dc/dcmitype/StillImage"/>
    <dc:date>2025-03-26T16:02:26.425623</dc:date>
    <dc:format>image/svg+xml</dc:format>
    <dc:creator>
     <cc:Agent>
      <dc:title>Matplotlib v3.10.0, https://matplotlib.org/</dc:title>
     </cc:Agent>
    </dc:creator>
   </cc:Work>
  </rdf:RDF>
 </metadata>
 <defs>
  <style type="text/css">*{stroke-linejoin: round; stroke-linecap: butt}</style>
 </defs>
 <g id="figure_1">
  <g id="patch_1">
   <path d="M 0 263.02375 
L 501.8 263.02375 
L 501.8 0 
L 0 0 
z
" style="fill: #ffffff"/>
  </g>
  <g id="axes_1">
   <g id="patch_2">
    <path d="M 34.2 234.42375 
L 480.6 234.42375 
L 480.6 12.66375 
L 34.2 12.66375 
z
" style="fill: #ffffff"/>
   </g>
   <g id="patch_3">
    <path d="M 180.972535 234.42375 
L 184.064278 234.42375 
L 184.064278 234.103563 
L 180.972535 234.103563 
z
" clip-path="url(#p40c58c7909)" style="fill: #fb8072; opacity: 0.8; stroke: #000000; stroke-width: 0.8; stroke-linejoin: miter"/>
   </g>
   <g id="patch_4">
    <path d="M 184.064278 234.42375 
L 187.156021 234.42375 
L 187.156021 233.463188 
L 184.064278 233.463188 
z
" clip-path="url(#p40c58c7909)" style="fill: #fb8072; opacity: 0.8; stroke: #000000; stroke-width: 0.8; stroke-linejoin: miter"/>
   </g>
   <g id="patch_5">
    <path d="M 187.156021 234.42375 
L 190.247764 234.42375 
L 190.247764 232.822814 
L 187.156021 232.822814 
z
" clip-path="url(#p40c58c7909)" style="fill: #fb8072; opacity: 0.8; stroke: #000000; stroke-width: 0.8; stroke-linejoin: miter"/>
   </g>
   <g id="patch_6">
    <path d="M 190.247764 234.42375 
L 193.339507 234.42375 
L 193.339507 231.542065 
L 190.247764 231.542065 
z
" clip-path="url(#p40c58c7909)" style="fill: #fb8072; opacity: 0.8; stroke: #000000; stroke-width: 0.8; stroke-linejoin: miter"/>
   </g>
   <g id="patch_7">
    <path d="M 193.339507 234.42375 
L 196.43125 234.42375 
L 196.43125 228.66038 
L 193.339507 228.66038 
z
" clip-path="url(#p40c58c7909)" style="fill: #fb8072; opacity: 0.8; stroke: #000000; stroke-width: 0.8; stroke-linejoin: miter"/>
   </g>
   <g id="patch_8">
    <path d="M 196.43125 234.42375 
L 199.522994 234.42375 
L 199.522994 228.66038 
L 196.43125 228.66038 
z
" clip-path="url(#p40c58c7909)" style="fill: #fb8072; opacity: 0.8; stroke: #000000; stroke-width: 0.8; stroke-linejoin: miter"/>
   </g>
   <g id="patch_9">
    <path d="M 199.522994 234.42375 
L 202.614737 234.42375 
L 202.614737 227.059444 
L 199.522994 227.059444 
z
" clip-path="url(#p40c58c7909)" style="fill: #fb8072; opacity: 0.8; stroke: #000000; stroke-width: 0.8; stroke-linejoin: miter"/>
   </g>
   <g id="patch_10">
    <path d="M 202.614737 234.42375 
L 205.70648 234.42375 
L 205.70648 227.699818 
L 202.614737 227.699818 
z
" clip-path="url(#p40c58c7909)" style="fill: #fb8072; opacity: 0.8; stroke: #000000; stroke-width: 0.8; stroke-linejoin: miter"/>
   </g>
   <g id="patch_11">
    <path d="M 205.70648 234.42375 
L 208.798223 234.42375 
L 208.798223 223.217197 
L 205.70648 223.217197 
z
" clip-path="url(#p40c58c7909)" style="fill: #fb8072; opacity: 0.8; stroke: #000000; stroke-width: 0.8; stroke-linejoin: miter"/>
   </g>
   <g id="patch_12">
    <path d="M 208.798223 234.42375 
L 211.889966 234.42375 
L 211.889966 212.971206 
L 208.798223 212.971206 
z
" clip-path="url(#p40c58c7909)" style="fill: #fb8072; opacity: 0.8; stroke: #000000; stroke-width: 0.8; stroke-linejoin: miter"/>
   </g>
   <g id="patch_13">
    <path d="M 211.889966 234.42375 
L 214.981709 234.42375 
L 214.981709 211.050083 
L 211.889966 211.050083 
z
" clip-path="url(#p40c58c7909)" style="fill: #fb8072; opacity: 0.8; stroke: #000000; stroke-width: 0.8; stroke-linejoin: miter"/>
   </g>
   <g id="patch_14">
    <path d="M 214.981709 234.42375 
L 218.073452 234.42375 
L 218.073452 204.646338 
L 214.981709 204.646338 
z
" clip-path="url(#p40c58c7909)" style="fill: #fb8072; opacity: 0.8; stroke: #000000; stroke-width: 0.8; stroke-linejoin: miter"/>
   </g>
   <g id="patch_15">
    <path d="M 218.073452 234.42375 
L 221.165195 234.42375 
L 221.165195 189.917726 
L 218.073452 189.917726 
z
" clip-path="url(#p40c58c7909)" style="fill: #fb8072; opacity: 0.8; stroke: #000000; stroke-width: 0.8; stroke-linejoin: miter"/>
   </g>
   <g id="patch_16">
    <path d="M 221.165195 234.42375 
L 224.256938 234.42375 
L 224.256938 186.395667 
L 221.165195 186.395667 
z
" clip-path="url(#p40c58c7909)" style="fill: #fb8072; opacity: 0.8; stroke: #000000; stroke-width: 0.8; stroke-linejoin: miter"/>
   </g>
   <g id="patch_17">
    <path d="M 224.256938 234.42375 
L 227.348682 234.42375 
L 227.348682 168.465182 
L 224.256938 168.465182 
z
" clip-path="url(#p40c58c7909)" style="fill: #fb8072; opacity: 0.8; stroke: #000000; stroke-width: 0.8; stroke-linejoin: miter"/>
   </g>
   <g id="patch_18">
    <path d="M 227.348682 234.42375 
L 230.440425 234.42375 
L 230.440425 159.820127 
L 227.348682 159.820127 
z
" clip-path="url(#p40c58c7909)" style="fill: #fb8072; opacity: 0.8; stroke: #000000; stroke-width: 0.8; stroke-linejoin: miter"/>
   </g>
   <g id="patch_19">
    <path d="M 230.440425 234.42375 
L 233.532168 234.42375 
L 233.532168 139.328145 
L 230.440425 139.328145 
z
" clip-path="url(#p40c58c7909)" style="fill: #fb8072; opacity: 0.8; stroke: #000000; stroke-width: 0.8; stroke-linejoin: miter"/>
   </g>
   <g id="patch_20">
    <path d="M 233.532168 234.42375 
L 236.623911 234.42375 
L 236.623911 137.727209 
L 233.532168 137.727209 
z
" clip-path="url(#p40c58c7909)" style="fill: #fb8072; opacity: 0.8; stroke: #000000; stroke-width: 0.8; stroke-linejoin: miter"/>
   </g>
   <g id="patch_21">
    <path d="M 236.623911 234.42375 
L 239.715654 234.42375 
L 239.715654 107.309423 
L 236.623911 107.309423 
z
" clip-path="url(#p40c58c7909)" style="fill: #fb8072; opacity: 0.8; stroke: #000000; stroke-width: 0.8; stroke-linejoin: miter"/>
   </g>
   <g id="patch_22">
    <path d="M 239.715654 234.42375 
L 242.807397 234.42375 
L 242.807397 99.304742 
L 239.715654 99.304742 
z
" clip-path="url(#p40c58c7909)" style="fill: #fb8072; opacity: 0.8; stroke: #000000; stroke-width: 0.8; stroke-linejoin: miter"/>
   </g>
   <g id="patch_23">
    <path d="M 242.807397 234.42375 
L 245.89914 234.42375 
L 245.89914 84.57613 
L 242.807397 84.57613 
z
" clip-path="url(#p40c58c7909)" style="fill: #fb8072; opacity: 0.8; stroke: #000000; stroke-width: 0.8; stroke-linejoin: miter"/>
   </g>
   <g id="patch_24">
    <path d="M 245.89914 234.42375 
L 248.990883 234.42375 
L 248.990883 70.167705 
L 245.89914 70.167705 
z
" clip-path="url(#p40c58c7909)" style="fill: #fb8072; opacity: 0.8; stroke: #000000; stroke-width: 0.8; stroke-linejoin: miter"/>
   </g>
   <g id="patch_25">
    <path d="M 248.990883 234.42375 
L 252.082626 234.42375 
L 252.082626 60.882275 
L 248.990883 60.882275 
z
" clip-path="url(#p40c58c7909)" style="fill: #fb8072; opacity: 0.8; stroke: #000000; stroke-width: 0.8; stroke-linejoin: miter"/>
   </g>
   <g id="patch_26">
    <path d="M 252.082626 234.42375 
L 255.17437 234.42375 
L 255.17437 60.882275 
L 252.082626 60.882275 
z
" clip-path="url(#p40c58c7909)" style="fill: #fb8072; opacity: 0.8; stroke: #000000; stroke-width: 0.8; stroke-linejoin: miter"/>
   </g>
   <g id="patch_27">
    <path d="M 255.17437 234.42375 
L 258.266113 234.42375 
L 258.266113 51.276659 
L 255.17437 51.276659 
z
" clip-path="url(#p40c58c7909)" style="fill: #fb8072; opacity: 0.8; stroke: #000000; stroke-width: 0.8; stroke-linejoin: miter"/>
   </g>
   <g id="patch_28">
    <path d="M 258.266113 234.42375 
L 261.357856 234.42375 
L 261.357856 61.842837 
L 258.266113 61.842837 
z
" clip-path="url(#p40c58c7909)" style="fill: #fb8072; opacity: 0.8; stroke: #000000; stroke-width: 0.8; stroke-linejoin: miter"/>
   </g>
   <g id="patch_29">
    <path d="M 261.357856 234.42375 
L 264.449599 234.42375 
L 264.449599 67.606207 
L 261.357856 67.606207 
z
" clip-path="url(#p40c58c7909)" style="fill: #fb8072; opacity: 0.8; stroke: #000000; stroke-width: 0.8; stroke-linejoin: miter"/>
   </g>
   <g id="patch_30">
    <path d="M 264.449599 234.42375 
L 267.541342 234.42375 
L 267.541342 67.606207 
L 264.449599 67.606207 
z
" clip-path="url(#p40c58c7909)" style="fill: #fb8072; opacity: 0.8; stroke: #000000; stroke-width: 0.8; stroke-linejoin: miter"/>
   </g>
   <g id="patch_31">
    <path d="M 267.541342 234.42375 
L 270.633085 234.42375 
L 270.633085 71.128267 
L 267.541342 71.128267 
z
" clip-path="url(#p40c58c7909)" style="fill: #fb8072; opacity: 0.8; stroke: #000000; stroke-width: 0.8; stroke-linejoin: miter"/>
   </g>
   <g id="patch_32">
    <path d="M 270.633085 234.42375 
L 273.724828 234.42375 
L 273.724828 93.221185 
L 270.633085 93.221185 
z
" clip-path="url(#p40c58c7909)" style="fill: #fb8072; opacity: 0.8; stroke: #000000; stroke-width: 0.8; stroke-linejoin: miter"/>
   </g>
   <g id="patch_33">
    <path d="M 273.724828 234.42375 
L 276.816571 234.42375 
L 276.816571 104.747925 
L 273.724828 104.747925 
z
" clip-path="url(#p40c58c7909)" style="fill: #fb8072; opacity: 0.8; stroke: #000000; stroke-width: 0.8; stroke-linejoin: miter"/>
   </g>
   <g id="patch_34">
    <path d="M 276.816571 234.42375 
L 279.908314 234.42375 
L 279.908314 127.16103 
L 276.816571 127.16103 
z
" clip-path="url(#p40c58c7909)" style="fill: #fb8072; opacity: 0.8; stroke: #000000; stroke-width: 0.8; stroke-linejoin: miter"/>
   </g>
   <g id="patch_35">
    <path d="M 279.908314 234.42375 
L 283.000058 234.42375 
L 283.000058 133.884962 
L 279.908314 133.884962 
z
" clip-path="url(#p40c58c7909)" style="fill: #fb8072; opacity: 0.8; stroke: #000000; stroke-width: 0.8; stroke-linejoin: miter"/>
   </g>
   <g id="patch_36">
    <path d="M 283.000058 234.42375 
L 286.091801 234.42375 
L 286.091801 147.9732 
L 283.000058 147.9732 
z
" clip-path="url(#p40c58c7909)" style="fill: #fb8072; opacity: 0.8; stroke: #000000; stroke-width: 0.8; stroke-linejoin: miter"/>
   </g>
   <g id="patch_37">
    <path d="M 286.091801 234.42375 
L 289.183544 234.42375 
L 289.183544 162.061438 
L 286.091801 162.061438 
z
" clip-path="url(#p40c58c7909)" style="fill: #fb8072; opacity: 0.8; stroke: #000000; stroke-width: 0.8; stroke-linejoin: miter"/>
   </g>
   <g id="patch_38">
    <path d="M 289.183544 234.42375 
L 292.275287 234.42375 
L 292.275287 171.987242 
L 289.183544 171.987242 
z
" clip-path="url(#p40c58c7909)" style="fill: #fb8072; opacity: 0.8; stroke: #000000; stroke-width: 0.8; stroke-linejoin: miter"/>
   </g>
   <g id="patch_39">
    <path d="M 292.275287 234.42375 
L 295.36703 234.42375 
L 295.36703 194.08016 
L 292.275287 194.08016 
z
" clip-path="url(#p40c58c7909)" style="fill: #fb8072; opacity: 0.8; stroke: #000000; stroke-width: 0.8; stroke-linejoin: miter"/>
   </g>
   <g id="patch_40">
    <path d="M 295.36703 234.42375 
L 298.458773 234.42375 
L 298.458773 200.483904 
L 295.36703 200.483904 
z
" clip-path="url(#p40c58c7909)" style="fill: #fb8072; opacity: 0.8; stroke: #000000; stroke-width: 0.8; stroke-linejoin: miter"/>
   </g>
   <g id="patch_41">
    <path d="M 298.458773 234.42375 
L 301.550516 234.42375 
L 301.550516 199.84353 
L 298.458773 199.84353 
z
" clip-path="url(#p40c58c7909)" style="fill: #fb8072; opacity: 0.8; stroke: #000000; stroke-width: 0.8; stroke-linejoin: miter"/>
   </g>
   <g id="patch_42">
    <path d="M 301.550516 234.42375 
L 304.642259 234.42375 
L 304.642259 213.291393 
L 301.550516 213.291393 
z
" clip-path="url(#p40c58c7909)" style="fill: #fb8072; opacity: 0.8; stroke: #000000; stroke-width: 0.8; stroke-linejoin: miter"/>
   </g>
   <g id="patch_43">
    <path d="M 304.642259 234.42375 
L 307.734002 234.42375 
L 307.734002 218.414389 
L 304.642259 218.414389 
z
" clip-path="url(#p40c58c7909)" style="fill: #fb8072; opacity: 0.8; stroke: #000000; stroke-width: 0.8; stroke-linejoin: miter"/>
   </g>
   <g id="patch_44">
    <path d="M 307.734002 234.42375 
L 310.825746 234.42375 
L 310.825746 222.89701 
L 307.734002 222.89701 
z
" clip-path="url(#p40c58c7909)" style="fill: #fb8072; opacity: 0.8; stroke: #000000; stroke-width: 0.8; stroke-linejoin: miter"/>
   </g>
   <g id="patch_45">
    <path d="M 310.825746 234.42375 
L 313.917489 234.42375 
L 313.917489 226.739257 
L 310.825746 226.739257 
z
" clip-path="url(#p40c58c7909)" style="fill: #fb8072; opacity: 0.8; stroke: #000000; stroke-width: 0.8; stroke-linejoin: miter"/>
   </g>
   <g id="patch_46">
    <path d="M 313.917489 234.42375 
L 317.009232 234.42375 
L 317.009232 227.379631 
L 313.917489 227.379631 
z
" clip-path="url(#p40c58c7909)" style="fill: #fb8072; opacity: 0.8; stroke: #000000; stroke-width: 0.8; stroke-linejoin: miter"/>
   </g>
   <g id="patch_47">
    <path d="M 317.009232 234.42375 
L 320.100975 234.42375 
L 320.100975 229.620942 
L 317.009232 229.620942 
z
" clip-path="url(#p40c58c7909)" style="fill: #fb8072; opacity: 0.8; stroke: #000000; stroke-width: 0.8; stroke-linejoin: miter"/>
   </g>
   <g id="patch_48">
    <path d="M 320.100975 234.42375 
L 323.192718 234.42375 
L 323.192718 232.182439 
L 320.100975 232.182439 
z
" clip-path="url(#p40c58c7909)" style="fill: #fb8072; opacity: 0.8; stroke: #000000; stroke-width: 0.8; stroke-linejoin: miter"/>
   </g>
   <g id="patch_49">
    <path d="M 323.192718 234.42375 
L 326.284461 234.42375 
L 326.284461 233.783376 
L 323.192718 233.783376 
z
" clip-path="url(#p40c58c7909)" style="fill: #fb8072; opacity: 0.8; stroke: #000000; stroke-width: 0.8; stroke-linejoin: miter"/>
   </g>
   <g id="patch_50">
    <path d="M 326.284461 234.42375 
L 329.376204 234.42375 
L 329.376204 231.862252 
L 326.284461 231.862252 
z
" clip-path="url(#p40c58c7909)" style="fill: #fb8072; opacity: 0.8; stroke: #000000; stroke-width: 0.8; stroke-linejoin: miter"/>
   </g>
   <g id="patch_51">
    <path d="M 329.376204 234.42375 
L 332.467947 234.42375 
L 332.467947 233.783376 
L 329.376204 233.783376 
z
" clip-path="url(#p40c58c7909)" style="fill: #fb8072; opacity: 0.8; stroke: #000000; stroke-width: 0.8; stroke-linejoin: miter"/>
   </g>
   <g id="patch_52">
    <path d="M 332.467947 234.42375 
L 335.559691 234.42375 
L 335.559691 233.783376 
L 332.467947 233.783376 
z
" clip-path="url(#p40c58c7909)" style="fill: #fb8072; opacity: 0.8; stroke: #000000; stroke-width: 0.8; stroke-linejoin: miter"/>
   </g>
   <g id="patch_53">
    <path d="M 90.957427 234.42375 
L 97.968672 234.42375 
L 97.968672 234.141365 
L 90.957427 234.141365 
z
" clip-path="url(#p40c58c7909)" style="fill: #b3de69; opacity: 0.8; stroke: #000000; stroke-width: 0.8; stroke-linejoin: miter"/>
   </g>
   <g id="patch_54">
    <path d="M 97.968672 234.42375 
L 104.979917 234.42375 
L 104.979917 234.42375 
L 97.968672 234.42375 
z
" clip-path="url(#p40c58c7909)" style="fill: #b3de69; opacity: 0.8; stroke: #000000; stroke-width: 0.8; stroke-linejoin: miter"/>
   </g>
   <g id="patch_55">
    <path d="M 104.979917 234.42375 
L 111.991162 234.42375 
L 111.991162 234.282557 
L 104.979917 234.282557 
z
" clip-path="url(#p40c58c7909)" style="fill: #b3de69; opacity: 0.8; stroke: #000000; stroke-width: 0.8; stroke-linejoin: miter"/>
   </g>
   <g id="patch_56">
    <path d="M 111.991162 234.42375 
L 119.002407 234.42375 
L 119.002407 234.282557 
L 111.991162 234.282557 
z
" clip-path="url(#p40c58c7909)" style="fill: #b3de69; opacity: 0.8; stroke: #000000; stroke-width: 0.8; stroke-linejoin: miter"/>
   </g>
   <g id="patch_57">
    <path d="M 119.002407 234.42375 
L 126.013652 234.42375 
L 126.013652 234.000172 
L 119.002407 234.000172 
z
" clip-path="url(#p40c58c7909)" style="fill: #b3de69; opacity: 0.8; stroke: #000000; stroke-width: 0.8; stroke-linejoin: miter"/>
   </g>
   <g id="patch_58">
    <path d="M 126.013652 234.42375 
L 133.024896 234.42375 
L 133.024896 233.717786 
L 126.013652 233.717786 
z
" clip-path="url(#p40c58c7909)" style="fill: #b3de69; opacity: 0.8; stroke: #000000; stroke-width: 0.8; stroke-linejoin: miter"/>
   </g>
   <g id="patch_59">
    <path d="M 133.024896 234.42375 
L 140.036141 234.42375 
L 140.036141 233.576594 
L 133.024896 233.576594 
z
" clip-path="url(#p40c58c7909)" style="fill: #b3de69; opacity: 0.8; stroke: #000000; stroke-width: 0.8; stroke-linejoin: miter"/>
   </g>
   <g id="patch_60">
    <path d="M 140.036141 234.42375 
L 147.047386 234.42375 
L 147.047386 232.164667 
L 140.036141 232.164667 
z
" clip-path="url(#p40c58c7909)" style="fill: #b3de69; opacity: 0.8; stroke: #000000; stroke-width: 0.8; stroke-linejoin: miter"/>
   </g>
   <g id="patch_61">
    <path d="M 147.047386 234.42375 
L 154.058631 234.42375 
L 154.058631 231.882281 
L 147.047386 231.882281 
z
" clip-path="url(#p40c58c7909)" style="fill: #b3de69; opacity: 0.8; stroke: #000000; stroke-width: 0.8; stroke-linejoin: miter"/>
   </g>
   <g id="patch_62">
    <path d="M 154.058631 234.42375 
L 161.069876 234.42375 
L 161.069876 231.882281 
L 154.058631 231.882281 
z
" clip-path="url(#p40c58c7909)" style="fill: #b3de69; opacity: 0.8; stroke: #000000; stroke-width: 0.8; stroke-linejoin: miter"/>
   </g>
   <g id="patch_63">
    <path d="M 161.069876 234.42375 
L 168.081121 234.42375 
L 168.081121 226.516958 
L 161.069876 226.516958 
z
" clip-path="url(#p40c58c7909)" style="fill: #b3de69; opacity: 0.8; stroke: #000000; stroke-width: 0.8; stroke-linejoin: miter"/>
   </g>
   <g id="patch_64">
    <path d="M 168.081121 234.42375 
L 175.092366 234.42375 
L 175.092366 225.669802 
L 168.081121 225.669802 
z
" clip-path="url(#p40c58c7909)" style="fill: #b3de69; opacity: 0.8; stroke: #000000; stroke-width: 0.8; stroke-linejoin: miter"/>
   </g>
   <g id="patch_65">
    <path d="M 175.092366 234.42375 
L 182.103611 234.42375 
L 182.103611 223.97549 
L 175.092366 223.97549 
z
" clip-path="url(#p40c58c7909)" style="fill: #b3de69; opacity: 0.8; stroke: #000000; stroke-width: 0.8; stroke-linejoin: miter"/>
   </g>
   <g id="patch_66">
    <path d="M 182.103611 234.42375 
L 189.114856 234.42375 
L 189.114856 218.468974 
L 182.103611 218.468974 
z
" clip-path="url(#p40c58c7909)" style="fill: #b3de69; opacity: 0.8; stroke: #000000; stroke-width: 0.8; stroke-linejoin: miter"/>
   </g>
   <g id="patch_67">
    <path d="M 189.114856 234.42375 
L 196.1261 234.42375 
L 196.1261 212.821266 
L 189.114856 212.821266 
z
" clip-path="url(#p40c58c7909)" style="fill: #b3de69; opacity: 0.8; stroke: #000000; stroke-width: 0.8; stroke-linejoin: miter"/>
   </g>
   <g id="patch_68">
    <path d="M 196.1261 234.42375 
L 203.137345 234.42375 
L 203.137345 206.185209 
L 196.1261 206.185209 
z
" clip-path="url(#p40c58c7909)" style="fill: #b3de69; opacity: 0.8; stroke: #000000; stroke-width: 0.8; stroke-linejoin: miter"/>
   </g>
   <g id="patch_69">
    <path d="M 203.137345 234.42375 
L 210.14859 234.42375 
L 210.14859 199.97273 
L 203.137345 199.97273 
z
" clip-path="url(#p40c58c7909)" style="fill: #b3de69; opacity: 0.8; stroke: #000000; stroke-width: 0.8; stroke-linejoin: miter"/>
   </g>
   <g id="patch_70">
    <path d="M 210.14859 234.42375 
L 217.159835 234.42375 
L 217.159835 194.748599 
L 210.14859 194.748599 
z
" clip-path="url(#p40c58c7909)" style="fill: #b3de69; opacity: 0.8; stroke: #000000; stroke-width: 0.8; stroke-linejoin: miter"/>
   </g>
   <g id="patch_71">
    <path d="M 217.159835 234.42375 
L 224.17108 234.42375 
L 224.17108 183.31199 
L 217.159835 183.31199 
z
" clip-path="url(#p40c58c7909)" style="fill: #b3de69; opacity: 0.8; stroke: #000000; stroke-width: 0.8; stroke-linejoin: miter"/>
   </g>
   <g id="patch_72">
    <path d="M 224.17108 234.42375 
L 231.182325 234.42375 
L 231.182325 176.53474 
L 224.17108 176.53474 
z
" clip-path="url(#p40c58c7909)" style="fill: #b3de69; opacity: 0.8; stroke: #000000; stroke-width: 0.8; stroke-linejoin: miter"/>
   </g>
   <g id="patch_73">
    <path d="M 231.182325 234.42375 
L 238.19357 234.42375 
L 238.19357 162.133084 
L 231.182325 162.133084 
z
" clip-path="url(#p40c58c7909)" style="fill: #b3de69; opacity: 0.8; stroke: #000000; stroke-width: 0.8; stroke-linejoin: miter"/>
   </g>
   <g id="patch_74">
    <path d="M 238.19357 234.42375 
L 245.204815 234.42375 
L 245.204815 162.697855 
L 238.19357 162.697855 
z
" clip-path="url(#p40c58c7909)" style="fill: #b3de69; opacity: 0.8; stroke: #000000; stroke-width: 0.8; stroke-linejoin: miter"/>
   </g>
   <g id="patch_75">
    <path d="M 245.204815 234.42375 
L 252.216059 234.42375 
L 252.216059 156.626569 
L 245.204815 156.626569 
z
" clip-path="url(#p40c58c7909)" style="fill: #b3de69; opacity: 0.8; stroke: #000000; stroke-width: 0.8; stroke-linejoin: miter"/>
   </g>
   <g id="patch_76">
    <path d="M 252.216059 234.42375 
L 259.227304 234.42375 
L 259.227304 148.296199 
L 252.216059 148.296199 
z
" clip-path="url(#p40c58c7909)" style="fill: #b3de69; opacity: 0.8; stroke: #000000; stroke-width: 0.8; stroke-linejoin: miter"/>
   </g>
   <g id="patch_77">
    <path d="M 259.227304 234.42375 
L 266.238549 234.42375 
L 266.238549 144.201611 
L 259.227304 144.201611 
z
" clip-path="url(#p40c58c7909)" style="fill: #b3de69; opacity: 0.8; stroke: #000000; stroke-width: 0.8; stroke-linejoin: miter"/>
   </g>
   <g id="patch_78">
    <path d="M 266.238549 234.42375 
L 273.249794 234.42375 
L 273.249794 145.895923 
L 266.238549 145.895923 
z
" clip-path="url(#p40c58c7909)" style="fill: #b3de69; opacity: 0.8; stroke: #000000; stroke-width: 0.8; stroke-linejoin: miter"/>
   </g>
   <g id="patch_79">
    <path d="M 273.249794 234.42375 
L 280.261039 234.42375 
L 280.261039 148.578584 
L 273.249794 148.578584 
z
" clip-path="url(#p40c58c7909)" style="fill: #b3de69; opacity: 0.8; stroke: #000000; stroke-width: 0.8; stroke-linejoin: miter"/>
   </g>
   <g id="patch_80">
    <path d="M 280.261039 234.42375 
L 287.272284 234.42375 
L 287.272284 150.837668 
L 280.261039 150.837668 
z
" clip-path="url(#p40c58c7909)" style="fill: #b3de69; opacity: 0.8; stroke: #000000; stroke-width: 0.8; stroke-linejoin: miter"/>
   </g>
   <g id="patch_81">
    <path d="M 287.272284 234.42375 
L 294.283529 234.42375 
L 294.283529 160.297579 
L 287.272284 160.297579 
z
" clip-path="url(#p40c58c7909)" style="fill: #b3de69; opacity: 0.8; stroke: #000000; stroke-width: 0.8; stroke-linejoin: miter"/>
   </g>
   <g id="patch_82">
    <path d="M 294.283529 234.42375 
L 301.294774 234.42375 
L 301.294774 164.956938 
L 294.283529 164.956938 
z
" clip-path="url(#p40c58c7909)" style="fill: #b3de69; opacity: 0.8; stroke: #000000; stroke-width: 0.8; stroke-linejoin: miter"/>
   </g>
   <g id="patch_83">
    <path d="M 301.294774 234.42375 
L 308.306018 234.42375 
L 308.306018 172.016574 
L 301.294774 172.016574 
z
" clip-path="url(#p40c58c7909)" style="fill: #b3de69; opacity: 0.8; stroke: #000000; stroke-width: 0.8; stroke-linejoin: miter"/>
   </g>
   <g id="patch_84">
    <path d="M 308.306018 234.42375 
L 315.317263 234.42375 
L 315.317263 179.782173 
L 308.306018 179.782173 
z
" clip-path="url(#p40c58c7909)" style="fill: #b3de69; opacity: 0.8; stroke: #000000; stroke-width: 0.8; stroke-linejoin: miter"/>
   </g>
   <g id="patch_85">
    <path d="M 315.317263 234.42375 
L 322.328508 234.42375 
L 322.328508 185.288688 
L 315.317263 185.288688 
z
" clip-path="url(#p40c58c7909)" style="fill: #b3de69; opacity: 0.8; stroke: #000000; stroke-width: 0.8; stroke-linejoin: miter"/>
   </g>
   <g id="patch_86">
    <path d="M 322.328508 234.42375 
L 329.339753 234.42375 
L 329.339753 197.854839 
L 322.328508 197.854839 
z
" clip-path="url(#p40c58c7909)" style="fill: #b3de69; opacity: 0.8; stroke: #000000; stroke-width: 0.8; stroke-linejoin: miter"/>
   </g>
   <g id="patch_87">
    <path d="M 329.339753 234.42375 
L 336.350998 234.42375 
L 336.350998 202.231813 
L 329.339753 202.231813 
z
" clip-path="url(#p40c58c7909)" style="fill: #b3de69; opacity: 0.8; stroke: #000000; stroke-width: 0.8; stroke-linejoin: miter"/>
   </g>
   <g id="patch_88">
    <path d="M 336.350998 234.42375 
L 343.362243 234.42375 
L 343.362243 211.409339 
L 336.350998 211.409339 
z
" clip-path="url(#p40c58c7909)" style="fill: #b3de69; opacity: 0.8; stroke: #000000; stroke-width: 0.8; stroke-linejoin: miter"/>
   </g>
   <g id="patch_89">
    <path d="M 343.362243 234.42375 
L 350.373488 234.42375 
L 350.373488 213.668422 
L 343.362243 213.668422 
z
" clip-path="url(#p40c58c7909)" style="fill: #b3de69; opacity: 0.8; stroke: #000000; stroke-width: 0.8; stroke-linejoin: miter"/>
   </g>
   <g id="patch_90">
    <path d="M 350.373488 234.42375 
L 357.384733 234.42375 
L 357.384733 220.86925 
L 350.373488 220.86925 
z
" clip-path="url(#p40c58c7909)" style="fill: #b3de69; opacity: 0.8; stroke: #000000; stroke-width: 0.8; stroke-linejoin: miter"/>
   </g>
   <g id="patch_91">
    <path d="M 357.384733 234.42375 
L 364.395977 234.42375 
L 364.395977 222.563563 
L 357.384733 222.563563 
z
" clip-path="url(#p40c58c7909)" style="fill: #b3de69; opacity: 0.8; stroke: #000000; stroke-width: 0.8; stroke-linejoin: miter"/>
   </g>
   <g id="patch_92">
    <path d="M 364.395977 234.42375 
L 371.407222 234.42375 
L 371.407222 227.505307 
L 364.395977 227.505307 
z
" clip-path="url(#p40c58c7909)" style="fill: #b3de69; opacity: 0.8; stroke: #000000; stroke-width: 0.8; stroke-linejoin: miter"/>
   </g>
   <g id="patch_93">
    <path d="M 371.407222 234.42375 
L 378.418467 234.42375 
L 378.418467 228.776042 
L 371.407222 228.776042 
z
" clip-path="url(#p40c58c7909)" style="fill: #b3de69; opacity: 0.8; stroke: #000000; stroke-width: 0.8; stroke-linejoin: miter"/>
   </g>
   <g id="patch_94">
    <path d="M 378.418467 234.42375 
L 385.429712 234.42375 
L 385.429712 231.31751 
L 378.418467 231.31751 
z
" clip-path="url(#p40c58c7909)" style="fill: #b3de69; opacity: 0.8; stroke: #000000; stroke-width: 0.8; stroke-linejoin: miter"/>
   </g>
   <g id="patch_95">
    <path d="M 385.429712 234.42375 
L 392.440957 234.42375 
L 392.440957 232.447052 
L 385.429712 232.447052 
z
" clip-path="url(#p40c58c7909)" style="fill: #b3de69; opacity: 0.8; stroke: #000000; stroke-width: 0.8; stroke-linejoin: miter"/>
   </g>
   <g id="patch_96">
    <path d="M 392.440957 234.42375 
L 399.452202 234.42375 
L 399.452202 232.164667 
L 392.440957 232.164667 
z
" clip-path="url(#p40c58c7909)" style="fill: #b3de69; opacity: 0.8; stroke: #000000; stroke-width: 0.8; stroke-linejoin: miter"/>
   </g>
   <g id="patch_97">
    <path d="M 399.452202 234.42375 
L 406.463447 234.42375 
L 406.463447 233.576594 
L 399.452202 233.576594 
z
" clip-path="url(#p40c58c7909)" style="fill: #b3de69; opacity: 0.8; stroke: #000000; stroke-width: 0.8; stroke-linejoin: miter"/>
   </g>
   <g id="patch_98">
    <path d="M 406.463447 234.42375 
L 413.474692 234.42375 
L 413.474692 233.717786 
L 406.463447 233.717786 
z
" clip-path="url(#p40c58c7909)" style="fill: #b3de69; opacity: 0.8; stroke: #000000; stroke-width: 0.8; stroke-linejoin: miter"/>
   </g>
   <g id="patch_99">
    <path d="M 413.474692 234.42375 
L 420.485937 234.42375 
L 420.485937 234.282557 
L 413.474692 234.282557 
z
" clip-path="url(#p40c58c7909)" style="fill: #b3de69; opacity: 0.8; stroke: #000000; stroke-width: 0.8; stroke-linejoin: miter"/>
   </g>
   <g id="patch_100">
    <path d="M 420.485937 234.42375 
L 427.497181 234.42375 
L 427.497181 234.42375 
L 420.485937 234.42375 
z
" clip-path="url(#p40c58c7909)" style="fill: #b3de69; opacity: 0.8; stroke: #000000; stroke-width: 0.8; stroke-linejoin: miter"/>
   </g>
   <g id="patch_101">
    <path d="M 427.497181 234.42375 
L 434.508426 234.42375 
L 434.508426 234.141365 
L 427.497181 234.141365 
z
" clip-path="url(#p40c58c7909)" style="fill: #b3de69; opacity: 0.8; stroke: #000000; stroke-width: 0.8; stroke-linejoin: miter"/>
   </g>
   <g id="patch_102">
    <path d="M 434.508426 234.42375 
L 441.519671 234.42375 
L 441.519671 234.141365 
L 434.508426 234.141365 
z
" clip-path="url(#p40c58c7909)" style="fill: #b3de69; opacity: 0.8; stroke: #000000; stroke-width: 0.8; stroke-linejoin: miter"/>
   </g>
   <g id="matplotlib.axis_1">
    <g id="xtick_1">
     <g id="line2d_1">
      <defs>
       <path id="md7e0636d58" d="M 0 0 
L 0 3.5 
" style="stroke: #323034; stroke-width: 0.8"/>
      </defs>
      <g>
       <use xlink:href="#md7e0636d58" x="34.2" y="234.42375" style="fill: #323034; stroke: #323034; stroke-width: 0.8"/>
      </g>
     </g>
     <g id="text_1">
      <!-- $\mathdefault{−10.0}$ -->
      <g style="fill: #323034" transform="translate(14.68 252.35125) scale(0.16 -0.16)">
       <defs>
        <path id="STIXGeneral-Regular-2212" d="M 3974 1408 
L 410 1408 
L 410 1830 
L 3974 1830 
L 3974 1408 
z
" transform="scale(0.015625)"/>
        <path id="STIXGeneral-Regular-31" d="M 2522 0 
L 755 0 
L 755 96 
Q 1107 115 1235 227 
Q 1363 339 1363 608 
L 1363 3482 
Q 1363 3795 1171 3795 
Q 1082 3795 883 3718 
L 710 3654 
L 710 3744 
L 1856 4326 
L 1914 4307 
L 1914 486 
Q 1914 275 2042 185 
Q 2170 96 2522 96 
L 2522 0 
z
" transform="scale(0.015625)"/>
        <path id="STIXGeneral-Regular-30" d="M 3046 2112 
Q 3046 1683 2963 1302 
Q 2880 922 2717 602 
Q 2554 282 2266 96 
Q 1978 -90 1600 -90 
Q 1210 -90 915 108 
Q 621 307 461 640 
Q 301 973 227 1350 
Q 154 1728 154 2150 
Q 154 2746 301 3222 
Q 448 3699 790 4012 
Q 1133 4326 1626 4326 
Q 2253 4326 2649 3712 
Q 3046 3098 3046 2112 
z
M 2432 2080 
Q 2432 3091 2217 3625 
Q 2003 4160 1587 4160 
Q 1190 4160 979 3622 
Q 768 3085 768 2106 
Q 768 1120 979 598 
Q 1190 77 1600 77 
Q 2003 77 2217 598 
Q 2432 1120 2432 2080 
z
" transform="scale(0.015625)"/>
        <path id="STIXGeneral-Regular-2e" d="M 1158 275 
Q 1158 134 1052 32 
Q 947 -70 800 -70 
Q 653 -70 550 32 
Q 448 134 448 281 
Q 448 429 553 534 
Q 659 640 806 640 
Q 947 640 1052 531 
Q 1158 422 1158 275 
z
" transform="scale(0.015625)"/>
       </defs>
       <use xlink:href="#STIXGeneral-Regular-2212" transform="translate(0 0.40625)"/>
       <use xlink:href="#STIXGeneral-Regular-31" transform="translate(68.499985 0.40625)"/>
       <use xlink:href="#STIXGeneral-Regular-30" transform="translate(118.499969 0.40625)"/>
       <use xlink:href="#STIXGeneral-Regular-2e" transform="translate(168.499954 0.40625)"/>
       <use xlink:href="#STIXGeneral-Regular-30" transform="translate(193.499939 0.40625)"/>
      </g>
     </g>
    </g>
    <g id="xtick_2">
     <g id="line2d_2">
      <g>
       <use xlink:href="#md7e0636d58" x="90" y="234.42375" style="fill: #323034; stroke: #323034; stroke-width: 0.8"/>
      </g>
     </g>
     <g id="text_2">
      <!-- $\mathdefault{−7.5}$ -->
      <g style="fill: #323034" transform="translate(74.48 252.35125) scale(0.16 -0.16)">
       <defs>
        <path id="STIXGeneral-Regular-37" d="M 2874 4134 
L 1517 -51 
L 1101 -51 
L 2368 3763 
L 992 3763 
Q 717 3763 582 3667 
Q 448 3571 243 3238 
L 128 3296 
L 512 4237 
L 2874 4237 
L 2874 4134 
z
" transform="scale(0.015625)"/>
        <path id="STIXGeneral-Regular-35" d="M 2803 4358 
L 2573 3814 
Q 2534 3731 2400 3731 
L 1158 3731 
L 902 3187 
Q 1606 3053 1920 2896 
Q 2234 2739 2502 2368 
Q 2726 2061 2726 1555 
Q 2726 1094 2576 780 
Q 2426 467 2099 224 
Q 1664 -90 1011 -90 
Q 646 -90 422 19 
Q 198 128 198 307 
Q 198 550 486 550 
Q 717 550 960 352 
Q 1210 147 1414 147 
Q 1747 147 2012 480 
Q 2278 813 2278 1229 
Q 2278 1843 1850 2189 
Q 1293 2637 486 2637 
Q 410 2637 410 2688 
L 416 2720 
L 1114 4237 
L 2438 4237 
Q 2547 4237 2608 4269 
Q 2669 4301 2746 4403 
L 2803 4358 
z
" transform="scale(0.015625)"/>
       </defs>
       <use xlink:href="#STIXGeneral-Regular-2212" transform="translate(0 0.203125)"/>
       <use xlink:href="#STIXGeneral-Regular-37" transform="translate(68.499985 0.203125)"/>
       <use xlink:href="#STIXGeneral-Regular-2e" transform="translate(118.499969 0.203125)"/>
       <use xlink:href="#STIXGeneral-Regular-35" transform="translate(143.499954 0.203125)"/>
      </g>
     </g>
    </g>
    <g id="xtick_3">
     <g id="line2d_3">
      <g>
       <use xlink:href="#md7e0636d58" x="145.8" y="234.42375" style="fill: #323034; stroke: #323034; stroke-width: 0.8"/>
      </g>
     </g>
     <g id="text_3">
      <!-- $\mathdefault{−5.0}$ -->
      <g style="fill: #323034" transform="translate(130.28 252.35125) scale(0.16 -0.16)">
       <use xlink:href="#STIXGeneral-Regular-2212" transform="translate(0 0.203125)"/>
       <use xlink:href="#STIXGeneral-Regular-35" transform="translate(68.499985 0.203125)"/>
       <use xlink:href="#STIXGeneral-Regular-2e" transform="translate(118.499969 0.203125)"/>
       <use xlink:href="#STIXGeneral-Regular-30" transform="translate(143.499954 0.203125)"/>
      </g>
     </g>
    </g>
    <g id="xtick_4">
     <g id="line2d_4">
      <g>
       <use xlink:href="#md7e0636d58" x="201.6" y="234.42375" style="fill: #323034; stroke: #323034; stroke-width: 0.8"/>
      </g>
     </g>
     <g id="text_4">
      <!-- $\mathdefault{−2.5}$ -->
      <g style="fill: #323034" transform="translate(186.08 252.35125) scale(0.16 -0.16)">
       <defs>
        <path id="STIXGeneral-Regular-32" d="M 3034 877 
L 2688 0 
L 186 0 
L 186 77 
L 1325 1286 
Q 1773 1754 1965 2144 
Q 2157 2534 2157 2950 
Q 2157 3379 1920 3616 
Q 1683 3853 1267 3853 
Q 922 3853 720 3673 
Q 518 3494 326 3021 
L 192 3053 
Q 301 3648 630 3987 
Q 960 4326 1523 4326 
Q 2054 4326 2380 4006 
Q 2707 3686 2707 3200 
Q 2707 2477 1888 1613 
L 832 486 
L 2330 486 
Q 2541 486 2665 569 
Q 2790 653 2944 915 
L 3034 877 
z
" transform="scale(0.015625)"/>
       </defs>
       <use xlink:href="#STIXGeneral-Regular-2212" transform="translate(0 0.203125)"/>
       <use xlink:href="#STIXGeneral-Regular-32" transform="translate(68.499985 0.203125)"/>
       <use xlink:href="#STIXGeneral-Regular-2e" transform="translate(118.499969 0.203125)"/>
       <use xlink:href="#STIXGeneral-Regular-35" transform="translate(143.499954 0.203125)"/>
      </g>
     </g>
    </g>
    <g id="xtick_5">
     <g id="line2d_5">
      <g>
       <use xlink:href="#md7e0636d58" x="257.4" y="234.42375" style="fill: #323034; stroke: #323034; stroke-width: 0.8"/>
      </g>
     </g>
     <g id="text_5">
      <!-- $\mathdefault{0.0}$ -->
      <g style="fill: #323034" transform="translate(247.4 252.35125) scale(0.16 -0.16)">
       <use xlink:href="#STIXGeneral-Regular-30" transform="translate(0 0.40625)"/>
       <use xlink:href="#STIXGeneral-Regular-2e" transform="translate(49.999985 0.40625)"/>
       <use xlink:href="#STIXGeneral-Regular-30" transform="translate(74.999969 0.40625)"/>
      </g>
     </g>
    </g>
    <g id="xtick_6">
     <g id="line2d_6">
      <g>
       <use xlink:href="#md7e0636d58" x="313.2" y="234.42375" style="fill: #323034; stroke: #323034; stroke-width: 0.8"/>
      </g>
     </g>
     <g id="text_6">
      <!-- $\mathdefault{2.5}$ -->
      <g style="fill: #323034" transform="translate(303.2 252.35125) scale(0.16 -0.16)">
       <use xlink:href="#STIXGeneral-Regular-32" transform="translate(0 0.203125)"/>
       <use xlink:href="#STIXGeneral-Regular-2e" transform="translate(49.999985 0.203125)"/>
       <use xlink:href="#STIXGeneral-Regular-35" transform="translate(74.999969 0.203125)"/>
      </g>
     </g>
    </g>
    <g id="xtick_7">
     <g id="line2d_7">
      <g>
       <use xlink:href="#md7e0636d58" x="369" y="234.42375" style="fill: #323034; stroke: #323034; stroke-width: 0.8"/>
      </g>
     </g>
     <g id="text_7">
      <!-- $\mathdefault{5.0}$ -->
      <g style="fill: #323034" transform="translate(359 252.35125) scale(0.16 -0.16)">
       <use xlink:href="#STIXGeneral-Regular-35" transform="translate(0 0.203125)"/>
       <use xlink:href="#STIXGeneral-Regular-2e" transform="translate(49.999985 0.203125)"/>
       <use xlink:href="#STIXGeneral-Regular-30" transform="translate(74.999969 0.203125)"/>
      </g>
     </g>
    </g>
    <g id="xtick_8">
     <g id="line2d_8">
      <g>
       <use xlink:href="#md7e0636d58" x="424.8" y="234.42375" style="fill: #323034; stroke: #323034; stroke-width: 0.8"/>
      </g>
     </g>
     <g id="text_8">
      <!-- $\mathdefault{7.5}$ -->
      <g style="fill: #323034" transform="translate(414.8 252.35125) scale(0.16 -0.16)">
       <use xlink:href="#STIXGeneral-Regular-37" transform="translate(0 0.203125)"/>
       <use xlink:href="#STIXGeneral-Regular-2e" transform="translate(49.999985 0.203125)"/>
       <use xlink:href="#STIXGeneral-Regular-35" transform="translate(74.999969 0.203125)"/>
      </g>
     </g>
    </g>
    <g id="xtick_9">
     <g id="line2d_9">
      <g>
       <use xlink:href="#md7e0636d58" x="480.6" y="234.42375" style="fill: #323034; stroke: #323034; stroke-width: 0.8"/>
      </g>
     </g>
     <g id="text_9">
      <!-- $\mathdefault{10.0}$ -->
      <g style="fill: #323034" transform="translate(466.6 252.35125) scale(0.16 -0.16)">
       <use xlink:href="#STIXGeneral-Regular-31" transform="translate(0 0.40625)"/>
       <use xlink:href="#STIXGeneral-Regular-30" transform="translate(49.999985 0.40625)"/>
       <use xlink:href="#STIXGeneral-Regular-2e" transform="translate(99.999969 0.40625)"/>
       <use xlink:href="#STIXGeneral-Regular-30" transform="translate(124.999954 0.40625)"/>
      </g>
     </g>
    </g>
   </g>
   <g id="matplotlib.axis_2">
    <g id="ytick_1">
     <g id="line2d_10">
      <defs>
       <path id="ma9eb03ba86" d="M 0 0 
L -3.5 0 
" style="stroke: #323034; stroke-width: 0.8"/>
      </defs>
      <g>
       <use xlink:href="#ma9eb03ba86" x="34.2" y="234.42375" style="fill: #323034; stroke: #323034; stroke-width: 0.8"/>
      </g>
     </g>
     <g id="text_10">
      <!-- $\mathdefault{0.0}$ -->
      <g style="fill: #323034" transform="translate(7.2 239.8875) scale(0.16 -0.16)">
       <use xlink:href="#STIXGeneral-Regular-30" transform="translate(0 0.40625)"/>
       <use xlink:href="#STIXGeneral-Regular-2e" transform="translate(49.999985 0.40625)"/>
       <use xlink:href="#STIXGeneral-Regular-30" transform="translate(74.999969 0.40625)"/>
      </g>
     </g>
    </g>
    <g id="ytick_2">
     <g id="line2d_11">
      <g>
       <use xlink:href="#ma9eb03ba86" x="34.2" y="190.07175" style="fill: #323034; stroke: #323034; stroke-width: 0.8"/>
      </g>
     </g>
     <g id="text_11">
      <!-- $\mathdefault{0.1}$ -->
      <g style="fill: #323034" transform="translate(7.2 195.5355) scale(0.16 -0.16)">
       <use xlink:href="#STIXGeneral-Regular-30" transform="translate(0 0.40625)"/>
       <use xlink:href="#STIXGeneral-Regular-2e" transform="translate(49.999985 0.40625)"/>
       <use xlink:href="#STIXGeneral-Regular-31" transform="translate(74.999969 0.40625)"/>
      </g>
     </g>
    </g>
    <g id="ytick_3">
     <g id="line2d_12">
      <g>
       <use xlink:href="#ma9eb03ba86" x="34.2" y="145.71975" style="fill: #323034; stroke: #323034; stroke-width: 0.8"/>
      </g>
     </g>
     <g id="text_12">
      <!-- $\mathdefault{0.2}$ -->
      <g style="fill: #323034" transform="translate(7.2 151.1835) scale(0.16 -0.16)">
       <use xlink:href="#STIXGeneral-Regular-30" transform="translate(0 0.40625)"/>
       <use xlink:href="#STIXGeneral-Regular-2e" transform="translate(49.999985 0.40625)"/>
       <use xlink:href="#STIXGeneral-Regular-32" transform="translate(74.999969 0.40625)"/>
      </g>
     </g>
    </g>
    <g id="ytick_4">
     <g id="line2d_13">
      <g>
       <use xlink:href="#ma9eb03ba86" x="34.2" y="101.36775" style="fill: #323034; stroke: #323034; stroke-width: 0.8"/>
      </g>
     </g>
     <g id="text_13">
      <!-- $\mathdefault{0.3}$ -->
      <g style="fill: #323034" transform="translate(7.2 106.8315) scale(0.16 -0.16)">
       <defs>
        <path id="STIXGeneral-Regular-33" d="M 390 3264 
L 288 3290 
Q 435 3770 748 4048 
Q 1062 4326 1542 4326 
Q 1990 4326 2265 4083 
Q 2541 3840 2541 3450 
Q 2541 2925 1946 2566 
Q 2298 2413 2477 2227 
Q 2758 1914 2758 1402 
Q 2758 890 2464 506 
Q 2246 211 1840 60 
Q 1434 -90 979 -90 
Q 262 -90 262 275 
Q 262 378 339 442 
Q 416 506 525 506 
Q 685 506 915 339 
Q 1197 141 1466 141 
Q 1818 141 2058 425 
Q 2298 710 2298 1120 
Q 2298 1856 1632 2048 
Q 1434 2112 979 2112 
L 979 2202 
Q 1338 2323 1517 2432 
Q 2035 2726 2035 3290 
Q 2035 3610 1852 3776 
Q 1670 3942 1344 3942 
Q 768 3942 390 3264 
z
" transform="scale(0.015625)"/>
       </defs>
       <use xlink:href="#STIXGeneral-Regular-30" transform="translate(0 0.40625)"/>
       <use xlink:href="#STIXGeneral-Regular-2e" transform="translate(49.999985 0.40625)"/>
       <use xlink:href="#STIXGeneral-Regular-33" transform="translate(74.999969 0.40625)"/>
      </g>
     </g>
    </g>
    <g id="ytick_5">
     <g id="line2d_14">
      <g>
       <use xlink:href="#ma9eb03ba86" x="34.2" y="57.01575" style="fill: #323034; stroke: #323034; stroke-width: 0.8"/>
      </g>
     </g>
     <g id="text_14">
      <!-- $\mathdefault{0.4}$ -->
      <g style="fill: #323034" transform="translate(7.2 62.4795) scale(0.16 -0.16)">
       <defs>
        <path id="STIXGeneral-Regular-34" d="M 3027 1069 
L 2368 1069 
L 2368 0 
L 1869 0 
L 1869 1069 
L 77 1069 
L 77 1478 
L 2086 4326 
L 2368 4326 
L 2368 1478 
L 3027 1478 
L 3027 1069 
z
M 1869 1478 
L 1869 3674 
L 333 1478 
L 1869 1478 
z
" transform="scale(0.015625)"/>
       </defs>
       <use xlink:href="#STIXGeneral-Regular-30" transform="translate(0 0.40625)"/>
       <use xlink:href="#STIXGeneral-Regular-2e" transform="translate(49.999985 0.40625)"/>
       <use xlink:href="#STIXGeneral-Regular-34" transform="translate(74.999969 0.40625)"/>
      </g>
     </g>
    </g>
    <g id="ytick_6">
     <g id="line2d_15">
      <g>
       <use xlink:href="#ma9eb03ba86" x="34.2" y="12.66375" style="fill: #323034; stroke: #323034; stroke-width: 0.8"/>
      </g>
     </g>
     <g id="text_15">
      <!-- $\mathdefault{0.5}$ -->
      <g style="fill: #323034" transform="translate(7.2 18.1275) scale(0.16 -0.16)">
       <use xlink:href="#STIXGeneral-Regular-30" transform="translate(0 0.203125)"/>
       <use xlink:href="#STIXGeneral-Regular-2e" transform="translate(49.999985 0.203125)"/>
       <use xlink:href="#STIXGeneral-Regular-35" transform="translate(74.999969 0.203125)"/>
      </g>
     </g>
    </g>
   </g>
   <g id="line2d_16">
    <path d="M 190.44 232.458137 
L 193.127358 231.623356 
L 195.366823 230.704026 
L 197.606288 229.532382 
L 199.39786 228.378446 
L 201.189431 227.000265 
L 202.981003 225.366437 
L 204.772575 223.44399 
L 206.564147 221.198978 
L 208.355719 218.597229 
L 210.147291 215.605268 
L 211.938863 212.191387 
L 213.730435 208.326872 
L 215.522007 203.987343 
L 217.313579 199.154186 
L 219.553043 192.402047 
L 221.792508 184.858745 
L 224.031973 176.546936 
L 226.719331 165.633184 
L 229.854582 151.80092 
L 233.885619 132.842303 
L 240.604013 101.114723 
L 243.291371 89.526522 
L 245.530836 80.814302 
L 247.322408 74.63127 
L 249.11398 69.266882 
L 250.457659 65.84004 
L 251.801338 62.964611 
L 253.145017 60.67098 
L 254.040803 59.477465 
L 254.936589 58.559247 
L 255.832375 57.920737 
L 256.728161 57.565008 
L 257.623946 57.493776 
L 258.519732 57.707385 
L 259.415518 58.204805 
L 260.311304 58.983637 
L 261.20709 60.040137 
L 262.102876 61.369241 
L 263.446555 63.859827 
L 264.790234 66.922713 
L 266.133913 70.525662 
L 267.925485 76.104378 
L 269.717057 82.475354 
L 271.956522 91.381655 
L 274.64388 103.139069 
L 278.227023 119.937253 
L 285.393311 153.838158 
L 288.528562 167.518216 
L 291.21592 178.268742 
L 293.455385 186.430008 
L 295.694849 193.816021 
L 297.934314 200.409513 
L 300.173779 206.2178 
L 301.965351 210.3171 
L 303.756923 213.952947 
L 305.548495 217.152062 
L 307.340067 219.944816 
L 309.131639 222.363945 
L 310.923211 224.443398 
L 312.714783 226.217337 
L 314.506355 227.719307 
L 316.297926 228.981556 
L 318.537391 230.268442 
L 320.776856 231.282804 
L 323.016321 232.073329 
L 324.36 232.458137 
L 324.36 232.458137 
" clip-path="url(#p40c58c7909)" style="fill: none; stroke: #bc80bd; stroke-width: 3; stroke-linecap: square"/>
   </g>
   <g id="patch_103">
    <path d="M 34.2 234.42375 
L 34.2 12.66375 
" style="fill: none; stroke: #000000; stroke-width: 0.6; stroke-linejoin: miter; stroke-linecap: square"/>
   </g>
   <g id="patch_104">
    <path d="M 34.2 234.42375 
L 480.6 234.42375 
" style="fill: none; stroke: #000000; stroke-width: 0.6; stroke-linejoin: miter; stroke-linecap: square"/>
   </g>
   <g id="legend_1">
    <g id="line2d_17">
     <path d="M 341.26875 25.26375 
L 353.26875 25.26375 
L 365.26875 25.26375 
" style="fill: none; stroke: #bc80bd; stroke-width: 3; stroke-linecap: square"/>
    </g>
    <g id="text_16">
     <!-- Std norm: analytical -->
     <g style="fill: #323034" transform="translate(374.86875 29.46375) scale(0.12 -0.12)">
      <defs>
       <path id="STIXGeneral-Regular-53" d="M 3002 2963 
L 2842 2963 
Q 2733 3360 2579 3565 
Q 2189 4064 1651 4064 
Q 1357 4064 1181 3894 
Q 1005 3725 1005 3456 
Q 1005 3328 1069 3206 
Q 1133 3085 1206 2998 
Q 1280 2912 1465 2784 
Q 1651 2656 1766 2589 
Q 1882 2522 2150 2362 
Q 2669 2061 2905 1763 
Q 3142 1466 3142 1107 
Q 3142 576 2771 243 
Q 2400 -90 1837 -90 
Q 1421 -90 1082 58 
Q 915 128 781 128 
Q 704 128 653 70 
Q 602 13 602 -83 
L 461 -83 
L 275 1274 
L 416 1274 
Q 845 141 1734 141 
Q 2074 141 2285 342 
Q 2496 544 2496 858 
Q 2496 1158 2310 1363 
Q 2003 1696 1235 2106 
Q 454 2522 454 3206 
Q 454 3718 768 4022 
Q 1082 4326 1568 4326 
Q 1907 4326 2240 4186 
Q 2413 4109 2522 4109 
Q 2688 4109 2726 4326 
L 2861 4326 
L 3002 2963 
z
" transform="scale(0.015625)"/>
       <path id="STIXGeneral-Regular-74" d="M 1702 493 
L 1786 422 
Q 1478 -64 1011 -64 
Q 448 -64 448 749 
L 448 2675 
L 109 2675 
Q 83 2694 83 2720 
Q 83 2771 192 2842 
Q 435 2982 813 3526 
Q 826 3546 874 3606 
Q 922 3667 941 3706 
Q 986 3706 986 3622 
L 986 2880 
L 1632 2880 
L 1632 2675 
L 986 2675 
L 986 845 
Q 986 538 1062 403 
Q 1139 269 1318 269 
Q 1510 269 1702 493 
z
" transform="scale(0.015625)"/>
       <path id="STIXGeneral-Regular-64" d="M 3142 269 
L 2202 -64 
L 2176 -45 
L 2176 365 
Q 1869 -64 1357 -64 
Q 826 -64 499 317 
Q 173 698 173 1312 
Q 173 1990 563 2467 
Q 954 2944 1504 2944 
Q 1850 2944 2176 2669 
L 2176 3667 
Q 2176 3866 2118 3930 
Q 2061 3994 1882 3994 
Q 1792 3994 1741 3987 
L 1741 4090 
Q 2323 4243 2682 4371 
L 2714 4358 
L 2714 730 
Q 2714 506 2768 435 
Q 2822 365 2995 365 
Q 3034 365 3142 371 
L 3142 269 
z
M 2176 653 
L 2176 2125 
Q 2176 2381 1981 2573 
Q 1786 2765 1523 2765 
Q 1158 2765 940 2438 
Q 723 2112 723 1568 
Q 723 979 963 624 
Q 1203 269 1606 269 
Q 1907 269 2080 474 
Q 2176 582 2176 653 
z
" transform="scale(0.015625)"/>
       <path id="STIXGeneral-Regular-20" transform="scale(0.015625)"/>
       <path id="STIXGeneral-Regular-6e" d="M 3104 0 
L 1773 0 
L 1779 96 
Q 2016 115 2096 233 
Q 2176 352 2176 672 
L 2176 1946 
Q 2176 2592 1709 2592 
Q 1549 2592 1408 2515 
Q 1267 2438 1050 2227 
L 1050 461 
Q 1050 269 1136 192 
Q 1222 115 1466 96 
L 1466 0 
L 115 0 
L 115 96 
Q 358 115 435 214 
Q 512 314 512 602 
L 512 2157 
Q 512 2394 467 2483 
Q 422 2573 288 2573 
Q 160 2573 102 2547 
L 102 2656 
Q 550 2784 979 2944 
L 1030 2925 
L 1030 2426 
L 1037 2426 
Q 1491 2944 1958 2944 
Q 2323 2944 2518 2688 
Q 2714 2432 2714 1958 
L 2714 544 
Q 2714 288 2790 205 
Q 2867 122 3104 96 
L 3104 0 
z
" transform="scale(0.015625)"/>
       <path id="STIXGeneral-Regular-6f" d="M 3008 1478 
Q 3008 806 2608 371 
Q 2208 -64 1568 -64 
Q 979 -64 582 368 
Q 186 800 186 1459 
Q 186 2125 582 2534 
Q 979 2944 1626 2944 
Q 2221 2944 2614 2537 
Q 3008 2131 3008 1478 
z
M 2432 1306 
Q 2432 2035 2112 2445 
Q 1856 2765 1504 2765 
Q 1171 2765 966 2493 
Q 762 2221 762 1747 
Q 762 928 1101 435 
Q 1318 115 1677 115 
Q 2029 115 2230 432 
Q 2432 749 2432 1306 
z
" transform="scale(0.015625)"/>
       <path id="STIXGeneral-Regular-72" d="M 1024 2931 
L 1024 2342 
Q 1267 2688 1430 2816 
Q 1594 2944 1792 2944 
Q 1958 2944 2051 2854 
Q 2144 2765 2144 2605 
Q 2144 2470 2077 2393 
Q 2010 2317 1894 2317 
Q 1773 2317 1638 2445 
Q 1536 2541 1472 2541 
Q 1338 2541 1181 2355 
Q 1024 2170 1024 2016 
L 1024 576 
Q 1024 301 1133 205 
Q 1242 109 1568 96 
L 1568 0 
L 32 0 
L 32 96 
Q 339 154 412 224 
Q 486 294 486 538 
L 486 2138 
Q 486 2349 438 2435 
Q 390 2522 269 2522 
Q 166 2522 45 2496 
L 45 2598 
Q 448 2726 992 2944 
L 1024 2931 
z
" transform="scale(0.015625)"/>
       <path id="STIXGeneral-Regular-6d" d="M 4960 0 
L 3565 0 
L 3565 96 
Q 3834 122 3907 208 
Q 3981 294 3981 576 
L 3981 1894 
Q 3981 2278 3869 2444 
Q 3757 2611 3488 2611 
Q 3264 2611 3107 2521 
Q 2950 2432 2803 2221 
L 2803 608 
Q 2803 301 2896 201 
Q 2989 102 3264 96 
L 3264 0 
L 1830 0 
L 1830 96 
Q 2112 115 2189 188 
Q 2266 262 2266 550 
L 2266 1901 
Q 2266 2611 1850 2611 
Q 1670 2611 1468 2531 
Q 1267 2451 1171 2336 
Q 1088 2240 1088 2227 
L 1088 448 
Q 1088 243 1177 176 
Q 1267 109 1523 96 
L 1523 0 
L 102 0 
L 102 96 
Q 371 102 460 195 
Q 550 288 550 563 
L 550 2150 
Q 550 2387 499 2480 
Q 448 2573 326 2573 
Q 230 2573 122 2547 
L 122 2656 
Q 557 2778 1011 2944 
L 1062 2925 
L 1062 2451 
L 1075 2451 
Q 1363 2752 1584 2848 
Q 1805 2944 2054 2944 
Q 2560 2944 2733 2406 
Q 3232 2944 3776 2944 
Q 4518 2944 4518 1792 
L 4518 493 
Q 4518 282 4582 202 
Q 4646 122 4794 109 
L 4960 96 
L 4960 0 
z
" transform="scale(0.015625)"/>
       <path id="STIXGeneral-Regular-3a" d="M 1123 2832 
Q 1229 2726 1229 2579 
Q 1229 2432 1126 2329 
Q 1024 2227 877 2227 
Q 730 2227 624 2332 
Q 518 2438 518 2579 
Q 518 2733 620 2835 
Q 723 2938 877 2938 
Q 1018 2938 1123 2832 
z
M 1229 282 
Q 1229 141 1126 35 
Q 1024 -70 877 -70 
Q 730 -70 624 35 
Q 518 141 518 282 
Q 518 435 620 537 
Q 723 640 877 640 
Q 1018 640 1123 534 
Q 1229 429 1229 282 
z
" transform="scale(0.015625)"/>
       <path id="STIXGeneral-Regular-61" d="M 2829 422 
L 2829 243 
Q 2586 -64 2253 -64 
Q 1888 -64 1843 403 
L 1837 403 
Q 1427 -64 909 -64 
Q 608 -64 422 112 
Q 237 288 237 602 
Q 237 1050 685 1350 
Q 992 1555 1837 1869 
L 1837 2214 
Q 1837 2502 1699 2646 
Q 1562 2790 1338 2790 
Q 1146 2790 1018 2697 
Q 890 2605 890 2477 
Q 890 2419 909 2348 
Q 928 2278 928 2208 
Q 928 2112 841 2029 
Q 755 1946 634 1946 
Q 525 1946 441 2029 
Q 358 2112 358 2240 
Q 358 2547 685 2752 
Q 986 2944 1421 2944 
Q 1939 2944 2176 2656 
Q 2291 2522 2323 2384 
Q 2355 2246 2355 1946 
L 2355 723 
Q 2355 301 2554 301 
Q 2682 301 2829 422 
z
M 1837 813 
L 1837 1715 
Q 1248 1510 1018 1293 
Q 800 1094 800 800 
Q 800 557 921 432 
Q 1043 307 1242 307 
Q 1453 307 1613 410 
Q 1747 506 1792 589 
Q 1837 672 1837 813 
z
" transform="scale(0.015625)"/>
       <path id="STIXGeneral-Regular-6c" d="M 1645 0 
L 134 0 
L 134 96 
Q 435 122 531 221 
Q 627 320 627 589 
L 627 3590 
Q 627 3821 569 3910 
Q 512 4000 358 4000 
Q 224 4000 122 3987 
L 122 4090 
Q 730 4237 1133 4371 
L 1165 4346 
L 1165 557 
Q 1165 288 1254 201 
Q 1344 115 1645 96 
L 1645 0 
z
" transform="scale(0.015625)"/>
       <path id="STIXGeneral-Regular-79" d="M 3040 2880 
L 3040 2784 
Q 2925 2771 2854 2700 
Q 2784 2630 2720 2458 
L 1760 -160 
Q 1510 -838 1257 -1116 
Q 1005 -1395 640 -1395 
Q 435 -1395 313 -1289 
Q 192 -1184 192 -1024 
Q 192 -902 272 -816 
Q 352 -730 467 -730 
Q 653 -730 800 -813 
Q 883 -858 966 -858 
Q 1101 -858 1286 -576 
Q 1376 -448 1459 -211 
Q 1542 26 1542 115 
Q 1542 198 1274 762 
L 429 2566 
Q 346 2752 90 2790 
L 90 2880 
L 1402 2880 
L 1402 2784 
Q 1197 2778 1117 2739 
Q 1037 2701 1037 2611 
Q 1037 2541 1120 2349 
L 1837 749 
L 2458 2515 
Q 2483 2573 2483 2630 
Q 2483 2784 2189 2784 
L 2189 2880 
L 3040 2880 
z
" transform="scale(0.015625)"/>
       <path id="STIXGeneral-Regular-69" d="M 1152 4045 
Q 1152 3904 1056 3811 
Q 960 3718 819 3718 
Q 685 3718 592 3811 
Q 499 3904 499 4045 
Q 499 4179 595 4275 
Q 691 4371 826 4371 
Q 966 4371 1059 4275 
Q 1152 4179 1152 4045 
z
M 1619 0 
L 102 0 
L 102 96 
Q 435 115 521 211 
Q 608 307 608 666 
L 608 2118 
Q 608 2342 563 2432 
Q 518 2522 397 2522 
Q 243 2522 128 2490 
L 128 2592 
L 1120 2944 
L 1146 2918 
L 1146 672 
Q 1146 314 1226 218 
Q 1306 122 1619 96 
L 1619 0 
z
" transform="scale(0.015625)"/>
       <path id="STIXGeneral-Regular-63" d="M 2547 998 
L 2637 941 
Q 2362 403 2112 205 
Q 1786 -64 1376 -64 
Q 845 -64 502 336 
Q 160 736 160 1357 
Q 160 2170 698 2618 
Q 1094 2944 1562 2944 
Q 1965 2944 2256 2749 
Q 2547 2554 2547 2285 
Q 2547 2176 2457 2096 
Q 2368 2016 2246 2016 
Q 2022 2016 1939 2310 
L 1901 2451 
Q 1850 2630 1773 2694 
Q 1696 2758 1523 2758 
Q 1133 2758 893 2451 
Q 653 2144 653 1645 
Q 653 1094 928 745 
Q 1203 397 1645 397 
Q 1920 397 2118 528 
Q 2317 659 2547 998 
z
" transform="scale(0.015625)"/>
      </defs>
      <use xlink:href="#STIXGeneral-Regular-53"/>
      <use xlink:href="#STIXGeneral-Regular-74" transform="translate(55.599991 0)"/>
      <use xlink:href="#STIXGeneral-Regular-64" transform="translate(83.399979 0)"/>
      <use xlink:href="#STIXGeneral-Regular-20" transform="translate(133.399963 0)"/>
      <use xlink:href="#STIXGeneral-Regular-6e" transform="translate(158.399948 0)"/>
      <use xlink:href="#STIXGeneral-Regular-6f" transform="translate(208.399933 0)"/>
      <use xlink:href="#STIXGeneral-Regular-72" transform="translate(258.399918 0)"/>
      <use xlink:href="#STIXGeneral-Regular-6d" transform="translate(291.699905 0)"/>
      <use xlink:href="#STIXGeneral-Regular-3a" transform="translate(369.499893 0)"/>
      <use xlink:href="#STIXGeneral-Regular-20" transform="translate(397.299881 0)"/>
      <use xlink:href="#STIXGeneral-Regular-61" transform="translate(422.299866 0)"/>
      <use xlink:href="#STIXGeneral-Regular-6e" transform="translate(466.69986 0)"/>
      <use xlink:href="#STIXGeneral-Regular-61" transform="translate(516.699844 0)"/>
      <use xlink:href="#STIXGeneral-Regular-6c" transform="translate(561.099838 0)"/>
      <use xlink:href="#STIXGeneral-Regular-79" transform="translate(588.899826 0)"/>
      <use xlink:href="#STIXGeneral-Regular-74" transform="translate(638.899811 0)"/>
      <use xlink:href="#STIXGeneral-Regular-69" transform="translate(666.699799 0)"/>
      <use xlink:href="#STIXGeneral-Regular-63" transform="translate(694.499786 0)"/>
      <use xlink:href="#STIXGeneral-Regular-61" transform="translate(738.89978 0)"/>
      <use xlink:href="#STIXGeneral-Regular-6c" transform="translate(783.299774 0)"/>
     </g>
    </g>
    <g id="patch_105">
     <path d="M 341.26875 45.279375 
L 365.26875 45.279375 
L 365.26875 36.879375 
L 341.26875 36.879375 
z
" style="fill: #fb8072; opacity: 0.8; stroke: #000000; stroke-width: 0.8; stroke-linejoin: miter"/>
    </g>
    <g id="text_17">
     <!-- Std norm: generated -->
     <g style="fill: #323034" transform="translate(374.86875 45.279375) scale(0.12 -0.12)">
      <defs>
       <path id="STIXGeneral-Regular-67" d="M 3008 2483 
L 2477 2483 
Q 2598 2208 2598 1946 
Q 2598 1453 2265 1203 
Q 1933 954 1600 954 
Q 1530 954 1357 973 
L 1235 986 
Q 1107 947 979 812 
Q 851 678 851 582 
Q 851 435 1350 410 
L 2176 371 
Q 2528 358 2739 172 
Q 2950 -13 2950 -314 
Q 2950 -685 2566 -986 
Q 2035 -1395 1286 -1395 
Q 826 -1395 502 -1212 
Q 179 -1030 179 -774 
Q 179 -595 320 -419 
Q 461 -243 806 6 
Q 602 102 534 172 
Q 467 243 467 346 
Q 467 531 762 787 
Q 909 915 1037 1043 
Q 717 1203 579 1401 
Q 442 1600 442 1901 
Q 442 2336 752 2640 
Q 1062 2944 1510 2944 
Q 1766 2944 2022 2848 
L 2163 2797 
Q 2349 2733 2515 2733 
L 3008 2733 
L 3008 2483 
z
M 973 2163 
L 973 2144 
Q 973 1683 1155 1398 
Q 1338 1114 1632 1114 
Q 1850 1114 1978 1270 
Q 2106 1427 2106 1690 
Q 2106 2112 1914 2464 
Q 1754 2765 1446 2765 
Q 1222 2765 1097 2605 
Q 973 2445 973 2163 
z
M 2771 -410 
Q 2771 -230 2595 -163 
Q 2419 -96 1978 -96 
Q 1344 -96 941 -13 
Q 749 -243 688 -348 
Q 627 -454 627 -563 
Q 627 -774 880 -902 
Q 1133 -1030 1555 -1030 
Q 2099 -1030 2435 -860 
Q 2771 -691 2771 -410 
z
" transform="scale(0.015625)"/>
       <path id="STIXGeneral-Regular-65" d="M 2611 1050 
L 2714 1005 
Q 2330 -64 1376 -64 
Q 813 -64 486 329 
Q 160 723 160 1389 
Q 160 2074 525 2509 
Q 890 2944 1485 2944 
Q 2061 2944 2374 2502 
Q 2560 2246 2592 1773 
L 621 1773 
Q 646 1370 700 1158 
Q 755 947 915 730 
Q 1184 378 1626 378 
Q 1939 378 2153 531 
Q 2368 685 2611 1050 
z
M 634 1978 
L 1939 1978 
Q 1882 2381 1750 2547 
Q 1619 2714 1312 2714 
Q 1043 2714 864 2525 
Q 685 2336 634 1978 
z
" transform="scale(0.015625)"/>
      </defs>
      <use xlink:href="#STIXGeneral-Regular-53"/>
      <use xlink:href="#STIXGeneral-Regular-74" transform="translate(55.599991 0)"/>
      <use xlink:href="#STIXGeneral-Regular-64" transform="translate(83.399979 0)"/>
      <use xlink:href="#STIXGeneral-Regular-20" transform="translate(133.399963 0)"/>
      <use xlink:href="#STIXGeneral-Regular-6e" transform="translate(158.399948 0)"/>
      <use xlink:href="#STIXGeneral-Regular-6f" transform="translate(208.399933 0)"/>
      <use xlink:href="#STIXGeneral-Regular-72" transform="translate(258.399918 0)"/>
      <use xlink:href="#STIXGeneral-Regular-6d" transform="translate(291.699905 0)"/>
      <use xlink:href="#STIXGeneral-Regular-3a" transform="translate(369.499893 0)"/>
      <use xlink:href="#STIXGeneral-Regular-20" transform="translate(397.299881 0)"/>
      <use xlink:href="#STIXGeneral-Regular-67" transform="translate(422.299866 0)"/>
      <use xlink:href="#STIXGeneral-Regular-65" transform="translate(472.29985 0)"/>
      <use xlink:href="#STIXGeneral-Regular-6e" transform="translate(516.699844 0)"/>
      <use xlink:href="#STIXGeneral-Regular-65" transform="translate(566.699829 0)"/>
      <use xlink:href="#STIXGeneral-Regular-72" transform="translate(611.099823 0)"/>
      <use xlink:href="#STIXGeneral-Regular-61" transform="translate(644.399811 0)"/>
      <use xlink:href="#STIXGeneral-Regular-74" transform="translate(688.799805 0)"/>
      <use xlink:href="#STIXGeneral-Regular-65" transform="translate(716.599792 0)"/>
      <use xlink:href="#STIXGeneral-Regular-64" transform="translate(760.999786 0)"/>
     </g>
    </g>
    <g id="patch_106">
     <path d="M 341.26875 61.095 
L 365.26875 61.095 
L 365.26875 52.695 
L 341.26875 52.695 
z
" style="fill: #b3de69; opacity: 0.8; stroke: #000000; stroke-width: 0.8; stroke-linejoin: miter"/>
    </g>
    <g id="text_18">
     <!-- Norm: $\mu$=0.5, $\sigma$=2 -->
     <g style="fill: #323034" transform="translate(374.86875 61.095) scale(0.12 -0.12)">
      <defs>
       <path id="STIXGeneral-Regular-4e" d="M 4525 4237 
L 4525 4115 
Q 4198 4083 4102 4000 
Q 4000 3910 3958 3756 
Q 3917 3603 3917 3245 
L 3917 -70 
L 3802 -70 
L 979 3443 
L 979 960 
Q 979 474 1088 323 
Q 1197 173 1574 122 
L 1574 0 
L 77 0 
L 77 122 
Q 474 166 586 310 
Q 698 454 698 960 
L 698 3776 
Q 531 3981 416 4048 
Q 301 4115 77 4115 
L 77 4237 
L 1165 4237 
L 3635 1146 
L 3635 3322 
Q 3635 3808 3514 3949 
Q 3437 4032 3344 4061 
Q 3251 4090 3008 4115 
L 3008 4237 
L 4525 4237 
z
" transform="scale(0.015625)"/>
       <path id="STIXGeneral-Italic-3bc" d="M 3002 749 
L 3091 691 
Q 2797 237 2614 83 
Q 2432 -70 2214 -70 
Q 2080 -70 1990 6 
Q 1901 83 1901 218 
Q 1901 416 1997 704 
L 2208 1370 
L 2202 1370 
Q 1766 595 1475 268 
Q 1184 -58 902 -58 
Q 723 -58 672 122 
Q 614 -109 547 -374 
Q 480 -640 451 -758 
Q 422 -877 384 -1005 
Q 346 -1133 314 -1197 
Q 282 -1261 243 -1312 
L -211 -1312 
Q -58 -1088 70 -595 
L 909 2739 
L 1389 2739 
L 909 832 
Q 883 717 883 659 
Q 883 352 1139 352 
Q 1395 352 1811 969 
Q 2227 1587 2323 1958 
L 2534 2739 
L 3027 2739 
L 2522 819 
Q 2400 333 2400 326 
Q 2400 230 2470 230 
Q 2547 230 2652 329 
Q 2758 429 3002 749 
z
" transform="scale(0.015625)"/>
       <path id="STIXGeneral-Regular-3d" d="M 4077 2048 
L 307 2048 
L 307 2470 
L 4077 2470 
L 4077 2048 
z
M 4077 768 
L 307 768 
L 307 1190 
L 4077 1190 
L 4077 768 
z
" transform="scale(0.015625)"/>
       <path id="STIXGeneral-Regular-2c" d="M 531 -902 
L 467 -781 
Q 998 -422 998 -96 
Q 998 -13 909 -13 
Q 883 -13 822 -25 
Q 762 -38 723 -38 
Q 352 -38 352 288 
Q 352 454 457 553 
Q 563 653 736 653 
Q 954 653 1101 496 
Q 1248 339 1248 96 
Q 1248 -198 1053 -473 
Q 858 -749 531 -902 
z
" transform="scale(0.015625)"/>
       <path id="STIXGeneral-Italic-3c3" d="M 3398 2739 
L 3283 2266 
L 2195 2266 
Q 2291 2112 2457 1981 
Q 2624 1850 2717 1725 
Q 2810 1600 2810 1389 
Q 2810 851 2288 390 
Q 1766 -70 1107 -70 
Q 659 -70 416 170 
Q 173 410 173 832 
Q 173 1274 409 1706 
Q 646 2138 1113 2438 
Q 1581 2739 2157 2739 
L 3398 2739 
z
M 2272 1414 
Q 2272 1709 2166 1939 
Q 2061 2170 1901 2266 
Q 1530 2266 1120 1770 
Q 710 1274 710 640 
Q 710 358 844 211 
Q 979 64 1210 64 
Q 1638 64 1955 525 
Q 2272 986 2272 1414 
z
" transform="scale(0.015625)"/>
      </defs>
      <use xlink:href="#STIXGeneral-Regular-4e" transform="translate(0 0.203125)"/>
      <use xlink:href="#STIXGeneral-Regular-6f" transform="translate(72.199982 0.203125)"/>
      <use xlink:href="#STIXGeneral-Regular-72" transform="translate(122.199966 0.203125)"/>
      <use xlink:href="#STIXGeneral-Regular-6d" transform="translate(155.499954 0.203125)"/>
      <use xlink:href="#STIXGeneral-Regular-3a" transform="translate(233.299942 0.203125)"/>
      <use xlink:href="#STIXGeneral-Regular-20" transform="translate(261.09993 0.203125)"/>
      <use xlink:href="#STIXGeneral-Italic-3bc" transform="translate(286.099915 0.203125)"/>
      <use xlink:href="#STIXGeneral-Regular-3d" transform="translate(338.699905 0.203125)"/>
      <use xlink:href="#STIXGeneral-Regular-30" transform="translate(407.19989 0.203125)"/>
      <use xlink:href="#STIXGeneral-Regular-2e" transform="translate(457.199875 0.203125)"/>
      <use xlink:href="#STIXGeneral-Regular-35" transform="translate(482.19986 0.203125)"/>
      <use xlink:href="#STIXGeneral-Regular-2c" transform="translate(532.199844 0.203125)"/>
      <use xlink:href="#STIXGeneral-Regular-20" transform="translate(557.199829 0.203125)"/>
      <use xlink:href="#STIXGeneral-Italic-3c3" transform="translate(582.199814 0.203125)"/>
      <use xlink:href="#STIXGeneral-Regular-3d" transform="translate(631.999802 0.203125)"/>
      <use xlink:href="#STIXGeneral-Regular-32" transform="translate(700.499786 0.203125)"/>
     </g>
    </g>
   </g>
  </g>
 </g>
 <defs>
  <clipPath id="p40c58c7909">
   <rect x="34.2" y="12.66375" width="446.4" height="221.76"/>
  </clipPath>
 </defs>
</svg>