<?xml version="1.0" encoding="utf-8" standalone="no"?>
<!DOCTYPE svg PUBLIC "-//W3C//DTD SVG 1.1//EN"
  "http://www.w3.org/Graphics/SVG/1.1/DTD/svg11.dtd">
<svg xmlns:xlink="http://www.w3.org/1999/xlink" width="402.713937pt" height="312.510977pt" viewBox="0 0 402.713937 312.510977" xmlns="http://www.w3.org/2000/svg" version="1.1">
 <metadata>
  <rdf:RDF xmlns:dc="http://purl.org/dc/elements/1.1/" xmlns:cc="http://creativecommons.org/ns#" xmlns:rdf="http://www.w3.org/1999/02/22-rdf-syntax-ns#">
   <cc:Work>
    <dc:type rdf:resource="http://purl.org/dc/dcmitype/StillImage"/>
    <dc:date>2023-12-29T00:22:31.884676</dc:date>
    <dc:format>image/svg+xml</dc:format>
    <dc:creator>
     <cc:Agent>
      <dc:title>Matplotlib v3.7.2, https://matplotlib.org/</dc:title>
     </cc:Agent>
    </dc:creator>
   </cc:Work>
  </rdf:RDF>
 </metadata>
 <defs>
  <style type="text/css">*{stroke-linejoin: round; stroke-linecap: butt}</style>
 </defs>
 <g id="figure_1">
  <g id="patch_1">
   <path d="M 0 312.510977 
L 402.713937 312.510977 
L 402.713937 0 
L 0 0 
z
" style="fill: #ffffff; stroke: #ffffff; stroke-linejoin: miter"/>
  </g>
  <g id="axes_1">
   <g id="patch_2">
    <path d="M 38.393938 276.79829 
L 395.513938 276.79829 
L 395.513938 10.68629 
L 38.393938 10.68629 
z
" style="fill: #ebebeb"/>
   </g>
   <g id="matplotlib.axis_1">
    <g id="xtick_1">
     <g id="line2d_1">
      <path d="M 95.052838 276.79829 
L 95.052838 10.68629 
" clip-path="url(#p2162ee9bd5)" style="fill: none; stroke: #ffffff"/>
     </g>
     <g id="line2d_2">
      <path d="M 95.052838 276.79829 
" style="fill: none; stroke: #000000; stroke-width: 1.5"/>
      <defs>
       <path id="m396c2700b9" d="M 0 0 
L 0 2.75 
" style="stroke: #333333"/>
      </defs>
      <g>
       <use xlink:href="#m396c2700b9" x="95.052838" y="276.79829" style="stroke: #333333"/>
      </g>
     </g>
     <g id="text_1">
      <!-- 2 -->
      <g style="fill: #4d4d4d" transform="translate(92.253338 288.434915) scale(0.088 -0.088)">
       <defs>
        <path id="DejaVuSans-32" d="M 1228 531 
L 3431 531 
L 3431 0 
L 469 0 
L 469 531 
Q 828 903 1448 1529 
Q 2069 2156 2228 2338 
Q 2531 2678 2651 2914 
Q 2772 3150 2772 3378 
Q 2772 3750 2511 3984 
Q 2250 4219 1831 4219 
Q 1534 4219 1204 4116 
Q 875 4013 500 3803 
L 500 4441 
Q 881 4594 1212 4672 
Q 1544 4750 1819 4750 
Q 2544 4750 2975 4387 
Q 3406 4025 3406 3419 
Q 3406 3131 3298 2873 
Q 3191 2616 2906 2266 
Q 2828 2175 2409 1742 
Q 1991 1309 1228 531 
z
" transform="scale(0.015625)"/>
       </defs>
       <use xlink:href="#DejaVuSans-32"/>
      </g>
     </g>
    </g>
    <g id="xtick_2">
     <g id="line2d_3">
      <path d="M 178.063461 276.79829 
L 178.063461 10.68629 
" clip-path="url(#p2162ee9bd5)" style="fill: none; stroke: #ffffff"/>
     </g>
     <g id="line2d_4">
      <path d="M 178.063461 276.79829 
" style="fill: none; stroke: #000000; stroke-width: 1.5"/>
      <g>
       <use xlink:href="#m396c2700b9" x="178.063461" y="276.79829" style="stroke: #333333"/>
      </g>
     </g>
     <g id="text_2">
      <!-- 3 -->
      <g style="fill: #4d4d4d" transform="translate(175.263961 288.434915) scale(0.088 -0.088)">
       <defs>
        <path id="DejaVuSans-33" d="M 2597 2516 
Q 3050 2419 3304 2112 
Q 3559 1806 3559 1356 
Q 3559 666 3084 287 
Q 2609 -91 1734 -91 
Q 1441 -91 1130 -33 
Q 819 25 488 141 
L 488 750 
Q 750 597 1062 519 
Q 1375 441 1716 441 
Q 2309 441 2620 675 
Q 2931 909 2931 1356 
Q 2931 1769 2642 2001 
Q 2353 2234 1838 2234 
L 1294 2234 
L 1294 2753 
L 1863 2753 
Q 2328 2753 2575 2939 
Q 2822 3125 2822 3475 
Q 2822 3834 2567 4026 
Q 2313 4219 1838 4219 
Q 1578 4219 1281 4162 
Q 984 4106 628 3988 
L 628 4550 
Q 988 4650 1302 4700 
Q 1616 4750 1894 4750 
Q 2613 4750 3031 4423 
Q 3450 4097 3450 3541 
Q 3450 3153 3228 2886 
Q 3006 2619 2597 2516 
z
" transform="scale(0.015625)"/>
       </defs>
       <use xlink:href="#DejaVuSans-33"/>
      </g>
     </g>
    </g>
    <g id="xtick_3">
     <g id="line2d_5">
      <path d="M 261.074083 276.79829 
L 261.074083 10.68629 
" clip-path="url(#p2162ee9bd5)" style="fill: none; stroke: #ffffff"/>
     </g>
     <g id="line2d_6">
      <path d="M 261.074083 276.79829 
" style="fill: none; stroke: #000000; stroke-width: 1.5"/>
      <g>
       <use xlink:href="#m396c2700b9" x="261.074083" y="276.79829" style="stroke: #333333"/>
      </g>
     </g>
     <g id="text_3">
      <!-- 4 -->
      <g style="fill: #4d4d4d" transform="translate(258.274583 288.434915) scale(0.088 -0.088)">
       <defs>
        <path id="DejaVuSans-34" d="M 2419 4116 
L 825 1625 
L 2419 1625 
L 2419 4116 
z
M 2253 4666 
L 3047 4666 
L 3047 1625 
L 3713 1625 
L 3713 1100 
L 3047 1100 
L 3047 0 
L 2419 0 
L 2419 1100 
L 313 1100 
L 313 1709 
L 2253 4666 
z
" transform="scale(0.015625)"/>
       </defs>
       <use xlink:href="#DejaVuSans-34"/>
      </g>
     </g>
    </g>
    <g id="xtick_4">
     <g id="line2d_7">
      <path d="M 344.084706 276.79829 
L 344.084706 10.68629 
" clip-path="url(#p2162ee9bd5)" style="fill: none; stroke: #ffffff"/>
     </g>
     <g id="line2d_8">
      <path d="M 344.084706 276.79829 
" style="fill: none; stroke: #000000; stroke-width: 1.5"/>
      <g>
       <use xlink:href="#m396c2700b9" x="344.084706" y="276.79829" style="stroke: #333333"/>
      </g>
     </g>
     <g id="text_4">
      <!-- 5 -->
      <g style="fill: #4d4d4d" transform="translate(341.285206 288.434915) scale(0.088 -0.088)">
       <defs>
        <path id="DejaVuSans-35" d="M 691 4666 
L 3169 4666 
L 3169 4134 
L 1269 4134 
L 1269 2991 
Q 1406 3038 1543 3061 
Q 1681 3084 1819 3084 
Q 2600 3084 3056 2656 
Q 3513 2228 3513 1497 
Q 3513 744 3044 326 
Q 2575 -91 1722 -91 
Q 1428 -91 1123 -41 
Q 819 9 494 109 
L 494 744 
Q 775 591 1075 516 
Q 1375 441 1709 441 
Q 2250 441 2565 725 
Q 2881 1009 2881 1497 
Q 2881 1984 2565 2268 
Q 2250 2553 1709 2553 
Q 1456 2553 1204 2497 
Q 953 2441 691 2322 
L 691 4666 
z
" transform="scale(0.015625)"/>
       </defs>
       <use xlink:href="#DejaVuSans-35"/>
      </g>
     </g>
    </g>
    <g id="xtick_5">
     <g id="line2d_9">
      <path d="M 53.547527 276.79829 
L 53.547527 10.68629 
" clip-path="url(#p2162ee9bd5)" style="fill: none; stroke: #ffffff; stroke-width: 0.5"/>
     </g>
    </g>
    <g id="xtick_6">
     <g id="line2d_10">
      <path d="M 136.558149 276.79829 
L 136.558149 10.68629 
" clip-path="url(#p2162ee9bd5)" style="fill: none; stroke: #ffffff; stroke-width: 0.5"/>
     </g>
    </g>
    <g id="xtick_7">
     <g id="line2d_11">
      <path d="M 219.568772 276.79829 
L 219.568772 10.68629 
" clip-path="url(#p2162ee9bd5)" style="fill: none; stroke: #ffffff; stroke-width: 0.5"/>
     </g>
    </g>
    <g id="xtick_8">
     <g id="line2d_12">
      <path d="M 302.579395 276.79829 
L 302.579395 10.68629 
" clip-path="url(#p2162ee9bd5)" style="fill: none; stroke: #ffffff; stroke-width: 0.5"/>
     </g>
    </g>
    <g id="xtick_9">
     <g id="line2d_13">
      <path d="M 385.590018 276.79829 
L 385.590018 10.68629 
" clip-path="url(#p2162ee9bd5)" style="fill: none; stroke: #ffffff; stroke-width: 0.5"/>
     </g>
    </g>
    <g id="text_5">
     <!-- wt -->
     <g transform="translate(204.539797 303.023321) scale(0.11 -0.11)">
      <defs>
       <path id="DejaVuSans-77" d="M 269 3500 
L 844 3500 
L 1563 769 
L 2278 3500 
L 2956 3500 
L 3675 769 
L 4391 3500 
L 4966 3500 
L 4050 0 
L 3372 0 
L 2619 2869 
L 1863 0 
L 1184 0 
L 269 3500 
z
" transform="scale(0.015625)"/>
       <path id="DejaVuSans-74" d="M 1172 4494 
L 1172 3500 
L 2356 3500 
L 2356 3053 
L 1172 3053 
L 1172 1153 
Q 1172 725 1289 603 
Q 1406 481 1766 481 
L 2356 481 
L 2356 0 
L 1766 0 
Q 1100 0 847 248 
Q 594 497 594 1153 
L 594 3053 
L 172 3053 
L 172 3500 
L 594 3500 
L 594 4494 
L 1172 4494 
z
" transform="scale(0.015625)"/>
      </defs>
      <use xlink:href="#DejaVuSans-77"/>
      <use xlink:href="#DejaVuSans-74" x="81.787109"/>
     </g>
    </g>
   </g>
   <g id="matplotlib.axis_2">
    <g id="ytick_1">
     <g id="line2d_14">
      <path d="M 38.393938 268.820077 
L 395.513938 268.820077 
" clip-path="url(#p2162ee9bd5)" style="fill: none; stroke: #ffffff"/>
     </g>
     <g id="line2d_15">
      <path d="M 38.393938 268.820077 
" style="fill: none; stroke: #000000; stroke-width: 1.5"/>
      <defs>
       <path id="m9ccefc2bfa" d="M 0 0 
L -2.75 0 
" style="stroke: #333333"/>
      </defs>
      <g>
       <use xlink:href="#m9ccefc2bfa" x="38.393938" y="268.820077" style="stroke: #333333"/>
      </g>
     </g>
     <g id="text_6">
      <!-- 10 -->
      <g style="fill: #4d4d4d" transform="translate(22.245938 271.248327) scale(0.088 -0.088)">
       <defs>
        <path id="DejaVuSans-31" d="M 794 531 
L 1825 531 
L 1825 4091 
L 703 3866 
L 703 4441 
L 1819 4666 
L 2450 4666 
L 2450 531 
L 3481 531 
L 3481 0 
L 794 0 
L 794 531 
z
" transform="scale(0.015625)"/>
        <path id="DejaVuSans-30" d="M 2034 4250 
Q 1547 4250 1301 3770 
Q 1056 3291 1056 2328 
Q 1056 1369 1301 889 
Q 1547 409 2034 409 
Q 2525 409 2770 889 
Q 3016 1369 3016 2328 
Q 3016 3291 2770 3770 
Q 2525 4250 2034 4250 
z
M 2034 4750 
Q 2819 4750 3233 4129 
Q 3647 3509 3647 2328 
Q 3647 1150 3233 529 
Q 2819 -91 2034 -91 
Q 1250 -91 836 529 
Q 422 1150 422 2328 
Q 422 3509 836 4129 
Q 1250 4750 2034 4750 
z
" transform="scale(0.015625)"/>
       </defs>
       <use xlink:href="#DejaVuSans-31"/>
       <use xlink:href="#DejaVuSans-30" x="63.623047"/>
      </g>
     </g>
    </g>
    <g id="ytick_2">
     <g id="line2d_16">
      <path d="M 38.393938 217.347737 
L 395.513938 217.347737 
" clip-path="url(#p2162ee9bd5)" style="fill: none; stroke: #ffffff"/>
     </g>
     <g id="line2d_17">
      <path d="M 38.393938 217.347737 
" style="fill: none; stroke: #000000; stroke-width: 1.5"/>
      <g>
       <use xlink:href="#m9ccefc2bfa" x="38.393938" y="217.347737" style="stroke: #333333"/>
      </g>
     </g>
     <g id="text_7">
      <!-- 15 -->
      <g style="fill: #4d4d4d" transform="translate(22.245938 219.775987) scale(0.088 -0.088)">
       <use xlink:href="#DejaVuSans-31"/>
       <use xlink:href="#DejaVuSans-35" x="63.623047"/>
      </g>
     </g>
    </g>
    <g id="ytick_3">
     <g id="line2d_18">
      <path d="M 38.393938 165.875396 
L 395.513938 165.875396 
" clip-path="url(#p2162ee9bd5)" style="fill: none; stroke: #ffffff"/>
     </g>
     <g id="line2d_19">
      <path d="M 38.393938 165.875396 
" style="fill: none; stroke: #000000; stroke-width: 1.5"/>
      <g>
       <use xlink:href="#m9ccefc2bfa" x="38.393938" y="165.875396" style="stroke: #333333"/>
      </g>
     </g>
     <g id="text_8">
      <!-- 20 -->
      <g style="fill: #4d4d4d" transform="translate(22.245938 168.303646) scale(0.088 -0.088)">
       <use xlink:href="#DejaVuSans-32"/>
       <use xlink:href="#DejaVuSans-30" x="63.623047"/>
      </g>
     </g>
    </g>
    <g id="ytick_4">
     <g id="line2d_20">
      <path d="M 38.393938 114.403056 
L 395.513938 114.403056 
" clip-path="url(#p2162ee9bd5)" style="fill: none; stroke: #ffffff"/>
     </g>
     <g id="line2d_21">
      <path d="M 38.393938 114.403056 
" style="fill: none; stroke: #000000; stroke-width: 1.5"/>
      <g>
       <use xlink:href="#m9ccefc2bfa" x="38.393938" y="114.403056" style="stroke: #333333"/>
      </g>
     </g>
     <g id="text_9">
      <!-- 25 -->
      <g style="fill: #4d4d4d" transform="translate(22.245938 116.831306) scale(0.088 -0.088)">
       <use xlink:href="#DejaVuSans-32"/>
       <use xlink:href="#DejaVuSans-35" x="63.623047"/>
      </g>
     </g>
    </g>
    <g id="ytick_5">
     <g id="line2d_22">
      <path d="M 38.393938 62.930715 
L 395.513938 62.930715 
" clip-path="url(#p2162ee9bd5)" style="fill: none; stroke: #ffffff"/>
     </g>
     <g id="line2d_23">
      <path d="M 38.393938 62.930715 
" style="fill: none; stroke: #000000; stroke-width: 1.5"/>
      <g>
       <use xlink:href="#m9ccefc2bfa" x="38.393938" y="62.930715" style="stroke: #333333"/>
      </g>
     </g>
     <g id="text_10">
      <!-- 30 -->
      <g style="fill: #4d4d4d" transform="translate(22.245938 65.358965) scale(0.088 -0.088)">
       <use xlink:href="#DejaVuSans-33"/>
       <use xlink:href="#DejaVuSans-30" x="63.623047"/>
      </g>
     </g>
    </g>
    <g id="ytick_6">
     <g id="line2d_24">
      <path d="M 38.393938 11.458375 
L 395.513938 11.458375 
" clip-path="url(#p2162ee9bd5)" style="fill: none; stroke: #ffffff"/>
     </g>
     <g id="line2d_25">
      <path d="M 38.393938 11.458375 
" style="fill: none; stroke: #000000; stroke-width: 1.5"/>
      <g>
       <use xlink:href="#m9ccefc2bfa" x="38.393938" y="11.458375" style="stroke: #333333"/>
      </g>
     </g>
     <g id="text_11">
      <!-- 35 -->
      <g style="fill: #4d4d4d" transform="translate(22.245938 13.886625) scale(0.088 -0.088)">
       <use xlink:href="#DejaVuSans-33"/>
       <use xlink:href="#DejaVuSans-35" x="63.623047"/>
      </g>
     </g>
    </g>
    <g id="ytick_7">
     <g id="line2d_26">
      <path d="M 38.393938 243.083907 
L 395.513938 243.083907 
" clip-path="url(#p2162ee9bd5)" style="fill: none; stroke: #ffffff; stroke-width: 0.5"/>
     </g>
    </g>
    <g id="ytick_8">
     <g id="line2d_27">
      <path d="M 38.393938 191.611566 
L 395.513938 191.611566 
" clip-path="url(#p2162ee9bd5)" style="fill: none; stroke: #ffffff; stroke-width: 0.5"/>
     </g>
    </g>
    <g id="ytick_9">
     <g id="line2d_28">
      <path d="M 38.393938 140.139226 
L 395.513938 140.139226 
" clip-path="url(#p2162ee9bd5)" style="fill: none; stroke: #ffffff; stroke-width: 0.5"/>
     </g>
    </g>
    <g id="ytick_10">
     <g id="line2d_29">
      <path d="M 38.393938 88.666886 
L 395.513938 88.666886 
" clip-path="url(#p2162ee9bd5)" style="fill: none; stroke: #ffffff; stroke-width: 0.5"/>
     </g>
    </g>
    <g id="ytick_11">
     <g id="line2d_30">
      <path d="M 38.393938 37.194545 
L 395.513938 37.194545 
" clip-path="url(#p2162ee9bd5)" style="fill: none; stroke: #ffffff; stroke-width: 0.5"/>
     </g>
    </g>
    <g id="text_12">
     <!-- mpg -->
     <g transform="translate(15.558281 154.354915) rotate(-90) scale(0.11 -0.11)">
      <defs>
       <path id="DejaVuSans-6d" d="M 3328 2828 
Q 3544 3216 3844 3400 
Q 4144 3584 4550 3584 
Q 5097 3584 5394 3201 
Q 5691 2819 5691 2113 
L 5691 0 
L 5113 0 
L 5113 2094 
Q 5113 2597 4934 2840 
Q 4756 3084 4391 3084 
Q 3944 3084 3684 2787 
Q 3425 2491 3425 1978 
L 3425 0 
L 2847 0 
L 2847 2094 
Q 2847 2600 2669 2842 
Q 2491 3084 2119 3084 
Q 1678 3084 1418 2786 
Q 1159 2488 1159 1978 
L 1159 0 
L 581 0 
L 581 3500 
L 1159 3500 
L 1159 2956 
Q 1356 3278 1631 3431 
Q 1906 3584 2284 3584 
Q 2666 3584 2933 3390 
Q 3200 3197 3328 2828 
z
" transform="scale(0.015625)"/>
       <path id="DejaVuSans-70" d="M 1159 525 
L 1159 -1331 
L 581 -1331 
L 581 3500 
L 1159 3500 
L 1159 2969 
Q 1341 3281 1617 3432 
Q 1894 3584 2278 3584 
Q 2916 3584 3314 3078 
Q 3713 2572 3713 1747 
Q 3713 922 3314 415 
Q 2916 -91 2278 -91 
Q 1894 -91 1617 61 
Q 1341 213 1159 525 
z
M 3116 1747 
Q 3116 2381 2855 2742 
Q 2594 3103 2138 3103 
Q 1681 3103 1420 2742 
Q 1159 2381 1159 1747 
Q 1159 1113 1420 752 
Q 1681 391 2138 391 
Q 2594 391 2855 752 
Q 3116 1113 3116 1747 
z
" transform="scale(0.015625)"/>
       <path id="DejaVuSans-67" d="M 2906 1791 
Q 2906 2416 2648 2759 
Q 2391 3103 1925 3103 
Q 1463 3103 1205 2759 
Q 947 2416 947 1791 
Q 947 1169 1205 825 
Q 1463 481 1925 481 
Q 2391 481 2648 825 
Q 2906 1169 2906 1791 
z
M 3481 434 
Q 3481 -459 3084 -895 
Q 2688 -1331 1869 -1331 
Q 1566 -1331 1297 -1286 
Q 1028 -1241 775 -1147 
L 775 -588 
Q 1028 -725 1275 -790 
Q 1522 -856 1778 -856 
Q 2344 -856 2625 -561 
Q 2906 -266 2906 331 
L 2906 616 
Q 2728 306 2450 153 
Q 2172 0 1784 0 
Q 1141 0 747 490 
Q 353 981 353 1791 
Q 353 2603 747 3093 
Q 1141 3584 1784 3584 
Q 2172 3584 2450 3431 
Q 2728 3278 2906 2969 
L 2906 3500 
L 3481 3500 
L 3481 434 
z
" transform="scale(0.015625)"/>
      </defs>
      <use xlink:href="#DejaVuSans-6d"/>
      <use xlink:href="#DejaVuSans-70" x="97.412109"/>
      <use xlink:href="#DejaVuSans-67" x="160.888672"/>
     </g>
    </g>
   </g>
   <g id="line2d_31">
    <path d="M 54.626665 47.120259 
L 63.093748 55.986758 
L 81.356085 74.964406 
L 89.657148 83.435081 
L 106.674325 100.388696 
L 111.654963 105.245289 
L 121.616237 114.877204 
L 133.652778 126.901908 
L 146.519424 138.40922 
L 158.971018 150.459917 
L 159.801124 151.233889 
L 167.687133 157.744639 
L 190.515054 173.12363 
L 192.175267 174.254034 
L 193.835479 175.373193 
L 195.910745 176.752992 
L 214.173082 188.206365 
L 214.588135 188.460992 
L 214.588135 188.460992 
L 214.588135 188.460992 
L 216.248347 189.480103 
L 221.228985 192.549165 
L 225.379516 195.127277 
L 225.379516 195.127277 
L 238.661215 203.517889 
L 242.811746 206.413227 
L 247.792384 209.623375 
L 248.207437 209.914314 
L 266.884827 218.217132 
L 364.837362 248.90248 
L 372.723371 251.794673 
L 379.28121 254.194123 
" clip-path="url(#p2162ee9bd5)" style="fill: none; stroke: #0000ff; stroke-width: 1.772454; stroke-linejoin: miter"/>
   </g>
   <g id="PathCollection_1">
    <path d="M 146.519424 157.353382 
C 146.989484 157.353382 147.440355 157.166625 147.772738 156.834242 
C 148.105121 156.50186 148.291878 156.050988 148.291878 155.580928 
C 148.291878 155.110868 148.105121 154.659997 147.772738 154.327614 
C 147.440355 153.995231 146.989484 153.808474 146.519424 153.808474 
C 146.049364 153.808474 145.598493 153.995231 145.26611 154.327614 
C 144.933727 154.659997 144.74697 155.110868 144.74697 155.580928 
C 144.74697 156.050988 144.933727 156.50186 145.26611 156.834242 
C 145.598493 157.166625 146.049364 157.353382 146.519424 157.353382 
z
" clip-path="url(#p2162ee9bd5)" style="stroke: #000000; stroke-width: 0.886227"/>
    <path d="M 167.687133 157.353382 
C 168.157193 157.353382 168.608064 157.166625 168.940447 156.834242 
C 169.27283 156.50186 169.459587 156.050988 169.459587 155.580928 
C 169.459587 155.110868 169.27283 154.659997 168.940447 154.327614 
C 168.608064 153.995231 168.157193 153.808474 167.687133 153.808474 
C 167.217073 153.808474 166.766202 153.995231 166.433819 154.327614 
C 166.101436 154.659997 165.914679 155.110868 165.914679 155.580928 
C 165.914679 156.050988 166.101436 156.50186 166.433819 156.834242 
C 166.766202 157.166625 167.217073 157.353382 167.687133 157.353382 
z
" clip-path="url(#p2162ee9bd5)" style="stroke: #000000; stroke-width: 0.886227"/>
    <path d="M 121.616237 138.823339 
C 122.086298 138.823339 122.537169 138.636583 122.869551 138.3042 
C 123.201934 137.971817 123.388691 137.520946 123.388691 137.050886 
C 123.388691 136.580825 123.201934 136.129954 122.869551 135.797572 
C 122.537169 135.465189 122.086298 135.278432 121.616237 135.278432 
C 121.146177 135.278432 120.695306 135.465189 120.362923 135.797572 
C 120.03054 136.129954 119.843783 136.580825 119.843783 137.050886 
C 119.843783 137.520946 120.03054 137.971817 120.362923 138.3042 
C 120.695306 138.636583 121.146177 138.823339 121.616237 138.823339 
z
" clip-path="url(#p2162ee9bd5)" style="stroke: #000000; stroke-width: 0.886227"/>
    <path d="M 195.910745 153.235595 
C 196.380805 153.235595 196.831676 153.048838 197.164059 152.716455 
C 197.496442 152.384072 197.683198 151.933201 197.683198 151.463141 
C 197.683198 150.993081 197.496442 150.54221 197.164059 150.209827 
C 196.831676 149.877444 196.380805 149.690687 195.910745 149.690687 
C 195.440684 149.690687 194.989813 149.877444 194.657431 150.209827 
C 194.325048 150.54221 194.138291 150.993081 194.138291 151.463141 
C 194.138291 151.933201 194.325048 152.384072 194.657431 152.716455 
C 194.989813 153.048838 195.440684 153.235595 195.910745 153.235595 
z
" clip-path="url(#p2162ee9bd5)" style="stroke: #000000; stroke-width: 0.886227"/>
    <path d="M 214.588135 181.030659 
C 215.058195 181.030659 215.509066 180.843902 215.841449 180.511519 
C 216.173832 180.179136 216.360589 179.728265 216.360589 179.258205 
C 216.360589 178.788145 216.173832 178.337273 215.841449 178.004891 
C 215.509066 177.672508 215.058195 177.485751 214.588135 177.485751 
C 214.118074 177.485751 213.667203 177.672508 213.334821 178.004891 
C 213.002438 178.337273 212.815681 178.788145 212.815681 179.258205 
C 212.815681 179.728265 213.002438 180.179136 213.334821 180.511519 
C 213.667203 180.843902 214.118074 181.030659 214.588135 181.030659 
z
" clip-path="url(#p2162ee9bd5)" style="stroke: #000000; stroke-width: 0.886227"/>
    <path d="M 216.248347 187.207339 
C 216.718407 187.207339 217.169279 187.020583 217.501661 186.6882 
C 217.834044 186.355817 218.020801 185.904946 218.020801 185.434886 
C 218.020801 184.964825 217.834044 184.513954 217.501661 184.181572 
C 217.169279 183.849189 216.718407 183.662432 216.248347 183.662432 
C 215.778287 183.662432 215.327416 183.849189 214.995033 184.181572 
C 214.66265 184.513954 214.475893 184.964825 214.475893 185.434886 
C 214.475893 185.904946 214.66265 186.355817 214.995033 186.6882 
C 215.327416 187.020583 215.778287 187.207339 216.248347 187.207339 
z
" clip-path="url(#p2162ee9bd5)" style="stroke: #000000; stroke-width: 0.886227"/>
    <path d="M 225.379516 226.326318 
C 225.849576 226.326318 226.300447 226.139561 226.63283 225.807178 
C 226.965213 225.474796 227.15197 225.023925 227.15197 224.553864 
C 227.15197 224.083804 226.965213 223.632933 226.63283 223.30055 
C 226.300447 222.968167 225.849576 222.781411 225.379516 222.781411 
C 224.909455 222.781411 224.458584 222.968167 224.126202 223.30055 
C 223.793819 223.632933 223.607062 224.083804 223.607062 224.553864 
C 223.607062 225.023925 223.793819 225.474796 224.126202 225.807178 
C 224.458584 226.139561 224.909455 226.326318 225.379516 226.326318 
z
" clip-path="url(#p2162ee9bd5)" style="stroke: #000000; stroke-width: 0.886227"/>
    <path d="M 193.835479 122.352191 
C 194.305539 122.352191 194.75641 122.165434 195.088793 121.833051 
C 195.421176 121.500668 195.607933 121.049797 195.607933 120.579737 
C 195.607933 120.109676 195.421176 119.658805 195.088793 119.326423 
C 194.75641 118.99404 194.305539 118.807283 193.835479 118.807283 
C 193.365419 118.807283 192.914548 118.99404 192.582165 119.326423 
C 192.249782 119.658805 192.063025 120.109676 192.063025 120.579737 
C 192.063025 121.049797 192.249782 121.500668 192.582165 121.833051 
C 192.914548 122.165434 193.365419 122.352191 193.835479 122.352191 
z
" clip-path="url(#p2162ee9bd5)" style="stroke: #000000; stroke-width: 0.886227"/>
    <path d="M 190.515054 138.823339 
C 190.985114 138.823339 191.435986 138.636583 191.768368 138.3042 
C 192.100751 137.971817 192.287508 137.520946 192.287508 137.050886 
C 192.287508 136.580825 192.100751 136.129954 191.768368 135.797572 
C 191.435986 135.465189 190.985114 135.278432 190.515054 135.278432 
C 190.044994 135.278432 189.594123 135.465189 189.26174 135.797572 
C 188.929357 136.129954 188.7426 136.580825 188.7426 137.050886 
C 188.7426 137.520946 188.929357 137.971817 189.26174 138.3042 
C 189.594123 138.636583 190.044994 138.823339 190.515054 138.823339 
z
" clip-path="url(#p2162ee9bd5)" style="stroke: #000000; stroke-width: 0.886227"/>
    <path d="M 214.588135 175.883425 
C 215.058195 175.883425 215.509066 175.696668 215.841449 175.364285 
C 216.173832 175.031902 216.360589 174.581031 216.360589 174.110971 
C 216.360589 173.64091 216.173832 173.190039 215.841449 172.857657 
C 215.509066 172.525274 215.058195 172.338517 214.588135 172.338517 
C 214.118074 172.338517 213.667203 172.525274 213.334821 172.857657 
C 213.002438 173.190039 212.815681 173.64091 212.815681 174.110971 
C 212.815681 174.581031 213.002438 175.031902 213.334821 175.364285 
C 213.667203 175.696668 214.118074 175.883425 214.588135 175.883425 
z
" clip-path="url(#p2162ee9bd5)" style="stroke: #000000; stroke-width: 0.886227"/>
    <path d="M 214.588135 190.29568 
C 215.058195 190.29568 215.509066 190.108923 215.841449 189.77654 
C 216.173832 189.444157 216.360589 188.993286 216.360589 188.523226 
C 216.360589 188.053166 216.173832 187.602295 215.841449 187.269912 
C 215.509066 186.937529 215.058195 186.750772 214.588135 186.750772 
C 214.118074 186.750772 213.667203 186.937529 213.334821 187.269912 
C 213.002438 187.602295 212.815681 188.053166 212.815681 188.523226 
C 212.815681 188.993286 213.002438 189.444157 213.334821 189.77654 
C 213.667203 190.108923 214.118074 190.29568 214.588135 190.29568 
z
" clip-path="url(#p2162ee9bd5)" style="stroke: #000000; stroke-width: 0.886227"/>
    <path d="M 266.884827 204.707935 
C 267.354887 204.707935 267.805758 204.521178 268.138141 204.188796 
C 268.470524 203.856413 268.657281 203.405542 268.657281 202.935481 
C 268.657281 202.465421 268.470524 202.01455 268.138141 201.682167 
C 267.805758 201.349784 267.354887 201.163028 266.884827 201.163028 
C 266.414767 201.163028 265.963896 201.349784 265.631513 201.682167 
C 265.29913 202.01455 265.112373 202.465421 265.112373 202.935481 
C 265.112373 203.405542 265.29913 203.856413 265.631513 204.188796 
C 265.963896 204.521178 266.414767 204.707935 266.884827 204.707935 
z
" clip-path="url(#p2162ee9bd5)" style="stroke: #000000; stroke-width: 0.886227"/>
    <path d="M 238.661215 195.442914 
C 239.131276 195.442914 239.582147 195.256157 239.914529 194.923774 
C 240.246912 194.591391 240.433669 194.14052 240.433669 193.67046 
C 240.433669 193.2004 240.246912 192.749529 239.914529 192.417146 
C 239.582147 192.084763 239.131276 191.898006 238.661215 191.898006 
C 238.191155 191.898006 237.740284 192.084763 237.407901 192.417146 
C 237.075518 192.749529 236.888761 193.2004 236.888761 193.67046 
C 236.888761 194.14052 237.075518 194.591391 237.407901 194.923774 
C 237.740284 195.256157 238.191155 195.442914 238.661215 195.442914 
z
" clip-path="url(#p2162ee9bd5)" style="stroke: #000000; stroke-width: 0.886227"/>
    <path d="M 242.811746 217.061297 
C 243.281807 217.061297 243.732678 216.87454 244.065061 216.542157 
C 244.397443 216.209774 244.5842 215.758903 244.5842 215.288843 
C 244.5842 214.818783 244.397443 214.367912 244.065061 214.035529 
C 243.732678 213.703146 243.281807 213.516389 242.811746 213.516389 
C 242.341686 213.516389 241.890815 213.703146 241.558432 214.035529 
C 241.22605 214.367912 241.039293 214.818783 241.039293 215.288843 
C 241.039293 215.758903 241.22605 216.209774 241.558432 216.542157 
C 241.890815 216.87454 242.341686 217.061297 242.811746 217.061297 
z
" clip-path="url(#p2162ee9bd5)" style="stroke: #000000; stroke-width: 0.886227"/>
    <path d="M 364.837362 266.474744 
C 365.307422 266.474744 365.758293 266.287987 366.090676 265.955604 
C 366.423059 265.623221 366.609816 265.17235 366.609816 264.70229 
C 366.609816 264.23223 366.423059 263.781359 366.090676 263.448976 
C 365.758293 263.116593 365.307422 262.929836 364.837362 262.929836 
C 364.367302 262.929836 363.916431 263.116593 363.584048 263.448976 
C 363.251665 263.781359 363.064908 264.23223 363.064908 264.70229 
C 363.064908 265.17235 363.251665 265.623221 363.584048 265.955604 
C 363.916431 266.287987 364.367302 266.474744 364.837362 266.474744 
z
" clip-path="url(#p2162ee9bd5)" style="stroke: #000000; stroke-width: 0.886227"/>
    <path d="M 379.28121 266.474744 
C 379.75127 266.474744 380.202142 266.287987 380.534524 265.955604 
C 380.866907 265.623221 381.053664 265.17235 381.053664 264.70229 
C 381.053664 264.23223 380.866907 263.781359 380.534524 263.448976 
C 380.202142 263.116593 379.75127 262.929836 379.28121 262.929836 
C 378.81115 262.929836 378.360279 263.116593 378.027896 263.448976 
C 377.695513 263.781359 377.508756 264.23223 377.508756 264.70229 
C 377.508756 265.17235 377.695513 265.623221 378.027896 265.955604 
C 378.360279 266.287987 378.81115 266.474744 379.28121 266.474744 
z
" clip-path="url(#p2162ee9bd5)" style="stroke: #000000; stroke-width: 0.886227"/>
    <path d="M 372.723371 222.208531 
C 373.193431 222.208531 373.644302 222.021774 373.976685 221.689391 
C 374.309068 221.357008 374.495825 220.906137 374.495825 220.436077 
C 374.495825 219.966017 374.309068 219.515146 373.976685 219.182763 
C 373.644302 218.85038 373.193431 218.663623 372.723371 218.663623 
C 372.253311 218.663623 371.80244 218.85038 371.470057 219.182763 
C 371.137674 219.515146 370.950917 219.966017 370.950917 220.436077 
C 370.950917 220.906137 371.137674 221.357008 371.470057 221.689391 
C 371.80244 222.021774 372.253311 222.208531 372.723371 222.208531 
z
" clip-path="url(#p2162ee9bd5)" style="stroke: #000000; stroke-width: 0.886227"/>
    <path d="M 111.654963 39.996446 
C 112.125023 39.996446 112.575894 39.809689 112.908277 39.477306 
C 113.24066 39.144923 113.427416 38.694052 113.427416 38.223992 
C 113.427416 37.753932 113.24066 37.303061 112.908277 36.970678 
C 112.575894 36.638295 112.125023 36.451538 111.654963 36.451538 
C 111.184902 36.451538 110.734031 36.638295 110.401648 36.970678 
C 110.069266 37.303061 109.882509 37.753932 109.882509 38.223992 
C 109.882509 38.694052 110.069266 39.144923 110.401648 39.477306 
C 110.734031 39.809689 111.184902 39.996446 111.654963 39.996446 
z
" clip-path="url(#p2162ee9bd5)" style="stroke: #000000; stroke-width: 0.886227"/>
    <path d="M 63.093748 60.585382 
C 63.563809 60.585382 64.01468 60.398625 64.347062 60.066242 
C 64.679445 59.73386 64.866202 59.282988 64.866202 58.812928 
C 64.866202 58.342868 64.679445 57.891997 64.347062 57.559614 
C 64.01468 57.227231 63.563809 57.040474 63.093748 57.040474 
C 62.623688 57.040474 62.172817 57.227231 61.840434 57.559614 
C 61.508051 57.891997 61.321294 58.342868 61.321294 58.812928 
C 61.321294 59.282988 61.508051 59.73386 61.840434 60.066242 
C 62.172817 60.398625 62.623688 60.585382 63.093748 60.585382 
z
" clip-path="url(#p2162ee9bd5)" style="stroke: #000000; stroke-width: 0.886227"/>
    <path d="M 81.356085 24.554744 
C 81.826146 24.554744 82.277017 24.367987 82.609399 24.035604 
C 82.941782 23.703221 83.128539 23.25235 83.128539 22.78229 
C 83.128539 22.31223 82.941782 21.861359 82.609399 21.528976 
C 82.277017 21.196593 81.826146 21.009836 81.356085 21.009836 
C 80.886025 21.009836 80.435154 21.196593 80.102771 21.528976 
C 79.770388 21.861359 79.583631 22.31223 79.583631 22.78229 
C 79.583631 23.25235 79.770388 23.703221 80.102771 24.035604 
C 80.435154 24.367987 80.886025 24.554744 81.356085 24.554744 
z
" clip-path="url(#p2162ee9bd5)" style="stroke: #000000; stroke-width: 0.886227"/>
    <path d="M 133.652778 152.206148 
C 134.122838 152.206148 134.573709 152.019391 134.906092 151.687008 
C 135.238475 151.354625 135.425231 150.903754 135.425231 150.433694 
C 135.425231 149.963634 135.238475 149.512763 134.906092 149.18038 
C 134.573709 148.847997 134.122838 148.66124 133.652778 148.66124 
C 133.182717 148.66124 132.731846 148.847997 132.399463 149.18038 
C 132.067081 149.512763 131.880324 149.963634 131.880324 150.433694 
C 131.880324 150.903754 132.067081 151.354625 132.399463 151.687008 
C 132.731846 152.019391 133.182717 152.206148 133.652778 152.206148 
z
" clip-path="url(#p2162ee9bd5)" style="stroke: #000000; stroke-width: 0.886227"/>
    <path d="M 221.228985 213.972957 
C 221.699045 213.972957 222.149916 213.7862 222.482299 213.453817 
C 222.814682 213.121434 223.001438 212.670563 223.001438 212.200503 
C 223.001438 211.730442 222.814682 211.279571 222.482299 210.947189 
C 222.149916 210.614806 221.699045 210.428049 221.228985 210.428049 
C 220.758924 210.428049 220.308053 210.614806 219.97567 210.947189 
C 219.643288 211.279571 219.456531 211.730442 219.456531 212.200503 
C 219.456531 212.670563 219.643288 213.121434 219.97567 213.453817 
C 220.308053 213.7862 220.758924 213.972957 221.228985 213.972957 
z
" clip-path="url(#p2162ee9bd5)" style="stroke: #000000; stroke-width: 0.886227"/>
    <path d="M 214.173082 217.061297 
C 214.643142 217.061297 215.094013 216.87454 215.426396 216.542157 
C 215.758779 216.209774 215.945535 215.758903 215.945535 215.288843 
C 215.945535 214.818783 215.758779 214.367912 215.426396 214.035529 
C 215.094013 213.703146 214.643142 213.516389 214.173082 213.516389 
C 213.703021 213.516389 213.25215 213.703146 212.919768 214.035529 
C 212.587385 214.367912 212.400628 214.818783 212.400628 215.288843 
C 212.400628 215.758903 212.587385 216.209774 212.919768 216.542157 
C 213.25215 216.87454 213.703021 217.061297 214.173082 217.061297 
z
" clip-path="url(#p2162ee9bd5)" style="stroke: #000000; stroke-width: 0.886227"/>
    <path d="M 247.792384 236.620786 
C 248.262444 236.620786 248.713315 236.434029 249.045698 236.101647 
C 249.378081 235.769264 249.564838 235.318393 249.564838 234.848332 
C 249.564838 234.378272 249.378081 233.927401 249.045698 233.595018 
C 248.713315 233.262636 248.262444 233.075879 247.792384 233.075879 
C 247.322324 233.075879 246.871452 233.262636 246.53907 233.595018 
C 246.206687 233.927401 246.01993 234.378272 246.01993 234.848332 
C 246.01993 235.318393 246.206687 235.769264 246.53907 236.101647 
C 246.871452 236.434029 247.322324 236.620786 247.792384 236.620786 
z
" clip-path="url(#p2162ee9bd5)" style="stroke: #000000; stroke-width: 0.886227"/>
    <path d="M 248.207437 175.883425 
C 248.677497 175.883425 249.128368 175.696668 249.460751 175.364285 
C 249.793134 175.031902 249.979891 174.581031 249.979891 174.110971 
C 249.979891 173.64091 249.793134 173.190039 249.460751 172.857657 
C 249.128368 172.525274 248.677497 172.338517 248.207437 172.338517 
C 247.737377 172.338517 247.286506 172.525274 246.954123 172.857657 
C 246.62174 173.190039 246.434983 173.64091 246.434983 174.110971 
C 246.434983 174.581031 246.62174 175.031902 246.954123 175.364285 
C 247.286506 175.696668 247.737377 175.883425 248.207437 175.883425 
z
" clip-path="url(#p2162ee9bd5)" style="stroke: #000000; stroke-width: 0.886227"/>
    <path d="M 89.657148 92.498233 
C 90.127208 92.498233 90.578079 92.311476 90.910462 91.979093 
C 91.242844 91.646711 91.429601 91.19584 91.429601 90.725779 
C 91.429601 90.255719 91.242844 89.804848 90.910462 89.472465 
C 90.578079 89.140082 90.127208 88.953325 89.657148 88.953325 
C 89.187087 88.953325 88.736216 89.140082 88.403833 89.472465 
C 88.071451 89.804848 87.884694 90.255719 87.884694 90.725779 
C 87.884694 91.19584 88.071451 91.646711 88.403833 91.979093 
C 88.736216 92.311476 89.187087 92.498233 89.657148 92.498233 
z
" clip-path="url(#p2162ee9bd5)" style="stroke: #000000; stroke-width: 0.886227"/>
    <path d="M 106.674325 105.881042 
C 107.144385 105.881042 107.595257 105.694285 107.927639 105.361902 
C 108.260022 105.029519 108.446779 104.578648 108.446779 104.108588 
C 108.446779 103.638528 108.260022 103.187656 107.927639 102.855274 
C 107.595257 102.522891 107.144385 102.336134 106.674325 102.336134 
C 106.204265 102.336134 105.753394 102.522891 105.421011 102.855274 
C 105.088628 103.187656 104.901871 103.638528 104.901871 104.108588 
C 104.901871 104.578648 105.088628 105.029519 105.421011 105.361902 
C 105.753394 105.694285 106.204265 105.881042 106.674325 105.881042 
z
" clip-path="url(#p2162ee9bd5)" style="stroke: #000000; stroke-width: 0.886227"/>
    <path d="M 54.626665 60.585382 
C 55.096725 60.585382 55.547596 60.398625 55.879979 60.066242 
C 56.212362 59.73386 56.399119 59.282988 56.399119 58.812928 
C 56.399119 58.342868 56.212362 57.891997 55.879979 57.559614 
C 55.547596 57.227231 55.096725 57.040474 54.626665 57.040474 
C 54.156605 57.040474 53.705733 57.227231 53.373351 57.559614 
C 53.040968 57.891997 52.854211 58.342868 52.854211 58.812928 
C 52.854211 59.282988 53.040968 59.73386 53.373351 60.066242 
C 53.705733 60.398625 54.156605 60.585382 54.626665 60.585382 
z
" clip-path="url(#p2162ee9bd5)" style="stroke: #000000; stroke-width: 0.886227"/>
    <path d="M 192.175267 210.884616 
C 192.645327 210.884616 193.096198 210.697859 193.428581 210.365476 
C 193.760964 210.033094 193.94772 209.582222 193.94772 209.112162 
C 193.94772 208.642102 193.760964 208.191231 193.428581 207.858848 
C 193.096198 207.526465 192.645327 207.339708 192.175267 207.339708 
C 191.705206 207.339708 191.254335 207.526465 190.921952 207.858848 
C 190.58957 208.191231 190.402813 208.642102 190.402813 209.112162 
C 190.402813 209.582222 190.58957 210.033094 190.921952 210.365476 
C 191.254335 210.697859 191.705206 210.884616 192.175267 210.884616 
z
" clip-path="url(#p2162ee9bd5)" style="stroke: #000000; stroke-width: 0.886227"/>
    <path d="M 158.971018 170.736191 
C 159.441078 170.736191 159.891949 170.549434 160.224332 170.217051 
C 160.556714 169.884668 160.743471 169.433797 160.743471 168.963737 
C 160.743471 168.493676 160.556714 168.042805 160.224332 167.710423 
C 159.891949 167.37804 159.441078 167.191283 158.971018 167.191283 
C 158.500957 167.191283 158.050086 167.37804 157.717703 167.710423 
C 157.385321 168.042805 157.198564 168.493676 157.198564 168.963737 
C 157.198564 169.433797 157.385321 169.884668 157.717703 170.217051 
C 158.050086 170.549434 158.500957 170.736191 158.971018 170.736191 
z
" clip-path="url(#p2162ee9bd5)" style="stroke: #000000; stroke-width: 0.886227"/>
    <path d="M 225.379516 219.120191 
C 225.849576 219.120191 226.300447 218.933434 226.63283 218.601051 
C 226.965213 218.268668 227.15197 217.817797 227.15197 217.347737 
C 227.15197 216.877676 226.965213 216.426805 226.63283 216.094423 
C 226.300447 215.76204 225.849576 215.575283 225.379516 215.575283 
C 224.909455 215.575283 224.458584 215.76204 224.126202 216.094423 
C 223.793819 216.426805 223.607062 216.877676 223.607062 217.347737 
C 223.607062 217.817797 223.793819 218.268668 224.126202 218.601051 
C 224.458584 218.933434 224.909455 219.120191 225.379516 219.120191 
z
" clip-path="url(#p2162ee9bd5)" style="stroke: #000000; stroke-width: 0.886227"/>
    <path d="M 159.801124 153.235595 
C 160.271184 153.235595 160.722055 153.048838 161.054438 152.716455 
C 161.386821 152.384072 161.573578 151.933201 161.573578 151.463141 
C 161.573578 150.993081 161.386821 150.54221 161.054438 150.209827 
C 160.722055 149.877444 160.271184 149.690687 159.801124 149.690687 
C 159.331064 149.690687 158.880192 149.877444 158.54781 150.209827 
C 158.215427 150.54221 158.02867 150.993081 158.02867 151.463141 
C 158.02867 151.933201 158.215427 152.384072 158.54781 152.716455 
C 158.880192 153.048838 159.331064 153.235595 159.801124 153.235595 
z
" clip-path="url(#p2162ee9bd5)" style="stroke: #000000; stroke-width: 0.886227"/>
   </g>
  </g>
 </g>
 <defs>
  <clipPath id="p2162ee9bd5">
   <rect x="38.393938" y="10.68629" width="357.12" height="266.112"/>
  </clipPath>
 </defs>
</svg>