<?xml version="1.0" encoding="utf-8" standalone="no"?>
<!DOCTYPE svg PUBLIC "-//W3C//DTD SVG 1.1//EN"
  "http://www.w3.org/Graphics/SVG/1.1/DTD/svg11.dtd">
<svg xmlns:xlink="http://www.w3.org/1999/xlink" width="606.92122pt" height="479.32pt" viewBox="0 0 606.92122 479.32" xmlns="http://www.w3.org/2000/svg" version="1.1">
 <metadata>
  <rdf:RDF xmlns:dc="http://purl.org/dc/elements/1.1/" xmlns:cc="http://creativecommons.org/ns#" xmlns:rdf="http://www.w3.org/1999/02/22-rdf-syntax-ns#">
   <cc:Work>
    <dc:type rdf:resource="http://purl.org/dc/dcmitype/StillImage"/>
    <dc:date>2025-03-26T16:02:56.231795</dc:date>
    <dc:format>image/svg+xml</dc:format>
    <dc:creator>
     <cc:Agent>
      <dc:title>Matplotlib v3.10.0, https://matplotlib.org/</dc:title>
     </cc:Agent>
    </dc:creator>
   </cc:Work>
  </rdf:RDF>
 </metadata>
 <defs>
  <style type="text/css">*{stroke-linejoin: round; stroke-linecap: butt}</style>
 </defs>
 <g id="figure_1">
  <g id="patch_1">
   <path d="M 0 479.32 
L 606.92122 479.32 
L 606.92122 0 
L 0 0 
z
" style="fill: #ffffff"/>
  </g>
  <g id="axes_1">
   <g id="patch_2">
    <path d="M 41.24 450.72 
L 599.140202 450.72 
L 599.140202 7.2 
L 41.24 7.2 
z
" style="fill: #ffffff"/>
   </g>
   <g id="PatchCollection_1">
    <path d="M 373.902981 73.494817 
L 373.790139 74.311754 
L 373.872244 74.551103 
L 374.028032 74.717914 
L 374.100453 74.901297 
L 374.230979 77.080702 
L 374.206137 77.254304 
L 373.678982 78.129653 
L 373.560245 78.38666 
L 373.53414 79.471745 
L 373.445299 79.763256 
L 373.258352 80.050691 
L 372.924459 80.980375 
L 372.634356 81.398489 
L 371.844886 80.888548 
L 371.379204 80.668217 
L 371.150995 80.430498 
L 371.001943 80.266404 
L 371.097942 80.047703 
L 371.310152 79.820308 
L 371.343836 79.641544 
L 370.84447 79.438871 
L 370.61584 79.303575 
L 370.618787 79.066672 
L 370.791418 78.697189 
L 370.712681 78.392637 
L 370.424683 78.408123 
L 370.201526 78.361666 
L 370.172474 78.203549 
L 370.337525 78.000877 
L 370.549314 77.736262 
L 370.542577 77.444208 
L 370.286578 77.318421 
L 370.054579 77.081245 
L 369.961527 76.758763 
L 370.141316 76.53816 
L 370.432683 76.3958 
L 370.218789 76.065439 
L 370.074369 76.058104 
L 369.959001 75.985837 
L 370.053316 75.832339 
L 370.279841 75.602771 
L 370.594787 74.917326 
L 371.033522 74.593757 
L 371.809939 74.385651 
L 372.020043 74.294639 
L 372.212884 74.05366 
L 372.426357 73.89826 
L 372.685724 73.918907 
L 372.92488 74.012093 
L 373.072248 74.111256 
L 373.182984 74.008018 
L 373.290773 73.709171 
L 373.224668 73.44673 
L 373.258773 72.72488 
L 373.39772 72.31546 
L 373.62214 72.292639 
L 373.829297 72.517861 
L 373.81877 72.717001 
L 373.895402 73.188364 
L 373.902981 73.494817 
" clip-path="url(#p11b90c7513)" style="fill: #bc80bd; stroke: #000000; stroke-width: 0.2"/>
    <path d="M 365.863022 46.858368 
L 365.342604 47.110757 
L 365.223868 47.331632 
L 365.019658 47.623686 
L 364.688291 47.746485 
L 364.354398 47.787237 
L 364.084505 47.748658 
L 363.930822 47.631836 
L 363.938401 47.523165 
L 363.795243 47.430794 
L 363.439035 47.433511 
L 363.0723 47.634553 
L 362.779249 47.962741 
L 362.870196 48.146396 
L 363.140089 48.194754 
L 363.211246 48.267564 
L 363.211246 48.361837 
L 363.116089 48.47567 
L 363.001984 48.669648 
L 362.435672 49.248324 
L 361.863885 49.832161 
L 361.772517 50.008752 
L 361.591044 50.132094 
L 360.864311 50.443709 
L 360.788101 50.568681 
L 360.746838 51.089489 
L 360.665575 51.517111 
L 360.126631 51.919739 
L 359.590213 52.320464 
L 359.456319 52.565518 
L 359.358635 52.848879 
L 359.190215 53.168916 
L 359.156952 53.337901 
L 359.428529 53.613654 
L 359.39695 53.841592 
L 359.310635 54.165705 
L 359.052952 54.395545 
L 358.767901 54.525679 
L 358.774217 54.878861 
L 358.925795 54.928307 
L 359.270635 54.902225 
L 359.756949 54.646033 
L 360.074 54.316758 
L 359.887053 54.004056 
L 359.863895 53.942929 
L 359.908948 53.869575 
L 360.284946 53.529706 
L 360.746417 53.32486 
L 361.390203 53.286825 
L 362.165778 53.406907 
L 362.243251 53.457711 
L 362.205778 53.666088 
L 362.278199 53.973357 
L 362.41883 54.189069 
L 362.225988 54.801433 
L 362.37083 54.993238 
L 362.596513 55.222806 
L 362.765775 55.43227 
L 363.009142 55.62489 
L 363.225562 55.949274 
L 363.299667 56.133201 
L 362.953564 56.452695 
L 362.365777 56.752085 
L 362.299672 56.94389 
L 362.307251 57.162047 
L 362.373356 57.333748 
L 362.697565 57.554351 
L 363.046616 58.053968 
L 363.267667 58.499521 
L 363.752296 58.926871 
L 363.87019 59.053473 
L 363.839875 59.160243 
L 363.712296 59.342268 
L 363.546403 59.949197 
L 363.348509 60.045643 
L 363.127878 60.084765 
L 362.528724 60.529503 
L 362.261778 60.47571 
L 361.88199 60.481416 
L 361.603676 60.62785 
L 361.633991 60.904962 
L 361.878201 61.158439 
L 362.021779 61.434464 
L 362.079884 61.721628 
L 362.35104 61.934352 
L 362.73167 62.061498 
L 362.949353 62.070192 
L 363.091668 62.146533 
L 363.177141 62.245153 
L 363.34093 62.860504 
L 363.242825 63.014818 
L 363.037774 63.080564 
L 362.915248 63.333768 
L 362.670618 63.707055 
L 362.531671 64.006716 
L 362.685354 64.270516 
L 362.751038 64.465853 
L 362.668933 64.666895 
L 362.778407 64.98014 
L 363.067668 65.290126 
L 363.852927 65.725898 
L 364.582187 66.080438 
L 364.80787 66.139393 
L 365.793128 65.911454 
L 365.956074 65.931015 
L 366.076074 66.202694 
L 366.128284 66.385533 
L 366.017548 66.661015 
L 365.751023 67.04055 
L 365.462182 67.342928 
L 365.287025 67.599936 
L 365.323657 67.833308 
L 365.335025 68.143837 
L 365.100079 68.236751 
L 365.0925 68.175351 
L 364.995658 68.122917 
L 364.911869 68.153889 
L 364.847449 68.221265 
L 364.837343 68.340804 
L 364.336293 68.539129 
L 363.991032 68.74479 
L 362.625565 69.97332 
L 361.986832 70.333566 
L 361.860938 70.550637 
L 361.730833 70.956253 
L 361.355677 71.304545 
L 361.027258 71.470269 
L 360.213788 71.640339 
L 359.39695 72.00955 
L 359.028952 71.850347 
L 358.075694 71.867463 
L 357.481171 71.422725 
L 356.33844 71.140723 
L 355.966231 70.493041 
L 355.445813 70.450931 
L 355.104762 70.470492 
L 354.900974 70.372416 
L 354.847921 70.151541 
L 354.84329 69.938817 
L 354.482029 70.036621 
L 354.205819 70.036621 
L 354.041189 70.121928 
L 353.911084 70.220276 
L 353.757401 70.157518 
L 353.668138 70.178709 
L 353.676138 70.303953 
L 353.34435 70.335196 
L 352.984773 70.258311 
L 352.040778 69.923874 
L 351.895937 69.872799 
L 351.240782 69.74348 
L 350.975941 69.609814 
L 350.761627 69.279453 
L 350.597838 69.174857 
L 350.500997 69.112371 
L 349.889631 69.279181 
L 349.677422 69.539178 
L 349.346055 69.843729 
L 347.078699 71.337146 
L 346.664806 71.962822 
L 346.185651 72.884355 
L 346.148177 73.314151 
L 346.354492 74.688572 
L 346.815542 75.410151 
L 346.874068 75.577233 
L 346.61849 75.578048 
L 346.18944 75.487851 
L 345.833231 75.376462 
L 345.494286 75.438677 
L 345.167551 75.587828 
L 344.882078 75.678026 
L 344.677027 75.703292 
L 344.539764 75.789414 
L 344.47408 75.961386 
L 344.460607 76.08174 
L 344.099767 76.052127 
L 343.265245 75.804628 
L 342.514933 75.634014 
L 342.074935 75.827992 
L 341.791989 76.009202 
L 341.592832 75.98149 
L 341.441675 75.790772 
L 341.340202 75.604129 
L 341.046309 75.432972 
L 340.383575 75.175692 
L 340.41768 75.051535 
L 340.530943 74.878476 
L 340.527575 74.771706 
L 340.399996 74.613046 
L 339.789052 74.442975 
L 339.501054 74.40005 
L 339.317897 74.517143 
L 339.186108 74.66059 
L 338.845899 74.133261 
L 338.603795 74.025948 
L 338.237481 74.008289 
L 337.818536 73.847456 
L 337.382749 73.642067 
L 336.323807 73.313336 
L 336.03244 73.273942 
L 335.915809 73.326105 
L 335.837915 73.522528 
L 335.79581 74.077839 
L 335.751178 74.139238 
L 335.259812 74.157713 
L 334.654342 74.080556 
L 334.37687 74.118863 
L 334.129292 74.120764 
L 333.89603 73.973786 
L 332.850351 74.141955 
L 332.676457 74.059908 
L 332.424038 73.809149 
L 332.142565 73.606749 
L 331.92383 73.502967 
L 331.737304 73.383972 
L 331.568042 73.364683 
L 331.309938 73.479875 
L 330.953308 73.528777 
L 330.65731 73.513834 
L 330.499416 73.530679 
L 329.836472 72.915598 
L 329.739631 72.747158 
L 329.409527 72.700429 
L 329.001529 72.693094 
L 327.95985 72.294541 
L 327.485537 72.080459 
L 327.416064 71.953313 
L 327.42259 71.850347 
L 327.341538 71.872624 
L 327.195433 72.054649 
L 327.118802 72.202986 
L 327.017329 72.230697 
L 326.867645 72.207604 
L 326.72933 72.124199 
L 326.644699 72.016342 
L 326.735436 71.828069 
L 326.894172 71.582472 
L 326.960066 71.315412 
L 326.94554 71.076335 
L 326.682383 70.922836 
L 326.295438 70.85872 
L 326.012281 70.840518 
L 325.64281 70.703863 
L 325.468495 70.605516 
L 325.29839 70.339271 
L 325.292706 70.145836 
L 325.993755 69.97495 
L 326.625752 69.275378 
L 327.224486 66.735727 
L 327.657747 63.733136 
L 327.97985 63.165871 
L 328.38448 63.009928 
L 328.057113 62.597248 
L 327.852272 62.806169 
L 327.766378 63.027858 
L 327.65901 63.138703 
L 327.901114 60.385785 
L 328.073534 59.377857 
L 328.367006 58.321843 
L 328.967424 58.741043 
L 329.465106 59.16622 
L 329.722367 59.535159 
L 330.04805 60.764233 
L 330.294364 61.022056 
L 330.662994 61.280966 
L 330.517311 60.99842 
L 330.263628 60.782435 
L 329.866998 59.144214 
L 329.618368 58.680187 
L 329.230791 58.289785 
L 327.983429 57.467686 
L 327.871219 57.309026 
L 327.811009 56.994965 
L 328.223217 57.008277 
L 328.579426 57.160961 
L 328.537321 56.985185 
L 328.431637 56.80153 
L 328.266164 56.135646 
L 328.12827 54.580558 
L 328.147007 54.314313 
L 328.085534 53.987756 
L 327.686589 53.914674 
L 327.367643 53.901362 
L 327.024066 53.772314 
L 325.325127 52.855671 
L 324.743446 51.909958 
L 324.148712 51.211744 
L 324.005976 50.907193 
L 324.01545 50.598566 
L 324.323238 49.946809 
L 324.051449 49.535216 
L 323.785767 49.453441 
L 323.555031 49.249682 
L 323.764083 48.910356 
L 323.937766 48.693284 
L 324.285764 48.634059 
L 324.742183 48.706053 
L 325.175233 48.902477 
L 325.51481 48.954639 
L 324.510816 48.427583 
L 322.882613 48.605261 
L 322.531668 48.537341 
L 322.235459 48.419976 
L 322.11946 48.033106 
L 322.351037 47.858688 
L 322.56072 47.536206 
L 322.323458 47.309626 
L 322.015881 47.223775 
L 321.533568 47.228666 
L 321.083465 47.297129 
L 320.96936 47.166995 
L 321.243885 46.807835 
L 321.010623 46.6758 
L 320.699467 46.737471 
L 320.248101 46.811911 
L 319.816314 46.699164 
L 319.408316 46.291103 
L 319.137791 46.294091 
L 318.951897 46.344352 
L 318.676319 46.187322 
L 318.386216 46.147928 
L 318.179059 46.200091 
L 317.903692 45.965904 
L 316.208753 45.496172 
L 315.476757 45.438847 
L 314.805392 45.651572 
L 314.43592 45.577675 
L 314.164343 45.27421 
L 313.936344 44.765085 
L 312.854876 44.372509 
L 313.06877 44.114958 
L 313.572346 44.054102 
L 314.152553 43.875609 
L 314.361184 43.646584 
L 313.907713 43.379524 
L 313.573188 43.31405 
L 313.434662 43.218147 
L 313.293189 42.978527 
L 313.493609 42.86904 
L 313.634872 42.927179 
L 314.042659 42.961683 
L 314.740761 42.902728 
L 314.480552 42.661206 
L 314.210448 42.607414 
L 314.086449 42.54683 
L 313.518873 42.520748 
L 313.260558 42.603067 
L 312.67993 42.571824 
L 312.554246 42.311013 
L 312.494036 42.087149 
L 312.674035 41.588348 
L 313.491294 41.142795 
L 315.527704 40.655675 
L 316.40391 40.726855 
L 317.011275 40.639103 
L 317.739061 40.332106 
L 318.060323 40.069121 
L 319.095265 39.913993 
L 320.07926 40.193007 
L 320.986202 41.247934 
L 321.419674 41.605463 
L 322.480931 40.985221 
L 324.062186 41.003424 
L 324.388711 41.353617 
L 324.5205 41.058575 
L 324.811235 40.713543 
L 325.043023 40.870845 
L 325.160496 41.084112 
L 326.82933 41.023528 
L 327.093118 40.961314 
L 326.644699 40.710826 
L 326.278175 40.110417 
L 326.202175 37.902213 
L 325.739862 37.285775 
L 325.209128 36.301212 
L 324.964918 35.717103 
L 324.941971 35.515246 
L 325.023655 35.223735 
L 325.676073 35.239492 
L 326.18007 35.313389 
L 327.139433 35.093058 
L 327.601115 35.243839 
L 327.573958 35.699716 
L 327.714799 36.274859 
L 327.87564 36.55333 
L 328.119007 36.870107 
L 328.892477 36.840765 
L 329.72721 37.026865 
L 330.781941 37.055663 
L 332.322986 37.377059 
L 332.979614 37.190959 
L 333.614768 36.794308 
L 334.825288 36.533497 
L 334.921709 36.395484 
L 334.22487 36.450635 
L 333.585716 36.199332 
L 333.499401 35.926296 
L 333.573505 35.681242 
L 333.832872 35.116694 
L 335.684652 34.226946 
L 337.012224 33.963962 
L 338.397901 33.474125 
L 339.095161 32.971792 
L 339.55579 32.323295 
L 339.704 32.180664 
L 339.895157 32.061125 
L 339.717474 31.82884 
L 339.837894 29.351132 
L 339.967578 28.904764 
L 340.237892 28.540172 
L 340.649258 28.258169 
L 341.273676 27.952531 
L 343.572611 27.530342 
L 343.914083 27.36 
L 343.962083 27.624887 
L 344.12924 27.963941 
L 344.244187 28.149226 
L 344.148608 28.391292 
L 344.223976 28.590704 
L 344.535975 28.949591 
L 344.925025 29.287831 
L 345.27155 29.504087 
L 345.369234 29.480451 
L 345.626074 29.419052 
L 346.06102 29.197362 
L 346.423123 29.12754 
L 346.63028 29.29734 
L 346.747332 29.393242 
L 346.975541 29.775765 
L 347.039541 30.175133 
L 347.141014 30.506852 
L 347.325855 30.641333 
L 348.018904 30.685345 
L 348.529638 30.808416 
L 348.664796 30.919804 
L 348.839532 31.657139 
L 348.934689 31.761464 
L 349.061846 31.674527 
L 349.18774 31.553086 
L 349.362476 31.533797 
L 349.662264 31.580526 
L 350.057209 31.595197 
L 350.464365 31.676428 
L 351.026889 32.092912 
L 351.005415 32.230381 
L 350.895521 32.471631 
L 350.857205 32.664252 
L 350.954047 32.74168 
L 351.102678 32.940549 
L 351.066888 33.170389 
L 350.922047 33.331494 
L 350.863942 33.464345 
L 350.864784 33.550739 
L 350.917837 33.622462 
L 351.033204 33.685491 
L 351.863937 33.770526 
L 352.623933 33.685491 
L 353.103088 33.450761 
L 353.184772 33.203533 
L 353.320771 32.924248 
L 353.606244 32.690604 
L 353.803716 32.612089 
L 353.984347 32.708263 
L 353.680349 33.689295 
L 353.902242 33.940054 
L 353.935084 34.31497 
L 354.014663 34.643158 
L 354.28624 34.636909 
L 354.615502 34.697494 
L 354.848764 34.818934 
L 355.120762 35.013999 
L 355.51276 35.193307 
L 355.787706 35.256336 
L 355.887495 35.406303 
L 356.10981 35.579634 
L 356.459703 35.94314 
L 356.772964 36.185749 
L 356.924121 36.184934 
L 357.215909 36.089303 
L 357.648749 36.028175 
L 357.990642 36.033337 
L 358.135904 36.218078 
L 358.471903 36.303385 
L 358.590639 36.371305 
L 358.722428 36.498722 
L 358.946426 36.549798 
L 359.216741 36.498722 
L 359.414214 36.328651 
L 359.677791 36.25231 
L 359.941369 36.277848 
L 360.092947 36.371305 
L 360.381787 36.509318 
L 360.545155 36.479161 
L 360.872311 36.564197 
L 361.200731 36.832343 
L 361.338835 37.10212 
L 361.375045 37.249642 
L 361.516939 37.409932 
L 362.068094 38.13477 
L 362.244094 38.170632 
L 362.435672 38.060602 
L 362.559881 37.904659 
L 362.73967 37.873687 
L 363.028932 37.94541 
L 363.215036 38.027457 
L 363.304299 38.341518 
L 363.367035 38.401287 
L 363.492087 38.333639 
L 363.714823 38.318697 
L 364.07061 38.396125 
L 364.559871 38.307558 
L 364.951448 38.176609 
L 365.151447 38.181499 
L 365.474393 38.547722 
L 365.842812 38.684648 
L 366.654597 38.795221 
L 367.52575 38.967465 
L 367.868064 39.106836 
L 368.101747 39.175299 
L 368.125326 39.660245 
L 368.055011 39.733327 
L 367.187226 40.705664 
L 366.821754 41.053413 
L 366.63565 41.549769 
L 366.50765 42.311013 
L 366.251231 43.034221 
L 365.867233 43.719937 
L 365.727444 44.234497 
L 365.832286 44.577898 
L 365.766602 45.11718 
L 365.530813 45.851799 
L 365.491235 46.406838 
L 365.646602 46.781483 
L 365.863022 46.858368 
" clip-path="url(#p11b90c7513)" style="fill: #bc80bd; stroke: #000000; stroke-width: 0.2"/>
    <path d="M 327.947429 56.254098 
L 327.79543 56.740674 
L 327.507853 56.292676 
L 327.126591 55.900101 
L 327.039645 55.536866 
L 327.040487 55.439877 
L 327.487221 55.705307 
L 327.947429 56.254098 
" clip-path="url(#p11b90c7513)" style="fill: #bc80bd; stroke: #000000; stroke-width: 0.2"/>
    <path d="M 527.82513 383.865525 
L 527.554815 383.911167 
L 527.425974 383.763918 
L 527.347238 383.413996 
L 527.4285 383.077114 
L 527.451237 382.804892 
L 527.231449 382.332715 
L 527.446184 382.064297 
L 527.62892 382.376727 
L 527.732499 382.397918 
L 528.009971 382.615804 
L 527.928708 383.017345 
L 527.947234 383.148837 
L 527.82134 383.550922 
L 527.82513 383.865525 
" clip-path="url(#p11b90c7513)" style="fill: #bc80bd; stroke: #000000; stroke-width: 0.2"/>
    <path d="M 573.601314 430.394819 
L 572.992475 430.56 
L 572.567635 430.500231 
L 571.727218 430.02914 
L 571.501535 429.716167 
L 571.167221 428.831581 
L 571.241326 428.520238 
L 571.505745 427.973077 
L 572.105742 427.756278 
L 572.735213 427.836694 
L 573.017317 427.985031 
L 573.350367 428.626192 
L 573.781102 429.277677 
L 573.709524 430.052505 
L 573.601314 430.394819 
" clip-path="url(#p11b90c7513)" style="fill: #bc80bd; stroke: #000000; stroke-width: 0.2"/>
    <path d="M 70.771921 231.016199 
L 70.727289 231.333791 
L 70.617395 231.395734 
L 70.456554 231.131391 
L 69.748136 231.168611 
L 69.639716 230.93225 
L 69.6334 230.820319 
L 69.97403 230.418506 
L 69.57319 230.310921 
L 69.414454 230.137591 
L 69.075508 229.291855 
L 69.103087 229.045986 
L 69.243297 228.916124 
L 69.473612 228.897378 
L 69.90603 229.170687 
L 70.227502 229.55973 
L 70.336975 229.565707 
L 70.373607 229.676009 
L 70.308765 229.949589 
L 70.500764 230.181331 
L 70.5835 230.35276 
L 70.771921 231.016199 
" clip-path="url(#p11b90c7513)" style="fill: #bc80bd; stroke: #000000; stroke-width: 0.2"/>
    <path d="M 68.612353 221.357484 
L 68.104987 221.419427 
L 67.771515 221.370796 
L 67.694673 220.972516 
L 67.864567 220.635362 
L 67.742463 220.225943 
L 67.821199 219.981704 
L 67.991303 219.820599 
L 68.27046 220.033866 
L 68.314881 220.339233 
L 68.490248 220.61879 
L 69.278665 221.214581 
L 68.612353 221.357484 
" clip-path="url(#p11b90c7513)" style="fill: #bc80bd; stroke: #000000; stroke-width: 0.2"/>
    <path d="M 67.48099 222.600957 
L 67.13215 222.850629 
L 66.960572 222.773472 
L 66.748573 222.294232 
L 66.5991 220.964909 
L 66.71531 220.745121 
L 66.797625 220.662802 
L 67.256991 220.825809 
L 67.44878 221.013811 
L 67.64141 221.132263 
L 67.543516 221.375686 
L 67.591727 222.373833 
L 67.48099 222.600957 
" clip-path="url(#p11b90c7513)" style="fill: #bc80bd; stroke: #000000; stroke-width: 0.2"/>
    <path d="M 69.029193 223.251898 
L 68.788773 223.273633 
L 68.683089 223.225546 
L 68.650037 222.890566 
L 68.835931 222.660454 
L 68.944983 222.604488 
L 69.107298 222.862583 
L 69.145824 223.077752 
L 69.029193 223.251898 
" clip-path="url(#p11b90c7513)" style="fill: #bc80bd; stroke: #000000; stroke-width: 0.2"/>
    <path d="M 97.546729 298.717129 
L 97.596413 298.666868 
L 97.753044 298.629105 
L 97.893043 298.62503 
L 98.110305 298.219957 
L 98.470514 297.967296 
L 99.096826 296.564077 
L 99.360825 295.984586 
L 99.392825 295.667537 
L 99.467772 295.006815 
L 99.327983 294.202375 
L 99.393035 293.97661 
L 99.931348 293.00536 
L 100.162505 292.475586 
L 100.178084 292.019438 
L 100.24482 291.690979 
L 100.178294 291.519278 
L 100.05619 291.469289 
L 99.850296 291.043297 
L 99.717455 290.690115 
L 99.352404 290.328511 
L 99.102089 289.95767 
L 98.691565 289.106229 
L 98.728618 288.628075 
L 98.612197 288.456103 
L 98.486093 288.280598 
L 98.495356 288.064071 
L 98.410093 287.528592 
L 98.303778 287.025715 
L 98.265252 286.708666 
L 98.366725 286.163408 
L 98.305673 285.557021 
L 98.17241 285.238071 
L 98.135568 284.752853 
L 98.162936 284.317895 
L 98.277041 284.07257 
L 98.254094 283.76829 
L 98.773881 282.800571 
L 99.168194 282.239555 
L 99.53135 281.845892 
L 99.83598 281.551936 
L 100.24861 280.081884 
L 100.549029 279.564608 
L 100.862712 279.490983 
L 102.555966 280.708103 
L 103.349646 280.820578 
L 104.949428 281.478311 
L 105.528582 282.321602 
L 106.869628 283.724549 
L 107.574256 284.16494 
L 107.581203 284.532521 
L 107.427309 285.117989 
L 107.878465 284.60669 
L 108.576356 285.415748 
L 108.773829 285.812942 
L 108.991091 286.545116 
L 108.915933 287.015391 
L 108.819513 287.258272 
L 108.81425 287.447089 
L 109.021828 287.186821 
L 109.138669 286.980617 
L 109.173616 286.489965 
L 109.343089 285.881134 
L 109.570456 285.870266 
L 109.751087 286.232957 
L 110.126243 287.81141 
L 110.267716 288.134164 
L 110.321821 288.635139 
L 110.300979 288.859274 
L 110.324979 289.066293 
L 110.191716 289.186375 
L 109.831086 289.448001 
L 109.666456 289.797108 
L 109.570667 290.132902 
L 109.346457 290.361112 
L 109.133406 290.648277 
L 109.06688 290.881105 
L 108.867302 291.065303 
L 108.828986 291.372028 
L 108.326252 292.454667 
L 108.125832 292.942058 
L 107.837623 293.459606 
L 107.657414 293.651954 
L 107.413204 293.960038 
L 107.289205 294.316208 
L 107.289205 294.684333 
L 107.117837 295.12581 
L 107.022891 295.50616 
L 106.861418 295.727035 
L 106.435315 296.931658 
L 106.414683 297.346239 
L 106.31321 297.59238 
L 106.010685 298.166436 
L 105.806055 298.51174 
L 105.449214 298.770378 
L 105.074059 299.051565 
L 104.931533 299.35829 
L 104.666903 299.513962 
L 104.47343 299.524014 
L 104.16059 299.412898 
L 103.738908 299.359377 
L 103.524593 299.395238 
L 103.427962 299.242827 
L 103.284384 298.892633 
L 103.073437 298.644862 
L 102.937227 298.731256 
L 102.653439 298.980385 
L 102.32081 299.12682 
L 102.083758 299.077918 
L 101.56755 298.905402 
L 101.347552 298.818465 
L 101.281026 298.671215 
L 101.205026 298.560914 
L 101.090921 298.610087 
L 100.938712 298.794014 
L 100.735765 298.986906 
L 100.434714 299.241197 
L 99.816823 299.697888 
L 99.642929 299.86171 
L 99.482088 299.7726 
L 99.220826 299.682131 
L 98.940196 299.676969 
L 98.336409 299.380568 
L 97.982937 299.169474 
L 97.830307 298.904587 
L 97.651571 298.789395 
L 97.546729 298.717129 
" clip-path="url(#p11b90c7513)" style="fill: #bc80bd; stroke: #000000; stroke-width: 0.2"/>
   </g>
   <g id="PathCollection_1">
    <defs>
     <path id="m56243211c4" d="M 0 4.5 
C 1.193414 4.5 2.338109 4.025852 3.181981 3.181981 
C 4.025852 2.338109 4.5 1.193414 4.5 0 
C 4.5 -1.193414 4.025852 -2.338109 3.181981 -3.181981 
C 2.338109 -4.025852 1.193414 -4.5 0 -4.5 
C -1.193414 -4.5 -2.338109 -4.025852 -3.181981 -3.181981 
C -4.025852 -2.338109 -4.5 -1.193414 -4.5 0 
C -4.5 1.193414 -4.025852 2.338109 -3.181981 3.181981 
C -2.338109 4.025852 -1.193414 4.5 0 4.5 
z
" style="stroke: #ff0000; stroke-width: 0.2"/>
    </defs>
    <g clip-path="url(#p11b90c7513)">
     <use xlink:href="#m56243211c4" x="312.431984" y="93.535699" style="fill: #ff0000; stroke: #ff0000; stroke-width: 0.2"/>
    </g>
   </g>
   <g id="matplotlib.axis_1">
    <g id="xtick_1">
     <g id="line2d_1">
      <defs>
       <path id="me4ebc50264" d="M 0 0 
L 0 3.5 
" style="stroke: #323034; stroke-width: 0.8"/>
      </defs>
      <g>
       <use xlink:href="#me4ebc50264" x="74.334428" y="450.72" style="fill: #323034; stroke: #323034; stroke-width: 0.8"/>
      </g>
     </g>
     <g id="text_1">
      <!-- $\mathdefault{−60}$ -->
      <g style="fill: #323034" transform="translate(60.814428 468.6475) scale(0.16 -0.16)">
       <defs>
        <path id="STIXGeneral-Regular-2212" d="M 3974 1408 
L 410 1408 
L 410 1830 
L 3974 1830 
L 3974 1408 
z
" transform="scale(0.015625)"/>
        <path id="STIXGeneral-Regular-36" d="M 2854 4378 
L 2867 4275 
Q 2112 4154 1606 3664 
Q 1101 3174 973 2451 
Q 1344 2739 1786 2739 
Q 2349 2739 2672 2380 
Q 2995 2022 2995 1402 
Q 2995 774 2669 378 
Q 2291 -90 1651 -90 
Q 870 -90 518 557 
Q 218 1107 218 1786 
Q 218 2835 915 3552 
Q 1312 3962 1731 4131 
Q 2150 4301 2854 4378 
z
M 2419 1203 
Q 2419 2445 1555 2445 
Q 1235 2445 1024 2275 
Q 813 2106 813 1702 
Q 813 954 1046 522 
Q 1280 90 1722 90 
Q 2061 90 2240 394 
Q 2419 698 2419 1203 
z
" transform="scale(0.015625)"/>
        <path id="STIXGeneral-Regular-30" d="M 3046 2112 
Q 3046 1683 2963 1302 
Q 2880 922 2717 602 
Q 2554 282 2266 96 
Q 1978 -90 1600 -90 
Q 1210 -90 915 108 
Q 621 307 461 640 
Q 301 973 227 1350 
Q 154 1728 154 2150 
Q 154 2746 301 3222 
Q 448 3699 790 4012 
Q 1133 4326 1626 4326 
Q 2253 4326 2649 3712 
Q 3046 3098 3046 2112 
z
M 2432 2080 
Q 2432 3091 2217 3625 
Q 2003 4160 1587 4160 
Q 1190 4160 979 3622 
Q 768 3085 768 2106 
Q 768 1120 979 598 
Q 1190 77 1600 77 
Q 2003 77 2217 598 
Q 2432 1120 2432 2080 
z
" transform="scale(0.015625)"/>
       </defs>
       <use xlink:href="#STIXGeneral-Regular-2212" transform="translate(0 0.59375)"/>
       <use xlink:href="#STIXGeneral-Regular-36" transform="translate(68.499985 0.59375)"/>
       <use xlink:href="#STIXGeneral-Regular-30" transform="translate(118.499969 0.59375)"/>
      </g>
     </g>
    </g>
    <g id="xtick_2">
     <g id="line2d_2">
      <g>
       <use xlink:href="#me4ebc50264" x="160.56556" y="450.72" style="fill: #323034; stroke: #323034; stroke-width: 0.8"/>
      </g>
     </g>
     <g id="text_2">
      <!-- $\mathdefault{−40}$ -->
      <g style="fill: #323034" transform="translate(147.04556 468.6475) scale(0.16 -0.16)">
       <defs>
        <path id="STIXGeneral-Regular-34" d="M 3027 1069 
L 2368 1069 
L 2368 0 
L 1869 0 
L 1869 1069 
L 77 1069 
L 77 1478 
L 2086 4326 
L 2368 4326 
L 2368 1478 
L 3027 1478 
L 3027 1069 
z
M 1869 1478 
L 1869 3674 
L 333 1478 
L 1869 1478 
z
" transform="scale(0.015625)"/>
       </defs>
       <use xlink:href="#STIXGeneral-Regular-2212" transform="translate(0 0.40625)"/>
       <use xlink:href="#STIXGeneral-Regular-34" transform="translate(68.499985 0.40625)"/>
       <use xlink:href="#STIXGeneral-Regular-30" transform="translate(118.499969 0.40625)"/>
      </g>
     </g>
    </g>
    <g id="xtick_3">
     <g id="line2d_3">
      <g>
       <use xlink:href="#me4ebc50264" x="246.796692" y="450.72" style="fill: #323034; stroke: #323034; stroke-width: 0.8"/>
      </g>
     </g>
     <g id="text_3">
      <!-- $\mathdefault{−20}$ -->
      <g style="fill: #323034" transform="translate(233.276692 468.6475) scale(0.16 -0.16)">
       <defs>
        <path id="STIXGeneral-Regular-32" d="M 3034 877 
L 2688 0 
L 186 0 
L 186 77 
L 1325 1286 
Q 1773 1754 1965 2144 
Q 2157 2534 2157 2950 
Q 2157 3379 1920 3616 
Q 1683 3853 1267 3853 
Q 922 3853 720 3673 
Q 518 3494 326 3021 
L 192 3053 
Q 301 3648 630 3987 
Q 960 4326 1523 4326 
Q 2054 4326 2380 4006 
Q 2707 3686 2707 3200 
Q 2707 2477 1888 1613 
L 832 486 
L 2330 486 
Q 2541 486 2665 569 
Q 2790 653 2944 915 
L 3034 877 
z
" transform="scale(0.015625)"/>
       </defs>
       <use xlink:href="#STIXGeneral-Regular-2212" transform="translate(0 0.40625)"/>
       <use xlink:href="#STIXGeneral-Regular-32" transform="translate(68.499985 0.40625)"/>
       <use xlink:href="#STIXGeneral-Regular-30" transform="translate(118.499969 0.40625)"/>
      </g>
     </g>
    </g>
    <g id="xtick_4">
     <g id="line2d_4">
      <g>
       <use xlink:href="#me4ebc50264" x="333.027824" y="450.72" style="fill: #323034; stroke: #323034; stroke-width: 0.8"/>
      </g>
     </g>
     <g id="text_4">
      <!-- $\mathdefault{0}$ -->
      <g style="fill: #323034" transform="translate(329.027824 468.6475) scale(0.16 -0.16)">
       <use xlink:href="#STIXGeneral-Regular-30" transform="translate(0 0.40625)"/>
      </g>
     </g>
    </g>
    <g id="xtick_5">
     <g id="line2d_5">
      <g>
       <use xlink:href="#me4ebc50264" x="419.258956" y="450.72" style="fill: #323034; stroke: #323034; stroke-width: 0.8"/>
      </g>
     </g>
     <g id="text_5">
      <!-- $\mathdefault{20}$ -->
      <g style="fill: #323034" transform="translate(411.258956 468.6475) scale(0.16 -0.16)">
       <use xlink:href="#STIXGeneral-Regular-32" transform="translate(0 0.40625)"/>
       <use xlink:href="#STIXGeneral-Regular-30" transform="translate(49.999985 0.40625)"/>
      </g>
     </g>
    </g>
    <g id="xtick_6">
     <g id="line2d_6">
      <g>
       <use xlink:href="#me4ebc50264" x="505.490088" y="450.72" style="fill: #323034; stroke: #323034; stroke-width: 0.8"/>
      </g>
     </g>
     <g id="text_6">
      <!-- $\mathdefault{40}$ -->
      <g style="fill: #323034" transform="translate(497.490088 468.6475) scale(0.16 -0.16)">
       <use xlink:href="#STIXGeneral-Regular-34" transform="translate(0 0.40625)"/>
       <use xlink:href="#STIXGeneral-Regular-30" transform="translate(49.999985 0.40625)"/>
      </g>
     </g>
    </g>
    <g id="xtick_7">
     <g id="line2d_7">
      <g>
       <use xlink:href="#me4ebc50264" x="591.72122" y="450.72" style="fill: #323034; stroke: #323034; stroke-width: 0.8"/>
      </g>
     </g>
     <g id="text_7">
      <!-- $\mathdefault{60}$ -->
      <g style="fill: #323034" transform="translate(583.72122 468.6475) scale(0.16 -0.16)">
       <use xlink:href="#STIXGeneral-Regular-36" transform="translate(0 0.59375)"/>
       <use xlink:href="#STIXGeneral-Regular-30" transform="translate(49.999985 0.59375)"/>
      </g>
     </g>
    </g>
   </g>
   <g id="matplotlib.axis_2">
    <g id="ytick_1">
     <g id="line2d_8">
      <defs>
       <path id="mf8e4934b77" d="M 0 0 
L -3.5 0 
" style="stroke: #323034; stroke-width: 0.8"/>
      </defs>
      <g>
       <use xlink:href="#mf8e4934b77" x="41.24" y="422.942678" style="fill: #323034; stroke: #323034; stroke-width: 0.8"/>
      </g>
     </g>
     <g id="text_8">
      <!-- $\mathdefault{−20}$ -->
      <g style="fill: #323034" transform="translate(7.2 428.406428) scale(0.16 -0.16)">
       <use xlink:href="#STIXGeneral-Regular-2212" transform="translate(0 0.40625)"/>
       <use xlink:href="#STIXGeneral-Regular-32" transform="translate(68.499985 0.40625)"/>
       <use xlink:href="#STIXGeneral-Regular-30" transform="translate(118.499969 0.40625)"/>
      </g>
     </g>
    </g>
    <g id="ytick_2">
     <g id="line2d_9">
      <g>
       <use xlink:href="#mf8e4934b77" x="41.24" y="367.302916" style="fill: #323034; stroke: #323034; stroke-width: 0.8"/>
      </g>
     </g>
     <g id="text_9">
      <!-- $\mathdefault{−10}$ -->
      <g style="fill: #323034" transform="translate(7.2 372.766666) scale(0.16 -0.16)">
       <defs>
        <path id="STIXGeneral-Regular-31" d="M 2522 0 
L 755 0 
L 755 96 
Q 1107 115 1235 227 
Q 1363 339 1363 608 
L 1363 3482 
Q 1363 3795 1171 3795 
Q 1082 3795 883 3718 
L 710 3654 
L 710 3744 
L 1856 4326 
L 1914 4307 
L 1914 486 
Q 1914 275 2042 185 
Q 2170 96 2522 96 
L 2522 0 
z
" transform="scale(0.015625)"/>
       </defs>
       <use xlink:href="#STIXGeneral-Regular-2212" transform="translate(0 0.40625)"/>
       <use xlink:href="#STIXGeneral-Regular-31" transform="translate(68.499985 0.40625)"/>
       <use xlink:href="#STIXGeneral-Regular-30" transform="translate(118.499969 0.40625)"/>
      </g>
     </g>
    </g>
    <g id="ytick_3">
     <g id="line2d_10">
      <g>
       <use xlink:href="#mf8e4934b77" x="41.24" y="311.663154" style="fill: #323034; stroke: #323034; stroke-width: 0.8"/>
      </g>
     </g>
     <g id="text_10">
      <!-- $\mathdefault{0}$ -->
      <g style="fill: #323034" transform="translate(26.24 317.126904) scale(0.16 -0.16)">
       <use xlink:href="#STIXGeneral-Regular-30" transform="translate(0 0.40625)"/>
      </g>
     </g>
    </g>
    <g id="ytick_4">
     <g id="line2d_11">
      <g>
       <use xlink:href="#mf8e4934b77" x="41.24" y="256.023392" style="fill: #323034; stroke: #323034; stroke-width: 0.8"/>
      </g>
     </g>
     <g id="text_11">
      <!-- $\mathdefault{10}$ -->
      <g style="fill: #323034" transform="translate(18.24 261.487142) scale(0.16 -0.16)">
       <use xlink:href="#STIXGeneral-Regular-31" transform="translate(0 0.40625)"/>
       <use xlink:href="#STIXGeneral-Regular-30" transform="translate(49.999985 0.40625)"/>
      </g>
     </g>
    </g>
    <g id="ytick_5">
     <g id="line2d_12">
      <g>
       <use xlink:href="#mf8e4934b77" x="41.24" y="200.38363" style="fill: #323034; stroke: #323034; stroke-width: 0.8"/>
      </g>
     </g>
     <g id="text_12">
      <!-- $\mathdefault{20}$ -->
      <g style="fill: #323034" transform="translate(18.24 205.84738) scale(0.16 -0.16)">
       <use xlink:href="#STIXGeneral-Regular-32" transform="translate(0 0.40625)"/>
       <use xlink:href="#STIXGeneral-Regular-30" transform="translate(49.999985 0.40625)"/>
      </g>
     </g>
    </g>
    <g id="ytick_6">
     <g id="line2d_13">
      <g>
       <use xlink:href="#mf8e4934b77" x="41.24" y="144.743868" style="fill: #323034; stroke: #323034; stroke-width: 0.8"/>
      </g>
     </g>
     <g id="text_13">
      <!-- $\mathdefault{30}$ -->
      <g style="fill: #323034" transform="translate(18.24 150.207618) scale(0.16 -0.16)">
       <defs>
        <path id="STIXGeneral-Regular-33" d="M 390 3264 
L 288 3290 
Q 435 3770 748 4048 
Q 1062 4326 1542 4326 
Q 1990 4326 2265 4083 
Q 2541 3840 2541 3450 
Q 2541 2925 1946 2566 
Q 2298 2413 2477 2227 
Q 2758 1914 2758 1402 
Q 2758 890 2464 506 
Q 2246 211 1840 60 
Q 1434 -90 979 -90 
Q 262 -90 262 275 
Q 262 378 339 442 
Q 416 506 525 506 
Q 685 506 915 339 
Q 1197 141 1466 141 
Q 1818 141 2058 425 
Q 2298 710 2298 1120 
Q 2298 1856 1632 2048 
Q 1434 2112 979 2112 
L 979 2202 
Q 1338 2323 1517 2432 
Q 2035 2726 2035 3290 
Q 2035 3610 1852 3776 
Q 1670 3942 1344 3942 
Q 768 3942 390 3264 
z
" transform="scale(0.015625)"/>
       </defs>
       <use xlink:href="#STIXGeneral-Regular-33" transform="translate(0 0.40625)"/>
       <use xlink:href="#STIXGeneral-Regular-30" transform="translate(49.999985 0.40625)"/>
      </g>
     </g>
    </g>
    <g id="ytick_7">
     <g id="line2d_14">
      <g>
       <use xlink:href="#mf8e4934b77" x="41.24" y="89.104107" style="fill: #323034; stroke: #323034; stroke-width: 0.8"/>
      </g>
     </g>
     <g id="text_14">
      <!-- $\mathdefault{40}$ -->
      <g style="fill: #323034" transform="translate(18.24 94.567857) scale(0.16 -0.16)">
       <use xlink:href="#STIXGeneral-Regular-34" transform="translate(0 0.40625)"/>
       <use xlink:href="#STIXGeneral-Regular-30" transform="translate(49.999985 0.40625)"/>
      </g>
     </g>
    </g>
    <g id="ytick_8">
     <g id="line2d_15">
      <g>
       <use xlink:href="#mf8e4934b77" x="41.24" y="33.464345" style="fill: #323034; stroke: #323034; stroke-width: 0.8"/>
      </g>
     </g>
     <g id="text_15">
      <!-- $\mathdefault{50}$ -->
      <g style="fill: #323034" transform="translate(18.24 38.928095) scale(0.16 -0.16)">
       <defs>
        <path id="STIXGeneral-Regular-35" d="M 2803 4358 
L 2573 3814 
Q 2534 3731 2400 3731 
L 1158 3731 
L 902 3187 
Q 1606 3053 1920 2896 
Q 2234 2739 2502 2368 
Q 2726 2061 2726 1555 
Q 2726 1094 2576 780 
Q 2426 467 2099 224 
Q 1664 -90 1011 -90 
Q 646 -90 422 19 
Q 198 128 198 307 
Q 198 550 486 550 
Q 717 550 960 352 
Q 1210 147 1414 147 
Q 1747 147 2012 480 
Q 2278 813 2278 1229 
Q 2278 1843 1850 2189 
Q 1293 2637 486 2637 
Q 410 2637 410 2688 
L 416 2720 
L 1114 4237 
L 2438 4237 
Q 2547 4237 2608 4269 
Q 2669 4301 2746 4403 
L 2803 4358 
z
" transform="scale(0.015625)"/>
       </defs>
       <use xlink:href="#STIXGeneral-Regular-35" transform="translate(0 0.203125)"/>
       <use xlink:href="#STIXGeneral-Regular-30" transform="translate(49.999985 0.203125)"/>
      </g>
     </g>
    </g>
   </g>
   <g id="patch_3">
    <path d="M 41.24 450.72 
L 41.24 7.2 
" style="fill: none; stroke: #000000; stroke-width: 0.6; stroke-linejoin: miter; stroke-linecap: square"/>
   </g>
   <g id="patch_4">
    <path d="M 41.24 450.72 
L 599.140202 450.72 
" style="fill: none; stroke: #000000; stroke-width: 0.6; stroke-linejoin: miter; stroke-linecap: square"/>
   </g>
  </g>
 </g>
 <defs>
  <clipPath id="p11b90c7513">
   <rect x="41.24" y="7.2" width="557.900202" height="443.52"/>
  </clipPath>
 </defs>
</svg>