<?xml version="1.0" encoding="utf-8" standalone="no"?>
<!DOCTYPE svg PUBLIC "-//W3C//DTD SVG 1.1//EN"
  "http://www.w3.org/Graphics/SVG/1.1/DTD/svg11.dtd">
<svg xmlns:xlink="http://www.w3.org/1999/xlink" width="475.766602pt" height="286.36pt" viewBox="0 0 475.766602 286.36" xmlns="http://www.w3.org/2000/svg" version="1.1">
 <metadata>
  <rdf:RDF xmlns:dc="http://purl.org/dc/elements/1.1/" xmlns:cc="http://creativecommons.org/ns#" xmlns:rdf="http://www.w3.org/1999/02/22-rdf-syntax-ns#">
   <cc:Work>
    <dc:type rdf:resource="http://purl.org/dc/dcmitype/StillImage"/>
    <dc:date>2025-03-26T16:07:22.746757</dc:date>
    <dc:format>image/svg+xml</dc:format>
    <dc:creator>
     <cc:Agent>
      <dc:title>Matplotlib v3.10.0, https://matplotlib.org/</dc:title>
     </cc:Agent>
    </dc:creator>
   </cc:Work>
  </rdf:RDF>
 </metadata>
 <defs>
  <style type="text/css">*{stroke-linejoin: round; stroke-linecap: butt}</style>
 </defs>
 <g id="figure_1">
  <g id="patch_1">
   <path d="M 0 286.36 
L 475.766602 286.36 
L 475.766602 0 
L 0 0 
z
" style="fill: #ffffff"/>
  </g>
  <g id="axes_1">
   <g id="patch_2">
    <path d="M 10.666602 257.76 
L 457.066602 257.76 
L 457.066602 36 
L 10.666602 36 
z
" style="fill: #ffffff"/>
   </g>
   <g id="FillBetweenPolyCollection_1"/>
   <g id="FillBetweenPolyCollection_2"/>
   <g id="FillBetweenPolyCollection_3"/>
   <g id="FillBetweenPolyCollection_4"/>
   <g id="matplotlib.axis_1">
    <g id="xtick_1">
     <g id="line2d_1">
      <defs>
       <path id="m87a4398d22" d="M 0 0 
L 0 3.5 
" style="stroke: #ff0000; stroke-opacity: 0.7; stroke-width: 0.8"/>
      </defs>
      <g>
       <use xlink:href="#m87a4398d22" x="29.2" y="257.76" style="fill: #ff0000; fill-opacity: 0.7; stroke: #ff0000; stroke-opacity: 0.7; stroke-width: 0.8"/>
      </g>
     </g>
     <g id="text_1">
      <!-- 21 Sep -->
      <g style="fill: #323034" transform="translate(7.2 275.6875) scale(0.16 -0.16)">
       <defs>
        <path id="STIXGeneral-Regular-32" d="M 3034 877 
L 2688 0 
L 186 0 
L 186 77 
L 1325 1286 
Q 1773 1754 1965 2144 
Q 2157 2534 2157 2950 
Q 2157 3379 1920 3616 
Q 1683 3853 1267 3853 
Q 922 3853 720 3673 
Q 518 3494 326 3021 
L 192 3053 
Q 301 3648 630 3987 
Q 960 4326 1523 4326 
Q 2054 4326 2380 4006 
Q 2707 3686 2707 3200 
Q 2707 2477 1888 1613 
L 832 486 
L 2330 486 
Q 2541 486 2665 569 
Q 2790 653 2944 915 
L 3034 877 
z
" transform="scale(0.015625)"/>
        <path id="STIXGeneral-Regular-31" d="M 2522 0 
L 755 0 
L 755 96 
Q 1107 115 1235 227 
Q 1363 339 1363 608 
L 1363 3482 
Q 1363 3795 1171 3795 
Q 1082 3795 883 3718 
L 710 3654 
L 710 3744 
L 1856 4326 
L 1914 4307 
L 1914 486 
Q 1914 275 2042 185 
Q 2170 96 2522 96 
L 2522 0 
z
" transform="scale(0.015625)"/>
        <path id="STIXGeneral-Regular-20" transform="scale(0.015625)"/>
        <path id="STIXGeneral-Regular-53" d="M 3002 2963 
L 2842 2963 
Q 2733 3360 2579 3565 
Q 2189 4064 1651 4064 
Q 1357 4064 1181 3894 
Q 1005 3725 1005 3456 
Q 1005 3328 1069 3206 
Q 1133 3085 1206 2998 
Q 1280 2912 1465 2784 
Q 1651 2656 1766 2589 
Q 1882 2522 2150 2362 
Q 2669 2061 2905 1763 
Q 3142 1466 3142 1107 
Q 3142 576 2771 243 
Q 2400 -90 1837 -90 
Q 1421 -90 1082 58 
Q 915 128 781 128 
Q 704 128 653 70 
Q 602 13 602 -83 
L 461 -83 
L 275 1274 
L 416 1274 
Q 845 141 1734 141 
Q 2074 141 2285 342 
Q 2496 544 2496 858 
Q 2496 1158 2310 1363 
Q 2003 1696 1235 2106 
Q 454 2522 454 3206 
Q 454 3718 768 4022 
Q 1082 4326 1568 4326 
Q 1907 4326 2240 4186 
Q 2413 4109 2522 4109 
Q 2688 4109 2726 4326 
L 2861 4326 
L 3002 2963 
z
" transform="scale(0.015625)"/>
        <path id="STIXGeneral-Regular-65" d="M 2611 1050 
L 2714 1005 
Q 2330 -64 1376 -64 
Q 813 -64 486 329 
Q 160 723 160 1389 
Q 160 2074 525 2509 
Q 890 2944 1485 2944 
Q 2061 2944 2374 2502 
Q 2560 2246 2592 1773 
L 621 1773 
Q 646 1370 700 1158 
Q 755 947 915 730 
Q 1184 378 1626 378 
Q 1939 378 2153 531 
Q 2368 685 2611 1050 
z
M 634 1978 
L 1939 1978 
Q 1882 2381 1750 2547 
Q 1619 2714 1312 2714 
Q 1043 2714 864 2525 
Q 685 2336 634 1978 
z
" transform="scale(0.015625)"/>
        <path id="STIXGeneral-Regular-70" d="M 1018 2931 
L 1018 2438 
Q 1421 2944 1939 2944 
Q 2406 2944 2707 2560 
Q 3008 2176 3008 1581 
Q 3008 883 2621 409 
Q 2234 -64 1664 -64 
Q 1466 -64 1328 -6 
Q 1190 51 1018 211 
L 1018 -794 
Q 1018 -1094 1120 -1180 
Q 1222 -1267 1581 -1274 
L 1581 -1389 
L 32 -1389 
L 32 -1280 
Q 314 -1254 397 -1171 
Q 480 -1088 480 -838 
L 480 2157 
Q 480 2381 429 2451 
Q 378 2522 218 2522 
Q 115 2522 58 2515 
L 58 2618 
Q 506 2752 979 2944 
L 1018 2931 
z
M 1018 2138 
L 1018 563 
Q 1018 422 1238 281 
Q 1459 141 1683 141 
Q 2029 141 2243 467 
Q 2458 794 2458 1325 
Q 2458 1888 2243 2224 
Q 2029 2560 1670 2560 
Q 1446 2560 1232 2419 
Q 1018 2278 1018 2138 
z
" transform="scale(0.015625)"/>
       </defs>
       <use xlink:href="#STIXGeneral-Regular-32"/>
       <use xlink:href="#STIXGeneral-Regular-31" transform="translate(49.999985 0)"/>
       <use xlink:href="#STIXGeneral-Regular-20" transform="translate(99.999969 0)"/>
       <use xlink:href="#STIXGeneral-Regular-53" transform="translate(124.999954 0)"/>
       <use xlink:href="#STIXGeneral-Regular-65" transform="translate(180.599945 0)"/>
       <use xlink:href="#STIXGeneral-Regular-70" transform="translate(224.999939 0)"/>
      </g>
     </g>
    </g>
    <g id="xtick_2">
     <g id="line2d_2">
      <g>
       <use xlink:href="#m87a4398d22" x="125.299099" y="257.76" style="fill: #ff0000; fill-opacity: 0.7; stroke: #ff0000; stroke-opacity: 0.7; stroke-width: 0.8"/>
      </g>
     </g>
     <g id="text_2">
      <!-- 28 Sep -->
      <g style="fill: #323034" transform="translate(103.299099 275.6875) scale(0.16 -0.16)">
       <defs>
        <path id="STIXGeneral-Regular-38" d="M 2848 992 
Q 2848 499 2505 204 
Q 2163 -90 1587 -90 
Q 1050 -90 704 204 
Q 358 499 358 954 
Q 358 1293 524 1533 
Q 691 1773 1190 2125 
Q 710 2522 553 2765 
Q 397 3008 397 3328 
Q 397 3782 745 4054 
Q 1094 4326 1638 4326 
Q 2106 4326 2410 4060 
Q 2714 3795 2714 3411 
Q 2714 3059 2531 2848 
Q 2349 2637 1856 2374 
Q 2432 1990 2640 1689 
Q 2848 1389 2848 992 
z
M 2272 3411 
Q 2272 3744 2086 3945 
Q 1901 4147 1574 4147 
Q 1248 4147 1059 3977 
Q 870 3808 870 3513 
Q 870 3219 1059 2979 
Q 1248 2739 1670 2490 
Q 1997 2682 2134 2896 
Q 2272 3110 2272 3411 
z
M 1734 1741 
L 1357 1997 
Q 1075 1766 960 1545 
Q 845 1325 845 1011 
Q 845 576 1065 333 
Q 1286 90 1658 90 
Q 1971 90 2166 285 
Q 2362 480 2362 794 
Q 2362 1082 2214 1299 
Q 2067 1517 1734 1741 
z
" transform="scale(0.015625)"/>
       </defs>
       <use xlink:href="#STIXGeneral-Regular-32"/>
       <use xlink:href="#STIXGeneral-Regular-38" transform="translate(49.999985 0)"/>
       <use xlink:href="#STIXGeneral-Regular-20" transform="translate(99.999969 0)"/>
       <use xlink:href="#STIXGeneral-Regular-53" transform="translate(124.999954 0)"/>
       <use xlink:href="#STIXGeneral-Regular-65" transform="translate(180.599945 0)"/>
       <use xlink:href="#STIXGeneral-Regular-70" transform="translate(224.999939 0)"/>
      </g>
     </g>
    </g>
    <g id="xtick_3">
     <g id="line2d_3">
      <g>
       <use xlink:href="#m87a4398d22" x="221.398199" y="257.76" style="fill: #ff0000; fill-opacity: 0.7; stroke: #ff0000; stroke-opacity: 0.7; stroke-width: 0.8"/>
      </g>
     </g>
     <g id="text_3">
      <!-- 05 Oct -->
      <g style="fill: #323034" transform="translate(199.845699 275.6875) scale(0.16 -0.16)">
       <defs>
        <path id="STIXGeneral-Regular-30" d="M 3046 2112 
Q 3046 1683 2963 1302 
Q 2880 922 2717 602 
Q 2554 282 2266 96 
Q 1978 -90 1600 -90 
Q 1210 -90 915 108 
Q 621 307 461 640 
Q 301 973 227 1350 
Q 154 1728 154 2150 
Q 154 2746 301 3222 
Q 448 3699 790 4012 
Q 1133 4326 1626 4326 
Q 2253 4326 2649 3712 
Q 3046 3098 3046 2112 
z
M 2432 2080 
Q 2432 3091 2217 3625 
Q 2003 4160 1587 4160 
Q 1190 4160 979 3622 
Q 768 3085 768 2106 
Q 768 1120 979 598 
Q 1190 77 1600 77 
Q 2003 77 2217 598 
Q 2432 1120 2432 2080 
z
" transform="scale(0.015625)"/>
        <path id="STIXGeneral-Regular-35" d="M 2803 4358 
L 2573 3814 
Q 2534 3731 2400 3731 
L 1158 3731 
L 902 3187 
Q 1606 3053 1920 2896 
Q 2234 2739 2502 2368 
Q 2726 2061 2726 1555 
Q 2726 1094 2576 780 
Q 2426 467 2099 224 
Q 1664 -90 1011 -90 
Q 646 -90 422 19 
Q 198 128 198 307 
Q 198 550 486 550 
Q 717 550 960 352 
Q 1210 147 1414 147 
Q 1747 147 2012 480 
Q 2278 813 2278 1229 
Q 2278 1843 1850 2189 
Q 1293 2637 486 2637 
Q 410 2637 410 2688 
L 416 2720 
L 1114 4237 
L 2438 4237 
Q 2547 4237 2608 4269 
Q 2669 4301 2746 4403 
L 2803 4358 
z
" transform="scale(0.015625)"/>
        <path id="STIXGeneral-Regular-4f" d="M 4403 2118 
Q 4403 1133 3820 521 
Q 3238 -90 2310 -90 
Q 1376 -90 797 524 
Q 218 1139 218 2138 
Q 218 3110 797 3718 
Q 1376 4326 2310 4326 
Q 3245 4326 3824 3702 
Q 4403 3078 4403 2118 
z
M 3674 2157 
Q 3674 2701 3520 3133 
Q 3366 3565 3091 3795 
Q 2733 4096 2304 4096 
Q 1760 4096 1389 3667 
Q 1184 3437 1065 3011 
Q 947 2586 947 2125 
Q 947 960 1523 429 
Q 1837 141 2317 141 
Q 2816 141 3142 448 
Q 3674 960 3674 2157 
z
" transform="scale(0.015625)"/>
        <path id="STIXGeneral-Regular-63" d="M 2547 998 
L 2637 941 
Q 2362 403 2112 205 
Q 1786 -64 1376 -64 
Q 845 -64 502 336 
Q 160 736 160 1357 
Q 160 2170 698 2618 
Q 1094 2944 1562 2944 
Q 1965 2944 2256 2749 
Q 2547 2554 2547 2285 
Q 2547 2176 2457 2096 
Q 2368 2016 2246 2016 
Q 2022 2016 1939 2310 
L 1901 2451 
Q 1850 2630 1773 2694 
Q 1696 2758 1523 2758 
Q 1133 2758 893 2451 
Q 653 2144 653 1645 
Q 653 1094 928 745 
Q 1203 397 1645 397 
Q 1920 397 2118 528 
Q 2317 659 2547 998 
z
" transform="scale(0.015625)"/>
        <path id="STIXGeneral-Regular-74" d="M 1702 493 
L 1786 422 
Q 1478 -64 1011 -64 
Q 448 -64 448 749 
L 448 2675 
L 109 2675 
Q 83 2694 83 2720 
Q 83 2771 192 2842 
Q 435 2982 813 3526 
Q 826 3546 874 3606 
Q 922 3667 941 3706 
Q 986 3706 986 3622 
L 986 2880 
L 1632 2880 
L 1632 2675 
L 986 2675 
L 986 845 
Q 986 538 1062 403 
Q 1139 269 1318 269 
Q 1510 269 1702 493 
z
" transform="scale(0.015625)"/>
       </defs>
       <use xlink:href="#STIXGeneral-Regular-30"/>
       <use xlink:href="#STIXGeneral-Regular-35" transform="translate(49.999985 0)"/>
       <use xlink:href="#STIXGeneral-Regular-20" transform="translate(99.999969 0)"/>
       <use xlink:href="#STIXGeneral-Regular-4f" transform="translate(124.999954 0)"/>
       <use xlink:href="#STIXGeneral-Regular-63" transform="translate(197.199936 0)"/>
       <use xlink:href="#STIXGeneral-Regular-74" transform="translate(241.59993 0)"/>
      </g>
     </g>
    </g>
    <g id="xtick_4">
     <g id="line2d_4">
      <g>
       <use xlink:href="#m87a4398d22" x="317.497298" y="257.76" style="fill: #ff0000; fill-opacity: 0.7; stroke: #ff0000; stroke-opacity: 0.7; stroke-width: 0.8"/>
      </g>
     </g>
     <g id="text_4">
      <!-- 12 Oct -->
      <g style="fill: #323034" transform="translate(295.944798 275.6875) scale(0.16 -0.16)">
       <use xlink:href="#STIXGeneral-Regular-31"/>
       <use xlink:href="#STIXGeneral-Regular-32" transform="translate(49.999985 0)"/>
       <use xlink:href="#STIXGeneral-Regular-20" transform="translate(99.999969 0)"/>
       <use xlink:href="#STIXGeneral-Regular-4f" transform="translate(124.999954 0)"/>
       <use xlink:href="#STIXGeneral-Regular-63" transform="translate(197.199936 0)"/>
       <use xlink:href="#STIXGeneral-Regular-74" transform="translate(241.59993 0)"/>
      </g>
     </g>
    </g>
    <g id="xtick_5">
     <g id="line2d_5">
      <g>
       <use xlink:href="#m87a4398d22" x="413.596397" y="257.76" style="fill: #ff0000; fill-opacity: 0.7; stroke: #ff0000; stroke-opacity: 0.7; stroke-width: 0.8"/>
      </g>
     </g>
     <g id="text_5">
      <!-- 19 Oct -->
      <g style="fill: #323034" transform="translate(392.043897 275.6875) scale(0.16 -0.16)">
       <defs>
        <path id="STIXGeneral-Regular-39" d="M 378 -141 
L 358 -13 
Q 1094 115 1603 608 
Q 2112 1101 2304 1882 
Q 1933 1517 1344 1517 
Q 826 1517 509 1875 
Q 192 2234 192 2816 
Q 192 3462 573 3894 
Q 954 4326 1523 4326 
Q 2131 4326 2528 3840 
Q 2938 3328 2938 2522 
Q 2938 1958 2742 1462 
Q 2547 966 2170 621 
Q 1773 262 1395 105 
Q 1018 -51 378 -141 
z
M 2317 2272 
L 2317 2522 
Q 2317 4147 1472 4147 
Q 1171 4147 1005 3930 
Q 909 3802 845 3546 
Q 781 3290 781 3034 
Q 781 2464 995 2128 
Q 1210 1792 1568 1792 
Q 1824 1792 2070 1917 
Q 2317 2042 2317 2272 
z
" transform="scale(0.015625)"/>
       </defs>
       <use xlink:href="#STIXGeneral-Regular-31"/>
       <use xlink:href="#STIXGeneral-Regular-39" transform="translate(49.999985 0)"/>
       <use xlink:href="#STIXGeneral-Regular-20" transform="translate(99.999969 0)"/>
       <use xlink:href="#STIXGeneral-Regular-4f" transform="translate(124.999954 0)"/>
       <use xlink:href="#STIXGeneral-Regular-63" transform="translate(197.199936 0)"/>
       <use xlink:href="#STIXGeneral-Regular-74" transform="translate(241.59993 0)"/>
      </g>
     </g>
    </g>
    <g id="xtick_6">
     <g id="line2d_6">
      <defs>
       <path id="macb369e2b7" d="M 0 0 
L 0 2 
" style="stroke: #ff0000; stroke-opacity: 0.7; stroke-width: 0.6"/>
      </defs>
      <g>
       <use xlink:href="#macb369e2b7" x="15.471557" y="257.76" style="fill: #ff0000; fill-opacity: 0.7; stroke: #ff0000; stroke-opacity: 0.7; stroke-width: 0.6"/>
      </g>
     </g>
    </g>
    <g id="xtick_7">
     <g id="line2d_7">
      <g>
       <use xlink:href="#macb369e2b7" x="42.928443" y="257.76" style="fill: #ff0000; fill-opacity: 0.7; stroke: #ff0000; stroke-opacity: 0.7; stroke-width: 0.6"/>
      </g>
     </g>
    </g>
    <g id="xtick_8">
     <g id="line2d_8">
      <g>
       <use xlink:href="#macb369e2b7" x="56.656886" y="257.76" style="fill: #ff0000; fill-opacity: 0.7; stroke: #ff0000; stroke-opacity: 0.7; stroke-width: 0.6"/>
      </g>
     </g>
    </g>
    <g id="xtick_9">
     <g id="line2d_9">
      <g>
       <use xlink:href="#macb369e2b7" x="70.385328" y="257.76" style="fill: #ff0000; fill-opacity: 0.7; stroke: #ff0000; stroke-opacity: 0.7; stroke-width: 0.6"/>
      </g>
     </g>
    </g>
    <g id="xtick_10">
     <g id="line2d_10">
      <g>
       <use xlink:href="#macb369e2b7" x="84.113771" y="257.76" style="fill: #ff0000; fill-opacity: 0.7; stroke: #ff0000; stroke-opacity: 0.7; stroke-width: 0.6"/>
      </g>
     </g>
    </g>
    <g id="xtick_11">
     <g id="line2d_11">
      <g>
       <use xlink:href="#macb369e2b7" x="97.842214" y="257.76" style="fill: #ff0000; fill-opacity: 0.7; stroke: #ff0000; stroke-opacity: 0.7; stroke-width: 0.6"/>
      </g>
     </g>
    </g>
    <g id="xtick_12">
     <g id="line2d_12">
      <g>
       <use xlink:href="#macb369e2b7" x="111.570657" y="257.76" style="fill: #ff0000; fill-opacity: 0.7; stroke: #ff0000; stroke-opacity: 0.7; stroke-width: 0.6"/>
      </g>
     </g>
    </g>
    <g id="xtick_13">
     <g id="line2d_13">
      <g>
       <use xlink:href="#macb369e2b7" x="139.027542" y="257.76" style="fill: #ff0000; fill-opacity: 0.7; stroke: #ff0000; stroke-opacity: 0.7; stroke-width: 0.6"/>
      </g>
     </g>
    </g>
    <g id="xtick_14">
     <g id="line2d_14">
      <g>
       <use xlink:href="#macb369e2b7" x="152.755985" y="257.76" style="fill: #ff0000; fill-opacity: 0.7; stroke: #ff0000; stroke-opacity: 0.7; stroke-width: 0.6"/>
      </g>
     </g>
    </g>
    <g id="xtick_15">
     <g id="line2d_15">
      <g>
       <use xlink:href="#macb369e2b7" x="166.484428" y="257.76" style="fill: #ff0000; fill-opacity: 0.7; stroke: #ff0000; stroke-opacity: 0.7; stroke-width: 0.6"/>
      </g>
     </g>
    </g>
    <g id="xtick_16">
     <g id="line2d_16">
      <g>
       <use xlink:href="#macb369e2b7" x="180.21287" y="257.76" style="fill: #ff0000; fill-opacity: 0.7; stroke: #ff0000; stroke-opacity: 0.7; stroke-width: 0.6"/>
      </g>
     </g>
    </g>
    <g id="xtick_17">
     <g id="line2d_17">
      <g>
       <use xlink:href="#macb369e2b7" x="193.941313" y="257.76" style="fill: #ff0000; fill-opacity: 0.7; stroke: #ff0000; stroke-opacity: 0.7; stroke-width: 0.6"/>
      </g>
     </g>
    </g>
    <g id="xtick_18">
     <g id="line2d_18">
      <g>
       <use xlink:href="#macb369e2b7" x="207.669756" y="257.76" style="fill: #ff0000; fill-opacity: 0.7; stroke: #ff0000; stroke-opacity: 0.7; stroke-width: 0.6"/>
      </g>
     </g>
    </g>
    <g id="xtick_19">
     <g id="line2d_19">
      <g>
       <use xlink:href="#macb369e2b7" x="235.126641" y="257.76" style="fill: #ff0000; fill-opacity: 0.7; stroke: #ff0000; stroke-opacity: 0.7; stroke-width: 0.6"/>
      </g>
     </g>
    </g>
    <g id="xtick_20">
     <g id="line2d_20">
      <g>
       <use xlink:href="#macb369e2b7" x="248.855084" y="257.76" style="fill: #ff0000; fill-opacity: 0.7; stroke: #ff0000; stroke-opacity: 0.7; stroke-width: 0.6"/>
      </g>
     </g>
    </g>
    <g id="xtick_21">
     <g id="line2d_21">
      <g>
       <use xlink:href="#macb369e2b7" x="262.583527" y="257.76" style="fill: #ff0000; fill-opacity: 0.7; stroke: #ff0000; stroke-opacity: 0.7; stroke-width: 0.6"/>
      </g>
     </g>
    </g>
    <g id="xtick_22">
     <g id="line2d_22">
      <g>
       <use xlink:href="#macb369e2b7" x="276.31197" y="257.76" style="fill: #ff0000; fill-opacity: 0.7; stroke: #ff0000; stroke-opacity: 0.7; stroke-width: 0.6"/>
      </g>
     </g>
    </g>
    <g id="xtick_23">
     <g id="line2d_23">
      <g>
       <use xlink:href="#macb369e2b7" x="290.040412" y="257.76" style="fill: #ff0000; fill-opacity: 0.7; stroke: #ff0000; stroke-opacity: 0.7; stroke-width: 0.6"/>
      </g>
     </g>
    </g>
    <g id="xtick_24">
     <g id="line2d_24">
      <g>
       <use xlink:href="#macb369e2b7" x="303.768855" y="257.76" style="fill: #ff0000; fill-opacity: 0.7; stroke: #ff0000; stroke-opacity: 0.7; stroke-width: 0.6"/>
      </g>
     </g>
    </g>
    <g id="xtick_25">
     <g id="line2d_25">
      <g>
       <use xlink:href="#macb369e2b7" x="331.225741" y="257.76" style="fill: #ff0000; fill-opacity: 0.7; stroke: #ff0000; stroke-opacity: 0.7; stroke-width: 0.6"/>
      </g>
     </g>
    </g>
    <g id="xtick_26">
     <g id="line2d_26">
      <g>
       <use xlink:href="#macb369e2b7" x="344.954183" y="257.76" style="fill: #ff0000; fill-opacity: 0.7; stroke: #ff0000; stroke-opacity: 0.7; stroke-width: 0.6"/>
      </g>
     </g>
    </g>
    <g id="xtick_27">
     <g id="line2d_27">
      <g>
       <use xlink:href="#macb369e2b7" x="358.682626" y="257.76" style="fill: #ff0000; fill-opacity: 0.7; stroke: #ff0000; stroke-opacity: 0.7; stroke-width: 0.6"/>
      </g>
     </g>
    </g>
    <g id="xtick_28">
     <g id="line2d_28">
      <g>
       <use xlink:href="#macb369e2b7" x="372.411069" y="257.76" style="fill: #ff0000; fill-opacity: 0.7; stroke: #ff0000; stroke-opacity: 0.7; stroke-width: 0.6"/>
      </g>
     </g>
    </g>
    <g id="xtick_29">
     <g id="line2d_29">
      <g>
       <use xlink:href="#macb369e2b7" x="386.139512" y="257.76" style="fill: #ff0000; fill-opacity: 0.7; stroke: #ff0000; stroke-opacity: 0.7; stroke-width: 0.6"/>
      </g>
     </g>
    </g>
    <g id="xtick_30">
     <g id="line2d_30">
      <g>
       <use xlink:href="#macb369e2b7" x="399.867954" y="257.76" style="fill: #ff0000; fill-opacity: 0.7; stroke: #ff0000; stroke-opacity: 0.7; stroke-width: 0.6"/>
      </g>
     </g>
    </g>
    <g id="xtick_31">
     <g id="line2d_31">
      <g>
       <use xlink:href="#macb369e2b7" x="427.32484" y="257.76" style="fill: #ff0000; fill-opacity: 0.7; stroke: #ff0000; stroke-opacity: 0.7; stroke-width: 0.6"/>
      </g>
     </g>
    </g>
    <g id="xtick_32">
     <g id="line2d_32">
      <g>
       <use xlink:href="#macb369e2b7" x="441.053283" y="257.76" style="fill: #ff0000; fill-opacity: 0.7; stroke: #ff0000; stroke-opacity: 0.7; stroke-width: 0.6"/>
      </g>
     </g>
    </g>
    <g id="xtick_33">
     <g id="line2d_33">
      <g>
       <use xlink:href="#macb369e2b7" x="454.781725" y="257.76" style="fill: #ff0000; fill-opacity: 0.7; stroke: #ff0000; stroke-opacity: 0.7; stroke-width: 0.6"/>
      </g>
     </g>
    </g>
   </g>
   <g id="matplotlib.axis_2">
    <g id="ytick_1">
     <g id="line2d_34">
      <path d="M 10.666602 257.76 
L 457.066602 257.76 
" clip-path="url(#p3648b8a8cd)" style="fill: none; stroke: #b1afb5; stroke-width: 0.2; stroke-linecap: square"/>
     </g>
     <g id="line2d_35"/>
     <g id="text_6">
      <!-- $\mathdefault{0}$ -->
      <g style="fill: #323034" transform="translate(460.566602 263.22375) scale(0.16 -0.16)">
       <use xlink:href="#STIXGeneral-Regular-30" transform="translate(0 0.40625)"/>
      </g>
     </g>
    </g>
    <g id="ytick_2">
     <g id="line2d_36">
      <path d="M 10.666602 213.408 
L 457.066602 213.408 
" clip-path="url(#p3648b8a8cd)" style="fill: none; stroke: #b1afb5; stroke-width: 0.2; stroke-linecap: square"/>
     </g>
     <g id="line2d_37"/>
     <g id="text_7">
      <!-- $\mathdefault{1}$ -->
      <g style="fill: #323034" transform="translate(460.566602 218.87175) scale(0.16 -0.16)">
       <use xlink:href="#STIXGeneral-Regular-31" transform="translate(0 0.40625)"/>
      </g>
     </g>
    </g>
    <g id="ytick_3">
     <g id="line2d_38">
      <path d="M 10.666602 169.056 
L 457.066602 169.056 
" clip-path="url(#p3648b8a8cd)" style="fill: none; stroke: #b1afb5; stroke-width: 0.2; stroke-linecap: square"/>
     </g>
     <g id="line2d_39"/>
     <g id="text_8">
      <!-- $\mathdefault{2}$ -->
      <g style="fill: #323034" transform="translate(460.566602 174.51975) scale(0.16 -0.16)">
       <use xlink:href="#STIXGeneral-Regular-32" transform="translate(0 0.40625)"/>
      </g>
     </g>
    </g>
    <g id="ytick_4">
     <g id="line2d_40">
      <path d="M 10.666602 124.704 
L 457.066602 124.704 
" clip-path="url(#p3648b8a8cd)" style="fill: none; stroke: #b1afb5; stroke-width: 0.2; stroke-linecap: square"/>
     </g>
     <g id="line2d_41"/>
     <g id="text_9">
      <!-- $\mathdefault{3}$ -->
      <g style="fill: #323034" transform="translate(460.566602 130.16775) scale(0.16 -0.16)">
       <defs>
        <path id="STIXGeneral-Regular-33" d="M 390 3264 
L 288 3290 
Q 435 3770 748 4048 
Q 1062 4326 1542 4326 
Q 1990 4326 2265 4083 
Q 2541 3840 2541 3450 
Q 2541 2925 1946 2566 
Q 2298 2413 2477 2227 
Q 2758 1914 2758 1402 
Q 2758 890 2464 506 
Q 2246 211 1840 60 
Q 1434 -90 979 -90 
Q 262 -90 262 275 
Q 262 378 339 442 
Q 416 506 525 506 
Q 685 506 915 339 
Q 1197 141 1466 141 
Q 1818 141 2058 425 
Q 2298 710 2298 1120 
Q 2298 1856 1632 2048 
Q 1434 2112 979 2112 
L 979 2202 
Q 1338 2323 1517 2432 
Q 2035 2726 2035 3290 
Q 2035 3610 1852 3776 
Q 1670 3942 1344 3942 
Q 768 3942 390 3264 
z
" transform="scale(0.015625)"/>
       </defs>
       <use xlink:href="#STIXGeneral-Regular-33" transform="translate(0 0.40625)"/>
      </g>
     </g>
    </g>
    <g id="ytick_5">
     <g id="line2d_42">
      <path d="M 10.666602 80.352 
L 457.066602 80.352 
" clip-path="url(#p3648b8a8cd)" style="fill: none; stroke: #b1afb5; stroke-width: 0.2; stroke-linecap: square"/>
     </g>
     <g id="line2d_43"/>
     <g id="text_10">
      <!-- $\mathdefault{4}$ -->
      <g style="fill: #323034" transform="translate(460.566602 85.81575) scale(0.16 -0.16)">
       <defs>
        <path id="STIXGeneral-Regular-34" d="M 3027 1069 
L 2368 1069 
L 2368 0 
L 1869 0 
L 1869 1069 
L 77 1069 
L 77 1478 
L 2086 4326 
L 2368 4326 
L 2368 1478 
L 3027 1478 
L 3027 1069 
z
M 1869 1478 
L 1869 3674 
L 333 1478 
L 1869 1478 
z
" transform="scale(0.015625)"/>
       </defs>
       <use xlink:href="#STIXGeneral-Regular-34" transform="translate(0 0.40625)"/>
      </g>
     </g>
    </g>
    <g id="ytick_6">
     <g id="line2d_44">
      <path d="M 10.666602 36 
L 457.066602 36 
" clip-path="url(#p3648b8a8cd)" style="fill: none; stroke: #b1afb5; stroke-width: 0.2; stroke-linecap: square"/>
     </g>
     <g id="line2d_45"/>
     <g id="text_11">
      <!-- $\mathdefault{5}$ -->
      <g style="fill: #323034" transform="translate(460.566602 41.46375) scale(0.16 -0.16)">
       <use xlink:href="#STIXGeneral-Regular-35" transform="translate(0 0.203125)"/>
      </g>
     </g>
    </g>
   </g>
   <g id="line2d_46">
    <path d="M 29.2 257.76 
L 42.928443 257.76 
L 56.656886 257.76 
L 70.385328 257.76 
L 84.113771 257.76 
L 97.842214 227.017536 
L 111.570657 257.76 
L 125.299099 227.017536 
L 139.027542 257.76 
L 152.755985 257.76 
L 166.484428 227.017536 
L 180.21287 227.017536 
L 193.941313 227.017536 
L 207.669756 257.76 
L 221.398199 257.76 
L 235.126641 257.76 
L 248.855084 165.532609 
L 262.583527 86.064493 
L 276.31197 114.996419 
L 290.040412 137.652557 
L 303.768855 151.408549 
L 317.497298 171.454993 
L 331.225741 178.291884 
L 344.954183 151.408549 
L 358.682626 171.454993 
L 372.411069 196.275072 
L 386.139512 196.275072 
L 399.867954 209.034348 
" clip-path="url(#p3648b8a8cd)" style="fill: none; stroke: #4c72b0; stroke-opacity: 0.7; stroke-width: 3; stroke-linecap: square"/>
   </g>
   <g id="line2d_47">
    <path d="M 29.2 257.76 
L 42.928443 257.76 
L 56.656886 257.76 
L 70.385328 257.76 
L 84.113771 257.76 
L 97.842214 257.76 
L 111.570657 257.76 
L 125.299099 257.76 
L 152.755985 257.76 
L 166.484428 257.76 
L 180.21287 257.76 
L 193.941313 257.76 
L 207.669756 257.76 
L 221.398199 257.76 
L 235.126641 257.76 
L 248.855084 196.275072 
L 262.583527 165.532609 
L 276.31197 83.37567 
L 290.040412 122.729341 
L 303.768855 151.408549 
L 317.497298 155.635746 
L 331.225741 171.454993 
L 344.954183 171.454993 
L 358.682626 178.291884 
L 372.411069 196.275072 
L 386.139512 196.275072 
L 399.867954 196.275072 
" clip-path="url(#p3648b8a8cd)" style="fill: none; stroke: #dd8452; stroke-opacity: 0.7; stroke-width: 3; stroke-linecap: square"/>
   </g>
   <g id="line2d_48">
    <path d="M 42.928443 257.76 
L 56.656886 257.76 
L 70.385328 257.76 
L 84.113771 257.76 
L 111.570657 257.76 
L 139.027542 257.76 
L 152.755985 257.76 
L 166.484428 257.76 
L 180.21287 257.76 
L 193.941313 257.76 
L 207.669756 257.76 
L 221.398199 257.76 
L 235.126641 257.76 
L 248.855084 102.682897 
L 262.583527 127.168242 
L 276.31197 155.635746 
L 290.040412 178.291884 
L 303.768855 186.37821 
L 317.497298 178.291884 
L 331.225741 209.034348 
L 344.954183 186.37821 
L 358.682626 196.275072 
L 372.411069 209.034348 
L 386.139512 227.017536 
L 399.867954 227.017536 
" clip-path="url(#p3648b8a8cd)" style="fill: none; stroke: #55a868; stroke-opacity: 0.7; stroke-width: 3; stroke-linecap: square"/>
   </g>
   <g id="line2d_49">
    <path d="M 29.2 257.76 
L 42.928443 257.76 
L 56.656886 257.76 
L 70.385328 257.76 
L 84.113771 257.76 
L 97.842214 257.76 
L 111.570657 257.76 
L 125.299099 257.76 
L 152.755985 257.76 
L 166.484428 257.76 
L 180.21287 257.76 
L 193.941313 257.76 
L 207.669756 257.76 
L 221.398199 257.76 
L 235.126641 257.76 
L 248.855084 227.017536 
L 262.583527 196.275072 
L 276.31197 196.275072 
L 290.040412 186.37821 
L 303.768855 186.37821 
L 317.497298 196.275072 
L 331.225741 196.275072 
L 344.954183 53.511492 
L 358.682626 81.669613 
L 372.411069 116.806957 
L 386.139512 151.408549 
L 399.867954 160.308696 
" clip-path="url(#p3648b8a8cd)" style="fill: none; stroke: #c44e52; stroke-opacity: 0.7; stroke-width: 3; stroke-linecap: square"/>
   </g>
   <g id="text_12">
    <!-- Physics -->
    <g style="fill: #4c72b0" transform="translate(401.867954 211.034348) scale(0.12 -0.12)">
     <defs>
      <path id="STIXGeneral-Bold-50" d="M 102 4326 
L 2118 4326 
Q 2938 4326 3389 4035 
Q 3840 3744 3840 3168 
Q 3840 2784 3625 2499 
Q 3411 2214 3014 2067 
Q 2810 1990 2563 1968 
Q 2317 1946 1677 1939 
L 1677 710 
Q 1677 384 1766 294 
Q 1856 205 2234 160 
L 2234 0 
L 102 0 
L 102 160 
Q 314 179 390 218 
Q 538 275 589 409 
Q 640 544 640 806 
L 640 3539 
Q 640 3910 541 4022 
Q 442 4134 102 4166 
L 102 4326 
z
M 1677 3878 
L 1677 2163 
Q 2278 2170 2508 2368 
Q 2739 2566 2739 3098 
Q 2739 3635 2566 3868 
Q 2394 4102 1997 4102 
Q 1677 4102 1677 3878 
z
" transform="scale(0.015625)"/>
      <path id="STIXGeneral-Bold-68" d="M 3418 0 
L 1920 0 
L 1920 154 
Q 2080 173 2147 259 
Q 2214 346 2214 544 
L 2214 1978 
Q 2214 2323 2144 2460 
Q 2074 2598 1888 2598 
Q 1658 2598 1440 2381 
Q 1331 2272 1331 2227 
L 1331 544 
Q 1331 346 1395 262 
Q 1459 179 1638 154 
L 1638 0 
L 102 0 
L 102 154 
Q 333 198 387 256 
Q 442 314 442 570 
L 442 3782 
Q 442 4006 384 4067 
Q 326 4128 96 4173 
L 96 4326 
L 1331 4326 
L 1331 2534 
Q 1747 3027 2272 3027 
Q 2656 3027 2880 2784 
Q 3104 2541 3104 2157 
L 3104 557 
Q 3104 339 3177 246 
Q 3251 154 3418 154 
L 3418 0 
z
" transform="scale(0.015625)"/>
      <path id="STIXGeneral-Bold-79" d="M 3085 2950 
L 3085 2797 
Q 2931 2778 2854 2710 
Q 2778 2643 2701 2445 
L 1754 -102 
Q 1466 -877 1261 -1101 
Q 1062 -1312 723 -1312 
Q 448 -1312 275 -1171 
Q 102 -1030 102 -806 
Q 102 -621 211 -499 
Q 320 -378 499 -378 
Q 659 -378 771 -474 
Q 883 -570 883 -710 
Q 883 -736 870 -800 
L 864 -838 
Q 864 -883 896 -915 
Q 928 -947 973 -947 
Q 1216 -947 1395 -422 
L 1510 -83 
L 749 1773 
Q 435 2547 320 2707 
Q 269 2771 102 2797 
L 102 2950 
L 1696 2950 
L 1696 2797 
L 1594 2790 
Q 1363 2771 1363 2630 
Q 1363 2586 1491 2259 
L 1952 1069 
L 2387 2272 
Q 2458 2477 2458 2586 
Q 2458 2701 2387 2745 
Q 2317 2790 2112 2797 
L 2112 2950 
L 3085 2950 
z
" transform="scale(0.015625)"/>
      <path id="STIXGeneral-Bold-73" d="M 2176 2086 
L 2016 2086 
Q 1894 2445 1715 2611 
Q 1498 2816 1235 2816 
Q 1056 2816 934 2710 
Q 813 2605 813 2445 
Q 813 2278 957 2147 
Q 1101 2016 1427 1882 
Q 1907 1683 2108 1452 
Q 2310 1222 2310 883 
Q 2310 454 2035 182 
Q 1760 -90 1325 -90 
Q 992 -90 634 58 
Q 538 96 486 96 
Q 416 96 320 -83 
L 160 -83 
L 160 973 
L 339 973 
Q 544 128 1216 128 
Q 1434 128 1565 243 
Q 1696 358 1696 544 
Q 1696 698 1555 829 
Q 1414 960 1082 1101 
Q 602 1306 387 1539 
Q 173 1773 173 2093 
Q 173 2496 457 2761 
Q 742 3027 1178 3027 
Q 1395 3027 1677 2931 
Q 1818 2886 1875 2886 
Q 1984 2886 2035 3014 
L 2176 3014 
L 2176 2086 
z
" transform="scale(0.015625)"/>
      <path id="STIXGeneral-Bold-69" d="M 1376 3923 
Q 1376 3712 1232 3571 
Q 1088 3430 877 3430 
Q 666 3430 525 3571 
Q 384 3712 384 3923 
Q 384 4134 528 4278 
Q 672 4422 890 4422 
Q 1088 4422 1232 4275 
Q 1376 4128 1376 3923 
z
M 1638 0 
L 102 0 
L 102 154 
Q 326 205 384 275 
Q 442 346 442 563 
L 442 2387 
Q 442 2598 374 2675 
Q 307 2752 96 2797 
L 96 2950 
L 1331 2950 
L 1331 544 
Q 1331 339 1398 259 
Q 1466 179 1638 154 
L 1638 0 
z
" transform="scale(0.015625)"/>
      <path id="STIXGeneral-Bold-63" d="M 2637 698 
L 2752 582 
Q 2490 224 2202 67 
Q 1914 -90 1530 -90 
Q 922 -90 541 326 
Q 160 742 160 1421 
Q 160 2125 595 2576 
Q 1030 3027 1677 3027 
Q 2099 3027 2380 2828 
Q 2662 2630 2662 2323 
Q 2662 2138 2544 2026 
Q 2426 1914 2227 1914 
Q 2061 1914 1965 2035 
Q 1869 2157 1869 2381 
Q 1869 2496 1865 2547 
Q 1862 2598 1849 2665 
Q 1837 2733 1811 2761 
Q 1786 2790 1731 2809 
Q 1677 2829 1600 2829 
Q 1357 2829 1209 2544 
Q 1062 2259 1062 1747 
Q 1062 1094 1299 716 
Q 1536 339 1952 339 
Q 2323 339 2637 698 
z
" transform="scale(0.015625)"/>
     </defs>
     <use xlink:href="#STIXGeneral-Bold-50"/>
     <use xlink:href="#STIXGeneral-Bold-68" transform="translate(61.099991 0)"/>
     <use xlink:href="#STIXGeneral-Bold-79" transform="translate(116.699982 0)"/>
     <use xlink:href="#STIXGeneral-Bold-73" transform="translate(166.699966 0)"/>
     <use xlink:href="#STIXGeneral-Bold-69" transform="translate(205.59996 0)"/>
     <use xlink:href="#STIXGeneral-Bold-63" transform="translate(233.399948 0)"/>
     <use xlink:href="#STIXGeneral-Bold-73" transform="translate(277.799942 0)"/>
    </g>
   </g>
   <g id="text_13">
    <!-- Chemistry -->
    <g style="fill: #dd8452" transform="translate(401.867954 198.275072) scale(0.12 -0.12)">
     <defs>
      <path id="STIXGeneral-Bold-43" d="M 4205 973 
L 4397 813 
Q 3968 282 3549 80 
Q 3130 -122 2554 -122 
Q 1536 -122 925 496 
Q 314 1114 314 2067 
Q 314 3091 938 3756 
Q 1562 4422 2534 4422 
Q 2989 4422 3533 4198 
Q 3738 4109 3827 4109 
Q 3917 4109 3977 4169 
Q 4038 4230 4109 4403 
L 4282 4403 
L 4282 2899 
L 4122 2899 
Q 3981 3296 3693 3635 
Q 3213 4211 2624 4211 
Q 2106 4211 1776 3676 
Q 1446 3142 1446 2208 
Q 1446 1216 1792 672 
Q 1933 454 2192 320 
Q 2451 186 2733 186 
Q 3142 186 3539 403 
Q 3802 550 4205 973 
z
" transform="scale(0.015625)"/>
      <path id="STIXGeneral-Bold-65" d="M 2579 806 
L 2733 717 
Q 2451 269 2166 89 
Q 1882 -90 1466 -90 
Q 890 -90 525 342 
Q 160 774 160 1434 
Q 160 2150 528 2588 
Q 896 3027 1498 3027 
Q 2029 3027 2317 2707 
Q 2656 2336 2694 1568 
L 1082 1568 
Q 1101 1299 1133 1116 
Q 1165 934 1241 748 
Q 1318 563 1468 467 
Q 1619 371 1843 371 
Q 2048 371 2214 470 
Q 2381 570 2579 806 
z
M 1907 1805 
L 1907 1939 
Q 1907 2406 1850 2528 
Q 1773 2688 1699 2758 
Q 1626 2829 1498 2829 
Q 1267 2829 1158 2595 
Q 1050 2362 1050 1805 
L 1907 1805 
z
" transform="scale(0.015625)"/>
      <path id="STIXGeneral-Bold-6d" d="M 5210 0 
L 3693 0 
L 3693 154 
Q 3872 166 3936 246 
Q 4000 326 4000 531 
L 4000 1990 
Q 4000 2598 3661 2598 
Q 3475 2598 3290 2438 
Q 3232 2394 3174 2323 
Q 3117 2253 3117 2227 
L 3117 531 
Q 3117 346 3181 259 
Q 3245 173 3411 154 
L 3411 0 
L 1926 0 
L 1926 154 
Q 2099 166 2163 249 
Q 2227 333 2227 531 
L 2227 2067 
Q 2227 2355 2147 2476 
Q 2067 2598 1882 2598 
Q 1760 2598 1552 2454 
Q 1344 2310 1344 2202 
L 1344 531 
Q 1344 346 1405 262 
Q 1466 179 1632 154 
L 1632 0 
L 102 0 
L 102 154 
Q 314 192 384 272 
Q 454 352 454 550 
L 454 2387 
Q 454 2611 384 2688 
Q 314 2765 96 2797 
L 96 2950 
L 1325 2950 
L 1325 2470 
L 1344 2470 
Q 1530 2765 1744 2896 
Q 1958 3027 2266 3027 
Q 2566 3027 2752 2899 
Q 2938 2771 3085 2470 
Q 3334 2778 3542 2902 
Q 3750 3027 4026 3027 
Q 4422 3027 4656 2784 
Q 4890 2541 4890 2118 
L 4890 531 
Q 4890 326 4957 243 
Q 5024 160 5210 154 
L 5210 0 
z
" transform="scale(0.015625)"/>
      <path id="STIXGeneral-Bold-74" d="M 1965 717 
L 2125 646 
Q 1926 250 1712 86 
Q 1498 -77 1178 -77 
Q 845 -77 653 105 
Q 461 288 461 608 
L 461 2669 
L 122 2669 
L 122 2842 
Q 435 3053 646 3299 
Q 858 3546 1190 4032 
L 1350 4032 
L 1350 2950 
L 1958 2950 
L 1958 2669 
L 1350 2669 
L 1350 762 
Q 1350 378 1600 378 
Q 1786 378 1965 717 
z
" transform="scale(0.015625)"/>
      <path id="STIXGeneral-Bold-72" d="M 1395 2950 
L 1395 2426 
Q 1619 2752 1817 2889 
Q 2016 3027 2259 3027 
Q 2483 3027 2630 2883 
Q 2778 2739 2778 2522 
Q 2778 2330 2666 2208 
Q 2554 2086 2374 2086 
Q 2138 2086 1990 2330 
Q 1901 2477 1811 2477 
Q 1645 2477 1533 2285 
Q 1421 2093 1421 1811 
L 1421 678 
Q 1421 371 1507 272 
Q 1594 173 1882 154 
L 1882 0 
L 186 0 
L 186 154 
Q 397 192 464 265 
Q 531 339 531 538 
L 531 2387 
Q 531 2611 460 2688 
Q 390 2765 179 2797 
L 179 2950 
L 1395 2950 
z
" transform="scale(0.015625)"/>
     </defs>
     <use xlink:href="#STIXGeneral-Bold-43"/>
     <use xlink:href="#STIXGeneral-Bold-68" transform="translate(72.199982 0)"/>
     <use xlink:href="#STIXGeneral-Bold-65" transform="translate(127.799973 0)"/>
     <use xlink:href="#STIXGeneral-Bold-6d" transform="translate(172.199966 0)"/>
     <use xlink:href="#STIXGeneral-Bold-69" transform="translate(255.499954 0)"/>
     <use xlink:href="#STIXGeneral-Bold-73" transform="translate(283.299942 0)"/>
     <use xlink:href="#STIXGeneral-Bold-74" transform="translate(322.199936 0)"/>
     <use xlink:href="#STIXGeneral-Bold-72" transform="translate(355.499924 0)"/>
     <use xlink:href="#STIXGeneral-Bold-79" transform="translate(399.899918 0)"/>
    </g>
   </g>
   <g id="text_14">
    <!-- Medicine -->
    <g style="fill: #55a868" transform="translate(401.867954 229.017536) scale(0.12 -0.12)">
     <defs>
      <path id="STIXGeneral-Bold-4d" d="M 5894 0 
L 3770 0 
L 3770 160 
Q 4122 192 4230 301 
Q 4339 410 4339 698 
L 4339 3872 
L 2726 0 
L 2554 0 
L 941 3802 
L 941 826 
Q 941 454 1069 320 
Q 1197 186 1587 160 
L 1587 0 
L 90 0 
L 90 160 
Q 467 198 569 291 
Q 672 384 672 691 
L 672 3693 
Q 672 3955 563 4048 
Q 454 4141 102 4166 
L 102 4326 
L 1722 4326 
L 2995 1306 
L 4282 4326 
L 5894 4326 
L 5894 4166 
Q 5542 4141 5436 4022 
Q 5331 3904 5331 3546 
L 5331 806 
Q 5331 442 5427 317 
Q 5523 192 5894 160 
L 5894 0 
z
" transform="scale(0.015625)"/>
      <path id="STIXGeneral-Bold-64" d="M 3418 128 
L 3021 77 
Q 2496 6 2170 -83 
L 2170 333 
Q 1946 96 1760 3 
Q 1574 -90 1318 -90 
Q 813 -90 486 332 
Q 160 755 160 1414 
Q 160 2112 509 2569 
Q 858 3027 1389 3027 
Q 1606 3027 1776 2940 
Q 1946 2854 2150 2630 
L 2150 3802 
Q 2150 4026 2067 4086 
Q 1984 4147 1664 4173 
L 1664 4326 
L 3040 4326 
L 3040 646 
Q 3040 442 3120 365 
Q 3200 288 3418 275 
L 3418 128 
z
M 2150 717 
L 2150 2272 
Q 2080 2458 1945 2563 
Q 1811 2669 1651 2669 
Q 1107 2669 1107 1466 
Q 1107 269 1606 269 
Q 1837 269 2029 506 
Q 2150 666 2150 717 
z
" transform="scale(0.015625)"/>
      <path id="STIXGeneral-Bold-6e" d="M 3450 0 
L 1952 0 
L 1952 154 
Q 2112 173 2179 259 
Q 2246 346 2246 538 
L 2246 2054 
Q 2246 2598 1920 2598 
Q 1690 2598 1472 2381 
Q 1363 2272 1363 2227 
L 1363 538 
Q 1363 352 1430 265 
Q 1498 179 1670 154 
L 1670 0 
L 134 0 
L 134 154 
Q 346 198 410 275 
Q 474 352 474 557 
L 474 2406 
Q 474 2611 410 2688 
Q 346 2765 134 2797 
L 134 2950 
L 1357 2950 
L 1357 2470 
L 1363 2470 
Q 1677 3027 2272 3027 
Q 2669 3027 2902 2780 
Q 3136 2534 3136 2118 
L 3136 538 
Q 3136 320 3200 243 
Q 3264 166 3450 154 
L 3450 0 
z
" transform="scale(0.015625)"/>
     </defs>
     <use xlink:href="#STIXGeneral-Bold-4d"/>
     <use xlink:href="#STIXGeneral-Bold-65" transform="translate(94.399994 0)"/>
     <use xlink:href="#STIXGeneral-Bold-64" transform="translate(138.799988 0)"/>
     <use xlink:href="#STIXGeneral-Bold-69" transform="translate(194.399979 0)"/>
     <use xlink:href="#STIXGeneral-Bold-63" transform="translate(222.199966 0)"/>
     <use xlink:href="#STIXGeneral-Bold-69" transform="translate(266.59996 0)"/>
     <use xlink:href="#STIXGeneral-Bold-6e" transform="translate(294.399948 0)"/>
     <use xlink:href="#STIXGeneral-Bold-65" transform="translate(349.999939 0)"/>
    </g>
   </g>
   <g id="text_15">
    <!-- Economics -->
    <g style="fill: #c44e52" transform="translate(401.867954 162.308696) scale(0.12 -0.12)">
     <defs>
      <path id="STIXGeneral-Bold-45" d="M 4102 1331 
L 3846 0 
L 102 0 
L 102 160 
Q 448 198 557 294 
Q 666 390 666 646 
L 666 3712 
Q 666 3955 550 4051 
Q 435 4147 102 4166 
L 102 4326 
L 3795 4326 
L 3795 3040 
L 3635 3040 
Q 3526 3680 3216 3894 
Q 2906 4109 2118 4109 
Q 1875 4109 1788 4032 
Q 1702 3955 1702 3763 
L 1702 2323 
Q 2221 2330 2451 2531 
Q 2682 2733 2739 3277 
L 2906 3277 
L 2906 1114 
L 2739 1114 
Q 2694 1677 2464 1891 
Q 2234 2106 1702 2106 
L 1702 557 
Q 1702 352 1814 275 
Q 1926 198 2234 198 
Q 2982 198 3398 544 
Q 3558 672 3667 838 
Q 3776 1005 3923 1331 
L 4102 1331 
z
" transform="scale(0.015625)"/>
      <path id="STIXGeneral-Bold-6f" d="M 3046 1466 
Q 3046 794 2633 352 
Q 2221 -90 1600 -90 
Q 992 -90 576 348 
Q 160 787 160 1459 
Q 160 2157 573 2592 
Q 986 3027 1626 3027 
Q 2234 3027 2640 2585 
Q 3046 2144 3046 1466 
z
M 2106 1395 
Q 2106 2214 1997 2521 
Q 1888 2829 1606 2829 
Q 1312 2829 1206 2525 
Q 1101 2221 1101 1395 
Q 1101 698 1216 403 
Q 1331 109 1606 109 
Q 1882 109 1994 393 
Q 2106 678 2106 1395 
z
" transform="scale(0.015625)"/>
     </defs>
     <use xlink:href="#STIXGeneral-Bold-45"/>
     <use xlink:href="#STIXGeneral-Bold-63" transform="translate(66.699997 0)"/>
     <use xlink:href="#STIXGeneral-Bold-6f" transform="translate(111.099991 0)"/>
     <use xlink:href="#STIXGeneral-Bold-6e" transform="translate(161.099976 0)"/>
     <use xlink:href="#STIXGeneral-Bold-6f" transform="translate(216.699966 0)"/>
     <use xlink:href="#STIXGeneral-Bold-6d" transform="translate(266.699951 0)"/>
     <use xlink:href="#STIXGeneral-Bold-69" transform="translate(349.999939 0)"/>
     <use xlink:href="#STIXGeneral-Bold-63" transform="translate(377.799927 0)"/>
     <use xlink:href="#STIXGeneral-Bold-73" transform="translate(422.199921 0)"/>
    </g>
   </g>
   <g id="text_16">
    <!-- Log of Google Trends Index -->
    <g style="fill: #323034; opacity: 0.7" transform="translate(10.666602 30) scale(0.1 -0.1)">
     <defs>
      <path id="STIXGeneral-Regular-4c" d="M 3827 1114 
L 3520 0 
L 77 0 
L 77 122 
Q 429 141 531 256 
Q 634 371 634 736 
L 634 3494 
Q 634 3872 541 3981 
Q 448 4090 77 4115 
L 77 4237 
L 1888 4237 
L 1888 4115 
Q 1498 4090 1392 3984 
Q 1286 3878 1286 3507 
L 1286 538 
Q 1286 358 1398 304 
Q 1510 250 1862 250 
L 2310 250 
Q 3085 250 3392 640 
Q 3520 813 3661 1114 
L 3827 1114 
z
" transform="scale(0.015625)"/>
      <path id="STIXGeneral-Regular-6f" d="M 3008 1478 
Q 3008 806 2608 371 
Q 2208 -64 1568 -64 
Q 979 -64 582 368 
Q 186 800 186 1459 
Q 186 2125 582 2534 
Q 979 2944 1626 2944 
Q 2221 2944 2614 2537 
Q 3008 2131 3008 1478 
z
M 2432 1306 
Q 2432 2035 2112 2445 
Q 1856 2765 1504 2765 
Q 1171 2765 966 2493 
Q 762 2221 762 1747 
Q 762 928 1101 435 
Q 1318 115 1677 115 
Q 2029 115 2230 432 
Q 2432 749 2432 1306 
z
" transform="scale(0.015625)"/>
      <path id="STIXGeneral-Regular-67" d="M 3008 2483 
L 2477 2483 
Q 2598 2208 2598 1946 
Q 2598 1453 2265 1203 
Q 1933 954 1600 954 
Q 1530 954 1357 973 
L 1235 986 
Q 1107 947 979 812 
Q 851 678 851 582 
Q 851 435 1350 410 
L 2176 371 
Q 2528 358 2739 172 
Q 2950 -13 2950 -314 
Q 2950 -685 2566 -986 
Q 2035 -1395 1286 -1395 
Q 826 -1395 502 -1212 
Q 179 -1030 179 -774 
Q 179 -595 320 -419 
Q 461 -243 806 6 
Q 602 102 534 172 
Q 467 243 467 346 
Q 467 531 762 787 
Q 909 915 1037 1043 
Q 717 1203 579 1401 
Q 442 1600 442 1901 
Q 442 2336 752 2640 
Q 1062 2944 1510 2944 
Q 1766 2944 2022 2848 
L 2163 2797 
Q 2349 2733 2515 2733 
L 3008 2733 
L 3008 2483 
z
M 973 2163 
L 973 2144 
Q 973 1683 1155 1398 
Q 1338 1114 1632 1114 
Q 1850 1114 1978 1270 
Q 2106 1427 2106 1690 
Q 2106 2112 1914 2464 
Q 1754 2765 1446 2765 
Q 1222 2765 1097 2605 
Q 973 2445 973 2163 
z
M 2771 -410 
Q 2771 -230 2595 -163 
Q 2419 -96 1978 -96 
Q 1344 -96 941 -13 
Q 749 -243 688 -348 
Q 627 -454 627 -563 
Q 627 -774 880 -902 
Q 1133 -1030 1555 -1030 
Q 2099 -1030 2435 -860 
Q 2771 -691 2771 -410 
z
" transform="scale(0.015625)"/>
      <path id="STIXGeneral-Regular-66" d="M 134 2880 
L 659 2880 
Q 666 3264 710 3478 
Q 755 3693 883 3910 
Q 1152 4371 1786 4371 
Q 2074 4371 2262 4259 
Q 2451 4147 2451 3974 
Q 2451 3866 2374 3789 
Q 2298 3712 2182 3712 
Q 2029 3712 1894 3942 
Q 1741 4192 1555 4192 
Q 1197 4192 1197 3622 
L 1197 2880 
L 1978 2880 
L 1978 2675 
L 1197 2675 
L 1197 666 
Q 1197 307 1299 208 
Q 1402 109 1792 96 
L 1792 0 
L 128 0 
L 128 96 
Q 474 115 566 214 
Q 659 314 659 666 
L 659 2675 
L 134 2675 
L 134 2880 
z
" transform="scale(0.015625)"/>
      <path id="STIXGeneral-Regular-47" d="M 4538 2266 
L 4538 2150 
Q 4256 2125 4173 2035 
Q 4090 1946 4090 1638 
L 4090 358 
Q 3539 -90 2464 -90 
Q 1965 -90 1507 89 
Q 1050 269 736 595 
Q 205 1152 205 2093 
Q 205 3155 890 3776 
Q 1491 4326 2419 4326 
Q 2829 4326 3270 4179 
Q 3443 4115 3552 4115 
Q 3654 4115 3731 4176 
Q 3808 4237 3840 4326 
L 3981 4326 
L 4032 2976 
L 3885 2976 
Q 3680 3475 3430 3718 
Q 3059 4070 2496 4070 
Q 1856 4070 1427 3629 
Q 934 3136 934 2074 
Q 934 1190 1395 678 
Q 1856 166 2618 166 
Q 2982 166 3225 281 
Q 3469 397 3469 557 
L 3469 1562 
Q 3469 1933 3376 2025 
Q 3283 2118 2899 2150 
L 2899 2266 
L 4538 2266 
z
" transform="scale(0.015625)"/>
      <path id="STIXGeneral-Regular-6c" d="M 1645 0 
L 134 0 
L 134 96 
Q 435 122 531 221 
Q 627 320 627 589 
L 627 3590 
Q 627 3821 569 3910 
Q 512 4000 358 4000 
Q 224 4000 122 3987 
L 122 4090 
Q 730 4237 1133 4371 
L 1165 4346 
L 1165 557 
Q 1165 288 1254 201 
Q 1344 115 1645 96 
L 1645 0 
z
" transform="scale(0.015625)"/>
      <path id="STIXGeneral-Regular-54" d="M 3795 3149 
L 3642 3149 
Q 3539 3674 3353 3821 
Q 3168 3968 2656 3968 
L 2278 3968 
L 2278 710 
Q 2278 346 2387 243 
Q 2496 141 2893 122 
L 2893 0 
L 1024 0 
L 1024 122 
Q 1427 147 1526 256 
Q 1626 365 1626 787 
L 1626 3968 
L 1242 3968 
Q 723 3968 540 3817 
Q 358 3667 262 3149 
L 109 3149 
L 154 4237 
L 3750 4237 
L 3795 3149 
z
" transform="scale(0.015625)"/>
      <path id="STIXGeneral-Regular-72" d="M 1024 2931 
L 1024 2342 
Q 1267 2688 1430 2816 
Q 1594 2944 1792 2944 
Q 1958 2944 2051 2854 
Q 2144 2765 2144 2605 
Q 2144 2470 2077 2393 
Q 2010 2317 1894 2317 
Q 1773 2317 1638 2445 
Q 1536 2541 1472 2541 
Q 1338 2541 1181 2355 
Q 1024 2170 1024 2016 
L 1024 576 
Q 1024 301 1133 205 
Q 1242 109 1568 96 
L 1568 0 
L 32 0 
L 32 96 
Q 339 154 412 224 
Q 486 294 486 538 
L 486 2138 
Q 486 2349 438 2435 
Q 390 2522 269 2522 
Q 166 2522 45 2496 
L 45 2598 
Q 448 2726 992 2944 
L 1024 2931 
z
" transform="scale(0.015625)"/>
      <path id="STIXGeneral-Regular-6e" d="M 3104 0 
L 1773 0 
L 1779 96 
Q 2016 115 2096 233 
Q 2176 352 2176 672 
L 2176 1946 
Q 2176 2592 1709 2592 
Q 1549 2592 1408 2515 
Q 1267 2438 1050 2227 
L 1050 461 
Q 1050 269 1136 192 
Q 1222 115 1466 96 
L 1466 0 
L 115 0 
L 115 96 
Q 358 115 435 214 
Q 512 314 512 602 
L 512 2157 
Q 512 2394 467 2483 
Q 422 2573 288 2573 
Q 160 2573 102 2547 
L 102 2656 
Q 550 2784 979 2944 
L 1030 2925 
L 1030 2426 
L 1037 2426 
Q 1491 2944 1958 2944 
Q 2323 2944 2518 2688 
Q 2714 2432 2714 1958 
L 2714 544 
Q 2714 288 2790 205 
Q 2867 122 3104 96 
L 3104 0 
z
" transform="scale(0.015625)"/>
      <path id="STIXGeneral-Regular-64" d="M 3142 269 
L 2202 -64 
L 2176 -45 
L 2176 365 
Q 1869 -64 1357 -64 
Q 826 -64 499 317 
Q 173 698 173 1312 
Q 173 1990 563 2467 
Q 954 2944 1504 2944 
Q 1850 2944 2176 2669 
L 2176 3667 
Q 2176 3866 2118 3930 
Q 2061 3994 1882 3994 
Q 1792 3994 1741 3987 
L 1741 4090 
Q 2323 4243 2682 4371 
L 2714 4358 
L 2714 730 
Q 2714 506 2768 435 
Q 2822 365 2995 365 
Q 3034 365 3142 371 
L 3142 269 
z
M 2176 653 
L 2176 2125 
Q 2176 2381 1981 2573 
Q 1786 2765 1523 2765 
Q 1158 2765 940 2438 
Q 723 2112 723 1568 
Q 723 979 963 624 
Q 1203 269 1606 269 
Q 1907 269 2080 474 
Q 2176 582 2176 653 
z
" transform="scale(0.015625)"/>
      <path id="STIXGeneral-Regular-73" d="M 998 1926 
L 1664 1523 
Q 1984 1331 2105 1164 
Q 2227 998 2227 736 
Q 2227 416 1961 176 
Q 1696 -64 1331 -64 
Q 1030 -64 864 -6 
Q 691 51 570 51 
Q 461 51 416 -26 
L 333 -26 
L 333 979 
L 435 979 
Q 538 512 730 294 
Q 922 77 1248 77 
Q 1485 77 1632 211 
Q 1779 346 1779 550 
Q 1779 845 1440 1030 
L 1094 1222 
Q 326 1651 326 2150 
Q 326 2522 566 2730 
Q 806 2938 1210 2938 
Q 1491 2938 1638 2867 
Q 1754 2816 1818 2816 
Q 1862 2816 1920 2880 
L 1990 2880 
L 2022 2010 
L 1926 2010 
Q 1818 2445 1654 2621 
Q 1491 2797 1203 2797 
Q 986 2797 854 2688 
Q 723 2579 723 2362 
Q 723 2253 796 2128 
Q 870 2003 998 1926 
z
" transform="scale(0.015625)"/>
      <path id="STIXGeneral-Regular-49" d="M 2016 0 
L 115 0 
L 115 122 
Q 518 134 627 240 
Q 736 346 736 717 
L 736 3526 
Q 736 3898 633 3994 
Q 531 4090 115 4115 
L 115 4237 
L 2016 4237 
L 2016 4115 
Q 1613 4096 1501 3993 
Q 1389 3891 1389 3526 
L 1389 717 
Q 1389 358 1504 246 
Q 1619 134 2016 122 
L 2016 0 
z
" transform="scale(0.015625)"/>
      <path id="STIXGeneral-Regular-78" d="M 3066 0 
L 1779 0 
L 1779 96 
Q 1939 109 1987 137 
Q 2035 166 2035 250 
Q 2035 307 1997 365 
L 1414 1261 
L 909 474 
Q 781 275 781 211 
Q 781 96 1037 96 
L 1037 0 
L 109 0 
L 109 96 
Q 269 109 355 169 
Q 442 230 576 422 
L 1306 1478 
L 704 2400 
Q 557 2624 454 2704 
Q 352 2784 211 2784 
L 154 2784 
L 154 2880 
L 1478 2880 
L 1478 2784 
Q 1203 2778 1203 2643 
Q 1203 2509 1498 2074 
Q 1581 1958 1587 1946 
Q 1619 1990 1779 2227 
Q 1811 2285 1856 2349 
Q 1901 2413 1923 2451 
Q 1946 2490 1971 2528 
Q 1997 2566 2006 2595 
Q 2016 2624 2016 2643 
Q 2016 2765 1760 2784 
L 1760 2880 
L 2771 2880 
L 2771 2784 
Q 2445 2771 2253 2502 
L 1722 1734 
L 2541 480 
Q 2790 96 3066 96 
L 3066 0 
z
" transform="scale(0.015625)"/>
     </defs>
     <use xlink:href="#STIXGeneral-Regular-4c"/>
     <use xlink:href="#STIXGeneral-Regular-6f" transform="translate(61.099991 0)"/>
     <use xlink:href="#STIXGeneral-Regular-67" transform="translate(111.099976 0)"/>
     <use xlink:href="#STIXGeneral-Regular-20" transform="translate(161.09996 0)"/>
     <use xlink:href="#STIXGeneral-Regular-6f" transform="translate(186.099945 0)"/>
     <use xlink:href="#STIXGeneral-Regular-66" transform="translate(236.09993 0)"/>
     <use xlink:href="#STIXGeneral-Regular-20" transform="translate(269.399918 0)"/>
     <use xlink:href="#STIXGeneral-Regular-47" transform="translate(294.399902 0)"/>
     <use xlink:href="#STIXGeneral-Regular-6f" transform="translate(366.599884 0)"/>
     <use xlink:href="#STIXGeneral-Regular-6f" transform="translate(416.599869 0)"/>
     <use xlink:href="#STIXGeneral-Regular-67" transform="translate(466.599854 0)"/>
     <use xlink:href="#STIXGeneral-Regular-6c" transform="translate(516.599838 0)"/>
     <use xlink:href="#STIXGeneral-Regular-65" transform="translate(544.399826 0)"/>
     <use xlink:href="#STIXGeneral-Regular-20" transform="translate(588.79982 0)"/>
     <use xlink:href="#STIXGeneral-Regular-54" transform="translate(613.799805 0)"/>
     <use xlink:href="#STIXGeneral-Regular-72" transform="translate(674.899796 0)"/>
     <use xlink:href="#STIXGeneral-Regular-65" transform="translate(708.199783 0)"/>
     <use xlink:href="#STIXGeneral-Regular-6e" transform="translate(752.599777 0)"/>
     <use xlink:href="#STIXGeneral-Regular-64" transform="translate(802.599762 0)"/>
     <use xlink:href="#STIXGeneral-Regular-73" transform="translate(852.599747 0)"/>
     <use xlink:href="#STIXGeneral-Regular-20" transform="translate(891.499741 0)"/>
     <use xlink:href="#STIXGeneral-Regular-49" transform="translate(916.499725 0)"/>
     <use xlink:href="#STIXGeneral-Regular-6e" transform="translate(949.799713 0)"/>
     <use xlink:href="#STIXGeneral-Regular-64" transform="translate(999.799698 0)"/>
     <use xlink:href="#STIXGeneral-Regular-65" transform="translate(1049.799683 0)"/>
     <use xlink:href="#STIXGeneral-Regular-78" transform="translate(1094.199677 0)"/>
    </g>
   </g>
  </g>
  <g id="text_17">
   <!-- Economics overtakes other STEM subjects in searches -->
   <g style="fill: #323034" transform="translate(7.786602 15.395625) scale(0.12 -0.12)">
    <defs>
     <path id="STIXGeneral-Regular-45" d="M 3821 1082 
L 3526 0 
L 77 0 
L 77 122 
Q 442 147 538 252 
Q 634 358 634 730 
L 634 3520 
Q 634 3878 534 3987 
Q 435 4096 77 4115 
L 77 4237 
L 3469 4237 
L 3494 3322 
L 3334 3322 
Q 3264 3750 3085 3872 
Q 2906 3994 2349 3994 
L 1510 3994 
Q 1370 3994 1328 3952 
Q 1286 3910 1286 3763 
L 1286 2355 
L 2253 2355 
Q 2656 2355 2787 2470 
Q 2918 2586 2976 2970 
L 3123 2970 
L 3123 1472 
L 2976 1472 
Q 2918 1875 2790 1984 
Q 2662 2093 2253 2093 
L 1286 2093 
L 1286 538 
Q 1286 346 1420 291 
Q 1555 237 1933 237 
L 2163 237 
Q 2848 237 3136 403 
Q 3424 570 3642 1082 
L 3821 1082 
z
" transform="scale(0.015625)"/>
     <path id="STIXGeneral-Regular-6d" d="M 4960 0 
L 3565 0 
L 3565 96 
Q 3834 122 3907 208 
Q 3981 294 3981 576 
L 3981 1894 
Q 3981 2278 3869 2444 
Q 3757 2611 3488 2611 
Q 3264 2611 3107 2521 
Q 2950 2432 2803 2221 
L 2803 608 
Q 2803 301 2896 201 
Q 2989 102 3264 96 
L 3264 0 
L 1830 0 
L 1830 96 
Q 2112 115 2189 188 
Q 2266 262 2266 550 
L 2266 1901 
Q 2266 2611 1850 2611 
Q 1670 2611 1468 2531 
Q 1267 2451 1171 2336 
Q 1088 2240 1088 2227 
L 1088 448 
Q 1088 243 1177 176 
Q 1267 109 1523 96 
L 1523 0 
L 102 0 
L 102 96 
Q 371 102 460 195 
Q 550 288 550 563 
L 550 2150 
Q 550 2387 499 2480 
Q 448 2573 326 2573 
Q 230 2573 122 2547 
L 122 2656 
Q 557 2778 1011 2944 
L 1062 2925 
L 1062 2451 
L 1075 2451 
Q 1363 2752 1584 2848 
Q 1805 2944 2054 2944 
Q 2560 2944 2733 2406 
Q 3232 2944 3776 2944 
Q 4518 2944 4518 1792 
L 4518 493 
Q 4518 282 4582 202 
Q 4646 122 4794 109 
L 4960 96 
L 4960 0 
z
" transform="scale(0.015625)"/>
     <path id="STIXGeneral-Regular-69" d="M 1152 4045 
Q 1152 3904 1056 3811 
Q 960 3718 819 3718 
Q 685 3718 592 3811 
Q 499 3904 499 4045 
Q 499 4179 595 4275 
Q 691 4371 826 4371 
Q 966 4371 1059 4275 
Q 1152 4179 1152 4045 
z
M 1619 0 
L 102 0 
L 102 96 
Q 435 115 521 211 
Q 608 307 608 666 
L 608 2118 
Q 608 2342 563 2432 
Q 518 2522 397 2522 
Q 243 2522 128 2490 
L 128 2592 
L 1120 2944 
L 1146 2918 
L 1146 672 
Q 1146 314 1226 218 
Q 1306 122 1619 96 
L 1619 0 
z
" transform="scale(0.015625)"/>
     <path id="STIXGeneral-Regular-76" d="M 3053 2880 
L 3053 2784 
Q 2906 2771 2835 2688 
Q 2765 2605 2637 2285 
L 1818 230 
Q 1690 -90 1638 -90 
Q 1587 -90 1523 77 
Q 1510 96 1497 141 
Q 1485 186 1472 211 
L 704 2048 
Q 499 2534 403 2652 
Q 307 2771 122 2784 
L 122 2880 
L 1376 2880 
L 1376 2784 
Q 1210 2771 1146 2732 
Q 1082 2694 1082 2611 
Q 1082 2509 1139 2368 
L 1792 730 
L 2426 2387 
Q 2464 2483 2464 2579 
Q 2464 2758 2163 2784 
L 2163 2880 
L 3053 2880 
z
" transform="scale(0.015625)"/>
     <path id="STIXGeneral-Regular-61" d="M 2829 422 
L 2829 243 
Q 2586 -64 2253 -64 
Q 1888 -64 1843 403 
L 1837 403 
Q 1427 -64 909 -64 
Q 608 -64 422 112 
Q 237 288 237 602 
Q 237 1050 685 1350 
Q 992 1555 1837 1869 
L 1837 2214 
Q 1837 2502 1699 2646 
Q 1562 2790 1338 2790 
Q 1146 2790 1018 2697 
Q 890 2605 890 2477 
Q 890 2419 909 2348 
Q 928 2278 928 2208 
Q 928 2112 841 2029 
Q 755 1946 634 1946 
Q 525 1946 441 2029 
Q 358 2112 358 2240 
Q 358 2547 685 2752 
Q 986 2944 1421 2944 
Q 1939 2944 2176 2656 
Q 2291 2522 2323 2384 
Q 2355 2246 2355 1946 
L 2355 723 
Q 2355 301 2554 301 
Q 2682 301 2829 422 
z
M 1837 813 
L 1837 1715 
Q 1248 1510 1018 1293 
Q 800 1094 800 800 
Q 800 557 921 432 
Q 1043 307 1242 307 
Q 1453 307 1613 410 
Q 1747 506 1792 589 
Q 1837 672 1837 813 
z
" transform="scale(0.015625)"/>
     <path id="STIXGeneral-Regular-6b" d="M 3232 0 
L 1837 0 
L 1837 96 
L 1958 96 
Q 2093 96 2093 192 
Q 2093 250 2022 339 
L 1062 1606 
L 1062 429 
Q 1062 262 1142 185 
Q 1222 109 1414 102 
L 1542 96 
L 1542 0 
L 45 0 
L 45 96 
Q 390 154 457 214 
Q 525 275 525 525 
L 525 3610 
Q 525 3840 467 3920 
Q 410 4000 250 4000 
Q 211 4000 45 3987 
L 45 4090 
L 237 4141 
Q 621 4243 1037 4371 
L 1062 4358 
L 1062 1670 
L 1939 2451 
Q 2086 2586 2086 2675 
Q 2086 2739 2019 2761 
Q 1952 2784 1766 2790 
L 1766 2880 
L 3072 2880 
L 3072 2784 
Q 2752 2784 2505 2646 
Q 2259 2509 1690 1978 
L 1504 1805 
L 2483 563 
Q 2829 122 3232 96 
L 3232 0 
z
" transform="scale(0.015625)"/>
     <path id="STIXGeneral-Regular-68" d="M 3117 0 
L 1760 0 
L 1760 96 
Q 2042 128 2118 224 
Q 2195 320 2195 653 
L 2195 1920 
Q 2195 2598 1722 2598 
Q 1530 2598 1370 2508 
Q 1210 2419 1005 2195 
L 1005 653 
Q 1005 320 1081 224 
Q 1158 128 1440 96 
L 1440 0 
L 58 0 
L 58 96 
Q 333 134 400 224 
Q 467 314 467 653 
L 467 3667 
Q 467 3872 406 3933 
Q 346 3994 141 3994 
Q 83 3994 64 3987 
L 64 4090 
L 237 4141 
Q 730 4288 973 4371 
L 1005 4352 
L 1005 2406 
Q 1229 2694 1446 2819 
Q 1664 2944 1946 2944 
Q 2733 2944 2733 1926 
L 2733 653 
Q 2733 320 2793 233 
Q 2854 147 3117 96 
L 3117 0 
z
" transform="scale(0.015625)"/>
     <path id="STIXGeneral-Regular-4d" d="M 5530 0 
L 3738 0 
L 3738 122 
Q 4115 147 4214 265 
Q 4314 384 4314 787 
L 4314 3661 
L 2682 0 
L 2592 0 
L 979 3514 
L 979 966 
Q 979 448 1088 294 
Q 1197 141 1574 122 
L 1574 0 
L 77 0 
L 77 122 
Q 358 141 480 205 
Q 602 269 650 432 
Q 698 595 698 966 
L 698 3514 
Q 698 3878 589 3984 
Q 480 4090 90 4115 
L 90 4237 
L 1357 4237 
L 2835 1024 
L 4250 4237 
L 5523 4237 
L 5523 4115 
Q 5178 4109 5072 3993 
Q 4966 3878 4966 3520 
L 4966 717 
Q 4966 378 5072 262 
Q 5178 147 5530 122 
L 5530 0 
z
" transform="scale(0.015625)"/>
     <path id="STIXGeneral-Regular-75" d="M 3072 320 
L 3072 230 
Q 2573 96 2195 -58 
L 2163 -38 
L 2163 486 
L 2150 486 
Q 1747 -64 1235 -64 
Q 870 -64 662 160 
Q 454 384 454 755 
L 454 2362 
Q 454 2598 371 2688 
Q 288 2778 58 2790 
L 58 2880 
L 992 2880 
L 992 813 
Q 992 595 1123 451 
Q 1254 307 1446 307 
Q 1760 307 1984 506 
Q 2067 582 2099 649 
Q 2131 717 2131 877 
L 2131 2355 
Q 2131 2605 2041 2678 
Q 1952 2752 1658 2771 
L 1658 2880 
L 2669 2880 
L 2669 685 
Q 2669 461 2742 390 
Q 2816 320 3034 320 
L 3072 320 
z
" transform="scale(0.015625)"/>
     <path id="STIXGeneral-Regular-62" d="M 979 4358 
L 979 2406 
Q 1082 2650 1315 2797 
Q 1549 2944 1843 2944 
Q 2349 2944 2672 2541 
Q 2995 2138 2995 1536 
Q 2995 832 2566 384 
Q 2138 -64 1498 -64 
Q 1107 -64 774 67 
Q 442 198 442 358 
L 442 3622 
Q 442 3859 384 3926 
Q 326 3994 128 3994 
Q 83 3994 19 3981 
L 19 4090 
L 211 4147 
Q 864 4346 947 4371 
L 979 4358 
z
M 979 2035 
L 979 474 
Q 979 326 1161 233 
Q 1344 141 1600 141 
Q 1978 141 2195 416 
Q 2432 710 2432 1261 
Q 2432 1888 2182 2240 
Q 1971 2541 1613 2541 
Q 1357 2541 1168 2390 
Q 979 2240 979 2035 
z
" transform="scale(0.015625)"/>
     <path id="STIXGeneral-Regular-6a" d="M 1242 4045 
Q 1242 3904 1146 3811 
Q 1050 3718 909 3718 
Q 774 3718 681 3811 
Q 589 3904 589 4045 
Q 589 4179 685 4275 
Q 781 4371 915 4371 
Q 1050 4371 1146 4275 
Q 1242 4179 1242 4045 
z
M 1235 2925 
L 1235 0 
Q 1235 -685 956 -1040 
Q 678 -1395 147 -1395 
Q -115 -1395 -281 -1296 
Q -448 -1197 -448 -1043 
Q -448 -941 -371 -867 
Q -294 -794 -186 -794 
Q -38 -794 122 -998 
Q 269 -1178 390 -1178 
Q 538 -1178 608 -1062 
Q 698 -902 698 -288 
L 698 2138 
Q 698 2522 493 2522 
Q 339 2522 237 2502 
L 205 2496 
L 205 2598 
Q 717 2758 1203 2944 
L 1235 2925 
z
" transform="scale(0.015625)"/>
    </defs>
    <use xlink:href="#STIXGeneral-Regular-45"/>
    <use xlink:href="#STIXGeneral-Regular-63" transform="translate(61.099991 0)"/>
    <use xlink:href="#STIXGeneral-Regular-6f" transform="translate(105.499985 0)"/>
    <use xlink:href="#STIXGeneral-Regular-6e" transform="translate(155.499969 0)"/>
    <use xlink:href="#STIXGeneral-Regular-6f" transform="translate(205.499954 0)"/>
    <use xlink:href="#STIXGeneral-Regular-6d" transform="translate(255.499939 0)"/>
    <use xlink:href="#STIXGeneral-Regular-69" transform="translate(333.299927 0)"/>
    <use xlink:href="#STIXGeneral-Regular-63" transform="translate(361.099915 0)"/>
    <use xlink:href="#STIXGeneral-Regular-73" transform="translate(405.499908 0)"/>
    <use xlink:href="#STIXGeneral-Regular-20" transform="translate(444.399902 0)"/>
    <use xlink:href="#STIXGeneral-Regular-6f" transform="translate(469.399887 0)"/>
    <use xlink:href="#STIXGeneral-Regular-76" transform="translate(519.399872 0)"/>
    <use xlink:href="#STIXGeneral-Regular-65" transform="translate(569.399857 0)"/>
    <use xlink:href="#STIXGeneral-Regular-72" transform="translate(613.79985 0)"/>
    <use xlink:href="#STIXGeneral-Regular-74" transform="translate(647.099838 0)"/>
    <use xlink:href="#STIXGeneral-Regular-61" transform="translate(674.899826 0)"/>
    <use xlink:href="#STIXGeneral-Regular-6b" transform="translate(719.29982 0)"/>
    <use xlink:href="#STIXGeneral-Regular-65" transform="translate(769.299805 0)"/>
    <use xlink:href="#STIXGeneral-Regular-73" transform="translate(813.699799 0)"/>
    <use xlink:href="#STIXGeneral-Regular-20" transform="translate(852.599792 0)"/>
    <use xlink:href="#STIXGeneral-Regular-6f" transform="translate(877.599777 0)"/>
    <use xlink:href="#STIXGeneral-Regular-74" transform="translate(927.599762 0)"/>
    <use xlink:href="#STIXGeneral-Regular-68" transform="translate(955.39975 0)"/>
    <use xlink:href="#STIXGeneral-Regular-65" transform="translate(1005.399734 0)"/>
    <use xlink:href="#STIXGeneral-Regular-72" transform="translate(1049.799728 0)"/>
    <use xlink:href="#STIXGeneral-Regular-20" transform="translate(1083.099716 0)"/>
    <use xlink:href="#STIXGeneral-Regular-53" transform="translate(1108.099701 0)"/>
    <use xlink:href="#STIXGeneral-Regular-54" transform="translate(1163.699692 0)"/>
    <use xlink:href="#STIXGeneral-Regular-45" transform="translate(1224.799683 0)"/>
    <use xlink:href="#STIXGeneral-Regular-4d" transform="translate(1285.899673 0)"/>
    <use xlink:href="#STIXGeneral-Regular-20" transform="translate(1374.799667 0)"/>
    <use xlink:href="#STIXGeneral-Regular-73" transform="translate(1399.799652 0)"/>
    <use xlink:href="#STIXGeneral-Regular-75" transform="translate(1438.699646 0)"/>
    <use xlink:href="#STIXGeneral-Regular-62" transform="translate(1488.699631 0)"/>
    <use xlink:href="#STIXGeneral-Regular-6a" transform="translate(1538.699615 0)"/>
    <use xlink:href="#STIXGeneral-Regular-65" transform="translate(1566.499603 0)"/>
    <use xlink:href="#STIXGeneral-Regular-63" transform="translate(1610.899597 0)"/>
    <use xlink:href="#STIXGeneral-Regular-74" transform="translate(1655.299591 0)"/>
    <use xlink:href="#STIXGeneral-Regular-73" transform="translate(1683.099579 0)"/>
    <use xlink:href="#STIXGeneral-Regular-20" transform="translate(1721.999573 0)"/>
    <use xlink:href="#STIXGeneral-Regular-69" transform="translate(1746.999557 0)"/>
    <use xlink:href="#STIXGeneral-Regular-6e" transform="translate(1774.799545 0)"/>
    <use xlink:href="#STIXGeneral-Regular-20" transform="translate(1824.79953 0)"/>
    <use xlink:href="#STIXGeneral-Regular-73" transform="translate(1849.799515 0)"/>
    <use xlink:href="#STIXGeneral-Regular-65" transform="translate(1888.699509 0)"/>
    <use xlink:href="#STIXGeneral-Regular-61" transform="translate(1933.099503 0)"/>
    <use xlink:href="#STIXGeneral-Regular-72" transform="translate(1977.499496 0)"/>
    <use xlink:href="#STIXGeneral-Regular-63" transform="translate(2010.799484 0)"/>
    <use xlink:href="#STIXGeneral-Regular-68" transform="translate(2055.199478 0)"/>
    <use xlink:href="#STIXGeneral-Regular-65" transform="translate(2105.199463 0)"/>
    <use xlink:href="#STIXGeneral-Regular-73" transform="translate(2149.599457 0)"/>
   </g>
  </g>
 </g>
 <defs>
  <clipPath id="p3648b8a8cd">
   <rect x="10.666602" y="36" width="446.4" height="221.76"/>
  </clipPath>
 </defs>
</svg>