<?xml version="1.0" encoding="utf-8" standalone="no"?>
<!DOCTYPE svg PUBLIC "-//W3C//DTD SVG 1.1//EN"
  "http://www.w3.org/Graphics/SVG/1.1/DTD/svg11.dtd">
<svg xmlns:xlink="http://www.w3.org/1999/xlink" width="526.79952pt" height="353.99952pt" viewBox="0 0 526.79952 353.99952" xmlns="http://www.w3.org/2000/svg" version="1.1">
 <metadata>
  <rdf:RDF xmlns:dc="http://purl.org/dc/elements/1.1/" xmlns:cc="http://creativecommons.org/ns#" xmlns:rdf="http://www.w3.org/1999/02/22-rdf-syntax-ns#">
   <cc:Work>
    <dc:type rdf:resource="http://purl.org/dc/dcmitype/StillImage"/>
    <dc:date>2025-01-03T01:02:12.518031</dc:date>
    <dc:format>image/svg+xml</dc:format>
    <dc:creator>
     <cc:Agent>
      <dc:title>Matplotlib v3.9.4, https://matplotlib.org/</dc:title>
     </cc:Agent>
    </dc:creator>
   </cc:Work>
  </rdf:RDF>
 </metadata>
 <defs>
  <style type="text/css">*{stroke-linejoin: round; stroke-linecap: butt}</style>
 </defs>
 <g id="figure_1">
  <g id="patch_1">
   <path d="M 0 353.99952 
L 526.79952 353.99952 
L 526.79952 0 
L 0 0 
z
" style="fill: #ffffff"/>
  </g>
  <g id="axes_1">
   <g id="patch_2">
    <path d="M 61.36 314.19952 
L 516.09952 314.19952 
L 516.09952 24.1275 
L 61.36 24.1275 
z
" style="fill: #eeeeee"/>
   </g>
   <g id="matplotlib.axis_1">
    <g id="xtick_1">
     <g id="line2d_1">
      <path d="M 61.36 314.19952 
L 61.36 24.1275 
" clip-path="url(#p10fd910d12)" style="fill: none; stroke: #ffffff; stroke-width: 0.8; stroke-linecap: round"/>
     </g>
     <g id="line2d_2"/>
     <g id="text_1">
      <!-- $\mathdefault{−3}$ -->
      <g style="fill: #262626" transform="translate(53.03 327.261082) scale(0.14 -0.14)">
       <defs>
        <path id="STIXGeneral-Regular-2212" d="M 3974 1408 
L 410 1408 
L 410 1830 
L 3974 1830 
L 3974 1408 
z
" transform="scale(0.015625)"/>
        <path id="STIXGeneral-Regular-33" d="M 390 3264 
L 288 3290 
Q 435 3770 748 4048 
Q 1062 4326 1542 4326 
Q 1990 4326 2265 4083 
Q 2541 3840 2541 3450 
Q 2541 2925 1946 2566 
Q 2298 2413 2477 2227 
Q 2758 1914 2758 1402 
Q 2758 890 2464 506 
Q 2246 211 1840 60 
Q 1434 -90 979 -90 
Q 262 -90 262 275 
Q 262 378 339 442 
Q 416 506 525 506 
Q 685 506 915 339 
Q 1197 141 1466 141 
Q 1818 141 2058 425 
Q 2298 710 2298 1120 
Q 2298 1856 1632 2048 
Q 1434 2112 979 2112 
L 979 2202 
Q 1338 2323 1517 2432 
Q 2035 2726 2035 3290 
Q 2035 3610 1852 3776 
Q 1670 3942 1344 3942 
Q 768 3942 390 3264 
z
" transform="scale(0.015625)"/>
       </defs>
       <use xlink:href="#STIXGeneral-Regular-2212" transform="translate(0 0.40625)"/>
       <use xlink:href="#STIXGeneral-Regular-33" transform="translate(68.499985 0.40625)"/>
      </g>
     </g>
    </g>
    <g id="xtick_2">
     <g id="line2d_3">
      <path d="M 137.14992 314.19952 
L 137.14992 24.1275 
" clip-path="url(#p10fd910d12)" style="fill: none; stroke: #ffffff; stroke-width: 0.8; stroke-linecap: round"/>
     </g>
     <g id="line2d_4"/>
     <g id="text_2">
      <!-- $\mathdefault{−2}$ -->
      <g style="fill: #262626" transform="translate(128.81992 327.261082) scale(0.14 -0.14)">
       <defs>
        <path id="STIXGeneral-Regular-32" d="M 3034 877 
L 2688 0 
L 186 0 
L 186 77 
L 1325 1286 
Q 1773 1754 1965 2144 
Q 2157 2534 2157 2950 
Q 2157 3379 1920 3616 
Q 1683 3853 1267 3853 
Q 922 3853 720 3673 
Q 518 3494 326 3021 
L 192 3053 
Q 301 3648 630 3987 
Q 960 4326 1523 4326 
Q 2054 4326 2380 4006 
Q 2707 3686 2707 3200 
Q 2707 2477 1888 1613 
L 832 486 
L 2330 486 
Q 2541 486 2665 569 
Q 2790 653 2944 915 
L 3034 877 
z
" transform="scale(0.015625)"/>
       </defs>
       <use xlink:href="#STIXGeneral-Regular-2212" transform="translate(0 0.40625)"/>
       <use xlink:href="#STIXGeneral-Regular-32" transform="translate(68.499985 0.40625)"/>
      </g>
     </g>
    </g>
    <g id="xtick_3">
     <g id="line2d_5">
      <path d="M 212.93984 314.19952 
L 212.93984 24.1275 
" clip-path="url(#p10fd910d12)" style="fill: none; stroke: #ffffff; stroke-width: 0.8; stroke-linecap: round"/>
     </g>
     <g id="line2d_6"/>
     <g id="text_3">
      <!-- $\mathdefault{−1}$ -->
      <g style="fill: #262626" transform="translate(204.60984 327.261082) scale(0.14 -0.14)">
       <defs>
        <path id="STIXGeneral-Regular-31" d="M 2522 0 
L 755 0 
L 755 96 
Q 1107 115 1235 227 
Q 1363 339 1363 608 
L 1363 3482 
Q 1363 3795 1171 3795 
Q 1082 3795 883 3718 
L 710 3654 
L 710 3744 
L 1856 4326 
L 1914 4307 
L 1914 486 
Q 1914 275 2042 185 
Q 2170 96 2522 96 
L 2522 0 
z
" transform="scale(0.015625)"/>
       </defs>
       <use xlink:href="#STIXGeneral-Regular-2212" transform="translate(0 0.40625)"/>
       <use xlink:href="#STIXGeneral-Regular-31" transform="translate(68.499985 0.40625)"/>
      </g>
     </g>
    </g>
    <g id="xtick_4">
     <g id="line2d_7">
      <path d="M 288.72976 314.19952 
L 288.72976 24.1275 
" clip-path="url(#p10fd910d12)" style="fill: none; stroke: #ffffff; stroke-width: 0.8; stroke-linecap: round"/>
     </g>
     <g id="line2d_8"/>
     <g id="text_4">
      <!-- $\mathdefault{0}$ -->
      <g style="fill: #262626" transform="translate(285.22976 327.261082) scale(0.14 -0.14)">
       <defs>
        <path id="STIXGeneral-Regular-30" d="M 3046 2112 
Q 3046 1683 2963 1302 
Q 2880 922 2717 602 
Q 2554 282 2266 96 
Q 1978 -90 1600 -90 
Q 1210 -90 915 108 
Q 621 307 461 640 
Q 301 973 227 1350 
Q 154 1728 154 2150 
Q 154 2746 301 3222 
Q 448 3699 790 4012 
Q 1133 4326 1626 4326 
Q 2253 4326 2649 3712 
Q 3046 3098 3046 2112 
z
M 2432 2080 
Q 2432 3091 2217 3625 
Q 2003 4160 1587 4160 
Q 1190 4160 979 3622 
Q 768 3085 768 2106 
Q 768 1120 979 598 
Q 1190 77 1600 77 
Q 2003 77 2217 598 
Q 2432 1120 2432 2080 
z
" transform="scale(0.015625)"/>
       </defs>
       <use xlink:href="#STIXGeneral-Regular-30" transform="translate(0 0.40625)"/>
      </g>
     </g>
    </g>
    <g id="xtick_5">
     <g id="line2d_9">
      <path d="M 364.51968 314.19952 
L 364.51968 24.1275 
" clip-path="url(#p10fd910d12)" style="fill: none; stroke: #ffffff; stroke-width: 0.8; stroke-linecap: round"/>
     </g>
     <g id="line2d_10"/>
     <g id="text_5">
      <!-- $\mathdefault{1}$ -->
      <g style="fill: #262626" transform="translate(361.01968 327.261082) scale(0.14 -0.14)">
       <use xlink:href="#STIXGeneral-Regular-31" transform="translate(0 0.40625)"/>
      </g>
     </g>
    </g>
    <g id="xtick_6">
     <g id="line2d_11">
      <path d="M 440.3096 314.19952 
L 440.3096 24.1275 
" clip-path="url(#p10fd910d12)" style="fill: none; stroke: #ffffff; stroke-width: 0.8; stroke-linecap: round"/>
     </g>
     <g id="line2d_12"/>
     <g id="text_6">
      <!-- $\mathdefault{2}$ -->
      <g style="fill: #262626" transform="translate(436.8096 327.261082) scale(0.14 -0.14)">
       <use xlink:href="#STIXGeneral-Regular-32" transform="translate(0 0.40625)"/>
      </g>
     </g>
    </g>
    <g id="xtick_7">
     <g id="line2d_13">
      <path d="M 516.09952 314.19952 
L 516.09952 24.1275 
" clip-path="url(#p10fd910d12)" style="fill: none; stroke: #ffffff; stroke-width: 0.8; stroke-linecap: round"/>
     </g>
     <g id="line2d_14"/>
     <g id="text_7">
      <!-- $\mathdefault{3}$ -->
      <g style="fill: #262626" transform="translate(512.59952 327.261082) scale(0.14 -0.14)">
       <use xlink:href="#STIXGeneral-Regular-33" transform="translate(0 0.40625)"/>
      </g>
     </g>
    </g>
    <g id="text_8">
     <!-- Predictor (X) -->
     <g style="fill: #262626" transform="translate(248.94226 343.544051) scale(0.15 -0.15)">
      <defs>
       <path id="STIXGeneral-Regular-50" d="M 102 4237 
L 1760 4237 
Q 2669 4237 3149 3834 
Q 3469 3565 3469 3072 
Q 3469 2560 3104 2234 
Q 2835 1990 2553 1916 
Q 2272 1843 1734 1843 
Q 1549 1843 1293 1862 
L 1293 717 
Q 1293 352 1398 246 
Q 1504 141 1894 122 
L 1894 0 
L 102 0 
L 102 122 
Q 474 147 557 256 
Q 640 365 640 781 
L 640 3526 
Q 640 3885 547 3987 
Q 454 4090 102 4115 
L 102 4237 
z
M 1293 3770 
L 1293 2118 
Q 1510 2099 1683 2099 
Q 2202 2099 2486 2352 
Q 2771 2605 2771 3040 
Q 2771 3558 2476 3779 
Q 2182 4000 1517 4000 
Q 1382 4000 1337 3952 
Q 1293 3904 1293 3770 
z
" transform="scale(0.015625)"/>
       <path id="STIXGeneral-Regular-72" d="M 1024 2931 
L 1024 2342 
Q 1267 2688 1430 2816 
Q 1594 2944 1792 2944 
Q 1958 2944 2051 2854 
Q 2144 2765 2144 2605 
Q 2144 2470 2077 2393 
Q 2010 2317 1894 2317 
Q 1773 2317 1638 2445 
Q 1536 2541 1472 2541 
Q 1338 2541 1181 2355 
Q 1024 2170 1024 2016 
L 1024 576 
Q 1024 301 1133 205 
Q 1242 109 1568 96 
L 1568 0 
L 32 0 
L 32 96 
Q 339 154 412 224 
Q 486 294 486 538 
L 486 2138 
Q 486 2349 438 2435 
Q 390 2522 269 2522 
Q 166 2522 45 2496 
L 45 2598 
Q 448 2726 992 2944 
L 1024 2931 
z
" transform="scale(0.015625)"/>
       <path id="STIXGeneral-Regular-65" d="M 2611 1050 
L 2714 1005 
Q 2330 -64 1376 -64 
Q 813 -64 486 329 
Q 160 723 160 1389 
Q 160 2074 525 2509 
Q 890 2944 1485 2944 
Q 2061 2944 2374 2502 
Q 2560 2246 2592 1773 
L 621 1773 
Q 646 1370 700 1158 
Q 755 947 915 730 
Q 1184 378 1626 378 
Q 1939 378 2153 531 
Q 2368 685 2611 1050 
z
M 634 1978 
L 1939 1978 
Q 1882 2381 1750 2547 
Q 1619 2714 1312 2714 
Q 1043 2714 864 2525 
Q 685 2336 634 1978 
z
" transform="scale(0.015625)"/>
       <path id="STIXGeneral-Regular-64" d="M 3142 269 
L 2202 -64 
L 2176 -45 
L 2176 365 
Q 1869 -64 1357 -64 
Q 826 -64 499 317 
Q 173 698 173 1312 
Q 173 1990 563 2467 
Q 954 2944 1504 2944 
Q 1850 2944 2176 2669 
L 2176 3667 
Q 2176 3866 2118 3930 
Q 2061 3994 1882 3994 
Q 1792 3994 1741 3987 
L 1741 4090 
Q 2323 4243 2682 4371 
L 2714 4358 
L 2714 730 
Q 2714 506 2768 435 
Q 2822 365 2995 365 
Q 3034 365 3142 371 
L 3142 269 
z
M 2176 653 
L 2176 2125 
Q 2176 2381 1981 2573 
Q 1786 2765 1523 2765 
Q 1158 2765 940 2438 
Q 723 2112 723 1568 
Q 723 979 963 624 
Q 1203 269 1606 269 
Q 1907 269 2080 474 
Q 2176 582 2176 653 
z
" transform="scale(0.015625)"/>
       <path id="STIXGeneral-Regular-69" d="M 1152 4045 
Q 1152 3904 1056 3811 
Q 960 3718 819 3718 
Q 685 3718 592 3811 
Q 499 3904 499 4045 
Q 499 4179 595 4275 
Q 691 4371 826 4371 
Q 966 4371 1059 4275 
Q 1152 4179 1152 4045 
z
M 1619 0 
L 102 0 
L 102 96 
Q 435 115 521 211 
Q 608 307 608 666 
L 608 2118 
Q 608 2342 563 2432 
Q 518 2522 397 2522 
Q 243 2522 128 2490 
L 128 2592 
L 1120 2944 
L 1146 2918 
L 1146 672 
Q 1146 314 1226 218 
Q 1306 122 1619 96 
L 1619 0 
z
" transform="scale(0.015625)"/>
       <path id="STIXGeneral-Regular-63" d="M 2547 998 
L 2637 941 
Q 2362 403 2112 205 
Q 1786 -64 1376 -64 
Q 845 -64 502 336 
Q 160 736 160 1357 
Q 160 2170 698 2618 
Q 1094 2944 1562 2944 
Q 1965 2944 2256 2749 
Q 2547 2554 2547 2285 
Q 2547 2176 2457 2096 
Q 2368 2016 2246 2016 
Q 2022 2016 1939 2310 
L 1901 2451 
Q 1850 2630 1773 2694 
Q 1696 2758 1523 2758 
Q 1133 2758 893 2451 
Q 653 2144 653 1645 
Q 653 1094 928 745 
Q 1203 397 1645 397 
Q 1920 397 2118 528 
Q 2317 659 2547 998 
z
" transform="scale(0.015625)"/>
       <path id="STIXGeneral-Regular-74" d="M 1702 493 
L 1786 422 
Q 1478 -64 1011 -64 
Q 448 -64 448 749 
L 448 2675 
L 109 2675 
Q 83 2694 83 2720 
Q 83 2771 192 2842 
Q 435 2982 813 3526 
Q 826 3546 874 3606 
Q 922 3667 941 3706 
Q 986 3706 986 3622 
L 986 2880 
L 1632 2880 
L 1632 2675 
L 986 2675 
L 986 845 
Q 986 538 1062 403 
Q 1139 269 1318 269 
Q 1510 269 1702 493 
z
" transform="scale(0.015625)"/>
       <path id="STIXGeneral-Regular-6f" d="M 3008 1478 
Q 3008 806 2608 371 
Q 2208 -64 1568 -64 
Q 979 -64 582 368 
Q 186 800 186 1459 
Q 186 2125 582 2534 
Q 979 2944 1626 2944 
Q 2221 2944 2614 2537 
Q 3008 2131 3008 1478 
z
M 2432 1306 
Q 2432 2035 2112 2445 
Q 1856 2765 1504 2765 
Q 1171 2765 966 2493 
Q 762 2221 762 1747 
Q 762 928 1101 435 
Q 1318 115 1677 115 
Q 2029 115 2230 432 
Q 2432 749 2432 1306 
z
" transform="scale(0.015625)"/>
       <path id="STIXGeneral-Regular-20" transform="scale(0.015625)"/>
       <path id="STIXGeneral-Regular-28" d="M 1946 -1030 
L 1869 -1133 
Q 1126 -710 716 32 
Q 307 774 307 1613 
Q 307 3386 1888 4326 
L 1946 4224 
Q 1293 3667 1075 3126 
Q 858 2586 858 1632 
Q 858 685 1082 96 
Q 1306 -493 1946 -1030 
z
" transform="scale(0.015625)"/>
       <path id="STIXGeneral-Regular-58" d="M 4506 0 
L 2611 0 
L 2611 122 
L 2778 134 
Q 3098 154 3098 320 
Q 3098 461 2771 947 
L 2163 1850 
L 1402 896 
Q 1062 474 1062 326 
Q 1062 230 1168 185 
Q 1274 141 1549 122 
L 1549 0 
L 64 0 
L 64 122 
Q 314 147 470 268 
Q 627 390 992 851 
L 1990 2099 
L 1312 3091 
Q 864 3744 665 3913 
Q 467 4083 141 4115 
L 141 4237 
L 2067 4237 
L 2067 4115 
L 1882 4109 
Q 1734 4102 1660 4064 
Q 1587 4026 1587 3923 
Q 1587 3885 1596 3843 
Q 1606 3802 1635 3744 
Q 1664 3686 1689 3638 
Q 1715 3590 1769 3507 
Q 1824 3424 1862 3366 
Q 1901 3309 1984 3190 
Q 2067 3072 2118 2995 
L 2400 2586 
L 3117 3482 
Q 3373 3795 3373 3910 
Q 3373 4019 3283 4064 
Q 3194 4109 2938 4115 
L 2938 4237 
L 4454 4237 
L 4454 4115 
Q 4147 4096 3968 3977 
Q 3789 3859 3482 3482 
L 2566 2349 
L 3795 595 
Q 3981 326 4115 240 
Q 4250 154 4506 122 
L 4506 0 
z
" transform="scale(0.015625)"/>
       <path id="STIXGeneral-Regular-29" d="M 186 4224 
L 262 4326 
Q 992 3891 1408 3148 
Q 1824 2406 1824 1581 
Q 1824 -166 243 -1133 
L 186 -1030 
Q 845 -486 1059 54 
Q 1274 595 1274 1562 
Q 1274 2534 1059 3120 
Q 845 3706 186 4224 
z
" transform="scale(0.015625)"/>
      </defs>
      <use xlink:href="#STIXGeneral-Regular-50"/>
      <use xlink:href="#STIXGeneral-Regular-72" x="55.699997"/>
      <use xlink:href="#STIXGeneral-Regular-65" x="88.999985"/>
      <use xlink:href="#STIXGeneral-Regular-64" x="133.399979"/>
      <use xlink:href="#STIXGeneral-Regular-69" x="183.399963"/>
      <use xlink:href="#STIXGeneral-Regular-63" x="211.199951"/>
      <use xlink:href="#STIXGeneral-Regular-74" x="255.599945"/>
      <use xlink:href="#STIXGeneral-Regular-6f" x="283.399933"/>
      <use xlink:href="#STIXGeneral-Regular-72" x="333.399918"/>
      <use xlink:href="#STIXGeneral-Regular-20" x="366.699905"/>
      <use xlink:href="#STIXGeneral-Regular-28" x="391.69989"/>
      <use xlink:href="#STIXGeneral-Regular-58" x="424.999878"/>
      <use xlink:href="#STIXGeneral-Regular-29" x="497.19986"/>
     </g>
    </g>
   </g>
   <g id="matplotlib.axis_2">
    <g id="ytick_1">
     <g id="line2d_15">
      <path d="M 61.36 314.19952 
L 516.09952 314.19952 
" clip-path="url(#p10fd910d12)" style="fill: none; stroke: #ffffff; stroke-width: 0.8; stroke-linecap: round"/>
     </g>
     <g id="line2d_16"/>
     <g id="text_9">
      <!-- $\mathdefault{−10.0}$ -->
      <g style="fill: #262626" transform="translate(23.7 318.980301) scale(0.14 -0.14)">
       <defs>
        <path id="STIXGeneral-Regular-2e" d="M 1158 275 
Q 1158 134 1052 32 
Q 947 -70 800 -70 
Q 653 -70 550 32 
Q 448 134 448 281 
Q 448 429 553 534 
Q 659 640 806 640 
Q 947 640 1052 531 
Q 1158 422 1158 275 
z
" transform="scale(0.015625)"/>
       </defs>
       <use xlink:href="#STIXGeneral-Regular-2212" transform="translate(0 0.40625)"/>
       <use xlink:href="#STIXGeneral-Regular-31" transform="translate(68.499985 0.40625)"/>
       <use xlink:href="#STIXGeneral-Regular-30" transform="translate(118.499969 0.40625)"/>
       <use xlink:href="#STIXGeneral-Regular-2e" transform="translate(168.499954 0.40625)"/>
       <use xlink:href="#STIXGeneral-Regular-30" transform="translate(193.499939 0.40625)"/>
      </g>
     </g>
    </g>
    <g id="ytick_2">
     <g id="line2d_17">
      <path d="M 61.36 281.969296 
L 516.09952 281.969296 
" clip-path="url(#p10fd910d12)" style="fill: none; stroke: #ffffff; stroke-width: 0.8; stroke-linecap: round"/>
     </g>
     <g id="line2d_18"/>
     <g id="text_10">
      <!-- $\mathdefault{−7.5}$ -->
      <g style="fill: #262626" transform="translate(30.7 286.750077) scale(0.14 -0.14)">
       <defs>
        <path id="STIXGeneral-Regular-37" d="M 2874 4134 
L 1517 -51 
L 1101 -51 
L 2368 3763 
L 992 3763 
Q 717 3763 582 3667 
Q 448 3571 243 3238 
L 128 3296 
L 512 4237 
L 2874 4237 
L 2874 4134 
z
" transform="scale(0.015625)"/>
        <path id="STIXGeneral-Regular-35" d="M 2803 4358 
L 2573 3814 
Q 2534 3731 2400 3731 
L 1158 3731 
L 902 3187 
Q 1606 3053 1920 2896 
Q 2234 2739 2502 2368 
Q 2726 2061 2726 1555 
Q 2726 1094 2576 780 
Q 2426 467 2099 224 
Q 1664 -90 1011 -90 
Q 646 -90 422 19 
Q 198 128 198 307 
Q 198 550 486 550 
Q 717 550 960 352 
Q 1210 147 1414 147 
Q 1747 147 2012 480 
Q 2278 813 2278 1229 
Q 2278 1843 1850 2189 
Q 1293 2637 486 2637 
Q 410 2637 410 2688 
L 416 2720 
L 1114 4237 
L 2438 4237 
Q 2547 4237 2608 4269 
Q 2669 4301 2746 4403 
L 2803 4358 
z
" transform="scale(0.015625)"/>
       </defs>
       <use xlink:href="#STIXGeneral-Regular-2212" transform="translate(0 0.203125)"/>
       <use xlink:href="#STIXGeneral-Regular-37" transform="translate(68.499985 0.203125)"/>
       <use xlink:href="#STIXGeneral-Regular-2e" transform="translate(118.499969 0.203125)"/>
       <use xlink:href="#STIXGeneral-Regular-35" transform="translate(143.499954 0.203125)"/>
      </g>
     </g>
    </g>
    <g id="ytick_3">
     <g id="line2d_19">
      <path d="M 61.36 249.739071 
L 516.09952 249.739071 
" clip-path="url(#p10fd910d12)" style="fill: none; stroke: #ffffff; stroke-width: 0.8; stroke-linecap: round"/>
     </g>
     <g id="line2d_20"/>
     <g id="text_11">
      <!-- $\mathdefault{−5.0}$ -->
      <g style="fill: #262626" transform="translate(30.7 254.519852) scale(0.14 -0.14)">
       <use xlink:href="#STIXGeneral-Regular-2212" transform="translate(0 0.203125)"/>
       <use xlink:href="#STIXGeneral-Regular-35" transform="translate(68.499985 0.203125)"/>
       <use xlink:href="#STIXGeneral-Regular-2e" transform="translate(118.499969 0.203125)"/>
       <use xlink:href="#STIXGeneral-Regular-30" transform="translate(143.499954 0.203125)"/>
      </g>
     </g>
    </g>
    <g id="ytick_4">
     <g id="line2d_21">
      <path d="M 61.36 217.508847 
L 516.09952 217.508847 
" clip-path="url(#p10fd910d12)" style="fill: none; stroke: #ffffff; stroke-width: 0.8; stroke-linecap: round"/>
     </g>
     <g id="line2d_22"/>
     <g id="text_12">
      <!-- $\mathdefault{−2.5}$ -->
      <g style="fill: #262626" transform="translate(30.7 222.289628) scale(0.14 -0.14)">
       <use xlink:href="#STIXGeneral-Regular-2212" transform="translate(0 0.203125)"/>
       <use xlink:href="#STIXGeneral-Regular-32" transform="translate(68.499985 0.203125)"/>
       <use xlink:href="#STIXGeneral-Regular-2e" transform="translate(118.499969 0.203125)"/>
       <use xlink:href="#STIXGeneral-Regular-35" transform="translate(143.499954 0.203125)"/>
      </g>
     </g>
    </g>
    <g id="ytick_5">
     <g id="line2d_23">
      <path d="M 61.36 185.278622 
L 516.09952 185.278622 
" clip-path="url(#p10fd910d12)" style="fill: none; stroke: #ffffff; stroke-width: 0.8; stroke-linecap: round"/>
     </g>
     <g id="line2d_24"/>
     <g id="text_13">
      <!-- $\mathdefault{0.0}$ -->
      <g style="fill: #262626" transform="translate(40.36 190.059403) scale(0.14 -0.14)">
       <use xlink:href="#STIXGeneral-Regular-30" transform="translate(0 0.40625)"/>
       <use xlink:href="#STIXGeneral-Regular-2e" transform="translate(49.999985 0.40625)"/>
       <use xlink:href="#STIXGeneral-Regular-30" transform="translate(74.999969 0.40625)"/>
      </g>
     </g>
    </g>
    <g id="ytick_6">
     <g id="line2d_25">
      <path d="M 61.36 153.048398 
L 516.09952 153.048398 
" clip-path="url(#p10fd910d12)" style="fill: none; stroke: #ffffff; stroke-width: 0.8; stroke-linecap: round"/>
     </g>
     <g id="line2d_26"/>
     <g id="text_14">
      <!-- $\mathdefault{2.5}$ -->
      <g style="fill: #262626" transform="translate(40.36 157.829179) scale(0.14 -0.14)">
       <use xlink:href="#STIXGeneral-Regular-32" transform="translate(0 0.203125)"/>
       <use xlink:href="#STIXGeneral-Regular-2e" transform="translate(49.999985 0.203125)"/>
       <use xlink:href="#STIXGeneral-Regular-35" transform="translate(74.999969 0.203125)"/>
      </g>
     </g>
    </g>
    <g id="ytick_7">
     <g id="line2d_27">
      <path d="M 61.36 120.818173 
L 516.09952 120.818173 
" clip-path="url(#p10fd910d12)" style="fill: none; stroke: #ffffff; stroke-width: 0.8; stroke-linecap: round"/>
     </g>
     <g id="line2d_28"/>
     <g id="text_15">
      <!-- $\mathdefault{5.0}$ -->
      <g style="fill: #262626" transform="translate(40.36 125.598955) scale(0.14 -0.14)">
       <use xlink:href="#STIXGeneral-Regular-35" transform="translate(0 0.203125)"/>
       <use xlink:href="#STIXGeneral-Regular-2e" transform="translate(49.999985 0.203125)"/>
       <use xlink:href="#STIXGeneral-Regular-30" transform="translate(74.999969 0.203125)"/>
      </g>
     </g>
    </g>
    <g id="ytick_8">
     <g id="line2d_29">
      <path d="M 61.36 88.587949 
L 516.09952 88.587949 
" clip-path="url(#p10fd910d12)" style="fill: none; stroke: #ffffff; stroke-width: 0.8; stroke-linecap: round"/>
     </g>
     <g id="line2d_30"/>
     <g id="text_16">
      <!-- $\mathdefault{7.5}$ -->
      <g style="fill: #262626" transform="translate(40.36 93.36873) scale(0.14 -0.14)">
       <use xlink:href="#STIXGeneral-Regular-37" transform="translate(0 0.203125)"/>
       <use xlink:href="#STIXGeneral-Regular-2e" transform="translate(49.999985 0.203125)"/>
       <use xlink:href="#STIXGeneral-Regular-35" transform="translate(74.999969 0.203125)"/>
      </g>
     </g>
    </g>
    <g id="ytick_9">
     <g id="line2d_31">
      <path d="M 61.36 56.357724 
L 516.09952 56.357724 
" clip-path="url(#p10fd910d12)" style="fill: none; stroke: #ffffff; stroke-width: 0.8; stroke-linecap: round"/>
     </g>
     <g id="line2d_32"/>
     <g id="text_17">
      <!-- $\mathdefault{10.0}$ -->
      <g style="fill: #262626" transform="translate(33.36 61.138506) scale(0.14 -0.14)">
       <use xlink:href="#STIXGeneral-Regular-31" transform="translate(0 0.40625)"/>
       <use xlink:href="#STIXGeneral-Regular-30" transform="translate(49.999985 0.40625)"/>
       <use xlink:href="#STIXGeneral-Regular-2e" transform="translate(99.999969 0.40625)"/>
       <use xlink:href="#STIXGeneral-Regular-30" transform="translate(124.999954 0.40625)"/>
      </g>
     </g>
    </g>
    <g id="ytick_10">
     <g id="line2d_33">
      <path d="M 61.36 24.1275 
L 516.09952 24.1275 
" clip-path="url(#p10fd910d12)" style="fill: none; stroke: #ffffff; stroke-width: 0.8; stroke-linecap: round"/>
     </g>
     <g id="line2d_34"/>
     <g id="text_18">
      <!-- $\mathdefault{12.5}$ -->
      <g style="fill: #262626" transform="translate(33.36 28.908281) scale(0.14 -0.14)">
       <use xlink:href="#STIXGeneral-Regular-31" transform="translate(0 0.203125)"/>
       <use xlink:href="#STIXGeneral-Regular-32" transform="translate(49.999985 0.203125)"/>
       <use xlink:href="#STIXGeneral-Regular-2e" transform="translate(99.999969 0.203125)"/>
       <use xlink:href="#STIXGeneral-Regular-35" transform="translate(124.999954 0.203125)"/>
      </g>
     </g>
    </g>
    <g id="text_19">
     <!-- Outcome (Y) -->
     <g style="fill: #262626" transform="translate(17.444531 208.943979) rotate(-90) scale(0.15 -0.15)">
      <defs>
       <path id="STIXGeneral-Regular-4f" d="M 4403 2118 
Q 4403 1133 3820 521 
Q 3238 -90 2310 -90 
Q 1376 -90 797 524 
Q 218 1139 218 2138 
Q 218 3110 797 3718 
Q 1376 4326 2310 4326 
Q 3245 4326 3824 3702 
Q 4403 3078 4403 2118 
z
M 3674 2157 
Q 3674 2701 3520 3133 
Q 3366 3565 3091 3795 
Q 2733 4096 2304 4096 
Q 1760 4096 1389 3667 
Q 1184 3437 1065 3011 
Q 947 2586 947 2125 
Q 947 960 1523 429 
Q 1837 141 2317 141 
Q 2816 141 3142 448 
Q 3674 960 3674 2157 
z
" transform="scale(0.015625)"/>
       <path id="STIXGeneral-Regular-75" d="M 3072 320 
L 3072 230 
Q 2573 96 2195 -58 
L 2163 -38 
L 2163 486 
L 2150 486 
Q 1747 -64 1235 -64 
Q 870 -64 662 160 
Q 454 384 454 755 
L 454 2362 
Q 454 2598 371 2688 
Q 288 2778 58 2790 
L 58 2880 
L 992 2880 
L 992 813 
Q 992 595 1123 451 
Q 1254 307 1446 307 
Q 1760 307 1984 506 
Q 2067 582 2099 649 
Q 2131 717 2131 877 
L 2131 2355 
Q 2131 2605 2041 2678 
Q 1952 2752 1658 2771 
L 1658 2880 
L 2669 2880 
L 2669 685 
Q 2669 461 2742 390 
Q 2816 320 3034 320 
L 3072 320 
z
" transform="scale(0.015625)"/>
       <path id="STIXGeneral-Regular-6d" d="M 4960 0 
L 3565 0 
L 3565 96 
Q 3834 122 3907 208 
Q 3981 294 3981 576 
L 3981 1894 
Q 3981 2278 3869 2444 
Q 3757 2611 3488 2611 
Q 3264 2611 3107 2521 
Q 2950 2432 2803 2221 
L 2803 608 
Q 2803 301 2896 201 
Q 2989 102 3264 96 
L 3264 0 
L 1830 0 
L 1830 96 
Q 2112 115 2189 188 
Q 2266 262 2266 550 
L 2266 1901 
Q 2266 2611 1850 2611 
Q 1670 2611 1468 2531 
Q 1267 2451 1171 2336 
Q 1088 2240 1088 2227 
L 1088 448 
Q 1088 243 1177 176 
Q 1267 109 1523 96 
L 1523 0 
L 102 0 
L 102 96 
Q 371 102 460 195 
Q 550 288 550 563 
L 550 2150 
Q 550 2387 499 2480 
Q 448 2573 326 2573 
Q 230 2573 122 2547 
L 122 2656 
Q 557 2778 1011 2944 
L 1062 2925 
L 1062 2451 
L 1075 2451 
Q 1363 2752 1584 2848 
Q 1805 2944 2054 2944 
Q 2560 2944 2733 2406 
Q 3232 2944 3776 2944 
Q 4518 2944 4518 1792 
L 4518 493 
Q 4518 282 4582 202 
Q 4646 122 4794 109 
L 4960 96 
L 4960 0 
z
" transform="scale(0.015625)"/>
       <path id="STIXGeneral-Regular-59" d="M 4499 4237 
L 4499 4115 
Q 4218 4090 4054 3955 
Q 3891 3821 3616 3398 
L 2669 1939 
L 2669 710 
Q 2669 346 2790 243 
Q 2912 141 3328 122 
L 3328 0 
L 1370 0 
L 1370 122 
Q 1805 154 1910 259 
Q 2016 365 2016 787 
L 2016 1882 
L 1178 3110 
Q 742 3750 556 3926 
Q 371 4102 141 4115 
L 141 4237 
L 1926 4237 
L 1926 4115 
L 1773 4109 
Q 1472 4102 1472 3942 
Q 1472 3808 1587 3642 
L 2522 2227 
L 3450 3648 
Q 3539 3782 3539 3917 
Q 3533 4026 3440 4067 
Q 3347 4109 3104 4115 
L 3104 4237 
L 4499 4237 
z
" transform="scale(0.015625)"/>
      </defs>
      <use xlink:href="#STIXGeneral-Regular-4f"/>
      <use xlink:href="#STIXGeneral-Regular-75" x="72.199982"/>
      <use xlink:href="#STIXGeneral-Regular-74" x="122.199966"/>
      <use xlink:href="#STIXGeneral-Regular-63" x="149.999954"/>
      <use xlink:href="#STIXGeneral-Regular-6f" x="194.399948"/>
      <use xlink:href="#STIXGeneral-Regular-6d" x="244.399933"/>
      <use xlink:href="#STIXGeneral-Regular-65" x="322.199921"/>
      <use xlink:href="#STIXGeneral-Regular-20" x="366.599915"/>
      <use xlink:href="#STIXGeneral-Regular-28" x="391.599899"/>
      <use xlink:href="#STIXGeneral-Regular-59" x="424.899887"/>
      <use xlink:href="#STIXGeneral-Regular-29" x="497.099869"/>
     </g>
    </g>
   </g>
   <g id="PolyCollection_1">
    <defs>
     <path id="m8da0649255" d="M 127.623083 -125.200006 
L 127.623083 -106.175783 
L 128.552233 -107.034894 
L 130.410534 -107.893404 
L 132.268835 -108.751313 
L 134.127135 -109.608622 
L 135.985436 -110.46533 
L 137.843737 -111.321436 
L 139.702037 -112.176943 
L 141.560338 -113.031848 
L 143.418639 -113.886152 
L 145.276939 -114.739856 
L 147.13524 -115.592959 
L 148.993541 -116.445461 
L 150.851841 -117.297362 
L 152.710142 -118.148662 
L 154.568443 -118.999362 
L 156.426743 -119.849461 
L 158.285044 -120.698959 
L 160.143345 -121.547856 
L 162.001645 -122.396152 
L 163.859946 -123.243847 
L 165.718247 -124.090942 
L 167.576547 -124.937436 
L 169.434848 -125.783329 
L 171.293149 -126.628621 
L 173.151449 -127.473313 
L 175.00975 -128.317403 
L 176.868051 -129.160893 
L 178.726351 -130.021188 
L 180.584652 -130.869794 
L 182.442953 -131.716343 
L 184.301253 -132.560893 
L 186.159554 -133.403977 
L 188.017855 -134.240708 
L 189.876155 -135.076689 
L 191.734456 -135.92143 
L 193.592757 -136.768319 
L 195.451057 -137.612053 
L 197.309358 -138.452687 
L 199.167659 -139.29028 
L 201.025959 -140.124702 
L 202.88426 -140.938264 
L 204.742561 -141.753084 
L 206.600861 -142.571823 
L 208.459162 -143.393639 
L 210.317463 -144.217725 
L 212.175763 -145.040737 
L 214.034064 -145.862451 
L 215.892365 -146.683259 
L 217.750665 -147.502139 
L 219.608966 -148.320966 
L 221.467267 -149.138921 
L 223.325567 -149.955672 
L 225.183868 -150.772602 
L 227.042169 -151.582216 
L 228.900469 -152.383447 
L 230.75877 -153.181975 
L 232.617071 -153.977505 
L 234.475371 -154.775123 
L 236.333672 -155.577734 
L 238.191973 -156.383079 
L 240.050273 -157.19072 
L 241.908574 -157.999198 
L 243.766875 -158.802038 
L 245.625175 -159.604956 
L 247.483476 -160.409145 
L 249.341777 -161.214519 
L 251.200077 -162.018491 
L 253.058378 -162.822656 
L 254.916679 -163.628877 
L 256.774979 -164.442055 
L 258.63328 -165.258228 
L 260.491581 -166.070861 
L 262.349881 -166.885654 
L 264.208182 -167.700477 
L 266.066483 -168.515654 
L 267.924783 -169.332983 
L 269.783084 -170.150465 
L 271.641385 -170.966891 
L 273.499685 -171.782336 
L 275.357986 -172.595781 
L 277.216287 -173.407902 
L 279.074587 -174.218885 
L 280.932888 -175.027869 
L 282.791189 -175.833197 
L 284.649489 -176.635756 
L 286.50779 -177.435578 
L 288.366091 -178.232149 
L 290.224391 -179.031273 
L 292.082692 -179.828321 
L 293.940993 -180.613912 
L 295.799293 -181.390327 
L 297.657594 -182.161832 
L 299.515895 -182.928256 
L 301.374195 -183.68945 
L 303.232496 -184.445281 
L 305.090797 -185.216582 
L 306.949097 -185.981924 
L 308.807398 -186.738154 
L 310.665699 -187.487163 
L 312.523999 -188.228321 
L 314.3823 -188.964019 
L 316.240601 -189.695282 
L 318.098901 -190.422358 
L 319.957202 -191.147796 
L 321.815503 -191.868898 
L 323.673803 -192.587334 
L 325.532104 -193.303867 
L 327.390405 -194.017483 
L 329.248705 -194.733118 
L 331.107006 -195.4532 
L 332.965307 -196.172513 
L 334.823607 -196.890733 
L 336.681908 -197.607516 
L 338.540209 -198.321597 
L 340.398509 -199.035667 
L 342.25681 -199.750046 
L 344.115111 -200.462743 
L 345.973411 -201.173141 
L 347.831712 -201.882259 
L 349.690013 -202.591059 
L 351.548313 -203.301645 
L 353.406614 -204.015132 
L 355.264915 -204.728248 
L 357.123215 -205.439229 
L 358.981516 -206.149131 
L 360.839817 -206.857807 
L 362.698117 -207.563864 
L 364.556418 -208.267387 
L 366.414719 -208.96984 
L 368.273019 -209.667896 
L 370.13132 -210.355134 
L 371.989621 -211.037221 
L 373.847921 -211.720564 
L 375.706222 -212.404494 
L 377.564523 -213.08949 
L 379.422823 -213.77427 
L 381.281124 -214.457731 
L 383.139425 -215.139758 
L 384.997725 -215.821842 
L 386.856026 -216.503946 
L 388.714327 -217.186123 
L 390.572627 -217.868358 
L 392.430928 -218.55023 
L 394.289229 -219.227199 
L 396.147529 -219.897898 
L 398.00583 -220.56625 
L 399.864131 -221.235887 
L 401.722431 -221.906577 
L 403.580732 -222.578098 
L 405.439033 -223.250239 
L 407.297333 -223.923069 
L 409.155634 -224.599575 
L 411.013935 -225.280164 
L 412.872235 -225.962725 
L 414.730536 -226.647239 
L 416.588837 -227.333744 
L 418.447137 -228.022291 
L 420.305438 -228.712506 
L 422.163739 -229.402963 
L 424.022039 -230.09452 
L 425.88034 -230.786338 
L 427.738641 -231.478222 
L 429.596941 -232.170029 
L 431.455242 -232.862188 
L 433.313543 -233.553685 
L 435.171843 -234.244307 
L 437.030144 -234.933849 
L 438.888445 -235.622112 
L 440.746746 -236.30895 
L 442.605046 -236.994471 
L 444.463347 -237.678607 
L 446.321648 -238.361796 
L 448.179948 -239.034677 
L 450.038249 -239.705998 
L 451.89655 -240.375758 
L 453.75485 -241.043958 
L 455.613151 -241.710597 
L 457.471452 -242.375676 
L 459.329752 -243.039194 
L 461.188053 -243.701152 
L 463.046354 -244.36155 
L 464.904654 -245.020386 
L 466.762955 -245.677663 
L 468.621256 -246.333379 
L 470.479556 -246.987534 
L 472.337857 -247.640129 
L 474.196158 -248.291163 
L 476.054458 -248.940637 
L 477.912759 -249.58855 
L 479.77106 -250.234903 
L 481.62936 -250.879695 
L 483.487661 -251.522927 
L 485.345962 -252.164598 
L 487.204262 -252.804709 
L 489.062563 -253.44326 
L 490.920864 -254.080249 
L 492.779164 -254.715679 
L 494.637465 -255.349548 
L 496.495766 -255.981856 
L 496.495766 -277.070609 
L 496.495766 -277.070609 
L 494.637465 -276.265682 
L 492.779164 -275.459293 
L 490.920864 -274.651442 
L 489.062563 -273.842128 
L 487.204262 -273.031352 
L 485.345962 -272.219114 
L 483.487661 -271.405414 
L 481.62936 -270.590251 
L 479.77106 -269.773626 
L 477.912759 -268.95554 
L 476.054458 -268.13599 
L 474.196158 -267.314979 
L 472.337857 -266.492506 
L 470.479556 -265.66857 
L 468.621256 -264.843172 
L 466.762955 -264.016312 
L 464.904654 -263.18799 
L 463.046354 -262.358205 
L 461.188053 -261.526959 
L 459.329752 -260.69425 
L 457.471452 -259.860078 
L 455.613151 -259.024445 
L 453.75485 -258.18735 
L 451.89655 -257.348792 
L 450.038249 -256.508772 
L 448.179948 -255.66729 
L 446.321648 -254.824346 
L 444.463347 -253.969011 
L 442.605046 -253.112944 
L 440.746746 -252.255336 
L 438.888445 -251.396327 
L 437.030144 -250.535592 
L 435.171843 -249.67338 
L 433.313543 -248.810057 
L 431.455242 -247.945984 
L 429.596941 -247.081469 
L 427.738641 -246.217557 
L 425.88034 -245.354094 
L 424.022039 -244.491328 
L 422.163739 -243.62971 
L 420.305438 -242.769853 
L 418.447137 -241.911275 
L 416.588837 -241.055558 
L 414.730536 -240.203192 
L 412.872235 -239.354219 
L 411.013935 -238.508689 
L 409.155634 -237.666682 
L 407.297333 -236.829494 
L 405.439033 -235.996954 
L 403.580732 -235.166822 
L 401.722431 -234.339185 
L 399.864131 -233.51434 
L 398.00583 -232.692589 
L 396.147529 -231.874231 
L 394.289229 -231.055678 
L 392.430928 -230.232761 
L 390.572627 -229.406782 
L 388.714327 -228.581679 
L 386.856026 -227.757781 
L 384.997725 -226.935096 
L 383.139425 -226.114427 
L 381.281124 -225.29588 
L 379.422823 -224.478028 
L 377.564523 -223.660926 
L 375.706222 -222.845087 
L 373.847921 -222.03199 
L 371.989621 -221.221525 
L 370.13132 -220.412999 
L 368.273019 -219.600711 
L 366.414719 -218.779364 
L 364.556418 -217.95447 
L 362.698117 -217.129478 
L 360.839817 -216.303054 
L 358.981516 -215.475478 
L 357.123215 -214.64799 
L 355.264915 -213.820871 
L 353.406614 -212.994292 
L 351.548313 -212.170253 
L 349.690013 -211.352161 
L 347.831712 -210.538223 
L 345.973411 -209.726217 
L 344.115111 -208.915403 
L 342.25681 -208.104896 
L 340.398509 -207.295285 
L 338.540209 -206.488683 
L 336.681908 -205.685041 
L 334.823607 -204.881937 
L 332.965307 -204.081307 
L 331.107006 -203.283695 
L 329.248705 -202.488758 
L 327.390405 -201.701953 
L 325.532104 -200.921341 
L 323.673803 -200.142252 
L 321.815503 -199.36648 
L 319.957202 -198.593544 
L 318.098901 -197.822502 
L 316.240601 -197.054395 
L 314.3823 -196.288213 
L 312.523999 -195.521634 
L 310.665699 -194.754403 
L 308.807398 -193.983637 
L 306.949097 -193.210119 
L 305.090797 -192.433116 
L 303.232496 -191.656117 
L 301.374195 -190.899703 
L 299.515895 -190.143547 
L 297.657594 -189.387744 
L 295.799293 -188.632368 
L 293.940993 -187.877475 
L 292.082692 -187.11857 
L 290.224391 -186.353556 
L 288.366091 -185.590668 
L 286.50779 -184.835419 
L 284.649489 -184.08258 
L 282.791189 -183.332071 
L 280.932888 -182.583531 
L 279.074587 -181.835605 
L 277.216287 -181.089346 
L 275.357986 -180.345014 
L 273.499685 -179.602871 
L 271.641385 -178.861969 
L 269.783084 -178.122782 
L 267.924783 -177.386606 
L 266.066483 -176.653867 
L 264.208182 -175.925188 
L 262.349881 -175.199319 
L 260.491581 -174.475917 
L 258.63328 -173.757375 
L 256.774979 -173.038915 
L 254.916679 -172.326109 
L 253.058378 -171.622764 
L 251.200077 -170.923795 
L 249.341777 -170.22726 
L 247.483476 -169.531416 
L 245.625175 -168.839662 
L 243.766875 -168.15186 
L 241.908574 -167.466093 
L 240.050273 -166.775646 
L 238.191973 -166.087855 
L 236.333672 -165.404746 
L 234.475371 -164.726621 
L 232.617071 -164.05586 
L 230.75877 -163.388835 
L 228.900469 -162.71975 
L 227.042169 -162.04975 
L 225.183868 -161.373312 
L 223.325567 -160.691442 
L 221.467267 -160.011417 
L 219.608966 -159.331246 
L 217.750665 -158.650767 
L 215.892365 -157.970203 
L 214.034064 -157.289054 
L 212.175763 -156.606623 
L 210.317463 -155.924519 
L 208.459162 -155.242502 
L 206.600861 -154.564453 
L 204.742561 -153.891154 
L 202.88426 -153.223412 
L 201.025959 -152.558399 
L 199.167659 -151.874394 
L 197.309358 -151.188408 
L 195.451057 -150.500185 
L 193.592757 -149.809641 
L 191.734456 -149.116689 
L 189.876155 -148.42667 
L 188.017855 -147.746109 
L 186.159554 -147.066827 
L 184.301253 -146.382373 
L 182.442953 -145.696738 
L 180.584652 -145.00951 
L 178.726351 -144.320492 
L 176.868051 -143.622248 
L 175.00975 -142.938634 
L 173.151449 -142.25512 
L 171.293149 -141.571707 
L 169.434848 -140.888395 
L 167.576547 -140.205183 
L 165.718247 -139.522072 
L 163.859946 -138.839062 
L 162.001645 -138.156153 
L 160.143345 -137.473344 
L 158.285044 -136.790636 
L 156.426743 -136.108028 
L 154.568443 -135.425522 
L 152.710142 -134.743116 
L 150.851841 -134.06081 
L 148.993541 -133.378606 
L 147.13524 -132.696502 
L 145.276939 -132.014499 
L 143.418639 -131.332596 
L 141.560338 -130.650795 
L 139.702037 -129.969094 
L 137.843737 -129.287493 
L 135.985436 -128.605994 
L 134.127135 -127.924595 
L 132.268835 -127.243296 
L 130.410534 -126.562099 
L 128.552233 -125.881002 
L 127.623083 -125.200006 
z
" style="stroke: #da70d6; stroke-opacity: 0.5; stroke-width: 0.8"/>
    </defs>
    <g clip-path="url(#p10fd910d12)">
     <use xlink:href="#m8da0649255" x="0" y="353.99952" style="fill: #da70d6; fill-opacity: 0.5; stroke: #da70d6; stroke-opacity: 0.5; stroke-width: 0.8"/>
    </g>
   </g>
   <g id="PolyCollection_2">
    <defs>
     <path id="m7daac1617c" d="M 127.623083 -156.441077 
L 127.623083 -79.876091 
L 128.552233 -80.633074 
L 130.410534 -81.390437 
L 132.268835 -82.14818 
L 134.127135 -82.906304 
L 135.985436 -83.664809 
L 137.843737 -84.423695 
L 139.702037 -85.182961 
L 141.560338 -85.942607 
L 143.418639 -86.702635 
L 145.276939 -87.463042 
L 147.13524 -88.223831 
L 148.993541 -88.985 
L 150.851841 -89.74655 
L 152.710142 -90.50848 
L 154.568443 -91.270791 
L 156.426743 -92.033482 
L 158.285044 -92.796555 
L 160.143345 -93.560007 
L 162.001645 -94.323841 
L 163.859946 -95.088055 
L 165.718247 -95.852649 
L 167.576547 -96.617624 
L 169.434848 -97.38298 
L 171.293149 -98.148717 
L 173.151449 -98.914834 
L 175.00975 -99.681331 
L 176.868051 -100.448209 
L 178.726351 -101.232532 
L 180.584652 -101.984912 
L 182.442953 -102.772834 
L 184.301253 -103.588806 
L 186.159554 -104.382347 
L 188.017855 -105.205237 
L 189.876155 -105.969778 
L 191.734456 -106.703062 
L 193.592757 -107.43043 
L 195.451057 -108.153009 
L 197.309358 -108.868217 
L 199.167659 -109.573479 
L 201.025959 -110.283448 
L 202.88426 -110.986771 
L 204.742561 -111.694186 
L 206.600861 -112.444982 
L 208.459162 -113.237109 
L 210.317463 -114.068827 
L 212.175763 -114.783129 
L 214.034064 -115.579159 
L 215.892365 -116.374417 
L 217.750665 -117.156435 
L 219.608966 -117.906105 
L 221.467267 -118.723601 
L 223.325567 -119.571366 
L 225.183868 -120.314687 
L 227.042169 -121.079846 
L 228.900469 -121.849813 
L 230.75877 -122.619725 
L 232.617071 -123.367988 
L 234.475371 -124.105836 
L 236.333672 -124.902056 
L 238.191973 -125.671632 
L 240.050273 -126.417109 
L 241.908574 -127.138738 
L 243.766875 -127.819519 
L 245.625175 -128.484802 
L 247.483476 -129.228763 
L 249.341777 -129.931863 
L 251.200077 -130.62475 
L 253.058378 -131.313149 
L 254.916679 -131.971139 
L 256.774979 -132.617991 
L 258.63328 -133.260999 
L 260.491581 -133.960715 
L 262.349881 -134.655673 
L 264.208182 -135.395629 
L 266.066483 -136.17872 
L 267.924783 -136.928774 
L 269.783084 -137.683039 
L 271.641385 -138.495435 
L 273.499685 -139.231934 
L 275.357986 -139.961061 
L 277.216287 -140.740327 
L 279.074587 -141.498661 
L 280.932888 -142.276701 
L 282.791189 -143.089013 
L 284.649489 -143.873299 
L 286.50779 -144.623965 
L 288.366091 -145.386962 
L 290.224391 -146.104437 
L 292.082692 -146.863629 
L 293.940993 -147.72095 
L 295.799293 -148.567438 
L 297.657594 -149.399803 
L 299.515895 -150.217781 
L 301.374195 -151.021037 
L 303.232496 -151.809158 
L 305.090797 -152.60507 
L 306.949097 -153.408478 
L 308.807398 -154.179633 
L 310.665699 -154.920843 
L 312.523999 -155.625364 
L 314.3823 -156.472749 
L 316.240601 -157.254796 
L 318.098901 -158.055082 
L 319.957202 -158.942508 
L 321.815503 -159.708423 
L 323.673803 -160.38974 
L 325.532104 -161.067637 
L 327.390405 -161.880935 
L 329.248705 -162.568799 
L 331.107006 -163.239213 
L 332.965307 -163.945408 
L 334.823607 -164.709085 
L 336.681908 -165.504565 
L 338.540209 -166.227981 
L 340.398509 -166.892704 
L 342.25681 -167.530958 
L 344.115111 -168.166246 
L 345.973411 -168.877735 
L 347.831712 -169.624874 
L 349.690013 -170.29667 
L 351.548313 -170.998943 
L 353.406614 -171.713435 
L 355.264915 -172.436319 
L 357.123215 -173.15448 
L 358.981516 -173.87342 
L 360.839817 -174.594815 
L 362.698117 -175.278914 
L 364.556418 -176.008856 
L 366.414719 -176.799974 
L 368.273019 -177.587639 
L 370.13132 -178.382698 
L 371.989621 -179.162773 
L 373.847921 -179.882984 
L 375.706222 -180.677006 
L 377.564523 -181.488677 
L 379.422823 -182.249746 
L 381.281124 -183.020744 
L 383.139425 -183.809137 
L 384.997725 -184.605234 
L 386.856026 -185.409564 
L 388.714327 -186.215638 
L 390.572627 -187.025022 
L 392.430928 -187.840365 
L 394.289229 -188.669966 
L 396.147529 -189.427847 
L 398.00583 -190.187169 
L 399.864131 -190.949174 
L 401.722431 -191.713904 
L 403.580732 -192.481459 
L 405.439033 -193.252001 
L 407.297333 -194.025486 
L 409.155634 -194.799109 
L 411.013935 -195.57264 
L 412.872235 -196.336841 
L 414.730536 -197.089828 
L 416.588837 -197.829844 
L 418.447137 -198.555116 
L 420.305438 -199.241821 
L 422.163739 -199.813027 
L 424.022039 -200.514385 
L 425.88034 -201.232314 
L 427.738641 -201.896946 
L 429.596941 -202.494982 
L 431.455242 -203.188496 
L 433.313543 -203.907527 
L 435.171843 -204.603281 
L 437.030144 -205.271473 
L 438.888445 -205.907687 
L 440.746746 -206.518037 
L 442.605046 -207.158642 
L 444.463347 -207.804346 
L 446.321648 -208.452474 
L 448.179948 -209.094226 
L 450.038249 -209.732566 
L 451.89655 -210.367496 
L 453.75485 -210.999014 
L 455.613151 -211.627121 
L 457.471452 -212.251817 
L 459.329752 -212.873102 
L 461.188053 -213.490976 
L 463.046354 -214.105438 
L 464.904654 -214.716489 
L 466.762955 -215.324129 
L 468.621256 -215.928358 
L 470.479556 -216.529176 
L 472.337857 -217.126582 
L 474.196158 -217.720578 
L 476.054458 -218.311162 
L 477.912759 -218.898335 
L 479.77106 -219.482096 
L 481.62936 -220.062447 
L 483.487661 -220.639386 
L 485.345962 -221.212914 
L 487.204262 -221.783031 
L 489.062563 -222.349737 
L 490.920864 -222.913032 
L 492.779164 -223.472915 
L 494.637465 -224.029387 
L 496.495766 -224.582448 
L 496.495766 -301.952368 
L 496.495766 -301.952368 
L 494.637465 -301.127224 
L 492.779164 -300.30681 
L 490.920864 -299.491128 
L 489.062563 -298.680176 
L 487.204262 -297.873956 
L 485.345962 -297.072466 
L 483.487661 -296.275707 
L 481.62936 -295.483679 
L 479.77106 -294.696382 
L 477.912759 -293.913816 
L 476.054458 -293.135981 
L 474.196158 -292.362877 
L 472.337857 -291.594504 
L 470.479556 -290.830861 
L 468.621256 -290.07195 
L 466.762955 -289.317769 
L 464.904654 -288.568319 
L 463.046354 -287.8236 
L 461.188053 -287.083613 
L 459.329752 -286.348356 
L 457.471452 -285.61783 
L 455.613151 -284.892034 
L 453.75485 -284.17097 
L 451.89655 -283.454637 
L 450.038249 -282.743034 
L 448.179948 -282.036163 
L 446.321648 -281.334022 
L 444.463347 -280.652279 
L 442.605046 -279.998929 
L 440.746746 -279.379067 
L 438.888445 -278.76353 
L 437.030144 -278.125437 
L 435.171843 -277.462959 
L 433.313543 -276.779491 
L 431.455242 -276.078301 
L 429.596941 -275.416402 
L 427.738641 -274.763635 
L 425.88034 -274.085375 
L 424.022039 -273.384182 
L 422.163739 -272.670906 
L 420.305438 -272.047138 
L 418.447137 -271.333538 
L 416.588837 -270.620924 
L 414.730536 -269.932293 
L 412.872235 -269.2626 
L 411.013935 -268.606981 
L 409.155634 -267.959555 
L 407.297333 -267.253737 
L 405.439033 -266.497408 
L 403.580732 -265.73815 
L 401.722431 -264.979048 
L 399.864131 -264.21908 
L 398.00583 -263.457261 
L 396.147529 -262.692638 
L 394.289229 -261.928065 
L 392.430928 -261.085686 
L 390.572627 -260.261359 
L 388.714327 -259.426409 
L 386.856026 -258.573115 
L 384.997725 -257.698048 
L 383.139425 -256.833618 
L 381.281124 -255.980821 
L 379.422823 -255.163134 
L 377.564523 -254.360603 
L 375.706222 -253.484442 
L 373.847921 -252.647308 
L 371.989621 -251.908164 
L 370.13132 -251.135764 
L 368.273019 -250.350541 
L 366.414719 -249.551677 
L 364.556418 -248.736696 
L 362.698117 -247.969093 
L 360.839817 -247.253731 
L 358.981516 -246.486896 
L 357.123215 -245.728264 
L 355.264915 -244.970702 
L 353.406614 -244.320289 
L 351.548313 -243.623756 
L 349.690013 -242.877578 
L 347.831712 -242.238371 
L 345.973411 -241.497557 
L 344.115111 -240.792954 
L 342.25681 -240.147062 
L 340.398509 -239.494943 
L 338.540209 -238.799565 
L 336.681908 -238.079995 
L 334.823607 -237.223514 
L 332.965307 -236.401093 
L 331.107006 -235.65859 
L 329.248705 -234.972739 
L 327.390405 -234.206444 
L 325.532104 -233.39315 
L 323.673803 -232.708482 
L 321.815503 -231.985474 
L 319.957202 -231.26542 
L 318.098901 -230.486008 
L 316.240601 -229.753488 
L 314.3823 -229.012043 
L 312.523999 -228.225282 
L 310.665699 -227.495418 
L 308.807398 -226.707393 
L 306.949097 -225.860203 
L 305.090797 -225.026134 
L 303.232496 -224.243319 
L 301.374195 -223.436878 
L 299.515895 -222.609982 
L 297.657594 -221.764207 
L 295.799293 -220.901003 
L 293.940993 -220.02169 
L 292.082692 -219.127682 
L 290.224391 -218.341717 
L 288.366091 -217.607206 
L 286.50779 -216.8334 
L 284.649489 -216.120773 
L 282.791189 -215.355618 
L 280.932888 -214.546997 
L 279.074587 -213.784186 
L 277.216287 -213.03846 
L 275.357986 -212.263976 
L 273.499685 -211.568937 
L 271.641385 -210.858956 
L 269.783084 -210.062442 
L 267.924783 -209.309796 
L 266.066483 -208.562372 
L 264.208182 -207.826245 
L 262.349881 -207.177825 
L 260.491581 -206.615435 
L 258.63328 -206.058682 
L 256.774979 -205.511581 
L 254.916679 -204.947235 
L 253.058378 -204.390818 
L 251.200077 -203.714437 
L 249.341777 -203.042376 
L 247.483476 -202.410825 
L 245.625175 -201.696702 
L 243.766875 -201.09945 
L 241.908574 -200.482118 
L 240.050273 -199.817805 
L 238.191973 -199.126952 
L 236.333672 -198.41515 
L 234.475371 -197.677673 
L 232.617071 -197.079551 
L 230.75877 -196.484966 
L 228.900469 -195.846313 
L 227.042169 -195.173152 
L 225.183868 -194.541807 
L 223.325567 -193.950342 
L 221.467267 -193.23978 
L 219.608966 -192.571835 
L 217.750665 -191.9136 
L 215.892365 -191.206305 
L 214.034064 -190.518418 
L 212.175763 -189.83711 
L 210.317463 -189.17766 
L 208.459162 -188.425915 
L 206.600861 -187.677063 
L 204.742561 -186.932296 
L 202.88426 -186.192923 
L 201.025959 -185.426816 
L 199.167659 -184.667983 
L 197.309358 -183.911222 
L 195.451057 -183.152775 
L 193.592757 -182.39593 
L 191.734456 -181.644035 
L 189.876155 -180.900226 
L 188.017855 -180.136855 
L 186.159554 -179.319317 
L 184.301253 -178.538285 
L 182.442953 -177.690896 
L 180.584652 -176.890273 
L 178.726351 -176.147194 
L 176.868051 -175.369211 
L 175.00975 -174.632446 
L 173.151449 -173.89843 
L 171.293149 -173.167161 
L 169.434848 -172.438641 
L 167.576547 -171.712868 
L 165.718247 -170.989843 
L 163.859946 -170.269566 
L 162.001645 -169.552036 
L 160.143345 -168.837255 
L 158.285044 -168.125221 
L 156.426743 -167.415936 
L 154.568443 -166.709398 
L 152.710142 -166.005608 
L 150.851841 -165.304566 
L 148.993541 -164.606272 
L 147.13524 -163.910726 
L 145.276939 -163.217928 
L 143.418639 -162.527877 
L 141.560338 -161.840575 
L 139.702037 -161.15602 
L 137.843737 -160.474213 
L 135.985436 -159.795154 
L 134.127135 -159.118843 
L 132.268835 -158.44528 
L 130.410534 -157.774464 
L 128.552233 -157.106397 
L 127.623083 -156.441077 
z
" style="stroke: #ff7f50; stroke-opacity: 0.2; stroke-width: 0.8"/>
    </defs>
    <g clip-path="url(#p10fd910d12)">
     <use xlink:href="#m7daac1617c" x="0" y="353.99952" style="fill: #ff7f50; fill-opacity: 0.2; stroke: #ff7f50; stroke-opacity: 0.2; stroke-width: 0.8"/>
    </g>
   </g>
   <g id="line2d_35">
    <defs>
     <path id="m39d5541d04" d="M 0 2 
C 0.530406 2 1.03916 1.789267 1.414214 1.414214 
C 1.789267 1.03916 2 0.530406 2 0 
C 2 -0.530406 1.789267 -1.03916 1.414214 -1.414214 
C 1.03916 -1.789267 0.530406 -2 0 -2 
C -0.530406 -2 -1.03916 -1.789267 -1.414214 -1.414214 
C -1.789267 -1.03916 -2 -0.530406 -2 0 
C -2 0.530406 -1.789267 1.03916 -1.414214 1.414214 
C -1.03916 1.789267 -0.530406 2 0 2 
z
" style="stroke: #000000; stroke-opacity: 0.4"/>
    </defs>
    <g clip-path="url(#p10fd910d12)">
     <use xlink:href="#m39d5541d04" x="359.016476" y="141.619817" style="fill: #2a2eec; fill-opacity: 0.4; stroke: #000000; stroke-opacity: 0.4"/>
     <use xlink:href="#m39d5541d04" x="284.201008" y="193.877649" style="fill: #2a2eec; fill-opacity: 0.4; stroke: #000000; stroke-opacity: 0.4"/>
     <use xlink:href="#m39d5541d04" x="367.83442" y="143.275664" style="fill: #2a2eec; fill-opacity: 0.4; stroke: #000000; stroke-opacity: 0.4"/>
     <use xlink:href="#m39d5541d04" x="402.840494" y="124.70862" style="fill: #2a2eec; fill-opacity: 0.4; stroke: #000000; stroke-opacity: 0.4"/>
     <use xlink:href="#m39d5541d04" x="296.886834" y="178.420322" style="fill: #2a2eec; fill-opacity: 0.4; stroke: #000000; stroke-opacity: 0.4"/>
     <use xlink:href="#m39d5541d04" x="147.702705" y="202.418773" style="fill: #2a2eec; fill-opacity: 0.4; stroke: #000000; stroke-opacity: 0.4"/>
     <use xlink:href="#m39d5541d04" x="447.48389" y="77.118879" style="fill: #2a2eec; fill-opacity: 0.4; stroke: #000000; stroke-opacity: 0.4"/>
     <use xlink:href="#m39d5541d04" x="417.641965" y="125.654424" style="fill: #2a2eec; fill-opacity: 0.4; stroke: #000000; stroke-opacity: 0.4"/>
     <use xlink:href="#m39d5541d04" x="181.023927" y="222.556066" style="fill: #2a2eec; fill-opacity: 0.4; stroke: #000000; stroke-opacity: 0.4"/>
     <use xlink:href="#m39d5541d04" x="377.861135" y="119.877004" style="fill: #2a2eec; fill-opacity: 0.4; stroke: #000000; stroke-opacity: 0.4"/>
     <use xlink:href="#m39d5541d04" x="316.817372" y="186.678088" style="fill: #2a2eec; fill-opacity: 0.4; stroke: #000000; stroke-opacity: 0.4"/>
     <use xlink:href="#m39d5541d04" x="190.813861" y="207.827679" style="fill: #2a2eec; fill-opacity: 0.4; stroke: #000000; stroke-opacity: 0.4"/>
     <use xlink:href="#m39d5541d04" x="392.108383" y="144.632589" style="fill: #2a2eec; fill-opacity: 0.4; stroke: #000000; stroke-opacity: 0.4"/>
     <use xlink:href="#m39d5541d04" x="324.515777" y="112.645946" style="fill: #2a2eec; fill-opacity: 0.4; stroke: #000000; stroke-opacity: 0.4"/>
     <use xlink:href="#m39d5541d04" x="325.904782" y="150.178516" style="fill: #2a2eec; fill-opacity: 0.4; stroke: #000000; stroke-opacity: 0.4"/>
     <use xlink:href="#m39d5541d04" x="393.317481" y="109.767754" style="fill: #2a2eec; fill-opacity: 0.4; stroke: #000000; stroke-opacity: 0.4"/>
     <use xlink:href="#m39d5541d04" x="230.21903" y="183.619707" style="fill: #2a2eec; fill-opacity: 0.4; stroke: #000000; stroke-opacity: 0.4"/>
     <use xlink:href="#m39d5541d04" x="421.30589" y="98.859863" style="fill: #2a2eec; fill-opacity: 0.4; stroke: #000000; stroke-opacity: 0.4"/>
     <use xlink:href="#m39d5541d04" x="205.281453" y="207.531226" style="fill: #2a2eec; fill-opacity: 0.4; stroke: #000000; stroke-opacity: 0.4"/>
     <use xlink:href="#m39d5541d04" x="355.117225" y="154.584147" style="fill: #2a2eec; fill-opacity: 0.4; stroke: #000000; stroke-opacity: 0.4"/>
     <use xlink:href="#m39d5541d04" x="393.631352" y="134.032996" style="fill: #2a2eec; fill-opacity: 0.4; stroke: #000000; stroke-opacity: 0.4"/>
     <use xlink:href="#m39d5541d04" x="290.925205" y="177.902339" style="fill: #2a2eec; fill-opacity: 0.4; stroke: #000000; stroke-opacity: 0.4"/>
     <use xlink:href="#m39d5541d04" x="292.709806" y="207.823631" style="fill: #2a2eec; fill-opacity: 0.4; stroke: #000000; stroke-opacity: 0.4"/>
     <use xlink:href="#m39d5541d04" x="237.49863" y="197.580641" style="fill: #2a2eec; fill-opacity: 0.4; stroke: #000000; stroke-opacity: 0.4"/>
     <use xlink:href="#m39d5541d04" x="323.452662" y="180.0128" style="fill: #2a2eec; fill-opacity: 0.4; stroke: #000000; stroke-opacity: 0.4"/>
     <use xlink:href="#m39d5541d04" x="215.343368" y="194.770238" style="fill: #2a2eec; fill-opacity: 0.4; stroke: #000000; stroke-opacity: 0.4"/>
     <use xlink:href="#m39d5541d04" x="322.000827" y="156.253212" style="fill: #2a2eec; fill-opacity: 0.4; stroke: #000000; stroke-opacity: 0.4"/>
     <use xlink:href="#m39d5541d04" x="308.867828" y="177.624248" style="fill: #2a2eec; fill-opacity: 0.4; stroke: #000000; stroke-opacity: 0.4"/>
     <use xlink:href="#m39d5541d04" x="160.331384" y="245.464231" style="fill: #2a2eec; fill-opacity: 0.4; stroke: #000000; stroke-opacity: 0.4"/>
     <use xlink:href="#m39d5541d04" x="330.769603" y="143.944956" style="fill: #2a2eec; fill-opacity: 0.4; stroke: #000000; stroke-opacity: 0.4"/>
     <use xlink:href="#m39d5541d04" x="302.365929" y="166.693178" style="fill: #2a2eec; fill-opacity: 0.4; stroke: #000000; stroke-opacity: 0.4"/>
     <use xlink:href="#m39d5541d04" x="253.042435" y="184.85112" style="fill: #2a2eec; fill-opacity: 0.4; stroke: #000000; stroke-opacity: 0.4"/>
     <use xlink:href="#m39d5541d04" x="381.160977" y="133.167138" style="fill: #2a2eec; fill-opacity: 0.4; stroke: #000000; stroke-opacity: 0.4"/>
     <use xlink:href="#m39d5541d04" x="374.069203" y="131.811776" style="fill: #2a2eec; fill-opacity: 0.4; stroke: #000000; stroke-opacity: 0.4"/>
     <use xlink:href="#m39d5541d04" x="173.650664" y="207.107744" style="fill: #2a2eec; fill-opacity: 0.4; stroke: #000000; stroke-opacity: 0.4"/>
     <use xlink:href="#m39d5541d04" x="442.451677" y="93.812834" style="fill: #2a2eec; fill-opacity: 0.4; stroke: #000000; stroke-opacity: 0.4"/>
     <use xlink:href="#m39d5541d04" x="437.135825" y="81.760106" style="fill: #2a2eec; fill-opacity: 0.4; stroke: #000000; stroke-opacity: 0.4"/>
     <use xlink:href="#m39d5541d04" x="496.495766" y="108.993299" style="fill: #2a2eec; fill-opacity: 0.4; stroke: #000000; stroke-opacity: 0.4"/>
     <use xlink:href="#m39d5541d04" x="399.034205" y="110.632086" style="fill: #2a2eec; fill-opacity: 0.4; stroke: #000000; stroke-opacity: 0.4"/>
     <use xlink:href="#m39d5541d04" x="370.439637" y="141.141046" style="fill: #2a2eec; fill-opacity: 0.4; stroke: #000000; stroke-opacity: 0.4"/>
     <use xlink:href="#m39d5541d04" x="236.033391" y="194.880302" style="fill: #2a2eec; fill-opacity: 0.4; stroke: #000000; stroke-opacity: 0.4"/>
     <use xlink:href="#m39d5541d04" x="236.938434" y="182.471284" style="fill: #2a2eec; fill-opacity: 0.4; stroke: #000000; stroke-opacity: 0.4"/>
     <use xlink:href="#m39d5541d04" x="299.275806" y="195.0316" style="fill: #2a2eec; fill-opacity: 0.4; stroke: #000000; stroke-opacity: 0.4"/>
     <use xlink:href="#m39d5541d04" x="268.128946" y="161.999731" style="fill: #2a2eec; fill-opacity: 0.4; stroke: #000000; stroke-opacity: 0.4"/>
     <use xlink:href="#m39d5541d04" x="392.169633" y="131.957554" style="fill: #2a2eec; fill-opacity: 0.4; stroke: #000000; stroke-opacity: 0.4"/>
     <use xlink:href="#m39d5541d04" x="236.546162" y="159.824099" style="fill: #2a2eec; fill-opacity: 0.4; stroke: #000000; stroke-opacity: 0.4"/>
     <use xlink:href="#m39d5541d04" x="187.484277" y="220.288582" style="fill: #2a2eec; fill-opacity: 0.4; stroke: #000000; stroke-opacity: 0.4"/>
     <use xlink:href="#m39d5541d04" x="325.476776" y="166.715904" style="fill: #2a2eec; fill-opacity: 0.4; stroke: #000000; stroke-opacity: 0.4"/>
     <use xlink:href="#m39d5541d04" x="414.70661" y="125.625671" style="fill: #2a2eec; fill-opacity: 0.4; stroke: #000000; stroke-opacity: 0.4"/>
     <use xlink:href="#m39d5541d04" x="281.164068" y="185.21371" style="fill: #2a2eec; fill-opacity: 0.4; stroke: #000000; stroke-opacity: 0.4"/>
     <use xlink:href="#m39d5541d04" x="260.57565" y="214.033459" style="fill: #2a2eec; fill-opacity: 0.4; stroke: #000000; stroke-opacity: 0.4"/>
     <use xlink:href="#m39d5541d04" x="324.716539" y="179.398053" style="fill: #2a2eec; fill-opacity: 0.4; stroke: #000000; stroke-opacity: 0.4"/>
     <use xlink:href="#m39d5541d04" x="263.991268" y="185.945197" style="fill: #2a2eec; fill-opacity: 0.4; stroke: #000000; stroke-opacity: 0.4"/>
     <use xlink:href="#m39d5541d04" x="279.309655" y="176.858378" style="fill: #2a2eec; fill-opacity: 0.4; stroke: #000000; stroke-opacity: 0.4"/>
     <use xlink:href="#m39d5541d04" x="372.498339" y="168.595767" style="fill: #2a2eec; fill-opacity: 0.4; stroke: #000000; stroke-opacity: 0.4"/>
     <use xlink:href="#m39d5541d04" x="324.931639" y="159.527829" style="fill: #2a2eec; fill-opacity: 0.4; stroke: #000000; stroke-opacity: 0.4"/>
     <use xlink:href="#m39d5541d04" x="251.897955" y="166.689879" style="fill: #2a2eec; fill-opacity: 0.4; stroke: #000000; stroke-opacity: 0.4"/>
     <use xlink:href="#m39d5541d04" x="388.429802" y="126.675374" style="fill: #2a2eec; fill-opacity: 0.4; stroke: #000000; stroke-opacity: 0.4"/>
     <use xlink:href="#m39d5541d04" x="272.138004" y="174.69783" style="fill: #2a2eec; fill-opacity: 0.4; stroke: #000000; stroke-opacity: 0.4"/>
     <use xlink:href="#m39d5541d04" x="327.629131" y="145.976863" style="fill: #2a2eec; fill-opacity: 0.4; stroke: #000000; stroke-opacity: 0.4"/>
     <use xlink:href="#m39d5541d04" x="206.492171" y="186.765802" style="fill: #2a2eec; fill-opacity: 0.4; stroke: #000000; stroke-opacity: 0.4"/>
     <use xlink:href="#m39d5541d04" x="242.751896" y="136.961652" style="fill: #2a2eec; fill-opacity: 0.4; stroke: #000000; stroke-opacity: 0.4"/>
     <use xlink:href="#m39d5541d04" x="202.669579" y="219.086057" style="fill: #2a2eec; fill-opacity: 0.4; stroke: #000000; stroke-opacity: 0.4"/>
     <use xlink:href="#m39d5541d04" x="271.364956" y="188.283155" style="fill: #2a2eec; fill-opacity: 0.4; stroke: #000000; stroke-opacity: 0.4"/>
     <use xlink:href="#m39d5541d04" x="207.98506" y="169.465476" style="fill: #2a2eec; fill-opacity: 0.4; stroke: #000000; stroke-opacity: 0.4"/>
     <use xlink:href="#m39d5541d04" x="126.693933" y="241.823626" style="fill: #2a2eec; fill-opacity: 0.4; stroke: #000000; stroke-opacity: 0.4"/>
     <use xlink:href="#m39d5541d04" x="254.465698" y="189.360904" style="fill: #2a2eec; fill-opacity: 0.4; stroke: #000000; stroke-opacity: 0.4"/>
     <use xlink:href="#m39d5541d04" x="240.034913" y="199.38442" style="fill: #2a2eec; fill-opacity: 0.4; stroke: #000000; stroke-opacity: 0.4"/>
     <use xlink:href="#m39d5541d04" x="275.494599" y="203.764523" style="fill: #2a2eec; fill-opacity: 0.4; stroke: #000000; stroke-opacity: 0.4"/>
     <use xlink:href="#m39d5541d04" x="405.016808" y="164.382916" style="fill: #2a2eec; fill-opacity: 0.4; stroke: #000000; stroke-opacity: 0.4"/>
     <use xlink:href="#m39d5541d04" x="379.025608" y="131.683283" style="fill: #2a2eec; fill-opacity: 0.4; stroke: #000000; stroke-opacity: 0.4"/>
     <use xlink:href="#m39d5541d04" x="254.243245" y="153.693142" style="fill: #2a2eec; fill-opacity: 0.4; stroke: #000000; stroke-opacity: 0.4"/>
     <use xlink:href="#m39d5541d04" x="202.583761" y="205.213423" style="fill: #2a2eec; fill-opacity: 0.4; stroke: #000000; stroke-opacity: 0.4"/>
     <use xlink:href="#m39d5541d04" x="236.338401" y="214.605689" style="fill: #2a2eec; fill-opacity: 0.4; stroke: #000000; stroke-opacity: 0.4"/>
     <use xlink:href="#m39d5541d04" x="236.721214" y="177.081368" style="fill: #2a2eec; fill-opacity: 0.4; stroke: #000000; stroke-opacity: 0.4"/>
     <use xlink:href="#m39d5541d04" x="407.236655" y="121.503009" style="fill: #2a2eec; fill-opacity: 0.4; stroke: #000000; stroke-opacity: 0.4"/>
     <use xlink:href="#m39d5541d04" x="275.053983" y="222.35477" style="fill: #2a2eec; fill-opacity: 0.4; stroke: #000000; stroke-opacity: 0.4"/>
     <use xlink:href="#m39d5541d04" x="371.911634" y="159.352393" style="fill: #2a2eec; fill-opacity: 0.4; stroke: #000000; stroke-opacity: 0.4"/>
     <use xlink:href="#m39d5541d04" x="325.983938" y="118.280319" style="fill: #2a2eec; fill-opacity: 0.4; stroke: #000000; stroke-opacity: 0.4"/>
     <use xlink:href="#m39d5541d04" x="200.905504" y="197.719802" style="fill: #2a2eec; fill-opacity: 0.4; stroke: #000000; stroke-opacity: 0.4"/>
     <use xlink:href="#m39d5541d04" x="208.648519" y="203.690848" style="fill: #2a2eec; fill-opacity: 0.4; stroke: #000000; stroke-opacity: 0.4"/>
     <use xlink:href="#m39d5541d04" x="274.097412" y="180.418503" style="fill: #2a2eec; fill-opacity: 0.4; stroke: #000000; stroke-opacity: 0.4"/>
     <use xlink:href="#m39d5541d04" x="342.439837" y="137.467819" style="fill: #2a2eec; fill-opacity: 0.4; stroke: #000000; stroke-opacity: 0.4"/>
     <use xlink:href="#m39d5541d04" x="286.462449" y="144.806379" style="fill: #2a2eec; fill-opacity: 0.4; stroke: #000000; stroke-opacity: 0.4"/>
     <use xlink:href="#m39d5541d04" x="292.79295" y="147.363385" style="fill: #2a2eec; fill-opacity: 0.4; stroke: #000000; stroke-opacity: 0.4"/>
     <use xlink:href="#m39d5541d04" x="265.462969" y="168.866644" style="fill: #2a2eec; fill-opacity: 0.4; stroke: #000000; stroke-opacity: 0.4"/>
     <use xlink:href="#m39d5541d04" x="378.399344" y="116.460787" style="fill: #2a2eec; fill-opacity: 0.4; stroke: #000000; stroke-opacity: 0.4"/>
     <use xlink:href="#m39d5541d04" x="296.323341" y="183.617548" style="fill: #2a2eec; fill-opacity: 0.4; stroke: #000000; stroke-opacity: 0.4"/>
     <use xlink:href="#m39d5541d04" x="343.51265" y="151.164522" style="fill: #2a2eec; fill-opacity: 0.4; stroke: #000000; stroke-opacity: 0.4"/>
     <use xlink:href="#m39d5541d04" x="189.823316" y="217.120214" style="fill: #2a2eec; fill-opacity: 0.4; stroke: #000000; stroke-opacity: 0.4"/>
     <use xlink:href="#m39d5541d04" x="266.770831" y="191.822749" style="fill: #2a2eec; fill-opacity: 0.4; stroke: #000000; stroke-opacity: 0.4"/>
     <use xlink:href="#m39d5541d04" x="270.898558" y="211.14349" style="fill: #2a2eec; fill-opacity: 0.4; stroke: #000000; stroke-opacity: 0.4"/>
     <use xlink:href="#m39d5541d04" x="240.163616" y="218.861063" style="fill: #2a2eec; fill-opacity: 0.4; stroke: #000000; stroke-opacity: 0.4"/>
     <use xlink:href="#m39d5541d04" x="309.993815" y="149.600198" style="fill: #2a2eec; fill-opacity: 0.4; stroke: #000000; stroke-opacity: 0.4"/>
     <use xlink:href="#m39d5541d04" x="227.676301" y="227.135428" style="fill: #2a2eec; fill-opacity: 0.4; stroke: #000000; stroke-opacity: 0.4"/>
     <use xlink:href="#m39d5541d04" x="261.766138" y="197.918765" style="fill: #2a2eec; fill-opacity: 0.4; stroke: #000000; stroke-opacity: 0.4"/>
     <use xlink:href="#m39d5541d04" x="298.407127" y="197.44671" style="fill: #2a2eec; fill-opacity: 0.4; stroke: #000000; stroke-opacity: 0.4"/>
     <use xlink:href="#m39d5541d04" x="274.371913" y="160.305658" style="fill: #2a2eec; fill-opacity: 0.4; stroke: #000000; stroke-opacity: 0.4"/>
     <use xlink:href="#m39d5541d04" x="318.890158" y="141.872655" style="fill: #2a2eec; fill-opacity: 0.4; stroke: #000000; stroke-opacity: 0.4"/>
     <use xlink:href="#m39d5541d04" x="311.874445" y="161.450145" style="fill: #2a2eec; fill-opacity: 0.4; stroke: #000000; stroke-opacity: 0.4"/>
    </g>
   </g>
   <g id="line2d_36">
    <path d="M 359.016476 143.308598 
L 284.201008 173.832966 
L 367.83442 139.710918 
L 402.840494 125.4286 
L 296.886834 168.657207 
L 147.702705 229.523647 
L 447.48389 107.214299 
L 417.641965 119.389668 
L 181.023927 215.928741 
L 377.861135 135.620064 
L 316.817372 160.525639 
L 190.813861 211.934493 
L 392.108383 129.807252 
L 324.515777 157.384725 
L 325.904782 156.818017 
L 393.317481 129.313946 
L 230.21903 195.857365 
L 421.30589 117.894803 
L 205.281453 206.031782 
L 355.117225 144.899475 
L 393.631352 129.185887 
L 290.925205 171.089524 
L 292.709806 170.361415 
L 237.49863 192.887322 
L 323.452662 157.818471 
L 215.343368 201.926567 
L 322.000827 158.410813 
L 308.867828 163.769017 
L 160.331384 224.371204 
L 330.769603 154.833193 
L 302.365929 166.421761 
L 253.042435 186.545521 
L 381.160977 134.273743 
L 374.069203 137.167155 
L 173.650664 218.936999 
L 442.451677 109.267419 
L 437.135825 111.436262 
L 496.495766 87.217679 
L 399.034205 126.981548 
L 370.439637 138.648001 
L 236.033391 193.485132 
L 236.938434 193.115879 
L 299.275806 167.682517 
L 268.128946 180.390294 
L 392.169633 129.782262 
L 236.546162 193.275924 
L 187.484277 213.292948 
L 325.476776 156.992642 
L 414.70661 120.587279 
L 281.164068 175.072023 
L 260.57565 183.472003 
L 324.716539 157.302815 
L 263.991268 182.078447 
L 279.309655 175.828615 
L 372.498339 137.80806 
L 324.931639 157.215055 
L 251.897955 187.012463 
L 388.429802 131.308096 
L 272.138004 178.754616 
L 327.629131 156.114491 
L 206.492171 205.537815 
L 242.751896 190.744013 
L 202.669579 207.097415 
L 271.364956 179.070016 
L 207.98506 204.928723 
L 126.693933 238.09513 
L 254.465698 185.964836 
L 240.034913 191.85253 
L 275.494599 177.385141 
L 405.016808 124.540674 
L 379.025608 135.144964 
L 254.243245 186.055596 
L 202.583761 207.132428 
L 236.338401 193.36069 
L 236.721214 193.204504 
L 407.236655 123.634986 
L 275.053983 177.56491 
L 371.911634 138.047433 
L 325.983938 156.785722 
L 200.905504 207.817149 
L 208.648519 204.658035 
L 274.097412 177.955186 
L 342.439837 150.071791 
L 286.462449 172.910308 
L 292.79295 170.327493 
L 265.462969 181.478 
L 378.399344 135.400477 
L 296.323341 168.887109 
L 343.51265 149.634088 
L 189.823316 212.338631 
L 266.770831 180.944398 
L 270.898558 179.260304 
L 240.163616 191.80002 
L 309.993815 163.309619 
L 227.676301 196.894787 
L 261.766138 182.98629 
L 298.407127 168.036934 
L 274.371913 177.843192 
L 318.890158 159.679952 
L 311.874445 162.54233 
" clip-path="url(#p10fd910d12)" style="fill: none; stroke: #000000; stroke-width: 0.2; stroke-linecap: round"/>
   </g>
   <g id="line2d_37">
    <path d="M 127.623083 247.823737 
L 128.552233 246.964626 
L 165.718247 229.908578 
L 204.742561 212.246436 
L 240.050273 196.8088 
L 297.657594 171.837688 
L 314.3823 165.035501 
L 334.823607 157.108787 
L 366.414719 145.02968 
L 383.139425 138.859762 
L 463.046354 109.63797 
L 485.345962 101.834922 
L 496.495766 98.017664 
L 496.495766 98.017664 
" clip-path="url(#p10fd910d12)" style="fill: none; stroke: #fa7c17; stroke-opacity: 0; stroke-width: 3; stroke-linecap: round"/>
   </g>
   <g id="line2d_38">
    <path d="M 127.623083 228.799514 
L 128.552233 228.118518 
L 253.058378 182.376756 
L 266.066483 177.345653 
L 284.649489 169.91694 
L 308.807398 160.015883 
L 334.823607 149.117583 
L 355.264915 140.178649 
L 384.997725 127.064424 
L 414.730536 113.796328 
L 440.746746 101.744184 
L 457.471452 94.139442 
L 481.62936 83.409269 
L 496.495766 76.928911 
L 496.495766 76.928911 
" clip-path="url(#p10fd910d12)" style="fill: none; stroke: #fa7c17; stroke-opacity: 0; stroke-width: 3; stroke-linecap: round"/>
   </g>
   <g id="line2d_39">
    <path d="M 127.623083 274.123429 
L 128.552233 273.366446 
L 175.00975 254.318189 
L 186.159554 249.617173 
L 189.876155 248.029742 
L 202.88426 243.012749 
L 206.600861 241.554538 
L 228.900469 232.149707 
L 241.908574 226.860782 
L 264.208182 218.603891 
L 273.499685 214.767586 
L 279.074587 212.500859 
L 295.799293 205.432082 
L 303.232496 202.190362 
L 310.665699 199.078677 
L 312.523999 198.374156 
L 319.957202 195.057012 
L 323.673803 193.60978 
L 325.532104 192.931883 
L 327.390405 192.118585 
L 334.823607 189.290435 
L 338.540209 187.771539 
L 351.548313 183.000577 
L 366.414719 177.199546 
L 409.155634 159.200411 
L 418.447137 155.444404 
L 427.738641 152.102574 
L 431.455242 150.811024 
L 437.030144 148.728047 
L 464.904654 139.283031 
L 479.77106 134.517424 
L 494.637465 129.970133 
L 496.495766 129.417072 
L 496.495766 129.417072 
" clip-path="url(#p10fd910d12)" style="fill: none; stroke: #fa7c17; stroke-opacity: 0; stroke-width: 3; stroke-linecap: round"/>
   </g>
   <g id="line2d_40">
    <path d="M 127.623083 197.558443 
L 128.552233 196.893123 
L 145.276939 190.781592 
L 162.001645 184.447484 
L 176.868051 178.630309 
L 204.742561 167.067224 
L 212.175763 164.16241 
L 227.042169 158.826368 
L 232.617071 156.919969 
L 234.475371 156.321847 
L 240.050273 154.181715 
L 253.058378 149.608702 
L 264.208182 146.173275 
L 280.932888 139.452523 
L 284.649489 137.878747 
L 290.224391 135.657803 
L 293.940993 133.97783 
L 301.374195 130.562642 
L 314.3823 124.987477 
L 334.823607 116.776006 
L 336.681908 115.919525 
L 342.25681 113.852458 
L 345.973411 112.501963 
L 351.548313 110.375764 
L 358.981516 107.512624 
L 375.706222 100.515078 
L 379.422823 98.836386 
L 384.997725 96.301472 
L 392.430928 92.913834 
L 396.147529 91.306882 
L 409.155634 86.039965 
L 416.588837 83.378596 
L 425.88034 79.914145 
L 438.888445 75.23599 
L 446.321648 72.665498 
L 459.329752 67.651164 
L 472.337857 62.405016 
L 485.345962 56.927054 
L 496.495766 52.047152 
L 496.495766 52.047152 
" clip-path="url(#p10fd910d12)" style="fill: none; stroke: #fa7c17; stroke-opacity: 0; stroke-width: 3; stroke-linecap: round"/>
   </g>
   <g id="patch_3">
    <path d="M 61.36 314.19952 
L 61.36 24.1275 
" style="fill: none"/>
   </g>
   <g id="patch_4">
    <path d="M 61.36 314.19952 
L 516.09952 314.19952 
" style="fill: none"/>
   </g>
   <g id="text_20">
    <!-- Posterior predictive checks -->
    <g style="fill: #262626" transform="translate(61.36 18.1275) scale(0.16 -0.16)">
     <defs>
      <path id="STIXGeneral-Regular-73" d="M 998 1926 
L 1664 1523 
Q 1984 1331 2105 1164 
Q 2227 998 2227 736 
Q 2227 416 1961 176 
Q 1696 -64 1331 -64 
Q 1030 -64 864 -6 
Q 691 51 570 51 
Q 461 51 416 -26 
L 333 -26 
L 333 979 
L 435 979 
Q 538 512 730 294 
Q 922 77 1248 77 
Q 1485 77 1632 211 
Q 1779 346 1779 550 
Q 1779 845 1440 1030 
L 1094 1222 
Q 326 1651 326 2150 
Q 326 2522 566 2730 
Q 806 2938 1210 2938 
Q 1491 2938 1638 2867 
Q 1754 2816 1818 2816 
Q 1862 2816 1920 2880 
L 1990 2880 
L 2022 2010 
L 1926 2010 
Q 1818 2445 1654 2621 
Q 1491 2797 1203 2797 
Q 986 2797 854 2688 
Q 723 2579 723 2362 
Q 723 2253 796 2128 
Q 870 2003 998 1926 
z
" transform="scale(0.015625)"/>
      <path id="STIXGeneral-Regular-70" d="M 1018 2931 
L 1018 2438 
Q 1421 2944 1939 2944 
Q 2406 2944 2707 2560 
Q 3008 2176 3008 1581 
Q 3008 883 2621 409 
Q 2234 -64 1664 -64 
Q 1466 -64 1328 -6 
Q 1190 51 1018 211 
L 1018 -794 
Q 1018 -1094 1120 -1180 
Q 1222 -1267 1581 -1274 
L 1581 -1389 
L 32 -1389 
L 32 -1280 
Q 314 -1254 397 -1171 
Q 480 -1088 480 -838 
L 480 2157 
Q 480 2381 429 2451 
Q 378 2522 218 2522 
Q 115 2522 58 2515 
L 58 2618 
Q 506 2752 979 2944 
L 1018 2931 
z
M 1018 2138 
L 1018 563 
Q 1018 422 1238 281 
Q 1459 141 1683 141 
Q 2029 141 2243 467 
Q 2458 794 2458 1325 
Q 2458 1888 2243 2224 
Q 2029 2560 1670 2560 
Q 1446 2560 1232 2419 
Q 1018 2278 1018 2138 
z
" transform="scale(0.015625)"/>
      <path id="STIXGeneral-Regular-76" d="M 3053 2880 
L 3053 2784 
Q 2906 2771 2835 2688 
Q 2765 2605 2637 2285 
L 1818 230 
Q 1690 -90 1638 -90 
Q 1587 -90 1523 77 
Q 1510 96 1497 141 
Q 1485 186 1472 211 
L 704 2048 
Q 499 2534 403 2652 
Q 307 2771 122 2784 
L 122 2880 
L 1376 2880 
L 1376 2784 
Q 1210 2771 1146 2732 
Q 1082 2694 1082 2611 
Q 1082 2509 1139 2368 
L 1792 730 
L 2426 2387 
Q 2464 2483 2464 2579 
Q 2464 2758 2163 2784 
L 2163 2880 
L 3053 2880 
z
" transform="scale(0.015625)"/>
      <path id="STIXGeneral-Regular-68" d="M 3117 0 
L 1760 0 
L 1760 96 
Q 2042 128 2118 224 
Q 2195 320 2195 653 
L 2195 1920 
Q 2195 2598 1722 2598 
Q 1530 2598 1370 2508 
Q 1210 2419 1005 2195 
L 1005 653 
Q 1005 320 1081 224 
Q 1158 128 1440 96 
L 1440 0 
L 58 0 
L 58 96 
Q 333 134 400 224 
Q 467 314 467 653 
L 467 3667 
Q 467 3872 406 3933 
Q 346 3994 141 3994 
Q 83 3994 64 3987 
L 64 4090 
L 237 4141 
Q 730 4288 973 4371 
L 1005 4352 
L 1005 2406 
Q 1229 2694 1446 2819 
Q 1664 2944 1946 2944 
Q 2733 2944 2733 1926 
L 2733 653 
Q 2733 320 2793 233 
Q 2854 147 3117 96 
L 3117 0 
z
" transform="scale(0.015625)"/>
      <path id="STIXGeneral-Regular-6b" d="M 3232 0 
L 1837 0 
L 1837 96 
L 1958 96 
Q 2093 96 2093 192 
Q 2093 250 2022 339 
L 1062 1606 
L 1062 429 
Q 1062 262 1142 185 
Q 1222 109 1414 102 
L 1542 96 
L 1542 0 
L 45 0 
L 45 96 
Q 390 154 457 214 
Q 525 275 525 525 
L 525 3610 
Q 525 3840 467 3920 
Q 410 4000 250 4000 
Q 211 4000 45 3987 
L 45 4090 
L 237 4141 
Q 621 4243 1037 4371 
L 1062 4358 
L 1062 1670 
L 1939 2451 
Q 2086 2586 2086 2675 
Q 2086 2739 2019 2761 
Q 1952 2784 1766 2790 
L 1766 2880 
L 3072 2880 
L 3072 2784 
Q 2752 2784 2505 2646 
Q 2259 2509 1690 1978 
L 1504 1805 
L 2483 563 
Q 2829 122 3232 96 
L 3232 0 
z
" transform="scale(0.015625)"/>
     </defs>
     <use xlink:href="#STIXGeneral-Regular-50"/>
     <use xlink:href="#STIXGeneral-Regular-6f" x="55.699997"/>
     <use xlink:href="#STIXGeneral-Regular-73" x="105.699982"/>
     <use xlink:href="#STIXGeneral-Regular-74" x="144.599976"/>
     <use xlink:href="#STIXGeneral-Regular-65" x="172.399963"/>
     <use xlink:href="#STIXGeneral-Regular-72" x="216.799957"/>
     <use xlink:href="#STIXGeneral-Regular-69" x="250.099945"/>
     <use xlink:href="#STIXGeneral-Regular-6f" x="277.899933"/>
     <use xlink:href="#STIXGeneral-Regular-72" x="327.899918"/>
     <use xlink:href="#STIXGeneral-Regular-20" x="361.199905"/>
     <use xlink:href="#STIXGeneral-Regular-70" x="386.19989"/>
     <use xlink:href="#STIXGeneral-Regular-72" x="436.199875"/>
     <use xlink:href="#STIXGeneral-Regular-65" x="469.499863"/>
     <use xlink:href="#STIXGeneral-Regular-64" x="513.899857"/>
     <use xlink:href="#STIXGeneral-Regular-69" x="563.899841"/>
     <use xlink:href="#STIXGeneral-Regular-63" x="591.699829"/>
     <use xlink:href="#STIXGeneral-Regular-74" x="636.099823"/>
     <use xlink:href="#STIXGeneral-Regular-69" x="663.899811"/>
     <use xlink:href="#STIXGeneral-Regular-76" x="691.699799"/>
     <use xlink:href="#STIXGeneral-Regular-65" x="741.699783"/>
     <use xlink:href="#STIXGeneral-Regular-20" x="786.099777"/>
     <use xlink:href="#STIXGeneral-Regular-63" x="811.099762"/>
     <use xlink:href="#STIXGeneral-Regular-68" x="855.499756"/>
     <use xlink:href="#STIXGeneral-Regular-65" x="905.499741"/>
     <use xlink:href="#STIXGeneral-Regular-63" x="949.899734"/>
     <use xlink:href="#STIXGeneral-Regular-6b" x="994.299728"/>
     <use xlink:href="#STIXGeneral-Regular-73" x="1044.299713"/>
    </g>
   </g>
   <g id="legend_1">
    <g id="line2d_41">
     <g>
      <use xlink:href="#m39d5541d04" x="78.36" y="34.6275" style="fill: #2a2eec; fill-opacity: 0.4; stroke: #000000; stroke-opacity: 0.4"/>
     </g>
    </g>
    <g id="text_21">
     <!-- Data -->
     <g style="fill: #262626" transform="translate(96.36 38.1275) scale(0.1 -0.1)">
      <defs>
       <path id="STIXGeneral-Regular-44" d="M 102 4237 
L 1830 4237 
Q 3078 4237 3750 3654 
Q 4384 3110 4384 2138 
Q 4384 966 3514 410 
Q 2880 0 1901 0 
L 102 0 
L 102 122 
Q 474 147 570 252 
Q 666 358 666 736 
L 666 3520 
Q 666 3891 570 3990 
Q 474 4090 102 4115 
L 102 4237 
z
M 1318 3731 
L 1318 538 
Q 1318 365 1379 301 
Q 1440 237 1626 237 
Q 2125 237 2432 307 
Q 2739 378 3021 570 
Q 3686 1018 3686 2099 
Q 3686 3027 3078 3558 
Q 2803 3802 2476 3901 
Q 2150 4000 1658 4000 
Q 1472 4000 1395 3942 
Q 1318 3885 1318 3731 
z
" transform="scale(0.015625)"/>
       <path id="STIXGeneral-Regular-61" d="M 2829 422 
L 2829 243 
Q 2586 -64 2253 -64 
Q 1888 -64 1843 403 
L 1837 403 
Q 1427 -64 909 -64 
Q 608 -64 422 112 
Q 237 288 237 602 
Q 237 1050 685 1350 
Q 992 1555 1837 1869 
L 1837 2214 
Q 1837 2502 1699 2646 
Q 1562 2790 1338 2790 
Q 1146 2790 1018 2697 
Q 890 2605 890 2477 
Q 890 2419 909 2348 
Q 928 2278 928 2208 
Q 928 2112 841 2029 
Q 755 1946 634 1946 
Q 525 1946 441 2029 
Q 358 2112 358 2240 
Q 358 2547 685 2752 
Q 986 2944 1421 2944 
Q 1939 2944 2176 2656 
Q 2291 2522 2323 2384 
Q 2355 2246 2355 1946 
L 2355 723 
Q 2355 301 2554 301 
Q 2682 301 2829 422 
z
M 1837 813 
L 1837 1715 
Q 1248 1510 1018 1293 
Q 800 1094 800 800 
Q 800 557 921 432 
Q 1043 307 1242 307 
Q 1453 307 1613 410 
Q 1747 506 1792 589 
Q 1837 672 1837 813 
z
" transform="scale(0.015625)"/>
      </defs>
      <use xlink:href="#STIXGeneral-Regular-44"/>
      <use xlink:href="#STIXGeneral-Regular-61" x="72.199982"/>
      <use xlink:href="#STIXGeneral-Regular-74" x="116.599976"/>
      <use xlink:href="#STIXGeneral-Regular-61" x="144.399963"/>
     </g>
    </g>
    <g id="line2d_42">
     <path d="M 68.36 47.797812 
L 78.36 47.797812 
L 88.36 47.797812 
" style="fill: none; stroke: #000000; stroke-width: 0.2; stroke-linecap: round"/>
    </g>
    <g id="text_22">
     <!-- Mean outcomes -->
     <g style="fill: #262626" transform="translate(96.36 51.297812) scale(0.1 -0.1)">
      <defs>
       <path id="STIXGeneral-Regular-4d" d="M 5530 0 
L 3738 0 
L 3738 122 
Q 4115 147 4214 265 
Q 4314 384 4314 787 
L 4314 3661 
L 2682 0 
L 2592 0 
L 979 3514 
L 979 966 
Q 979 448 1088 294 
Q 1197 141 1574 122 
L 1574 0 
L 77 0 
L 77 122 
Q 358 141 480 205 
Q 602 269 650 432 
Q 698 595 698 966 
L 698 3514 
Q 698 3878 589 3984 
Q 480 4090 90 4115 
L 90 4237 
L 1357 4237 
L 2835 1024 
L 4250 4237 
L 5523 4237 
L 5523 4115 
Q 5178 4109 5072 3993 
Q 4966 3878 4966 3520 
L 4966 717 
Q 4966 378 5072 262 
Q 5178 147 5530 122 
L 5530 0 
z
" transform="scale(0.015625)"/>
       <path id="STIXGeneral-Regular-6e" d="M 3104 0 
L 1773 0 
L 1779 96 
Q 2016 115 2096 233 
Q 2176 352 2176 672 
L 2176 1946 
Q 2176 2592 1709 2592 
Q 1549 2592 1408 2515 
Q 1267 2438 1050 2227 
L 1050 461 
Q 1050 269 1136 192 
Q 1222 115 1466 96 
L 1466 0 
L 115 0 
L 115 96 
Q 358 115 435 214 
Q 512 314 512 602 
L 512 2157 
Q 512 2394 467 2483 
Q 422 2573 288 2573 
Q 160 2573 102 2547 
L 102 2656 
Q 550 2784 979 2944 
L 1030 2925 
L 1030 2426 
L 1037 2426 
Q 1491 2944 1958 2944 
Q 2323 2944 2518 2688 
Q 2714 2432 2714 1958 
L 2714 544 
Q 2714 288 2790 205 
Q 2867 122 3104 96 
L 3104 0 
z
" transform="scale(0.015625)"/>
      </defs>
      <use xlink:href="#STIXGeneral-Regular-4d"/>
      <use xlink:href="#STIXGeneral-Regular-65" x="88.899994"/>
      <use xlink:href="#STIXGeneral-Regular-61" x="133.299988"/>
      <use xlink:href="#STIXGeneral-Regular-6e" x="177.699982"/>
      <use xlink:href="#STIXGeneral-Regular-20" x="227.699966"/>
      <use xlink:href="#STIXGeneral-Regular-6f" x="252.699951"/>
      <use xlink:href="#STIXGeneral-Regular-75" x="302.699936"/>
      <use xlink:href="#STIXGeneral-Regular-74" x="352.699921"/>
      <use xlink:href="#STIXGeneral-Regular-63" x="380.499908"/>
      <use xlink:href="#STIXGeneral-Regular-6f" x="424.899902"/>
      <use xlink:href="#STIXGeneral-Regular-6d" x="474.899887"/>
      <use xlink:href="#STIXGeneral-Regular-65" x="552.699875"/>
      <use xlink:href="#STIXGeneral-Regular-73" x="597.099869"/>
     </g>
    </g>
    <g id="patch_5">
     <path d="M 174.963125 38.1275 
L 194.963125 38.1275 
L 194.963125 31.1275 
L 174.963125 31.1275 
z
" style="fill: #da70d6; fill-opacity: 0.5; stroke: #da70d6; stroke-opacity: 0.5; stroke-width: 0.8; stroke-linejoin: miter"/>
    </g>
    <g id="text_23">
     <!-- Mean Outcome 94% HPD -->
     <g style="fill: #262626" transform="translate(202.963125 38.1275) scale(0.1 -0.1)">
      <defs>
       <path id="STIXGeneral-Regular-39" d="M 378 -141 
L 358 -13 
Q 1094 115 1603 608 
Q 2112 1101 2304 1882 
Q 1933 1517 1344 1517 
Q 826 1517 509 1875 
Q 192 2234 192 2816 
Q 192 3462 573 3894 
Q 954 4326 1523 4326 
Q 2131 4326 2528 3840 
Q 2938 3328 2938 2522 
Q 2938 1958 2742 1462 
Q 2547 966 2170 621 
Q 1773 262 1395 105 
Q 1018 -51 378 -141 
z
M 2317 2272 
L 2317 2522 
Q 2317 4147 1472 4147 
Q 1171 4147 1005 3930 
Q 909 3802 845 3546 
Q 781 3290 781 3034 
Q 781 2464 995 2128 
Q 1210 1792 1568 1792 
Q 1824 1792 2070 1917 
Q 2317 2042 2317 2272 
z
" transform="scale(0.015625)"/>
       <path id="STIXGeneral-Regular-34" d="M 3027 1069 
L 2368 1069 
L 2368 0 
L 1869 0 
L 1869 1069 
L 77 1069 
L 77 1478 
L 2086 4326 
L 2368 4326 
L 2368 1478 
L 3027 1478 
L 3027 1069 
z
M 1869 1478 
L 1869 3674 
L 333 1478 
L 1869 1478 
z
" transform="scale(0.015625)"/>
       <path id="STIXGeneral-Regular-25" d="M 4390 1363 
Q 4390 781 4070 329 
Q 3750 -122 3341 -122 
Q 3014 -122 2790 134 
Q 2566 390 2566 762 
Q 2566 1274 2940 1693 
Q 3315 2112 3776 2112 
Q 4070 2112 4230 1917 
Q 4390 1722 4390 1363 
z
M 4243 1376 
Q 4243 1626 4131 1779 
Q 4019 1933 3840 1933 
Q 3654 1933 3526 1786 
Q 3315 1562 3171 1187 
Q 3027 813 3027 486 
Q 3027 301 3129 176 
Q 3232 51 3386 51 
Q 3718 51 3980 457 
Q 4243 864 4243 1376 
z
M 3974 4518 
L 1222 -115 
L 922 -115 
L 3443 4096 
Q 3264 3891 3094 3811 
Q 2925 3731 2669 3731 
Q 2445 3731 2182 3821 
Q 2208 3674 2208 3539 
Q 2208 3206 2067 2873 
Q 1926 2541 1696 2323 
Q 1453 2086 1146 2086 
Q 826 2086 608 2339 
Q 390 2592 390 2963 
Q 390 3507 761 3916 
Q 1133 4326 1626 4326 
Q 1792 4326 2010 4147 
Q 2310 3898 2624 3898 
Q 2918 3898 3084 3994 
Q 3251 4090 3693 4518 
L 3974 4518 
z
M 2054 3642 
Q 2054 3782 2025 3833 
Q 1997 3885 1894 3936 
Q 1747 4006 1613 4154 
Q 1414 4058 1331 3984 
Q 1248 3910 1152 3750 
Q 845 3264 845 2707 
Q 845 2509 944 2384 
Q 1043 2259 1210 2259 
Q 1549 2259 1801 2675 
Q 2054 3091 2054 3642 
z
" transform="scale(0.015625)"/>
       <path id="STIXGeneral-Regular-48" d="M 4499 0 
L 2714 0 
L 2714 122 
Q 3085 147 3181 265 
Q 3277 384 3277 794 
L 3277 2016 
L 1338 2016 
L 1338 723 
Q 1338 371 1440 256 
Q 1542 141 1894 122 
L 1901 0 
L 115 0 
L 115 122 
Q 493 147 589 259 
Q 685 371 685 781 
L 685 3507 
Q 685 3878 585 3980 
Q 486 4083 115 4115 
L 115 4237 
L 1907 4237 
L 1907 4115 
Q 1549 4083 1443 3977 
Q 1338 3872 1338 3507 
L 1338 2298 
L 3277 2298 
L 3277 3507 
Q 3277 3878 3177 3980 
Q 3078 4083 2707 4115 
L 2707 4237 
L 4499 4237 
L 4499 4115 
Q 4141 4083 4035 3977 
Q 3930 3872 3930 3507 
L 3930 710 
Q 3930 371 4035 259 
Q 4141 147 4499 122 
L 4499 0 
z
" transform="scale(0.015625)"/>
      </defs>
      <use xlink:href="#STIXGeneral-Regular-4d"/>
      <use xlink:href="#STIXGeneral-Regular-65" x="88.899994"/>
      <use xlink:href="#STIXGeneral-Regular-61" x="133.299988"/>
      <use xlink:href="#STIXGeneral-Regular-6e" x="177.699982"/>
      <use xlink:href="#STIXGeneral-Regular-20" x="227.699966"/>
      <use xlink:href="#STIXGeneral-Regular-4f" x="252.699951"/>
      <use xlink:href="#STIXGeneral-Regular-75" x="324.899933"/>
      <use xlink:href="#STIXGeneral-Regular-74" x="374.899918"/>
      <use xlink:href="#STIXGeneral-Regular-63" x="402.699905"/>
      <use xlink:href="#STIXGeneral-Regular-6f" x="447.099899"/>
      <use xlink:href="#STIXGeneral-Regular-6d" x="497.099884"/>
      <use xlink:href="#STIXGeneral-Regular-65" x="574.899872"/>
      <use xlink:href="#STIXGeneral-Regular-20" x="619.299866"/>
      <use xlink:href="#STIXGeneral-Regular-39" x="644.29985"/>
      <use xlink:href="#STIXGeneral-Regular-34" x="694.299835"/>
      <use xlink:href="#STIXGeneral-Regular-25" x="744.29982"/>
      <use xlink:href="#STIXGeneral-Regular-20" x="818.999802"/>
      <use xlink:href="#STIXGeneral-Regular-48" x="843.999786"/>
      <use xlink:href="#STIXGeneral-Regular-50" x="916.199768"/>
      <use xlink:href="#STIXGeneral-Regular-44" x="971.899765"/>
     </g>
    </g>
    <g id="patch_6">
     <path d="M 174.963125 51.297812 
L 194.963125 51.297812 
L 194.963125 44.297812 
L 174.963125 44.297812 
z
" style="fill: #ff7f50; fill-opacity: 0.2; stroke: #ff7f50; stroke-opacity: 0.2; stroke-width: 0.8; stroke-linejoin: miter"/>
    </g>
    <g id="text_24">
     <!-- Outcome 94% HPD -->
     <g style="fill: #262626" transform="translate(202.963125 51.297812) scale(0.1 -0.1)">
      <use xlink:href="#STIXGeneral-Regular-4f"/>
      <use xlink:href="#STIXGeneral-Regular-75" x="72.199982"/>
      <use xlink:href="#STIXGeneral-Regular-74" x="122.199966"/>
      <use xlink:href="#STIXGeneral-Regular-63" x="149.999954"/>
      <use xlink:href="#STIXGeneral-Regular-6f" x="194.399948"/>
      <use xlink:href="#STIXGeneral-Regular-6d" x="244.399933"/>
      <use xlink:href="#STIXGeneral-Regular-65" x="322.199921"/>
      <use xlink:href="#STIXGeneral-Regular-20" x="366.599915"/>
      <use xlink:href="#STIXGeneral-Regular-39" x="391.599899"/>
      <use xlink:href="#STIXGeneral-Regular-34" x="441.599884"/>
      <use xlink:href="#STIXGeneral-Regular-25" x="491.599869"/>
      <use xlink:href="#STIXGeneral-Regular-20" x="566.29985"/>
      <use xlink:href="#STIXGeneral-Regular-48" x="591.299835"/>
      <use xlink:href="#STIXGeneral-Regular-50" x="663.499817"/>
      <use xlink:href="#STIXGeneral-Regular-44" x="719.199814"/>
     </g>
    </g>
   </g>
  </g>
 </g>
 <defs>
  <clipPath id="p10fd910d12">
   <rect x="61.36" y="24.1275" width="454.73952" height="290.07202"/>
  </clipPath>
 </defs>
</svg>