<?xml version="1.0" encoding="utf-8" standalone="no"?>
<!DOCTYPE svg PUBLIC "-//W3C//DTD SVG 1.1//EN"
  "http://www.w3.org/Graphics/SVG/1.1/DTD/svg11.dtd">
<svg xmlns:xlink="http://www.w3.org/1999/xlink" width="581.299844pt" height="294.293906pt" viewBox="0 0 581.299844 294.293906" xmlns="http://www.w3.org/2000/svg" version="1.1">
 <metadata>
  <rdf:RDF xmlns:dc="http://purl.org/dc/elements/1.1/" xmlns:cc="http://creativecommons.org/ns#" xmlns:rdf="http://www.w3.org/1999/02/22-rdf-syntax-ns#">
   <cc:Work>
    <dc:type rdf:resource="http://purl.org/dc/dcmitype/StillImage"/>
    <dc:date>2023-12-29T00:19:29.716891</dc:date>
    <dc:format>image/svg+xml</dc:format>
    <dc:creator>
     <cc:Agent>
      <dc:title>Matplotlib v3.7.2, https://matplotlib.org/</dc:title>
     </cc:Agent>
    </dc:creator>
   </cc:Work>
  </rdf:RDF>
 </metadata>
 <defs>
  <style type="text/css">*{stroke-linejoin: round; stroke-linecap: butt}</style>
 </defs>
 <g id="figure_1">
  <g id="patch_1">
   <path d="M 0 294.293906 
L 581.299844 294.293906 
L 581.299844 0 
L 0 0 
z
" style="fill: #ffffff"/>
  </g>
  <g id="axes_1">
   <g id="patch_2">
    <path d="M 47.6 248.293906 
L 574.099844 248.293906 
L 574.099844 26.176406 
L 47.6 26.176406 
z
" style="fill: #ffffff"/>
   </g>
   <g id="matplotlib.axis_1">
    <g id="xtick_1">
     <g id="line2d_1">
      <defs>
       <path id="me135a075ef" d="M 0 0 
L 0 3.5 
" style="stroke: #323034; stroke-width: 0.8"/>
      </defs>
      <g>
       <use xlink:href="#me135a075ef" x="95.737129" y="248.293906" style="fill: #323034; stroke: #323034; stroke-width: 0.8"/>
      </g>
     </g>
     <g id="text_1">
      <!-- $\mathdefault{40}$ -->
      <g style="fill: #323034" transform="translate(87.737129 266.221406) scale(0.16 -0.16)">
       <defs>
        <path id="STIXGeneral-Regular-34" d="M 3027 1069 
L 2368 1069 
L 2368 0 
L 1869 0 
L 1869 1069 
L 77 1069 
L 77 1478 
L 2086 4326 
L 2368 4326 
L 2368 1478 
L 3027 1478 
L 3027 1069 
z
M 1869 1478 
L 1869 3674 
L 333 1478 
L 1869 1478 
z
" transform="scale(0.015625)"/>
        <path id="STIXGeneral-Regular-30" d="M 3046 2112 
Q 3046 1683 2963 1302 
Q 2880 922 2717 602 
Q 2554 282 2266 96 
Q 1978 -90 1600 -90 
Q 1210 -90 915 108 
Q 621 307 461 640 
Q 301 973 227 1350 
Q 154 1728 154 2150 
Q 154 2746 301 3222 
Q 448 3699 790 4012 
Q 1133 4326 1626 4326 
Q 2253 4326 2649 3712 
Q 3046 3098 3046 2112 
z
M 2432 2080 
Q 2432 3091 2217 3625 
Q 2003 4160 1587 4160 
Q 1190 4160 979 3622 
Q 768 3085 768 2106 
Q 768 1120 979 598 
Q 1190 77 1600 77 
Q 2003 77 2217 598 
Q 2432 1120 2432 2080 
z
" transform="scale(0.015625)"/>
       </defs>
       <use xlink:href="#STIXGeneral-Regular-34" transform="translate(0 0.40625)"/>
       <use xlink:href="#STIXGeneral-Regular-30" transform="translate(49.999985 0.40625)"/>
      </g>
     </g>
    </g>
    <g id="xtick_2">
     <g id="line2d_2">
      <g>
       <use xlink:href="#me135a075ef" x="155.908539" y="248.293906" style="fill: #323034; stroke: #323034; stroke-width: 0.8"/>
      </g>
     </g>
     <g id="text_2">
      <!-- $\mathdefault{60}$ -->
      <g style="fill: #323034" transform="translate(147.908539 266.221406) scale(0.16 -0.16)">
       <defs>
        <path id="STIXGeneral-Regular-36" d="M 2854 4378 
L 2867 4275 
Q 2112 4154 1606 3664 
Q 1101 3174 973 2451 
Q 1344 2739 1786 2739 
Q 2349 2739 2672 2380 
Q 2995 2022 2995 1402 
Q 2995 774 2669 378 
Q 2291 -90 1651 -90 
Q 870 -90 518 557 
Q 218 1107 218 1786 
Q 218 2835 915 3552 
Q 1312 3962 1731 4131 
Q 2150 4301 2854 4378 
z
M 2419 1203 
Q 2419 2445 1555 2445 
Q 1235 2445 1024 2275 
Q 813 2106 813 1702 
Q 813 954 1046 522 
Q 1280 90 1722 90 
Q 2061 90 2240 394 
Q 2419 698 2419 1203 
z
" transform="scale(0.015625)"/>
       </defs>
       <use xlink:href="#STIXGeneral-Regular-36" transform="translate(0 0.59375)"/>
       <use xlink:href="#STIXGeneral-Regular-30" transform="translate(49.999985 0.59375)"/>
      </g>
     </g>
    </g>
    <g id="xtick_3">
     <g id="line2d_3">
      <g>
       <use xlink:href="#me135a075ef" x="216.07995" y="248.293906" style="fill: #323034; stroke: #323034; stroke-width: 0.8"/>
      </g>
     </g>
     <g id="text_3">
      <!-- $\mathdefault{80}$ -->
      <g style="fill: #323034" transform="translate(208.07995 266.221406) scale(0.16 -0.16)">
       <defs>
        <path id="STIXGeneral-Regular-38" d="M 2848 992 
Q 2848 499 2505 204 
Q 2163 -90 1587 -90 
Q 1050 -90 704 204 
Q 358 499 358 954 
Q 358 1293 524 1533 
Q 691 1773 1190 2125 
Q 710 2522 553 2765 
Q 397 3008 397 3328 
Q 397 3782 745 4054 
Q 1094 4326 1638 4326 
Q 2106 4326 2410 4060 
Q 2714 3795 2714 3411 
Q 2714 3059 2531 2848 
Q 2349 2637 1856 2374 
Q 2432 1990 2640 1689 
Q 2848 1389 2848 992 
z
M 2272 3411 
Q 2272 3744 2086 3945 
Q 1901 4147 1574 4147 
Q 1248 4147 1059 3977 
Q 870 3808 870 3513 
Q 870 3219 1059 2979 
Q 1248 2739 1670 2490 
Q 1997 2682 2134 2896 
Q 2272 3110 2272 3411 
z
M 1734 1741 
L 1357 1997 
Q 1075 1766 960 1545 
Q 845 1325 845 1011 
Q 845 576 1065 333 
Q 1286 90 1658 90 
Q 1971 90 2166 285 
Q 2362 480 2362 794 
Q 2362 1082 2214 1299 
Q 2067 1517 1734 1741 
z
" transform="scale(0.015625)"/>
       </defs>
       <use xlink:href="#STIXGeneral-Regular-38" transform="translate(0 0.40625)"/>
       <use xlink:href="#STIXGeneral-Regular-30" transform="translate(49.999985 0.40625)"/>
      </g>
     </g>
    </g>
    <g id="xtick_4">
     <g id="line2d_4">
      <g>
       <use xlink:href="#me135a075ef" x="276.251361" y="248.293906" style="fill: #323034; stroke: #323034; stroke-width: 0.8"/>
      </g>
     </g>
     <g id="text_4">
      <!-- $\mathdefault{100}$ -->
      <g style="fill: #323034" transform="translate(264.251361 266.221406) scale(0.16 -0.16)">
       <defs>
        <path id="STIXGeneral-Regular-31" d="M 2522 0 
L 755 0 
L 755 96 
Q 1107 115 1235 227 
Q 1363 339 1363 608 
L 1363 3482 
Q 1363 3795 1171 3795 
Q 1082 3795 883 3718 
L 710 3654 
L 710 3744 
L 1856 4326 
L 1914 4307 
L 1914 486 
Q 1914 275 2042 185 
Q 2170 96 2522 96 
L 2522 0 
z
" transform="scale(0.015625)"/>
       </defs>
       <use xlink:href="#STIXGeneral-Regular-31" transform="translate(0 0.40625)"/>
       <use xlink:href="#STIXGeneral-Regular-30" transform="translate(49.999985 0.40625)"/>
       <use xlink:href="#STIXGeneral-Regular-30" transform="translate(99.999969 0.40625)"/>
      </g>
     </g>
    </g>
    <g id="xtick_5">
     <g id="line2d_5">
      <g>
       <use xlink:href="#me135a075ef" x="336.422771" y="248.293906" style="fill: #323034; stroke: #323034; stroke-width: 0.8"/>
      </g>
     </g>
     <g id="text_5">
      <!-- $\mathdefault{120}$ -->
      <g style="fill: #323034" transform="translate(324.422771 266.221406) scale(0.16 -0.16)">
       <defs>
        <path id="STIXGeneral-Regular-32" d="M 3034 877 
L 2688 0 
L 186 0 
L 186 77 
L 1325 1286 
Q 1773 1754 1965 2144 
Q 2157 2534 2157 2950 
Q 2157 3379 1920 3616 
Q 1683 3853 1267 3853 
Q 922 3853 720 3673 
Q 518 3494 326 3021 
L 192 3053 
Q 301 3648 630 3987 
Q 960 4326 1523 4326 
Q 2054 4326 2380 4006 
Q 2707 3686 2707 3200 
Q 2707 2477 1888 1613 
L 832 486 
L 2330 486 
Q 2541 486 2665 569 
Q 2790 653 2944 915 
L 3034 877 
z
" transform="scale(0.015625)"/>
       </defs>
       <use xlink:href="#STIXGeneral-Regular-31" transform="translate(0 0.40625)"/>
       <use xlink:href="#STIXGeneral-Regular-32" transform="translate(49.999985 0.40625)"/>
       <use xlink:href="#STIXGeneral-Regular-30" transform="translate(99.999969 0.40625)"/>
      </g>
     </g>
    </g>
    <g id="xtick_6">
     <g id="line2d_6">
      <g>
       <use xlink:href="#me135a075ef" x="396.594182" y="248.293906" style="fill: #323034; stroke: #323034; stroke-width: 0.8"/>
      </g>
     </g>
     <g id="text_6">
      <!-- $\mathdefault{140}$ -->
      <g style="fill: #323034" transform="translate(384.594182 266.221406) scale(0.16 -0.16)">
       <use xlink:href="#STIXGeneral-Regular-31" transform="translate(0 0.40625)"/>
       <use xlink:href="#STIXGeneral-Regular-34" transform="translate(49.999985 0.40625)"/>
       <use xlink:href="#STIXGeneral-Regular-30" transform="translate(99.999969 0.40625)"/>
      </g>
     </g>
    </g>
    <g id="xtick_7">
     <g id="line2d_7">
      <g>
       <use xlink:href="#me135a075ef" x="456.765593" y="248.293906" style="fill: #323034; stroke: #323034; stroke-width: 0.8"/>
      </g>
     </g>
     <g id="text_7">
      <!-- $\mathdefault{160}$ -->
      <g style="fill: #323034" transform="translate(444.765593 266.221406) scale(0.16 -0.16)">
       <use xlink:href="#STIXGeneral-Regular-31" transform="translate(0 0.59375)"/>
       <use xlink:href="#STIXGeneral-Regular-36" transform="translate(49.999985 0.59375)"/>
       <use xlink:href="#STIXGeneral-Regular-30" transform="translate(99.999969 0.59375)"/>
      </g>
     </g>
    </g>
    <g id="xtick_8">
     <g id="line2d_8">
      <g>
       <use xlink:href="#me135a075ef" x="516.937004" y="248.293906" style="fill: #323034; stroke: #323034; stroke-width: 0.8"/>
      </g>
     </g>
     <g id="text_8">
      <!-- $\mathdefault{180}$ -->
      <g style="fill: #323034" transform="translate(504.937004 266.221406) scale(0.16 -0.16)">
       <use xlink:href="#STIXGeneral-Regular-31" transform="translate(0 0.40625)"/>
       <use xlink:href="#STIXGeneral-Regular-38" transform="translate(49.999985 0.40625)"/>
       <use xlink:href="#STIXGeneral-Regular-30" transform="translate(99.999969 0.40625)"/>
      </g>
     </g>
    </g>
    <g id="text_9">
     <!-- Time step -->
     <g transform="translate(279.073672 283.621406) scale(0.16 -0.16)">
      <defs>
       <path id="STIXGeneral-Regular-54" d="M 3795 3149 
L 3642 3149 
Q 3539 3674 3353 3821 
Q 3168 3968 2656 3968 
L 2278 3968 
L 2278 710 
Q 2278 346 2387 243 
Q 2496 141 2893 122 
L 2893 0 
L 1024 0 
L 1024 122 
Q 1427 147 1526 256 
Q 1626 365 1626 787 
L 1626 3968 
L 1242 3968 
Q 723 3968 540 3817 
Q 358 3667 262 3149 
L 109 3149 
L 154 4237 
L 3750 4237 
L 3795 3149 
z
" transform="scale(0.015625)"/>
       <path id="STIXGeneral-Regular-69" d="M 1152 4045 
Q 1152 3904 1056 3811 
Q 960 3718 819 3718 
Q 685 3718 592 3811 
Q 499 3904 499 4045 
Q 499 4179 595 4275 
Q 691 4371 826 4371 
Q 966 4371 1059 4275 
Q 1152 4179 1152 4045 
z
M 1619 0 
L 102 0 
L 102 96 
Q 435 115 521 211 
Q 608 307 608 666 
L 608 2118 
Q 608 2342 563 2432 
Q 518 2522 397 2522 
Q 243 2522 128 2490 
L 128 2592 
L 1120 2944 
L 1146 2918 
L 1146 672 
Q 1146 314 1226 218 
Q 1306 122 1619 96 
L 1619 0 
z
" transform="scale(0.015625)"/>
       <path id="STIXGeneral-Regular-6d" d="M 4960 0 
L 3565 0 
L 3565 96 
Q 3834 122 3907 208 
Q 3981 294 3981 576 
L 3981 1894 
Q 3981 2278 3869 2444 
Q 3757 2611 3488 2611 
Q 3264 2611 3107 2521 
Q 2950 2432 2803 2221 
L 2803 608 
Q 2803 301 2896 201 
Q 2989 102 3264 96 
L 3264 0 
L 1830 0 
L 1830 96 
Q 2112 115 2189 188 
Q 2266 262 2266 550 
L 2266 1901 
Q 2266 2611 1850 2611 
Q 1670 2611 1468 2531 
Q 1267 2451 1171 2336 
Q 1088 2240 1088 2227 
L 1088 448 
Q 1088 243 1177 176 
Q 1267 109 1523 96 
L 1523 0 
L 102 0 
L 102 96 
Q 371 102 460 195 
Q 550 288 550 563 
L 550 2150 
Q 550 2387 499 2480 
Q 448 2573 326 2573 
Q 230 2573 122 2547 
L 122 2656 
Q 557 2778 1011 2944 
L 1062 2925 
L 1062 2451 
L 1075 2451 
Q 1363 2752 1584 2848 
Q 1805 2944 2054 2944 
Q 2560 2944 2733 2406 
Q 3232 2944 3776 2944 
Q 4518 2944 4518 1792 
L 4518 493 
Q 4518 282 4582 202 
Q 4646 122 4794 109 
L 4960 96 
L 4960 0 
z
" transform="scale(0.015625)"/>
       <path id="STIXGeneral-Regular-65" d="M 2611 1050 
L 2714 1005 
Q 2330 -64 1376 -64 
Q 813 -64 486 329 
Q 160 723 160 1389 
Q 160 2074 525 2509 
Q 890 2944 1485 2944 
Q 2061 2944 2374 2502 
Q 2560 2246 2592 1773 
L 621 1773 
Q 646 1370 700 1158 
Q 755 947 915 730 
Q 1184 378 1626 378 
Q 1939 378 2153 531 
Q 2368 685 2611 1050 
z
M 634 1978 
L 1939 1978 
Q 1882 2381 1750 2547 
Q 1619 2714 1312 2714 
Q 1043 2714 864 2525 
Q 685 2336 634 1978 
z
" transform="scale(0.015625)"/>
       <path id="STIXGeneral-Regular-20" transform="scale(0.015625)"/>
       <path id="STIXGeneral-Regular-73" d="M 998 1926 
L 1664 1523 
Q 1984 1331 2105 1164 
Q 2227 998 2227 736 
Q 2227 416 1961 176 
Q 1696 -64 1331 -64 
Q 1030 -64 864 -6 
Q 691 51 570 51 
Q 461 51 416 -26 
L 333 -26 
L 333 979 
L 435 979 
Q 538 512 730 294 
Q 922 77 1248 77 
Q 1485 77 1632 211 
Q 1779 346 1779 550 
Q 1779 845 1440 1030 
L 1094 1222 
Q 326 1651 326 2150 
Q 326 2522 566 2730 
Q 806 2938 1210 2938 
Q 1491 2938 1638 2867 
Q 1754 2816 1818 2816 
Q 1862 2816 1920 2880 
L 1990 2880 
L 2022 2010 
L 1926 2010 
Q 1818 2445 1654 2621 
Q 1491 2797 1203 2797 
Q 986 2797 854 2688 
Q 723 2579 723 2362 
Q 723 2253 796 2128 
Q 870 2003 998 1926 
z
" transform="scale(0.015625)"/>
       <path id="STIXGeneral-Regular-74" d="M 1702 493 
L 1786 422 
Q 1478 -64 1011 -64 
Q 448 -64 448 749 
L 448 2675 
L 109 2675 
Q 83 2694 83 2720 
Q 83 2771 192 2842 
Q 435 2982 813 3526 
Q 826 3546 874 3606 
Q 922 3667 941 3706 
Q 986 3706 986 3622 
L 986 2880 
L 1632 2880 
L 1632 2675 
L 986 2675 
L 986 845 
Q 986 538 1062 403 
Q 1139 269 1318 269 
Q 1510 269 1702 493 
z
" transform="scale(0.015625)"/>
       <path id="STIXGeneral-Regular-70" d="M 1018 2931 
L 1018 2438 
Q 1421 2944 1939 2944 
Q 2406 2944 2707 2560 
Q 3008 2176 3008 1581 
Q 3008 883 2621 409 
Q 2234 -64 1664 -64 
Q 1466 -64 1328 -6 
Q 1190 51 1018 211 
L 1018 -794 
Q 1018 -1094 1120 -1180 
Q 1222 -1267 1581 -1274 
L 1581 -1389 
L 32 -1389 
L 32 -1280 
Q 314 -1254 397 -1171 
Q 480 -1088 480 -838 
L 480 2157 
Q 480 2381 429 2451 
Q 378 2522 218 2522 
Q 115 2522 58 2515 
L 58 2618 
Q 506 2752 979 2944 
L 1018 2931 
z
M 1018 2138 
L 1018 563 
Q 1018 422 1238 281 
Q 1459 141 1683 141 
Q 2029 141 2243 467 
Q 2458 794 2458 1325 
Q 2458 1888 2243 2224 
Q 2029 2560 1670 2560 
Q 1446 2560 1232 2419 
Q 1018 2278 1018 2138 
z
" transform="scale(0.015625)"/>
      </defs>
      <use xlink:href="#STIXGeneral-Regular-54"/>
      <use xlink:href="#STIXGeneral-Regular-69" x="61.099991"/>
      <use xlink:href="#STIXGeneral-Regular-6d" x="88.899979"/>
      <use xlink:href="#STIXGeneral-Regular-65" x="166.699966"/>
      <use xlink:href="#STIXGeneral-Regular-20" x="211.09996"/>
      <use xlink:href="#STIXGeneral-Regular-73" x="236.099945"/>
      <use xlink:href="#STIXGeneral-Regular-74" x="274.999939"/>
      <use xlink:href="#STIXGeneral-Regular-65" x="302.799927"/>
      <use xlink:href="#STIXGeneral-Regular-70" x="347.199921"/>
     </g>
    </g>
   </g>
   <g id="matplotlib.axis_2">
    <g id="ytick_1">
     <g id="line2d_9">
      <defs>
       <path id="mb6bf52ea01" d="M 0 0 
L -3.5 0 
" style="stroke: #323034; stroke-width: 0.8"/>
      </defs>
      <g>
       <use xlink:href="#mb6bf52ea01" x="47.6" y="248.293906" style="fill: #323034; stroke: #323034; stroke-width: 0.8"/>
      </g>
     </g>
     <g id="text_10">
      <!-- $\mathdefault{14}$ -->
      <g style="fill: #323034" transform="translate(24.6 253.757656) scale(0.16 -0.16)">
       <use xlink:href="#STIXGeneral-Regular-31" transform="translate(0 0.40625)"/>
       <use xlink:href="#STIXGeneral-Regular-34" transform="translate(49.999985 0.40625)"/>
      </g>
     </g>
    </g>
    <g id="ytick_2">
     <g id="line2d_10">
      <g>
       <use xlink:href="#mb6bf52ea01" x="47.6" y="211.274323" style="fill: #323034; stroke: #323034; stroke-width: 0.8"/>
      </g>
     </g>
     <g id="text_11">
      <!-- $\mathdefault{16}$ -->
      <g style="fill: #323034" transform="translate(24.6 216.738073) scale(0.16 -0.16)">
       <use xlink:href="#STIXGeneral-Regular-31" transform="translate(0 0.59375)"/>
       <use xlink:href="#STIXGeneral-Regular-36" transform="translate(49.999985 0.59375)"/>
      </g>
     </g>
    </g>
    <g id="ytick_3">
     <g id="line2d_11">
      <g>
       <use xlink:href="#mb6bf52ea01" x="47.6" y="174.25474" style="fill: #323034; stroke: #323034; stroke-width: 0.8"/>
      </g>
     </g>
     <g id="text_12">
      <!-- $\mathdefault{18}$ -->
      <g style="fill: #323034" transform="translate(24.6 179.71849) scale(0.16 -0.16)">
       <use xlink:href="#STIXGeneral-Regular-31" transform="translate(0 0.40625)"/>
       <use xlink:href="#STIXGeneral-Regular-38" transform="translate(49.999985 0.40625)"/>
      </g>
     </g>
    </g>
    <g id="ytick_4">
     <g id="line2d_12">
      <g>
       <use xlink:href="#mb6bf52ea01" x="47.6" y="137.235156" style="fill: #323034; stroke: #323034; stroke-width: 0.8"/>
      </g>
     </g>
     <g id="text_13">
      <!-- $\mathdefault{20}$ -->
      <g style="fill: #323034" transform="translate(24.6 142.698906) scale(0.16 -0.16)">
       <use xlink:href="#STIXGeneral-Regular-32" transform="translate(0 0.40625)"/>
       <use xlink:href="#STIXGeneral-Regular-30" transform="translate(49.999985 0.40625)"/>
      </g>
     </g>
    </g>
    <g id="ytick_5">
     <g id="line2d_13">
      <g>
       <use xlink:href="#mb6bf52ea01" x="47.6" y="100.215573" style="fill: #323034; stroke: #323034; stroke-width: 0.8"/>
      </g>
     </g>
     <g id="text_14">
      <!-- $\mathdefault{22}$ -->
      <g style="fill: #323034" transform="translate(24.6 105.679323) scale(0.16 -0.16)">
       <use xlink:href="#STIXGeneral-Regular-32" transform="translate(0 0.40625)"/>
       <use xlink:href="#STIXGeneral-Regular-32" transform="translate(49.999985 0.40625)"/>
      </g>
     </g>
    </g>
    <g id="ytick_6">
     <g id="line2d_14">
      <g>
       <use xlink:href="#mb6bf52ea01" x="47.6" y="63.19599" style="fill: #323034; stroke: #323034; stroke-width: 0.8"/>
      </g>
     </g>
     <g id="text_15">
      <!-- $\mathdefault{24}$ -->
      <g style="fill: #323034" transform="translate(24.6 68.65974) scale(0.16 -0.16)">
       <use xlink:href="#STIXGeneral-Regular-32" transform="translate(0 0.40625)"/>
       <use xlink:href="#STIXGeneral-Regular-34" transform="translate(49.999985 0.40625)"/>
      </g>
     </g>
    </g>
    <g id="ytick_7">
     <g id="line2d_15">
      <g>
       <use xlink:href="#mb6bf52ea01" x="47.6" y="26.176406" style="fill: #323034; stroke: #323034; stroke-width: 0.8"/>
      </g>
     </g>
     <g id="text_16">
      <!-- $\mathdefault{26}$ -->
      <g style="fill: #323034" transform="translate(24.6 31.640156) scale(0.16 -0.16)">
       <use xlink:href="#STIXGeneral-Regular-32" transform="translate(0 0.59375)"/>
       <use xlink:href="#STIXGeneral-Regular-36" transform="translate(49.999985 0.59375)"/>
      </g>
     </g>
    </g>
    <g id="text_17">
     <!-- Coefficient value -->
     <g transform="translate(18.1275 192.556406) rotate(-90) scale(0.16 -0.16)">
      <defs>
       <path id="STIXGeneral-Regular-43" d="M 3930 838 
L 4051 723 
Q 3482 -90 2304 -90 
Q 1376 -90 794 480 
Q 179 1082 179 2080 
Q 179 3014 755 3661 
Q 1357 4326 2310 4326 
Q 2720 4326 3072 4230 
Q 3475 4115 3514 4115 
Q 3725 4115 3782 4326 
L 3910 4326 
L 3968 2874 
L 3821 2874 
Q 3718 3334 3488 3584 
Q 3034 4070 2458 4070 
Q 1747 4070 1334 3548 
Q 922 3027 922 2182 
Q 922 1152 1382 653 
Q 1811 192 2522 192 
Q 2944 192 3251 339 
Q 3558 486 3930 838 
z
" transform="scale(0.015625)"/>
       <path id="STIXGeneral-Regular-6f" d="M 3008 1478 
Q 3008 806 2608 371 
Q 2208 -64 1568 -64 
Q 979 -64 582 368 
Q 186 800 186 1459 
Q 186 2125 582 2534 
Q 979 2944 1626 2944 
Q 2221 2944 2614 2537 
Q 3008 2131 3008 1478 
z
M 2432 1306 
Q 2432 2035 2112 2445 
Q 1856 2765 1504 2765 
Q 1171 2765 966 2493 
Q 762 2221 762 1747 
Q 762 928 1101 435 
Q 1318 115 1677 115 
Q 2029 115 2230 432 
Q 2432 749 2432 1306 
z
" transform="scale(0.015625)"/>
       <path id="STIXGeneral-Regular-66" d="M 134 2880 
L 659 2880 
Q 666 3264 710 3478 
Q 755 3693 883 3910 
Q 1152 4371 1786 4371 
Q 2074 4371 2262 4259 
Q 2451 4147 2451 3974 
Q 2451 3866 2374 3789 
Q 2298 3712 2182 3712 
Q 2029 3712 1894 3942 
Q 1741 4192 1555 4192 
Q 1197 4192 1197 3622 
L 1197 2880 
L 1978 2880 
L 1978 2675 
L 1197 2675 
L 1197 666 
Q 1197 307 1299 208 
Q 1402 109 1792 96 
L 1792 0 
L 128 0 
L 128 96 
Q 474 115 566 214 
Q 659 314 659 666 
L 659 2675 
L 134 2675 
L 134 2880 
z
" transform="scale(0.015625)"/>
       <path id="STIXGeneral-Regular-63" d="M 2547 998 
L 2637 941 
Q 2362 403 2112 205 
Q 1786 -64 1376 -64 
Q 845 -64 502 336 
Q 160 736 160 1357 
Q 160 2170 698 2618 
Q 1094 2944 1562 2944 
Q 1965 2944 2256 2749 
Q 2547 2554 2547 2285 
Q 2547 2176 2457 2096 
Q 2368 2016 2246 2016 
Q 2022 2016 1939 2310 
L 1901 2451 
Q 1850 2630 1773 2694 
Q 1696 2758 1523 2758 
Q 1133 2758 893 2451 
Q 653 2144 653 1645 
Q 653 1094 928 745 
Q 1203 397 1645 397 
Q 1920 397 2118 528 
Q 2317 659 2547 998 
z
" transform="scale(0.015625)"/>
       <path id="STIXGeneral-Regular-6e" d="M 3104 0 
L 1773 0 
L 1779 96 
Q 2016 115 2096 233 
Q 2176 352 2176 672 
L 2176 1946 
Q 2176 2592 1709 2592 
Q 1549 2592 1408 2515 
Q 1267 2438 1050 2227 
L 1050 461 
Q 1050 269 1136 192 
Q 1222 115 1466 96 
L 1466 0 
L 115 0 
L 115 96 
Q 358 115 435 214 
Q 512 314 512 602 
L 512 2157 
Q 512 2394 467 2483 
Q 422 2573 288 2573 
Q 160 2573 102 2547 
L 102 2656 
Q 550 2784 979 2944 
L 1030 2925 
L 1030 2426 
L 1037 2426 
Q 1491 2944 1958 2944 
Q 2323 2944 2518 2688 
Q 2714 2432 2714 1958 
L 2714 544 
Q 2714 288 2790 205 
Q 2867 122 3104 96 
L 3104 0 
z
" transform="scale(0.015625)"/>
       <path id="STIXGeneral-Regular-76" d="M 3053 2880 
L 3053 2784 
Q 2906 2771 2835 2688 
Q 2765 2605 2637 2285 
L 1818 230 
Q 1690 -90 1638 -90 
Q 1587 -90 1523 77 
Q 1510 96 1497 141 
Q 1485 186 1472 211 
L 704 2048 
Q 499 2534 403 2652 
Q 307 2771 122 2784 
L 122 2880 
L 1376 2880 
L 1376 2784 
Q 1210 2771 1146 2732 
Q 1082 2694 1082 2611 
Q 1082 2509 1139 2368 
L 1792 730 
L 2426 2387 
Q 2464 2483 2464 2579 
Q 2464 2758 2163 2784 
L 2163 2880 
L 3053 2880 
z
" transform="scale(0.015625)"/>
       <path id="STIXGeneral-Regular-61" d="M 2829 422 
L 2829 243 
Q 2586 -64 2253 -64 
Q 1888 -64 1843 403 
L 1837 403 
Q 1427 -64 909 -64 
Q 608 -64 422 112 
Q 237 288 237 602 
Q 237 1050 685 1350 
Q 992 1555 1837 1869 
L 1837 2214 
Q 1837 2502 1699 2646 
Q 1562 2790 1338 2790 
Q 1146 2790 1018 2697 
Q 890 2605 890 2477 
Q 890 2419 909 2348 
Q 928 2278 928 2208 
Q 928 2112 841 2029 
Q 755 1946 634 1946 
Q 525 1946 441 2029 
Q 358 2112 358 2240 
Q 358 2547 685 2752 
Q 986 2944 1421 2944 
Q 1939 2944 2176 2656 
Q 2291 2522 2323 2384 
Q 2355 2246 2355 1946 
L 2355 723 
Q 2355 301 2554 301 
Q 2682 301 2829 422 
z
M 1837 813 
L 1837 1715 
Q 1248 1510 1018 1293 
Q 800 1094 800 800 
Q 800 557 921 432 
Q 1043 307 1242 307 
Q 1453 307 1613 410 
Q 1747 506 1792 589 
Q 1837 672 1837 813 
z
" transform="scale(0.015625)"/>
       <path id="STIXGeneral-Regular-6c" d="M 1645 0 
L 134 0 
L 134 96 
Q 435 122 531 221 
Q 627 320 627 589 
L 627 3590 
Q 627 3821 569 3910 
Q 512 4000 358 4000 
Q 224 4000 122 3987 
L 122 4090 
Q 730 4237 1133 4371 
L 1165 4346 
L 1165 557 
Q 1165 288 1254 201 
Q 1344 115 1645 96 
L 1645 0 
z
" transform="scale(0.015625)"/>
       <path id="STIXGeneral-Regular-75" d="M 3072 320 
L 3072 230 
Q 2573 96 2195 -58 
L 2163 -38 
L 2163 486 
L 2150 486 
Q 1747 -64 1235 -64 
Q 870 -64 662 160 
Q 454 384 454 755 
L 454 2362 
Q 454 2598 371 2688 
Q 288 2778 58 2790 
L 58 2880 
L 992 2880 
L 992 813 
Q 992 595 1123 451 
Q 1254 307 1446 307 
Q 1760 307 1984 506 
Q 2067 582 2099 649 
Q 2131 717 2131 877 
L 2131 2355 
Q 2131 2605 2041 2678 
Q 1952 2752 1658 2771 
L 1658 2880 
L 2669 2880 
L 2669 685 
Q 2669 461 2742 390 
Q 2816 320 3034 320 
L 3072 320 
z
" transform="scale(0.015625)"/>
      </defs>
      <use xlink:href="#STIXGeneral-Regular-43"/>
      <use xlink:href="#STIXGeneral-Regular-6f" x="66.699997"/>
      <use xlink:href="#STIXGeneral-Regular-65" x="116.699982"/>
      <use xlink:href="#STIXGeneral-Regular-66" x="161.099976"/>
      <use xlink:href="#STIXGeneral-Regular-66" x="194.399963"/>
      <use xlink:href="#STIXGeneral-Regular-69" x="227.699951"/>
      <use xlink:href="#STIXGeneral-Regular-63" x="255.499939"/>
      <use xlink:href="#STIXGeneral-Regular-69" x="299.899933"/>
      <use xlink:href="#STIXGeneral-Regular-65" x="327.699921"/>
      <use xlink:href="#STIXGeneral-Regular-6e" x="372.099915"/>
      <use xlink:href="#STIXGeneral-Regular-74" x="422.099899"/>
      <use xlink:href="#STIXGeneral-Regular-20" x="449.899887"/>
      <use xlink:href="#STIXGeneral-Regular-76" x="474.899872"/>
      <use xlink:href="#STIXGeneral-Regular-61" x="524.899857"/>
      <use xlink:href="#STIXGeneral-Regular-6c" x="569.29985"/>
      <use xlink:href="#STIXGeneral-Regular-75" x="597.099838"/>
      <use xlink:href="#STIXGeneral-Regular-65" x="647.099823"/>
     </g>
    </g>
   </g>
   <g id="line2d_16">
    <path d="M 47.6 123.607993 
L 50.608571 130.724912 
L 53.617141 130.423055 
L 56.625712 127.375817 
L 59.634282 128.532394 
L 62.642853 137.193306 
L 65.651423 138.632542 
L 71.668564 138.026841 
L 74.677135 141.67484 
L 77.685705 144.237596 
L 80.694276 144.739774 
L 83.702846 144.660233 
L 86.711417 144.706374 
L 89.719988 148.854641 
L 92.728558 140.345822 
L 95.737129 140.191851 
L 98.745699 150.608015 
L 101.75427 149.920521 
L 104.76284 146.359267 
L 107.771411 147.238485 
L 110.779981 146.259796 
L 113.788552 145.672271 
L 116.797122 147.31839 
L 119.805693 144.432183 
L 122.814263 133.826566 
L 125.822834 129.93329 
L 128.831404 124.68337 
L 131.839975 125.927216 
L 134.848546 119.088103 
L 137.857116 118.853787 
L 140.865687 116.173773 
L 143.874257 109.876759 
L 146.882828 114.751272 
L 149.891398 110.981676 
L 152.899969 100.329779 
L 155.908539 104.222686 
L 158.91711 103.496753 
L 161.92568 110.650274 
L 164.934251 108.270193 
L 167.942821 108.048438 
L 170.951392 102.149605 
L 173.959962 101.546646 
L 176.968533 105.189594 
L 179.977104 105.292968 
L 182.985674 100.012366 
L 189.002815 102.117069 
L 192.011386 102.398494 
L 195.019956 103.87586 
L 198.028527 107.321661 
L 201.037097 105.14845 
L 204.045668 107.115397 
L 207.054238 105.187705 
L 210.062809 109.132644 
L 213.071379 106.345753 
L 216.07995 106.808368 
L 219.088521 111.705482 
L 222.097091 109.347212 
L 225.105662 110.096324 
L 228.114232 114.319044 
L 231.122803 114.944927 
L 234.131373 114.577427 
L 237.139944 105.561979 
L 240.148514 106.449314 
L 243.157085 109.742903 
L 246.165655 128.033843 
L 249.174226 133.690632 
L 252.182796 152.224163 
L 255.191367 140.475616 
L 258.199937 155.53637 
L 261.208508 158.379101 
L 264.217079 154.182705 
L 267.225649 156.609384 
L 270.23422 160.856747 
L 273.24279 162.683574 
L 276.251361 168.005628 
L 279.259931 166.28797 
L 282.268502 165.670547 
L 285.277072 160.422627 
L 288.285643 164.338415 
L 291.294213 162.589893 
L 294.302784 161.853239 
L 297.311354 164.726615 
L 300.319925 162.985182 
L 303.328496 160.170964 
L 306.337066 157.991335 
L 309.345637 154.768357 
L 312.354207 152.397321 
L 315.362778 152.064551 
L 318.371348 151.232001 
L 321.379919 152.374691 
L 324.388489 151.333094 
L 327.39706 148.734433 
L 330.40563 152.896885 
L 333.414201 145.124224 
L 336.422771 143.119617 
L 339.431342 142.077329 
L 342.439912 142.126706 
L 345.448483 139.064215 
L 348.457054 136.457695 
L 351.465624 136.094374 
L 354.474195 139.716094 
L 357.482765 132.679383 
L 360.491336 134.000168 
L 363.499906 129.447421 
L 366.508477 131.567633 
L 369.517047 124.011929 
L 372.525618 122.969888 
L 375.534188 125.46869 
L 378.542759 125.195786 
L 381.551329 120.553763 
L 384.5599 118.968243 
L 387.568471 123.333654 
L 390.577041 118.349111 
L 393.585612 117.109159 
L 396.594182 119.968731 
L 399.602753 121.067277 
L 402.611323 120.513164 
L 405.619894 122.674009 
L 408.628464 122.239775 
L 411.637035 124.173508 
L 414.645605 121.802575 
L 417.654176 113.426893 
L 420.662746 112.025663 
L 423.671317 112.318171 
L 426.679888 111.815036 
L 429.688458 109.98547 
L 432.697029 110.398151 
L 438.71417 113.2807 
L 441.72274 106.173135 
L 444.731311 109.35218 
L 447.739881 108.275902 
L 450.748452 106.280381 
L 453.757022 101.69452 
L 456.765593 99.052316 
L 459.774163 100.465441 
L 462.782734 102.172176 
L 465.791304 102.478676 
L 468.799875 104.253932 
L 471.808446 98.256452 
L 474.817016 98.292169 
L 477.825587 98.475171 
L 480.834157 97.155436 
L 483.842728 97.530129 
L 489.859869 104.581536 
L 492.868439 111.849095 
L 495.87701 114.806006 
L 498.88558 114.212453 
L 501.894151 115.048504 
L 504.902721 118.6093 
L 507.911292 111.937851 
L 510.919862 116.365615 
L 513.928433 114.251356 
L 516.937004 117.629628 
L 519.945574 119.491281 
L 522.954145 119.303377 
L 525.962715 122.622749 
L 528.971286 127.631521 
L 531.979856 145.904427 
L 534.988427 140.433362 
L 537.996997 136.304828 
L 541.005568 139.828269 
L 544.014138 133.01268 
L 547.022709 135.302027 
L 550.031279 134.349265 
L 553.03985 133.655689 
L 556.048421 131.318997 
L 559.056991 133.149464 
L 562.065562 133.558771 
L 565.074132 134.967711 
L 568.082703 134.293467 
L 571.091273 131.330121 
L 574.099844 131.080582 
L 574.099844 131.080582 
" clip-path="url(#pca3b923fa5)" style="fill: none; stroke: #bc80bd; stroke-width: 3; stroke-linecap: square"/>
   </g>
   <g id="line2d_17">
    <path d="M 47.6 159.488562 
L 50.608571 166.257649 
L 53.617141 166.71373 
L 56.625712 163.875404 
L 59.634282 163.824242 
L 62.642853 167.122143 
L 65.651423 169.496603 
L 71.668564 169.566637 
L 74.677135 171.126762 
L 77.685705 173.17058 
L 80.694276 172.515851 
L 83.702846 169.498934 
L 86.711417 170.532929 
L 89.719988 169.996931 
L 92.728558 160.021526 
L 95.737129 160.346302 
L 98.745699 170.465295 
L 101.75427 173.270395 
L 104.76284 169.019046 
L 107.771411 175.865161 
L 110.779981 175.574696 
L 113.788552 178.381732 
L 116.797122 180.392639 
L 119.805693 175.358198 
L 122.814263 167.586997 
L 125.822834 163.001036 
L 128.831404 158.852111 
L 131.839975 158.403121 
L 134.848546 151.841299 
L 137.857116 151.476711 
L 140.865687 148.731304 
L 143.874257 139.515687 
L 146.882828 145.260615 
L 149.891398 143.141712 
L 152.899969 131.973962 
L 155.908539 138.460901 
L 158.91711 138.088063 
L 161.92568 144.443758 
L 164.934251 140.821534 
L 167.942821 139.899886 
L 170.951392 131.251547 
L 173.959962 130.778162 
L 176.968533 132.765874 
L 179.977104 133.001765 
L 182.985674 124.54523 
L 185.994245 123.965342 
L 189.002815 127.87601 
L 192.011386 128.574021 
L 195.019956 131.149148 
L 198.028527 132.118678 
L 201.037097 129.977881 
L 204.045668 131.422084 
L 207.054238 130.558449 
L 210.062809 134.111849 
L 213.071379 132.38245 
L 216.07995 133.084192 
L 219.088521 143.609049 
L 222.097091 138.927389 
L 225.105662 138.625003 
L 228.114232 143.811652 
L 231.122803 142.920231 
L 234.131373 143.726412 
L 237.139944 134.41129 
L 240.148514 135.32113 
L 243.157085 139.127769 
L 246.165655 162.047796 
L 249.174226 168.46863 
L 252.182796 185.564114 
L 255.191367 180.256296 
L 258.199937 192.065888 
L 261.208508 196.903629 
L 264.217079 189.673553 
L 267.225649 191.607051 
L 270.23422 197.460949 
L 273.24279 196.223778 
L 276.251361 200.039081 
L 279.259931 199.965969 
L 282.268502 198.504059 
L 285.277072 195.122514 
L 288.285643 197.753504 
L 291.294213 197.029173 
L 294.302784 203.216235 
L 297.311354 208.390988 
L 300.319925 208.37804 
L 303.328496 205.86112 
L 306.337066 201.467047 
L 309.345637 194.859732 
L 312.354207 191.687287 
L 315.362778 185.776831 
L 318.371348 185.147383 
L 321.379919 185.68763 
L 324.388489 184.546668 
L 327.39706 181.939063 
L 330.40563 182.533076 
L 333.414201 175.913183 
L 336.422771 173.159182 
L 339.431342 169.965508 
L 342.439912 169.078987 
L 345.448483 164.976452 
L 348.457054 163.332302 
L 351.465624 163.305103 
L 354.474195 167.036005 
L 357.482765 159.073561 
L 360.491336 159.343507 
L 363.499906 152.727132 
L 366.508477 154.29029 
L 369.517047 141.133863 
L 372.525618 136.746179 
L 375.534188 137.909702 
L 378.542759 138.35697 
L 381.551329 138.235309 
L 384.5599 136.870189 
L 387.568471 143.486452 
L 390.577041 140.217901 
L 393.585612 138.753747 
L 396.594182 142.897093 
L 399.602753 144.396919 
L 402.611323 144.301055 
L 405.619894 148.891402 
L 408.628464 149.035898 
L 411.637035 152.305028 
L 414.645605 155.082081 
L 417.654176 144.155 
L 420.662746 141.601432 
L 423.671317 141.557172 
L 426.679888 141.077361 
L 429.688458 139.090511 
L 432.697029 140.620804 
L 435.705599 142.284159 
L 438.71417 147.43891 
L 441.72274 141.206941 
L 444.731311 148.740431 
L 447.739881 154.325503 
L 450.748452 151.802453 
L 453.757022 145.814599 
L 456.765593 138.630555 
L 459.774163 140.497405 
L 462.782734 140.681321 
L 465.791304 139.71449 
L 468.799875 141.912854 
L 471.808446 134.01592 
L 474.817016 132.98698 
L 477.825587 133.295224 
L 480.834157 129.372715 
L 483.842728 129.45346 
L 486.851298 132.943638 
L 489.859869 133.42558 
L 492.868439 143.171827 
L 495.87701 149.429118 
L 498.88558 149.667165 
L 501.894151 150.702257 
L 504.902721 154.981439 
L 507.911292 145.712667 
L 510.919862 150.744801 
L 513.928433 146.562395 
L 516.937004 149.7792 
L 519.945574 149.716672 
L 522.954145 143.102407 
L 525.962715 148.27777 
L 528.971286 152.879149 
L 531.979856 173.378028 
L 534.988427 166.387216 
L 537.996997 161.931642 
L 541.005568 164.791186 
L 544.014138 162.464589 
L 547.022709 165.23317 
L 550.031279 164.84187 
L 553.03985 163.899268 
L 556.048421 162.216396 
L 559.056991 162.462841 
L 562.065562 165.283904 
L 565.074132 165.608907 
L 568.082703 165.449186 
L 571.091273 162.805584 
L 574.099844 162.711246 
L 574.099844 162.711246 
" clip-path="url(#pca3b923fa5)" style="fill: none; stroke-dasharray: 3,4.95; stroke-dashoffset: 0; stroke: #000000; stroke-width: 3"/>
   </g>
   <g id="line2d_18">
    <path d="M 47.6 87.727424 
L 50.608571 95.192176 
L 53.617141 94.13238 
L 56.625712 90.87623 
L 59.634282 93.240545 
L 62.642853 107.26447 
L 65.651423 107.768482 
L 71.668564 106.487046 
L 74.677135 112.222917 
L 77.685705 115.304612 
L 80.694276 116.963696 
L 83.702846 119.821532 
L 86.711417 118.87982 
L 89.719988 127.712351 
L 92.728558 120.670119 
L 95.737129 120.0374 
L 98.745699 130.750735 
L 101.75427 126.570646 
L 104.76284 123.699488 
L 107.771411 118.611808 
L 110.779981 116.944895 
L 113.788552 112.962809 
L 116.797122 114.24414 
L 119.805693 113.506169 
L 122.814263 100.066136 
L 125.822834 96.865544 
L 128.831404 90.514629 
L 131.839975 93.451311 
L 134.848546 86.334908 
L 137.857116 86.230863 
L 140.865687 83.616243 
L 143.874257 80.23783 
L 146.882828 84.241928 
L 149.891398 78.82164 
L 152.899969 68.685596 
L 155.908539 69.984471 
L 158.91711 68.905442 
L 161.92568 76.856789 
L 164.934251 75.718853 
L 167.942821 76.196989 
L 170.951392 73.047663 
L 173.959962 72.315131 
L 176.968533 77.613314 
L 179.977104 77.584172 
L 182.985674 75.479502 
L 185.994245 78.052298 
L 189.002815 76.358127 
L 192.011386 76.222968 
L 195.019956 76.602571 
L 198.028527 82.524644 
L 201.037097 80.31902 
L 204.045668 82.80871 
L 207.054238 79.81696 
L 210.062809 84.153438 
L 213.071379 80.309057 
L 216.07995 80.532544 
L 219.088521 79.801915 
L 222.097091 79.767035 
L 225.105662 81.567645 
L 228.114232 84.826437 
L 231.122803 86.969624 
L 234.131373 85.428442 
L 237.139944 76.712668 
L 240.148514 77.577498 
L 243.157085 80.358036 
L 246.165655 94.019889 
L 249.174226 98.912635 
L 252.182796 118.884211 
L 255.191367 100.694937 
L 258.199937 119.006852 
L 261.208508 119.854574 
L 264.217079 118.691858 
L 267.225649 121.611717 
L 270.23422 124.252545 
L 273.24279 129.14337 
L 276.251361 135.972176 
L 279.259931 132.60997 
L 282.268502 132.837035 
L 285.277072 125.722739 
L 288.285643 130.923325 
L 291.294213 128.150614 
L 294.302784 120.490242 
L 297.311354 121.062241 
L 300.319925 117.592325 
L 303.328496 114.480808 
L 306.337066 114.515623 
L 309.345637 114.676982 
L 312.354207 113.107356 
L 315.362778 118.352272 
L 318.371348 117.316619 
L 321.379919 119.061752 
L 324.388489 118.11952 
L 327.39706 115.529802 
L 330.40563 123.260693 
L 333.414201 114.335265 
L 336.422771 113.080052 
L 339.431342 114.18915 
L 342.439912 115.174425 
L 345.448483 113.151979 
L 348.457054 109.583087 
L 351.465624 108.883645 
L 354.474195 112.396184 
L 357.482765 106.285204 
L 360.491336 108.656829 
L 363.499906 106.16771 
L 366.508477 108.844977 
L 369.517047 106.889996 
L 372.525618 109.193597 
L 375.534188 113.027677 
L 378.542759 112.034603 
L 381.551329 102.872217 
L 384.5599 101.066297 
L 387.568471 103.180856 
L 390.577041 96.480322 
L 393.585612 95.464571 
L 396.594182 97.04037 
L 399.602753 97.737634 
L 402.611323 96.725272 
L 405.619894 96.456616 
L 408.628464 95.443652 
L 411.637035 96.041989 
L 414.645605 88.523069 
L 417.654176 82.698785 
L 420.662746 82.449894 
L 423.671317 83.079171 
L 426.679888 82.552711 
L 429.688458 80.880428 
L 432.697029 80.175498 
L 435.705599 81.345893 
L 438.71417 79.12249 
L 441.72274 71.13933 
L 444.731311 69.96393 
L 447.739881 62.226301 
L 450.748452 60.758308 
L 453.757022 57.574441 
L 456.765593 59.474076 
L 459.774163 60.433477 
L 462.782734 63.663031 
L 465.791304 65.242862 
L 468.799875 66.595011 
L 471.808446 62.496985 
L 474.817016 63.597357 
L 477.825587 63.655118 
L 480.834157 64.938157 
L 483.842728 65.606798 
L 486.851298 69.185823 
L 489.859869 75.737493 
L 492.868439 80.526364 
L 495.87701 80.182894 
L 498.88558 78.757741 
L 501.894151 79.39475 
L 504.902721 82.237161 
L 507.911292 78.163035 
L 510.919862 81.986429 
L 513.928433 81.940317 
L 516.937004 85.480057 
L 519.945574 89.265891 
L 522.954145 95.504347 
L 525.962715 96.967729 
L 528.971286 102.383894 
L 531.979856 118.430826 
L 537.996997 110.678015 
L 541.005568 114.865351 
L 544.014138 103.560771 
L 547.022709 105.370884 
L 550.031279 103.856659 
L 553.03985 103.41211 
L 556.048421 100.421599 
L 559.056991 103.836087 
L 562.065562 101.833637 
L 565.074132 104.326515 
L 568.082703 103.137749 
L 571.091273 99.854657 
L 574.099844 99.449918 
L 574.099844 99.449918 
" clip-path="url(#pca3b923fa5)" style="fill: none; stroke-dasharray: 3,4.95; stroke-dashoffset: 0; stroke: #000000; stroke-width: 3"/>
   </g>
   <g id="patch_3">
    <path d="M 47.6 248.293906 
L 47.6 26.176406 
" style="fill: none; stroke: #000000; stroke-width: 0.6; stroke-linejoin: miter; stroke-linecap: square"/>
   </g>
   <g id="patch_4">
    <path d="M 47.6 248.293906 
L 574.099844 248.293906 
" style="fill: none; stroke: #000000; stroke-width: 0.6; stroke-linejoin: miter; stroke-linecap: square"/>
   </g>
   <g id="text_18">
    <!-- feature0 -->
    <g style="fill: #323034" transform="translate(47.6 20.176406) scale(0.19 -0.19)">
     <defs>
      <path id="STIXGeneral-Regular-72" d="M 1024 2931 
L 1024 2342 
Q 1267 2688 1430 2816 
Q 1594 2944 1792 2944 
Q 1958 2944 2051 2854 
Q 2144 2765 2144 2605 
Q 2144 2470 2077 2393 
Q 2010 2317 1894 2317 
Q 1773 2317 1638 2445 
Q 1536 2541 1472 2541 
Q 1338 2541 1181 2355 
Q 1024 2170 1024 2016 
L 1024 576 
Q 1024 301 1133 205 
Q 1242 109 1568 96 
L 1568 0 
L 32 0 
L 32 96 
Q 339 154 412 224 
Q 486 294 486 538 
L 486 2138 
Q 486 2349 438 2435 
Q 390 2522 269 2522 
Q 166 2522 45 2496 
L 45 2598 
Q 448 2726 992 2944 
L 1024 2931 
z
" transform="scale(0.015625)"/>
     </defs>
     <use xlink:href="#STIXGeneral-Regular-66"/>
     <use xlink:href="#STIXGeneral-Regular-65" x="33.299988"/>
     <use xlink:href="#STIXGeneral-Regular-61" x="77.699982"/>
     <use xlink:href="#STIXGeneral-Regular-74" x="122.099976"/>
     <use xlink:href="#STIXGeneral-Regular-75" x="149.899963"/>
     <use xlink:href="#STIXGeneral-Regular-72" x="199.899948"/>
     <use xlink:href="#STIXGeneral-Regular-65" x="233.199936"/>
     <use xlink:href="#STIXGeneral-Regular-30" x="277.59993"/>
    </g>
   </g>
   <g id="legend_1">
    <g id="patch_5">
     <path d="M 56 63.785156 
L 135.92 63.785156 
Q 138.32 63.785156 138.32 61.385156 
L 138.32 34.576406 
Q 138.32 32.176406 135.92 32.176406 
L 56 32.176406 
Q 53.6 32.176406 53.6 34.576406 
L 53.6 61.385156 
Q 53.6 63.785156 56 63.785156 
z
" style="fill: #ffffff; opacity: 0.8; stroke: #e6e6e6; stroke-width: 0.8; stroke-linejoin: miter"/>
    </g>
    <g id="line2d_19">
     <path d="M 56 38.776406 
L 68 38.776406 
L 80 38.776406 
" style="fill: none; stroke-dasharray: 3,4.95; stroke-dashoffset: 0; stroke: #000000; stroke-width: 3"/>
    </g>
    <g id="text_19">
     <!-- Lower CI -->
     <g style="fill: #323034" transform="translate(89.6 42.976406) scale(0.12 -0.12)">
      <defs>
       <path id="STIXGeneral-Regular-4c" d="M 3827 1114 
L 3520 0 
L 77 0 
L 77 122 
Q 429 141 531 256 
Q 634 371 634 736 
L 634 3494 
Q 634 3872 541 3981 
Q 448 4090 77 4115 
L 77 4237 
L 1888 4237 
L 1888 4115 
Q 1498 4090 1392 3984 
Q 1286 3878 1286 3507 
L 1286 538 
Q 1286 358 1398 304 
Q 1510 250 1862 250 
L 2310 250 
Q 3085 250 3392 640 
Q 3520 813 3661 1114 
L 3827 1114 
z
" transform="scale(0.015625)"/>
       <path id="STIXGeneral-Regular-77" d="M 4442 2880 
L 4442 2784 
Q 4346 2752 4301 2691 
Q 4256 2630 4179 2438 
L 3296 224 
Q 3168 -90 3117 -90 
Q 3085 -90 3062 -48 
Q 3040 -6 2963 186 
L 2381 1696 
L 1664 160 
Q 1549 -90 1504 -90 
Q 1446 -90 1338 192 
L 474 2381 
Q 378 2630 314 2700 
Q 250 2771 134 2784 
L 134 2880 
L 1286 2880 
L 1286 2784 
Q 1120 2765 1056 2720 
Q 992 2675 992 2573 
Q 992 2477 1030 2381 
L 1664 710 
L 2246 1984 
L 2118 2342 
Q 2029 2598 1942 2681 
Q 1856 2765 1677 2784 
L 1677 2880 
L 2976 2880 
L 2976 2784 
Q 2752 2752 2678 2707 
Q 2605 2662 2605 2560 
Q 2605 2458 2714 2176 
L 3251 742 
L 3827 2163 
Q 3936 2432 3936 2592 
Q 3936 2669 3875 2710 
Q 3814 2752 3654 2784 
L 3654 2880 
L 4442 2880 
z
" transform="scale(0.015625)"/>
       <path id="STIXGeneral-Regular-49" d="M 2016 0 
L 115 0 
L 115 122 
Q 518 134 627 240 
Q 736 346 736 717 
L 736 3526 
Q 736 3898 633 3994 
Q 531 4090 115 4115 
L 115 4237 
L 2016 4237 
L 2016 4115 
Q 1613 4096 1501 3993 
Q 1389 3891 1389 3526 
L 1389 717 
Q 1389 358 1504 246 
Q 1619 134 2016 122 
L 2016 0 
z
" transform="scale(0.015625)"/>
      </defs>
      <use xlink:href="#STIXGeneral-Regular-4c"/>
      <use xlink:href="#STIXGeneral-Regular-6f" x="61.099991"/>
      <use xlink:href="#STIXGeneral-Regular-77" x="111.099976"/>
      <use xlink:href="#STIXGeneral-Regular-65" x="183.299957"/>
      <use xlink:href="#STIXGeneral-Regular-72" x="227.699951"/>
      <use xlink:href="#STIXGeneral-Regular-20" x="260.999939"/>
      <use xlink:href="#STIXGeneral-Regular-43" x="285.999924"/>
      <use xlink:href="#STIXGeneral-Regular-49" x="352.699921"/>
     </g>
    </g>
    <g id="line2d_20">
     <path d="M 56 54.580781 
L 68 54.580781 
L 80 54.580781 
" style="fill: none; stroke-dasharray: 3,4.95; stroke-dashoffset: 0; stroke: #000000; stroke-width: 3"/>
    </g>
    <g id="text_20">
     <!-- Upper CI -->
     <g style="fill: #323034" transform="translate(89.6 58.780781) scale(0.12 -0.12)">
      <defs>
       <path id="STIXGeneral-Regular-55" d="M 4512 4237 
L 4512 4115 
Q 4122 4077 4016 3926 
Q 3910 3776 3910 3302 
L 3910 1670 
Q 3910 1178 3840 896 
Q 3770 614 3565 378 
Q 3155 -90 2272 -90 
Q 1574 -90 1184 205 
Q 666 589 666 1594 
L 666 3578 
Q 666 3898 566 3994 
Q 467 4090 90 4115 
L 90 4237 
L 1901 4237 
L 1901 4115 
Q 1517 4083 1417 3977 
Q 1318 3872 1318 3514 
L 1318 1517 
Q 1318 1101 1369 877 
Q 1421 653 1600 480 
Q 1901 192 2419 192 
Q 3066 192 3392 570 
Q 3539 749 3584 963 
Q 3629 1178 3629 1600 
L 3629 3283 
Q 3629 3782 3520 3936 
Q 3411 4090 3027 4115 
L 3027 4237 
L 4512 4237 
z
" transform="scale(0.015625)"/>
      </defs>
      <use xlink:href="#STIXGeneral-Regular-55"/>
      <use xlink:href="#STIXGeneral-Regular-70" x="72.199982"/>
      <use xlink:href="#STIXGeneral-Regular-70" x="122.199966"/>
      <use xlink:href="#STIXGeneral-Regular-65" x="172.199951"/>
      <use xlink:href="#STIXGeneral-Regular-72" x="216.599945"/>
      <use xlink:href="#STIXGeneral-Regular-20" x="249.899933"/>
      <use xlink:href="#STIXGeneral-Regular-43" x="274.899918"/>
      <use xlink:href="#STIXGeneral-Regular-49" x="341.599915"/>
     </g>
    </g>
   </g>
  </g>
 </g>
 <defs>
  <clipPath id="pca3b923fa5">
   <rect x="47.6" y="26.176406" width="526.499844" height="222.1175"/>
  </clipPath>
 </defs>
</svg>