<?xml version="1.0" encoding="utf-8" standalone="no"?>
<!DOCTYPE svg PUBLIC "-//W3C//DTD SVG 1.1//EN"
  "http://www.w3.org/Graphics/SVG/1.1/DTD/svg11.dtd">
<svg xmlns:xlink="http://www.w3.org/1999/xlink" width="868.14pt" height="141.35pt" viewBox="0 0 868.14 141.35" xmlns="http://www.w3.org/2000/svg" version="1.1">
 <metadata>
  <rdf:RDF xmlns:dc="http://purl.org/dc/elements/1.1/" xmlns:cc="http://creativecommons.org/ns#" xmlns:rdf="http://www.w3.org/1999/02/22-rdf-syntax-ns#">
   <cc:Work>
    <dc:type rdf:resource="http://purl.org/dc/dcmitype/StillImage"/>
    <dc:date>2025-03-26T16:06:38.081769</dc:date>
    <dc:format>image/svg+xml</dc:format>
    <dc:creator>
     <cc:Agent>
      <dc:title>Matplotlib v3.10.0, https://matplotlib.org/</dc:title>
     </cc:Agent>
    </dc:creator>
   </cc:Work>
  </rdf:RDF>
 </metadata>
 <defs>
  <style type="text/css">*{stroke-linejoin: round; stroke-linecap: butt}</style>
 </defs>
 <g id="figure_1">
  <g id="patch_1">
   <path d="M 0 141.35 
L 868.14 141.35 
L 868.14 0 
L 0 0 
z
" style="fill: #ffffff"/>
  </g>
  <g id="axes_1">
   <g id="patch_2">
    <path d="M 23.94 134.15 
L 860.94 134.15 
L 860.94 10.15 
L 23.94 10.15 
z
" style="fill: #ffffff"/>
   </g>
   <g id="patch_3">
    <path d="M 32.465 34.175 
L 46.415 34.175 
L 46.415 48.125 
L 32.465 48.125 
z
" clip-path="url(#p39e67a6fd7)" style="fill: #e8e8e8"/>
   </g>
   <g id="patch_4">
    <path d="M 32.465 49.675 
L 46.415 49.675 
L 46.415 63.625 
L 32.465 63.625 
z
" clip-path="url(#p39e67a6fd7)" style="fill: #000004"/>
   </g>
   <g id="patch_5">
    <path d="M 32.465 65.175 
L 46.415 65.175 
L 46.415 79.125 
L 32.465 79.125 
z
" clip-path="url(#p39e67a6fd7)" style="fill: #e8e8e8"/>
   </g>
   <g id="patch_6">
    <path d="M 32.465 80.675 
L 46.415 80.675 
L 46.415 94.625 
L 32.465 94.625 
z
" clip-path="url(#p39e67a6fd7)" style="fill: #e8e8e8"/>
   </g>
   <g id="patch_7">
    <path d="M 32.465 96.175 
L 46.415 96.175 
L 46.415 110.125 
L 32.465 110.125 
z
" clip-path="url(#p39e67a6fd7)" style="fill: #e8e8e8"/>
   </g>
   <g id="patch_8">
    <path d="M 32.465 111.675 
L 46.415 111.675 
L 46.415 125.625 
L 32.465 125.625 
z
" clip-path="url(#p39e67a6fd7)" style="fill: #390963"/>
   </g>
   <g id="patch_9">
    <path d="M 47.965 18.675 
L 61.915 18.675 
L 61.915 32.625 
L 47.965 32.625 
z
" clip-path="url(#p39e67a6fd7)" style="fill: #e8e8e8"/>
   </g>
   <g id="patch_10">
    <path d="M 47.965 34.175 
L 61.915 34.175 
L 61.915 48.125 
L 47.965 48.125 
z
" clip-path="url(#p39e67a6fd7)" style="fill: #000004"/>
   </g>
   <g id="patch_11">
    <path d="M 47.965 49.675 
L 61.915 49.675 
L 61.915 63.625 
L 47.965 63.625 
z
" clip-path="url(#p39e67a6fd7)" style="fill: #e8e8e8"/>
   </g>
   <g id="patch_12">
    <path d="M 47.965 65.175 
L 61.915 65.175 
L 61.915 79.125 
L 47.965 79.125 
z
" clip-path="url(#p39e67a6fd7)" style="fill: #e8e8e8"/>
   </g>
   <g id="patch_13">
    <path d="M 47.965 80.675 
L 61.915 80.675 
L 61.915 94.625 
L 47.965 94.625 
z
" clip-path="url(#p39e67a6fd7)" style="fill: #5f136e"/>
   </g>
   <g id="patch_14">
    <path d="M 47.965 96.175 
L 61.915 96.175 
L 61.915 110.125 
L 47.965 110.125 
z
" clip-path="url(#p39e67a6fd7)" style="fill: #85216b"/>
   </g>
   <g id="patch_15">
    <path d="M 47.965 111.675 
L 61.915 111.675 
L 61.915 125.625 
L 47.965 125.625 
z
" clip-path="url(#p39e67a6fd7)" style="fill: #e8e8e8"/>
   </g>
   <g id="patch_16">
    <path d="M 63.465 18.675 
L 77.415 18.675 
L 77.415 32.625 
L 63.465 32.625 
z
" clip-path="url(#p39e67a6fd7)" style="fill: #390963"/>
   </g>
   <g id="patch_17">
    <path d="M 63.465 34.175 
L 77.415 34.175 
L 77.415 48.125 
L 63.465 48.125 
z
" clip-path="url(#p39e67a6fd7)" style="fill: #cb4149"/>
   </g>
   <g id="patch_18">
    <path d="M 63.465 49.675 
L 77.415 49.675 
L 77.415 63.625 
L 63.465 63.625 
z
" clip-path="url(#p39e67a6fd7)" style="fill: #e8e8e8"/>
   </g>
   <g id="patch_19">
    <path d="M 63.465 65.175 
L 77.415 65.175 
L 77.415 79.125 
L 63.465 79.125 
z
" clip-path="url(#p39e67a6fd7)" style="fill: #e8e8e8"/>
   </g>
   <g id="patch_20">
    <path d="M 63.465 80.675 
L 77.415 80.675 
L 77.415 94.625 
L 63.465 94.625 
z
" clip-path="url(#p39e67a6fd7)" style="fill: #000004"/>
   </g>
   <g id="patch_21">
    <path d="M 63.465 96.175 
L 77.415 96.175 
L 77.415 110.125 
L 63.465 110.125 
z
" clip-path="url(#p39e67a6fd7)" style="fill: #e8e8e8"/>
   </g>
   <g id="patch_22">
    <path d="M 63.465 111.675 
L 77.415 111.675 
L 77.415 125.625 
L 63.465 125.625 
z
" clip-path="url(#p39e67a6fd7)" style="fill: #140b34"/>
   </g>
   <g id="patch_23">
    <path d="M 78.965 18.675 
L 92.915 18.675 
L 92.915 32.625 
L 78.965 32.625 
z
" clip-path="url(#p39e67a6fd7)" style="fill: #e8e8e8"/>
   </g>
   <g id="patch_24">
    <path d="M 78.965 34.175 
L 92.915 34.175 
L 92.915 48.125 
L 78.965 48.125 
z
" clip-path="url(#p39e67a6fd7)" style="fill: #85216b"/>
   </g>
   <g id="patch_25">
    <path d="M 78.965 49.675 
L 92.915 49.675 
L 92.915 63.625 
L 78.965 63.625 
z
" clip-path="url(#p39e67a6fd7)" style="fill: #5f136e"/>
   </g>
   <g id="patch_26">
    <path d="M 78.965 65.175 
L 92.915 65.175 
L 92.915 79.125 
L 78.965 79.125 
z
" clip-path="url(#p39e67a6fd7)" style="fill: #000004"/>
   </g>
   <g id="patch_27">
    <path d="M 78.965 80.675 
L 92.915 80.675 
L 92.915 94.625 
L 78.965 94.625 
z
" clip-path="url(#p39e67a6fd7)" style="fill: #e8e8e8"/>
   </g>
   <g id="patch_28">
    <path d="M 78.965 96.175 
L 92.915 96.175 
L 92.915 110.125 
L 78.965 110.125 
z
" clip-path="url(#p39e67a6fd7)" style="fill: #140b34"/>
   </g>
   <g id="patch_29">
    <path d="M 78.965 111.675 
L 92.915 111.675 
L 92.915 125.625 
L 78.965 125.625 
z
" clip-path="url(#p39e67a6fd7)" style="fill: #e8e8e8"/>
   </g>
   <g id="patch_30">
    <path d="M 94.465 18.675 
L 108.415 18.675 
L 108.415 32.625 
L 94.465 32.625 
z
" clip-path="url(#p39e67a6fd7)" style="fill: #e8e8e8"/>
   </g>
   <g id="patch_31">
    <path d="M 94.465 34.175 
L 108.415 34.175 
L 108.415 48.125 
L 94.465 48.125 
z
" clip-path="url(#p39e67a6fd7)" style="fill: #e8e8e8"/>
   </g>
   <g id="patch_32">
    <path d="M 94.465 49.675 
L 108.415 49.675 
L 108.415 63.625 
L 94.465 63.625 
z
" clip-path="url(#p39e67a6fd7)" style="fill: #e8e8e8"/>
   </g>
   <g id="patch_33">
    <path d="M 94.465 65.175 
L 108.415 65.175 
L 108.415 79.125 
L 94.465 79.125 
z
" clip-path="url(#p39e67a6fd7)" style="fill: #e8e8e8"/>
   </g>
   <g id="patch_34">
    <path d="M 94.465 80.675 
L 108.415 80.675 
L 108.415 94.625 
L 94.465 94.625 
z
" clip-path="url(#p39e67a6fd7)" style="fill: #000004"/>
   </g>
   <g id="patch_35">
    <path d="M 94.465 96.175 
L 108.415 96.175 
L 108.415 110.125 
L 94.465 110.125 
z
" clip-path="url(#p39e67a6fd7)" style="fill: #390963"/>
   </g>
   <g id="patch_36">
    <path d="M 94.465 111.675 
L 108.415 111.675 
L 108.415 125.625 
L 94.465 125.625 
z
" clip-path="url(#p39e67a6fd7)" style="fill: #140b34"/>
   </g>
   <g id="patch_37">
    <path d="M 109.965 18.675 
L 123.915 18.675 
L 123.915 32.625 
L 109.965 32.625 
z
" clip-path="url(#p39e67a6fd7)" style="fill: #390963"/>
   </g>
   <g id="patch_38">
    <path d="M 109.965 34.175 
L 123.915 34.175 
L 123.915 48.125 
L 109.965 48.125 
z
" clip-path="url(#p39e67a6fd7)" style="fill: #e8e8e8"/>
   </g>
   <g id="patch_39">
    <path d="M 109.965 49.675 
L 123.915 49.675 
L 123.915 63.625 
L 109.965 63.625 
z
" clip-path="url(#p39e67a6fd7)" style="fill: #e8e8e8"/>
   </g>
   <g id="patch_40">
    <path d="M 109.965 65.175 
L 123.915 65.175 
L 123.915 79.125 
L 109.965 79.125 
z
" clip-path="url(#p39e67a6fd7)" style="fill: #a92e5e"/>
   </g>
   <g id="patch_41">
    <path d="M 109.965 80.675 
L 123.915 80.675 
L 123.915 94.625 
L 109.965 94.625 
z
" clip-path="url(#p39e67a6fd7)" style="fill: #e8e8e8"/>
   </g>
   <g id="patch_42">
    <path d="M 109.965 96.175 
L 123.915 96.175 
L 123.915 110.125 
L 109.965 110.125 
z
" clip-path="url(#p39e67a6fd7)" style="fill: #390963"/>
   </g>
   <g id="patch_43">
    <path d="M 109.965 111.675 
L 123.915 111.675 
L 123.915 125.625 
L 109.965 125.625 
z
" clip-path="url(#p39e67a6fd7)" style="fill: #e8e8e8"/>
   </g>
   <g id="patch_44">
    <path d="M 125.465 18.675 
L 139.415 18.675 
L 139.415 32.625 
L 125.465 32.625 
z
" clip-path="url(#p39e67a6fd7)" style="fill: #e8e8e8"/>
   </g>
   <g id="patch_45">
    <path d="M 125.465 34.175 
L 139.415 34.175 
L 139.415 48.125 
L 125.465 48.125 
z
" clip-path="url(#p39e67a6fd7)" style="fill: #e8e8e8"/>
   </g>
   <g id="patch_46">
    <path d="M 125.465 49.675 
L 139.415 49.675 
L 139.415 63.625 
L 125.465 63.625 
z
" clip-path="url(#p39e67a6fd7)" style="fill: #e8e8e8"/>
   </g>
   <g id="patch_47">
    <path d="M 125.465 65.175 
L 139.415 65.175 
L 139.415 79.125 
L 125.465 79.125 
z
" clip-path="url(#p39e67a6fd7)" style="fill: #e8e8e8"/>
   </g>
   <g id="patch_48">
    <path d="M 125.465 80.675 
L 139.415 80.675 
L 139.415 94.625 
L 125.465 94.625 
z
" clip-path="url(#p39e67a6fd7)" style="fill: #140b34"/>
   </g>
   <g id="patch_49">
    <path d="M 125.465 96.175 
L 139.415 96.175 
L 139.415 110.125 
L 125.465 110.125 
z
" clip-path="url(#p39e67a6fd7)" style="fill: #e8e8e8"/>
   </g>
   <g id="patch_50">
    <path d="M 125.465 111.675 
L 139.415 111.675 
L 139.415 125.625 
L 125.465 125.625 
z
" clip-path="url(#p39e67a6fd7)" style="fill: #e8e8e8"/>
   </g>
   <g id="patch_51">
    <path d="M 140.965 18.675 
L 154.915 18.675 
L 154.915 32.625 
L 140.965 32.625 
z
" clip-path="url(#p39e67a6fd7)" style="fill: #85216b"/>
   </g>
   <g id="patch_52">
    <path d="M 140.965 34.175 
L 154.915 34.175 
L 154.915 48.125 
L 140.965 48.125 
z
" clip-path="url(#p39e67a6fd7)" style="fill: #e8e8e8"/>
   </g>
   <g id="patch_53">
    <path d="M 140.965 49.675 
L 154.915 49.675 
L 154.915 63.625 
L 140.965 63.625 
z
" clip-path="url(#p39e67a6fd7)" style="fill: #fcffa4"/>
   </g>
   <g id="patch_54">
    <path d="M 140.965 65.175 
L 154.915 65.175 
L 154.915 79.125 
L 140.965 79.125 
z
" clip-path="url(#p39e67a6fd7)" style="fill: #e8e8e8"/>
   </g>
   <g id="patch_55">
    <path d="M 140.965 80.675 
L 154.915 80.675 
L 154.915 94.625 
L 140.965 94.625 
z
" clip-path="url(#p39e67a6fd7)" style="fill: #85216b"/>
   </g>
   <g id="patch_56">
    <path d="M 140.965 96.175 
L 154.915 96.175 
L 154.915 110.125 
L 140.965 110.125 
z
" clip-path="url(#p39e67a6fd7)" style="fill: #e8e8e8"/>
   </g>
   <g id="patch_57">
    <path d="M 140.965 111.675 
L 154.915 111.675 
L 154.915 125.625 
L 140.965 125.625 
z
" clip-path="url(#p39e67a6fd7)" style="fill: #5f136e"/>
   </g>
   <g id="patch_58">
    <path d="M 156.465 18.675 
L 170.415 18.675 
L 170.415 32.625 
L 156.465 32.625 
z
" clip-path="url(#p39e67a6fd7)" style="fill: #390963"/>
   </g>
   <g id="patch_59">
    <path d="M 156.465 34.175 
L 170.415 34.175 
L 170.415 48.125 
L 156.465 48.125 
z
" clip-path="url(#p39e67a6fd7)" style="fill: #000004"/>
   </g>
   <g id="patch_60">
    <path d="M 156.465 49.675 
L 170.415 49.675 
L 170.415 63.625 
L 156.465 63.625 
z
" clip-path="url(#p39e67a6fd7)" style="fill: #e8e8e8"/>
   </g>
   <g id="patch_61">
    <path d="M 156.465 65.175 
L 170.415 65.175 
L 170.415 79.125 
L 156.465 79.125 
z
" clip-path="url(#p39e67a6fd7)" style="fill: #5f136e"/>
   </g>
   <g id="patch_62">
    <path d="M 156.465 80.675 
L 170.415 80.675 
L 170.415 94.625 
L 156.465 94.625 
z
" clip-path="url(#p39e67a6fd7)" style="fill: #e8e8e8"/>
   </g>
   <g id="patch_63">
    <path d="M 156.465 96.175 
L 170.415 96.175 
L 170.415 110.125 
L 156.465 110.125 
z
" clip-path="url(#p39e67a6fd7)" style="fill: #140b34"/>
   </g>
   <g id="patch_64">
    <path d="M 156.465 111.675 
L 170.415 111.675 
L 170.415 125.625 
L 156.465 125.625 
z
" clip-path="url(#p39e67a6fd7)" style="fill: #000004"/>
   </g>
   <g id="patch_65">
    <path d="M 171.965 18.675 
L 185.915 18.675 
L 185.915 32.625 
L 171.965 32.625 
z
" clip-path="url(#p39e67a6fd7)" style="fill: #e8e8e8"/>
   </g>
   <g id="patch_66">
    <path d="M 171.965 34.175 
L 185.915 34.175 
L 185.915 48.125 
L 171.965 48.125 
z
" clip-path="url(#p39e67a6fd7)" style="fill: #e8e8e8"/>
   </g>
   <g id="patch_67">
    <path d="M 171.965 49.675 
L 185.915 49.675 
L 185.915 63.625 
L 171.965 63.625 
z
" clip-path="url(#p39e67a6fd7)" style="fill: #fcae12"/>
   </g>
   <g id="patch_68">
    <path d="M 171.965 65.175 
L 185.915 65.175 
L 185.915 79.125 
L 171.965 79.125 
z
" clip-path="url(#p39e67a6fd7)" style="fill: #e8e8e8"/>
   </g>
   <g id="patch_69">
    <path d="M 171.965 80.675 
L 185.915 80.675 
L 185.915 94.625 
L 171.965 94.625 
z
" clip-path="url(#p39e67a6fd7)" style="fill: #140b34"/>
   </g>
   <g id="patch_70">
    <path d="M 171.965 96.175 
L 185.915 96.175 
L 185.915 110.125 
L 171.965 110.125 
z
" clip-path="url(#p39e67a6fd7)" style="fill: #e8e8e8"/>
   </g>
   <g id="patch_71">
    <path d="M 171.965 111.675 
L 185.915 111.675 
L 185.915 125.625 
L 171.965 125.625 
z
" clip-path="url(#p39e67a6fd7)" style="fill: #e8e8e8"/>
   </g>
   <g id="patch_72">
    <path d="M 187.465 18.675 
L 201.415 18.675 
L 201.415 32.625 
L 187.465 32.625 
z
" clip-path="url(#p39e67a6fd7)" style="fill: #000004"/>
   </g>
   <g id="patch_73">
    <path d="M 187.465 34.175 
L 201.415 34.175 
L 201.415 48.125 
L 187.465 48.125 
z
" clip-path="url(#p39e67a6fd7)" style="fill: #e8e8e8"/>
   </g>
   <g id="patch_74">
    <path d="M 187.465 49.675 
L 201.415 49.675 
L 201.415 63.625 
L 187.465 63.625 
z
" clip-path="url(#p39e67a6fd7)" style="fill: #e8e8e8"/>
   </g>
   <g id="patch_75">
    <path d="M 187.465 65.175 
L 201.415 65.175 
L 201.415 79.125 
L 187.465 79.125 
z
" clip-path="url(#p39e67a6fd7)" style="fill: #e8e8e8"/>
   </g>
   <g id="patch_76">
    <path d="M 187.465 80.675 
L 201.415 80.675 
L 201.415 94.625 
L 187.465 94.625 
z
" clip-path="url(#p39e67a6fd7)" style="fill: #140b34"/>
   </g>
   <g id="patch_77">
    <path d="M 187.465 96.175 
L 201.415 96.175 
L 201.415 110.125 
L 187.465 110.125 
z
" clip-path="url(#p39e67a6fd7)" style="fill: #140b34"/>
   </g>
   <g id="patch_78">
    <path d="M 187.465 111.675 
L 201.415 111.675 
L 201.415 125.625 
L 187.465 125.625 
z
" clip-path="url(#p39e67a6fd7)" style="fill: #e8e8e8"/>
   </g>
   <g id="patch_79">
    <path d="M 202.965 18.675 
L 216.915 18.675 
L 216.915 32.625 
L 202.965 32.625 
z
" clip-path="url(#p39e67a6fd7)" style="fill: #e8e8e8"/>
   </g>
   <g id="patch_80">
    <path d="M 202.965 34.175 
L 216.915 34.175 
L 216.915 48.125 
L 202.965 48.125 
z
" clip-path="url(#p39e67a6fd7)" style="fill: #390963"/>
   </g>
   <g id="patch_81">
    <path d="M 202.965 49.675 
L 216.915 49.675 
L 216.915 63.625 
L 202.965 63.625 
z
" clip-path="url(#p39e67a6fd7)" style="fill: #140b34"/>
   </g>
   <g id="patch_82">
    <path d="M 202.965 65.175 
L 216.915 65.175 
L 216.915 79.125 
L 202.965 79.125 
z
" clip-path="url(#p39e67a6fd7)" style="fill: #e8e8e8"/>
   </g>
   <g id="patch_83">
    <path d="M 202.965 80.675 
L 216.915 80.675 
L 216.915 94.625 
L 202.965 94.625 
z
" clip-path="url(#p39e67a6fd7)" style="fill: #5f136e"/>
   </g>
   <g id="patch_84">
    <path d="M 202.965 96.175 
L 216.915 96.175 
L 216.915 110.125 
L 202.965 110.125 
z
" clip-path="url(#p39e67a6fd7)" style="fill: #85216b"/>
   </g>
   <g id="patch_85">
    <path d="M 202.965 111.675 
L 216.915 111.675 
L 216.915 125.625 
L 202.965 125.625 
z
" clip-path="url(#p39e67a6fd7)" style="fill: #e8e8e8"/>
   </g>
   <g id="patch_86">
    <path d="M 218.465 18.675 
L 232.415 18.675 
L 232.415 32.625 
L 218.465 32.625 
z
" clip-path="url(#p39e67a6fd7)" style="fill: #85216b"/>
   </g>
   <g id="patch_87">
    <path d="M 218.465 34.175 
L 232.415 34.175 
L 232.415 48.125 
L 218.465 48.125 
z
" clip-path="url(#p39e67a6fd7)" style="fill: #e8e8e8"/>
   </g>
   <g id="patch_88">
    <path d="M 218.465 49.675 
L 232.415 49.675 
L 232.415 63.625 
L 218.465 63.625 
z
" clip-path="url(#p39e67a6fd7)" style="fill: #cb4149"/>
   </g>
   <g id="patch_89">
    <path d="M 218.465 65.175 
L 232.415 65.175 
L 232.415 79.125 
L 218.465 79.125 
z
" clip-path="url(#p39e67a6fd7)" style="fill: #5f136e"/>
   </g>
   <g id="patch_90">
    <path d="M 218.465 80.675 
L 232.415 80.675 
L 232.415 94.625 
L 218.465 94.625 
z
" clip-path="url(#p39e67a6fd7)" style="fill: #5f136e"/>
   </g>
   <g id="patch_91">
    <path d="M 218.465 96.175 
L 232.415 96.175 
L 232.415 110.125 
L 218.465 110.125 
z
" clip-path="url(#p39e67a6fd7)" style="fill: #e8e8e8"/>
   </g>
   <g id="patch_92">
    <path d="M 218.465 111.675 
L 232.415 111.675 
L 232.415 125.625 
L 218.465 125.625 
z
" clip-path="url(#p39e67a6fd7)" style="fill: #e8e8e8"/>
   </g>
   <g id="patch_93">
    <path d="M 233.965 18.675 
L 247.915 18.675 
L 247.915 32.625 
L 233.965 32.625 
z
" clip-path="url(#p39e67a6fd7)" style="fill: #e8e8e8"/>
   </g>
   <g id="patch_94">
    <path d="M 233.965 34.175 
L 247.915 34.175 
L 247.915 48.125 
L 233.965 48.125 
z
" clip-path="url(#p39e67a6fd7)" style="fill: #e8e8e8"/>
   </g>
   <g id="patch_95">
    <path d="M 233.965 49.675 
L 247.915 49.675 
L 247.915 63.625 
L 233.965 63.625 
z
" clip-path="url(#p39e67a6fd7)" style="fill: #e8e8e8"/>
   </g>
   <g id="patch_96">
    <path d="M 233.965 65.175 
L 247.915 65.175 
L 247.915 79.125 
L 233.965 79.125 
z
" clip-path="url(#p39e67a6fd7)" style="fill: #000004"/>
   </g>
   <g id="patch_97">
    <path d="M 233.965 80.675 
L 247.915 80.675 
L 247.915 94.625 
L 233.965 94.625 
z
" clip-path="url(#p39e67a6fd7)" style="fill: #e8e8e8"/>
   </g>
   <g id="patch_98">
    <path d="M 233.965 96.175 
L 247.915 96.175 
L 247.915 110.125 
L 233.965 110.125 
z
" clip-path="url(#p39e67a6fd7)" style="fill: #e8e8e8"/>
   </g>
   <g id="patch_99">
    <path d="M 233.965 111.675 
L 247.915 111.675 
L 247.915 125.625 
L 233.965 125.625 
z
" clip-path="url(#p39e67a6fd7)" style="fill: #e8e8e8"/>
   </g>
   <g id="patch_100">
    <path d="M 249.465 18.675 
L 263.415 18.675 
L 263.415 32.625 
L 249.465 32.625 
z
" clip-path="url(#p39e67a6fd7)" style="fill: #e8e8e8"/>
   </g>
   <g id="patch_101">
    <path d="M 249.465 34.175 
L 263.415 34.175 
L 263.415 48.125 
L 249.465 48.125 
z
" clip-path="url(#p39e67a6fd7)" style="fill: #5f136e"/>
   </g>
   <g id="patch_102">
    <path d="M 249.465 49.675 
L 263.415 49.675 
L 263.415 63.625 
L 249.465 63.625 
z
" clip-path="url(#p39e67a6fd7)" style="fill: #5f136e"/>
   </g>
   <g id="patch_103">
    <path d="M 249.465 65.175 
L 263.415 65.175 
L 263.415 79.125 
L 249.465 79.125 
z
" clip-path="url(#p39e67a6fd7)" style="fill: #140b34"/>
   </g>
   <g id="patch_104">
    <path d="M 249.465 80.675 
L 263.415 80.675 
L 263.415 94.625 
L 249.465 94.625 
z
" clip-path="url(#p39e67a6fd7)" style="fill: #85216b"/>
   </g>
   <g id="patch_105">
    <path d="M 249.465 96.175 
L 263.415 96.175 
L 263.415 110.125 
L 249.465 110.125 
z
" clip-path="url(#p39e67a6fd7)" style="fill: #000004"/>
   </g>
   <g id="patch_106">
    <path d="M 249.465 111.675 
L 263.415 111.675 
L 263.415 125.625 
L 249.465 125.625 
z
" clip-path="url(#p39e67a6fd7)" style="fill: #85216b"/>
   </g>
   <g id="patch_107">
    <path d="M 264.965 18.675 
L 278.915 18.675 
L 278.915 32.625 
L 264.965 32.625 
z
" clip-path="url(#p39e67a6fd7)" style="fill: #e8e8e8"/>
   </g>
   <g id="patch_108">
    <path d="M 264.965 34.175 
L 278.915 34.175 
L 278.915 48.125 
L 264.965 48.125 
z
" clip-path="url(#p39e67a6fd7)" style="fill: #5f136e"/>
   </g>
   <g id="patch_109">
    <path d="M 264.965 49.675 
L 278.915 49.675 
L 278.915 63.625 
L 264.965 63.625 
z
" clip-path="url(#p39e67a6fd7)" style="fill: #140b34"/>
   </g>
   <g id="patch_110">
    <path d="M 264.965 65.175 
L 278.915 65.175 
L 278.915 79.125 
L 264.965 79.125 
z
" clip-path="url(#p39e67a6fd7)" style="fill: #e8e8e8"/>
   </g>
   <g id="patch_111">
    <path d="M 264.965 80.675 
L 278.915 80.675 
L 278.915 94.625 
L 264.965 94.625 
z
" clip-path="url(#p39e67a6fd7)" style="fill: #e8e8e8"/>
   </g>
   <g id="patch_112">
    <path d="M 264.965 96.175 
L 278.915 96.175 
L 278.915 110.125 
L 264.965 110.125 
z
" clip-path="url(#p39e67a6fd7)" style="fill: #e8e8e8"/>
   </g>
   <g id="patch_113">
    <path d="M 264.965 111.675 
L 278.915 111.675 
L 278.915 125.625 
L 264.965 125.625 
z
" clip-path="url(#p39e67a6fd7)" style="fill: #85216b"/>
   </g>
   <g id="patch_114">
    <path d="M 280.465 18.675 
L 294.415 18.675 
L 294.415 32.625 
L 280.465 32.625 
z
" clip-path="url(#p39e67a6fd7)" style="fill: #e8e8e8"/>
   </g>
   <g id="patch_115">
    <path d="M 280.465 34.175 
L 294.415 34.175 
L 294.415 48.125 
L 280.465 48.125 
z
" clip-path="url(#p39e67a6fd7)" style="fill: #e8e8e8"/>
   </g>
   <g id="patch_116">
    <path d="M 280.465 49.675 
L 294.415 49.675 
L 294.415 63.625 
L 280.465 63.625 
z
" clip-path="url(#p39e67a6fd7)" style="fill: #e8e8e8"/>
   </g>
   <g id="patch_117">
    <path d="M 280.465 65.175 
L 294.415 65.175 
L 294.415 79.125 
L 280.465 79.125 
z
" clip-path="url(#p39e67a6fd7)" style="fill: #e8e8e8"/>
   </g>
   <g id="patch_118">
    <path d="M 280.465 80.675 
L 294.415 80.675 
L 294.415 94.625 
L 280.465 94.625 
z
" clip-path="url(#p39e67a6fd7)" style="fill: #140b34"/>
   </g>
   <g id="patch_119">
    <path d="M 280.465 96.175 
L 294.415 96.175 
L 294.415 110.125 
L 280.465 110.125 
z
" clip-path="url(#p39e67a6fd7)" style="fill: #85216b"/>
   </g>
   <g id="patch_120">
    <path d="M 280.465 111.675 
L 294.415 111.675 
L 294.415 125.625 
L 280.465 125.625 
z
" clip-path="url(#p39e67a6fd7)" style="fill: #a92e5e"/>
   </g>
   <g id="patch_121">
    <path d="M 295.965 18.675 
L 309.915 18.675 
L 309.915 32.625 
L 295.965 32.625 
z
" clip-path="url(#p39e67a6fd7)" style="fill: #e8e8e8"/>
   </g>
   <g id="patch_122">
    <path d="M 295.965 34.175 
L 309.915 34.175 
L 309.915 48.125 
L 295.965 48.125 
z
" clip-path="url(#p39e67a6fd7)" style="fill: #e8e8e8"/>
   </g>
   <g id="patch_123">
    <path d="M 295.965 49.675 
L 309.915 49.675 
L 309.915 63.625 
L 295.965 63.625 
z
" clip-path="url(#p39e67a6fd7)" style="fill: #e8e8e8"/>
   </g>
   <g id="patch_124">
    <path d="M 295.965 65.175 
L 309.915 65.175 
L 309.915 79.125 
L 295.965 79.125 
z
" clip-path="url(#p39e67a6fd7)" style="fill: #e8e8e8"/>
   </g>
   <g id="patch_125">
    <path d="M 295.965 80.675 
L 309.915 80.675 
L 309.915 94.625 
L 295.965 94.625 
z
" clip-path="url(#p39e67a6fd7)" style="fill: #e8e8e8"/>
   </g>
   <g id="patch_126">
    <path d="M 295.965 96.175 
L 309.915 96.175 
L 309.915 110.125 
L 295.965 110.125 
z
" clip-path="url(#p39e67a6fd7)" style="fill: #f78410"/>
   </g>
   <g id="patch_127">
    <path d="M 295.965 111.675 
L 309.915 111.675 
L 309.915 125.625 
L 295.965 125.625 
z
" clip-path="url(#p39e67a6fd7)" style="fill: #a92e5e"/>
   </g>
   <g id="patch_128">
    <path d="M 311.465 18.675 
L 325.415 18.675 
L 325.415 32.625 
L 311.465 32.625 
z
" clip-path="url(#p39e67a6fd7)" style="fill: #e8e8e8"/>
   </g>
   <g id="patch_129">
    <path d="M 311.465 34.175 
L 325.415 34.175 
L 325.415 48.125 
L 311.465 48.125 
z
" clip-path="url(#p39e67a6fd7)" style="fill: #e8e8e8"/>
   </g>
   <g id="patch_130">
    <path d="M 311.465 49.675 
L 325.415 49.675 
L 325.415 63.625 
L 311.465 63.625 
z
" clip-path="url(#p39e67a6fd7)" style="fill: #e8e8e8"/>
   </g>
   <g id="patch_131">
    <path d="M 311.465 65.175 
L 325.415 65.175 
L 325.415 79.125 
L 311.465 79.125 
z
" clip-path="url(#p39e67a6fd7)" style="fill: #85216b"/>
   </g>
   <g id="patch_132">
    <path d="M 311.465 80.675 
L 325.415 80.675 
L 325.415 94.625 
L 311.465 94.625 
z
" clip-path="url(#p39e67a6fd7)" style="fill: #e8e8e8"/>
   </g>
   <g id="patch_133">
    <path d="M 311.465 96.175 
L 325.415 96.175 
L 325.415 110.125 
L 311.465 110.125 
z
" clip-path="url(#p39e67a6fd7)" style="fill: #e8e8e8"/>
   </g>
   <g id="patch_134">
    <path d="M 311.465 111.675 
L 325.415 111.675 
L 325.415 125.625 
L 311.465 125.625 
z
" clip-path="url(#p39e67a6fd7)" style="fill: #e8e8e8"/>
   </g>
   <g id="patch_135">
    <path d="M 326.965 18.675 
L 340.915 18.675 
L 340.915 32.625 
L 326.965 32.625 
z
" clip-path="url(#p39e67a6fd7)" style="fill: #e8e8e8"/>
   </g>
   <g id="patch_136">
    <path d="M 326.965 34.175 
L 340.915 34.175 
L 340.915 48.125 
L 326.965 48.125 
z
" clip-path="url(#p39e67a6fd7)" style="fill: #a92e5e"/>
   </g>
   <g id="patch_137">
    <path d="M 326.965 49.675 
L 340.915 49.675 
L 340.915 63.625 
L 326.965 63.625 
z
" clip-path="url(#p39e67a6fd7)" style="fill: #e8e8e8"/>
   </g>
   <g id="patch_138">
    <path d="M 326.965 65.175 
L 340.915 65.175 
L 340.915 79.125 
L 326.965 79.125 
z
" clip-path="url(#p39e67a6fd7)" style="fill: #000004"/>
   </g>
   <g id="patch_139">
    <path d="M 326.965 80.675 
L 340.915 80.675 
L 340.915 94.625 
L 326.965 94.625 
z
" clip-path="url(#p39e67a6fd7)" style="fill: #e8e8e8"/>
   </g>
   <g id="patch_140">
    <path d="M 326.965 96.175 
L 340.915 96.175 
L 340.915 110.125 
L 326.965 110.125 
z
" clip-path="url(#p39e67a6fd7)" style="fill: #e8e8e8"/>
   </g>
   <g id="patch_141">
    <path d="M 326.965 111.675 
L 340.915 111.675 
L 340.915 125.625 
L 326.965 125.625 
z
" clip-path="url(#p39e67a6fd7)" style="fill: #000004"/>
   </g>
   <g id="patch_142">
    <path d="M 342.465 18.675 
L 356.415 18.675 
L 356.415 32.625 
L 342.465 32.625 
z
" clip-path="url(#p39e67a6fd7)" style="fill: #e8e8e8"/>
   </g>
   <g id="patch_143">
    <path d="M 342.465 34.175 
L 356.415 34.175 
L 356.415 48.125 
L 342.465 48.125 
z
" clip-path="url(#p39e67a6fd7)" style="fill: #000004"/>
   </g>
   <g id="patch_144">
    <path d="M 342.465 49.675 
L 356.415 49.675 
L 356.415 63.625 
L 342.465 63.625 
z
" clip-path="url(#p39e67a6fd7)" style="fill: #85216b"/>
   </g>
   <g id="patch_145">
    <path d="M 342.465 65.175 
L 356.415 65.175 
L 356.415 79.125 
L 342.465 79.125 
z
" clip-path="url(#p39e67a6fd7)" style="fill: #85216b"/>
   </g>
   <g id="patch_146">
    <path d="M 342.465 80.675 
L 356.415 80.675 
L 356.415 94.625 
L 342.465 94.625 
z
" clip-path="url(#p39e67a6fd7)" style="fill: #e8e8e8"/>
   </g>
   <g id="patch_147">
    <path d="M 342.465 96.175 
L 356.415 96.175 
L 356.415 110.125 
L 342.465 110.125 
z
" clip-path="url(#p39e67a6fd7)" style="fill: #e8e8e8"/>
   </g>
   <g id="patch_148">
    <path d="M 342.465 111.675 
L 356.415 111.675 
L 356.415 125.625 
L 342.465 125.625 
z
" clip-path="url(#p39e67a6fd7)" style="fill: #85216b"/>
   </g>
   <g id="patch_149">
    <path d="M 357.965 18.675 
L 371.915 18.675 
L 371.915 32.625 
L 357.965 32.625 
z
" clip-path="url(#p39e67a6fd7)" style="fill: #e8e8e8"/>
   </g>
   <g id="patch_150">
    <path d="M 357.965 34.175 
L 371.915 34.175 
L 371.915 48.125 
L 357.965 48.125 
z
" clip-path="url(#p39e67a6fd7)" style="fill: #e8e8e8"/>
   </g>
   <g id="patch_151">
    <path d="M 357.965 49.675 
L 371.915 49.675 
L 371.915 63.625 
L 357.965 63.625 
z
" clip-path="url(#p39e67a6fd7)" style="fill: #000004"/>
   </g>
   <g id="patch_152">
    <path d="M 357.965 65.175 
L 371.915 65.175 
L 371.915 79.125 
L 357.965 79.125 
z
" clip-path="url(#p39e67a6fd7)" style="fill: #e8e8e8"/>
   </g>
   <g id="patch_153">
    <path d="M 357.965 80.675 
L 371.915 80.675 
L 371.915 94.625 
L 357.965 94.625 
z
" clip-path="url(#p39e67a6fd7)" style="fill: #e8e8e8"/>
   </g>
   <g id="patch_154">
    <path d="M 357.965 96.175 
L 371.915 96.175 
L 371.915 110.125 
L 357.965 110.125 
z
" clip-path="url(#p39e67a6fd7)" style="fill: #e8e8e8"/>
   </g>
   <g id="patch_155">
    <path d="M 357.965 111.675 
L 371.915 111.675 
L 371.915 125.625 
L 357.965 125.625 
z
" clip-path="url(#p39e67a6fd7)" style="fill: #e65d2f"/>
   </g>
   <g id="patch_156">
    <path d="M 373.465 18.675 
L 387.415 18.675 
L 387.415 32.625 
L 373.465 32.625 
z
" clip-path="url(#p39e67a6fd7)" style="fill: #e8e8e8"/>
   </g>
   <g id="patch_157">
    <path d="M 373.465 34.175 
L 387.415 34.175 
L 387.415 48.125 
L 373.465 48.125 
z
" clip-path="url(#p39e67a6fd7)" style="fill: #e8e8e8"/>
   </g>
   <g id="patch_158">
    <path d="M 373.465 49.675 
L 387.415 49.675 
L 387.415 63.625 
L 373.465 63.625 
z
" clip-path="url(#p39e67a6fd7)" style="fill: #000004"/>
   </g>
   <g id="patch_159">
    <path d="M 373.465 65.175 
L 387.415 65.175 
L 387.415 79.125 
L 373.465 79.125 
z
" clip-path="url(#p39e67a6fd7)" style="fill: #cb4149"/>
   </g>
   <g id="patch_160">
    <path d="M 373.465 80.675 
L 387.415 80.675 
L 387.415 94.625 
L 373.465 94.625 
z
" clip-path="url(#p39e67a6fd7)" style="fill: #cb4149"/>
   </g>
   <g id="patch_161">
    <path d="M 373.465 96.175 
L 387.415 96.175 
L 387.415 110.125 
L 373.465 110.125 
z
" clip-path="url(#p39e67a6fd7)" style="fill: #390963"/>
   </g>
   <g id="patch_162">
    <path d="M 373.465 111.675 
L 387.415 111.675 
L 387.415 125.625 
L 373.465 125.625 
z
" clip-path="url(#p39e67a6fd7)" style="fill: #000004"/>
   </g>
   <g id="patch_163">
    <path d="M 388.965 18.675 
L 402.915 18.675 
L 402.915 32.625 
L 388.965 32.625 
z
" clip-path="url(#p39e67a6fd7)" style="fill: #e8e8e8"/>
   </g>
   <g id="patch_164">
    <path d="M 388.965 34.175 
L 402.915 34.175 
L 402.915 48.125 
L 388.965 48.125 
z
" clip-path="url(#p39e67a6fd7)" style="fill: #e8e8e8"/>
   </g>
   <g id="patch_165">
    <path d="M 388.965 49.675 
L 402.915 49.675 
L 402.915 63.625 
L 388.965 63.625 
z
" clip-path="url(#p39e67a6fd7)" style="fill: #e8e8e8"/>
   </g>
   <g id="patch_166">
    <path d="M 388.965 65.175 
L 402.915 65.175 
L 402.915 79.125 
L 388.965 79.125 
z
" clip-path="url(#p39e67a6fd7)" style="fill: #e8e8e8"/>
   </g>
   <g id="patch_167">
    <path d="M 388.965 80.675 
L 402.915 80.675 
L 402.915 94.625 
L 388.965 94.625 
z
" clip-path="url(#p39e67a6fd7)" style="fill: #000004"/>
   </g>
   <g id="patch_168">
    <path d="M 388.965 96.175 
L 402.915 96.175 
L 402.915 110.125 
L 388.965 110.125 
z
" clip-path="url(#p39e67a6fd7)" style="fill: #e8e8e8"/>
   </g>
   <g id="patch_169">
    <path d="M 388.965 111.675 
L 402.915 111.675 
L 402.915 125.625 
L 388.965 125.625 
z
" clip-path="url(#p39e67a6fd7)" style="fill: #e8e8e8"/>
   </g>
   <g id="patch_170">
    <path d="M 404.465 18.675 
L 418.415 18.675 
L 418.415 32.625 
L 404.465 32.625 
z
" clip-path="url(#p39e67a6fd7)" style="fill: #5f136e"/>
   </g>
   <g id="patch_171">
    <path d="M 404.465 34.175 
L 418.415 34.175 
L 418.415 48.125 
L 404.465 48.125 
z
" clip-path="url(#p39e67a6fd7)" style="fill: #5f136e"/>
   </g>
   <g id="patch_172">
    <path d="M 404.465 49.675 
L 418.415 49.675 
L 418.415 63.625 
L 404.465 63.625 
z
" clip-path="url(#p39e67a6fd7)" style="fill: #e8e8e8"/>
   </g>
   <g id="patch_173">
    <path d="M 404.465 65.175 
L 418.415 65.175 
L 418.415 79.125 
L 404.465 79.125 
z
" clip-path="url(#p39e67a6fd7)" style="fill: #e8e8e8"/>
   </g>
   <g id="patch_174">
    <path d="M 404.465 80.675 
L 418.415 80.675 
L 418.415 94.625 
L 404.465 94.625 
z
" clip-path="url(#p39e67a6fd7)" style="fill: #e8e8e8"/>
   </g>
   <g id="patch_175">
    <path d="M 404.465 96.175 
L 418.415 96.175 
L 418.415 110.125 
L 404.465 110.125 
z
" clip-path="url(#p39e67a6fd7)" style="fill: #85216b"/>
   </g>
   <g id="patch_176">
    <path d="M 404.465 111.675 
L 418.415 111.675 
L 418.415 125.625 
L 404.465 125.625 
z
" clip-path="url(#p39e67a6fd7)" style="fill: #e8e8e8"/>
   </g>
   <g id="patch_177">
    <path d="M 419.965 18.675 
L 433.915 18.675 
L 433.915 32.625 
L 419.965 32.625 
z
" clip-path="url(#p39e67a6fd7)" style="fill: #140b34"/>
   </g>
   <g id="patch_178">
    <path d="M 419.965 34.175 
L 433.915 34.175 
L 433.915 48.125 
L 419.965 48.125 
z
" clip-path="url(#p39e67a6fd7)" style="fill: #000004"/>
   </g>
   <g id="patch_179">
    <path d="M 419.965 49.675 
L 433.915 49.675 
L 433.915 63.625 
L 419.965 63.625 
z
" clip-path="url(#p39e67a6fd7)" style="fill: #140b34"/>
   </g>
   <g id="patch_180">
    <path d="M 419.965 65.175 
L 433.915 65.175 
L 433.915 79.125 
L 419.965 79.125 
z
" clip-path="url(#p39e67a6fd7)" style="fill: #e8e8e8"/>
   </g>
   <g id="patch_181">
    <path d="M 419.965 80.675 
L 433.915 80.675 
L 433.915 94.625 
L 419.965 94.625 
z
" clip-path="url(#p39e67a6fd7)" style="fill: #85216b"/>
   </g>
   <g id="patch_182">
    <path d="M 419.965 96.175 
L 433.915 96.175 
L 433.915 110.125 
L 419.965 110.125 
z
" clip-path="url(#p39e67a6fd7)" style="fill: #e8e8e8"/>
   </g>
   <g id="patch_183">
    <path d="M 419.965 111.675 
L 433.915 111.675 
L 433.915 125.625 
L 419.965 125.625 
z
" clip-path="url(#p39e67a6fd7)" style="fill: #e8e8e8"/>
   </g>
   <g id="patch_184">
    <path d="M 435.465 18.675 
L 449.415 18.675 
L 449.415 32.625 
L 435.465 32.625 
z
" clip-path="url(#p39e67a6fd7)" style="fill: #e8e8e8"/>
   </g>
   <g id="patch_185">
    <path d="M 435.465 34.175 
L 449.415 34.175 
L 449.415 48.125 
L 435.465 48.125 
z
" clip-path="url(#p39e67a6fd7)" style="fill: #85216b"/>
   </g>
   <g id="patch_186">
    <path d="M 435.465 49.675 
L 449.415 49.675 
L 449.415 63.625 
L 435.465 63.625 
z
" clip-path="url(#p39e67a6fd7)" style="fill: #140b34"/>
   </g>
   <g id="patch_187">
    <path d="M 435.465 65.175 
L 449.415 65.175 
L 449.415 79.125 
L 435.465 79.125 
z
" clip-path="url(#p39e67a6fd7)" style="fill: #5f136e"/>
   </g>
   <g id="patch_188">
    <path d="M 435.465 80.675 
L 449.415 80.675 
L 449.415 94.625 
L 435.465 94.625 
z
" clip-path="url(#p39e67a6fd7)" style="fill: #e8e8e8"/>
   </g>
   <g id="patch_189">
    <path d="M 435.465 96.175 
L 449.415 96.175 
L 449.415 110.125 
L 435.465 110.125 
z
" clip-path="url(#p39e67a6fd7)" style="fill: #e8e8e8"/>
   </g>
   <g id="patch_190">
    <path d="M 435.465 111.675 
L 449.415 111.675 
L 449.415 125.625 
L 435.465 125.625 
z
" clip-path="url(#p39e67a6fd7)" style="fill: #390963"/>
   </g>
   <g id="patch_191">
    <path d="M 450.965 18.675 
L 464.915 18.675 
L 464.915 32.625 
L 450.965 32.625 
z
" clip-path="url(#p39e67a6fd7)" style="fill: #5f136e"/>
   </g>
   <g id="patch_192">
    <path d="M 450.965 34.175 
L 464.915 34.175 
L 464.915 48.125 
L 450.965 48.125 
z
" clip-path="url(#p39e67a6fd7)" style="fill: #e8e8e8"/>
   </g>
   <g id="patch_193">
    <path d="M 450.965 49.675 
L 464.915 49.675 
L 464.915 63.625 
L 450.965 63.625 
z
" clip-path="url(#p39e67a6fd7)" style="fill: #e8e8e8"/>
   </g>
   <g id="patch_194">
    <path d="M 450.965 65.175 
L 464.915 65.175 
L 464.915 79.125 
L 450.965 79.125 
z
" clip-path="url(#p39e67a6fd7)" style="fill: #000004"/>
   </g>
   <g id="patch_195">
    <path d="M 450.965 80.675 
L 464.915 80.675 
L 464.915 94.625 
L 450.965 94.625 
z
" clip-path="url(#p39e67a6fd7)" style="fill: #e8e8e8"/>
   </g>
   <g id="patch_196">
    <path d="M 450.965 96.175 
L 464.915 96.175 
L 464.915 110.125 
L 450.965 110.125 
z
" clip-path="url(#p39e67a6fd7)" style="fill: #e8e8e8"/>
   </g>
   <g id="patch_197">
    <path d="M 450.965 111.675 
L 464.915 111.675 
L 464.915 125.625 
L 450.965 125.625 
z
" clip-path="url(#p39e67a6fd7)" style="fill: #85216b"/>
   </g>
   <g id="patch_198">
    <path d="M 466.465 18.675 
L 480.415 18.675 
L 480.415 32.625 
L 466.465 32.625 
z
" clip-path="url(#p39e67a6fd7)" style="fill: #e8e8e8"/>
   </g>
   <g id="patch_199">
    <path d="M 466.465 34.175 
L 480.415 34.175 
L 480.415 48.125 
L 466.465 48.125 
z
" clip-path="url(#p39e67a6fd7)" style="fill: #5f136e"/>
   </g>
   <g id="patch_200">
    <path d="M 466.465 49.675 
L 480.415 49.675 
L 480.415 63.625 
L 466.465 63.625 
z
" clip-path="url(#p39e67a6fd7)" style="fill: #000004"/>
   </g>
   <g id="patch_201">
    <path d="M 466.465 65.175 
L 480.415 65.175 
L 480.415 79.125 
L 466.465 79.125 
z
" clip-path="url(#p39e67a6fd7)" style="fill: #e8e8e8"/>
   </g>
   <g id="patch_202">
    <path d="M 466.465 80.675 
L 480.415 80.675 
L 480.415 94.625 
L 466.465 94.625 
z
" clip-path="url(#p39e67a6fd7)" style="fill: #140b34"/>
   </g>
   <g id="patch_203">
    <path d="M 466.465 96.175 
L 480.415 96.175 
L 480.415 110.125 
L 466.465 110.125 
z
" clip-path="url(#p39e67a6fd7)" style="fill: #e8e8e8"/>
   </g>
   <g id="patch_204">
    <path d="M 466.465 111.675 
L 480.415 111.675 
L 480.415 125.625 
L 466.465 125.625 
z
" clip-path="url(#p39e67a6fd7)" style="fill: #e8e8e8"/>
   </g>
   <g id="patch_205">
    <path d="M 481.965 18.675 
L 495.915 18.675 
L 495.915 32.625 
L 481.965 32.625 
z
" clip-path="url(#p39e67a6fd7)" style="fill: #5f136e"/>
   </g>
   <g id="patch_206">
    <path d="M 481.965 34.175 
L 495.915 34.175 
L 495.915 48.125 
L 481.965 48.125 
z
" clip-path="url(#p39e67a6fd7)" style="fill: #fcae12"/>
   </g>
   <g id="patch_207">
    <path d="M 481.965 49.675 
L 495.915 49.675 
L 495.915 63.625 
L 481.965 63.625 
z
" clip-path="url(#p39e67a6fd7)" style="fill: #f78410"/>
   </g>
   <g id="patch_208">
    <path d="M 481.965 65.175 
L 495.915 65.175 
L 495.915 79.125 
L 481.965 79.125 
z
" clip-path="url(#p39e67a6fd7)" style="fill: #85216b"/>
   </g>
   <g id="patch_209">
    <path d="M 481.965 80.675 
L 495.915 80.675 
L 495.915 94.625 
L 481.965 94.625 
z
" clip-path="url(#p39e67a6fd7)" style="fill: #140b34"/>
   </g>
   <g id="patch_210">
    <path d="M 481.965 96.175 
L 495.915 96.175 
L 495.915 110.125 
L 481.965 110.125 
z
" clip-path="url(#p39e67a6fd7)" style="fill: #e8e8e8"/>
   </g>
   <g id="patch_211">
    <path d="M 481.965 111.675 
L 495.915 111.675 
L 495.915 125.625 
L 481.965 125.625 
z
" clip-path="url(#p39e67a6fd7)" style="fill: #e8e8e8"/>
   </g>
   <g id="patch_212">
    <path d="M 497.465 18.675 
L 511.415 18.675 
L 511.415 32.625 
L 497.465 32.625 
z
" clip-path="url(#p39e67a6fd7)" style="fill: #e8e8e8"/>
   </g>
   <g id="patch_213">
    <path d="M 497.465 34.175 
L 511.415 34.175 
L 511.415 48.125 
L 497.465 48.125 
z
" clip-path="url(#p39e67a6fd7)" style="fill: #e8e8e8"/>
   </g>
   <g id="patch_214">
    <path d="M 497.465 49.675 
L 511.415 49.675 
L 511.415 63.625 
L 497.465 63.625 
z
" clip-path="url(#p39e67a6fd7)" style="fill: #e8e8e8"/>
   </g>
   <g id="patch_215">
    <path d="M 497.465 65.175 
L 511.415 65.175 
L 511.415 79.125 
L 497.465 79.125 
z
" clip-path="url(#p39e67a6fd7)" style="fill: #e8e8e8"/>
   </g>
   <g id="patch_216">
    <path d="M 497.465 80.675 
L 511.415 80.675 
L 511.415 94.625 
L 497.465 94.625 
z
" clip-path="url(#p39e67a6fd7)" style="fill: #000004"/>
   </g>
   <g id="patch_217">
    <path d="M 497.465 96.175 
L 511.415 96.175 
L 511.415 110.125 
L 497.465 110.125 
z
" clip-path="url(#p39e67a6fd7)" style="fill: #140b34"/>
   </g>
   <g id="patch_218">
    <path d="M 497.465 111.675 
L 511.415 111.675 
L 511.415 125.625 
L 497.465 125.625 
z
" clip-path="url(#p39e67a6fd7)" style="fill: #000004"/>
   </g>
   <g id="patch_219">
    <path d="M 512.965 18.675 
L 526.915 18.675 
L 526.915 32.625 
L 512.965 32.625 
z
" clip-path="url(#p39e67a6fd7)" style="fill: #000004"/>
   </g>
   <g id="patch_220">
    <path d="M 512.965 34.175 
L 526.915 34.175 
L 526.915 48.125 
L 512.965 48.125 
z
" clip-path="url(#p39e67a6fd7)" style="fill: #e8e8e8"/>
   </g>
   <g id="patch_221">
    <path d="M 512.965 49.675 
L 526.915 49.675 
L 526.915 63.625 
L 512.965 63.625 
z
" clip-path="url(#p39e67a6fd7)" style="fill: #e8e8e8"/>
   </g>
   <g id="patch_222">
    <path d="M 512.965 65.175 
L 526.915 65.175 
L 526.915 79.125 
L 512.965 79.125 
z
" clip-path="url(#p39e67a6fd7)" style="fill: #5f136e"/>
   </g>
   <g id="patch_223">
    <path d="M 512.965 80.675 
L 526.915 80.675 
L 526.915 94.625 
L 512.965 94.625 
z
" clip-path="url(#p39e67a6fd7)" style="fill: #e8e8e8"/>
   </g>
   <g id="patch_224">
    <path d="M 512.965 96.175 
L 526.915 96.175 
L 526.915 110.125 
L 512.965 110.125 
z
" clip-path="url(#p39e67a6fd7)" style="fill: #390963"/>
   </g>
   <g id="patch_225">
    <path d="M 512.965 111.675 
L 526.915 111.675 
L 526.915 125.625 
L 512.965 125.625 
z
" clip-path="url(#p39e67a6fd7)" style="fill: #85216b"/>
   </g>
   <g id="patch_226">
    <path d="M 528.465 18.675 
L 542.415 18.675 
L 542.415 32.625 
L 528.465 32.625 
z
" clip-path="url(#p39e67a6fd7)" style="fill: #e8e8e8"/>
   </g>
   <g id="patch_227">
    <path d="M 528.465 34.175 
L 542.415 34.175 
L 542.415 48.125 
L 528.465 48.125 
z
" clip-path="url(#p39e67a6fd7)" style="fill: #e8e8e8"/>
   </g>
   <g id="patch_228">
    <path d="M 528.465 49.675 
L 542.415 49.675 
L 542.415 63.625 
L 528.465 63.625 
z
" clip-path="url(#p39e67a6fd7)" style="fill: #85216b"/>
   </g>
   <g id="patch_229">
    <path d="M 528.465 65.175 
L 542.415 65.175 
L 542.415 79.125 
L 528.465 79.125 
z
" clip-path="url(#p39e67a6fd7)" style="fill: #e8e8e8"/>
   </g>
   <g id="patch_230">
    <path d="M 528.465 80.675 
L 542.415 80.675 
L 542.415 94.625 
L 528.465 94.625 
z
" clip-path="url(#p39e67a6fd7)" style="fill: #390963"/>
   </g>
   <g id="patch_231">
    <path d="M 528.465 96.175 
L 542.415 96.175 
L 542.415 110.125 
L 528.465 110.125 
z
" clip-path="url(#p39e67a6fd7)" style="fill: #e8e8e8"/>
   </g>
   <g id="patch_232">
    <path d="M 528.465 111.675 
L 542.415 111.675 
L 542.415 125.625 
L 528.465 125.625 
z
" clip-path="url(#p39e67a6fd7)" style="fill: #85216b"/>
   </g>
   <g id="patch_233">
    <path d="M 543.965 18.675 
L 557.915 18.675 
L 557.915 32.625 
L 543.965 32.625 
z
" clip-path="url(#p39e67a6fd7)" style="fill: #e8e8e8"/>
   </g>
   <g id="patch_234">
    <path d="M 543.965 34.175 
L 557.915 34.175 
L 557.915 48.125 
L 543.965 48.125 
z
" clip-path="url(#p39e67a6fd7)" style="fill: #e8e8e8"/>
   </g>
   <g id="patch_235">
    <path d="M 543.965 49.675 
L 557.915 49.675 
L 557.915 63.625 
L 543.965 63.625 
z
" clip-path="url(#p39e67a6fd7)" style="fill: #e8e8e8"/>
   </g>
   <g id="patch_236">
    <path d="M 543.965 65.175 
L 557.915 65.175 
L 557.915 79.125 
L 543.965 79.125 
z
" clip-path="url(#p39e67a6fd7)" style="fill: #5f136e"/>
   </g>
   <g id="patch_237">
    <path d="M 543.965 80.675 
L 557.915 80.675 
L 557.915 94.625 
L 543.965 94.625 
z
" clip-path="url(#p39e67a6fd7)" style="fill: #5f136e"/>
   </g>
   <g id="patch_238">
    <path d="M 543.965 96.175 
L 557.915 96.175 
L 557.915 110.125 
L 543.965 110.125 
z
" clip-path="url(#p39e67a6fd7)" style="fill: #000004"/>
   </g>
   <g id="patch_239">
    <path d="M 543.965 111.675 
L 557.915 111.675 
L 557.915 125.625 
L 543.965 125.625 
z
" clip-path="url(#p39e67a6fd7)" style="fill: #e8e8e8"/>
   </g>
   <g id="patch_240">
    <path d="M 559.465 18.675 
L 573.415 18.675 
L 573.415 32.625 
L 559.465 32.625 
z
" clip-path="url(#p39e67a6fd7)" style="fill: #000004"/>
   </g>
   <g id="patch_241">
    <path d="M 559.465 34.175 
L 573.415 34.175 
L 573.415 48.125 
L 559.465 48.125 
z
" clip-path="url(#p39e67a6fd7)" style="fill: #e8e8e8"/>
   </g>
   <g id="patch_242">
    <path d="M 559.465 49.675 
L 573.415 49.675 
L 573.415 63.625 
L 559.465 63.625 
z
" clip-path="url(#p39e67a6fd7)" style="fill: #e8e8e8"/>
   </g>
   <g id="patch_243">
    <path d="M 559.465 65.175 
L 573.415 65.175 
L 573.415 79.125 
L 559.465 79.125 
z
" clip-path="url(#p39e67a6fd7)" style="fill: #cb4149"/>
   </g>
   <g id="patch_244">
    <path d="M 559.465 80.675 
L 573.415 80.675 
L 573.415 94.625 
L 559.465 94.625 
z
" clip-path="url(#p39e67a6fd7)" style="fill: #e8e8e8"/>
   </g>
   <g id="patch_245">
    <path d="M 559.465 96.175 
L 573.415 96.175 
L 573.415 110.125 
L 559.465 110.125 
z
" clip-path="url(#p39e67a6fd7)" style="fill: #e8e8e8"/>
   </g>
   <g id="patch_246">
    <path d="M 559.465 111.675 
L 573.415 111.675 
L 573.415 125.625 
L 559.465 125.625 
z
" clip-path="url(#p39e67a6fd7)" style="fill: #e8e8e8"/>
   </g>
   <g id="patch_247">
    <path d="M 574.965 18.675 
L 588.915 18.675 
L 588.915 32.625 
L 574.965 32.625 
z
" clip-path="url(#p39e67a6fd7)" style="fill: #cb4149"/>
   </g>
   <g id="patch_248">
    <path d="M 574.965 34.175 
L 588.915 34.175 
L 588.915 48.125 
L 574.965 48.125 
z
" clip-path="url(#p39e67a6fd7)" style="fill: #e8e8e8"/>
   </g>
   <g id="patch_249">
    <path d="M 574.965 49.675 
L 588.915 49.675 
L 588.915 63.625 
L 574.965 63.625 
z
" clip-path="url(#p39e67a6fd7)" style="fill: #e8e8e8"/>
   </g>
   <g id="patch_250">
    <path d="M 574.965 65.175 
L 588.915 65.175 
L 588.915 79.125 
L 574.965 79.125 
z
" clip-path="url(#p39e67a6fd7)" style="fill: #e8e8e8"/>
   </g>
   <g id="patch_251">
    <path d="M 574.965 80.675 
L 588.915 80.675 
L 588.915 94.625 
L 574.965 94.625 
z
" clip-path="url(#p39e67a6fd7)" style="fill: #e8e8e8"/>
   </g>
   <g id="patch_252">
    <path d="M 574.965 96.175 
L 588.915 96.175 
L 588.915 110.125 
L 574.965 110.125 
z
" clip-path="url(#p39e67a6fd7)" style="fill: #140b34"/>
   </g>
   <g id="patch_253">
    <path d="M 574.965 111.675 
L 588.915 111.675 
L 588.915 125.625 
L 574.965 125.625 
z
" clip-path="url(#p39e67a6fd7)" style="fill: #e8e8e8"/>
   </g>
   <g id="patch_254">
    <path d="M 590.465 18.675 
L 604.415 18.675 
L 604.415 32.625 
L 590.465 32.625 
z
" clip-path="url(#p39e67a6fd7)" style="fill: #e8e8e8"/>
   </g>
   <g id="patch_255">
    <path d="M 590.465 34.175 
L 604.415 34.175 
L 604.415 48.125 
L 590.465 48.125 
z
" clip-path="url(#p39e67a6fd7)" style="fill: #140b34"/>
   </g>
   <g id="patch_256">
    <path d="M 590.465 49.675 
L 604.415 49.675 
L 604.415 63.625 
L 590.465 63.625 
z
" clip-path="url(#p39e67a6fd7)" style="fill: #e8e8e8"/>
   </g>
   <g id="patch_257">
    <path d="M 590.465 65.175 
L 604.415 65.175 
L 604.415 79.125 
L 590.465 79.125 
z
" clip-path="url(#p39e67a6fd7)" style="fill: #e8e8e8"/>
   </g>
   <g id="patch_258">
    <path d="M 590.465 80.675 
L 604.415 80.675 
L 604.415 94.625 
L 590.465 94.625 
z
" clip-path="url(#p39e67a6fd7)" style="fill: #e8e8e8"/>
   </g>
   <g id="patch_259">
    <path d="M 590.465 96.175 
L 604.415 96.175 
L 604.415 110.125 
L 590.465 110.125 
z
" clip-path="url(#p39e67a6fd7)" style="fill: #85216b"/>
   </g>
   <g id="patch_260">
    <path d="M 590.465 111.675 
L 604.415 111.675 
L 604.415 125.625 
L 590.465 125.625 
z
" clip-path="url(#p39e67a6fd7)" style="fill: #e8e8e8"/>
   </g>
   <g id="patch_261">
    <path d="M 605.965 18.675 
L 619.915 18.675 
L 619.915 32.625 
L 605.965 32.625 
z
" clip-path="url(#p39e67a6fd7)" style="fill: #fcffa4"/>
   </g>
   <g id="patch_262">
    <path d="M 605.965 34.175 
L 619.915 34.175 
L 619.915 48.125 
L 605.965 48.125 
z
" clip-path="url(#p39e67a6fd7)" style="fill: #e8e8e8"/>
   </g>
   <g id="patch_263">
    <path d="M 605.965 49.675 
L 619.915 49.675 
L 619.915 63.625 
L 605.965 63.625 
z
" clip-path="url(#p39e67a6fd7)" style="fill: #5f136e"/>
   </g>
   <g id="patch_264">
    <path d="M 605.965 65.175 
L 619.915 65.175 
L 619.915 79.125 
L 605.965 79.125 
z
" clip-path="url(#p39e67a6fd7)" style="fill: #e8e8e8"/>
   </g>
   <g id="patch_265">
    <path d="M 605.965 80.675 
L 619.915 80.675 
L 619.915 94.625 
L 605.965 94.625 
z
" clip-path="url(#p39e67a6fd7)" style="fill: #e8e8e8"/>
   </g>
   <g id="patch_266">
    <path d="M 605.965 96.175 
L 619.915 96.175 
L 619.915 110.125 
L 605.965 110.125 
z
" clip-path="url(#p39e67a6fd7)" style="fill: #85216b"/>
   </g>
   <g id="patch_267">
    <path d="M 605.965 111.675 
L 619.915 111.675 
L 619.915 125.625 
L 605.965 125.625 
z
" clip-path="url(#p39e67a6fd7)" style="fill: #e8e8e8"/>
   </g>
   <g id="patch_268">
    <path d="M 621.465 18.675 
L 635.415 18.675 
L 635.415 32.625 
L 621.465 32.625 
z
" clip-path="url(#p39e67a6fd7)" style="fill: #e8e8e8"/>
   </g>
   <g id="patch_269">
    <path d="M 621.465 34.175 
L 635.415 34.175 
L 635.415 48.125 
L 621.465 48.125 
z
" clip-path="url(#p39e67a6fd7)" style="fill: #e8e8e8"/>
   </g>
   <g id="patch_270">
    <path d="M 621.465 49.675 
L 635.415 49.675 
L 635.415 63.625 
L 621.465 63.625 
z
" clip-path="url(#p39e67a6fd7)" style="fill: #e8e8e8"/>
   </g>
   <g id="patch_271">
    <path d="M 621.465 65.175 
L 635.415 65.175 
L 635.415 79.125 
L 621.465 79.125 
z
" clip-path="url(#p39e67a6fd7)" style="fill: #e8e8e8"/>
   </g>
   <g id="patch_272">
    <path d="M 621.465 80.675 
L 635.415 80.675 
L 635.415 94.625 
L 621.465 94.625 
z
" clip-path="url(#p39e67a6fd7)" style="fill: #e8e8e8"/>
   </g>
   <g id="patch_273">
    <path d="M 621.465 96.175 
L 635.415 96.175 
L 635.415 110.125 
L 621.465 110.125 
z
" clip-path="url(#p39e67a6fd7)" style="fill: #e8e8e8"/>
   </g>
   <g id="patch_274">
    <path d="M 621.465 111.675 
L 635.415 111.675 
L 635.415 125.625 
L 621.465 125.625 
z
" clip-path="url(#p39e67a6fd7)" style="fill: #e8e8e8"/>
   </g>
   <g id="patch_275">
    <path d="M 636.965 18.675 
L 650.915 18.675 
L 650.915 32.625 
L 636.965 32.625 
z
" clip-path="url(#p39e67a6fd7)" style="fill: #e8e8e8"/>
   </g>
   <g id="patch_276">
    <path d="M 636.965 34.175 
L 650.915 34.175 
L 650.915 48.125 
L 636.965 48.125 
z
" clip-path="url(#p39e67a6fd7)" style="fill: #e8e8e8"/>
   </g>
   <g id="patch_277">
    <path d="M 636.965 49.675 
L 650.915 49.675 
L 650.915 63.625 
L 636.965 63.625 
z
" clip-path="url(#p39e67a6fd7)" style="fill: #e8e8e8"/>
   </g>
   <g id="patch_278">
    <path d="M 636.965 65.175 
L 650.915 65.175 
L 650.915 79.125 
L 636.965 79.125 
z
" clip-path="url(#p39e67a6fd7)" style="fill: #e8e8e8"/>
   </g>
   <g id="patch_279">
    <path d="M 636.965 80.675 
L 650.915 80.675 
L 650.915 94.625 
L 636.965 94.625 
z
" clip-path="url(#p39e67a6fd7)" style="fill: #000004"/>
   </g>
   <g id="patch_280">
    <path d="M 636.965 96.175 
L 650.915 96.175 
L 650.915 110.125 
L 636.965 110.125 
z
" clip-path="url(#p39e67a6fd7)" style="fill: #140b34"/>
   </g>
   <g id="patch_281">
    <path d="M 636.965 111.675 
L 650.915 111.675 
L 650.915 125.625 
L 636.965 125.625 
z
" clip-path="url(#p39e67a6fd7)" style="fill: #e8e8e8"/>
   </g>
   <g id="patch_282">
    <path d="M 652.465 18.675 
L 666.415 18.675 
L 666.415 32.625 
L 652.465 32.625 
z
" clip-path="url(#p39e67a6fd7)" style="fill: #5f136e"/>
   </g>
   <g id="patch_283">
    <path d="M 652.465 34.175 
L 666.415 34.175 
L 666.415 48.125 
L 652.465 48.125 
z
" clip-path="url(#p39e67a6fd7)" style="fill: #e8e8e8"/>
   </g>
   <g id="patch_284">
    <path d="M 652.465 49.675 
L 666.415 49.675 
L 666.415 63.625 
L 652.465 63.625 
z
" clip-path="url(#p39e67a6fd7)" style="fill: #000004"/>
   </g>
   <g id="patch_285">
    <path d="M 652.465 65.175 
L 666.415 65.175 
L 666.415 79.125 
L 652.465 79.125 
z
" clip-path="url(#p39e67a6fd7)" style="fill: #e8e8e8"/>
   </g>
   <g id="patch_286">
    <path d="M 652.465 80.675 
L 666.415 80.675 
L 666.415 94.625 
L 652.465 94.625 
z
" clip-path="url(#p39e67a6fd7)" style="fill: #140b34"/>
   </g>
   <g id="patch_287">
    <path d="M 652.465 96.175 
L 666.415 96.175 
L 666.415 110.125 
L 652.465 110.125 
z
" clip-path="url(#p39e67a6fd7)" style="fill: #390963"/>
   </g>
   <g id="patch_288">
    <path d="M 652.465 111.675 
L 666.415 111.675 
L 666.415 125.625 
L 652.465 125.625 
z
" clip-path="url(#p39e67a6fd7)" style="fill: #e8e8e8"/>
   </g>
   <g id="patch_289">
    <path d="M 667.965 18.675 
L 681.915 18.675 
L 681.915 32.625 
L 667.965 32.625 
z
" clip-path="url(#p39e67a6fd7)" style="fill: #e8e8e8"/>
   </g>
   <g id="patch_290">
    <path d="M 667.965 34.175 
L 681.915 34.175 
L 681.915 48.125 
L 667.965 48.125 
z
" clip-path="url(#p39e67a6fd7)" style="fill: #e8e8e8"/>
   </g>
   <g id="patch_291">
    <path d="M 667.965 49.675 
L 681.915 49.675 
L 681.915 63.625 
L 667.965 63.625 
z
" clip-path="url(#p39e67a6fd7)" style="fill: #e8e8e8"/>
   </g>
   <g id="patch_292">
    <path d="M 667.965 65.175 
L 681.915 65.175 
L 681.915 79.125 
L 667.965 79.125 
z
" clip-path="url(#p39e67a6fd7)" style="fill: #e8e8e8"/>
   </g>
   <g id="patch_293">
    <path d="M 667.965 80.675 
L 681.915 80.675 
L 681.915 94.625 
L 667.965 94.625 
z
" clip-path="url(#p39e67a6fd7)" style="fill: #e65d2f"/>
   </g>
   <g id="patch_294">
    <path d="M 667.965 96.175 
L 681.915 96.175 
L 681.915 110.125 
L 667.965 110.125 
z
" clip-path="url(#p39e67a6fd7)" style="fill: #140b34"/>
   </g>
   <g id="patch_295">
    <path d="M 667.965 111.675 
L 681.915 111.675 
L 681.915 125.625 
L 667.965 125.625 
z
" clip-path="url(#p39e67a6fd7)" style="fill: #cb4149"/>
   </g>
   <g id="patch_296">
    <path d="M 683.465 18.675 
L 697.415 18.675 
L 697.415 32.625 
L 683.465 32.625 
z
" clip-path="url(#p39e67a6fd7)" style="fill: #e8e8e8"/>
   </g>
   <g id="patch_297">
    <path d="M 683.465 34.175 
L 697.415 34.175 
L 697.415 48.125 
L 683.465 48.125 
z
" clip-path="url(#p39e67a6fd7)" style="fill: #e8e8e8"/>
   </g>
   <g id="patch_298">
    <path d="M 683.465 49.675 
L 697.415 49.675 
L 697.415 63.625 
L 683.465 63.625 
z
" clip-path="url(#p39e67a6fd7)" style="fill: #e8e8e8"/>
   </g>
   <g id="patch_299">
    <path d="M 683.465 65.175 
L 697.415 65.175 
L 697.415 79.125 
L 683.465 79.125 
z
" clip-path="url(#p39e67a6fd7)" style="fill: #390963"/>
   </g>
   <g id="patch_300">
    <path d="M 683.465 80.675 
L 697.415 80.675 
L 697.415 94.625 
L 683.465 94.625 
z
" clip-path="url(#p39e67a6fd7)" style="fill: #a92e5e"/>
   </g>
   <g id="patch_301">
    <path d="M 683.465 96.175 
L 697.415 96.175 
L 697.415 110.125 
L 683.465 110.125 
z
" clip-path="url(#p39e67a6fd7)" style="fill: #390963"/>
   </g>
   <g id="patch_302">
    <path d="M 683.465 111.675 
L 697.415 111.675 
L 697.415 125.625 
L 683.465 125.625 
z
" clip-path="url(#p39e67a6fd7)" style="fill: #140b34"/>
   </g>
   <g id="patch_303">
    <path d="M 698.965 18.675 
L 712.915 18.675 
L 712.915 32.625 
L 698.965 32.625 
z
" clip-path="url(#p39e67a6fd7)" style="fill: #e8e8e8"/>
   </g>
   <g id="patch_304">
    <path d="M 698.965 34.175 
L 712.915 34.175 
L 712.915 48.125 
L 698.965 48.125 
z
" clip-path="url(#p39e67a6fd7)" style="fill: #e8e8e8"/>
   </g>
   <g id="patch_305">
    <path d="M 698.965 49.675 
L 712.915 49.675 
L 712.915 63.625 
L 698.965 63.625 
z
" clip-path="url(#p39e67a6fd7)" style="fill: #e8e8e8"/>
   </g>
   <g id="patch_306">
    <path d="M 698.965 65.175 
L 712.915 65.175 
L 712.915 79.125 
L 698.965 79.125 
z
" clip-path="url(#p39e67a6fd7)" style="fill: #e8e8e8"/>
   </g>
   <g id="patch_307">
    <path d="M 698.965 80.675 
L 712.915 80.675 
L 712.915 94.625 
L 698.965 94.625 
z
" clip-path="url(#p39e67a6fd7)" style="fill: #e8e8e8"/>
   </g>
   <g id="patch_308">
    <path d="M 698.965 96.175 
L 712.915 96.175 
L 712.915 110.125 
L 698.965 110.125 
z
" clip-path="url(#p39e67a6fd7)" style="fill: #000004"/>
   </g>
   <g id="patch_309">
    <path d="M 698.965 111.675 
L 712.915 111.675 
L 712.915 125.625 
L 698.965 125.625 
z
" clip-path="url(#p39e67a6fd7)" style="fill: #85216b"/>
   </g>
   <g id="patch_310">
    <path d="M 714.465 18.675 
L 728.415 18.675 
L 728.415 32.625 
L 714.465 32.625 
z
" clip-path="url(#p39e67a6fd7)" style="fill: #e8e8e8"/>
   </g>
   <g id="patch_311">
    <path d="M 714.465 34.175 
L 728.415 34.175 
L 728.415 48.125 
L 714.465 48.125 
z
" clip-path="url(#p39e67a6fd7)" style="fill: #e8e8e8"/>
   </g>
   <g id="patch_312">
    <path d="M 714.465 49.675 
L 728.415 49.675 
L 728.415 63.625 
L 714.465 63.625 
z
" clip-path="url(#p39e67a6fd7)" style="fill: #000004"/>
   </g>
   <g id="patch_313">
    <path d="M 714.465 65.175 
L 728.415 65.175 
L 728.415 79.125 
L 714.465 79.125 
z
" clip-path="url(#p39e67a6fd7)" style="fill: #e8e8e8"/>
   </g>
   <g id="patch_314">
    <path d="M 714.465 80.675 
L 728.415 80.675 
L 728.415 94.625 
L 714.465 94.625 
z
" clip-path="url(#p39e67a6fd7)" style="fill: #e8e8e8"/>
   </g>
   <g id="patch_315">
    <path d="M 714.465 96.175 
L 728.415 96.175 
L 728.415 110.125 
L 714.465 110.125 
z
" clip-path="url(#p39e67a6fd7)" style="fill: #e8e8e8"/>
   </g>
   <g id="patch_316">
    <path d="M 714.465 111.675 
L 728.415 111.675 
L 728.415 125.625 
L 714.465 125.625 
z
" clip-path="url(#p39e67a6fd7)" style="fill: #e8e8e8"/>
   </g>
   <g id="patch_317">
    <path d="M 729.965 18.675 
L 743.915 18.675 
L 743.915 32.625 
L 729.965 32.625 
z
" clip-path="url(#p39e67a6fd7)" style="fill: #e8e8e8"/>
   </g>
   <g id="patch_318">
    <path d="M 729.965 34.175 
L 743.915 34.175 
L 743.915 48.125 
L 729.965 48.125 
z
" clip-path="url(#p39e67a6fd7)" style="fill: #e8e8e8"/>
   </g>
   <g id="patch_319">
    <path d="M 729.965 49.675 
L 743.915 49.675 
L 743.915 63.625 
L 729.965 63.625 
z
" clip-path="url(#p39e67a6fd7)" style="fill: #e8e8e8"/>
   </g>
   <g id="patch_320">
    <path d="M 729.965 65.175 
L 743.915 65.175 
L 743.915 79.125 
L 729.965 79.125 
z
" clip-path="url(#p39e67a6fd7)" style="fill: #390963"/>
   </g>
   <g id="patch_321">
    <path d="M 729.965 80.675 
L 743.915 80.675 
L 743.915 94.625 
L 729.965 94.625 
z
" clip-path="url(#p39e67a6fd7)" style="fill: #e8e8e8"/>
   </g>
   <g id="patch_322">
    <path d="M 729.965 96.175 
L 743.915 96.175 
L 743.915 110.125 
L 729.965 110.125 
z
" clip-path="url(#p39e67a6fd7)" style="fill: #e8e8e8"/>
   </g>
   <g id="patch_323">
    <path d="M 729.965 111.675 
L 743.915 111.675 
L 743.915 125.625 
L 729.965 125.625 
z
" clip-path="url(#p39e67a6fd7)" style="fill: #e8e8e8"/>
   </g>
   <g id="patch_324">
    <path d="M 745.465 18.675 
L 759.415 18.675 
L 759.415 32.625 
L 745.465 32.625 
z
" clip-path="url(#p39e67a6fd7)" style="fill: #390963"/>
   </g>
   <g id="patch_325">
    <path d="M 745.465 34.175 
L 759.415 34.175 
L 759.415 48.125 
L 745.465 48.125 
z
" clip-path="url(#p39e67a6fd7)" style="fill: #5f136e"/>
   </g>
   <g id="patch_326">
    <path d="M 745.465 49.675 
L 759.415 49.675 
L 759.415 63.625 
L 745.465 63.625 
z
" clip-path="url(#p39e67a6fd7)" style="fill: #e8e8e8"/>
   </g>
   <g id="patch_327">
    <path d="M 745.465 65.175 
L 759.415 65.175 
L 759.415 79.125 
L 745.465 79.125 
z
" clip-path="url(#p39e67a6fd7)" style="fill: #e8e8e8"/>
   </g>
   <g id="patch_328">
    <path d="M 745.465 80.675 
L 759.415 80.675 
L 759.415 94.625 
L 745.465 94.625 
z
" clip-path="url(#p39e67a6fd7)" style="fill: #140b34"/>
   </g>
   <g id="patch_329">
    <path d="M 745.465 96.175 
L 759.415 96.175 
L 759.415 110.125 
L 745.465 110.125 
z
" clip-path="url(#p39e67a6fd7)" style="fill: #e8e8e8"/>
   </g>
   <g id="patch_330">
    <path d="M 745.465 111.675 
L 759.415 111.675 
L 759.415 125.625 
L 745.465 125.625 
z
" clip-path="url(#p39e67a6fd7)" style="fill: #140b34"/>
   </g>
   <g id="patch_331">
    <path d="M 760.965 18.675 
L 774.915 18.675 
L 774.915 32.625 
L 760.965 32.625 
z
" clip-path="url(#p39e67a6fd7)" style="fill: #e8e8e8"/>
   </g>
   <g id="patch_332">
    <path d="M 760.965 34.175 
L 774.915 34.175 
L 774.915 48.125 
L 760.965 48.125 
z
" clip-path="url(#p39e67a6fd7)" style="fill: #5f136e"/>
   </g>
   <g id="patch_333">
    <path d="M 760.965 49.675 
L 774.915 49.675 
L 774.915 63.625 
L 760.965 63.625 
z
" clip-path="url(#p39e67a6fd7)" style="fill: #e8e8e8"/>
   </g>
   <g id="patch_334">
    <path d="M 760.965 65.175 
L 774.915 65.175 
L 774.915 79.125 
L 760.965 79.125 
z
" clip-path="url(#p39e67a6fd7)" style="fill: #e65d2f"/>
   </g>
   <g id="patch_335">
    <path d="M 760.965 80.675 
L 774.915 80.675 
L 774.915 94.625 
L 760.965 94.625 
z
" clip-path="url(#p39e67a6fd7)" style="fill: #85216b"/>
   </g>
   <g id="patch_336">
    <path d="M 760.965 96.175 
L 774.915 96.175 
L 774.915 110.125 
L 760.965 110.125 
z
" clip-path="url(#p39e67a6fd7)" style="fill: #e8e8e8"/>
   </g>
   <g id="patch_337">
    <path d="M 760.965 111.675 
L 774.915 111.675 
L 774.915 125.625 
L 760.965 125.625 
z
" clip-path="url(#p39e67a6fd7)" style="fill: #e8e8e8"/>
   </g>
   <g id="patch_338">
    <path d="M 776.465 18.675 
L 790.415 18.675 
L 790.415 32.625 
L 776.465 32.625 
z
" clip-path="url(#p39e67a6fd7)" style="fill: #000004"/>
   </g>
   <g id="patch_339">
    <path d="M 776.465 34.175 
L 790.415 34.175 
L 790.415 48.125 
L 776.465 48.125 
z
" clip-path="url(#p39e67a6fd7)" style="fill: #e8e8e8"/>
   </g>
   <g id="patch_340">
    <path d="M 776.465 49.675 
L 790.415 49.675 
L 790.415 63.625 
L 776.465 63.625 
z
" clip-path="url(#p39e67a6fd7)" style="fill: #e8e8e8"/>
   </g>
   <g id="patch_341">
    <path d="M 776.465 65.175 
L 790.415 65.175 
L 790.415 79.125 
L 776.465 79.125 
z
" clip-path="url(#p39e67a6fd7)" style="fill: #5f136e"/>
   </g>
   <g id="patch_342">
    <path d="M 776.465 80.675 
L 790.415 80.675 
L 790.415 94.625 
L 776.465 94.625 
z
" clip-path="url(#p39e67a6fd7)" style="fill: #140b34"/>
   </g>
   <g id="patch_343">
    <path d="M 776.465 96.175 
L 790.415 96.175 
L 790.415 110.125 
L 776.465 110.125 
z
" clip-path="url(#p39e67a6fd7)" style="fill: #5f136e"/>
   </g>
   <g id="patch_344">
    <path d="M 776.465 111.675 
L 790.415 111.675 
L 790.415 125.625 
L 776.465 125.625 
z
" clip-path="url(#p39e67a6fd7)" style="fill: #e8e8e8"/>
   </g>
   <g id="patch_345">
    <path d="M 791.965 18.675 
L 805.915 18.675 
L 805.915 32.625 
L 791.965 32.625 
z
" clip-path="url(#p39e67a6fd7)" style="fill: #e8e8e8"/>
   </g>
   <g id="patch_346">
    <path d="M 791.965 34.175 
L 805.915 34.175 
L 805.915 48.125 
L 791.965 48.125 
z
" clip-path="url(#p39e67a6fd7)" style="fill: #e8e8e8"/>
   </g>
   <g id="patch_347">
    <path d="M 791.965 49.675 
L 805.915 49.675 
L 805.915 63.625 
L 791.965 63.625 
z
" clip-path="url(#p39e67a6fd7)" style="fill: #e8e8e8"/>
   </g>
   <g id="patch_348">
    <path d="M 791.965 65.175 
L 805.915 65.175 
L 805.915 79.125 
L 791.965 79.125 
z
" clip-path="url(#p39e67a6fd7)" style="fill: #e8e8e8"/>
   </g>
   <g id="patch_349">
    <path d="M 791.965 80.675 
L 805.915 80.675 
L 805.915 94.625 
L 791.965 94.625 
z
" clip-path="url(#p39e67a6fd7)" style="fill: #e8e8e8"/>
   </g>
   <g id="patch_350">
    <path d="M 791.965 96.175 
L 805.915 96.175 
L 805.915 110.125 
L 791.965 110.125 
z
" clip-path="url(#p39e67a6fd7)" style="fill: #000004"/>
   </g>
   <g id="patch_351">
    <path d="M 791.965 111.675 
L 805.915 111.675 
L 805.915 125.625 
L 791.965 125.625 
z
" clip-path="url(#p39e67a6fd7)" style="fill: #e8e8e8"/>
   </g>
   <g id="patch_352">
    <path d="M 807.465 18.675 
L 821.415 18.675 
L 821.415 32.625 
L 807.465 32.625 
z
" clip-path="url(#p39e67a6fd7)" style="fill: #cb4149"/>
   </g>
   <g id="patch_353">
    <path d="M 807.465 34.175 
L 821.415 34.175 
L 821.415 48.125 
L 807.465 48.125 
z
" clip-path="url(#p39e67a6fd7)" style="fill: #e8e8e8"/>
   </g>
   <g id="patch_354">
    <path d="M 807.465 49.675 
L 821.415 49.675 
L 821.415 63.625 
L 807.465 63.625 
z
" clip-path="url(#p39e67a6fd7)" style="fill: #85216b"/>
   </g>
   <g id="patch_355">
    <path d="M 807.465 65.175 
L 821.415 65.175 
L 821.415 79.125 
L 807.465 79.125 
z
" clip-path="url(#p39e67a6fd7)" style="fill: #e8e8e8"/>
   </g>
   <g id="patch_356">
    <path d="M 807.465 80.675 
L 821.415 80.675 
L 821.415 94.625 
L 807.465 94.625 
z
" clip-path="url(#p39e67a6fd7)" style="fill: #e8e8e8"/>
   </g>
   <g id="patch_357">
    <path d="M 807.465 96.175 
L 821.415 96.175 
L 821.415 110.125 
L 807.465 110.125 
z
" clip-path="url(#p39e67a6fd7)" style="fill: #e65d2f"/>
   </g>
   <g id="patch_358">
    <path d="M 807.465 111.675 
L 821.415 111.675 
L 821.415 125.625 
L 807.465 125.625 
z
" clip-path="url(#p39e67a6fd7)" style="fill: #e8e8e8"/>
   </g>
   <g id="patch_359">
    <path d="M 822.965 18.675 
L 836.915 18.675 
L 836.915 32.625 
L 822.965 32.625 
z
" clip-path="url(#p39e67a6fd7)" style="fill: #140b34"/>
   </g>
   <g id="patch_360">
    <path d="M 822.965 34.175 
L 836.915 34.175 
L 836.915 48.125 
L 822.965 48.125 
z
" clip-path="url(#p39e67a6fd7)" style="fill: #e8e8e8"/>
   </g>
   <g id="patch_361">
    <path d="M 822.965 49.675 
L 836.915 49.675 
L 836.915 63.625 
L 822.965 63.625 
z
" clip-path="url(#p39e67a6fd7)" style="fill: #e8e8e8"/>
   </g>
   <g id="patch_362">
    <path d="M 822.965 65.175 
L 836.915 65.175 
L 836.915 79.125 
L 822.965 79.125 
z
" clip-path="url(#p39e67a6fd7)" style="fill: #000004"/>
   </g>
   <g id="patch_363">
    <path d="M 822.965 80.675 
L 836.915 80.675 
L 836.915 94.625 
L 822.965 94.625 
z
" clip-path="url(#p39e67a6fd7)" style="fill: #e8e8e8"/>
   </g>
   <g id="patch_364">
    <path d="M 822.965 96.175 
L 836.915 96.175 
L 836.915 110.125 
L 822.965 110.125 
z
" clip-path="url(#p39e67a6fd7)" style="fill: #e65d2f"/>
   </g>
   <g id="patch_365">
    <path d="M 822.965 111.675 
L 836.915 111.675 
L 836.915 125.625 
L 822.965 125.625 
z
" clip-path="url(#p39e67a6fd7)" style="fill: #e8e8e8"/>
   </g>
   <g id="patch_366">
    <path d="M 838.465 18.675 
L 852.415 18.675 
L 852.415 32.625 
L 838.465 32.625 
z
" clip-path="url(#p39e67a6fd7)" style="fill: #e8e8e8"/>
   </g>
   <g id="patch_367">
    <path d="M 838.465 34.175 
L 852.415 34.175 
L 852.415 48.125 
L 838.465 48.125 
z
" clip-path="url(#p39e67a6fd7)" style="fill: #e8e8e8"/>
   </g>
   <g id="patch_368">
    <path d="M 838.465 49.675 
L 852.415 49.675 
L 852.415 63.625 
L 838.465 63.625 
z
" clip-path="url(#p39e67a6fd7)" style="fill: #e8e8e8"/>
   </g>
   <g id="matplotlib.axis_1"/>
   <g id="matplotlib.axis_2"/>
   <g id="text_1">
    <!-- Jan -->
    <g style="fill: #323034" transform="translate(32.854844 14.029687) scale(0.1 -0.1)">
     <defs>
      <path id="STIXGeneral-Regular-4a" d="M 2266 4237 
L 2266 4115 
Q 1875 4083 1776 3984 
Q 1677 3885 1677 3514 
L 1677 1184 
Q 1677 -90 608 -90 
Q 314 -90 138 32 
Q -38 154 -38 371 
Q -38 499 54 601 
Q 147 704 275 704 
Q 486 704 589 435 
Q 602 403 621 348 
Q 640 294 649 265 
Q 659 237 678 208 
Q 698 179 723 166 
Q 749 154 787 154 
Q 928 154 976 253 
Q 1024 352 1024 602 
L 1024 3520 
Q 1024 3898 928 3990 
Q 832 4083 429 4115 
L 429 4237 
L 2266 4237 
z
" transform="scale(0.015625)"/>
      <path id="STIXGeneral-Regular-61" d="M 2829 422 
L 2829 243 
Q 2586 -64 2253 -64 
Q 1888 -64 1843 403 
L 1837 403 
Q 1427 -64 909 -64 
Q 608 -64 422 112 
Q 237 288 237 602 
Q 237 1050 685 1350 
Q 992 1555 1837 1869 
L 1837 2214 
Q 1837 2502 1699 2646 
Q 1562 2790 1338 2790 
Q 1146 2790 1018 2697 
Q 890 2605 890 2477 
Q 890 2419 909 2348 
Q 928 2278 928 2208 
Q 928 2112 841 2029 
Q 755 1946 634 1946 
Q 525 1946 441 2029 
Q 358 2112 358 2240 
Q 358 2547 685 2752 
Q 986 2944 1421 2944 
Q 1939 2944 2176 2656 
Q 2291 2522 2323 2384 
Q 2355 2246 2355 1946 
L 2355 723 
Q 2355 301 2554 301 
Q 2682 301 2829 422 
z
M 1837 813 
L 1837 1715 
Q 1248 1510 1018 1293 
Q 800 1094 800 800 
Q 800 557 921 432 
Q 1043 307 1242 307 
Q 1453 307 1613 410 
Q 1747 506 1792 589 
Q 1837 672 1837 813 
z
" transform="scale(0.015625)"/>
      <path id="STIXGeneral-Regular-6e" d="M 3104 0 
L 1773 0 
L 1779 96 
Q 2016 115 2096 233 
Q 2176 352 2176 672 
L 2176 1946 
Q 2176 2592 1709 2592 
Q 1549 2592 1408 2515 
Q 1267 2438 1050 2227 
L 1050 461 
Q 1050 269 1136 192 
Q 1222 115 1466 96 
L 1466 0 
L 115 0 
L 115 96 
Q 358 115 435 214 
Q 512 314 512 602 
L 512 2157 
Q 512 2394 467 2483 
Q 422 2573 288 2573 
Q 160 2573 102 2547 
L 102 2656 
Q 550 2784 979 2944 
L 1030 2925 
L 1030 2426 
L 1037 2426 
Q 1491 2944 1958 2944 
Q 2323 2944 2518 2688 
Q 2714 2432 2714 1958 
L 2714 544 
Q 2714 288 2790 205 
Q 2867 122 3104 96 
L 3104 0 
z
" transform="scale(0.015625)"/>
     </defs>
     <use xlink:href="#STIXGeneral-Regular-4a"/>
     <use xlink:href="#STIXGeneral-Regular-61" transform="translate(37.299988 0)"/>
     <use xlink:href="#STIXGeneral-Regular-6e" transform="translate(81.699982 0)"/>
    </g>
   </g>
   <g id="text_2">
    <!-- Feb -->
    <g style="fill: #323034" transform="translate(93.94 14.029687) scale(0.1 -0.1)">
     <defs>
      <path id="STIXGeneral-Regular-46" d="M 3494 3322 
L 3334 3322 
Q 3264 3757 3094 3875 
Q 2925 3994 2349 3994 
L 1504 3994 
Q 1370 3994 1328 3946 
Q 1286 3898 1286 3744 
L 1286 2355 
L 2195 2355 
Q 2598 2355 2736 2470 
Q 2874 2586 2918 2963 
L 3066 2963 
L 3066 1472 
L 2918 1472 
Q 2880 1862 2745 1977 
Q 2611 2093 2195 2093 
L 1286 2093 
L 1286 717 
Q 1286 352 1392 246 
Q 1498 141 1869 122 
L 1869 0 
L 70 0 
L 70 122 
Q 435 147 534 259 
Q 634 371 634 787 
L 634 3526 
Q 634 3878 538 3984 
Q 442 4090 77 4115 
L 77 4237 
L 3462 4237 
L 3494 3322 
z
" transform="scale(0.015625)"/>
      <path id="STIXGeneral-Regular-65" d="M 2611 1050 
L 2714 1005 
Q 2330 -64 1376 -64 
Q 813 -64 486 329 
Q 160 723 160 1389 
Q 160 2074 525 2509 
Q 890 2944 1485 2944 
Q 2061 2944 2374 2502 
Q 2560 2246 2592 1773 
L 621 1773 
Q 646 1370 700 1158 
Q 755 947 915 730 
Q 1184 378 1626 378 
Q 1939 378 2153 531 
Q 2368 685 2611 1050 
z
M 634 1978 
L 1939 1978 
Q 1882 2381 1750 2547 
Q 1619 2714 1312 2714 
Q 1043 2714 864 2525 
Q 685 2336 634 1978 
z
" transform="scale(0.015625)"/>
      <path id="STIXGeneral-Regular-62" d="M 979 4358 
L 979 2406 
Q 1082 2650 1315 2797 
Q 1549 2944 1843 2944 
Q 2349 2944 2672 2541 
Q 2995 2138 2995 1536 
Q 2995 832 2566 384 
Q 2138 -64 1498 -64 
Q 1107 -64 774 67 
Q 442 198 442 358 
L 442 3622 
Q 442 3859 384 3926 
Q 326 3994 128 3994 
Q 83 3994 19 3981 
L 19 4090 
L 211 4147 
Q 864 4346 947 4371 
L 979 4358 
z
M 979 2035 
L 979 474 
Q 979 326 1161 233 
Q 1344 141 1600 141 
Q 1978 141 2195 416 
Q 2432 710 2432 1261 
Q 2432 1888 2182 2240 
Q 1971 2541 1613 2541 
Q 1357 2541 1168 2390 
Q 979 2240 979 2035 
z
" transform="scale(0.015625)"/>
     </defs>
     <use xlink:href="#STIXGeneral-Regular-46"/>
     <use xlink:href="#STIXGeneral-Regular-65" transform="translate(55.599991 0)"/>
     <use xlink:href="#STIXGeneral-Regular-62" transform="translate(99.999985 0)"/>
    </g>
   </g>
   <g id="text_3">
    <!-- Mar -->
    <g style="fill: #323034" transform="translate(155.109531 14.029687) scale(0.1 -0.1)">
     <defs>
      <path id="STIXGeneral-Regular-4d" d="M 5530 0 
L 3738 0 
L 3738 122 
Q 4115 147 4214 265 
Q 4314 384 4314 787 
L 4314 3661 
L 2682 0 
L 2592 0 
L 979 3514 
L 979 966 
Q 979 448 1088 294 
Q 1197 141 1574 122 
L 1574 0 
L 77 0 
L 77 122 
Q 358 141 480 205 
Q 602 269 650 432 
Q 698 595 698 966 
L 698 3514 
Q 698 3878 589 3984 
Q 480 4090 90 4115 
L 90 4237 
L 1357 4237 
L 2835 1024 
L 4250 4237 
L 5523 4237 
L 5523 4115 
Q 5178 4109 5072 3993 
Q 4966 3878 4966 3520 
L 4966 717 
Q 4966 378 5072 262 
Q 5178 147 5530 122 
L 5530 0 
z
" transform="scale(0.015625)"/>
      <path id="STIXGeneral-Regular-72" d="M 1024 2931 
L 1024 2342 
Q 1267 2688 1430 2816 
Q 1594 2944 1792 2944 
Q 1958 2944 2051 2854 
Q 2144 2765 2144 2605 
Q 2144 2470 2077 2393 
Q 2010 2317 1894 2317 
Q 1773 2317 1638 2445 
Q 1536 2541 1472 2541 
Q 1338 2541 1181 2355 
Q 1024 2170 1024 2016 
L 1024 576 
Q 1024 301 1133 205 
Q 1242 109 1568 96 
L 1568 0 
L 32 0 
L 32 96 
Q 339 154 412 224 
Q 486 294 486 538 
L 486 2138 
Q 486 2349 438 2435 
Q 390 2522 269 2522 
Q 166 2522 45 2496 
L 45 2598 
Q 448 2726 992 2944 
L 1024 2931 
z
" transform="scale(0.015625)"/>
     </defs>
     <use xlink:href="#STIXGeneral-Regular-4d"/>
     <use xlink:href="#STIXGeneral-Regular-61" transform="translate(88.899994 0)"/>
     <use xlink:href="#STIXGeneral-Regular-72" transform="translate(133.299988 0)"/>
    </g>
   </g>
   <g id="text_4">
    <!-- Apr -->
    <g style="fill: #323034" transform="translate(233.165 14.029687) scale(0.1 -0.1)">
     <defs>
      <path id="STIXGeneral-Regular-41" d="M 4525 0 
L 2893 0 
L 2893 122 
Q 3149 122 3245 179 
Q 3334 224 3334 333 
Q 3334 499 3213 781 
L 2950 1382 
L 1274 1382 
L 979 653 
Q 922 506 922 384 
Q 922 237 1027 179 
Q 1133 122 1370 122 
L 1370 0 
L 96 0 
L 96 122 
Q 365 147 486 316 
Q 608 486 902 1190 
L 2221 4314 
L 2349 4314 
L 3923 710 
Q 4064 378 4176 262 
Q 4288 147 4525 122 
L 4525 0 
z
M 2861 1645 
L 2118 3405 
L 1382 1645 
L 2861 1645 
z
" transform="scale(0.015625)"/>
      <path id="STIXGeneral-Regular-70" d="M 1018 2931 
L 1018 2438 
Q 1421 2944 1939 2944 
Q 2406 2944 2707 2560 
Q 3008 2176 3008 1581 
Q 3008 883 2621 409 
Q 2234 -64 1664 -64 
Q 1466 -64 1328 -6 
Q 1190 51 1018 211 
L 1018 -794 
Q 1018 -1094 1120 -1180 
Q 1222 -1267 1581 -1274 
L 1581 -1389 
L 32 -1389 
L 32 -1280 
Q 314 -1254 397 -1171 
Q 480 -1088 480 -838 
L 480 2157 
Q 480 2381 429 2451 
Q 378 2522 218 2522 
Q 115 2522 58 2515 
L 58 2618 
Q 506 2752 979 2944 
L 1018 2931 
z
M 1018 2138 
L 1018 563 
Q 1018 422 1238 281 
Q 1459 141 1683 141 
Q 2029 141 2243 467 
Q 2458 794 2458 1325 
Q 2458 1888 2243 2224 
Q 2029 2560 1670 2560 
Q 1446 2560 1232 2419 
Q 1018 2278 1018 2138 
z
" transform="scale(0.015625)"/>
     </defs>
     <use xlink:href="#STIXGeneral-Regular-41"/>
     <use xlink:href="#STIXGeneral-Regular-70" transform="translate(72.199982 0)"/>
     <use xlink:href="#STIXGeneral-Regular-72" transform="translate(122.199966 0)"/>
    </g>
   </g>
   <g id="text_5">
    <!-- May -->
    <g style="fill: #323034" transform="translate(293.774375 14.020312) scale(0.1 -0.1)">
     <defs>
      <path id="STIXGeneral-Regular-79" d="M 3040 2880 
L 3040 2784 
Q 2925 2771 2854 2700 
Q 2784 2630 2720 2458 
L 1760 -160 
Q 1510 -838 1257 -1116 
Q 1005 -1395 640 -1395 
Q 435 -1395 313 -1289 
Q 192 -1184 192 -1024 
Q 192 -902 272 -816 
Q 352 -730 467 -730 
Q 653 -730 800 -813 
Q 883 -858 966 -858 
Q 1101 -858 1286 -576 
Q 1376 -448 1459 -211 
Q 1542 26 1542 115 
Q 1542 198 1274 762 
L 429 2566 
Q 346 2752 90 2790 
L 90 2880 
L 1402 2880 
L 1402 2784 
Q 1197 2778 1117 2739 
Q 1037 2701 1037 2611 
Q 1037 2541 1120 2349 
L 1837 749 
L 2458 2515 
Q 2483 2573 2483 2630 
Q 2483 2784 2189 2784 
L 2189 2880 
L 3040 2880 
z
" transform="scale(0.015625)"/>
     </defs>
     <use xlink:href="#STIXGeneral-Regular-4d"/>
     <use xlink:href="#STIXGeneral-Regular-61" transform="translate(88.899994 0)"/>
     <use xlink:href="#STIXGeneral-Regular-79" transform="translate(133.299988 0)"/>
    </g>
   </g>
   <g id="text_6">
    <!-- Jun -->
    <g style="fill: #323034" transform="translate(358.075156 14.029687) scale(0.1 -0.1)">
     <defs>
      <path id="STIXGeneral-Regular-75" d="M 3072 320 
L 3072 230 
Q 2573 96 2195 -58 
L 2163 -38 
L 2163 486 
L 2150 486 
Q 1747 -64 1235 -64 
Q 870 -64 662 160 
Q 454 384 454 755 
L 454 2362 
Q 454 2598 371 2688 
Q 288 2778 58 2790 
L 58 2880 
L 992 2880 
L 992 813 
Q 992 595 1123 451 
Q 1254 307 1446 307 
Q 1760 307 1984 506 
Q 2067 582 2099 649 
Q 2131 717 2131 877 
L 2131 2355 
Q 2131 2605 2041 2678 
Q 1952 2752 1658 2771 
L 1658 2880 
L 2669 2880 
L 2669 685 
Q 2669 461 2742 390 
Q 2816 320 3034 320 
L 3072 320 
z
" transform="scale(0.015625)"/>
     </defs>
     <use xlink:href="#STIXGeneral-Regular-4a"/>
     <use xlink:href="#STIXGeneral-Regular-75" transform="translate(37.299988 0)"/>
     <use xlink:href="#STIXGeneral-Regular-6e" transform="translate(87.299973 0)"/>
    </g>
   </g>
   <g id="text_7">
    <!-- Jul -->
    <g style="fill: #323034" transform="translate(436.685313 14.029687) scale(0.1 -0.1)">
     <defs>
      <path id="STIXGeneral-Regular-6c" d="M 1645 0 
L 134 0 
L 134 96 
Q 435 122 531 221 
Q 627 320 627 589 
L 627 3590 
Q 627 3821 569 3910 
Q 512 4000 358 4000 
Q 224 4000 122 3987 
L 122 4090 
Q 730 4237 1133 4371 
L 1165 4346 
L 1165 557 
Q 1165 288 1254 201 
Q 1344 115 1645 96 
L 1645 0 
z
" transform="scale(0.015625)"/>
     </defs>
     <use xlink:href="#STIXGeneral-Regular-4a"/>
     <use xlink:href="#STIXGeneral-Regular-75" transform="translate(37.299988 0)"/>
     <use xlink:href="#STIXGeneral-Regular-6c" transform="translate(87.299973 0)"/>
    </g>
   </g>
   <g id="text_8">
    <!-- Aug -->
    <g style="fill: #323034" transform="translate(495.829844 14.020312) scale(0.1 -0.1)">
     <defs>
      <path id="STIXGeneral-Regular-67" d="M 3008 2483 
L 2477 2483 
Q 2598 2208 2598 1946 
Q 2598 1453 2265 1203 
Q 1933 954 1600 954 
Q 1530 954 1357 973 
L 1235 986 
Q 1107 947 979 812 
Q 851 678 851 582 
Q 851 435 1350 410 
L 2176 371 
Q 2528 358 2739 172 
Q 2950 -13 2950 -314 
Q 2950 -685 2566 -986 
Q 2035 -1395 1286 -1395 
Q 826 -1395 502 -1212 
Q 179 -1030 179 -774 
Q 179 -595 320 -419 
Q 461 -243 806 6 
Q 602 102 534 172 
Q 467 243 467 346 
Q 467 531 762 787 
Q 909 915 1037 1043 
Q 717 1203 579 1401 
Q 442 1600 442 1901 
Q 442 2336 752 2640 
Q 1062 2944 1510 2944 
Q 1766 2944 2022 2848 
L 2163 2797 
Q 2349 2733 2515 2733 
L 3008 2733 
L 3008 2483 
z
M 973 2163 
L 973 2144 
Q 973 1683 1155 1398 
Q 1338 1114 1632 1114 
Q 1850 1114 1978 1270 
Q 2106 1427 2106 1690 
Q 2106 2112 1914 2464 
Q 1754 2765 1446 2765 
Q 1222 2765 1097 2605 
Q 973 2445 973 2163 
z
M 2771 -410 
Q 2771 -230 2595 -163 
Q 2419 -96 1978 -96 
Q 1344 -96 941 -13 
Q 749 -243 688 -348 
Q 627 -454 627 -563 
Q 627 -774 880 -902 
Q 1133 -1030 1555 -1030 
Q 2099 -1030 2435 -860 
Q 2771 -691 2771 -410 
z
" transform="scale(0.015625)"/>
     </defs>
     <use xlink:href="#STIXGeneral-Regular-41"/>
     <use xlink:href="#STIXGeneral-Regular-75" transform="translate(72.199982 0)"/>
     <use xlink:href="#STIXGeneral-Regular-67" transform="translate(122.199966 0)"/>
    </g>
   </g>
   <g id="text_9">
    <!-- Sep -->
    <g style="fill: #323034" transform="translate(558.94 14.029687) scale(0.1 -0.1)">
     <defs>
      <path id="STIXGeneral-Regular-53" d="M 3002 2963 
L 2842 2963 
Q 2733 3360 2579 3565 
Q 2189 4064 1651 4064 
Q 1357 4064 1181 3894 
Q 1005 3725 1005 3456 
Q 1005 3328 1069 3206 
Q 1133 3085 1206 2998 
Q 1280 2912 1465 2784 
Q 1651 2656 1766 2589 
Q 1882 2522 2150 2362 
Q 2669 2061 2905 1763 
Q 3142 1466 3142 1107 
Q 3142 576 2771 243 
Q 2400 -90 1837 -90 
Q 1421 -90 1082 58 
Q 915 128 781 128 
Q 704 128 653 70 
Q 602 13 602 -83 
L 461 -83 
L 275 1274 
L 416 1274 
Q 845 141 1734 141 
Q 2074 141 2285 342 
Q 2496 544 2496 858 
Q 2496 1158 2310 1363 
Q 2003 1696 1235 2106 
Q 454 2522 454 3206 
Q 454 3718 768 4022 
Q 1082 4326 1568 4326 
Q 1907 4326 2240 4186 
Q 2413 4109 2522 4109 
Q 2688 4109 2726 4326 
L 2861 4326 
L 3002 2963 
z
" transform="scale(0.015625)"/>
     </defs>
     <use xlink:href="#STIXGeneral-Regular-53"/>
     <use xlink:href="#STIXGeneral-Regular-65" transform="translate(55.599991 0)"/>
     <use xlink:href="#STIXGeneral-Regular-70" transform="translate(99.999985 0)"/>
    </g>
   </g>
   <g id="text_10">
    <!-- Oct -->
    <g style="fill: #323034" transform="translate(636.719688 14.029687) scale(0.1 -0.1)">
     <defs>
      <path id="STIXGeneral-Regular-4f" d="M 4403 2118 
Q 4403 1133 3820 521 
Q 3238 -90 2310 -90 
Q 1376 -90 797 524 
Q 218 1139 218 2138 
Q 218 3110 797 3718 
Q 1376 4326 2310 4326 
Q 3245 4326 3824 3702 
Q 4403 3078 4403 2118 
z
M 3674 2157 
Q 3674 2701 3520 3133 
Q 3366 3565 3091 3795 
Q 2733 4096 2304 4096 
Q 1760 4096 1389 3667 
Q 1184 3437 1065 3011 
Q 947 2586 947 2125 
Q 947 960 1523 429 
Q 1837 141 2317 141 
Q 2816 141 3142 448 
Q 3674 960 3674 2157 
z
" transform="scale(0.015625)"/>
      <path id="STIXGeneral-Regular-63" d="M 2547 998 
L 2637 941 
Q 2362 403 2112 205 
Q 1786 -64 1376 -64 
Q 845 -64 502 336 
Q 160 736 160 1357 
Q 160 2170 698 2618 
Q 1094 2944 1562 2944 
Q 1965 2944 2256 2749 
Q 2547 2554 2547 2285 
Q 2547 2176 2457 2096 
Q 2368 2016 2246 2016 
Q 2022 2016 1939 2310 
L 1901 2451 
Q 1850 2630 1773 2694 
Q 1696 2758 1523 2758 
Q 1133 2758 893 2451 
Q 653 2144 653 1645 
Q 653 1094 928 745 
Q 1203 397 1645 397 
Q 1920 397 2118 528 
Q 2317 659 2547 998 
z
" transform="scale(0.015625)"/>
      <path id="STIXGeneral-Regular-74" d="M 1702 493 
L 1786 422 
Q 1478 -64 1011 -64 
Q 448 -64 448 749 
L 448 2675 
L 109 2675 
Q 83 2694 83 2720 
Q 83 2771 192 2842 
Q 435 2982 813 3526 
Q 826 3546 874 3606 
Q 922 3667 941 3706 
Q 986 3706 986 3622 
L 986 2880 
L 1632 2880 
L 1632 2675 
L 986 2675 
L 986 845 
Q 986 538 1062 403 
Q 1139 269 1318 269 
Q 1510 269 1702 493 
z
" transform="scale(0.015625)"/>
     </defs>
     <use xlink:href="#STIXGeneral-Regular-4f"/>
     <use xlink:href="#STIXGeneral-Regular-63" transform="translate(72.199982 0)"/>
     <use xlink:href="#STIXGeneral-Regular-74" transform="translate(116.599976 0)"/>
    </g>
   </g>
   <g id="text_11">
    <!-- Nov -->
    <g style="fill: #323034" transform="translate(697.329844 14.029687) scale(0.1 -0.1)">
     <defs>
      <path id="STIXGeneral-Regular-4e" d="M 4525 4237 
L 4525 4115 
Q 4198 4083 4102 4000 
Q 4000 3910 3958 3756 
Q 3917 3603 3917 3245 
L 3917 -70 
L 3802 -70 
L 979 3443 
L 979 960 
Q 979 474 1088 323 
Q 1197 173 1574 122 
L 1574 0 
L 77 0 
L 77 122 
Q 474 166 586 310 
Q 698 454 698 960 
L 698 3776 
Q 531 3981 416 4048 
Q 301 4115 77 4115 
L 77 4237 
L 1165 4237 
L 3635 1146 
L 3635 3322 
Q 3635 3808 3514 3949 
Q 3437 4032 3344 4061 
Q 3251 4090 3008 4115 
L 3008 4237 
L 4525 4237 
z
" transform="scale(0.015625)"/>
      <path id="STIXGeneral-Regular-6f" d="M 3008 1478 
Q 3008 806 2608 371 
Q 2208 -64 1568 -64 
Q 979 -64 582 368 
Q 186 800 186 1459 
Q 186 2125 582 2534 
Q 979 2944 1626 2944 
Q 2221 2944 2614 2537 
Q 3008 2131 3008 1478 
z
M 2432 1306 
Q 2432 2035 2112 2445 
Q 1856 2765 1504 2765 
Q 1171 2765 966 2493 
Q 762 2221 762 1747 
Q 762 928 1101 435 
Q 1318 115 1677 115 
Q 2029 115 2230 432 
Q 2432 749 2432 1306 
z
" transform="scale(0.015625)"/>
      <path id="STIXGeneral-Regular-76" d="M 3053 2880 
L 3053 2784 
Q 2906 2771 2835 2688 
Q 2765 2605 2637 2285 
L 1818 230 
Q 1690 -90 1638 -90 
Q 1587 -90 1523 77 
Q 1510 96 1497 141 
Q 1485 186 1472 211 
L 704 2048 
Q 499 2534 403 2652 
Q 307 2771 122 2784 
L 122 2880 
L 1376 2880 
L 1376 2784 
Q 1210 2771 1146 2732 
Q 1082 2694 1082 2611 
Q 1082 2509 1139 2368 
L 1792 730 
L 2426 2387 
Q 2464 2483 2464 2579 
Q 2464 2758 2163 2784 
L 2163 2880 
L 3053 2880 
z
" transform="scale(0.015625)"/>
     </defs>
     <use xlink:href="#STIXGeneral-Regular-4e"/>
     <use xlink:href="#STIXGeneral-Regular-6f" transform="translate(72.199982 0)"/>
     <use xlink:href="#STIXGeneral-Regular-76" transform="translate(122.199966 0)"/>
    </g>
   </g>
   <g id="text_12">
    <!-- Dec -->
    <g style="fill: #323034" transform="translate(759.889219 14.029687) scale(0.1 -0.1)">
     <defs>
      <path id="STIXGeneral-Regular-44" d="M 102 4237 
L 1830 4237 
Q 3078 4237 3750 3654 
Q 4384 3110 4384 2138 
Q 4384 966 3514 410 
Q 2880 0 1901 0 
L 102 0 
L 102 122 
Q 474 147 570 252 
Q 666 358 666 736 
L 666 3520 
Q 666 3891 570 3990 
Q 474 4090 102 4115 
L 102 4237 
z
M 1318 3731 
L 1318 538 
Q 1318 365 1379 301 
Q 1440 237 1626 237 
Q 2125 237 2432 307 
Q 2739 378 3021 570 
Q 3686 1018 3686 2099 
Q 3686 3027 3078 3558 
Q 2803 3802 2476 3901 
Q 2150 4000 1658 4000 
Q 1472 4000 1395 3942 
Q 1318 3885 1318 3731 
z
" transform="scale(0.015625)"/>
     </defs>
     <use xlink:href="#STIXGeneral-Regular-44"/>
     <use xlink:href="#STIXGeneral-Regular-65" transform="translate(72.199982 0)"/>
     <use xlink:href="#STIXGeneral-Regular-63" transform="translate(116.599976 0)"/>
    </g>
   </g>
   <g id="text_13">
    <!-- Sun -->
    <g style="fill: #323034" transform="translate(7.2 27.979687) scale(0.1 -0.1)">
     <use xlink:href="#STIXGeneral-Regular-53"/>
     <use xlink:href="#STIXGeneral-Regular-75" transform="translate(55.599991 0)"/>
     <use xlink:href="#STIXGeneral-Regular-6e" transform="translate(105.599976 0)"/>
    </g>
   </g>
   <g id="text_14">
    <!-- Mon -->
    <g style="fill: #323034" transform="translate(7.2 43.479687) scale(0.1 -0.1)">
     <use xlink:href="#STIXGeneral-Regular-4d"/>
     <use xlink:href="#STIXGeneral-Regular-6f" transform="translate(88.899994 0)"/>
     <use xlink:href="#STIXGeneral-Regular-6e" transform="translate(138.899979 0)"/>
    </g>
   </g>
   <g id="text_15">
    <!-- Tue -->
    <g style="fill: #323034" transform="translate(7.2 58.979687) scale(0.1 -0.1)">
     <defs>
      <path id="STIXGeneral-Regular-54" d="M 3795 3149 
L 3642 3149 
Q 3539 3674 3353 3821 
Q 3168 3968 2656 3968 
L 2278 3968 
L 2278 710 
Q 2278 346 2387 243 
Q 2496 141 2893 122 
L 2893 0 
L 1024 0 
L 1024 122 
Q 1427 147 1526 256 
Q 1626 365 1626 787 
L 1626 3968 
L 1242 3968 
Q 723 3968 540 3817 
Q 358 3667 262 3149 
L 109 3149 
L 154 4237 
L 3750 4237 
L 3795 3149 
z
" transform="scale(0.015625)"/>
     </defs>
     <use xlink:href="#STIXGeneral-Regular-54"/>
     <use xlink:href="#STIXGeneral-Regular-75" transform="translate(61.099991 0)"/>
     <use xlink:href="#STIXGeneral-Regular-65" transform="translate(111.099976 0)"/>
    </g>
   </g>
   <g id="text_16">
    <!-- Wed -->
    <g style="fill: #323034" transform="translate(7.2 74.479687) scale(0.1 -0.1)">
     <defs>
      <path id="STIXGeneral-Regular-57" d="M 5965 4237 
L 5965 4115 
Q 5709 4064 5616 3990 
Q 5523 3917 5434 3667 
Q 4704 1709 4128 -70 
L 4032 -70 
Q 3642 1011 3008 2637 
L 2022 -70 
L 1926 -70 
Q 1709 576 1277 1753 
Q 845 2931 698 3347 
Q 538 3808 406 3958 
Q 275 4109 32 4115 
L 32 4237 
L 1594 4237 
L 1594 4115 
Q 1357 4109 1270 4064 
Q 1184 4019 1184 3917 
Q 1184 3808 1254 3616 
L 2176 1210 
L 2842 3021 
L 2662 3501 
Q 2509 3917 2400 4013 
Q 2291 4109 2010 4115 
L 2010 4237 
L 3706 4237 
L 3706 4115 
Q 3213 4102 3213 3891 
Q 3213 3808 3322 3520 
L 4237 1190 
L 5043 3360 
Q 5152 3667 5152 3853 
Q 5152 4109 4704 4115 
L 4704 4237 
L 5965 4237 
z
" transform="scale(0.015625)"/>
      <path id="STIXGeneral-Regular-64" d="M 3142 269 
L 2202 -64 
L 2176 -45 
L 2176 365 
Q 1869 -64 1357 -64 
Q 826 -64 499 317 
Q 173 698 173 1312 
Q 173 1990 563 2467 
Q 954 2944 1504 2944 
Q 1850 2944 2176 2669 
L 2176 3667 
Q 2176 3866 2118 3930 
Q 2061 3994 1882 3994 
Q 1792 3994 1741 3987 
L 1741 4090 
Q 2323 4243 2682 4371 
L 2714 4358 
L 2714 730 
Q 2714 506 2768 435 
Q 2822 365 2995 365 
Q 3034 365 3142 371 
L 3142 269 
z
M 2176 653 
L 2176 2125 
Q 2176 2381 1981 2573 
Q 1786 2765 1523 2765 
Q 1158 2765 940 2438 
Q 723 2112 723 1568 
Q 723 979 963 624 
Q 1203 269 1606 269 
Q 1907 269 2080 474 
Q 2176 582 2176 653 
z
" transform="scale(0.015625)"/>
     </defs>
     <use xlink:href="#STIXGeneral-Regular-57"/>
     <use xlink:href="#STIXGeneral-Regular-65" transform="translate(94.399994 0)"/>
     <use xlink:href="#STIXGeneral-Regular-64" transform="translate(138.799988 0)"/>
    </g>
   </g>
   <g id="text_17">
    <!-- Thu -->
    <g style="fill: #323034" transform="translate(7.2 89.979687) scale(0.1 -0.1)">
     <defs>
      <path id="STIXGeneral-Regular-68" d="M 3117 0 
L 1760 0 
L 1760 96 
Q 2042 128 2118 224 
Q 2195 320 2195 653 
L 2195 1920 
Q 2195 2598 1722 2598 
Q 1530 2598 1370 2508 
Q 1210 2419 1005 2195 
L 1005 653 
Q 1005 320 1081 224 
Q 1158 128 1440 96 
L 1440 0 
L 58 0 
L 58 96 
Q 333 134 400 224 
Q 467 314 467 653 
L 467 3667 
Q 467 3872 406 3933 
Q 346 3994 141 3994 
Q 83 3994 64 3987 
L 64 4090 
L 237 4141 
Q 730 4288 973 4371 
L 1005 4352 
L 1005 2406 
Q 1229 2694 1446 2819 
Q 1664 2944 1946 2944 
Q 2733 2944 2733 1926 
L 2733 653 
Q 2733 320 2793 233 
Q 2854 147 3117 96 
L 3117 0 
z
" transform="scale(0.015625)"/>
     </defs>
     <use xlink:href="#STIXGeneral-Regular-54"/>
     <use xlink:href="#STIXGeneral-Regular-68" transform="translate(61.099991 0)"/>
     <use xlink:href="#STIXGeneral-Regular-75" transform="translate(111.099976 0)"/>
    </g>
   </g>
   <g id="text_18">
    <!-- Fri -->
    <g style="fill: #323034" transform="translate(7.2 105.479687) scale(0.1 -0.1)">
     <defs>
      <path id="STIXGeneral-Regular-69" d="M 1152 4045 
Q 1152 3904 1056 3811 
Q 960 3718 819 3718 
Q 685 3718 592 3811 
Q 499 3904 499 4045 
Q 499 4179 595 4275 
Q 691 4371 826 4371 
Q 966 4371 1059 4275 
Q 1152 4179 1152 4045 
z
M 1619 0 
L 102 0 
L 102 96 
Q 435 115 521 211 
Q 608 307 608 666 
L 608 2118 
Q 608 2342 563 2432 
Q 518 2522 397 2522 
Q 243 2522 128 2490 
L 128 2592 
L 1120 2944 
L 1146 2918 
L 1146 672 
Q 1146 314 1226 218 
Q 1306 122 1619 96 
L 1619 0 
z
" transform="scale(0.015625)"/>
     </defs>
     <use xlink:href="#STIXGeneral-Regular-46"/>
     <use xlink:href="#STIXGeneral-Regular-72" transform="translate(55.599991 0)"/>
     <use xlink:href="#STIXGeneral-Regular-69" transform="translate(88.899979 0)"/>
    </g>
   </g>
   <g id="text_19">
    <!-- Sat -->
    <g style="fill: #323034" transform="translate(7.2 120.979687) scale(0.1 -0.1)">
     <use xlink:href="#STIXGeneral-Regular-53"/>
     <use xlink:href="#STIXGeneral-Regular-61" transform="translate(55.599991 0)"/>
     <use xlink:href="#STIXGeneral-Regular-74" transform="translate(99.999985 0)"/>
    </g>
   </g>
  </g>
 </g>
 <defs>
  <clipPath id="p39e67a6fd7">
   <rect x="23.94" y="10.15" width="837" height="124"/>
  </clipPath>
 </defs>
</svg>