<?xml version="1.0" encoding="utf-8" standalone="no"?>
<!DOCTYPE svg PUBLIC "-//W3C//DTD SVG 1.1//EN"
  "http://www.w3.org/Graphics/SVG/1.1/DTD/svg11.dtd">
<svg xmlns:xlink="http://www.w3.org/1999/xlink" width="491.8pt" height="263.02375pt" viewBox="0 0 491.8 263.02375" xmlns="http://www.w3.org/2000/svg" version="1.1">
 <metadata>
  <rdf:RDF xmlns:dc="http://purl.org/dc/elements/1.1/" xmlns:cc="http://creativecommons.org/ns#" xmlns:rdf="http://www.w3.org/1999/02/22-rdf-syntax-ns#">
   <cc:Work>
    <dc:type rdf:resource="http://purl.org/dc/dcmitype/StillImage"/>
    <dc:date>2025-03-26T16:07:13.085713</dc:date>
    <dc:format>image/svg+xml</dc:format>
    <dc:creator>
     <cc:Agent>
      <dc:title>Matplotlib v3.10.0, https://matplotlib.org/</dc:title>
     </cc:Agent>
    </dc:creator>
   </cc:Work>
  </rdf:RDF>
 </metadata>
 <defs>
  <style type="text/css">*{stroke-linejoin: round; stroke-linecap: butt}</style>
 </defs>
 <g id="figure_1">
  <g id="patch_1">
   <path d="M 0 263.02375 
L 491.8 263.02375 
L 491.8 0 
L 0 0 
z
" style="fill: #ffffff"/>
  </g>
  <g id="axes_1">
   <g id="patch_2">
    <path d="M 34.2 234.42375 
L 480.6 234.42375 
L 480.6 12.66375 
L 34.2 12.66375 
z
" style="fill: #ffffff"/>
   </g>
   <g id="patch_3">
    <path d="M 110.855635 234.42375 
L 116.391846 234.42375 
L 116.391846 233.827713 
L 110.855635 233.827713 
z
" clip-path="url(#p286cd2e9e6)" style="fill: #bc80bd; stroke: #000000; stroke-width: 0.8; stroke-linejoin: miter"/>
   </g>
   <g id="patch_4">
    <path d="M 116.391846 234.42375 
L 121.928056 234.42375 
L 121.928056 234.42375 
L 116.391846 234.42375 
z
" clip-path="url(#p286cd2e9e6)" style="fill: #bc80bd; stroke: #000000; stroke-width: 0.8; stroke-linejoin: miter"/>
   </g>
   <g id="patch_5">
    <path d="M 121.928056 234.42375 
L 127.464266 234.42375 
L 127.464266 234.42375 
L 121.928056 234.42375 
z
" clip-path="url(#p286cd2e9e6)" style="fill: #bc80bd; stroke: #000000; stroke-width: 0.8; stroke-linejoin: miter"/>
   </g>
   <g id="patch_6">
    <path d="M 127.464266 234.42375 
L 133.000477 234.42375 
L 133.000477 234.42375 
L 127.464266 234.42375 
z
" clip-path="url(#p286cd2e9e6)" style="fill: #bc80bd; stroke: #000000; stroke-width: 0.8; stroke-linejoin: miter"/>
   </g>
   <g id="patch_7">
    <path d="M 133.000477 234.42375 
L 138.536687 234.42375 
L 138.536687 233.231675 
L 133.000477 233.231675 
z
" clip-path="url(#p286cd2e9e6)" style="fill: #bc80bd; stroke: #000000; stroke-width: 0.8; stroke-linejoin: miter"/>
   </g>
   <g id="patch_8">
    <path d="M 138.536687 234.42375 
L 144.072897 234.42375 
L 144.072897 233.231675 
L 138.536687 233.231675 
z
" clip-path="url(#p286cd2e9e6)" style="fill: #bc80bd; stroke: #000000; stroke-width: 0.8; stroke-linejoin: miter"/>
   </g>
   <g id="patch_9">
    <path d="M 144.072897 234.42375 
L 149.609108 234.42375 
L 149.609108 230.251488 
L 144.072897 230.251488 
z
" clip-path="url(#p286cd2e9e6)" style="fill: #bc80bd; stroke: #000000; stroke-width: 0.8; stroke-linejoin: miter"/>
   </g>
   <g id="patch_10">
    <path d="M 149.609108 234.42375 
L 155.145318 234.42375 
L 155.145318 230.251488 
L 149.609108 230.251488 
z
" clip-path="url(#p286cd2e9e6)" style="fill: #bc80bd; stroke: #000000; stroke-width: 0.8; stroke-linejoin: miter"/>
   </g>
   <g id="patch_11">
    <path d="M 155.145318 234.42375 
L 160.681528 234.42375 
L 160.681528 227.867338 
L 155.145318 227.867338 
z
" clip-path="url(#p286cd2e9e6)" style="fill: #bc80bd; stroke: #000000; stroke-width: 0.8; stroke-linejoin: miter"/>
   </g>
   <g id="patch_12">
    <path d="M 160.681528 234.42375 
L 166.217738 234.42375 
L 166.217738 224.88715 
L 160.681528 224.88715 
z
" clip-path="url(#p286cd2e9e6)" style="fill: #bc80bd; stroke: #000000; stroke-width: 0.8; stroke-linejoin: miter"/>
   </g>
   <g id="patch_13">
    <path d="M 166.217738 234.42375 
L 171.753949 234.42375 
L 171.753949 225.483188 
L 166.217738 225.483188 
z
" clip-path="url(#p286cd2e9e6)" style="fill: #bc80bd; stroke: #000000; stroke-width: 0.8; stroke-linejoin: miter"/>
   </g>
   <g id="patch_14">
    <path d="M 171.753949 234.42375 
L 177.290159 234.42375 
L 177.290159 216.542626 
L 171.753949 216.542626 
z
" clip-path="url(#p286cd2e9e6)" style="fill: #bc80bd; stroke: #000000; stroke-width: 0.8; stroke-linejoin: miter"/>
   </g>
   <g id="patch_15">
    <path d="M 177.290159 234.42375 
L 182.826369 234.42375 
L 182.826369 215.350551 
L 177.290159 215.350551 
z
" clip-path="url(#p286cd2e9e6)" style="fill: #bc80bd; stroke: #000000; stroke-width: 0.8; stroke-linejoin: miter"/>
   </g>
   <g id="patch_16">
    <path d="M 182.826369 234.42375 
L 188.36258 234.42375 
L 188.36258 211.178289 
L 182.826369 211.178289 
z
" clip-path="url(#p286cd2e9e6)" style="fill: #bc80bd; stroke: #000000; stroke-width: 0.8; stroke-linejoin: miter"/>
   </g>
   <g id="patch_17">
    <path d="M 188.36258 234.42375 
L 193.89879 234.42375 
L 193.89879 202.833764 
L 188.36258 202.833764 
z
" clip-path="url(#p286cd2e9e6)" style="fill: #bc80bd; stroke: #000000; stroke-width: 0.8; stroke-linejoin: miter"/>
   </g>
   <g id="patch_18">
    <path d="M 193.89879 234.42375 
L 199.435 234.42375 
L 199.435 191.509052 
L 193.89879 191.509052 
z
" clip-path="url(#p286cd2e9e6)" style="fill: #bc80bd; stroke: #000000; stroke-width: 0.8; stroke-linejoin: miter"/>
   </g>
   <g id="patch_19">
    <path d="M 199.435 234.42375 
L 204.971211 234.42375 
L 204.971211 169.455665 
L 199.435 169.455665 
z
" clip-path="url(#p286cd2e9e6)" style="fill: #bc80bd; stroke: #000000; stroke-width: 0.8; stroke-linejoin: miter"/>
   </g>
   <g id="patch_20">
    <path d="M 204.971211 234.42375 
L 210.507421 234.42375 
L 210.507421 164.091328 
L 204.971211 164.091328 
z
" clip-path="url(#p286cd2e9e6)" style="fill: #bc80bd; stroke: #000000; stroke-width: 0.8; stroke-linejoin: miter"/>
   </g>
   <g id="patch_21">
    <path d="M 210.507421 234.42375 
L 216.043631 234.42375 
L 216.043631 147.402279 
L 210.507421 147.402279 
z
" clip-path="url(#p286cd2e9e6)" style="fill: #bc80bd; stroke: #000000; stroke-width: 0.8; stroke-linejoin: miter"/>
   </g>
   <g id="patch_22">
    <path d="M 216.043631 234.42375 
L 221.579842 234.42375 
L 221.579842 137.865679 
L 216.043631 137.865679 
z
" clip-path="url(#p286cd2e9e6)" style="fill: #bc80bd; stroke: #000000; stroke-width: 0.8; stroke-linejoin: miter"/>
   </g>
   <g id="patch_23">
    <path d="M 221.579842 234.42375 
L 227.116052 234.42375 
L 227.116052 121.17663 
L 221.579842 121.17663 
z
" clip-path="url(#p286cd2e9e6)" style="fill: #bc80bd; stroke: #000000; stroke-width: 0.8; stroke-linejoin: miter"/>
   </g>
   <g id="patch_24">
    <path d="M 227.116052 234.42375 
L 232.652262 234.42375 
L 232.652262 99.719281 
L 227.116052 99.719281 
z
" clip-path="url(#p286cd2e9e6)" style="fill: #bc80bd; stroke: #000000; stroke-width: 0.8; stroke-linejoin: miter"/>
   </g>
   <g id="patch_25">
    <path d="M 232.652262 234.42375 
L 238.188473 234.42375 
L 238.188473 88.394569 
L 232.652262 88.394569 
z
" clip-path="url(#p286cd2e9e6)" style="fill: #bc80bd; stroke: #000000; stroke-width: 0.8; stroke-linejoin: miter"/>
   </g>
   <g id="patch_26">
    <path d="M 238.188473 234.42375 
L 243.724683 234.42375 
L 243.724683 72.897595 
L 238.188473 72.897595 
z
" clip-path="url(#p286cd2e9e6)" style="fill: #bc80bd; stroke: #000000; stroke-width: 0.8; stroke-linejoin: miter"/>
   </g>
   <g id="patch_27">
    <path d="M 243.724683 234.42375 
L 249.260893 234.42375 
L 249.260893 56.208546 
L 243.724683 56.208546 
z
" clip-path="url(#p286cd2e9e6)" style="fill: #bc80bd; stroke: #000000; stroke-width: 0.8; stroke-linejoin: miter"/>
   </g>
   <g id="patch_28">
    <path d="M 249.260893 234.42375 
L 254.797103 234.42375 
L 254.797103 58.592696 
L 249.260893 58.592696 
z
" clip-path="url(#p286cd2e9e6)" style="fill: #bc80bd; stroke: #000000; stroke-width: 0.8; stroke-linejoin: miter"/>
   </g>
   <g id="patch_29">
    <path d="M 254.797103 234.42375 
L 260.333314 234.42375 
L 260.333314 57.996658 
L 254.797103 57.996658 
z
" clip-path="url(#p286cd2e9e6)" style="fill: #bc80bd; stroke: #000000; stroke-width: 0.8; stroke-linejoin: miter"/>
   </g>
   <g id="patch_30">
    <path d="M 260.333314 234.42375 
L 265.869524 234.42375 
L 265.869524 62.764958 
L 260.333314 62.764958 
z
" clip-path="url(#p286cd2e9e6)" style="fill: #bc80bd; stroke: #000000; stroke-width: 0.8; stroke-linejoin: miter"/>
   </g>
   <g id="patch_31">
    <path d="M 265.869524 234.42375 
L 271.405734 234.42375 
L 271.405734 53.228358 
L 265.869524 53.228358 
z
" clip-path="url(#p286cd2e9e6)" style="fill: #bc80bd; stroke: #000000; stroke-width: 0.8; stroke-linejoin: miter"/>
   </g>
   <g id="patch_32">
    <path d="M 271.405734 234.42375 
L 276.941945 234.42375 
L 276.941945 81.838157 
L 271.405734 81.838157 
z
" clip-path="url(#p286cd2e9e6)" style="fill: #bc80bd; stroke: #000000; stroke-width: 0.8; stroke-linejoin: miter"/>
   </g>
   <g id="patch_33">
    <path d="M 276.941945 234.42375 
L 282.478155 234.42375 
L 282.478155 90.182682 
L 276.941945 90.182682 
z
" clip-path="url(#p286cd2e9e6)" style="fill: #bc80bd; stroke: #000000; stroke-width: 0.8; stroke-linejoin: miter"/>
   </g>
   <g id="patch_34">
    <path d="M 282.478155 234.42375 
L 288.014365 234.42375 
L 288.014365 94.354944 
L 282.478155 94.354944 
z
" clip-path="url(#p286cd2e9e6)" style="fill: #bc80bd; stroke: #000000; stroke-width: 0.8; stroke-linejoin: miter"/>
   </g>
   <g id="patch_35">
    <path d="M 288.014365 234.42375 
L 293.550576 234.42375 
L 293.550576 116.40833 
L 288.014365 116.40833 
z
" clip-path="url(#p286cd2e9e6)" style="fill: #bc80bd; stroke: #000000; stroke-width: 0.8; stroke-linejoin: miter"/>
   </g>
   <g id="patch_36">
    <path d="M 293.550576 234.42375 
L 299.086786 234.42375 
L 299.086786 123.56078 
L 293.550576 123.56078 
z
" clip-path="url(#p286cd2e9e6)" style="fill: #bc80bd; stroke: #000000; stroke-width: 0.8; stroke-linejoin: miter"/>
   </g>
   <g id="patch_37">
    <path d="M 299.086786 234.42375 
L 304.622996 234.42375 
L 304.622996 160.515103 
L 299.086786 160.515103 
z
" clip-path="url(#p286cd2e9e6)" style="fill: #bc80bd; stroke: #000000; stroke-width: 0.8; stroke-linejoin: miter"/>
   </g>
   <g id="patch_38">
    <path d="M 304.622996 234.42375 
L 310.159207 234.42375 
L 310.159207 162.303216 
L 304.622996 162.303216 
z
" clip-path="url(#p286cd2e9e6)" style="fill: #bc80bd; stroke: #000000; stroke-width: 0.8; stroke-linejoin: miter"/>
   </g>
   <g id="patch_39">
    <path d="M 310.159207 234.42375 
L 315.695417 234.42375 
L 315.695417 176.608115 
L 310.159207 176.608115 
z
" clip-path="url(#p286cd2e9e6)" style="fill: #bc80bd; stroke: #000000; stroke-width: 0.8; stroke-linejoin: miter"/>
   </g>
   <g id="patch_40">
    <path d="M 315.695417 234.42375 
L 321.231627 234.42375 
L 321.231627 192.701127 
L 315.695417 192.701127 
z
" clip-path="url(#p286cd2e9e6)" style="fill: #bc80bd; stroke: #000000; stroke-width: 0.8; stroke-linejoin: miter"/>
   </g>
   <g id="patch_41">
    <path d="M 321.231627 234.42375 
L 326.767837 234.42375 
L 326.767837 194.489239 
L 321.231627 194.489239 
z
" clip-path="url(#p286cd2e9e6)" style="fill: #bc80bd; stroke: #000000; stroke-width: 0.8; stroke-linejoin: miter"/>
   </g>
   <g id="patch_42">
    <path d="M 326.767837 234.42375 
L 332.304048 234.42375 
L 332.304048 199.257539 
L 326.767837 199.257539 
z
" clip-path="url(#p286cd2e9e6)" style="fill: #bc80bd; stroke: #000000; stroke-width: 0.8; stroke-linejoin: miter"/>
   </g>
   <g id="patch_43">
    <path d="M 332.304048 234.42375 
L 337.840258 234.42375 
L 337.840258 211.178289 
L 332.304048 211.178289 
z
" clip-path="url(#p286cd2e9e6)" style="fill: #bc80bd; stroke: #000000; stroke-width: 0.8; stroke-linejoin: miter"/>
   </g>
   <g id="patch_44">
    <path d="M 337.840258 234.42375 
L 343.376468 234.42375 
L 343.376468 223.099038 
L 337.840258 223.099038 
z
" clip-path="url(#p286cd2e9e6)" style="fill: #bc80bd; stroke: #000000; stroke-width: 0.8; stroke-linejoin: miter"/>
   </g>
   <g id="patch_45">
    <path d="M 343.376468 234.42375 
L 348.912679 234.42375 
L 348.912679 223.695075 
L 343.376468 223.695075 
z
" clip-path="url(#p286cd2e9e6)" style="fill: #bc80bd; stroke: #000000; stroke-width: 0.8; stroke-linejoin: miter"/>
   </g>
   <g id="patch_46">
    <path d="M 348.912679 234.42375 
L 354.448889 234.42375 
L 354.448889 227.867338 
L 348.912679 227.867338 
z
" clip-path="url(#p286cd2e9e6)" style="fill: #bc80bd; stroke: #000000; stroke-width: 0.8; stroke-linejoin: miter"/>
   </g>
   <g id="patch_47">
    <path d="M 354.448889 234.42375 
L 359.985099 234.42375 
L 359.985099 230.251488 
L 354.448889 230.251488 
z
" clip-path="url(#p286cd2e9e6)" style="fill: #bc80bd; stroke: #000000; stroke-width: 0.8; stroke-linejoin: miter"/>
   </g>
   <g id="patch_48">
    <path d="M 359.985099 234.42375 
L 365.52131 234.42375 
L 365.52131 232.0396 
L 359.985099 232.0396 
z
" clip-path="url(#p286cd2e9e6)" style="fill: #bc80bd; stroke: #000000; stroke-width: 0.8; stroke-linejoin: miter"/>
   </g>
   <g id="patch_49">
    <path d="M 365.52131 234.42375 
L 371.05752 234.42375 
L 371.05752 231.443563 
L 365.52131 231.443563 
z
" clip-path="url(#p286cd2e9e6)" style="fill: #bc80bd; stroke: #000000; stroke-width: 0.8; stroke-linejoin: miter"/>
   </g>
   <g id="patch_50">
    <path d="M 371.05752 234.42375 
L 376.59373 234.42375 
L 376.59373 232.635638 
L 371.05752 232.635638 
z
" clip-path="url(#p286cd2e9e6)" style="fill: #bc80bd; stroke: #000000; stroke-width: 0.8; stroke-linejoin: miter"/>
   </g>
   <g id="patch_51">
    <path d="M 376.59373 234.42375 
L 382.129941 234.42375 
L 382.129941 233.827713 
L 376.59373 233.827713 
z
" clip-path="url(#p286cd2e9e6)" style="fill: #bc80bd; stroke: #000000; stroke-width: 0.8; stroke-linejoin: miter"/>
   </g>
   <g id="patch_52">
    <path d="M 382.129941 234.42375 
L 387.666151 234.42375 
L 387.666151 233.231675 
L 382.129941 233.231675 
z
" clip-path="url(#p286cd2e9e6)" style="fill: #bc80bd; stroke: #000000; stroke-width: 0.8; stroke-linejoin: miter"/>
   </g>
   <g id="matplotlib.axis_1">
    <g id="xtick_1">
     <g id="line2d_1">
      <defs>
       <path id="m472265524d" d="M 0 0 
L 0 3.5 
" style="stroke: #323034; stroke-width: 0.8"/>
      </defs>
      <g>
       <use xlink:href="#m472265524d" x="34.2" y="234.42375" style="fill: #323034; stroke: #323034; stroke-width: 0.8"/>
      </g>
     </g>
     <g id="text_1">
      <!-- $\mathdefault{−6}$ -->
      <g style="fill: #323034" transform="translate(24.68 252.35125) scale(0.16 -0.16)">
       <defs>
        <path id="STIXGeneral-Regular-2212" d="M 3974 1408 
L 410 1408 
L 410 1830 
L 3974 1830 
L 3974 1408 
z
" transform="scale(0.015625)"/>
        <path id="STIXGeneral-Regular-36" d="M 2854 4378 
L 2867 4275 
Q 2112 4154 1606 3664 
Q 1101 3174 973 2451 
Q 1344 2739 1786 2739 
Q 2349 2739 2672 2380 
Q 2995 2022 2995 1402 
Q 2995 774 2669 378 
Q 2291 -90 1651 -90 
Q 870 -90 518 557 
Q 218 1107 218 1786 
Q 218 2835 915 3552 
Q 1312 3962 1731 4131 
Q 2150 4301 2854 4378 
z
M 2419 1203 
Q 2419 2445 1555 2445 
Q 1235 2445 1024 2275 
Q 813 2106 813 1702 
Q 813 954 1046 522 
Q 1280 90 1722 90 
Q 2061 90 2240 394 
Q 2419 698 2419 1203 
z
" transform="scale(0.015625)"/>
       </defs>
       <use xlink:href="#STIXGeneral-Regular-2212" transform="translate(0 0.59375)"/>
       <use xlink:href="#STIXGeneral-Regular-36" transform="translate(68.499985 0.59375)"/>
      </g>
     </g>
    </g>
    <g id="xtick_2">
     <g id="line2d_2">
      <g>
       <use xlink:href="#m472265524d" x="108.6" y="234.42375" style="fill: #323034; stroke: #323034; stroke-width: 0.8"/>
      </g>
     </g>
     <g id="text_2">
      <!-- $\mathdefault{−4}$ -->
      <g style="fill: #323034" transform="translate(99.08 252.35125) scale(0.16 -0.16)">
       <defs>
        <path id="STIXGeneral-Regular-34" d="M 3027 1069 
L 2368 1069 
L 2368 0 
L 1869 0 
L 1869 1069 
L 77 1069 
L 77 1478 
L 2086 4326 
L 2368 4326 
L 2368 1478 
L 3027 1478 
L 3027 1069 
z
M 1869 1478 
L 1869 3674 
L 333 1478 
L 1869 1478 
z
" transform="scale(0.015625)"/>
       </defs>
       <use xlink:href="#STIXGeneral-Regular-2212" transform="translate(0 0.40625)"/>
       <use xlink:href="#STIXGeneral-Regular-34" transform="translate(68.499985 0.40625)"/>
      </g>
     </g>
    </g>
    <g id="xtick_3">
     <g id="line2d_3">
      <g>
       <use xlink:href="#m472265524d" x="183" y="234.42375" style="fill: #323034; stroke: #323034; stroke-width: 0.8"/>
      </g>
     </g>
     <g id="text_3">
      <!-- $\mathdefault{−2}$ -->
      <g style="fill: #323034" transform="translate(173.48 252.35125) scale(0.16 -0.16)">
       <defs>
        <path id="STIXGeneral-Regular-32" d="M 3034 877 
L 2688 0 
L 186 0 
L 186 77 
L 1325 1286 
Q 1773 1754 1965 2144 
Q 2157 2534 2157 2950 
Q 2157 3379 1920 3616 
Q 1683 3853 1267 3853 
Q 922 3853 720 3673 
Q 518 3494 326 3021 
L 192 3053 
Q 301 3648 630 3987 
Q 960 4326 1523 4326 
Q 2054 4326 2380 4006 
Q 2707 3686 2707 3200 
Q 2707 2477 1888 1613 
L 832 486 
L 2330 486 
Q 2541 486 2665 569 
Q 2790 653 2944 915 
L 3034 877 
z
" transform="scale(0.015625)"/>
       </defs>
       <use xlink:href="#STIXGeneral-Regular-2212" transform="translate(0 0.40625)"/>
       <use xlink:href="#STIXGeneral-Regular-32" transform="translate(68.499985 0.40625)"/>
      </g>
     </g>
    </g>
    <g id="xtick_4">
     <g id="line2d_4">
      <g>
       <use xlink:href="#m472265524d" x="257.4" y="234.42375" style="fill: #323034; stroke: #323034; stroke-width: 0.8"/>
      </g>
     </g>
     <g id="text_4">
      <!-- $\mathdefault{0}$ -->
      <g style="fill: #323034" transform="translate(253.4 252.35125) scale(0.16 -0.16)">
       <defs>
        <path id="STIXGeneral-Regular-30" d="M 3046 2112 
Q 3046 1683 2963 1302 
Q 2880 922 2717 602 
Q 2554 282 2266 96 
Q 1978 -90 1600 -90 
Q 1210 -90 915 108 
Q 621 307 461 640 
Q 301 973 227 1350 
Q 154 1728 154 2150 
Q 154 2746 301 3222 
Q 448 3699 790 4012 
Q 1133 4326 1626 4326 
Q 2253 4326 2649 3712 
Q 3046 3098 3046 2112 
z
M 2432 2080 
Q 2432 3091 2217 3625 
Q 2003 4160 1587 4160 
Q 1190 4160 979 3622 
Q 768 3085 768 2106 
Q 768 1120 979 598 
Q 1190 77 1600 77 
Q 2003 77 2217 598 
Q 2432 1120 2432 2080 
z
" transform="scale(0.015625)"/>
       </defs>
       <use xlink:href="#STIXGeneral-Regular-30" transform="translate(0 0.40625)"/>
      </g>
     </g>
    </g>
    <g id="xtick_5">
     <g id="line2d_5">
      <g>
       <use xlink:href="#m472265524d" x="331.8" y="234.42375" style="fill: #323034; stroke: #323034; stroke-width: 0.8"/>
      </g>
     </g>
     <g id="text_5">
      <!-- $\mathdefault{2}$ -->
      <g style="fill: #323034" transform="translate(327.8 252.35125) scale(0.16 -0.16)">
       <use xlink:href="#STIXGeneral-Regular-32" transform="translate(0 0.40625)"/>
      </g>
     </g>
    </g>
    <g id="xtick_6">
     <g id="line2d_6">
      <g>
       <use xlink:href="#m472265524d" x="406.2" y="234.42375" style="fill: #323034; stroke: #323034; stroke-width: 0.8"/>
      </g>
     </g>
     <g id="text_6">
      <!-- $\mathdefault{4}$ -->
      <g style="fill: #323034" transform="translate(402.2 252.35125) scale(0.16 -0.16)">
       <use xlink:href="#STIXGeneral-Regular-34" transform="translate(0 0.40625)"/>
      </g>
     </g>
    </g>
    <g id="xtick_7">
     <g id="line2d_7">
      <g>
       <use xlink:href="#m472265524d" x="480.6" y="234.42375" style="fill: #323034; stroke: #323034; stroke-width: 0.8"/>
      </g>
     </g>
     <g id="text_7">
      <!-- $\mathdefault{6}$ -->
      <g style="fill: #323034" transform="translate(476.6 252.35125) scale(0.16 -0.16)">
       <use xlink:href="#STIXGeneral-Regular-36" transform="translate(0 0.59375)"/>
      </g>
     </g>
    </g>
   </g>
   <g id="matplotlib.axis_2">
    <g id="ytick_1">
     <g id="line2d_8">
      <defs>
       <path id="m20d1246667" d="M 0 0 
L -3.5 0 
" style="stroke: #323034; stroke-width: 0.8"/>
      </defs>
      <g>
       <use xlink:href="#m20d1246667" x="34.2" y="234.42375" style="fill: #323034; stroke: #323034; stroke-width: 0.8"/>
      </g>
     </g>
     <g id="text_8">
      <!-- $\mathdefault{0.0}$ -->
      <g style="fill: #323034" transform="translate(7.2 239.8875) scale(0.16 -0.16)">
       <defs>
        <path id="STIXGeneral-Regular-2e" d="M 1158 275 
Q 1158 134 1052 32 
Q 947 -70 800 -70 
Q 653 -70 550 32 
Q 448 134 448 281 
Q 448 429 553 534 
Q 659 640 806 640 
Q 947 640 1052 531 
Q 1158 422 1158 275 
z
" transform="scale(0.015625)"/>
       </defs>
       <use xlink:href="#STIXGeneral-Regular-30" transform="translate(0 0.40625)"/>
       <use xlink:href="#STIXGeneral-Regular-2e" transform="translate(49.999985 0.40625)"/>
       <use xlink:href="#STIXGeneral-Regular-30" transform="translate(74.999969 0.40625)"/>
      </g>
     </g>
    </g>
    <g id="ytick_2">
     <g id="line2d_9">
      <g>
       <use xlink:href="#m20d1246667" x="34.2" y="190.07175" style="fill: #323034; stroke: #323034; stroke-width: 0.8"/>
      </g>
     </g>
     <g id="text_9">
      <!-- $\mathdefault{0.1}$ -->
      <g style="fill: #323034" transform="translate(7.2 195.5355) scale(0.16 -0.16)">
       <defs>
        <path id="STIXGeneral-Regular-31" d="M 2522 0 
L 755 0 
L 755 96 
Q 1107 115 1235 227 
Q 1363 339 1363 608 
L 1363 3482 
Q 1363 3795 1171 3795 
Q 1082 3795 883 3718 
L 710 3654 
L 710 3744 
L 1856 4326 
L 1914 4307 
L 1914 486 
Q 1914 275 2042 185 
Q 2170 96 2522 96 
L 2522 0 
z
" transform="scale(0.015625)"/>
       </defs>
       <use xlink:href="#STIXGeneral-Regular-30" transform="translate(0 0.40625)"/>
       <use xlink:href="#STIXGeneral-Regular-2e" transform="translate(49.999985 0.40625)"/>
       <use xlink:href="#STIXGeneral-Regular-31" transform="translate(74.999969 0.40625)"/>
      </g>
     </g>
    </g>
    <g id="ytick_3">
     <g id="line2d_10">
      <g>
       <use xlink:href="#m20d1246667" x="34.2" y="145.71975" style="fill: #323034; stroke: #323034; stroke-width: 0.8"/>
      </g>
     </g>
     <g id="text_10">
      <!-- $\mathdefault{0.2}$ -->
      <g style="fill: #323034" transform="translate(7.2 151.1835) scale(0.16 -0.16)">
       <use xlink:href="#STIXGeneral-Regular-30" transform="translate(0 0.40625)"/>
       <use xlink:href="#STIXGeneral-Regular-2e" transform="translate(49.999985 0.40625)"/>
       <use xlink:href="#STIXGeneral-Regular-32" transform="translate(74.999969 0.40625)"/>
      </g>
     </g>
    </g>
    <g id="ytick_4">
     <g id="line2d_11">
      <g>
       <use xlink:href="#m20d1246667" x="34.2" y="101.36775" style="fill: #323034; stroke: #323034; stroke-width: 0.8"/>
      </g>
     </g>
     <g id="text_11">
      <!-- $\mathdefault{0.3}$ -->
      <g style="fill: #323034" transform="translate(7.2 106.8315) scale(0.16 -0.16)">
       <defs>
        <path id="STIXGeneral-Regular-33" d="M 390 3264 
L 288 3290 
Q 435 3770 748 4048 
Q 1062 4326 1542 4326 
Q 1990 4326 2265 4083 
Q 2541 3840 2541 3450 
Q 2541 2925 1946 2566 
Q 2298 2413 2477 2227 
Q 2758 1914 2758 1402 
Q 2758 890 2464 506 
Q 2246 211 1840 60 
Q 1434 -90 979 -90 
Q 262 -90 262 275 
Q 262 378 339 442 
Q 416 506 525 506 
Q 685 506 915 339 
Q 1197 141 1466 141 
Q 1818 141 2058 425 
Q 2298 710 2298 1120 
Q 2298 1856 1632 2048 
Q 1434 2112 979 2112 
L 979 2202 
Q 1338 2323 1517 2432 
Q 2035 2726 2035 3290 
Q 2035 3610 1852 3776 
Q 1670 3942 1344 3942 
Q 768 3942 390 3264 
z
" transform="scale(0.015625)"/>
       </defs>
       <use xlink:href="#STIXGeneral-Regular-30" transform="translate(0 0.40625)"/>
       <use xlink:href="#STIXGeneral-Regular-2e" transform="translate(49.999985 0.40625)"/>
       <use xlink:href="#STIXGeneral-Regular-33" transform="translate(74.999969 0.40625)"/>
      </g>
     </g>
    </g>
    <g id="ytick_5">
     <g id="line2d_12">
      <g>
       <use xlink:href="#m20d1246667" x="34.2" y="57.01575" style="fill: #323034; stroke: #323034; stroke-width: 0.8"/>
      </g>
     </g>
     <g id="text_12">
      <!-- $\mathdefault{0.4}$ -->
      <g style="fill: #323034" transform="translate(7.2 62.4795) scale(0.16 -0.16)">
       <use xlink:href="#STIXGeneral-Regular-30" transform="translate(0 0.40625)"/>
       <use xlink:href="#STIXGeneral-Regular-2e" transform="translate(49.999985 0.40625)"/>
       <use xlink:href="#STIXGeneral-Regular-34" transform="translate(74.999969 0.40625)"/>
      </g>
     </g>
    </g>
    <g id="ytick_6">
     <g id="line2d_13">
      <g>
       <use xlink:href="#m20d1246667" x="34.2" y="12.66375" style="fill: #323034; stroke: #323034; stroke-width: 0.8"/>
      </g>
     </g>
     <g id="text_13">
      <!-- $\mathdefault{0.5}$ -->
      <g style="fill: #323034" transform="translate(7.2 18.1275) scale(0.16 -0.16)">
       <defs>
        <path id="STIXGeneral-Regular-35" d="M 2803 4358 
L 2573 3814 
Q 2534 3731 2400 3731 
L 1158 3731 
L 902 3187 
Q 1606 3053 1920 2896 
Q 2234 2739 2502 2368 
Q 2726 2061 2726 1555 
Q 2726 1094 2576 780 
Q 2426 467 2099 224 
Q 1664 -90 1011 -90 
Q 646 -90 422 19 
Q 198 128 198 307 
Q 198 550 486 550 
Q 717 550 960 352 
Q 1210 147 1414 147 
Q 1747 147 2012 480 
Q 2278 813 2278 1229 
Q 2278 1843 1850 2189 
Q 1293 2637 486 2637 
Q 410 2637 410 2688 
L 416 2720 
L 1114 4237 
L 2438 4237 
Q 2547 4237 2608 4269 
Q 2669 4301 2746 4403 
L 2803 4358 
z
" transform="scale(0.015625)"/>
       </defs>
       <use xlink:href="#STIXGeneral-Regular-30" transform="translate(0 0.203125)"/>
       <use xlink:href="#STIXGeneral-Regular-2e" transform="translate(49.999985 0.203125)"/>
       <use xlink:href="#STIXGeneral-Regular-35" transform="translate(74.999969 0.203125)"/>
      </g>
     </g>
    </g>
   </g>
   <g id="line2d_14">
    <path d="M 71.4 234.423091 
L 114.595195 234.312117 
L 126.138739 234.073621 
L 133.958559 233.704692 
L 139.916517 233.215923 
L 144.757357 232.617365 
L 149.225826 231.843619 
L 152.94955 230.98911 
L 156.673273 229.897183 
L 160.024625 228.670049 
L 163.003604 227.350953 
L 165.982583 225.785018 
L 168.961562 223.939829 
L 171.568168 222.069862 
L 174.174775 219.937656 
L 176.781381 217.520641 
L 179.387988 214.796945 
L 181.994595 211.745982 
L 184.601201 208.349086 
L 187.207808 204.590209 
L 189.814414 200.45664 
L 192.421021 195.939762 
L 195.4 190.303649 
L 198.378979 184.165442 
L 201.357958 177.539219 
L 204.709309 169.534198 
L 208.433033 160.023445 
L 212.529129 148.939029 
L 218.114715 133.114556 
L 228.168769 104.483502 
L 231.892492 94.552559 
L 235.243844 86.242334 
L 237.85045 80.306169 
L 240.457057 74.917273 
L 242.691291 70.789197 
L 244.925526 67.158735 
L 246.787387 64.540656 
L 248.649249 62.313277 
L 250.138739 60.823754 
L 251.628228 59.601839 
L 253.117718 58.653346 
L 254.607207 57.982805 
L 256.096697 57.593429 
L 257.586186 57.487086 
L 259.075676 57.664288 
L 260.565165 58.124184 
L 262.054655 58.864566 
L 263.544144 59.88189 
L 265.033634 61.171301 
L 266.523123 62.726672 
L 268.384985 65.033588 
L 270.246847 67.727606 
L 272.108709 70.789197 
L 274.342943 74.917273 
L 276.577177 79.501057 
L 279.183784 85.363718 
L 282.162763 92.647661 
L 285.514114 101.440792 
L 289.982583 113.854402 
L 305.994595 159.040411 
L 309.718318 168.610915 
L 313.06967 176.677785 
L 316.421021 184.165442 
L 319.4 190.303649 
L 322.378979 195.939762 
L 325.357958 201.070466 
L 327.964565 205.149876 
L 330.571171 208.856178 
L 333.177778 212.202603 
L 335.784384 215.205618 
L 338.390991 217.884206 
L 340.997598 220.259173 
L 343.604204 222.352524 
L 346.210811 224.186888 
L 349.18979 225.995354 
L 352.168769 227.528691 
L 355.147748 228.819132 
L 358.499099 230.018445 
L 361.85045 230.98911 
L 365.574174 231.843619 
L 369.67027 232.561868 
L 374.511111 233.177192 
L 380.096697 233.655455 
L 387.171772 234.020812 
L 396.481081 234.260632 
L 411.375976 234.390056 
L 443.4 234.423091 
L 443.4 234.423091 
" clip-path="url(#p286cd2e9e6)" style="fill: none; stroke: #fb8072; stroke-width: 4; stroke-linecap: square"/>
   </g>
   <g id="patch_53">
    <path d="M 34.2 234.42375 
L 34.2 12.66375 
" style="fill: none; stroke: #000000; stroke-width: 0.6; stroke-linejoin: miter; stroke-linecap: square"/>
   </g>
   <g id="patch_54">
    <path d="M 34.2 234.42375 
L 480.6 234.42375 
" style="fill: none; stroke: #000000; stroke-width: 0.6; stroke-linejoin: miter; stroke-linecap: square"/>
   </g>
   <g id="legend_1">
    <g id="patch_55">
     <path d="M 398.14 64.142188 
L 470.8 64.142188 
Q 473.6 64.142188 473.6 61.342187 
L 473.6 22.46375 
Q 473.6 19.66375 470.8 19.66375 
L 398.14 19.66375 
Q 395.34 19.66375 395.34 22.46375 
L 395.34 61.342187 
Q 395.34 64.142188 398.14 64.142188 
z
" style="fill: #ffffff; opacity: 0.8; stroke: #e6e6e6; stroke-width: 0.8; stroke-linejoin: miter"/>
    </g>
    <g id="patch_56">
     <path d="M 398.14 32.26375 
L 426.14 32.26375 
L 426.14 22.46375 
L 398.14 22.46375 
z
" style="fill: #bc80bd; stroke: #000000; stroke-width: 0.8; stroke-linejoin: miter"/>
    </g>
    <g id="text_14">
     <!-- Data -->
     <g style="fill: #323034" transform="translate(437.34 32.26375) scale(0.14 -0.14)">
      <defs>
       <path id="STIXGeneral-Regular-44" d="M 102 4237 
L 1830 4237 
Q 3078 4237 3750 3654 
Q 4384 3110 4384 2138 
Q 4384 966 3514 410 
Q 2880 0 1901 0 
L 102 0 
L 102 122 
Q 474 147 570 252 
Q 666 358 666 736 
L 666 3520 
Q 666 3891 570 3990 
Q 474 4090 102 4115 
L 102 4237 
z
M 1318 3731 
L 1318 538 
Q 1318 365 1379 301 
Q 1440 237 1626 237 
Q 2125 237 2432 307 
Q 2739 378 3021 570 
Q 3686 1018 3686 2099 
Q 3686 3027 3078 3558 
Q 2803 3802 2476 3901 
Q 2150 4000 1658 4000 
Q 1472 4000 1395 3942 
Q 1318 3885 1318 3731 
z
" transform="scale(0.015625)"/>
       <path id="STIXGeneral-Regular-61" d="M 2829 422 
L 2829 243 
Q 2586 -64 2253 -64 
Q 1888 -64 1843 403 
L 1837 403 
Q 1427 -64 909 -64 
Q 608 -64 422 112 
Q 237 288 237 602 
Q 237 1050 685 1350 
Q 992 1555 1837 1869 
L 1837 2214 
Q 1837 2502 1699 2646 
Q 1562 2790 1338 2790 
Q 1146 2790 1018 2697 
Q 890 2605 890 2477 
Q 890 2419 909 2348 
Q 928 2278 928 2208 
Q 928 2112 841 2029 
Q 755 1946 634 1946 
Q 525 1946 441 2029 
Q 358 2112 358 2240 
Q 358 2547 685 2752 
Q 986 2944 1421 2944 
Q 1939 2944 2176 2656 
Q 2291 2522 2323 2384 
Q 2355 2246 2355 1946 
L 2355 723 
Q 2355 301 2554 301 
Q 2682 301 2829 422 
z
M 1837 813 
L 1837 1715 
Q 1248 1510 1018 1293 
Q 800 1094 800 800 
Q 800 557 921 432 
Q 1043 307 1242 307 
Q 1453 307 1613 410 
Q 1747 506 1792 589 
Q 1837 672 1837 813 
z
" transform="scale(0.015625)"/>
       <path id="STIXGeneral-Regular-74" d="M 1702 493 
L 1786 422 
Q 1478 -64 1011 -64 
Q 448 -64 448 749 
L 448 2675 
L 109 2675 
Q 83 2694 83 2720 
Q 83 2771 192 2842 
Q 435 2982 813 3526 
Q 826 3546 874 3606 
Q 922 3667 941 3706 
Q 986 3706 986 3622 
L 986 2880 
L 1632 2880 
L 1632 2675 
L 986 2675 
L 986 845 
Q 986 538 1062 403 
Q 1139 269 1318 269 
Q 1510 269 1702 493 
z
" transform="scale(0.015625)"/>
      </defs>
      <use xlink:href="#STIXGeneral-Regular-44"/>
      <use xlink:href="#STIXGeneral-Regular-61" transform="translate(72.199982 0)"/>
      <use xlink:href="#STIXGeneral-Regular-74" transform="translate(116.599976 0)"/>
      <use xlink:href="#STIXGeneral-Regular-61" transform="translate(144.399963 0)"/>
     </g>
    </g>
    <g id="line2d_15">
     <path d="M 398.14 50.422188 
L 412.14 50.422188 
L 426.14 50.422188 
" style="fill: none; stroke: #fb8072; stroke-width: 4; stroke-linecap: square"/>
    </g>
    <g id="text_15">
     <!-- $\frac{1}{2\pi}e^{-\frac{x^2}{2}}$ -->
     <g style="fill: #323034" transform="translate(437.34 55.322188) scale(0.14 -0.14)">
      <defs>
       <path id="STIXGeneral-Italic-3c0" d="M 3430 2739 
L 3296 2266 
L 2643 2266 
Q 2624 2195 2502 1782 
Q 2381 1370 2297 1072 
Q 2214 774 2214 717 
Q 2214 448 2413 448 
Q 2694 448 2867 838 
L 2970 838 
Q 2886 486 2652 208 
Q 2419 -70 2093 -70 
Q 1901 -70 1808 67 
Q 1715 205 1715 410 
Q 1715 627 1824 922 
L 2310 2266 
L 1645 2266 
Q 1568 2061 1401 1469 
Q 1235 877 1068 512 
Q 902 147 672 -38 
Q 563 -115 442 -115 
Q 314 -115 218 -32 
Q 122 51 122 166 
Q 122 429 314 480 
Q 634 563 774 928 
L 1299 2266 
L 1261 2266 
Q 973 2266 819 2208 
Q 666 2150 474 1914 
L 371 1914 
Q 640 2362 931 2550 
Q 1222 2739 1696 2739 
L 3430 2739 
z
" transform="scale(0.015625)"/>
       <path id="STIXGeneral-Italic-65" d="M 2291 698 
L 2368 621 
Q 1805 -70 1062 -70 
Q 672 -70 435 170 
Q 198 410 198 806 
Q 198 1555 796 2188 
Q 1395 2822 2112 2822 
Q 2362 2822 2499 2707 
Q 2637 2592 2637 2387 
Q 2637 1965 2147 1632 
Q 1658 1299 819 1190 
Q 755 1062 755 800 
Q 755 538 918 378 
Q 1082 218 1350 218 
Q 1562 218 1754 317 
Q 1946 416 2291 698 
z
M 973 1613 
L 864 1331 
Q 1581 1504 1894 1805 
Q 2214 2112 2214 2426 
Q 2214 2675 1990 2675 
Q 1722 2675 1430 2364 
Q 1139 2054 973 1613 
z
" transform="scale(0.015625)"/>
       <path id="STIXGeneral-Italic-78" d="M 1555 2272 
L 1632 1907 
Q 1971 2426 2179 2624 
Q 2387 2822 2598 2822 
Q 2714 2822 2787 2755 
Q 2861 2688 2861 2585 
Q 2861 2483 2800 2419 
Q 2739 2355 2643 2355 
Q 2586 2355 2490 2409 
Q 2394 2464 2310 2464 
Q 2125 2464 1683 1690 
Q 1683 1606 1734 1402 
L 1939 544 
Q 2003 282 2131 282 
Q 2234 282 2432 538 
Q 2451 563 2476 598 
Q 2502 634 2521 662 
Q 2541 691 2566 717 
L 2662 659 
Q 2387 230 2227 80 
Q 2067 -70 1882 -70 
Q 1728 -70 1645 26 
Q 1562 122 1504 365 
L 1318 1126 
L 755 365 
Q 557 96 432 13 
Q 307 -70 147 -70 
Q 0 -70 -86 0 
Q -173 70 -173 198 
Q -173 294 -112 361 
Q -51 429 45 429 
Q 122 429 250 358 
Q 346 301 416 301 
Q 525 301 742 614 
L 1267 1357 
L 1088 2150 
Q 1024 2432 969 2509 
Q 915 2586 794 2586 
Q 717 2586 544 2541 
L 429 2509 
L 410 2611 
L 480 2637 
Q 992 2822 1229 2822 
Q 1350 2822 1420 2707 
Q 1491 2592 1555 2272 
z
" transform="scale(0.015625)"/>
      </defs>
      <use xlink:href="#STIXGeneral-Regular-31" transform="translate(18 38.058719) scale(0.7)"/>
      <use xlink:href="#STIXGeneral-Regular-32" transform="translate(0 -40.506906) scale(0.7)"/>
      <use xlink:href="#STIXGeneral-Italic-3c0" transform="translate(34.999989 -40.506906) scale(0.7)"/>
      <use xlink:href="#STIXGeneral-Italic-65" transform="translate(82.779985 0.261844)"/>
      <use xlink:href="#STIXGeneral-Regular-2212" transform="translate(133.353104 35.536844) scale(0.7)"/>
      <use xlink:href="#STIXGeneral-Italic-78" transform="translate(181.303093 62.530594) scale(0.49)"/>
      <use xlink:href="#STIXGeneral-Regular-32" transform="translate(206.083922 79.815344) scale(0.343)"/>
      <use xlink:href="#STIXGeneral-Regular-32" transform="translate(191.303093 6.998719) scale(0.49)"/>
      <path d="M 0 13.058719 
L 0 19.308719 
L 70.279985 19.308719 
L 70.279985 13.058719 
L 0 13.058719 
z
"/>
      <path d="M 181.303093 44.494656 
L 181.303093 48.869656 
L 225.39451 48.869656 
L 225.39451 44.494656 
L 181.303093 44.494656 
z
"/>
     </g>
    </g>
   </g>
  </g>
 </g>
 <defs>
  <clipPath id="p286cd2e9e6">
   <rect x="34.2" y="12.66375" width="446.4" height="221.76"/>
  </clipPath>
 </defs>
</svg>