<?xml version="1.0" encoding="utf-8" standalone="no"?>
<!DOCTYPE svg PUBLIC "-//W3C//DTD SVG 1.1//EN"
  "http://www.w3.org/Graphics/SVG/1.1/DTD/svg11.dtd">
<svg xmlns:xlink="http://www.w3.org/1999/xlink" width="508.24pt" height="293.951406pt" viewBox="0 0 508.24 293.951406" xmlns="http://www.w3.org/2000/svg" version="1.1">
 <metadata>
  <rdf:RDF xmlns:dc="http://purl.org/dc/elements/1.1/" xmlns:cc="http://creativecommons.org/ns#" xmlns:rdf="http://www.w3.org/1999/02/22-rdf-syntax-ns#">
   <cc:Work>
    <dc:type rdf:resource="http://purl.org/dc/dcmitype/StillImage"/>
    <dc:date>2025-03-26T16:02:14.178426</dc:date>
    <dc:format>image/svg+xml</dc:format>
    <dc:creator>
     <cc:Agent>
      <dc:title>Matplotlib v3.10.0, https://matplotlib.org/</dc:title>
     </cc:Agent>
    </dc:creator>
   </cc:Work>
  </rdf:RDF>
 </metadata>
 <defs>
  <style type="text/css">*{stroke-linejoin: round; stroke-linecap: butt}</style>
 </defs>
 <g id="figure_1">
  <g id="patch_1">
   <path d="M 0 293.951406 
L 508.24 293.951406 
L 508.24 0 
L 0 0 
z
" style="fill: #ffffff"/>
  </g>
  <g id="axes_1">
   <g id="patch_2">
    <path d="M 50.64 247.936406 
L 497.04 247.936406 
L 497.04 26.176406 
L 50.64 26.176406 
z
" style="fill: #ffffff"/>
   </g>
   <g id="matplotlib.axis_1">
    <g id="xtick_1">
     <g id="line2d_1">
      <defs>
       <path id="m912457a117" d="M 0 0 
L 0 3.5 
" style="stroke: #323034; stroke-width: 0.8"/>
      </defs>
      <g>
       <use xlink:href="#m912457a117" x="50.64" y="247.936406" style="fill: #323034; stroke: #323034; stroke-width: 0.8"/>
      </g>
     </g>
     <g id="text_1">
      <!-- $\mathdefault{−6}$ -->
      <g style="fill: #323034" transform="translate(41.12 265.863906) scale(0.16 -0.16)">
       <defs>
        <path id="STIXGeneral-Regular-2212" d="M 3974 1408 
L 410 1408 
L 410 1830 
L 3974 1830 
L 3974 1408 
z
" transform="scale(0.015625)"/>
        <path id="STIXGeneral-Regular-36" d="M 2854 4378 
L 2867 4275 
Q 2112 4154 1606 3664 
Q 1101 3174 973 2451 
Q 1344 2739 1786 2739 
Q 2349 2739 2672 2380 
Q 2995 2022 2995 1402 
Q 2995 774 2669 378 
Q 2291 -90 1651 -90 
Q 870 -90 518 557 
Q 218 1107 218 1786 
Q 218 2835 915 3552 
Q 1312 3962 1731 4131 
Q 2150 4301 2854 4378 
z
M 2419 1203 
Q 2419 2445 1555 2445 
Q 1235 2445 1024 2275 
Q 813 2106 813 1702 
Q 813 954 1046 522 
Q 1280 90 1722 90 
Q 2061 90 2240 394 
Q 2419 698 2419 1203 
z
" transform="scale(0.015625)"/>
       </defs>
       <use xlink:href="#STIXGeneral-Regular-2212" transform="translate(0 0.59375)"/>
       <use xlink:href="#STIXGeneral-Regular-36" transform="translate(68.499985 0.59375)"/>
      </g>
     </g>
    </g>
    <g id="xtick_2">
     <g id="line2d_2">
      <g>
       <use xlink:href="#m912457a117" x="114.411429" y="247.936406" style="fill: #323034; stroke: #323034; stroke-width: 0.8"/>
      </g>
     </g>
     <g id="text_2">
      <!-- $\mathdefault{−4}$ -->
      <g style="fill: #323034" transform="translate(104.891429 265.863906) scale(0.16 -0.16)">
       <defs>
        <path id="STIXGeneral-Regular-34" d="M 3027 1069 
L 2368 1069 
L 2368 0 
L 1869 0 
L 1869 1069 
L 77 1069 
L 77 1478 
L 2086 4326 
L 2368 4326 
L 2368 1478 
L 3027 1478 
L 3027 1069 
z
M 1869 1478 
L 1869 3674 
L 333 1478 
L 1869 1478 
z
" transform="scale(0.015625)"/>
       </defs>
       <use xlink:href="#STIXGeneral-Regular-2212" transform="translate(0 0.40625)"/>
       <use xlink:href="#STIXGeneral-Regular-34" transform="translate(68.499985 0.40625)"/>
      </g>
     </g>
    </g>
    <g id="xtick_3">
     <g id="line2d_3">
      <g>
       <use xlink:href="#m912457a117" x="178.182857" y="247.936406" style="fill: #323034; stroke: #323034; stroke-width: 0.8"/>
      </g>
     </g>
     <g id="text_3">
      <!-- $\mathdefault{−2}$ -->
      <g style="fill: #323034" transform="translate(168.662857 265.863906) scale(0.16 -0.16)">
       <defs>
        <path id="STIXGeneral-Regular-32" d="M 3034 877 
L 2688 0 
L 186 0 
L 186 77 
L 1325 1286 
Q 1773 1754 1965 2144 
Q 2157 2534 2157 2950 
Q 2157 3379 1920 3616 
Q 1683 3853 1267 3853 
Q 922 3853 720 3673 
Q 518 3494 326 3021 
L 192 3053 
Q 301 3648 630 3987 
Q 960 4326 1523 4326 
Q 2054 4326 2380 4006 
Q 2707 3686 2707 3200 
Q 2707 2477 1888 1613 
L 832 486 
L 2330 486 
Q 2541 486 2665 569 
Q 2790 653 2944 915 
L 3034 877 
z
" transform="scale(0.015625)"/>
       </defs>
       <use xlink:href="#STIXGeneral-Regular-2212" transform="translate(0 0.40625)"/>
       <use xlink:href="#STIXGeneral-Regular-32" transform="translate(68.499985 0.40625)"/>
      </g>
     </g>
    </g>
    <g id="xtick_4">
     <g id="line2d_4">
      <g>
       <use xlink:href="#m912457a117" x="241.954286" y="247.936406" style="fill: #323034; stroke: #323034; stroke-width: 0.8"/>
      </g>
     </g>
     <g id="text_4">
      <!-- $\mathdefault{0}$ -->
      <g style="fill: #323034" transform="translate(237.954286 265.863906) scale(0.16 -0.16)">
       <defs>
        <path id="STIXGeneral-Regular-30" d="M 3046 2112 
Q 3046 1683 2963 1302 
Q 2880 922 2717 602 
Q 2554 282 2266 96 
Q 1978 -90 1600 -90 
Q 1210 -90 915 108 
Q 621 307 461 640 
Q 301 973 227 1350 
Q 154 1728 154 2150 
Q 154 2746 301 3222 
Q 448 3699 790 4012 
Q 1133 4326 1626 4326 
Q 2253 4326 2649 3712 
Q 3046 3098 3046 2112 
z
M 2432 2080 
Q 2432 3091 2217 3625 
Q 2003 4160 1587 4160 
Q 1190 4160 979 3622 
Q 768 3085 768 2106 
Q 768 1120 979 598 
Q 1190 77 1600 77 
Q 2003 77 2217 598 
Q 2432 1120 2432 2080 
z
" transform="scale(0.015625)"/>
       </defs>
       <use xlink:href="#STIXGeneral-Regular-30" transform="translate(0 0.40625)"/>
      </g>
     </g>
    </g>
    <g id="xtick_5">
     <g id="line2d_5">
      <g>
       <use xlink:href="#m912457a117" x="305.725714" y="247.936406" style="fill: #323034; stroke: #323034; stroke-width: 0.8"/>
      </g>
     </g>
     <g id="text_5">
      <!-- $\mathdefault{2}$ -->
      <g style="fill: #323034" transform="translate(301.725714 265.863906) scale(0.16 -0.16)">
       <use xlink:href="#STIXGeneral-Regular-32" transform="translate(0 0.40625)"/>
      </g>
     </g>
    </g>
    <g id="xtick_6">
     <g id="line2d_6">
      <g>
       <use xlink:href="#m912457a117" x="369.497143" y="247.936406" style="fill: #323034; stroke: #323034; stroke-width: 0.8"/>
      </g>
     </g>
     <g id="text_6">
      <!-- $\mathdefault{4}$ -->
      <g style="fill: #323034" transform="translate(365.497143 265.863906) scale(0.16 -0.16)">
       <use xlink:href="#STIXGeneral-Regular-34" transform="translate(0 0.40625)"/>
      </g>
     </g>
    </g>
    <g id="xtick_7">
     <g id="line2d_7">
      <g>
       <use xlink:href="#m912457a117" x="433.268571" y="247.936406" style="fill: #323034; stroke: #323034; stroke-width: 0.8"/>
      </g>
     </g>
     <g id="text_7">
      <!-- $\mathdefault{6}$ -->
      <g style="fill: #323034" transform="translate(429.268571 265.863906) scale(0.16 -0.16)">
       <use xlink:href="#STIXGeneral-Regular-36" transform="translate(0 0.59375)"/>
      </g>
     </g>
    </g>
    <g id="xtick_8">
     <g id="line2d_8">
      <g>
       <use xlink:href="#m912457a117" x="497.04" y="247.936406" style="fill: #323034; stroke: #323034; stroke-width: 0.8"/>
      </g>
     </g>
     <g id="text_8">
      <!-- $\mathdefault{8}$ -->
      <g style="fill: #323034" transform="translate(493.04 265.863906) scale(0.16 -0.16)">
       <defs>
        <path id="STIXGeneral-Regular-38" d="M 2848 992 
Q 2848 499 2505 204 
Q 2163 -90 1587 -90 
Q 1050 -90 704 204 
Q 358 499 358 954 
Q 358 1293 524 1533 
Q 691 1773 1190 2125 
Q 710 2522 553 2765 
Q 397 3008 397 3328 
Q 397 3782 745 4054 
Q 1094 4326 1638 4326 
Q 2106 4326 2410 4060 
Q 2714 3795 2714 3411 
Q 2714 3059 2531 2848 
Q 2349 2637 1856 2374 
Q 2432 1990 2640 1689 
Q 2848 1389 2848 992 
z
M 2272 3411 
Q 2272 3744 2086 3945 
Q 1901 4147 1574 4147 
Q 1248 4147 1059 3977 
Q 870 3808 870 3513 
Q 870 3219 1059 2979 
Q 1248 2739 1670 2490 
Q 1997 2682 2134 2896 
Q 2272 3110 2272 3411 
z
M 1734 1741 
L 1357 1997 
Q 1075 1766 960 1545 
Q 845 1325 845 1011 
Q 845 576 1065 333 
Q 1286 90 1658 90 
Q 1971 90 2166 285 
Q 2362 480 2362 794 
Q 2362 1082 2214 1299 
Q 2067 1517 1734 1741 
z
" transform="scale(0.015625)"/>
       </defs>
       <use xlink:href="#STIXGeneral-Regular-38" transform="translate(0 0.40625)"/>
      </g>
     </g>
    </g>
    <g id="text_9">
     <!-- e(hs_grad | X) -->
     <g transform="translate(228.255 283.263906) scale(0.16 -0.16)">
      <defs>
       <path id="STIXGeneral-Regular-65" d="M 2611 1050 
L 2714 1005 
Q 2330 -64 1376 -64 
Q 813 -64 486 329 
Q 160 723 160 1389 
Q 160 2074 525 2509 
Q 890 2944 1485 2944 
Q 2061 2944 2374 2502 
Q 2560 2246 2592 1773 
L 621 1773 
Q 646 1370 700 1158 
Q 755 947 915 730 
Q 1184 378 1626 378 
Q 1939 378 2153 531 
Q 2368 685 2611 1050 
z
M 634 1978 
L 1939 1978 
Q 1882 2381 1750 2547 
Q 1619 2714 1312 2714 
Q 1043 2714 864 2525 
Q 685 2336 634 1978 
z
" transform="scale(0.015625)"/>
       <path id="STIXGeneral-Regular-28" d="M 1946 -1030 
L 1869 -1133 
Q 1126 -710 716 32 
Q 307 774 307 1613 
Q 307 3386 1888 4326 
L 1946 4224 
Q 1293 3667 1075 3126 
Q 858 2586 858 1632 
Q 858 685 1082 96 
Q 1306 -493 1946 -1030 
z
" transform="scale(0.015625)"/>
       <path id="STIXGeneral-Regular-68" d="M 3117 0 
L 1760 0 
L 1760 96 
Q 2042 128 2118 224 
Q 2195 320 2195 653 
L 2195 1920 
Q 2195 2598 1722 2598 
Q 1530 2598 1370 2508 
Q 1210 2419 1005 2195 
L 1005 653 
Q 1005 320 1081 224 
Q 1158 128 1440 96 
L 1440 0 
L 58 0 
L 58 96 
Q 333 134 400 224 
Q 467 314 467 653 
L 467 3667 
Q 467 3872 406 3933 
Q 346 3994 141 3994 
Q 83 3994 64 3987 
L 64 4090 
L 237 4141 
Q 730 4288 973 4371 
L 1005 4352 
L 1005 2406 
Q 1229 2694 1446 2819 
Q 1664 2944 1946 2944 
Q 2733 2944 2733 1926 
L 2733 653 
Q 2733 320 2793 233 
Q 2854 147 3117 96 
L 3117 0 
z
" transform="scale(0.015625)"/>
       <path id="STIXGeneral-Regular-73" d="M 998 1926 
L 1664 1523 
Q 1984 1331 2105 1164 
Q 2227 998 2227 736 
Q 2227 416 1961 176 
Q 1696 -64 1331 -64 
Q 1030 -64 864 -6 
Q 691 51 570 51 
Q 461 51 416 -26 
L 333 -26 
L 333 979 
L 435 979 
Q 538 512 730 294 
Q 922 77 1248 77 
Q 1485 77 1632 211 
Q 1779 346 1779 550 
Q 1779 845 1440 1030 
L 1094 1222 
Q 326 1651 326 2150 
Q 326 2522 566 2730 
Q 806 2938 1210 2938 
Q 1491 2938 1638 2867 
Q 1754 2816 1818 2816 
Q 1862 2816 1920 2880 
L 1990 2880 
L 2022 2010 
L 1926 2010 
Q 1818 2445 1654 2621 
Q 1491 2797 1203 2797 
Q 986 2797 854 2688 
Q 723 2579 723 2362 
Q 723 2253 796 2128 
Q 870 2003 998 1926 
z
" transform="scale(0.015625)"/>
       <path id="STIXGeneral-Regular-5f" d="M 3200 -800 
L 0 -800 
L 0 -480 
L 3200 -480 
L 3200 -800 
z
" transform="scale(0.015625)"/>
       <path id="STIXGeneral-Regular-67" d="M 3008 2483 
L 2477 2483 
Q 2598 2208 2598 1946 
Q 2598 1453 2265 1203 
Q 1933 954 1600 954 
Q 1530 954 1357 973 
L 1235 986 
Q 1107 947 979 812 
Q 851 678 851 582 
Q 851 435 1350 410 
L 2176 371 
Q 2528 358 2739 172 
Q 2950 -13 2950 -314 
Q 2950 -685 2566 -986 
Q 2035 -1395 1286 -1395 
Q 826 -1395 502 -1212 
Q 179 -1030 179 -774 
Q 179 -595 320 -419 
Q 461 -243 806 6 
Q 602 102 534 172 
Q 467 243 467 346 
Q 467 531 762 787 
Q 909 915 1037 1043 
Q 717 1203 579 1401 
Q 442 1600 442 1901 
Q 442 2336 752 2640 
Q 1062 2944 1510 2944 
Q 1766 2944 2022 2848 
L 2163 2797 
Q 2349 2733 2515 2733 
L 3008 2733 
L 3008 2483 
z
M 973 2163 
L 973 2144 
Q 973 1683 1155 1398 
Q 1338 1114 1632 1114 
Q 1850 1114 1978 1270 
Q 2106 1427 2106 1690 
Q 2106 2112 1914 2464 
Q 1754 2765 1446 2765 
Q 1222 2765 1097 2605 
Q 973 2445 973 2163 
z
M 2771 -410 
Q 2771 -230 2595 -163 
Q 2419 -96 1978 -96 
Q 1344 -96 941 -13 
Q 749 -243 688 -348 
Q 627 -454 627 -563 
Q 627 -774 880 -902 
Q 1133 -1030 1555 -1030 
Q 2099 -1030 2435 -860 
Q 2771 -691 2771 -410 
z
" transform="scale(0.015625)"/>
       <path id="STIXGeneral-Regular-72" d="M 1024 2931 
L 1024 2342 
Q 1267 2688 1430 2816 
Q 1594 2944 1792 2944 
Q 1958 2944 2051 2854 
Q 2144 2765 2144 2605 
Q 2144 2470 2077 2393 
Q 2010 2317 1894 2317 
Q 1773 2317 1638 2445 
Q 1536 2541 1472 2541 
Q 1338 2541 1181 2355 
Q 1024 2170 1024 2016 
L 1024 576 
Q 1024 301 1133 205 
Q 1242 109 1568 96 
L 1568 0 
L 32 0 
L 32 96 
Q 339 154 412 224 
Q 486 294 486 538 
L 486 2138 
Q 486 2349 438 2435 
Q 390 2522 269 2522 
Q 166 2522 45 2496 
L 45 2598 
Q 448 2726 992 2944 
L 1024 2931 
z
" transform="scale(0.015625)"/>
       <path id="STIXGeneral-Regular-61" d="M 2829 422 
L 2829 243 
Q 2586 -64 2253 -64 
Q 1888 -64 1843 403 
L 1837 403 
Q 1427 -64 909 -64 
Q 608 -64 422 112 
Q 237 288 237 602 
Q 237 1050 685 1350 
Q 992 1555 1837 1869 
L 1837 2214 
Q 1837 2502 1699 2646 
Q 1562 2790 1338 2790 
Q 1146 2790 1018 2697 
Q 890 2605 890 2477 
Q 890 2419 909 2348 
Q 928 2278 928 2208 
Q 928 2112 841 2029 
Q 755 1946 634 1946 
Q 525 1946 441 2029 
Q 358 2112 358 2240 
Q 358 2547 685 2752 
Q 986 2944 1421 2944 
Q 1939 2944 2176 2656 
Q 2291 2522 2323 2384 
Q 2355 2246 2355 1946 
L 2355 723 
Q 2355 301 2554 301 
Q 2682 301 2829 422 
z
M 1837 813 
L 1837 1715 
Q 1248 1510 1018 1293 
Q 800 1094 800 800 
Q 800 557 921 432 
Q 1043 307 1242 307 
Q 1453 307 1613 410 
Q 1747 506 1792 589 
Q 1837 672 1837 813 
z
" transform="scale(0.015625)"/>
       <path id="STIXGeneral-Regular-64" d="M 3142 269 
L 2202 -64 
L 2176 -45 
L 2176 365 
Q 1869 -64 1357 -64 
Q 826 -64 499 317 
Q 173 698 173 1312 
Q 173 1990 563 2467 
Q 954 2944 1504 2944 
Q 1850 2944 2176 2669 
L 2176 3667 
Q 2176 3866 2118 3930 
Q 2061 3994 1882 3994 
Q 1792 3994 1741 3987 
L 1741 4090 
Q 2323 4243 2682 4371 
L 2714 4358 
L 2714 730 
Q 2714 506 2768 435 
Q 2822 365 2995 365 
Q 3034 365 3142 371 
L 3142 269 
z
M 2176 653 
L 2176 2125 
Q 2176 2381 1981 2573 
Q 1786 2765 1523 2765 
Q 1158 2765 940 2438 
Q 723 2112 723 1568 
Q 723 979 963 624 
Q 1203 269 1606 269 
Q 1907 269 2080 474 
Q 2176 582 2176 653 
z
" transform="scale(0.015625)"/>
       <path id="STIXGeneral-Regular-20" transform="scale(0.015625)"/>
       <path id="STIXGeneral-Regular-7c" d="M 851 -90 
L 429 -90 
L 429 4326 
L 851 4326 
L 851 -90 
z
" transform="scale(0.015625)"/>
       <path id="STIXGeneral-Regular-58" d="M 4506 0 
L 2611 0 
L 2611 122 
L 2778 134 
Q 3098 154 3098 320 
Q 3098 461 2771 947 
L 2163 1850 
L 1402 896 
Q 1062 474 1062 326 
Q 1062 230 1168 185 
Q 1274 141 1549 122 
L 1549 0 
L 64 0 
L 64 122 
Q 314 147 470 268 
Q 627 390 992 851 
L 1990 2099 
L 1312 3091 
Q 864 3744 665 3913 
Q 467 4083 141 4115 
L 141 4237 
L 2067 4237 
L 2067 4115 
L 1882 4109 
Q 1734 4102 1660 4064 
Q 1587 4026 1587 3923 
Q 1587 3885 1596 3843 
Q 1606 3802 1635 3744 
Q 1664 3686 1689 3638 
Q 1715 3590 1769 3507 
Q 1824 3424 1862 3366 
Q 1901 3309 1984 3190 
Q 2067 3072 2118 2995 
L 2400 2586 
L 3117 3482 
Q 3373 3795 3373 3910 
Q 3373 4019 3283 4064 
Q 3194 4109 2938 4115 
L 2938 4237 
L 4454 4237 
L 4454 4115 
Q 4147 4096 3968 3977 
Q 3789 3859 3482 3482 
L 2566 2349 
L 3795 595 
Q 3981 326 4115 240 
Q 4250 154 4506 122 
L 4506 0 
z
" transform="scale(0.015625)"/>
       <path id="STIXGeneral-Regular-29" d="M 186 4224 
L 262 4326 
Q 992 3891 1408 3148 
Q 1824 2406 1824 1581 
Q 1824 -166 243 -1133 
L 186 -1030 
Q 845 -486 1059 54 
Q 1274 595 1274 1562 
Q 1274 2534 1059 3120 
Q 845 3706 186 4224 
z
" transform="scale(0.015625)"/>
      </defs>
      <use xlink:href="#STIXGeneral-Regular-65"/>
      <use xlink:href="#STIXGeneral-Regular-28" transform="translate(44.399994 0)"/>
      <use xlink:href="#STIXGeneral-Regular-68" transform="translate(77.699982 0)"/>
      <use xlink:href="#STIXGeneral-Regular-73" transform="translate(127.699966 0)"/>
      <use xlink:href="#STIXGeneral-Regular-5f" transform="translate(166.59996 0)"/>
      <use xlink:href="#STIXGeneral-Regular-67" transform="translate(216.599945 0)"/>
      <use xlink:href="#STIXGeneral-Regular-72" transform="translate(266.59993 0)"/>
      <use xlink:href="#STIXGeneral-Regular-61" transform="translate(299.899918 0)"/>
      <use xlink:href="#STIXGeneral-Regular-64" transform="translate(344.299911 0)"/>
      <use xlink:href="#STIXGeneral-Regular-20" transform="translate(394.299896 0)"/>
      <use xlink:href="#STIXGeneral-Regular-7c" transform="translate(419.299881 0)"/>
      <use xlink:href="#STIXGeneral-Regular-20" transform="translate(439.299866 0)"/>
      <use xlink:href="#STIXGeneral-Regular-58" transform="translate(464.29985 0)"/>
      <use xlink:href="#STIXGeneral-Regular-29" transform="translate(536.499832 0)"/>
     </g>
    </g>
   </g>
   <g id="matplotlib.axis_2">
    <g id="ytick_1">
     <g id="line2d_9">
      <defs>
       <path id="m557bcc278e" d="M 0 0 
L -3.5 0 
" style="stroke: #323034; stroke-width: 0.8"/>
      </defs>
      <g>
       <use xlink:href="#m557bcc278e" x="50.64" y="247.936406" style="fill: #323034; stroke: #323034; stroke-width: 0.8"/>
      </g>
     </g>
     <g id="text_10">
      <!-- $\mathdefault{−6}$ -->
      <g style="fill: #323034" transform="translate(24.6 253.400156) scale(0.16 -0.16)">
       <use xlink:href="#STIXGeneral-Regular-2212" transform="translate(0 0.59375)"/>
       <use xlink:href="#STIXGeneral-Regular-36" transform="translate(68.499985 0.59375)"/>
      </g>
     </g>
    </g>
    <g id="ytick_2">
     <g id="line2d_10">
      <g>
       <use xlink:href="#m557bcc278e" x="50.64" y="210.976406" style="fill: #323034; stroke: #323034; stroke-width: 0.8"/>
      </g>
     </g>
     <g id="text_11">
      <!-- $\mathdefault{−4}$ -->
      <g style="fill: #323034" transform="translate(24.6 216.440156) scale(0.16 -0.16)">
       <use xlink:href="#STIXGeneral-Regular-2212" transform="translate(0 0.40625)"/>
       <use xlink:href="#STIXGeneral-Regular-34" transform="translate(68.499985 0.40625)"/>
      </g>
     </g>
    </g>
    <g id="ytick_3">
     <g id="line2d_11">
      <g>
       <use xlink:href="#m557bcc278e" x="50.64" y="174.016406" style="fill: #323034; stroke: #323034; stroke-width: 0.8"/>
      </g>
     </g>
     <g id="text_12">
      <!-- $\mathdefault{−2}$ -->
      <g style="fill: #323034" transform="translate(24.6 179.480156) scale(0.16 -0.16)">
       <use xlink:href="#STIXGeneral-Regular-2212" transform="translate(0 0.40625)"/>
       <use xlink:href="#STIXGeneral-Regular-32" transform="translate(68.499985 0.40625)"/>
      </g>
     </g>
    </g>
    <g id="ytick_4">
     <g id="line2d_12">
      <g>
       <use xlink:href="#m557bcc278e" x="50.64" y="137.056406" style="fill: #323034; stroke: #323034; stroke-width: 0.8"/>
      </g>
     </g>
     <g id="text_13">
      <!-- $\mathdefault{0}$ -->
      <g style="fill: #323034" transform="translate(35.64 142.520156) scale(0.16 -0.16)">
       <use xlink:href="#STIXGeneral-Regular-30" transform="translate(0 0.40625)"/>
      </g>
     </g>
    </g>
    <g id="ytick_5">
     <g id="line2d_13">
      <g>
       <use xlink:href="#m557bcc278e" x="50.64" y="100.096406" style="fill: #323034; stroke: #323034; stroke-width: 0.8"/>
      </g>
     </g>
     <g id="text_14">
      <!-- $\mathdefault{2}$ -->
      <g style="fill: #323034" transform="translate(35.64 105.560156) scale(0.16 -0.16)">
       <use xlink:href="#STIXGeneral-Regular-32" transform="translate(0 0.40625)"/>
      </g>
     </g>
    </g>
    <g id="ytick_6">
     <g id="line2d_14">
      <g>
       <use xlink:href="#m557bcc278e" x="50.64" y="63.136406" style="fill: #323034; stroke: #323034; stroke-width: 0.8"/>
      </g>
     </g>
     <g id="text_15">
      <!-- $\mathdefault{4}$ -->
      <g style="fill: #323034" transform="translate(35.64 68.600156) scale(0.16 -0.16)">
       <use xlink:href="#STIXGeneral-Regular-34" transform="translate(0 0.40625)"/>
      </g>
     </g>
    </g>
    <g id="ytick_7">
     <g id="line2d_15">
      <g>
       <use xlink:href="#m557bcc278e" x="50.64" y="26.176406" style="fill: #323034; stroke: #323034; stroke-width: 0.8"/>
      </g>
     </g>
     <g id="text_16">
      <!-- $\mathdefault{6}$ -->
      <g style="fill: #323034" transform="translate(35.64 31.640156) scale(0.16 -0.16)">
       <use xlink:href="#STIXGeneral-Regular-36" transform="translate(0 0.59375)"/>
      </g>
     </g>
    </g>
    <g id="text_17">
     <!-- e(murder | X) -->
     <g transform="translate(18.1275 180.416406) rotate(-90) scale(0.16 -0.16)">
      <defs>
       <path id="STIXGeneral-Regular-6d" d="M 4960 0 
L 3565 0 
L 3565 96 
Q 3834 122 3907 208 
Q 3981 294 3981 576 
L 3981 1894 
Q 3981 2278 3869 2444 
Q 3757 2611 3488 2611 
Q 3264 2611 3107 2521 
Q 2950 2432 2803 2221 
L 2803 608 
Q 2803 301 2896 201 
Q 2989 102 3264 96 
L 3264 0 
L 1830 0 
L 1830 96 
Q 2112 115 2189 188 
Q 2266 262 2266 550 
L 2266 1901 
Q 2266 2611 1850 2611 
Q 1670 2611 1468 2531 
Q 1267 2451 1171 2336 
Q 1088 2240 1088 2227 
L 1088 448 
Q 1088 243 1177 176 
Q 1267 109 1523 96 
L 1523 0 
L 102 0 
L 102 96 
Q 371 102 460 195 
Q 550 288 550 563 
L 550 2150 
Q 550 2387 499 2480 
Q 448 2573 326 2573 
Q 230 2573 122 2547 
L 122 2656 
Q 557 2778 1011 2944 
L 1062 2925 
L 1062 2451 
L 1075 2451 
Q 1363 2752 1584 2848 
Q 1805 2944 2054 2944 
Q 2560 2944 2733 2406 
Q 3232 2944 3776 2944 
Q 4518 2944 4518 1792 
L 4518 493 
Q 4518 282 4582 202 
Q 4646 122 4794 109 
L 4960 96 
L 4960 0 
z
" transform="scale(0.015625)"/>
       <path id="STIXGeneral-Regular-75" d="M 3072 320 
L 3072 230 
Q 2573 96 2195 -58 
L 2163 -38 
L 2163 486 
L 2150 486 
Q 1747 -64 1235 -64 
Q 870 -64 662 160 
Q 454 384 454 755 
L 454 2362 
Q 454 2598 371 2688 
Q 288 2778 58 2790 
L 58 2880 
L 992 2880 
L 992 813 
Q 992 595 1123 451 
Q 1254 307 1446 307 
Q 1760 307 1984 506 
Q 2067 582 2099 649 
Q 2131 717 2131 877 
L 2131 2355 
Q 2131 2605 2041 2678 
Q 1952 2752 1658 2771 
L 1658 2880 
L 2669 2880 
L 2669 685 
Q 2669 461 2742 390 
Q 2816 320 3034 320 
L 3072 320 
z
" transform="scale(0.015625)"/>
      </defs>
      <use xlink:href="#STIXGeneral-Regular-65"/>
      <use xlink:href="#STIXGeneral-Regular-28" transform="translate(44.399994 0)"/>
      <use xlink:href="#STIXGeneral-Regular-6d" transform="translate(77.699982 0)"/>
      <use xlink:href="#STIXGeneral-Regular-75" transform="translate(155.499969 0)"/>
      <use xlink:href="#STIXGeneral-Regular-72" transform="translate(205.499954 0)"/>
      <use xlink:href="#STIXGeneral-Regular-64" transform="translate(238.799942 0)"/>
      <use xlink:href="#STIXGeneral-Regular-65" transform="translate(288.799927 0)"/>
      <use xlink:href="#STIXGeneral-Regular-72" transform="translate(333.199921 0)"/>
      <use xlink:href="#STIXGeneral-Regular-20" transform="translate(366.499908 0)"/>
      <use xlink:href="#STIXGeneral-Regular-7c" transform="translate(391.499893 0)"/>
      <use xlink:href="#STIXGeneral-Regular-20" transform="translate(411.499878 0)"/>
      <use xlink:href="#STIXGeneral-Regular-58" transform="translate(436.499863 0)"/>
      <use xlink:href="#STIXGeneral-Regular-29" transform="translate(508.699844 0)"/>
     </g>
    </g>
   </g>
   <g id="line2d_16">
    <defs>
     <path id="m4cb6030db6" d="M 0 4.5 
C 1.193414 4.5 2.338109 4.025852 3.181981 3.181981 
C 4.025852 2.338109 4.5 1.193414 4.5 0 
C 4.5 -1.193414 4.025852 -2.338109 3.181981 -3.181981 
C 2.338109 -4.025852 1.193414 -4.5 0 -4.5 
C -1.193414 -4.5 -2.338109 -4.025852 -3.181981 -3.181981 
C -4.025852 -2.338109 -4.5 -1.193414 -4.5 0 
C -4.5 1.193414 -4.025852 2.338109 -3.181981 3.181981 
C -2.338109 4.025852 -1.193414 4.5 0 4.5 
z
" style="stroke: #000000"/>
    </defs>
    <g clip-path="url(#pc50bfd93cf)">
     <use xlink:href="#m4cb6030db6" x="173.41335" y="151.803179" style="fill: #bc80bd; stroke: #000000"/>
     <use xlink:href="#m4cb6030db6" x="231.512949" y="159.342604" style="fill: #bc80bd; stroke: #000000"/>
     <use xlink:href="#m4cb6030db6" x="257.897316" y="138.099985" style="fill: #bc80bd; stroke: #000000"/>
     <use xlink:href="#m4cb6030db6" x="200.463297" y="139.753121" style="fill: #bc80bd; stroke: #000000"/>
     <use xlink:href="#m4cb6030db6" x="98.947221" y="156.939013" style="fill: #bc80bd; stroke: #000000"/>
     <use xlink:href="#m4cb6030db6" x="313.859088" y="120.800884" style="fill: #bc80bd; stroke: #000000"/>
     <use xlink:href="#m4cb6030db6" x="214.474077" y="155.510035" style="fill: #bc80bd; stroke: #000000"/>
     <use xlink:href="#m4cb6030db6" x="192.09319" y="161.17024" style="fill: #bc80bd; stroke: #000000"/>
     <use xlink:href="#m4cb6030db6" x="459.327201" y="54.350683" style="fill: #bc80bd; stroke: #000000"/>
     <use xlink:href="#m4cb6030db6" x="262.562222" y="143.389051" style="fill: #bc80bd; stroke: #000000"/>
     <use xlink:href="#m4cb6030db6" x="230.141129" y="171.532712" style="fill: #bc80bd; stroke: #000000"/>
     <use xlink:href="#m4cb6030db6" x="279.671907" y="196.541028" style="fill: #bc80bd; stroke: #000000"/>
     <use xlink:href="#m4cb6030db6" x="279.156275" y="130.374084" style="fill: #bc80bd; stroke: #000000"/>
     <use xlink:href="#m4cb6030db6" x="242.542061" y="78.808911" style="fill: #bc80bd; stroke: #000000"/>
     <use xlink:href="#m4cb6030db6" x="244.525759" y="123.400837" style="fill: #bc80bd; stroke: #000000"/>
     <use xlink:href="#m4cb6030db6" x="267.122883" y="142.566316" style="fill: #bc80bd; stroke: #000000"/>
     <use xlink:href="#m4cb6030db6" x="300.643137" y="112.613625" style="fill: #bc80bd; stroke: #000000"/>
     <use xlink:href="#m4cb6030db6" x="173.912486" y="165.630907" style="fill: #bc80bd; stroke: #000000"/>
     <use xlink:href="#m4cb6030db6" x="193.710122" y="81.970697" style="fill: #bc80bd; stroke: #000000"/>
     <use xlink:href="#m4cb6030db6" x="249.256805" y="151.825314" style="fill: #bc80bd; stroke: #000000"/>
     <use xlink:href="#m4cb6030db6" x="194.507448" y="94.477261" style="fill: #bc80bd; stroke: #000000"/>
     <use xlink:href="#m4cb6030db6" x="259.756468" y="163.242117" style="fill: #bc80bd; stroke: #000000"/>
     <use xlink:href="#m4cb6030db6" x="346.627516" y="122.282206" style="fill: #bc80bd; stroke: #000000"/>
     <use xlink:href="#m4cb6030db6" x="302.6079" y="134.248856" style="fill: #bc80bd; stroke: #000000"/>
     <use xlink:href="#m4cb6030db6" x="209.366547" y="213.553695" style="fill: #bc80bd; stroke: #000000"/>
     <use xlink:href="#m4cb6030db6" x="253.302303" y="109.382557" style="fill: #bc80bd; stroke: #000000"/>
     <use xlink:href="#m4cb6030db6" x="341.734888" y="118.003378" style="fill: #bc80bd; stroke: #000000"/>
     <use xlink:href="#m4cb6030db6" x="277.589261" y="127.891264" style="fill: #bc80bd; stroke: #000000"/>
     <use xlink:href="#m4cb6030db6" x="151.856772" y="150.861894" style="fill: #bc80bd; stroke: #000000"/>
     <use xlink:href="#m4cb6030db6" x="211.994928" y="130.841045" style="fill: #bc80bd; stroke: #000000"/>
     <use xlink:href="#m4cb6030db6" x="188.599769" y="151.291401" style="fill: #bc80bd; stroke: #000000"/>
     <use xlink:href="#m4cb6030db6" x="217.099949" y="100.435069" style="fill: #bc80bd; stroke: #000000"/>
     <use xlink:href="#m4cb6030db6" x="221.743619" y="211.064207" style="fill: #bc80bd; stroke: #000000"/>
     <use xlink:href="#m4cb6030db6" x="217.691128" y="148.117499" style="fill: #bc80bd; stroke: #000000"/>
     <use xlink:href="#m4cb6030db6" x="246.555535" y="105.18472" style="fill: #bc80bd; stroke: #000000"/>
     <use xlink:href="#m4cb6030db6" x="309.502911" y="151.607824" style="fill: #bc80bd; stroke: #000000"/>
     <use xlink:href="#m4cb6030db6" x="241.980602" y="123.530269" style="fill: #bc80bd; stroke: #000000"/>
     <use xlink:href="#m4cb6030db6" x="324.430226" y="157.507836" style="fill: #bc80bd; stroke: #000000"/>
     <use xlink:href="#m4cb6030db6" x="252.79894" y="115.280086" style="fill: #bc80bd; stroke: #000000"/>
     <use xlink:href="#m4cb6030db6" x="157.86337" y="187.717203" style="fill: #bc80bd; stroke: #000000"/>
     <use xlink:href="#m4cb6030db6" x="220.765233" y="150.600521" style="fill: #bc80bd; stroke: #000000"/>
     <use xlink:href="#m4cb6030db6" x="294.82325" y="113.565539" style="fill: #bc80bd; stroke: #000000"/>
     <use xlink:href="#m4cb6030db6" x="200.088223" y="113.486984" style="fill: #bc80bd; stroke: #000000"/>
     <use xlink:href="#m4cb6030db6" x="134.607805" y="164.259129" style="fill: #bc80bd; stroke: #000000"/>
     <use xlink:href="#m4cb6030db6" x="313.767239" y="109.278744" style="fill: #bc80bd; stroke: #000000"/>
     <use xlink:href="#m4cb6030db6" x="236.205592" y="154.721534" style="fill: #bc80bd; stroke: #000000"/>
     <use xlink:href="#m4cb6030db6" x="155.7895" y="116.765373" style="fill: #bc80bd; stroke: #000000"/>
     <use xlink:href="#m4cb6030db6" x="308.614499" y="135.856929" style="fill: #bc80bd; stroke: #000000"/>
     <use xlink:href="#m4cb6030db6" x="170.308382" y="128.243262" style="fill: #bc80bd; stroke: #000000"/>
     <use xlink:href="#m4cb6030db6" x="284.97392" y="141.214309" style="fill: #bc80bd; stroke: #000000"/>
     <use xlink:href="#m4cb6030db6" x="226.882374" y="108.940777" style="fill: #bc80bd; stroke: #000000"/>
    </g>
   </g>
   <g id="line2d_17">
    <path d="M 50.64 170.977574 
L 497.04 91.828183 
" clip-path="url(#pc50bfd93cf)" style="fill: none; stroke: #000000; stroke-width: 3; stroke-linecap: square"/>
   </g>
   <g id="patch_3">
    <path d="M 50.64 247.936406 
L 50.64 26.176406 
" style="fill: none; stroke: #000000; stroke-width: 0.6; stroke-linejoin: miter; stroke-linecap: square"/>
   </g>
   <g id="patch_4">
    <path d="M 50.64 247.936406 
L 497.04 247.936406 
" style="fill: none; stroke: #000000; stroke-width: 0.6; stroke-linejoin: miter; stroke-linecap: square"/>
   </g>
   <g id="text_18">
    <!-- Alabama -->
    <g style="fill: #323034" transform="translate(160.416788 145.240554) scale(0.072 -0.072)">
     <defs>
      <path id="STIXGeneral-Regular-41" d="M 4525 0 
L 2893 0 
L 2893 122 
Q 3149 122 3245 179 
Q 3334 224 3334 333 
Q 3334 499 3213 781 
L 2950 1382 
L 1274 1382 
L 979 653 
Q 922 506 922 384 
Q 922 237 1027 179 
Q 1133 122 1370 122 
L 1370 0 
L 96 0 
L 96 122 
Q 365 147 486 316 
Q 608 486 902 1190 
L 2221 4314 
L 2349 4314 
L 3923 710 
Q 4064 378 4176 262 
Q 4288 147 4525 122 
L 4525 0 
z
M 2861 1645 
L 2118 3405 
L 1382 1645 
L 2861 1645 
z
" transform="scale(0.015625)"/>
      <path id="STIXGeneral-Regular-6c" d="M 1645 0 
L 134 0 
L 134 96 
Q 435 122 531 221 
Q 627 320 627 589 
L 627 3590 
Q 627 3821 569 3910 
Q 512 4000 358 4000 
Q 224 4000 122 3987 
L 122 4090 
Q 730 4237 1133 4371 
L 1165 4346 
L 1165 557 
Q 1165 288 1254 201 
Q 1344 115 1645 96 
L 1645 0 
z
" transform="scale(0.015625)"/>
      <path id="STIXGeneral-Regular-62" d="M 979 4358 
L 979 2406 
Q 1082 2650 1315 2797 
Q 1549 2944 1843 2944 
Q 2349 2944 2672 2541 
Q 2995 2138 2995 1536 
Q 2995 832 2566 384 
Q 2138 -64 1498 -64 
Q 1107 -64 774 67 
Q 442 198 442 358 
L 442 3622 
Q 442 3859 384 3926 
Q 326 3994 128 3994 
Q 83 3994 19 3981 
L 19 4090 
L 211 4147 
Q 864 4346 947 4371 
L 979 4358 
z
M 979 2035 
L 979 474 
Q 979 326 1161 233 
Q 1344 141 1600 141 
Q 1978 141 2195 416 
Q 2432 710 2432 1261 
Q 2432 1888 2182 2240 
Q 1971 2541 1613 2541 
Q 1357 2541 1168 2390 
Q 979 2240 979 2035 
z
" transform="scale(0.015625)"/>
     </defs>
     <use xlink:href="#STIXGeneral-Regular-41"/>
     <use xlink:href="#STIXGeneral-Regular-6c" transform="translate(72.199982 0)"/>
     <use xlink:href="#STIXGeneral-Regular-61" transform="translate(99.999969 0)"/>
     <use xlink:href="#STIXGeneral-Regular-62" transform="translate(144.399963 0)"/>
     <use xlink:href="#STIXGeneral-Regular-61" transform="translate(194.399948 0)"/>
     <use xlink:href="#STIXGeneral-Regular-6d" transform="translate(238.799942 0)"/>
     <use xlink:href="#STIXGeneral-Regular-61" transform="translate(316.59993 0)"/>
    </g>
   </g>
   <g id="text_19">
    <!-- Alaska -->
    <g style="fill: #323034" transform="translate(221.515074 152.779979) scale(0.072 -0.072)">
     <defs>
      <path id="STIXGeneral-Regular-6b" d="M 3232 0 
L 1837 0 
L 1837 96 
L 1958 96 
Q 2093 96 2093 192 
Q 2093 250 2022 339 
L 1062 1606 
L 1062 429 
Q 1062 262 1142 185 
Q 1222 109 1414 102 
L 1542 96 
L 1542 0 
L 45 0 
L 45 96 
Q 390 154 457 214 
Q 525 275 525 525 
L 525 3610 
Q 525 3840 467 3920 
Q 410 4000 250 4000 
Q 211 4000 45 3987 
L 45 4090 
L 237 4141 
Q 621 4243 1037 4371 
L 1062 4358 
L 1062 1670 
L 1939 2451 
Q 2086 2586 2086 2675 
Q 2086 2739 2019 2761 
Q 1952 2784 1766 2790 
L 1766 2880 
L 3072 2880 
L 3072 2784 
Q 2752 2784 2505 2646 
Q 2259 2509 1690 1978 
L 1504 1805 
L 2483 563 
Q 2829 122 3232 96 
L 3232 0 
z
" transform="scale(0.015625)"/>
     </defs>
     <use xlink:href="#STIXGeneral-Regular-41"/>
     <use xlink:href="#STIXGeneral-Regular-6c" transform="translate(72.199982 0)"/>
     <use xlink:href="#STIXGeneral-Regular-61" transform="translate(99.999969 0)"/>
     <use xlink:href="#STIXGeneral-Regular-73" transform="translate(144.399963 0)"/>
     <use xlink:href="#STIXGeneral-Regular-6b" transform="translate(183.299957 0)"/>
     <use xlink:href="#STIXGeneral-Regular-61" transform="translate(233.299942 0)"/>
    </g>
   </g>
   <g id="text_20">
    <!-- Arizona -->
    <g style="fill: #323034" transform="translate(246.301379 131.53736) scale(0.072 -0.072)">
     <defs>
      <path id="STIXGeneral-Regular-69" d="M 1152 4045 
Q 1152 3904 1056 3811 
Q 960 3718 819 3718 
Q 685 3718 592 3811 
Q 499 3904 499 4045 
Q 499 4179 595 4275 
Q 691 4371 826 4371 
Q 966 4371 1059 4275 
Q 1152 4179 1152 4045 
z
M 1619 0 
L 102 0 
L 102 96 
Q 435 115 521 211 
Q 608 307 608 666 
L 608 2118 
Q 608 2342 563 2432 
Q 518 2522 397 2522 
Q 243 2522 128 2490 
L 128 2592 
L 1120 2944 
L 1146 2918 
L 1146 672 
Q 1146 314 1226 218 
Q 1306 122 1619 96 
L 1619 0 
z
" transform="scale(0.015625)"/>
      <path id="STIXGeneral-Regular-7a" d="M 2675 870 
L 2579 0 
L 173 0 
L 173 96 
L 1875 2688 
L 1011 2688 
Q 710 2688 604 2582 
Q 499 2477 454 2125 
L 339 2125 
L 365 2880 
L 2579 2880 
L 2579 2784 
L 858 192 
L 1709 192 
Q 2246 192 2387 365 
Q 2477 474 2560 896 
L 2675 870 
z
" transform="scale(0.015625)"/>
      <path id="STIXGeneral-Regular-6f" d="M 3008 1478 
Q 3008 806 2608 371 
Q 2208 -64 1568 -64 
Q 979 -64 582 368 
Q 186 800 186 1459 
Q 186 2125 582 2534 
Q 979 2944 1626 2944 
Q 2221 2944 2614 2537 
Q 3008 2131 3008 1478 
z
M 2432 1306 
Q 2432 2035 2112 2445 
Q 1856 2765 1504 2765 
Q 1171 2765 966 2493 
Q 762 2221 762 1747 
Q 762 928 1101 435 
Q 1318 115 1677 115 
Q 2029 115 2230 432 
Q 2432 749 2432 1306 
z
" transform="scale(0.015625)"/>
      <path id="STIXGeneral-Regular-6e" d="M 3104 0 
L 1773 0 
L 1779 96 
Q 2016 115 2096 233 
Q 2176 352 2176 672 
L 2176 1946 
Q 2176 2592 1709 2592 
Q 1549 2592 1408 2515 
Q 1267 2438 1050 2227 
L 1050 461 
Q 1050 269 1136 192 
Q 1222 115 1466 96 
L 1466 0 
L 115 0 
L 115 96 
Q 358 115 435 214 
Q 512 314 512 602 
L 512 2157 
Q 512 2394 467 2483 
Q 422 2573 288 2573 
Q 160 2573 102 2547 
L 102 2656 
Q 550 2784 979 2944 
L 1030 2925 
L 1030 2426 
L 1037 2426 
Q 1491 2944 1958 2944 
Q 2323 2944 2518 2688 
Q 2714 2432 2714 1958 
L 2714 544 
Q 2714 288 2790 205 
Q 2867 122 3104 96 
L 3104 0 
z
" transform="scale(0.015625)"/>
     </defs>
     <use xlink:href="#STIXGeneral-Regular-41"/>
     <use xlink:href="#STIXGeneral-Regular-72" transform="translate(72.199982 0)"/>
     <use xlink:href="#STIXGeneral-Regular-69" transform="translate(105.499969 0)"/>
     <use xlink:href="#STIXGeneral-Regular-7a" transform="translate(133.299957 0)"/>
     <use xlink:href="#STIXGeneral-Regular-6f" transform="translate(177.699951 0)"/>
     <use xlink:href="#STIXGeneral-Regular-6e" transform="translate(227.699936 0)"/>
     <use xlink:href="#STIXGeneral-Regular-61" transform="translate(277.699921 0)"/>
    </g>
   </g>
   <g id="text_21">
    <!-- Arkansas -->
    <g style="fill: #323034" transform="translate(187.066797 133.190496) scale(0.072 -0.072)">
     <use xlink:href="#STIXGeneral-Regular-41"/>
     <use xlink:href="#STIXGeneral-Regular-72" transform="translate(72.199982 0)"/>
     <use xlink:href="#STIXGeneral-Regular-6b" transform="translate(105.499969 0)"/>
     <use xlink:href="#STIXGeneral-Regular-61" transform="translate(155.499954 0)"/>
     <use xlink:href="#STIXGeneral-Regular-6e" transform="translate(199.899948 0)"/>
     <use xlink:href="#STIXGeneral-Regular-73" transform="translate(249.899933 0)"/>
     <use xlink:href="#STIXGeneral-Regular-61" transform="translate(288.799927 0)"/>
     <use xlink:href="#STIXGeneral-Regular-73" transform="translate(333.199921 0)"/>
    </g>
   </g>
   <g id="text_22">
    <!-- California -->
    <g style="fill: #323034" transform="translate(84.349221 150.376388) scale(0.072 -0.072)">
     <defs>
      <path id="STIXGeneral-Regular-43" d="M 3930 838 
L 4051 723 
Q 3482 -90 2304 -90 
Q 1376 -90 794 480 
Q 179 1082 179 2080 
Q 179 3014 755 3661 
Q 1357 4326 2310 4326 
Q 2720 4326 3072 4230 
Q 3475 4115 3514 4115 
Q 3725 4115 3782 4326 
L 3910 4326 
L 3968 2874 
L 3821 2874 
Q 3718 3334 3488 3584 
Q 3034 4070 2458 4070 
Q 1747 4070 1334 3548 
Q 922 3027 922 2182 
Q 922 1152 1382 653 
Q 1811 192 2522 192 
Q 2944 192 3251 339 
Q 3558 486 3930 838 
z
" transform="scale(0.015625)"/>
      <path id="STIXGeneral-Regular-66" d="M 134 2880 
L 659 2880 
Q 666 3264 710 3478 
Q 755 3693 883 3910 
Q 1152 4371 1786 4371 
Q 2074 4371 2262 4259 
Q 2451 4147 2451 3974 
Q 2451 3866 2374 3789 
Q 2298 3712 2182 3712 
Q 2029 3712 1894 3942 
Q 1741 4192 1555 4192 
Q 1197 4192 1197 3622 
L 1197 2880 
L 1978 2880 
L 1978 2675 
L 1197 2675 
L 1197 666 
Q 1197 307 1299 208 
Q 1402 109 1792 96 
L 1792 0 
L 128 0 
L 128 96 
Q 474 115 566 214 
Q 659 314 659 666 
L 659 2675 
L 134 2675 
L 134 2880 
z
" transform="scale(0.015625)"/>
     </defs>
     <use xlink:href="#STIXGeneral-Regular-43"/>
     <use xlink:href="#STIXGeneral-Regular-61" transform="translate(66.699997 0)"/>
     <use xlink:href="#STIXGeneral-Regular-6c" transform="translate(111.099991 0)"/>
     <use xlink:href="#STIXGeneral-Regular-69" transform="translate(138.899979 0)"/>
     <use xlink:href="#STIXGeneral-Regular-66" transform="translate(166.699966 0)"/>
     <use xlink:href="#STIXGeneral-Regular-6f" transform="translate(199.999954 0)"/>
     <use xlink:href="#STIXGeneral-Regular-72" transform="translate(249.999939 0)"/>
     <use xlink:href="#STIXGeneral-Regular-6e" transform="translate(283.299927 0)"/>
     <use xlink:href="#STIXGeneral-Regular-69" transform="translate(333.299911 0)"/>
     <use xlink:href="#STIXGeneral-Regular-61" transform="translate(361.099899 0)"/>
    </g>
   </g>
   <g id="text_23">
    <!-- Colorado -->
    <g style="fill: #323034" transform="translate(300.459775 114.238259) scale(0.072 -0.072)">
     <use xlink:href="#STIXGeneral-Regular-43"/>
     <use xlink:href="#STIXGeneral-Regular-6f" transform="translate(66.699997 0)"/>
     <use xlink:href="#STIXGeneral-Regular-6c" transform="translate(116.699982 0)"/>
     <use xlink:href="#STIXGeneral-Regular-6f" transform="translate(144.499969 0)"/>
     <use xlink:href="#STIXGeneral-Regular-72" transform="translate(194.499954 0)"/>
     <use xlink:href="#STIXGeneral-Regular-61" transform="translate(227.799942 0)"/>
     <use xlink:href="#STIXGeneral-Regular-64" transform="translate(272.199936 0)"/>
     <use xlink:href="#STIXGeneral-Regular-6f" transform="translate(322.199921 0)"/>
    </g>
   </g>
   <g id="text_24">
    <!-- Connecticut -->
    <g style="fill: #323034" transform="translate(197.074827 148.94741) scale(0.072 -0.072)">
     <defs>
      <path id="STIXGeneral-Regular-63" d="M 2547 998 
L 2637 941 
Q 2362 403 2112 205 
Q 1786 -64 1376 -64 
Q 845 -64 502 336 
Q 160 736 160 1357 
Q 160 2170 698 2618 
Q 1094 2944 1562 2944 
Q 1965 2944 2256 2749 
Q 2547 2554 2547 2285 
Q 2547 2176 2457 2096 
Q 2368 2016 2246 2016 
Q 2022 2016 1939 2310 
L 1901 2451 
Q 1850 2630 1773 2694 
Q 1696 2758 1523 2758 
Q 1133 2758 893 2451 
Q 653 2144 653 1645 
Q 653 1094 928 745 
Q 1203 397 1645 397 
Q 1920 397 2118 528 
Q 2317 659 2547 998 
z
" transform="scale(0.015625)"/>
      <path id="STIXGeneral-Regular-74" d="M 1702 493 
L 1786 422 
Q 1478 -64 1011 -64 
Q 448 -64 448 749 
L 448 2675 
L 109 2675 
Q 83 2694 83 2720 
Q 83 2771 192 2842 
Q 435 2982 813 3526 
Q 826 3546 874 3606 
Q 922 3667 941 3706 
Q 986 3706 986 3622 
L 986 2880 
L 1632 2880 
L 1632 2675 
L 986 2675 
L 986 845 
Q 986 538 1062 403 
Q 1139 269 1318 269 
Q 1510 269 1702 493 
z
" transform="scale(0.015625)"/>
     </defs>
     <use xlink:href="#STIXGeneral-Regular-43"/>
     <use xlink:href="#STIXGeneral-Regular-6f" transform="translate(66.699997 0)"/>
     <use xlink:href="#STIXGeneral-Regular-6e" transform="translate(116.699982 0)"/>
     <use xlink:href="#STIXGeneral-Regular-6e" transform="translate(166.699966 0)"/>
     <use xlink:href="#STIXGeneral-Regular-65" transform="translate(216.699951 0)"/>
     <use xlink:href="#STIXGeneral-Regular-63" transform="translate(261.099945 0)"/>
     <use xlink:href="#STIXGeneral-Regular-74" transform="translate(305.499939 0)"/>
     <use xlink:href="#STIXGeneral-Regular-69" transform="translate(333.299927 0)"/>
     <use xlink:href="#STIXGeneral-Regular-63" transform="translate(361.099915 0)"/>
     <use xlink:href="#STIXGeneral-Regular-75" transform="translate(405.499908 0)"/>
     <use xlink:href="#STIXGeneral-Regular-74" transform="translate(455.499893 0)"/>
    </g>
   </g>
   <g id="text_25">
    <!-- Delaware -->
    <g style="fill: #323034" transform="translate(178.30069 154.607615) scale(0.072 -0.072)">
     <defs>
      <path id="STIXGeneral-Regular-44" d="M 102 4237 
L 1830 4237 
Q 3078 4237 3750 3654 
Q 4384 3110 4384 2138 
Q 4384 966 3514 410 
Q 2880 0 1901 0 
L 102 0 
L 102 122 
Q 474 147 570 252 
Q 666 358 666 736 
L 666 3520 
Q 666 3891 570 3990 
Q 474 4090 102 4115 
L 102 4237 
z
M 1318 3731 
L 1318 538 
Q 1318 365 1379 301 
Q 1440 237 1626 237 
Q 2125 237 2432 307 
Q 2739 378 3021 570 
Q 3686 1018 3686 2099 
Q 3686 3027 3078 3558 
Q 2803 3802 2476 3901 
Q 2150 4000 1658 4000 
Q 1472 4000 1395 3942 
Q 1318 3885 1318 3731 
z
" transform="scale(0.015625)"/>
      <path id="STIXGeneral-Regular-77" d="M 4442 2880 
L 4442 2784 
Q 4346 2752 4301 2691 
Q 4256 2630 4179 2438 
L 3296 224 
Q 3168 -90 3117 -90 
Q 3085 -90 3062 -48 
Q 3040 -6 2963 186 
L 2381 1696 
L 1664 160 
Q 1549 -90 1504 -90 
Q 1446 -90 1338 192 
L 474 2381 
Q 378 2630 314 2700 
Q 250 2771 134 2784 
L 134 2880 
L 1286 2880 
L 1286 2784 
Q 1120 2765 1056 2720 
Q 992 2675 992 2573 
Q 992 2477 1030 2381 
L 1664 710 
L 2246 1984 
L 2118 2342 
Q 2029 2598 1942 2681 
Q 1856 2765 1677 2784 
L 1677 2880 
L 2976 2880 
L 2976 2784 
Q 2752 2752 2678 2707 
Q 2605 2662 2605 2560 
Q 2605 2458 2714 2176 
L 3251 742 
L 3827 2163 
Q 3936 2432 3936 2592 
Q 3936 2669 3875 2710 
Q 3814 2752 3654 2784 
L 3654 2880 
L 4442 2880 
z
" transform="scale(0.015625)"/>
     </defs>
     <use xlink:href="#STIXGeneral-Regular-44"/>
     <use xlink:href="#STIXGeneral-Regular-65" transform="translate(72.199982 0)"/>
     <use xlink:href="#STIXGeneral-Regular-6c" transform="translate(116.599976 0)"/>
     <use xlink:href="#STIXGeneral-Regular-61" transform="translate(144.399963 0)"/>
     <use xlink:href="#STIXGeneral-Regular-77" transform="translate(188.799957 0)"/>
     <use xlink:href="#STIXGeneral-Regular-61" transform="translate(260.999939 0)"/>
     <use xlink:href="#STIXGeneral-Regular-72" transform="translate(305.399933 0)"/>
     <use xlink:href="#STIXGeneral-Regular-65" transform="translate(338.699921 0)"/>
    </g>
   </g>
   <g id="text_26">
    <!-- District of Columbia -->
    <g style="fill: #323034" transform="translate(429.526513 47.788058) scale(0.072 -0.072)">
     <use xlink:href="#STIXGeneral-Regular-44"/>
     <use xlink:href="#STIXGeneral-Regular-69" transform="translate(72.199982 0)"/>
     <use xlink:href="#STIXGeneral-Regular-73" transform="translate(99.999969 0)"/>
     <use xlink:href="#STIXGeneral-Regular-74" transform="translate(138.899963 0)"/>
     <use xlink:href="#STIXGeneral-Regular-72" transform="translate(166.699951 0)"/>
     <use xlink:href="#STIXGeneral-Regular-69" transform="translate(199.999939 0)"/>
     <use xlink:href="#STIXGeneral-Regular-63" transform="translate(227.799927 0)"/>
     <use xlink:href="#STIXGeneral-Regular-74" transform="translate(272.199921 0)"/>
     <use xlink:href="#STIXGeneral-Regular-20" transform="translate(299.999908 0)"/>
     <use xlink:href="#STIXGeneral-Regular-6f" transform="translate(324.999893 0)"/>
     <use xlink:href="#STIXGeneral-Regular-66" transform="translate(374.999878 0)"/>
     <use xlink:href="#STIXGeneral-Regular-20" transform="translate(408.299866 0)"/>
     <use xlink:href="#STIXGeneral-Regular-43" transform="translate(433.29985 0)"/>
     <use xlink:href="#STIXGeneral-Regular-6f" transform="translate(499.999847 0)"/>
     <use xlink:href="#STIXGeneral-Regular-6c" transform="translate(549.999832 0)"/>
     <use xlink:href="#STIXGeneral-Regular-75" transform="translate(577.79982 0)"/>
     <use xlink:href="#STIXGeneral-Regular-6d" transform="translate(627.799805 0)"/>
     <use xlink:href="#STIXGeneral-Regular-62" transform="translate(705.599792 0)"/>
     <use xlink:href="#STIXGeneral-Regular-69" transform="translate(755.599777 0)"/>
     <use xlink:href="#STIXGeneral-Regular-61" transform="translate(783.399765 0)"/>
    </g>
   </g>
   <g id="text_27">
    <!-- Florida -->
    <g style="fill: #323034" transform="translate(252.162159 136.826426) scale(0.072 -0.072)">
     <defs>
      <path id="STIXGeneral-Regular-46" d="M 3494 3322 
L 3334 3322 
Q 3264 3757 3094 3875 
Q 2925 3994 2349 3994 
L 1504 3994 
Q 1370 3994 1328 3946 
Q 1286 3898 1286 3744 
L 1286 2355 
L 2195 2355 
Q 2598 2355 2736 2470 
Q 2874 2586 2918 2963 
L 3066 2963 
L 3066 1472 
L 2918 1472 
Q 2880 1862 2745 1977 
Q 2611 2093 2195 2093 
L 1286 2093 
L 1286 717 
Q 1286 352 1392 246 
Q 1498 141 1869 122 
L 1869 0 
L 70 0 
L 70 122 
Q 435 147 534 259 
Q 634 371 634 787 
L 634 3526 
Q 634 3878 538 3984 
Q 442 4090 77 4115 
L 77 4237 
L 3462 4237 
L 3494 3322 
z
" transform="scale(0.015625)"/>
     </defs>
     <use xlink:href="#STIXGeneral-Regular-46"/>
     <use xlink:href="#STIXGeneral-Regular-6c" transform="translate(55.599991 0)"/>
     <use xlink:href="#STIXGeneral-Regular-6f" transform="translate(83.399979 0)"/>
     <use xlink:href="#STIXGeneral-Regular-72" transform="translate(133.399963 0)"/>
     <use xlink:href="#STIXGeneral-Regular-69" transform="translate(166.699951 0)"/>
     <use xlink:href="#STIXGeneral-Regular-64" transform="translate(194.499939 0)"/>
     <use xlink:href="#STIXGeneral-Regular-61" transform="translate(244.499924 0)"/>
    </g>
   </g>
   <g id="text_28">
    <!-- Georgia -->
    <g style="fill: #323034" transform="translate(218.545192 164.963337) scale(0.072 -0.072)">
     <defs>
      <path id="STIXGeneral-Regular-47" d="M 4538 2266 
L 4538 2150 
Q 4256 2125 4173 2035 
Q 4090 1946 4090 1638 
L 4090 358 
Q 3539 -90 2464 -90 
Q 1965 -90 1507 89 
Q 1050 269 736 595 
Q 205 1152 205 2093 
Q 205 3155 890 3776 
Q 1491 4326 2419 4326 
Q 2829 4326 3270 4179 
Q 3443 4115 3552 4115 
Q 3654 4115 3731 4176 
Q 3808 4237 3840 4326 
L 3981 4326 
L 4032 2976 
L 3885 2976 
Q 3680 3475 3430 3718 
Q 3059 4070 2496 4070 
Q 1856 4070 1427 3629 
Q 934 3136 934 2074 
Q 934 1190 1395 678 
Q 1856 166 2618 166 
Q 2982 166 3225 281 
Q 3469 397 3469 557 
L 3469 1562 
Q 3469 1933 3376 2025 
Q 3283 2118 2899 2150 
L 2899 2266 
L 4538 2266 
z
" transform="scale(0.015625)"/>
     </defs>
     <use xlink:href="#STIXGeneral-Regular-47"/>
     <use xlink:href="#STIXGeneral-Regular-65" transform="translate(72.199982 0)"/>
     <use xlink:href="#STIXGeneral-Regular-6f" transform="translate(116.599976 0)"/>
     <use xlink:href="#STIXGeneral-Regular-72" transform="translate(166.59996 0)"/>
     <use xlink:href="#STIXGeneral-Regular-67" transform="translate(199.899948 0)"/>
     <use xlink:href="#STIXGeneral-Regular-69" transform="translate(249.899933 0)"/>
     <use xlink:href="#STIXGeneral-Regular-61" transform="translate(277.699921 0)"/>
    </g>
   </g>
   <g id="text_29">
    <!-- Hawaii -->
    <g style="fill: #323034" transform="translate(269.274657 189.978403) scale(0.072 -0.072)">
     <defs>
      <path id="STIXGeneral-Regular-48" d="M 4499 0 
L 2714 0 
L 2714 122 
Q 3085 147 3181 265 
Q 3277 384 3277 794 
L 3277 2016 
L 1338 2016 
L 1338 723 
Q 1338 371 1440 256 
Q 1542 141 1894 122 
L 1901 0 
L 115 0 
L 115 122 
Q 493 147 589 259 
Q 685 371 685 781 
L 685 3507 
Q 685 3878 585 3980 
Q 486 4083 115 4115 
L 115 4237 
L 1907 4237 
L 1907 4115 
Q 1549 4083 1443 3977 
Q 1338 3872 1338 3507 
L 1338 2298 
L 3277 2298 
L 3277 3507 
Q 3277 3878 3177 3980 
Q 3078 4083 2707 4115 
L 2707 4237 
L 4499 4237 
L 4499 4115 
Q 4141 4083 4035 3977 
Q 3930 3872 3930 3507 
L 3930 710 
Q 3930 371 4035 259 
Q 4141 147 4499 122 
L 4499 0 
z
" transform="scale(0.015625)"/>
     </defs>
     <use xlink:href="#STIXGeneral-Regular-48"/>
     <use xlink:href="#STIXGeneral-Regular-61" transform="translate(72.199982 0)"/>
     <use xlink:href="#STIXGeneral-Regular-77" transform="translate(116.599976 0)"/>
     <use xlink:href="#STIXGeneral-Regular-61" transform="translate(188.799957 0)"/>
     <use xlink:href="#STIXGeneral-Regular-69" transform="translate(233.199951 0)"/>
     <use xlink:href="#STIXGeneral-Regular-69" transform="translate(260.999939 0)"/>
    </g>
   </g>
   <g id="text_30">
    <!-- Idaho -->
    <g style="fill: #323034" transform="translate(270.958963 123.811459) scale(0.072 -0.072)">
     <defs>
      <path id="STIXGeneral-Regular-49" d="M 2016 0 
L 115 0 
L 115 122 
Q 518 134 627 240 
Q 736 346 736 717 
L 736 3526 
Q 736 3898 633 3994 
Q 531 4090 115 4115 
L 115 4237 
L 2016 4237 
L 2016 4115 
Q 1613 4096 1501 3993 
Q 1389 3891 1389 3526 
L 1389 717 
Q 1389 358 1504 246 
Q 1619 134 2016 122 
L 2016 0 
z
" transform="scale(0.015625)"/>
     </defs>
     <use xlink:href="#STIXGeneral-Regular-49"/>
     <use xlink:href="#STIXGeneral-Regular-64" transform="translate(33.299988 0)"/>
     <use xlink:href="#STIXGeneral-Regular-61" transform="translate(83.299973 0)"/>
     <use xlink:href="#STIXGeneral-Regular-68" transform="translate(127.699966 0)"/>
     <use xlink:href="#STIXGeneral-Regular-6f" transform="translate(177.699951 0)"/>
    </g>
   </g>
   <g id="text_31">
    <!-- Illinois -->
    <g style="fill: #323034" transform="translate(232.339999 72.246286) scale(0.072 -0.072)">
     <use xlink:href="#STIXGeneral-Regular-49"/>
     <use xlink:href="#STIXGeneral-Regular-6c" transform="translate(33.299988 0)"/>
     <use xlink:href="#STIXGeneral-Regular-6c" transform="translate(61.099976 0)"/>
     <use xlink:href="#STIXGeneral-Regular-69" transform="translate(88.899963 0)"/>
     <use xlink:href="#STIXGeneral-Regular-6e" transform="translate(116.699951 0)"/>
     <use xlink:href="#STIXGeneral-Regular-6f" transform="translate(166.699936 0)"/>
     <use xlink:href="#STIXGeneral-Regular-69" transform="translate(216.699921 0)"/>
     <use xlink:href="#STIXGeneral-Regular-73" transform="translate(244.499908 0)"/>
    </g>
   </g>
   <g id="text_32">
    <!-- Indiana -->
    <g style="fill: #323034" transform="translate(233.729134 116.838212) scale(0.072 -0.072)">
     <use xlink:href="#STIXGeneral-Regular-49"/>
     <use xlink:href="#STIXGeneral-Regular-6e" transform="translate(33.299988 0)"/>
     <use xlink:href="#STIXGeneral-Regular-64" transform="translate(83.299973 0)"/>
     <use xlink:href="#STIXGeneral-Regular-69" transform="translate(133.299957 0)"/>
     <use xlink:href="#STIXGeneral-Regular-61" transform="translate(161.099945 0)"/>
     <use xlink:href="#STIXGeneral-Regular-6e" transform="translate(205.499939 0)"/>
     <use xlink:href="#STIXGeneral-Regular-61" transform="translate(255.499924 0)"/>
    </g>
   </g>
   <g id="text_33">
    <!-- Iowa -->
    <g style="fill: #323034" transform="translate(259.926258 136.003691) scale(0.072 -0.072)">
     <use xlink:href="#STIXGeneral-Regular-49"/>
     <use xlink:href="#STIXGeneral-Regular-6f" transform="translate(33.299988 0)"/>
     <use xlink:href="#STIXGeneral-Regular-77" transform="translate(83.299973 0)"/>
     <use xlink:href="#STIXGeneral-Regular-61" transform="translate(155.499954 0)"/>
    </g>
   </g>
   <g id="text_34">
    <!-- Kansas  -->
    <g style="fill: #323034" transform="translate(289.345324 106.051) scale(0.072 -0.072)">
     <defs>
      <path id="STIXGeneral-Regular-4b" d="M 4627 0 
L 2688 0 
L 2688 122 
L 2861 128 
Q 3130 134 3130 282 
Q 3130 397 2922 643 
Q 2714 890 2253 1370 
L 1613 2029 
L 1446 1894 
L 1446 710 
Q 1446 352 1548 253 
Q 1651 154 2016 122 
L 2016 0 
L 211 0 
L 211 122 
Q 589 141 691 262 
Q 794 384 794 800 
L 794 3514 
Q 794 3872 691 3981 
Q 589 4090 218 4115 
L 218 4237 
L 2022 4237 
L 2022 4115 
Q 1632 4090 1539 3987 
Q 1446 3885 1446 3507 
L 1446 2227 
L 2586 3277 
Q 2861 3533 2973 3667 
Q 3085 3802 3085 3910 
Q 3085 4013 3030 4057 
Q 2976 4102 2822 4109 
L 2662 4115 
L 2662 4237 
L 4320 4237 
L 4320 4115 
Q 3994 4090 3824 4003 
Q 3654 3917 3322 3597 
L 2131 2458 
L 3629 819 
Q 4026 384 4214 253 
Q 4403 122 4627 122 
L 4627 0 
z
" transform="scale(0.015625)"/>
     </defs>
     <use xlink:href="#STIXGeneral-Regular-4b"/>
     <use xlink:href="#STIXGeneral-Regular-61" transform="translate(72.199982 0)"/>
     <use xlink:href="#STIXGeneral-Regular-6e" transform="translate(116.599976 0)"/>
     <use xlink:href="#STIXGeneral-Regular-73" transform="translate(166.59996 0)"/>
     <use xlink:href="#STIXGeneral-Regular-61" transform="translate(205.499954 0)"/>
     <use xlink:href="#STIXGeneral-Regular-73" transform="translate(249.899948 0)"/>
     <use xlink:href="#STIXGeneral-Regular-20" transform="translate(288.799942 0)"/>
    </g>
   </g>
   <g id="text_35">
    <!-- Kentucky  -->
    <g style="fill: #323034" transform="translate(159.015236 159.061532) scale(0.072 -0.072)">
     <defs>
      <path id="STIXGeneral-Regular-79" d="M 3040 2880 
L 3040 2784 
Q 2925 2771 2854 2700 
Q 2784 2630 2720 2458 
L 1760 -160 
Q 1510 -838 1257 -1116 
Q 1005 -1395 640 -1395 
Q 435 -1395 313 -1289 
Q 192 -1184 192 -1024 
Q 192 -902 272 -816 
Q 352 -730 467 -730 
Q 653 -730 800 -813 
Q 883 -858 966 -858 
Q 1101 -858 1286 -576 
Q 1376 -448 1459 -211 
Q 1542 26 1542 115 
Q 1542 198 1274 762 
L 429 2566 
Q 346 2752 90 2790 
L 90 2880 
L 1402 2880 
L 1402 2784 
Q 1197 2778 1117 2739 
Q 1037 2701 1037 2611 
Q 1037 2541 1120 2349 
L 1837 749 
L 2458 2515 
Q 2483 2573 2483 2630 
Q 2483 2784 2189 2784 
L 2189 2880 
L 3040 2880 
z
" transform="scale(0.015625)"/>
     </defs>
     <use xlink:href="#STIXGeneral-Regular-4b"/>
     <use xlink:href="#STIXGeneral-Regular-65" transform="translate(72.199982 0)"/>
     <use xlink:href="#STIXGeneral-Regular-6e" transform="translate(116.599976 0)"/>
     <use xlink:href="#STIXGeneral-Regular-74" transform="translate(166.59996 0)"/>
     <use xlink:href="#STIXGeneral-Regular-75" transform="translate(194.399948 0)"/>
     <use xlink:href="#STIXGeneral-Regular-63" transform="translate(244.399933 0)"/>
     <use xlink:href="#STIXGeneral-Regular-6b" transform="translate(288.799927 0)"/>
     <use xlink:href="#STIXGeneral-Regular-79" transform="translate(338.799911 0)"/>
     <use xlink:href="#STIXGeneral-Regular-20" transform="translate(388.799896 0)"/>
    </g>
   </g>
   <g id="text_36">
    <!-- Louisiana -->
    <g style="fill: #323034" transform="translate(179.511497 75.408072) scale(0.072 -0.072)">
     <defs>
      <path id="STIXGeneral-Regular-4c" d="M 3827 1114 
L 3520 0 
L 77 0 
L 77 122 
Q 429 141 531 256 
Q 634 371 634 736 
L 634 3494 
Q 634 3872 541 3981 
Q 448 4090 77 4115 
L 77 4237 
L 1888 4237 
L 1888 4115 
Q 1498 4090 1392 3984 
Q 1286 3878 1286 3507 
L 1286 538 
Q 1286 358 1398 304 
Q 1510 250 1862 250 
L 2310 250 
Q 3085 250 3392 640 
Q 3520 813 3661 1114 
L 3827 1114 
z
" transform="scale(0.015625)"/>
     </defs>
     <use xlink:href="#STIXGeneral-Regular-4c"/>
     <use xlink:href="#STIXGeneral-Regular-6f" transform="translate(61.099991 0)"/>
     <use xlink:href="#STIXGeneral-Regular-75" transform="translate(111.099976 0)"/>
     <use xlink:href="#STIXGeneral-Regular-69" transform="translate(161.09996 0)"/>
     <use xlink:href="#STIXGeneral-Regular-73" transform="translate(188.899948 0)"/>
     <use xlink:href="#STIXGeneral-Regular-69" transform="translate(227.799942 0)"/>
     <use xlink:href="#STIXGeneral-Regular-61" transform="translate(255.59993 0)"/>
     <use xlink:href="#STIXGeneral-Regular-6e" transform="translate(299.999924 0)"/>
     <use xlink:href="#STIXGeneral-Regular-61" transform="translate(349.999908 0)"/>
    </g>
   </g>
   <g id="text_37">
    <!-- Maine -->
    <g style="fill: #323034" transform="translate(240.058243 145.262689) scale(0.072 -0.072)">
     <defs>
      <path id="STIXGeneral-Regular-4d" d="M 5530 0 
L 3738 0 
L 3738 122 
Q 4115 147 4214 265 
Q 4314 384 4314 787 
L 4314 3661 
L 2682 0 
L 2592 0 
L 979 3514 
L 979 966 
Q 979 448 1088 294 
Q 1197 141 1574 122 
L 1574 0 
L 77 0 
L 77 122 
Q 358 141 480 205 
Q 602 269 650 432 
Q 698 595 698 966 
L 698 3514 
Q 698 3878 589 3984 
Q 480 4090 90 4115 
L 90 4237 
L 1357 4237 
L 2835 1024 
L 4250 4237 
L 5523 4237 
L 5523 4115 
Q 5178 4109 5072 3993 
Q 4966 3878 4966 3520 
L 4966 717 
Q 4966 378 5072 262 
Q 5178 147 5530 122 
L 5530 0 
z
" transform="scale(0.015625)"/>
     </defs>
     <use xlink:href="#STIXGeneral-Regular-4d"/>
     <use xlink:href="#STIXGeneral-Regular-61" transform="translate(88.899994 0)"/>
     <use xlink:href="#STIXGeneral-Regular-69" transform="translate(133.299988 0)"/>
     <use xlink:href="#STIXGeneral-Regular-6e" transform="translate(161.099976 0)"/>
     <use xlink:href="#STIXGeneral-Regular-65" transform="translate(211.09996 0)"/>
    </g>
   </g>
   <g id="text_38">
    <!-- Maryland -->
    <g style="fill: #323034" transform="translate(180.510198 87.907886) scale(0.072 -0.072)">
     <use xlink:href="#STIXGeneral-Regular-4d"/>
     <use xlink:href="#STIXGeneral-Regular-61" transform="translate(88.899994 0)"/>
     <use xlink:href="#STIXGeneral-Regular-72" transform="translate(133.299988 0)"/>
     <use xlink:href="#STIXGeneral-Regular-79" transform="translate(166.599976 0)"/>
     <use xlink:href="#STIXGeneral-Regular-6c" transform="translate(216.59996 0)"/>
     <use xlink:href="#STIXGeneral-Regular-61" transform="translate(244.399948 0)"/>
     <use xlink:href="#STIXGeneral-Regular-6e" transform="translate(288.799942 0)"/>
     <use xlink:href="#STIXGeneral-Regular-64" transform="translate(338.799927 0)"/>
    </g>
   </g>
   <g id="text_39">
    <!-- Massachusetts -->
    <g style="fill: #323034" transform="translate(238.957468 156.679492) scale(0.072 -0.072)">
     <use xlink:href="#STIXGeneral-Regular-4d"/>
     <use xlink:href="#STIXGeneral-Regular-61" transform="translate(88.899994 0)"/>
     <use xlink:href="#STIXGeneral-Regular-73" transform="translate(133.299988 0)"/>
     <use xlink:href="#STIXGeneral-Regular-73" transform="translate(172.199982 0)"/>
     <use xlink:href="#STIXGeneral-Regular-61" transform="translate(211.099976 0)"/>
     <use xlink:href="#STIXGeneral-Regular-63" transform="translate(255.499969 0)"/>
     <use xlink:href="#STIXGeneral-Regular-68" transform="translate(299.899963 0)"/>
     <use xlink:href="#STIXGeneral-Regular-75" transform="translate(349.899948 0)"/>
     <use xlink:href="#STIXGeneral-Regular-73" transform="translate(399.899933 0)"/>
     <use xlink:href="#STIXGeneral-Regular-65" transform="translate(438.799927 0)"/>
     <use xlink:href="#STIXGeneral-Regular-74" transform="translate(483.199921 0)"/>
     <use xlink:href="#STIXGeneral-Regular-74" transform="translate(510.999908 0)"/>
     <use xlink:href="#STIXGeneral-Regular-73" transform="translate(538.799896 0)"/>
    </g>
   </g>
   <g id="text_40">
    <!-- Michigan -->
    <g style="fill: #323034" transform="translate(332.828266 115.712831) scale(0.072 -0.072)">
     <use xlink:href="#STIXGeneral-Regular-4d"/>
     <use xlink:href="#STIXGeneral-Regular-69" transform="translate(88.899994 0)"/>
     <use xlink:href="#STIXGeneral-Regular-63" transform="translate(116.699982 0)"/>
     <use xlink:href="#STIXGeneral-Regular-68" transform="translate(161.099976 0)"/>
     <use xlink:href="#STIXGeneral-Regular-69" transform="translate(211.09996 0)"/>
     <use xlink:href="#STIXGeneral-Regular-67" transform="translate(238.899948 0)"/>
     <use xlink:href="#STIXGeneral-Regular-61" transform="translate(288.899933 0)"/>
     <use xlink:href="#STIXGeneral-Regular-6e" transform="translate(333.299927 0)"/>
    </g>
   </g>
   <g id="text_41">
    <!-- Minnesota -->
    <g style="fill: #323034" transform="translate(287.408025 127.686231) scale(0.072 -0.072)">
     <use xlink:href="#STIXGeneral-Regular-4d"/>
     <use xlink:href="#STIXGeneral-Regular-69" transform="translate(88.899994 0)"/>
     <use xlink:href="#STIXGeneral-Regular-6e" transform="translate(116.699982 0)"/>
     <use xlink:href="#STIXGeneral-Regular-6e" transform="translate(166.699966 0)"/>
     <use xlink:href="#STIXGeneral-Regular-65" transform="translate(216.699951 0)"/>
     <use xlink:href="#STIXGeneral-Regular-73" transform="translate(261.099945 0)"/>
     <use xlink:href="#STIXGeneral-Regular-6f" transform="translate(299.999939 0)"/>
     <use xlink:href="#STIXGeneral-Regular-74" transform="translate(349.999924 0)"/>
     <use xlink:href="#STIXGeneral-Regular-61" transform="translate(377.799911 0)"/>
    </g>
   </g>
   <g id="text_42">
    <!-- Mississippi -->
    <g style="fill: #323034" transform="translate(192.960672 206.99107) scale(0.072 -0.072)">
     <defs>
      <path id="STIXGeneral-Regular-70" d="M 1018 2931 
L 1018 2438 
Q 1421 2944 1939 2944 
Q 2406 2944 2707 2560 
Q 3008 2176 3008 1581 
Q 3008 883 2621 409 
Q 2234 -64 1664 -64 
Q 1466 -64 1328 -6 
Q 1190 51 1018 211 
L 1018 -794 
Q 1018 -1094 1120 -1180 
Q 1222 -1267 1581 -1274 
L 1581 -1389 
L 32 -1389 
L 32 -1280 
Q 314 -1254 397 -1171 
Q 480 -1088 480 -838 
L 480 2157 
Q 480 2381 429 2451 
Q 378 2522 218 2522 
Q 115 2522 58 2515 
L 58 2618 
Q 506 2752 979 2944 
L 1018 2931 
z
M 1018 2138 
L 1018 563 
Q 1018 422 1238 281 
Q 1459 141 1683 141 
Q 2029 141 2243 467 
Q 2458 794 2458 1325 
Q 2458 1888 2243 2224 
Q 2029 2560 1670 2560 
Q 1446 2560 1232 2419 
Q 1018 2278 1018 2138 
z
" transform="scale(0.015625)"/>
     </defs>
     <use xlink:href="#STIXGeneral-Regular-4d"/>
     <use xlink:href="#STIXGeneral-Regular-69" transform="translate(88.899994 0)"/>
     <use xlink:href="#STIXGeneral-Regular-73" transform="translate(116.699982 0)"/>
     <use xlink:href="#STIXGeneral-Regular-73" transform="translate(155.599976 0)"/>
     <use xlink:href="#STIXGeneral-Regular-69" transform="translate(194.499969 0)"/>
     <use xlink:href="#STIXGeneral-Regular-73" transform="translate(222.299957 0)"/>
     <use xlink:href="#STIXGeneral-Regular-73" transform="translate(261.199951 0)"/>
     <use xlink:href="#STIXGeneral-Regular-69" transform="translate(300.099945 0)"/>
     <use xlink:href="#STIXGeneral-Regular-70" transform="translate(327.899933 0)"/>
     <use xlink:href="#STIXGeneral-Regular-70" transform="translate(377.899918 0)"/>
     <use xlink:href="#STIXGeneral-Regular-69" transform="translate(427.899902 0)"/>
    </g>
   </g>
   <g id="text_43">
    <!-- Missouri -->
    <g style="fill: #323034" transform="translate(240.500366 102.819932) scale(0.072 -0.072)">
     <use xlink:href="#STIXGeneral-Regular-4d"/>
     <use xlink:href="#STIXGeneral-Regular-69" transform="translate(88.899994 0)"/>
     <use xlink:href="#STIXGeneral-Regular-73" transform="translate(116.699982 0)"/>
     <use xlink:href="#STIXGeneral-Regular-73" transform="translate(155.599976 0)"/>
     <use xlink:href="#STIXGeneral-Regular-6f" transform="translate(194.499969 0)"/>
     <use xlink:href="#STIXGeneral-Regular-75" transform="translate(244.499954 0)"/>
     <use xlink:href="#STIXGeneral-Regular-72" transform="translate(294.499939 0)"/>
     <use xlink:href="#STIXGeneral-Regular-69" transform="translate(327.799927 0)"/>
    </g>
   </g>
   <g id="text_44">
    <!-- Montana  -->
    <g style="fill: #323034" transform="translate(328.036325 111.440753) scale(0.072 -0.072)">
     <use xlink:href="#STIXGeneral-Regular-4d"/>
     <use xlink:href="#STIXGeneral-Regular-6f" transform="translate(88.899994 0)"/>
     <use xlink:href="#STIXGeneral-Regular-6e" transform="translate(138.899979 0)"/>
     <use xlink:href="#STIXGeneral-Regular-74" transform="translate(188.899963 0)"/>
     <use xlink:href="#STIXGeneral-Regular-61" transform="translate(216.699951 0)"/>
     <use xlink:href="#STIXGeneral-Regular-6e" transform="translate(261.099945 0)"/>
     <use xlink:href="#STIXGeneral-Regular-61" transform="translate(311.09993 0)"/>
     <use xlink:href="#STIXGeneral-Regular-20" transform="translate(355.499924 0)"/>
    </g>
   </g>
   <g id="text_45">
    <!-- Nebraska -->
    <g style="fill: #323034" transform="translate(263.994761 121.328639) scale(0.072 -0.072)">
     <defs>
      <path id="STIXGeneral-Regular-4e" d="M 4525 4237 
L 4525 4115 
Q 4198 4083 4102 4000 
Q 4000 3910 3958 3756 
Q 3917 3603 3917 3245 
L 3917 -70 
L 3802 -70 
L 979 3443 
L 979 960 
Q 979 474 1088 323 
Q 1197 173 1574 122 
L 1574 0 
L 77 0 
L 77 122 
Q 474 166 586 310 
Q 698 454 698 960 
L 698 3776 
Q 531 3981 416 4048 
Q 301 4115 77 4115 
L 77 4237 
L 1165 4237 
L 3635 1146 
L 3635 3322 
Q 3635 3808 3514 3949 
Q 3437 4032 3344 4061 
Q 3251 4090 3008 4115 
L 3008 4237 
L 4525 4237 
z
" transform="scale(0.015625)"/>
     </defs>
     <use xlink:href="#STIXGeneral-Regular-4e"/>
     <use xlink:href="#STIXGeneral-Regular-65" transform="translate(72.199982 0)"/>
     <use xlink:href="#STIXGeneral-Regular-62" transform="translate(116.599976 0)"/>
     <use xlink:href="#STIXGeneral-Regular-72" transform="translate(166.59996 0)"/>
     <use xlink:href="#STIXGeneral-Regular-61" transform="translate(199.899948 0)"/>
     <use xlink:href="#STIXGeneral-Regular-73" transform="translate(244.299942 0)"/>
     <use xlink:href="#STIXGeneral-Regular-6b" transform="translate(283.199936 0)"/>
     <use xlink:href="#STIXGeneral-Regular-61" transform="translate(333.199921 0)"/>
    </g>
   </g>
   <g id="text_46">
    <!-- Nevada -->
    <g style="fill: #323034" transform="translate(140.861584 144.299269) scale(0.072 -0.072)">
     <defs>
      <path id="STIXGeneral-Regular-76" d="M 3053 2880 
L 3053 2784 
Q 2906 2771 2835 2688 
Q 2765 2605 2637 2285 
L 1818 230 
Q 1690 -90 1638 -90 
Q 1587 -90 1523 77 
Q 1510 96 1497 141 
Q 1485 186 1472 211 
L 704 2048 
Q 499 2534 403 2652 
Q 307 2771 122 2784 
L 122 2880 
L 1376 2880 
L 1376 2784 
Q 1210 2771 1146 2732 
Q 1082 2694 1082 2611 
Q 1082 2509 1139 2368 
L 1792 730 
L 2426 2387 
Q 2464 2483 2464 2579 
Q 2464 2758 2163 2784 
L 2163 2880 
L 3053 2880 
z
" transform="scale(0.015625)"/>
     </defs>
     <use xlink:href="#STIXGeneral-Regular-4e"/>
     <use xlink:href="#STIXGeneral-Regular-65" transform="translate(72.199982 0)"/>
     <use xlink:href="#STIXGeneral-Regular-76" transform="translate(116.599976 0)"/>
     <use xlink:href="#STIXGeneral-Regular-61" transform="translate(166.59996 0)"/>
     <use xlink:href="#STIXGeneral-Regular-64" transform="translate(210.999954 0)"/>
     <use xlink:href="#STIXGeneral-Regular-61" transform="translate(260.999939 0)"/>
    </g>
   </g>
   <g id="text_47">
    <!-- New Hampshire -->
    <g style="fill: #323034" transform="translate(188.500428 124.27842) scale(0.072 -0.072)">
     <use xlink:href="#STIXGeneral-Regular-4e"/>
     <use xlink:href="#STIXGeneral-Regular-65" transform="translate(72.199982 0)"/>
     <use xlink:href="#STIXGeneral-Regular-77" transform="translate(116.599976 0)"/>
     <use xlink:href="#STIXGeneral-Regular-20" transform="translate(188.799957 0)"/>
     <use xlink:href="#STIXGeneral-Regular-48" transform="translate(213.799942 0)"/>
     <use xlink:href="#STIXGeneral-Regular-61" transform="translate(285.999924 0)"/>
     <use xlink:href="#STIXGeneral-Regular-6d" transform="translate(330.399918 0)"/>
     <use xlink:href="#STIXGeneral-Regular-70" transform="translate(408.199905 0)"/>
     <use xlink:href="#STIXGeneral-Regular-73" transform="translate(458.19989 0)"/>
     <use xlink:href="#STIXGeneral-Regular-68" transform="translate(497.099884 0)"/>
     <use xlink:href="#STIXGeneral-Regular-69" transform="translate(547.099869 0)"/>
     <use xlink:href="#STIXGeneral-Regular-72" transform="translate(574.899857 0)"/>
     <use xlink:href="#STIXGeneral-Regular-65" transform="translate(608.199844 0)"/>
    </g>
   </g>
   <g id="text_48">
    <!-- New Jersey -->
    <g style="fill: #323034" transform="translate(171.963269 144.722026) scale(0.072 -0.072)">
     <defs>
      <path id="STIXGeneral-Regular-4a" d="M 2266 4237 
L 2266 4115 
Q 1875 4083 1776 3984 
Q 1677 3885 1677 3514 
L 1677 1184 
Q 1677 -90 608 -90 
Q 314 -90 138 32 
Q -38 154 -38 371 
Q -38 499 54 601 
Q 147 704 275 704 
Q 486 704 589 435 
Q 602 403 621 348 
Q 640 294 649 265 
Q 659 237 678 208 
Q 698 179 723 166 
Q 749 154 787 154 
Q 928 154 976 253 
Q 1024 352 1024 602 
L 1024 3520 
Q 1024 3898 928 3990 
Q 832 4083 429 4115 
L 429 4237 
L 2266 4237 
z
" transform="scale(0.015625)"/>
     </defs>
     <use xlink:href="#STIXGeneral-Regular-4e"/>
     <use xlink:href="#STIXGeneral-Regular-65" transform="translate(72.199982 0)"/>
     <use xlink:href="#STIXGeneral-Regular-77" transform="translate(116.599976 0)"/>
     <use xlink:href="#STIXGeneral-Regular-20" transform="translate(188.799957 0)"/>
     <use xlink:href="#STIXGeneral-Regular-4a" transform="translate(213.799942 0)"/>
     <use xlink:href="#STIXGeneral-Regular-65" transform="translate(251.09993 0)"/>
     <use xlink:href="#STIXGeneral-Regular-72" transform="translate(295.499924 0)"/>
     <use xlink:href="#STIXGeneral-Regular-73" transform="translate(328.799911 0)"/>
     <use xlink:href="#STIXGeneral-Regular-65" transform="translate(367.699905 0)"/>
     <use xlink:href="#STIXGeneral-Regular-79" transform="translate(412.099899 0)"/>
    </g>
   </g>
   <g id="text_49">
    <!-- New Mexico -->
    <g style="fill: #323034" transform="translate(198.404137 93.872444) scale(0.072 -0.072)">
     <defs>
      <path id="STIXGeneral-Regular-78" d="M 3066 0 
L 1779 0 
L 1779 96 
Q 1939 109 1987 137 
Q 2035 166 2035 250 
Q 2035 307 1997 365 
L 1414 1261 
L 909 474 
Q 781 275 781 211 
Q 781 96 1037 96 
L 1037 0 
L 109 0 
L 109 96 
Q 269 109 355 169 
Q 442 230 576 422 
L 1306 1478 
L 704 2400 
Q 557 2624 454 2704 
Q 352 2784 211 2784 
L 154 2784 
L 154 2880 
L 1478 2880 
L 1478 2784 
Q 1203 2778 1203 2643 
Q 1203 2509 1498 2074 
Q 1581 1958 1587 1946 
Q 1619 1990 1779 2227 
Q 1811 2285 1856 2349 
Q 1901 2413 1923 2451 
Q 1946 2490 1971 2528 
Q 1997 2566 2006 2595 
Q 2016 2624 2016 2643 
Q 2016 2765 1760 2784 
L 1760 2880 
L 2771 2880 
L 2771 2784 
Q 2445 2771 2253 2502 
L 1722 1734 
L 2541 480 
Q 2790 96 3066 96 
L 3066 0 
z
" transform="scale(0.015625)"/>
     </defs>
     <use xlink:href="#STIXGeneral-Regular-4e"/>
     <use xlink:href="#STIXGeneral-Regular-65" transform="translate(72.199982 0)"/>
     <use xlink:href="#STIXGeneral-Regular-77" transform="translate(116.599976 0)"/>
     <use xlink:href="#STIXGeneral-Regular-20" transform="translate(188.799957 0)"/>
     <use xlink:href="#STIXGeneral-Regular-4d" transform="translate(213.799942 0)"/>
     <use xlink:href="#STIXGeneral-Regular-65" transform="translate(302.699936 0)"/>
     <use xlink:href="#STIXGeneral-Regular-78" transform="translate(347.09993 0)"/>
     <use xlink:href="#STIXGeneral-Regular-69" transform="translate(397.099915 0)"/>
     <use xlink:href="#STIXGeneral-Regular-63" transform="translate(424.899902 0)"/>
     <use xlink:href="#STIXGeneral-Regular-6f" transform="translate(469.299896 0)"/>
    </g>
   </g>
   <g id="text_50">
    <!-- New York -->
    <g style="fill: #323034" transform="translate(206.648369 204.501582) scale(0.072 -0.072)">
     <defs>
      <path id="STIXGeneral-Regular-59" d="M 4499 4237 
L 4499 4115 
Q 4218 4090 4054 3955 
Q 3891 3821 3616 3398 
L 2669 1939 
L 2669 710 
Q 2669 346 2790 243 
Q 2912 141 3328 122 
L 3328 0 
L 1370 0 
L 1370 122 
Q 1805 154 1910 259 
Q 2016 365 2016 787 
L 2016 1882 
L 1178 3110 
Q 742 3750 556 3926 
Q 371 4102 141 4115 
L 141 4237 
L 1926 4237 
L 1926 4115 
L 1773 4109 
Q 1472 4102 1472 3942 
Q 1472 3808 1587 3642 
L 2522 2227 
L 3450 3648 
Q 3539 3782 3539 3917 
Q 3533 4026 3440 4067 
Q 3347 4109 3104 4115 
L 3104 4237 
L 4499 4237 
z
" transform="scale(0.015625)"/>
     </defs>
     <use xlink:href="#STIXGeneral-Regular-4e"/>
     <use xlink:href="#STIXGeneral-Regular-65" transform="translate(72.199982 0)"/>
     <use xlink:href="#STIXGeneral-Regular-77" transform="translate(116.599976 0)"/>
     <use xlink:href="#STIXGeneral-Regular-20" transform="translate(188.799957 0)"/>
     <use xlink:href="#STIXGeneral-Regular-59" transform="translate(213.799942 0)"/>
     <use xlink:href="#STIXGeneral-Regular-6f" transform="translate(285.999924 0)"/>
     <use xlink:href="#STIXGeneral-Regular-72" transform="translate(335.999908 0)"/>
     <use xlink:href="#STIXGeneral-Regular-6b" transform="translate(369.299896 0)"/>
    </g>
   </g>
   <g id="text_51">
    <!-- North Carolina -->
    <g style="fill: #323034" transform="translate(195.993816 141.554874) scale(0.072 -0.072)">
     <use xlink:href="#STIXGeneral-Regular-4e"/>
     <use xlink:href="#STIXGeneral-Regular-6f" transform="translate(72.199982 0)"/>
     <use xlink:href="#STIXGeneral-Regular-72" transform="translate(122.199966 0)"/>
     <use xlink:href="#STIXGeneral-Regular-74" transform="translate(155.499954 0)"/>
     <use xlink:href="#STIXGeneral-Regular-68" transform="translate(183.299942 0)"/>
     <use xlink:href="#STIXGeneral-Regular-20" transform="translate(233.299927 0)"/>
     <use xlink:href="#STIXGeneral-Regular-43" transform="translate(258.299911 0)"/>
     <use xlink:href="#STIXGeneral-Regular-61" transform="translate(324.999908 0)"/>
     <use xlink:href="#STIXGeneral-Regular-72" transform="translate(369.399902 0)"/>
     <use xlink:href="#STIXGeneral-Regular-6f" transform="translate(402.69989 0)"/>
     <use xlink:href="#STIXGeneral-Regular-6c" transform="translate(452.699875 0)"/>
     <use xlink:href="#STIXGeneral-Regular-69" transform="translate(480.499863 0)"/>
     <use xlink:href="#STIXGeneral-Regular-6e" transform="translate(508.29985 0)"/>
     <use xlink:href="#STIXGeneral-Regular-61" transform="translate(558.299835 0)"/>
    </g>
   </g>
   <g id="text_52">
    <!-- North Dakota -->
    <g style="fill: #323034" transform="translate(226.859598 98.622095) scale(0.072 -0.072)">
     <use xlink:href="#STIXGeneral-Regular-4e"/>
     <use xlink:href="#STIXGeneral-Regular-6f" transform="translate(72.199982 0)"/>
     <use xlink:href="#STIXGeneral-Regular-72" transform="translate(122.199966 0)"/>
     <use xlink:href="#STIXGeneral-Regular-74" transform="translate(155.499954 0)"/>
     <use xlink:href="#STIXGeneral-Regular-68" transform="translate(183.299942 0)"/>
     <use xlink:href="#STIXGeneral-Regular-20" transform="translate(233.299927 0)"/>
     <use xlink:href="#STIXGeneral-Regular-44" transform="translate(258.299911 0)"/>
     <use xlink:href="#STIXGeneral-Regular-61" transform="translate(330.499893 0)"/>
     <use xlink:href="#STIXGeneral-Regular-6b" transform="translate(374.899887 0)"/>
     <use xlink:href="#STIXGeneral-Regular-6f" transform="translate(424.899872 0)"/>
     <use xlink:href="#STIXGeneral-Regular-74" transform="translate(474.899857 0)"/>
     <use xlink:href="#STIXGeneral-Regular-61" transform="translate(502.699844 0)"/>
    </g>
   </g>
   <g id="text_53">
    <!-- Ohio -->
    <g style="fill: #323034" transform="translate(302.302911 145.045199) scale(0.072 -0.072)">
     <defs>
      <path id="STIXGeneral-Regular-4f" d="M 4403 2118 
Q 4403 1133 3820 521 
Q 3238 -90 2310 -90 
Q 1376 -90 797 524 
Q 218 1139 218 2138 
Q 218 3110 797 3718 
Q 1376 4326 2310 4326 
Q 3245 4326 3824 3702 
Q 4403 3078 4403 2118 
z
M 3674 2157 
Q 3674 2701 3520 3133 
Q 3366 3565 3091 3795 
Q 2733 4096 2304 4096 
Q 1760 4096 1389 3667 
Q 1184 3437 1065 3011 
Q 947 2586 947 2125 
Q 947 960 1523 429 
Q 1837 141 2317 141 
Q 2816 141 3142 448 
Q 3674 960 3674 2157 
z
" transform="scale(0.015625)"/>
     </defs>
     <use xlink:href="#STIXGeneral-Regular-4f"/>
     <use xlink:href="#STIXGeneral-Regular-68" transform="translate(72.199982 0)"/>
     <use xlink:href="#STIXGeneral-Regular-69" transform="translate(122.199966 0)"/>
     <use xlink:href="#STIXGeneral-Regular-6f" transform="translate(149.999954 0)"/>
    </g>
   </g>
   <g id="text_54">
    <!-- Oklahoma -->
    <g style="fill: #323034" transform="translate(226.982665 116.967644) scale(0.072 -0.072)">
     <use xlink:href="#STIXGeneral-Regular-4f"/>
     <use xlink:href="#STIXGeneral-Regular-6b" transform="translate(72.199982 0)"/>
     <use xlink:href="#STIXGeneral-Regular-6c" transform="translate(122.199966 0)"/>
     <use xlink:href="#STIXGeneral-Regular-61" transform="translate(149.999954 0)"/>
     <use xlink:href="#STIXGeneral-Regular-68" transform="translate(194.399948 0)"/>
     <use xlink:href="#STIXGeneral-Regular-6f" transform="translate(244.399933 0)"/>
     <use xlink:href="#STIXGeneral-Regular-6d" transform="translate(294.399918 0)"/>
     <use xlink:href="#STIXGeneral-Regular-61" transform="translate(372.199905 0)"/>
    </g>
   </g>
   <g id="text_55">
    <!-- Oregon -->
    <g style="fill: #323034" transform="translate(313.633601 150.938461) scale(0.072 -0.072)">
     <use xlink:href="#STIXGeneral-Regular-4f"/>
     <use xlink:href="#STIXGeneral-Regular-72" transform="translate(72.199982 0)"/>
     <use xlink:href="#STIXGeneral-Regular-65" transform="translate(105.499969 0)"/>
     <use xlink:href="#STIXGeneral-Regular-67" transform="translate(149.899963 0)"/>
     <use xlink:href="#STIXGeneral-Regular-6f" transform="translate(199.899948 0)"/>
     <use xlink:href="#STIXGeneral-Regular-6e" transform="translate(249.899933 0)"/>
    </g>
   </g>
   <g id="text_56">
    <!-- Pennsylvania -->
    <g style="fill: #323034" transform="translate(233.595752 108.710711) scale(0.072 -0.072)">
     <defs>
      <path id="STIXGeneral-Regular-50" d="M 102 4237 
L 1760 4237 
Q 2669 4237 3149 3834 
Q 3469 3565 3469 3072 
Q 3469 2560 3104 2234 
Q 2835 1990 2553 1916 
Q 2272 1843 1734 1843 
Q 1549 1843 1293 1862 
L 1293 717 
Q 1293 352 1398 246 
Q 1504 141 1894 122 
L 1894 0 
L 102 0 
L 102 122 
Q 474 147 557 256 
Q 640 365 640 781 
L 640 3526 
Q 640 3885 547 3987 
Q 454 4090 102 4115 
L 102 4237 
z
M 1293 3770 
L 1293 2118 
Q 1510 2099 1683 2099 
Q 2202 2099 2486 2352 
Q 2771 2605 2771 3040 
Q 2771 3558 2476 3779 
Q 2182 4000 1517 4000 
Q 1382 4000 1337 3952 
Q 1293 3904 1293 3770 
z
" transform="scale(0.015625)"/>
     </defs>
     <use xlink:href="#STIXGeneral-Regular-50"/>
     <use xlink:href="#STIXGeneral-Regular-65" transform="translate(55.699997 0)"/>
     <use xlink:href="#STIXGeneral-Regular-6e" transform="translate(100.099991 0)"/>
     <use xlink:href="#STIXGeneral-Regular-6e" transform="translate(150.099976 0)"/>
     <use xlink:href="#STIXGeneral-Regular-73" transform="translate(200.09996 0)"/>
     <use xlink:href="#STIXGeneral-Regular-79" transform="translate(238.999954 0)"/>
     <use xlink:href="#STIXGeneral-Regular-6c" transform="translate(288.999939 0)"/>
     <use xlink:href="#STIXGeneral-Regular-76" transform="translate(316.799927 0)"/>
     <use xlink:href="#STIXGeneral-Regular-61" transform="translate(366.799911 0)"/>
     <use xlink:href="#STIXGeneral-Regular-6e" transform="translate(411.199905 0)"/>
     <use xlink:href="#STIXGeneral-Regular-69" transform="translate(461.19989 0)"/>
     <use xlink:href="#STIXGeneral-Regular-61" transform="translate(488.999878 0)"/>
    </g>
   </g>
   <g id="text_57">
    <!-- Rhode Island -->
    <g style="fill: #323034" transform="translate(138.764807 181.154578) scale(0.072 -0.072)">
     <defs>
      <path id="STIXGeneral-Regular-52" d="M 4224 0 
L 3187 0 
L 1664 1971 
L 1306 1958 
L 1306 717 
Q 1306 352 1405 249 
Q 1504 147 1875 122 
L 1875 0 
L 109 0 
L 109 122 
Q 474 154 563 262 
Q 653 371 653 794 
L 653 3526 
Q 653 3885 563 3987 
Q 474 4090 109 4115 
L 109 4237 
L 1850 4237 
Q 2726 4237 3187 3859 
Q 3501 3603 3501 3091 
Q 3501 2221 2342 2042 
L 3622 422 
Q 3757 256 3878 198 
Q 4000 141 4224 122 
L 4224 0 
z
M 1306 3731 
L 1306 2195 
Q 1766 2202 1990 2246 
Q 2214 2291 2438 2413 
Q 2803 2618 2803 3142 
Q 2803 4000 1632 4000 
Q 1459 4000 1382 3945 
Q 1306 3891 1306 3731 
z
" transform="scale(0.015625)"/>
     </defs>
     <use xlink:href="#STIXGeneral-Regular-52"/>
     <use xlink:href="#STIXGeneral-Regular-68" transform="translate(66.699997 0)"/>
     <use xlink:href="#STIXGeneral-Regular-6f" transform="translate(116.699982 0)"/>
     <use xlink:href="#STIXGeneral-Regular-64" transform="translate(166.699966 0)"/>
     <use xlink:href="#STIXGeneral-Regular-65" transform="translate(216.699951 0)"/>
     <use xlink:href="#STIXGeneral-Regular-20" transform="translate(261.099945 0)"/>
     <use xlink:href="#STIXGeneral-Regular-49" transform="translate(286.09993 0)"/>
     <use xlink:href="#STIXGeneral-Regular-73" transform="translate(319.399918 0)"/>
     <use xlink:href="#STIXGeneral-Regular-6c" transform="translate(358.299911 0)"/>
     <use xlink:href="#STIXGeneral-Regular-61" transform="translate(386.099899 0)"/>
     <use xlink:href="#STIXGeneral-Regular-6e" transform="translate(430.499893 0)"/>
     <use xlink:href="#STIXGeneral-Regular-64" transform="translate(480.499878 0)"/>
    </g>
   </g>
   <g id="text_58">
    <!-- South Carolina -->
    <g style="fill: #323034" transform="translate(199.064545 144.037896) scale(0.072 -0.072)">
     <defs>
      <path id="STIXGeneral-Regular-53" d="M 3002 2963 
L 2842 2963 
Q 2733 3360 2579 3565 
Q 2189 4064 1651 4064 
Q 1357 4064 1181 3894 
Q 1005 3725 1005 3456 
Q 1005 3328 1069 3206 
Q 1133 3085 1206 2998 
Q 1280 2912 1465 2784 
Q 1651 2656 1766 2589 
Q 1882 2522 2150 2362 
Q 2669 2061 2905 1763 
Q 3142 1466 3142 1107 
Q 3142 576 2771 243 
Q 2400 -90 1837 -90 
Q 1421 -90 1082 58 
Q 915 128 781 128 
Q 704 128 653 70 
Q 602 13 602 -83 
L 461 -83 
L 275 1274 
L 416 1274 
Q 845 141 1734 141 
Q 2074 141 2285 342 
Q 2496 544 2496 858 
Q 2496 1158 2310 1363 
Q 2003 1696 1235 2106 
Q 454 2522 454 3206 
Q 454 3718 768 4022 
Q 1082 4326 1568 4326 
Q 1907 4326 2240 4186 
Q 2413 4109 2522 4109 
Q 2688 4109 2726 4326 
L 2861 4326 
L 3002 2963 
z
" transform="scale(0.015625)"/>
     </defs>
     <use xlink:href="#STIXGeneral-Regular-53"/>
     <use xlink:href="#STIXGeneral-Regular-6f" transform="translate(55.599991 0)"/>
     <use xlink:href="#STIXGeneral-Regular-75" transform="translate(105.599976 0)"/>
     <use xlink:href="#STIXGeneral-Regular-74" transform="translate(155.59996 0)"/>
     <use xlink:href="#STIXGeneral-Regular-68" transform="translate(183.399948 0)"/>
     <use xlink:href="#STIXGeneral-Regular-20" transform="translate(233.399933 0)"/>
     <use xlink:href="#STIXGeneral-Regular-43" transform="translate(258.399918 0)"/>
     <use xlink:href="#STIXGeneral-Regular-61" transform="translate(325.099915 0)"/>
     <use xlink:href="#STIXGeneral-Regular-72" transform="translate(369.499908 0)"/>
     <use xlink:href="#STIXGeneral-Regular-6f" transform="translate(402.799896 0)"/>
     <use xlink:href="#STIXGeneral-Regular-6c" transform="translate(452.799881 0)"/>
     <use xlink:href="#STIXGeneral-Regular-69" transform="translate(480.599869 0)"/>
     <use xlink:href="#STIXGeneral-Regular-6e" transform="translate(508.399857 0)"/>
     <use xlink:href="#STIXGeneral-Regular-61" transform="translate(558.399841 0)"/>
    </g>
   </g>
   <g id="text_59">
    <!-- South Dakota -->
    <g style="fill: #323034" transform="translate(275.123938 107.002914) scale(0.072 -0.072)">
     <use xlink:href="#STIXGeneral-Regular-53"/>
     <use xlink:href="#STIXGeneral-Regular-6f" transform="translate(55.599991 0)"/>
     <use xlink:href="#STIXGeneral-Regular-75" transform="translate(105.599976 0)"/>
     <use xlink:href="#STIXGeneral-Regular-74" transform="translate(155.59996 0)"/>
     <use xlink:href="#STIXGeneral-Regular-68" transform="translate(183.399948 0)"/>
     <use xlink:href="#STIXGeneral-Regular-20" transform="translate(233.399933 0)"/>
     <use xlink:href="#STIXGeneral-Regular-44" transform="translate(258.399918 0)"/>
     <use xlink:href="#STIXGeneral-Regular-61" transform="translate(330.599899 0)"/>
     <use xlink:href="#STIXGeneral-Regular-6b" transform="translate(374.999893 0)"/>
     <use xlink:href="#STIXGeneral-Regular-6f" transform="translate(424.999878 0)"/>
     <use xlink:href="#STIXGeneral-Regular-74" transform="translate(474.999863 0)"/>
     <use xlink:href="#STIXGeneral-Regular-61" transform="translate(502.79985 0)"/>
    </g>
   </g>
   <g id="text_60">
    <!-- Tennessee -->
    <g style="fill: #323034" transform="translate(185.093098 106.924359) scale(0.072 -0.072)">
     <defs>
      <path id="STIXGeneral-Regular-54" d="M 3795 3149 
L 3642 3149 
Q 3539 3674 3353 3821 
Q 3168 3968 2656 3968 
L 2278 3968 
L 2278 710 
Q 2278 346 2387 243 
Q 2496 141 2893 122 
L 2893 0 
L 1024 0 
L 1024 122 
Q 1427 147 1526 256 
Q 1626 365 1626 787 
L 1626 3968 
L 1242 3968 
Q 723 3968 540 3817 
Q 358 3667 262 3149 
L 109 3149 
L 154 4237 
L 3750 4237 
L 3795 3149 
z
" transform="scale(0.015625)"/>
     </defs>
     <use xlink:href="#STIXGeneral-Regular-54"/>
     <use xlink:href="#STIXGeneral-Regular-65" transform="translate(61.099991 0)"/>
     <use xlink:href="#STIXGeneral-Regular-6e" transform="translate(105.499985 0)"/>
     <use xlink:href="#STIXGeneral-Regular-6e" transform="translate(155.499969 0)"/>
     <use xlink:href="#STIXGeneral-Regular-65" transform="translate(205.499954 0)"/>
     <use xlink:href="#STIXGeneral-Regular-73" transform="translate(249.899948 0)"/>
     <use xlink:href="#STIXGeneral-Regular-73" transform="translate(288.799942 0)"/>
     <use xlink:href="#STIXGeneral-Regular-65" transform="translate(327.699936 0)"/>
     <use xlink:href="#STIXGeneral-Regular-65" transform="translate(372.09993 0)"/>
    </g>
   </g>
   <g id="text_61">
    <!-- Texas -->
    <g style="fill: #323034" transform="translate(126.010555 157.696504) scale(0.072 -0.072)">
     <use xlink:href="#STIXGeneral-Regular-54"/>
     <use xlink:href="#STIXGeneral-Regular-65" transform="translate(61.099991 0)"/>
     <use xlink:href="#STIXGeneral-Regular-78" transform="translate(105.499985 0)"/>
     <use xlink:href="#STIXGeneral-Regular-61" transform="translate(155.499969 0)"/>
     <use xlink:href="#STIXGeneral-Regular-73" transform="translate(199.899963 0)"/>
    </g>
   </g>
   <g id="text_62">
    <!-- Utah -->
    <g style="fill: #323034" transform="translate(306.768614 102.716119) scale(0.072 -0.072)">
     <defs>
      <path id="STIXGeneral-Regular-55" d="M 4512 4237 
L 4512 4115 
Q 4122 4077 4016 3926 
Q 3910 3776 3910 3302 
L 3910 1670 
Q 3910 1178 3840 896 
Q 3770 614 3565 378 
Q 3155 -90 2272 -90 
Q 1574 -90 1184 205 
Q 666 589 666 1594 
L 666 3578 
Q 666 3898 566 3994 
Q 467 4090 90 4115 
L 90 4237 
L 1901 4237 
L 1901 4115 
Q 1517 4083 1417 3977 
Q 1318 3872 1318 3514 
L 1318 1517 
Q 1318 1101 1369 877 
Q 1421 653 1600 480 
Q 1901 192 2419 192 
Q 3066 192 3392 570 
Q 3539 749 3584 963 
Q 3629 1178 3629 1600 
L 3629 3283 
Q 3629 3782 3520 3936 
Q 3411 4090 3027 4115 
L 3027 4237 
L 4512 4237 
z
" transform="scale(0.015625)"/>
     </defs>
     <use xlink:href="#STIXGeneral-Regular-55"/>
     <use xlink:href="#STIXGeneral-Regular-74" transform="translate(72.199982 0)"/>
     <use xlink:href="#STIXGeneral-Regular-61" transform="translate(99.999969 0)"/>
     <use xlink:href="#STIXGeneral-Regular-68" transform="translate(144.399963 0)"/>
    </g>
   </g>
   <g id="text_63">
    <!-- Vermont -->
    <g style="fill: #323034" transform="translate(223.407592 148.158909) scale(0.072 -0.072)">
     <defs>
      <path id="STIXGeneral-Regular-56" d="M 4461 4237 
L 4461 4115 
Q 4262 4109 4134 3990 
Q 4006 3872 3872 3533 
L 2451 -70 
L 2355 -70 
L 794 3411 
Q 589 3866 467 3987 
Q 346 4109 102 4115 
L 102 4237 
L 1798 4237 
L 1798 4115 
L 1619 4102 
Q 1331 4083 1331 3904 
Q 1331 3776 1581 3219 
L 2554 1030 
L 3494 3392 
Q 3616 3699 3616 3853 
Q 3616 3898 3606 3933 
Q 3597 3968 3584 3993 
Q 3571 4019 3536 4038 
Q 3501 4058 3481 4067 
Q 3462 4077 3411 4086 
Q 3360 4096 3337 4099 
Q 3315 4102 3248 4108 
Q 3181 4115 3155 4115 
L 3155 4237 
L 4461 4237 
z
" transform="scale(0.015625)"/>
     </defs>
     <use xlink:href="#STIXGeneral-Regular-56"/>
     <use xlink:href="#STIXGeneral-Regular-65" transform="translate(72.199982 0)"/>
     <use xlink:href="#STIXGeneral-Regular-72" transform="translate(116.599976 0)"/>
     <use xlink:href="#STIXGeneral-Regular-6d" transform="translate(149.899963 0)"/>
     <use xlink:href="#STIXGeneral-Regular-6f" transform="translate(227.699951 0)"/>
     <use xlink:href="#STIXGeneral-Regular-6e" transform="translate(277.699936 0)"/>
     <use xlink:href="#STIXGeneral-Regular-74" transform="translate(327.699921 0)"/>
    </g>
   </g>
   <g id="text_64">
    <!-- Virginia -->
    <g style="fill: #323034" transform="translate(143.790812 110.195998) scale(0.072 -0.072)">
     <use xlink:href="#STIXGeneral-Regular-56"/>
     <use xlink:href="#STIXGeneral-Regular-69" transform="translate(72.199982 0)"/>
     <use xlink:href="#STIXGeneral-Regular-72" transform="translate(99.999969 0)"/>
     <use xlink:href="#STIXGeneral-Regular-67" transform="translate(133.299957 0)"/>
     <use xlink:href="#STIXGeneral-Regular-69" transform="translate(183.299942 0)"/>
     <use xlink:href="#STIXGeneral-Regular-6e" transform="translate(211.09993 0)"/>
     <use xlink:href="#STIXGeneral-Regular-69" transform="translate(261.099915 0)"/>
     <use xlink:href="#STIXGeneral-Regular-61" transform="translate(288.899902 0)"/>
    </g>
   </g>
   <g id="text_65">
    <!-- Washington -->
    <g style="fill: #323034" transform="translate(291.215249 129.287554) scale(0.072 -0.072)">
     <defs>
      <path id="STIXGeneral-Regular-57" d="M 5965 4237 
L 5965 4115 
Q 5709 4064 5616 3990 
Q 5523 3917 5434 3667 
Q 4704 1709 4128 -70 
L 4032 -70 
Q 3642 1011 3008 2637 
L 2022 -70 
L 1926 -70 
Q 1709 576 1277 1753 
Q 845 2931 698 3347 
Q 538 3808 406 3958 
Q 275 4109 32 4115 
L 32 4237 
L 1594 4237 
L 1594 4115 
Q 1357 4109 1270 4064 
Q 1184 4019 1184 3917 
Q 1184 3808 1254 3616 
L 2176 1210 
L 2842 3021 
L 2662 3501 
Q 2509 3917 2400 4013 
Q 2291 4109 2010 4115 
L 2010 4237 
L 3706 4237 
L 3706 4115 
Q 3213 4102 3213 3891 
Q 3213 3808 3322 3520 
L 4237 1190 
L 5043 3360 
Q 5152 3667 5152 3853 
Q 5152 4109 4704 4115 
L 4704 4237 
L 5965 4237 
z
" transform="scale(0.015625)"/>
     </defs>
     <use xlink:href="#STIXGeneral-Regular-57"/>
     <use xlink:href="#STIXGeneral-Regular-61" transform="translate(94.399994 0)"/>
     <use xlink:href="#STIXGeneral-Regular-73" transform="translate(138.799988 0)"/>
     <use xlink:href="#STIXGeneral-Regular-68" transform="translate(177.699982 0)"/>
     <use xlink:href="#STIXGeneral-Regular-69" transform="translate(227.699966 0)"/>
     <use xlink:href="#STIXGeneral-Regular-6e" transform="translate(255.499954 0)"/>
     <use xlink:href="#STIXGeneral-Regular-67" transform="translate(305.499939 0)"/>
     <use xlink:href="#STIXGeneral-Regular-74" transform="translate(355.499924 0)"/>
     <use xlink:href="#STIXGeneral-Regular-6f" transform="translate(383.299911 0)"/>
     <use xlink:href="#STIXGeneral-Regular-6e" transform="translate(433.299896 0)"/>
    </g>
   </g>
   <g id="text_66">
    <!-- West Virginia -->
    <g style="fill: #323034" transform="translate(150.011132 121.673887) scale(0.072 -0.072)">
     <use xlink:href="#STIXGeneral-Regular-57"/>
     <use xlink:href="#STIXGeneral-Regular-65" transform="translate(94.399994 0)"/>
     <use xlink:href="#STIXGeneral-Regular-73" transform="translate(138.799988 0)"/>
     <use xlink:href="#STIXGeneral-Regular-74" transform="translate(177.699982 0)"/>
     <use xlink:href="#STIXGeneral-Regular-20" transform="translate(205.499969 0)"/>
     <use xlink:href="#STIXGeneral-Regular-56" transform="translate(230.499954 0)"/>
     <use xlink:href="#STIXGeneral-Regular-69" transform="translate(302.699936 0)"/>
     <use xlink:href="#STIXGeneral-Regular-72" transform="translate(330.499924 0)"/>
     <use xlink:href="#STIXGeneral-Regular-67" transform="translate(363.799911 0)"/>
     <use xlink:href="#STIXGeneral-Regular-69" transform="translate(413.799896 0)"/>
     <use xlink:href="#STIXGeneral-Regular-6e" transform="translate(441.599884 0)"/>
     <use xlink:href="#STIXGeneral-Regular-69" transform="translate(491.599869 0)"/>
     <use xlink:href="#STIXGeneral-Regular-61" transform="translate(519.399857 0)"/>
    </g>
   </g>
   <g id="text_67">
    <!-- Wisconsin -->
    <g style="fill: #323034" transform="translate(269.774045 134.651684) scale(0.072 -0.072)">
     <use xlink:href="#STIXGeneral-Regular-57"/>
     <use xlink:href="#STIXGeneral-Regular-69" transform="translate(94.399994 0)"/>
     <use xlink:href="#STIXGeneral-Regular-73" transform="translate(122.199982 0)"/>
     <use xlink:href="#STIXGeneral-Regular-63" transform="translate(161.099976 0)"/>
     <use xlink:href="#STIXGeneral-Regular-6f" transform="translate(205.499969 0)"/>
     <use xlink:href="#STIXGeneral-Regular-6e" transform="translate(255.499954 0)"/>
     <use xlink:href="#STIXGeneral-Regular-73" transform="translate(305.499939 0)"/>
     <use xlink:href="#STIXGeneral-Regular-69" transform="translate(344.399933 0)"/>
     <use xlink:href="#STIXGeneral-Regular-6e" transform="translate(372.199921 0)"/>
    </g>
   </g>
   <g id="text_68">
    <!-- Wyoming -->
    <g style="fill: #323034" transform="translate(212.482374 102.371402) scale(0.072 -0.072)">
     <use xlink:href="#STIXGeneral-Regular-57"/>
     <use xlink:href="#STIXGeneral-Regular-79" transform="translate(94.399994 0)"/>
     <use xlink:href="#STIXGeneral-Regular-6f" transform="translate(144.399979 0)"/>
     <use xlink:href="#STIXGeneral-Regular-6d" transform="translate(194.399963 0)"/>
     <use xlink:href="#STIXGeneral-Regular-69" transform="translate(272.199951 0)"/>
     <use xlink:href="#STIXGeneral-Regular-6e" transform="translate(299.999939 0)"/>
     <use xlink:href="#STIXGeneral-Regular-67" transform="translate(349.999924 0)"/>
    </g>
   </g>
   <g id="text_69">
    <!-- Partial Regression Plot -->
    <g style="fill: #323034" transform="translate(50.64 20.176406) scale(0.19 -0.19)">
     <use xlink:href="#STIXGeneral-Regular-50"/>
     <use xlink:href="#STIXGeneral-Regular-61" transform="translate(55.699997 0)"/>
     <use xlink:href="#STIXGeneral-Regular-72" transform="translate(100.099991 0)"/>
     <use xlink:href="#STIXGeneral-Regular-74" transform="translate(133.399979 0)"/>
     <use xlink:href="#STIXGeneral-Regular-69" transform="translate(161.199966 0)"/>
     <use xlink:href="#STIXGeneral-Regular-61" transform="translate(188.999954 0)"/>
     <use xlink:href="#STIXGeneral-Regular-6c" transform="translate(233.399948 0)"/>
     <use xlink:href="#STIXGeneral-Regular-20" transform="translate(261.199936 0)"/>
     <use xlink:href="#STIXGeneral-Regular-52" transform="translate(286.199921 0)"/>
     <use xlink:href="#STIXGeneral-Regular-65" transform="translate(352.899918 0)"/>
     <use xlink:href="#STIXGeneral-Regular-67" transform="translate(397.299911 0)"/>
     <use xlink:href="#STIXGeneral-Regular-72" transform="translate(447.299896 0)"/>
     <use xlink:href="#STIXGeneral-Regular-65" transform="translate(480.599884 0)"/>
     <use xlink:href="#STIXGeneral-Regular-73" transform="translate(524.999878 0)"/>
     <use xlink:href="#STIXGeneral-Regular-73" transform="translate(563.899872 0)"/>
     <use xlink:href="#STIXGeneral-Regular-69" transform="translate(602.799866 0)"/>
     <use xlink:href="#STIXGeneral-Regular-6f" transform="translate(630.599854 0)"/>
     <use xlink:href="#STIXGeneral-Regular-6e" transform="translate(680.599838 0)"/>
     <use xlink:href="#STIXGeneral-Regular-20" transform="translate(730.599823 0)"/>
     <use xlink:href="#STIXGeneral-Regular-50" transform="translate(755.599808 0)"/>
     <use xlink:href="#STIXGeneral-Regular-6c" transform="translate(811.299805 0)"/>
     <use xlink:href="#STIXGeneral-Regular-6f" transform="translate(839.099792 0)"/>
     <use xlink:href="#STIXGeneral-Regular-74" transform="translate(889.099777 0)"/>
    </g>
   </g>
  </g>
 </g>
 <defs>
  <clipPath id="pc50bfd93cf">
   <rect x="50.64" y="26.176406" width="446.4" height="221.76"/>
  </clipPath>
 </defs>
</svg>