<?xml version="1.0" encoding="utf-8" standalone="no"?>
<!DOCTYPE svg PUBLIC "-//W3C//DTD SVG 1.1//EN"
  "http://www.w3.org/Graphics/SVG/1.1/DTD/svg11.dtd">
<svg xmlns:xlink="http://www.w3.org/1999/xlink" width="564.48pt" height="125.490299pt" viewBox="0 0 564.48 125.490299" xmlns="http://www.w3.org/2000/svg" version="1.1">
 <metadata>
  <rdf:RDF xmlns:dc="http://purl.org/dc/elements/1.1/" xmlns:cc="http://creativecommons.org/ns#" xmlns:rdf="http://www.w3.org/1999/02/22-rdf-syntax-ns#">
   <cc:Work>
    <dc:type rdf:resource="http://purl.org/dc/dcmitype/StillImage"/>
    <dc:date>2025-03-26T16:06:57.165646</dc:date>
    <dc:format>image/svg+xml</dc:format>
    <dc:creator>
     <cc:Agent>
      <dc:title>Matplotlib v3.10.0, https://matplotlib.org/</dc:title>
     </cc:Agent>
    </dc:creator>
   </cc:Work>
  </rdf:RDF>
 </metadata>
 <defs>
  <style type="text/css">*{stroke-linejoin: round; stroke-linecap: butt}</style>
 </defs>
 <g id="figure_1">
  <g id="patch_1">
   <path d="M 0 125.490299 
L 564.48 125.490299 
L 564.48 0 
L 0 0 
z
" style="fill: #ffffff"/>
  </g>
  <g id="axes_1">
   <g id="text_1">
    <!--  -->
    <g style="fill: #232066" transform="translate(7.2 116.790299) scale(0.12 -0.12)">
     <defs>
      <path id="FontAwesome6Free-Solid-f1ae" d="M 2800 4800 
C 2800 4350 2438 4000 2000 4000 
C 1550 4000 1200 4350 1200 4800 
C 1200 5238 1550 5600 2000 5600 
C 2438 5600 2800 5238 2800 4800 
z
M 1800 800 
L 1800 -400 
C 1800 -625 1613 -800 1400 -800 
C 1175 -800 1000 -625 1000 -400 
L 1000 2000 
L 738 1588 
C 613 1400 363 1338 175 1450 
C 0 1575 -63 1825 50 2013 
L 550 2800 
C 863 3300 1413 3600 2000 3600 
C 2575 3600 3125 3300 3438 2800 
L 3938 2013 
C 4050 1825 4000 1575 3813 1450 
C 3625 1338 3375 1400 3250 1588 
L 3000 2000 
L 3000 -400 
C 3000 -625 2813 -800 2600 -800 
C 2375 -800 2200 -625 2200 -400 
L 2200 800 
L 1800 800 
z
" transform="scale(0.015625)"/>
     </defs>
     <use xlink:href="#FontAwesome6Free-Solid-f1ae"/>
    </g>
   </g>
   <g id="text_2">
    <!--  -->
    <g style="fill: #232066" transform="translate(7.2 94.116444) scale(0.12 -0.12)">
     <use xlink:href="#FontAwesome6Free-Solid-f1ae"/>
    </g>
   </g>
   <g id="text_3">
    <!--  -->
    <g style="fill: #232066" transform="translate(7.2 71.442589) scale(0.12 -0.12)">
     <use xlink:href="#FontAwesome6Free-Solid-f1ae"/>
    </g>
   </g>
   <g id="text_4">
    <!--  -->
    <g style="fill: #232066" transform="translate(7.2 48.768734) scale(0.12 -0.12)">
     <use xlink:href="#FontAwesome6Free-Solid-f1ae"/>
    </g>
   </g>
   <g id="text_5">
    <!--  -->
    <g style="fill: #232066" transform="translate(7.2 26.094879) scale(0.12 -0.12)">
     <use xlink:href="#FontAwesome6Free-Solid-f1ae"/>
    </g>
   </g>
   <g id="text_6">
    <!--  -->
    <g style="fill: #232066" transform="translate(29.873855 116.790299) scale(0.12 -0.12)">
     <use xlink:href="#FontAwesome6Free-Solid-f1ae"/>
    </g>
   </g>
   <g id="text_7">
    <!--  -->
    <g style="fill: #232066" transform="translate(29.873855 94.116444) scale(0.12 -0.12)">
     <use xlink:href="#FontAwesome6Free-Solid-f1ae"/>
    </g>
   </g>
   <g id="text_8">
    <!--  -->
    <g style="fill: #232066" transform="translate(29.873855 71.442589) scale(0.12 -0.12)">
     <use xlink:href="#FontAwesome6Free-Solid-f1ae"/>
    </g>
   </g>
   <g id="text_9">
    <!--  -->
    <g style="fill: #232066" transform="translate(29.873855 48.768734) scale(0.12 -0.12)">
     <use xlink:href="#FontAwesome6Free-Solid-f1ae"/>
    </g>
   </g>
   <g id="text_10">
    <!--  -->
    <g style="fill: #232066" transform="translate(29.873855 26.094879) scale(0.12 -0.12)">
     <use xlink:href="#FontAwesome6Free-Solid-f1ae"/>
    </g>
   </g>
   <g id="text_11">
    <!--  -->
    <g style="fill: #232066" transform="translate(52.54771 116.790299) scale(0.12 -0.12)">
     <use xlink:href="#FontAwesome6Free-Solid-f1ae"/>
    </g>
   </g>
   <g id="text_12">
    <!--  -->
    <g style="fill: #232066" transform="translate(52.54771 94.116444) scale(0.12 -0.12)">
     <use xlink:href="#FontAwesome6Free-Solid-f1ae"/>
    </g>
   </g>
   <g id="text_13">
    <!--  -->
    <g style="fill: #232066" transform="translate(52.54771 71.442589) scale(0.12 -0.12)">
     <use xlink:href="#FontAwesome6Free-Solid-f1ae"/>
    </g>
   </g>
   <g id="text_14">
    <!--  -->
    <g style="fill: #232066" transform="translate(52.54771 48.768734) scale(0.12 -0.12)">
     <use xlink:href="#FontAwesome6Free-Solid-f1ae"/>
    </g>
   </g>
   <g id="text_15">
    <!--  -->
    <g style="fill: #232066" transform="translate(52.54771 26.094879) scale(0.12 -0.12)">
     <use xlink:href="#FontAwesome6Free-Solid-f1ae"/>
    </g>
   </g>
   <g id="text_16">
    <!--  -->
    <g style="fill: #232066" transform="translate(75.221565 116.790299) scale(0.12 -0.12)">
     <use xlink:href="#FontAwesome6Free-Solid-f1ae"/>
    </g>
   </g>
   <g id="text_17">
    <!--  -->
    <g style="fill: #232066" transform="translate(75.221565 94.116444) scale(0.12 -0.12)">
     <use xlink:href="#FontAwesome6Free-Solid-f1ae"/>
    </g>
   </g>
   <g id="text_18">
    <!--  -->
    <g style="fill: #232066" transform="translate(75.221565 71.442589) scale(0.12 -0.12)">
     <use xlink:href="#FontAwesome6Free-Solid-f1ae"/>
    </g>
   </g>
   <g id="text_19">
    <!--  -->
    <g style="fill: #232066" transform="translate(75.221565 48.768734) scale(0.12 -0.12)">
     <use xlink:href="#FontAwesome6Free-Solid-f1ae"/>
    </g>
   </g>
   <g id="text_20">
    <!--  -->
    <g style="fill: #232066" transform="translate(75.221565 26.094879) scale(0.12 -0.12)">
     <use xlink:href="#FontAwesome6Free-Solid-f1ae"/>
    </g>
   </g>
   <g id="text_21">
    <!--  -->
    <g style="fill: #232066" transform="translate(97.89542 116.790299) scale(0.12 -0.12)">
     <use xlink:href="#FontAwesome6Free-Solid-f1ae"/>
    </g>
   </g>
   <g id="text_22">
    <!--  -->
    <g style="fill: #232066" transform="translate(97.89542 94.116444) scale(0.12 -0.12)">
     <use xlink:href="#FontAwesome6Free-Solid-f1ae"/>
    </g>
   </g>
   <g id="text_23">
    <!--  -->
    <g style="fill: #232066" transform="translate(97.89542 71.442589) scale(0.12 -0.12)">
     <use xlink:href="#FontAwesome6Free-Solid-f1ae"/>
    </g>
   </g>
   <g id="text_24">
    <!--  -->
    <g style="fill: #232066" transform="translate(97.89542 48.768734) scale(0.12 -0.12)">
     <use xlink:href="#FontAwesome6Free-Solid-f1ae"/>
    </g>
   </g>
   <g id="text_25">
    <!--  -->
    <g style="fill: #232066" transform="translate(97.89542 26.094879) scale(0.12 -0.12)">
     <use xlink:href="#FontAwesome6Free-Solid-f1ae"/>
    </g>
   </g>
   <g id="text_26">
    <!--  -->
    <g style="fill: #232066" transform="translate(120.569275 116.790299) scale(0.12 -0.12)">
     <use xlink:href="#FontAwesome6Free-Solid-f1ae"/>
    </g>
   </g>
   <g id="text_27">
    <!--  -->
    <g style="fill: #232066" transform="translate(120.569275 94.116444) scale(0.12 -0.12)">
     <use xlink:href="#FontAwesome6Free-Solid-f1ae"/>
    </g>
   </g>
   <g id="text_28">
    <!--  -->
    <g style="fill: #232066" transform="translate(120.569275 71.442589) scale(0.12 -0.12)">
     <use xlink:href="#FontAwesome6Free-Solid-f1ae"/>
    </g>
   </g>
   <g id="text_29">
    <!--  -->
    <g style="fill: #232066" transform="translate(120.569275 48.768734) scale(0.12 -0.12)">
     <use xlink:href="#FontAwesome6Free-Solid-f1ae"/>
    </g>
   </g>
   <g id="text_30">
    <!--  -->
    <g style="fill: #232066" transform="translate(120.569275 26.094879) scale(0.12 -0.12)">
     <use xlink:href="#FontAwesome6Free-Solid-f1ae"/>
    </g>
   </g>
   <g id="text_31">
    <!--  -->
    <g style="fill: #232066" transform="translate(143.24313 116.790299) scale(0.12 -0.12)">
     <use xlink:href="#FontAwesome6Free-Solid-f1ae"/>
    </g>
   </g>
   <g id="text_32">
    <!--  -->
    <g style="fill: #232066" transform="translate(143.24313 94.116444) scale(0.12 -0.12)">
     <use xlink:href="#FontAwesome6Free-Solid-f1ae"/>
    </g>
   </g>
   <g id="text_33">
    <!--  -->
    <g style="fill: #232066" transform="translate(143.24313 71.442589) scale(0.12 -0.12)">
     <use xlink:href="#FontAwesome6Free-Solid-f1ae"/>
    </g>
   </g>
   <g id="text_34">
    <!--  -->
    <g style="fill: #232066" transform="translate(143.24313 48.768734) scale(0.12 -0.12)">
     <use xlink:href="#FontAwesome6Free-Solid-f1ae"/>
    </g>
   </g>
   <g id="text_35">
    <!--  -->
    <g style="fill: #232066" transform="translate(143.24313 26.094879) scale(0.12 -0.12)">
     <use xlink:href="#FontAwesome6Free-Solid-f1ae"/>
    </g>
   </g>
   <g id="text_36">
    <!--  -->
    <g style="fill: #232066" transform="translate(165.916985 116.790299) scale(0.12 -0.12)">
     <use xlink:href="#FontAwesome6Free-Solid-f1ae"/>
    </g>
   </g>
   <g id="text_37">
    <!--  -->
    <g style="fill: #232066" transform="translate(165.916985 94.116444) scale(0.12 -0.12)">
     <use xlink:href="#FontAwesome6Free-Solid-f1ae"/>
    </g>
   </g>
   <g id="text_38">
    <!--  -->
    <g style="fill: #232066" transform="translate(165.916985 71.442589) scale(0.12 -0.12)">
     <use xlink:href="#FontAwesome6Free-Solid-f1ae"/>
    </g>
   </g>
   <g id="text_39">
    <!--  -->
    <g style="fill: #232066" transform="translate(165.916985 48.768734) scale(0.12 -0.12)">
     <use xlink:href="#FontAwesome6Free-Solid-f1ae"/>
    </g>
   </g>
   <g id="text_40">
    <!--  -->
    <g style="fill: #232066" transform="translate(165.916985 26.094879) scale(0.12 -0.12)">
     <use xlink:href="#FontAwesome6Free-Solid-f1ae"/>
    </g>
   </g>
   <g id="text_41">
    <!--  -->
    <g style="fill: #232066" transform="translate(188.59084 116.790299) scale(0.12 -0.12)">
     <use xlink:href="#FontAwesome6Free-Solid-f1ae"/>
    </g>
   </g>
   <g id="text_42">
    <!--  -->
    <g style="fill: #232066" transform="translate(188.59084 94.116444) scale(0.12 -0.12)">
     <use xlink:href="#FontAwesome6Free-Solid-f1ae"/>
    </g>
   </g>
   <g id="text_43">
    <!--  -->
    <g style="fill: #232066" transform="translate(188.59084 71.442589) scale(0.12 -0.12)">
     <use xlink:href="#FontAwesome6Free-Solid-f1ae"/>
    </g>
   </g>
   <g id="text_44">
    <!--  -->
    <g style="fill: #232066" transform="translate(188.59084 48.768734) scale(0.12 -0.12)">
     <use xlink:href="#FontAwesome6Free-Solid-f1ae"/>
    </g>
   </g>
   <g id="text_45">
    <!--  -->
    <g style="fill: #232066" transform="translate(188.59084 26.094879) scale(0.12 -0.12)">
     <use xlink:href="#FontAwesome6Free-Solid-f1ae"/>
    </g>
   </g>
   <g id="text_46">
    <!--  -->
    <g style="fill: #232066" transform="translate(211.264695 116.790299) scale(0.12 -0.12)">
     <use xlink:href="#FontAwesome6Free-Solid-f1ae"/>
    </g>
   </g>
   <g id="text_47">
    <!--  -->
    <g style="fill: #232066" transform="translate(211.264695 94.116444) scale(0.12 -0.12)">
     <use xlink:href="#FontAwesome6Free-Solid-f1ae"/>
    </g>
   </g>
   <g id="text_48">
    <!--  -->
    <g style="fill: #232066" transform="translate(211.264695 71.442589) scale(0.12 -0.12)">
     <use xlink:href="#FontAwesome6Free-Solid-f1ae"/>
    </g>
   </g>
   <g id="text_49">
    <!--  -->
    <g style="fill: #983d3d" transform="translate(211.264695 48.768734) scale(0.12 -0.12)">
     <use xlink:href="#FontAwesome6Free-Solid-f1ae"/>
    </g>
   </g>
   <g id="text_50">
    <!--  -->
    <g style="fill: #983d3d" transform="translate(211.264695 26.094879) scale(0.12 -0.12)">
     <use xlink:href="#FontAwesome6Free-Solid-f1ae"/>
    </g>
   </g>
   <g id="text_51">
    <!--  -->
    <g style="fill: #983d3d" transform="translate(233.93855 116.790299) scale(0.12 -0.12)">
     <use xlink:href="#FontAwesome6Free-Solid-f1ae"/>
    </g>
   </g>
   <g id="text_52">
    <!--  -->
    <g style="fill: #983d3d" transform="translate(233.93855 94.116444) scale(0.12 -0.12)">
     <use xlink:href="#FontAwesome6Free-Solid-f1ae"/>
    </g>
   </g>
   <g id="text_53">
    <!--  -->
    <g style="fill: #983d3d" transform="translate(233.93855 71.442589) scale(0.12 -0.12)">
     <use xlink:href="#FontAwesome6Free-Solid-f1ae"/>
    </g>
   </g>
   <g id="text_54">
    <!--  -->
    <g style="fill: #983d3d" transform="translate(233.93855 48.768734) scale(0.12 -0.12)">
     <use xlink:href="#FontAwesome6Free-Solid-f1ae"/>
    </g>
   </g>
   <g id="text_55">
    <!--  -->
    <g style="fill: #983d3d" transform="translate(233.93855 26.094879) scale(0.12 -0.12)">
     <use xlink:href="#FontAwesome6Free-Solid-f1ae"/>
    </g>
   </g>
   <g id="text_56">
    <!--  -->
    <g style="fill: #983d3d" transform="translate(256.612405 116.790299) scale(0.12 -0.12)">
     <use xlink:href="#FontAwesome6Free-Solid-f1ae"/>
    </g>
   </g>
   <g id="text_57">
    <!--  -->
    <g style="fill: #983d3d" transform="translate(256.612405 94.116444) scale(0.12 -0.12)">
     <use xlink:href="#FontAwesome6Free-Solid-f1ae"/>
    </g>
   </g>
   <g id="text_58">
    <!--  -->
    <g style="fill: #983d3d" transform="translate(256.612405 71.442589) scale(0.12 -0.12)">
     <use xlink:href="#FontAwesome6Free-Solid-f1ae"/>
    </g>
   </g>
   <g id="text_59">
    <!--  -->
    <g style="fill: #983d3d" transform="translate(256.612405 48.768734) scale(0.12 -0.12)">
     <use xlink:href="#FontAwesome6Free-Solid-f1ae"/>
    </g>
   </g>
   <g id="text_60">
    <!--  -->
    <g style="fill: #983d3d" transform="translate(256.612405 26.094879) scale(0.12 -0.12)">
     <use xlink:href="#FontAwesome6Free-Solid-f1ae"/>
    </g>
   </g>
   <g id="text_61">
    <!--  -->
    <g style="fill: #983d3d" transform="translate(279.286261 116.790299) scale(0.12 -0.12)">
     <use xlink:href="#FontAwesome6Free-Solid-f1ae"/>
    </g>
   </g>
   <g id="text_62">
    <!--  -->
    <g style="fill: #983d3d" transform="translate(279.286261 94.116444) scale(0.12 -0.12)">
     <use xlink:href="#FontAwesome6Free-Solid-f1ae"/>
    </g>
   </g>
   <g id="text_63">
    <!--  -->
    <g style="fill: #983d3d" transform="translate(279.286261 71.442589) scale(0.12 -0.12)">
     <use xlink:href="#FontAwesome6Free-Solid-f1ae"/>
    </g>
   </g>
   <g id="text_64">
    <!--  -->
    <g style="fill: #983d3d" transform="translate(279.286261 48.768734) scale(0.12 -0.12)">
     <use xlink:href="#FontAwesome6Free-Solid-f1ae"/>
    </g>
   </g>
   <g id="text_65">
    <!--  -->
    <g style="fill: #983d3d" transform="translate(279.286261 26.094879) scale(0.12 -0.12)">
     <use xlink:href="#FontAwesome6Free-Solid-f1ae"/>
    </g>
   </g>
   <g id="text_66">
    <!--  -->
    <g style="fill: #983d3d" transform="translate(301.960116 116.790299) scale(0.12 -0.12)">
     <use xlink:href="#FontAwesome6Free-Solid-f1ae"/>
    </g>
   </g>
   <g id="text_67">
    <!--  -->
    <g style="fill: #983d3d" transform="translate(301.960116 94.116444) scale(0.12 -0.12)">
     <use xlink:href="#FontAwesome6Free-Solid-f1ae"/>
    </g>
   </g>
   <g id="text_68">
    <!--  -->
    <g style="fill: #983d3d" transform="translate(301.960116 71.442589) scale(0.12 -0.12)">
     <use xlink:href="#FontAwesome6Free-Solid-f1ae"/>
    </g>
   </g>
   <g id="text_69">
    <!--  -->
    <g style="fill: #983d3d" transform="translate(301.960116 48.768734) scale(0.12 -0.12)">
     <use xlink:href="#FontAwesome6Free-Solid-f1ae"/>
    </g>
   </g>
   <g id="text_70">
    <!--  -->
    <g style="fill: #983d3d" transform="translate(301.960116 26.094879) scale(0.12 -0.12)">
     <use xlink:href="#FontAwesome6Free-Solid-f1ae"/>
    </g>
   </g>
   <g id="text_71">
    <!--  -->
    <g style="fill: #983d3d" transform="translate(324.633971 116.790299) scale(0.12 -0.12)">
     <use xlink:href="#FontAwesome6Free-Solid-f1ae"/>
    </g>
   </g>
   <g id="text_72">
    <!--  -->
    <g style="fill: #983d3d" transform="translate(324.633971 94.116444) scale(0.12 -0.12)">
     <use xlink:href="#FontAwesome6Free-Solid-f1ae"/>
    </g>
   </g>
   <g id="text_73">
    <!--  -->
    <g style="fill: #983d3d" transform="translate(324.633971 71.442589) scale(0.12 -0.12)">
     <use xlink:href="#FontAwesome6Free-Solid-f1ae"/>
    </g>
   </g>
   <g id="text_74">
    <!--  -->
    <g style="fill: #983d3d" transform="translate(324.633971 48.768734) scale(0.12 -0.12)">
     <use xlink:href="#FontAwesome6Free-Solid-f1ae"/>
    </g>
   </g>
   <g id="text_75">
    <!--  -->
    <g style="fill: #983d3d" transform="translate(324.633971 26.094879) scale(0.12 -0.12)">
     <use xlink:href="#FontAwesome6Free-Solid-f1ae"/>
    </g>
   </g>
   <g id="text_76">
    <!--  -->
    <g style="fill: #983d3d" transform="translate(347.307826 116.790299) scale(0.12 -0.12)">
     <use xlink:href="#FontAwesome6Free-Solid-f1ae"/>
    </g>
   </g>
   <g id="text_77">
    <!--  -->
    <g style="fill: #983d3d" transform="translate(347.307826 94.116444) scale(0.12 -0.12)">
     <use xlink:href="#FontAwesome6Free-Solid-f1ae"/>
    </g>
   </g>
   <g id="text_78">
    <!--  -->
    <g style="fill: #983d3d" transform="translate(347.307826 71.442589) scale(0.12 -0.12)">
     <use xlink:href="#FontAwesome6Free-Solid-f1ae"/>
    </g>
   </g>
   <g id="text_79">
    <!--  -->
    <g style="fill: #983d3d" transform="translate(347.307826 48.768734) scale(0.12 -0.12)">
     <use xlink:href="#FontAwesome6Free-Solid-f1ae"/>
    </g>
   </g>
   <g id="text_80">
    <!--  -->
    <g style="fill: #983d3d" transform="translate(347.307826 26.094879) scale(0.12 -0.12)">
     <use xlink:href="#FontAwesome6Free-Solid-f1ae"/>
    </g>
   </g>
   <g id="text_81">
    <!--  -->
    <g style="fill: #983d3d" transform="translate(369.981681 116.790299) scale(0.12 -0.12)">
     <use xlink:href="#FontAwesome6Free-Solid-f1ae"/>
    </g>
   </g>
   <g id="text_82">
    <!--  -->
    <g style="fill: #983d3d" transform="translate(369.981681 94.116444) scale(0.12 -0.12)">
     <use xlink:href="#FontAwesome6Free-Solid-f1ae"/>
    </g>
   </g>
   <g id="text_83">
    <!--  -->
    <g style="fill: #983d3d" transform="translate(369.981681 71.442589) scale(0.12 -0.12)">
     <use xlink:href="#FontAwesome6Free-Solid-f1ae"/>
    </g>
   </g>
   <g id="text_84">
    <!--  -->
    <g style="fill: #983d3d" transform="translate(369.981681 48.768734) scale(0.12 -0.12)">
     <use xlink:href="#FontAwesome6Free-Solid-f1ae"/>
    </g>
   </g>
   <g id="text_85">
    <!--  -->
    <g style="fill: #983d3d" transform="translate(369.981681 26.094879) scale(0.12 -0.12)">
     <use xlink:href="#FontAwesome6Free-Solid-f1ae"/>
    </g>
   </g>
   <g id="text_86">
    <!--  -->
    <g style="fill: #983d3d" transform="translate(392.655536 116.790299) scale(0.12 -0.12)">
     <use xlink:href="#FontAwesome6Free-Solid-f1ae"/>
    </g>
   </g>
   <g id="text_87">
    <!--  -->
    <g style="fill: #983d3d" transform="translate(392.655536 94.116444) scale(0.12 -0.12)">
     <use xlink:href="#FontAwesome6Free-Solid-f1ae"/>
    </g>
   </g>
   <g id="text_88">
    <!--  -->
    <g style="fill: #983d3d" transform="translate(392.655536 71.442589) scale(0.12 -0.12)">
     <use xlink:href="#FontAwesome6Free-Solid-f1ae"/>
    </g>
   </g>
   <g id="text_89">
    <!--  -->
    <g style="fill: #983d3d" transform="translate(392.655536 48.768734) scale(0.12 -0.12)">
     <use xlink:href="#FontAwesome6Free-Solid-f1ae"/>
    </g>
   </g>
   <g id="text_90">
    <!--  -->
    <g style="fill: #983d3d" transform="translate(392.655536 26.094879) scale(0.12 -0.12)">
     <use xlink:href="#FontAwesome6Free-Solid-f1ae"/>
    </g>
   </g>
   <g id="text_91">
    <!--  -->
    <g style="fill: #983d3d" transform="translate(415.329391 116.790299) scale(0.12 -0.12)">
     <use xlink:href="#FontAwesome6Free-Solid-f1ae"/>
    </g>
   </g>
   <g id="text_92">
    <!--  -->
    <g style="fill: #983d3d" transform="translate(415.329391 94.116444) scale(0.12 -0.12)">
     <use xlink:href="#FontAwesome6Free-Solid-f1ae"/>
    </g>
   </g>
   <g id="text_93">
    <!--  -->
    <g style="fill: #983d3d" transform="translate(415.329391 71.442589) scale(0.12 -0.12)">
     <use xlink:href="#FontAwesome6Free-Solid-f1ae"/>
    </g>
   </g>
   <g id="text_94">
    <!--  -->
    <g style="fill: #983d3d" transform="translate(415.329391 48.768734) scale(0.12 -0.12)">
     <use xlink:href="#FontAwesome6Free-Solid-f1ae"/>
    </g>
   </g>
   <g id="text_95">
    <!--  -->
    <g style="fill: #dcb732" transform="translate(415.329391 26.094879) scale(0.12 -0.12)">
     <use xlink:href="#FontAwesome6Free-Solid-f1ae"/>
    </g>
   </g>
   <g id="text_96">
    <!--  -->
    <g style="fill: #dcb732" transform="translate(438.003246 116.790299) scale(0.12 -0.12)">
     <use xlink:href="#FontAwesome6Free-Solid-f1ae"/>
    </g>
   </g>
   <g id="text_97">
    <!--  -->
    <g style="fill: #dcb732" transform="translate(438.003246 94.116444) scale(0.12 -0.12)">
     <use xlink:href="#FontAwesome6Free-Solid-f1ae"/>
    </g>
   </g>
   <g id="legend_1">
    <g id="patch_2">
     <path d="M 465.298125 60.613125 
L 554.88 60.613125 
Q 557.28 60.613125 557.28 58.213125 
L 557.28 15.6 
Q 557.28 13.2 554.88 13.2 
L 465.298125 13.2 
Q 462.898125 13.2 462.898125 15.6 
L 462.898125 58.213125 
Q 462.898125 60.613125 465.298125 60.613125 
z
" style="fill: #ffffff; opacity: 0.8; stroke: #e6e6e6; stroke-width: 0.8; stroke-linejoin: miter"/>
    </g>
    <g id="text_98">
     <!--  -->
     <g style="fill: #232066" transform="translate(473.548125 24.3) scale(0.12 -0.12)">
      <use xlink:href="#FontAwesome6Free-Solid-f1ae"/>
     </g>
    </g>
    <g id="text_99">
     <!-- Democratic -->
     <g style="fill: #323034" transform="translate(498.898125 24) scale(0.12 -0.12)">
      <defs>
       <path id="STIXGeneral-Regular-44" d="M 102 4237 
L 1830 4237 
Q 3078 4237 3750 3654 
Q 4384 3110 4384 2138 
Q 4384 966 3514 410 
Q 2880 0 1901 0 
L 102 0 
L 102 122 
Q 474 147 570 252 
Q 666 358 666 736 
L 666 3520 
Q 666 3891 570 3990 
Q 474 4090 102 4115 
L 102 4237 
z
M 1318 3731 
L 1318 538 
Q 1318 365 1379 301 
Q 1440 237 1626 237 
Q 2125 237 2432 307 
Q 2739 378 3021 570 
Q 3686 1018 3686 2099 
Q 3686 3027 3078 3558 
Q 2803 3802 2476 3901 
Q 2150 4000 1658 4000 
Q 1472 4000 1395 3942 
Q 1318 3885 1318 3731 
z
" transform="scale(0.015625)"/>
       <path id="STIXGeneral-Regular-65" d="M 2611 1050 
L 2714 1005 
Q 2330 -64 1376 -64 
Q 813 -64 486 329 
Q 160 723 160 1389 
Q 160 2074 525 2509 
Q 890 2944 1485 2944 
Q 2061 2944 2374 2502 
Q 2560 2246 2592 1773 
L 621 1773 
Q 646 1370 700 1158 
Q 755 947 915 730 
Q 1184 378 1626 378 
Q 1939 378 2153 531 
Q 2368 685 2611 1050 
z
M 634 1978 
L 1939 1978 
Q 1882 2381 1750 2547 
Q 1619 2714 1312 2714 
Q 1043 2714 864 2525 
Q 685 2336 634 1978 
z
" transform="scale(0.015625)"/>
       <path id="STIXGeneral-Regular-6d" d="M 4960 0 
L 3565 0 
L 3565 96 
Q 3834 122 3907 208 
Q 3981 294 3981 576 
L 3981 1894 
Q 3981 2278 3869 2444 
Q 3757 2611 3488 2611 
Q 3264 2611 3107 2521 
Q 2950 2432 2803 2221 
L 2803 608 
Q 2803 301 2896 201 
Q 2989 102 3264 96 
L 3264 0 
L 1830 0 
L 1830 96 
Q 2112 115 2189 188 
Q 2266 262 2266 550 
L 2266 1901 
Q 2266 2611 1850 2611 
Q 1670 2611 1468 2531 
Q 1267 2451 1171 2336 
Q 1088 2240 1088 2227 
L 1088 448 
Q 1088 243 1177 176 
Q 1267 109 1523 96 
L 1523 0 
L 102 0 
L 102 96 
Q 371 102 460 195 
Q 550 288 550 563 
L 550 2150 
Q 550 2387 499 2480 
Q 448 2573 326 2573 
Q 230 2573 122 2547 
L 122 2656 
Q 557 2778 1011 2944 
L 1062 2925 
L 1062 2451 
L 1075 2451 
Q 1363 2752 1584 2848 
Q 1805 2944 2054 2944 
Q 2560 2944 2733 2406 
Q 3232 2944 3776 2944 
Q 4518 2944 4518 1792 
L 4518 493 
Q 4518 282 4582 202 
Q 4646 122 4794 109 
L 4960 96 
L 4960 0 
z
" transform="scale(0.015625)"/>
       <path id="STIXGeneral-Regular-6f" d="M 3008 1478 
Q 3008 806 2608 371 
Q 2208 -64 1568 -64 
Q 979 -64 582 368 
Q 186 800 186 1459 
Q 186 2125 582 2534 
Q 979 2944 1626 2944 
Q 2221 2944 2614 2537 
Q 3008 2131 3008 1478 
z
M 2432 1306 
Q 2432 2035 2112 2445 
Q 1856 2765 1504 2765 
Q 1171 2765 966 2493 
Q 762 2221 762 1747 
Q 762 928 1101 435 
Q 1318 115 1677 115 
Q 2029 115 2230 432 
Q 2432 749 2432 1306 
z
" transform="scale(0.015625)"/>
       <path id="STIXGeneral-Regular-63" d="M 2547 998 
L 2637 941 
Q 2362 403 2112 205 
Q 1786 -64 1376 -64 
Q 845 -64 502 336 
Q 160 736 160 1357 
Q 160 2170 698 2618 
Q 1094 2944 1562 2944 
Q 1965 2944 2256 2749 
Q 2547 2554 2547 2285 
Q 2547 2176 2457 2096 
Q 2368 2016 2246 2016 
Q 2022 2016 1939 2310 
L 1901 2451 
Q 1850 2630 1773 2694 
Q 1696 2758 1523 2758 
Q 1133 2758 893 2451 
Q 653 2144 653 1645 
Q 653 1094 928 745 
Q 1203 397 1645 397 
Q 1920 397 2118 528 
Q 2317 659 2547 998 
z
" transform="scale(0.015625)"/>
       <path id="STIXGeneral-Regular-72" d="M 1024 2931 
L 1024 2342 
Q 1267 2688 1430 2816 
Q 1594 2944 1792 2944 
Q 1958 2944 2051 2854 
Q 2144 2765 2144 2605 
Q 2144 2470 2077 2393 
Q 2010 2317 1894 2317 
Q 1773 2317 1638 2445 
Q 1536 2541 1472 2541 
Q 1338 2541 1181 2355 
Q 1024 2170 1024 2016 
L 1024 576 
Q 1024 301 1133 205 
Q 1242 109 1568 96 
L 1568 0 
L 32 0 
L 32 96 
Q 339 154 412 224 
Q 486 294 486 538 
L 486 2138 
Q 486 2349 438 2435 
Q 390 2522 269 2522 
Q 166 2522 45 2496 
L 45 2598 
Q 448 2726 992 2944 
L 1024 2931 
z
" transform="scale(0.015625)"/>
       <path id="STIXGeneral-Regular-61" d="M 2829 422 
L 2829 243 
Q 2586 -64 2253 -64 
Q 1888 -64 1843 403 
L 1837 403 
Q 1427 -64 909 -64 
Q 608 -64 422 112 
Q 237 288 237 602 
Q 237 1050 685 1350 
Q 992 1555 1837 1869 
L 1837 2214 
Q 1837 2502 1699 2646 
Q 1562 2790 1338 2790 
Q 1146 2790 1018 2697 
Q 890 2605 890 2477 
Q 890 2419 909 2348 
Q 928 2278 928 2208 
Q 928 2112 841 2029 
Q 755 1946 634 1946 
Q 525 1946 441 2029 
Q 358 2112 358 2240 
Q 358 2547 685 2752 
Q 986 2944 1421 2944 
Q 1939 2944 2176 2656 
Q 2291 2522 2323 2384 
Q 2355 2246 2355 1946 
L 2355 723 
Q 2355 301 2554 301 
Q 2682 301 2829 422 
z
M 1837 813 
L 1837 1715 
Q 1248 1510 1018 1293 
Q 800 1094 800 800 
Q 800 557 921 432 
Q 1043 307 1242 307 
Q 1453 307 1613 410 
Q 1747 506 1792 589 
Q 1837 672 1837 813 
z
" transform="scale(0.015625)"/>
       <path id="STIXGeneral-Regular-74" d="M 1702 493 
L 1786 422 
Q 1478 -64 1011 -64 
Q 448 -64 448 749 
L 448 2675 
L 109 2675 
Q 83 2694 83 2720 
Q 83 2771 192 2842 
Q 435 2982 813 3526 
Q 826 3546 874 3606 
Q 922 3667 941 3706 
Q 986 3706 986 3622 
L 986 2880 
L 1632 2880 
L 1632 2675 
L 986 2675 
L 986 845 
Q 986 538 1062 403 
Q 1139 269 1318 269 
Q 1510 269 1702 493 
z
" transform="scale(0.015625)"/>
       <path id="STIXGeneral-Regular-69" d="M 1152 4045 
Q 1152 3904 1056 3811 
Q 960 3718 819 3718 
Q 685 3718 592 3811 
Q 499 3904 499 4045 
Q 499 4179 595 4275 
Q 691 4371 826 4371 
Q 966 4371 1059 4275 
Q 1152 4179 1152 4045 
z
M 1619 0 
L 102 0 
L 102 96 
Q 435 115 521 211 
Q 608 307 608 666 
L 608 2118 
Q 608 2342 563 2432 
Q 518 2522 397 2522 
Q 243 2522 128 2490 
L 128 2592 
L 1120 2944 
L 1146 2918 
L 1146 672 
Q 1146 314 1226 218 
Q 1306 122 1619 96 
L 1619 0 
z
" transform="scale(0.015625)"/>
      </defs>
      <use xlink:href="#STIXGeneral-Regular-44"/>
      <use xlink:href="#STIXGeneral-Regular-65" transform="translate(72.199982 0)"/>
      <use xlink:href="#STIXGeneral-Regular-6d" transform="translate(116.599976 0)"/>
      <use xlink:href="#STIXGeneral-Regular-6f" transform="translate(194.399963 0)"/>
      <use xlink:href="#STIXGeneral-Regular-63" transform="translate(244.399948 0)"/>
      <use xlink:href="#STIXGeneral-Regular-72" transform="translate(288.799942 0)"/>
      <use xlink:href="#STIXGeneral-Regular-61" transform="translate(322.09993 0)"/>
      <use xlink:href="#STIXGeneral-Regular-74" transform="translate(366.499924 0)"/>
      <use xlink:href="#STIXGeneral-Regular-69" transform="translate(394.299911 0)"/>
      <use xlink:href="#STIXGeneral-Regular-63" transform="translate(422.099899 0)"/>
     </g>
    </g>
    <g id="text_100">
     <!--  -->
     <g style="fill: #983d3d" transform="translate(473.548125 40.104375) scale(0.12 -0.12)">
      <use xlink:href="#FontAwesome6Free-Solid-f1ae"/>
     </g>
    </g>
    <g id="text_101">
     <!-- Republican -->
     <g style="fill: #323034" transform="translate(498.898125 39.804375) scale(0.12 -0.12)">
      <defs>
       <path id="STIXGeneral-Regular-52" d="M 4224 0 
L 3187 0 
L 1664 1971 
L 1306 1958 
L 1306 717 
Q 1306 352 1405 249 
Q 1504 147 1875 122 
L 1875 0 
L 109 0 
L 109 122 
Q 474 154 563 262 
Q 653 371 653 794 
L 653 3526 
Q 653 3885 563 3987 
Q 474 4090 109 4115 
L 109 4237 
L 1850 4237 
Q 2726 4237 3187 3859 
Q 3501 3603 3501 3091 
Q 3501 2221 2342 2042 
L 3622 422 
Q 3757 256 3878 198 
Q 4000 141 4224 122 
L 4224 0 
z
M 1306 3731 
L 1306 2195 
Q 1766 2202 1990 2246 
Q 2214 2291 2438 2413 
Q 2803 2618 2803 3142 
Q 2803 4000 1632 4000 
Q 1459 4000 1382 3945 
Q 1306 3891 1306 3731 
z
" transform="scale(0.015625)"/>
       <path id="STIXGeneral-Regular-70" d="M 1018 2931 
L 1018 2438 
Q 1421 2944 1939 2944 
Q 2406 2944 2707 2560 
Q 3008 2176 3008 1581 
Q 3008 883 2621 409 
Q 2234 -64 1664 -64 
Q 1466 -64 1328 -6 
Q 1190 51 1018 211 
L 1018 -794 
Q 1018 -1094 1120 -1180 
Q 1222 -1267 1581 -1274 
L 1581 -1389 
L 32 -1389 
L 32 -1280 
Q 314 -1254 397 -1171 
Q 480 -1088 480 -838 
L 480 2157 
Q 480 2381 429 2451 
Q 378 2522 218 2522 
Q 115 2522 58 2515 
L 58 2618 
Q 506 2752 979 2944 
L 1018 2931 
z
M 1018 2138 
L 1018 563 
Q 1018 422 1238 281 
Q 1459 141 1683 141 
Q 2029 141 2243 467 
Q 2458 794 2458 1325 
Q 2458 1888 2243 2224 
Q 2029 2560 1670 2560 
Q 1446 2560 1232 2419 
Q 1018 2278 1018 2138 
z
" transform="scale(0.015625)"/>
       <path id="STIXGeneral-Regular-75" d="M 3072 320 
L 3072 230 
Q 2573 96 2195 -58 
L 2163 -38 
L 2163 486 
L 2150 486 
Q 1747 -64 1235 -64 
Q 870 -64 662 160 
Q 454 384 454 755 
L 454 2362 
Q 454 2598 371 2688 
Q 288 2778 58 2790 
L 58 2880 
L 992 2880 
L 992 813 
Q 992 595 1123 451 
Q 1254 307 1446 307 
Q 1760 307 1984 506 
Q 2067 582 2099 649 
Q 2131 717 2131 877 
L 2131 2355 
Q 2131 2605 2041 2678 
Q 1952 2752 1658 2771 
L 1658 2880 
L 2669 2880 
L 2669 685 
Q 2669 461 2742 390 
Q 2816 320 3034 320 
L 3072 320 
z
" transform="scale(0.015625)"/>
       <path id="STIXGeneral-Regular-62" d="M 979 4358 
L 979 2406 
Q 1082 2650 1315 2797 
Q 1549 2944 1843 2944 
Q 2349 2944 2672 2541 
Q 2995 2138 2995 1536 
Q 2995 832 2566 384 
Q 2138 -64 1498 -64 
Q 1107 -64 774 67 
Q 442 198 442 358 
L 442 3622 
Q 442 3859 384 3926 
Q 326 3994 128 3994 
Q 83 3994 19 3981 
L 19 4090 
L 211 4147 
Q 864 4346 947 4371 
L 979 4358 
z
M 979 2035 
L 979 474 
Q 979 326 1161 233 
Q 1344 141 1600 141 
Q 1978 141 2195 416 
Q 2432 710 2432 1261 
Q 2432 1888 2182 2240 
Q 1971 2541 1613 2541 
Q 1357 2541 1168 2390 
Q 979 2240 979 2035 
z
" transform="scale(0.015625)"/>
       <path id="STIXGeneral-Regular-6c" d="M 1645 0 
L 134 0 
L 134 96 
Q 435 122 531 221 
Q 627 320 627 589 
L 627 3590 
Q 627 3821 569 3910 
Q 512 4000 358 4000 
Q 224 4000 122 3987 
L 122 4090 
Q 730 4237 1133 4371 
L 1165 4346 
L 1165 557 
Q 1165 288 1254 201 
Q 1344 115 1645 96 
L 1645 0 
z
" transform="scale(0.015625)"/>
       <path id="STIXGeneral-Regular-6e" d="M 3104 0 
L 1773 0 
L 1779 96 
Q 2016 115 2096 233 
Q 2176 352 2176 672 
L 2176 1946 
Q 2176 2592 1709 2592 
Q 1549 2592 1408 2515 
Q 1267 2438 1050 2227 
L 1050 461 
Q 1050 269 1136 192 
Q 1222 115 1466 96 
L 1466 0 
L 115 0 
L 115 96 
Q 358 115 435 214 
Q 512 314 512 602 
L 512 2157 
Q 512 2394 467 2483 
Q 422 2573 288 2573 
Q 160 2573 102 2547 
L 102 2656 
Q 550 2784 979 2944 
L 1030 2925 
L 1030 2426 
L 1037 2426 
Q 1491 2944 1958 2944 
Q 2323 2944 2518 2688 
Q 2714 2432 2714 1958 
L 2714 544 
Q 2714 288 2790 205 
Q 2867 122 3104 96 
L 3104 0 
z
" transform="scale(0.015625)"/>
      </defs>
      <use xlink:href="#STIXGeneral-Regular-52"/>
      <use xlink:href="#STIXGeneral-Regular-65" transform="translate(66.699997 0)"/>
      <use xlink:href="#STIXGeneral-Regular-70" transform="translate(111.099991 0)"/>
      <use xlink:href="#STIXGeneral-Regular-75" transform="translate(161.099976 0)"/>
      <use xlink:href="#STIXGeneral-Regular-62" transform="translate(211.09996 0)"/>
      <use xlink:href="#STIXGeneral-Regular-6c" transform="translate(261.099945 0)"/>
      <use xlink:href="#STIXGeneral-Regular-69" transform="translate(288.899933 0)"/>
      <use xlink:href="#STIXGeneral-Regular-63" transform="translate(316.699921 0)"/>
      <use xlink:href="#STIXGeneral-Regular-61" transform="translate(361.099915 0)"/>
      <use xlink:href="#STIXGeneral-Regular-6e" transform="translate(405.499908 0)"/>
     </g>
    </g>
    <g id="text_102">
     <!--  -->
     <g style="fill: #dcb732" transform="translate(473.548125 55.90875) scale(0.12 -0.12)">
      <use xlink:href="#FontAwesome6Free-Solid-f1ae"/>
     </g>
    </g>
    <g id="text_103">
     <!-- Libertarian -->
     <g style="fill: #323034" transform="translate(498.898125 55.60875) scale(0.12 -0.12)">
      <defs>
       <path id="STIXGeneral-Regular-4c" d="M 3827 1114 
L 3520 0 
L 77 0 
L 77 122 
Q 429 141 531 256 
Q 634 371 634 736 
L 634 3494 
Q 634 3872 541 3981 
Q 448 4090 77 4115 
L 77 4237 
L 1888 4237 
L 1888 4115 
Q 1498 4090 1392 3984 
Q 1286 3878 1286 3507 
L 1286 538 
Q 1286 358 1398 304 
Q 1510 250 1862 250 
L 2310 250 
Q 3085 250 3392 640 
Q 3520 813 3661 1114 
L 3827 1114 
z
" transform="scale(0.015625)"/>
      </defs>
      <use xlink:href="#STIXGeneral-Regular-4c"/>
      <use xlink:href="#STIXGeneral-Regular-69" transform="translate(61.099991 0)"/>
      <use xlink:href="#STIXGeneral-Regular-62" transform="translate(88.899979 0)"/>
      <use xlink:href="#STIXGeneral-Regular-65" transform="translate(138.899963 0)"/>
      <use xlink:href="#STIXGeneral-Regular-72" transform="translate(183.299957 0)"/>
      <use xlink:href="#STIXGeneral-Regular-74" transform="translate(216.599945 0)"/>
      <use xlink:href="#STIXGeneral-Regular-61" transform="translate(244.399933 0)"/>
      <use xlink:href="#STIXGeneral-Regular-72" transform="translate(288.799927 0)"/>
      <use xlink:href="#STIXGeneral-Regular-69" transform="translate(322.099915 0)"/>
      <use xlink:href="#STIXGeneral-Regular-61" transform="translate(349.899902 0)"/>
      <use xlink:href="#STIXGeneral-Regular-6e" transform="translate(394.299896 0)"/>
     </g>
    </g>
   </g>
  </g>
 </g>
</svg>