<?xml version="1.0" encoding="utf-8" standalone="no"?>
<!DOCTYPE svg PUBLIC "-//W3C//DTD SVG 1.1//EN"
  "http://www.w3.org/Graphics/SVG/1.1/DTD/svg11.dtd">
<svg xmlns:xlink="http://www.w3.org/1999/xlink" width="268.742542pt" height="266.335876pt" viewBox="0 0 268.742542 266.335876" xmlns="http://www.w3.org/2000/svg" version="1.1">
 <metadata>
  <rdf:RDF xmlns:dc="http://purl.org/dc/elements/1.1/" xmlns:cc="http://creativecommons.org/ns#" xmlns:rdf="http://www.w3.org/1999/02/22-rdf-syntax-ns#">
   <cc:Work>
    <dc:type rdf:resource="http://purl.org/dc/dcmitype/StillImage"/>
    <dc:date>2023-12-29T00:21:59.509304</dc:date>
    <dc:format>image/svg+xml</dc:format>
    <dc:creator>
     <cc:Agent>
      <dc:title>Matplotlib v3.7.2, https://matplotlib.org/</dc:title>
     </cc:Agent>
    </dc:creator>
   </cc:Work>
  </rdf:RDF>
 </metadata>
 <defs>
  <style type="text/css">*{stroke-linejoin: round; stroke-linecap: butt}</style>
 </defs>
 <g id="figure_1">
  <g id="patch_1">
   <path d="M 0 266.335876 
L 268.742542 266.335876 
L 268.742542 0 
L 0 0 
z
" style="fill: #ffffff"/>
  </g>
  <g id="axes_1">
   <g id="patch_2">
    <path d="M 233.326292 133.167938 
C 233.326292 118.60731 230.458166 104.188265 224.886055 90.735999 
C 219.313944 77.283732 211.146211 65.059857 200.850292 54.763938 
C 190.554373 44.468019 178.330498 36.300286 164.878231 30.728175 
C 151.425965 25.156064 137.00692 22.287938 122.446292 22.287938 
C 107.885664 22.287938 93.46662 25.156064 80.014353 30.728175 
C 66.562087 36.300286 54.338211 44.468019 44.042292 54.763938 
C 33.746373 65.059857 25.578641 77.283732 20.00653 90.735999 
C 14.434419 104.188265 11.566292 118.60731 11.566292 133.167938 
C 11.566292 147.728566 14.434419 162.14761 20.00653 175.599877 
C 25.578641 189.052143 33.746373 201.276019 44.042292 211.571938 
C 54.338211 221.867857 66.562087 230.035589 80.014353 235.6077 
C 93.46662 241.179811 107.885664 244.047938 122.446292 244.047938 
C 137.00692 244.047938 151.425965 241.179811 164.878231 235.6077 
C 178.330498 230.035589 190.554373 221.867857 200.850292 211.571938 
C 211.146211 201.276019 219.313944 189.052143 224.886055 175.599877 
C 230.458166 162.14761 233.326292 147.728566 233.326292 133.167938 
M 122.446292 133.167938 
C 122.446292 133.167938 122.446292 133.167938 122.446292 133.167938 
C 122.446292 133.167938 122.446292 133.167938 122.446292 133.167938 
C 122.446292 133.167938 122.446292 133.167938 122.446292 133.167938 
C 122.446292 133.167938 122.446292 133.167938 122.446292 133.167938 
C 122.446292 133.167938 122.446292 133.167938 122.446292 133.167938 
C 122.446292 133.167938 122.446292 133.167938 122.446292 133.167938 
C 122.446292 133.167938 122.446292 133.167938 122.446292 133.167938 
C 122.446292 133.167938 122.446292 133.167938 122.446292 133.167938 
C 122.446292 133.167938 122.446292 133.167938 122.446292 133.167938 
C 122.446292 133.167938 122.446292 133.167938 122.446292 133.167938 
C 122.446292 133.167938 122.446292 133.167938 122.446292 133.167938 
C 122.446292 133.167938 122.446292 133.167938 122.446292 133.167938 
C 122.446292 133.167938 122.446292 133.167938 122.446292 133.167938 
C 122.446292 133.167938 122.446292 133.167938 122.446292 133.167938 
C 122.446292 133.167938 122.446292 133.167938 122.446292 133.167938 
C 122.446292 133.167938 122.446292 133.167938 122.446292 133.167938 
z
" style="fill: #ffffff"/>
   </g>
   <g id="patch_3">
    <path d="M 200.062292 133.167938 
L 134.438624 96.259336 
L 122.446292 133.167938 
L 68.62401 172.272115 
L 154.996906 233.348427 
z
" clip-path="url(#p36247b57e6)" style="fill: #0000ff; opacity: 0.1; stroke: #000000; stroke-width: 0.8; stroke-linejoin: miter"/>
   </g>
   <g id="matplotlib.axis_1">
    <g id="xtick_1">
     <g id="line2d_1">
      <path d="M 122.446292 133.167938 
L 233.326292 133.167938 
" clip-path="url(#p36247b57e6)" style="fill: none; stroke: #b1afb5; stroke-width: 0.8; stroke-linecap: square"/>
     </g>
     <g id="text_1">
      <!-- var1 -->
      <g style="fill: #323034" transform="translate(233.110042 136.895438) scale(0.16 -0.16)">
       <defs>
        <path id="STIXGeneral-Regular-76" d="M 3053 2880 
L 3053 2784 
Q 2906 2771 2835 2688 
Q 2765 2605 2637 2285 
L 1818 230 
Q 1690 -90 1638 -90 
Q 1587 -90 1523 77 
Q 1510 96 1497 141 
Q 1485 186 1472 211 
L 704 2048 
Q 499 2534 403 2652 
Q 307 2771 122 2784 
L 122 2880 
L 1376 2880 
L 1376 2784 
Q 1210 2771 1146 2732 
Q 1082 2694 1082 2611 
Q 1082 2509 1139 2368 
L 1792 730 
L 2426 2387 
Q 2464 2483 2464 2579 
Q 2464 2758 2163 2784 
L 2163 2880 
L 3053 2880 
z
" transform="scale(0.015625)"/>
        <path id="STIXGeneral-Regular-61" d="M 2829 422 
L 2829 243 
Q 2586 -64 2253 -64 
Q 1888 -64 1843 403 
L 1837 403 
Q 1427 -64 909 -64 
Q 608 -64 422 112 
Q 237 288 237 602 
Q 237 1050 685 1350 
Q 992 1555 1837 1869 
L 1837 2214 
Q 1837 2502 1699 2646 
Q 1562 2790 1338 2790 
Q 1146 2790 1018 2697 
Q 890 2605 890 2477 
Q 890 2419 909 2348 
Q 928 2278 928 2208 
Q 928 2112 841 2029 
Q 755 1946 634 1946 
Q 525 1946 441 2029 
Q 358 2112 358 2240 
Q 358 2547 685 2752 
Q 986 2944 1421 2944 
Q 1939 2944 2176 2656 
Q 2291 2522 2323 2384 
Q 2355 2246 2355 1946 
L 2355 723 
Q 2355 301 2554 301 
Q 2682 301 2829 422 
z
M 1837 813 
L 1837 1715 
Q 1248 1510 1018 1293 
Q 800 1094 800 800 
Q 800 557 921 432 
Q 1043 307 1242 307 
Q 1453 307 1613 410 
Q 1747 506 1792 589 
Q 1837 672 1837 813 
z
" transform="scale(0.015625)"/>
        <path id="STIXGeneral-Regular-72" d="M 1024 2931 
L 1024 2342 
Q 1267 2688 1430 2816 
Q 1594 2944 1792 2944 
Q 1958 2944 2051 2854 
Q 2144 2765 2144 2605 
Q 2144 2470 2077 2393 
Q 2010 2317 1894 2317 
Q 1773 2317 1638 2445 
Q 1536 2541 1472 2541 
Q 1338 2541 1181 2355 
Q 1024 2170 1024 2016 
L 1024 576 
Q 1024 301 1133 205 
Q 1242 109 1568 96 
L 1568 0 
L 32 0 
L 32 96 
Q 339 154 412 224 
Q 486 294 486 538 
L 486 2138 
Q 486 2349 438 2435 
Q 390 2522 269 2522 
Q 166 2522 45 2496 
L 45 2598 
Q 448 2726 992 2944 
L 1024 2931 
z
" transform="scale(0.015625)"/>
        <path id="STIXGeneral-Regular-31" d="M 2522 0 
L 755 0 
L 755 96 
Q 1107 115 1235 227 
Q 1363 339 1363 608 
L 1363 3482 
Q 1363 3795 1171 3795 
Q 1082 3795 883 3718 
L 710 3654 
L 710 3744 
L 1856 4326 
L 1914 4307 
L 1914 486 
Q 1914 275 2042 185 
Q 2170 96 2522 96 
L 2522 0 
z
" transform="scale(0.015625)"/>
       </defs>
       <use xlink:href="#STIXGeneral-Regular-76"/>
       <use xlink:href="#STIXGeneral-Regular-61" x="49.999985"/>
       <use xlink:href="#STIXGeneral-Regular-72" x="94.399979"/>
       <use xlink:href="#STIXGeneral-Regular-31" x="127.699966"/>
      </g>
     </g>
    </g>
    <g id="xtick_2">
     <g id="line2d_2">
      <path d="M 122.446292 133.167938 
L 156.710097 27.714791 
" clip-path="url(#p36247b57e6)" style="fill: none; stroke: #b1afb5; stroke-width: 0.8; stroke-linecap: square"/>
     </g>
     <g id="text_2">
      <!-- var2 -->
      <g style="fill: #323034" transform="translate(146.820085 18.1275) scale(0.16 -0.16)">
       <defs>
        <path id="STIXGeneral-Regular-32" d="M 3034 877 
L 2688 0 
L 186 0 
L 186 77 
L 1325 1286 
Q 1773 1754 1965 2144 
Q 2157 2534 2157 2950 
Q 2157 3379 1920 3616 
Q 1683 3853 1267 3853 
Q 922 3853 720 3673 
Q 518 3494 326 3021 
L 192 3053 
Q 301 3648 630 3987 
Q 960 4326 1523 4326 
Q 2054 4326 2380 4006 
Q 2707 3686 2707 3200 
Q 2707 2477 1888 1613 
L 832 486 
L 2330 486 
Q 2541 486 2665 569 
Q 2790 653 2944 915 
L 3034 877 
z
" transform="scale(0.015625)"/>
       </defs>
       <use xlink:href="#STIXGeneral-Regular-76"/>
       <use xlink:href="#STIXGeneral-Regular-61" x="49.999985"/>
       <use xlink:href="#STIXGeneral-Regular-72" x="94.399979"/>
       <use xlink:href="#STIXGeneral-Regular-32" x="127.699966"/>
      </g>
     </g>
    </g>
    <g id="xtick_3">
     <g id="line2d_3">
      <path d="M 122.446292 133.167938 
L 32.742488 67.994309 
" clip-path="url(#p36247b57e6)" style="fill: none; stroke: #b1afb5; stroke-width: 0.8; stroke-linecap: square"/>
     </g>
     <g id="text_3">
      <!-- var3 -->
      <g style="fill: #323034" transform="translate(7.2 63.492815) scale(0.16 -0.16)">
       <defs>
        <path id="STIXGeneral-Regular-33" d="M 390 3264 
L 288 3290 
Q 435 3770 748 4048 
Q 1062 4326 1542 4326 
Q 1990 4326 2265 4083 
Q 2541 3840 2541 3450 
Q 2541 2925 1946 2566 
Q 2298 2413 2477 2227 
Q 2758 1914 2758 1402 
Q 2758 890 2464 506 
Q 2246 211 1840 60 
Q 1434 -90 979 -90 
Q 262 -90 262 275 
Q 262 378 339 442 
Q 416 506 525 506 
Q 685 506 915 339 
Q 1197 141 1466 141 
Q 1818 141 2058 425 
Q 2298 710 2298 1120 
Q 2298 1856 1632 2048 
Q 1434 2112 979 2112 
L 979 2202 
Q 1338 2323 1517 2432 
Q 2035 2726 2035 3290 
Q 2035 3610 1852 3776 
Q 1670 3942 1344 3942 
Q 768 3942 390 3264 
z
" transform="scale(0.015625)"/>
       </defs>
       <use xlink:href="#STIXGeneral-Regular-76"/>
       <use xlink:href="#STIXGeneral-Regular-61" x="49.999985"/>
       <use xlink:href="#STIXGeneral-Regular-72" x="94.399979"/>
       <use xlink:href="#STIXGeneral-Regular-33" x="127.699966"/>
      </g>
     </g>
    </g>
    <g id="xtick_4">
     <g id="line2d_4">
      <path d="M 122.446292 133.167938 
L 32.742488 198.341567 
" clip-path="url(#p36247b57e6)" style="fill: none; stroke: #b1afb5; stroke-width: 0.8; stroke-linecap: square"/>
     </g>
     <g id="text_4">
      <!-- var4 -->
      <g style="fill: #323034" transform="translate(7.2 210.29806) scale(0.16 -0.16)">
       <defs>
        <path id="STIXGeneral-Regular-34" d="M 3027 1069 
L 2368 1069 
L 2368 0 
L 1869 0 
L 1869 1069 
L 77 1069 
L 77 1478 
L 2086 4326 
L 2368 4326 
L 2368 1478 
L 3027 1478 
L 3027 1069 
z
M 1869 1478 
L 1869 3674 
L 333 1478 
L 1869 1478 
z
" transform="scale(0.015625)"/>
       </defs>
       <use xlink:href="#STIXGeneral-Regular-76"/>
       <use xlink:href="#STIXGeneral-Regular-61" x="49.999985"/>
       <use xlink:href="#STIXGeneral-Regular-72" x="94.399979"/>
       <use xlink:href="#STIXGeneral-Regular-34" x="127.699966"/>
      </g>
     </g>
    </g>
    <g id="xtick_5">
     <g id="line2d_5">
      <path d="M 122.446292 133.167938 
L 156.710097 238.621084 
" clip-path="url(#p36247b57e6)" style="fill: none; stroke: #b1afb5; stroke-width: 0.8; stroke-linecap: square"/>
     </g>
     <g id="text_5">
      <!-- var5 -->
      <g style="fill: #323034" transform="translate(146.820085 255.663376) scale(0.16 -0.16)">
       <defs>
        <path id="STIXGeneral-Regular-35" d="M 2803 4358 
L 2573 3814 
Q 2534 3731 2400 3731 
L 1158 3731 
L 902 3187 
Q 1606 3053 1920 2896 
Q 2234 2739 2502 2368 
Q 2726 2061 2726 1555 
Q 2726 1094 2576 780 
Q 2426 467 2099 224 
Q 1664 -90 1011 -90 
Q 646 -90 422 19 
Q 198 128 198 307 
Q 198 550 486 550 
Q 717 550 960 352 
Q 1210 147 1414 147 
Q 1747 147 2012 480 
Q 2278 813 2278 1229 
Q 2278 1843 1850 2189 
Q 1293 2637 486 2637 
Q 410 2637 410 2688 
L 416 2720 
L 1114 4237 
L 2438 4237 
Q 2547 4237 2608 4269 
Q 2669 4301 2746 4403 
L 2803 4358 
z
" transform="scale(0.015625)"/>
       </defs>
       <use xlink:href="#STIXGeneral-Regular-76"/>
       <use xlink:href="#STIXGeneral-Regular-61" x="49.999985"/>
       <use xlink:href="#STIXGeneral-Regular-72" x="94.399979"/>
       <use xlink:href="#STIXGeneral-Regular-35" x="127.699966"/>
      </g>
     </g>
    </g>
   </g>
   <g id="matplotlib.axis_2">
    <g id="ytick_1">
     <g id="line2d_6">
      <path d="M 150.166292 133.167938 
C 150.166292 129.527781 149.449261 125.92302 148.056233 122.559953 
C 146.663205 119.196886 144.621272 116.140918 142.047292 113.566938 
C 139.473312 110.992958 136.417344 108.951025 133.054277 107.557997 
C 129.69121 106.164969 126.086449 105.447938 122.446292 105.447938 
C 118.806135 105.447938 115.201374 106.164969 111.838308 107.557997 
C 108.475241 108.951025 105.419272 110.992958 102.845292 113.566938 
C 100.271313 116.140918 98.229379 119.196886 96.836352 122.559953 
C 95.443324 125.92302 94.726292 129.527781 94.726292 133.167938 
C 94.726292 136.808095 95.443324 140.412856 96.836352 143.775923 
C 98.229379 147.138989 100.271313 150.194958 102.845292 152.768938 
C 105.419272 155.342917 108.475241 157.384851 111.838308 158.777878 
C 115.201374 160.170906 118.806135 160.887938 122.446292 160.887938 
C 126.086449 160.887938 129.69121 160.170906 133.054277 158.777878 
C 136.417344 157.384851 139.473312 155.342917 142.047292 152.768938 
C 144.621272 150.194958 146.663205 147.138989 148.056233 143.775923 
C 149.449261 140.412856 150.166292 136.808095 150.166292 133.167938 
" clip-path="url(#p36247b57e6)" style="fill: none; stroke: #b1afb5; stroke-width: 0.8; stroke-linecap: square"/>
     </g>
     <g id="text_6">
      <!-- $\mathdefault{5}$ -->
      <g style="fill: #323034" transform="translate(150.166292 129.695438) scale(0.16 -0.16)">
       <use xlink:href="#STIXGeneral-Regular-35" transform="translate(0 0.203125)"/>
      </g>
     </g>
    </g>
    <g id="ytick_2">
     <g id="line2d_7">
      <path d="M 177.886292 133.167938 
C 177.886292 125.887624 176.452229 118.678101 173.666174 111.951968 
C 170.880118 105.225835 166.796252 99.113897 161.648292 93.965938 
C 156.500333 88.817978 150.388395 84.734112 143.662262 81.948056 
C 136.936129 79.162001 129.726606 77.727938 122.446292 77.727938 
C 115.165978 77.727938 107.956456 79.162001 101.230323 81.948056 
C 94.50419 84.734112 88.392252 88.817978 83.244292 93.965938 
C 78.096333 99.113897 74.012467 105.225835 71.226411 111.951968 
C 68.440355 118.678101 67.006292 125.887624 67.006292 133.167938 
C 67.006292 140.448252 68.440355 147.657774 71.226411 154.383907 
C 74.012467 161.11004 78.096333 167.221978 83.244292 172.369938 
C 88.392252 177.517897 94.50419 181.601763 101.230323 184.387819 
C 107.956456 187.173875 115.165978 188.607938 122.446292 188.607938 
C 129.726606 188.607938 136.936129 187.173875 143.662262 184.387819 
C 150.388395 181.601763 156.500333 177.517897 161.648292 172.369938 
C 166.796252 167.221978 170.880118 161.11004 173.666174 154.383907 
C 176.452229 147.657774 177.886292 140.448252 177.886292 133.167938 
" clip-path="url(#p36247b57e6)" style="fill: none; stroke: #b1afb5; stroke-width: 0.8; stroke-linecap: square"/>
     </g>
     <g id="text_7">
      <!-- $\mathdefault{10}$ -->
      <g style="fill: #323034" transform="translate(177.886292 129.695438) scale(0.16 -0.16)">
       <defs>
        <path id="STIXGeneral-Regular-30" d="M 3046 2112 
Q 3046 1683 2963 1302 
Q 2880 922 2717 602 
Q 2554 282 2266 96 
Q 1978 -90 1600 -90 
Q 1210 -90 915 108 
Q 621 307 461 640 
Q 301 973 227 1350 
Q 154 1728 154 2150 
Q 154 2746 301 3222 
Q 448 3699 790 4012 
Q 1133 4326 1626 4326 
Q 2253 4326 2649 3712 
Q 3046 3098 3046 2112 
z
M 2432 2080 
Q 2432 3091 2217 3625 
Q 2003 4160 1587 4160 
Q 1190 4160 979 3622 
Q 768 3085 768 2106 
Q 768 1120 979 598 
Q 1190 77 1600 77 
Q 2003 77 2217 598 
Q 2432 1120 2432 2080 
z
" transform="scale(0.015625)"/>
       </defs>
       <use xlink:href="#STIXGeneral-Regular-31" transform="translate(0 0.40625)"/>
       <use xlink:href="#STIXGeneral-Regular-30" transform="translate(49.999985 0.40625)"/>
      </g>
     </g>
    </g>
    <g id="ytick_3">
     <g id="line2d_8">
      <path d="M 205.606292 133.167938 
C 205.606292 122.247467 203.455198 111.433183 199.276114 101.343984 
C 195.097031 91.254784 188.971231 82.086877 181.249292 74.364938 
C 173.527353 66.642999 164.359446 60.517199 154.270246 56.338116 
C 144.181047 52.159032 133.366763 50.007938 122.446292 50.007938 
C 111.525821 50.007938 100.711538 52.159032 90.622338 56.338116 
C 80.533138 60.517199 71.365232 66.642999 63.643292 74.364938 
C 55.921353 82.086877 49.795554 91.254784 45.61647 101.343984 
C 41.437387 111.433183 39.286292 122.247467 39.286292 133.167938 
C 39.286292 144.088409 41.437387 154.902692 45.61647 164.991892 
C 49.795554 175.081092 55.921353 184.248998 63.643292 191.970938 
C 71.365232 199.692877 80.533138 205.818676 90.622338 209.99776 
C 100.711538 214.176843 111.525821 216.327938 122.446292 216.327938 
C 133.366763 216.327938 144.181047 214.176843 154.270246 209.99776 
C 164.359446 205.818676 173.527353 199.692877 181.249292 191.970938 
C 188.971231 184.248998 195.097031 175.081092 199.276114 164.991892 
C 203.455198 154.902692 205.606292 144.088409 205.606292 133.167938 
" clip-path="url(#p36247b57e6)" style="fill: none; stroke: #b1afb5; stroke-width: 0.8; stroke-linecap: square"/>
     </g>
     <g id="text_8">
      <!-- $\mathdefault{15}$ -->
      <g style="fill: #323034" transform="translate(205.606292 129.695438) scale(0.16 -0.16)">
       <use xlink:href="#STIXGeneral-Regular-31" transform="translate(0 0.203125)"/>
       <use xlink:href="#STIXGeneral-Regular-35" transform="translate(49.999985 0.203125)"/>
      </g>
     </g>
    </g>
    <g id="ytick_4">
     <g id="line2d_9">
      <path d="M 233.326292 133.167938 
C 233.326292 118.60731 230.458166 104.188265 224.886055 90.735999 
C 219.313944 77.283732 211.146211 65.059857 200.850292 54.763938 
C 190.554373 44.468019 178.330498 36.300286 164.878231 30.728175 
C 151.425965 25.156064 137.00692 22.287938 122.446292 22.287938 
C 107.885664 22.287938 93.46662 25.156064 80.014353 30.728175 
C 66.562087 36.300286 54.338211 44.468019 44.042292 54.763938 
C 33.746373 65.059857 25.578641 77.283732 20.00653 90.735999 
C 14.434419 104.188265 11.566292 118.60731 11.566292 133.167938 
C 11.566292 147.728566 14.434419 162.14761 20.00653 175.599877 
C 25.578641 189.052143 33.746373 201.276019 44.042292 211.571938 
C 54.338211 221.867857 66.562087 230.035589 80.014353 235.6077 
C 93.46662 241.179811 107.885664 244.047938 122.446292 244.047938 
C 137.00692 244.047938 151.425965 241.179811 164.878231 235.6077 
C 178.330498 230.035589 190.554373 221.867857 200.850292 211.571938 
C 211.146211 201.276019 219.313944 189.052143 224.886055 175.599877 
C 230.458166 162.14761 233.326292 147.728566 233.326292 133.167938 
" clip-path="url(#p36247b57e6)" style="fill: none; stroke: #b1afb5; stroke-width: 0.8; stroke-linecap: square"/>
     </g>
     <g id="text_9">
      <!-- $\mathdefault{20}$ -->
      <g style="fill: #323034" transform="translate(233.326292 129.695438) scale(0.16 -0.16)">
       <use xlink:href="#STIXGeneral-Regular-32" transform="translate(0 0.40625)"/>
       <use xlink:href="#STIXGeneral-Regular-30" transform="translate(49.999985 0.40625)"/>
      </g>
     </g>
    </g>
   </g>
   <g id="line2d_10">
    <path d="M 200.062292 133.167938 
L 134.438624 96.259336 
L 122.446292 133.167938 
L 68.62401 172.272115 
L 154.996906 233.348427 
L 200.062292 133.167938 
" clip-path="url(#p36247b57e6)" style="fill: none; stroke: #bc80bd; stroke-linecap: square"/>
   </g>
   <g id="patch_4">
    <path d="M 233.326292 133.167938 
C 233.326292 118.60731 230.458166 104.188265 224.886055 90.735999 
C 219.313944 77.283732 211.146211 65.059857 200.850292 54.763938 
C 190.554373 44.468019 178.330498 36.300286 164.878231 30.728175 
C 151.425965 25.156064 137.00692 22.287938 122.446292 22.287938 
C 107.885664 22.287938 93.46662 25.156064 80.014353 30.728175 
C 66.562087 36.300286 54.338211 44.468019 44.042292 54.763938 
C 33.746373 65.059857 25.578641 77.283732 20.00653 90.735999 
C 14.434419 104.188265 11.566292 118.60731 11.566292 133.167938 
C 11.566292 147.728566 14.434419 162.14761 20.00653 175.599877 
C 25.578641 189.052143 33.746373 201.276019 44.042292 211.571938 
C 54.338211 221.867857 66.562087 230.035589 80.014353 235.6077 
C 93.46662 241.179811 107.885664 244.047938 122.446292 244.047938 
C 137.00692 244.047938 151.425965 241.179811 164.878231 235.6077 
C 178.330498 230.035589 190.554373 221.867857 200.850292 211.571938 
C 211.146211 201.276019 219.313944 189.052143 224.886055 175.599877 
C 230.458166 162.14761 233.326292 147.728566 233.326292 133.167938 
" style="fill: none; stroke: #000000; stroke-width: 0.6; stroke-linejoin: miter; stroke-linecap: square"/>
   </g>
  </g>
 </g>
 <defs>
  <clipPath id="p36247b57e6">
   <path d="M 233.326292 133.167938 
C 233.326292 118.60731 230.458166 104.188265 224.886055 90.735999 
C 219.313944 77.283732 211.146211 65.059857 200.850292 54.763938 
C 190.554373 44.468019 178.330498 36.300286 164.878231 30.728175 
C 151.425965 25.156064 137.00692 22.287938 122.446292 22.287938 
C 107.885664 22.287938 93.46662 25.156064 80.014353 30.728175 
C 66.562087 36.300286 54.338211 44.468019 44.042292 54.763938 
C 33.746373 65.059857 25.578641 77.283732 20.00653 90.735999 
C 14.434419 104.188265 11.566292 118.60731 11.566292 133.167938 
C 11.566292 147.728566 14.434419 162.14761 20.00653 175.599877 
C 25.578641 189.052143 33.746373 201.276019 44.042292 211.571938 
C 54.338211 221.867857 66.562087 230.035589 80.014353 235.6077 
C 93.46662 241.179811 107.885664 244.047938 122.446292 244.047938 
C 137.00692 244.047938 151.425965 241.179811 164.878231 235.6077 
C 178.330498 230.035589 190.554373 221.867857 200.850292 211.571938 
C 211.146211 201.276019 219.313944 189.052143 224.886055 175.599877 
C 230.458166 162.14761 233.326292 147.728566 233.326292 133.167938 
M 122.446292 133.167938 
C 122.446292 133.167938 122.446292 133.167938 122.446292 133.167938 
C 122.446292 133.167938 122.446292 133.167938 122.446292 133.167938 
C 122.446292 133.167938 122.446292 133.167938 122.446292 133.167938 
C 122.446292 133.167938 122.446292 133.167938 122.446292 133.167938 
C 122.446292 133.167938 122.446292 133.167938 122.446292 133.167938 
C 122.446292 133.167938 122.446292 133.167938 122.446292 133.167938 
C 122.446292 133.167938 122.446292 133.167938 122.446292 133.167938 
C 122.446292 133.167938 122.446292 133.167938 122.446292 133.167938 
C 122.446292 133.167938 122.446292 133.167938 122.446292 133.167938 
C 122.446292 133.167938 122.446292 133.167938 122.446292 133.167938 
C 122.446292 133.167938 122.446292 133.167938 122.446292 133.167938 
C 122.446292 133.167938 122.446292 133.167938 122.446292 133.167938 
C 122.446292 133.167938 122.446292 133.167938 122.446292 133.167938 
C 122.446292 133.167938 122.446292 133.167938 122.446292 133.167938 
C 122.446292 133.167938 122.446292 133.167938 122.446292 133.167938 
C 122.446292 133.167938 122.446292 133.167938 122.446292 133.167938 
z
"/>
  </clipPath>
 </defs>
</svg>