<?xml version="1.0" encoding="utf-8" standalone="no"?>
<!DOCTYPE svg PUBLIC "-//W3C//DTD SVG 1.1//EN"
  "http://www.w3.org/Graphics/SVG/1.1/DTD/svg11.dtd">
<svg xmlns:xlink="http://www.w3.org/1999/xlink" width="563.609687pt" height="307.775156pt" viewBox="0 0 563.609687 307.775156" xmlns="http://www.w3.org/2000/svg" version="1.1">
 <metadata>
  <rdf:RDF xmlns:dc="http://purl.org/dc/elements/1.1/" xmlns:cc="http://creativecommons.org/ns#" xmlns:rdf="http://www.w3.org/1999/02/22-rdf-syntax-ns#">
   <cc:Work>
    <dc:type rdf:resource="http://purl.org/dc/dcmitype/StillImage"/>
    <dc:date>2023-12-29T00:19:29.887717</dc:date>
    <dc:format>image/svg+xml</dc:format>
    <dc:creator>
     <cc:Agent>
      <dc:title>Matplotlib v3.7.2, https://matplotlib.org/</dc:title>
     </cc:Agent>
    </dc:creator>
   </cc:Work>
  </rdf:RDF>
 </metadata>
 <defs>
  <style type="text/css">*{stroke-linejoin: round; stroke-linecap: butt}</style>
 </defs>
 <g id="figure_1">
  <g id="patch_1">
   <path d="M 0 307.775156 
L 563.609687 307.775156 
L 563.609687 0 
L 0 0 
z
" style="fill: #ffffff"/>
  </g>
  <g id="axes_1">
   <g id="patch_2">
    <path d="M 30.2 130.442031 
L 544.409687 130.442031 
L 544.409687 26.176406 
L 30.2 26.176406 
z
" style="fill: #ffffff"/>
   </g>
   <g id="PolyCollection_1">
    <defs>
     <path id="m26e36337f4" d="M 34.313678 -274.964779 
L 34.313678 -213.365148 
L 36.370516 -201.176782 
L 38.427355 -219.88167 
L 40.484194 -219.310497 
L 42.541033 -219.369355 
L 44.597871 -218.772984 
L 46.65471 -219.892698 
L 48.711549 -217.969295 
L 50.768387 -217.781771 
L 52.825226 -223.964477 
L 54.882065 -223.54333 
L 56.938904 -233.353325 
L 58.995742 -221.013384 
L 61.052581 -221.390853 
L 63.10942 -225.353091 
L 65.166259 -226.3208 
L 67.223097 -225.412263 
L 69.279936 -225.031131 
L 71.336775 -225.028188 
L 73.393614 -223.853446 
L 75.450452 -224.196923 
L 77.507291 -224.799745 
L 79.56413 -224.79039 
L 81.620969 -223.921997 
L 83.677807 -223.478066 
L 85.734646 -223.441406 
L 87.791485 -223.534186 
L 89.848324 -223.701043 
L 91.905162 -223.421399 
L 93.962001 -223.418657 
L 96.01884 -223.419688 
L 98.075679 -223.552697 
L 100.132517 -222.573086 
L 102.189356 -222.914599 
L 104.246195 -223.185985 
L 106.303034 -223.099168 
L 108.359872 -223.150728 
L 110.416711 -223.101964 
L 112.47355 -223.19013 
L 114.530389 -223.204751 
L 116.587227 -224.069284 
L 118.644066 -224.157685 
L 120.700905 -223.663772 
L 122.757744 -223.80903 
L 124.814582 -223.735573 
L 126.871421 -223.839079 
L 128.92826 -224.639853 
L 130.985099 -225.676813 
L 133.041937 -225.572419 
L 135.098776 -225.842259 
L 137.155615 -225.863985 
L 139.212454 -226.734072 
L 141.269292 -226.831399 
L 143.326131 -226.934359 
L 145.38297 -228.362028 
L 147.439809 -227.878555 
L 149.496647 -227.923178 
L 151.553486 -227.95472 
L 153.610325 -227.579496 
L 155.667164 -227.483464 
L 157.724002 -226.982177 
L 159.780841 -227.397234 
L 161.83768 -227.424227 
L 163.894519 -228.777307 
L 165.951357 -228.811198 
L 168.008196 -229.093497 
L 170.065035 -229.096869 
L 172.121874 -229.002504 
L 174.178712 -229.171655 
L 176.235551 -228.957405 
L 178.29239 -228.93373 
L 180.349229 -228.894196 
L 182.406067 -228.879303 
L 184.462906 -229.091172 
L 186.519745 -229.123718 
L 188.576584 -229.110478 
L 190.633422 -229.105045 
L 192.690261 -229.108152 
L 194.7471 -229.11331 
L 196.803939 -229.082141 
L 198.860777 -229.085689 
L 200.917616 -229.078032 
L 202.974455 -228.853796 
L 205.031294 -228.907746 
L 207.088132 -228.779687 
L 209.144971 -228.773649 
L 211.20181 -228.912523 
L 213.258649 -228.792039 
L 215.315487 -228.878055 
L 217.372326 -228.659236 
L 219.429165 -228.282358 
L 221.486004 -228.709843 
L 223.542842 -227.907067 
L 225.599681 -227.945246 
L 227.65652 -227.956947 
L 229.713359 -227.804637 
L 231.770197 -227.530548 
L 233.827036 -227.222234 
L 235.883875 -227.130301 
L 237.940714 -227.317802 
L 239.997552 -227.32283 
L 242.054391 -227.536371 
L 244.11123 -227.177982 
L 246.168069 -227.267837 
L 248.224907 -227.275425 
L 250.281746 -227.123495 
L 252.338585 -227.276347 
L 254.395424 -227.28158 
L 256.452262 -227.333605 
L 258.509101 -227.301605 
L 260.56594 -227.404792 
L 262.622779 -227.313231 
L 264.679617 -227.294793 
L 266.736456 -227.27779 
L 268.793295 -227.230923 
L 270.850134 -227.169876 
L 272.906972 -227.204806 
L 274.963811 -227.184809 
L 277.02065 -227.311003 
L 279.077489 -227.31776 
L 281.134327 -227.263963 
L 283.191166 -227.333475 
L 285.248005 -227.297154 
L 287.304844 -227.250847 
L 289.361682 -227.157125 
L 291.418521 -227.798074 
L 293.47536 -227.805212 
L 295.532199 -227.85444 
L 297.589037 -227.753886 
L 299.645876 -228.54935 
L 301.702715 -228.742074 
L 303.759554 -228.789546 
L 305.816392 -228.802857 
L 307.873231 -229.029227 
L 309.93007 -229.034052 
L 311.986909 -228.724238 
L 314.043747 -228.817859 
L 316.100586 -228.981443 
L 318.157425 -228.775117 
L 320.214264 -228.671436 
L 322.271102 -228.734624 
L 324.327941 -228.560857 
L 326.38478 -228.560529 
L 328.441619 -228.56798 
L 330.498457 -228.847344 
L 332.555296 -229.345631 
L 334.612135 -229.557635 
L 336.668974 -229.574682 
L 338.725812 -229.588291 
L 340.782651 -229.60742 
L 342.83949 -229.611405 
L 344.896329 -229.563979 
L 346.953167 -229.488878 
L 349.010006 -229.592971 
L 351.066845 -229.724262 
L 353.123684 -229.673653 
L 355.180522 -229.757576 
L 357.237361 -229.968527 
L 359.2942 -230.456681 
L 361.351039 -230.425812 
L 363.407877 -230.137503 
L 365.464716 -230.226176 
L 367.521555 -230.220235 
L 369.578394 -230.332632 
L 371.635232 -230.283652 
L 373.692071 -230.282449 
L 375.74891 -230.219851 
L 377.805749 -230.223178 
L 379.862587 -230.173608 
L 381.919426 -230.125914 
L 383.976265 -230.077473 
L 386.033104 -230.055916 
L 388.089942 -230.06612 
L 390.146781 -230.016371 
L 392.20362 -229.970321 
L 394.260459 -230.278835 
L 396.317297 -230.12418 
L 398.374136 -230.169674 
L 400.430975 -230.165777 
L 402.487814 -230.15399 
L 404.544652 -230.245721 
L 406.601491 -230.177477 
L 408.65833 -230.224564 
L 410.715169 -230.039426 
L 412.772007 -230.11967 
L 414.828846 -230.087301 
L 416.885685 -230.004407 
L 418.942524 -230.185159 
L 420.999362 -230.089492 
L 423.056201 -230.121593 
L 425.11304 -230.113947 
L 427.169879 -230.097771 
L 429.226717 -230.021427 
L 431.283556 -230.009803 
L 433.340395 -229.90508 
L 435.397234 -229.882272 
L 437.454072 -229.980853 
L 439.510911 -230.025756 
L 439.510911 -236.071422 
L 439.510911 -236.071422 
L 437.454072 -236.033422 
L 435.397234 -235.941275 
L 433.340395 -235.969185 
L 431.283556 -236.095938 
L 429.226717 -236.107607 
L 427.169879 -236.22688 
L 425.11304 -236.244761 
L 423.056201 -236.253703 
L 420.999362 -236.224906 
L 418.942524 -236.332758 
L 416.885685 -236.158634 
L 414.828846 -236.290745 
L 412.772007 -236.369337 
L 410.715169 -236.326085 
L 408.65833 -236.519398 
L 406.601491 -236.490576 
L 404.544652 -236.560898 
L 402.487814 -236.584925 
L 400.430975 -236.597507 
L 398.374136 -236.607917 
L 396.317297 -236.616097 
L 394.260459 -236.784529 
L 392.20362 -236.548198 
L 390.146781 -236.596685 
L 388.089942 -236.649108 
L 386.033104 -236.6408 
L 383.976265 -236.662973 
L 381.919426 -236.729191 
L 379.862587 -236.780506 
L 377.805749 -236.875678 
L 375.74891 -236.875829 
L 373.692071 -236.947509 
L 371.635232 -236.948735 
L 369.578394 -237.031711 
L 367.521555 -236.947014 
L 365.464716 -236.969118 
L 363.407877 -236.916467 
L 361.351039 -237.253591 
L 359.2942 -237.304042 
L 357.237361 -236.890278 
L 355.180522 -236.706935 
L 353.123684 -236.633275 
L 351.066845 -236.684428 
L 349.010006 -236.558507 
L 346.953167 -236.464117 
L 344.896329 -236.547274 
L 342.83949 -236.599132 
L 340.782651 -236.595594 
L 338.725812 -236.579663 
L 336.668974 -236.566376 
L 334.612135 -236.583127 
L 332.555296 -236.445327 
L 330.498457 -236.076237 
L 328.441619 -235.809043 
L 326.38478 -235.803175 
L 324.327941 -235.803504 
L 322.271102 -235.986216 
L 320.214264 -235.936317 
L 318.157425 -236.050429 
L 316.100586 -236.27812 
L 314.043747 -236.153239 
L 311.986909 -236.069756 
L 309.93007 -236.419678 
L 307.873231 -236.429258 
L 305.816392 -236.214118 
L 303.759554 -236.201098 
L 301.702715 -236.157406 
L 299.645876 -236.077685 
L 297.589037 -235.459603 
L 295.532199 -235.573486 
L 293.47536 -235.658671 
L 291.418521 -235.653268 
L 289.361682 -235.185566 
L 287.304844 -235.293379 
L 285.248005 -235.351275 
L 283.191166 -235.392029 
L 281.134327 -235.34582 
L 279.077489 -235.452224 
L 277.02065 -235.583628 
L 274.963811 -235.53153 
L 272.906972 -235.567918 
L 270.850134 -235.565258 
L 268.793295 -235.655004 
L 266.736456 -235.708946 
L 264.679617 -235.746246 
L 262.622779 -235.766825 
L 260.56594 -236.184217 
L 258.509101 -236.124889 
L 256.452262 -236.294089 
L 254.395424 -236.305319 
L 252.338585 -236.300903 
L 250.281746 -236.16559 
L 248.224907 -236.324918 
L 246.168069 -236.317336 
L 244.11123 -236.232651 
L 242.054391 -236.673323 
L 239.997552 -236.478017 
L 237.940714 -236.476666 
L 235.883875 -236.331377 
L 233.827036 -236.473684 
L 231.770197 -236.922537 
L 229.713359 -237.22226 
L 227.65652 -237.397508 
L 225.599681 -237.386048 
L 223.542842 -237.382793 
L 221.486004 -238.418056 
L 219.429165 -238.01959 
L 217.372326 -238.47975 
L 215.315487 -238.727706 
L 213.258649 -238.651875 
L 211.20181 -238.805668 
L 209.144971 -238.720104 
L 207.088132 -238.72624 
L 205.031294 -238.874613 
L 202.974455 -238.832093 
L 200.917616 -239.089793 
L 198.860777 -239.117452 
L 196.803939 -239.12284 
L 194.7471 -239.178195 
L 192.690261 -239.173105 
L 190.633422 -239.170196 
L 188.576584 -239.175728 
L 186.519745 -239.189167 
L 184.462906 -239.244043 
L 182.406067 -239.081311 
L 180.349229 -239.10215 
L 178.29239 -239.166794 
L 176.235551 -239.191233 
L 174.178712 -239.413956 
L 172.121874 -239.42379 
L 170.065035 -239.538811 
L 168.008196 -239.536469 
L 165.951357 -239.352632 
L 163.894519 -239.321595 
L 161.83768 -238.427058 
L 159.780841 -238.436486 
L 157.724002 -238.211435 
L 155.667164 -238.913594 
L 153.610325 -239.08349 
L 151.553486 -239.502224 
L 149.496647 -239.474722 
L 147.439809 -239.43208 
L 145.38297 -240.012689 
L 143.326131 -239.209433 
L 141.269292 -239.180345 
L 139.212454 -239.296464 
L 137.155615 -238.620721 
L 135.098776 -238.760192 
L 133.041937 -238.520441 
L 130.985099 -238.801053 
L 128.92826 -237.930191 
L 126.871421 -237.530198 
L 124.814582 -237.441429 
L 122.757744 -237.530686 
L 120.700905 -237.408609 
L 118.644066 -237.935867 
L 116.587227 -237.891675 
L 114.530389 -237.122364 
L 112.47355 -237.13955 
L 110.416711 -237.057724 
L 108.359872 -237.10927 
L 106.303034 -237.102926 
L 104.246195 -237.195228 
L 102.189356 -237.260128 
L 100.132517 -237.363983 
L 98.075679 -238.6657 
L 96.01884 -239.219693 
L 93.962001 -239.219311 
L 91.905162 -239.227146 
L 89.848324 -239.622611 
L 87.791485 -239.866053 
L 85.734646 -239.807685 
L 83.677807 -239.845857 
L 81.620969 -240.546669 
L 79.56413 -241.817664 
L 77.507291 -241.82734 
L 75.450452 -241.42301 
L 73.393614 -241.247729 
L 71.336775 -243.975823 
L 69.279936 -243.988824 
L 67.223097 -245.148998 
L 65.166259 -246.406697 
L 63.10942 -246.214288 
L 61.052581 -246.632596 
L 58.995742 -246.485688 
L 56.938904 -265.327535 
L 54.882065 -261.914091 
L 52.825226 -262.81664 
L 50.768387 -259.402979 
L 48.711549 -259.700375 
L 46.65471 -261.913906 
L 44.597871 -261.208549 
L 42.541033 -265.704463 
L 40.484194 -265.649652 
L 38.427355 -268.914708 
L 36.370516 -256.043606 
L 34.313678 -274.964779 
z
" style="stroke: #000000; stroke-opacity: 0.2; stroke-width: 0.8"/>
    </defs>
    <g clip-path="url(#p31ad04b628)">
     <use xlink:href="#m26e36337f4" x="0" y="307.775156" style="fill: #bc80bd; fill-opacity: 0.2; stroke: #000000; stroke-opacity: 0.2; stroke-width: 0.8"/>
    </g>
   </g>
   <g id="matplotlib.axis_1">
    <g id="xtick_1">
     <g id="line2d_1">
      <defs>
       <path id="m93ae7c068c" d="M 0 0 
L 0 3.5 
" style="stroke: #323034; stroke-width: 0.8"/>
      </defs>
      <g>
       <use xlink:href="#m93ae7c068c" x="30.2" y="130.442031" style="fill: #323034; stroke: #323034; stroke-width: 0.8"/>
      </g>
     </g>
    </g>
    <g id="xtick_2">
     <g id="line2d_2">
      <g>
       <use xlink:href="#m93ae7c068c" x="133.041937" y="130.442031" style="fill: #323034; stroke: #323034; stroke-width: 0.8"/>
      </g>
     </g>
    </g>
    <g id="xtick_3">
     <g id="line2d_3">
      <g>
       <use xlink:href="#m93ae7c068c" x="235.883875" y="130.442031" style="fill: #323034; stroke: #323034; stroke-width: 0.8"/>
      </g>
     </g>
    </g>
    <g id="xtick_4">
     <g id="line2d_4">
      <g>
       <use xlink:href="#m93ae7c068c" x="338.725812" y="130.442031" style="fill: #323034; stroke: #323034; stroke-width: 0.8"/>
      </g>
     </g>
    </g>
    <g id="xtick_5">
     <g id="line2d_5">
      <g>
       <use xlink:href="#m93ae7c068c" x="441.56775" y="130.442031" style="fill: #323034; stroke: #323034; stroke-width: 0.8"/>
      </g>
     </g>
    </g>
    <g id="xtick_6">
     <g id="line2d_6">
      <g>
       <use xlink:href="#m93ae7c068c" x="544.409687" y="130.442031" style="fill: #323034; stroke: #323034; stroke-width: 0.8"/>
      </g>
     </g>
    </g>
   </g>
   <g id="matplotlib.axis_2">
    <g id="ytick_1">
     <g id="line2d_7">
      <defs>
       <path id="m5a55c49481" d="M 0 0 
L -3.5 0 
" style="stroke: #323034; stroke-width: 0.8"/>
      </defs>
      <g>
       <use xlink:href="#m5a55c49481" x="30.2" y="130.442031" style="fill: #323034; stroke: #323034; stroke-width: 0.8"/>
      </g>
     </g>
     <g id="text_1">
      <!-- $\mathdefault{10}$ -->
      <g style="fill: #323034" transform="translate(7.2 135.905781) scale(0.16 -0.16)">
       <defs>
        <path id="STIXGeneral-Regular-31" d="M 2522 0 
L 755 0 
L 755 96 
Q 1107 115 1235 227 
Q 1363 339 1363 608 
L 1363 3482 
Q 1363 3795 1171 3795 
Q 1082 3795 883 3718 
L 710 3654 
L 710 3744 
L 1856 4326 
L 1914 4307 
L 1914 486 
Q 1914 275 2042 185 
Q 2170 96 2522 96 
L 2522 0 
z
" transform="scale(0.015625)"/>
        <path id="STIXGeneral-Regular-30" d="M 3046 2112 
Q 3046 1683 2963 1302 
Q 2880 922 2717 602 
Q 2554 282 2266 96 
Q 1978 -90 1600 -90 
Q 1210 -90 915 108 
Q 621 307 461 640 
Q 301 973 227 1350 
Q 154 1728 154 2150 
Q 154 2746 301 3222 
Q 448 3699 790 4012 
Q 1133 4326 1626 4326 
Q 2253 4326 2649 3712 
Q 3046 3098 3046 2112 
z
M 2432 2080 
Q 2432 3091 2217 3625 
Q 2003 4160 1587 4160 
Q 1190 4160 979 3622 
Q 768 3085 768 2106 
Q 768 1120 979 598 
Q 1190 77 1600 77 
Q 2003 77 2217 598 
Q 2432 1120 2432 2080 
z
" transform="scale(0.015625)"/>
       </defs>
       <use xlink:href="#STIXGeneral-Regular-31" transform="translate(0 0.40625)"/>
       <use xlink:href="#STIXGeneral-Regular-30" transform="translate(49.999985 0.40625)"/>
      </g>
     </g>
    </g>
    <g id="ytick_2">
     <g id="line2d_8">
      <g>
       <use xlink:href="#m5a55c49481" x="30.2" y="78.309219" style="fill: #323034; stroke: #323034; stroke-width: 0.8"/>
      </g>
     </g>
     <g id="text_2">
      <!-- $\mathdefault{20}$ -->
      <g style="fill: #323034" transform="translate(7.2 83.772969) scale(0.16 -0.16)">
       <defs>
        <path id="STIXGeneral-Regular-32" d="M 3034 877 
L 2688 0 
L 186 0 
L 186 77 
L 1325 1286 
Q 1773 1754 1965 2144 
Q 2157 2534 2157 2950 
Q 2157 3379 1920 3616 
Q 1683 3853 1267 3853 
Q 922 3853 720 3673 
Q 518 3494 326 3021 
L 192 3053 
Q 301 3648 630 3987 
Q 960 4326 1523 4326 
Q 2054 4326 2380 4006 
Q 2707 3686 2707 3200 
Q 2707 2477 1888 1613 
L 832 486 
L 2330 486 
Q 2541 486 2665 569 
Q 2790 653 2944 915 
L 3034 877 
z
" transform="scale(0.015625)"/>
       </defs>
       <use xlink:href="#STIXGeneral-Regular-32" transform="translate(0 0.40625)"/>
       <use xlink:href="#STIXGeneral-Regular-30" transform="translate(49.999985 0.40625)"/>
      </g>
     </g>
    </g>
    <g id="ytick_3">
     <g id="line2d_9">
      <g>
       <use xlink:href="#m5a55c49481" x="30.2" y="26.176406" style="fill: #323034; stroke: #323034; stroke-width: 0.8"/>
      </g>
     </g>
     <g id="text_3">
      <!-- $\mathdefault{30}$ -->
      <g style="fill: #323034" transform="translate(7.2 31.640156) scale(0.16 -0.16)">
       <defs>
        <path id="STIXGeneral-Regular-33" d="M 390 3264 
L 288 3290 
Q 435 3770 748 4048 
Q 1062 4326 1542 4326 
Q 1990 4326 2265 4083 
Q 2541 3840 2541 3450 
Q 2541 2925 1946 2566 
Q 2298 2413 2477 2227 
Q 2758 1914 2758 1402 
Q 2758 890 2464 506 
Q 2246 211 1840 60 
Q 1434 -90 979 -90 
Q 262 -90 262 275 
Q 262 378 339 442 
Q 416 506 525 506 
Q 685 506 915 339 
Q 1197 141 1466 141 
Q 1818 141 2058 425 
Q 2298 710 2298 1120 
Q 2298 1856 1632 2048 
Q 1434 2112 979 2112 
L 979 2202 
Q 1338 2323 1517 2432 
Q 2035 2726 2035 3290 
Q 2035 3610 1852 3776 
Q 1670 3942 1344 3942 
Q 768 3942 390 3264 
z
" transform="scale(0.015625)"/>
       </defs>
       <use xlink:href="#STIXGeneral-Regular-33" transform="translate(0 0.40625)"/>
       <use xlink:href="#STIXGeneral-Regular-30" transform="translate(49.999985 0.40625)"/>
      </g>
     </g>
    </g>
   </g>
   <g id="line2d_10">
    <path d="M 34.313678 63.610193 
L 36.370516 79.164962 
L 38.427355 63.376967 
L 40.484194 65.295082 
L 42.541033 65.238247 
L 44.597871 67.78439 
L 46.65471 66.871854 
L 48.711549 68.940321 
L 50.768387 69.182781 
L 52.825226 64.384598 
L 54.882065 65.046446 
L 56.938904 58.434726 
L 58.995742 74.02562 
L 61.052581 73.763432 
L 63.10942 71.991467 
L 65.166259 71.411408 
L 67.223097 72.494525 
L 69.279936 73.265179 
L 71.336775 73.273151 
L 73.393614 75.224568 
L 75.450452 74.96519 
L 77.507291 74.461614 
L 79.56413 74.471129 
L 81.620969 75.540824 
L 83.677807 76.113195 
L 85.734646 76.150611 
L 87.791485 76.075037 
L 89.848324 76.113329 
L 91.905162 76.450884 
L 96.01884 76.455466 
L 98.075679 76.665958 
L 100.132517 77.806622 
L 104.246195 77.58455 
L 106.303034 77.674109 
L 114.530389 77.611599 
L 116.587227 76.794677 
L 118.644066 76.72838 
L 120.700905 77.238966 
L 122.757744 77.105298 
L 124.814582 77.186655 
L 126.871421 77.090518 
L 128.92826 76.490134 
L 130.985099 75.536223 
L 133.041937 75.728726 
L 135.098776 75.473931 
L 137.155615 75.532803 
L 139.212454 74.759888 
L 143.326131 74.70326 
L 145.38297 73.587798 
L 147.439809 74.119839 
L 151.553486 74.046684 
L 153.610325 74.443663 
L 155.667164 74.576627 
L 157.724002 75.17835 
L 159.780841 74.858296 
L 161.83768 74.849514 
L 163.894519 73.725705 
L 165.951357 73.693241 
L 168.008196 73.460173 
L 174.178712 73.482351 
L 176.235551 73.700837 
L 182.406067 73.794849 
L 184.462906 73.607548 
L 200.917616 73.691244 
L 202.974455 73.932212 
L 205.031294 73.883977 
L 207.088132 74.022193 
L 209.144971 74.02828 
L 211.20181 73.916061 
L 213.258649 74.053199 
L 215.315487 73.972276 
L 217.372326 74.205663 
L 219.429165 74.624182 
L 221.486004 74.211207 
L 223.542842 75.130226 
L 227.65652 75.097929 
L 229.713359 75.261708 
L 235.883875 76.044317 
L 237.940714 75.877922 
L 239.997552 75.874733 
L 242.054391 75.67031 
L 244.11123 76.069839 
L 248.224907 75.974985 
L 250.281746 76.130614 
L 252.338585 75.986531 
L 260.56594 75.980652 
L 262.622779 76.235128 
L 287.304844 76.503043 
L 289.361682 76.603811 
L 291.418521 76.049485 
L 295.532199 76.061193 
L 297.589037 76.168412 
L 299.645876 75.461639 
L 303.759554 75.279834 
L 305.816392 75.266669 
L 307.873231 75.045914 
L 309.93007 75.048291 
L 311.986909 75.378159 
L 316.100586 75.145375 
L 320.214264 75.47128 
L 322.271102 75.414737 
L 324.327941 75.592976 
L 328.441619 75.586645 
L 330.498457 75.313366 
L 332.555296 74.879677 
L 334.612135 74.704775 
L 349.010006 74.699417 
L 351.066845 74.570812 
L 353.123684 74.621693 
L 355.180522 74.542901 
L 357.237361 74.345754 
L 359.2942 73.894795 
L 361.351039 73.935455 
L 363.407877 74.248171 
L 369.578394 74.092985 
L 375.74891 74.227316 
L 379.862587 74.298099 
L 392.20362 74.515897 
L 394.260459 74.243474 
L 396.317297 74.405018 
L 404.544652 74.371847 
L 410.715169 74.592401 
L 412.772007 74.530653 
L 416.885685 74.693636 
L 418.942524 74.516198 
L 420.999362 74.617957 
L 427.169879 74.612831 
L 433.340395 74.838024 
L 435.397234 74.863383 
L 439.510911 74.726567 
L 439.510911 74.726567 
" clip-path="url(#p31ad04b628)" style="fill: none; stroke: #bc80bd; stroke-width: 3; stroke-linecap: square"/>
   </g>
   <g id="patch_3">
    <path d="M 30.2 130.442031 
L 30.2 26.176406 
" style="fill: none; stroke: #000000; stroke-width: 0.6; stroke-linejoin: miter; stroke-linecap: square"/>
   </g>
   <g id="patch_4">
    <path d="M 30.2 130.442031 
L 544.409687 130.442031 
" style="fill: none; stroke: #000000; stroke-width: 0.6; stroke-linejoin: miter; stroke-linecap: square"/>
   </g>
   <g id="text_4">
    <!-- Coefficient value -->
    <g style="fill: #323034" transform="translate(30.2 20.176406) scale(0.19 -0.19)">
     <defs>
      <path id="STIXGeneral-Regular-43" d="M 3930 838 
L 4051 723 
Q 3482 -90 2304 -90 
Q 1376 -90 794 480 
Q 179 1082 179 2080 
Q 179 3014 755 3661 
Q 1357 4326 2310 4326 
Q 2720 4326 3072 4230 
Q 3475 4115 3514 4115 
Q 3725 4115 3782 4326 
L 3910 4326 
L 3968 2874 
L 3821 2874 
Q 3718 3334 3488 3584 
Q 3034 4070 2458 4070 
Q 1747 4070 1334 3548 
Q 922 3027 922 2182 
Q 922 1152 1382 653 
Q 1811 192 2522 192 
Q 2944 192 3251 339 
Q 3558 486 3930 838 
z
" transform="scale(0.015625)"/>
      <path id="STIXGeneral-Regular-6f" d="M 3008 1478 
Q 3008 806 2608 371 
Q 2208 -64 1568 -64 
Q 979 -64 582 368 
Q 186 800 186 1459 
Q 186 2125 582 2534 
Q 979 2944 1626 2944 
Q 2221 2944 2614 2537 
Q 3008 2131 3008 1478 
z
M 2432 1306 
Q 2432 2035 2112 2445 
Q 1856 2765 1504 2765 
Q 1171 2765 966 2493 
Q 762 2221 762 1747 
Q 762 928 1101 435 
Q 1318 115 1677 115 
Q 2029 115 2230 432 
Q 2432 749 2432 1306 
z
" transform="scale(0.015625)"/>
      <path id="STIXGeneral-Regular-65" d="M 2611 1050 
L 2714 1005 
Q 2330 -64 1376 -64 
Q 813 -64 486 329 
Q 160 723 160 1389 
Q 160 2074 525 2509 
Q 890 2944 1485 2944 
Q 2061 2944 2374 2502 
Q 2560 2246 2592 1773 
L 621 1773 
Q 646 1370 700 1158 
Q 755 947 915 730 
Q 1184 378 1626 378 
Q 1939 378 2153 531 
Q 2368 685 2611 1050 
z
M 634 1978 
L 1939 1978 
Q 1882 2381 1750 2547 
Q 1619 2714 1312 2714 
Q 1043 2714 864 2525 
Q 685 2336 634 1978 
z
" transform="scale(0.015625)"/>
      <path id="STIXGeneral-Regular-66" d="M 134 2880 
L 659 2880 
Q 666 3264 710 3478 
Q 755 3693 883 3910 
Q 1152 4371 1786 4371 
Q 2074 4371 2262 4259 
Q 2451 4147 2451 3974 
Q 2451 3866 2374 3789 
Q 2298 3712 2182 3712 
Q 2029 3712 1894 3942 
Q 1741 4192 1555 4192 
Q 1197 4192 1197 3622 
L 1197 2880 
L 1978 2880 
L 1978 2675 
L 1197 2675 
L 1197 666 
Q 1197 307 1299 208 
Q 1402 109 1792 96 
L 1792 0 
L 128 0 
L 128 96 
Q 474 115 566 214 
Q 659 314 659 666 
L 659 2675 
L 134 2675 
L 134 2880 
z
" transform="scale(0.015625)"/>
      <path id="STIXGeneral-Regular-69" d="M 1152 4045 
Q 1152 3904 1056 3811 
Q 960 3718 819 3718 
Q 685 3718 592 3811 
Q 499 3904 499 4045 
Q 499 4179 595 4275 
Q 691 4371 826 4371 
Q 966 4371 1059 4275 
Q 1152 4179 1152 4045 
z
M 1619 0 
L 102 0 
L 102 96 
Q 435 115 521 211 
Q 608 307 608 666 
L 608 2118 
Q 608 2342 563 2432 
Q 518 2522 397 2522 
Q 243 2522 128 2490 
L 128 2592 
L 1120 2944 
L 1146 2918 
L 1146 672 
Q 1146 314 1226 218 
Q 1306 122 1619 96 
L 1619 0 
z
" transform="scale(0.015625)"/>
      <path id="STIXGeneral-Regular-63" d="M 2547 998 
L 2637 941 
Q 2362 403 2112 205 
Q 1786 -64 1376 -64 
Q 845 -64 502 336 
Q 160 736 160 1357 
Q 160 2170 698 2618 
Q 1094 2944 1562 2944 
Q 1965 2944 2256 2749 
Q 2547 2554 2547 2285 
Q 2547 2176 2457 2096 
Q 2368 2016 2246 2016 
Q 2022 2016 1939 2310 
L 1901 2451 
Q 1850 2630 1773 2694 
Q 1696 2758 1523 2758 
Q 1133 2758 893 2451 
Q 653 2144 653 1645 
Q 653 1094 928 745 
Q 1203 397 1645 397 
Q 1920 397 2118 528 
Q 2317 659 2547 998 
z
" transform="scale(0.015625)"/>
      <path id="STIXGeneral-Regular-6e" d="M 3104 0 
L 1773 0 
L 1779 96 
Q 2016 115 2096 233 
Q 2176 352 2176 672 
L 2176 1946 
Q 2176 2592 1709 2592 
Q 1549 2592 1408 2515 
Q 1267 2438 1050 2227 
L 1050 461 
Q 1050 269 1136 192 
Q 1222 115 1466 96 
L 1466 0 
L 115 0 
L 115 96 
Q 358 115 435 214 
Q 512 314 512 602 
L 512 2157 
Q 512 2394 467 2483 
Q 422 2573 288 2573 
Q 160 2573 102 2547 
L 102 2656 
Q 550 2784 979 2944 
L 1030 2925 
L 1030 2426 
L 1037 2426 
Q 1491 2944 1958 2944 
Q 2323 2944 2518 2688 
Q 2714 2432 2714 1958 
L 2714 544 
Q 2714 288 2790 205 
Q 2867 122 3104 96 
L 3104 0 
z
" transform="scale(0.015625)"/>
      <path id="STIXGeneral-Regular-74" d="M 1702 493 
L 1786 422 
Q 1478 -64 1011 -64 
Q 448 -64 448 749 
L 448 2675 
L 109 2675 
Q 83 2694 83 2720 
Q 83 2771 192 2842 
Q 435 2982 813 3526 
Q 826 3546 874 3606 
Q 922 3667 941 3706 
Q 986 3706 986 3622 
L 986 2880 
L 1632 2880 
L 1632 2675 
L 986 2675 
L 986 845 
Q 986 538 1062 403 
Q 1139 269 1318 269 
Q 1510 269 1702 493 
z
" transform="scale(0.015625)"/>
      <path id="STIXGeneral-Regular-20" transform="scale(0.015625)"/>
      <path id="STIXGeneral-Regular-76" d="M 3053 2880 
L 3053 2784 
Q 2906 2771 2835 2688 
Q 2765 2605 2637 2285 
L 1818 230 
Q 1690 -90 1638 -90 
Q 1587 -90 1523 77 
Q 1510 96 1497 141 
Q 1485 186 1472 211 
L 704 2048 
Q 499 2534 403 2652 
Q 307 2771 122 2784 
L 122 2880 
L 1376 2880 
L 1376 2784 
Q 1210 2771 1146 2732 
Q 1082 2694 1082 2611 
Q 1082 2509 1139 2368 
L 1792 730 
L 2426 2387 
Q 2464 2483 2464 2579 
Q 2464 2758 2163 2784 
L 2163 2880 
L 3053 2880 
z
" transform="scale(0.015625)"/>
      <path id="STIXGeneral-Regular-61" d="M 2829 422 
L 2829 243 
Q 2586 -64 2253 -64 
Q 1888 -64 1843 403 
L 1837 403 
Q 1427 -64 909 -64 
Q 608 -64 422 112 
Q 237 288 237 602 
Q 237 1050 685 1350 
Q 992 1555 1837 1869 
L 1837 2214 
Q 1837 2502 1699 2646 
Q 1562 2790 1338 2790 
Q 1146 2790 1018 2697 
Q 890 2605 890 2477 
Q 890 2419 909 2348 
Q 928 2278 928 2208 
Q 928 2112 841 2029 
Q 755 1946 634 1946 
Q 525 1946 441 2029 
Q 358 2112 358 2240 
Q 358 2547 685 2752 
Q 986 2944 1421 2944 
Q 1939 2944 2176 2656 
Q 2291 2522 2323 2384 
Q 2355 2246 2355 1946 
L 2355 723 
Q 2355 301 2554 301 
Q 2682 301 2829 422 
z
M 1837 813 
L 1837 1715 
Q 1248 1510 1018 1293 
Q 800 1094 800 800 
Q 800 557 921 432 
Q 1043 307 1242 307 
Q 1453 307 1613 410 
Q 1747 506 1792 589 
Q 1837 672 1837 813 
z
" transform="scale(0.015625)"/>
      <path id="STIXGeneral-Regular-6c" d="M 1645 0 
L 134 0 
L 134 96 
Q 435 122 531 221 
Q 627 320 627 589 
L 627 3590 
Q 627 3821 569 3910 
Q 512 4000 358 4000 
Q 224 4000 122 3987 
L 122 4090 
Q 730 4237 1133 4371 
L 1165 4346 
L 1165 557 
Q 1165 288 1254 201 
Q 1344 115 1645 96 
L 1645 0 
z
" transform="scale(0.015625)"/>
      <path id="STIXGeneral-Regular-75" d="M 3072 320 
L 3072 230 
Q 2573 96 2195 -58 
L 2163 -38 
L 2163 486 
L 2150 486 
Q 1747 -64 1235 -64 
Q 870 -64 662 160 
Q 454 384 454 755 
L 454 2362 
Q 454 2598 371 2688 
Q 288 2778 58 2790 
L 58 2880 
L 992 2880 
L 992 813 
Q 992 595 1123 451 
Q 1254 307 1446 307 
Q 1760 307 1984 506 
Q 2067 582 2099 649 
Q 2131 717 2131 877 
L 2131 2355 
Q 2131 2605 2041 2678 
Q 1952 2752 1658 2771 
L 1658 2880 
L 2669 2880 
L 2669 685 
Q 2669 461 2742 390 
Q 2816 320 3034 320 
L 3072 320 
z
" transform="scale(0.015625)"/>
     </defs>
     <use xlink:href="#STIXGeneral-Regular-43"/>
     <use xlink:href="#STIXGeneral-Regular-6f" x="66.699997"/>
     <use xlink:href="#STIXGeneral-Regular-65" x="116.699982"/>
     <use xlink:href="#STIXGeneral-Regular-66" x="161.099976"/>
     <use xlink:href="#STIXGeneral-Regular-66" x="194.399963"/>
     <use xlink:href="#STIXGeneral-Regular-69" x="227.699951"/>
     <use xlink:href="#STIXGeneral-Regular-63" x="255.499939"/>
     <use xlink:href="#STIXGeneral-Regular-69" x="299.899933"/>
     <use xlink:href="#STIXGeneral-Regular-65" x="327.699921"/>
     <use xlink:href="#STIXGeneral-Regular-6e" x="372.099915"/>
     <use xlink:href="#STIXGeneral-Regular-74" x="422.099899"/>
     <use xlink:href="#STIXGeneral-Regular-20" x="449.899887"/>
     <use xlink:href="#STIXGeneral-Regular-76" x="474.899872"/>
     <use xlink:href="#STIXGeneral-Regular-61" x="524.899857"/>
     <use xlink:href="#STIXGeneral-Regular-6c" x="569.29985"/>
     <use xlink:href="#STIXGeneral-Regular-75" x="597.099838"/>
     <use xlink:href="#STIXGeneral-Regular-65" x="647.099823"/>
    </g>
   </g>
   <g id="legend_1">
    <g id="patch_5">
     <path d="M 361.104062 63.785156 
L 536.009687 63.785156 
Q 538.409687 63.785156 538.409687 61.385156 
L 538.409687 34.576406 
Q 538.409687 32.176406 536.009687 32.176406 
L 361.104062 32.176406 
Q 358.704062 32.176406 358.704062 34.576406 
L 358.704062 61.385156 
Q 358.704062 63.785156 361.104062 63.785156 
z
" style="fill: #ffffff; opacity: 0.8; stroke: #e6e6e6; stroke-width: 0.8; stroke-linejoin: miter"/>
    </g>
    <g id="line2d_11">
     <path d="M 361.104062 38.776406 
L 373.104062 38.776406 
L 385.104062 38.776406 
" style="fill: none; stroke: #bc80bd; stroke-width: 3; stroke-linecap: square"/>
    </g>
    <g id="text_5">
     <!-- Recursive estimates: feature0 -->
     <g style="fill: #323034" transform="translate(394.704062 42.976406) scale(0.12 -0.12)">
      <defs>
       <path id="STIXGeneral-Regular-52" d="M 4224 0 
L 3187 0 
L 1664 1971 
L 1306 1958 
L 1306 717 
Q 1306 352 1405 249 
Q 1504 147 1875 122 
L 1875 0 
L 109 0 
L 109 122 
Q 474 154 563 262 
Q 653 371 653 794 
L 653 3526 
Q 653 3885 563 3987 
Q 474 4090 109 4115 
L 109 4237 
L 1850 4237 
Q 2726 4237 3187 3859 
Q 3501 3603 3501 3091 
Q 3501 2221 2342 2042 
L 3622 422 
Q 3757 256 3878 198 
Q 4000 141 4224 122 
L 4224 0 
z
M 1306 3731 
L 1306 2195 
Q 1766 2202 1990 2246 
Q 2214 2291 2438 2413 
Q 2803 2618 2803 3142 
Q 2803 4000 1632 4000 
Q 1459 4000 1382 3945 
Q 1306 3891 1306 3731 
z
" transform="scale(0.015625)"/>
       <path id="STIXGeneral-Regular-72" d="M 1024 2931 
L 1024 2342 
Q 1267 2688 1430 2816 
Q 1594 2944 1792 2944 
Q 1958 2944 2051 2854 
Q 2144 2765 2144 2605 
Q 2144 2470 2077 2393 
Q 2010 2317 1894 2317 
Q 1773 2317 1638 2445 
Q 1536 2541 1472 2541 
Q 1338 2541 1181 2355 
Q 1024 2170 1024 2016 
L 1024 576 
Q 1024 301 1133 205 
Q 1242 109 1568 96 
L 1568 0 
L 32 0 
L 32 96 
Q 339 154 412 224 
Q 486 294 486 538 
L 486 2138 
Q 486 2349 438 2435 
Q 390 2522 269 2522 
Q 166 2522 45 2496 
L 45 2598 
Q 448 2726 992 2944 
L 1024 2931 
z
" transform="scale(0.015625)"/>
       <path id="STIXGeneral-Regular-73" d="M 998 1926 
L 1664 1523 
Q 1984 1331 2105 1164 
Q 2227 998 2227 736 
Q 2227 416 1961 176 
Q 1696 -64 1331 -64 
Q 1030 -64 864 -6 
Q 691 51 570 51 
Q 461 51 416 -26 
L 333 -26 
L 333 979 
L 435 979 
Q 538 512 730 294 
Q 922 77 1248 77 
Q 1485 77 1632 211 
Q 1779 346 1779 550 
Q 1779 845 1440 1030 
L 1094 1222 
Q 326 1651 326 2150 
Q 326 2522 566 2730 
Q 806 2938 1210 2938 
Q 1491 2938 1638 2867 
Q 1754 2816 1818 2816 
Q 1862 2816 1920 2880 
L 1990 2880 
L 2022 2010 
L 1926 2010 
Q 1818 2445 1654 2621 
Q 1491 2797 1203 2797 
Q 986 2797 854 2688 
Q 723 2579 723 2362 
Q 723 2253 796 2128 
Q 870 2003 998 1926 
z
" transform="scale(0.015625)"/>
       <path id="STIXGeneral-Regular-6d" d="M 4960 0 
L 3565 0 
L 3565 96 
Q 3834 122 3907 208 
Q 3981 294 3981 576 
L 3981 1894 
Q 3981 2278 3869 2444 
Q 3757 2611 3488 2611 
Q 3264 2611 3107 2521 
Q 2950 2432 2803 2221 
L 2803 608 
Q 2803 301 2896 201 
Q 2989 102 3264 96 
L 3264 0 
L 1830 0 
L 1830 96 
Q 2112 115 2189 188 
Q 2266 262 2266 550 
L 2266 1901 
Q 2266 2611 1850 2611 
Q 1670 2611 1468 2531 
Q 1267 2451 1171 2336 
Q 1088 2240 1088 2227 
L 1088 448 
Q 1088 243 1177 176 
Q 1267 109 1523 96 
L 1523 0 
L 102 0 
L 102 96 
Q 371 102 460 195 
Q 550 288 550 563 
L 550 2150 
Q 550 2387 499 2480 
Q 448 2573 326 2573 
Q 230 2573 122 2547 
L 122 2656 
Q 557 2778 1011 2944 
L 1062 2925 
L 1062 2451 
L 1075 2451 
Q 1363 2752 1584 2848 
Q 1805 2944 2054 2944 
Q 2560 2944 2733 2406 
Q 3232 2944 3776 2944 
Q 4518 2944 4518 1792 
L 4518 493 
Q 4518 282 4582 202 
Q 4646 122 4794 109 
L 4960 96 
L 4960 0 
z
" transform="scale(0.015625)"/>
       <path id="STIXGeneral-Regular-3a" d="M 1123 2832 
Q 1229 2726 1229 2579 
Q 1229 2432 1126 2329 
Q 1024 2227 877 2227 
Q 730 2227 624 2332 
Q 518 2438 518 2579 
Q 518 2733 620 2835 
Q 723 2938 877 2938 
Q 1018 2938 1123 2832 
z
M 1229 282 
Q 1229 141 1126 35 
Q 1024 -70 877 -70 
Q 730 -70 624 35 
Q 518 141 518 282 
Q 518 435 620 537 
Q 723 640 877 640 
Q 1018 640 1123 534 
Q 1229 429 1229 282 
z
" transform="scale(0.015625)"/>
      </defs>
      <use xlink:href="#STIXGeneral-Regular-52"/>
      <use xlink:href="#STIXGeneral-Regular-65" x="66.699997"/>
      <use xlink:href="#STIXGeneral-Regular-63" x="111.099991"/>
      <use xlink:href="#STIXGeneral-Regular-75" x="155.499985"/>
      <use xlink:href="#STIXGeneral-Regular-72" x="205.499969"/>
      <use xlink:href="#STIXGeneral-Regular-73" x="238.799957"/>
      <use xlink:href="#STIXGeneral-Regular-69" x="277.699951"/>
      <use xlink:href="#STIXGeneral-Regular-76" x="305.499939"/>
      <use xlink:href="#STIXGeneral-Regular-65" x="355.499924"/>
      <use xlink:href="#STIXGeneral-Regular-20" x="399.899918"/>
      <use xlink:href="#STIXGeneral-Regular-65" x="424.899902"/>
      <use xlink:href="#STIXGeneral-Regular-73" x="469.299896"/>
      <use xlink:href="#STIXGeneral-Regular-74" x="508.19989"/>
      <use xlink:href="#STIXGeneral-Regular-69" x="535.999878"/>
      <use xlink:href="#STIXGeneral-Regular-6d" x="563.799866"/>
      <use xlink:href="#STIXGeneral-Regular-61" x="641.599854"/>
      <use xlink:href="#STIXGeneral-Regular-74" x="685.999847"/>
      <use xlink:href="#STIXGeneral-Regular-65" x="713.799835"/>
      <use xlink:href="#STIXGeneral-Regular-73" x="758.199829"/>
      <use xlink:href="#STIXGeneral-Regular-3a" x="797.099823"/>
      <use xlink:href="#STIXGeneral-Regular-20" x="824.899811"/>
      <use xlink:href="#STIXGeneral-Regular-66" x="849.899796"/>
      <use xlink:href="#STIXGeneral-Regular-65" x="883.199783"/>
      <use xlink:href="#STIXGeneral-Regular-61" x="927.599777"/>
      <use xlink:href="#STIXGeneral-Regular-74" x="971.999771"/>
      <use xlink:href="#STIXGeneral-Regular-75" x="999.799759"/>
      <use xlink:href="#STIXGeneral-Regular-72" x="1049.799744"/>
      <use xlink:href="#STIXGeneral-Regular-65" x="1083.099731"/>
      <use xlink:href="#STIXGeneral-Regular-30" x="1127.499725"/>
     </g>
    </g>
    <g id="patch_6">
     <path d="M 361.104062 58.780781 
L 385.104062 58.780781 
L 385.104062 50.380781 
L 361.104062 50.380781 
z
" style="fill: #bc80bd; fill-opacity: 0.2; stroke: #000000; stroke-width: 0.8; stroke-linejoin: miter"/>
    </g>
    <g id="text_6">
     <!-- $95 \%$ confidence interval -->
     <g style="fill: #323034" transform="translate(394.704062 58.780781) scale(0.12 -0.12)">
      <defs>
       <path id="STIXGeneral-Regular-39" d="M 378 -141 
L 358 -13 
Q 1094 115 1603 608 
Q 2112 1101 2304 1882 
Q 1933 1517 1344 1517 
Q 826 1517 509 1875 
Q 192 2234 192 2816 
Q 192 3462 573 3894 
Q 954 4326 1523 4326 
Q 2131 4326 2528 3840 
Q 2938 3328 2938 2522 
Q 2938 1958 2742 1462 
Q 2547 966 2170 621 
Q 1773 262 1395 105 
Q 1018 -51 378 -141 
z
M 2317 2272 
L 2317 2522 
Q 2317 4147 1472 4147 
Q 1171 4147 1005 3930 
Q 909 3802 845 3546 
Q 781 3290 781 3034 
Q 781 2464 995 2128 
Q 1210 1792 1568 1792 
Q 1824 1792 2070 1917 
Q 2317 2042 2317 2272 
z
" transform="scale(0.015625)"/>
       <path id="STIXGeneral-Regular-35" d="M 2803 4358 
L 2573 3814 
Q 2534 3731 2400 3731 
L 1158 3731 
L 902 3187 
Q 1606 3053 1920 2896 
Q 2234 2739 2502 2368 
Q 2726 2061 2726 1555 
Q 2726 1094 2576 780 
Q 2426 467 2099 224 
Q 1664 -90 1011 -90 
Q 646 -90 422 19 
Q 198 128 198 307 
Q 198 550 486 550 
Q 717 550 960 352 
Q 1210 147 1414 147 
Q 1747 147 2012 480 
Q 2278 813 2278 1229 
Q 2278 1843 1850 2189 
Q 1293 2637 486 2637 
Q 410 2637 410 2688 
L 416 2720 
L 1114 4237 
L 2438 4237 
Q 2547 4237 2608 4269 
Q 2669 4301 2746 4403 
L 2803 4358 
z
" transform="scale(0.015625)"/>
       <path id="STIXGeneral-Regular-25" d="M 4390 1363 
Q 4390 781 4070 329 
Q 3750 -122 3341 -122 
Q 3014 -122 2790 134 
Q 2566 390 2566 762 
Q 2566 1274 2940 1693 
Q 3315 2112 3776 2112 
Q 4070 2112 4230 1917 
Q 4390 1722 4390 1363 
z
M 4243 1376 
Q 4243 1626 4131 1779 
Q 4019 1933 3840 1933 
Q 3654 1933 3526 1786 
Q 3315 1562 3171 1187 
Q 3027 813 3027 486 
Q 3027 301 3129 176 
Q 3232 51 3386 51 
Q 3718 51 3980 457 
Q 4243 864 4243 1376 
z
M 3974 4518 
L 1222 -115 
L 922 -115 
L 3443 4096 
Q 3264 3891 3094 3811 
Q 2925 3731 2669 3731 
Q 2445 3731 2182 3821 
Q 2208 3674 2208 3539 
Q 2208 3206 2067 2873 
Q 1926 2541 1696 2323 
Q 1453 2086 1146 2086 
Q 826 2086 608 2339 
Q 390 2592 390 2963 
Q 390 3507 761 3916 
Q 1133 4326 1626 4326 
Q 1792 4326 2010 4147 
Q 2310 3898 2624 3898 
Q 2918 3898 3084 3994 
Q 3251 4090 3693 4518 
L 3974 4518 
z
M 2054 3642 
Q 2054 3782 2025 3833 
Q 1997 3885 1894 3936 
Q 1747 4006 1613 4154 
Q 1414 4058 1331 3984 
Q 1248 3910 1152 3750 
Q 845 3264 845 2707 
Q 845 2509 944 2384 
Q 1043 2259 1210 2259 
Q 1549 2259 1801 2675 
Q 2054 3091 2054 3642 
z
" transform="scale(0.015625)"/>
       <path id="STIXGeneral-Regular-64" d="M 3142 269 
L 2202 -64 
L 2176 -45 
L 2176 365 
Q 1869 -64 1357 -64 
Q 826 -64 499 317 
Q 173 698 173 1312 
Q 173 1990 563 2467 
Q 954 2944 1504 2944 
Q 1850 2944 2176 2669 
L 2176 3667 
Q 2176 3866 2118 3930 
Q 2061 3994 1882 3994 
Q 1792 3994 1741 3987 
L 1741 4090 
Q 2323 4243 2682 4371 
L 2714 4358 
L 2714 730 
Q 2714 506 2768 435 
Q 2822 365 2995 365 
Q 3034 365 3142 371 
L 3142 269 
z
M 2176 653 
L 2176 2125 
Q 2176 2381 1981 2573 
Q 1786 2765 1523 2765 
Q 1158 2765 940 2438 
Q 723 2112 723 1568 
Q 723 979 963 624 
Q 1203 269 1606 269 
Q 1907 269 2080 474 
Q 2176 582 2176 653 
z
" transform="scale(0.015625)"/>
      </defs>
      <use xlink:href="#STIXGeneral-Regular-39" transform="translate(0 0.40625)"/>
      <use xlink:href="#STIXGeneral-Regular-35" transform="translate(49.999985 0.40625)"/>
      <use xlink:href="#STIXGeneral-Regular-25" transform="translate(99.999969 0.40625)"/>
      <use xlink:href="#STIXGeneral-Regular-20" transform="translate(174.699951 0.40625)"/>
      <use xlink:href="#STIXGeneral-Regular-63" transform="translate(199.699936 0.40625)"/>
      <use xlink:href="#STIXGeneral-Regular-6f" transform="translate(244.09993 0.40625)"/>
      <use xlink:href="#STIXGeneral-Regular-6e" transform="translate(294.099915 0.40625)"/>
      <use xlink:href="#STIXGeneral-Regular-66" transform="translate(344.099899 0.40625)"/>
      <use xlink:href="#STIXGeneral-Regular-69" transform="translate(377.399887 0.40625)"/>
      <use xlink:href="#STIXGeneral-Regular-64" transform="translate(405.199875 0.40625)"/>
      <use xlink:href="#STIXGeneral-Regular-65" transform="translate(455.19986 0.40625)"/>
      <use xlink:href="#STIXGeneral-Regular-6e" transform="translate(499.599854 0.40625)"/>
      <use xlink:href="#STIXGeneral-Regular-63" transform="translate(549.599838 0.40625)"/>
      <use xlink:href="#STIXGeneral-Regular-65" transform="translate(593.999832 0.40625)"/>
      <use xlink:href="#STIXGeneral-Regular-20" transform="translate(638.399826 0.40625)"/>
      <use xlink:href="#STIXGeneral-Regular-69" transform="translate(663.399811 0.40625)"/>
      <use xlink:href="#STIXGeneral-Regular-6e" transform="translate(691.199799 0.40625)"/>
      <use xlink:href="#STIXGeneral-Regular-74" transform="translate(741.199783 0.40625)"/>
      <use xlink:href="#STIXGeneral-Regular-65" transform="translate(768.999771 0.40625)"/>
      <use xlink:href="#STIXGeneral-Regular-72" transform="translate(813.399765 0.40625)"/>
      <use xlink:href="#STIXGeneral-Regular-76" transform="translate(846.699753 0.40625)"/>
      <use xlink:href="#STIXGeneral-Regular-61" transform="translate(896.699738 0.40625)"/>
      <use xlink:href="#STIXGeneral-Regular-6c" transform="translate(941.099731 0.40625)"/>
     </g>
    </g>
   </g>
  </g>
  <g id="axes_2">
   <g id="patch_7">
    <path d="M 30.2 261.775156 
L 544.409687 261.775156 
L 544.409687 157.509531 
L 30.2 157.509531 
z
" style="fill: #ffffff"/>
   </g>
   <g id="PolyCollection_2">
    <defs>
     <path id="m9574a17395" d="M 34.313678 -126.777331 
L 34.313678 -68.129106 
L 36.370516 -53.679317 
L 38.427355 -55.108213 
L 40.484194 -55.63595 
L 42.541033 -57.868019 
L 44.597871 -57.238563 
L 46.65471 -56.465385 
L 48.711549 -55.989925 
L 50.768387 -56.35846 
L 52.825226 -59.680983 
L 54.882065 -60.266728 
L 56.938904 -67.755698 
L 58.995742 -61.826389 
L 61.052581 -61.850756 
L 63.10942 -63.009177 
L 65.166259 -63.168624 
L 67.223097 -63.932577 
L 69.279936 -65.626799 
L 71.336775 -65.675488 
L 73.393614 -64.617048 
L 75.450452 -64.665766 
L 77.507291 -65.200061 
L 79.56413 -65.109786 
L 81.620969 -64.800437 
L 83.677807 -64.892661 
L 85.734646 -65.744647 
L 87.791485 -65.662741 
L 89.848324 -65.682432 
L 91.905162 -65.199674 
L 93.962001 -65.308169 
L 96.01884 -65.310678 
L 98.075679 -65.478342 
L 100.132517 -64.500941 
L 102.189356 -64.508608 
L 104.246195 -64.748772 
L 106.303034 -64.346567 
L 108.359872 -64.384365 
L 110.416711 -64.559918 
L 112.47355 -64.180812 
L 114.530389 -64.193991 
L 116.587227 -62.722431 
L 118.644066 -62.709496 
L 120.700905 -64.78272 
L 122.757744 -65.421158 
L 124.814582 -65.240122 
L 126.871421 -65.05352 
L 128.92826 -65.032634 
L 130.985099 -66.12381 
L 133.041937 -66.059875 
L 135.098776 -65.599058 
L 137.155615 -65.654568 
L 139.212454 -65.801134 
L 141.269292 -65.836855 
L 143.326131 -65.924277 
L 145.38297 -65.541144 
L 147.439809 -65.337095 
L 149.496647 -65.426602 
L 151.553486 -65.487241 
L 153.610325 -64.513515 
L 155.667164 -64.550321 
L 157.724002 -64.388233 
L 159.780841 -64.871764 
L 161.83768 -64.880261 
L 163.894519 -65.22164 
L 165.951357 -65.057215 
L 168.008196 -65.296072 
L 170.065035 -65.308403 
L 172.121874 -65.30368 
L 174.178712 -65.287133 
L 176.235551 -64.884631 
L 178.29239 -64.763048 
L 180.349229 -64.809262 
L 182.406067 -64.785221 
L 184.462906 -64.667712 
L 186.519745 -64.670142 
L 188.576584 -64.763968 
L 190.633422 -64.726625 
L 192.690261 -64.775781 
L 194.7471 -64.751794 
L 196.803939 -64.773408 
L 198.860777 -64.93216 
L 200.917616 -64.939914 
L 202.974455 -64.958887 
L 205.031294 -65.111398 
L 207.088132 -65.049819 
L 209.144971 -64.970334 
L 211.20181 -64.995947 
L 213.258649 -65.093961 
L 215.315487 -65.070164 
L 217.372326 -64.854688 
L 219.429165 -64.736539 
L 221.486004 -64.676969 
L 223.542842 -65.214165 
L 225.599681 -65.38243 
L 227.65652 -65.352599 
L 229.713359 -65.27864 
L 231.770197 -64.65632 
L 233.827036 -64.657487 
L 235.883875 -64.689931 
L 237.940714 -64.727477 
L 239.997552 -64.742734 
L 242.054391 -64.55114 
L 244.11123 -64.47003 
L 246.168069 -64.445775 
L 248.224907 -64.130451 
L 250.281746 -64.493551 
L 252.338585 -64.825995 
L 254.395424 -64.834056 
L 256.452262 -64.831955 
L 258.509101 -64.878291 
L 260.56594 -64.858901 
L 262.622779 -64.956512 
L 264.679617 -64.913635 
L 266.736456 -64.95336 
L 268.793295 -64.925545 
L 270.850134 -64.841004 
L 272.906972 -64.846353 
L 274.963811 -64.825028 
L 277.02065 -64.939845 
L 279.077489 -64.935413 
L 281.134327 -65.041733 
L 283.191166 -65.08102 
L 285.248005 -65.053533 
L 287.304844 -65.038417 
L 289.361682 -64.994075 
L 291.418521 -64.512076 
L 293.47536 -64.542083 
L 295.532199 -64.553618 
L 297.589037 -64.349694 
L 299.645876 -63.88508 
L 301.702715 -63.811654 
L 303.759554 -63.708163 
L 305.816392 -63.764638 
L 307.873231 -64.282443 
L 309.93007 -64.282261 
L 311.986909 -64.539084 
L 314.043747 -64.298432 
L 316.100586 -64.162361 
L 318.157425 -64.09396 
L 320.214264 -64.009183 
L 322.271102 -63.91369 
L 324.327941 -63.985897 
L 326.38478 -64.059044 
L 328.441619 -64.117877 
L 330.498457 -63.505014 
L 332.555296 -63.483058 
L 334.612135 -63.519877 
L 336.668974 -63.530907 
L 338.725812 -63.362988 
L 340.782651 -63.355195 
L 342.83949 -63.339365 
L 344.896329 -63.303071 
L 346.953167 -63.188528 
L 349.010006 -63.407384 
L 351.066845 -63.27579 
L 353.123684 -63.385794 
L 355.180522 -63.471016 
L 357.237361 -63.601112 
L 359.2942 -63.703091 
L 361.351039 -63.832307 
L 363.407877 -63.888068 
L 365.464716 -63.871738 
L 367.521555 -63.888113 
L 369.578394 -63.803121 
L 371.635232 -63.86689 
L 373.692071 -63.884963 
L 375.74891 -63.774682 
L 377.805749 -63.777053 
L 379.862587 -63.925074 
L 381.919426 -63.849574 
L 383.976265 -63.844196 
L 386.033104 -63.896726 
L 388.089942 -63.893855 
L 390.146781 -63.860409 
L 392.20362 -63.691389 
L 394.260459 -63.664141 
L 396.317297 -63.453929 
L 398.374136 -63.450955 
L 400.430975 -63.450333 
L 402.487814 -63.512066 
L 404.544652 -63.507014 
L 406.601491 -63.540537 
L 408.65833 -63.506616 
L 410.715169 -63.550979 
L 412.772007 -63.597877 
L 414.828846 -63.702238 
L 416.885685 -63.730829 
L 418.942524 -63.884937 
L 420.999362 -64.03535 
L 423.056201 -63.99438 
L 425.11304 -64.147666 
L 427.169879 -64.216764 
L 429.226717 -64.20269 
L 431.283556 -64.138049 
L 433.340395 -64.033237 
L 435.397234 -64.128236 
L 437.454072 -64.189239 
L 439.510911 -64.110481 
L 439.510911 -70.278197 
L 439.510911 -70.278197 
L 437.454072 -70.394205 
L 435.397234 -70.335667 
L 433.340395 -70.282849 
L 431.283556 -70.408931 
L 429.226717 -70.474984 
L 427.169879 -70.489982 
L 425.11304 -70.440914 
L 423.056201 -70.422129 
L 420.999362 -70.469768 
L 418.942524 -70.341177 
L 416.885685 -70.191689 
L 414.828846 -70.166087 
L 412.772007 -70.131336 
L 410.715169 -70.099022 
L 408.65833 -70.055087 
L 406.601491 -70.116933 
L 404.544652 -70.083871 
L 402.487814 -70.097066 
L 400.430975 -70.050607 
L 398.374136 -70.051282 
L 396.317297 -70.057324 
L 394.260459 -70.293352 
L 392.20362 -70.321331 
L 390.146781 -70.528545 
L 388.089942 -70.563162 
L 386.033104 -70.566225 
L 383.976265 -70.516988 
L 381.919426 -70.522526 
L 379.862587 -70.607429 
L 377.805749 -70.549972 
L 375.74891 -70.557842 
L 373.692071 -70.699427 
L 371.635232 -70.685356 
L 369.578394 -70.643072 
L 367.521555 -70.755206 
L 365.464716 -70.749052 
L 363.407877 -70.767529 
L 361.351039 -70.713262 
L 359.2942 -70.670514 
L 357.237361 -70.57216 
L 355.180522 -70.45303 
L 353.123684 -70.378329 
L 351.066845 -70.270798 
L 349.010006 -70.408237 
L 346.953167 -70.228279 
L 344.896329 -70.362533 
L 342.83949 -70.401335 
L 340.782651 -70.44265 
L 338.725812 -70.451122 
L 336.668974 -70.692197 
L 334.612135 -70.703469 
L 332.555296 -70.669626 
L 330.498457 -70.691918 
L 328.441619 -71.373138 
L 326.38478 -71.360131 
L 324.327941 -71.301568 
L 322.271102 -71.230787 
L 320.214264 -71.396017 
L 318.157425 -71.487517 
L 316.100586 -71.558075 
L 314.043747 -71.740743 
L 311.986909 -72.092423 
L 309.93007 -71.857313 
L 307.873231 -71.857688 
L 305.816392 -71.393954 
L 303.759554 -71.342236 
L 301.702715 -71.469138 
L 299.645876 -71.611299 
L 297.589037 -72.166385 
L 295.532199 -72.43351 
L 293.47536 -72.465706 
L 291.418521 -72.454375 
L 289.361682 -73.11983 
L 287.304844 -73.167048 
L 285.248005 -73.183196 
L 283.191166 -73.213121 
L 281.134327 -73.182315 
L 279.077489 -73.128306 
L 277.02065 -73.133576 
L 274.963811 -73.083097 
L 272.906972 -73.125734 
L 270.850134 -73.183394 
L 268.793295 -73.34413 
L 266.736456 -73.374287 
L 264.679617 -73.356978 
L 262.622779 -73.413859 
L 260.56594 -73.349713 
L 258.509101 -73.372108 
L 256.452262 -73.344927 
L 254.395424 -73.362407 
L 252.338585 -73.356227 
L 250.281746 -73.100749 
L 248.224907 -72.775582 
L 246.168069 -73.101473 
L 244.11123 -73.126153 
L 242.054391 -73.210992 
L 239.997552 -73.421164 
L 237.940714 -73.460362 
L 235.883875 -73.424948 
L 233.827036 -73.396142 
L 231.770197 -73.394976 
L 229.713359 -74.182212 
L 227.65652 -74.261486 
L 225.599681 -74.293116 
L 223.542842 -74.357018 
L 221.486004 -73.892046 
L 219.429165 -73.95226 
L 217.372326 -74.077903 
L 215.315487 -74.323667 
L 213.258649 -74.34844 
L 211.20181 -74.26583 
L 209.144971 -74.242887 
L 207.088132 -74.345849 
L 205.031294 -74.412077 
L 202.974455 -74.33109 
L 200.917616 -74.312337 
L 198.860777 -74.307361 
L 196.803939 -74.455606 
L 194.7471 -74.438913 
L 192.690261 -74.464552 
L 190.633422 -74.443424 
L 188.576584 -74.486286 
L 186.519745 -74.40164 
L 184.462906 -74.400966 
L 182.406067 -74.543133 
L 180.349229 -74.59576 
L 178.29239 -74.564164 
L 176.235551 -74.710447 
L 174.178712 -75.145317 
L 172.121874 -75.186258 
L 170.065035 -75.191025 
L 168.008196 -75.187296 
L 165.951357 -75.025356 
L 163.894519 -75.38305 
L 161.83768 -75.081388 
L 159.780841 -75.081613 
L 157.724002 -74.852067 
L 155.667164 -75.031675 
L 153.610325 -75.000195 
L 151.553486 -76.389204 
L 149.496647 -76.342661 
L 147.439809 -76.261194 
L 145.38297 -76.481651 
L 143.326131 -76.968009 
L 141.269292 -76.941609 
L 139.212454 -76.967764 
L 137.155615 -76.828717 
L 135.098776 -76.823064 
L 133.041937 -77.437071 
L 130.985099 -77.537944 
L 128.92826 -76.651454 
L 126.871421 -76.672918 
L 124.814582 -76.968105 
L 122.757744 -77.472646 
L 120.700905 -77.162399 
L 118.644066 -75.560346 
L 116.587227 -75.575396 
L 114.530389 -77.477966 
L 112.47355 -77.488961 
L 110.416711 -78.085037 
L 108.359872 -77.938965 
L 106.303034 -77.930678 
L 104.246195 -78.497374 
L 102.189356 -79.055303 
L 100.132517 -79.204117 
L 98.075679 -80.504513 
L 96.01884 -80.481352 
L 93.962001 -80.481215 
L 91.905162 -80.669167 
L 89.848324 -81.893879 
L 87.791485 -81.8959 
L 85.734646 -82.182287 
L 83.677807 -81.760772 
L 81.620969 -81.674645 
L 79.56413 -82.02175 
L 77.507291 -82.850627 
L 75.450452 -82.473397 
L 73.393614 -82.429851 
L 71.336775 -84.44586 
L 69.279936 -84.558171 
L 67.223097 -84.211668 
L 65.166259 -83.587919 
L 63.10942 -83.472168 
L 61.052581 -83.153615 
L 58.995742 -83.131413 
L 56.938904 -90.628194 
L 54.882065 -88.162302 
L 52.825226 -87.86893 
L 50.768387 -85.77756 
L 48.711549 -88.278262 
L 46.65471 -88.774473 
L 44.597871 -90.776609 
L 42.541033 -92.410782 
L 40.484194 -92.339872 
L 38.427355 -91.993428 
L 36.370516 -90.628786 
L 34.313678 -126.777331 
z
" style="stroke: #000000; stroke-opacity: 0.2; stroke-width: 0.8"/>
    </defs>
    <g clip-path="url(#p269586cc05)">
     <use xlink:href="#m9574a17395" x="0" y="307.775156" style="fill: #bc80bd; fill-opacity: 0.2; stroke: #000000; stroke-opacity: 0.2; stroke-width: 0.8"/>
    </g>
   </g>
   <g id="matplotlib.axis_3">
    <g id="xtick_7">
     <g id="line2d_12">
      <g>
       <use xlink:href="#m93ae7c068c" x="30.2" y="261.775156" style="fill: #323034; stroke: #323034; stroke-width: 0.8"/>
      </g>
     </g>
     <g id="text_7">
      <!-- $\mathdefault{0}$ -->
      <g style="fill: #323034" transform="translate(26.2 279.702656) scale(0.16 -0.16)">
       <use xlink:href="#STIXGeneral-Regular-30" transform="translate(0 0.40625)"/>
      </g>
     </g>
    </g>
    <g id="xtick_8">
     <g id="line2d_13">
      <g>
       <use xlink:href="#m93ae7c068c" x="133.041937" y="261.775156" style="fill: #323034; stroke: #323034; stroke-width: 0.8"/>
      </g>
     </g>
     <g id="text_8">
      <!-- $\mathdefault{50}$ -->
      <g style="fill: #323034" transform="translate(125.041937 279.702656) scale(0.16 -0.16)">
       <use xlink:href="#STIXGeneral-Regular-35" transform="translate(0 0.203125)"/>
       <use xlink:href="#STIXGeneral-Regular-30" transform="translate(49.999985 0.203125)"/>
      </g>
     </g>
    </g>
    <g id="xtick_9">
     <g id="line2d_14">
      <g>
       <use xlink:href="#m93ae7c068c" x="235.883875" y="261.775156" style="fill: #323034; stroke: #323034; stroke-width: 0.8"/>
      </g>
     </g>
     <g id="text_9">
      <!-- $\mathdefault{100}$ -->
      <g style="fill: #323034" transform="translate(223.883875 279.702656) scale(0.16 -0.16)">
       <use xlink:href="#STIXGeneral-Regular-31" transform="translate(0 0.40625)"/>
       <use xlink:href="#STIXGeneral-Regular-30" transform="translate(49.999985 0.40625)"/>
       <use xlink:href="#STIXGeneral-Regular-30" transform="translate(99.999969 0.40625)"/>
      </g>
     </g>
    </g>
    <g id="xtick_10">
     <g id="line2d_15">
      <g>
       <use xlink:href="#m93ae7c068c" x="338.725812" y="261.775156" style="fill: #323034; stroke: #323034; stroke-width: 0.8"/>
      </g>
     </g>
     <g id="text_10">
      <!-- $\mathdefault{150}$ -->
      <g style="fill: #323034" transform="translate(326.725812 279.702656) scale(0.16 -0.16)">
       <use xlink:href="#STIXGeneral-Regular-31" transform="translate(0 0.203125)"/>
       <use xlink:href="#STIXGeneral-Regular-35" transform="translate(49.999985 0.203125)"/>
       <use xlink:href="#STIXGeneral-Regular-30" transform="translate(99.999969 0.203125)"/>
      </g>
     </g>
    </g>
    <g id="xtick_11">
     <g id="line2d_16">
      <g>
       <use xlink:href="#m93ae7c068c" x="441.56775" y="261.775156" style="fill: #323034; stroke: #323034; stroke-width: 0.8"/>
      </g>
     </g>
     <g id="text_11">
      <!-- $\mathdefault{200}$ -->
      <g style="fill: #323034" transform="translate(429.56775 279.702656) scale(0.16 -0.16)">
       <use xlink:href="#STIXGeneral-Regular-32" transform="translate(0 0.40625)"/>
       <use xlink:href="#STIXGeneral-Regular-30" transform="translate(49.999985 0.40625)"/>
       <use xlink:href="#STIXGeneral-Regular-30" transform="translate(99.999969 0.40625)"/>
      </g>
     </g>
    </g>
    <g id="xtick_12">
     <g id="line2d_17">
      <g>
       <use xlink:href="#m93ae7c068c" x="544.409687" y="261.775156" style="fill: #323034; stroke: #323034; stroke-width: 0.8"/>
      </g>
     </g>
     <g id="text_12">
      <!-- $\mathdefault{250}$ -->
      <g style="fill: #323034" transform="translate(532.409687 279.702656) scale(0.16 -0.16)">
       <use xlink:href="#STIXGeneral-Regular-32" transform="translate(0 0.203125)"/>
       <use xlink:href="#STIXGeneral-Regular-35" transform="translate(49.999985 0.203125)"/>
       <use xlink:href="#STIXGeneral-Regular-30" transform="translate(99.999969 0.203125)"/>
      </g>
     </g>
    </g>
    <g id="text_13">
     <!-- Time step -->
     <g transform="translate(255.528594 297.102656) scale(0.16 -0.16)">
      <defs>
       <path id="STIXGeneral-Regular-54" d="M 3795 3149 
L 3642 3149 
Q 3539 3674 3353 3821 
Q 3168 3968 2656 3968 
L 2278 3968 
L 2278 710 
Q 2278 346 2387 243 
Q 2496 141 2893 122 
L 2893 0 
L 1024 0 
L 1024 122 
Q 1427 147 1526 256 
Q 1626 365 1626 787 
L 1626 3968 
L 1242 3968 
Q 723 3968 540 3817 
Q 358 3667 262 3149 
L 109 3149 
L 154 4237 
L 3750 4237 
L 3795 3149 
z
" transform="scale(0.015625)"/>
       <path id="STIXGeneral-Regular-70" d="M 1018 2931 
L 1018 2438 
Q 1421 2944 1939 2944 
Q 2406 2944 2707 2560 
Q 3008 2176 3008 1581 
Q 3008 883 2621 409 
Q 2234 -64 1664 -64 
Q 1466 -64 1328 -6 
Q 1190 51 1018 211 
L 1018 -794 
Q 1018 -1094 1120 -1180 
Q 1222 -1267 1581 -1274 
L 1581 -1389 
L 32 -1389 
L 32 -1280 
Q 314 -1254 397 -1171 
Q 480 -1088 480 -838 
L 480 2157 
Q 480 2381 429 2451 
Q 378 2522 218 2522 
Q 115 2522 58 2515 
L 58 2618 
Q 506 2752 979 2944 
L 1018 2931 
z
M 1018 2138 
L 1018 563 
Q 1018 422 1238 281 
Q 1459 141 1683 141 
Q 2029 141 2243 467 
Q 2458 794 2458 1325 
Q 2458 1888 2243 2224 
Q 2029 2560 1670 2560 
Q 1446 2560 1232 2419 
Q 1018 2278 1018 2138 
z
" transform="scale(0.015625)"/>
      </defs>
      <use xlink:href="#STIXGeneral-Regular-54"/>
      <use xlink:href="#STIXGeneral-Regular-69" x="61.099991"/>
      <use xlink:href="#STIXGeneral-Regular-6d" x="88.899979"/>
      <use xlink:href="#STIXGeneral-Regular-65" x="166.699966"/>
      <use xlink:href="#STIXGeneral-Regular-20" x="211.09996"/>
      <use xlink:href="#STIXGeneral-Regular-73" x="236.099945"/>
      <use xlink:href="#STIXGeneral-Regular-74" x="274.999939"/>
      <use xlink:href="#STIXGeneral-Regular-65" x="302.799927"/>
      <use xlink:href="#STIXGeneral-Regular-70" x="347.199921"/>
     </g>
    </g>
   </g>
   <g id="matplotlib.axis_4">
    <g id="ytick_4">
     <g id="line2d_18">
      <g>
       <use xlink:href="#m5a55c49481" x="30.2" y="261.775156" style="fill: #323034; stroke: #323034; stroke-width: 0.8"/>
      </g>
     </g>
     <g id="text_14">
      <!-- $\mathdefault{30}$ -->
      <g style="fill: #323034" transform="translate(7.2 267.238906) scale(0.16 -0.16)">
       <use xlink:href="#STIXGeneral-Regular-33" transform="translate(0 0.40625)"/>
       <use xlink:href="#STIXGeneral-Regular-30" transform="translate(49.999985 0.40625)"/>
      </g>
     </g>
    </g>
    <g id="ytick_5">
     <g id="line2d_19">
      <g>
       <use xlink:href="#m5a55c49481" x="30.2" y="209.642344" style="fill: #323034; stroke: #323034; stroke-width: 0.8"/>
      </g>
     </g>
     <g id="text_15">
      <!-- $\mathdefault{40}$ -->
      <g style="fill: #323034" transform="translate(7.2 215.106094) scale(0.16 -0.16)">
       <defs>
        <path id="STIXGeneral-Regular-34" d="M 3027 1069 
L 2368 1069 
L 2368 0 
L 1869 0 
L 1869 1069 
L 77 1069 
L 77 1478 
L 2086 4326 
L 2368 4326 
L 2368 1478 
L 3027 1478 
L 3027 1069 
z
M 1869 1478 
L 1869 3674 
L 333 1478 
L 1869 1478 
z
" transform="scale(0.015625)"/>
       </defs>
       <use xlink:href="#STIXGeneral-Regular-34" transform="translate(0 0.40625)"/>
       <use xlink:href="#STIXGeneral-Regular-30" transform="translate(49.999985 0.40625)"/>
      </g>
     </g>
    </g>
    <g id="ytick_6">
     <g id="line2d_20">
      <g>
       <use xlink:href="#m5a55c49481" x="30.2" y="157.509531" style="fill: #323034; stroke: #323034; stroke-width: 0.8"/>
      </g>
     </g>
     <g id="text_16">
      <!-- $\mathdefault{50}$ -->
      <g style="fill: #323034" transform="translate(7.2 162.973281) scale(0.16 -0.16)">
       <use xlink:href="#STIXGeneral-Regular-35" transform="translate(0 0.203125)"/>
       <use xlink:href="#STIXGeneral-Regular-30" transform="translate(49.999985 0.203125)"/>
      </g>
     </g>
    </g>
   </g>
   <g id="line2d_21">
    <path d="M 34.313678 210.321938 
L 36.370516 235.621105 
L 38.427355 234.224335 
L 40.484194 233.787245 
L 42.541033 232.635755 
L 44.597871 233.76757 
L 46.65471 235.155227 
L 48.711549 235.641063 
L 50.768387 236.707146 
L 52.825226 234.0002 
L 54.882065 233.560641 
L 56.938904 228.58321 
L 58.995742 235.296255 
L 61.052581 235.272971 
L 63.10942 234.534484 
L 65.166259 234.396885 
L 67.223097 233.703034 
L 69.279936 232.682671 
L 71.336775 232.714482 
L 73.393614 234.251707 
L 75.450452 234.205575 
L 77.507291 233.749812 
L 79.56413 234.209388 
L 81.620969 234.537616 
L 83.677807 234.44844 
L 85.734646 233.811689 
L 87.791485 233.995835 
L 89.848324 233.987001 
L 91.905162 234.840736 
L 96.01884 234.879141 
L 98.075679 234.783729 
L 100.132517 235.922628 
L 104.246195 236.152084 
L 106.303034 236.636534 
L 108.359872 236.613491 
L 110.416711 236.452679 
L 112.47355 236.940269 
L 114.530389 236.939178 
L 116.587227 238.626242 
L 118.644066 238.640235 
L 120.700905 236.802597 
L 122.757744 236.328254 
L 126.871421 236.911937 
L 128.92826 236.933112 
L 130.985099 235.944279 
L 133.041937 236.026683 
L 135.098776 236.564095 
L 137.155615 236.533514 
L 139.212454 236.390708 
L 143.326131 236.329013 
L 145.38297 236.763759 
L 147.439809 236.976012 
L 151.553486 236.836934 
L 153.610325 238.018301 
L 155.667164 237.984158 
L 157.724002 238.155006 
L 159.780841 237.798468 
L 161.83768 237.794332 
L 163.894519 237.472811 
L 165.951357 237.733871 
L 168.008196 237.533472 
L 174.178712 237.558931 
L 176.235551 237.977617 
L 178.29239 238.11155 
L 182.406067 238.110979 
L 184.462906 238.240817 
L 202.974455 238.130168 
L 205.031294 238.013419 
L 211.20181 238.144268 
L 213.258649 238.053956 
L 215.315487 238.078241 
L 219.429165 238.430757 
L 221.486004 238.490649 
L 223.542842 237.989565 
L 227.65652 237.968114 
L 229.713359 238.044731 
L 231.770197 238.749508 
L 239.997552 238.693207 
L 242.054391 238.89409 
L 246.168069 239.001532 
L 248.224907 239.32214 
L 252.338585 238.684045 
L 268.793295 238.640319 
L 272.906972 238.789113 
L 274.963811 238.821094 
L 281.134327 238.663132 
L 285.248005 238.656792 
L 289.361682 238.718204 
L 291.418521 239.29193 
L 295.532199 239.281592 
L 297.589037 239.517117 
L 299.645876 240.026967 
L 303.759554 240.249956 
L 305.816392 240.19586 
L 307.873231 239.705091 
L 309.93007 239.705369 
L 311.986909 239.459403 
L 314.043747 239.755569 
L 318.157425 239.984418 
L 322.271102 240.202918 
L 328.441619 240.029649 
L 330.498457 240.67669 
L 344.896329 240.942354 
L 346.953167 241.066753 
L 349.010006 240.867346 
L 351.066845 241.001862 
L 363.407877 240.447358 
L 394.260459 240.79641 
L 396.317297 241.01953 
L 410.715169 240.950156 
L 416.885685 240.813897 
L 420.999362 240.522598 
L 423.056201 240.566902 
L 427.169879 240.421783 
L 431.283556 240.501667 
L 433.340395 240.617113 
L 437.454072 240.483434 
L 439.510911 240.580817 
L 439.510911 240.580817 
" clip-path="url(#p269586cc05)" style="fill: none; stroke: #bc80bd; stroke-width: 3; stroke-linecap: square"/>
   </g>
   <g id="patch_8">
    <path d="M 30.2 261.775156 
L 30.2 157.509531 
" style="fill: none; stroke: #000000; stroke-width: 0.6; stroke-linejoin: miter; stroke-linecap: square"/>
   </g>
   <g id="patch_9">
    <path d="M 30.2 261.775156 
L 544.409687 261.775156 
" style="fill: none; stroke: #000000; stroke-width: 0.6; stroke-linejoin: miter; stroke-linecap: square"/>
   </g>
   <g id="legend_2">
    <g id="patch_10">
     <path d="M 361.104062 179.313906 
L 536.009687 179.313906 
Q 538.409687 179.313906 538.409687 176.913906 
L 538.409687 165.909531 
Q 538.409687 163.509531 536.009687 163.509531 
L 361.104062 163.509531 
Q 358.704062 163.509531 358.704062 165.909531 
L 358.704062 176.913906 
Q 358.704062 179.313906 361.104062 179.313906 
z
" style="fill: #ffffff; opacity: 0.8; stroke: #e6e6e6; stroke-width: 0.8; stroke-linejoin: miter"/>
    </g>
    <g id="line2d_22">
     <path d="M 361.104062 170.109531 
L 373.104062 170.109531 
L 385.104062 170.109531 
" style="fill: none; stroke: #bc80bd; stroke-width: 3; stroke-linecap: square"/>
    </g>
    <g id="text_17">
     <!-- Recursive estimates: feature1 -->
     <g style="fill: #323034" transform="translate(394.704062 174.309531) scale(0.12 -0.12)">
      <use xlink:href="#STIXGeneral-Regular-52"/>
      <use xlink:href="#STIXGeneral-Regular-65" x="66.699997"/>
      <use xlink:href="#STIXGeneral-Regular-63" x="111.099991"/>
      <use xlink:href="#STIXGeneral-Regular-75" x="155.499985"/>
      <use xlink:href="#STIXGeneral-Regular-72" x="205.499969"/>
      <use xlink:href="#STIXGeneral-Regular-73" x="238.799957"/>
      <use xlink:href="#STIXGeneral-Regular-69" x="277.699951"/>
      <use xlink:href="#STIXGeneral-Regular-76" x="305.499939"/>
      <use xlink:href="#STIXGeneral-Regular-65" x="355.499924"/>
      <use xlink:href="#STIXGeneral-Regular-20" x="399.899918"/>
      <use xlink:href="#STIXGeneral-Regular-65" x="424.899902"/>
      <use xlink:href="#STIXGeneral-Regular-73" x="469.299896"/>
      <use xlink:href="#STIXGeneral-Regular-74" x="508.19989"/>
      <use xlink:href="#STIXGeneral-Regular-69" x="535.999878"/>
      <use xlink:href="#STIXGeneral-Regular-6d" x="563.799866"/>
      <use xlink:href="#STIXGeneral-Regular-61" x="641.599854"/>
      <use xlink:href="#STIXGeneral-Regular-74" x="685.999847"/>
      <use xlink:href="#STIXGeneral-Regular-65" x="713.799835"/>
      <use xlink:href="#STIXGeneral-Regular-73" x="758.199829"/>
      <use xlink:href="#STIXGeneral-Regular-3a" x="797.099823"/>
      <use xlink:href="#STIXGeneral-Regular-20" x="824.899811"/>
      <use xlink:href="#STIXGeneral-Regular-66" x="849.899796"/>
      <use xlink:href="#STIXGeneral-Regular-65" x="883.199783"/>
      <use xlink:href="#STIXGeneral-Regular-61" x="927.599777"/>
      <use xlink:href="#STIXGeneral-Regular-74" x="971.999771"/>
      <use xlink:href="#STIXGeneral-Regular-75" x="999.799759"/>
      <use xlink:href="#STIXGeneral-Regular-72" x="1049.799744"/>
      <use xlink:href="#STIXGeneral-Regular-65" x="1083.099731"/>
      <use xlink:href="#STIXGeneral-Regular-31" x="1127.499725"/>
     </g>
    </g>
   </g>
  </g>
 </g>
 <defs>
  <clipPath id="p31ad04b628">
   <rect x="30.2" y="26.176406" width="514.209687" height="104.265625"/>
  </clipPath>
  <clipPath id="p269586cc05">
   <rect x="30.2" y="157.509531" width="514.209687" height="104.265625"/>
  </clipPath>
 </defs>
</svg>