<?xml version="1.0" encoding="utf-8" standalone="no"?>
<!DOCTYPE svg PUBLIC "-//W3C//DTD SVG 1.1//EN"
  "http://www.w3.org/Graphics/SVG/1.1/DTD/svg11.dtd">
<svg xmlns:xlink="http://www.w3.org/1999/xlink" width="555.615022pt" height="283.9725pt" viewBox="0 0 555.615022 283.9725" xmlns="http://www.w3.org/2000/svg" version="1.1">
 <metadata>
  <rdf:RDF xmlns:dc="http://purl.org/dc/elements/1.1/" xmlns:cc="http://creativecommons.org/ns#" xmlns:rdf="http://www.w3.org/1999/02/22-rdf-syntax-ns#">
   <cc:Work>
    <dc:type rdf:resource="http://purl.org/dc/dcmitype/StillImage"/>
    <dc:date>2025-03-26T16:06:04.848112</dc:date>
    <dc:format>image/svg+xml</dc:format>
    <dc:creator>
     <cc:Agent>
      <dc:title>Matplotlib v3.10.0, https://matplotlib.org/</dc:title>
     </cc:Agent>
    </dc:creator>
   </cc:Work>
  </rdf:RDF>
 </metadata>
 <defs>
  <style type="text/css">*{stroke-linejoin: round; stroke-linecap: butt}</style>
 </defs>
 <g id="figure_1">
  <g id="patch_1">
   <path d="M 0 283.9725 
L 555.615022 283.9725 
L 555.615022 0 
L 0 0 
z
" style="fill: #ffffff"/>
  </g>
  <g id="axes_1">
   <g id="patch_2">
    <path d="M 34.2 132.464 
L 262.895022 132.464 
L 262.895022 58.695 
L 34.2 58.695 
z
" style="fill: #ffffff"/>
   </g>
   <g id="patch_3">
    <path d="M 148.569478 132.464 
L 155.732575 132.464 
L 155.732575 72.11173 
L 148.569478 72.11173 
z
" clip-path="url(#pef417bbb71)" style="fill: #bc80bd; stroke: #000000; stroke-width: 0.8; stroke-linejoin: miter"/>
   </g>
   <g id="patch_4">
    <path d="M 155.732575 132.464 
L 162.895673 132.464 
L 162.895673 78.294157 
L 155.732575 78.294157 
z
" clip-path="url(#pef417bbb71)" style="fill: #bc80bd; stroke: #000000; stroke-width: 0.8; stroke-linejoin: miter"/>
   </g>
   <g id="patch_5">
    <path d="M 162.895673 132.464 
L 170.05877 132.464 
L 170.05877 90.364611 
L 162.895673 90.364611 
z
" clip-path="url(#pef417bbb71)" style="fill: #bc80bd; stroke: #000000; stroke-width: 0.8; stroke-linejoin: miter"/>
   </g>
   <g id="patch_6">
    <path d="M 170.05877 132.464 
L 177.221868 132.464 
L 177.221868 98.607848 
L 170.05877 98.607848 
z
" clip-path="url(#pef417bbb71)" style="fill: #bc80bd; stroke: #000000; stroke-width: 0.8; stroke-linejoin: miter"/>
   </g>
   <g id="patch_7">
    <path d="M 177.221868 132.464 
L 184.384966 132.464 
L 184.384966 109.795098 
L 177.221868 109.795098 
z
" clip-path="url(#pef417bbb71)" style="fill: #bc80bd; stroke: #000000; stroke-width: 0.8; stroke-linejoin: miter"/>
   </g>
   <g id="patch_8">
    <path d="M 184.384966 132.464 
L 191.548063 132.464 
L 191.548063 114.50552 
L 184.384966 114.50552 
z
" clip-path="url(#pef417bbb71)" style="fill: #bc80bd; stroke: #000000; stroke-width: 0.8; stroke-linejoin: miter"/>
   </g>
   <g id="patch_9">
    <path d="M 191.548063 132.464 
L 198.711161 132.464 
L 198.711161 120.982349 
L 191.548063 120.982349 
z
" clip-path="url(#pef417bbb71)" style="fill: #bc80bd; stroke: #000000; stroke-width: 0.8; stroke-linejoin: miter"/>
   </g>
   <g id="patch_10">
    <path d="M 198.711161 132.464 
L 205.874258 132.464 
L 205.874258 120.393546 
L 198.711161 120.393546 
z
" clip-path="url(#pef417bbb71)" style="fill: #bc80bd; stroke: #000000; stroke-width: 0.8; stroke-linejoin: miter"/>
   </g>
   <g id="patch_11">
    <path d="M 205.874258 132.464 
L 213.037356 132.464 
L 213.037356 119.510342 
L 205.874258 119.510342 
z
" clip-path="url(#pef417bbb71)" style="fill: #bc80bd; stroke: #000000; stroke-width: 0.8; stroke-linejoin: miter"/>
   </g>
   <g id="patch_12">
    <path d="M 213.037356 132.464 
L 220.200454 132.464 
L 220.200454 126.575974 
L 213.037356 126.575974 
z
" clip-path="url(#pef417bbb71)" style="fill: #bc80bd; stroke: #000000; stroke-width: 0.8; stroke-linejoin: miter"/>
   </g>
   <g id="patch_13">
    <path d="M 220.200454 132.464 
L 227.363551 132.464 
L 227.363551 128.04798 
L 220.200454 128.04798 
z
" clip-path="url(#pef417bbb71)" style="fill: #bc80bd; stroke: #000000; stroke-width: 0.8; stroke-linejoin: miter"/>
   </g>
   <g id="patch_14">
    <path d="M 227.363551 132.464 
L 234.526649 132.464 
L 234.526649 128.931184 
L 227.363551 128.931184 
z
" clip-path="url(#pef417bbb71)" style="fill: #bc80bd; stroke: #000000; stroke-width: 0.8; stroke-linejoin: miter"/>
   </g>
   <g id="patch_15">
    <path d="M 234.526649 132.464 
L 241.689746 132.464 
L 241.689746 130.108789 
L 234.526649 130.108789 
z
" clip-path="url(#pef417bbb71)" style="fill: #bc80bd; stroke: #000000; stroke-width: 0.8; stroke-linejoin: miter"/>
   </g>
   <g id="patch_16">
    <path d="M 241.689746 132.464 
L 248.852844 132.464 
L 248.852844 130.403191 
L 241.689746 130.403191 
z
" clip-path="url(#pef417bbb71)" style="fill: #bc80bd; stroke: #000000; stroke-width: 0.8; stroke-linejoin: miter"/>
   </g>
   <g id="patch_17">
    <path d="M 248.852844 132.464 
L 256.015942 132.464 
L 256.015942 131.580796 
L 248.852844 131.580796 
z
" clip-path="url(#pef417bbb71)" style="fill: #bc80bd; stroke: #000000; stroke-width: 0.8; stroke-linejoin: miter"/>
   </g>
   <g id="patch_18">
    <path d="M 256.015942 132.464 
L 263.179039 132.464 
L 263.179039 130.697592 
L 256.015942 130.697592 
z
" clip-path="url(#pef417bbb71)" style="fill: #bc80bd; stroke: #000000; stroke-width: 0.8; stroke-linejoin: miter"/>
   </g>
   <g id="patch_19">
    <path d="M 263.179039 132.464 
L 270.342137 132.464 
L 270.342137 131.286395 
L 263.179039 131.286395 
z
" clip-path="url(#pef417bbb71)" style="fill: #bc80bd; stroke: #000000; stroke-width: 0.8; stroke-linejoin: miter"/>
   </g>
   <g id="patch_20">
    <path d="M 270.342137 132.464 
L 277.505234 132.464 
L 277.505234 131.286395 
L 270.342137 131.286395 
z
" clip-path="url(#pef417bbb71)" style="fill: #bc80bd; stroke: #000000; stroke-width: 0.8; stroke-linejoin: miter"/>
   </g>
   <g id="patch_21">
    <path d="M 277.505234 132.464 
L 284.668332 132.464 
L 284.668332 131.875197 
L 277.505234 131.875197 
z
" clip-path="url(#pef417bbb71)" style="fill: #bc80bd; stroke: #000000; stroke-width: 0.8; stroke-linejoin: miter"/>
   </g>
   <g id="patch_22">
    <path d="M 284.668332 132.464 
L 291.83143 132.464 
L 291.83143 132.464 
L 284.668332 132.464 
z
" clip-path="url(#pef417bbb71)" style="fill: #bc80bd; stroke: #000000; stroke-width: 0.8; stroke-linejoin: miter"/>
   </g>
   <g id="patch_23">
    <path d="M 291.83143 132.464 
L 298.994527 132.464 
L 298.994527 131.875197 
L 291.83143 131.875197 
z
" clip-path="url(#pef417bbb71)" style="fill: #bc80bd; stroke: #000000; stroke-width: 0.8; stroke-linejoin: miter"/>
   </g>
   <g id="patch_24">
    <path d="M 298.994527 132.464 
L 306.157625 132.464 
L 306.157625 131.580796 
L 298.994527 131.580796 
z
" clip-path="url(#pef417bbb71)" style="fill: #bc80bd; stroke: #000000; stroke-width: 0.8; stroke-linejoin: miter"/>
   </g>
   <g id="patch_25">
    <path d="M 306.157625 132.464 
L 313.320722 132.464 
L 313.320722 132.169599 
L 306.157625 132.169599 
z
" clip-path="url(#pef417bbb71)" style="fill: #bc80bd; stroke: #000000; stroke-width: 0.8; stroke-linejoin: miter"/>
   </g>
   <g id="patch_26">
    <path d="M 313.320722 132.464 
L 320.48382 132.464 
L 320.48382 131.875197 
L 313.320722 131.875197 
z
" clip-path="url(#pef417bbb71)" style="fill: #bc80bd; stroke: #000000; stroke-width: 0.8; stroke-linejoin: miter"/>
   </g>
   <g id="patch_27">
    <path d="M 320.48382 132.464 
L 327.646918 132.464 
L 327.646918 132.169599 
L 320.48382 132.169599 
z
" clip-path="url(#pef417bbb71)" style="fill: #bc80bd; stroke: #000000; stroke-width: 0.8; stroke-linejoin: miter"/>
   </g>
   <g id="patch_28">
    <path d="M 327.646918 132.464 
L 334.810015 132.464 
L 334.810015 132.464 
L 327.646918 132.464 
z
" clip-path="url(#pef417bbb71)" style="fill: #bc80bd; stroke: #000000; stroke-width: 0.8; stroke-linejoin: miter"/>
   </g>
   <g id="patch_29">
    <path d="M 334.810015 132.464 
L 341.973113 132.464 
L 341.973113 132.464 
L 334.810015 132.464 
z
" clip-path="url(#pef417bbb71)" style="fill: #bc80bd; stroke: #000000; stroke-width: 0.8; stroke-linejoin: miter"/>
   </g>
   <g id="patch_30">
    <path d="M 341.973113 132.464 
L 349.13621 132.464 
L 349.13621 132.464 
L 341.973113 132.464 
z
" clip-path="url(#pef417bbb71)" style="fill: #bc80bd; stroke: #000000; stroke-width: 0.8; stroke-linejoin: miter"/>
   </g>
   <g id="patch_31">
    <path d="M 349.13621 132.464 
L 356.299308 132.464 
L 356.299308 132.464 
L 349.13621 132.464 
z
" clip-path="url(#pef417bbb71)" style="fill: #bc80bd; stroke: #000000; stroke-width: 0.8; stroke-linejoin: miter"/>
   </g>
   <g id="patch_32">
    <path d="M 356.299308 132.464 
L 363.462406 132.464 
L 363.462406 132.169599 
L 356.299308 132.169599 
z
" clip-path="url(#pef417bbb71)" style="fill: #bc80bd; stroke: #000000; stroke-width: 0.8; stroke-linejoin: miter"/>
   </g>
   <g id="matplotlib.axis_1">
    <g id="xtick_1">
     <g id="line2d_1">
      <defs>
       <path id="m730cd3e1f6" d="M 0 0 
L 0 3.5 
" style="stroke: #323034; stroke-width: 0.8"/>
      </defs>
      <g>
       <use xlink:href="#m730cd3e1f6" x="34.2" y="132.464" style="fill: #323034; stroke: #323034; stroke-width: 0.8"/>
      </g>
     </g>
     <g id="text_1">
      <!-- $\mathdefault{−4}$ -->
      <g style="fill: #323034" transform="translate(24.68 150.3915) scale(0.16 -0.16)">
       <defs>
        <path id="STIXGeneral-Regular-2212" d="M 3974 1408 
L 410 1408 
L 410 1830 
L 3974 1830 
L 3974 1408 
z
" transform="scale(0.015625)"/>
        <path id="STIXGeneral-Regular-34" d="M 3027 1069 
L 2368 1069 
L 2368 0 
L 1869 0 
L 1869 1069 
L 77 1069 
L 77 1478 
L 2086 4326 
L 2368 4326 
L 2368 1478 
L 3027 1478 
L 3027 1069 
z
M 1869 1478 
L 1869 3674 
L 333 1478 
L 1869 1478 
z
" transform="scale(0.015625)"/>
       </defs>
       <use xlink:href="#STIXGeneral-Regular-2212" transform="translate(0 0.40625)"/>
       <use xlink:href="#STIXGeneral-Regular-34" transform="translate(68.499985 0.40625)"/>
      </g>
     </g>
    </g>
    <g id="xtick_2">
     <g id="line2d_2">
      <g>
       <use xlink:href="#m730cd3e1f6" x="91.373755" y="132.464" style="fill: #323034; stroke: #323034; stroke-width: 0.8"/>
      </g>
     </g>
     <g id="text_2">
      <!-- $\mathdefault{−2}$ -->
      <g style="fill: #323034" transform="translate(81.853755 150.3915) scale(0.16 -0.16)">
       <defs>
        <path id="STIXGeneral-Regular-32" d="M 3034 877 
L 2688 0 
L 186 0 
L 186 77 
L 1325 1286 
Q 1773 1754 1965 2144 
Q 2157 2534 2157 2950 
Q 2157 3379 1920 3616 
Q 1683 3853 1267 3853 
Q 922 3853 720 3673 
Q 518 3494 326 3021 
L 192 3053 
Q 301 3648 630 3987 
Q 960 4326 1523 4326 
Q 2054 4326 2380 4006 
Q 2707 3686 2707 3200 
Q 2707 2477 1888 1613 
L 832 486 
L 2330 486 
Q 2541 486 2665 569 
Q 2790 653 2944 915 
L 3034 877 
z
" transform="scale(0.015625)"/>
       </defs>
       <use xlink:href="#STIXGeneral-Regular-2212" transform="translate(0 0.40625)"/>
       <use xlink:href="#STIXGeneral-Regular-32" transform="translate(68.499985 0.40625)"/>
      </g>
     </g>
    </g>
    <g id="xtick_3">
     <g id="line2d_3">
      <g>
       <use xlink:href="#m730cd3e1f6" x="148.547511" y="132.464" style="fill: #323034; stroke: #323034; stroke-width: 0.8"/>
      </g>
     </g>
     <g id="text_3">
      <!-- $\mathdefault{0}$ -->
      <g style="fill: #323034" transform="translate(144.547511 150.3915) scale(0.16 -0.16)">
       <defs>
        <path id="STIXGeneral-Regular-30" d="M 3046 2112 
Q 3046 1683 2963 1302 
Q 2880 922 2717 602 
Q 2554 282 2266 96 
Q 1978 -90 1600 -90 
Q 1210 -90 915 108 
Q 621 307 461 640 
Q 301 973 227 1350 
Q 154 1728 154 2150 
Q 154 2746 301 3222 
Q 448 3699 790 4012 
Q 1133 4326 1626 4326 
Q 2253 4326 2649 3712 
Q 3046 3098 3046 2112 
z
M 2432 2080 
Q 2432 3091 2217 3625 
Q 2003 4160 1587 4160 
Q 1190 4160 979 3622 
Q 768 3085 768 2106 
Q 768 1120 979 598 
Q 1190 77 1600 77 
Q 2003 77 2217 598 
Q 2432 1120 2432 2080 
z
" transform="scale(0.015625)"/>
       </defs>
       <use xlink:href="#STIXGeneral-Regular-30" transform="translate(0 0.40625)"/>
      </g>
     </g>
    </g>
    <g id="xtick_4">
     <g id="line2d_4">
      <g>
       <use xlink:href="#m730cd3e1f6" x="205.721266" y="132.464" style="fill: #323034; stroke: #323034; stroke-width: 0.8"/>
      </g>
     </g>
     <g id="text_4">
      <!-- $\mathdefault{2}$ -->
      <g style="fill: #323034" transform="translate(201.721266 150.3915) scale(0.16 -0.16)">
       <use xlink:href="#STIXGeneral-Regular-32" transform="translate(0 0.40625)"/>
      </g>
     </g>
    </g>
    <g id="xtick_5">
     <g id="line2d_5">
      <g>
       <use xlink:href="#m730cd3e1f6" x="262.895022" y="132.464" style="fill: #323034; stroke: #323034; stroke-width: 0.8"/>
      </g>
     </g>
     <g id="text_5">
      <!-- $\mathdefault{4}$ -->
      <g style="fill: #323034" transform="translate(258.895022 150.3915) scale(0.16 -0.16)">
       <use xlink:href="#STIXGeneral-Regular-34" transform="translate(0 0.40625)"/>
      </g>
     </g>
    </g>
   </g>
   <g id="matplotlib.axis_2">
    <g id="ytick_1">
     <g id="line2d_6">
      <defs>
       <path id="m33dd3f8640" d="M 0 0 
L -3.5 0 
" style="stroke: #323034; stroke-width: 0.8"/>
      </defs>
      <g>
       <use xlink:href="#m33dd3f8640" x="34.2" y="132.464" style="fill: #323034; stroke: #323034; stroke-width: 0.8"/>
      </g>
     </g>
     <g id="text_6">
      <!-- $\mathdefault{0.0}$ -->
      <g style="fill: #323034" transform="translate(7.2 137.92775) scale(0.16 -0.16)">
       <defs>
        <path id="STIXGeneral-Regular-2e" d="M 1158 275 
Q 1158 134 1052 32 
Q 947 -70 800 -70 
Q 653 -70 550 32 
Q 448 134 448 281 
Q 448 429 553 534 
Q 659 640 806 640 
Q 947 640 1052 531 
Q 1158 422 1158 275 
z
" transform="scale(0.015625)"/>
       </defs>
       <use xlink:href="#STIXGeneral-Regular-30" transform="translate(0 0.40625)"/>
       <use xlink:href="#STIXGeneral-Regular-2e" transform="translate(49.999985 0.40625)"/>
       <use xlink:href="#STIXGeneral-Regular-30" transform="translate(74.999969 0.40625)"/>
      </g>
     </g>
    </g>
    <g id="ytick_2">
     <g id="line2d_7">
      <g>
       <use xlink:href="#m33dd3f8640" x="34.2" y="95.5795" style="fill: #323034; stroke: #323034; stroke-width: 0.8"/>
      </g>
     </g>
     <g id="text_7">
      <!-- $\mathdefault{0.5}$ -->
      <g style="fill: #323034" transform="translate(7.2 101.04325) scale(0.16 -0.16)">
       <defs>
        <path id="STIXGeneral-Regular-35" d="M 2803 4358 
L 2573 3814 
Q 2534 3731 2400 3731 
L 1158 3731 
L 902 3187 
Q 1606 3053 1920 2896 
Q 2234 2739 2502 2368 
Q 2726 2061 2726 1555 
Q 2726 1094 2576 780 
Q 2426 467 2099 224 
Q 1664 -90 1011 -90 
Q 646 -90 422 19 
Q 198 128 198 307 
Q 198 550 486 550 
Q 717 550 960 352 
Q 1210 147 1414 147 
Q 1747 147 2012 480 
Q 2278 813 2278 1229 
Q 2278 1843 1850 2189 
Q 1293 2637 486 2637 
Q 410 2637 410 2688 
L 416 2720 
L 1114 4237 
L 2438 4237 
Q 2547 4237 2608 4269 
Q 2669 4301 2746 4403 
L 2803 4358 
z
" transform="scale(0.015625)"/>
       </defs>
       <use xlink:href="#STIXGeneral-Regular-30" transform="translate(0 0.203125)"/>
       <use xlink:href="#STIXGeneral-Regular-2e" transform="translate(49.999985 0.203125)"/>
       <use xlink:href="#STIXGeneral-Regular-35" transform="translate(74.999969 0.203125)"/>
      </g>
     </g>
    </g>
    <g id="ytick_3">
     <g id="line2d_8">
      <g>
       <use xlink:href="#m33dd3f8640" x="34.2" y="58.695" style="fill: #323034; stroke: #323034; stroke-width: 0.8"/>
      </g>
     </g>
     <g id="text_8">
      <!-- $\mathdefault{1.0}$ -->
      <g style="fill: #323034" transform="translate(7.2 64.15875) scale(0.16 -0.16)">
       <defs>
        <path id="STIXGeneral-Regular-31" d="M 2522 0 
L 755 0 
L 755 96 
Q 1107 115 1235 227 
Q 1363 339 1363 608 
L 1363 3482 
Q 1363 3795 1171 3795 
Q 1082 3795 883 3718 
L 710 3654 
L 710 3744 
L 1856 4326 
L 1914 4307 
L 1914 486 
Q 1914 275 2042 185 
Q 2170 96 2522 96 
L 2522 0 
z
" transform="scale(0.015625)"/>
       </defs>
       <use xlink:href="#STIXGeneral-Regular-31" transform="translate(0 0.40625)"/>
       <use xlink:href="#STIXGeneral-Regular-2e" transform="translate(49.999985 0.40625)"/>
       <use xlink:href="#STIXGeneral-Regular-30" transform="translate(74.999969 0.40625)"/>
      </g>
     </g>
    </g>
   </g>
   <g id="patch_33">
    <path d="M 34.2 132.464 
L 34.2 58.695 
" style="fill: none; stroke: #000000; stroke-width: 0.6; stroke-linejoin: miter; stroke-linecap: square"/>
   </g>
   <g id="patch_34">
    <path d="M 34.2 132.464 
L 262.895022 132.464 
" style="fill: none; stroke: #000000; stroke-width: 0.6; stroke-linejoin: miter; stroke-linecap: square"/>
   </g>
   <g id="text_9">
    <!-- Original -->
    <g style="fill: #323034" transform="translate(34.2 52.695) scale(0.12 -0.12)">
     <defs>
      <path id="STIXGeneral-Regular-4f" d="M 4403 2118 
Q 4403 1133 3820 521 
Q 3238 -90 2310 -90 
Q 1376 -90 797 524 
Q 218 1139 218 2138 
Q 218 3110 797 3718 
Q 1376 4326 2310 4326 
Q 3245 4326 3824 3702 
Q 4403 3078 4403 2118 
z
M 3674 2157 
Q 3674 2701 3520 3133 
Q 3366 3565 3091 3795 
Q 2733 4096 2304 4096 
Q 1760 4096 1389 3667 
Q 1184 3437 1065 3011 
Q 947 2586 947 2125 
Q 947 960 1523 429 
Q 1837 141 2317 141 
Q 2816 141 3142 448 
Q 3674 960 3674 2157 
z
" transform="scale(0.015625)"/>
      <path id="STIXGeneral-Regular-72" d="M 1024 2931 
L 1024 2342 
Q 1267 2688 1430 2816 
Q 1594 2944 1792 2944 
Q 1958 2944 2051 2854 
Q 2144 2765 2144 2605 
Q 2144 2470 2077 2393 
Q 2010 2317 1894 2317 
Q 1773 2317 1638 2445 
Q 1536 2541 1472 2541 
Q 1338 2541 1181 2355 
Q 1024 2170 1024 2016 
L 1024 576 
Q 1024 301 1133 205 
Q 1242 109 1568 96 
L 1568 0 
L 32 0 
L 32 96 
Q 339 154 412 224 
Q 486 294 486 538 
L 486 2138 
Q 486 2349 438 2435 
Q 390 2522 269 2522 
Q 166 2522 45 2496 
L 45 2598 
Q 448 2726 992 2944 
L 1024 2931 
z
" transform="scale(0.015625)"/>
      <path id="STIXGeneral-Regular-69" d="M 1152 4045 
Q 1152 3904 1056 3811 
Q 960 3718 819 3718 
Q 685 3718 592 3811 
Q 499 3904 499 4045 
Q 499 4179 595 4275 
Q 691 4371 826 4371 
Q 966 4371 1059 4275 
Q 1152 4179 1152 4045 
z
M 1619 0 
L 102 0 
L 102 96 
Q 435 115 521 211 
Q 608 307 608 666 
L 608 2118 
Q 608 2342 563 2432 
Q 518 2522 397 2522 
Q 243 2522 128 2490 
L 128 2592 
L 1120 2944 
L 1146 2918 
L 1146 672 
Q 1146 314 1226 218 
Q 1306 122 1619 96 
L 1619 0 
z
" transform="scale(0.015625)"/>
      <path id="STIXGeneral-Regular-67" d="M 3008 2483 
L 2477 2483 
Q 2598 2208 2598 1946 
Q 2598 1453 2265 1203 
Q 1933 954 1600 954 
Q 1530 954 1357 973 
L 1235 986 
Q 1107 947 979 812 
Q 851 678 851 582 
Q 851 435 1350 410 
L 2176 371 
Q 2528 358 2739 172 
Q 2950 -13 2950 -314 
Q 2950 -685 2566 -986 
Q 2035 -1395 1286 -1395 
Q 826 -1395 502 -1212 
Q 179 -1030 179 -774 
Q 179 -595 320 -419 
Q 461 -243 806 6 
Q 602 102 534 172 
Q 467 243 467 346 
Q 467 531 762 787 
Q 909 915 1037 1043 
Q 717 1203 579 1401 
Q 442 1600 442 1901 
Q 442 2336 752 2640 
Q 1062 2944 1510 2944 
Q 1766 2944 2022 2848 
L 2163 2797 
Q 2349 2733 2515 2733 
L 3008 2733 
L 3008 2483 
z
M 973 2163 
L 973 2144 
Q 973 1683 1155 1398 
Q 1338 1114 1632 1114 
Q 1850 1114 1978 1270 
Q 2106 1427 2106 1690 
Q 2106 2112 1914 2464 
Q 1754 2765 1446 2765 
Q 1222 2765 1097 2605 
Q 973 2445 973 2163 
z
M 2771 -410 
Q 2771 -230 2595 -163 
Q 2419 -96 1978 -96 
Q 1344 -96 941 -13 
Q 749 -243 688 -348 
Q 627 -454 627 -563 
Q 627 -774 880 -902 
Q 1133 -1030 1555 -1030 
Q 2099 -1030 2435 -860 
Q 2771 -691 2771 -410 
z
" transform="scale(0.015625)"/>
      <path id="STIXGeneral-Regular-6e" d="M 3104 0 
L 1773 0 
L 1779 96 
Q 2016 115 2096 233 
Q 2176 352 2176 672 
L 2176 1946 
Q 2176 2592 1709 2592 
Q 1549 2592 1408 2515 
Q 1267 2438 1050 2227 
L 1050 461 
Q 1050 269 1136 192 
Q 1222 115 1466 96 
L 1466 0 
L 115 0 
L 115 96 
Q 358 115 435 214 
Q 512 314 512 602 
L 512 2157 
Q 512 2394 467 2483 
Q 422 2573 288 2573 
Q 160 2573 102 2547 
L 102 2656 
Q 550 2784 979 2944 
L 1030 2925 
L 1030 2426 
L 1037 2426 
Q 1491 2944 1958 2944 
Q 2323 2944 2518 2688 
Q 2714 2432 2714 1958 
L 2714 544 
Q 2714 288 2790 205 
Q 2867 122 3104 96 
L 3104 0 
z
" transform="scale(0.015625)"/>
      <path id="STIXGeneral-Regular-61" d="M 2829 422 
L 2829 243 
Q 2586 -64 2253 -64 
Q 1888 -64 1843 403 
L 1837 403 
Q 1427 -64 909 -64 
Q 608 -64 422 112 
Q 237 288 237 602 
Q 237 1050 685 1350 
Q 992 1555 1837 1869 
L 1837 2214 
Q 1837 2502 1699 2646 
Q 1562 2790 1338 2790 
Q 1146 2790 1018 2697 
Q 890 2605 890 2477 
Q 890 2419 909 2348 
Q 928 2278 928 2208 
Q 928 2112 841 2029 
Q 755 1946 634 1946 
Q 525 1946 441 2029 
Q 358 2112 358 2240 
Q 358 2547 685 2752 
Q 986 2944 1421 2944 
Q 1939 2944 2176 2656 
Q 2291 2522 2323 2384 
Q 2355 2246 2355 1946 
L 2355 723 
Q 2355 301 2554 301 
Q 2682 301 2829 422 
z
M 1837 813 
L 1837 1715 
Q 1248 1510 1018 1293 
Q 800 1094 800 800 
Q 800 557 921 432 
Q 1043 307 1242 307 
Q 1453 307 1613 410 
Q 1747 506 1792 589 
Q 1837 672 1837 813 
z
" transform="scale(0.015625)"/>
      <path id="STIXGeneral-Regular-6c" d="M 1645 0 
L 134 0 
L 134 96 
Q 435 122 531 221 
Q 627 320 627 589 
L 627 3590 
Q 627 3821 569 3910 
Q 512 4000 358 4000 
Q 224 4000 122 3987 
L 122 4090 
Q 730 4237 1133 4371 
L 1165 4346 
L 1165 557 
Q 1165 288 1254 201 
Q 1344 115 1645 96 
L 1645 0 
z
" transform="scale(0.015625)"/>
     </defs>
     <use xlink:href="#STIXGeneral-Regular-4f"/>
     <use xlink:href="#STIXGeneral-Regular-72" transform="translate(72.199982 0)"/>
     <use xlink:href="#STIXGeneral-Regular-69" transform="translate(105.499969 0)"/>
     <use xlink:href="#STIXGeneral-Regular-67" transform="translate(133.299957 0)"/>
     <use xlink:href="#STIXGeneral-Regular-69" transform="translate(183.299942 0)"/>
     <use xlink:href="#STIXGeneral-Regular-6e" transform="translate(211.09993 0)"/>
     <use xlink:href="#STIXGeneral-Regular-61" transform="translate(261.099915 0)"/>
     <use xlink:href="#STIXGeneral-Regular-6c" transform="translate(305.499908 0)"/>
    </g>
   </g>
  </g>
  <g id="axes_2">
   <g id="patch_35">
    <path d="M 315.72 132.464 
L 544.415022 132.464 
L 544.415022 58.695 
L 315.72 58.695 
z
" style="fill: #ffffff"/>
   </g>
   <g id="patch_36">
    <path d="M 225.065803 132.464 
L 233.821465 132.464 
L 233.821465 131.861868 
L 225.065803 131.861868 
z
" clip-path="url(#p30935db5de)" style="fill: #bc80bd; stroke: #000000; stroke-width: 0.8; stroke-linejoin: miter"/>
   </g>
   <g id="patch_37">
    <path d="M 233.821465 132.464 
L 242.577126 132.464 
L 242.577126 132.464 
L 233.821465 132.464 
z
" clip-path="url(#p30935db5de)" style="fill: #bc80bd; stroke: #000000; stroke-width: 0.8; stroke-linejoin: miter"/>
   </g>
   <g id="patch_38">
    <path d="M 242.577126 132.464 
L 251.332788 132.464 
L 251.332788 131.861868 
L 242.577126 131.861868 
z
" clip-path="url(#p30935db5de)" style="fill: #bc80bd; stroke: #000000; stroke-width: 0.8; stroke-linejoin: miter"/>
   </g>
   <g id="patch_39">
    <path d="M 251.332788 132.464 
L 260.08845 132.464 
L 260.08845 131.861868 
L 251.332788 131.861868 
z
" clip-path="url(#p30935db5de)" style="fill: #bc80bd; stroke: #000000; stroke-width: 0.8; stroke-linejoin: miter"/>
   </g>
   <g id="patch_40">
    <path d="M 260.08845 132.464 
L 268.844112 132.464 
L 268.844112 131.861868 
L 260.08845 131.861868 
z
" clip-path="url(#p30935db5de)" style="fill: #bc80bd; stroke: #000000; stroke-width: 0.8; stroke-linejoin: miter"/>
   </g>
   <g id="patch_41">
    <path d="M 268.844112 132.464 
L 277.599774 132.464 
L 277.599774 131.861868 
L 268.844112 131.861868 
z
" clip-path="url(#p30935db5de)" style="fill: #bc80bd; stroke: #000000; stroke-width: 0.8; stroke-linejoin: miter"/>
   </g>
   <g id="patch_42">
    <path d="M 277.599774 132.464 
L 286.355435 132.464 
L 286.355435 130.055472 
L 277.599774 130.055472 
z
" clip-path="url(#p30935db5de)" style="fill: #bc80bd; stroke: #000000; stroke-width: 0.8; stroke-linejoin: miter"/>
   </g>
   <g id="patch_43">
    <path d="M 286.355435 132.464 
L 295.111097 132.464 
L 295.111097 131.259736 
L 286.355435 131.259736 
z
" clip-path="url(#p30935db5de)" style="fill: #bc80bd; stroke: #000000; stroke-width: 0.8; stroke-linejoin: miter"/>
   </g>
   <g id="patch_44">
    <path d="M 295.111097 132.464 
L 303.866759 132.464 
L 303.866759 128.851208 
L 295.111097 128.851208 
z
" clip-path="url(#p30935db5de)" style="fill: #bc80bd; stroke: #000000; stroke-width: 0.8; stroke-linejoin: miter"/>
   </g>
   <g id="patch_45">
    <path d="M 303.866759 132.464 
L 312.622421 132.464 
L 312.622421 129.45334 
L 303.866759 129.45334 
z
" clip-path="url(#p30935db5de)" style="fill: #bc80bd; stroke: #000000; stroke-width: 0.8; stroke-linejoin: miter"/>
   </g>
   <g id="patch_46">
    <path d="M 312.622421 132.464 
L 321.378083 132.464 
L 321.378083 127.044813 
L 312.622421 127.044813 
z
" clip-path="url(#p30935db5de)" style="fill: #bc80bd; stroke: #000000; stroke-width: 0.8; stroke-linejoin: miter"/>
   </g>
   <g id="patch_47">
    <path d="M 321.378083 132.464 
L 330.133744 132.464 
L 330.133744 128.249077 
L 321.378083 128.249077 
z
" clip-path="url(#p30935db5de)" style="fill: #bc80bd; stroke: #000000; stroke-width: 0.8; stroke-linejoin: miter"/>
   </g>
   <g id="patch_48">
    <path d="M 330.133744 132.464 
L 338.889406 132.464 
L 338.889406 126.442681 
L 330.133744 126.442681 
z
" clip-path="url(#p30935db5de)" style="fill: #bc80bd; stroke: #000000; stroke-width: 0.8; stroke-linejoin: miter"/>
   </g>
   <g id="patch_49">
    <path d="M 338.889406 132.464 
L 347.645068 132.464 
L 347.645068 124.636285 
L 338.889406 124.636285 
z
" clip-path="url(#p30935db5de)" style="fill: #bc80bd; stroke: #000000; stroke-width: 0.8; stroke-linejoin: miter"/>
   </g>
   <g id="patch_50">
    <path d="M 347.645068 132.464 
L 356.40073 132.464 
L 356.40073 119.81923 
L 347.645068 119.81923 
z
" clip-path="url(#p30935db5de)" style="fill: #bc80bd; stroke: #000000; stroke-width: 0.8; stroke-linejoin: miter"/>
   </g>
   <g id="patch_51">
    <path d="M 356.40073 132.464 
L 365.156392 132.464 
L 365.156392 120.421362 
L 356.40073 120.421362 
z
" clip-path="url(#p30935db5de)" style="fill: #bc80bd; stroke: #000000; stroke-width: 0.8; stroke-linejoin: miter"/>
   </g>
   <g id="patch_52">
    <path d="M 365.156392 132.464 
L 373.912054 132.464 
L 373.912054 111.991515 
L 365.156392 111.991515 
z
" clip-path="url(#p30935db5de)" style="fill: #bc80bd; stroke: #000000; stroke-width: 0.8; stroke-linejoin: miter"/>
   </g>
   <g id="patch_53">
    <path d="M 373.912054 132.464 
L 382.667715 132.464 
L 382.667715 113.195779 
L 373.912054 113.195779 
z
" clip-path="url(#p30935db5de)" style="fill: #bc80bd; stroke: #000000; stroke-width: 0.8; stroke-linejoin: miter"/>
   </g>
   <g id="patch_54">
    <path d="M 382.667715 132.464 
L 391.423377 132.464 
L 391.423377 107.776591 
L 382.667715 107.776591 
z
" clip-path="url(#p30935db5de)" style="fill: #bc80bd; stroke: #000000; stroke-width: 0.8; stroke-linejoin: miter"/>
   </g>
   <g id="patch_55">
    <path d="M 391.423377 132.464 
L 400.179039 132.464 
L 400.179039 88.50837 
L 391.423377 88.50837 
z
" clip-path="url(#p30935db5de)" style="fill: #bc80bd; stroke: #000000; stroke-width: 0.8; stroke-linejoin: miter"/>
   </g>
   <g id="patch_56">
    <path d="M 400.179039 132.464 
L 408.934701 132.464 
L 408.934701 78.874259 
L 400.179039 78.874259 
z
" clip-path="url(#p30935db5de)" style="fill: #bc80bd; stroke: #000000; stroke-width: 0.8; stroke-linejoin: miter"/>
   </g>
   <g id="patch_57">
    <path d="M 408.934701 132.464 
L 417.690363 132.464 
L 417.690363 65.025225 
L 408.934701 65.025225 
z
" clip-path="url(#p30935db5de)" style="fill: #bc80bd; stroke: #000000; stroke-width: 0.8; stroke-linejoin: miter"/>
   </g>
   <g id="patch_58">
    <path d="M 417.690363 132.464 
L 426.446024 132.464 
L 426.446024 64.423093 
L 417.690363 64.423093 
z
" clip-path="url(#p30935db5de)" style="fill: #bc80bd; stroke: #000000; stroke-width: 0.8; stroke-linejoin: miter"/>
   </g>
   <g id="patch_59">
    <path d="M 426.446024 132.464 
L 435.201686 132.464 
L 435.201686 66.831621 
L 426.446024 66.831621 
z
" clip-path="url(#p30935db5de)" style="fill: #bc80bd; stroke: #000000; stroke-width: 0.8; stroke-linejoin: miter"/>
   </g>
   <g id="patch_60">
    <path d="M 435.201686 132.464 
L 443.957348 132.464 
L 443.957348 69.84228 
L 435.201686 69.84228 
z
" clip-path="url(#p30935db5de)" style="fill: #bc80bd; stroke: #000000; stroke-width: 0.8; stroke-linejoin: miter"/>
   </g>
   <g id="patch_61">
    <path d="M 443.957348 132.464 
L 452.71301 132.464 
L 452.71301 77.669995 
L 443.957348 77.669995 
z
" clip-path="url(#p30935db5de)" style="fill: #bc80bd; stroke: #000000; stroke-width: 0.8; stroke-linejoin: miter"/>
   </g>
   <g id="patch_62">
    <path d="M 452.71301 132.464 
L 461.468672 132.464 
L 461.468672 98.744612 
L 452.71301 98.744612 
z
" clip-path="url(#p30935db5de)" style="fill: #bc80bd; stroke: #000000; stroke-width: 0.8; stroke-linejoin: miter"/>
   </g>
   <g id="patch_63">
    <path d="M 461.468672 132.464 
L 470.224333 132.464 
L 470.224333 118.012834 
L 461.468672 118.012834 
z
" clip-path="url(#p30935db5de)" style="fill: #bc80bd; stroke: #000000; stroke-width: 0.8; stroke-linejoin: miter"/>
   </g>
   <g id="patch_64">
    <path d="M 470.224333 132.464 
L 478.979995 132.464 
L 478.979995 123.432021 
L 470.224333 123.432021 
z
" clip-path="url(#p30935db5de)" style="fill: #bc80bd; stroke: #000000; stroke-width: 0.8; stroke-linejoin: miter"/>
   </g>
   <g id="patch_65">
    <path d="M 478.979995 132.464 
L 487.735657 132.464 
L 487.735657 129.45334 
L 478.979995 129.45334 
z
" clip-path="url(#p30935db5de)" style="fill: #bc80bd; stroke: #000000; stroke-width: 0.8; stroke-linejoin: miter"/>
   </g>
   <g id="matplotlib.axis_3">
    <g id="xtick_6">
     <g id="line2d_9">
      <g>
       <use xlink:href="#m730cd3e1f6" x="315.72" y="132.464" style="fill: #323034; stroke: #323034; stroke-width: 0.8"/>
      </g>
     </g>
     <g id="text_10">
      <!-- $\mathdefault{−4}$ -->
      <g style="fill: #323034" transform="translate(306.2 150.3915) scale(0.16 -0.16)">
       <use xlink:href="#STIXGeneral-Regular-2212" transform="translate(0 0.40625)"/>
       <use xlink:href="#STIXGeneral-Regular-34" transform="translate(68.499985 0.40625)"/>
      </g>
     </g>
    </g>
    <g id="xtick_7">
     <g id="line2d_10">
      <g>
       <use xlink:href="#m730cd3e1f6" x="372.893755" y="132.464" style="fill: #323034; stroke: #323034; stroke-width: 0.8"/>
      </g>
     </g>
     <g id="text_11">
      <!-- $\mathdefault{−2}$ -->
      <g style="fill: #323034" transform="translate(363.373755 150.3915) scale(0.16 -0.16)">
       <use xlink:href="#STIXGeneral-Regular-2212" transform="translate(0 0.40625)"/>
       <use xlink:href="#STIXGeneral-Regular-32" transform="translate(68.499985 0.40625)"/>
      </g>
     </g>
    </g>
    <g id="xtick_8">
     <g id="line2d_11">
      <g>
       <use xlink:href="#m730cd3e1f6" x="430.067511" y="132.464" style="fill: #323034; stroke: #323034; stroke-width: 0.8"/>
      </g>
     </g>
     <g id="text_12">
      <!-- $\mathdefault{0}$ -->
      <g style="fill: #323034" transform="translate(426.067511 150.3915) scale(0.16 -0.16)">
       <use xlink:href="#STIXGeneral-Regular-30" transform="translate(0 0.40625)"/>
      </g>
     </g>
    </g>
    <g id="xtick_9">
     <g id="line2d_12">
      <g>
       <use xlink:href="#m730cd3e1f6" x="487.241266" y="132.464" style="fill: #323034; stroke: #323034; stroke-width: 0.8"/>
      </g>
     </g>
     <g id="text_13">
      <!-- $\mathdefault{2}$ -->
      <g style="fill: #323034" transform="translate(483.241266 150.3915) scale(0.16 -0.16)">
       <use xlink:href="#STIXGeneral-Regular-32" transform="translate(0 0.40625)"/>
      </g>
     </g>
    </g>
    <g id="xtick_10">
     <g id="line2d_13">
      <g>
       <use xlink:href="#m730cd3e1f6" x="544.415022" y="132.464" style="fill: #323034; stroke: #323034; stroke-width: 0.8"/>
      </g>
     </g>
     <g id="text_14">
      <!-- $\mathdefault{4}$ -->
      <g style="fill: #323034" transform="translate(540.415022 150.3915) scale(0.16 -0.16)">
       <use xlink:href="#STIXGeneral-Regular-34" transform="translate(0 0.40625)"/>
      </g>
     </g>
    </g>
   </g>
   <g id="matplotlib.axis_4">
    <g id="ytick_4">
     <g id="line2d_14">
      <g>
       <use xlink:href="#m33dd3f8640" x="315.72" y="132.464" style="fill: #323034; stroke: #323034; stroke-width: 0.8"/>
      </g>
     </g>
     <g id="text_15">
      <!-- $\mathdefault{0.0}$ -->
      <g style="fill: #323034" transform="translate(288.72 137.92775) scale(0.16 -0.16)">
       <use xlink:href="#STIXGeneral-Regular-30" transform="translate(0 0.40625)"/>
       <use xlink:href="#STIXGeneral-Regular-2e" transform="translate(49.999985 0.40625)"/>
       <use xlink:href="#STIXGeneral-Regular-30" transform="translate(74.999969 0.40625)"/>
      </g>
     </g>
    </g>
    <g id="ytick_5">
     <g id="line2d_15">
      <g>
       <use xlink:href="#m33dd3f8640" x="315.72" y="95.5795" style="fill: #323034; stroke: #323034; stroke-width: 0.8"/>
      </g>
     </g>
     <g id="text_16">
      <!-- $\mathdefault{0.2}$ -->
      <g style="fill: #323034" transform="translate(288.72 101.04325) scale(0.16 -0.16)">
       <use xlink:href="#STIXGeneral-Regular-30" transform="translate(0 0.40625)"/>
       <use xlink:href="#STIXGeneral-Regular-2e" transform="translate(49.999985 0.40625)"/>
       <use xlink:href="#STIXGeneral-Regular-32" transform="translate(74.999969 0.40625)"/>
      </g>
     </g>
    </g>
    <g id="ytick_6">
     <g id="line2d_16">
      <g>
       <use xlink:href="#m33dd3f8640" x="315.72" y="58.695" style="fill: #323034; stroke: #323034; stroke-width: 0.8"/>
      </g>
     </g>
     <g id="text_17">
      <!-- $\mathdefault{0.4}$ -->
      <g style="fill: #323034" transform="translate(288.72 64.15875) scale(0.16 -0.16)">
       <use xlink:href="#STIXGeneral-Regular-30" transform="translate(0 0.40625)"/>
       <use xlink:href="#STIXGeneral-Regular-2e" transform="translate(49.999985 0.40625)"/>
       <use xlink:href="#STIXGeneral-Regular-34" transform="translate(74.999969 0.40625)"/>
      </g>
     </g>
    </g>
   </g>
   <g id="line2d_17">
    <path d="M 287.133122 132.272923 
L 290.020686 132.216777 
L 292.908249 132.146037 
L 295.795812 132.05749 
L 298.683376 131.94738 
L 301.570939 131.811355 
L 304.458503 131.644423 
L 307.346066 131.440923 
L 310.23363 131.194499 
L 313.121193 130.8981 
L 316.008756 130.544 
L 318.89632 130.123845 
L 321.783883 129.628731 
L 324.671447 129.049319 
L 327.55901 128.375987 
L 330.446573 127.599026 
L 333.334137 126.708872 
L 336.2217 125.696384 
L 339.109264 124.55316 
L 341.996827 123.271879 
L 344.88439 121.846677 
L 347.771954 120.273526 
L 350.659517 118.550631 
L 353.547081 116.678794 
L 356.434644 114.66177 
L 359.322207 112.506563 
L 362.209771 110.223665 
L 365.097334 107.827211 
L 367.984898 105.335044 
L 370.872461 102.768662 
L 373.760025 100.153054 
L 376.647588 97.516406 
L 379.535151 94.889682 
L 382.422715 92.306088 
L 385.310278 89.800414 
L 388.197842 87.408294 
L 391.085405 85.165383 
L 393.972968 83.106483 
L 396.860532 81.26466 
L 399.748095 79.670356 
L 402.635659 78.350563 
L 405.523222 77.328057 
L 408.410785 76.620748 
L 411.298349 76.241156 
L 414.185912 76.196046 
L 417.073476 76.486224 
L 419.961039 77.106513 
L 422.848602 78.045908 
L 425.736166 79.287904 
L 428.623729 80.81097 
L 431.511293 82.589177 
L 434.398856 84.59293 
L 437.28642 86.789783 
L 440.173983 89.145312 
L 443.061546 91.624004 
L 445.94911 94.190137 
L 448.836673 96.808617 
L 451.724237 99.445745 
L 454.6118 102.069896 
L 457.499363 104.652092 
L 460.386927 107.166452 
L 463.27449 109.590518 
L 466.162054 111.905457 
L 469.049617 114.096138 
L 471.93718 116.151104 
L 474.824744 118.062433 
L 477.712307 119.825526 
L 480.599871 121.438819 
L 483.487434 122.903446 
L 486.374997 124.222874 
L 489.262561 125.402511 
L 492.150124 126.449324 
L 495.037688 127.371461 
L 497.925251 128.177896 
L 500.812815 128.878108 
L 503.700378 129.481791 
L 506.587941 129.998614 
L 509.475505 130.438006 
L 512.363068 130.809002 
L 515.250632 131.120112 
L 518.138195 131.379237 
L 521.025758 131.593612 
L 523.913322 131.76978 
L 526.800885 131.913588 
L 529.688449 132.030205 
L 532.576012 132.12415 
L 535.463575 132.199335 
L 538.351139 132.259114 
L 541.238702 132.306336 
L 544.126266 132.343396 
L 547.013829 132.372295 
L 549.901392 132.394684 
L 552.788956 132.411919 
L 555.676519 132.425101 
L 556.615022 132.428358 
" clip-path="url(#p30935db5de)" style="fill: none; stroke: #fb8072; stroke-opacity: 0.9; stroke-width: 2; stroke-linecap: square"/>
   </g>
   <g id="patch_66">
    <path d="M 315.72 132.464 
L 315.72 58.695 
" style="fill: none; stroke: #000000; stroke-width: 0.6; stroke-linejoin: miter; stroke-linecap: square"/>
   </g>
   <g id="patch_67">
    <path d="M 315.72 132.464 
L 544.415022 132.464 
" style="fill: none; stroke: #000000; stroke-width: 0.6; stroke-linejoin: miter; stroke-linecap: square"/>
   </g>
   <g id="text_18">
    <!-- $\lambda =$0 -->
    <g style="fill: #323034" transform="translate(315.72 52.695) scale(0.12 -0.12)">
     <defs>
      <path id="STIXGeneral-Italic-3bb" d="M 2656 787 
L 2758 787 
Q 2560 -102 2112 -102 
Q 1965 -102 1869 48 
Q 1773 198 1773 499 
Q 1773 672 1789 889 
Q 1805 1107 1833 1446 
Q 1862 1786 1875 2016 
L 538 0 
L -77 0 
L 1907 2739 
Q 1933 2970 1933 3245 
Q 1933 3936 1619 3936 
Q 1530 3936 1408 3821 
Q 1286 3706 1203 3462 
L 1101 3462 
Q 1312 4339 1747 4339 
Q 1926 4339 2041 4115 
Q 2157 3891 2157 3475 
Q 2157 3040 2093 2192 
Q 2029 1344 2029 941 
Q 2029 602 2089 451 
Q 2150 301 2291 301 
Q 2483 301 2656 787 
z
" transform="scale(0.015625)"/>
      <path id="STIXGeneral-Regular-3d" d="M 4077 2048 
L 307 2048 
L 307 2470 
L 4077 2470 
L 4077 2048 
z
M 4077 768 
L 307 768 
L 307 1190 
L 4077 1190 
L 4077 768 
z
" transform="scale(0.015625)"/>
     </defs>
     <use xlink:href="#STIXGeneral-Italic-3bb" transform="translate(0 0.203125)"/>
     <use xlink:href="#STIXGeneral-Regular-3d" transform="translate(60.239984 0.203125)"/>
     <use xlink:href="#STIXGeneral-Regular-30" transform="translate(143.179965 0.203125)"/>
    </g>
   </g>
  </g>
  <g id="axes_3">
   <g id="patch_68">
    <path d="M 34.2 255.3725 
L 262.895022 255.3725 
L 262.895022 181.6035 
L 34.2 181.6035 
z
" style="fill: #ffffff"/>
   </g>
   <g id="patch_69">
    <path d="M 101.547437 255.3725 
L 106.853822 255.3725 
L 106.853822 230.203022 
L 101.547437 230.203022 
z
" clip-path="url(#p719b247a73)" style="fill: #bc80bd; stroke: #000000; stroke-width: 0.8; stroke-linejoin: miter"/>
   </g>
   <g id="patch_70">
    <path d="M 106.853822 255.3725 
L 112.160207 255.3725 
L 112.160207 217.618283 
L 106.853822 217.618283 
z
" clip-path="url(#p719b247a73)" style="fill: #bc80bd; stroke: #000000; stroke-width: 0.8; stroke-linejoin: miter"/>
   </g>
   <g id="patch_71">
    <path d="M 112.160207 255.3725 
L 117.466592 255.3725 
L 117.466592 218.280638 
L 112.160207 218.280638 
z
" clip-path="url(#p719b247a73)" style="fill: #bc80bd; stroke: #000000; stroke-width: 0.8; stroke-linejoin: miter"/>
   </g>
   <g id="patch_72">
    <path d="M 117.466592 255.3725 
L 122.772977 255.3725 
L 122.772977 205.695899 
L 117.466592 205.695899 
z
" clip-path="url(#p719b247a73)" style="fill: #bc80bd; stroke: #000000; stroke-width: 0.8; stroke-linejoin: miter"/>
   </g>
   <g id="patch_73">
    <path d="M 122.772977 255.3725 
L 128.079362 255.3725 
L 128.079362 199.734707 
L 122.772977 199.734707 
z
" clip-path="url(#p719b247a73)" style="fill: #bc80bd; stroke: #000000; stroke-width: 0.8; stroke-linejoin: miter"/>
   </g>
   <g id="patch_74">
    <path d="M 128.079362 255.3725 
L 133.385747 255.3725 
L 133.385747 189.137032 
L 128.079362 189.137032 
z
" clip-path="url(#p719b247a73)" style="fill: #bc80bd; stroke: #000000; stroke-width: 0.8; stroke-linejoin: miter"/>
   </g>
   <g id="patch_75">
    <path d="M 133.385747 255.3725 
L 138.692132 255.3725 
L 138.692132 195.760579 
L 133.385747 195.760579 
z
" clip-path="url(#p719b247a73)" style="fill: #bc80bd; stroke: #000000; stroke-width: 0.8; stroke-linejoin: miter"/>
   </g>
   <g id="patch_76">
    <path d="M 138.692132 255.3725 
L 143.998517 255.3725 
L 143.998517 204.37119 
L 138.692132 204.37119 
z
" clip-path="url(#p719b247a73)" style="fill: #bc80bd; stroke: #000000; stroke-width: 0.8; stroke-linejoin: miter"/>
   </g>
   <g id="patch_77">
    <path d="M 143.998517 255.3725 
L 149.304903 255.3725 
L 149.304903 203.046481 
L 143.998517 203.046481 
z
" clip-path="url(#p719b247a73)" style="fill: #bc80bd; stroke: #000000; stroke-width: 0.8; stroke-linejoin: miter"/>
   </g>
   <g id="patch_78">
    <path d="M 149.304903 255.3725 
L 154.611288 255.3725 
L 154.611288 218.280638 
L 149.304903 218.280638 
z
" clip-path="url(#p719b247a73)" style="fill: #bc80bd; stroke: #000000; stroke-width: 0.8; stroke-linejoin: miter"/>
   </g>
   <g id="patch_79">
    <path d="M 154.611288 255.3725 
L 159.917673 255.3725 
L 159.917673 214.30651 
L 154.611288 214.30651 
z
" clip-path="url(#p719b247a73)" style="fill: #bc80bd; stroke: #000000; stroke-width: 0.8; stroke-linejoin: miter"/>
   </g>
   <g id="patch_80">
    <path d="M 159.917673 255.3725 
L 165.224058 255.3725 
L 165.224058 229.540668 
L 159.917673 229.540668 
z
" clip-path="url(#p719b247a73)" style="fill: #bc80bd; stroke: #000000; stroke-width: 0.8; stroke-linejoin: miter"/>
   </g>
   <g id="patch_81">
    <path d="M 165.224058 255.3725 
L 170.530443 255.3725 
L 170.530443 234.839505 
L 165.224058 234.839505 
z
" clip-path="url(#p719b247a73)" style="fill: #bc80bd; stroke: #000000; stroke-width: 0.8; stroke-linejoin: miter"/>
   </g>
   <g id="patch_82">
    <path d="M 170.530443 255.3725 
L 175.836828 255.3725 
L 175.836828 228.215958 
L 170.530443 228.215958 
z
" clip-path="url(#p719b247a73)" style="fill: #bc80bd; stroke: #000000; stroke-width: 0.8; stroke-linejoin: miter"/>
   </g>
   <g id="patch_83">
    <path d="M 175.836828 255.3725 
L 181.143213 255.3725 
L 181.143213 233.514796 
L 175.836828 233.514796 
z
" clip-path="url(#p719b247a73)" style="fill: #bc80bd; stroke: #000000; stroke-width: 0.8; stroke-linejoin: miter"/>
   </g>
   <g id="patch_84">
    <path d="M 181.143213 255.3725 
L 186.449598 255.3725 
L 186.449598 240.800697 
L 181.143213 240.800697 
z
" clip-path="url(#p719b247a73)" style="fill: #bc80bd; stroke: #000000; stroke-width: 0.8; stroke-linejoin: miter"/>
   </g>
   <g id="patch_85">
    <path d="M 186.449598 255.3725 
L 191.755983 255.3725 
L 191.755983 245.43718 
L 186.449598 245.43718 
z
" clip-path="url(#p719b247a73)" style="fill: #bc80bd; stroke: #000000; stroke-width: 0.8; stroke-linejoin: miter"/>
   </g>
   <g id="patch_86">
    <path d="M 191.755983 255.3725 
L 197.062368 255.3725 
L 197.062368 250.073663 
L 191.755983 250.073663 
z
" clip-path="url(#p719b247a73)" style="fill: #bc80bd; stroke: #000000; stroke-width: 0.8; stroke-linejoin: miter"/>
   </g>
   <g id="patch_87">
    <path d="M 197.062368 255.3725 
L 202.368753 255.3725 
L 202.368753 250.073663 
L 197.062368 250.073663 
z
" clip-path="url(#p719b247a73)" style="fill: #bc80bd; stroke: #000000; stroke-width: 0.8; stroke-linejoin: miter"/>
   </g>
   <g id="patch_88">
    <path d="M 202.368753 255.3725 
L 207.675138 255.3725 
L 207.675138 252.060727 
L 202.368753 252.060727 
z
" clip-path="url(#p719b247a73)" style="fill: #bc80bd; stroke: #000000; stroke-width: 0.8; stroke-linejoin: miter"/>
   </g>
   <g id="patch_89">
    <path d="M 207.675138 255.3725 
L 212.981524 255.3725 
L 212.981524 250.736017 
L 207.675138 250.736017 
z
" clip-path="url(#p719b247a73)" style="fill: #bc80bd; stroke: #000000; stroke-width: 0.8; stroke-linejoin: miter"/>
   </g>
   <g id="patch_90">
    <path d="M 212.981524 255.3725 
L 218.287909 255.3725 
L 218.287909 252.723081 
L 212.981524 252.723081 
z
" clip-path="url(#p719b247a73)" style="fill: #bc80bd; stroke: #000000; stroke-width: 0.8; stroke-linejoin: miter"/>
   </g>
   <g id="patch_91">
    <path d="M 218.287909 255.3725 
L 223.594294 255.3725 
L 223.594294 253.385436 
L 218.287909 253.385436 
z
" clip-path="url(#p719b247a73)" style="fill: #bc80bd; stroke: #000000; stroke-width: 0.8; stroke-linejoin: miter"/>
   </g>
   <g id="patch_92">
    <path d="M 223.594294 255.3725 
L 228.900679 255.3725 
L 228.900679 254.047791 
L 223.594294 254.047791 
z
" clip-path="url(#p719b247a73)" style="fill: #bc80bd; stroke: #000000; stroke-width: 0.8; stroke-linejoin: miter"/>
   </g>
   <g id="patch_93">
    <path d="M 228.900679 255.3725 
L 234.207064 255.3725 
L 234.207064 253.385436 
L 228.900679 253.385436 
z
" clip-path="url(#p719b247a73)" style="fill: #bc80bd; stroke: #000000; stroke-width: 0.8; stroke-linejoin: miter"/>
   </g>
   <g id="patch_94">
    <path d="M 234.207064 255.3725 
L 239.513449 255.3725 
L 239.513449 253.385436 
L 234.207064 253.385436 
z
" clip-path="url(#p719b247a73)" style="fill: #bc80bd; stroke: #000000; stroke-width: 0.8; stroke-linejoin: miter"/>
   </g>
   <g id="patch_95">
    <path d="M 239.513449 255.3725 
L 244.819834 255.3725 
L 244.819834 254.710145 
L 239.513449 254.710145 
z
" clip-path="url(#p719b247a73)" style="fill: #bc80bd; stroke: #000000; stroke-width: 0.8; stroke-linejoin: miter"/>
   </g>
   <g id="patch_96">
    <path d="M 244.819834 255.3725 
L 250.126219 255.3725 
L 250.126219 255.3725 
L 244.819834 255.3725 
z
" clip-path="url(#p719b247a73)" style="fill: #bc80bd; stroke: #000000; stroke-width: 0.8; stroke-linejoin: miter"/>
   </g>
   <g id="patch_97">
    <path d="M 250.126219 255.3725 
L 255.432604 255.3725 
L 255.432604 255.3725 
L 250.126219 255.3725 
z
" clip-path="url(#p719b247a73)" style="fill: #bc80bd; stroke: #000000; stroke-width: 0.8; stroke-linejoin: miter"/>
   </g>
   <g id="patch_98">
    <path d="M 255.432604 255.3725 
L 260.738989 255.3725 
L 260.738989 254.710145 
L 255.432604 254.710145 
z
" clip-path="url(#p719b247a73)" style="fill: #bc80bd; stroke: #000000; stroke-width: 0.8; stroke-linejoin: miter"/>
   </g>
   <g id="matplotlib.axis_5">
    <g id="xtick_11">
     <g id="line2d_18">
      <g>
       <use xlink:href="#m730cd3e1f6" x="34.2" y="255.3725" style="fill: #323034; stroke: #323034; stroke-width: 0.8"/>
      </g>
     </g>
     <g id="text_19">
      <!-- $\mathdefault{−4}$ -->
      <g style="fill: #323034" transform="translate(24.68 273.3) scale(0.16 -0.16)">
       <use xlink:href="#STIXGeneral-Regular-2212" transform="translate(0 0.40625)"/>
       <use xlink:href="#STIXGeneral-Regular-34" transform="translate(68.499985 0.40625)"/>
      </g>
     </g>
    </g>
    <g id="xtick_12">
     <g id="line2d_19">
      <g>
       <use xlink:href="#m730cd3e1f6" x="91.373755" y="255.3725" style="fill: #323034; stroke: #323034; stroke-width: 0.8"/>
      </g>
     </g>
     <g id="text_20">
      <!-- $\mathdefault{−2}$ -->
      <g style="fill: #323034" transform="translate(81.853755 273.3) scale(0.16 -0.16)">
       <use xlink:href="#STIXGeneral-Regular-2212" transform="translate(0 0.40625)"/>
       <use xlink:href="#STIXGeneral-Regular-32" transform="translate(68.499985 0.40625)"/>
      </g>
     </g>
    </g>
    <g id="xtick_13">
     <g id="line2d_20">
      <g>
       <use xlink:href="#m730cd3e1f6" x="148.547511" y="255.3725" style="fill: #323034; stroke: #323034; stroke-width: 0.8"/>
      </g>
     </g>
     <g id="text_21">
      <!-- $\mathdefault{0}$ -->
      <g style="fill: #323034" transform="translate(144.547511 273.3) scale(0.16 -0.16)">
       <use xlink:href="#STIXGeneral-Regular-30" transform="translate(0 0.40625)"/>
      </g>
     </g>
    </g>
    <g id="xtick_14">
     <g id="line2d_21">
      <g>
       <use xlink:href="#m730cd3e1f6" x="205.721266" y="255.3725" style="fill: #323034; stroke: #323034; stroke-width: 0.8"/>
      </g>
     </g>
     <g id="text_22">
      <!-- $\mathdefault{2}$ -->
      <g style="fill: #323034" transform="translate(201.721266 273.3) scale(0.16 -0.16)">
       <use xlink:href="#STIXGeneral-Regular-32" transform="translate(0 0.40625)"/>
      </g>
     </g>
    </g>
    <g id="xtick_15">
     <g id="line2d_22">
      <g>
       <use xlink:href="#m730cd3e1f6" x="262.895022" y="255.3725" style="fill: #323034; stroke: #323034; stroke-width: 0.8"/>
      </g>
     </g>
     <g id="text_23">
      <!-- $\mathdefault{4}$ -->
      <g style="fill: #323034" transform="translate(258.895022 273.3) scale(0.16 -0.16)">
       <use xlink:href="#STIXGeneral-Regular-34" transform="translate(0 0.40625)"/>
      </g>
     </g>
    </g>
   </g>
   <g id="matplotlib.axis_6">
    <g id="ytick_7">
     <g id="line2d_23">
      <g>
       <use xlink:href="#m33dd3f8640" x="34.2" y="255.3725" style="fill: #323034; stroke: #323034; stroke-width: 0.8"/>
      </g>
     </g>
     <g id="text_24">
      <!-- $\mathdefault{0.0}$ -->
      <g style="fill: #323034" transform="translate(7.2 260.83625) scale(0.16 -0.16)">
       <use xlink:href="#STIXGeneral-Regular-30" transform="translate(0 0.40625)"/>
       <use xlink:href="#STIXGeneral-Regular-2e" transform="translate(49.999985 0.40625)"/>
       <use xlink:href="#STIXGeneral-Regular-30" transform="translate(74.999969 0.40625)"/>
      </g>
     </g>
    </g>
    <g id="ytick_8">
     <g id="line2d_24">
      <g>
       <use xlink:href="#m33dd3f8640" x="34.2" y="193.898333" style="fill: #323034; stroke: #323034; stroke-width: 0.8"/>
      </g>
     </g>
     <g id="text_25">
      <!-- $\mathdefault{0.5}$ -->
      <g style="fill: #323034" transform="translate(7.2 199.362083) scale(0.16 -0.16)">
       <use xlink:href="#STIXGeneral-Regular-30" transform="translate(0 0.203125)"/>
       <use xlink:href="#STIXGeneral-Regular-2e" transform="translate(49.999985 0.203125)"/>
       <use xlink:href="#STIXGeneral-Regular-35" transform="translate(74.999969 0.203125)"/>
      </g>
     </g>
    </g>
   </g>
   <g id="line2d_25">
    <path d="M 5.613122 255.372455 
L 8.500686 255.37242 
L 11.388249 255.372358 
L 14.275812 255.372253 
L 17.163376 255.372074 
L 20.050939 255.371775 
L 22.938503 255.37128 
L 25.826066 255.370474 
L 28.71363 255.369177 
L 31.601193 255.367115 
L 34.488756 255.36388 
L 37.37632 255.358873 
L 40.263883 255.351219 
L 43.151447 255.339675 
L 46.03901 255.322489 
L 48.926573 255.297237 
L 51.814137 255.260623 
L 54.7017 255.208234 
L 57.589264 255.134268 
L 60.476827 255.031228 
L 63.36439 254.88961 
L 66.251954 254.697597 
L 69.139517 254.440787 
L 72.027081 254.102015 
L 74.914644 253.661288 
L 77.802207 253.09591 
L 80.689771 252.380837 
L 83.577334 251.489321 
L 86.464898 250.393881 
L 89.352461 249.067613 
L 92.240025 247.485852 
L 95.127588 245.628115 
L 98.015151 243.480271 
L 100.902715 241.0368 
L 103.790278 238.302977 
L 106.677842 235.296801 
L 109.565405 232.050446 
L 112.452968 228.611044 
L 115.340532 225.040608 
L 118.228095 221.41497 
L 121.115659 217.821672 
L 124.003222 214.356835 
L 126.890785 211.121119 
L 129.778349 208.215005 
L 132.665912 205.733681 
L 135.553476 203.76189 
L 138.441039 202.369145 
L 141.328602 201.605655 
L 144.216166 201.499325 
L 147.103729 202.054062 
L 149.991293 203.249538 
L 152.878856 205.042425 
L 155.76642 207.369001 
L 158.653983 210.148909 
L 161.541546 213.28976 
L 164.42911 216.692202 
L 167.316673 220.255094 
L 170.204237 223.880382 
L 173.0918 227.477386 
L 175.979363 230.96624 
L 178.866927 234.280335 
L 181.75449 237.367717 
L 184.642054 240.191462 
L 187.529617 242.729159 
L 190.41718 244.971644 
L 193.304744 246.921208 
L 196.192307 248.589466 
L 199.079871 249.995108 
L 201.967434 251.161685 
L 204.854997 252.115577 
L 207.742561 252.88424 
L 210.630124 253.494781 
L 213.517688 253.972872 
L 216.405251 254.342016 
L 219.292815 254.623095 
L 222.180378 254.834182 
L 225.067941 254.990549 
L 227.955505 255.104815 
L 230.843068 255.187195 
L 233.730632 255.245794 
L 236.618195 255.286924 
L 239.505758 255.315411 
L 242.393322 255.334881 
L 245.280885 255.348015 
L 248.168449 255.356758 
L 251.056012 255.362504 
L 253.943575 255.36623 
L 256.831139 255.368615 
L 259.718702 255.370123 
L 262.606266 255.371063 
L 265.493829 255.371642 
L 268.381392 255.371994 
L 271.268956 255.372205 
L 274.156519 255.37233 
L 277.044083 255.372404 
L 279.931646 255.372446 
L 282.819209 255.37247 
L 285.706773 255.372484 
L 288.594336 255.372491 
L 291.4819 255.372495 
" clip-path="url(#p719b247a73)" style="fill: none; stroke: #fb8072; stroke-opacity: 0.9; stroke-width: 2; stroke-linecap: square"/>
   </g>
   <g id="patch_99">
    <path d="M 34.2 255.3725 
L 34.2 181.6035 
" style="fill: none; stroke: #000000; stroke-width: 0.6; stroke-linejoin: miter; stroke-linecap: square"/>
   </g>
   <g id="patch_100">
    <path d="M 34.2 255.3725 
L 262.895022 255.3725 
" style="fill: none; stroke: #000000; stroke-width: 0.6; stroke-linejoin: miter; stroke-linecap: square"/>
   </g>
   <g id="text_26">
    <!-- $\lambda =$0.6 -->
    <g style="fill: #323034" transform="translate(34.2 175.6035) scale(0.12 -0.12)">
     <defs>
      <path id="STIXGeneral-Regular-36" d="M 2854 4378 
L 2867 4275 
Q 2112 4154 1606 3664 
Q 1101 3174 973 2451 
Q 1344 2739 1786 2739 
Q 2349 2739 2672 2380 
Q 2995 2022 2995 1402 
Q 2995 774 2669 378 
Q 2291 -90 1651 -90 
Q 870 -90 518 557 
Q 218 1107 218 1786 
Q 218 2835 915 3552 
Q 1312 3962 1731 4131 
Q 2150 4301 2854 4378 
z
M 2419 1203 
Q 2419 2445 1555 2445 
Q 1235 2445 1024 2275 
Q 813 2106 813 1702 
Q 813 954 1046 522 
Q 1280 90 1722 90 
Q 2061 90 2240 394 
Q 2419 698 2419 1203 
z
" transform="scale(0.015625)"/>
     </defs>
     <use xlink:href="#STIXGeneral-Italic-3bb" transform="translate(0 0.59375)"/>
     <use xlink:href="#STIXGeneral-Regular-3d" transform="translate(60.239984 0.59375)"/>
     <use xlink:href="#STIXGeneral-Regular-30" transform="translate(143.179965 0.59375)"/>
     <use xlink:href="#STIXGeneral-Regular-2e" transform="translate(193.17995 0.59375)"/>
     <use xlink:href="#STIXGeneral-Regular-36" transform="translate(218.179935 0.59375)"/>
    </g>
   </g>
  </g>
  <g id="axes_4">
   <g id="patch_101">
    <path d="M 315.72 255.3725 
L 544.415022 255.3725 
L 544.415022 181.6035 
L 315.72 181.6035 
z
" style="fill: #ffffff"/>
   </g>
   <g id="patch_102">
    <path d="M 342.076714 255.3725 
L 347.598582 255.3725 
L 347.598582 253.462978 
L 342.076714 253.462978 
z
" clip-path="url(#p78a6fa470d)" style="fill: #bc80bd; stroke: #000000; stroke-width: 0.8; stroke-linejoin: miter"/>
   </g>
   <g id="patch_103">
    <path d="M 347.598582 255.3725 
L 353.12045 255.3725 
L 353.12045 251.553457 
L 347.598582 251.553457 
z
" clip-path="url(#p78a6fa470d)" style="fill: #bc80bd; stroke: #000000; stroke-width: 0.8; stroke-linejoin: miter"/>
   </g>
   <g id="patch_104">
    <path d="M 353.12045 255.3725 
L 358.642318 255.3725 
L 358.642318 248.37092 
L 353.12045 248.37092 
z
" clip-path="url(#p78a6fa470d)" style="fill: #bc80bd; stroke: #000000; stroke-width: 0.8; stroke-linejoin: miter"/>
   </g>
   <g id="patch_105">
    <path d="M 358.642318 255.3725 
L 364.164186 255.3725 
L 364.164186 247.734413 
L 358.642318 247.734413 
z
" clip-path="url(#p78a6fa470d)" style="fill: #bc80bd; stroke: #000000; stroke-width: 0.8; stroke-linejoin: miter"/>
   </g>
   <g id="patch_106">
    <path d="M 364.164186 255.3725 
L 369.686054 255.3725 
L 369.686054 246.461399 
L 364.164186 246.461399 
z
" clip-path="url(#p78a6fa470d)" style="fill: #bc80bd; stroke: #000000; stroke-width: 0.8; stroke-linejoin: miter"/>
   </g>
   <g id="patch_107">
    <path d="M 369.686054 255.3725 
L 375.207923 255.3725 
L 375.207923 241.369341 
L 369.686054 241.369341 
z
" clip-path="url(#p78a6fa470d)" style="fill: #bc80bd; stroke: #000000; stroke-width: 0.8; stroke-linejoin: miter"/>
   </g>
   <g id="patch_108">
    <path d="M 375.207923 255.3725 
L 380.729791 255.3725 
L 380.729791 236.277283 
L 375.207923 236.277283 
z
" clip-path="url(#p78a6fa470d)" style="fill: #bc80bd; stroke: #000000; stroke-width: 0.8; stroke-linejoin: miter"/>
   </g>
   <g id="patch_109">
    <path d="M 380.729791 255.3725 
L 386.251659 255.3725 
L 386.251659 236.277283 
L 380.729791 236.277283 
z
" clip-path="url(#p78a6fa470d)" style="fill: #bc80bd; stroke: #000000; stroke-width: 0.8; stroke-linejoin: miter"/>
   </g>
   <g id="patch_110">
    <path d="M 386.251659 255.3725 
L 391.773527 255.3725 
L 391.773527 230.548718 
L 386.251659 230.548718 
z
" clip-path="url(#p78a6fa470d)" style="fill: #bc80bd; stroke: #000000; stroke-width: 0.8; stroke-linejoin: miter"/>
   </g>
   <g id="patch_111">
    <path d="M 391.773527 255.3725 
L 397.295395 255.3725 
L 397.295395 232.45824 
L 391.773527 232.45824 
z
" clip-path="url(#p78a6fa470d)" style="fill: #bc80bd; stroke: #000000; stroke-width: 0.8; stroke-linejoin: miter"/>
   </g>
   <g id="patch_112">
    <path d="M 397.295395 255.3725 
L 402.817263 255.3725 
L 402.817263 215.272545 
L 397.295395 215.272545 
z
" clip-path="url(#p78a6fa470d)" style="fill: #bc80bd; stroke: #000000; stroke-width: 0.8; stroke-linejoin: miter"/>
   </g>
   <g id="patch_113">
    <path d="M 402.817263 255.3725 
L 408.339131 255.3725 
L 408.339131 213.363023 
L 402.817263 213.363023 
z
" clip-path="url(#p78a6fa470d)" style="fill: #bc80bd; stroke: #000000; stroke-width: 0.8; stroke-linejoin: miter"/>
   </g>
   <g id="patch_114">
    <path d="M 408.339131 255.3725 
L 413.860999 255.3725 
L 413.860999 201.269386 
L 408.339131 201.269386 
z
" clip-path="url(#p78a6fa470d)" style="fill: #bc80bd; stroke: #000000; stroke-width: 0.8; stroke-linejoin: miter"/>
   </g>
   <g id="patch_115">
    <path d="M 413.860999 255.3725 
L 419.382867 255.3725 
L 419.382867 205.724936 
L 413.860999 205.724936 
z
" clip-path="url(#p78a6fa470d)" style="fill: #bc80bd; stroke: #000000; stroke-width: 0.8; stroke-linejoin: miter"/>
   </g>
   <g id="patch_116">
    <path d="M 419.382867 255.3725 
L 424.904736 255.3725 
L 424.904736 208.907472 
L 419.382867 208.907472 
z
" clip-path="url(#p78a6fa470d)" style="fill: #bc80bd; stroke: #000000; stroke-width: 0.8; stroke-linejoin: miter"/>
   </g>
   <g id="patch_117">
    <path d="M 424.904736 255.3725 
L 430.426604 255.3725 
L 430.426604 203.815414 
L 424.904736 203.815414 
z
" clip-path="url(#p78a6fa470d)" style="fill: #bc80bd; stroke: #000000; stroke-width: 0.8; stroke-linejoin: miter"/>
   </g>
   <g id="patch_118">
    <path d="M 430.426604 255.3725 
L 435.948472 255.3725 
L 435.948472 215.272545 
L 430.426604 215.272545 
z
" clip-path="url(#p78a6fa470d)" style="fill: #bc80bd; stroke: #000000; stroke-width: 0.8; stroke-linejoin: miter"/>
   </g>
   <g id="patch_119">
    <path d="M 435.948472 255.3725 
L 441.47034 255.3725 
L 441.47034 213.363023 
L 435.948472 213.363023 
z
" clip-path="url(#p78a6fa470d)" style="fill: #bc80bd; stroke: #000000; stroke-width: 0.8; stroke-linejoin: miter"/>
   </g>
   <g id="patch_120">
    <path d="M 441.47034 255.3725 
L 446.992208 255.3725 
L 446.992208 227.366182 
L 441.47034 227.366182 
z
" clip-path="url(#p78a6fa470d)" style="fill: #bc80bd; stroke: #000000; stroke-width: 0.8; stroke-linejoin: miter"/>
   </g>
   <g id="patch_121">
    <path d="M 446.992208 255.3725 
L 452.514076 255.3725 
L 452.514076 226.093167 
L 446.992208 226.093167 
z
" clip-path="url(#p78a6fa470d)" style="fill: #bc80bd; stroke: #000000; stroke-width: 0.8; stroke-linejoin: miter"/>
   </g>
   <g id="patch_122">
    <path d="M 452.514076 255.3725 
L 458.035944 255.3725 
L 458.035944 224.183646 
L 452.514076 224.183646 
z
" clip-path="url(#p78a6fa470d)" style="fill: #bc80bd; stroke: #000000; stroke-width: 0.8; stroke-linejoin: miter"/>
   </g>
   <g id="patch_123">
    <path d="M 458.035944 255.3725 
L 463.557812 255.3725 
L 463.557812 238.186805 
L 458.035944 238.186805 
z
" clip-path="url(#p78a6fa470d)" style="fill: #bc80bd; stroke: #000000; stroke-width: 0.8; stroke-linejoin: miter"/>
   </g>
   <g id="patch_124">
    <path d="M 463.557812 255.3725 
L 469.079681 255.3725 
L 469.079681 245.824892 
L 463.557812 245.824892 
z
" clip-path="url(#p78a6fa470d)" style="fill: #bc80bd; stroke: #000000; stroke-width: 0.8; stroke-linejoin: miter"/>
   </g>
   <g id="patch_125">
    <path d="M 469.079681 255.3725 
L 474.601549 255.3725 
L 474.601549 246.461399 
L 469.079681 246.461399 
z
" clip-path="url(#p78a6fa470d)" style="fill: #bc80bd; stroke: #000000; stroke-width: 0.8; stroke-linejoin: miter"/>
   </g>
   <g id="patch_126">
    <path d="M 474.601549 255.3725 
L 480.123417 255.3725 
L 480.123417 249.643935 
L 474.601549 249.643935 
z
" clip-path="url(#p78a6fa470d)" style="fill: #bc80bd; stroke: #000000; stroke-width: 0.8; stroke-linejoin: miter"/>
   </g>
   <g id="patch_127">
    <path d="M 480.123417 255.3725 
L 485.645285 255.3725 
L 485.645285 250.916949 
L 480.123417 250.916949 
z
" clip-path="url(#p78a6fa470d)" style="fill: #bc80bd; stroke: #000000; stroke-width: 0.8; stroke-linejoin: miter"/>
   </g>
   <g id="patch_128">
    <path d="M 485.645285 255.3725 
L 491.167153 255.3725 
L 491.167153 253.462978 
L 485.645285 253.462978 
z
" clip-path="url(#p78a6fa470d)" style="fill: #bc80bd; stroke: #000000; stroke-width: 0.8; stroke-linejoin: miter"/>
   </g>
   <g id="patch_129">
    <path d="M 491.167153 255.3725 
L 496.689021 255.3725 
L 496.689021 251.553457 
L 491.167153 251.553457 
z
" clip-path="url(#p78a6fa470d)" style="fill: #bc80bd; stroke: #000000; stroke-width: 0.8; stroke-linejoin: miter"/>
   </g>
   <g id="patch_130">
    <path d="M 496.689021 255.3725 
L 502.210889 255.3725 
L 502.210889 254.735993 
L 496.689021 254.735993 
z
" clip-path="url(#p78a6fa470d)" style="fill: #bc80bd; stroke: #000000; stroke-width: 0.8; stroke-linejoin: miter"/>
   </g>
   <g id="patch_131">
    <path d="M 502.210889 255.3725 
L 507.732757 255.3725 
L 507.732757 254.735993 
L 502.210889 254.735993 
z
" clip-path="url(#p78a6fa470d)" style="fill: #bc80bd; stroke: #000000; stroke-width: 0.8; stroke-linejoin: miter"/>
   </g>
   <g id="matplotlib.axis_7">
    <g id="xtick_16">
     <g id="line2d_26">
      <g>
       <use xlink:href="#m730cd3e1f6" x="315.72" y="255.3725" style="fill: #323034; stroke: #323034; stroke-width: 0.8"/>
      </g>
     </g>
     <g id="text_27">
      <!-- $\mathdefault{−4}$ -->
      <g style="fill: #323034" transform="translate(306.2 273.3) scale(0.16 -0.16)">
       <use xlink:href="#STIXGeneral-Regular-2212" transform="translate(0 0.40625)"/>
       <use xlink:href="#STIXGeneral-Regular-34" transform="translate(68.499985 0.40625)"/>
      </g>
     </g>
    </g>
    <g id="xtick_17">
     <g id="line2d_27">
      <g>
       <use xlink:href="#m730cd3e1f6" x="372.893755" y="255.3725" style="fill: #323034; stroke: #323034; stroke-width: 0.8"/>
      </g>
     </g>
     <g id="text_28">
      <!-- $\mathdefault{−2}$ -->
      <g style="fill: #323034" transform="translate(363.373755 273.3) scale(0.16 -0.16)">
       <use xlink:href="#STIXGeneral-Regular-2212" transform="translate(0 0.40625)"/>
       <use xlink:href="#STIXGeneral-Regular-32" transform="translate(68.499985 0.40625)"/>
      </g>
     </g>
    </g>
    <g id="xtick_18">
     <g id="line2d_28">
      <g>
       <use xlink:href="#m730cd3e1f6" x="430.067511" y="255.3725" style="fill: #323034; stroke: #323034; stroke-width: 0.8"/>
      </g>
     </g>
     <g id="text_29">
      <!-- $\mathdefault{0}$ -->
      <g style="fill: #323034" transform="translate(426.067511 273.3) scale(0.16 -0.16)">
       <use xlink:href="#STIXGeneral-Regular-30" transform="translate(0 0.40625)"/>
      </g>
     </g>
    </g>
    <g id="xtick_19">
     <g id="line2d_29">
      <g>
       <use xlink:href="#m730cd3e1f6" x="487.241266" y="255.3725" style="fill: #323034; stroke: #323034; stroke-width: 0.8"/>
      </g>
     </g>
     <g id="text_30">
      <!-- $\mathdefault{2}$ -->
      <g style="fill: #323034" transform="translate(483.241266 273.3) scale(0.16 -0.16)">
       <use xlink:href="#STIXGeneral-Regular-32" transform="translate(0 0.40625)"/>
      </g>
     </g>
    </g>
    <g id="xtick_20">
     <g id="line2d_30">
      <g>
       <use xlink:href="#m730cd3e1f6" x="544.415022" y="255.3725" style="fill: #323034; stroke: #323034; stroke-width: 0.8"/>
      </g>
     </g>
     <g id="text_31">
      <!-- $\mathdefault{4}$ -->
      <g style="fill: #323034" transform="translate(540.415022 273.3) scale(0.16 -0.16)">
       <use xlink:href="#STIXGeneral-Regular-34" transform="translate(0 0.40625)"/>
      </g>
     </g>
    </g>
   </g>
   <g id="matplotlib.axis_8">
    <g id="ytick_9">
     <g id="line2d_31">
      <g>
       <use xlink:href="#m33dd3f8640" x="315.72" y="255.3725" style="fill: #323034; stroke: #323034; stroke-width: 0.8"/>
      </g>
     </g>
     <g id="text_32">
      <!-- $\mathdefault{0.0}$ -->
      <g style="fill: #323034" transform="translate(288.72 260.83625) scale(0.16 -0.16)">
       <use xlink:href="#STIXGeneral-Regular-30" transform="translate(0 0.40625)"/>
       <use xlink:href="#STIXGeneral-Regular-2e" transform="translate(49.999985 0.40625)"/>
       <use xlink:href="#STIXGeneral-Regular-30" transform="translate(74.999969 0.40625)"/>
      </g>
     </g>
    </g>
    <g id="ytick_10">
     <g id="line2d_32">
      <g>
       <use xlink:href="#m33dd3f8640" x="315.72" y="193.898333" style="fill: #323034; stroke: #323034; stroke-width: 0.8"/>
      </g>
     </g>
     <g id="text_33">
      <!-- $\mathdefault{0.5}$ -->
      <g style="fill: #323034" transform="translate(288.72 199.362083) scale(0.16 -0.16)">
       <use xlink:href="#STIXGeneral-Regular-30" transform="translate(0 0.203125)"/>
       <use xlink:href="#STIXGeneral-Regular-2e" transform="translate(49.999985 0.203125)"/>
       <use xlink:href="#STIXGeneral-Regular-35" transform="translate(74.999969 0.203125)"/>
      </g>
     </g>
    </g>
   </g>
   <g id="line2d_33">
    <path d="M 287.133122 255.371497 
L 290.020686 255.370902 
L 292.908249 255.369982 
L 295.795812 255.368571 
L 298.683376 255.366432 
L 301.570939 255.363225 
L 304.458503 255.358467 
L 307.346066 255.351485 
L 310.23363 255.341349 
L 313.121193 255.326797 
L 316.008756 255.306129 
L 318.89632 255.277097 
L 321.783883 255.236764 
L 324.671447 255.181348 
L 327.55901 255.106053 
L 330.446573 255.004884 
L 333.334137 254.870473 
L 336.2217 254.693905 
L 339.109264 254.464588 
L 341.996827 254.170161 
L 344.88439 253.796484 
L 347.771954 253.32773 
L 350.659517 252.7466 
L 353.547081 252.034686 
L 356.434644 251.173012 
L 359.322207 250.142754 
L 362.209771 248.926134 
L 365.097334 247.507486 
L 367.984898 245.874456 
L 370.872461 244.019282 
L 373.760025 241.94009 
L 376.647588 239.642127 
L 379.535151 237.138823 
L 382.422715 234.452599 
L 385.310278 231.615306 
L 388.197842 228.668225 
L 391.085405 225.661548 
L 393.972968 222.653313 
L 396.860532 219.707801 
L 399.748095 216.893412 
L 402.635659 214.280138 
L 405.523222 211.936723 
L 408.410785 209.927698 
L 411.298349 208.310436 
L 414.185912 207.132437 
L 417.073476 206.429013 
L 419.961039 206.221531 
L 422.848602 206.516332 
L 425.736166 207.304412 
L 428.623729 208.561875 
L 431.511293 210.251141 
L 434.398856 212.322808 
L 437.28642 214.718053 
L 440.173983 217.371397 
L 443.061546 220.213664 
L 445.94911 223.174943 
L 448.836673 226.18738 
L 451.724237 229.187644 
L 454.6118 232.118962 
L 457.499363 234.932635 
L 460.386927 237.589004 
L 463.27449 240.057874 
L 466.162054 242.318434 
L 469.049617 244.358747 
L 471.93718 246.17489 
L 474.824744 247.769853 
L 477.712307 249.152294 
L 480.599871 250.335234 
L 483.487434 251.33479 
L 486.374997 252.168994 
L 489.262561 252.856759 
L 492.150124 253.417005 
L 495.037688 253.867982 
L 497.925251 254.226754 
L 500.812815 254.508867 
L 503.700378 254.728152 
L 506.587941 254.896659 
L 509.475505 255.024681 
L 512.363068 255.120851 
L 515.250632 255.192287 
L 518.138195 255.244759 
L 521.025758 255.282877 
L 523.913322 255.310261 
L 526.800885 255.329719 
L 529.688449 255.343393 
L 532.576012 255.352898 
L 535.463575 255.359434 
L 538.351139 255.36388 
L 541.238702 255.366871 
L 544.126266 255.368861 
L 547.013829 255.370172 
L 549.901392 255.371026 
L 552.788956 255.371576 
L 555.676519 255.371927 
L 556.615022 255.371999 
" clip-path="url(#p78a6fa470d)" style="fill: none; stroke: #fb8072; stroke-opacity: 0.9; stroke-width: 2; stroke-linecap: square"/>
   </g>
   <g id="patch_132">
    <path d="M 315.72 255.3725 
L 315.72 181.6035 
" style="fill: none; stroke: #000000; stroke-width: 0.6; stroke-linejoin: miter; stroke-linecap: square"/>
   </g>
   <g id="patch_133">
    <path d="M 315.72 255.3725 
L 544.415022 255.3725 
" style="fill: none; stroke: #000000; stroke-width: 0.6; stroke-linejoin: miter; stroke-linecap: square"/>
   </g>
   <g id="text_34">
    <!-- $\lambda^*=$0.28 -->
    <g style="fill: #323034" transform="translate(315.72 175.6035) scale(0.12 -0.12)">
     <defs>
      <path id="STIXGeneral-Regular-2a" d="M 1715 3014 
L 1773 2976 
Q 2010 2822 2387 2758 
Q 2605 2726 2688 2665 
Q 2771 2605 2771 2483 
Q 2771 2374 2707 2304 
Q 2643 2234 2541 2234 
Q 2381 2234 2157 2515 
Q 2010 2694 1715 2886 
L 1664 2918 
L 1664 2861 
Q 1664 2502 1792 2157 
Q 1850 1997 1850 1946 
Q 1850 1850 1770 1773 
Q 1690 1696 1594 1696 
Q 1504 1696 1433 1766 
Q 1363 1837 1363 1926 
Q 1363 2016 1440 2227 
Q 1542 2502 1542 2861 
L 1542 2918 
Q 1286 2758 1210 2688 
Q 1133 2611 947 2400 
Q 806 2240 672 2240 
Q 563 2240 499 2304 
Q 435 2368 435 2470 
Q 435 2592 528 2656 
Q 621 2720 838 2758 
Q 1062 2803 1180 2848 
Q 1299 2893 1498 3014 
Q 1222 3181 877 3251 
Q 640 3302 544 3366 
Q 448 3430 448 3546 
Q 448 3648 505 3715 
Q 563 3782 659 3782 
Q 787 3782 973 3578 
Q 1242 3277 1542 3110 
L 1542 3194 
Q 1542 3456 1446 3776 
Q 1376 3987 1376 4109 
Q 1376 4198 1443 4262 
Q 1510 4326 1606 4326 
Q 1702 4326 1772 4259 
Q 1843 4192 1843 4096 
Q 1843 3994 1773 3795 
Q 1664 3507 1664 3264 
L 1664 3110 
Q 1882 3238 2035 3379 
Q 2067 3411 2153 3504 
Q 2240 3597 2291 3648 
Q 2342 3699 2409 3747 
Q 2477 3795 2528 3795 
Q 2637 3795 2701 3728 
Q 2765 3661 2765 3552 
Q 2765 3424 2691 3363 
Q 2618 3302 2432 3277 
Q 2074 3219 1715 3014 
z
" transform="scale(0.015625)"/>
      <path id="STIXGeneral-Regular-38" d="M 2848 992 
Q 2848 499 2505 204 
Q 2163 -90 1587 -90 
Q 1050 -90 704 204 
Q 358 499 358 954 
Q 358 1293 524 1533 
Q 691 1773 1190 2125 
Q 710 2522 553 2765 
Q 397 3008 397 3328 
Q 397 3782 745 4054 
Q 1094 4326 1638 4326 
Q 2106 4326 2410 4060 
Q 2714 3795 2714 3411 
Q 2714 3059 2531 2848 
Q 2349 2637 1856 2374 
Q 2432 1990 2640 1689 
Q 2848 1389 2848 992 
z
M 2272 3411 
Q 2272 3744 2086 3945 
Q 1901 4147 1574 4147 
Q 1248 4147 1059 3977 
Q 870 3808 870 3513 
Q 870 3219 1059 2979 
Q 1248 2739 1670 2490 
Q 1997 2682 2134 2896 
Q 2272 3110 2272 3411 
z
M 1734 1741 
L 1357 1997 
Q 1075 1766 960 1545 
Q 845 1325 845 1011 
Q 845 576 1065 333 
Q 1286 90 1658 90 
Q 1971 90 2166 285 
Q 2362 480 2362 794 
Q 2362 1082 2214 1299 
Q 2067 1517 1734 1741 
z
" transform="scale(0.015625)"/>
     </defs>
     <use xlink:href="#STIXGeneral-Italic-3bb" transform="translate(0 0.409375)"/>
     <use xlink:href="#STIXGeneral-Regular-2a" transform="translate(67.058766 35.684375) scale(0.7)"/>
     <use xlink:href="#STIXGeneral-Regular-3d" transform="translate(131.016125 0.409375)"/>
     <use xlink:href="#STIXGeneral-Regular-30" transform="translate(213.956106 0.409375)"/>
     <use xlink:href="#STIXGeneral-Regular-2e" transform="translate(263.95609 0.409375)"/>
     <use xlink:href="#STIXGeneral-Regular-32" transform="translate(288.956075 0.409375)"/>
     <use xlink:href="#STIXGeneral-Regular-38" transform="translate(338.95606 0.409375)"/>
    </g>
   </g>
  </g>
  <g id="text_35">
   <!-- Box Cox Transformed Distributions -->
   <g style="fill: #323034" transform="translate(143.386741 19.493437) scale(0.18 -0.18)">
    <defs>
     <path id="STIXGeneral-Regular-42" d="M 2701 2234 
L 2701 2227 
Q 3181 2150 3482 1875 
Q 3795 1594 3795 1139 
Q 3795 608 3379 304 
Q 2963 0 2266 0 
L 109 0 
L 109 122 
Q 486 134 604 246 
Q 723 358 723 723 
L 723 3520 
Q 723 3891 614 3990 
Q 506 4090 109 4115 
L 109 4237 
L 1901 4237 
Q 2726 4237 3152 3958 
Q 3578 3680 3578 3168 
Q 3578 2733 3315 2502 
Q 3130 2342 2701 2234 
z
M 1376 2342 
L 1965 2342 
Q 2925 2342 2925 3136 
Q 2925 3546 2640 3773 
Q 2355 4000 1792 4000 
L 1530 4000 
Q 1376 4000 1376 3795 
L 1376 2342 
z
M 1376 2086 
L 1376 525 
Q 1376 365 1462 301 
Q 1549 237 1773 237 
Q 2208 237 2413 285 
Q 2618 333 2816 512 
Q 3059 723 3059 1146 
Q 3059 1632 2758 1830 
Q 2688 1882 2617 1917 
Q 2547 1952 2492 1974 
Q 2438 1997 2348 2016 
Q 2259 2035 2211 2044 
Q 2163 2054 2041 2060 
Q 1920 2067 1862 2070 
Q 1805 2074 1635 2080 
Q 1466 2086 1376 2086 
z
" transform="scale(0.015625)"/>
     <path id="STIXGeneral-Regular-6f" d="M 3008 1478 
Q 3008 806 2608 371 
Q 2208 -64 1568 -64 
Q 979 -64 582 368 
Q 186 800 186 1459 
Q 186 2125 582 2534 
Q 979 2944 1626 2944 
Q 2221 2944 2614 2537 
Q 3008 2131 3008 1478 
z
M 2432 1306 
Q 2432 2035 2112 2445 
Q 1856 2765 1504 2765 
Q 1171 2765 966 2493 
Q 762 2221 762 1747 
Q 762 928 1101 435 
Q 1318 115 1677 115 
Q 2029 115 2230 432 
Q 2432 749 2432 1306 
z
" transform="scale(0.015625)"/>
     <path id="STIXGeneral-Regular-78" d="M 3066 0 
L 1779 0 
L 1779 96 
Q 1939 109 1987 137 
Q 2035 166 2035 250 
Q 2035 307 1997 365 
L 1414 1261 
L 909 474 
Q 781 275 781 211 
Q 781 96 1037 96 
L 1037 0 
L 109 0 
L 109 96 
Q 269 109 355 169 
Q 442 230 576 422 
L 1306 1478 
L 704 2400 
Q 557 2624 454 2704 
Q 352 2784 211 2784 
L 154 2784 
L 154 2880 
L 1478 2880 
L 1478 2784 
Q 1203 2778 1203 2643 
Q 1203 2509 1498 2074 
Q 1581 1958 1587 1946 
Q 1619 1990 1779 2227 
Q 1811 2285 1856 2349 
Q 1901 2413 1923 2451 
Q 1946 2490 1971 2528 
Q 1997 2566 2006 2595 
Q 2016 2624 2016 2643 
Q 2016 2765 1760 2784 
L 1760 2880 
L 2771 2880 
L 2771 2784 
Q 2445 2771 2253 2502 
L 1722 1734 
L 2541 480 
Q 2790 96 3066 96 
L 3066 0 
z
" transform="scale(0.015625)"/>
     <path id="STIXGeneral-Regular-20" transform="scale(0.015625)"/>
     <path id="STIXGeneral-Regular-43" d="M 3930 838 
L 4051 723 
Q 3482 -90 2304 -90 
Q 1376 -90 794 480 
Q 179 1082 179 2080 
Q 179 3014 755 3661 
Q 1357 4326 2310 4326 
Q 2720 4326 3072 4230 
Q 3475 4115 3514 4115 
Q 3725 4115 3782 4326 
L 3910 4326 
L 3968 2874 
L 3821 2874 
Q 3718 3334 3488 3584 
Q 3034 4070 2458 4070 
Q 1747 4070 1334 3548 
Q 922 3027 922 2182 
Q 922 1152 1382 653 
Q 1811 192 2522 192 
Q 2944 192 3251 339 
Q 3558 486 3930 838 
z
" transform="scale(0.015625)"/>
     <path id="STIXGeneral-Regular-54" d="M 3795 3149 
L 3642 3149 
Q 3539 3674 3353 3821 
Q 3168 3968 2656 3968 
L 2278 3968 
L 2278 710 
Q 2278 346 2387 243 
Q 2496 141 2893 122 
L 2893 0 
L 1024 0 
L 1024 122 
Q 1427 147 1526 256 
Q 1626 365 1626 787 
L 1626 3968 
L 1242 3968 
Q 723 3968 540 3817 
Q 358 3667 262 3149 
L 109 3149 
L 154 4237 
L 3750 4237 
L 3795 3149 
z
" transform="scale(0.015625)"/>
     <path id="STIXGeneral-Regular-73" d="M 998 1926 
L 1664 1523 
Q 1984 1331 2105 1164 
Q 2227 998 2227 736 
Q 2227 416 1961 176 
Q 1696 -64 1331 -64 
Q 1030 -64 864 -6 
Q 691 51 570 51 
Q 461 51 416 -26 
L 333 -26 
L 333 979 
L 435 979 
Q 538 512 730 294 
Q 922 77 1248 77 
Q 1485 77 1632 211 
Q 1779 346 1779 550 
Q 1779 845 1440 1030 
L 1094 1222 
Q 326 1651 326 2150 
Q 326 2522 566 2730 
Q 806 2938 1210 2938 
Q 1491 2938 1638 2867 
Q 1754 2816 1818 2816 
Q 1862 2816 1920 2880 
L 1990 2880 
L 2022 2010 
L 1926 2010 
Q 1818 2445 1654 2621 
Q 1491 2797 1203 2797 
Q 986 2797 854 2688 
Q 723 2579 723 2362 
Q 723 2253 796 2128 
Q 870 2003 998 1926 
z
" transform="scale(0.015625)"/>
     <path id="STIXGeneral-Regular-66" d="M 134 2880 
L 659 2880 
Q 666 3264 710 3478 
Q 755 3693 883 3910 
Q 1152 4371 1786 4371 
Q 2074 4371 2262 4259 
Q 2451 4147 2451 3974 
Q 2451 3866 2374 3789 
Q 2298 3712 2182 3712 
Q 2029 3712 1894 3942 
Q 1741 4192 1555 4192 
Q 1197 4192 1197 3622 
L 1197 2880 
L 1978 2880 
L 1978 2675 
L 1197 2675 
L 1197 666 
Q 1197 307 1299 208 
Q 1402 109 1792 96 
L 1792 0 
L 128 0 
L 128 96 
Q 474 115 566 214 
Q 659 314 659 666 
L 659 2675 
L 134 2675 
L 134 2880 
z
" transform="scale(0.015625)"/>
     <path id="STIXGeneral-Regular-6d" d="M 4960 0 
L 3565 0 
L 3565 96 
Q 3834 122 3907 208 
Q 3981 294 3981 576 
L 3981 1894 
Q 3981 2278 3869 2444 
Q 3757 2611 3488 2611 
Q 3264 2611 3107 2521 
Q 2950 2432 2803 2221 
L 2803 608 
Q 2803 301 2896 201 
Q 2989 102 3264 96 
L 3264 0 
L 1830 0 
L 1830 96 
Q 2112 115 2189 188 
Q 2266 262 2266 550 
L 2266 1901 
Q 2266 2611 1850 2611 
Q 1670 2611 1468 2531 
Q 1267 2451 1171 2336 
Q 1088 2240 1088 2227 
L 1088 448 
Q 1088 243 1177 176 
Q 1267 109 1523 96 
L 1523 0 
L 102 0 
L 102 96 
Q 371 102 460 195 
Q 550 288 550 563 
L 550 2150 
Q 550 2387 499 2480 
Q 448 2573 326 2573 
Q 230 2573 122 2547 
L 122 2656 
Q 557 2778 1011 2944 
L 1062 2925 
L 1062 2451 
L 1075 2451 
Q 1363 2752 1584 2848 
Q 1805 2944 2054 2944 
Q 2560 2944 2733 2406 
Q 3232 2944 3776 2944 
Q 4518 2944 4518 1792 
L 4518 493 
Q 4518 282 4582 202 
Q 4646 122 4794 109 
L 4960 96 
L 4960 0 
z
" transform="scale(0.015625)"/>
     <path id="STIXGeneral-Regular-65" d="M 2611 1050 
L 2714 1005 
Q 2330 -64 1376 -64 
Q 813 -64 486 329 
Q 160 723 160 1389 
Q 160 2074 525 2509 
Q 890 2944 1485 2944 
Q 2061 2944 2374 2502 
Q 2560 2246 2592 1773 
L 621 1773 
Q 646 1370 700 1158 
Q 755 947 915 730 
Q 1184 378 1626 378 
Q 1939 378 2153 531 
Q 2368 685 2611 1050 
z
M 634 1978 
L 1939 1978 
Q 1882 2381 1750 2547 
Q 1619 2714 1312 2714 
Q 1043 2714 864 2525 
Q 685 2336 634 1978 
z
" transform="scale(0.015625)"/>
     <path id="STIXGeneral-Regular-64" d="M 3142 269 
L 2202 -64 
L 2176 -45 
L 2176 365 
Q 1869 -64 1357 -64 
Q 826 -64 499 317 
Q 173 698 173 1312 
Q 173 1990 563 2467 
Q 954 2944 1504 2944 
Q 1850 2944 2176 2669 
L 2176 3667 
Q 2176 3866 2118 3930 
Q 2061 3994 1882 3994 
Q 1792 3994 1741 3987 
L 1741 4090 
Q 2323 4243 2682 4371 
L 2714 4358 
L 2714 730 
Q 2714 506 2768 435 
Q 2822 365 2995 365 
Q 3034 365 3142 371 
L 3142 269 
z
M 2176 653 
L 2176 2125 
Q 2176 2381 1981 2573 
Q 1786 2765 1523 2765 
Q 1158 2765 940 2438 
Q 723 2112 723 1568 
Q 723 979 963 624 
Q 1203 269 1606 269 
Q 1907 269 2080 474 
Q 2176 582 2176 653 
z
" transform="scale(0.015625)"/>
     <path id="STIXGeneral-Regular-44" d="M 102 4237 
L 1830 4237 
Q 3078 4237 3750 3654 
Q 4384 3110 4384 2138 
Q 4384 966 3514 410 
Q 2880 0 1901 0 
L 102 0 
L 102 122 
Q 474 147 570 252 
Q 666 358 666 736 
L 666 3520 
Q 666 3891 570 3990 
Q 474 4090 102 4115 
L 102 4237 
z
M 1318 3731 
L 1318 538 
Q 1318 365 1379 301 
Q 1440 237 1626 237 
Q 2125 237 2432 307 
Q 2739 378 3021 570 
Q 3686 1018 3686 2099 
Q 3686 3027 3078 3558 
Q 2803 3802 2476 3901 
Q 2150 4000 1658 4000 
Q 1472 4000 1395 3942 
Q 1318 3885 1318 3731 
z
" transform="scale(0.015625)"/>
     <path id="STIXGeneral-Regular-74" d="M 1702 493 
L 1786 422 
Q 1478 -64 1011 -64 
Q 448 -64 448 749 
L 448 2675 
L 109 2675 
Q 83 2694 83 2720 
Q 83 2771 192 2842 
Q 435 2982 813 3526 
Q 826 3546 874 3606 
Q 922 3667 941 3706 
Q 986 3706 986 3622 
L 986 2880 
L 1632 2880 
L 1632 2675 
L 986 2675 
L 986 845 
Q 986 538 1062 403 
Q 1139 269 1318 269 
Q 1510 269 1702 493 
z
" transform="scale(0.015625)"/>
     <path id="STIXGeneral-Regular-62" d="M 979 4358 
L 979 2406 
Q 1082 2650 1315 2797 
Q 1549 2944 1843 2944 
Q 2349 2944 2672 2541 
Q 2995 2138 2995 1536 
Q 2995 832 2566 384 
Q 2138 -64 1498 -64 
Q 1107 -64 774 67 
Q 442 198 442 358 
L 442 3622 
Q 442 3859 384 3926 
Q 326 3994 128 3994 
Q 83 3994 19 3981 
L 19 4090 
L 211 4147 
Q 864 4346 947 4371 
L 979 4358 
z
M 979 2035 
L 979 474 
Q 979 326 1161 233 
Q 1344 141 1600 141 
Q 1978 141 2195 416 
Q 2432 710 2432 1261 
Q 2432 1888 2182 2240 
Q 1971 2541 1613 2541 
Q 1357 2541 1168 2390 
Q 979 2240 979 2035 
z
" transform="scale(0.015625)"/>
     <path id="STIXGeneral-Regular-75" d="M 3072 320 
L 3072 230 
Q 2573 96 2195 -58 
L 2163 -38 
L 2163 486 
L 2150 486 
Q 1747 -64 1235 -64 
Q 870 -64 662 160 
Q 454 384 454 755 
L 454 2362 
Q 454 2598 371 2688 
Q 288 2778 58 2790 
L 58 2880 
L 992 2880 
L 992 813 
Q 992 595 1123 451 
Q 1254 307 1446 307 
Q 1760 307 1984 506 
Q 2067 582 2099 649 
Q 2131 717 2131 877 
L 2131 2355 
Q 2131 2605 2041 2678 
Q 1952 2752 1658 2771 
L 1658 2880 
L 2669 2880 
L 2669 685 
Q 2669 461 2742 390 
Q 2816 320 3034 320 
L 3072 320 
z
" transform="scale(0.015625)"/>
    </defs>
    <use xlink:href="#STIXGeneral-Regular-42"/>
    <use xlink:href="#STIXGeneral-Regular-6f" transform="translate(66.699997 0)"/>
    <use xlink:href="#STIXGeneral-Regular-78" transform="translate(116.699982 0)"/>
    <use xlink:href="#STIXGeneral-Regular-20" transform="translate(166.699966 0)"/>
    <use xlink:href="#STIXGeneral-Regular-43" transform="translate(191.699951 0)"/>
    <use xlink:href="#STIXGeneral-Regular-6f" transform="translate(258.399948 0)"/>
    <use xlink:href="#STIXGeneral-Regular-78" transform="translate(308.399933 0)"/>
    <use xlink:href="#STIXGeneral-Regular-20" transform="translate(358.399918 0)"/>
    <use xlink:href="#STIXGeneral-Regular-54" transform="translate(383.399902 0)"/>
    <use xlink:href="#STIXGeneral-Regular-72" transform="translate(444.499893 0)"/>
    <use xlink:href="#STIXGeneral-Regular-61" transform="translate(477.799881 0)"/>
    <use xlink:href="#STIXGeneral-Regular-6e" transform="translate(522.199875 0)"/>
    <use xlink:href="#STIXGeneral-Regular-73" transform="translate(572.19986 0)"/>
    <use xlink:href="#STIXGeneral-Regular-66" transform="translate(611.099854 0)"/>
    <use xlink:href="#STIXGeneral-Regular-6f" transform="translate(644.399841 0)"/>
    <use xlink:href="#STIXGeneral-Regular-72" transform="translate(694.399826 0)"/>
    <use xlink:href="#STIXGeneral-Regular-6d" transform="translate(727.699814 0)"/>
    <use xlink:href="#STIXGeneral-Regular-65" transform="translate(805.499802 0)"/>
    <use xlink:href="#STIXGeneral-Regular-64" transform="translate(849.899796 0)"/>
    <use xlink:href="#STIXGeneral-Regular-20" transform="translate(899.89978 0)"/>
    <use xlink:href="#STIXGeneral-Regular-44" transform="translate(924.899765 0)"/>
    <use xlink:href="#STIXGeneral-Regular-69" transform="translate(997.099747 0)"/>
    <use xlink:href="#STIXGeneral-Regular-73" transform="translate(1024.899734 0)"/>
    <use xlink:href="#STIXGeneral-Regular-74" transform="translate(1063.799728 0)"/>
    <use xlink:href="#STIXGeneral-Regular-72" transform="translate(1091.599716 0)"/>
    <use xlink:href="#STIXGeneral-Regular-69" transform="translate(1124.899704 0)"/>
    <use xlink:href="#STIXGeneral-Regular-62" transform="translate(1152.699692 0)"/>
    <use xlink:href="#STIXGeneral-Regular-75" transform="translate(1202.699677 0)"/>
    <use xlink:href="#STIXGeneral-Regular-74" transform="translate(1252.699661 0)"/>
    <use xlink:href="#STIXGeneral-Regular-69" transform="translate(1280.499649 0)"/>
    <use xlink:href="#STIXGeneral-Regular-6f" transform="translate(1308.299637 0)"/>
    <use xlink:href="#STIXGeneral-Regular-6e" transform="translate(1358.299622 0)"/>
    <use xlink:href="#STIXGeneral-Regular-73" transform="translate(1408.299606 0)"/>
   </g>
  </g>
 </g>
 <defs>
  <clipPath id="pef417bbb71">
   <rect x="34.2" y="58.695" width="228.695022" height="73.769"/>
  </clipPath>
  <clipPath id="p30935db5de">
   <rect x="315.72" y="58.695" width="228.695022" height="73.769"/>
  </clipPath>
  <clipPath id="p719b247a73">
   <rect x="34.2" y="181.6035" width="228.695022" height="73.769"/>
  </clipPath>
  <clipPath id="p78a6fa470d">
   <rect x="315.72" y="181.6035" width="228.695022" height="73.769"/>
  </clipPath>
 </defs>
</svg>