<?xml version="1.0" encoding="utf-8" standalone="no"?>
<!DOCTYPE svg PUBLIC "-//W3C//DTD SVG 1.1//EN"
  "http://www.w3.org/Graphics/SVG/1.1/DTD/svg11.dtd">
<svg xmlns:xlink="http://www.w3.org/1999/xlink" width="584.39952pt" height="368.39952pt" viewBox="0 0 584.39952 368.39952" xmlns="http://www.w3.org/2000/svg" version="1.1">
 <metadata>
  <rdf:RDF xmlns:dc="http://purl.org/dc/elements/1.1/" xmlns:cc="http://creativecommons.org/ns#" xmlns:rdf="http://www.w3.org/1999/02/22-rdf-syntax-ns#">
   <cc:Work>
    <dc:type rdf:resource="http://purl.org/dc/dcmitype/StillImage"/>
    <dc:date>2023-12-29T00:19:08.498210</dc:date>
    <dc:format>image/svg+xml</dc:format>
    <dc:creator>
     <cc:Agent>
      <dc:title>Matplotlib v3.7.2, https://matplotlib.org/</dc:title>
     </cc:Agent>
    </dc:creator>
   </cc:Work>
  </rdf:RDF>
 </metadata>
 <defs>
  <style type="text/css">*{stroke-linejoin: round; stroke-linecap: butt}</style>
 </defs>
 <g id="figure_1">
  <g id="patch_1">
   <path d="M 0 368.39952 
L 584.39952 368.39952 
L 584.39952 0 
L 0 0 
z
" style="fill: #ffffff"/>
  </g>
  <g id="axes_1">
   <g id="patch_2">
    <path d="M 16.613501 341.144078 
L 567.786019 341.144078 
L 567.786019 24.956118 
L 16.613501 24.956118 
z
" style="fill: #eeeeee"/>
   </g>
   <g id="matplotlib.axis_1">
    <g id="xtick_1">
     <g id="line2d_1">
      <path d="M 16.613501 341.144078 
L 16.613501 24.956118 
" clip-path="url(#p042cc39d24)" style="fill: none; stroke: #ffffff; stroke-width: 0.8; stroke-linecap: round"/>
     </g>
     <g id="line2d_2">
      <defs>
       <path id="m2b712146bc" d="M 0 0 
L 0 3 
" style="stroke: #808080"/>
      </defs>
      <g>
       <use xlink:href="#m2b712146bc" x="16.613501" y="341.144078" style="fill: #808080; stroke: #808080"/>
      </g>
     </g>
     <g id="text_1">
      <!-- $\mathdefault{0.4}$ -->
      <g style="fill: #262626" transform="translate(7.2 357.930682) scale(0.150616 -0.150616)">
       <defs>
        <path id="STIXGeneral-Regular-30" d="M 3046 2112 
Q 3046 1683 2963 1302 
Q 2880 922 2717 602 
Q 2554 282 2266 96 
Q 1978 -90 1600 -90 
Q 1210 -90 915 108 
Q 621 307 461 640 
Q 301 973 227 1350 
Q 154 1728 154 2150 
Q 154 2746 301 3222 
Q 448 3699 790 4012 
Q 1133 4326 1626 4326 
Q 2253 4326 2649 3712 
Q 3046 3098 3046 2112 
z
M 2432 2080 
Q 2432 3091 2217 3625 
Q 2003 4160 1587 4160 
Q 1190 4160 979 3622 
Q 768 3085 768 2106 
Q 768 1120 979 598 
Q 1190 77 1600 77 
Q 2003 77 2217 598 
Q 2432 1120 2432 2080 
z
" transform="scale(0.015625)"/>
        <path id="STIXGeneral-Regular-2e" d="M 1158 275 
Q 1158 134 1052 32 
Q 947 -70 800 -70 
Q 653 -70 550 32 
Q 448 134 448 281 
Q 448 429 553 534 
Q 659 640 806 640 
Q 947 640 1052 531 
Q 1158 422 1158 275 
z
" transform="scale(0.015625)"/>
        <path id="STIXGeneral-Regular-34" d="M 3027 1069 
L 2368 1069 
L 2368 0 
L 1869 0 
L 1869 1069 
L 77 1069 
L 77 1478 
L 2086 4326 
L 2368 4326 
L 2368 1478 
L 3027 1478 
L 3027 1069 
z
M 1869 1478 
L 1869 3674 
L 333 1478 
L 1869 1478 
z
" transform="scale(0.015625)"/>
       </defs>
       <use xlink:href="#STIXGeneral-Regular-30" transform="translate(0 0.40625)"/>
       <use xlink:href="#STIXGeneral-Regular-2e" transform="translate(49.999985 0.40625)"/>
       <use xlink:href="#STIXGeneral-Regular-34" transform="translate(74.999969 0.40625)"/>
      </g>
     </g>
    </g>
    <g id="xtick_2">
     <g id="line2d_3">
      <path d="M 95.352432 341.144078 
L 95.352432 24.956118 
" clip-path="url(#p042cc39d24)" style="fill: none; stroke: #ffffff; stroke-width: 0.8; stroke-linecap: round"/>
     </g>
     <g id="line2d_4">
      <g>
       <use xlink:href="#m2b712146bc" x="95.352432" y="341.144078" style="fill: #808080; stroke: #808080"/>
      </g>
     </g>
     <g id="text_2">
      <!-- $\mathdefault{0.6}$ -->
      <g style="fill: #262626" transform="translate(85.938931 357.930682) scale(0.150616 -0.150616)">
       <defs>
        <path id="STIXGeneral-Regular-36" d="M 2854 4378 
L 2867 4275 
Q 2112 4154 1606 3664 
Q 1101 3174 973 2451 
Q 1344 2739 1786 2739 
Q 2349 2739 2672 2380 
Q 2995 2022 2995 1402 
Q 2995 774 2669 378 
Q 2291 -90 1651 -90 
Q 870 -90 518 557 
Q 218 1107 218 1786 
Q 218 2835 915 3552 
Q 1312 3962 1731 4131 
Q 2150 4301 2854 4378 
z
M 2419 1203 
Q 2419 2445 1555 2445 
Q 1235 2445 1024 2275 
Q 813 2106 813 1702 
Q 813 954 1046 522 
Q 1280 90 1722 90 
Q 2061 90 2240 394 
Q 2419 698 2419 1203 
z
" transform="scale(0.015625)"/>
       </defs>
       <use xlink:href="#STIXGeneral-Regular-30" transform="translate(0 0.59375)"/>
       <use xlink:href="#STIXGeneral-Regular-2e" transform="translate(49.999985 0.59375)"/>
       <use xlink:href="#STIXGeneral-Regular-36" transform="translate(74.999969 0.59375)"/>
      </g>
     </g>
    </g>
    <g id="xtick_3">
     <g id="line2d_5">
      <path d="M 174.091363 341.144078 
L 174.091363 24.956118 
" clip-path="url(#p042cc39d24)" style="fill: none; stroke: #ffffff; stroke-width: 0.8; stroke-linecap: round"/>
     </g>
     <g id="line2d_6">
      <g>
       <use xlink:href="#m2b712146bc" x="174.091363" y="341.144078" style="fill: #808080; stroke: #808080"/>
      </g>
     </g>
     <g id="text_3">
      <!-- $\mathdefault{0.8}$ -->
      <g style="fill: #262626" transform="translate(164.677862 357.930682) scale(0.150616 -0.150616)">
       <defs>
        <path id="STIXGeneral-Regular-38" d="M 2848 992 
Q 2848 499 2505 204 
Q 2163 -90 1587 -90 
Q 1050 -90 704 204 
Q 358 499 358 954 
Q 358 1293 524 1533 
Q 691 1773 1190 2125 
Q 710 2522 553 2765 
Q 397 3008 397 3328 
Q 397 3782 745 4054 
Q 1094 4326 1638 4326 
Q 2106 4326 2410 4060 
Q 2714 3795 2714 3411 
Q 2714 3059 2531 2848 
Q 2349 2637 1856 2374 
Q 2432 1990 2640 1689 
Q 2848 1389 2848 992 
z
M 2272 3411 
Q 2272 3744 2086 3945 
Q 1901 4147 1574 4147 
Q 1248 4147 1059 3977 
Q 870 3808 870 3513 
Q 870 3219 1059 2979 
Q 1248 2739 1670 2490 
Q 1997 2682 2134 2896 
Q 2272 3110 2272 3411 
z
M 1734 1741 
L 1357 1997 
Q 1075 1766 960 1545 
Q 845 1325 845 1011 
Q 845 576 1065 333 
Q 1286 90 1658 90 
Q 1971 90 2166 285 
Q 2362 480 2362 794 
Q 2362 1082 2214 1299 
Q 2067 1517 1734 1741 
z
" transform="scale(0.015625)"/>
       </defs>
       <use xlink:href="#STIXGeneral-Regular-30" transform="translate(0 0.40625)"/>
       <use xlink:href="#STIXGeneral-Regular-2e" transform="translate(49.999985 0.40625)"/>
       <use xlink:href="#STIXGeneral-Regular-38" transform="translate(74.999969 0.40625)"/>
      </g>
     </g>
    </g>
    <g id="xtick_4">
     <g id="line2d_7">
      <path d="M 252.830294 341.144078 
L 252.830294 24.956118 
" clip-path="url(#p042cc39d24)" style="fill: none; stroke: #ffffff; stroke-width: 0.8; stroke-linecap: round"/>
     </g>
     <g id="line2d_8">
      <g>
       <use xlink:href="#m2b712146bc" x="252.830294" y="341.144078" style="fill: #808080; stroke: #808080"/>
      </g>
     </g>
     <g id="text_4">
      <!-- $\mathdefault{1.0}$ -->
      <g style="fill: #262626" transform="translate(243.416793 357.930682) scale(0.150616 -0.150616)">
       <defs>
        <path id="STIXGeneral-Regular-31" d="M 2522 0 
L 755 0 
L 755 96 
Q 1107 115 1235 227 
Q 1363 339 1363 608 
L 1363 3482 
Q 1363 3795 1171 3795 
Q 1082 3795 883 3718 
L 710 3654 
L 710 3744 
L 1856 4326 
L 1914 4307 
L 1914 486 
Q 1914 275 2042 185 
Q 2170 96 2522 96 
L 2522 0 
z
" transform="scale(0.015625)"/>
       </defs>
       <use xlink:href="#STIXGeneral-Regular-31" transform="translate(0 0.40625)"/>
       <use xlink:href="#STIXGeneral-Regular-2e" transform="translate(49.999985 0.40625)"/>
       <use xlink:href="#STIXGeneral-Regular-30" transform="translate(74.999969 0.40625)"/>
      </g>
     </g>
    </g>
    <g id="xtick_5">
     <g id="line2d_9">
      <path d="M 331.569226 341.144078 
L 331.569226 24.956118 
" clip-path="url(#p042cc39d24)" style="fill: none; stroke: #ffffff; stroke-width: 0.8; stroke-linecap: round"/>
     </g>
     <g id="line2d_10">
      <g>
       <use xlink:href="#m2b712146bc" x="331.569226" y="341.144078" style="fill: #808080; stroke: #808080"/>
      </g>
     </g>
     <g id="text_5">
      <!-- $\mathdefault{1.2}$ -->
      <g style="fill: #262626" transform="translate(322.155724 357.930682) scale(0.150616 -0.150616)">
       <defs>
        <path id="STIXGeneral-Regular-32" d="M 3034 877 
L 2688 0 
L 186 0 
L 186 77 
L 1325 1286 
Q 1773 1754 1965 2144 
Q 2157 2534 2157 2950 
Q 2157 3379 1920 3616 
Q 1683 3853 1267 3853 
Q 922 3853 720 3673 
Q 518 3494 326 3021 
L 192 3053 
Q 301 3648 630 3987 
Q 960 4326 1523 4326 
Q 2054 4326 2380 4006 
Q 2707 3686 2707 3200 
Q 2707 2477 1888 1613 
L 832 486 
L 2330 486 
Q 2541 486 2665 569 
Q 2790 653 2944 915 
L 3034 877 
z
" transform="scale(0.015625)"/>
       </defs>
       <use xlink:href="#STIXGeneral-Regular-31" transform="translate(0 0.40625)"/>
       <use xlink:href="#STIXGeneral-Regular-2e" transform="translate(49.999985 0.40625)"/>
       <use xlink:href="#STIXGeneral-Regular-32" transform="translate(74.999969 0.40625)"/>
      </g>
     </g>
    </g>
    <g id="xtick_6">
     <g id="line2d_11">
      <path d="M 410.308157 341.144078 
L 410.308157 24.956118 
" clip-path="url(#p042cc39d24)" style="fill: none; stroke: #ffffff; stroke-width: 0.8; stroke-linecap: round"/>
     </g>
     <g id="line2d_12">
      <g>
       <use xlink:href="#m2b712146bc" x="410.308157" y="341.144078" style="fill: #808080; stroke: #808080"/>
      </g>
     </g>
     <g id="text_6">
      <!-- $\mathdefault{1.4}$ -->
      <g style="fill: #262626" transform="translate(400.894655 357.930682) scale(0.150616 -0.150616)">
       <use xlink:href="#STIXGeneral-Regular-31" transform="translate(0 0.40625)"/>
       <use xlink:href="#STIXGeneral-Regular-2e" transform="translate(49.999985 0.40625)"/>
       <use xlink:href="#STIXGeneral-Regular-34" transform="translate(74.999969 0.40625)"/>
      </g>
     </g>
    </g>
    <g id="xtick_7">
     <g id="line2d_13">
      <path d="M 489.047088 341.144078 
L 489.047088 24.956118 
" clip-path="url(#p042cc39d24)" style="fill: none; stroke: #ffffff; stroke-width: 0.8; stroke-linecap: round"/>
     </g>
     <g id="line2d_14">
      <g>
       <use xlink:href="#m2b712146bc" x="489.047088" y="341.144078" style="fill: #808080; stroke: #808080"/>
      </g>
     </g>
     <g id="text_7">
      <!-- $\mathdefault{1.6}$ -->
      <g style="fill: #262626" transform="translate(479.633587 357.930682) scale(0.150616 -0.150616)">
       <use xlink:href="#STIXGeneral-Regular-31" transform="translate(0 0.59375)"/>
       <use xlink:href="#STIXGeneral-Regular-2e" transform="translate(49.999985 0.59375)"/>
       <use xlink:href="#STIXGeneral-Regular-36" transform="translate(74.999969 0.59375)"/>
      </g>
     </g>
    </g>
    <g id="xtick_8">
     <g id="line2d_15">
      <path d="M 567.786019 341.144078 
L 567.786019 24.956118 
" clip-path="url(#p042cc39d24)" style="fill: none; stroke: #ffffff; stroke-width: 0.8; stroke-linecap: round"/>
     </g>
     <g id="line2d_16">
      <g>
       <use xlink:href="#m2b712146bc" x="567.786019" y="341.144078" style="fill: #808080; stroke: #808080"/>
      </g>
     </g>
     <g id="text_8">
      <!-- $\mathdefault{1.8}$ -->
      <g style="fill: #262626" transform="translate(558.372518 357.930682) scale(0.150616 -0.150616)">
       <use xlink:href="#STIXGeneral-Regular-31" transform="translate(0 0.40625)"/>
       <use xlink:href="#STIXGeneral-Regular-2e" transform="translate(49.999985 0.40625)"/>
       <use xlink:href="#STIXGeneral-Regular-38" transform="translate(74.999969 0.40625)"/>
      </g>
     </g>
    </g>
   </g>
   <g id="matplotlib.axis_2"/>
   <g id="PolyCollection_1">
    <defs>
     <path id="mcde043dbd2" d="M 78.955685 -41.627622 
L 78.955685 -45.703986 
L 79.749624 -45.707477 
L 80.543563 -45.71445 
L 81.337502 -45.720593 
L 82.131441 -45.73525 
L 82.92538 -45.764619 
L 83.719319 -45.789995 
L 84.513258 -45.806196 
L 85.307197 -45.841417 
L 86.101136 -45.880029 
L 86.895075 -45.922152 
L 87.689014 -45.967889 
L 88.482954 -46.017329 
L 89.276893 -46.066256 
L 90.070832 -46.12935 
L 90.864771 -46.192061 
L 91.65871 -46.258728 
L 92.452649 -46.339876 
L 93.246588 -46.416787 
L 94.040527 -46.503286 
L 94.834466 -46.590945 
L 95.628405 -46.69452 
L 96.422344 -46.810047 
L 97.216283 -46.923248 
L 98.010222 -47.042871 
L 98.804161 -47.169075 
L 99.5981 -47.302005 
L 100.392039 -47.441792 
L 101.185978 -47.588561 
L 101.979917 -47.742435 
L 102.773856 -47.914042 
L 103.567795 -48.08053 
L 104.361735 -48.261024 
L 105.155674 -48.445311 
L 105.949613 -48.648342 
L 106.743552 -48.862125 
L 107.537491 -49.081122 
L 108.33143 -49.310191 
L 109.125369 -49.549961 
L 109.919308 -49.795865 
L 110.713247 -50.057991 
L 111.507186 -50.332811 
L 112.301125 -50.621114 
L 113.095064 -50.923715 
L 113.889003 -51.236177 
L 114.682942 -51.573906 
L 115.476881 -51.939759 
L 116.27082 -52.321184 
L 117.064759 -52.70876 
L 117.858698 -53.116809 
L 118.652637 -53.555268 
L 119.446576 -54.00996 
L 120.240516 -54.490696 
L 121.034455 -54.988195 
L 121.828394 -55.517121 
L 122.622333 -56.063663 
L 123.416272 -56.636996 
L 124.210211 -57.22193 
L 125.00415 -57.831326 
L 125.798089 -58.470385 
L 126.592028 -59.119192 
L 127.385967 -59.800734 
L 128.179906 -60.501226 
L 128.973845 -61.199657 
L 129.767784 -61.906224 
L 130.561723 -62.633785 
L 131.355662 -63.362622 
L 132.149601 -64.129942 
L 132.94354 -64.876781 
L 133.737479 -65.632408 
L 134.531418 -66.406835 
L 135.325358 -67.181168 
L 136.119297 -67.958937 
L 136.913236 -68.776363 
L 137.707175 -69.562421 
L 138.501114 -70.377591 
L 139.295053 -71.175267 
L 140.088992 -72.015124 
L 140.882931 -72.837708 
L 141.67687 -73.669126 
L 142.470809 -74.5267 
L 143.264748 -75.378869 
L 144.058687 -76.239304 
L 144.852626 -77.134968 
L 145.646565 -78.052101 
L 146.440504 -78.982712 
L 147.234443 -79.93659 
L 148.028382 -80.936845 
L 148.822321 -81.942795 
L 149.61626 -82.988098 
L 150.410199 -84.058428 
L 151.204139 -85.189954 
L 151.998078 -86.366598 
L 152.792017 -87.591372 
L 153.585956 -88.825285 
L 154.379895 -90.11994 
L 155.173834 -91.447703 
L 155.967773 -92.822716 
L 156.761712 -94.256604 
L 157.555651 -95.726404 
L 158.34959 -97.224717 
L 159.143529 -98.768594 
L 159.937468 -100.371176 
L 160.731407 -102.008194 
L 161.525346 -103.678645 
L 162.319285 -105.390188 
L 163.113224 -107.12606 
L 163.907163 -108.934273 
L 164.701102 -110.763434 
L 165.495041 -112.608708 
L 166.28898 -114.496135 
L 167.08292 -116.416925 
L 167.876859 -118.354327 
L 168.670798 -120.324177 
L 169.464737 -122.296925 
L 170.258676 -124.297708 
L 171.052615 -126.309645 
L 171.846554 -128.320048 
L 172.640493 -130.355857 
L 173.434432 -132.388369 
L 174.228371 -134.432348 
L 175.02231 -136.46896 
L 175.816249 -138.509605 
L 176.610188 -140.558248 
L 177.404127 -142.630712 
L 178.198066 -144.715197 
L 178.992005 -146.787063 
L 179.785944 -148.855219 
L 180.579883 -150.933855 
L 181.373822 -152.971367 
L 182.167762 -155.041747 
L 182.961701 -157.074997 
L 183.75564 -159.107247 
L 184.549579 -161.136672 
L 185.343518 -163.173068 
L 186.137457 -165.192874 
L 186.931396 -167.187372 
L 187.725335 -169.204974 
L 188.519274 -171.211315 
L 189.313213 -173.205199 
L 190.107152 -175.227269 
L 190.901091 -177.210684 
L 191.69503 -179.170394 
L 192.488969 -181.111794 
L 193.282908 -183.080018 
L 194.076847 -185.052825 
L 194.870786 -186.994099 
L 195.664725 -188.947102 
L 196.458664 -190.890081 
L 197.252603 -192.812194 
L 198.046543 -194.747524 
L 198.840482 -196.638917 
L 199.634421 -198.531893 
L 200.42836 -200.433793 
L 201.222299 -202.321073 
L 202.016238 -204.186101 
L 202.810177 -206.039338 
L 203.604116 -207.895324 
L 204.398055 -209.751745 
L 205.191994 -211.607401 
L 205.985933 -213.48063 
L 206.779872 -215.345097 
L 207.573811 -217.196119 
L 208.36775 -219.048505 
L 209.161689 -220.895588 
L 209.955628 -222.782341 
L 210.749567 -224.649536 
L 211.543506 -226.502407 
L 212.337445 -228.349728 
L 213.131384 -230.18839 
L 213.925324 -232.012026 
L 214.719263 -233.861683 
L 215.513202 -235.675744 
L 216.307141 -237.529676 
L 217.10108 -239.324531 
L 217.895019 -241.157747 
L 218.688958 -242.962456 
L 219.482897 -244.726071 
L 220.276836 -246.513325 
L 221.070775 -248.289924 
L 221.864714 -250.012505 
L 222.658653 -251.692964 
L 223.452592 -253.370409 
L 224.246531 -255.019303 
L 225.04047 -256.621618 
L 225.834409 -258.250163 
L 226.628348 -259.824695 
L 227.422287 -261.395693 
L 228.216226 -262.940625 
L 229.010166 -264.401059 
L 229.804105 -265.881866 
L 230.598044 -267.356397 
L 231.391983 -268.822278 
L 232.185922 -270.291182 
L 232.979861 -271.737868 
L 233.7738 -273.172535 
L 234.567739 -274.613695 
L 235.361678 -276.092852 
L 236.155617 -277.572429 
L 236.949556 -279.045666 
L 237.743495 -280.579866 
L 238.537434 -282.128221 
L 239.331373 -283.702002 
L 240.125312 -285.359808 
L 240.919251 -286.979028 
L 241.71319 -288.674126 
L 242.507129 -290.430658 
L 243.301068 -292.200045 
L 244.095007 -293.989817 
L 244.888947 -295.843877 
L 245.682886 -297.715929 
L 246.476825 -299.613364 
L 247.270764 -301.517158 
L 248.064703 -303.459312 
L 248.858642 -305.382115 
L 249.652581 -307.288637 
L 250.44652 -309.20044 
L 251.240459 -311.108688 
L 252.034398 -312.99964 
L 252.828337 -314.808374 
L 253.622276 -316.540555 
L 254.416215 -318.182702 
L 255.210154 -319.7356 
L 256.004093 -321.25212 
L 256.798032 -322.626019 
L 257.591971 -323.891483 
L 258.38591 -325.054211 
L 259.179849 -326.068369 
L 259.973788 -326.936397 
L 260.767728 -327.673682 
L 261.561667 -328.227487 
L 262.355606 -328.66991 
L 263.149545 -328.946891 
L 263.943484 -329.071222 
L 264.737423 -328.981629 
L 265.531362 -328.748388 
L 266.325301 -328.390673 
L 267.11924 -327.851341 
L 267.913179 -327.199944 
L 268.707118 -326.424695 
L 269.501057 -325.535735 
L 270.294996 -324.498656 
L 271.088935 -323.363308 
L 271.882874 -322.156255 
L 272.676813 -320.840258 
L 273.470752 -319.475405 
L 274.264691 -318.05702 
L 275.05863 -316.587446 
L 275.85257 -315.151835 
L 276.646509 -313.639631 
L 277.440448 -312.117341 
L 278.234387 -310.599621 
L 279.028326 -309.074537 
L 279.822265 -307.535821 
L 280.616204 -306.001441 
L 281.410143 -304.451579 
L 282.204082 -302.927454 
L 282.998021 -301.437418 
L 283.79196 -299.929522 
L 284.585899 -298.450117 
L 285.379838 -296.957933 
L 286.173777 -295.46828 
L 286.967716 -293.960506 
L 287.761655 -292.454766 
L 288.555594 -290.927933 
L 289.349533 -289.375726 
L 290.143472 -287.767721 
L 290.937411 -286.122227 
L 291.731351 -284.409571 
L 292.52529 -282.637741 
L 293.319229 -280.784149 
L 294.113168 -278.86279 
L 294.907107 -276.875057 
L 295.701046 -274.793337 
L 296.494985 -272.659884 
L 297.288924 -270.410738 
L 298.082863 -268.060727 
L 298.876802 -265.657257 
L 299.670741 -263.21384 
L 300.46468 -260.664096 
L 301.258619 -258.040285 
L 302.052558 -255.353088 
L 302.846497 -252.584041 
L 303.640436 -249.815072 
L 304.434375 -246.981118 
L 305.228314 -244.099477 
L 306.022253 -241.267072 
L 306.816192 -238.374223 
L 307.610132 -235.497829 
L 308.404071 -232.619884 
L 309.19801 -229.756556 
L 309.991949 -226.954444 
L 310.785888 -224.168841 
L 311.579827 -221.438647 
L 312.373766 -218.722943 
L 313.167705 -216.07945 
L 313.961644 -213.494693 
L 314.755583 -210.970109 
L 315.549522 -208.511813 
L 316.343461 -206.145089 
L 317.1374 -203.811818 
L 317.931339 -201.5817 
L 318.725278 -199.414556 
L 319.519217 -197.318273 
L 320.313156 -195.299362 
L 321.107095 -193.368136 
L 321.901034 -191.491093 
L 322.694974 -189.6751 
L 323.488913 -187.928668 
L 324.282852 -186.256796 
L 325.076791 -184.616547 
L 325.87073 -183.055276 
L 326.664669 -181.529009 
L 327.458608 -180.031816 
L 328.252547 -178.55185 
L 329.046486 -177.083985 
L 329.840425 -175.686157 
L 330.634364 -174.307748 
L 331.428303 -172.938259 
L 332.222242 -171.567088 
L 333.016181 -170.189195 
L 333.81012 -168.832656 
L 334.604059 -167.479351 
L 335.397998 -166.115695 
L 336.191937 -164.717977 
L 336.985876 -163.33421 
L 337.779815 -161.915362 
L 338.573755 -160.496308 
L 339.367694 -158.986966 
L 340.161633 -157.472366 
L 340.955572 -155.94726 
L 341.749511 -154.413886 
L 342.54345 -152.854428 
L 343.337389 -151.234606 
L 344.131328 -149.603383 
L 344.925267 -147.955901 
L 345.719206 -146.279511 
L 346.513145 -144.574175 
L 347.307084 -142.856994 
L 348.101023 -141.125467 
L 348.894962 -139.393016 
L 349.688901 -137.653457 
L 350.48284 -135.901568 
L 351.276779 -134.166535 
L 352.070718 -132.419756 
L 352.864657 -130.654706 
L 353.658596 -128.964581 
L 354.452536 -127.2551 
L 355.246475 -125.581507 
L 356.040414 -123.939074 
L 356.834353 -122.337756 
L 357.628292 -120.766237 
L 358.422231 -119.210919 
L 359.21617 -117.667803 
L 360.010109 -116.136647 
L 360.804048 -114.682337 
L 361.597987 -113.217515 
L 362.391926 -111.798032 
L 363.185865 -110.390907 
L 363.979804 -109.011029 
L 364.773743 -107.650205 
L 365.567682 -106.310452 
L 366.361621 -104.998964 
L 367.15556 -103.72134 
L 367.949499 -102.440043 
L 368.743438 -101.181796 
L 369.537377 -99.93183 
L 370.331317 -98.690834 
L 371.125256 -97.457795 
L 371.919195 -96.208603 
L 372.713134 -94.993932 
L 373.507073 -93.760885 
L 374.301012 -92.549038 
L 375.094951 -91.351574 
L 375.88889 -90.145161 
L 376.682829 -88.924848 
L 377.476768 -87.738508 
L 378.270707 -86.565501 
L 379.064646 -85.40225 
L 379.858585 -84.250532 
L 380.652524 -83.090747 
L 381.446463 -81.958763 
L 382.240402 -80.866943 
L 383.034341 -79.778389 
L 383.82828 -78.72422 
L 384.622219 -77.691533 
L 385.416159 -76.668173 
L 386.210098 -75.679385 
L 387.004037 -74.699514 
L 387.797976 -73.761591 
L 388.591915 -72.845031 
L 389.385854 -71.972204 
L 390.179793 -71.113882 
L 390.973732 -70.280249 
L 391.767671 -69.466425 
L 392.56161 -68.699064 
L 393.355549 -67.92584 
L 394.149488 -67.180025 
L 394.943427 -66.467751 
L 395.737366 -65.763636 
L 396.531305 -65.076711 
L 397.325244 -64.414073 
L 398.119183 -63.755528 
L 398.913122 -63.115418 
L 399.707061 -62.496913 
L 400.501 -61.88363 
L 401.29494 -61.270611 
L 402.088879 -60.663219 
L 402.882818 -60.070174 
L 403.676757 -59.481512 
L 404.470696 -58.902101 
L 405.264635 -58.336056 
L 406.058574 -57.791182 
L 406.852513 -57.239698 
L 407.646452 -56.702065 
L 408.440391 -56.173725 
L 409.23433 -55.664016 
L 410.028269 -55.14213 
L 410.822208 -54.651761 
L 411.616147 -54.16004 
L 412.410086 -53.691747 
L 413.204025 -53.241422 
L 413.997964 -52.796072 
L 414.791903 -52.362287 
L 415.585842 -51.94972 
L 416.379781 -51.561878 
L 417.173721 -51.19293 
L 417.96766 -50.833707 
L 418.761599 -50.485179 
L 419.555538 -50.143704 
L 420.349477 -49.831866 
L 421.143416 -49.529257 
L 421.937355 -49.244752 
L 422.731294 -48.972504 
L 423.525233 -48.711816 
L 424.319172 -48.466197 
L 425.113111 -48.229724 
L 425.90705 -47.997377 
L 426.700989 -47.777765 
L 427.494928 -47.564878 
L 428.288867 -47.349386 
L 429.082806 -47.149315 
L 429.876745 -46.949229 
L 430.670684 -46.74505 
L 431.464623 -46.559149 
L 432.258563 -46.376362 
L 433.052502 -46.196416 
L 433.846441 -46.009591 
L 434.64038 -45.821678 
L 435.434319 -45.650321 
L 436.228258 -45.479921 
L 437.022197 -45.30641 
L 437.816136 -45.130863 
L 438.610075 -44.967122 
L 439.404014 -44.805114 
L 440.197953 -44.636722 
L 440.991892 -44.476892 
L 441.785831 -44.325031 
L 442.57977 -44.176447 
L 443.373709 -44.0274 
L 444.167648 -43.883507 
L 444.961587 -43.736555 
L 445.755526 -43.609932 
L 446.549465 -43.493668 
L 447.343404 -43.375571 
L 448.137344 -43.269775 
L 448.931283 -43.170519 
L 449.725222 -43.078191 
L 450.519161 -42.993111 
L 451.3131 -42.911242 
L 452.107039 -42.842139 
L 452.900978 -42.780687 
L 453.694917 -42.726953 
L 454.488856 -42.680937 
L 455.282795 -42.642579 
L 456.076734 -42.611756 
L 456.870673 -42.588293 
L 457.664612 -42.571962 
L 458.458551 -42.56249 
L 459.25249 -42.559562 
L 460.046429 -42.562825 
L 460.840368 -42.567608 
L 461.634307 -42.583843 
L 462.428246 -42.605892 
L 463.222185 -42.628126 
L 464.016125 -42.655237 
L 464.810064 -42.690965 
L 465.604003 -42.729683 
L 466.397942 -42.771007 
L 467.191881 -42.814543 
L 467.98582 -42.859892 
L 468.779759 -42.906652 
L 469.573698 -42.950136 
L 470.367637 -42.999321 
L 471.161576 -43.048584 
L 471.955515 -43.097558 
L 472.749454 -43.145881 
L 473.543393 -43.193198 
L 474.337332 -43.239162 
L 475.131271 -43.283437 
L 475.92521 -43.321412 
L 476.719149 -43.357867 
L 477.513088 -43.396656 
L 478.307027 -43.432297 
L 479.100967 -43.464572 
L 479.894906 -43.493282 
L 480.688845 -43.518247 
L 481.482784 -43.539306 
L 482.276723 -43.556322 
L 483.070662 -43.569185 
L 483.864601 -43.577807 
L 484.65854 -43.582133 
L 484.65854 -41.627622 
L 484.65854 -41.627622 
L 483.864601 -41.627622 
L 483.070662 -41.627622 
L 482.276723 -41.627622 
L 481.482784 -41.627622 
L 480.688845 -41.627622 
L 479.894906 -41.627622 
L 479.100967 -41.627622 
L 478.307027 -41.627622 
L 477.513088 -41.627622 
L 476.719149 -41.627622 
L 475.92521 -41.627622 
L 475.131271 -41.627622 
L 474.337332 -41.627622 
L 473.543393 -41.627622 
L 472.749454 -41.627622 
L 471.955515 -41.627622 
L 471.161576 -41.627622 
L 470.367637 -41.627622 
L 469.573698 -41.627622 
L 468.779759 -41.627622 
L 467.98582 -41.627622 
L 467.191881 -41.627622 
L 466.397942 -41.627622 
L 465.604003 -41.627622 
L 464.810064 -41.627622 
L 464.016125 -41.627622 
L 463.222185 -41.627622 
L 462.428246 -41.627622 
L 461.634307 -41.627622 
L 460.840368 -41.627622 
L 460.046429 -41.627622 
L 459.25249 -41.627622 
L 458.458551 -41.627622 
L 457.664612 -41.627622 
L 456.870673 -41.627622 
L 456.076734 -41.627622 
L 455.282795 -41.627622 
L 454.488856 -41.627622 
L 453.694917 -41.627622 
L 452.900978 -41.627622 
L 452.107039 -41.627622 
L 451.3131 -41.627622 
L 450.519161 -41.627622 
L 449.725222 -41.627622 
L 448.931283 -41.627622 
L 448.137344 -41.627622 
L 447.343404 -41.627622 
L 446.549465 -41.627622 
L 445.755526 -41.627622 
L 444.961587 -41.627622 
L 444.167648 -41.627622 
L 443.373709 -41.627622 
L 442.57977 -41.627622 
L 441.785831 -41.627622 
L 440.991892 -41.627622 
L 440.197953 -41.627622 
L 439.404014 -41.627622 
L 438.610075 -41.627622 
L 437.816136 -41.627622 
L 437.022197 -41.627622 
L 436.228258 -41.627622 
L 435.434319 -41.627622 
L 434.64038 -41.627622 
L 433.846441 -41.627622 
L 433.052502 -41.627622 
L 432.258563 -41.627622 
L 431.464623 -41.627622 
L 430.670684 -41.627622 
L 429.876745 -41.627622 
L 429.082806 -41.627622 
L 428.288867 -41.627622 
L 427.494928 -41.627622 
L 426.700989 -41.627622 
L 425.90705 -41.627622 
L 425.113111 -41.627622 
L 424.319172 -41.627622 
L 423.525233 -41.627622 
L 422.731294 -41.627622 
L 421.937355 -41.627622 
L 421.143416 -41.627622 
L 420.349477 -41.627622 
L 419.555538 -41.627622 
L 418.761599 -41.627622 
L 417.96766 -41.627622 
L 417.173721 -41.627622 
L 416.379781 -41.627622 
L 415.585842 -41.627622 
L 414.791903 -41.627622 
L 413.997964 -41.627622 
L 413.204025 -41.627622 
L 412.410086 -41.627622 
L 411.616147 -41.627622 
L 410.822208 -41.627622 
L 410.028269 -41.627622 
L 409.23433 -41.627622 
L 408.440391 -41.627622 
L 407.646452 -41.627622 
L 406.852513 -41.627622 
L 406.058574 -41.627622 
L 405.264635 -41.627622 
L 404.470696 -41.627622 
L 403.676757 -41.627622 
L 402.882818 -41.627622 
L 402.088879 -41.627622 
L 401.29494 -41.627622 
L 400.501 -41.627622 
L 399.707061 -41.627622 
L 398.913122 -41.627622 
L 398.119183 -41.627622 
L 397.325244 -41.627622 
L 396.531305 -41.627622 
L 395.737366 -41.627622 
L 394.943427 -41.627622 
L 394.149488 -41.627622 
L 393.355549 -41.627622 
L 392.56161 -41.627622 
L 391.767671 -41.627622 
L 390.973732 -41.627622 
L 390.179793 -41.627622 
L 389.385854 -41.627622 
L 388.591915 -41.627622 
L 387.797976 -41.627622 
L 387.004037 -41.627622 
L 386.210098 -41.627622 
L 385.416159 -41.627622 
L 384.622219 -41.627622 
L 383.82828 -41.627622 
L 383.034341 -41.627622 
L 382.240402 -41.627622 
L 381.446463 -41.627622 
L 380.652524 -41.627622 
L 379.858585 -41.627622 
L 379.064646 -41.627622 
L 378.270707 -41.627622 
L 377.476768 -41.627622 
L 376.682829 -41.627622 
L 375.88889 -41.627622 
L 375.094951 -41.627622 
L 374.301012 -41.627622 
L 373.507073 -41.627622 
L 372.713134 -41.627622 
L 371.919195 -41.627622 
L 371.125256 -41.627622 
L 370.331317 -41.627622 
L 369.537377 -41.627622 
L 368.743438 -41.627622 
L 367.949499 -41.627622 
L 367.15556 -41.627622 
L 366.361621 -41.627622 
L 365.567682 -41.627622 
L 364.773743 -41.627622 
L 363.979804 -41.627622 
L 363.185865 -41.627622 
L 362.391926 -41.627622 
L 361.597987 -41.627622 
L 360.804048 -41.627622 
L 360.010109 -41.627622 
L 359.21617 -41.627622 
L 358.422231 -41.627622 
L 357.628292 -41.627622 
L 356.834353 -41.627622 
L 356.040414 -41.627622 
L 355.246475 -41.627622 
L 354.452536 -41.627622 
L 353.658596 -41.627622 
L 352.864657 -41.627622 
L 352.070718 -41.627622 
L 351.276779 -41.627622 
L 350.48284 -41.627622 
L 349.688901 -41.627622 
L 348.894962 -41.627622 
L 348.101023 -41.627622 
L 347.307084 -41.627622 
L 346.513145 -41.627622 
L 345.719206 -41.627622 
L 344.925267 -41.627622 
L 344.131328 -41.627622 
L 343.337389 -41.627622 
L 342.54345 -41.627622 
L 341.749511 -41.627622 
L 340.955572 -41.627622 
L 340.161633 -41.627622 
L 339.367694 -41.627622 
L 338.573755 -41.627622 
L 337.779815 -41.627622 
L 336.985876 -41.627622 
L 336.191937 -41.627622 
L 335.397998 -41.627622 
L 334.604059 -41.627622 
L 333.81012 -41.627622 
L 333.016181 -41.627622 
L 332.222242 -41.627622 
L 331.428303 -41.627622 
L 330.634364 -41.627622 
L 329.840425 -41.627622 
L 329.046486 -41.627622 
L 328.252547 -41.627622 
L 327.458608 -41.627622 
L 326.664669 -41.627622 
L 325.87073 -41.627622 
L 325.076791 -41.627622 
L 324.282852 -41.627622 
L 323.488913 -41.627622 
L 322.694974 -41.627622 
L 321.901034 -41.627622 
L 321.107095 -41.627622 
L 320.313156 -41.627622 
L 319.519217 -41.627622 
L 318.725278 -41.627622 
L 317.931339 -41.627622 
L 317.1374 -41.627622 
L 316.343461 -41.627622 
L 315.549522 -41.627622 
L 314.755583 -41.627622 
L 313.961644 -41.627622 
L 313.167705 -41.627622 
L 312.373766 -41.627622 
L 311.579827 -41.627622 
L 310.785888 -41.627622 
L 309.991949 -41.627622 
L 309.19801 -41.627622 
L 308.404071 -41.627622 
L 307.610132 -41.627622 
L 306.816192 -41.627622 
L 306.022253 -41.627622 
L 305.228314 -41.627622 
L 304.434375 -41.627622 
L 303.640436 -41.627622 
L 302.846497 -41.627622 
L 302.052558 -41.627622 
L 301.258619 -41.627622 
L 300.46468 -41.627622 
L 299.670741 -41.627622 
L 298.876802 -41.627622 
L 298.082863 -41.627622 
L 297.288924 -41.627622 
L 296.494985 -41.627622 
L 295.701046 -41.627622 
L 294.907107 -41.627622 
L 294.113168 -41.627622 
L 293.319229 -41.627622 
L 292.52529 -41.627622 
L 291.731351 -41.627622 
L 290.937411 -41.627622 
L 290.143472 -41.627622 
L 289.349533 -41.627622 
L 288.555594 -41.627622 
L 287.761655 -41.627622 
L 286.967716 -41.627622 
L 286.173777 -41.627622 
L 285.379838 -41.627622 
L 284.585899 -41.627622 
L 283.79196 -41.627622 
L 282.998021 -41.627622 
L 282.204082 -41.627622 
L 281.410143 -41.627622 
L 280.616204 -41.627622 
L 279.822265 -41.627622 
L 279.028326 -41.627622 
L 278.234387 -41.627622 
L 277.440448 -41.627622 
L 276.646509 -41.627622 
L 275.85257 -41.627622 
L 275.05863 -41.627622 
L 274.264691 -41.627622 
L 273.470752 -41.627622 
L 272.676813 -41.627622 
L 271.882874 -41.627622 
L 271.088935 -41.627622 
L 270.294996 -41.627622 
L 269.501057 -41.627622 
L 268.707118 -41.627622 
L 267.913179 -41.627622 
L 267.11924 -41.627622 
L 266.325301 -41.627622 
L 265.531362 -41.627622 
L 264.737423 -41.627622 
L 263.943484 -41.627622 
L 263.149545 -41.627622 
L 262.355606 -41.627622 
L 261.561667 -41.627622 
L 260.767728 -41.627622 
L 259.973788 -41.627622 
L 259.179849 -41.627622 
L 258.38591 -41.627622 
L 257.591971 -41.627622 
L 256.798032 -41.627622 
L 256.004093 -41.627622 
L 255.210154 -41.627622 
L 254.416215 -41.627622 
L 253.622276 -41.627622 
L 252.828337 -41.627622 
L 252.034398 -41.627622 
L 251.240459 -41.627622 
L 250.44652 -41.627622 
L 249.652581 -41.627622 
L 248.858642 -41.627622 
L 248.064703 -41.627622 
L 247.270764 -41.627622 
L 246.476825 -41.627622 
L 245.682886 -41.627622 
L 244.888947 -41.627622 
L 244.095007 -41.627622 
L 243.301068 -41.627622 
L 242.507129 -41.627622 
L 241.71319 -41.627622 
L 240.919251 -41.627622 
L 240.125312 -41.627622 
L 239.331373 -41.627622 
L 238.537434 -41.627622 
L 237.743495 -41.627622 
L 236.949556 -41.627622 
L 236.155617 -41.627622 
L 235.361678 -41.627622 
L 234.567739 -41.627622 
L 233.7738 -41.627622 
L 232.979861 -41.627622 
L 232.185922 -41.627622 
L 231.391983 -41.627622 
L 230.598044 -41.627622 
L 229.804105 -41.627622 
L 229.010166 -41.627622 
L 228.216226 -41.627622 
L 227.422287 -41.627622 
L 226.628348 -41.627622 
L 225.834409 -41.627622 
L 225.04047 -41.627622 
L 224.246531 -41.627622 
L 223.452592 -41.627622 
L 222.658653 -41.627622 
L 221.864714 -41.627622 
L 221.070775 -41.627622 
L 220.276836 -41.627622 
L 219.482897 -41.627622 
L 218.688958 -41.627622 
L 217.895019 -41.627622 
L 217.10108 -41.627622 
L 216.307141 -41.627622 
L 215.513202 -41.627622 
L 214.719263 -41.627622 
L 213.925324 -41.627622 
L 213.131384 -41.627622 
L 212.337445 -41.627622 
L 211.543506 -41.627622 
L 210.749567 -41.627622 
L 209.955628 -41.627622 
L 209.161689 -41.627622 
L 208.36775 -41.627622 
L 207.573811 -41.627622 
L 206.779872 -41.627622 
L 205.985933 -41.627622 
L 205.191994 -41.627622 
L 204.398055 -41.627622 
L 203.604116 -41.627622 
L 202.810177 -41.627622 
L 202.016238 -41.627622 
L 201.222299 -41.627622 
L 200.42836 -41.627622 
L 199.634421 -41.627622 
L 198.840482 -41.627622 
L 198.046543 -41.627622 
L 197.252603 -41.627622 
L 196.458664 -41.627622 
L 195.664725 -41.627622 
L 194.870786 -41.627622 
L 194.076847 -41.627622 
L 193.282908 -41.627622 
L 192.488969 -41.627622 
L 191.69503 -41.627622 
L 190.901091 -41.627622 
L 190.107152 -41.627622 
L 189.313213 -41.627622 
L 188.519274 -41.627622 
L 187.725335 -41.627622 
L 186.931396 -41.627622 
L 186.137457 -41.627622 
L 185.343518 -41.627622 
L 184.549579 -41.627622 
L 183.75564 -41.627622 
L 182.961701 -41.627622 
L 182.167762 -41.627622 
L 181.373822 -41.627622 
L 180.579883 -41.627622 
L 179.785944 -41.627622 
L 178.992005 -41.627622 
L 178.198066 -41.627622 
L 177.404127 -41.627622 
L 176.610188 -41.627622 
L 175.816249 -41.627622 
L 175.02231 -41.627622 
L 174.228371 -41.627622 
L 173.434432 -41.627622 
L 172.640493 -41.627622 
L 171.846554 -41.627622 
L 171.052615 -41.627622 
L 170.258676 -41.627622 
L 169.464737 -41.627622 
L 168.670798 -41.627622 
L 167.876859 -41.627622 
L 167.08292 -41.627622 
L 166.28898 -41.627622 
L 165.495041 -41.627622 
L 164.701102 -41.627622 
L 163.907163 -41.627622 
L 163.113224 -41.627622 
L 162.319285 -41.627622 
L 161.525346 -41.627622 
L 160.731407 -41.627622 
L 159.937468 -41.627622 
L 159.143529 -41.627622 
L 158.34959 -41.627622 
L 157.555651 -41.627622 
L 156.761712 -41.627622 
L 155.967773 -41.627622 
L 155.173834 -41.627622 
L 154.379895 -41.627622 
L 153.585956 -41.627622 
L 152.792017 -41.627622 
L 151.998078 -41.627622 
L 151.204139 -41.627622 
L 150.410199 -41.627622 
L 149.61626 -41.627622 
L 148.822321 -41.627622 
L 148.028382 -41.627622 
L 147.234443 -41.627622 
L 146.440504 -41.627622 
L 145.646565 -41.627622 
L 144.852626 -41.627622 
L 144.058687 -41.627622 
L 143.264748 -41.627622 
L 142.470809 -41.627622 
L 141.67687 -41.627622 
L 140.882931 -41.627622 
L 140.088992 -41.627622 
L 139.295053 -41.627622 
L 138.501114 -41.627622 
L 137.707175 -41.627622 
L 136.913236 -41.627622 
L 136.119297 -41.627622 
L 135.325358 -41.627622 
L 134.531418 -41.627622 
L 133.737479 -41.627622 
L 132.94354 -41.627622 
L 132.149601 -41.627622 
L 131.355662 -41.627622 
L 130.561723 -41.627622 
L 129.767784 -41.627622 
L 128.973845 -41.627622 
L 128.179906 -41.627622 
L 127.385967 -41.627622 
L 126.592028 -41.627622 
L 125.798089 -41.627622 
L 125.00415 -41.627622 
L 124.210211 -41.627622 
L 123.416272 -41.627622 
L 122.622333 -41.627622 
L 121.828394 -41.627622 
L 121.034455 -41.627622 
L 120.240516 -41.627622 
L 119.446576 -41.627622 
L 118.652637 -41.627622 
L 117.858698 -41.627622 
L 117.064759 -41.627622 
L 116.27082 -41.627622 
L 115.476881 -41.627622 
L 114.682942 -41.627622 
L 113.889003 -41.627622 
L 113.095064 -41.627622 
L 112.301125 -41.627622 
L 111.507186 -41.627622 
L 110.713247 -41.627622 
L 109.919308 -41.627622 
L 109.125369 -41.627622 
L 108.33143 -41.627622 
L 107.537491 -41.627622 
L 106.743552 -41.627622 
L 105.949613 -41.627622 
L 105.155674 -41.627622 
L 104.361735 -41.627622 
L 103.567795 -41.627622 
L 102.773856 -41.627622 
L 101.979917 -41.627622 
L 101.185978 -41.627622 
L 100.392039 -41.627622 
L 99.5981 -41.627622 
L 98.804161 -41.627622 
L 98.010222 -41.627622 
L 97.216283 -41.627622 
L 96.422344 -41.627622 
L 95.628405 -41.627622 
L 94.834466 -41.627622 
L 94.040527 -41.627622 
L 93.246588 -41.627622 
L 92.452649 -41.627622 
L 91.65871 -41.627622 
L 90.864771 -41.627622 
L 90.070832 -41.627622 
L 89.276893 -41.627622 
L 88.482954 -41.627622 
L 87.689014 -41.627622 
L 86.895075 -41.627622 
L 86.101136 -41.627622 
L 85.307197 -41.627622 
L 84.513258 -41.627622 
L 83.719319 -41.627622 
L 82.92538 -41.627622 
L 82.131441 -41.627622 
L 81.337502 -41.627622 
L 80.543563 -41.627622 
L 79.749624 -41.627622 
L 78.955685 -41.627622 
z
" style="stroke: #2a2eec; stroke-opacity: 0; stroke-width: 0.8"/>
    </defs>
    <g clip-path="url(#p042cc39d24)">
     <use xlink:href="#mcde043dbd2" x="0" y="368.39952" style="fill: #2a2eec; fill-opacity: 0; stroke: #2a2eec; stroke-opacity: 0; stroke-width: 0.8"/>
    </g>
   </g>
   <g id="line2d_17">
    <path d="M 78.955685 322.695534 
L 85.307197 322.558103 
L 91.65871 322.140792 
L 97.216283 321.476272 
L 101.979917 320.657085 
L 106.743552 319.537395 
L 110.713247 318.341529 
L 113.889003 317.163343 
L 116.27082 316.078336 
L 118.652637 314.844252 
L 121.034455 313.411325 
L 124.210211 311.17759 
L 126.592028 309.280328 
L 130.561723 305.765735 
L 134.531418 301.992685 
L 139.295053 297.224253 
L 145.646565 290.347419 
L 148.822321 286.456725 
L 151.204139 283.209566 
L 153.585956 279.574235 
L 155.967773 275.576804 
L 159.143529 269.630926 
L 162.319285 263.009332 
L 164.701102 257.636086 
L 167.876859 250.045193 
L 173.434432 236.011151 
L 191.69503 189.229126 
L 202.016238 164.213419 
L 219.482897 123.673449 
L 222.658653 116.706556 
L 226.628348 108.574825 
L 229.804105 102.517654 
L 239.331373 84.697518 
L 243.301068 76.199475 
L 246.476825 68.786156 
L 253.622276 51.858965 
L 256.004093 47.1474 
L 257.591971 44.508037 
L 259.179849 42.331151 
L 260.767728 40.725838 
L 262.355606 39.72961 
L 263.149545 39.452629 
L 263.943484 39.328298 
L 264.737423 39.417891 
L 265.531362 39.651132 
L 266.325301 40.008847 
L 267.913179 41.199576 
L 269.501057 42.863785 
L 271.088935 45.036212 
L 272.676813 47.559262 
L 275.05863 51.812074 
L 277.440448 56.282179 
L 290.937411 82.277293 
L 293.319229 87.615371 
L 295.701046 93.606183 
L 297.288924 97.988782 
L 300.46468 107.735424 
L 303.640436 118.584448 
L 313.167705 152.32007 
L 315.549522 159.887707 
L 317.931339 166.81782 
L 320.313156 173.100158 
L 322.694974 178.72442 
L 325.076791 183.782973 
L 328.252547 189.84767 
L 330.634364 194.091772 
L 338.573755 207.903212 
L 343.337389 217.164914 
L 347.307084 225.542526 
L 356.834353 246.061764 
L 360.804048 253.717183 
L 363.979804 259.388491 
L 367.15556 264.67818 
L 371.919195 272.190917 
L 379.858585 284.148988 
L 383.034341 288.621131 
L 386.210098 292.720135 
L 388.591915 295.554489 
L 391.767671 298.933095 
L 395.737366 302.635884 
L 398.913122 305.284102 
L 404.470696 309.497419 
L 408.440391 312.225795 
L 413.204025 315.158098 
L 416.379781 316.837642 
L 420.349477 318.567654 
L 423.525233 319.687704 
L 428.288867 321.050134 
L 435.434319 322.749199 
L 444.167648 324.516013 
L 447.343404 325.023949 
L 452.107039 325.557381 
L 456.076734 325.787764 
L 460.840368 325.831912 
L 466.397942 325.628513 
L 482.276723 324.843198 
L 484.65854 324.817387 
L 484.65854 324.817387 
" clip-path="url(#p042cc39d24)" style="fill: none; stroke: #2a2eec; stroke-width: 3.227486; stroke-linecap: round"/>
   </g>
   <g id="line2d_18">
    <path d="M 161.104935 320.61507 
L 377.092993 320.61507 
" clip-path="url(#p042cc39d24)" style="fill: none; stroke: #000000; stroke-width: 6.454972"/>
   </g>
   <g id="patch_3">
    <path d="M 16.613501 341.144078 
L 567.786019 341.144078 
" style="fill: none"/>
   </g>
   <g id="text_9">
    <!-- 0.77  -->
    <g style="fill: #262626" transform="translate(128.830073 305.223) scale(0.161374 -0.161374)">
     <defs>
      <path id="STIXGeneral-Regular-37" d="M 2874 4134 
L 1517 -51 
L 1101 -51 
L 2368 3763 
L 992 3763 
Q 717 3763 582 3667 
Q 448 3571 243 3238 
L 128 3296 
L 512 4237 
L 2874 4237 
L 2874 4134 
z
" transform="scale(0.015625)"/>
      <path id="STIXGeneral-Regular-20" transform="scale(0.015625)"/>
     </defs>
     <use xlink:href="#STIXGeneral-Regular-30"/>
     <use xlink:href="#STIXGeneral-Regular-2e" x="49.999985"/>
     <use xlink:href="#STIXGeneral-Regular-37" x="74.999969"/>
     <use xlink:href="#STIXGeneral-Regular-37" x="124.999954"/>
     <use xlink:href="#STIXGeneral-Regular-20" x="174.999939"/>
    </g>
   </g>
   <g id="text_10">
    <!--  1.3 -->
    <g style="fill: #262626" transform="translate(377.092993 305.223) scale(0.161374 -0.161374)">
     <defs>
      <path id="STIXGeneral-Regular-33" d="M 390 3264 
L 288 3290 
Q 435 3770 748 4048 
Q 1062 4326 1542 4326 
Q 1990 4326 2265 4083 
Q 2541 3840 2541 3450 
Q 2541 2925 1946 2566 
Q 2298 2413 2477 2227 
Q 2758 1914 2758 1402 
Q 2758 890 2464 506 
Q 2246 211 1840 60 
Q 1434 -90 979 -90 
Q 262 -90 262 275 
Q 262 378 339 442 
Q 416 506 525 506 
Q 685 506 915 339 
Q 1197 141 1466 141 
Q 1818 141 2058 425 
Q 2298 710 2298 1120 
Q 2298 1856 1632 2048 
Q 1434 2112 979 2112 
L 979 2202 
Q 1338 2323 1517 2432 
Q 2035 2726 2035 3290 
Q 2035 3610 1852 3776 
Q 1670 3942 1344 3942 
Q 768 3942 390 3264 
z
" transform="scale(0.015625)"/>
     </defs>
     <use xlink:href="#STIXGeneral-Regular-20"/>
     <use xlink:href="#STIXGeneral-Regular-31" x="24.999985"/>
     <use xlink:href="#STIXGeneral-Regular-2e" x="74.999969"/>
     <use xlink:href="#STIXGeneral-Regular-33" x="99.999954"/>
    </g>
   </g>
   <g id="text_11">
    <!-- 94% HDI -->
    <g style="fill: #262626" transform="translate(238.647128 234.419479) scale(0.161374 -0.161374)">
     <defs>
      <path id="STIXGeneral-Regular-39" d="M 378 -141 
L 358 -13 
Q 1094 115 1603 608 
Q 2112 1101 2304 1882 
Q 1933 1517 1344 1517 
Q 826 1517 509 1875 
Q 192 2234 192 2816 
Q 192 3462 573 3894 
Q 954 4326 1523 4326 
Q 2131 4326 2528 3840 
Q 2938 3328 2938 2522 
Q 2938 1958 2742 1462 
Q 2547 966 2170 621 
Q 1773 262 1395 105 
Q 1018 -51 378 -141 
z
M 2317 2272 
L 2317 2522 
Q 2317 4147 1472 4147 
Q 1171 4147 1005 3930 
Q 909 3802 845 3546 
Q 781 3290 781 3034 
Q 781 2464 995 2128 
Q 1210 1792 1568 1792 
Q 1824 1792 2070 1917 
Q 2317 2042 2317 2272 
z
" transform="scale(0.015625)"/>
      <path id="STIXGeneral-Regular-25" d="M 4390 1363 
Q 4390 781 4070 329 
Q 3750 -122 3341 -122 
Q 3014 -122 2790 134 
Q 2566 390 2566 762 
Q 2566 1274 2940 1693 
Q 3315 2112 3776 2112 
Q 4070 2112 4230 1917 
Q 4390 1722 4390 1363 
z
M 4243 1376 
Q 4243 1626 4131 1779 
Q 4019 1933 3840 1933 
Q 3654 1933 3526 1786 
Q 3315 1562 3171 1187 
Q 3027 813 3027 486 
Q 3027 301 3129 176 
Q 3232 51 3386 51 
Q 3718 51 3980 457 
Q 4243 864 4243 1376 
z
M 3974 4518 
L 1222 -115 
L 922 -115 
L 3443 4096 
Q 3264 3891 3094 3811 
Q 2925 3731 2669 3731 
Q 2445 3731 2182 3821 
Q 2208 3674 2208 3539 
Q 2208 3206 2067 2873 
Q 1926 2541 1696 2323 
Q 1453 2086 1146 2086 
Q 826 2086 608 2339 
Q 390 2592 390 2963 
Q 390 3507 761 3916 
Q 1133 4326 1626 4326 
Q 1792 4326 2010 4147 
Q 2310 3898 2624 3898 
Q 2918 3898 3084 3994 
Q 3251 4090 3693 4518 
L 3974 4518 
z
M 2054 3642 
Q 2054 3782 2025 3833 
Q 1997 3885 1894 3936 
Q 1747 4006 1613 4154 
Q 1414 4058 1331 3984 
Q 1248 3910 1152 3750 
Q 845 3264 845 2707 
Q 845 2509 944 2384 
Q 1043 2259 1210 2259 
Q 1549 2259 1801 2675 
Q 2054 3091 2054 3642 
z
" transform="scale(0.015625)"/>
      <path id="STIXGeneral-Regular-48" d="M 4499 0 
L 2714 0 
L 2714 122 
Q 3085 147 3181 265 
Q 3277 384 3277 794 
L 3277 2016 
L 1338 2016 
L 1338 723 
Q 1338 371 1440 256 
Q 1542 141 1894 122 
L 1901 0 
L 115 0 
L 115 122 
Q 493 147 589 259 
Q 685 371 685 781 
L 685 3507 
Q 685 3878 585 3980 
Q 486 4083 115 4115 
L 115 4237 
L 1907 4237 
L 1907 4115 
Q 1549 4083 1443 3977 
Q 1338 3872 1338 3507 
L 1338 2298 
L 3277 2298 
L 3277 3507 
Q 3277 3878 3177 3980 
Q 3078 4083 2707 4115 
L 2707 4237 
L 4499 4237 
L 4499 4115 
Q 4141 4083 4035 3977 
Q 3930 3872 3930 3507 
L 3930 710 
Q 3930 371 4035 259 
Q 4141 147 4499 122 
L 4499 0 
z
" transform="scale(0.015625)"/>
      <path id="STIXGeneral-Regular-44" d="M 102 4237 
L 1830 4237 
Q 3078 4237 3750 3654 
Q 4384 3110 4384 2138 
Q 4384 966 3514 410 
Q 2880 0 1901 0 
L 102 0 
L 102 122 
Q 474 147 570 252 
Q 666 358 666 736 
L 666 3520 
Q 666 3891 570 3990 
Q 474 4090 102 4115 
L 102 4237 
z
M 1318 3731 
L 1318 538 
Q 1318 365 1379 301 
Q 1440 237 1626 237 
Q 2125 237 2432 307 
Q 2739 378 3021 570 
Q 3686 1018 3686 2099 
Q 3686 3027 3078 3558 
Q 2803 3802 2476 3901 
Q 2150 4000 1658 4000 
Q 1472 4000 1395 3942 
Q 1318 3885 1318 3731 
z
" transform="scale(0.015625)"/>
      <path id="STIXGeneral-Regular-49" d="M 2016 0 
L 115 0 
L 115 122 
Q 518 134 627 240 
Q 736 346 736 717 
L 736 3526 
Q 736 3898 633 3994 
Q 531 4090 115 4115 
L 115 4237 
L 2016 4237 
L 2016 4115 
Q 1613 4096 1501 3993 
Q 1389 3891 1389 3526 
L 1389 717 
Q 1389 358 1504 246 
Q 1619 134 2016 122 
L 2016 0 
z
" transform="scale(0.015625)"/>
     </defs>
     <use xlink:href="#STIXGeneral-Regular-39"/>
     <use xlink:href="#STIXGeneral-Regular-34" x="49.999985"/>
     <use xlink:href="#STIXGeneral-Regular-25" x="99.999969"/>
     <use xlink:href="#STIXGeneral-Regular-20" x="174.699951"/>
     <use xlink:href="#STIXGeneral-Regular-48" x="199.699936"/>
     <use xlink:href="#STIXGeneral-Regular-44" x="271.899918"/>
     <use xlink:href="#STIXGeneral-Regular-49" x="344.099899"/>
    </g>
   </g>
   <g id="text_12">
    <!-- mean=1 -->
    <g style="fill: #262626" transform="translate(236.299965 80.498779) scale(0.161374 -0.161374)">
     <defs>
      <path id="STIXGeneral-Regular-6d" d="M 4960 0 
L 3565 0 
L 3565 96 
Q 3834 122 3907 208 
Q 3981 294 3981 576 
L 3981 1894 
Q 3981 2278 3869 2444 
Q 3757 2611 3488 2611 
Q 3264 2611 3107 2521 
Q 2950 2432 2803 2221 
L 2803 608 
Q 2803 301 2896 201 
Q 2989 102 3264 96 
L 3264 0 
L 1830 0 
L 1830 96 
Q 2112 115 2189 188 
Q 2266 262 2266 550 
L 2266 1901 
Q 2266 2611 1850 2611 
Q 1670 2611 1468 2531 
Q 1267 2451 1171 2336 
Q 1088 2240 1088 2227 
L 1088 448 
Q 1088 243 1177 176 
Q 1267 109 1523 96 
L 1523 0 
L 102 0 
L 102 96 
Q 371 102 460 195 
Q 550 288 550 563 
L 550 2150 
Q 550 2387 499 2480 
Q 448 2573 326 2573 
Q 230 2573 122 2547 
L 122 2656 
Q 557 2778 1011 2944 
L 1062 2925 
L 1062 2451 
L 1075 2451 
Q 1363 2752 1584 2848 
Q 1805 2944 2054 2944 
Q 2560 2944 2733 2406 
Q 3232 2944 3776 2944 
Q 4518 2944 4518 1792 
L 4518 493 
Q 4518 282 4582 202 
Q 4646 122 4794 109 
L 4960 96 
L 4960 0 
z
" transform="scale(0.015625)"/>
      <path id="STIXGeneral-Regular-65" d="M 2611 1050 
L 2714 1005 
Q 2330 -64 1376 -64 
Q 813 -64 486 329 
Q 160 723 160 1389 
Q 160 2074 525 2509 
Q 890 2944 1485 2944 
Q 2061 2944 2374 2502 
Q 2560 2246 2592 1773 
L 621 1773 
Q 646 1370 700 1158 
Q 755 947 915 730 
Q 1184 378 1626 378 
Q 1939 378 2153 531 
Q 2368 685 2611 1050 
z
M 634 1978 
L 1939 1978 
Q 1882 2381 1750 2547 
Q 1619 2714 1312 2714 
Q 1043 2714 864 2525 
Q 685 2336 634 1978 
z
" transform="scale(0.015625)"/>
      <path id="STIXGeneral-Regular-61" d="M 2829 422 
L 2829 243 
Q 2586 -64 2253 -64 
Q 1888 -64 1843 403 
L 1837 403 
Q 1427 -64 909 -64 
Q 608 -64 422 112 
Q 237 288 237 602 
Q 237 1050 685 1350 
Q 992 1555 1837 1869 
L 1837 2214 
Q 1837 2502 1699 2646 
Q 1562 2790 1338 2790 
Q 1146 2790 1018 2697 
Q 890 2605 890 2477 
Q 890 2419 909 2348 
Q 928 2278 928 2208 
Q 928 2112 841 2029 
Q 755 1946 634 1946 
Q 525 1946 441 2029 
Q 358 2112 358 2240 
Q 358 2547 685 2752 
Q 986 2944 1421 2944 
Q 1939 2944 2176 2656 
Q 2291 2522 2323 2384 
Q 2355 2246 2355 1946 
L 2355 723 
Q 2355 301 2554 301 
Q 2682 301 2829 422 
z
M 1837 813 
L 1837 1715 
Q 1248 1510 1018 1293 
Q 800 1094 800 800 
Q 800 557 921 432 
Q 1043 307 1242 307 
Q 1453 307 1613 410 
Q 1747 506 1792 589 
Q 1837 672 1837 813 
z
" transform="scale(0.015625)"/>
      <path id="STIXGeneral-Regular-6e" d="M 3104 0 
L 1773 0 
L 1779 96 
Q 2016 115 2096 233 
Q 2176 352 2176 672 
L 2176 1946 
Q 2176 2592 1709 2592 
Q 1549 2592 1408 2515 
Q 1267 2438 1050 2227 
L 1050 461 
Q 1050 269 1136 192 
Q 1222 115 1466 96 
L 1466 0 
L 115 0 
L 115 96 
Q 358 115 435 214 
Q 512 314 512 602 
L 512 2157 
Q 512 2394 467 2483 
Q 422 2573 288 2573 
Q 160 2573 102 2547 
L 102 2656 
Q 550 2784 979 2944 
L 1030 2925 
L 1030 2426 
L 1037 2426 
Q 1491 2944 1958 2944 
Q 2323 2944 2518 2688 
Q 2714 2432 2714 1958 
L 2714 544 
Q 2714 288 2790 205 
Q 2867 122 3104 96 
L 3104 0 
z
" transform="scale(0.015625)"/>
      <path id="STIXGeneral-Regular-3d" d="M 4077 2048 
L 307 2048 
L 307 2470 
L 4077 2470 
L 4077 2048 
z
M 4077 768 
L 307 768 
L 307 1190 
L 4077 1190 
L 4077 768 
z
" transform="scale(0.015625)"/>
     </defs>
     <use xlink:href="#STIXGeneral-Regular-6d"/>
     <use xlink:href="#STIXGeneral-Regular-65" x="77.799988"/>
     <use xlink:href="#STIXGeneral-Regular-61" x="122.199982"/>
     <use xlink:href="#STIXGeneral-Regular-6e" x="166.599976"/>
     <use xlink:href="#STIXGeneral-Regular-3d" x="216.59996"/>
     <use xlink:href="#STIXGeneral-Regular-31" x="285.099945"/>
    </g>
   </g>
   <g id="text_13">
    <!-- alpha -->
    <g style="fill: #262626" transform="translate(16.613501 18.956118) scale(0.172133 -0.172133)">
     <defs>
      <path id="STIXGeneral-Regular-6c" d="M 1645 0 
L 134 0 
L 134 96 
Q 435 122 531 221 
Q 627 320 627 589 
L 627 3590 
Q 627 3821 569 3910 
Q 512 4000 358 4000 
Q 224 4000 122 3987 
L 122 4090 
Q 730 4237 1133 4371 
L 1165 4346 
L 1165 557 
Q 1165 288 1254 201 
Q 1344 115 1645 96 
L 1645 0 
z
" transform="scale(0.015625)"/>
      <path id="STIXGeneral-Regular-70" d="M 1018 2931 
L 1018 2438 
Q 1421 2944 1939 2944 
Q 2406 2944 2707 2560 
Q 3008 2176 3008 1581 
Q 3008 883 2621 409 
Q 2234 -64 1664 -64 
Q 1466 -64 1328 -6 
Q 1190 51 1018 211 
L 1018 -794 
Q 1018 -1094 1120 -1180 
Q 1222 -1267 1581 -1274 
L 1581 -1389 
L 32 -1389 
L 32 -1280 
Q 314 -1254 397 -1171 
Q 480 -1088 480 -838 
L 480 2157 
Q 480 2381 429 2451 
Q 378 2522 218 2522 
Q 115 2522 58 2515 
L 58 2618 
Q 506 2752 979 2944 
L 1018 2931 
z
M 1018 2138 
L 1018 563 
Q 1018 422 1238 281 
Q 1459 141 1683 141 
Q 2029 141 2243 467 
Q 2458 794 2458 1325 
Q 2458 1888 2243 2224 
Q 2029 2560 1670 2560 
Q 1446 2560 1232 2419 
Q 1018 2278 1018 2138 
z
" transform="scale(0.015625)"/>
      <path id="STIXGeneral-Regular-68" d="M 3117 0 
L 1760 0 
L 1760 96 
Q 2042 128 2118 224 
Q 2195 320 2195 653 
L 2195 1920 
Q 2195 2598 1722 2598 
Q 1530 2598 1370 2508 
Q 1210 2419 1005 2195 
L 1005 653 
Q 1005 320 1081 224 
Q 1158 128 1440 96 
L 1440 0 
L 58 0 
L 58 96 
Q 333 134 400 224 
Q 467 314 467 653 
L 467 3667 
Q 467 3872 406 3933 
Q 346 3994 141 3994 
Q 83 3994 64 3987 
L 64 4090 
L 237 4141 
Q 730 4288 973 4371 
L 1005 4352 
L 1005 2406 
Q 1229 2694 1446 2819 
Q 1664 2944 1946 2944 
Q 2733 2944 2733 1926 
L 2733 653 
Q 2733 320 2793 233 
Q 2854 147 3117 96 
L 3117 0 
z
" transform="scale(0.015625)"/>
     </defs>
     <use xlink:href="#STIXGeneral-Regular-61"/>
     <use xlink:href="#STIXGeneral-Regular-6c" x="44.399994"/>
     <use xlink:href="#STIXGeneral-Regular-70" x="72.199982"/>
     <use xlink:href="#STIXGeneral-Regular-68" x="122.199966"/>
     <use xlink:href="#STIXGeneral-Regular-61" x="172.199951"/>
    </g>
   </g>
  </g>
 </g>
 <defs>
  <clipPath id="p042cc39d24">
   <rect x="16.613501" y="24.956118" width="551.172518" height="316.18796"/>
  </clipPath>
 </defs>
</svg>