<?xml version="1.0" encoding="utf-8" standalone="no"?>
<!DOCTYPE svg PUBLIC "-//W3C//DTD SVG 1.1//EN"
  "http://www.w3.org/Graphics/SVG/1.1/DTD/svg11.dtd">
<svg xmlns:xlink="http://www.w3.org/1999/xlink" width="589.1275pt" height="274.96pt" viewBox="0 0 589.1275 274.96" xmlns="http://www.w3.org/2000/svg" version="1.1">
 <metadata>
  <rdf:RDF xmlns:dc="http://purl.org/dc/elements/1.1/" xmlns:cc="http://creativecommons.org/ns#" xmlns:rdf="http://www.w3.org/1999/02/22-rdf-syntax-ns#">
   <cc:Work>
    <dc:type rdf:resource="http://purl.org/dc/dcmitype/StillImage"/>
    <dc:date>2025-03-26T16:06:33.588472</dc:date>
    <dc:format>image/svg+xml</dc:format>
    <dc:creator>
     <cc:Agent>
      <dc:title>Matplotlib v3.10.0, https://matplotlib.org/</dc:title>
     </cc:Agent>
    </dc:creator>
   </cc:Work>
  </rdf:RDF>
 </metadata>
 <defs>
  <style type="text/css">*{stroke-linejoin: round; stroke-linecap: butt}</style>
 </defs>
 <g id="figure_1">
  <g id="patch_1">
   <path d="M 0 274.96 
L 589.1275 274.96 
L 589.1275 0 
L 0 0 
z
" style="fill: #ffffff"/>
  </g>
  <g id="axes_1">
   <g id="patch_2">
    <path d="M 119.5275 228.96 
L 565.9275 228.96 
L 565.9275 7.2 
L 119.5275 7.2 
z
" style="fill: #ffffff"/>
   </g>
   <g id="patch_3">
    <path d="M 119.5275 178.371 
L 281.942696 178.371 
L 281.942696 168.669 
L 119.5275 168.669 
z
" clip-path="url(#p4f1d5d82d7)" style="fill: #bc80bd; stroke: #000000; stroke-width: 0.8; stroke-linejoin: miter"/>
   </g>
   <g id="patch_4">
    <path d="M 119.5275 150.651 
L 232.218699 150.651 
L 232.218699 140.949 
L 119.5275 140.949 
z
" clip-path="url(#p4f1d5d82d7)" style="fill: #bc80bd; stroke: #000000; stroke-width: 0.8; stroke-linejoin: miter"/>
   </g>
   <g id="patch_5">
    <path d="M 119.5275 122.931 
L 227.605906 122.931 
L 227.605906 113.229 
L 119.5275 113.229 
z
" clip-path="url(#p4f1d5d82d7)" style="fill: #bc80bd; stroke: #000000; stroke-width: 0.8; stroke-linejoin: miter"/>
   </g>
   <g id="patch_6">
    <path d="M 119.5275 95.211 
L 228.473909 95.211 
L 228.473909 85.509 
L 119.5275 85.509 
z
" clip-path="url(#p4f1d5d82d7)" style="fill: #bc80bd; stroke: #000000; stroke-width: 0.8; stroke-linejoin: miter"/>
   </g>
   <g id="patch_7">
    <path d="M 119.5275 67.491 
L 252.802698 67.491 
L 252.802698 57.789 
L 119.5275 57.789 
z
" clip-path="url(#p4f1d5d82d7)" style="fill: #bc80bd; stroke: #000000; stroke-width: 0.8; stroke-linejoin: miter"/>
   </g>
   <g id="patch_8">
    <path d="M 119.5275 39.771 
L 321.697098 39.771 
L 321.697098 30.069 
L 119.5275 30.069 
z
" clip-path="url(#p4f1d5d82d7)" style="fill: #bc80bd; stroke: #000000; stroke-width: 0.8; stroke-linejoin: miter"/>
   </g>
   <g id="patch_9">
    <path d="M 281.942696 178.371 
L 397.932289 178.371 
L 397.932289 168.669 
L 281.942696 168.669 
z
" clip-path="url(#p4f1d5d82d7)" style="fill: #fb8072; stroke: #000000; stroke-width: 0.8; stroke-linejoin: miter"/>
   </g>
   <g id="patch_10">
    <path d="M 232.218699 150.651 
L 327.822702 150.651 
L 327.822702 140.949 
L 232.218699 140.949 
z
" clip-path="url(#p4f1d5d82d7)" style="fill: #fb8072; stroke: #000000; stroke-width: 0.8; stroke-linejoin: miter"/>
   </g>
   <g id="patch_11">
    <path d="M 227.605906 122.931 
L 305.019102 122.931 
L 305.019102 113.229 
L 227.605906 113.229 
z
" clip-path="url(#p4f1d5d82d7)" style="fill: #fb8072; stroke: #000000; stroke-width: 0.8; stroke-linejoin: miter"/>
   </g>
   <g id="patch_12">
    <path d="M 228.473909 95.211 
L 382.903504 95.211 
L 382.903504 85.509 
L 228.473909 85.509 
z
" clip-path="url(#p4f1d5d82d7)" style="fill: #fb8072; stroke: #000000; stroke-width: 0.8; stroke-linejoin: miter"/>
   </g>
   <g id="patch_13">
    <path d="M 252.802698 67.491 
L 362.567506 67.491 
L 362.567506 57.789 
L 252.802698 57.789 
z
" clip-path="url(#p4f1d5d82d7)" style="fill: #fb8072; stroke: #000000; stroke-width: 0.8; stroke-linejoin: miter"/>
   </g>
   <g id="patch_14">
    <path d="M 321.697098 39.771 
L 477.453486 39.771 
L 477.453486 30.069 
L 321.697098 30.069 
z
" clip-path="url(#p4f1d5d82d7)" style="fill: #fb8072; stroke: #000000; stroke-width: 0.8; stroke-linejoin: miter"/>
   </g>
   <g id="matplotlib.axis_1">
    <g id="xtick_1">
     <g id="line2d_1">
      <defs>
       <path id="m8d448083e6" d="M 0 0 
L 0 3.5 
" style="stroke: #323034; stroke-width: 0.8"/>
      </defs>
      <g>
       <use xlink:href="#m8d448083e6" x="119.5275" y="228.96" style="fill: #323034; stroke: #323034; stroke-width: 0.8"/>
      </g>
     </g>
     <g id="text_1">
      <!-- $\mathdefault{0}$ -->
      <g style="fill: #323034" transform="translate(115.5275 246.8875) scale(0.16 -0.16)">
       <defs>
        <path id="STIXGeneral-Regular-30" d="M 3046 2112 
Q 3046 1683 2963 1302 
Q 2880 922 2717 602 
Q 2554 282 2266 96 
Q 1978 -90 1600 -90 
Q 1210 -90 915 108 
Q 621 307 461 640 
Q 301 973 227 1350 
Q 154 1728 154 2150 
Q 154 2746 301 3222 
Q 448 3699 790 4012 
Q 1133 4326 1626 4326 
Q 2253 4326 2649 3712 
Q 3046 3098 3046 2112 
z
M 2432 2080 
Q 2432 3091 2217 3625 
Q 2003 4160 1587 4160 
Q 1190 4160 979 3622 
Q 768 3085 768 2106 
Q 768 1120 979 598 
Q 1190 77 1600 77 
Q 2003 77 2217 598 
Q 2432 1120 2432 2080 
z
" transform="scale(0.015625)"/>
       </defs>
       <use xlink:href="#STIXGeneral-Regular-30" transform="translate(0 0.40625)"/>
      </g>
     </g>
    </g>
    <g id="xtick_2">
     <g id="line2d_2">
      <g>
       <use xlink:href="#m8d448083e6" x="193.9275" y="228.96" style="fill: #323034; stroke: #323034; stroke-width: 0.8"/>
      </g>
     </g>
     <g id="text_2">
      <!-- $\mathdefault{200}$ -->
      <g style="fill: #323034" transform="translate(181.9275 246.8875) scale(0.16 -0.16)">
       <defs>
        <path id="STIXGeneral-Regular-32" d="M 3034 877 
L 2688 0 
L 186 0 
L 186 77 
L 1325 1286 
Q 1773 1754 1965 2144 
Q 2157 2534 2157 2950 
Q 2157 3379 1920 3616 
Q 1683 3853 1267 3853 
Q 922 3853 720 3673 
Q 518 3494 326 3021 
L 192 3053 
Q 301 3648 630 3987 
Q 960 4326 1523 4326 
Q 2054 4326 2380 4006 
Q 2707 3686 2707 3200 
Q 2707 2477 1888 1613 
L 832 486 
L 2330 486 
Q 2541 486 2665 569 
Q 2790 653 2944 915 
L 3034 877 
z
" transform="scale(0.015625)"/>
       </defs>
       <use xlink:href="#STIXGeneral-Regular-32" transform="translate(0 0.40625)"/>
       <use xlink:href="#STIXGeneral-Regular-30" transform="translate(49.999985 0.40625)"/>
       <use xlink:href="#STIXGeneral-Regular-30" transform="translate(99.999969 0.40625)"/>
      </g>
     </g>
    </g>
    <g id="xtick_3">
     <g id="line2d_3">
      <g>
       <use xlink:href="#m8d448083e6" x="268.3275" y="228.96" style="fill: #323034; stroke: #323034; stroke-width: 0.8"/>
      </g>
     </g>
     <g id="text_3">
      <!-- $\mathdefault{400}$ -->
      <g style="fill: #323034" transform="translate(256.3275 246.8875) scale(0.16 -0.16)">
       <defs>
        <path id="STIXGeneral-Regular-34" d="M 3027 1069 
L 2368 1069 
L 2368 0 
L 1869 0 
L 1869 1069 
L 77 1069 
L 77 1478 
L 2086 4326 
L 2368 4326 
L 2368 1478 
L 3027 1478 
L 3027 1069 
z
M 1869 1478 
L 1869 3674 
L 333 1478 
L 1869 1478 
z
" transform="scale(0.015625)"/>
       </defs>
       <use xlink:href="#STIXGeneral-Regular-34" transform="translate(0 0.40625)"/>
       <use xlink:href="#STIXGeneral-Regular-30" transform="translate(49.999985 0.40625)"/>
       <use xlink:href="#STIXGeneral-Regular-30" transform="translate(99.999969 0.40625)"/>
      </g>
     </g>
    </g>
    <g id="xtick_4">
     <g id="line2d_4">
      <g>
       <use xlink:href="#m8d448083e6" x="342.7275" y="228.96" style="fill: #323034; stroke: #323034; stroke-width: 0.8"/>
      </g>
     </g>
     <g id="text_4">
      <!-- $\mathdefault{600}$ -->
      <g style="fill: #323034" transform="translate(330.7275 246.8875) scale(0.16 -0.16)">
       <defs>
        <path id="STIXGeneral-Regular-36" d="M 2854 4378 
L 2867 4275 
Q 2112 4154 1606 3664 
Q 1101 3174 973 2451 
Q 1344 2739 1786 2739 
Q 2349 2739 2672 2380 
Q 2995 2022 2995 1402 
Q 2995 774 2669 378 
Q 2291 -90 1651 -90 
Q 870 -90 518 557 
Q 218 1107 218 1786 
Q 218 2835 915 3552 
Q 1312 3962 1731 4131 
Q 2150 4301 2854 4378 
z
M 2419 1203 
Q 2419 2445 1555 2445 
Q 1235 2445 1024 2275 
Q 813 2106 813 1702 
Q 813 954 1046 522 
Q 1280 90 1722 90 
Q 2061 90 2240 394 
Q 2419 698 2419 1203 
z
" transform="scale(0.015625)"/>
       </defs>
       <use xlink:href="#STIXGeneral-Regular-36" transform="translate(0 0.59375)"/>
       <use xlink:href="#STIXGeneral-Regular-30" transform="translate(49.999985 0.59375)"/>
       <use xlink:href="#STIXGeneral-Regular-30" transform="translate(99.999969 0.59375)"/>
      </g>
     </g>
    </g>
    <g id="xtick_5">
     <g id="line2d_5">
      <g>
       <use xlink:href="#m8d448083e6" x="417.1275" y="228.96" style="fill: #323034; stroke: #323034; stroke-width: 0.8"/>
      </g>
     </g>
     <g id="text_5">
      <!-- $\mathdefault{800}$ -->
      <g style="fill: #323034" transform="translate(405.1275 246.8875) scale(0.16 -0.16)">
       <defs>
        <path id="STIXGeneral-Regular-38" d="M 2848 992 
Q 2848 499 2505 204 
Q 2163 -90 1587 -90 
Q 1050 -90 704 204 
Q 358 499 358 954 
Q 358 1293 524 1533 
Q 691 1773 1190 2125 
Q 710 2522 553 2765 
Q 397 3008 397 3328 
Q 397 3782 745 4054 
Q 1094 4326 1638 4326 
Q 2106 4326 2410 4060 
Q 2714 3795 2714 3411 
Q 2714 3059 2531 2848 
Q 2349 2637 1856 2374 
Q 2432 1990 2640 1689 
Q 2848 1389 2848 992 
z
M 2272 3411 
Q 2272 3744 2086 3945 
Q 1901 4147 1574 4147 
Q 1248 4147 1059 3977 
Q 870 3808 870 3513 
Q 870 3219 1059 2979 
Q 1248 2739 1670 2490 
Q 1997 2682 2134 2896 
Q 2272 3110 2272 3411 
z
M 1734 1741 
L 1357 1997 
Q 1075 1766 960 1545 
Q 845 1325 845 1011 
Q 845 576 1065 333 
Q 1286 90 1658 90 
Q 1971 90 2166 285 
Q 2362 480 2362 794 
Q 2362 1082 2214 1299 
Q 2067 1517 1734 1741 
z
" transform="scale(0.015625)"/>
       </defs>
       <use xlink:href="#STIXGeneral-Regular-38" transform="translate(0 0.40625)"/>
       <use xlink:href="#STIXGeneral-Regular-30" transform="translate(49.999985 0.40625)"/>
       <use xlink:href="#STIXGeneral-Regular-30" transform="translate(99.999969 0.40625)"/>
      </g>
     </g>
    </g>
    <g id="xtick_6">
     <g id="line2d_6">
      <g>
       <use xlink:href="#m8d448083e6" x="491.5275" y="228.96" style="fill: #323034; stroke: #323034; stroke-width: 0.8"/>
      </g>
     </g>
     <g id="text_6">
      <!-- $\mathdefault{1000}$ -->
      <g style="fill: #323034" transform="translate(475.5275 246.8875) scale(0.16 -0.16)">
       <defs>
        <path id="STIXGeneral-Regular-31" d="M 2522 0 
L 755 0 
L 755 96 
Q 1107 115 1235 227 
Q 1363 339 1363 608 
L 1363 3482 
Q 1363 3795 1171 3795 
Q 1082 3795 883 3718 
L 710 3654 
L 710 3744 
L 1856 4326 
L 1914 4307 
L 1914 486 
Q 1914 275 2042 185 
Q 2170 96 2522 96 
L 2522 0 
z
" transform="scale(0.015625)"/>
       </defs>
       <use xlink:href="#STIXGeneral-Regular-31" transform="translate(0 0.40625)"/>
       <use xlink:href="#STIXGeneral-Regular-30" transform="translate(49.999985 0.40625)"/>
       <use xlink:href="#STIXGeneral-Regular-30" transform="translate(99.999969 0.40625)"/>
       <use xlink:href="#STIXGeneral-Regular-30" transform="translate(149.999954 0.40625)"/>
      </g>
     </g>
    </g>
    <g id="xtick_7">
     <g id="line2d_7">
      <g>
       <use xlink:href="#m8d448083e6" x="565.9275" y="228.96" style="fill: #323034; stroke: #323034; stroke-width: 0.8"/>
      </g>
     </g>
     <g id="text_7">
      <!-- $\mathdefault{1200}$ -->
      <g style="fill: #323034" transform="translate(549.9275 246.8875) scale(0.16 -0.16)">
       <use xlink:href="#STIXGeneral-Regular-31" transform="translate(0 0.40625)"/>
       <use xlink:href="#STIXGeneral-Regular-32" transform="translate(49.999985 0.40625)"/>
       <use xlink:href="#STIXGeneral-Regular-30" transform="translate(99.999969 0.40625)"/>
       <use xlink:href="#STIXGeneral-Regular-30" transform="translate(149.999954 0.40625)"/>
      </g>
     </g>
    </g>
    <g id="text_8">
     <!-- Yield -->
     <g transform="translate(324.95125 264.2875) scale(0.16 -0.16)">
      <defs>
       <path id="STIXGeneral-Regular-59" d="M 4499 4237 
L 4499 4115 
Q 4218 4090 4054 3955 
Q 3891 3821 3616 3398 
L 2669 1939 
L 2669 710 
Q 2669 346 2790 243 
Q 2912 141 3328 122 
L 3328 0 
L 1370 0 
L 1370 122 
Q 1805 154 1910 259 
Q 2016 365 2016 787 
L 2016 1882 
L 1178 3110 
Q 742 3750 556 3926 
Q 371 4102 141 4115 
L 141 4237 
L 1926 4237 
L 1926 4115 
L 1773 4109 
Q 1472 4102 1472 3942 
Q 1472 3808 1587 3642 
L 2522 2227 
L 3450 3648 
Q 3539 3782 3539 3917 
Q 3533 4026 3440 4067 
Q 3347 4109 3104 4115 
L 3104 4237 
L 4499 4237 
z
" transform="scale(0.015625)"/>
       <path id="STIXGeneral-Regular-69" d="M 1152 4045 
Q 1152 3904 1056 3811 
Q 960 3718 819 3718 
Q 685 3718 592 3811 
Q 499 3904 499 4045 
Q 499 4179 595 4275 
Q 691 4371 826 4371 
Q 966 4371 1059 4275 
Q 1152 4179 1152 4045 
z
M 1619 0 
L 102 0 
L 102 96 
Q 435 115 521 211 
Q 608 307 608 666 
L 608 2118 
Q 608 2342 563 2432 
Q 518 2522 397 2522 
Q 243 2522 128 2490 
L 128 2592 
L 1120 2944 
L 1146 2918 
L 1146 672 
Q 1146 314 1226 218 
Q 1306 122 1619 96 
L 1619 0 
z
" transform="scale(0.015625)"/>
       <path id="STIXGeneral-Regular-65" d="M 2611 1050 
L 2714 1005 
Q 2330 -64 1376 -64 
Q 813 -64 486 329 
Q 160 723 160 1389 
Q 160 2074 525 2509 
Q 890 2944 1485 2944 
Q 2061 2944 2374 2502 
Q 2560 2246 2592 1773 
L 621 1773 
Q 646 1370 700 1158 
Q 755 947 915 730 
Q 1184 378 1626 378 
Q 1939 378 2153 531 
Q 2368 685 2611 1050 
z
M 634 1978 
L 1939 1978 
Q 1882 2381 1750 2547 
Q 1619 2714 1312 2714 
Q 1043 2714 864 2525 
Q 685 2336 634 1978 
z
" transform="scale(0.015625)"/>
       <path id="STIXGeneral-Regular-6c" d="M 1645 0 
L 134 0 
L 134 96 
Q 435 122 531 221 
Q 627 320 627 589 
L 627 3590 
Q 627 3821 569 3910 
Q 512 4000 358 4000 
Q 224 4000 122 3987 
L 122 4090 
Q 730 4237 1133 4371 
L 1165 4346 
L 1165 557 
Q 1165 288 1254 201 
Q 1344 115 1645 96 
L 1645 0 
z
" transform="scale(0.015625)"/>
       <path id="STIXGeneral-Regular-64" d="M 3142 269 
L 2202 -64 
L 2176 -45 
L 2176 365 
Q 1869 -64 1357 -64 
Q 826 -64 499 317 
Q 173 698 173 1312 
Q 173 1990 563 2467 
Q 954 2944 1504 2944 
Q 1850 2944 2176 2669 
L 2176 3667 
Q 2176 3866 2118 3930 
Q 2061 3994 1882 3994 
Q 1792 3994 1741 3987 
L 1741 4090 
Q 2323 4243 2682 4371 
L 2714 4358 
L 2714 730 
Q 2714 506 2768 435 
Q 2822 365 2995 365 
Q 3034 365 3142 371 
L 3142 269 
z
M 2176 653 
L 2176 2125 
Q 2176 2381 1981 2573 
Q 1786 2765 1523 2765 
Q 1158 2765 940 2438 
Q 723 2112 723 1568 
Q 723 979 963 624 
Q 1203 269 1606 269 
Q 1907 269 2080 474 
Q 2176 582 2176 653 
z
" transform="scale(0.015625)"/>
      </defs>
      <use xlink:href="#STIXGeneral-Regular-59"/>
      <use xlink:href="#STIXGeneral-Regular-69" transform="translate(72.199982 0)"/>
      <use xlink:href="#STIXGeneral-Regular-65" transform="translate(99.999969 0)"/>
      <use xlink:href="#STIXGeneral-Regular-6c" transform="translate(144.399963 0)"/>
      <use xlink:href="#STIXGeneral-Regular-64" transform="translate(172.199951 0)"/>
     </g>
    </g>
   </g>
   <g id="matplotlib.axis_2">
    <g id="ytick_1">
     <g id="line2d_8">
      <defs>
       <path id="m8306a72ded" d="M 0 0 
L -3.5 0 
" style="stroke: #323034; stroke-width: 0.8"/>
      </defs>
      <g>
       <use xlink:href="#m8306a72ded" x="119.5275" y="173.52" style="fill: #323034; stroke: #323034; stroke-width: 0.8"/>
      </g>
     </g>
     <g id="text_9">
      <!-- Crookston -->
      <g style="fill: #323034" transform="translate(45.855 178.98375) scale(0.16 -0.16)">
       <defs>
        <path id="STIXGeneral-Regular-43" d="M 3930 838 
L 4051 723 
Q 3482 -90 2304 -90 
Q 1376 -90 794 480 
Q 179 1082 179 2080 
Q 179 3014 755 3661 
Q 1357 4326 2310 4326 
Q 2720 4326 3072 4230 
Q 3475 4115 3514 4115 
Q 3725 4115 3782 4326 
L 3910 4326 
L 3968 2874 
L 3821 2874 
Q 3718 3334 3488 3584 
Q 3034 4070 2458 4070 
Q 1747 4070 1334 3548 
Q 922 3027 922 2182 
Q 922 1152 1382 653 
Q 1811 192 2522 192 
Q 2944 192 3251 339 
Q 3558 486 3930 838 
z
" transform="scale(0.015625)"/>
        <path id="STIXGeneral-Regular-72" d="M 1024 2931 
L 1024 2342 
Q 1267 2688 1430 2816 
Q 1594 2944 1792 2944 
Q 1958 2944 2051 2854 
Q 2144 2765 2144 2605 
Q 2144 2470 2077 2393 
Q 2010 2317 1894 2317 
Q 1773 2317 1638 2445 
Q 1536 2541 1472 2541 
Q 1338 2541 1181 2355 
Q 1024 2170 1024 2016 
L 1024 576 
Q 1024 301 1133 205 
Q 1242 109 1568 96 
L 1568 0 
L 32 0 
L 32 96 
Q 339 154 412 224 
Q 486 294 486 538 
L 486 2138 
Q 486 2349 438 2435 
Q 390 2522 269 2522 
Q 166 2522 45 2496 
L 45 2598 
Q 448 2726 992 2944 
L 1024 2931 
z
" transform="scale(0.015625)"/>
        <path id="STIXGeneral-Regular-6f" d="M 3008 1478 
Q 3008 806 2608 371 
Q 2208 -64 1568 -64 
Q 979 -64 582 368 
Q 186 800 186 1459 
Q 186 2125 582 2534 
Q 979 2944 1626 2944 
Q 2221 2944 2614 2537 
Q 3008 2131 3008 1478 
z
M 2432 1306 
Q 2432 2035 2112 2445 
Q 1856 2765 1504 2765 
Q 1171 2765 966 2493 
Q 762 2221 762 1747 
Q 762 928 1101 435 
Q 1318 115 1677 115 
Q 2029 115 2230 432 
Q 2432 749 2432 1306 
z
" transform="scale(0.015625)"/>
        <path id="STIXGeneral-Regular-6b" d="M 3232 0 
L 1837 0 
L 1837 96 
L 1958 96 
Q 2093 96 2093 192 
Q 2093 250 2022 339 
L 1062 1606 
L 1062 429 
Q 1062 262 1142 185 
Q 1222 109 1414 102 
L 1542 96 
L 1542 0 
L 45 0 
L 45 96 
Q 390 154 457 214 
Q 525 275 525 525 
L 525 3610 
Q 525 3840 467 3920 
Q 410 4000 250 4000 
Q 211 4000 45 3987 
L 45 4090 
L 237 4141 
Q 621 4243 1037 4371 
L 1062 4358 
L 1062 1670 
L 1939 2451 
Q 2086 2586 2086 2675 
Q 2086 2739 2019 2761 
Q 1952 2784 1766 2790 
L 1766 2880 
L 3072 2880 
L 3072 2784 
Q 2752 2784 2505 2646 
Q 2259 2509 1690 1978 
L 1504 1805 
L 2483 563 
Q 2829 122 3232 96 
L 3232 0 
z
" transform="scale(0.015625)"/>
        <path id="STIXGeneral-Regular-73" d="M 998 1926 
L 1664 1523 
Q 1984 1331 2105 1164 
Q 2227 998 2227 736 
Q 2227 416 1961 176 
Q 1696 -64 1331 -64 
Q 1030 -64 864 -6 
Q 691 51 570 51 
Q 461 51 416 -26 
L 333 -26 
L 333 979 
L 435 979 
Q 538 512 730 294 
Q 922 77 1248 77 
Q 1485 77 1632 211 
Q 1779 346 1779 550 
Q 1779 845 1440 1030 
L 1094 1222 
Q 326 1651 326 2150 
Q 326 2522 566 2730 
Q 806 2938 1210 2938 
Q 1491 2938 1638 2867 
Q 1754 2816 1818 2816 
Q 1862 2816 1920 2880 
L 1990 2880 
L 2022 2010 
L 1926 2010 
Q 1818 2445 1654 2621 
Q 1491 2797 1203 2797 
Q 986 2797 854 2688 
Q 723 2579 723 2362 
Q 723 2253 796 2128 
Q 870 2003 998 1926 
z
" transform="scale(0.015625)"/>
        <path id="STIXGeneral-Regular-74" d="M 1702 493 
L 1786 422 
Q 1478 -64 1011 -64 
Q 448 -64 448 749 
L 448 2675 
L 109 2675 
Q 83 2694 83 2720 
Q 83 2771 192 2842 
Q 435 2982 813 3526 
Q 826 3546 874 3606 
Q 922 3667 941 3706 
Q 986 3706 986 3622 
L 986 2880 
L 1632 2880 
L 1632 2675 
L 986 2675 
L 986 845 
Q 986 538 1062 403 
Q 1139 269 1318 269 
Q 1510 269 1702 493 
z
" transform="scale(0.015625)"/>
        <path id="STIXGeneral-Regular-6e" d="M 3104 0 
L 1773 0 
L 1779 96 
Q 2016 115 2096 233 
Q 2176 352 2176 672 
L 2176 1946 
Q 2176 2592 1709 2592 
Q 1549 2592 1408 2515 
Q 1267 2438 1050 2227 
L 1050 461 
Q 1050 269 1136 192 
Q 1222 115 1466 96 
L 1466 0 
L 115 0 
L 115 96 
Q 358 115 435 214 
Q 512 314 512 602 
L 512 2157 
Q 512 2394 467 2483 
Q 422 2573 288 2573 
Q 160 2573 102 2547 
L 102 2656 
Q 550 2784 979 2944 
L 1030 2925 
L 1030 2426 
L 1037 2426 
Q 1491 2944 1958 2944 
Q 2323 2944 2518 2688 
Q 2714 2432 2714 1958 
L 2714 544 
Q 2714 288 2790 205 
Q 2867 122 3104 96 
L 3104 0 
z
" transform="scale(0.015625)"/>
       </defs>
       <use xlink:href="#STIXGeneral-Regular-43"/>
       <use xlink:href="#STIXGeneral-Regular-72" transform="translate(66.699997 0)"/>
       <use xlink:href="#STIXGeneral-Regular-6f" transform="translate(99.999985 0)"/>
       <use xlink:href="#STIXGeneral-Regular-6f" transform="translate(149.999969 0)"/>
       <use xlink:href="#STIXGeneral-Regular-6b" transform="translate(199.999954 0)"/>
       <use xlink:href="#STIXGeneral-Regular-73" transform="translate(249.999939 0)"/>
       <use xlink:href="#STIXGeneral-Regular-74" transform="translate(288.899933 0)"/>
       <use xlink:href="#STIXGeneral-Regular-6f" transform="translate(316.699921 0)"/>
       <use xlink:href="#STIXGeneral-Regular-6e" transform="translate(366.699905 0)"/>
      </g>
     </g>
    </g>
    <g id="ytick_2">
     <g id="line2d_9">
      <g>
       <use xlink:href="#m8306a72ded" x="119.5275" y="145.8" style="fill: #323034; stroke: #323034; stroke-width: 0.8"/>
      </g>
     </g>
     <g id="text_10">
      <!-- Duluth -->
      <g style="fill: #323034" transform="translate(68.08 151.26375) scale(0.16 -0.16)">
       <defs>
        <path id="STIXGeneral-Regular-44" d="M 102 4237 
L 1830 4237 
Q 3078 4237 3750 3654 
Q 4384 3110 4384 2138 
Q 4384 966 3514 410 
Q 2880 0 1901 0 
L 102 0 
L 102 122 
Q 474 147 570 252 
Q 666 358 666 736 
L 666 3520 
Q 666 3891 570 3990 
Q 474 4090 102 4115 
L 102 4237 
z
M 1318 3731 
L 1318 538 
Q 1318 365 1379 301 
Q 1440 237 1626 237 
Q 2125 237 2432 307 
Q 2739 378 3021 570 
Q 3686 1018 3686 2099 
Q 3686 3027 3078 3558 
Q 2803 3802 2476 3901 
Q 2150 4000 1658 4000 
Q 1472 4000 1395 3942 
Q 1318 3885 1318 3731 
z
" transform="scale(0.015625)"/>
        <path id="STIXGeneral-Regular-75" d="M 3072 320 
L 3072 230 
Q 2573 96 2195 -58 
L 2163 -38 
L 2163 486 
L 2150 486 
Q 1747 -64 1235 -64 
Q 870 -64 662 160 
Q 454 384 454 755 
L 454 2362 
Q 454 2598 371 2688 
Q 288 2778 58 2790 
L 58 2880 
L 992 2880 
L 992 813 
Q 992 595 1123 451 
Q 1254 307 1446 307 
Q 1760 307 1984 506 
Q 2067 582 2099 649 
Q 2131 717 2131 877 
L 2131 2355 
Q 2131 2605 2041 2678 
Q 1952 2752 1658 2771 
L 1658 2880 
L 2669 2880 
L 2669 685 
Q 2669 461 2742 390 
Q 2816 320 3034 320 
L 3072 320 
z
" transform="scale(0.015625)"/>
        <path id="STIXGeneral-Regular-68" d="M 3117 0 
L 1760 0 
L 1760 96 
Q 2042 128 2118 224 
Q 2195 320 2195 653 
L 2195 1920 
Q 2195 2598 1722 2598 
Q 1530 2598 1370 2508 
Q 1210 2419 1005 2195 
L 1005 653 
Q 1005 320 1081 224 
Q 1158 128 1440 96 
L 1440 0 
L 58 0 
L 58 96 
Q 333 134 400 224 
Q 467 314 467 653 
L 467 3667 
Q 467 3872 406 3933 
Q 346 3994 141 3994 
Q 83 3994 64 3987 
L 64 4090 
L 237 4141 
Q 730 4288 973 4371 
L 1005 4352 
L 1005 2406 
Q 1229 2694 1446 2819 
Q 1664 2944 1946 2944 
Q 2733 2944 2733 1926 
L 2733 653 
Q 2733 320 2793 233 
Q 2854 147 3117 96 
L 3117 0 
z
" transform="scale(0.015625)"/>
       </defs>
       <use xlink:href="#STIXGeneral-Regular-44"/>
       <use xlink:href="#STIXGeneral-Regular-75" transform="translate(72.199982 0)"/>
       <use xlink:href="#STIXGeneral-Regular-6c" transform="translate(122.199966 0)"/>
       <use xlink:href="#STIXGeneral-Regular-75" transform="translate(149.999954 0)"/>
       <use xlink:href="#STIXGeneral-Regular-74" transform="translate(199.999939 0)"/>
       <use xlink:href="#STIXGeneral-Regular-68" transform="translate(227.799927 0)"/>
      </g>
     </g>
    </g>
    <g id="ytick_3">
     <g id="line2d_10">
      <g>
       <use xlink:href="#m8306a72ded" x="119.5275" y="118.08" style="fill: #323034; stroke: #323034; stroke-width: 0.8"/>
      </g>
     </g>
     <g id="text_11">
      <!-- Grand Rapids -->
      <g style="fill: #323034" transform="translate(24.0925 123.54375) scale(0.16 -0.16)">
       <defs>
        <path id="STIXGeneral-Regular-47" d="M 4538 2266 
L 4538 2150 
Q 4256 2125 4173 2035 
Q 4090 1946 4090 1638 
L 4090 358 
Q 3539 -90 2464 -90 
Q 1965 -90 1507 89 
Q 1050 269 736 595 
Q 205 1152 205 2093 
Q 205 3155 890 3776 
Q 1491 4326 2419 4326 
Q 2829 4326 3270 4179 
Q 3443 4115 3552 4115 
Q 3654 4115 3731 4176 
Q 3808 4237 3840 4326 
L 3981 4326 
L 4032 2976 
L 3885 2976 
Q 3680 3475 3430 3718 
Q 3059 4070 2496 4070 
Q 1856 4070 1427 3629 
Q 934 3136 934 2074 
Q 934 1190 1395 678 
Q 1856 166 2618 166 
Q 2982 166 3225 281 
Q 3469 397 3469 557 
L 3469 1562 
Q 3469 1933 3376 2025 
Q 3283 2118 2899 2150 
L 2899 2266 
L 4538 2266 
z
" transform="scale(0.015625)"/>
        <path id="STIXGeneral-Regular-61" d="M 2829 422 
L 2829 243 
Q 2586 -64 2253 -64 
Q 1888 -64 1843 403 
L 1837 403 
Q 1427 -64 909 -64 
Q 608 -64 422 112 
Q 237 288 237 602 
Q 237 1050 685 1350 
Q 992 1555 1837 1869 
L 1837 2214 
Q 1837 2502 1699 2646 
Q 1562 2790 1338 2790 
Q 1146 2790 1018 2697 
Q 890 2605 890 2477 
Q 890 2419 909 2348 
Q 928 2278 928 2208 
Q 928 2112 841 2029 
Q 755 1946 634 1946 
Q 525 1946 441 2029 
Q 358 2112 358 2240 
Q 358 2547 685 2752 
Q 986 2944 1421 2944 
Q 1939 2944 2176 2656 
Q 2291 2522 2323 2384 
Q 2355 2246 2355 1946 
L 2355 723 
Q 2355 301 2554 301 
Q 2682 301 2829 422 
z
M 1837 813 
L 1837 1715 
Q 1248 1510 1018 1293 
Q 800 1094 800 800 
Q 800 557 921 432 
Q 1043 307 1242 307 
Q 1453 307 1613 410 
Q 1747 506 1792 589 
Q 1837 672 1837 813 
z
" transform="scale(0.015625)"/>
        <path id="STIXGeneral-Regular-20" transform="scale(0.015625)"/>
        <path id="STIXGeneral-Regular-52" d="M 4224 0 
L 3187 0 
L 1664 1971 
L 1306 1958 
L 1306 717 
Q 1306 352 1405 249 
Q 1504 147 1875 122 
L 1875 0 
L 109 0 
L 109 122 
Q 474 154 563 262 
Q 653 371 653 794 
L 653 3526 
Q 653 3885 563 3987 
Q 474 4090 109 4115 
L 109 4237 
L 1850 4237 
Q 2726 4237 3187 3859 
Q 3501 3603 3501 3091 
Q 3501 2221 2342 2042 
L 3622 422 
Q 3757 256 3878 198 
Q 4000 141 4224 122 
L 4224 0 
z
M 1306 3731 
L 1306 2195 
Q 1766 2202 1990 2246 
Q 2214 2291 2438 2413 
Q 2803 2618 2803 3142 
Q 2803 4000 1632 4000 
Q 1459 4000 1382 3945 
Q 1306 3891 1306 3731 
z
" transform="scale(0.015625)"/>
        <path id="STIXGeneral-Regular-70" d="M 1018 2931 
L 1018 2438 
Q 1421 2944 1939 2944 
Q 2406 2944 2707 2560 
Q 3008 2176 3008 1581 
Q 3008 883 2621 409 
Q 2234 -64 1664 -64 
Q 1466 -64 1328 -6 
Q 1190 51 1018 211 
L 1018 -794 
Q 1018 -1094 1120 -1180 
Q 1222 -1267 1581 -1274 
L 1581 -1389 
L 32 -1389 
L 32 -1280 
Q 314 -1254 397 -1171 
Q 480 -1088 480 -838 
L 480 2157 
Q 480 2381 429 2451 
Q 378 2522 218 2522 
Q 115 2522 58 2515 
L 58 2618 
Q 506 2752 979 2944 
L 1018 2931 
z
M 1018 2138 
L 1018 563 
Q 1018 422 1238 281 
Q 1459 141 1683 141 
Q 2029 141 2243 467 
Q 2458 794 2458 1325 
Q 2458 1888 2243 2224 
Q 2029 2560 1670 2560 
Q 1446 2560 1232 2419 
Q 1018 2278 1018 2138 
z
" transform="scale(0.015625)"/>
       </defs>
       <use xlink:href="#STIXGeneral-Regular-47"/>
       <use xlink:href="#STIXGeneral-Regular-72" transform="translate(72.199982 0)"/>
       <use xlink:href="#STIXGeneral-Regular-61" transform="translate(105.499969 0)"/>
       <use xlink:href="#STIXGeneral-Regular-6e" transform="translate(149.899963 0)"/>
       <use xlink:href="#STIXGeneral-Regular-64" transform="translate(199.899948 0)"/>
       <use xlink:href="#STIXGeneral-Regular-20" transform="translate(249.899933 0)"/>
       <use xlink:href="#STIXGeneral-Regular-52" transform="translate(274.899918 0)"/>
       <use xlink:href="#STIXGeneral-Regular-61" transform="translate(341.599915 0)"/>
       <use xlink:href="#STIXGeneral-Regular-70" transform="translate(385.999908 0)"/>
       <use xlink:href="#STIXGeneral-Regular-69" transform="translate(435.999893 0)"/>
       <use xlink:href="#STIXGeneral-Regular-64" transform="translate(463.799881 0)"/>
       <use xlink:href="#STIXGeneral-Regular-73" transform="translate(513.799866 0)"/>
      </g>
     </g>
    </g>
    <g id="ytick_4">
     <g id="line2d_11">
      <g>
       <use xlink:href="#m8306a72ded" x="119.5275" y="90.36" style="fill: #323034; stroke: #323034; stroke-width: 0.8"/>
      </g>
     </g>
     <g id="text_12">
      <!-- Morris -->
      <g style="fill: #323034" transform="translate(68.975 95.82375) scale(0.16 -0.16)">
       <defs>
        <path id="STIXGeneral-Regular-4d" d="M 5530 0 
L 3738 0 
L 3738 122 
Q 4115 147 4214 265 
Q 4314 384 4314 787 
L 4314 3661 
L 2682 0 
L 2592 0 
L 979 3514 
L 979 966 
Q 979 448 1088 294 
Q 1197 141 1574 122 
L 1574 0 
L 77 0 
L 77 122 
Q 358 141 480 205 
Q 602 269 650 432 
Q 698 595 698 966 
L 698 3514 
Q 698 3878 589 3984 
Q 480 4090 90 4115 
L 90 4237 
L 1357 4237 
L 2835 1024 
L 4250 4237 
L 5523 4237 
L 5523 4115 
Q 5178 4109 5072 3993 
Q 4966 3878 4966 3520 
L 4966 717 
Q 4966 378 5072 262 
Q 5178 147 5530 122 
L 5530 0 
z
" transform="scale(0.015625)"/>
       </defs>
       <use xlink:href="#STIXGeneral-Regular-4d"/>
       <use xlink:href="#STIXGeneral-Regular-6f" transform="translate(88.899994 0)"/>
       <use xlink:href="#STIXGeneral-Regular-72" transform="translate(138.899979 0)"/>
       <use xlink:href="#STIXGeneral-Regular-72" transform="translate(172.199966 0)"/>
       <use xlink:href="#STIXGeneral-Regular-69" transform="translate(205.499954 0)"/>
       <use xlink:href="#STIXGeneral-Regular-73" transform="translate(233.299942 0)"/>
      </g>
     </g>
    </g>
    <g id="ytick_5">
     <g id="line2d_12">
      <g>
       <use xlink:href="#m8306a72ded" x="119.5275" y="62.64" style="fill: #323034; stroke: #323034; stroke-width: 0.8"/>
      </g>
     </g>
     <g id="text_13">
      <!-- University Farm -->
      <g style="fill: #323034" transform="translate(7.2 68.10375) scale(0.16 -0.16)">
       <defs>
        <path id="STIXGeneral-Regular-55" d="M 4512 4237 
L 4512 4115 
Q 4122 4077 4016 3926 
Q 3910 3776 3910 3302 
L 3910 1670 
Q 3910 1178 3840 896 
Q 3770 614 3565 378 
Q 3155 -90 2272 -90 
Q 1574 -90 1184 205 
Q 666 589 666 1594 
L 666 3578 
Q 666 3898 566 3994 
Q 467 4090 90 4115 
L 90 4237 
L 1901 4237 
L 1901 4115 
Q 1517 4083 1417 3977 
Q 1318 3872 1318 3514 
L 1318 1517 
Q 1318 1101 1369 877 
Q 1421 653 1600 480 
Q 1901 192 2419 192 
Q 3066 192 3392 570 
Q 3539 749 3584 963 
Q 3629 1178 3629 1600 
L 3629 3283 
Q 3629 3782 3520 3936 
Q 3411 4090 3027 4115 
L 3027 4237 
L 4512 4237 
z
" transform="scale(0.015625)"/>
        <path id="STIXGeneral-Regular-76" d="M 3053 2880 
L 3053 2784 
Q 2906 2771 2835 2688 
Q 2765 2605 2637 2285 
L 1818 230 
Q 1690 -90 1638 -90 
Q 1587 -90 1523 77 
Q 1510 96 1497 141 
Q 1485 186 1472 211 
L 704 2048 
Q 499 2534 403 2652 
Q 307 2771 122 2784 
L 122 2880 
L 1376 2880 
L 1376 2784 
Q 1210 2771 1146 2732 
Q 1082 2694 1082 2611 
Q 1082 2509 1139 2368 
L 1792 730 
L 2426 2387 
Q 2464 2483 2464 2579 
Q 2464 2758 2163 2784 
L 2163 2880 
L 3053 2880 
z
" transform="scale(0.015625)"/>
        <path id="STIXGeneral-Regular-79" d="M 3040 2880 
L 3040 2784 
Q 2925 2771 2854 2700 
Q 2784 2630 2720 2458 
L 1760 -160 
Q 1510 -838 1257 -1116 
Q 1005 -1395 640 -1395 
Q 435 -1395 313 -1289 
Q 192 -1184 192 -1024 
Q 192 -902 272 -816 
Q 352 -730 467 -730 
Q 653 -730 800 -813 
Q 883 -858 966 -858 
Q 1101 -858 1286 -576 
Q 1376 -448 1459 -211 
Q 1542 26 1542 115 
Q 1542 198 1274 762 
L 429 2566 
Q 346 2752 90 2790 
L 90 2880 
L 1402 2880 
L 1402 2784 
Q 1197 2778 1117 2739 
Q 1037 2701 1037 2611 
Q 1037 2541 1120 2349 
L 1837 749 
L 2458 2515 
Q 2483 2573 2483 2630 
Q 2483 2784 2189 2784 
L 2189 2880 
L 3040 2880 
z
" transform="scale(0.015625)"/>
        <path id="STIXGeneral-Regular-46" d="M 3494 3322 
L 3334 3322 
Q 3264 3757 3094 3875 
Q 2925 3994 2349 3994 
L 1504 3994 
Q 1370 3994 1328 3946 
Q 1286 3898 1286 3744 
L 1286 2355 
L 2195 2355 
Q 2598 2355 2736 2470 
Q 2874 2586 2918 2963 
L 3066 2963 
L 3066 1472 
L 2918 1472 
Q 2880 1862 2745 1977 
Q 2611 2093 2195 2093 
L 1286 2093 
L 1286 717 
Q 1286 352 1392 246 
Q 1498 141 1869 122 
L 1869 0 
L 70 0 
L 70 122 
Q 435 147 534 259 
Q 634 371 634 787 
L 634 3526 
Q 634 3878 538 3984 
Q 442 4090 77 4115 
L 77 4237 
L 3462 4237 
L 3494 3322 
z
" transform="scale(0.015625)"/>
        <path id="STIXGeneral-Regular-6d" d="M 4960 0 
L 3565 0 
L 3565 96 
Q 3834 122 3907 208 
Q 3981 294 3981 576 
L 3981 1894 
Q 3981 2278 3869 2444 
Q 3757 2611 3488 2611 
Q 3264 2611 3107 2521 
Q 2950 2432 2803 2221 
L 2803 608 
Q 2803 301 2896 201 
Q 2989 102 3264 96 
L 3264 0 
L 1830 0 
L 1830 96 
Q 2112 115 2189 188 
Q 2266 262 2266 550 
L 2266 1901 
Q 2266 2611 1850 2611 
Q 1670 2611 1468 2531 
Q 1267 2451 1171 2336 
Q 1088 2240 1088 2227 
L 1088 448 
Q 1088 243 1177 176 
Q 1267 109 1523 96 
L 1523 0 
L 102 0 
L 102 96 
Q 371 102 460 195 
Q 550 288 550 563 
L 550 2150 
Q 550 2387 499 2480 
Q 448 2573 326 2573 
Q 230 2573 122 2547 
L 122 2656 
Q 557 2778 1011 2944 
L 1062 2925 
L 1062 2451 
L 1075 2451 
Q 1363 2752 1584 2848 
Q 1805 2944 2054 2944 
Q 2560 2944 2733 2406 
Q 3232 2944 3776 2944 
Q 4518 2944 4518 1792 
L 4518 493 
Q 4518 282 4582 202 
Q 4646 122 4794 109 
L 4960 96 
L 4960 0 
z
" transform="scale(0.015625)"/>
       </defs>
       <use xlink:href="#STIXGeneral-Regular-55"/>
       <use xlink:href="#STIXGeneral-Regular-6e" transform="translate(72.199982 0)"/>
       <use xlink:href="#STIXGeneral-Regular-69" transform="translate(122.199966 0)"/>
       <use xlink:href="#STIXGeneral-Regular-76" transform="translate(149.999954 0)"/>
       <use xlink:href="#STIXGeneral-Regular-65" transform="translate(199.999939 0)"/>
       <use xlink:href="#STIXGeneral-Regular-72" transform="translate(244.399933 0)"/>
       <use xlink:href="#STIXGeneral-Regular-73" transform="translate(277.699921 0)"/>
       <use xlink:href="#STIXGeneral-Regular-69" transform="translate(316.599915 0)"/>
       <use xlink:href="#STIXGeneral-Regular-74" transform="translate(344.399902 0)"/>
       <use xlink:href="#STIXGeneral-Regular-79" transform="translate(372.19989 0)"/>
       <use xlink:href="#STIXGeneral-Regular-20" transform="translate(422.199875 0)"/>
       <use xlink:href="#STIXGeneral-Regular-46" transform="translate(447.19986 0)"/>
       <use xlink:href="#STIXGeneral-Regular-61" transform="translate(502.79985 0)"/>
       <use xlink:href="#STIXGeneral-Regular-72" transform="translate(547.199844 0)"/>
       <use xlink:href="#STIXGeneral-Regular-6d" transform="translate(580.499832 0)"/>
      </g>
     </g>
    </g>
    <g id="ytick_6">
     <g id="line2d_13">
      <g>
       <use xlink:href="#m8306a72ded" x="119.5275" y="34.92" style="fill: #323034; stroke: #323034; stroke-width: 0.8"/>
      </g>
     </g>
     <g id="text_14">
      <!-- Waseca -->
      <g style="fill: #323034" transform="translate(62.7775 40.38375) scale(0.16 -0.16)">
       <defs>
        <path id="STIXGeneral-Regular-57" d="M 5965 4237 
L 5965 4115 
Q 5709 4064 5616 3990 
Q 5523 3917 5434 3667 
Q 4704 1709 4128 -70 
L 4032 -70 
Q 3642 1011 3008 2637 
L 2022 -70 
L 1926 -70 
Q 1709 576 1277 1753 
Q 845 2931 698 3347 
Q 538 3808 406 3958 
Q 275 4109 32 4115 
L 32 4237 
L 1594 4237 
L 1594 4115 
Q 1357 4109 1270 4064 
Q 1184 4019 1184 3917 
Q 1184 3808 1254 3616 
L 2176 1210 
L 2842 3021 
L 2662 3501 
Q 2509 3917 2400 4013 
Q 2291 4109 2010 4115 
L 2010 4237 
L 3706 4237 
L 3706 4115 
Q 3213 4102 3213 3891 
Q 3213 3808 3322 3520 
L 4237 1190 
L 5043 3360 
Q 5152 3667 5152 3853 
Q 5152 4109 4704 4115 
L 4704 4237 
L 5965 4237 
z
" transform="scale(0.015625)"/>
        <path id="STIXGeneral-Regular-63" d="M 2547 998 
L 2637 941 
Q 2362 403 2112 205 
Q 1786 -64 1376 -64 
Q 845 -64 502 336 
Q 160 736 160 1357 
Q 160 2170 698 2618 
Q 1094 2944 1562 2944 
Q 1965 2944 2256 2749 
Q 2547 2554 2547 2285 
Q 2547 2176 2457 2096 
Q 2368 2016 2246 2016 
Q 2022 2016 1939 2310 
L 1901 2451 
Q 1850 2630 1773 2694 
Q 1696 2758 1523 2758 
Q 1133 2758 893 2451 
Q 653 2144 653 1645 
Q 653 1094 928 745 
Q 1203 397 1645 397 
Q 1920 397 2118 528 
Q 2317 659 2547 998 
z
" transform="scale(0.015625)"/>
       </defs>
       <use xlink:href="#STIXGeneral-Regular-57"/>
       <use xlink:href="#STIXGeneral-Regular-61" transform="translate(94.399994 0)"/>
       <use xlink:href="#STIXGeneral-Regular-73" transform="translate(138.799988 0)"/>
       <use xlink:href="#STIXGeneral-Regular-65" transform="translate(177.699982 0)"/>
       <use xlink:href="#STIXGeneral-Regular-63" transform="translate(222.099976 0)"/>
       <use xlink:href="#STIXGeneral-Regular-61" transform="translate(266.499969 0)"/>
      </g>
     </g>
    </g>
   </g>
   <g id="patch_15">
    <path d="M 119.5275 228.96 
L 119.5275 7.2 
" style="fill: none; stroke: #000000; stroke-width: 0.6; stroke-linejoin: miter; stroke-linecap: square"/>
   </g>
   <g id="patch_16">
    <path d="M 119.5275 228.96 
L 565.9275 228.96 
" style="fill: none; stroke: #000000; stroke-width: 0.6; stroke-linejoin: miter; stroke-linecap: square"/>
   </g>
   <g id="legend_1">
    <g id="patch_17">
     <path d="M 499.9275 24 
L 523.9275 24 
L 523.9275 15.6 
L 499.9275 15.6 
z
" style="fill: #bc80bd; stroke: #000000; stroke-width: 0.8; stroke-linejoin: miter"/>
    </g>
    <g id="text_15">
     <!-- 1931 -->
     <g style="fill: #323034" transform="translate(533.5275 24) scale(0.12 -0.12)">
      <defs>
       <path id="STIXGeneral-Regular-39" d="M 378 -141 
L 358 -13 
Q 1094 115 1603 608 
Q 2112 1101 2304 1882 
Q 1933 1517 1344 1517 
Q 826 1517 509 1875 
Q 192 2234 192 2816 
Q 192 3462 573 3894 
Q 954 4326 1523 4326 
Q 2131 4326 2528 3840 
Q 2938 3328 2938 2522 
Q 2938 1958 2742 1462 
Q 2547 966 2170 621 
Q 1773 262 1395 105 
Q 1018 -51 378 -141 
z
M 2317 2272 
L 2317 2522 
Q 2317 4147 1472 4147 
Q 1171 4147 1005 3930 
Q 909 3802 845 3546 
Q 781 3290 781 3034 
Q 781 2464 995 2128 
Q 1210 1792 1568 1792 
Q 1824 1792 2070 1917 
Q 2317 2042 2317 2272 
z
" transform="scale(0.015625)"/>
       <path id="STIXGeneral-Regular-33" d="M 390 3264 
L 288 3290 
Q 435 3770 748 4048 
Q 1062 4326 1542 4326 
Q 1990 4326 2265 4083 
Q 2541 3840 2541 3450 
Q 2541 2925 1946 2566 
Q 2298 2413 2477 2227 
Q 2758 1914 2758 1402 
Q 2758 890 2464 506 
Q 2246 211 1840 60 
Q 1434 -90 979 -90 
Q 262 -90 262 275 
Q 262 378 339 442 
Q 416 506 525 506 
Q 685 506 915 339 
Q 1197 141 1466 141 
Q 1818 141 2058 425 
Q 2298 710 2298 1120 
Q 2298 1856 1632 2048 
Q 1434 2112 979 2112 
L 979 2202 
Q 1338 2323 1517 2432 
Q 2035 2726 2035 3290 
Q 2035 3610 1852 3776 
Q 1670 3942 1344 3942 
Q 768 3942 390 3264 
z
" transform="scale(0.015625)"/>
      </defs>
      <use xlink:href="#STIXGeneral-Regular-31"/>
      <use xlink:href="#STIXGeneral-Regular-39" transform="translate(49.999985 0)"/>
      <use xlink:href="#STIXGeneral-Regular-33" transform="translate(99.999969 0)"/>
      <use xlink:href="#STIXGeneral-Regular-31" transform="translate(149.999954 0)"/>
     </g>
    </g>
    <g id="patch_18">
     <path d="M 499.9275 39.804375 
L 523.9275 39.804375 
L 523.9275 31.404375 
L 499.9275 31.404375 
z
" style="fill: #fb8072; stroke: #000000; stroke-width: 0.8; stroke-linejoin: miter"/>
    </g>
    <g id="text_16">
     <!-- 1932 -->
     <g style="fill: #323034" transform="translate(533.5275 39.804375) scale(0.12 -0.12)">
      <use xlink:href="#STIXGeneral-Regular-31"/>
      <use xlink:href="#STIXGeneral-Regular-39" transform="translate(49.999985 0)"/>
      <use xlink:href="#STIXGeneral-Regular-33" transform="translate(99.999969 0)"/>
      <use xlink:href="#STIXGeneral-Regular-32" transform="translate(149.999954 0)"/>
     </g>
    </g>
   </g>
  </g>
 </g>
 <defs>
  <clipPath id="p4f1d5d82d7">
   <rect x="119.5275" y="7.2" width="446.4" height="221.76"/>
  </clipPath>
 </defs>
</svg>