<?xml version="1.0" encoding="utf-8" standalone="no"?>
<!DOCTYPE svg PUBLIC "-//W3C//DTD SVG 1.1//EN"
  "http://www.w3.org/Graphics/SVG/1.1/DTD/svg11.dtd">
<svg xmlns:xlink="http://www.w3.org/1999/xlink" width="554.689936pt" height="587.797188pt" viewBox="0 0 554.689936 587.797188" xmlns="http://www.w3.org/2000/svg" version="1.1">
 <metadata>
  <rdf:RDF xmlns:dc="http://purl.org/dc/elements/1.1/" xmlns:cc="http://creativecommons.org/ns#" xmlns:rdf="http://www.w3.org/1999/02/22-rdf-syntax-ns#">
   <cc:Work>
    <dc:type rdf:resource="http://purl.org/dc/dcmitype/StillImage"/>
    <dc:date>2025-03-26T16:02:58.515657</dc:date>
    <dc:format>image/svg+xml</dc:format>
    <dc:creator>
     <cc:Agent>
      <dc:title>Matplotlib v3.10.0, https://matplotlib.org/</dc:title>
     </cc:Agent>
    </dc:creator>
   </cc:Work>
  </rdf:RDF>
 </metadata>
 <defs>
  <style type="text/css">*{stroke-linejoin: round; stroke-linecap: butt}</style>
 </defs>
 <g id="figure_1">
  <g id="patch_1">
   <path d="M 0 587.797188 
L 554.689936 587.797188 
L 554.689936 0 
L 0 0 
z
" style="fill: #ffffff"/>
  </g>
  <g id="axes_1">
   <g id="PatchCollection_1">
    <path d="M 516.861537 238.107321 
L 516.584539 238.45806 
L 516.600089 238.392495 
L 516.861536 238.044355 
L 522.177542 230.9656 
L 520.180835 233.904367 
L 516.861537 238.107321 
" clip-path="url(#pfed08fe51d)" style="fill: #808080; stroke: #999999; stroke-width: 0.2"/>
    <path d="M 421.369037 58.378924 
L 426.68997 60.534273 
L 430.829601 59.359193 
L 434.555578 63.6877 
L 441.692258 62.162318 
L 448.344626 64.552616 
L 451.298884 56.517202 
L 451.327945 56.529639 
L 460.313072 60.024948 
L 472.888758 64.917022 
L 476.178833 68.146672 
L 476.826359 68.870161 
L 471.722411 72.852756 
L 460.313046 74.805948 
L 460.243334 74.817882 
L 452.173719 88.335791 
L 452.339868 98.985311 
L 452.414793 103.787697 
L 460.313083 126.584952 
L 463.855304 136.809054 
L 476.242624 155.533688 
L 486.919286 171.672496 
L 516.715873 210.409751 
L 516.861497 210.830917 
L 517.294115 212.082117 
L 522.677373 227.651334 
L 522.931302 229.856211 
L 522.184931 230.954726 
L 522.528432 228.650458 
L 522.04858 227.144607 
L 516.86162 222.964585 
L 510.366697 217.730515 
L 501.135727 215.19573 
L 485.171814 222.021412 
L 475.858848 220.319303 
L 468.11565 212.08212 
L 460.313077 203.781775 
L 454.605732 197.710325 
L 452.159107 197.888509 
L 451.388351 190.021487 
L 449.023636 191.366916 
L 448.728979 188.947112 
L 448.78067 188.833883 
L 448.143746 187.704211 
L 448.584493 189.144979 
L 447.672731 190.190048 
L 447.450351 190.101437 
L 449.13715 183.356128 
L 446.685211 180.71248 
L 446.89698 175.096366 
L 442.061805 174.984121 
L 434.77187 165.33638 
L 426.231628 168.161552 
L 426.861315 171.773851 
L 420.766228 172.628026 
L 421.687133 179.46388 
L 416.14028 182.330604 
L 415.448698 185.383375 
L 419.24706 185.611002 
L 415.5799 191.508986 
L 416.258513 195.23931 
L 416.240249 195.246341 
L 403.764721 197.419113 
L 393.298097 199.242008 
L 385.575277 193.684688 
L 376.785663 191.53078 
L 375.50512 193.160209 
L 378.985969 192.584259 
L 369.136929 195.499345 
L 364.691651 201.082077 
L 355.976124 200.414798 
L 361.621355 201.775926 
L 364.254523 203.175778 
L 362.127464 203.802637 
L 364.042474 203.821575 
L 364.183108 205.488401 
L 363.637307 209.556435 
L 360.019895 209.033653 
L 350.297814 216.489271 
L 350.696756 214.007362 
L 347.620236 215.591001 
L 336.632578 224.008516 
L 333.416952 222.590291 
L 318.080459 216.082408 
L 299.069136 217.32055 
L 288.755553 213.207205 
L 292.901967 208.416971 
L 293.963934 202.30552 
L 296.430303 201.401852 
L 300.727711 205.397864 
L 311.653708 204.28302 
L 311.587548 201.736353 
L 314.936076 203.023113 
L 315.7925 198.593385 
L 325.847107 197.333479 
L 324.432541 192.852589 
L 315.131154 191.939056 
L 312.668189 187.613941 
L 321.049254 182.543815 
L 319.714697 171.180941 
L 322.326394 166.637272 
L 318.4746 164.358937 
L 316.879644 152.397809 
L 321.382876 146.302754 
L 321.832733 143.195683 
L 316.488884 142.239157 
L 321.544897 133.510065 
L 321.430387 121.238773 
L 319.000502 118.747537 
L 320.524751 111.468045 
L 326.304564 108.85665 
L 329.081662 103.259474 
L 343.446383 100.842295 
L 343.753732 102.430456 
L 355.719386 98.696584 
L 356.516153 104.207209 
L 365.244409 105.27485 
L 364.460929 98.377347 
L 369.525685 96.267816 
L 372.163678 90.571116 
L 369.217216 88.113827 
L 377.460577 85.628498 
L 387.002547 78.041132 
L 394.181959 80.576181 
L 404.881477 73.375297 
L 406.961328 70.456847 
L 406.124138 67.576273 
L 411.853899 63.840676 
L 410.54622 55.488739 
L 413.229742 52.284716 
L 418.287713 51.397187 
L 421.369037 58.378924 
" clip-path="url(#pfed08fe51d)" style="fill: #808080; stroke: #999999; stroke-width: 0.2"/>
    <path d="M 397.517176 206.462961 
L 394.746302 207.767245 
L 391.332756 204.981108 
L 397.517176 206.462961 
" clip-path="url(#pfed08fe51d)" style="fill: #808080; stroke: #999999; stroke-width: 0.2"/>
    <path d="M 439.612785 196.418588 
L 447.669458 206.656242 
L 450.510549 212.068402 
L 457.130679 218.67866 
L 457.62151 219.302361 
L 451.798316 224.489464 
L 440.754126 228.13769 
L 437.671381 227.877274 
L 439.275382 233.832695 
L 432.9592 245.51786 
L 417.753326 244.42054 
L 415.4207 240.913108 
L 408.476556 249.10896 
L 404.01855 250.175187 
L 402.144266 252.862364 
L 415.304488 249.785849 
L 419.62311 254.167524 
L 420.300542 258.712889 
L 404.768669 263.065705 
L 405.260371 270.730266 
L 408.090039 272.431266 
L 393.168877 277.573781 
L 378.541497 278.272152 
L 379.197737 261.072942 
L 357.578703 259.239628 
L 355.338254 265.384743 
L 352.347126 265.941756 
L 351.805395 272.156999 
L 349.413392 272.994751 
L 349.489157 277.174832 
L 347.070859 279.832019 
L 333.040063 276.522817 
L 324.748353 278.543846 
L 323.97308 276.91583 
L 327.638259 273.824334 
L 320.924277 265.318035 
L 321.536691 262.743075 
L 318.163847 261.853851 
L 319.264583 256.49363 
L 328.867912 254.200879 
L 327.136392 250.942556 
L 328.969133 245.046239 
L 327.063168 244.394535 
L 327.589909 239.807591 
L 333.416952 222.590291 
L 336.632578 224.008516 
L 347.620236 215.591001 
L 350.696756 214.007362 
L 350.297814 216.489271 
L 360.019895 209.033653 
L 363.637307 209.556435 
L 364.183108 205.488401 
L 364.336232 207.303257 
L 365.631405 209.122745 
L 366.940003 210.961092 
L 364.948366 204.17329 
L 375.197211 199.057939 
L 380.554349 197.604636 
L 385.23937 204.157744 
L 397.058857 209.060788 
L 403.764662 204.32015 
L 406.801373 202.173361 
L 411.87699 202.33736 
L 412.039304 204.874364 
L 412.034939 202.341092 
L 420.905848 201.289248 
L 421.813027 204.668019 
L 422.260523 200.585022 
L 439.612785 196.418588 
" clip-path="url(#pfed08fe51d)" style="fill: #808080; stroke: #999999; stroke-width: 0.2"/>
    <path d="M 237.639986 455.370617 
L 234.88324 455.710178 
L 231.85395 460.741296 
L 231.017319 466.871713 
L 226.713407 468.090888 
L 223.287411 464.578114 
L 217.502517 465.400319 
L 215.833778 460.767301 
L 208.484443 459.339466 
L 205.55127 451.450669 
L 207.962784 448.438318 
L 214.785075 444.227455 
L 217.121081 435.269605 
L 221.066194 435.226075 
L 222.255983 440.019108 
L 233.516744 440.038046 
L 230.764264 444.675304 
L 238.560868 447.667868 
L 237.639986 455.370617 
" clip-path="url(#pfed08fe51d)" style="fill: #808080; stroke: #999999; stroke-width: 0.2"/>
    <path d="M 294.914819 439.946718 
L 292.364479 442.05345 
L 286.265429 441.86401 
L 284.382659 445.292269 
L 282.386499 443.731526 
L 281.322527 455.371747 
L 277.9726 458.868976 
L 270.786987 454.121734 
L 271.334663 451.68166 
L 273.604812 452.497675 
L 276.753694 449.990581 
L 264.356296 438.846006 
L 267.140458 434.272093 
L 264.263001 428.986212 
L 268.196224 430.01428 
L 272.50692 427.95789 
L 269.503064 426.742107 
L 268.300267 421.534269 
L 271.161336 418.342682 
L 276.306681 418.150982 
L 283.793418 421.85998 
L 281.903562 424.812943 
L 284.835034 425.514706 
L 284.063724 428.215197 
L 287.814296 429.057471 
L 288.383185 433.970974 
L 294.914819 439.946718 
" clip-path="url(#pfed08fe51d)" style="fill: #808080; stroke: #999999; stroke-width: 0.2"/>
    <path d="M 86.983874 396.585359 
L 88.783791 396.699894 
L 90.768365 402.783643 
L 97.537504 404.540044 
L 99.199459 409.747317 
L 96.318878 409.962197 
L 97.829001 418.047217 
L 101.668649 421.444072 
L 101.381675 425.584269 
L 104.489014 425.76325 
L 103.855107 429.389146 
L 106.252192 432.886091 
L 104.56422 433.087968 
L 105.8736 435.27441 
L 98.188662 438.666177 
L 96.536032 433.916957 
L 93.632558 432.359352 
L 90.410708 439.506501 
L 87.693826 439.392561 
L 86.793016 441.749504 
L 80.953525 430.92216 
L 82.505796 430.669121 
L 80.421981 419.998117 
L 82.886368 418.541167 
L 76.068041 401.729882 
L 83.689919 395.657411 
L 86.983874 396.585359 
" clip-path="url(#pfed08fe51d)" style="fill: #808080; stroke: #999999; stroke-width: 0.2"/>
    <path d="M 265.923534 457.988231 
L 265.897541 461.81996 
L 260.622975 463.994813 
L 250.839233 464.247852 
L 244.992981 461.835789 
L 246.98632 458.993375 
L 237.639986 455.370617 
L 238.560868 447.667868 
L 230.764264 444.675304 
L 233.516744 440.038046 
L 222.255983 440.019108 
L 221.066194 435.226075 
L 220.248796 430.002973 
L 233.443521 431.642579 
L 237.964563 429.943021 
L 240.720167 432.816528 
L 247.965739 431.160811 
L 252.700811 423.090772 
L 256.54356 433.745919 
L 255.684876 438.186105 
L 257.88376 440.18226 
L 257.859445 452.40776 
L 264.650078 454.636884 
L 265.923534 457.988231 
" clip-path="url(#pfed08fe51d)" style="fill: #808080; stroke: #999999; stroke-width: 0.2"/>
    <path d="M 207.962784 448.438318 
L 205.55127 451.450669 
L 208.484443 459.339466 
L 215.833778 460.767301 
L 217.502517 465.400319 
L 223.287411 464.578114 
L 226.713407 468.090888 
L 231.017319 466.871713 
L 231.85395 460.741296 
L 234.88324 455.710178 
L 237.639986 455.370617 
L 246.98632 458.993375 
L 244.992981 461.835789 
L 250.839233 464.247852 
L 249.712807 466.424995 
L 245.991049 465.971465 
L 244.830401 470.462247 
L 242.913969 469.882933 
L 236.658586 475.728625 
L 237.884835 476.874279 
L 232.294458 486.82314 
L 227.362863 486.50704 
L 227.609694 489.575358 
L 223.736989 491.529678 
L 225.075206 494.592343 
L 222.702716 497.823784 
L 217.848028 500.32155 
L 215.731413 497.643418 
L 206.619764 499.047793 
L 204.792408 503.068086 
L 208.237053 508.988994 
L 207.228215 512.573903 
L 198.191771 518.884997 
L 187.207796 519.45244 
L 186.874174 512.235727 
L 177.780056 509.026899 
L 184.8865 492.437841 
L 195.45822 493.428852 
L 194.833358 491.271241 
L 199.670235 487.598424 
L 199.08948 484.574484 
L 195.519858 482.4197 
L 200.283232 477.577456 
L 192.359366 470.473865 
L 180.252625 467.37584 
L 178.290105 468.606349 
L 177.571108 466.691601 
L 173.58669 468.914535 
L 169.639619 466.088797 
L 171.406177 457.738867 
L 169.029747 452.314454 
L 175.590777 453.204244 
L 176.761333 449.293341 
L 182.46932 449.401063 
L 186.165341 455.359847 
L 187.750949 442.147887 
L 195.934933 441.286081 
L 196.538581 444.541294 
L 202.992468 444.824323 
L 207.962784 448.438318 
" clip-path="url(#pfed08fe51d)" style="fill: #808080; stroke: #999999; stroke-width: 0.2"/>
    <path d="M 261.960634 483.7715 
L 259.224822 486.984031 
L 258.855555 492.382694 
L 251.165255 491.7618 
L 248.211147 498.800097 
L 248.700868 501.966809 
L 253.986437 503.349136 
L 257.327039 507.874997 
L 261.220982 503.596267 
L 264.248011 505.634255 
L 265.021885 507.042898 
L 258.298835 513.945489 
L 245.295504 520.512166 
L 246.930324 521.741262 
L 243.531208 526.089272 
L 235.642124 527.539721 
L 231.351221 523.824505 
L 227.282855 530.161038 
L 221.2709 525.878888 
L 218.041147 528.627996 
L 216.426679 525.93884 
L 209.862525 529.72475 
L 207.001176 529.201968 
L 199.72397 523.015839 
L 198.191771 518.884997 
L 207.228215 512.573903 
L 208.237053 508.988994 
L 204.792408 503.068086 
L 206.619764 499.047793 
L 215.731413 497.643418 
L 217.848028 500.32155 
L 222.702716 497.823784 
L 225.075206 494.592343 
L 223.736989 491.529678 
L 227.609694 489.575358 
L 227.362863 486.50704 
L 232.294458 486.82314 
L 237.884835 476.874279 
L 236.658586 475.728625 
L 242.913969 469.882933 
L 244.830401 470.462247 
L 245.991049 465.971465 
L 249.712807 466.424995 
L 250.839233 464.247852 
L 260.622975 463.994813 
L 259.508975 475.719862 
L 261.960634 483.7715 
" clip-path="url(#pfed08fe51d)" style="fill: #808080; stroke: #999999; stroke-width: 0.2"/>
    <path d="M 440.754126 228.13769 
L 449.067609 234.105265 
L 448.590897 236.95274 
L 451.708983 236.373114 
L 454.118517 242.051725 
L 459.21493 240.78984 
L 460.354667 242.553873 
L 454.898033 253.176796 
L 456.6465 253.416267 
L 458.023183 259.65695 
L 457.002199 267.701267 
L 461.150594 268.147419 
L 462.546207 273.112367 
L 467.848467 273.911422 
L 468.838913 279.858617 
L 472.1849 283.157926 
L 463.010751 281.896041 
L 456.731333 285.851604 
L 458.477259 292.165807 
L 454.166004 295.539201 
L 458.982809 303.655342 
L 449.597754 312.619383 
L 449.827892 317.051654 
L 446.0745 319.727525 
L 442.628433 315.82937 
L 439.545407 320.457583 
L 442.439277 325.745131 
L 438.350537 327.330749 
L 438.681338 333.232718 
L 441.454473 334.467186 
L 441.741191 338.037368 
L 443.816799 337.983069 
L 441.829125 338.628583 
L 445.729828 342.413362 
L 446.647329 347.294331 
L 441.869548 354.885117 
L 444.484346 364.596769 
L 438.821305 362.974095 
L 432.270439 349.603787 
L 426.686566 348.460931 
L 405.358749 351.034167 
L 405.045199 344.140084 
L 401.551901 342.076628 
L 386.362159 345.155404 
L 381.120114 341.179489 
L 376.265426 342.83351 
L 376.306992 345.901828 
L 372.911256 347.133186 
L 368.756076 341.329893 
L 360.081253 342.86661 
L 359.961661 346.055935 
L 352.022805 345.239382 
L 354.296335 337.07321 
L 351.626124 333.622056 
L 354.297757 328.673221 
L 356.691741 330.467499 
L 357.354206 327.079689 
L 356.714074 320.834483 
L 353.571393 319.03622 
L 354.921197 311.546683 
L 351.882582 308.265719 
L 348.750345 308.596263 
L 351.664589 304.076621 
L 348.761371 301.579166 
L 351.203426 298.057601 
L 348.946587 292.323589 
L 343.348005 288.730793 
L 342.82124 284.407374 
L 347.070859 279.832019 
L 349.489157 277.174832 
L 349.413392 272.994751 
L 351.805395 272.156999 
L 352.347126 265.941756 
L 355.338254 265.384743 
L 357.578703 259.239628 
L 379.197737 261.072942 
L 378.541497 278.272152 
L 393.168877 277.573781 
L 408.090039 272.431266 
L 405.260371 270.730266 
L 404.768669 263.065705 
L 420.300542 258.712889 
L 419.62311 254.167524 
L 415.304488 249.785849 
L 402.144266 252.862364 
L 404.01855 250.175187 
L 408.476556 249.10896 
L 415.4207 240.913108 
L 417.753326 244.42054 
L 432.9592 245.51786 
L 439.275382 233.832695 
L 437.671381 227.877274 
L 440.754126 228.13769 
" clip-path="url(#pfed08fe51d)" style="fill: #808080; stroke: #999999; stroke-width: 0.2"/>
    <path d="M 347.070859 279.832019 
L 342.82124 284.407374 
L 343.348005 288.730793 
L 348.946587 292.323589 
L 351.203426 298.057601 
L 348.761371 301.579166 
L 351.664589 304.076621 
L 348.750345 308.596263 
L 351.882582 308.265719 
L 354.921197 311.546683 
L 353.571393 319.03622 
L 356.714074 320.834483 
L 357.354206 327.079689 
L 356.691741 330.467499 
L 354.297757 328.673221 
L 351.626124 333.622056 
L 354.296335 337.07321 
L 352.022805 345.239382 
L 351.673051 361.136852 
L 350.320706 358.590186 
L 343.863999 359.709553 
L 340.328016 354.239632 
L 336.959998 356.406005 
L 330.029702 352.907901 
L 319.753721 356.067829 
L 320.012418 352.379748 
L 316.141391 349.446288 
L 308.688876 349.24215 
L 304.691754 341.521028 
L 290.52183 349.705291 
L 286.693232 353.201388 
L 270.555986 355.575009 
L 271.895626 349.9425 
L 269.772227 346.154329 
L 271.720038 341.871359 
L 276.941451 340.571004 
L 275.631791 339.054949 
L 278.442529 336.624203 
L 275.838757 333.672398 
L 276.431379 328.003963 
L 272.053963 326.069174 
L 283.436601 316.516718 
L 282.985345 314.834402 
L 280.011188 315.429291 
L 278.881336 311.70698 
L 283.415107 311.947609 
L 281.955595 307.833416 
L 284.845781 305.744238 
L 284.024979 301.205092 
L 287.575089 298.910927 
L 287.448713 295.715073 
L 294.061217 289.491067 
L 303.341367 288.074821 
L 303.447694 289.893125 
L 306.480668 289.505483 
L 309.942564 286.112585 
L 311.60762 275.15745 
L 317.689419 271.058266 
L 320.924277 265.318035 
L 327.638259 273.824334 
L 323.97308 276.91583 
L 324.748353 278.543846 
L 333.040063 276.522817 
L 347.070859 279.832019 
" clip-path="url(#pfed08fe51d)" style="fill: #808080; stroke: #999999; stroke-width: 0.2"/>
    <path d="M 268.300267 421.534269 
L 269.503064 426.742107 
L 272.50692 427.95789 
L 268.196224 430.01428 
L 264.263001 428.986212 
L 267.140458 434.272093 
L 264.356296 438.846006 
L 276.753694 449.990581 
L 273.604812 452.497675 
L 271.334663 451.68166 
L 270.786987 454.121734 
L 269.567242 456.919177 
L 265.923534 457.988231 
L 264.650078 454.636884 
L 257.859445 452.40776 
L 257.88376 440.18226 
L 255.684876 438.186105 
L 256.54356 433.745919 
L 252.700811 423.090772 
L 247.963757 414.48834 
L 247.16417 407.631823 
L 253.327655 411.059234 
L 256.852611 409.029131 
L 262.830345 411.621334 
L 267.507743 416.934888 
L 268.300267 421.534269 
" clip-path="url(#pfed08fe51d)" style="fill: #808080; stroke: #999999; stroke-width: 0.2"/>
    <path d="M 309.767815 428.145351 
L 307.993331 429.809859 
L 303.990824 428.813195 
L 303.386336 438.97637 
L 297.312463 437.612981 
L 294.914819 439.946718 
L 288.383185 433.970974 
L 287.814296 429.057471 
L 284.063724 428.215197 
L 284.835034 425.514706 
L 281.903562 424.812943 
L 283.793418 421.85998 
L 276.306681 418.150982 
L 276.330716 408.765069 
L 269.624917 408.643496 
L 266.953284 404.571703 
L 267.914052 398.44807 
L 279.504216 391.469443 
L 284.243555 392.553478 
L 284.108111 394.849338 
L 287.822782 396.566704 
L 286.027084 400.722448 
L 293.927754 399.376613 
L 293.052961 402.603249 
L 295.531755 407.253509 
L 305.30475 416.00072 
L 301.05343 420.380671 
L 304.560552 422.106545 
L 303.834771 425.025843 
L 309.767815 428.145351 
" clip-path="url(#pfed08fe51d)" style="fill: #808080; stroke: #999999; stroke-width: 0.2"/>
    <path d="M 372.911256 347.133186 
L 371.285761 354.103615 
L 367.165923 353.36341 
L 364.002331 357.394189 
L 360.998194 356.457167 
L 354.835245 365.431411 
L 363.529581 366.942095 
L 364.28364 379.640912 
L 361.112704 382.554557 
L 364.139174 386.155578 
L 361.807107 391.949261 
L 368.516589 401.774542 
L 365.044506 401.913922 
L 364.565252 404.121027 
L 358.268024 405.472799 
L 356.271024 413.594876 
L 351.058936 414.803027 
L 349.734006 419.624919 
L 348.156884 419.05123 
L 353.242853 430.159879 
L 349.85108 430.277522 
L 346.78076 436.390103 
L 345.403261 435.468938 
L 342.317113 433.17336 
L 346.196065 427.528979 
L 344.644377 422.733375 
L 336.692816 419.602561 
L 333.828903 421.217886 
L 327.931481 412.004171 
L 315.671485 427.789085 
L 309.767815 428.145351 
L 303.834771 425.025843 
L 304.560552 422.106545 
L 301.05343 420.380671 
L 305.30475 416.00072 
L 295.531755 407.253509 
L 293.052961 402.603249 
L 293.927754 399.376613 
L 286.027084 400.722448 
L 287.822782 396.566704 
L 284.108111 394.849338 
L 284.243555 392.553478 
L 279.504216 391.469443 
L 276.880653 387.86927 
L 282.676597 385.553906 
L 287.778675 386.396463 
L 285.814756 379.330748 
L 289.378153 375.571973 
L 281.362974 368.839601 
L 289.168343 361.261534 
L 292.159774 351.884667 
L 290.52183 349.705291 
L 304.691754 341.521028 
L 308.688876 349.24215 
L 316.141391 349.446288 
L 320.012418 352.379748 
L 319.753721 356.067829 
L 330.029702 352.907901 
L 336.959998 356.406005 
L 340.328016 354.239632 
L 343.863999 359.709553 
L 350.320706 358.590186 
L 351.673051 361.136852 
L 352.022805 345.239382 
L 359.961661 346.055935 
L 360.081253 342.86661 
L 368.756076 341.329893 
L 372.911256 347.133186 
" clip-path="url(#pfed08fe51d)" style="fill: #808080; stroke: #999999; stroke-width: 0.2"/>
    <path d="M 345.403261 435.468938 
L 342.840473 440.098847 
L 344.675476 441.355926 
L 337.497206 450.492729 
L 338.534603 452.826778 
L 327.386347 461.402356 
L 322.896123 462.12221 
L 325.3161 465.475253 
L 319.444391 472.577176 
L 316.111994 473.582603 
L 315.128053 479.90783 
L 307.648683 479.578444 
L 304.939447 481.557357 
L 298.192082 482.233115 
L 297.634779 478.869614 
L 289.556562 480.590938 
L 286.95053 484.947993 
L 280.775994 484.802394 
L 274.269258 490.258748 
L 268.892912 489.604755 
L 261.960634 483.7715 
L 259.508975 475.719862 
L 260.622975 463.994813 
L 265.897541 461.81996 
L 265.923534 457.988231 
L 269.567242 456.919177 
L 270.786987 454.121734 
L 277.9726 458.868976 
L 281.322527 455.371747 
L 282.386499 443.731526 
L 284.382659 445.292269 
L 286.265429 441.86401 
L 292.364479 442.05345 
L 294.914819 439.946718 
L 297.312463 437.612981 
L 303.386336 438.97637 
L 303.990824 428.813195 
L 307.993331 429.809859 
L 309.767815 428.145351 
L 315.671485 427.789085 
L 327.931481 412.004171 
L 333.828903 421.217886 
L 336.692816 419.602561 
L 344.644377 422.733375 
L 346.196065 427.528979 
L 342.317113 433.17336 
L 345.403261 435.468938 
" clip-path="url(#pfed08fe51d)" style="fill: #808080; stroke: #999999; stroke-width: 0.2"/>
    <path d="M 169.639619 466.088797 
L 173.58669 468.914535 
L 177.571108 466.691601 
L 178.290105 468.606349 
L 180.252625 467.37584 
L 192.359366 470.473865 
L 200.283232 477.577456 
L 195.519858 482.4197 
L 199.08948 484.574484 
L 199.670235 487.598424 
L 194.833358 491.271241 
L 195.45822 493.428852 
L 184.8865 492.437841 
L 177.780056 509.026899 
L 168.90477 506.837064 
L 165.734953 503.180642 
L 162.49105 504.76428 
L 161.2693 502.257187 
L 156.116891 501.829407 
L 154.027715 497.478005 
L 157.624473 493.033861 
L 156.025857 489.898242 
L 151.35072 489.026542 
L 149.189998 493.311802 
L 142.288539 487.646194 
L 139.990975 489.238312 
L 130.573119 485.440248 
L 127.417429 480.116208 
L 133.333805 472.64787 
L 133.479996 465.565732 
L 128.807097 465.689567 
L 125.165674 458.440348 
L 121.352881 458.758709 
L 118.872105 454.256592 
L 113.40188 450.827514 
L 126.785224 443.495701 
L 132.603198 446.422095 
L 135.18804 443.330882 
L 138.363218 443.795125 
L 139.621708 441.842245 
L 135.451818 436.44412 
L 147.893346 431.840216 
L 143.957279 426.552667 
L 143.264554 418.547951 
L 145.650915 418.55106 
L 148.593694 414.121615 
L 153.439057 414.464851 
L 156.730447 415.584247 
L 159.994702 420.664265 
L 162.096327 417.080232 
L 160.225423 412.445518 
L 163.192516 410.704098 
L 167.001066 413.059911 
L 166.381566 424.844064 
L 154.183231 432.041527 
L 153.633574 441.912911 
L 148.560334 448.942756 
L 153.981627 461.186036 
L 163.683356 461.352297 
L 169.639619 466.088797 
" clip-path="url(#pfed08fe51d)" style="fill: #808080; stroke: #999999; stroke-width: 0.2"/>
    <path d="M 177.780056 509.026899 
L 186.874174 512.235727 
L 187.207796 519.45244 
L 198.191771 518.884997 
L 199.72397 523.015839 
L 189.201135 532.426936 
L 181.686424 535.692043 
L 174.38742 534.420547 
L 172.094658 536.565156 
L 172.707934 540.276415 
L 178.303696 545.581517 
L 180.348765 545.051385 
L 178.683406 553.423081 
L 173.147883 554.381868 
L 170.631766 552.380625 
L 161.88992 554.441538 
L 160.261907 550.904709 
L 154.203023 547.901403 
L 149.262663 550.049969 
L 145.70831 555.397188 
L 141.927479 550.934954 
L 143.102557 545.819291 
L 137.371934 539.576347 
L 139.454606 537.082285 
L 136.978353 534.982082 
L 138.340885 532.902797 
L 133.999673 531.300474 
L 131.73801 532.972897 
L 129.983318 530.979286 
L 129.084467 524.215256 
L 137.434993 515.876604 
L 133.194701 514.108896 
L 138.317993 503.120972 
L 138.156532 500.579676 
L 131.988524 496.028941 
L 129.277866 488.252107 
L 130.573119 485.440248 
L 139.990975 489.238312 
L 142.288539 487.646194 
L 149.189998 493.311802 
L 151.35072 489.026542 
L 156.025857 489.898242 
L 157.624473 493.033861 
L 154.027715 497.478005 
L 156.116891 501.829407 
L 161.2693 502.257187 
L 162.49105 504.76428 
L 165.734953 503.180642 
L 168.90477 506.837064 
L 177.780056 509.026899 
" clip-path="url(#pfed08fe51d)" style="fill: #808080; stroke: #999999; stroke-width: 0.2"/>
    <path d="M 86.983874 396.585359 
L 83.689919 395.657411 
L 76.068041 401.729882 
L 82.886368 418.541167 
L 80.421981 419.998117 
L 82.505796 430.669121 
L 80.953525 430.92216 
L 69.992186 436.264008 
L 68.482063 440.105348 
L 71.092059 448.780734 
L 60.497423 445.989792 
L 55.251135 451.728327 
L 53.252994 450.307247 
L 49.202696 452.082304 
L 49.212044 458.740054 
L 37.497742 461.973757 
L 36.393347 464.237676 
L 31.758633 454.186492 
L 38.243059 442.359939 
L 40.50724 440.360676 
L 44.238603 441.232912 
L 42.878612 436.681329 
L 47.933202 439.390299 
L 49.204118 432.210615 
L 51.295555 431.185403 
L 49.037295 425.181081 
L 48.625903 422.229813 
L 51.023011 420.106998 
L 48.432528 416.447183 
L 49.041538 408.151524 
L 55.427003 407.045696 
L 61.059226 399.148985 
L 65.728721 400.122754 
L 73.346636 395.229066 
L 74.448211 396.531089 
L 81.306682 388.383007 
L 86.983874 396.585359 
" clip-path="url(#pfed08fe51d)" style="fill: #808080; stroke: #999999; stroke-width: 0.2"/>
    <path d="M 104.56422 433.087968 
L 113.122249 440.172367 
L 109.312581 449.263661 
L 113.40188 450.827514 
L 118.872105 454.256592 
L 121.352881 458.758709 
L 125.165674 458.440348 
L 128.807097 465.689567 
L 133.479996 465.565732 
L 133.333805 472.64787 
L 127.417429 480.116208 
L 130.573119 485.440248 
L 129.277866 488.252107 
L 131.988524 496.028941 
L 126.422741 499.869716 
L 117.941036 500.591548 
L 116.179258 507.808261 
L 113.015106 499.933625 
L 106.765924 498.161395 
L 108.713735 496.093981 
L 103.149375 492.034653 
L 102.419607 496.185309 
L 99.437804 497.57329 
L 93.254246 493.228389 
L 90.615134 505.753312 
L 87.339549 505.347015 
L 85.454519 508.80891 
L 79.903703 508.815129 
L 74.434923 514.382032 
L 68.812865 505.673008 
L 61.699637 506.248394 
L 47.88061 490.868053 
L 50.486363 489.079146 
L 49.32371 483.927868 
L 41.977802 479.055069 
L 46.298103 476.055466 
L 49.212044 458.740054 
L 49.202696 452.082304 
L 53.252994 450.307247 
L 55.251135 451.728327 
L 60.497423 445.989792 
L 71.092059 448.780734 
L 68.482063 440.105348 
L 69.992186 436.264008 
L 80.953525 430.92216 
L 86.793016 441.749504 
L 87.693826 439.392561 
L 90.410708 439.506501 
L 93.632558 432.359352 
L 96.536032 433.916957 
L 98.188662 438.666177 
L 105.8736 435.27441 
L 104.56422 433.087968 
" clip-path="url(#pfed08fe51d)" style="fill: #808080; stroke: #999999; stroke-width: 0.2"/>
   </g>
   <g id="PatchCollection_2">
    <path d="M 516.861537 238.107321 
L 516.584539 238.45806 
L 516.600089 238.392495 
L 516.861536 238.044355 
L 522.177542 230.9656 
L 520.180835 233.904367 
L 516.861537 238.107321 
" clip-path="url(#pfed08fe51d)" style="fill: #ff0000; stroke: #000000; stroke-width: 0.2"/>
    <path d="M 421.369037 58.378924 
L 426.68997 60.534273 
L 430.829601 59.359193 
L 434.555578 63.6877 
L 441.692258 62.162318 
L 448.344626 64.552616 
L 451.298884 56.517202 
L 451.327945 56.529639 
L 460.313072 60.024948 
L 472.888758 64.917022 
L 476.178833 68.146672 
L 476.826359 68.870161 
L 471.722411 72.852756 
L 460.313046 74.805948 
L 460.243334 74.817882 
L 452.173719 88.335791 
L 452.339868 98.985311 
L 452.414793 103.787697 
L 460.313083 126.584952 
L 463.855304 136.809054 
L 476.242624 155.533688 
L 486.919286 171.672496 
L 516.715873 210.409751 
L 516.861497 210.830917 
L 517.294115 212.082117 
L 522.677373 227.651334 
L 522.931302 229.856211 
L 522.184931 230.954726 
L 522.528432 228.650458 
L 522.04858 227.144607 
L 516.86162 222.964585 
L 510.366697 217.730515 
L 501.135727 215.19573 
L 485.171814 222.021412 
L 475.858848 220.319303 
L 468.11565 212.08212 
L 460.313077 203.781775 
L 454.605732 197.710325 
L 452.159107 197.888509 
L 451.388351 190.021487 
L 449.023636 191.366916 
L 448.728979 188.947112 
L 448.78067 188.833883 
L 448.143746 187.704211 
L 448.584493 189.144979 
L 447.672731 190.190048 
L 447.450351 190.101437 
L 449.13715 183.356128 
L 446.685211 180.71248 
L 446.89698 175.096366 
L 442.061805 174.984121 
L 434.77187 165.33638 
L 426.231628 168.161552 
L 426.861315 171.773851 
L 420.766228 172.628026 
L 421.687133 179.46388 
L 416.14028 182.330604 
L 415.448698 185.383375 
L 419.24706 185.611002 
L 415.5799 191.508986 
L 416.258513 195.23931 
L 416.240249 195.246341 
L 403.764721 197.419113 
L 393.298097 199.242008 
L 385.575277 193.684688 
L 376.785663 191.53078 
L 375.50512 193.160209 
L 378.985969 192.584259 
L 369.136929 195.499345 
L 364.691651 201.082077 
L 355.976124 200.414798 
L 361.621355 201.775926 
L 364.254523 203.175778 
L 362.127464 203.802637 
L 364.042474 203.821575 
L 364.183108 205.488401 
L 363.637307 209.556435 
L 360.019895 209.033653 
L 350.297814 216.489271 
L 350.696756 214.007362 
L 347.620236 215.591001 
L 336.632578 224.008516 
L 333.416952 222.590291 
L 318.080459 216.082408 
L 299.069136 217.32055 
L 288.755553 213.207205 
L 292.901967 208.416971 
L 293.963934 202.30552 
L 296.430303 201.401852 
L 300.727711 205.397864 
L 311.653708 204.28302 
L 311.587548 201.736353 
L 314.936076 203.023113 
L 315.7925 198.593385 
L 325.847107 197.333479 
L 324.432541 192.852589 
L 315.131154 191.939056 
L 312.668189 187.613941 
L 321.049254 182.543815 
L 319.714697 171.180941 
L 322.326394 166.637272 
L 318.4746 164.358937 
L 316.879644 152.397809 
L 321.382876 146.302754 
L 321.832733 143.195683 
L 316.488884 142.239157 
L 321.544897 133.510065 
L 321.430387 121.238773 
L 319.000502 118.747537 
L 320.524751 111.468045 
L 326.304564 108.85665 
L 329.081662 103.259474 
L 343.446383 100.842295 
L 343.753732 102.430456 
L 355.719386 98.696584 
L 356.516153 104.207209 
L 365.244409 105.27485 
L 364.460929 98.377347 
L 369.525685 96.267816 
L 372.163678 90.571116 
L 369.217216 88.113827 
L 377.460577 85.628498 
L 387.002547 78.041132 
L 394.181959 80.576181 
L 404.881477 73.375297 
L 406.961328 70.456847 
L 406.124138 67.576273 
L 411.853899 63.840676 
L 410.54622 55.488739 
L 413.229742 52.284716 
L 418.287713 51.397187 
L 421.369037 58.378924 
" clip-path="url(#pfed08fe51d)" style="fill: #ff0000; stroke: #000000; stroke-width: 0.2"/>
   </g>
   <g id="PatchCollection_3">
    <defs>
     <path id="m3f392208b4" d="M 104.56422 -154.70922 
L 113.122249 -147.624821 
L 109.312581 -138.533526 
L 113.40188 -136.969674 
L 118.872105 -133.540596 
L 121.352881 -129.038478 
L 125.165674 -129.35684 
L 128.807097 -122.107621 
L 133.479996 -122.231455 
L 133.333805 -115.149318 
L 127.417429 -107.68098 
L 130.573119 -102.35694 
L 129.277866 -99.545081 
L 131.988524 -91.768246 
L 126.422741 -87.927472 
L 117.941036 -87.205639 
L 116.179258 -79.988927 
L 113.015106 -87.863562 
L 106.765924 -89.635792 
L 108.713735 -91.703206 
L 103.149375 -95.762534 
L 102.419607 -91.611878 
L 99.437804 -90.223898 
L 93.254246 -94.568799 
L 90.615134 -82.043875 
L 87.339549 -82.450172 
L 85.454519 -78.988277 
L 79.903703 -78.982059 
L 74.434923 -73.415156 
L 68.812865 -82.124179 
L 61.699637 -81.548794 
L 47.88061 -96.929134 
L 50.486363 -98.718042 
L 49.32371 -103.869319 
L 41.977802 -108.742119 
L 46.298103 -111.741722 
L 49.212044 -129.057134 
L 49.202696 -135.714883 
L 53.252994 -137.48994 
L 55.251135 -136.06886 
L 60.497423 -141.807395 
L 71.092059 -139.016453 
L 68.482063 -147.69184 
L 69.992186 -151.53318 
L 80.953525 -156.875028 
L 86.793016 -146.047684 
L 87.693826 -148.404627 
L 90.410708 -148.290686 
L 93.632558 -155.437836 
L 96.536032 -153.88023 
L 98.188662 -149.13101 
L 105.8736 -152.522777 
L 104.56422 -154.70922 
" style="stroke: #000000; stroke-width: 0.2"/>
    </defs>
    <g clip-path="url(#pfed08fe51d)">
     <use xlink:href="#m3f392208b4" x="0" y="587.797188" style="fill: #008000; stroke: #000000; stroke-width: 0.2"/>
    </g>
   </g>
   <g id="matplotlib.axis_1"/>
   <g id="matplotlib.axis_2"/>
   <g id="LineCollection_1">
    <path d="M 90.1965 412.210055 
L 84.436845 425.416714 
L 84.019133 431.328419 
L 86.593103 439.782037 
L 89.662448 446.099096 
L 93.22372 451.635782 
L 101.403132 460.711418 
L 111.662762 468.235248 
L 114.588897 471.615768 
L 121.546213 483.276615 
L 124.75719 486.360567 
L 140.222301 497.252 
L 144.121128 498.615487 
L 152.908361 498.444543 
L 160.594432 498.744692 
L 172.734047 502.428917 
L 176.065399 500.496333 
L 182.304338 492.714388 
L 187.371793 487.930028 
L 200.073039 470.841052 
L 205.139524 466.97138 
L 210.606318 465.554556 
L 233.910347 468.428908 
L 239.152611 467.284123 
L 255.276324 457.434112 
L 261.510094 456.923698 
L 269.182293 450.609561 
L 283.761467 435.212342 
L 292.076103 432.038702 
L 299.042845 433.600838 
L 301.34436 433.493783 
L 303.88385 431.539879 
L 305.61068 425.538818 
L 314.056702 420.941821 
L 327.48005 404.936221 
L 342.70043 392.407338 
L 347.790983 383.477468 
L 349.946039 373.379221 
L 353.490909 335.220325 
L 357.083068 324.762553 
L 357.665803 321.270113 
L 357.208705 318.807296 
L 354.046552 308.799823 
L 353.150603 307.47108 
L 351.895984 306.647721 
L 350.882515 305.589686 
L 350.70869 303.480281 
L 351.492382 300.074261 
L 351.707161 298.316656 
L 351.495302 296.668786 
L 348.889575 290.990586 
L 346.987858 287.962974 
L 346.396459 284.618712 
L 347.689595 277.914087 
L 350.140397 271.112715 
L 355.812542 259.261624 
L 357.514998 251.985268 
L 359.603303 213.590248 
L 362.975458 205.015137 
" clip-path="url(#pfed08fe51d)" style="fill: none; stroke: #add8e6; stroke-width: 3"/>
   </g>
   <g id="text_1">
    <!-- East Riding of Yorkshire -->
    <g transform="translate(311.643966 139.524105) scale(0.15 -0.15)">
     <defs>
      <path id="STIXGeneral-Bold-45" d="M 4102 1331 
L 3846 0 
L 102 0 
L 102 160 
Q 448 198 557 294 
Q 666 390 666 646 
L 666 3712 
Q 666 3955 550 4051 
Q 435 4147 102 4166 
L 102 4326 
L 3795 4326 
L 3795 3040 
L 3635 3040 
Q 3526 3680 3216 3894 
Q 2906 4109 2118 4109 
Q 1875 4109 1788 4032 
Q 1702 3955 1702 3763 
L 1702 2323 
Q 2221 2330 2451 2531 
Q 2682 2733 2739 3277 
L 2906 3277 
L 2906 1114 
L 2739 1114 
Q 2694 1677 2464 1891 
Q 2234 2106 1702 2106 
L 1702 557 
Q 1702 352 1814 275 
Q 1926 198 2234 198 
Q 2982 198 3398 544 
Q 3558 672 3667 838 
Q 3776 1005 3923 1331 
L 4102 1331 
z
" transform="scale(0.015625)"/>
      <path id="STIXGeneral-Bold-61" d="M 3027 410 
L 3123 275 
Q 2784 -90 2406 -90 
Q 2170 -90 2051 9 
Q 1933 109 1882 352 
Q 1395 -90 864 -90 
Q 544 -90 352 80 
Q 160 250 160 589 
Q 160 1018 589 1306 
Q 909 1517 1875 1792 
L 1875 2227 
Q 1875 2541 1756 2681 
Q 1638 2822 1357 2822 
Q 1178 2822 1059 2758 
Q 941 2694 941 2586 
Q 941 2515 1011 2438 
Q 1133 2291 1133 2170 
Q 1133 2003 1011 1894 
Q 890 1786 698 1786 
Q 499 1786 390 1901 
Q 282 2016 282 2221 
Q 282 2598 618 2812 
Q 954 3027 1504 3027 
Q 2093 3027 2425 2803 
Q 2758 2579 2758 2170 
L 2758 499 
Q 2758 320 2893 320 
Q 2938 320 2963 346 
L 3027 410 
z
M 1875 621 
L 1875 1568 
Q 1094 1350 1094 794 
Q 1094 589 1187 477 
Q 1280 365 1427 365 
Q 1696 365 1875 621 
z
" transform="scale(0.015625)"/>
      <path id="STIXGeneral-Bold-73" d="M 2176 2086 
L 2016 2086 
Q 1894 2445 1715 2611 
Q 1498 2816 1235 2816 
Q 1056 2816 934 2710 
Q 813 2605 813 2445 
Q 813 2278 957 2147 
Q 1101 2016 1427 1882 
Q 1907 1683 2108 1452 
Q 2310 1222 2310 883 
Q 2310 454 2035 182 
Q 1760 -90 1325 -90 
Q 992 -90 634 58 
Q 538 96 486 96 
Q 416 96 320 -83 
L 160 -83 
L 160 973 
L 339 973 
Q 544 128 1216 128 
Q 1434 128 1565 243 
Q 1696 358 1696 544 
Q 1696 698 1555 829 
Q 1414 960 1082 1101 
Q 602 1306 387 1539 
Q 173 1773 173 2093 
Q 173 2496 457 2761 
Q 742 3027 1178 3027 
Q 1395 3027 1677 2931 
Q 1818 2886 1875 2886 
Q 1984 2886 2035 3014 
L 2176 3014 
L 2176 2086 
z
" transform="scale(0.015625)"/>
      <path id="STIXGeneral-Bold-74" d="M 1965 717 
L 2125 646 
Q 1926 250 1712 86 
Q 1498 -77 1178 -77 
Q 845 -77 653 105 
Q 461 288 461 608 
L 461 2669 
L 122 2669 
L 122 2842 
Q 435 3053 646 3299 
Q 858 3546 1190 4032 
L 1350 4032 
L 1350 2950 
L 1958 2950 
L 1958 2669 
L 1350 2669 
L 1350 762 
Q 1350 378 1600 378 
Q 1786 378 1965 717 
z
" transform="scale(0.015625)"/>
      <path id="STIXGeneral-Bold-20" transform="scale(0.015625)"/>
      <path id="STIXGeneral-Bold-52" d="M 4582 0 
L 3270 0 
L 1946 2003 
L 1766 2003 
L 1766 749 
Q 1766 403 1859 307 
Q 1952 211 2330 160 
L 2330 0 
L 166 0 
L 166 160 
Q 544 205 637 301 
Q 730 397 730 768 
L 730 3526 
Q 730 3904 624 4022 
Q 518 4141 166 4166 
L 166 4326 
L 2138 4326 
Q 4032 4326 4032 3226 
Q 4032 2739 3744 2470 
Q 3475 2227 3027 2106 
L 4301 301 
Q 4397 160 4582 160 
L 4582 0 
z
M 1766 3821 
L 1766 2208 
Q 2426 2214 2682 2406 
Q 2938 2598 2938 3162 
Q 2938 3667 2746 3888 
Q 2554 4109 2106 4109 
Q 1920 4109 1843 4045 
Q 1766 3981 1766 3821 
z
" transform="scale(0.015625)"/>
      <path id="STIXGeneral-Bold-69" d="M 1376 3923 
Q 1376 3712 1232 3571 
Q 1088 3430 877 3430 
Q 666 3430 525 3571 
Q 384 3712 384 3923 
Q 384 4134 528 4278 
Q 672 4422 890 4422 
Q 1088 4422 1232 4275 
Q 1376 4128 1376 3923 
z
M 1638 0 
L 102 0 
L 102 154 
Q 326 205 384 275 
Q 442 346 442 563 
L 442 2387 
Q 442 2598 374 2675 
Q 307 2752 96 2797 
L 96 2950 
L 1331 2950 
L 1331 544 
Q 1331 339 1398 259 
Q 1466 179 1638 154 
L 1638 0 
z
" transform="scale(0.015625)"/>
      <path id="STIXGeneral-Bold-64" d="M 3418 128 
L 3021 77 
Q 2496 6 2170 -83 
L 2170 333 
Q 1946 96 1760 3 
Q 1574 -90 1318 -90 
Q 813 -90 486 332 
Q 160 755 160 1414 
Q 160 2112 509 2569 
Q 858 3027 1389 3027 
Q 1606 3027 1776 2940 
Q 1946 2854 2150 2630 
L 2150 3802 
Q 2150 4026 2067 4086 
Q 1984 4147 1664 4173 
L 1664 4326 
L 3040 4326 
L 3040 646 
Q 3040 442 3120 365 
Q 3200 288 3418 275 
L 3418 128 
z
M 2150 717 
L 2150 2272 
Q 2080 2458 1945 2563 
Q 1811 2669 1651 2669 
Q 1107 2669 1107 1466 
Q 1107 269 1606 269 
Q 1837 269 2029 506 
Q 2150 666 2150 717 
z
" transform="scale(0.015625)"/>
      <path id="STIXGeneral-Bold-6e" d="M 3450 0 
L 1952 0 
L 1952 154 
Q 2112 173 2179 259 
Q 2246 346 2246 538 
L 2246 2054 
Q 2246 2598 1920 2598 
Q 1690 2598 1472 2381 
Q 1363 2272 1363 2227 
L 1363 538 
Q 1363 352 1430 265 
Q 1498 179 1670 154 
L 1670 0 
L 134 0 
L 134 154 
Q 346 198 410 275 
Q 474 352 474 557 
L 474 2406 
Q 474 2611 410 2688 
Q 346 2765 134 2797 
L 134 2950 
L 1357 2950 
L 1357 2470 
L 1363 2470 
Q 1677 3027 2272 3027 
Q 2669 3027 2902 2780 
Q 3136 2534 3136 2118 
L 3136 538 
Q 3136 320 3200 243 
Q 3264 166 3450 154 
L 3450 0 
z
" transform="scale(0.015625)"/>
      <path id="STIXGeneral-Bold-67" d="M 1626 435 
L 1958 435 
Q 2477 435 2784 227 
Q 3091 19 3091 -333 
Q 3091 -787 2652 -1052 
Q 2214 -1318 1421 -1318 
Q 179 -1318 179 -730 
Q 179 -339 794 -250 
Q 493 -141 381 -25 
Q 269 90 269 275 
Q 269 557 454 733 
Q 640 909 1030 1024 
Q 678 1120 457 1382 
Q 237 1645 237 1997 
Q 237 2464 598 2745 
Q 960 3027 1536 3027 
Q 1869 3027 2253 2886 
L 3078 2886 
L 3078 2547 
L 2566 2547 
Q 2822 2317 2822 1920 
Q 2822 1318 2234 1075 
Q 2080 1011 1971 998 
Q 1862 986 1421 986 
Q 1229 986 1104 899 
Q 979 813 979 672 
Q 979 538 1113 486 
Q 1248 435 1626 435 
z
M 1958 1997 
Q 1958 2445 1859 2637 
Q 1760 2829 1529 2829 
Q 1299 2829 1206 2643 
Q 1114 2458 1114 1990 
Q 1114 1542 1210 1353 
Q 1306 1165 1536 1165 
Q 1766 1165 1862 1353 
Q 1958 1542 1958 1997 
z
M 2016 -333 
L 966 -333 
Q 832 -442 787 -512 
Q 742 -582 742 -685 
Q 742 -1114 1600 -1114 
Q 2061 -1114 2323 -995 
Q 2586 -877 2586 -691 
Q 2586 -333 2016 -333 
z
" transform="scale(0.015625)"/>
      <path id="STIXGeneral-Bold-6f" d="M 3046 1466 
Q 3046 794 2633 352 
Q 2221 -90 1600 -90 
Q 992 -90 576 348 
Q 160 787 160 1459 
Q 160 2157 573 2592 
Q 986 3027 1626 3027 
Q 2234 3027 2640 2585 
Q 3046 2144 3046 1466 
z
M 2106 1395 
Q 2106 2214 1997 2521 
Q 1888 2829 1606 2829 
Q 1312 2829 1206 2525 
Q 1101 2221 1101 1395 
Q 1101 698 1216 403 
Q 1331 109 1606 109 
Q 1882 109 1994 393 
Q 2106 678 2106 1395 
z
" transform="scale(0.015625)"/>
      <path id="STIXGeneral-Bold-66" d="M 90 2950 
L 454 2950 
Q 454 3789 710 4096 
Q 979 4422 1574 4422 
Q 1984 4422 2237 4243 
Q 2490 4064 2490 3782 
Q 2490 3603 2381 3488 
Q 2272 3373 2093 3373 
Q 1933 3373 1821 3481 
Q 1709 3590 1709 3738 
Q 1709 3866 1779 3971 
Q 1850 4077 1850 4102 
Q 1850 4224 1664 4224 
Q 1491 4224 1417 4112 
Q 1344 4000 1344 3718 
L 1344 2950 
L 1894 2950 
L 1894 2669 
L 1344 2669 
L 1344 685 
Q 1344 365 1440 262 
Q 1536 160 1869 154 
L 1869 0 
L 90 0 
L 90 154 
Q 307 179 380 259 
Q 454 339 454 557 
L 454 2669 
L 90 2669 
L 90 2950 
z
" transform="scale(0.015625)"/>
      <path id="STIXGeneral-Bold-59" d="M 4474 4326 
L 4474 4166 
Q 4160 4122 4038 3917 
L 2816 1926 
L 2816 787 
Q 2816 416 2921 304 
Q 3027 192 3405 160 
L 3405 0 
L 1184 0 
L 1184 160 
Q 1568 192 1673 320 
Q 1779 448 1779 819 
L 1779 1690 
L 627 3789 
Q 429 4147 96 4166 
L 96 4326 
L 2240 4326 
L 2240 4166 
L 2067 4154 
Q 1862 4141 1792 4105 
Q 1722 4070 1722 3968 
Q 1722 3885 1875 3590 
L 2643 2106 
L 3341 3245 
Q 3603 3680 3603 3898 
Q 3603 4038 3497 4089 
Q 3392 4141 3066 4166 
L 3066 4326 
L 4474 4326 
z
" transform="scale(0.015625)"/>
      <path id="STIXGeneral-Bold-72" d="M 1395 2950 
L 1395 2426 
Q 1619 2752 1817 2889 
Q 2016 3027 2259 3027 
Q 2483 3027 2630 2883 
Q 2778 2739 2778 2522 
Q 2778 2330 2666 2208 
Q 2554 2086 2374 2086 
Q 2138 2086 1990 2330 
Q 1901 2477 1811 2477 
Q 1645 2477 1533 2285 
Q 1421 2093 1421 1811 
L 1421 678 
Q 1421 371 1507 272 
Q 1594 173 1882 154 
L 1882 0 
L 186 0 
L 186 154 
Q 397 192 464 265 
Q 531 339 531 538 
L 531 2387 
Q 531 2611 460 2688 
Q 390 2765 179 2797 
L 179 2950 
L 1395 2950 
z
" transform="scale(0.015625)"/>
      <path id="STIXGeneral-Bold-6b" d="M 3475 0 
L 1978 0 
L 1978 154 
Q 2246 166 2246 275 
Q 2246 352 2093 563 
L 1485 1421 
L 1338 1267 
L 1338 538 
Q 1338 314 1392 250 
Q 1446 186 1670 154 
L 1670 0 
L 141 0 
L 141 154 
Q 448 179 448 538 
L 448 3802 
Q 448 4147 141 4173 
L 141 4326 
L 1338 4326 
L 1338 1568 
L 2157 2387 
Q 2291 2522 2291 2630 
Q 2291 2746 2067 2778 
L 1914 2803 
L 1914 2950 
L 3283 2950 
L 3283 2803 
Q 2982 2765 2768 2617 
Q 2554 2470 2074 1965 
L 3315 250 
Q 3386 154 3475 154 
L 3475 0 
z
" transform="scale(0.015625)"/>
      <path id="STIXGeneral-Bold-68" d="M 3418 0 
L 1920 0 
L 1920 154 
Q 2080 173 2147 259 
Q 2214 346 2214 544 
L 2214 1978 
Q 2214 2323 2144 2460 
Q 2074 2598 1888 2598 
Q 1658 2598 1440 2381 
Q 1331 2272 1331 2227 
L 1331 544 
Q 1331 346 1395 262 
Q 1459 179 1638 154 
L 1638 0 
L 102 0 
L 102 154 
Q 333 198 387 256 
Q 442 314 442 570 
L 442 3782 
Q 442 4006 384 4067 
Q 326 4128 96 4173 
L 96 4326 
L 1331 4326 
L 1331 2534 
Q 1747 3027 2272 3027 
Q 2656 3027 2880 2784 
Q 3104 2541 3104 2157 
L 3104 557 
Q 3104 339 3177 246 
Q 3251 154 3418 154 
L 3418 0 
z
" transform="scale(0.015625)"/>
      <path id="STIXGeneral-Bold-65" d="M 2579 806 
L 2733 717 
Q 2451 269 2166 89 
Q 1882 -90 1466 -90 
Q 890 -90 525 342 
Q 160 774 160 1434 
Q 160 2150 528 2588 
Q 896 3027 1498 3027 
Q 2029 3027 2317 2707 
Q 2656 2336 2694 1568 
L 1082 1568 
Q 1101 1299 1133 1116 
Q 1165 934 1241 748 
Q 1318 563 1468 467 
Q 1619 371 1843 371 
Q 2048 371 2214 470 
Q 2381 570 2579 806 
z
M 1907 1805 
L 1907 1939 
Q 1907 2406 1850 2528 
Q 1773 2688 1699 2758 
Q 1626 2829 1498 2829 
Q 1267 2829 1158 2595 
Q 1050 2362 1050 1805 
L 1907 1805 
z
" transform="scale(0.015625)"/>
     </defs>
     <use xlink:href="#STIXGeneral-Bold-45"/>
     <use xlink:href="#STIXGeneral-Bold-61" transform="translate(66.699997 0)"/>
     <use xlink:href="#STIXGeneral-Bold-73" transform="translate(116.699982 0)"/>
     <use xlink:href="#STIXGeneral-Bold-74" transform="translate(155.599976 0)"/>
     <use xlink:href="#STIXGeneral-Bold-20" transform="translate(188.899963 0)"/>
     <use xlink:href="#STIXGeneral-Bold-52" transform="translate(213.899948 0)"/>
     <use xlink:href="#STIXGeneral-Bold-69" transform="translate(286.09993 0)"/>
     <use xlink:href="#STIXGeneral-Bold-64" transform="translate(313.899918 0)"/>
     <use xlink:href="#STIXGeneral-Bold-69" transform="translate(369.499908 0)"/>
     <use xlink:href="#STIXGeneral-Bold-6e" transform="translate(397.299896 0)"/>
     <use xlink:href="#STIXGeneral-Bold-67" transform="translate(452.899887 0)"/>
     <use xlink:href="#STIXGeneral-Bold-20" transform="translate(502.899872 0)"/>
     <use xlink:href="#STIXGeneral-Bold-6f" transform="translate(527.899857 0)"/>
     <use xlink:href="#STIXGeneral-Bold-66" transform="translate(577.899841 0)"/>
     <use xlink:href="#STIXGeneral-Bold-20" transform="translate(611.199829 0)"/>
     <use xlink:href="#STIXGeneral-Bold-59" transform="translate(636.199814 0)"/>
     <use xlink:href="#STIXGeneral-Bold-6f" transform="translate(708.399796 0)"/>
     <use xlink:href="#STIXGeneral-Bold-72" transform="translate(758.39978 0)"/>
     <use xlink:href="#STIXGeneral-Bold-6b" transform="translate(802.799774 0)"/>
     <use xlink:href="#STIXGeneral-Bold-73" transform="translate(858.399765 0)"/>
     <use xlink:href="#STIXGeneral-Bold-68" transform="translate(897.299759 0)"/>
     <use xlink:href="#STIXGeneral-Bold-69" transform="translate(952.89975 0)"/>
     <use xlink:href="#STIXGeneral-Bold-72" transform="translate(980.699738 0)"/>
     <use xlink:href="#STIXGeneral-Bold-65" transform="translate(1025.099731 0)"/>
    </g>
   </g>
   <g id="text_2">
    <!-- Stafford -->
    <g transform="translate(62.623119 474.351668) scale(0.15 -0.15)">
     <defs>
      <path id="STIXGeneral-Bold-53" d="M 3098 3034 
L 2918 3034 
Q 2752 3578 2470 3866 
Q 2125 4224 1683 4224 
Q 1357 4224 1168 4048 
Q 979 3872 979 3590 
Q 979 3360 1113 3213 
Q 1248 3066 1638 2861 
Q 1754 2797 2077 2633 
Q 2400 2470 2586 2368 
Q 2899 2195 3091 1897 
Q 3283 1600 3283 1242 
Q 3283 634 2844 256 
Q 2406 -122 1696 -122 
Q 1306 -122 864 32 
Q 666 96 602 96 
Q 525 96 480 48 
Q 435 0 410 -122 
L 224 -122 
L 224 1466 
L 410 1466 
Q 557 851 794 550 
Q 1158 90 1715 90 
Q 2086 90 2304 285 
Q 2522 480 2522 813 
Q 2522 1120 2157 1376 
Q 1997 1491 1376 1792 
Q 806 2067 544 2368 
Q 282 2669 282 3136 
Q 282 3744 656 4083 
Q 1030 4422 1683 4422 
Q 2035 4422 2432 4275 
Q 2624 4211 2701 4211 
Q 2790 4211 2832 4256 
Q 2874 4301 2906 4429 
L 3098 4429 
L 3098 3034 
z
" transform="scale(0.015625)"/>
     </defs>
     <use xlink:href="#STIXGeneral-Bold-53"/>
     <use xlink:href="#STIXGeneral-Bold-74" transform="translate(55.599991 0)"/>
     <use xlink:href="#STIXGeneral-Bold-61" transform="translate(88.899979 0)"/>
     <use xlink:href="#STIXGeneral-Bold-66" transform="translate(138.899963 0)"/>
     <use xlink:href="#STIXGeneral-Bold-66" transform="translate(172.199951 0)"/>
     <use xlink:href="#STIXGeneral-Bold-6f" transform="translate(205.499939 0)"/>
     <use xlink:href="#STIXGeneral-Bold-72" transform="translate(255.499924 0)"/>
     <use xlink:href="#STIXGeneral-Bold-64" transform="translate(299.899918 0)"/>
    </g>
   </g>
   <g id="text_3">
    <!-- Distance between East Riding of Yorkshire and Stafford is 160 km. -->
    <g style="fill: #323034" transform="translate(7.2 20.197188) scale(0.19 -0.19)">
     <defs>
      <path id="STIXGeneral-Regular-44" d="M 102 4237 
L 1830 4237 
Q 3078 4237 3750 3654 
Q 4384 3110 4384 2138 
Q 4384 966 3514 410 
Q 2880 0 1901 0 
L 102 0 
L 102 122 
Q 474 147 570 252 
Q 666 358 666 736 
L 666 3520 
Q 666 3891 570 3990 
Q 474 4090 102 4115 
L 102 4237 
z
M 1318 3731 
L 1318 538 
Q 1318 365 1379 301 
Q 1440 237 1626 237 
Q 2125 237 2432 307 
Q 2739 378 3021 570 
Q 3686 1018 3686 2099 
Q 3686 3027 3078 3558 
Q 2803 3802 2476 3901 
Q 2150 4000 1658 4000 
Q 1472 4000 1395 3942 
Q 1318 3885 1318 3731 
z
" transform="scale(0.015625)"/>
      <path id="STIXGeneral-Regular-69" d="M 1152 4045 
Q 1152 3904 1056 3811 
Q 960 3718 819 3718 
Q 685 3718 592 3811 
Q 499 3904 499 4045 
Q 499 4179 595 4275 
Q 691 4371 826 4371 
Q 966 4371 1059 4275 
Q 1152 4179 1152 4045 
z
M 1619 0 
L 102 0 
L 102 96 
Q 435 115 521 211 
Q 608 307 608 666 
L 608 2118 
Q 608 2342 563 2432 
Q 518 2522 397 2522 
Q 243 2522 128 2490 
L 128 2592 
L 1120 2944 
L 1146 2918 
L 1146 672 
Q 1146 314 1226 218 
Q 1306 122 1619 96 
L 1619 0 
z
" transform="scale(0.015625)"/>
      <path id="STIXGeneral-Regular-73" d="M 998 1926 
L 1664 1523 
Q 1984 1331 2105 1164 
Q 2227 998 2227 736 
Q 2227 416 1961 176 
Q 1696 -64 1331 -64 
Q 1030 -64 864 -6 
Q 691 51 570 51 
Q 461 51 416 -26 
L 333 -26 
L 333 979 
L 435 979 
Q 538 512 730 294 
Q 922 77 1248 77 
Q 1485 77 1632 211 
Q 1779 346 1779 550 
Q 1779 845 1440 1030 
L 1094 1222 
Q 326 1651 326 2150 
Q 326 2522 566 2730 
Q 806 2938 1210 2938 
Q 1491 2938 1638 2867 
Q 1754 2816 1818 2816 
Q 1862 2816 1920 2880 
L 1990 2880 
L 2022 2010 
L 1926 2010 
Q 1818 2445 1654 2621 
Q 1491 2797 1203 2797 
Q 986 2797 854 2688 
Q 723 2579 723 2362 
Q 723 2253 796 2128 
Q 870 2003 998 1926 
z
" transform="scale(0.015625)"/>
      <path id="STIXGeneral-Regular-74" d="M 1702 493 
L 1786 422 
Q 1478 -64 1011 -64 
Q 448 -64 448 749 
L 448 2675 
L 109 2675 
Q 83 2694 83 2720 
Q 83 2771 192 2842 
Q 435 2982 813 3526 
Q 826 3546 874 3606 
Q 922 3667 941 3706 
Q 986 3706 986 3622 
L 986 2880 
L 1632 2880 
L 1632 2675 
L 986 2675 
L 986 845 
Q 986 538 1062 403 
Q 1139 269 1318 269 
Q 1510 269 1702 493 
z
" transform="scale(0.015625)"/>
      <path id="STIXGeneral-Regular-61" d="M 2829 422 
L 2829 243 
Q 2586 -64 2253 -64 
Q 1888 -64 1843 403 
L 1837 403 
Q 1427 -64 909 -64 
Q 608 -64 422 112 
Q 237 288 237 602 
Q 237 1050 685 1350 
Q 992 1555 1837 1869 
L 1837 2214 
Q 1837 2502 1699 2646 
Q 1562 2790 1338 2790 
Q 1146 2790 1018 2697 
Q 890 2605 890 2477 
Q 890 2419 909 2348 
Q 928 2278 928 2208 
Q 928 2112 841 2029 
Q 755 1946 634 1946 
Q 525 1946 441 2029 
Q 358 2112 358 2240 
Q 358 2547 685 2752 
Q 986 2944 1421 2944 
Q 1939 2944 2176 2656 
Q 2291 2522 2323 2384 
Q 2355 2246 2355 1946 
L 2355 723 
Q 2355 301 2554 301 
Q 2682 301 2829 422 
z
M 1837 813 
L 1837 1715 
Q 1248 1510 1018 1293 
Q 800 1094 800 800 
Q 800 557 921 432 
Q 1043 307 1242 307 
Q 1453 307 1613 410 
Q 1747 506 1792 589 
Q 1837 672 1837 813 
z
" transform="scale(0.015625)"/>
      <path id="STIXGeneral-Regular-6e" d="M 3104 0 
L 1773 0 
L 1779 96 
Q 2016 115 2096 233 
Q 2176 352 2176 672 
L 2176 1946 
Q 2176 2592 1709 2592 
Q 1549 2592 1408 2515 
Q 1267 2438 1050 2227 
L 1050 461 
Q 1050 269 1136 192 
Q 1222 115 1466 96 
L 1466 0 
L 115 0 
L 115 96 
Q 358 115 435 214 
Q 512 314 512 602 
L 512 2157 
Q 512 2394 467 2483 
Q 422 2573 288 2573 
Q 160 2573 102 2547 
L 102 2656 
Q 550 2784 979 2944 
L 1030 2925 
L 1030 2426 
L 1037 2426 
Q 1491 2944 1958 2944 
Q 2323 2944 2518 2688 
Q 2714 2432 2714 1958 
L 2714 544 
Q 2714 288 2790 205 
Q 2867 122 3104 96 
L 3104 0 
z
" transform="scale(0.015625)"/>
      <path id="STIXGeneral-Regular-63" d="M 2547 998 
L 2637 941 
Q 2362 403 2112 205 
Q 1786 -64 1376 -64 
Q 845 -64 502 336 
Q 160 736 160 1357 
Q 160 2170 698 2618 
Q 1094 2944 1562 2944 
Q 1965 2944 2256 2749 
Q 2547 2554 2547 2285 
Q 2547 2176 2457 2096 
Q 2368 2016 2246 2016 
Q 2022 2016 1939 2310 
L 1901 2451 
Q 1850 2630 1773 2694 
Q 1696 2758 1523 2758 
Q 1133 2758 893 2451 
Q 653 2144 653 1645 
Q 653 1094 928 745 
Q 1203 397 1645 397 
Q 1920 397 2118 528 
Q 2317 659 2547 998 
z
" transform="scale(0.015625)"/>
      <path id="STIXGeneral-Regular-65" d="M 2611 1050 
L 2714 1005 
Q 2330 -64 1376 -64 
Q 813 -64 486 329 
Q 160 723 160 1389 
Q 160 2074 525 2509 
Q 890 2944 1485 2944 
Q 2061 2944 2374 2502 
Q 2560 2246 2592 1773 
L 621 1773 
Q 646 1370 700 1158 
Q 755 947 915 730 
Q 1184 378 1626 378 
Q 1939 378 2153 531 
Q 2368 685 2611 1050 
z
M 634 1978 
L 1939 1978 
Q 1882 2381 1750 2547 
Q 1619 2714 1312 2714 
Q 1043 2714 864 2525 
Q 685 2336 634 1978 
z
" transform="scale(0.015625)"/>
      <path id="STIXGeneral-Regular-20" transform="scale(0.015625)"/>
      <path id="STIXGeneral-Regular-62" d="M 979 4358 
L 979 2406 
Q 1082 2650 1315 2797 
Q 1549 2944 1843 2944 
Q 2349 2944 2672 2541 
Q 2995 2138 2995 1536 
Q 2995 832 2566 384 
Q 2138 -64 1498 -64 
Q 1107 -64 774 67 
Q 442 198 442 358 
L 442 3622 
Q 442 3859 384 3926 
Q 326 3994 128 3994 
Q 83 3994 19 3981 
L 19 4090 
L 211 4147 
Q 864 4346 947 4371 
L 979 4358 
z
M 979 2035 
L 979 474 
Q 979 326 1161 233 
Q 1344 141 1600 141 
Q 1978 141 2195 416 
Q 2432 710 2432 1261 
Q 2432 1888 2182 2240 
Q 1971 2541 1613 2541 
Q 1357 2541 1168 2390 
Q 979 2240 979 2035 
z
" transform="scale(0.015625)"/>
      <path id="STIXGeneral-Regular-77" d="M 4442 2880 
L 4442 2784 
Q 4346 2752 4301 2691 
Q 4256 2630 4179 2438 
L 3296 224 
Q 3168 -90 3117 -90 
Q 3085 -90 3062 -48 
Q 3040 -6 2963 186 
L 2381 1696 
L 1664 160 
Q 1549 -90 1504 -90 
Q 1446 -90 1338 192 
L 474 2381 
Q 378 2630 314 2700 
Q 250 2771 134 2784 
L 134 2880 
L 1286 2880 
L 1286 2784 
Q 1120 2765 1056 2720 
Q 992 2675 992 2573 
Q 992 2477 1030 2381 
L 1664 710 
L 2246 1984 
L 2118 2342 
Q 2029 2598 1942 2681 
Q 1856 2765 1677 2784 
L 1677 2880 
L 2976 2880 
L 2976 2784 
Q 2752 2752 2678 2707 
Q 2605 2662 2605 2560 
Q 2605 2458 2714 2176 
L 3251 742 
L 3827 2163 
Q 3936 2432 3936 2592 
Q 3936 2669 3875 2710 
Q 3814 2752 3654 2784 
L 3654 2880 
L 4442 2880 
z
" transform="scale(0.015625)"/>
      <path id="STIXGeneral-Regular-45" d="M 3821 1082 
L 3526 0 
L 77 0 
L 77 122 
Q 442 147 538 252 
Q 634 358 634 730 
L 634 3520 
Q 634 3878 534 3987 
Q 435 4096 77 4115 
L 77 4237 
L 3469 4237 
L 3494 3322 
L 3334 3322 
Q 3264 3750 3085 3872 
Q 2906 3994 2349 3994 
L 1510 3994 
Q 1370 3994 1328 3952 
Q 1286 3910 1286 3763 
L 1286 2355 
L 2253 2355 
Q 2656 2355 2787 2470 
Q 2918 2586 2976 2970 
L 3123 2970 
L 3123 1472 
L 2976 1472 
Q 2918 1875 2790 1984 
Q 2662 2093 2253 2093 
L 1286 2093 
L 1286 538 
Q 1286 346 1420 291 
Q 1555 237 1933 237 
L 2163 237 
Q 2848 237 3136 403 
Q 3424 570 3642 1082 
L 3821 1082 
z
" transform="scale(0.015625)"/>
      <path id="STIXGeneral-Regular-52" d="M 4224 0 
L 3187 0 
L 1664 1971 
L 1306 1958 
L 1306 717 
Q 1306 352 1405 249 
Q 1504 147 1875 122 
L 1875 0 
L 109 0 
L 109 122 
Q 474 154 563 262 
Q 653 371 653 794 
L 653 3526 
Q 653 3885 563 3987 
Q 474 4090 109 4115 
L 109 4237 
L 1850 4237 
Q 2726 4237 3187 3859 
Q 3501 3603 3501 3091 
Q 3501 2221 2342 2042 
L 3622 422 
Q 3757 256 3878 198 
Q 4000 141 4224 122 
L 4224 0 
z
M 1306 3731 
L 1306 2195 
Q 1766 2202 1990 2246 
Q 2214 2291 2438 2413 
Q 2803 2618 2803 3142 
Q 2803 4000 1632 4000 
Q 1459 4000 1382 3945 
Q 1306 3891 1306 3731 
z
" transform="scale(0.015625)"/>
      <path id="STIXGeneral-Regular-64" d="M 3142 269 
L 2202 -64 
L 2176 -45 
L 2176 365 
Q 1869 -64 1357 -64 
Q 826 -64 499 317 
Q 173 698 173 1312 
Q 173 1990 563 2467 
Q 954 2944 1504 2944 
Q 1850 2944 2176 2669 
L 2176 3667 
Q 2176 3866 2118 3930 
Q 2061 3994 1882 3994 
Q 1792 3994 1741 3987 
L 1741 4090 
Q 2323 4243 2682 4371 
L 2714 4358 
L 2714 730 
Q 2714 506 2768 435 
Q 2822 365 2995 365 
Q 3034 365 3142 371 
L 3142 269 
z
M 2176 653 
L 2176 2125 
Q 2176 2381 1981 2573 
Q 1786 2765 1523 2765 
Q 1158 2765 940 2438 
Q 723 2112 723 1568 
Q 723 979 963 624 
Q 1203 269 1606 269 
Q 1907 269 2080 474 
Q 2176 582 2176 653 
z
" transform="scale(0.015625)"/>
      <path id="STIXGeneral-Regular-67" d="M 3008 2483 
L 2477 2483 
Q 2598 2208 2598 1946 
Q 2598 1453 2265 1203 
Q 1933 954 1600 954 
Q 1530 954 1357 973 
L 1235 986 
Q 1107 947 979 812 
Q 851 678 851 582 
Q 851 435 1350 410 
L 2176 371 
Q 2528 358 2739 172 
Q 2950 -13 2950 -314 
Q 2950 -685 2566 -986 
Q 2035 -1395 1286 -1395 
Q 826 -1395 502 -1212 
Q 179 -1030 179 -774 
Q 179 -595 320 -419 
Q 461 -243 806 6 
Q 602 102 534 172 
Q 467 243 467 346 
Q 467 531 762 787 
Q 909 915 1037 1043 
Q 717 1203 579 1401 
Q 442 1600 442 1901 
Q 442 2336 752 2640 
Q 1062 2944 1510 2944 
Q 1766 2944 2022 2848 
L 2163 2797 
Q 2349 2733 2515 2733 
L 3008 2733 
L 3008 2483 
z
M 973 2163 
L 973 2144 
Q 973 1683 1155 1398 
Q 1338 1114 1632 1114 
Q 1850 1114 1978 1270 
Q 2106 1427 2106 1690 
Q 2106 2112 1914 2464 
Q 1754 2765 1446 2765 
Q 1222 2765 1097 2605 
Q 973 2445 973 2163 
z
M 2771 -410 
Q 2771 -230 2595 -163 
Q 2419 -96 1978 -96 
Q 1344 -96 941 -13 
Q 749 -243 688 -348 
Q 627 -454 627 -563 
Q 627 -774 880 -902 
Q 1133 -1030 1555 -1030 
Q 2099 -1030 2435 -860 
Q 2771 -691 2771 -410 
z
" transform="scale(0.015625)"/>
      <path id="STIXGeneral-Regular-6f" d="M 3008 1478 
Q 3008 806 2608 371 
Q 2208 -64 1568 -64 
Q 979 -64 582 368 
Q 186 800 186 1459 
Q 186 2125 582 2534 
Q 979 2944 1626 2944 
Q 2221 2944 2614 2537 
Q 3008 2131 3008 1478 
z
M 2432 1306 
Q 2432 2035 2112 2445 
Q 1856 2765 1504 2765 
Q 1171 2765 966 2493 
Q 762 2221 762 1747 
Q 762 928 1101 435 
Q 1318 115 1677 115 
Q 2029 115 2230 432 
Q 2432 749 2432 1306 
z
" transform="scale(0.015625)"/>
      <path id="STIXGeneral-Regular-66" d="M 134 2880 
L 659 2880 
Q 666 3264 710 3478 
Q 755 3693 883 3910 
Q 1152 4371 1786 4371 
Q 2074 4371 2262 4259 
Q 2451 4147 2451 3974 
Q 2451 3866 2374 3789 
Q 2298 3712 2182 3712 
Q 2029 3712 1894 3942 
Q 1741 4192 1555 4192 
Q 1197 4192 1197 3622 
L 1197 2880 
L 1978 2880 
L 1978 2675 
L 1197 2675 
L 1197 666 
Q 1197 307 1299 208 
Q 1402 109 1792 96 
L 1792 0 
L 128 0 
L 128 96 
Q 474 115 566 214 
Q 659 314 659 666 
L 659 2675 
L 134 2675 
L 134 2880 
z
" transform="scale(0.015625)"/>
      <path id="STIXGeneral-Regular-59" d="M 4499 4237 
L 4499 4115 
Q 4218 4090 4054 3955 
Q 3891 3821 3616 3398 
L 2669 1939 
L 2669 710 
Q 2669 346 2790 243 
Q 2912 141 3328 122 
L 3328 0 
L 1370 0 
L 1370 122 
Q 1805 154 1910 259 
Q 2016 365 2016 787 
L 2016 1882 
L 1178 3110 
Q 742 3750 556 3926 
Q 371 4102 141 4115 
L 141 4237 
L 1926 4237 
L 1926 4115 
L 1773 4109 
Q 1472 4102 1472 3942 
Q 1472 3808 1587 3642 
L 2522 2227 
L 3450 3648 
Q 3539 3782 3539 3917 
Q 3533 4026 3440 4067 
Q 3347 4109 3104 4115 
L 3104 4237 
L 4499 4237 
z
" transform="scale(0.015625)"/>
      <path id="STIXGeneral-Regular-72" d="M 1024 2931 
L 1024 2342 
Q 1267 2688 1430 2816 
Q 1594 2944 1792 2944 
Q 1958 2944 2051 2854 
Q 2144 2765 2144 2605 
Q 2144 2470 2077 2393 
Q 2010 2317 1894 2317 
Q 1773 2317 1638 2445 
Q 1536 2541 1472 2541 
Q 1338 2541 1181 2355 
Q 1024 2170 1024 2016 
L 1024 576 
Q 1024 301 1133 205 
Q 1242 109 1568 96 
L 1568 0 
L 32 0 
L 32 96 
Q 339 154 412 224 
Q 486 294 486 538 
L 486 2138 
Q 486 2349 438 2435 
Q 390 2522 269 2522 
Q 166 2522 45 2496 
L 45 2598 
Q 448 2726 992 2944 
L 1024 2931 
z
" transform="scale(0.015625)"/>
      <path id="STIXGeneral-Regular-6b" d="M 3232 0 
L 1837 0 
L 1837 96 
L 1958 96 
Q 2093 96 2093 192 
Q 2093 250 2022 339 
L 1062 1606 
L 1062 429 
Q 1062 262 1142 185 
Q 1222 109 1414 102 
L 1542 96 
L 1542 0 
L 45 0 
L 45 96 
Q 390 154 457 214 
Q 525 275 525 525 
L 525 3610 
Q 525 3840 467 3920 
Q 410 4000 250 4000 
Q 211 4000 45 3987 
L 45 4090 
L 237 4141 
Q 621 4243 1037 4371 
L 1062 4358 
L 1062 1670 
L 1939 2451 
Q 2086 2586 2086 2675 
Q 2086 2739 2019 2761 
Q 1952 2784 1766 2790 
L 1766 2880 
L 3072 2880 
L 3072 2784 
Q 2752 2784 2505 2646 
Q 2259 2509 1690 1978 
L 1504 1805 
L 2483 563 
Q 2829 122 3232 96 
L 3232 0 
z
" transform="scale(0.015625)"/>
      <path id="STIXGeneral-Regular-68" d="M 3117 0 
L 1760 0 
L 1760 96 
Q 2042 128 2118 224 
Q 2195 320 2195 653 
L 2195 1920 
Q 2195 2598 1722 2598 
Q 1530 2598 1370 2508 
Q 1210 2419 1005 2195 
L 1005 653 
Q 1005 320 1081 224 
Q 1158 128 1440 96 
L 1440 0 
L 58 0 
L 58 96 
Q 333 134 400 224 
Q 467 314 467 653 
L 467 3667 
Q 467 3872 406 3933 
Q 346 3994 141 3994 
Q 83 3994 64 3987 
L 64 4090 
L 237 4141 
Q 730 4288 973 4371 
L 1005 4352 
L 1005 2406 
Q 1229 2694 1446 2819 
Q 1664 2944 1946 2944 
Q 2733 2944 2733 1926 
L 2733 653 
Q 2733 320 2793 233 
Q 2854 147 3117 96 
L 3117 0 
z
" transform="scale(0.015625)"/>
      <path id="STIXGeneral-Regular-53" d="M 3002 2963 
L 2842 2963 
Q 2733 3360 2579 3565 
Q 2189 4064 1651 4064 
Q 1357 4064 1181 3894 
Q 1005 3725 1005 3456 
Q 1005 3328 1069 3206 
Q 1133 3085 1206 2998 
Q 1280 2912 1465 2784 
Q 1651 2656 1766 2589 
Q 1882 2522 2150 2362 
Q 2669 2061 2905 1763 
Q 3142 1466 3142 1107 
Q 3142 576 2771 243 
Q 2400 -90 1837 -90 
Q 1421 -90 1082 58 
Q 915 128 781 128 
Q 704 128 653 70 
Q 602 13 602 -83 
L 461 -83 
L 275 1274 
L 416 1274 
Q 845 141 1734 141 
Q 2074 141 2285 342 
Q 2496 544 2496 858 
Q 2496 1158 2310 1363 
Q 2003 1696 1235 2106 
Q 454 2522 454 3206 
Q 454 3718 768 4022 
Q 1082 4326 1568 4326 
Q 1907 4326 2240 4186 
Q 2413 4109 2522 4109 
Q 2688 4109 2726 4326 
L 2861 4326 
L 3002 2963 
z
" transform="scale(0.015625)"/>
      <path id="STIXGeneral-Regular-31" d="M 2522 0 
L 755 0 
L 755 96 
Q 1107 115 1235 227 
Q 1363 339 1363 608 
L 1363 3482 
Q 1363 3795 1171 3795 
Q 1082 3795 883 3718 
L 710 3654 
L 710 3744 
L 1856 4326 
L 1914 4307 
L 1914 486 
Q 1914 275 2042 185 
Q 2170 96 2522 96 
L 2522 0 
z
" transform="scale(0.015625)"/>
      <path id="STIXGeneral-Regular-36" d="M 2854 4378 
L 2867 4275 
Q 2112 4154 1606 3664 
Q 1101 3174 973 2451 
Q 1344 2739 1786 2739 
Q 2349 2739 2672 2380 
Q 2995 2022 2995 1402 
Q 2995 774 2669 378 
Q 2291 -90 1651 -90 
Q 870 -90 518 557 
Q 218 1107 218 1786 
Q 218 2835 915 3552 
Q 1312 3962 1731 4131 
Q 2150 4301 2854 4378 
z
M 2419 1203 
Q 2419 2445 1555 2445 
Q 1235 2445 1024 2275 
Q 813 2106 813 1702 
Q 813 954 1046 522 
Q 1280 90 1722 90 
Q 2061 90 2240 394 
Q 2419 698 2419 1203 
z
" transform="scale(0.015625)"/>
      <path id="STIXGeneral-Regular-30" d="M 3046 2112 
Q 3046 1683 2963 1302 
Q 2880 922 2717 602 
Q 2554 282 2266 96 
Q 1978 -90 1600 -90 
Q 1210 -90 915 108 
Q 621 307 461 640 
Q 301 973 227 1350 
Q 154 1728 154 2150 
Q 154 2746 301 3222 
Q 448 3699 790 4012 
Q 1133 4326 1626 4326 
Q 2253 4326 2649 3712 
Q 3046 3098 3046 2112 
z
M 2432 2080 
Q 2432 3091 2217 3625 
Q 2003 4160 1587 4160 
Q 1190 4160 979 3622 
Q 768 3085 768 2106 
Q 768 1120 979 598 
Q 1190 77 1600 77 
Q 2003 77 2217 598 
Q 2432 1120 2432 2080 
z
" transform="scale(0.015625)"/>
      <path id="STIXGeneral-Regular-6d" d="M 4960 0 
L 3565 0 
L 3565 96 
Q 3834 122 3907 208 
Q 3981 294 3981 576 
L 3981 1894 
Q 3981 2278 3869 2444 
Q 3757 2611 3488 2611 
Q 3264 2611 3107 2521 
Q 2950 2432 2803 2221 
L 2803 608 
Q 2803 301 2896 201 
Q 2989 102 3264 96 
L 3264 0 
L 1830 0 
L 1830 96 
Q 2112 115 2189 188 
Q 2266 262 2266 550 
L 2266 1901 
Q 2266 2611 1850 2611 
Q 1670 2611 1468 2531 
Q 1267 2451 1171 2336 
Q 1088 2240 1088 2227 
L 1088 448 
Q 1088 243 1177 176 
Q 1267 109 1523 96 
L 1523 0 
L 102 0 
L 102 96 
Q 371 102 460 195 
Q 550 288 550 563 
L 550 2150 
Q 550 2387 499 2480 
Q 448 2573 326 2573 
Q 230 2573 122 2547 
L 122 2656 
Q 557 2778 1011 2944 
L 1062 2925 
L 1062 2451 
L 1075 2451 
Q 1363 2752 1584 2848 
Q 1805 2944 2054 2944 
Q 2560 2944 2733 2406 
Q 3232 2944 3776 2944 
Q 4518 2944 4518 1792 
L 4518 493 
Q 4518 282 4582 202 
Q 4646 122 4794 109 
L 4960 96 
L 4960 0 
z
" transform="scale(0.015625)"/>
      <path id="STIXGeneral-Regular-2e" d="M 1158 275 
Q 1158 134 1052 32 
Q 947 -70 800 -70 
Q 653 -70 550 32 
Q 448 134 448 281 
Q 448 429 553 534 
Q 659 640 806 640 
Q 947 640 1052 531 
Q 1158 422 1158 275 
z
" transform="scale(0.015625)"/>
     </defs>
     <use xlink:href="#STIXGeneral-Regular-44"/>
     <use xlink:href="#STIXGeneral-Regular-69" transform="translate(72.199982 0)"/>
     <use xlink:href="#STIXGeneral-Regular-73" transform="translate(99.999969 0)"/>
     <use xlink:href="#STIXGeneral-Regular-74" transform="translate(138.899963 0)"/>
     <use xlink:href="#STIXGeneral-Regular-61" transform="translate(166.699951 0)"/>
     <use xlink:href="#STIXGeneral-Regular-6e" transform="translate(211.099945 0)"/>
     <use xlink:href="#STIXGeneral-Regular-63" transform="translate(261.09993 0)"/>
     <use xlink:href="#STIXGeneral-Regular-65" transform="translate(305.499924 0)"/>
     <use xlink:href="#STIXGeneral-Regular-20" transform="translate(349.899918 0)"/>
     <use xlink:href="#STIXGeneral-Regular-62" transform="translate(374.899902 0)"/>
     <use xlink:href="#STIXGeneral-Regular-65" transform="translate(424.899887 0)"/>
     <use xlink:href="#STIXGeneral-Regular-74" transform="translate(469.299881 0)"/>
     <use xlink:href="#STIXGeneral-Regular-77" transform="translate(497.099869 0)"/>
     <use xlink:href="#STIXGeneral-Regular-65" transform="translate(569.29985 0)"/>
     <use xlink:href="#STIXGeneral-Regular-65" transform="translate(613.699844 0)"/>
     <use xlink:href="#STIXGeneral-Regular-6e" transform="translate(658.099838 0)"/>
     <use xlink:href="#STIXGeneral-Regular-20" transform="translate(708.099823 0)"/>
     <use xlink:href="#STIXGeneral-Regular-45" transform="translate(733.099808 0)"/>
     <use xlink:href="#STIXGeneral-Regular-61" transform="translate(794.199799 0)"/>
     <use xlink:href="#STIXGeneral-Regular-73" transform="translate(838.599792 0)"/>
     <use xlink:href="#STIXGeneral-Regular-74" transform="translate(877.499786 0)"/>
     <use xlink:href="#STIXGeneral-Regular-20" transform="translate(905.299774 0)"/>
     <use xlink:href="#STIXGeneral-Regular-52" transform="translate(930.299759 0)"/>
     <use xlink:href="#STIXGeneral-Regular-69" transform="translate(996.999756 0)"/>
     <use xlink:href="#STIXGeneral-Regular-64" transform="translate(1024.799744 0)"/>
     <use xlink:href="#STIXGeneral-Regular-69" transform="translate(1074.799728 0)"/>
     <use xlink:href="#STIXGeneral-Regular-6e" transform="translate(1102.599716 0)"/>
     <use xlink:href="#STIXGeneral-Regular-67" transform="translate(1152.599701 0)"/>
     <use xlink:href="#STIXGeneral-Regular-20" transform="translate(1202.599686 0)"/>
     <use xlink:href="#STIXGeneral-Regular-6f" transform="translate(1227.59967 0)"/>
     <use xlink:href="#STIXGeneral-Regular-66" transform="translate(1277.599655 0)"/>
     <use xlink:href="#STIXGeneral-Regular-20" transform="translate(1310.899643 0)"/>
     <use xlink:href="#STIXGeneral-Regular-59" transform="translate(1335.899628 0)"/>
     <use xlink:href="#STIXGeneral-Regular-6f" transform="translate(1408.099609 0)"/>
     <use xlink:href="#STIXGeneral-Regular-72" transform="translate(1458.099594 0)"/>
     <use xlink:href="#STIXGeneral-Regular-6b" transform="translate(1491.399582 0)"/>
     <use xlink:href="#STIXGeneral-Regular-73" transform="translate(1541.399567 0)"/>
     <use xlink:href="#STIXGeneral-Regular-68" transform="translate(1580.299561 0)"/>
     <use xlink:href="#STIXGeneral-Regular-69" transform="translate(1630.299545 0)"/>
     <use xlink:href="#STIXGeneral-Regular-72" transform="translate(1658.099533 0)"/>
     <use xlink:href="#STIXGeneral-Regular-65" transform="translate(1691.399521 0)"/>
     <use xlink:href="#STIXGeneral-Regular-20" transform="translate(1735.799515 0)"/>
     <use xlink:href="#STIXGeneral-Regular-61" transform="translate(1760.7995 0)"/>
     <use xlink:href="#STIXGeneral-Regular-6e" transform="translate(1805.199493 0)"/>
     <use xlink:href="#STIXGeneral-Regular-64" transform="translate(1855.199478 0)"/>
     <use xlink:href="#STIXGeneral-Regular-20" transform="translate(1905.199463 0)"/>
     <use xlink:href="#STIXGeneral-Regular-53" transform="translate(1930.199448 0)"/>
     <use xlink:href="#STIXGeneral-Regular-74" transform="translate(1985.799438 0)"/>
     <use xlink:href="#STIXGeneral-Regular-61" transform="translate(2013.599426 0)"/>
     <use xlink:href="#STIXGeneral-Regular-66" transform="translate(2057.99942 0)"/>
     <use xlink:href="#STIXGeneral-Regular-66" transform="translate(2091.299408 0)"/>
     <use xlink:href="#STIXGeneral-Regular-6f" transform="translate(2124.599396 0)"/>
     <use xlink:href="#STIXGeneral-Regular-72" transform="translate(2174.59938 0)"/>
     <use xlink:href="#STIXGeneral-Regular-64" transform="translate(2207.899368 0)"/>
     <use xlink:href="#STIXGeneral-Regular-20" transform="translate(2257.899353 0)"/>
     <use xlink:href="#STIXGeneral-Regular-69" transform="translate(2282.899338 0)"/>
     <use xlink:href="#STIXGeneral-Regular-73" transform="translate(2310.699326 0)"/>
     <use xlink:href="#STIXGeneral-Regular-20" transform="translate(2349.599319 0)"/>
     <use xlink:href="#STIXGeneral-Regular-31" transform="translate(2374.599304 0)"/>
     <use xlink:href="#STIXGeneral-Regular-36" transform="translate(2424.599289 0)"/>
     <use xlink:href="#STIXGeneral-Regular-30" transform="translate(2474.599274 0)"/>
     <use xlink:href="#STIXGeneral-Regular-20" transform="translate(2524.599258 0)"/>
     <use xlink:href="#STIXGeneral-Regular-6b" transform="translate(2549.599243 0)"/>
     <use xlink:href="#STIXGeneral-Regular-6d" transform="translate(2599.599228 0)"/>
     <use xlink:href="#STIXGeneral-Regular-2e" transform="translate(2677.399216 0)"/>
    </g>
   </g>
  </g>
 </g>
 <defs>
  <clipPath id="pfed08fe51d">
   <rect x="7.2" y="26.197188" width="540.289936" height="554.4"/>
  </clipPath>
 </defs>
</svg>