<?xml version="1.0" encoding="utf-8" standalone="no"?>
<!DOCTYPE svg PUBLIC "-//W3C//DTD SVG 1.1//EN"
  "http://www.w3.org/Graphics/SVG/1.1/DTD/svg11.dtd">
<svg xmlns:xlink="http://www.w3.org/1999/xlink" width="447.252515pt" height="349.155pt" viewBox="0 0 447.252515 349.155" xmlns="http://www.w3.org/2000/svg" version="1.1">
 <metadata>
  <rdf:RDF xmlns:dc="http://purl.org/dc/elements/1.1/" xmlns:cc="http://creativecommons.org/ns#" xmlns:rdf="http://www.w3.org/1999/02/22-rdf-syntax-ns#">
   <cc:Work>
    <dc:type rdf:resource="http://purl.org/dc/dcmitype/StillImage"/>
    <dc:date>2025-03-26T16:06:34.917403</dc:date>
    <dc:format>image/svg+xml</dc:format>
    <dc:creator>
     <cc:Agent>
      <dc:title>Matplotlib v3.10.0, https://matplotlib.org/</dc:title>
     </cc:Agent>
    </dc:creator>
   </cc:Work>
  </rdf:RDF>
 </metadata>
 <defs>
  <style type="text/css">*{stroke-linejoin: round; stroke-linecap: butt}</style>
 </defs>
 <g id="figure_1">
  <g id="patch_1">
   <path d="M 0 349.155 
L 447.252515 349.155 
L 447.252515 0 
L 0 0 
z
" style="fill: #ffffff"/>
  </g>
  <g id="axes_1">
   <g id="patch_2">
    <path d="M 51.615 303.155 
L 332.211515 303.155 
L 332.211515 12.66375 
L 51.615 12.66375 
z
" style="fill: #ffffff"/>
   </g>
   <g id="FillBetweenPolyCollection_1">
    <defs>
     <path id="m3d2038affe" d="M 78.863767 -46.008341 
L 78.863767 -46 
L 79.85612 -46 
L 80.848472 -46 
L 81.840825 -46 
L 82.833177 -46 
L 83.82553 -46 
L 84.817882 -46 
L 85.810234 -46 
L 86.802587 -46 
L 87.794939 -46 
L 88.787292 -46 
L 89.779644 -46 
L 90.771997 -46 
L 91.764349 -46 
L 92.756701 -46 
L 93.749054 -46 
L 94.741406 -46 
L 95.733759 -46 
L 96.726111 -46 
L 97.718464 -46 
L 98.710816 -46 
L 99.703169 -46 
L 100.695521 -46 
L 101.687873 -46 
L 102.680226 -46 
L 103.672578 -46 
L 104.664931 -46 
L 105.657283 -46 
L 106.649636 -46 
L 107.641988 -46 
L 108.634341 -46 
L 109.626693 -46 
L 110.619045 -46 
L 111.611398 -46 
L 112.60375 -46 
L 113.596103 -46 
L 114.588455 -46 
L 115.580808 -46 
L 116.57316 -46 
L 117.565512 -46 
L 118.557865 -46 
L 119.550217 -46 
L 120.54257 -46 
L 121.534922 -46 
L 122.527275 -46 
L 123.519627 -46 
L 124.51198 -46 
L 125.504332 -46 
L 126.496684 -46 
L 127.489037 -46 
L 128.481389 -46 
L 129.473742 -46 
L 130.466094 -46 
L 131.458447 -46 
L 132.450799 -46 
L 133.443152 -46 
L 134.435504 -46 
L 135.427856 -46 
L 136.420209 -46 
L 137.412561 -46 
L 138.404914 -46 
L 139.397266 -46 
L 140.389619 -46 
L 141.381971 -46 
L 142.374323 -46 
L 143.366676 -46 
L 144.359028 -46 
L 145.351381 -46 
L 146.343733 -46 
L 147.336086 -46 
L 148.328438 -46 
L 149.320791 -46 
L 150.313143 -46 
L 151.305495 -46 
L 152.297848 -46 
L 153.2902 -46 
L 154.282553 -46 
L 155.274905 -46 
L 156.267258 -46 
L 157.25961 -46 
L 158.251963 -46 
L 159.244315 -46 
L 160.236667 -46 
L 161.22902 -46 
L 162.221372 -46 
L 163.213725 -46 
L 164.206077 -46 
L 165.19843 -46 
L 166.190782 -46 
L 167.183134 -46 
L 168.175487 -46 
L 169.167839 -46 
L 170.160192 -46 
L 171.152544 -46 
L 172.144897 -46 
L 173.137249 -46 
L 174.129602 -46 
L 175.121954 -46 
L 176.114306 -46 
L 177.106659 -46 
L 178.099011 -46 
L 179.091364 -46 
L 180.083716 -46 
L 181.076069 -46 
L 182.068421 -46 
L 183.060773 -46 
L 184.053126 -46 
L 185.045478 -46 
L 186.037831 -46 
L 187.030183 -46 
L 188.022536 -46 
L 189.014888 -46 
L 190.007241 -46 
L 190.999593 -46 
L 191.991945 -46 
L 192.984298 -46 
L 193.97665 -46 
L 194.969003 -46 
L 195.961355 -46 
L 196.953708 -46 
L 197.94606 -46 
L 198.938413 -46 
L 199.930765 -46 
L 200.923117 -46 
L 201.91547 -46 
L 202.907822 -46 
L 203.900175 -46 
L 204.892527 -46 
L 205.88488 -46 
L 206.877232 -46 
L 207.869584 -46 
L 208.861937 -46 
L 209.854289 -46 
L 210.846642 -46 
L 211.838994 -46 
L 212.831347 -46 
L 213.823699 -46 
L 214.816052 -46 
L 215.808404 -46 
L 216.800756 -46 
L 217.793109 -46 
L 218.785461 -46 
L 219.777814 -46 
L 220.770166 -46 
L 221.762519 -46 
L 222.754871 -46 
L 223.747224 -46 
L 224.739576 -46 
L 225.731928 -46 
L 226.724281 -46 
L 227.716633 -46 
L 228.708986 -46 
L 229.701338 -46 
L 230.693691 -46 
L 231.686043 -46 
L 232.678395 -46 
L 233.670748 -46 
L 234.6631 -46 
L 235.655453 -46 
L 236.647805 -46 
L 237.640158 -46 
L 238.63251 -46 
L 239.624863 -46 
L 240.617215 -46 
L 241.609567 -46 
L 242.60192 -46 
L 243.594272 -46 
L 244.586625 -46 
L 245.578977 -46 
L 246.57133 -46 
L 247.563682 -46 
L 248.556035 -46 
L 249.548387 -46 
L 250.540739 -46 
L 251.533092 -46 
L 252.525444 -46 
L 253.517797 -46 
L 254.510149 -46 
L 255.502502 -46 
L 256.494854 -46 
L 257.487206 -46 
L 258.479559 -46 
L 259.471911 -46 
L 260.464264 -46 
L 261.456616 -46 
L 262.448969 -46 
L 263.441321 -46 
L 264.433674 -46 
L 265.426026 -46 
L 266.418378 -46 
L 267.410731 -46 
L 268.403083 -46 
L 269.395436 -46 
L 270.387788 -46 
L 271.380141 -46 
L 272.372493 -46 
L 273.364845 -46 
L 274.357198 -46 
L 275.34955 -46 
L 276.341903 -46 
L 276.341903 -46.011088 
L 276.341903 -46.011088 
L 275.34955 -46.013695 
L 274.357198 -46.016844 
L 273.364845 -46.02063 
L 272.372493 -46.025162 
L 271.380141 -46.030561 
L 270.387788 -46.036965 
L 269.395436 -46.044526 
L 268.403083 -46.053411 
L 267.410731 -46.063806 
L 266.418378 -46.07591 
L 265.426026 -46.089941 
L 264.433674 -46.106129 
L 263.441321 -46.124722 
L 262.448969 -46.145978 
L 261.456616 -46.170165 
L 260.464264 -46.19756 
L 259.471911 -46.228445 
L 258.479559 -46.263099 
L 257.487206 -46.301802 
L 256.494854 -46.344821 
L 255.502502 -46.392412 
L 254.510149 -46.444808 
L 253.517797 -46.502217 
L 252.525444 -46.564815 
L 251.533092 -46.632735 
L 250.540739 -46.706067 
L 249.548387 -46.784848 
L 248.556035 -46.869056 
L 247.563682 -46.958605 
L 246.57133 -47.05334 
L 245.578977 -47.153035 
L 244.586625 -47.257389 
L 243.594272 -47.366024 
L 242.60192 -47.478487 
L 241.609567 -47.59425 
L 240.617215 -47.712716 
L 239.624863 -47.833219 
L 238.63251 -47.955037 
L 237.640158 -48.077397 
L 236.647805 -48.199483 
L 235.655453 -48.320452 
L 234.6631 -48.439445 
L 233.670748 -48.555598 
L 232.678395 -48.66806 
L 231.686043 -48.776005 
L 230.693691 -48.878651 
L 229.701338 -48.97527 
L 228.708986 -49.065205 
L 227.716633 -49.147883 
L 226.724281 -49.222826 
L 225.731928 -49.289664 
L 224.739576 -49.348141 
L 223.747224 -49.398123 
L 222.754871 -49.439601 
L 221.762519 -49.472697 
L 220.770166 -49.49766 
L 219.777814 -49.514865 
L 218.785461 -49.524808 
L 217.793109 -49.5281 
L 216.800756 -49.525459 
L 215.808404 -49.517697 
L 214.816052 -49.505711 
L 213.823699 -49.490471 
L 212.831347 -49.473005 
L 211.838994 -49.454386 
L 210.846642 -49.435722 
L 209.854289 -49.418139 
L 208.861937 -49.402771 
L 207.869584 -49.390746 
L 206.877232 -49.383183 
L 205.88488 -49.381172 
L 204.892527 -49.385778 
L 203.900175 -49.398022 
L 202.907822 -49.418886 
L 201.91547 -49.449301 
L 200.923117 -49.490144 
L 199.930765 -49.542235 
L 198.938413 -49.606334 
L 197.94606 -49.683132 
L 196.953708 -49.773251 
L 195.961355 -49.877238 
L 194.969003 -49.995552 
L 193.97665 -50.128566 
L 192.984298 -50.276552 
L 191.991945 -50.439672 
L 190.999593 -50.617968 
L 190.007241 -50.811351 
L 189.014888 -51.019589 
L 188.022536 -51.242294 
L 187.030183 -51.478912 
L 186.037831 -51.728715 
L 185.045478 -51.990787 
L 184.053126 -52.264025 
L 183.060773 -52.547131 
L 182.068421 -52.838615 
L 181.076069 -53.136798 
L 180.083716 -53.439819 
L 179.091364 -53.745651 
L 178.099011 -54.052116 
L 177.106659 -54.356907 
L 176.114306 -54.657615 
L 175.121954 -54.951754 
L 174.129602 -55.236802 
L 173.137249 -55.510227 
L 172.144897 -55.769533 
L 171.152544 -56.012289 
L 170.160192 -56.236176 
L 169.167839 -56.439013 
L 168.175487 -56.618804 
L 167.183134 -56.77376 
L 166.190782 -56.90233 
L 165.19843 -57.003229 
L 164.206077 -57.07545 
L 163.213725 -57.118282 
L 162.221372 -57.131317 
L 161.22902 -57.114449 
L 160.236667 -57.067876 
L 159.244315 -56.992087 
L 158.251963 -56.887847 
L 157.25961 -56.756183 
L 156.267258 -56.59836 
L 155.274905 -56.415856 
L 154.282553 -56.210333 
L 153.2902 -55.983609 
L 152.297848 -55.737629 
L 151.305495 -55.474435 
L 150.313143 -55.196133 
L 149.320791 -54.904867 
L 148.328438 -54.602788 
L 147.336086 -54.292035 
L 146.343733 -53.974703 
L 145.351381 -53.652827 
L 144.359028 -53.328363 
L 143.366676 -53.003166 
L 142.374323 -52.678983 
L 141.381971 -52.357437 
L 140.389619 -52.040018 
L 139.397266 -51.728079 
L 138.404914 -51.422827 
L 137.412561 -51.125323 
L 136.420209 -50.83648 
L 135.427856 -50.557064 
L 134.435504 -50.287698 
L 133.443152 -50.028866 
L 132.450799 -49.780919 
L 131.458447 -49.544079 
L 130.466094 -49.318454 
L 129.473742 -49.104042 
L 128.481389 -48.900742 
L 127.489037 -48.708371 
L 126.496684 -48.526666 
L 125.504332 -48.355303 
L 124.51198 -48.193908 
L 123.519627 -48.042065 
L 122.527275 -47.899331 
L 121.534922 -47.765247 
L 120.54257 -47.639342 
L 119.550217 -47.521151 
L 118.557865 -47.410214 
L 117.565512 -47.306088 
L 116.57316 -47.208351 
L 115.580808 -47.116603 
L 114.588455 -47.030474 
L 113.596103 -46.949623 
L 112.60375 -46.873736 
L 111.611398 -46.80253 
L 110.619045 -46.735749 
L 109.626693 -46.673161 
L 108.634341 -46.614558 
L 107.641988 -46.559754 
L 106.649636 -46.508578 
L 105.657283 -46.460872 
L 104.664931 -46.41649 
L 103.672578 -46.375296 
L 102.680226 -46.337156 
L 101.687873 -46.301943 
L 100.695521 -46.269529 
L 99.703169 -46.239786 
L 98.710816 -46.212589 
L 97.718464 -46.187807 
L 96.726111 -46.16531 
L 95.733759 -46.144967 
L 94.741406 -46.126646 
L 93.749054 -46.110213 
L 92.756701 -46.095536 
L 91.764349 -46.082484 
L 90.771997 -46.070928 
L 89.779644 -46.060742 
L 88.787292 -46.051804 
L 87.794939 -46.043998 
L 86.802587 -46.03721 
L 85.810234 -46.031337 
L 84.817882 -46.026278 
L 83.82553 -46.021941 
L 82.833177 -46.018241 
L 81.840825 -46.015099 
L 80.848472 -46.012443 
L 79.85612 -46.01021 
L 78.863767 -46.008341 
z
" style="stroke: #fccde5; stroke-width: 0.8"/>
    </defs>
    <g clip-path="url(#p41fecb5bb6)">
     <use xlink:href="#m3d2038affe" x="0" y="349.155" style="fill: #fccde5; fill-opacity: 0.25; stroke: #fccde5; stroke-width: 0.8"/>
    </g>
   </g>
   <g id="FillBetweenPolyCollection_2">
    <defs>
     <path id="m13755b5205" d="M 94.927448 -46.071252 
L 94.927448 -46 
L 95.710415 -46 
L 96.493382 -46 
L 97.27635 -46 
L 98.059317 -46 
L 98.842284 -46 
L 99.625252 -46 
L 100.408219 -46 
L 101.191186 -46 
L 101.974154 -46 
L 102.757121 -46 
L 103.540088 -46 
L 104.323055 -46 
L 105.106023 -46 
L 105.88899 -46 
L 106.671957 -46 
L 107.454925 -46 
L 108.237892 -46 
L 109.020859 -46 
L 109.803827 -46 
L 110.586794 -46 
L 111.369761 -46 
L 112.152728 -46 
L 112.935696 -46 
L 113.718663 -46 
L 114.50163 -46 
L 115.284598 -46 
L 116.067565 -46 
L 116.850532 -46 
L 117.6335 -46 
L 118.416467 -46 
L 119.199434 -46 
L 119.982401 -46 
L 120.765369 -46 
L 121.548336 -46 
L 122.331303 -46 
L 123.114271 -46 
L 123.897238 -46 
L 124.680205 -46 
L 125.463173 -46 
L 126.24614 -46 
L 127.029107 -46 
L 127.812074 -46 
L 128.595042 -46 
L 129.378009 -46 
L 130.160976 -46 
L 130.943944 -46 
L 131.726911 -46 
L 132.509878 -46 
L 133.292846 -46 
L 134.075813 -46 
L 134.85878 -46 
L 135.641747 -46 
L 136.424715 -46 
L 137.207682 -46 
L 137.990649 -46 
L 138.773617 -46 
L 139.556584 -46 
L 140.339551 -46 
L 141.122519 -46 
L 141.905486 -46 
L 142.688453 -46 
L 143.471421 -46 
L 144.254388 -46 
L 145.037355 -46 
L 145.820322 -46 
L 146.60329 -46 
L 147.386257 -46 
L 148.169224 -46 
L 148.952192 -46 
L 149.735159 -46 
L 150.518126 -46 
L 151.301094 -46 
L 152.084061 -46 
L 152.867028 -46 
L 153.649995 -46 
L 154.432963 -46 
L 155.21593 -46 
L 155.998897 -46 
L 156.781865 -46 
L 157.564832 -46 
L 158.347799 -46 
L 159.130767 -46 
L 159.913734 -46 
L 160.696701 -46 
L 161.479668 -46 
L 162.262636 -46 
L 163.045603 -46 
L 163.82857 -46 
L 164.611538 -46 
L 165.394505 -46 
L 166.177472 -46 
L 166.96044 -46 
L 167.743407 -46 
L 168.526374 -46 
L 169.309341 -46 
L 170.092309 -46 
L 170.875276 -46 
L 171.658243 -46 
L 172.441211 -46 
L 173.224178 -46 
L 174.007145 -46 
L 174.790113 -46 
L 175.57308 -46 
L 176.356047 -46 
L 177.139014 -46 
L 177.921982 -46 
L 178.704949 -46 
L 179.487916 -46 
L 180.270884 -46 
L 181.053851 -46 
L 181.836818 -46 
L 182.619786 -46 
L 183.402753 -46 
L 184.18572 -46 
L 184.968688 -46 
L 185.751655 -46 
L 186.534622 -46 
L 187.317589 -46 
L 188.100557 -46 
L 188.883524 -46 
L 189.666491 -46 
L 190.449459 -46 
L 191.232426 -46 
L 192.015393 -46 
L 192.798361 -46 
L 193.581328 -46 
L 194.364295 -46 
L 195.147262 -46 
L 195.93023 -46 
L 196.713197 -46 
L 197.496164 -46 
L 198.279132 -46 
L 199.062099 -46 
L 199.845066 -46 
L 200.628034 -46 
L 201.411001 -46 
L 202.193968 -46 
L 202.976935 -46 
L 203.759903 -46 
L 204.54287 -46 
L 205.325837 -46 
L 206.108805 -46 
L 206.891772 -46 
L 207.674739 -46 
L 208.457707 -46 
L 209.240674 -46 
L 210.023641 -46 
L 210.806608 -46 
L 211.589576 -46 
L 212.372543 -46 
L 213.15551 -46 
L 213.938478 -46 
L 214.721445 -46 
L 215.504412 -46 
L 216.28738 -46 
L 217.070347 -46 
L 217.853314 -46 
L 218.636281 -46 
L 219.419249 -46 
L 220.202216 -46 
L 220.985183 -46 
L 221.768151 -46 
L 222.551118 -46 
L 223.334085 -46 
L 224.117053 -46 
L 224.90002 -46 
L 225.682987 -46 
L 226.465955 -46 
L 227.248922 -46 
L 228.031889 -46 
L 228.814856 -46 
L 229.597824 -46 
L 230.380791 -46 
L 231.163758 -46 
L 231.946726 -46 
L 232.729693 -46 
L 233.51266 -46 
L 234.295628 -46 
L 235.078595 -46 
L 235.861562 -46 
L 236.644529 -46 
L 237.427497 -46 
L 238.210464 -46 
L 238.993431 -46 
L 239.776399 -46 
L 240.559366 -46 
L 241.342333 -46 
L 242.125301 -46 
L 242.908268 -46 
L 243.691235 -46 
L 244.474202 -46 
L 245.25717 -46 
L 246.040137 -46 
L 246.823104 -46 
L 247.606072 -46 
L 248.389039 -46 
L 249.172006 -46 
L 249.954974 -46 
L 250.737941 -46 
L 250.737941 -46.032751 
L 250.737941 -46.032751 
L 249.954974 -46.041535 
L 249.172006 -46.052347 
L 248.389039 -46.065562 
L 247.606072 -46.081603 
L 246.823104 -46.100937 
L 246.040137 -46.124078 
L 245.25717 -46.151578 
L 244.474202 -46.184026 
L 243.691235 -46.222038 
L 242.908268 -46.266249 
L 242.125301 -46.317295 
L 241.342333 -46.375804 
L 240.559366 -46.442373 
L 239.776399 -46.51755 
L 238.993431 -46.601815 
L 238.210464 -46.695554 
L 237.427497 -46.799038 
L 236.644529 -46.912405 
L 235.861562 -47.035636 
L 235.078595 -47.168545 
L 234.295628 -47.31076 
L 233.51266 -47.461725 
L 232.729693 -47.620695 
L 231.946726 -47.786746 
L 231.163758 -47.95879 
L 230.380791 -48.135599 
L 229.597824 -48.315836 
L 228.814856 -48.498096 
L 228.031889 -48.680948 
L 227.248922 -48.862986 
L 226.465955 -49.042886 
L 225.682987 -49.219457 
L 224.90002 -49.391696 
L 224.117053 -49.558841 
L 223.334085 -49.72041 
L 222.551118 -49.876245 
L 221.768151 -50.026533 
L 220.985183 -50.171824 
L 220.202216 -50.31303 
L 219.419249 -50.451417 
L 218.636281 -50.588576 
L 217.853314 -50.726383 
L 217.070347 -50.866948 
L 216.28738 -51.012554 
L 215.504412 -51.165579 
L 214.721445 -51.328417 
L 213.938478 -51.503398 
L 213.15551 -51.692695 
L 212.372543 -51.898244 
L 211.589576 -52.121659 
L 210.806608 -52.364157 
L 210.023641 -52.626495 
L 209.240674 -52.908909 
L 208.457707 -53.211075 
L 207.674739 -53.532083 
L 206.891772 -53.870425 
L 206.108805 -54.223999 
L 205.325837 -54.590139 
L 204.54287 -54.965653 
L 203.759903 -55.346884 
L 202.976935 -55.729794 
L 202.193968 -56.110052 
L 201.411001 -56.48315 
L 200.628034 -56.844521 
L 199.845066 -57.189675 
L 199.062099 -57.514337 
L 198.279132 -57.814587 
L 197.496164 -58.087006 
L 196.713197 -58.328803 
L 195.93023 -58.537947 
L 195.147262 -58.713273 
L 194.364295 -58.854573 
L 193.581328 -58.962663 
L 192.798361 -59.039423 
L 192.015393 -59.087814 
L 191.232426 -59.111852 
L 190.449459 -59.116569 
L 189.666491 -59.107928 
L 188.883524 -59.09272 
L 188.100557 -59.078431 
L 187.317589 -59.073091 
L 186.534622 -59.085101 
L 185.751655 -59.123049 
L 184.968688 -59.195519 
L 184.18572 -59.310896 
L 183.402753 -59.477171 
L 182.619786 -59.701758 
L 181.836818 -59.99131 
L 181.053851 -60.351564 
L 180.270884 -60.787189 
L 179.487916 -61.301663 
L 178.704949 -61.897166 
L 177.921982 -62.574499 
L 177.139014 -63.33303 
L 176.356047 -64.170661 
L 175.57308 -65.083824 
L 174.790113 -66.067509 
L 174.007145 -67.115315 
L 173.224178 -68.219531 
L 172.441211 -69.371248 
L 171.658243 -70.560491 
L 170.875276 -71.77639 
L 170.092309 -73.007361 
L 169.309341 -74.241315 
L 168.526374 -75.465885 
L 167.743407 -76.668658 
L 166.96044 -77.83742 
L 166.177472 -78.960399 
L 165.394505 -80.026496 
L 164.611538 -81.025511 
L 163.82857 -81.948341 
L 163.045603 -82.787158 
L 162.262636 -83.535548 
L 161.479668 -84.188622 
L 160.696701 -84.74308 
L 159.913734 -85.197238 
L 159.130767 -85.551018 
L 158.347799 -85.805892 
L 157.564832 -85.964793 
L 156.781865 -86.031996 
L 155.998897 -86.012963 
L 155.21593 -85.914179 
L 154.432963 -85.742961 
L 153.649995 -85.50726 
L 152.867028 -85.215464 
L 152.084061 -84.876188 
L 151.301094 -84.498089 
L 150.518126 -84.089669 
L 149.735159 -83.659105 
L 148.952192 -83.214084 
L 148.169224 -82.761659 
L 147.386257 -82.308124 
L 146.60329 -81.858896 
L 145.820322 -81.418429 
L 145.037355 -80.990144 
L 144.254388 -80.576373 
L 143.471421 -80.178332 
L 142.688453 -79.796115 
L 141.905486 -79.42871 
L 141.122519 -79.074039 
L 140.339551 -78.729026 
L 139.556584 -78.389685 
L 138.773617 -78.051237 
L 137.990649 -77.708248 
L 137.207682 -77.354789 
L 136.424715 -76.98461 
L 135.641747 -76.591331 
L 134.85878 -76.168643 
L 134.075813 -75.710507 
L 133.292846 -75.211355 
L 132.509878 -74.666274 
L 131.726911 -74.071184 
L 130.943944 -73.422983 
L 130.160976 -72.719673 
L 129.378009 -71.960445 
L 128.595042 -71.145741 
L 127.812074 -70.27726 
L 127.029107 -69.357944 
L 126.24614 -68.391914 
L 125.463173 -67.384373 
L 124.680205 -66.34148 
L 123.897238 -65.270199 
L 123.114271 -64.178115 
L 122.331303 -63.073253 
L 121.548336 -61.963873 
L 120.765369 -60.858275 
L 119.982401 -59.764603 
L 119.199434 -58.690667 
L 118.416467 -57.643778 
L 117.6335 -56.630607 
L 116.850532 -55.657068 
L 116.067565 -54.728233 
L 115.284598 -53.848271 
L 114.50163 -53.020417 
L 113.718663 -52.246973 
L 112.935696 -51.529323 
L 112.152728 -50.867988 
L 111.369761 -50.262681 
L 110.586794 -49.712395 
L 109.803827 -49.215484 
L 109.020859 -48.769769 
L 108.237892 -48.372635 
L 107.454925 -48.02113 
L 106.671957 -47.712065 
L 105.88899 -47.442104 
L 105.106023 -47.207844 
L 104.323055 -47.005895 
L 103.540088 -46.832934 
L 102.757121 -46.685764 
L 101.974154 -46.561353 
L 101.191186 -46.456863 
L 100.408219 -46.36967 
L 99.625252 -46.297381 
L 98.842284 -46.237836 
L 98.059317 -46.189102 
L 97.27635 -46.149474 
L 96.493382 -46.117456 
L 95.710415 -46.091753 
L 94.927448 -46.071252 
z
" style="stroke: #fdb462; stroke-width: 0.8"/>
    </defs>
    <g clip-path="url(#p41fecb5bb6)">
     <use xlink:href="#m13755b5205" x="0" y="349.155" style="fill: #fdb462; fill-opacity: 0.25; stroke: #fdb462; stroke-width: 0.8"/>
    </g>
   </g>
   <g id="FillBetweenPolyCollection_3">
    <defs>
     <path id="m30b63264ad" d="M 94.167605 -46.172322 
L 94.167605 -46 
L 94.966669 -46 
L 95.765734 -46 
L 96.564798 -46 
L 97.363862 -46 
L 98.162926 -46 
L 98.96199 -46 
L 99.761054 -46 
L 100.560118 -46 
L 101.359182 -46 
L 102.158246 -46 
L 102.95731 -46 
L 103.756375 -46 
L 104.555439 -46 
L 105.354503 -46 
L 106.153567 -46 
L 106.952631 -46 
L 107.751695 -46 
L 108.550759 -46 
L 109.349823 -46 
L 110.148887 -46 
L 110.947952 -46 
L 111.747016 -46 
L 112.54608 -46 
L 113.345144 -46 
L 114.144208 -46 
L 114.943272 -46 
L 115.742336 -46 
L 116.5414 -46 
L 117.340464 -46 
L 118.139528 -46 
L 118.938593 -46 
L 119.737657 -46 
L 120.536721 -46 
L 121.335785 -46 
L 122.134849 -46 
L 122.933913 -46 
L 123.732977 -46 
L 124.532041 -46 
L 125.331105 -46 
L 126.13017 -46 
L 126.929234 -46 
L 127.728298 -46 
L 128.527362 -46 
L 129.326426 -46 
L 130.12549 -46 
L 130.924554 -46 
L 131.723618 -46 
L 132.522682 -46 
L 133.321747 -46 
L 134.120811 -46 
L 134.919875 -46 
L 135.718939 -46 
L 136.518003 -46 
L 137.317067 -46 
L 138.116131 -46 
L 138.915195 -46 
L 139.714259 -46 
L 140.513323 -46 
L 141.312388 -46 
L 142.111452 -46 
L 142.910516 -46 
L 143.70958 -46 
L 144.508644 -46 
L 145.307708 -46 
L 146.106772 -46 
L 146.905836 -46 
L 147.7049 -46 
L 148.503965 -46 
L 149.303029 -46 
L 150.102093 -46 
L 150.901157 -46 
L 151.700221 -46 
L 152.499285 -46 
L 153.298349 -46 
L 154.097413 -46 
L 154.896477 -46 
L 155.695541 -46 
L 156.494606 -46 
L 157.29367 -46 
L 158.092734 -46 
L 158.891798 -46 
L 159.690862 -46 
L 160.489926 -46 
L 161.28899 -46 
L 162.088054 -46 
L 162.887118 -46 
L 163.686183 -46 
L 164.485247 -46 
L 165.284311 -46 
L 166.083375 -46 
L 166.882439 -46 
L 167.681503 -46 
L 168.480567 -46 
L 169.279631 -46 
L 170.078695 -46 
L 170.87776 -46 
L 171.676824 -46 
L 172.475888 -46 
L 173.274952 -46 
L 174.074016 -46 
L 174.87308 -46 
L 175.672144 -46 
L 176.471208 -46 
L 177.270272 -46 
L 178.069336 -46 
L 178.868401 -46 
L 179.667465 -46 
L 180.466529 -46 
L 181.265593 -46 
L 182.064657 -46 
L 182.863721 -46 
L 183.662785 -46 
L 184.461849 -46 
L 185.260913 -46 
L 186.059978 -46 
L 186.859042 -46 
L 187.658106 -46 
L 188.45717 -46 
L 189.256234 -46 
L 190.055298 -46 
L 190.854362 -46 
L 191.653426 -46 
L 192.45249 -46 
L 193.251554 -46 
L 194.050619 -46 
L 194.849683 -46 
L 195.648747 -46 
L 196.447811 -46 
L 197.246875 -46 
L 198.045939 -46 
L 198.845003 -46 
L 199.644067 -46 
L 200.443131 -46 
L 201.242196 -46 
L 202.04126 -46 
L 202.840324 -46 
L 203.639388 -46 
L 204.438452 -46 
L 205.237516 -46 
L 206.03658 -46 
L 206.835644 -46 
L 207.634708 -46 
L 208.433772 -46 
L 209.232837 -46 
L 210.031901 -46 
L 210.830965 -46 
L 211.630029 -46 
L 212.429093 -46 
L 213.228157 -46 
L 214.027221 -46 
L 214.826285 -46 
L 215.625349 -46 
L 216.424414 -46 
L 217.223478 -46 
L 218.022542 -46 
L 218.821606 -46 
L 219.62067 -46 
L 220.419734 -46 
L 221.218798 -46 
L 222.017862 -46 
L 222.816926 -46 
L 223.615991 -46 
L 224.415055 -46 
L 225.214119 -46 
L 226.013183 -46 
L 226.812247 -46 
L 227.611311 -46 
L 228.410375 -46 
L 229.209439 -46 
L 230.008503 -46 
L 230.807567 -46 
L 231.606632 -46 
L 232.405696 -46 
L 233.20476 -46 
L 234.003824 -46 
L 234.802888 -46 
L 235.601952 -46 
L 236.401016 -46 
L 237.20008 -46 
L 237.999144 -46 
L 238.798209 -46 
L 239.597273 -46 
L 240.396337 -46 
L 241.195401 -46 
L 241.994465 -46 
L 242.793529 -46 
L 243.592593 -46 
L 244.391657 -46 
L 245.190721 -46 
L 245.989785 -46 
L 246.78885 -46 
L 247.587914 -46 
L 248.386978 -46 
L 249.186042 -46 
L 249.985106 -46 
L 250.78417 -46 
L 251.583234 -46 
L 252.382298 -46 
L 253.181362 -46 
L 253.181362 -46.03773 
L 253.181362 -46.03773 
L 252.382298 -46.050368 
L 251.583234 -46.066738 
L 250.78417 -46.087769 
L 249.985106 -46.114568 
L 249.186042 -46.148439 
L 248.386978 -46.190895 
L 247.587914 -46.243676 
L 246.78885 -46.308748 
L 245.989785 -46.388305 
L 245.190721 -46.484754 
L 244.391657 -46.600694 
L 243.592593 -46.738875 
L 242.793529 -46.902146 
L 241.994465 -47.093382 
L 241.195401 -47.315399 
L 240.396337 -47.570851 
L 239.597273 -47.862109 
L 238.798209 -48.19113 
L 237.999144 -48.559319 
L 237.20008 -48.967387 
L 236.401016 -49.41521 
L 235.601952 -49.901705 
L 234.802888 -50.42472 
L 234.003824 -50.980952 
L 233.20476 -51.565904 
L 232.405696 -52.173882 
L 231.606632 -52.798043 
L 230.807567 -53.430493 
L 230.008503 -54.062451 
L 229.209439 -54.684451 
L 228.410375 -55.286609 
L 227.611311 -55.858925 
L 226.812247 -56.391621 
L 226.013183 -56.8755 
L 225.214119 -57.302305 
L 224.415055 -57.665075 
L 223.615991 -57.958465 
L 222.816926 -58.179029 
L 222.017862 -58.325441 
L 221.218798 -58.398644 
L 220.419734 -58.401922 
L 219.62067 -58.340884 
L 218.821606 -58.223361 
L 218.022542 -58.059221 
L 217.223478 -57.860101 
L 216.424414 -57.639073 
L 215.625349 -57.410259 
L 214.826285 -57.188396 
L 214.027221 -56.988381 
L 213.228157 -56.824813 
L 212.429093 -56.711531 
L 211.630029 -56.661184 
L 210.830965 -56.684834 
L 210.031901 -56.791609 
L 209.232837 -56.988415 
L 208.433772 -57.279709 
L 207.634708 -57.667358 
L 206.835644 -58.150559 
L 206.03658 -58.725856 
L 205.237516 -59.387227 
L 204.438452 -60.126256 
L 203.639388 -60.932384 
L 202.840324 -61.793235 
L 202.04126 -62.695006 
L 201.242196 -63.622918 
L 200.443131 -64.561715 
L 199.644067 -65.496193 
L 198.845003 -66.411749 
L 198.045939 -67.29493 
L 197.246875 -68.133955 
L 196.447811 -68.919207 
L 195.648747 -69.643659 
L 194.849683 -70.303229 
L 194.050619 -70.897037 
L 193.251554 -71.42756 
L 192.45249 -71.900682 
L 191.653426 -72.325612 
L 190.854362 -72.714706 
L 190.055298 -73.08316 
L 189.256234 -73.448615 
L 188.45717 -73.830665 
L 187.658106 -74.2503 
L 186.859042 -74.729277 
L 186.059978 -75.289468 
L 185.260913 -75.952177 
L 184.461849 -76.737455 
L 183.662785 -77.66343 
L 182.863721 -78.745668 
L 182.064657 -79.996577 
L 181.265593 -81.42488 
L 180.466529 -83.035155 
L 179.667465 -84.827482 
L 178.868401 -86.797183 
L 178.069336 -88.934693 
L 177.270272 -91.225568 
L 176.471208 -93.650627 
L 175.672144 -96.186264 
L 174.87308 -98.804899 
L 174.074016 -101.475599 
L 173.274952 -104.164825 
L 172.475888 -106.837319 
L 171.676824 -109.457079 
L 170.87776 -111.98841 
L 170.078695 -114.39699 
L 169.279631 -116.650926 
L 168.480567 -118.721742 
L 167.681503 -120.58525 
L 166.882439 -122.222272 
L 166.083375 -123.619169 
L 165.284311 -124.768151 
L 164.485247 -125.667356 
L 163.686183 -126.320699 
L 162.887118 -126.7375 
L 162.088054 -126.93192 
L 161.28899 -126.922245 
L 160.489926 -126.730066 
L 159.690862 -126.379402 
L 158.891798 -125.895833 
L 158.092734 -125.30568 
L 157.29367 -124.635287 
L 156.494606 -123.910441 
L 155.695541 -123.15594 
L 154.896477 -122.395327 
L 154.097413 -121.650782 
L 153.298349 -120.943138 
L 152.499285 -120.292001 
L 151.700221 -119.715927 
L 150.901157 -119.232608 
L 150.102093 -118.859019 
L 149.303029 -118.611496 
L 148.503965 -118.505693 
L 147.7049 -118.556403 
L 146.905836 -118.777242 
L 146.106772 -119.18018 
L 145.307708 -119.77496 
L 144.508644 -120.568416 
L 143.70958 -121.563744 
L 142.910516 -122.75977 
L 142.111452 -124.150271 
L 141.312388 -125.72339 
L 140.513323 -127.46121 
L 139.714259 -129.339519 
L 138.915195 -131.327803 
L 138.116131 -133.389482 
L 137.317067 -135.482413 
L 136.518003 -137.559639 
L 135.718939 -139.570385 
L 134.919875 -141.461257 
L 134.120811 -143.177618 
L 133.321747 -144.665094 
L 132.522682 -145.871139 
L 131.723618 -146.746626 
L 130.924554 -147.247387 
L 130.12549 -147.335638 
L 129.326426 -146.98125 
L 128.527362 -146.162795 
L 127.728298 -144.868331 
L 126.929234 -143.095893 
L 126.13017 -140.853663 
L 125.331105 -138.159804 
L 124.532041 -135.04198 
L 123.732977 -131.536557 
L 122.933913 -127.687532 
L 122.134849 -123.545225 
L 121.335785 -119.164794 
L 120.536721 -114.604628 
L 119.737657 -109.924684 
L 118.938593 -105.184843 
L 118.139528 -100.443326 
L 117.340464 -95.755265 
L 116.5414 -91.171433 
L 115.742336 -86.737218 
L 114.943272 -82.491825 
L 114.144208 -78.467755 
L 113.345144 -74.690537 
L 112.54608 -71.178712 
L 111.747016 -67.944049 
L 110.947952 -64.991951 
L 110.148887 -62.322034 
L 109.349823 -59.928815 
L 108.550759 -57.802484 
L 107.751695 -55.929725 
L 106.952631 -54.294522 
L 106.153567 -52.878957 
L 105.354503 -51.663934 
L 104.555439 -50.629841 
L 103.756375 -49.757118 
L 102.95731 -49.026728 
L 102.158246 -48.420535 
L 101.359182 -47.921581 
L 100.560118 -47.514279 
L 99.761054 -47.184524 
L 98.96199 -46.919737 
L 98.162926 -46.708853 
L 97.363862 -46.542268 
L 96.564798 -46.411746 
L 95.765734 -46.310308 
L 94.966669 -46.232113 
L 94.167605 -46.172322 
z
" style="stroke: #b3de69; stroke-width: 0.8"/>
    </defs>
    <g clip-path="url(#p41fecb5bb6)">
     <use xlink:href="#m30b63264ad" x="0" y="349.155" style="fill: #b3de69; fill-opacity: 0.25; stroke: #b3de69; stroke-width: 0.8"/>
    </g>
   </g>
   <g id="FillBetweenPolyCollection_4">
    <defs>
     <path id="ma738bf2184" d="M 95.719532 -46.200609 
L 95.719532 -46 
L 96.596061 -46 
L 97.472591 -46 
L 98.34912 -46 
L 99.225649 -46 
L 100.102178 -46 
L 100.978707 -46 
L 101.855236 -46 
L 102.731765 -46 
L 103.608294 -46 
L 104.484823 -46 
L 105.361352 -46 
L 106.237881 -46 
L 107.11441 -46 
L 107.990939 -46 
L 108.867468 -46 
L 109.743997 -46 
L 110.620526 -46 
L 111.497055 -46 
L 112.373584 -46 
L 113.250113 -46 
L 114.126642 -46 
L 115.003171 -46 
L 115.8797 -46 
L 116.756229 -46 
L 117.632758 -46 
L 118.509287 -46 
L 119.385816 -46 
L 120.262345 -46 
L 121.138874 -46 
L 122.015403 -46 
L 122.891932 -46 
L 123.768461 -46 
L 124.64499 -46 
L 125.521519 -46 
L 126.398048 -46 
L 127.274577 -46 
L 128.151106 -46 
L 129.027635 -46 
L 129.904164 -46 
L 130.780693 -46 
L 131.657222 -46 
L 132.533751 -46 
L 133.41028 -46 
L 134.286809 -46 
L 135.163338 -46 
L 136.039867 -46 
L 136.916396 -46 
L 137.792925 -46 
L 138.669454 -46 
L 139.545983 -46 
L 140.422512 -46 
L 141.299041 -46 
L 142.17557 -46 
L 143.052099 -46 
L 143.928628 -46 
L 144.805157 -46 
L 145.681686 -46 
L 146.558215 -46 
L 147.434744 -46 
L 148.311273 -46 
L 149.187802 -46 
L 150.064331 -46 
L 150.94086 -46 
L 151.817389 -46 
L 152.693918 -46 
L 153.570447 -46 
L 154.446976 -46 
L 155.323505 -46 
L 156.200034 -46 
L 157.076563 -46 
L 157.953092 -46 
L 158.829621 -46 
L 159.70615 -46 
L 160.582679 -46 
L 161.459208 -46 
L 162.335737 -46 
L 163.212266 -46 
L 164.088795 -46 
L 164.965324 -46 
L 165.841853 -46 
L 166.718382 -46 
L 167.594911 -46 
L 168.47144 -46 
L 169.347969 -46 
L 170.224498 -46 
L 171.101027 -46 
L 171.977556 -46 
L 172.854085 -46 
L 173.730614 -46 
L 174.607143 -46 
L 175.483672 -46 
L 176.360201 -46 
L 177.23673 -46 
L 178.113259 -46 
L 178.989788 -46 
L 179.866317 -46 
L 180.742846 -46 
L 181.619375 -46 
L 182.495904 -46 
L 183.372433 -46 
L 184.248962 -46 
L 185.125491 -46 
L 186.00202 -46 
L 186.878549 -46 
L 187.755078 -46 
L 188.631607 -46 
L 189.508136 -46 
L 190.384665 -46 
L 191.261194 -46 
L 192.137723 -46 
L 193.014252 -46 
L 193.890781 -46 
L 194.76731 -46 
L 195.643839 -46 
L 196.520368 -46 
L 197.396897 -46 
L 198.273427 -46 
L 199.149956 -46 
L 200.026485 -46 
L 200.903014 -46 
L 201.779543 -46 
L 202.656072 -46 
L 203.532601 -46 
L 204.40913 -46 
L 205.285659 -46 
L 206.162188 -46 
L 207.038717 -46 
L 207.915246 -46 
L 208.791775 -46 
L 209.668304 -46 
L 210.544833 -46 
L 211.421362 -46 
L 212.297891 -46 
L 213.17442 -46 
L 214.050949 -46 
L 214.927478 -46 
L 215.804007 -46 
L 216.680536 -46 
L 217.557065 -46 
L 218.433594 -46 
L 219.310123 -46 
L 220.186652 -46 
L 221.063181 -46 
L 221.93971 -46 
L 222.816239 -46 
L 223.692768 -46 
L 224.569297 -46 
L 225.445826 -46 
L 226.322355 -46 
L 227.198884 -46 
L 228.075413 -46 
L 228.951942 -46 
L 229.828471 -46 
L 230.705 -46 
L 231.581529 -46 
L 232.458058 -46 
L 233.334587 -46 
L 234.211116 -46 
L 235.087645 -46 
L 235.964174 -46 
L 236.840703 -46 
L 237.717232 -46 
L 238.593761 -46 
L 239.47029 -46 
L 240.346819 -46 
L 241.223348 -46 
L 242.099877 -46 
L 242.976406 -46 
L 243.852935 -46 
L 244.729464 -46 
L 245.605993 -46 
L 246.482522 -46 
L 247.359051 -46 
L 248.23558 -46 
L 249.112109 -46 
L 249.988638 -46 
L 250.865167 -46 
L 251.741696 -46 
L 252.618225 -46 
L 253.494754 -46 
L 254.371283 -46 
L 255.247812 -46 
L 256.124341 -46 
L 257.00087 -46 
L 257.877399 -46 
L 258.753928 -46 
L 259.630457 -46 
L 260.506986 -46 
L 261.383515 -46 
L 262.260044 -46 
L 263.136573 -46 
L 264.013102 -46 
L 264.889631 -46 
L 265.76616 -46 
L 266.642689 -46 
L 267.519218 -46 
L 268.395747 -46 
L 269.272276 -46 
L 270.148805 -46 
L 270.148805 -46.015928 
L 270.148805 -46.015928 
L 269.272276 -46.021594 
L 268.395747 -46.029017 
L 267.519218 -46.038654 
L 266.642689 -46.051047 
L 265.76616 -46.066836 
L 264.889631 -46.086766 
L 264.013102 -46.111692 
L 263.136573 -46.142581 
L 262.260044 -46.180509 
L 261.383515 -46.22666 
L 260.506986 -46.282306 
L 259.630457 -46.348799 
L 258.753928 -46.427539 
L 257.877399 -46.519945 
L 257.00087 -46.627421 
L 256.124341 -46.751307 
L 255.247812 -46.892832 
L 254.371283 -47.053063 
L 253.494754 -47.232845 
L 252.618225 -47.43275 
L 251.741696 -47.653025 
L 250.865167 -47.893546 
L 249.988638 -48.153782 
L 249.112109 -48.432771 
L 248.23558 -48.729114 
L 247.359051 -49.040986 
L 246.482522 -49.366168 
L 245.605993 -49.702095 
L 244.729464 -50.045935 
L 243.852935 -50.394675 
L 242.976406 -50.745228 
L 242.099877 -51.094546 
L 241.223348 -51.439735 
L 240.346819 -51.778165 
L 239.47029 -52.107568 
L 238.593761 -52.426106 
L 237.717232 -52.732422 
L 236.840703 -53.02564 
L 235.964174 -53.305347 
L 235.087645 -53.571524 
L 234.211116 -53.82445 
L 233.334587 -54.064592 
L 232.458058 -54.292465 
L 231.581529 -54.508512 
L 230.705 -54.712986 
L 229.828471 -54.905877 
L 228.951942 -55.086872 
L 228.075413 -55.255374 
L 227.198884 -55.410586 
L 226.322355 -55.551642 
L 225.445826 -55.677805 
L 224.569297 -55.788695 
L 223.692768 -55.884545 
L 222.816239 -55.966462 
L 221.93971 -56.036663 
L 221.063181 -56.098671 
L 220.186652 -56.157451 
L 219.310123 -56.219461 
L 218.433594 -56.292617 
L 217.557065 -56.386163 
L 216.680536 -56.510452 
L 215.804007 -56.676638 
L 214.927478 -56.896311 
L 214.050949 -57.181078 
L 213.17442 -57.542119 
L 212.297891 -57.989739 
L 211.421362 -58.532939 
L 210.544833 -59.179024 
L 209.668304 -59.933259 
L 208.791775 -60.798602 
L 207.915246 -61.775502 
L 207.038717 -62.861789 
L 206.162188 -64.052652 
L 205.285659 -65.340705 
L 204.40913 -66.716157 
L 203.532601 -68.167065 
L 202.656072 -69.679699 
L 201.779543 -71.238979 
L 200.903014 -72.829007 
L 200.026485 -74.433669 
L 199.149956 -76.037281 
L 198.273427 -77.625269 
L 197.396897 -79.184841 
L 196.520368 -80.705622 
L 195.643839 -82.180209 
L 194.76731 -83.604614 
L 193.890781 -84.978554 
L 193.014252 -86.305565 
L 192.137723 -87.592923 
L 191.261194 -88.851362 
L 190.384665 -90.0946 
L 189.508136 -91.338699 
L 188.631607 -92.601282 
L 187.755078 -93.900671 
L 186.878549 -95.254968 
L 186.00202 -96.681159 
L 185.125491 -98.194269 
L 184.248962 -99.806617 
L 183.372433 -101.527209 
L 182.495904 -103.361267 
L 181.619375 -105.309929 
L 180.742846 -107.370091 
L 179.866317 -109.534389 
L 178.989788 -111.791302 
L 178.113259 -114.125346 
L 177.23673 -116.517354 
L 176.360201 -118.94481 
L 175.483672 -121.382236 
L 174.607143 -123.801643 
L 173.730614 -126.173018 
L 172.854085 -128.464897 
L 171.977556 -130.644996 
L 171.101027 -132.680934 
L 170.224498 -134.541033 
L 169.347969 -136.195192 
L 168.47144 -137.615815 
L 167.594911 -138.778773 
L 166.718382 -139.664333 
L 165.841853 -140.258041 
L 164.965324 -140.551483 
L 164.088795 -140.542879 
L 163.212266 -140.237482 
L 162.335737 -139.647723 
L 161.459208 -138.793113 
L 160.582679 -137.699871 
L 159.70615 -136.400322 
L 158.829621 -134.932064 
L 157.953092 -133.336983 
L 157.076563 -131.660131 
L 156.200034 -129.948554 
L 155.323505 -128.250102 
L 154.446976 -126.612282 
L 153.570447 -125.081182 
L 152.693918 -123.700503 
L 151.817389 -122.510693 
L 150.94086 -121.548197 
L 150.064331 -120.844812 
L 149.187802 -120.427112 
L 148.311273 -120.315944 
L 147.434744 -120.525961 
L 146.558215 -121.065184 
L 145.681686 -121.934585 
L 144.805157 -123.127706 
L 143.928628 -124.630318 
L 143.052099 -126.420156 
L 142.17557 -128.466775 
L 141.299041 -130.731545 
L 140.422512 -133.167857 
L 139.545983 -135.721562 
L 138.669454 -138.331679 
L 137.792925 -140.93141 
L 136.916396 -143.449442 
L 136.039867 -145.811551 
L 135.163338 -147.942469 
L 134.286809 -149.767958 
L 133.41028 -151.217041 
L 132.533751 -152.224291 
L 131.657222 -152.73209 
L 130.780693 -152.692749 
L 129.904164 -152.070392 
L 129.027635 -150.842488 
L 128.151106 -149.000947 
L 127.274577 -146.552716 
L 126.398048 -143.519808 
L 125.521519 -139.938752 
L 124.64499 -135.859476 
L 123.768461 -131.343662 
L 122.891932 -126.462644 
L 122.015403 -121.294947 
L 121.138874 -115.923598 
L 120.262345 -110.433324 
L 119.385816 -104.907787 
L 118.509287 -99.426979 
L 117.632758 -94.064903 
L 116.756229 -88.887634 
L 115.8797 -83.951822 
L 115.003171 -79.303693 
L 114.126642 -74.97855 
L 113.250113 -71.000748 
L 112.373584 -67.384115 
L 111.497055 -64.132737 
L 110.620526 -61.242038 
L 109.743997 -58.700065 
L 108.867468 -56.488884 
L 107.990939 -54.58602 
L 107.11441 -52.965848 
L 106.237881 -51.600894 
L 105.361352 -50.462977 
L 104.484823 -49.524197 
L 103.608294 -48.757712 
L 102.731765 -48.138341 
L 101.855236 -47.642978 
L 100.978707 -47.250838 
L 100.102178 -46.94357 
L 99.225649 -46.705245 
L 98.34912 -46.522263 
L 97.472591 -46.383189 
L 96.596061 -46.27855 
L 95.719532 -46.200609 
z
" style="stroke: #fb8072; stroke-width: 0.8"/>
    </defs>
    <g clip-path="url(#p41fecb5bb6)">
     <use xlink:href="#ma738bf2184" x="0" y="349.155" style="fill: #fb8072; fill-opacity: 0.25; stroke: #fb8072; stroke-width: 0.8"/>
    </g>
   </g>
   <g id="FillBetweenPolyCollection_5">
    <defs>
     <path id="mfc524b37f2" d="M 99.065362 -46.30242 
L 99.065362 -46 
L 99.826483 -46 
L 100.587604 -46 
L 101.348724 -46 
L 102.109845 -46 
L 102.870966 -46 
L 103.632086 -46 
L 104.393207 -46 
L 105.154328 -46 
L 105.915448 -46 
L 106.676569 -46 
L 107.43769 -46 
L 108.19881 -46 
L 108.959931 -46 
L 109.721052 -46 
L 110.482172 -46 
L 111.243293 -46 
L 112.004414 -46 
L 112.765534 -46 
L 113.526655 -46 
L 114.287776 -46 
L 115.048896 -46 
L 115.810017 -46 
L 116.571138 -46 
L 117.332258 -46 
L 118.093379 -46 
L 118.8545 -46 
L 119.615621 -46 
L 120.376741 -46 
L 121.137862 -46 
L 121.898983 -46 
L 122.660103 -46 
L 123.421224 -46 
L 124.182345 -46 
L 124.943465 -46 
L 125.704586 -46 
L 126.465707 -46 
L 127.226827 -46 
L 127.987948 -46 
L 128.749069 -46 
L 129.510189 -46 
L 130.27131 -46 
L 131.032431 -46 
L 131.793551 -46 
L 132.554672 -46 
L 133.315793 -46 
L 134.076913 -46 
L 134.838034 -46 
L 135.599155 -46 
L 136.360276 -46 
L 137.121396 -46 
L 137.882517 -46 
L 138.643638 -46 
L 139.404758 -46 
L 140.165879 -46 
L 140.927 -46 
L 141.68812 -46 
L 142.449241 -46 
L 143.210362 -46 
L 143.971482 -46 
L 144.732603 -46 
L 145.493724 -46 
L 146.254844 -46 
L 147.015965 -46 
L 147.777086 -46 
L 148.538206 -46 
L 149.299327 -46 
L 150.060448 -46 
L 150.821568 -46 
L 151.582689 -46 
L 152.34381 -46 
L 153.104931 -46 
L 153.866051 -46 
L 154.627172 -46 
L 155.388293 -46 
L 156.149413 -46 
L 156.910534 -46 
L 157.671655 -46 
L 158.432775 -46 
L 159.193896 -46 
L 159.955017 -46 
L 160.716137 -46 
L 161.477258 -46 
L 162.238379 -46 
L 162.999499 -46 
L 163.76062 -46 
L 164.521741 -46 
L 165.282861 -46 
L 166.043982 -46 
L 166.805103 -46 
L 167.566223 -46 
L 168.327344 -46 
L 169.088465 -46 
L 169.849586 -46 
L 170.610706 -46 
L 171.371827 -46 
L 172.132948 -46 
L 172.894068 -46 
L 173.655189 -46 
L 174.41631 -46 
L 175.17743 -46 
L 175.938551 -46 
L 176.699672 -46 
L 177.460792 -46 
L 178.221913 -46 
L 178.983034 -46 
L 179.744154 -46 
L 180.505275 -46 
L 181.266396 -46 
L 182.027516 -46 
L 182.788637 -46 
L 183.549758 -46 
L 184.310878 -46 
L 185.071999 -46 
L 185.83312 -46 
L 186.59424 -46 
L 187.355361 -46 
L 188.116482 -46 
L 188.877603 -46 
L 189.638723 -46 
L 190.399844 -46 
L 191.160965 -46 
L 191.922085 -46 
L 192.683206 -46 
L 193.444327 -46 
L 194.205447 -46 
L 194.966568 -46 
L 195.727689 -46 
L 196.488809 -46 
L 197.24993 -46 
L 198.011051 -46 
L 198.772171 -46 
L 199.533292 -46 
L 200.294413 -46 
L 201.055533 -46 
L 201.816654 -46 
L 202.577775 -46 
L 203.338895 -46 
L 204.100016 -46 
L 204.861137 -46 
L 205.622258 -46 
L 206.383378 -46 
L 207.144499 -46 
L 207.90562 -46 
L 208.66674 -46 
L 209.427861 -46 
L 210.188982 -46 
L 210.950102 -46 
L 211.711223 -46 
L 212.472344 -46 
L 213.233464 -46 
L 213.994585 -46 
L 214.755706 -46 
L 215.516826 -46 
L 216.277947 -46 
L 217.039068 -46 
L 217.800188 -46 
L 218.561309 -46 
L 219.32243 -46 
L 220.08355 -46 
L 220.844671 -46 
L 221.605792 -46 
L 222.366913 -46 
L 223.128033 -46 
L 223.889154 -46 
L 224.650275 -46 
L 225.411395 -46 
L 226.172516 -46 
L 226.933637 -46 
L 227.694757 -46 
L 228.455878 -46 
L 229.216999 -46 
L 229.978119 -46 
L 230.73924 -46 
L 231.500361 -46 
L 232.261481 -46 
L 233.022602 -46 
L 233.783723 -46 
L 234.544843 -46 
L 235.305964 -46 
L 236.067085 -46 
L 236.828205 -46 
L 237.589326 -46 
L 238.350447 -46 
L 239.111567 -46 
L 239.872688 -46 
L 240.633809 -46 
L 241.39493 -46 
L 242.15605 -46 
L 242.917171 -46 
L 243.678292 -46 
L 244.439412 -46 
L 245.200533 -46 
L 245.961654 -46 
L 246.722774 -46 
L 247.483895 -46 
L 248.245016 -46 
L 249.006136 -46 
L 249.767257 -46 
L 250.528378 -46 
L 250.528378 -46.033496 
L 250.528378 -46.033496 
L 249.767257 -46.046311 
L 249.006136 -46.063355 
L 248.245016 -46.085767 
L 247.483895 -46.114899 
L 246.722774 -46.152332 
L 245.961654 -46.199881 
L 245.200533 -46.259584 
L 244.439412 -46.333688 
L 243.678292 -46.424606 
L 242.917171 -46.534864 
L 242.15605 -46.667027 
L 241.39493 -46.823603 
L 240.633809 -47.006932 
L 239.872688 -47.21906 
L 239.111567 -47.461599 
L 238.350447 -47.735588 
L 237.589326 -48.041354 
L 236.828205 -48.378384 
L 236.067085 -48.745224 
L 235.305964 -49.139395 
L 234.544843 -49.557362 
L 233.783723 -49.994538 
L 233.022602 -50.445334 
L 232.261481 -50.903276 
L 231.500361 -51.361156 
L 230.73924 -51.811247 
L 229.978119 -52.245553 
L 229.216999 -52.656097 
L 228.455878 -53.035238 
L 227.694757 -53.375991 
L 226.933637 -53.672358 
L 226.172516 -53.919633 
L 225.411395 -54.114679 
L 224.650275 -54.256165 
L 223.889154 -54.344739 
L 223.128033 -54.383136 
L 222.366913 -54.376207 
L 221.605792 -54.330874 
L 220.844671 -54.255989 
L 220.08355 -54.162135 
L 219.32243 -54.06134 
L 218.561309 -53.966743 
L 217.800188 -53.892216 
L 217.039068 -53.851964 
L 216.277947 -53.860121 
L 215.516826 -53.930363 
L 214.755706 -54.075554 
L 213.994585 -54.307438 
L 213.233464 -54.636394 
L 212.472344 -55.071242 
L 211.711223 -55.61911 
L 210.950102 -56.285351 
L 210.188982 -57.073485 
L 209.427861 -57.985165 
L 208.66674 -59.020138 
L 207.90562 -60.176191 
L 207.144499 -61.449075 
L 206.383378 -62.8324 
L 205.622258 -64.317515 
L 204.861137 -65.89339 
L 204.100016 -67.546525 
L 203.338895 -69.260934 
L 202.577775 -71.018229 
L 201.816654 -72.797858 
L 201.055533 -74.577522 
L 200.294413 -76.333792 
L 199.533292 -78.042938 
L 198.772171 -79.681946 
L 198.011051 -81.229676 
L 197.24993 -82.668126 
L 196.488809 -83.983679 
L 195.727689 -85.168286 
L 194.966568 -86.220441 
L 194.205447 -87.145887 
L 193.444327 -87.957954 
L 192.683206 -88.677474 
L 191.922085 -89.332251 
L 191.160965 -89.956078 
L 190.399844 -90.587365 
L 189.638723 -91.267434 
L 188.877603 -92.038589 
L 188.116482 -92.942089 
L 187.355361 -94.016141 
L 186.59424 -95.294049 
L 185.83312 -96.802611 
L 185.071999 -98.560874 
L 184.310878 -100.579279 
L 183.549758 -102.859225 
L 182.788637 -105.393051 
L 182.027516 -108.164379 
L 181.266396 -111.148762 
L 180.505275 -114.314569 
L 179.744154 -117.624012 
L 178.983034 -121.034262 
L 178.221913 -124.498574 
L 177.460792 -127.967399 
L 176.699672 -131.389457 
L 175.938551 -134.712768 
L 175.17743 -137.88568 
L 174.41631 -140.857904 
L 173.655189 -143.581606 
L 172.894068 -146.012568 
L 172.132948 -148.111437 
L 171.371827 -149.845057 
L 170.610706 -151.187825 
L 169.849586 -152.123032 
L 169.088465 -152.644086 
L 168.327344 -152.755519 
L 167.566223 -152.473663 
L 166.805103 -151.826903 
L 166.043982 -150.855408 
L 165.282861 -149.610292 
L 164.521741 -148.152195 
L 163.76062 -146.549313 
L 162.999499 -144.874951 
L 162.238379 -143.20475 
L 161.477258 -141.613728 
L 160.716137 -140.173337 
L 159.955017 -138.948733 
L 159.193896 -137.996454 
L 158.432775 -137.362663 
L 157.671655 -137.082085 
L 156.910534 -137.177713 
L 156.149413 -137.66128 
L 155.388293 -138.534465 
L 154.627172 -139.79069 
L 153.866051 -141.41738 
L 153.104931 -143.398452 
L 152.34381 -145.716848 
L 151.582689 -148.356871 
L 150.821568 -151.306137 
L 150.060448 -154.557 
L 149.299327 -158.107318 
L 148.538206 -161.960541 
L 147.777086 -166.125121 
L 147.015965 -170.613324 
L 146.254844 -175.439568 
L 145.493724 -180.618428 
L 144.732603 -186.162474 
L 143.971482 -192.080099 
L 143.210362 -198.37346 
L 142.449241 -205.036634 
L 141.68812 -212.054041 
L 140.927 -219.399137 
L 140.165879 -227.033379 
L 139.404758 -234.905405 
L 138.643638 -242.950418 
L 137.882517 -251.089742 
L 137.121396 -259.230584 
L 136.360276 -267.266058 
L 135.599155 -275.075579 
L 134.838034 -282.525768 
L 134.076913 -289.472019 
L 133.315793 -295.760886 
L 132.554672 -301.233381 
L 131.793551 -305.729241 
L 131.032431 -309.092101 
L 130.27131 -311.175434 
L 129.510189 -311.848986 
L 128.749069 -311.005355 
L 127.987948 -308.566286 
L 127.226827 -304.488221 
L 126.465707 -298.766647 
L 125.704586 -291.438844 
L 124.943465 -282.584714 
L 124.182345 -272.325543 
L 123.421224 -260.82065 
L 122.660103 -248.262068 
L 121.898983 -234.867563 
L 121.137862 -220.872382 
L 120.376741 -206.520269 
L 119.615621 -192.054273 
L 118.8545 -177.707924 
L 118.093379 -163.697278 
L 117.332258 -150.214237 
L 116.571138 -137.421472 
L 115.810017 -125.449099 
L 115.048896 -114.393166 
L 114.287776 -104.315849 
L 113.526655 -95.247176 
L 112.765534 -87.187998 
L 112.004414 -80.113889 
L 111.243293 -73.979635 
L 110.482172 -68.723981 
L 109.721052 -64.274336 
L 108.959931 -60.551194 
L 108.19881 -57.472076 
L 107.43769 -54.954878 
L 106.676569 -52.920551 
L 105.915448 -51.295112 
L 105.154328 -50.011013 
L 104.393207 -49.007941 
L 103.632086 -48.233126 
L 102.870966 -47.641265 
L 102.109845 -47.194151 
L 101.348724 -46.860099 
L 100.587604 -46.613254 
L 99.826483 -46.432843 
L 99.065362 -46.30242 
z
" style="stroke: #bc80bd; stroke-width: 0.8"/>
    </defs>
    <g clip-path="url(#p41fecb5bb6)">
     <use xlink:href="#mfc524b37f2" x="0" y="349.155" style="fill: #bc80bd; fill-opacity: 0.25; stroke: #bc80bd; stroke-width: 0.8"/>
    </g>
   </g>
   <g id="matplotlib.axis_1">
    <g id="xtick_1">
     <g id="line2d_1">
      <defs>
       <path id="m551fdd7b3a" d="M 0 0 
L 0 3.5 
" style="stroke: #323034; stroke-width: 0.8"/>
      </defs>
      <g>
       <use xlink:href="#m551fdd7b3a" x="51.615" y="303.155" style="fill: #323034; stroke: #323034; stroke-width: 0.8"/>
      </g>
     </g>
     <g id="text_1">
      <!-- $\mathdefault{−1}$ -->
      <g style="fill: #323034" transform="translate(42.095 321.0825) scale(0.16 -0.16)">
       <defs>
        <path id="STIXGeneral-Regular-2212" d="M 3974 1408 
L 410 1408 
L 410 1830 
L 3974 1830 
L 3974 1408 
z
" transform="scale(0.015625)"/>
        <path id="STIXGeneral-Regular-31" d="M 2522 0 
L 755 0 
L 755 96 
Q 1107 115 1235 227 
Q 1363 339 1363 608 
L 1363 3482 
Q 1363 3795 1171 3795 
Q 1082 3795 883 3718 
L 710 3654 
L 710 3744 
L 1856 4326 
L 1914 4307 
L 1914 486 
Q 1914 275 2042 185 
Q 2170 96 2522 96 
L 2522 0 
z
" transform="scale(0.015625)"/>
       </defs>
       <use xlink:href="#STIXGeneral-Regular-2212" transform="translate(0 0.40625)"/>
       <use xlink:href="#STIXGeneral-Regular-31" transform="translate(68.499985 0.40625)"/>
      </g>
     </g>
    </g>
    <g id="xtick_2">
     <g id="line2d_2">
      <g>
       <use xlink:href="#m551fdd7b3a" x="107.734303" y="303.155" style="fill: #323034; stroke: #323034; stroke-width: 0.8"/>
      </g>
     </g>
     <g id="text_2">
      <!-- $\mathdefault{0}$ -->
      <g style="fill: #323034" transform="translate(103.734303 321.0825) scale(0.16 -0.16)">
       <defs>
        <path id="STIXGeneral-Regular-30" d="M 3046 2112 
Q 3046 1683 2963 1302 
Q 2880 922 2717 602 
Q 2554 282 2266 96 
Q 1978 -90 1600 -90 
Q 1210 -90 915 108 
Q 621 307 461 640 
Q 301 973 227 1350 
Q 154 1728 154 2150 
Q 154 2746 301 3222 
Q 448 3699 790 4012 
Q 1133 4326 1626 4326 
Q 2253 4326 2649 3712 
Q 3046 3098 3046 2112 
z
M 2432 2080 
Q 2432 3091 2217 3625 
Q 2003 4160 1587 4160 
Q 1190 4160 979 3622 
Q 768 3085 768 2106 
Q 768 1120 979 598 
Q 1190 77 1600 77 
Q 2003 77 2217 598 
Q 2432 1120 2432 2080 
z
" transform="scale(0.015625)"/>
       </defs>
       <use xlink:href="#STIXGeneral-Regular-30" transform="translate(0 0.40625)"/>
      </g>
     </g>
    </g>
    <g id="xtick_3">
     <g id="line2d_3">
      <g>
       <use xlink:href="#m551fdd7b3a" x="163.853606" y="303.155" style="fill: #323034; stroke: #323034; stroke-width: 0.8"/>
      </g>
     </g>
     <g id="text_3">
      <!-- $\mathdefault{1}$ -->
      <g style="fill: #323034" transform="translate(159.853606 321.0825) scale(0.16 -0.16)">
       <use xlink:href="#STIXGeneral-Regular-31" transform="translate(0 0.40625)"/>
      </g>
     </g>
    </g>
    <g id="xtick_4">
     <g id="line2d_4">
      <g>
       <use xlink:href="#m551fdd7b3a" x="219.972909" y="303.155" style="fill: #323034; stroke: #323034; stroke-width: 0.8"/>
      </g>
     </g>
     <g id="text_4">
      <!-- $\mathdefault{2}$ -->
      <g style="fill: #323034" transform="translate(215.972909 321.0825) scale(0.16 -0.16)">
       <defs>
        <path id="STIXGeneral-Regular-32" d="M 3034 877 
L 2688 0 
L 186 0 
L 186 77 
L 1325 1286 
Q 1773 1754 1965 2144 
Q 2157 2534 2157 2950 
Q 2157 3379 1920 3616 
Q 1683 3853 1267 3853 
Q 922 3853 720 3673 
Q 518 3494 326 3021 
L 192 3053 
Q 301 3648 630 3987 
Q 960 4326 1523 4326 
Q 2054 4326 2380 4006 
Q 2707 3686 2707 3200 
Q 2707 2477 1888 1613 
L 832 486 
L 2330 486 
Q 2541 486 2665 569 
Q 2790 653 2944 915 
L 3034 877 
z
" transform="scale(0.015625)"/>
       </defs>
       <use xlink:href="#STIXGeneral-Regular-32" transform="translate(0 0.40625)"/>
      </g>
     </g>
    </g>
    <g id="xtick_5">
     <g id="line2d_5">
      <g>
       <use xlink:href="#m551fdd7b3a" x="276.092212" y="303.155" style="fill: #323034; stroke: #323034; stroke-width: 0.8"/>
      </g>
     </g>
     <g id="text_5">
      <!-- $\mathdefault{3}$ -->
      <g style="fill: #323034" transform="translate(272.092212 321.0825) scale(0.16 -0.16)">
       <defs>
        <path id="STIXGeneral-Regular-33" d="M 390 3264 
L 288 3290 
Q 435 3770 748 4048 
Q 1062 4326 1542 4326 
Q 1990 4326 2265 4083 
Q 2541 3840 2541 3450 
Q 2541 2925 1946 2566 
Q 2298 2413 2477 2227 
Q 2758 1914 2758 1402 
Q 2758 890 2464 506 
Q 2246 211 1840 60 
Q 1434 -90 979 -90 
Q 262 -90 262 275 
Q 262 378 339 442 
Q 416 506 525 506 
Q 685 506 915 339 
Q 1197 141 1466 141 
Q 1818 141 2058 425 
Q 2298 710 2298 1120 
Q 2298 1856 1632 2048 
Q 1434 2112 979 2112 
L 979 2202 
Q 1338 2323 1517 2432 
Q 2035 2726 2035 3290 
Q 2035 3610 1852 3776 
Q 1670 3942 1344 3942 
Q 768 3942 390 3264 
z
" transform="scale(0.015625)"/>
       </defs>
       <use xlink:href="#STIXGeneral-Regular-33" transform="translate(0 0.40625)"/>
      </g>
     </g>
    </g>
    <g id="xtick_6">
     <g id="line2d_6">
      <g>
       <use xlink:href="#m551fdd7b3a" x="332.211515" y="303.155" style="fill: #323034; stroke: #323034; stroke-width: 0.8"/>
      </g>
     </g>
     <g id="text_6">
      <!-- $\mathdefault{4}$ -->
      <g style="fill: #323034" transform="translate(328.211515 321.0825) scale(0.16 -0.16)">
       <defs>
        <path id="STIXGeneral-Regular-34" d="M 3027 1069 
L 2368 1069 
L 2368 0 
L 1869 0 
L 1869 1069 
L 77 1069 
L 77 1478 
L 2086 4326 
L 2368 4326 
L 2368 1478 
L 3027 1478 
L 3027 1069 
z
M 1869 1478 
L 1869 3674 
L 333 1478 
L 1869 1478 
z
" transform="scale(0.015625)"/>
       </defs>
       <use xlink:href="#STIXGeneral-Regular-34" transform="translate(0 0.40625)"/>
      </g>
     </g>
    </g>
    <g id="text_7">
     <!-- carat -->
     <g transform="translate(176.368257 338.4825) scale(0.16 -0.16)">
      <defs>
       <path id="STIXGeneral-Regular-63" d="M 2547 998 
L 2637 941 
Q 2362 403 2112 205 
Q 1786 -64 1376 -64 
Q 845 -64 502 336 
Q 160 736 160 1357 
Q 160 2170 698 2618 
Q 1094 2944 1562 2944 
Q 1965 2944 2256 2749 
Q 2547 2554 2547 2285 
Q 2547 2176 2457 2096 
Q 2368 2016 2246 2016 
Q 2022 2016 1939 2310 
L 1901 2451 
Q 1850 2630 1773 2694 
Q 1696 2758 1523 2758 
Q 1133 2758 893 2451 
Q 653 2144 653 1645 
Q 653 1094 928 745 
Q 1203 397 1645 397 
Q 1920 397 2118 528 
Q 2317 659 2547 998 
z
" transform="scale(0.015625)"/>
       <path id="STIXGeneral-Regular-61" d="M 2829 422 
L 2829 243 
Q 2586 -64 2253 -64 
Q 1888 -64 1843 403 
L 1837 403 
Q 1427 -64 909 -64 
Q 608 -64 422 112 
Q 237 288 237 602 
Q 237 1050 685 1350 
Q 992 1555 1837 1869 
L 1837 2214 
Q 1837 2502 1699 2646 
Q 1562 2790 1338 2790 
Q 1146 2790 1018 2697 
Q 890 2605 890 2477 
Q 890 2419 909 2348 
Q 928 2278 928 2208 
Q 928 2112 841 2029 
Q 755 1946 634 1946 
Q 525 1946 441 2029 
Q 358 2112 358 2240 
Q 358 2547 685 2752 
Q 986 2944 1421 2944 
Q 1939 2944 2176 2656 
Q 2291 2522 2323 2384 
Q 2355 2246 2355 1946 
L 2355 723 
Q 2355 301 2554 301 
Q 2682 301 2829 422 
z
M 1837 813 
L 1837 1715 
Q 1248 1510 1018 1293 
Q 800 1094 800 800 
Q 800 557 921 432 
Q 1043 307 1242 307 
Q 1453 307 1613 410 
Q 1747 506 1792 589 
Q 1837 672 1837 813 
z
" transform="scale(0.015625)"/>
       <path id="STIXGeneral-Regular-72" d="M 1024 2931 
L 1024 2342 
Q 1267 2688 1430 2816 
Q 1594 2944 1792 2944 
Q 1958 2944 2051 2854 
Q 2144 2765 2144 2605 
Q 2144 2470 2077 2393 
Q 2010 2317 1894 2317 
Q 1773 2317 1638 2445 
Q 1536 2541 1472 2541 
Q 1338 2541 1181 2355 
Q 1024 2170 1024 2016 
L 1024 576 
Q 1024 301 1133 205 
Q 1242 109 1568 96 
L 1568 0 
L 32 0 
L 32 96 
Q 339 154 412 224 
Q 486 294 486 538 
L 486 2138 
Q 486 2349 438 2435 
Q 390 2522 269 2522 
Q 166 2522 45 2496 
L 45 2598 
Q 448 2726 992 2944 
L 1024 2931 
z
" transform="scale(0.015625)"/>
       <path id="STIXGeneral-Regular-74" d="M 1702 493 
L 1786 422 
Q 1478 -64 1011 -64 
Q 448 -64 448 749 
L 448 2675 
L 109 2675 
Q 83 2694 83 2720 
Q 83 2771 192 2842 
Q 435 2982 813 3526 
Q 826 3546 874 3606 
Q 922 3667 941 3706 
Q 986 3706 986 3622 
L 986 2880 
L 1632 2880 
L 1632 2675 
L 986 2675 
L 986 845 
Q 986 538 1062 403 
Q 1139 269 1318 269 
Q 1510 269 1702 493 
z
" transform="scale(0.015625)"/>
      </defs>
      <use xlink:href="#STIXGeneral-Regular-63"/>
      <use xlink:href="#STIXGeneral-Regular-61" transform="translate(44.399994 0)"/>
      <use xlink:href="#STIXGeneral-Regular-72" transform="translate(88.799988 0)"/>
      <use xlink:href="#STIXGeneral-Regular-61" transform="translate(122.099976 0)"/>
      <use xlink:href="#STIXGeneral-Regular-74" transform="translate(166.499969 0)"/>
     </g>
    </g>
   </g>
   <g id="matplotlib.axis_2">
    <g id="ytick_1">
     <g id="line2d_7">
      <defs>
       <path id="md68113fa08" d="M 0 0 
L -3.5 0 
" style="stroke: #323034; stroke-width: 0.8"/>
      </defs>
      <g>
       <use xlink:href="#md68113fa08" x="51.615" y="303.155" style="fill: #323034; stroke: #323034; stroke-width: 0.8"/>
      </g>
     </g>
     <g id="text_8">
      <!-- $\mathdefault{0.0}$ -->
      <g style="fill: #323034" transform="translate(24.615 308.61875) scale(0.16 -0.16)">
       <defs>
        <path id="STIXGeneral-Regular-2e" d="M 1158 275 
Q 1158 134 1052 32 
Q 947 -70 800 -70 
Q 653 -70 550 32 
Q 448 134 448 281 
Q 448 429 553 534 
Q 659 640 806 640 
Q 947 640 1052 531 
Q 1158 422 1158 275 
z
" transform="scale(0.015625)"/>
       </defs>
       <use xlink:href="#STIXGeneral-Regular-30" transform="translate(0 0.40625)"/>
       <use xlink:href="#STIXGeneral-Regular-2e" transform="translate(49.999985 0.40625)"/>
       <use xlink:href="#STIXGeneral-Regular-30" transform="translate(74.999969 0.40625)"/>
      </g>
     </g>
    </g>
    <g id="ytick_2">
     <g id="line2d_8">
      <g>
       <use xlink:href="#md68113fa08" x="51.615" y="254.739792" style="fill: #323034; stroke: #323034; stroke-width: 0.8"/>
      </g>
     </g>
     <g id="text_9">
      <!-- $\mathdefault{0.1}$ -->
      <g style="fill: #323034" transform="translate(24.615 260.203542) scale(0.16 -0.16)">
       <use xlink:href="#STIXGeneral-Regular-30" transform="translate(0 0.40625)"/>
       <use xlink:href="#STIXGeneral-Regular-2e" transform="translate(49.999985 0.40625)"/>
       <use xlink:href="#STIXGeneral-Regular-31" transform="translate(74.999969 0.40625)"/>
      </g>
     </g>
    </g>
    <g id="ytick_3">
     <g id="line2d_9">
      <g>
       <use xlink:href="#md68113fa08" x="51.615" y="206.324583" style="fill: #323034; stroke: #323034; stroke-width: 0.8"/>
      </g>
     </g>
     <g id="text_10">
      <!-- $\mathdefault{0.2}$ -->
      <g style="fill: #323034" transform="translate(24.615 211.788333) scale(0.16 -0.16)">
       <use xlink:href="#STIXGeneral-Regular-30" transform="translate(0 0.40625)"/>
       <use xlink:href="#STIXGeneral-Regular-2e" transform="translate(49.999985 0.40625)"/>
       <use xlink:href="#STIXGeneral-Regular-32" transform="translate(74.999969 0.40625)"/>
      </g>
     </g>
    </g>
    <g id="ytick_4">
     <g id="line2d_10">
      <g>
       <use xlink:href="#md68113fa08" x="51.615" y="157.909375" style="fill: #323034; stroke: #323034; stroke-width: 0.8"/>
      </g>
     </g>
     <g id="text_11">
      <!-- $\mathdefault{0.3}$ -->
      <g style="fill: #323034" transform="translate(24.615 163.373125) scale(0.16 -0.16)">
       <use xlink:href="#STIXGeneral-Regular-30" transform="translate(0 0.40625)"/>
       <use xlink:href="#STIXGeneral-Regular-2e" transform="translate(49.999985 0.40625)"/>
       <use xlink:href="#STIXGeneral-Regular-33" transform="translate(74.999969 0.40625)"/>
      </g>
     </g>
    </g>
    <g id="ytick_5">
     <g id="line2d_11">
      <g>
       <use xlink:href="#md68113fa08" x="51.615" y="109.494167" style="fill: #323034; stroke: #323034; stroke-width: 0.8"/>
      </g>
     </g>
     <g id="text_12">
      <!-- $\mathdefault{0.4}$ -->
      <g style="fill: #323034" transform="translate(24.615 114.957917) scale(0.16 -0.16)">
       <use xlink:href="#STIXGeneral-Regular-30" transform="translate(0 0.40625)"/>
       <use xlink:href="#STIXGeneral-Regular-2e" transform="translate(49.999985 0.40625)"/>
       <use xlink:href="#STIXGeneral-Regular-34" transform="translate(74.999969 0.40625)"/>
      </g>
     </g>
    </g>
    <g id="ytick_6">
     <g id="line2d_12">
      <g>
       <use xlink:href="#md68113fa08" x="51.615" y="61.078958" style="fill: #323034; stroke: #323034; stroke-width: 0.8"/>
      </g>
     </g>
     <g id="text_13">
      <!-- $\mathdefault{0.5}$ -->
      <g style="fill: #323034" transform="translate(24.615 66.542708) scale(0.16 -0.16)">
       <defs>
        <path id="STIXGeneral-Regular-35" d="M 2803 4358 
L 2573 3814 
Q 2534 3731 2400 3731 
L 1158 3731 
L 902 3187 
Q 1606 3053 1920 2896 
Q 2234 2739 2502 2368 
Q 2726 2061 2726 1555 
Q 2726 1094 2576 780 
Q 2426 467 2099 224 
Q 1664 -90 1011 -90 
Q 646 -90 422 19 
Q 198 128 198 307 
Q 198 550 486 550 
Q 717 550 960 352 
Q 1210 147 1414 147 
Q 1747 147 2012 480 
Q 2278 813 2278 1229 
Q 2278 1843 1850 2189 
Q 1293 2637 486 2637 
Q 410 2637 410 2688 
L 416 2720 
L 1114 4237 
L 2438 4237 
Q 2547 4237 2608 4269 
Q 2669 4301 2746 4403 
L 2803 4358 
z
" transform="scale(0.015625)"/>
       </defs>
       <use xlink:href="#STIXGeneral-Regular-30" transform="translate(0 0.203125)"/>
       <use xlink:href="#STIXGeneral-Regular-2e" transform="translate(49.999985 0.203125)"/>
       <use xlink:href="#STIXGeneral-Regular-35" transform="translate(74.999969 0.203125)"/>
      </g>
     </g>
    </g>
    <g id="ytick_7">
     <g id="line2d_13">
      <g>
       <use xlink:href="#md68113fa08" x="51.615" y="12.66375" style="fill: #323034; stroke: #323034; stroke-width: 0.8"/>
      </g>
     </g>
     <g id="text_14">
      <!-- $\mathdefault{0.6}$ -->
      <g style="fill: #323034" transform="translate(24.615 18.1275) scale(0.16 -0.16)">
       <defs>
        <path id="STIXGeneral-Regular-36" d="M 2854 4378 
L 2867 4275 
Q 2112 4154 1606 3664 
Q 1101 3174 973 2451 
Q 1344 2739 1786 2739 
Q 2349 2739 2672 2380 
Q 2995 2022 2995 1402 
Q 2995 774 2669 378 
Q 2291 -90 1651 -90 
Q 870 -90 518 557 
Q 218 1107 218 1786 
Q 218 2835 915 3552 
Q 1312 3962 1731 4131 
Q 2150 4301 2854 4378 
z
M 2419 1203 
Q 2419 2445 1555 2445 
Q 1235 2445 1024 2275 
Q 813 2106 813 1702 
Q 813 954 1046 522 
Q 1280 90 1722 90 
Q 2061 90 2240 394 
Q 2419 698 2419 1203 
z
" transform="scale(0.015625)"/>
       </defs>
       <use xlink:href="#STIXGeneral-Regular-30" transform="translate(0 0.59375)"/>
       <use xlink:href="#STIXGeneral-Regular-2e" transform="translate(49.999985 0.59375)"/>
       <use xlink:href="#STIXGeneral-Regular-36" transform="translate(74.999969 0.59375)"/>
      </g>
     </g>
    </g>
    <g id="text_15">
     <!-- Density -->
     <g transform="translate(18.1275 182.798125) rotate(-90) scale(0.16 -0.16)">
      <defs>
       <path id="STIXGeneral-Regular-44" d="M 102 4237 
L 1830 4237 
Q 3078 4237 3750 3654 
Q 4384 3110 4384 2138 
Q 4384 966 3514 410 
Q 2880 0 1901 0 
L 102 0 
L 102 122 
Q 474 147 570 252 
Q 666 358 666 736 
L 666 3520 
Q 666 3891 570 3990 
Q 474 4090 102 4115 
L 102 4237 
z
M 1318 3731 
L 1318 538 
Q 1318 365 1379 301 
Q 1440 237 1626 237 
Q 2125 237 2432 307 
Q 2739 378 3021 570 
Q 3686 1018 3686 2099 
Q 3686 3027 3078 3558 
Q 2803 3802 2476 3901 
Q 2150 4000 1658 4000 
Q 1472 4000 1395 3942 
Q 1318 3885 1318 3731 
z
" transform="scale(0.015625)"/>
       <path id="STIXGeneral-Regular-65" d="M 2611 1050 
L 2714 1005 
Q 2330 -64 1376 -64 
Q 813 -64 486 329 
Q 160 723 160 1389 
Q 160 2074 525 2509 
Q 890 2944 1485 2944 
Q 2061 2944 2374 2502 
Q 2560 2246 2592 1773 
L 621 1773 
Q 646 1370 700 1158 
Q 755 947 915 730 
Q 1184 378 1626 378 
Q 1939 378 2153 531 
Q 2368 685 2611 1050 
z
M 634 1978 
L 1939 1978 
Q 1882 2381 1750 2547 
Q 1619 2714 1312 2714 
Q 1043 2714 864 2525 
Q 685 2336 634 1978 
z
" transform="scale(0.015625)"/>
       <path id="STIXGeneral-Regular-6e" d="M 3104 0 
L 1773 0 
L 1779 96 
Q 2016 115 2096 233 
Q 2176 352 2176 672 
L 2176 1946 
Q 2176 2592 1709 2592 
Q 1549 2592 1408 2515 
Q 1267 2438 1050 2227 
L 1050 461 
Q 1050 269 1136 192 
Q 1222 115 1466 96 
L 1466 0 
L 115 0 
L 115 96 
Q 358 115 435 214 
Q 512 314 512 602 
L 512 2157 
Q 512 2394 467 2483 
Q 422 2573 288 2573 
Q 160 2573 102 2547 
L 102 2656 
Q 550 2784 979 2944 
L 1030 2925 
L 1030 2426 
L 1037 2426 
Q 1491 2944 1958 2944 
Q 2323 2944 2518 2688 
Q 2714 2432 2714 1958 
L 2714 544 
Q 2714 288 2790 205 
Q 2867 122 3104 96 
L 3104 0 
z
" transform="scale(0.015625)"/>
       <path id="STIXGeneral-Regular-73" d="M 998 1926 
L 1664 1523 
Q 1984 1331 2105 1164 
Q 2227 998 2227 736 
Q 2227 416 1961 176 
Q 1696 -64 1331 -64 
Q 1030 -64 864 -6 
Q 691 51 570 51 
Q 461 51 416 -26 
L 333 -26 
L 333 979 
L 435 979 
Q 538 512 730 294 
Q 922 77 1248 77 
Q 1485 77 1632 211 
Q 1779 346 1779 550 
Q 1779 845 1440 1030 
L 1094 1222 
Q 326 1651 326 2150 
Q 326 2522 566 2730 
Q 806 2938 1210 2938 
Q 1491 2938 1638 2867 
Q 1754 2816 1818 2816 
Q 1862 2816 1920 2880 
L 1990 2880 
L 2022 2010 
L 1926 2010 
Q 1818 2445 1654 2621 
Q 1491 2797 1203 2797 
Q 986 2797 854 2688 
Q 723 2579 723 2362 
Q 723 2253 796 2128 
Q 870 2003 998 1926 
z
" transform="scale(0.015625)"/>
       <path id="STIXGeneral-Regular-69" d="M 1152 4045 
Q 1152 3904 1056 3811 
Q 960 3718 819 3718 
Q 685 3718 592 3811 
Q 499 3904 499 4045 
Q 499 4179 595 4275 
Q 691 4371 826 4371 
Q 966 4371 1059 4275 
Q 1152 4179 1152 4045 
z
M 1619 0 
L 102 0 
L 102 96 
Q 435 115 521 211 
Q 608 307 608 666 
L 608 2118 
Q 608 2342 563 2432 
Q 518 2522 397 2522 
Q 243 2522 128 2490 
L 128 2592 
L 1120 2944 
L 1146 2918 
L 1146 672 
Q 1146 314 1226 218 
Q 1306 122 1619 96 
L 1619 0 
z
" transform="scale(0.015625)"/>
       <path id="STIXGeneral-Regular-79" d="M 3040 2880 
L 3040 2784 
Q 2925 2771 2854 2700 
Q 2784 2630 2720 2458 
L 1760 -160 
Q 1510 -838 1257 -1116 
Q 1005 -1395 640 -1395 
Q 435 -1395 313 -1289 
Q 192 -1184 192 -1024 
Q 192 -902 272 -816 
Q 352 -730 467 -730 
Q 653 -730 800 -813 
Q 883 -858 966 -858 
Q 1101 -858 1286 -576 
Q 1376 -448 1459 -211 
Q 1542 26 1542 115 
Q 1542 198 1274 762 
L 429 2566 
Q 346 2752 90 2790 
L 90 2880 
L 1402 2880 
L 1402 2784 
Q 1197 2778 1117 2739 
Q 1037 2701 1037 2611 
Q 1037 2541 1120 2349 
L 1837 749 
L 2458 2515 
Q 2483 2573 2483 2630 
Q 2483 2784 2189 2784 
L 2189 2880 
L 3040 2880 
z
" transform="scale(0.015625)"/>
      </defs>
      <use xlink:href="#STIXGeneral-Regular-44"/>
      <use xlink:href="#STIXGeneral-Regular-65" transform="translate(72.199982 0)"/>
      <use xlink:href="#STIXGeneral-Regular-6e" transform="translate(116.599976 0)"/>
      <use xlink:href="#STIXGeneral-Regular-73" transform="translate(166.59996 0)"/>
      <use xlink:href="#STIXGeneral-Regular-69" transform="translate(205.499954 0)"/>
      <use xlink:href="#STIXGeneral-Regular-74" transform="translate(233.299942 0)"/>
      <use xlink:href="#STIXGeneral-Regular-79" transform="translate(261.09993 0)"/>
     </g>
    </g>
   </g>
   <g id="patch_3">
    <path d="M 51.615 303.155 
L 51.615 12.66375 
" style="fill: none; stroke: #000000; stroke-width: 0.6; stroke-linejoin: miter; stroke-linecap: square"/>
   </g>
   <g id="patch_4">
    <path d="M 51.615 303.155 
L 332.211515 303.155 
" style="fill: none; stroke: #000000; stroke-width: 0.6; stroke-linejoin: miter; stroke-linecap: square"/>
   </g>
  </g>
  <g id="legend_1">
   <g id="text_16">
    <!-- cut -->
    <g style="fill: #323034" transform="translate(385.449702 138.788437) scale(0.16 -0.16)">
     <defs>
      <path id="STIXGeneral-Regular-75" d="M 3072 320 
L 3072 230 
Q 2573 96 2195 -58 
L 2163 -38 
L 2163 486 
L 2150 486 
Q 1747 -64 1235 -64 
Q 870 -64 662 160 
Q 454 384 454 755 
L 454 2362 
Q 454 2598 371 2688 
Q 288 2778 58 2790 
L 58 2880 
L 992 2880 
L 992 813 
Q 992 595 1123 451 
Q 1254 307 1446 307 
Q 1760 307 1984 506 
Q 2067 582 2099 649 
Q 2131 717 2131 877 
L 2131 2355 
Q 2131 2605 2041 2678 
Q 1952 2752 1658 2771 
L 1658 2880 
L 2669 2880 
L 2669 685 
Q 2669 461 2742 390 
Q 2816 320 3034 320 
L 3072 320 
z
" transform="scale(0.015625)"/>
     </defs>
     <use xlink:href="#STIXGeneral-Regular-63"/>
     <use xlink:href="#STIXGeneral-Regular-75" transform="translate(44.399994 0)"/>
     <use xlink:href="#STIXGeneral-Regular-74" transform="translate(94.399979 0)"/>
    </g>
   </g>
   <g id="patch_5">
    <path d="M 351.59939 155.460938 
L 375.59939 155.460938 
L 375.59939 147.060937 
L 351.59939 147.060937 
z
" style="fill: #bc80bd; fill-opacity: 0.25; stroke: #bc80bd; stroke-width: 0.8; stroke-linejoin: miter"/>
   </g>
   <g id="text_17">
    <!-- Ideal -->
    <g style="fill: #323034" transform="translate(385.19939 155.460938) scale(0.12 -0.12)">
     <defs>
      <path id="STIXGeneral-Regular-49" d="M 2016 0 
L 115 0 
L 115 122 
Q 518 134 627 240 
Q 736 346 736 717 
L 736 3526 
Q 736 3898 633 3994 
Q 531 4090 115 4115 
L 115 4237 
L 2016 4237 
L 2016 4115 
Q 1613 4096 1501 3993 
Q 1389 3891 1389 3526 
L 1389 717 
Q 1389 358 1504 246 
Q 1619 134 2016 122 
L 2016 0 
z
" transform="scale(0.015625)"/>
      <path id="STIXGeneral-Regular-64" d="M 3142 269 
L 2202 -64 
L 2176 -45 
L 2176 365 
Q 1869 -64 1357 -64 
Q 826 -64 499 317 
Q 173 698 173 1312 
Q 173 1990 563 2467 
Q 954 2944 1504 2944 
Q 1850 2944 2176 2669 
L 2176 3667 
Q 2176 3866 2118 3930 
Q 2061 3994 1882 3994 
Q 1792 3994 1741 3987 
L 1741 4090 
Q 2323 4243 2682 4371 
L 2714 4358 
L 2714 730 
Q 2714 506 2768 435 
Q 2822 365 2995 365 
Q 3034 365 3142 371 
L 3142 269 
z
M 2176 653 
L 2176 2125 
Q 2176 2381 1981 2573 
Q 1786 2765 1523 2765 
Q 1158 2765 940 2438 
Q 723 2112 723 1568 
Q 723 979 963 624 
Q 1203 269 1606 269 
Q 1907 269 2080 474 
Q 2176 582 2176 653 
z
" transform="scale(0.015625)"/>
      <path id="STIXGeneral-Regular-6c" d="M 1645 0 
L 134 0 
L 134 96 
Q 435 122 531 221 
Q 627 320 627 589 
L 627 3590 
Q 627 3821 569 3910 
Q 512 4000 358 4000 
Q 224 4000 122 3987 
L 122 4090 
Q 730 4237 1133 4371 
L 1165 4346 
L 1165 557 
Q 1165 288 1254 201 
Q 1344 115 1645 96 
L 1645 0 
z
" transform="scale(0.015625)"/>
     </defs>
     <use xlink:href="#STIXGeneral-Regular-49"/>
     <use xlink:href="#STIXGeneral-Regular-64" transform="translate(33.299988 0)"/>
     <use xlink:href="#STIXGeneral-Regular-65" transform="translate(83.299973 0)"/>
     <use xlink:href="#STIXGeneral-Regular-61" transform="translate(127.699966 0)"/>
     <use xlink:href="#STIXGeneral-Regular-6c" transform="translate(172.09996 0)"/>
    </g>
   </g>
   <g id="patch_6">
    <path d="M 351.59939 171.265312 
L 375.59939 171.265312 
L 375.59939 162.865312 
L 351.59939 162.865312 
z
" style="fill: #fb8072; fill-opacity: 0.25; stroke: #fb8072; stroke-width: 0.8; stroke-linejoin: miter"/>
   </g>
   <g id="text_18">
    <!-- Premium -->
    <g style="fill: #323034" transform="translate(385.19939 171.265312) scale(0.12 -0.12)">
     <defs>
      <path id="STIXGeneral-Regular-50" d="M 102 4237 
L 1760 4237 
Q 2669 4237 3149 3834 
Q 3469 3565 3469 3072 
Q 3469 2560 3104 2234 
Q 2835 1990 2553 1916 
Q 2272 1843 1734 1843 
Q 1549 1843 1293 1862 
L 1293 717 
Q 1293 352 1398 246 
Q 1504 141 1894 122 
L 1894 0 
L 102 0 
L 102 122 
Q 474 147 557 256 
Q 640 365 640 781 
L 640 3526 
Q 640 3885 547 3987 
Q 454 4090 102 4115 
L 102 4237 
z
M 1293 3770 
L 1293 2118 
Q 1510 2099 1683 2099 
Q 2202 2099 2486 2352 
Q 2771 2605 2771 3040 
Q 2771 3558 2476 3779 
Q 2182 4000 1517 4000 
Q 1382 4000 1337 3952 
Q 1293 3904 1293 3770 
z
" transform="scale(0.015625)"/>
      <path id="STIXGeneral-Regular-6d" d="M 4960 0 
L 3565 0 
L 3565 96 
Q 3834 122 3907 208 
Q 3981 294 3981 576 
L 3981 1894 
Q 3981 2278 3869 2444 
Q 3757 2611 3488 2611 
Q 3264 2611 3107 2521 
Q 2950 2432 2803 2221 
L 2803 608 
Q 2803 301 2896 201 
Q 2989 102 3264 96 
L 3264 0 
L 1830 0 
L 1830 96 
Q 2112 115 2189 188 
Q 2266 262 2266 550 
L 2266 1901 
Q 2266 2611 1850 2611 
Q 1670 2611 1468 2531 
Q 1267 2451 1171 2336 
Q 1088 2240 1088 2227 
L 1088 448 
Q 1088 243 1177 176 
Q 1267 109 1523 96 
L 1523 0 
L 102 0 
L 102 96 
Q 371 102 460 195 
Q 550 288 550 563 
L 550 2150 
Q 550 2387 499 2480 
Q 448 2573 326 2573 
Q 230 2573 122 2547 
L 122 2656 
Q 557 2778 1011 2944 
L 1062 2925 
L 1062 2451 
L 1075 2451 
Q 1363 2752 1584 2848 
Q 1805 2944 2054 2944 
Q 2560 2944 2733 2406 
Q 3232 2944 3776 2944 
Q 4518 2944 4518 1792 
L 4518 493 
Q 4518 282 4582 202 
Q 4646 122 4794 109 
L 4960 96 
L 4960 0 
z
" transform="scale(0.015625)"/>
     </defs>
     <use xlink:href="#STIXGeneral-Regular-50"/>
     <use xlink:href="#STIXGeneral-Regular-72" transform="translate(55.699997 0)"/>
     <use xlink:href="#STIXGeneral-Regular-65" transform="translate(88.999985 0)"/>
     <use xlink:href="#STIXGeneral-Regular-6d" transform="translate(133.399979 0)"/>
     <use xlink:href="#STIXGeneral-Regular-69" transform="translate(211.199966 0)"/>
     <use xlink:href="#STIXGeneral-Regular-75" transform="translate(238.999954 0)"/>
     <use xlink:href="#STIXGeneral-Regular-6d" transform="translate(288.999939 0)"/>
    </g>
   </g>
   <g id="patch_7">
    <path d="M 351.59939 187.069687 
L 375.59939 187.069687 
L 375.59939 178.669687 
L 351.59939 178.669687 
z
" style="fill: #b3de69; fill-opacity: 0.25; stroke: #b3de69; stroke-width: 0.8; stroke-linejoin: miter"/>
   </g>
   <g id="text_19">
    <!-- Very Good -->
    <g style="fill: #323034" transform="translate(385.19939 187.069687) scale(0.12 -0.12)">
     <defs>
      <path id="STIXGeneral-Regular-56" d="M 4461 4237 
L 4461 4115 
Q 4262 4109 4134 3990 
Q 4006 3872 3872 3533 
L 2451 -70 
L 2355 -70 
L 794 3411 
Q 589 3866 467 3987 
Q 346 4109 102 4115 
L 102 4237 
L 1798 4237 
L 1798 4115 
L 1619 4102 
Q 1331 4083 1331 3904 
Q 1331 3776 1581 3219 
L 2554 1030 
L 3494 3392 
Q 3616 3699 3616 3853 
Q 3616 3898 3606 3933 
Q 3597 3968 3584 3993 
Q 3571 4019 3536 4038 
Q 3501 4058 3481 4067 
Q 3462 4077 3411 4086 
Q 3360 4096 3337 4099 
Q 3315 4102 3248 4108 
Q 3181 4115 3155 4115 
L 3155 4237 
L 4461 4237 
z
" transform="scale(0.015625)"/>
      <path id="STIXGeneral-Regular-20" transform="scale(0.015625)"/>
      <path id="STIXGeneral-Regular-47" d="M 4538 2266 
L 4538 2150 
Q 4256 2125 4173 2035 
Q 4090 1946 4090 1638 
L 4090 358 
Q 3539 -90 2464 -90 
Q 1965 -90 1507 89 
Q 1050 269 736 595 
Q 205 1152 205 2093 
Q 205 3155 890 3776 
Q 1491 4326 2419 4326 
Q 2829 4326 3270 4179 
Q 3443 4115 3552 4115 
Q 3654 4115 3731 4176 
Q 3808 4237 3840 4326 
L 3981 4326 
L 4032 2976 
L 3885 2976 
Q 3680 3475 3430 3718 
Q 3059 4070 2496 4070 
Q 1856 4070 1427 3629 
Q 934 3136 934 2074 
Q 934 1190 1395 678 
Q 1856 166 2618 166 
Q 2982 166 3225 281 
Q 3469 397 3469 557 
L 3469 1562 
Q 3469 1933 3376 2025 
Q 3283 2118 2899 2150 
L 2899 2266 
L 4538 2266 
z
" transform="scale(0.015625)"/>
      <path id="STIXGeneral-Regular-6f" d="M 3008 1478 
Q 3008 806 2608 371 
Q 2208 -64 1568 -64 
Q 979 -64 582 368 
Q 186 800 186 1459 
Q 186 2125 582 2534 
Q 979 2944 1626 2944 
Q 2221 2944 2614 2537 
Q 3008 2131 3008 1478 
z
M 2432 1306 
Q 2432 2035 2112 2445 
Q 1856 2765 1504 2765 
Q 1171 2765 966 2493 
Q 762 2221 762 1747 
Q 762 928 1101 435 
Q 1318 115 1677 115 
Q 2029 115 2230 432 
Q 2432 749 2432 1306 
z
" transform="scale(0.015625)"/>
     </defs>
     <use xlink:href="#STIXGeneral-Regular-56"/>
     <use xlink:href="#STIXGeneral-Regular-65" transform="translate(72.199982 0)"/>
     <use xlink:href="#STIXGeneral-Regular-72" transform="translate(116.599976 0)"/>
     <use xlink:href="#STIXGeneral-Regular-79" transform="translate(149.899963 0)"/>
     <use xlink:href="#STIXGeneral-Regular-20" transform="translate(199.899948 0)"/>
     <use xlink:href="#STIXGeneral-Regular-47" transform="translate(224.899933 0)"/>
     <use xlink:href="#STIXGeneral-Regular-6f" transform="translate(297.099915 0)"/>
     <use xlink:href="#STIXGeneral-Regular-6f" transform="translate(347.099899 0)"/>
     <use xlink:href="#STIXGeneral-Regular-64" transform="translate(397.099884 0)"/>
    </g>
   </g>
   <g id="patch_8">
    <path d="M 351.59939 202.885312 
L 375.59939 202.885312 
L 375.59939 194.485312 
L 351.59939 194.485312 
z
" style="fill: #fdb462; fill-opacity: 0.25; stroke: #fdb462; stroke-width: 0.8; stroke-linejoin: miter"/>
   </g>
   <g id="text_20">
    <!-- Good -->
    <g style="fill: #323034" transform="translate(385.19939 202.885312) scale(0.12 -0.12)">
     <use xlink:href="#STIXGeneral-Regular-47"/>
     <use xlink:href="#STIXGeneral-Regular-6f" transform="translate(72.199982 0)"/>
     <use xlink:href="#STIXGeneral-Regular-6f" transform="translate(122.199966 0)"/>
     <use xlink:href="#STIXGeneral-Regular-64" transform="translate(172.199951 0)"/>
    </g>
   </g>
   <g id="patch_9">
    <path d="M 351.59939 218.689687 
L 375.59939 218.689687 
L 375.59939 210.289687 
L 351.59939 210.289687 
z
" style="fill: #fccde5; fill-opacity: 0.25; stroke: #fccde5; stroke-width: 0.8; stroke-linejoin: miter"/>
   </g>
   <g id="text_21">
    <!-- Fair -->
    <g style="fill: #323034" transform="translate(385.19939 218.689687) scale(0.12 -0.12)">
     <defs>
      <path id="STIXGeneral-Regular-46" d="M 3494 3322 
L 3334 3322 
Q 3264 3757 3094 3875 
Q 2925 3994 2349 3994 
L 1504 3994 
Q 1370 3994 1328 3946 
Q 1286 3898 1286 3744 
L 1286 2355 
L 2195 2355 
Q 2598 2355 2736 2470 
Q 2874 2586 2918 2963 
L 3066 2963 
L 3066 1472 
L 2918 1472 
Q 2880 1862 2745 1977 
Q 2611 2093 2195 2093 
L 1286 2093 
L 1286 717 
Q 1286 352 1392 246 
Q 1498 141 1869 122 
L 1869 0 
L 70 0 
L 70 122 
Q 435 147 534 259 
Q 634 371 634 787 
L 634 3526 
Q 634 3878 538 3984 
Q 442 4090 77 4115 
L 77 4237 
L 3462 4237 
L 3494 3322 
z
" transform="scale(0.015625)"/>
     </defs>
     <use xlink:href="#STIXGeneral-Regular-46"/>
     <use xlink:href="#STIXGeneral-Regular-61" transform="translate(55.599991 0)"/>
     <use xlink:href="#STIXGeneral-Regular-69" transform="translate(99.999985 0)"/>
     <use xlink:href="#STIXGeneral-Regular-72" transform="translate(127.799973 0)"/>
    </g>
   </g>
  </g>
 </g>
 <defs>
  <clipPath id="p41fecb5bb6">
   <rect x="51.615" y="12.66375" width="280.596515" height="290.49125"/>
  </clipPath>
 </defs>
</svg>