<?xml version="1.0" encoding="UTF-8" standalone="no"?>
<!DOCTYPE svg PUBLIC "-//W3C//DTD SVG 1.1//EN"
 "http://www.w3.org/Graphics/SVG/1.1/DTD/svg11.dtd">
<!-- Generated by graphviz version 8.1.0 (0)
 -->
<!-- Pages: 1 -->
<svg width="324pt" height="247pt"
 viewBox="0.00 0.00 323.99 247.13" xmlns="http://www.w3.org/2000/svg" xmlns:xlink="http://www.w3.org/1999/xlink">
<g id="graph0" class="graph" transform="scale(1 1) rotate(0) translate(4 243.13)">
<polygon fill="white" stroke="none" points="-4,4 -4,-243.13 319.99,-243.13 319.99,4 -4,4"/>
<g id="clust1" class="cluster">
<title>cluster100</title>
<path fill="none" stroke="black" d="M104.01,-8C104.01,-8 178.01,-8 178.01,-8 184.01,-8 190.01,-14 190.01,-20 190.01,-20 190.01,-117.82 190.01,-117.82 190.01,-123.82 184.01,-129.82 178.01,-129.82 178.01,-129.82 104.01,-129.82 104.01,-129.82 98.01,-129.82 92.01,-123.82 92.01,-117.82 92.01,-117.82 92.01,-20 92.01,-20 92.01,-14 98.01,-8 104.01,-8"/>
<text text-anchor="middle" x="171.89" y="-15.2" font-family="Times,serif" font-size="14.00">100</text>
</g>
<!-- alpha -->
<g id="node1" class="node">
<title>alpha</title>
<ellipse fill="none" stroke="black" cx="41.01" cy="-198.48" rx="41.01" ry="40.66"/>
<text text-anchor="middle" x="41.01" y="-209.93" font-family="Times,serif" font-size="14.00">alpha</text>
<text text-anchor="middle" x="41.01" y="-193.43" font-family="Times,serif" font-size="14.00">~</text>
<text text-anchor="middle" x="41.01" y="-176.93" font-family="Times,serif" font-size="14.00">Normal</text>
</g>
<!-- Y_obs -->
<g id="node4" class="node">
<title>Y_obs</title>
<ellipse fill="lightgrey" stroke="black" cx="141.01" cy="-81.16" rx="41.01" ry="40.66"/>
<text text-anchor="middle" x="141.01" y="-92.61" font-family="Times,serif" font-size="14.00">Y_obs</text>
<text text-anchor="middle" x="141.01" y="-76.11" font-family="Times,serif" font-size="14.00">~</text>
<text text-anchor="middle" x="141.01" y="-59.61" font-family="Times,serif" font-size="14.00">Normal</text>
</g>
<!-- alpha&#45;&gt;Y_obs -->
<g id="edge1" class="edge">
<title>alpha&#45;&gt;Y_obs</title>
<path fill="none" stroke="black" d="M67.55,-166.88C79.85,-152.69 94.6,-135.67 107.65,-120.63"/>
<polygon fill="black" stroke="black" points="110.79,-123.35 114.7,-113.5 105.5,-118.76 110.79,-123.35"/>
</g>
<!-- beta -->
<g id="node2" class="node">
<title>beta</title>
<ellipse fill="none" stroke="black" cx="141.01" cy="-198.48" rx="41.01" ry="40.66"/>
<text text-anchor="middle" x="141.01" y="-209.93" font-family="Times,serif" font-size="14.00">beta</text>
<text text-anchor="middle" x="141.01" y="-193.43" font-family="Times,serif" font-size="14.00">~</text>
<text text-anchor="middle" x="141.01" y="-176.93" font-family="Times,serif" font-size="14.00">Normal</text>
</g>
<!-- beta&#45;&gt;Y_obs -->
<g id="edge2" class="edge">
<title>beta&#45;&gt;Y_obs</title>
<path fill="none" stroke="black" d="M141.01,-157.47C141.01,-149.6 141.01,-141.24 141.01,-133.07"/>
<polygon fill="black" stroke="black" points="144.51,-133.1 141.01,-123.1 137.51,-133.1 144.51,-133.1"/>
</g>
<!-- sigma -->
<g id="node3" class="node">
<title>sigma</title>
<ellipse fill="none" stroke="black" cx="258.01" cy="-198.48" rx="57.98" ry="40.66"/>
<text text-anchor="middle" x="258.01" y="-209.93" font-family="Times,serif" font-size="14.00">sigma</text>
<text text-anchor="middle" x="258.01" y="-193.43" font-family="Times,serif" font-size="14.00">~</text>
<text text-anchor="middle" x="258.01" y="-176.93" font-family="Times,serif" font-size="14.00">HalfNormal</text>
</g>
<!-- sigma&#45;&gt;Y_obs -->
<g id="edge3" class="edge">
<title>sigma&#45;&gt;Y_obs</title>
<path fill="none" stroke="black" d="M224.8,-164.74C210.07,-150.22 192.69,-133.1 177.6,-118.22"/>
<polygon fill="black" stroke="black" points="180.51,-116.19 170.93,-111.66 175.6,-121.18 180.51,-116.19"/>
</g>
</g>
</svg>