<?xml version="1.0" encoding="utf-8" standalone="no"?>
<!DOCTYPE svg PUBLIC "-//W3C//DTD SVG 1.1//EN"
  "http://www.w3.org/Graphics/SVG/1.1/DTD/svg11.dtd">
<svg xmlns:xlink="http://www.w3.org/1999/xlink" width="684pt" height="385.84pt" viewBox="0 0 684 385.84" xmlns="http://www.w3.org/2000/svg" version="1.1">
 <metadata>
  <rdf:RDF xmlns:dc="http://purl.org/dc/elements/1.1/" xmlns:cc="http://creativecommons.org/ns#" xmlns:rdf="http://www.w3.org/1999/02/22-rdf-syntax-ns#">
   <cc:Work>
    <dc:type rdf:resource="http://purl.org/dc/dcmitype/StillImage"/>
    <dc:date>2025-03-26T16:06:57.015073</dc:date>
    <dc:format>image/svg+xml</dc:format>
    <dc:creator>
     <cc:Agent>
      <dc:title>Matplotlib v3.10.0, https://matplotlib.org/</dc:title>
     </cc:Agent>
    </dc:creator>
   </cc:Work>
  </rdf:RDF>
 </metadata>
 <defs>
  <style type="text/css">*{stroke-linejoin: round; stroke-linecap: butt}</style>
 </defs>
 <g id="figure_1">
  <g id="patch_1">
   <path d="M 0 385.84 
L 684 385.84 
L 684 0 
L 0 0 
z
" style="fill: #ffffff"/>
  </g>
  <g id="axes_1">
   <g id="patch_2">
    <path d="M 7.2 339.84 
L 676.8 339.84 
L 676.8 7.2 
L 7.2 7.2 
z
" style="fill: #ffffff"/>
   </g>
   <g id="patch_3">
    <path d="M 7.2 42.48 
L 250.932736 42.48 
L 250.932736 22.32 
L 7.2 22.32 
z
" clip-path="url(#pae2c56af42)" style="fill: #bc80bd; stroke: #000000; stroke-width: 0.8; stroke-linejoin: miter"/>
   </g>
   <g id="patch_4">
    <path d="M 82.454125 82.8 
L 195.707174 82.8 
L 195.707174 62.64 
L 82.454125 62.64 
z
" clip-path="url(#pae2c56af42)" style="fill: #fb8072; stroke: #000000; stroke-width: 0.8; stroke-linejoin: miter"/>
   </g>
   <g id="patch_5">
    <path d="M 129.481468 123.12 
L 307.213344 123.12 
L 307.213344 102.96 
L 129.481468 102.96 
z
" clip-path="url(#pae2c56af42)" style="fill: #b3de69; stroke: #000000; stroke-width: 0.8; stroke-linejoin: miter"/>
   </g>
   <g id="patch_6">
    <path d="M 211.999839 163.44 
L 312.436682 163.44 
L 312.436682 143.28 
L 211.999839 143.28 
z
" clip-path="url(#pae2c56af42)" style="fill: #fdb462; stroke: #000000; stroke-width: 0.8; stroke-linejoin: miter"/>
   </g>
   <g id="patch_7">
    <path d="M 233.654209 203.76 
L 439.725291 203.76 
L 439.725291 183.6 
L 233.654209 183.6 
z
" clip-path="url(#pae2c56af42)" style="fill: #fccde5; stroke: #000000; stroke-width: 0.8; stroke-linejoin: miter"/>
   </g>
   <g id="patch_8">
    <path d="M 254.158407 244.08 
L 399.901659 244.08 
L 399.901659 223.92 
L 254.158407 223.92 
z
" clip-path="url(#pae2c56af42)" style="fill: #8dd3c7; stroke: #000000; stroke-width: 0.8; stroke-linejoin: miter"/>
   </g>
   <g id="patch_9">
    <path d="M 326.532778 284.4 
L 528.392327 284.4 
L 528.392327 264.24 
L 326.532778 264.24 
z
" clip-path="url(#pae2c56af42)" style="fill: #ffed6f; stroke: #000000; stroke-width: 0.8; stroke-linejoin: miter"/>
   </g>
   <g id="patch_10">
    <path d="M 402.565215 324.72 
L 644.914286 324.72 
L 644.914286 304.56 
L 402.565215 304.56 
z
" clip-path="url(#pae2c56af42)" style="fill: #bebada; stroke: #000000; stroke-width: 0.8; stroke-linejoin: miter"/>
   </g>
   <g id="matplotlib.axis_1">
    <g id="xtick_1">
     <g id="line2d_1">
      <defs>
       <path id="mfb7ffc94b2" d="M 0 0 
L 0 3.5 
" style="stroke: #323034; stroke-width: 0.8"/>
      </defs>
      <g>
       <use xlink:href="#mfb7ffc94b2" x="94.863878" y="339.84" style="fill: #323034; stroke: #323034; stroke-width: 0.8"/>
      </g>
     </g>
     <g id="text_1">
      <!-- 1760 -->
      <g style="fill: #323034" transform="translate(78.863878 357.7675) scale(0.16 -0.16)">
       <defs>
        <path id="STIXGeneral-Regular-31" d="M 2522 0 
L 755 0 
L 755 96 
Q 1107 115 1235 227 
Q 1363 339 1363 608 
L 1363 3482 
Q 1363 3795 1171 3795 
Q 1082 3795 883 3718 
L 710 3654 
L 710 3744 
L 1856 4326 
L 1914 4307 
L 1914 486 
Q 1914 275 2042 185 
Q 2170 96 2522 96 
L 2522 0 
z
" transform="scale(0.015625)"/>
        <path id="STIXGeneral-Regular-37" d="M 2874 4134 
L 1517 -51 
L 1101 -51 
L 2368 3763 
L 992 3763 
Q 717 3763 582 3667 
Q 448 3571 243 3238 
L 128 3296 
L 512 4237 
L 2874 4237 
L 2874 4134 
z
" transform="scale(0.015625)"/>
        <path id="STIXGeneral-Regular-36" d="M 2854 4378 
L 2867 4275 
Q 2112 4154 1606 3664 
Q 1101 3174 973 2451 
Q 1344 2739 1786 2739 
Q 2349 2739 2672 2380 
Q 2995 2022 2995 1402 
Q 2995 774 2669 378 
Q 2291 -90 1651 -90 
Q 870 -90 518 557 
Q 218 1107 218 1786 
Q 218 2835 915 3552 
Q 1312 3962 1731 4131 
Q 2150 4301 2854 4378 
z
M 2419 1203 
Q 2419 2445 1555 2445 
Q 1235 2445 1024 2275 
Q 813 2106 813 1702 
Q 813 954 1046 522 
Q 1280 90 1722 90 
Q 2061 90 2240 394 
Q 2419 698 2419 1203 
z
" transform="scale(0.015625)"/>
        <path id="STIXGeneral-Regular-30" d="M 3046 2112 
Q 3046 1683 2963 1302 
Q 2880 922 2717 602 
Q 2554 282 2266 96 
Q 1978 -90 1600 -90 
Q 1210 -90 915 108 
Q 621 307 461 640 
Q 301 973 227 1350 
Q 154 1728 154 2150 
Q 154 2746 301 3222 
Q 448 3699 790 4012 
Q 1133 4326 1626 4326 
Q 2253 4326 2649 3712 
Q 3046 3098 3046 2112 
z
M 2432 2080 
Q 2432 3091 2217 3625 
Q 2003 4160 1587 4160 
Q 1190 4160 979 3622 
Q 768 3085 768 2106 
Q 768 1120 979 598 
Q 1190 77 1600 77 
Q 2003 77 2217 598 
Q 2432 1120 2432 2080 
z
" transform="scale(0.015625)"/>
       </defs>
       <use xlink:href="#STIXGeneral-Regular-31"/>
       <use xlink:href="#STIXGeneral-Regular-37" transform="translate(49.999985 0)"/>
       <use xlink:href="#STIXGeneral-Regular-36" transform="translate(99.999969 0)"/>
       <use xlink:href="#STIXGeneral-Regular-30" transform="translate(149.999954 0)"/>
      </g>
     </g>
    </g>
    <g id="xtick_2">
     <g id="line2d_2">
      <g>
       <use xlink:href="#mfb7ffc94b2" x="221.209865" y="339.84" style="fill: #323034; stroke: #323034; stroke-width: 0.8"/>
      </g>
     </g>
     <g id="text_2">
      <!-- 1800 -->
      <g style="fill: #323034" transform="translate(205.209865 357.7675) scale(0.16 -0.16)">
       <defs>
        <path id="STIXGeneral-Regular-38" d="M 2848 992 
Q 2848 499 2505 204 
Q 2163 -90 1587 -90 
Q 1050 -90 704 204 
Q 358 499 358 954 
Q 358 1293 524 1533 
Q 691 1773 1190 2125 
Q 710 2522 553 2765 
Q 397 3008 397 3328 
Q 397 3782 745 4054 
Q 1094 4326 1638 4326 
Q 2106 4326 2410 4060 
Q 2714 3795 2714 3411 
Q 2714 3059 2531 2848 
Q 2349 2637 1856 2374 
Q 2432 1990 2640 1689 
Q 2848 1389 2848 992 
z
M 2272 3411 
Q 2272 3744 2086 3945 
Q 1901 4147 1574 4147 
Q 1248 4147 1059 3977 
Q 870 3808 870 3513 
Q 870 3219 1059 2979 
Q 1248 2739 1670 2490 
Q 1997 2682 2134 2896 
Q 2272 3110 2272 3411 
z
M 1734 1741 
L 1357 1997 
Q 1075 1766 960 1545 
Q 845 1325 845 1011 
Q 845 576 1065 333 
Q 1286 90 1658 90 
Q 1971 90 2166 285 
Q 2362 480 2362 794 
Q 2362 1082 2214 1299 
Q 2067 1517 1734 1741 
z
" transform="scale(0.015625)"/>
       </defs>
       <use xlink:href="#STIXGeneral-Regular-31"/>
       <use xlink:href="#STIXGeneral-Regular-38" transform="translate(49.999985 0)"/>
       <use xlink:href="#STIXGeneral-Regular-30" transform="translate(99.999969 0)"/>
       <use xlink:href="#STIXGeneral-Regular-30" transform="translate(149.999954 0)"/>
      </g>
     </g>
    </g>
    <g id="xtick_3">
     <g id="line2d_3">
      <g>
       <use xlink:href="#mfb7ffc94b2" x="347.547203" y="339.84" style="fill: #323034; stroke: #323034; stroke-width: 0.8"/>
      </g>
     </g>
     <g id="text_3">
      <!-- 1840 -->
      <g style="fill: #323034" transform="translate(331.547203 357.7675) scale(0.16 -0.16)">
       <defs>
        <path id="STIXGeneral-Regular-34" d="M 3027 1069 
L 2368 1069 
L 2368 0 
L 1869 0 
L 1869 1069 
L 77 1069 
L 77 1478 
L 2086 4326 
L 2368 4326 
L 2368 1478 
L 3027 1478 
L 3027 1069 
z
M 1869 1478 
L 1869 3674 
L 333 1478 
L 1869 1478 
z
" transform="scale(0.015625)"/>
       </defs>
       <use xlink:href="#STIXGeneral-Regular-31"/>
       <use xlink:href="#STIXGeneral-Regular-38" transform="translate(49.999985 0)"/>
       <use xlink:href="#STIXGeneral-Regular-34" transform="translate(99.999969 0)"/>
       <use xlink:href="#STIXGeneral-Regular-30" transform="translate(149.999954 0)"/>
      </g>
     </g>
    </g>
    <g id="xtick_4">
     <g id="line2d_4">
      <g>
       <use xlink:href="#mfb7ffc94b2" x="473.893189" y="339.84" style="fill: #323034; stroke: #323034; stroke-width: 0.8"/>
      </g>
     </g>
     <g id="text_4">
      <!-- 1880 -->
      <g style="fill: #323034" transform="translate(457.893189 357.7675) scale(0.16 -0.16)">
       <use xlink:href="#STIXGeneral-Regular-31"/>
       <use xlink:href="#STIXGeneral-Regular-38" transform="translate(49.999985 0)"/>
       <use xlink:href="#STIXGeneral-Regular-38" transform="translate(99.999969 0)"/>
       <use xlink:href="#STIXGeneral-Regular-30" transform="translate(149.999954 0)"/>
      </g>
     </g>
    </g>
    <g id="xtick_5">
     <g id="line2d_5">
      <g>
       <use xlink:href="#mfb7ffc94b2" x="600.230527" y="339.84" style="fill: #323034; stroke: #323034; stroke-width: 0.8"/>
      </g>
     </g>
     <g id="text_5">
      <!-- 1920 -->
      <g style="fill: #323034" transform="translate(584.230527 357.7675) scale(0.16 -0.16)">
       <defs>
        <path id="STIXGeneral-Regular-39" d="M 378 -141 
L 358 -13 
Q 1094 115 1603 608 
Q 2112 1101 2304 1882 
Q 1933 1517 1344 1517 
Q 826 1517 509 1875 
Q 192 2234 192 2816 
Q 192 3462 573 3894 
Q 954 4326 1523 4326 
Q 2131 4326 2528 3840 
Q 2938 3328 2938 2522 
Q 2938 1958 2742 1462 
Q 2547 966 2170 621 
Q 1773 262 1395 105 
Q 1018 -51 378 -141 
z
M 2317 2272 
L 2317 2522 
Q 2317 4147 1472 4147 
Q 1171 4147 1005 3930 
Q 909 3802 845 3546 
Q 781 3290 781 3034 
Q 781 2464 995 2128 
Q 1210 1792 1568 1792 
Q 1824 1792 2070 1917 
Q 2317 2042 2317 2272 
z
" transform="scale(0.015625)"/>
        <path id="STIXGeneral-Regular-32" d="M 3034 877 
L 2688 0 
L 186 0 
L 186 77 
L 1325 1286 
Q 1773 1754 1965 2144 
Q 2157 2534 2157 2950 
Q 2157 3379 1920 3616 
Q 1683 3853 1267 3853 
Q 922 3853 720 3673 
Q 518 3494 326 3021 
L 192 3053 
Q 301 3648 630 3987 
Q 960 4326 1523 4326 
Q 2054 4326 2380 4006 
Q 2707 3686 2707 3200 
Q 2707 2477 1888 1613 
L 832 486 
L 2330 486 
Q 2541 486 2665 569 
Q 2790 653 2944 915 
L 3034 877 
z
" transform="scale(0.015625)"/>
       </defs>
       <use xlink:href="#STIXGeneral-Regular-31"/>
       <use xlink:href="#STIXGeneral-Regular-39" transform="translate(49.999985 0)"/>
       <use xlink:href="#STIXGeneral-Regular-32" transform="translate(99.999969 0)"/>
       <use xlink:href="#STIXGeneral-Regular-30" transform="translate(149.999954 0)"/>
      </g>
     </g>
    </g>
    <g id="text_6">
     <!-- Year -->
     <g transform="translate(326.455 375.1675) scale(0.16 -0.16)">
      <defs>
       <path id="STIXGeneral-Regular-59" d="M 4499 4237 
L 4499 4115 
Q 4218 4090 4054 3955 
Q 3891 3821 3616 3398 
L 2669 1939 
L 2669 710 
Q 2669 346 2790 243 
Q 2912 141 3328 122 
L 3328 0 
L 1370 0 
L 1370 122 
Q 1805 154 1910 259 
Q 2016 365 2016 787 
L 2016 1882 
L 1178 3110 
Q 742 3750 556 3926 
Q 371 4102 141 4115 
L 141 4237 
L 1926 4237 
L 1926 4115 
L 1773 4109 
Q 1472 4102 1472 3942 
Q 1472 3808 1587 3642 
L 2522 2227 
L 3450 3648 
Q 3539 3782 3539 3917 
Q 3533 4026 3440 4067 
Q 3347 4109 3104 4115 
L 3104 4237 
L 4499 4237 
z
" transform="scale(0.015625)"/>
       <path id="STIXGeneral-Regular-65" d="M 2611 1050 
L 2714 1005 
Q 2330 -64 1376 -64 
Q 813 -64 486 329 
Q 160 723 160 1389 
Q 160 2074 525 2509 
Q 890 2944 1485 2944 
Q 2061 2944 2374 2502 
Q 2560 2246 2592 1773 
L 621 1773 
Q 646 1370 700 1158 
Q 755 947 915 730 
Q 1184 378 1626 378 
Q 1939 378 2153 531 
Q 2368 685 2611 1050 
z
M 634 1978 
L 1939 1978 
Q 1882 2381 1750 2547 
Q 1619 2714 1312 2714 
Q 1043 2714 864 2525 
Q 685 2336 634 1978 
z
" transform="scale(0.015625)"/>
       <path id="STIXGeneral-Regular-61" d="M 2829 422 
L 2829 243 
Q 2586 -64 2253 -64 
Q 1888 -64 1843 403 
L 1837 403 
Q 1427 -64 909 -64 
Q 608 -64 422 112 
Q 237 288 237 602 
Q 237 1050 685 1350 
Q 992 1555 1837 1869 
L 1837 2214 
Q 1837 2502 1699 2646 
Q 1562 2790 1338 2790 
Q 1146 2790 1018 2697 
Q 890 2605 890 2477 
Q 890 2419 909 2348 
Q 928 2278 928 2208 
Q 928 2112 841 2029 
Q 755 1946 634 1946 
Q 525 1946 441 2029 
Q 358 2112 358 2240 
Q 358 2547 685 2752 
Q 986 2944 1421 2944 
Q 1939 2944 2176 2656 
Q 2291 2522 2323 2384 
Q 2355 2246 2355 1946 
L 2355 723 
Q 2355 301 2554 301 
Q 2682 301 2829 422 
z
M 1837 813 
L 1837 1715 
Q 1248 1510 1018 1293 
Q 800 1094 800 800 
Q 800 557 921 432 
Q 1043 307 1242 307 
Q 1453 307 1613 410 
Q 1747 506 1792 589 
Q 1837 672 1837 813 
z
" transform="scale(0.015625)"/>
       <path id="STIXGeneral-Regular-72" d="M 1024 2931 
L 1024 2342 
Q 1267 2688 1430 2816 
Q 1594 2944 1792 2944 
Q 1958 2944 2051 2854 
Q 2144 2765 2144 2605 
Q 2144 2470 2077 2393 
Q 2010 2317 1894 2317 
Q 1773 2317 1638 2445 
Q 1536 2541 1472 2541 
Q 1338 2541 1181 2355 
Q 1024 2170 1024 2016 
L 1024 576 
Q 1024 301 1133 205 
Q 1242 109 1568 96 
L 1568 0 
L 32 0 
L 32 96 
Q 339 154 412 224 
Q 486 294 486 538 
L 486 2138 
Q 486 2349 438 2435 
Q 390 2522 269 2522 
Q 166 2522 45 2496 
L 45 2598 
Q 448 2726 992 2944 
L 1024 2931 
z
" transform="scale(0.015625)"/>
      </defs>
      <use xlink:href="#STIXGeneral-Regular-59"/>
      <use xlink:href="#STIXGeneral-Regular-65" transform="translate(72.199982 0)"/>
      <use xlink:href="#STIXGeneral-Regular-61" transform="translate(116.599976 0)"/>
      <use xlink:href="#STIXGeneral-Regular-72" transform="translate(160.999969 0)"/>
     </g>
    </g>
   </g>
   <g id="matplotlib.axis_2"/>
   <g id="patch_11">
    <path d="M 7.2 339.84 
L 7.2 7.2 
" style="fill: none; stroke: #000000; stroke-width: 0.6; stroke-linejoin: miter; stroke-linecap: square"/>
   </g>
   <g id="patch_12">
    <path d="M 7.2 339.84 
L 676.8 339.84 
" style="fill: none; stroke: #000000; stroke-width: 0.6; stroke-linejoin: miter; stroke-linecap: square"/>
   </g>
   <g id="text_7">
    <!-- Haydn -->
    <g transform="translate(117.506993 34.28375) scale(0.08 -0.08)">
     <defs>
      <path id="STIXGeneral-Bold-48" d="M 4858 0 
L 2688 0 
L 2688 160 
Q 3034 198 3146 291 
Q 3258 384 3258 627 
L 3258 2086 
L 1715 2086 
L 1715 627 
Q 1715 371 1824 284 
Q 1933 198 2285 160 
L 2285 0 
L 134 0 
L 134 160 
Q 474 205 576 291 
Q 678 378 678 627 
L 678 3693 
Q 678 3955 569 4044 
Q 461 4134 134 4166 
L 134 4326 
L 2285 4326 
L 2285 4166 
Q 1946 4141 1830 4048 
Q 1715 3955 1715 3693 
L 1715 2387 
L 3258 2387 
L 3258 3693 
Q 3258 3955 3142 4048 
Q 3027 4141 2688 4166 
L 2688 4326 
L 4858 4326 
L 4858 4166 
Q 4531 4141 4412 4045 
Q 4294 3949 4294 3693 
L 4294 627 
Q 4294 378 4400 291 
Q 4506 205 4858 160 
L 4858 0 
z
" transform="scale(0.015625)"/>
      <path id="STIXGeneral-Bold-61" d="M 3027 410 
L 3123 275 
Q 2784 -90 2406 -90 
Q 2170 -90 2051 9 
Q 1933 109 1882 352 
Q 1395 -90 864 -90 
Q 544 -90 352 80 
Q 160 250 160 589 
Q 160 1018 589 1306 
Q 909 1517 1875 1792 
L 1875 2227 
Q 1875 2541 1756 2681 
Q 1638 2822 1357 2822 
Q 1178 2822 1059 2758 
Q 941 2694 941 2586 
Q 941 2515 1011 2438 
Q 1133 2291 1133 2170 
Q 1133 2003 1011 1894 
Q 890 1786 698 1786 
Q 499 1786 390 1901 
Q 282 2016 282 2221 
Q 282 2598 618 2812 
Q 954 3027 1504 3027 
Q 2093 3027 2425 2803 
Q 2758 2579 2758 2170 
L 2758 499 
Q 2758 320 2893 320 
Q 2938 320 2963 346 
L 3027 410 
z
M 1875 621 
L 1875 1568 
Q 1094 1350 1094 794 
Q 1094 589 1187 477 
Q 1280 365 1427 365 
Q 1696 365 1875 621 
z
" transform="scale(0.015625)"/>
      <path id="STIXGeneral-Bold-79" d="M 3085 2950 
L 3085 2797 
Q 2931 2778 2854 2710 
Q 2778 2643 2701 2445 
L 1754 -102 
Q 1466 -877 1261 -1101 
Q 1062 -1312 723 -1312 
Q 448 -1312 275 -1171 
Q 102 -1030 102 -806 
Q 102 -621 211 -499 
Q 320 -378 499 -378 
Q 659 -378 771 -474 
Q 883 -570 883 -710 
Q 883 -736 870 -800 
L 864 -838 
Q 864 -883 896 -915 
Q 928 -947 973 -947 
Q 1216 -947 1395 -422 
L 1510 -83 
L 749 1773 
Q 435 2547 320 2707 
Q 269 2771 102 2797 
L 102 2950 
L 1696 2950 
L 1696 2797 
L 1594 2790 
Q 1363 2771 1363 2630 
Q 1363 2586 1491 2259 
L 1952 1069 
L 2387 2272 
Q 2458 2477 2458 2586 
Q 2458 2701 2387 2745 
Q 2317 2790 2112 2797 
L 2112 2950 
L 3085 2950 
z
" transform="scale(0.015625)"/>
      <path id="STIXGeneral-Bold-64" d="M 3418 128 
L 3021 77 
Q 2496 6 2170 -83 
L 2170 333 
Q 1946 96 1760 3 
Q 1574 -90 1318 -90 
Q 813 -90 486 332 
Q 160 755 160 1414 
Q 160 2112 509 2569 
Q 858 3027 1389 3027 
Q 1606 3027 1776 2940 
Q 1946 2854 2150 2630 
L 2150 3802 
Q 2150 4026 2067 4086 
Q 1984 4147 1664 4173 
L 1664 4326 
L 3040 4326 
L 3040 646 
Q 3040 442 3120 365 
Q 3200 288 3418 275 
L 3418 128 
z
M 2150 717 
L 2150 2272 
Q 2080 2458 1945 2563 
Q 1811 2669 1651 2669 
Q 1107 2669 1107 1466 
Q 1107 269 1606 269 
Q 1837 269 2029 506 
Q 2150 666 2150 717 
z
" transform="scale(0.015625)"/>
      <path id="STIXGeneral-Bold-6e" d="M 3450 0 
L 1952 0 
L 1952 154 
Q 2112 173 2179 259 
Q 2246 346 2246 538 
L 2246 2054 
Q 2246 2598 1920 2598 
Q 1690 2598 1472 2381 
Q 1363 2272 1363 2227 
L 1363 538 
Q 1363 352 1430 265 
Q 1498 179 1670 154 
L 1670 0 
L 134 0 
L 134 154 
Q 346 198 410 275 
Q 474 352 474 557 
L 474 2406 
Q 474 2611 410 2688 
Q 346 2765 134 2797 
L 134 2950 
L 1357 2950 
L 1357 2470 
L 1363 2470 
Q 1677 3027 2272 3027 
Q 2669 3027 2902 2780 
Q 3136 2534 3136 2118 
L 3136 538 
Q 3136 320 3200 243 
Q 3264 166 3450 154 
L 3450 0 
z
" transform="scale(0.015625)"/>
     </defs>
     <use xlink:href="#STIXGeneral-Bold-48"/>
     <use xlink:href="#STIXGeneral-Bold-61" transform="translate(77.799988 0)"/>
     <use xlink:href="#STIXGeneral-Bold-79" transform="translate(127.799973 0)"/>
     <use xlink:href="#STIXGeneral-Bold-64" transform="translate(177.799957 0)"/>
     <use xlink:href="#STIXGeneral-Bold-6e" transform="translate(233.399948 0)"/>
    </g>
   </g>
   <g id="text_8">
    <!-- Mozart -->
    <g transform="translate(126.420025 74.60375) scale(0.08 -0.08)">
     <defs>
      <path id="STIXGeneral-Bold-4d" d="M 5894 0 
L 3770 0 
L 3770 160 
Q 4122 192 4230 301 
Q 4339 410 4339 698 
L 4339 3872 
L 2726 0 
L 2554 0 
L 941 3802 
L 941 826 
Q 941 454 1069 320 
Q 1197 186 1587 160 
L 1587 0 
L 90 0 
L 90 160 
Q 467 198 569 291 
Q 672 384 672 691 
L 672 3693 
Q 672 3955 563 4048 
Q 454 4141 102 4166 
L 102 4326 
L 1722 4326 
L 2995 1306 
L 4282 4326 
L 5894 4326 
L 5894 4166 
Q 5542 4141 5436 4022 
Q 5331 3904 5331 3546 
L 5331 806 
Q 5331 442 5427 317 
Q 5523 192 5894 160 
L 5894 0 
z
" transform="scale(0.015625)"/>
      <path id="STIXGeneral-Bold-6f" d="M 3046 1466 
Q 3046 794 2633 352 
Q 2221 -90 1600 -90 
Q 992 -90 576 348 
Q 160 787 160 1459 
Q 160 2157 573 2592 
Q 986 3027 1626 3027 
Q 2234 3027 2640 2585 
Q 3046 2144 3046 1466 
z
M 2106 1395 
Q 2106 2214 1997 2521 
Q 1888 2829 1606 2829 
Q 1312 2829 1206 2525 
Q 1101 2221 1101 1395 
Q 1101 698 1216 403 
Q 1331 109 1606 109 
Q 1882 109 1994 393 
Q 2106 678 2106 1395 
z
" transform="scale(0.015625)"/>
      <path id="STIXGeneral-Bold-7a" d="M 2688 1024 
L 2586 0 
L 134 0 
L 134 160 
L 1632 2746 
Q 954 2746 742 2624 
Q 531 2502 410 2042 
L 243 2042 
L 288 2950 
L 2662 2950 
L 2662 2784 
L 1184 205 
L 1370 205 
Q 1760 205 1955 285 
Q 2150 365 2310 582 
Q 2438 774 2509 1024 
L 2688 1024 
z
" transform="scale(0.015625)"/>
      <path id="STIXGeneral-Bold-72" d="M 1395 2950 
L 1395 2426 
Q 1619 2752 1817 2889 
Q 2016 3027 2259 3027 
Q 2483 3027 2630 2883 
Q 2778 2739 2778 2522 
Q 2778 2330 2666 2208 
Q 2554 2086 2374 2086 
Q 2138 2086 1990 2330 
Q 1901 2477 1811 2477 
Q 1645 2477 1533 2285 
Q 1421 2093 1421 1811 
L 1421 678 
Q 1421 371 1507 272 
Q 1594 173 1882 154 
L 1882 0 
L 186 0 
L 186 154 
Q 397 192 464 265 
Q 531 339 531 538 
L 531 2387 
Q 531 2611 460 2688 
Q 390 2765 179 2797 
L 179 2950 
L 1395 2950 
z
" transform="scale(0.015625)"/>
      <path id="STIXGeneral-Bold-74" d="M 1965 717 
L 2125 646 
Q 1926 250 1712 86 
Q 1498 -77 1178 -77 
Q 845 -77 653 105 
Q 461 288 461 608 
L 461 2669 
L 122 2669 
L 122 2842 
Q 435 3053 646 3299 
Q 858 3546 1190 4032 
L 1350 4032 
L 1350 2950 
L 1958 2950 
L 1958 2669 
L 1350 2669 
L 1350 762 
Q 1350 378 1600 378 
Q 1786 378 1965 717 
z
" transform="scale(0.015625)"/>
     </defs>
     <use xlink:href="#STIXGeneral-Bold-4d"/>
     <use xlink:href="#STIXGeneral-Bold-6f" transform="translate(94.399994 0)"/>
     <use xlink:href="#STIXGeneral-Bold-7a" transform="translate(144.399979 0)"/>
     <use xlink:href="#STIXGeneral-Bold-61" transform="translate(188.799973 0)"/>
     <use xlink:href="#STIXGeneral-Bold-72" transform="translate(238.799957 0)"/>
     <use xlink:href="#STIXGeneral-Bold-74" transform="translate(283.199951 0)"/>
    </g>
   </g>
   <g id="text_9">
    <!-- Beethoven -->
    <g transform="translate(200.571156 114.92375) scale(0.08 -0.08)">
     <defs>
      <path id="STIXGeneral-Bold-42" d="M 2726 2336 
L 2726 2330 
Q 3270 2259 3616 1955 
Q 3962 1651 3962 1203 
Q 3962 672 3501 336 
Q 3040 0 2208 0 
L 102 0 
L 102 160 
Q 454 198 560 294 
Q 666 390 666 659 
L 666 3648 
Q 666 3930 547 4035 
Q 429 4141 102 4166 
L 102 4326 
L 2131 4326 
Q 2906 4326 3325 4060 
Q 3744 3795 3744 3302 
Q 3744 2925 3507 2685 
Q 3270 2445 2726 2336 
z
M 1690 3789 
L 1690 2387 
Q 2272 2387 2480 2579 
Q 2688 2771 2688 3258 
Q 2688 4134 2054 4134 
Q 1862 4134 1776 4054 
Q 1690 3974 1690 3789 
z
M 1690 2195 
L 1690 627 
Q 1690 397 1786 301 
Q 1882 205 2093 205 
Q 2464 205 2662 461 
Q 2861 717 2861 1203 
Q 2861 2195 1856 2195 
L 1690 2195 
z
" transform="scale(0.015625)"/>
      <path id="STIXGeneral-Bold-65" d="M 2579 806 
L 2733 717 
Q 2451 269 2166 89 
Q 1882 -90 1466 -90 
Q 890 -90 525 342 
Q 160 774 160 1434 
Q 160 2150 528 2588 
Q 896 3027 1498 3027 
Q 2029 3027 2317 2707 
Q 2656 2336 2694 1568 
L 1082 1568 
Q 1101 1299 1133 1116 
Q 1165 934 1241 748 
Q 1318 563 1468 467 
Q 1619 371 1843 371 
Q 2048 371 2214 470 
Q 2381 570 2579 806 
z
M 1907 1805 
L 1907 1939 
Q 1907 2406 1850 2528 
Q 1773 2688 1699 2758 
Q 1626 2829 1498 2829 
Q 1267 2829 1158 2595 
Q 1050 2362 1050 1805 
L 1907 1805 
z
" transform="scale(0.015625)"/>
      <path id="STIXGeneral-Bold-68" d="M 3418 0 
L 1920 0 
L 1920 154 
Q 2080 173 2147 259 
Q 2214 346 2214 544 
L 2214 1978 
Q 2214 2323 2144 2460 
Q 2074 2598 1888 2598 
Q 1658 2598 1440 2381 
Q 1331 2272 1331 2227 
L 1331 544 
Q 1331 346 1395 262 
Q 1459 179 1638 154 
L 1638 0 
L 102 0 
L 102 154 
Q 333 198 387 256 
Q 442 314 442 570 
L 442 3782 
Q 442 4006 384 4067 
Q 326 4128 96 4173 
L 96 4326 
L 1331 4326 
L 1331 2534 
Q 1747 3027 2272 3027 
Q 2656 3027 2880 2784 
Q 3104 2541 3104 2157 
L 3104 557 
Q 3104 339 3177 246 
Q 3251 154 3418 154 
L 3418 0 
z
" transform="scale(0.015625)"/>
      <path id="STIXGeneral-Bold-76" d="M 3104 2950 
L 3104 2797 
Q 2950 2784 2886 2723 
Q 2822 2662 2733 2445 
L 1709 -90 
L 1542 -90 
L 774 1805 
Q 474 2547 352 2707 
Q 301 2771 134 2797 
L 134 2950 
L 1734 2950 
L 1734 2797 
L 1619 2784 
Q 1395 2758 1395 2630 
Q 1395 2573 1453 2432 
L 1958 1133 
L 2419 2298 
Q 2490 2464 2490 2586 
Q 2490 2701 2416 2742 
Q 2342 2784 2138 2797 
L 2138 2950 
L 3104 2950 
z
" transform="scale(0.015625)"/>
     </defs>
     <use xlink:href="#STIXGeneral-Bold-42"/>
     <use xlink:href="#STIXGeneral-Bold-65" transform="translate(66.699997 0)"/>
     <use xlink:href="#STIXGeneral-Bold-65" transform="translate(111.099991 0)"/>
     <use xlink:href="#STIXGeneral-Bold-74" transform="translate(155.499985 0)"/>
     <use xlink:href="#STIXGeneral-Bold-68" transform="translate(188.799973 0)"/>
     <use xlink:href="#STIXGeneral-Bold-6f" transform="translate(244.399963 0)"/>
     <use xlink:href="#STIXGeneral-Bold-76" transform="translate(294.399948 0)"/>
     <use xlink:href="#STIXGeneral-Bold-65" transform="translate(344.399933 0)"/>
     <use xlink:href="#STIXGeneral-Bold-6e" transform="translate(388.799927 0)"/>
    </g>
   </g>
   <g id="text_10">
    <!-- Schubert -->
    <g transform="translate(246.662636 155.24375) scale(0.08 -0.08)">
     <defs>
      <path id="STIXGeneral-Bold-53" d="M 3098 3034 
L 2918 3034 
Q 2752 3578 2470 3866 
Q 2125 4224 1683 4224 
Q 1357 4224 1168 4048 
Q 979 3872 979 3590 
Q 979 3360 1113 3213 
Q 1248 3066 1638 2861 
Q 1754 2797 2077 2633 
Q 2400 2470 2586 2368 
Q 2899 2195 3091 1897 
Q 3283 1600 3283 1242 
Q 3283 634 2844 256 
Q 2406 -122 1696 -122 
Q 1306 -122 864 32 
Q 666 96 602 96 
Q 525 96 480 48 
Q 435 0 410 -122 
L 224 -122 
L 224 1466 
L 410 1466 
Q 557 851 794 550 
Q 1158 90 1715 90 
Q 2086 90 2304 285 
Q 2522 480 2522 813 
Q 2522 1120 2157 1376 
Q 1997 1491 1376 1792 
Q 806 2067 544 2368 
Q 282 2669 282 3136 
Q 282 3744 656 4083 
Q 1030 4422 1683 4422 
Q 2035 4422 2432 4275 
Q 2624 4211 2701 4211 
Q 2790 4211 2832 4256 
Q 2874 4301 2906 4429 
L 3098 4429 
L 3098 3034 
z
" transform="scale(0.015625)"/>
      <path id="STIXGeneral-Bold-63" d="M 2637 698 
L 2752 582 
Q 2490 224 2202 67 
Q 1914 -90 1530 -90 
Q 922 -90 541 326 
Q 160 742 160 1421 
Q 160 2125 595 2576 
Q 1030 3027 1677 3027 
Q 2099 3027 2380 2828 
Q 2662 2630 2662 2323 
Q 2662 2138 2544 2026 
Q 2426 1914 2227 1914 
Q 2061 1914 1965 2035 
Q 1869 2157 1869 2381 
Q 1869 2496 1865 2547 
Q 1862 2598 1849 2665 
Q 1837 2733 1811 2761 
Q 1786 2790 1731 2809 
Q 1677 2829 1600 2829 
Q 1357 2829 1209 2544 
Q 1062 2259 1062 1747 
Q 1062 1094 1299 716 
Q 1536 339 1952 339 
Q 2323 339 2637 698 
z
" transform="scale(0.015625)"/>
      <path id="STIXGeneral-Bold-75" d="M 3443 128 
L 3040 83 
Q 2509 26 2195 -83 
L 2195 333 
Q 1946 96 1738 3 
Q 1530 -90 1267 -90 
Q 864 -90 640 153 
Q 416 397 416 838 
L 416 2381 
Q 416 2605 358 2681 
Q 301 2758 102 2797 
L 102 2950 
L 1306 2950 
L 1306 813 
Q 1306 326 1664 326 
Q 1914 326 2189 627 
L 2189 2394 
Q 2189 2611 2112 2694 
Q 2035 2778 1798 2797 
L 1798 2950 
L 3078 2950 
L 3078 672 
Q 3078 461 3155 371 
Q 3232 282 3443 275 
L 3443 128 
z
" transform="scale(0.015625)"/>
      <path id="STIXGeneral-Bold-62" d="M 1350 4326 
L 1350 2669 
Q 1690 3027 2131 3027 
Q 2662 3027 2998 2611 
Q 3334 2195 3334 1530 
Q 3334 806 2931 358 
Q 2528 -90 1888 -90 
Q 1440 -90 1043 275 
L 538 -83 
L 461 -83 
L 461 3802 
Q 461 3994 397 4061 
Q 333 4128 109 4173 
L 109 4326 
L 1350 4326 
z
M 1350 2304 
L 1350 621 
Q 1350 390 1472 252 
Q 1594 115 1792 115 
Q 2394 115 2394 1414 
Q 2394 2682 1798 2682 
Q 1638 2682 1536 2595 
Q 1434 2509 1350 2304 
z
" transform="scale(0.015625)"/>
     </defs>
     <use xlink:href="#STIXGeneral-Bold-53"/>
     <use xlink:href="#STIXGeneral-Bold-63" transform="translate(55.599991 0)"/>
     <use xlink:href="#STIXGeneral-Bold-68" transform="translate(99.999985 0)"/>
     <use xlink:href="#STIXGeneral-Bold-75" transform="translate(155.599976 0)"/>
     <use xlink:href="#STIXGeneral-Bold-62" transform="translate(211.199966 0)"/>
     <use xlink:href="#STIXGeneral-Bold-65" transform="translate(266.799957 0)"/>
     <use xlink:href="#STIXGeneral-Bold-72" transform="translate(311.199951 0)"/>
     <use xlink:href="#STIXGeneral-Bold-74" transform="translate(355.599945 0)"/>
    </g>
   </g>
   <g id="text_11">
    <!-- Berlioz -->
    <g transform="translate(324.469125 195.56375) scale(0.08 -0.08)">
     <defs>
      <path id="STIXGeneral-Bold-6c" d="M 1638 0 
L 102 0 
L 102 154 
Q 429 179 429 557 
L 429 3757 
Q 429 4147 96 4173 
L 96 4326 
L 1318 4326 
L 1318 557 
Q 1318 346 1395 253 
Q 1472 160 1638 154 
L 1638 0 
z
" transform="scale(0.015625)"/>
      <path id="STIXGeneral-Bold-69" d="M 1376 3923 
Q 1376 3712 1232 3571 
Q 1088 3430 877 3430 
Q 666 3430 525 3571 
Q 384 3712 384 3923 
Q 384 4134 528 4278 
Q 672 4422 890 4422 
Q 1088 4422 1232 4275 
Q 1376 4128 1376 3923 
z
M 1638 0 
L 102 0 
L 102 154 
Q 326 205 384 275 
Q 442 346 442 563 
L 442 2387 
Q 442 2598 374 2675 
Q 307 2752 96 2797 
L 96 2950 
L 1331 2950 
L 1331 544 
Q 1331 339 1398 259 
Q 1466 179 1638 154 
L 1638 0 
z
" transform="scale(0.015625)"/>
     </defs>
     <use xlink:href="#STIXGeneral-Bold-42"/>
     <use xlink:href="#STIXGeneral-Bold-65" transform="translate(66.699997 0)"/>
     <use xlink:href="#STIXGeneral-Bold-72" transform="translate(111.099991 0)"/>
     <use xlink:href="#STIXGeneral-Bold-6c" transform="translate(155.499985 0)"/>
     <use xlink:href="#STIXGeneral-Bold-69" transform="translate(183.299973 0)"/>
     <use xlink:href="#STIXGeneral-Bold-6f" transform="translate(211.09996 0)"/>
     <use xlink:href="#STIXGeneral-Bold-7a" transform="translate(261.099945 0)"/>
    </g>
   </g>
   <g id="text_12">
    <!-- Schumann -->
    <g transform="translate(308.803158 235.88375) scale(0.08 -0.08)">
     <defs>
      <path id="STIXGeneral-Bold-6d" d="M 5210 0 
L 3693 0 
L 3693 154 
Q 3872 166 3936 246 
Q 4000 326 4000 531 
L 4000 1990 
Q 4000 2598 3661 2598 
Q 3475 2598 3290 2438 
Q 3232 2394 3174 2323 
Q 3117 2253 3117 2227 
L 3117 531 
Q 3117 346 3181 259 
Q 3245 173 3411 154 
L 3411 0 
L 1926 0 
L 1926 154 
Q 2099 166 2163 249 
Q 2227 333 2227 531 
L 2227 2067 
Q 2227 2355 2147 2476 
Q 2067 2598 1882 2598 
Q 1760 2598 1552 2454 
Q 1344 2310 1344 2202 
L 1344 531 
Q 1344 346 1405 262 
Q 1466 179 1632 154 
L 1632 0 
L 102 0 
L 102 154 
Q 314 192 384 272 
Q 454 352 454 550 
L 454 2387 
Q 454 2611 384 2688 
Q 314 2765 96 2797 
L 96 2950 
L 1325 2950 
L 1325 2470 
L 1344 2470 
Q 1530 2765 1744 2896 
Q 1958 3027 2266 3027 
Q 2566 3027 2752 2899 
Q 2938 2771 3085 2470 
Q 3334 2778 3542 2902 
Q 3750 3027 4026 3027 
Q 4422 3027 4656 2784 
Q 4890 2541 4890 2118 
L 4890 531 
Q 4890 326 4957 243 
Q 5024 160 5210 154 
L 5210 0 
z
" transform="scale(0.015625)"/>
     </defs>
     <use xlink:href="#STIXGeneral-Bold-53"/>
     <use xlink:href="#STIXGeneral-Bold-63" transform="translate(55.599991 0)"/>
     <use xlink:href="#STIXGeneral-Bold-68" transform="translate(99.999985 0)"/>
     <use xlink:href="#STIXGeneral-Bold-75" transform="translate(155.599976 0)"/>
     <use xlink:href="#STIXGeneral-Bold-6d" transform="translate(211.199966 0)"/>
     <use xlink:href="#STIXGeneral-Bold-61" transform="translate(294.499954 0)"/>
     <use xlink:href="#STIXGeneral-Bold-6e" transform="translate(344.499939 0)"/>
     <use xlink:href="#STIXGeneral-Bold-6e" transform="translate(400.09993 0)"/>
    </g>
   </g>
   <g id="text_13">
    <!-- Brahms -->
    <g transform="translate(413.906302 276.20375) scale(0.08 -0.08)">
     <defs>
      <path id="STIXGeneral-Bold-73" d="M 2176 2086 
L 2016 2086 
Q 1894 2445 1715 2611 
Q 1498 2816 1235 2816 
Q 1056 2816 934 2710 
Q 813 2605 813 2445 
Q 813 2278 957 2147 
Q 1101 2016 1427 1882 
Q 1907 1683 2108 1452 
Q 2310 1222 2310 883 
Q 2310 454 2035 182 
Q 1760 -90 1325 -90 
Q 992 -90 634 58 
Q 538 96 486 96 
Q 416 96 320 -83 
L 160 -83 
L 160 973 
L 339 973 
Q 544 128 1216 128 
Q 1434 128 1565 243 
Q 1696 358 1696 544 
Q 1696 698 1555 829 
Q 1414 960 1082 1101 
Q 602 1306 387 1539 
Q 173 1773 173 2093 
Q 173 2496 457 2761 
Q 742 3027 1178 3027 
Q 1395 3027 1677 2931 
Q 1818 2886 1875 2886 
Q 1984 2886 2035 3014 
L 2176 3014 
L 2176 2086 
z
" transform="scale(0.015625)"/>
     </defs>
     <use xlink:href="#STIXGeneral-Bold-42"/>
     <use xlink:href="#STIXGeneral-Bold-72" transform="translate(66.699997 0)"/>
     <use xlink:href="#STIXGeneral-Bold-61" transform="translate(111.099991 0)"/>
     <use xlink:href="#STIXGeneral-Bold-68" transform="translate(161.099976 0)"/>
     <use xlink:href="#STIXGeneral-Bold-6d" transform="translate(216.699966 0)"/>
     <use xlink:href="#STIXGeneral-Bold-73" transform="translate(299.999954 0)"/>
    </g>
   </g>
   <g id="text_14">
    <!-- Elgar -->
    <g transform="translate(514.183501 316.52) scale(0.08 -0.08)">
     <defs>
      <path id="STIXGeneral-Bold-45" d="M 4102 1331 
L 3846 0 
L 102 0 
L 102 160 
Q 448 198 557 294 
Q 666 390 666 646 
L 666 3712 
Q 666 3955 550 4051 
Q 435 4147 102 4166 
L 102 4326 
L 3795 4326 
L 3795 3040 
L 3635 3040 
Q 3526 3680 3216 3894 
Q 2906 4109 2118 4109 
Q 1875 4109 1788 4032 
Q 1702 3955 1702 3763 
L 1702 2323 
Q 2221 2330 2451 2531 
Q 2682 2733 2739 3277 
L 2906 3277 
L 2906 1114 
L 2739 1114 
Q 2694 1677 2464 1891 
Q 2234 2106 1702 2106 
L 1702 557 
Q 1702 352 1814 275 
Q 1926 198 2234 198 
Q 2982 198 3398 544 
Q 3558 672 3667 838 
Q 3776 1005 3923 1331 
L 4102 1331 
z
" transform="scale(0.015625)"/>
      <path id="STIXGeneral-Bold-67" d="M 1626 435 
L 1958 435 
Q 2477 435 2784 227 
Q 3091 19 3091 -333 
Q 3091 -787 2652 -1052 
Q 2214 -1318 1421 -1318 
Q 179 -1318 179 -730 
Q 179 -339 794 -250 
Q 493 -141 381 -25 
Q 269 90 269 275 
Q 269 557 454 733 
Q 640 909 1030 1024 
Q 678 1120 457 1382 
Q 237 1645 237 1997 
Q 237 2464 598 2745 
Q 960 3027 1536 3027 
Q 1869 3027 2253 2886 
L 3078 2886 
L 3078 2547 
L 2566 2547 
Q 2822 2317 2822 1920 
Q 2822 1318 2234 1075 
Q 2080 1011 1971 998 
Q 1862 986 1421 986 
Q 1229 986 1104 899 
Q 979 813 979 672 
Q 979 538 1113 486 
Q 1248 435 1626 435 
z
M 1958 1997 
Q 1958 2445 1859 2637 
Q 1760 2829 1529 2829 
Q 1299 2829 1206 2643 
Q 1114 2458 1114 1990 
Q 1114 1542 1210 1353 
Q 1306 1165 1536 1165 
Q 1766 1165 1862 1353 
Q 1958 1542 1958 1997 
z
M 2016 -333 
L 966 -333 
Q 832 -442 787 -512 
Q 742 -582 742 -685 
Q 742 -1114 1600 -1114 
Q 2061 -1114 2323 -995 
Q 2586 -877 2586 -691 
Q 2586 -333 2016 -333 
z
" transform="scale(0.015625)"/>
     </defs>
     <use xlink:href="#STIXGeneral-Bold-45"/>
     <use xlink:href="#STIXGeneral-Bold-6c" transform="translate(66.699997 0)"/>
     <use xlink:href="#STIXGeneral-Bold-67" transform="translate(94.499985 0)"/>
     <use xlink:href="#STIXGeneral-Bold-61" transform="translate(144.499969 0)"/>
     <use xlink:href="#STIXGeneral-Bold-72" transform="translate(194.499954 0)"/>
    </g>
   </g>
  </g>
 </g>
 <defs>
  <clipPath id="pae2c56af42">
   <rect x="7.2" y="7.2" width="669.6" height="332.64"/>
  </clipPath>
 </defs>
</svg>