<?xml version="1.0" encoding="utf-8" standalone="no"?>
<!DOCTYPE svg PUBLIC "-//W3C//DTD SVG 1.1//EN"
  "http://www.w3.org/Graphics/SVG/1.1/DTD/svg11.dtd">
<svg xmlns:xlink="http://www.w3.org/1999/xlink" width="447.267266pt" height="349.155pt" viewBox="0 0 447.267266 349.155" xmlns="http://www.w3.org/2000/svg" version="1.1">
 <metadata>
  <rdf:RDF xmlns:dc="http://purl.org/dc/elements/1.1/" xmlns:cc="http://creativecommons.org/ns#" xmlns:rdf="http://www.w3.org/1999/02/22-rdf-syntax-ns#">
   <cc:Work>
    <dc:type rdf:resource="http://purl.org/dc/dcmitype/StillImage"/>
    <dc:date>2024-01-05T15:51:54.937315</dc:date>
    <dc:format>image/svg+xml</dc:format>
    <dc:creator>
     <cc:Agent>
      <dc:title>Matplotlib v3.8.2, https://matplotlib.org/</dc:title>
     </cc:Agent>
    </dc:creator>
   </cc:Work>
  </rdf:RDF>
 </metadata>
 <defs>
  <style type="text/css">*{stroke-linejoin: round; stroke-linecap: butt}</style>
 </defs>
 <g id="figure_1">
  <g id="patch_1">
   <path d="M 0 349.155 
L 447.267266 349.155 
L 447.267266 0 
L 0 0 
z
" style="fill: #ffffff"/>
  </g>
  <g id="axes_1">
   <g id="patch_2">
    <path d="M 51.615 303.155 
L 332.256266 303.155 
L 332.256266 12.66375 
L 51.615 12.66375 
z
" style="fill: #ffffff"/>
   </g>
   <g id="PolyCollection_1">
    <defs>
     <path id="m6769df816d" d="M 92.031448 -46.013701 
L 92.031448 -46 
L 93.026696 -46 
L 94.021944 -46 
L 95.017192 -46 
L 96.01244 -46 
L 97.007688 -46 
L 98.002936 -46 
L 98.998184 -46 
L 99.993433 -46 
L 100.988681 -46 
L 101.983929 -46 
L 102.979177 -46 
L 103.974425 -46 
L 104.969673 -46 
L 105.964921 -46 
L 106.960169 -46 
L 107.955417 -46 
L 108.950665 -46 
L 109.945913 -46 
L 110.941161 -46 
L 111.936409 -46 
L 112.931657 -46 
L 113.926905 -46 
L 114.922153 -46 
L 115.917401 -46 
L 116.912649 -46 
L 117.907897 -46 
L 118.903145 -46 
L 119.898393 -46 
L 120.893642 -46 
L 121.88889 -46 
L 122.884138 -46 
L 123.879386 -46 
L 124.874634 -46 
L 125.869882 -46 
L 126.86513 -46 
L 127.860378 -46 
L 128.855626 -46 
L 129.850874 -46 
L 130.846122 -46 
L 131.84137 -46 
L 132.836618 -46 
L 133.831866 -46 
L 134.827114 -46 
L 135.822362 -46 
L 136.81761 -46 
L 137.812858 -46 
L 138.808106 -46 
L 139.803354 -46 
L 140.798602 -46 
L 141.793851 -46 
L 142.789099 -46 
L 143.784347 -46 
L 144.779595 -46 
L 145.774843 -46 
L 146.770091 -46 
L 147.765339 -46 
L 148.760587 -46 
L 149.755835 -46 
L 150.751083 -46 
L 151.746331 -46 
L 152.741579 -46 
L 153.736827 -46 
L 154.732075 -46 
L 155.727323 -46 
L 156.722571 -46 
L 157.717819 -46 
L 158.713067 -46 
L 159.708315 -46 
L 160.703563 -46 
L 161.698811 -46 
L 162.69406 -46 
L 163.689308 -46 
L 164.684556 -46 
L 165.679804 -46 
L 166.675052 -46 
L 167.6703 -46 
L 168.665548 -46 
L 169.660796 -46 
L 170.656044 -46 
L 171.651292 -46 
L 172.64654 -46 
L 173.641788 -46 
L 174.637036 -46 
L 175.632284 -46 
L 176.627532 -46 
L 177.62278 -46 
L 178.618028 -46 
L 179.613276 -46 
L 180.608524 -46 
L 181.603772 -46 
L 182.59902 -46 
L 183.594269 -46 
L 184.589517 -46 
L 185.584765 -46 
L 186.580013 -46 
L 187.575261 -46 
L 188.570509 -46 
L 189.565757 -46 
L 190.561005 -46 
L 191.556253 -46 
L 192.551501 -46 
L 193.546749 -46 
L 194.541997 -46 
L 195.537245 -46 
L 196.532493 -46 
L 197.527741 -46 
L 198.522989 -46 
L 199.518237 -46 
L 200.513485 -46 
L 201.508733 -46 
L 202.503981 -46 
L 203.499229 -46 
L 204.494477 -46 
L 205.489726 -46 
L 206.484974 -46 
L 207.480222 -46 
L 208.47547 -46 
L 209.470718 -46 
L 210.465966 -46 
L 211.461214 -46 
L 212.456462 -46 
L 213.45171 -46 
L 214.446958 -46 
L 215.442206 -46 
L 216.437454 -46 
L 217.432702 -46 
L 218.42795 -46 
L 219.423198 -46 
L 220.418446 -46 
L 221.413694 -46 
L 222.408942 -46 
L 223.40419 -46 
L 224.399438 -46 
L 225.394686 -46 
L 226.389935 -46 
L 227.385183 -46 
L 228.380431 -46 
L 229.375679 -46 
L 230.370927 -46 
L 231.366175 -46 
L 232.361423 -46 
L 233.356671 -46 
L 234.351919 -46 
L 235.347167 -46 
L 236.342415 -46 
L 237.337663 -46 
L 238.332911 -46 
L 239.328159 -46 
L 240.323407 -46 
L 241.318655 -46 
L 242.313903 -46 
L 243.309151 -46 
L 244.304399 -46 
L 245.299647 -46 
L 246.294895 -46 
L 247.290144 -46 
L 248.285392 -46 
L 249.28064 -46 
L 250.275888 -46 
L 251.271136 -46 
L 252.266384 -46 
L 253.261632 -46 
L 254.25688 -46 
L 255.252128 -46 
L 256.247376 -46 
L 257.242624 -46 
L 258.237872 -46 
L 259.23312 -46 
L 260.228368 -46 
L 261.223616 -46 
L 262.218864 -46 
L 263.214112 -46 
L 264.20936 -46 
L 265.204608 -46 
L 266.199856 -46 
L 267.195104 -46 
L 268.190353 -46 
L 269.185601 -46 
L 270.180849 -46 
L 271.176097 -46 
L 272.171345 -46 
L 273.166593 -46 
L 274.161841 -46 
L 275.157089 -46 
L 276.152337 -46 
L 277.147585 -46 
L 278.142833 -46 
L 279.138081 -46 
L 280.133329 -46 
L 281.128577 -46 
L 282.123825 -46 
L 283.119073 -46 
L 284.114321 -46 
L 285.109569 -46 
L 286.104817 -46 
L 287.100065 -46 
L 288.095313 -46 
L 289.090562 -46 
L 290.08581 -46 
L 290.08581 -46.005354 
L 290.08581 -46.005354 
L 289.090562 -46.006703 
L 288.095313 -46.008348 
L 287.100065 -46.010342 
L 286.104817 -46.012745 
L 285.109569 -46.015625 
L 284.114321 -46.019055 
L 283.119073 -46.023117 
L 282.123825 -46.027899 
L 281.128577 -46.033495 
L 280.133329 -46.040005 
L 279.138081 -46.047533 
L 278.142833 -46.056186 
L 277.147585 -46.066072 
L 276.152337 -46.077298 
L 275.157089 -46.089967 
L 274.161841 -46.104176 
L 273.166593 -46.120013 
L 272.171345 -46.137552 
L 271.176097 -46.156852 
L 270.180849 -46.177951 
L 269.185601 -46.200866 
L 268.190353 -46.225586 
L 267.195104 -46.25207 
L 266.199856 -46.280246 
L 265.204608 -46.310006 
L 264.20936 -46.341209 
L 263.214112 -46.373676 
L 262.218864 -46.407191 
L 261.223616 -46.441504 
L 260.228368 -46.476332 
L 259.23312 -46.511364 
L 258.237872 -46.54626 
L 257.242624 -46.580664 
L 256.247376 -46.614203 
L 255.252128 -46.646497 
L 254.25688 -46.677169 
L 253.261632 -46.705847 
L 252.266384 -46.732177 
L 251.271136 -46.75583 
L 250.275888 -46.776508 
L 249.28064 -46.793955 
L 248.285392 -46.807961 
L 247.290144 -46.818368 
L 246.294895 -46.825077 
L 245.299647 -46.828049 
L 244.304399 -46.827311 
L 243.309151 -46.822951 
L 242.313903 -46.815122 
L 241.318655 -46.80404 
L 240.323407 -46.789976 
L 239.328159 -46.773254 
L 238.332911 -46.754247 
L 237.337663 -46.733365 
L 236.342415 -46.711049 
L 235.347167 -46.687765 
L 234.351919 -46.66399 
L 233.356671 -46.640206 
L 232.361423 -46.61689 
L 231.366175 -46.594506 
L 230.370927 -46.573495 
L 229.375679 -46.55427 
L 228.380431 -46.537207 
L 227.385183 -46.522642 
L 226.389935 -46.510863 
L 225.394686 -46.502114 
L 224.399438 -46.496586 
L 223.40419 -46.494423 
L 222.408942 -46.495717 
L 221.413694 -46.500519 
L 220.418446 -46.508836 
L 219.423198 -46.520638 
L 218.42795 -46.535865 
L 217.432702 -46.554435 
L 216.437454 -46.576249 
L 215.442206 -46.601199 
L 214.446958 -46.629179 
L 213.45171 -46.66009 
L 212.456462 -46.693849 
L 211.461214 -46.730398 
L 210.465966 -46.769705 
L 209.470718 -46.811777 
L 208.47547 -46.856659 
L 207.480222 -46.904436 
L 206.484974 -46.95524 
L 205.489726 -47.009244 
L 204.494477 -47.066666 
L 203.499229 -47.127759 
L 202.503981 -47.192811 
L 201.508733 -47.26214 
L 200.513485 -47.336082 
L 199.518237 -47.414987 
L 198.522989 -47.499209 
L 197.527741 -47.589096 
L 196.532493 -47.684983 
L 195.537245 -47.787183 
L 194.541997 -47.895977 
L 193.546749 -48.011611 
L 192.551501 -48.134284 
L 191.556253 -48.264151 
L 190.561005 -48.401314 
L 189.565757 -48.545824 
L 188.570509 -48.697679 
L 187.575261 -48.856824 
L 186.580013 -49.023156 
L 185.584765 -49.196522 
L 184.589517 -49.376727 
L 183.594269 -49.563529 
L 182.59902 -49.756649 
L 181.603772 -49.955763 
L 180.608524 -50.16051 
L 179.613276 -50.37048 
L 178.618028 -50.58522 
L 177.62278 -50.80422 
L 176.627532 -51.026911 
L 175.632284 -51.252656 
L 174.637036 -51.480737 
L 173.641788 -51.710355 
L 172.64654 -51.940613 
L 171.651292 -52.170515 
L 170.656044 -52.398961 
L 169.660796 -52.624745 
L 168.665548 -52.846557 
L 167.6703 -53.062993 
L 166.675052 -53.272561 
L 165.679804 -53.473702 
L 164.684556 -53.664808 
L 163.689308 -53.844244 
L 162.69406 -54.010381 
L 161.698811 -54.161621 
L 160.703563 -54.296429 
L 159.708315 -54.413369 
L 158.713067 -54.511131 
L 157.717819 -54.588562 
L 156.722571 -54.64469 
L 155.727323 -54.678747 
L 154.732075 -54.690187 
L 153.736827 -54.678694 
L 152.741579 -54.644189 
L 151.746331 -54.586827 
L 150.751083 -54.506994 
L 149.755835 -54.405293 
L 148.760587 -54.282526 
L 147.765339 -54.139679 
L 146.770091 -53.977892 
L 145.774843 -53.798441 
L 144.779595 -53.602709 
L 143.784347 -53.39216 
L 142.789099 -53.168319 
L 141.793851 -52.932746 
L 140.798602 -52.687016 
L 139.803354 -52.432703 
L 138.808106 -52.171365 
L 137.812858 -51.904531 
L 136.81761 -51.633691 
L 135.822362 -51.360289 
L 134.827114 -51.085717 
L 133.831866 -50.811311 
L 132.836618 -50.538346 
L 131.84137 -50.268035 
L 130.846122 -50.001526 
L 129.850874 -49.739895 
L 128.855626 -49.484147 
L 127.860378 -49.235213 
L 126.86513 -48.993941 
L 125.869882 -48.761096 
L 124.874634 -48.537356 
L 123.879386 -48.323305 
L 122.884138 -48.119432 
L 121.88889 -47.926127 
L 120.893642 -47.74368 
L 119.898393 -47.572283 
L 118.903145 -47.412025 
L 117.907897 -47.262901 
L 116.912649 -47.124812 
L 115.917401 -46.99757 
L 114.922153 -46.880908 
L 113.926905 -46.774487 
L 112.931657 -46.677902 
L 111.936409 -46.590698 
L 110.941161 -46.512371 
L 109.945913 -46.442387 
L 108.950665 -46.380187 
L 107.955417 -46.3252 
L 106.960169 -46.276849 
L 105.964921 -46.234562 
L 104.969673 -46.197777 
L 103.974425 -46.165953 
L 102.979177 -46.138571 
L 101.983929 -46.115138 
L 100.988681 -46.095196 
L 99.993433 -46.078317 
L 98.998184 -46.064109 
L 98.002936 -46.052215 
L 97.007688 -46.042314 
L 96.01244 -46.034117 
L 95.017192 -46.027368 
L 94.021944 -46.021843 
L 93.026696 -46.017344 
L 92.031448 -46.013701 
z
" style="stroke: #fccde5; stroke-width: 0.8"/>
    </defs>
    <g clip-path="url(#p14cc5a7625)">
     <use xlink:href="#m6769df816d" x="0" y="349.155" style="fill: #fccde5; fill-opacity: 0.25; stroke: #fccde5; stroke-width: 0.8"/>
    </g>
   </g>
   <g id="PolyCollection_2">
    <defs>
     <path id="mc06d937ab1" d="M 109.994509 -46.04019 
L 109.994509 -46 
L 110.682301 -46 
L 111.370092 -46 
L 112.057884 -46 
L 112.745675 -46 
L 113.433467 -46 
L 114.121259 -46 
L 114.80905 -46 
L 115.496842 -46 
L 116.184633 -46 
L 116.872425 -46 
L 117.560216 -46 
L 118.248008 -46 
L 118.9358 -46 
L 119.623591 -46 
L 120.311383 -46 
L 120.999174 -46 
L 121.686966 -46 
L 122.374758 -46 
L 123.062549 -46 
L 123.750341 -46 
L 124.438132 -46 
L 125.125924 -46 
L 125.813716 -46 
L 126.501507 -46 
L 127.189299 -46 
L 127.87709 -46 
L 128.564882 -46 
L 129.252673 -46 
L 129.940465 -46 
L 130.628257 -46 
L 131.316048 -46 
L 132.00384 -46 
L 132.691631 -46 
L 133.379423 -46 
L 134.067215 -46 
L 134.755006 -46 
L 135.442798 -46 
L 136.130589 -46 
L 136.818381 -46 
L 137.506172 -46 
L 138.193964 -46 
L 138.881756 -46 
L 139.569547 -46 
L 140.257339 -46 
L 140.94513 -46 
L 141.632922 -46 
L 142.320714 -46 
L 143.008505 -46 
L 143.696297 -46 
L 144.384088 -46 
L 145.07188 -46 
L 145.759672 -46 
L 146.447463 -46 
L 147.135255 -46 
L 147.823046 -46 
L 148.510838 -46 
L 149.198629 -46 
L 149.886421 -46 
L 150.574213 -46 
L 151.262004 -46 
L 151.949796 -46 
L 152.637587 -46 
L 153.325379 -46 
L 154.013171 -46 
L 154.700962 -46 
L 155.388754 -46 
L 156.076545 -46 
L 156.764337 -46 
L 157.452129 -46 
L 158.13992 -46 
L 158.827712 -46 
L 159.515503 -46 
L 160.203295 -46 
L 160.891086 -46 
L 161.578878 -46 
L 162.26667 -46 
L 162.954461 -46 
L 163.642253 -46 
L 164.330044 -46 
L 165.017836 -46 
L 165.705628 -46 
L 166.393419 -46 
L 167.081211 -46 
L 167.769002 -46 
L 168.456794 -46 
L 169.144585 -46 
L 169.832377 -46 
L 170.520169 -46 
L 171.20796 -46 
L 171.895752 -46 
L 172.583543 -46 
L 173.271335 -46 
L 173.959127 -46 
L 174.646918 -46 
L 175.33471 -46 
L 176.022501 -46 
L 176.710293 -46 
L 177.398085 -46 
L 178.085876 -46 
L 178.773668 -46 
L 179.461459 -46 
L 180.149251 -46 
L 180.837042 -46 
L 181.524834 -46 
L 182.212626 -46 
L 182.900417 -46 
L 183.588209 -46 
L 184.276 -46 
L 184.963792 -46 
L 185.651584 -46 
L 186.339375 -46 
L 187.027167 -46 
L 187.714958 -46 
L 188.40275 -46 
L 189.090541 -46 
L 189.778333 -46 
L 190.466125 -46 
L 191.153916 -46 
L 191.841708 -46 
L 192.529499 -46 
L 193.217291 -46 
L 193.905083 -46 
L 194.592874 -46 
L 195.280666 -46 
L 195.968457 -46 
L 196.656249 -46 
L 197.344041 -46 
L 198.031832 -46 
L 198.719624 -46 
L 199.407415 -46 
L 200.095207 -46 
L 200.782998 -46 
L 201.47079 -46 
L 202.158582 -46 
L 202.846373 -46 
L 203.534165 -46 
L 204.221956 -46 
L 204.909748 -46 
L 205.59754 -46 
L 206.285331 -46 
L 206.973123 -46 
L 207.660914 -46 
L 208.348706 -46 
L 209.036498 -46 
L 209.724289 -46 
L 210.412081 -46 
L 211.099872 -46 
L 211.787664 -46 
L 212.475455 -46 
L 213.163247 -46 
L 213.851039 -46 
L 214.53883 -46 
L 215.226622 -46 
L 215.914413 -46 
L 216.602205 -46 
L 217.289997 -46 
L 217.977788 -46 
L 218.66558 -46 
L 219.353371 -46 
L 220.041163 -46 
L 220.728954 -46 
L 221.416746 -46 
L 222.104538 -46 
L 222.792329 -46 
L 223.480121 -46 
L 224.167912 -46 
L 224.855704 -46 
L 225.543496 -46 
L 226.231287 -46 
L 226.919079 -46 
L 227.60687 -46 
L 228.294662 -46 
L 228.982454 -46 
L 229.670245 -46 
L 230.358037 -46 
L 231.045828 -46 
L 231.73362 -46 
L 232.421411 -46 
L 233.109203 -46 
L 233.796995 -46 
L 234.484786 -46 
L 235.172578 -46 
L 235.860369 -46 
L 236.548161 -46 
L 237.235953 -46 
L 237.923744 -46 
L 238.611536 -46 
L 239.299327 -46 
L 239.987119 -46 
L 240.67491 -46 
L 241.362702 -46 
L 242.050494 -46 
L 242.738285 -46 
L 243.426077 -46 
L 244.113868 -46 
L 244.80166 -46 
L 245.489452 -46 
L 246.177243 -46 
L 246.865035 -46 
L 246.865035 -46.009751 
L 246.865035 -46.009751 
L 246.177243 -46.013248 
L 245.489452 -46.017805 
L 244.80166 -46.023673 
L 244.113868 -46.031136 
L 243.426077 -46.040512 
L 242.738285 -46.052145 
L 242.050494 -46.066396 
L 241.362702 -46.083634 
L 240.67491 -46.104215 
L 239.987119 -46.128465 
L 239.299327 -46.156656 
L 238.611536 -46.188979 
L 237.923744 -46.225522 
L 237.235953 -46.266239 
L 236.548161 -46.310928 
L 235.860369 -46.359216 
L 235.172578 -46.410543 
L 234.484786 -46.464161 
L 233.796995 -46.519141 
L 233.109203 -46.574393 
L 232.421411 -46.628695 
L 231.73362 -46.680735 
L 231.045828 -46.729161 
L 230.358037 -46.772637 
L 229.670245 -46.809907 
L 228.982454 -46.83985 
L 228.294662 -46.861542 
L 227.60687 -46.874298 
L 226.919079 -46.877712 
L 226.231287 -46.871675 
L 225.543496 -46.856387 
L 224.855704 -46.832342 
L 224.167912 -46.800307 
L 223.480121 -46.761279 
L 222.792329 -46.71644 
L 222.104538 -46.667101 
L 221.416746 -46.614643 
L 220.728954 -46.560464 
L 220.041163 -46.505924 
L 219.353371 -46.452303 
L 218.66558 -46.400777 
L 217.977788 -46.35239 
L 217.289997 -46.308056 
L 216.602205 -46.268561 
L 215.914413 -46.234588 
L 215.226622 -46.206739 
L 214.53883 -46.185573 
L 213.851039 -46.171642 
L 213.163247 -46.165534 
L 212.475455 -46.167903 
L 211.787664 -46.179504 
L 211.099872 -46.201209 
L 210.412081 -46.234021 
L 209.724289 -46.279061 
L 209.036498 -46.337556 
L 208.348706 -46.410791 
L 207.660914 -46.50006 
L 206.973123 -46.606591 
L 206.285331 -46.731462 
L 205.59754 -46.875505 
L 204.909748 -47.039203 
L 204.221956 -47.222593 
L 203.534165 -47.425166 
L 202.846373 -47.645795 
L 202.158582 -47.882678 
L 201.47079 -48.133313 
L 200.782998 -48.394511 
L 200.095207 -48.662448 
L 199.407415 -48.932765 
L 198.719624 -49.200702 
L 198.031832 -49.461277 
L 197.344041 -49.709488 
L 196.656249 -49.940533 
L 195.968457 -50.150046 
L 195.280666 -50.334304 
L 194.592874 -50.490427 
L 193.905083 -50.616528 
L 193.217291 -50.711817 
L 192.529499 -50.776639 
L 191.841708 -50.812457 
L 191.153916 -50.821764 
L 190.466125 -50.807936 
L 189.778333 -50.77504 
L 189.090541 -50.727605 
L 188.40275 -50.670368 
L 187.714958 -50.608023 
L 187.027167 -50.544982 
L 186.339375 -50.485164 
L 185.651584 -50.43183 
L 184.963792 -50.387469 
L 184.276 -50.353745 
L 183.588209 -50.331505 
L 182.900417 -50.320847 
L 182.212626 -50.321248 
L 181.524834 -50.331735 
L 180.837042 -50.351102 
L 180.149251 -50.378154 
L 179.461459 -50.411964 
L 178.773668 -50.452143 
L 178.085876 -50.499095 
L 177.398085 -50.55426 
L 176.710293 -50.620312 
L 176.022501 -50.701328 
L 175.33471 -50.802883 
L 174.646918 -50.93209 
L 173.959127 -51.097556 
L 173.271335 -51.309255 
L 172.583543 -51.578313 
L 171.895752 -51.916698 
L 171.20796 -52.336827 
L 170.520169 -52.851086 
L 169.832377 -53.471291 
L 169.144585 -54.208091 
L 168.456794 -55.070351 
L 167.769002 -56.064542 
L 167.081211 -57.194159 
L 166.393419 -58.459224 
L 165.705628 -59.855888 
L 165.017836 -61.376176 
L 164.330044 -63.007914 
L 163.642253 -64.734834 
L 162.954461 -66.536898 
L 162.26667 -68.390811 
L 161.578878 -70.270735 
L 160.891086 -72.149149 
L 160.203295 -73.997839 
L 159.515503 -75.788941 
L 158.827712 -77.495996 
L 158.13992 -79.094945 
L 157.452129 -80.565005 
L 156.764337 -81.889379 
L 156.076545 -83.055758 
L 155.388754 -84.056579 
L 154.700962 -84.889054 
L 154.013171 -85.554954 
L 153.325379 -86.060201 
L 152.637587 -86.414282 
L 151.949796 -86.629549 
L 151.262004 -86.72045 
L 150.574213 -86.702745 
L 149.886421 -86.592746 
L 149.198629 -86.406619 
L 148.510838 -86.159769 
L 147.823046 -85.866334 
L 147.135255 -85.538767 
L 146.447463 -85.187524 
L 145.759672 -84.820834 
L 145.07188 -84.444551 
L 144.384088 -84.062071 
L 143.696297 -83.674304 
L 143.008505 -83.279724 
L 142.320714 -82.874464 
L 141.632922 -82.4525 
L 140.94513 -82.005908 
L 140.257339 -81.525208 
L 139.569547 -80.999799 
L 138.881756 -80.418475 
L 138.193964 -79.770012 
L 137.506172 -79.043804 
L 136.818381 -78.230512 
L 136.130589 -77.322696 
L 135.442798 -76.315385 
L 134.755006 -75.20655 
L 134.067215 -73.997442 
L 133.379423 -72.69276 
L 132.691631 -71.30065 
L 132.00384 -69.832512 
L 131.316048 -68.302632 
L 130.628257 -66.72766 
L 129.940465 -65.12596 
L 129.252673 -63.51689 
L 128.564882 -61.920032 
L 127.87709 -60.354438 
L 127.189299 -58.837931 
L 126.501507 -57.386496 
L 125.813716 -56.013795 
L 125.125924 -54.730822 
L 124.438132 -53.54571 
L 123.750341 -52.463681 
L 123.062549 -51.487141 
L 122.374758 -50.615883 
L 121.686966 -49.84739 
L 120.999174 -49.1772 
L 120.311383 -48.599305 
L 119.623591 -48.106563 
L 118.9358 -47.691101 
L 118.248008 -47.344677 
L 117.560216 -47.059004 
L 116.872425 -46.826015 
L 116.184633 -46.638074 
L 115.496842 -46.488123 
L 114.80905 -46.369784 
L 114.121259 -46.277404 
L 113.433467 -46.206068 
L 112.745675 -46.151576 
L 112.057884 -46.110398 
L 111.370092 -46.079614 
L 110.682301 -46.056847 
L 109.994509 -46.04019 
z
" style="stroke: #fdb462; stroke-width: 0.8"/>
    </defs>
    <g clip-path="url(#p14cc5a7625)">
     <use xlink:href="#mc06d937ab1" x="0" y="349.155" style="fill: #fdb462; fill-opacity: 0.25; stroke: #fdb462; stroke-width: 0.8"/>
    </g>
   </g>
   <g id="PolyCollection_3">
    <defs>
     <path id="m34b8c112b3" d="M 112.729965 -46.083457 
L 112.729965 -46 
L 113.240425 -46 
L 113.750885 -46 
L 114.261344 -46 
L 114.771804 -46 
L 115.282264 -46 
L 115.792724 -46 
L 116.303183 -46 
L 116.813643 -46 
L 117.324103 -46 
L 117.834562 -46 
L 118.345022 -46 
L 118.855482 -46 
L 119.365941 -46 
L 119.876401 -46 
L 120.386861 -46 
L 120.89732 -46 
L 121.40778 -46 
L 121.91824 -46 
L 122.4287 -46 
L 122.939159 -46 
L 123.449619 -46 
L 123.960079 -46 
L 124.470538 -46 
L 124.980998 -46 
L 125.491458 -46 
L 126.001917 -46 
L 126.512377 -46 
L 127.022837 -46 
L 127.533296 -46 
L 128.043756 -46 
L 128.554216 -46 
L 129.064676 -46 
L 129.575135 -46 
L 130.085595 -46 
L 130.596055 -46 
L 131.106514 -46 
L 131.616974 -46 
L 132.127434 -46 
L 132.637893 -46 
L 133.148353 -46 
L 133.658813 -46 
L 134.169272 -46 
L 134.679732 -46 
L 135.190192 -46 
L 135.700651 -46 
L 136.211111 -46 
L 136.721571 -46 
L 137.232031 -46 
L 137.74249 -46 
L 138.25295 -46 
L 138.76341 -46 
L 139.273869 -46 
L 139.784329 -46 
L 140.294789 -46 
L 140.805248 -46 
L 141.315708 -46 
L 141.826168 -46 
L 142.336627 -46 
L 142.847087 -46 
L 143.357547 -46 
L 143.868007 -46 
L 144.378466 -46 
L 144.888926 -46 
L 145.399386 -46 
L 145.909845 -46 
L 146.420305 -46 
L 146.930765 -46 
L 147.441224 -46 
L 147.951684 -46 
L 148.462144 -46 
L 148.972603 -46 
L 149.483063 -46 
L 149.993523 -46 
L 150.503983 -46 
L 151.014442 -46 
L 151.524902 -46 
L 152.035362 -46 
L 152.545821 -46 
L 153.056281 -46 
L 153.566741 -46 
L 154.0772 -46 
L 154.58766 -46 
L 155.09812 -46 
L 155.608579 -46 
L 156.119039 -46 
L 156.629499 -46 
L 157.139959 -46 
L 157.650418 -46 
L 158.160878 -46 
L 158.671338 -46 
L 159.181797 -46 
L 159.692257 -46 
L 160.202717 -46 
L 160.713176 -46 
L 161.223636 -46 
L 161.734096 -46 
L 162.244555 -46 
L 162.755015 -46 
L 163.265475 -46 
L 163.775935 -46 
L 164.286394 -46 
L 164.796854 -46 
L 165.307314 -46 
L 165.817773 -46 
L 166.328233 -46 
L 166.838693 -46 
L 167.349152 -46 
L 167.859612 -46 
L 168.370072 -46 
L 168.880531 -46 
L 169.390991 -46 
L 169.901451 -46 
L 170.411911 -46 
L 170.92237 -46 
L 171.43283 -46 
L 171.94329 -46 
L 172.453749 -46 
L 172.964209 -46 
L 173.474669 -46 
L 173.985128 -46 
L 174.495588 -46 
L 175.006048 -46 
L 175.516507 -46 
L 176.026967 -46 
L 176.537427 -46 
L 177.047886 -46 
L 177.558346 -46 
L 178.068806 -46 
L 178.579266 -46 
L 179.089725 -46 
L 179.600185 -46 
L 180.110645 -46 
L 180.621104 -46 
L 181.131564 -46 
L 181.642024 -46 
L 182.152483 -46 
L 182.662943 -46 
L 183.173403 -46 
L 183.683862 -46 
L 184.194322 -46 
L 184.704782 -46 
L 185.215242 -46 
L 185.725701 -46 
L 186.236161 -46 
L 186.746621 -46 
L 187.25708 -46 
L 187.76754 -46 
L 188.278 -46 
L 188.788459 -46 
L 189.298919 -46 
L 189.809379 -46 
L 190.319838 -46 
L 190.830298 -46 
L 191.340758 -46 
L 191.851218 -46 
L 192.361677 -46 
L 192.872137 -46 
L 193.382597 -46 
L 193.893056 -46 
L 194.403516 -46 
L 194.913976 -46 
L 195.424435 -46 
L 195.934895 -46 
L 196.445355 -46 
L 196.955814 -46 
L 197.466274 -46 
L 197.976734 -46 
L 198.487194 -46 
L 198.997653 -46 
L 199.508113 -46 
L 200.018573 -46 
L 200.529032 -46 
L 201.039492 -46 
L 201.549952 -46 
L 202.060411 -46 
L 202.570871 -46 
L 203.081331 -46 
L 203.59179 -46 
L 204.10225 -46 
L 204.61271 -46 
L 205.12317 -46 
L 205.633629 -46 
L 206.144089 -46 
L 206.654549 -46 
L 207.165008 -46 
L 207.675468 -46 
L 208.185928 -46 
L 208.696387 -46 
L 209.206847 -46 
L 209.717307 -46 
L 210.227766 -46 
L 210.738226 -46 
L 211.248686 -46 
L 211.759146 -46 
L 212.269605 -46 
L 212.780065 -46 
L 213.290525 -46 
L 213.800984 -46 
L 214.311444 -46 
L 214.311444 -46.013388 
L 214.311444 -46.013388 
L 213.800984 -46.017939 
L 213.290525 -46.023847 
L 212.780065 -46.031451 
L 212.269605 -46.041159 
L 211.759146 -46.053451 
L 211.248686 -46.06889 
L 210.738226 -46.08813 
L 210.227766 -46.111919 
L 209.717307 -46.141107 
L 209.206847 -46.176648 
L 208.696387 -46.219603 
L 208.185928 -46.271134 
L 207.675468 -46.332505 
L 207.165008 -46.405067 
L 206.654549 -46.490246 
L 206.144089 -46.589523 
L 205.633629 -46.704405 
L 205.12317 -46.836396 
L 204.61271 -46.986949 
L 204.10225 -47.157426 
L 203.59179 -47.349032 
L 203.081331 -47.56276 
L 202.570871 -47.799316 
L 202.060411 -48.059058 
L 201.549952 -48.341914 
L 201.039492 -48.647327 
L 200.529032 -48.974194 
L 200.018573 -49.320824 
L 199.508113 -49.684919 
L 198.997653 -50.063583 
L 198.487194 -50.453352 
L 197.976734 -50.850271 
L 197.466274 -51.249997 
L 196.955814 -51.647948 
L 196.445355 -52.039476 
L 195.934895 -52.420074 
L 195.424435 -52.785595 
L 194.913976 -53.132485 
L 194.403516 -53.458006 
L 193.893056 -53.760438 
L 193.382597 -54.039251 
L 192.872137 -54.295228 
L 192.361677 -54.530529 
L 191.851218 -54.748692 
L 191.340758 -54.954561 
L 190.830298 -55.15415 
L 190.319838 -55.354446 
L 189.809379 -55.563149 
L 189.298919 -55.788387 
L 188.788459 -56.03839 
L 188.278 -56.321165 
L 187.76754 -56.644181 
L 187.25708 -57.014066 
L 186.746621 -57.436344 
L 186.236161 -57.91522 
L 185.725701 -58.453397 
L 185.215242 -59.051963 
L 184.704782 -59.710307 
L 184.194322 -60.426095 
L 183.683862 -61.195284 
L 183.173403 -62.012166 
L 182.662943 -62.869466 
L 182.152483 -63.758458 
L 181.642024 -64.669131 
L 181.131564 -65.590392 
L 180.621104 -66.510315 
L 180.110645 -67.416438 
L 179.600185 -68.296118 
L 179.089725 -69.136927 
L 178.579266 -69.927104 
L 178.068806 -70.656032 
L 177.558346 -71.314742 
L 177.047886 -71.896407 
L 176.537427 -72.396814 
L 176.026967 -72.814769 
L 175.516507 -73.152427 
L 175.006048 -73.415501 
L 174.495588 -73.613344 
L 173.985128 -73.758882 
L 173.474669 -73.868386 
L 172.964209 -73.961098 
L 172.453749 -74.058714 
L 171.94329 -74.184743 
L 171.43283 -74.363775 
L 170.92237 -74.620678 
L 170.411911 -74.979769 
L 169.901451 -75.463977 
L 169.390991 -76.094045 
L 168.880531 -76.887779 
L 168.370072 -77.859384 
L 167.859612 -79.018884 
L 167.349152 -80.371663 
L 166.838693 -81.91811 
L 166.328233 -83.653405 
L 165.817773 -85.567426 
L 165.307314 -87.644802 
L 164.796854 -89.865112 
L 164.286394 -92.203238 
L 163.775935 -94.629877 
L 163.265475 -97.112216 
L 162.755015 -99.614755 
L 162.244555 -102.10029 
L 161.734096 -104.531009 
L 161.223636 -106.869684 
L 160.713176 -109.080919 
L 160.202717 -111.132396 
L 159.692257 -112.996052 
L 159.181797 -114.649151 
L 158.671338 -116.075151 
L 158.160878 -117.264339 
L 157.650418 -118.214172 
L 157.139959 -118.929295 
L 156.629499 -119.421219 
L 156.119039 -119.707678 
L 155.608579 -119.811677 
L 155.09812 -119.760305 
L 154.58766 -119.583359 
L 154.0772 -119.311878 
L 153.566741 -118.976669 
L 153.056281 -118.606919 
L 152.545821 -118.228979 
L 152.035362 -117.865386 
L 151.524902 -117.534185 
L 151.014442 -117.24858 
L 150.503983 -117.016914 
L 149.993523 -116.842974 
L 149.483063 -116.726567 
L 148.972603 -116.664303 
L 148.462144 -116.650532 
L 147.951684 -116.678318 
L 147.441224 -116.740397 
L 146.930765 -116.830021 
L 146.420305 -116.941625 
L 145.909845 -117.071278 
L 145.399386 -117.216874 
L 144.888926 -117.378065 
L 144.378466 -117.555955 
L 143.868007 -117.752576 
L 143.357547 -117.970212 
L 142.847087 -118.210623 
L 142.336627 -118.474238 
L 141.826168 -118.75939 
L 141.315708 -119.06165 
L 140.805248 -119.373318 
L 140.294789 -119.683109 
L 139.784329 -119.97607 
L 139.273869 -120.233718 
L 138.76341 -120.434428 
L 138.25295 -120.554016 
L 137.74249 -120.566522 
L 137.232031 -120.445123 
L 136.721571 -120.163153 
L 136.211111 -119.695173 
L 135.700651 -119.01803 
L 135.190192 -118.111875 
L 134.679732 -116.961072 
L 134.169272 -115.554975 
L 133.658813 -113.888525 
L 133.148353 -111.962642 
L 132.637893 -109.784406 
L 132.127434 -107.366998 
L 131.616974 -104.729421 
L 131.106514 -101.895998 
L 130.596055 -98.895684 
L 130.085595 -95.761199 
L 129.575135 -92.52805 
L 129.064676 -89.233454 
L 128.554216 -85.915233 
L 128.043756 -82.610713 
L 127.533296 -79.355681 
L 127.022837 -76.183444 
L 126.512377 -73.124014 
L 126.001917 -70.203463 
L 125.491458 -67.443457 
L 124.980998 -64.860972 
L 124.470538 -62.468206 
L 123.960079 -60.272662 
L 123.449619 -58.277391 
L 122.939159 -56.481362 
L 122.4287 -54.879942 
L 121.91824 -53.465441 
L 121.40778 -52.227702 
L 120.89732 -51.154693 
L 120.386861 -50.233093 
L 119.876401 -49.448829 
L 119.365941 -48.787562 
L 118.855482 -48.235105 
L 118.345022 -47.777766 
L 117.834562 -47.402614 
L 117.324103 -47.097675 
L 116.813643 -46.852054 
L 116.303183 -46.656002 
L 115.792724 -46.500928 
L 115.282264 -46.379372 
L 114.771804 -46.284948 
L 114.261344 -46.212258 
L 113.750885 -46.156803 
L 113.240425 -46.114874 
L 112.729965 -46.083457 
z
" style="stroke: #b3de69; stroke-width: 0.8"/>
    </defs>
    <g clip-path="url(#p14cc5a7625)">
     <use xlink:href="#m34b8c112b3" x="0" y="349.155" style="fill: #b3de69; fill-opacity: 0.25; stroke: #b3de69; stroke-width: 0.8"/>
    </g>
   </g>
   <g id="PolyCollection_4">
    <defs>
     <path id="m88a236562b" d="M 109.75194 -46.100168 
L 109.75194 -46 
L 110.616689 -46 
L 111.481438 -46 
L 112.346186 -46 
L 113.210935 -46 
L 114.075684 -46 
L 114.940433 -46 
L 115.805182 -46 
L 116.669931 -46 
L 117.53468 -46 
L 118.399428 -46 
L 119.264177 -46 
L 120.128926 -46 
L 120.993675 -46 
L 121.858424 -46 
L 122.723173 -46 
L 123.587921 -46 
L 124.45267 -46 
L 125.317419 -46 
L 126.182168 -46 
L 127.046917 -46 
L 127.911666 -46 
L 128.776415 -46 
L 129.641163 -46 
L 130.505912 -46 
L 131.370661 -46 
L 132.23541 -46 
L 133.100159 -46 
L 133.964908 -46 
L 134.829656 -46 
L 135.694405 -46 
L 136.559154 -46 
L 137.423903 -46 
L 138.288652 -46 
L 139.153401 -46 
L 140.01815 -46 
L 140.882898 -46 
L 141.747647 -46 
L 142.612396 -46 
L 143.477145 -46 
L 144.341894 -46 
L 145.206643 -46 
L 146.071392 -46 
L 146.93614 -46 
L 147.800889 -46 
L 148.665638 -46 
L 149.530387 -46 
L 150.395136 -46 
L 151.259885 -46 
L 152.124633 -46 
L 152.989382 -46 
L 153.854131 -46 
L 154.71888 -46 
L 155.583629 -46 
L 156.448378 -46 
L 157.313127 -46 
L 158.177875 -46 
L 159.042624 -46 
L 159.907373 -46 
L 160.772122 -46 
L 161.636871 -46 
L 162.50162 -46 
L 163.366368 -46 
L 164.231117 -46 
L 165.095866 -46 
L 165.960615 -46 
L 166.825364 -46 
L 167.690113 -46 
L 168.554862 -46 
L 169.41961 -46 
L 170.284359 -46 
L 171.149108 -46 
L 172.013857 -46 
L 172.878606 -46 
L 173.743355 -46 
L 174.608103 -46 
L 175.472852 -46 
L 176.337601 -46 
L 177.20235 -46 
L 178.067099 -46 
L 178.931848 -46 
L 179.796597 -46 
L 180.661345 -46 
L 181.526094 -46 
L 182.390843 -46 
L 183.255592 -46 
L 184.120341 -46 
L 184.98509 -46 
L 185.849838 -46 
L 186.714587 -46 
L 187.579336 -46 
L 188.444085 -46 
L 189.308834 -46 
L 190.173583 -46 
L 191.038332 -46 
L 191.90308 -46 
L 192.767829 -46 
L 193.632578 -46 
L 194.497327 -46 
L 195.362076 -46 
L 196.226825 -46 
L 197.091573 -46 
L 197.956322 -46 
L 198.821071 -46 
L 199.68582 -46 
L 200.550569 -46 
L 201.415318 -46 
L 202.280067 -46 
L 203.144815 -46 
L 204.009564 -46 
L 204.874313 -46 
L 205.739062 -46 
L 206.603811 -46 
L 207.46856 -46 
L 208.333308 -46 
L 209.198057 -46 
L 210.062806 -46 
L 210.927555 -46 
L 211.792304 -46 
L 212.657053 -46 
L 213.521802 -46 
L 214.38655 -46 
L 215.251299 -46 
L 216.116048 -46 
L 216.980797 -46 
L 217.845546 -46 
L 218.710295 -46 
L 219.575044 -46 
L 220.439792 -46 
L 221.304541 -46 
L 222.16929 -46 
L 223.034039 -46 
L 223.898788 -46 
L 224.763537 -46 
L 225.628285 -46 
L 226.493034 -46 
L 227.357783 -46 
L 228.222532 -46 
L 229.087281 -46 
L 229.95203 -46 
L 230.816779 -46 
L 231.681527 -46 
L 232.546276 -46 
L 233.411025 -46 
L 234.275774 -46 
L 235.140523 -46 
L 236.005272 -46 
L 236.87002 -46 
L 237.734769 -46 
L 238.599518 -46 
L 239.464267 -46 
L 240.329016 -46 
L 241.193765 -46 
L 242.058514 -46 
L 242.923262 -46 
L 243.788011 -46 
L 244.65276 -46 
L 245.517509 -46 
L 246.382258 -46 
L 247.247007 -46 
L 248.111755 -46 
L 248.976504 -46 
L 249.841253 -46 
L 250.706002 -46 
L 251.570751 -46 
L 252.4355 -46 
L 253.300249 -46 
L 254.164997 -46 
L 255.029746 -46 
L 255.894495 -46 
L 256.759244 -46 
L 257.623993 -46 
L 258.488742 -46 
L 259.35349 -46 
L 260.218239 -46 
L 261.082988 -46 
L 261.947737 -46 
L 262.812486 -46 
L 263.677235 -46 
L 264.541984 -46 
L 265.406732 -46 
L 266.271481 -46 
L 267.13623 -46 
L 268.000979 -46 
L 268.865728 -46 
L 269.730477 -46 
L 270.595225 -46 
L 271.459974 -46 
L 272.324723 -46 
L 273.189472 -46 
L 274.054221 -46 
L 274.91897 -46 
L 275.783719 -46 
L 276.648467 -46 
L 277.513216 -46 
L 278.377965 -46 
L 279.242714 -46 
L 280.107463 -46 
L 280.972212 -46 
L 281.836961 -46 
L 281.836961 -46.009982 
L 281.836961 -46.009982 
L 280.972212 -46.014779 
L 280.107463 -46.021493 
L 279.242714 -46.030703 
L 278.377965 -46.043081 
L 277.513216 -46.059377 
L 276.648467 -46.080386 
L 275.783719 -46.106896 
L 274.91897 -46.139628 
L 274.054221 -46.179147 
L 273.189472 -46.225772 
L 272.324723 -46.279485 
L 271.459974 -46.339839 
L 270.595225 -46.405895 
L 269.730477 -46.47619 
L 268.865728 -46.548748 
L 268.000979 -46.621143 
L 267.13623 -46.690615 
L 266.271481 -46.754235 
L 265.406732 -46.809103 
L 264.541984 -46.852563 
L 263.677235 -46.88242 
L 262.812486 -46.897119 
L 261.947737 -46.895882 
L 261.082988 -46.878776 
L 260.218239 -46.846703 
L 259.35349 -46.801328 
L 258.488742 -46.74493 
L 257.623993 -46.680215 
L 256.759244 -46.610104 
L 255.894495 -46.53751 
L 255.029746 -46.465153 
L 254.164997 -46.395395 
L 253.300249 -46.330136 
L 252.4355 -46.270757 
L 251.570751 -46.218119 
L 250.706002 -46.172597 
L 249.841253 -46.134153 
L 248.976504 -46.102421 
L 248.111755 -46.076808 
L 247.247007 -46.056579 
L 246.382258 -46.040938 
L 245.517509 -46.029095 
L 244.65276 -46.020312 
L 243.788011 -46.01393 
L 242.923262 -46.009385 
L 242.058514 -46.006213 
L 241.193765 -46.004046 
L 240.329016 -46.002598 
L 239.464267 -46.001657 
L 238.599518 -46.001071 
L 237.734769 -46.000738 
L 236.87002 -46.000596 
L 236.005272 -46.000619 
L 235.140523 -46.000813 
L 234.275774 -46.00122 
L 233.411025 -46.001918 
L 232.546276 -46.003038 
L 231.681527 -46.004769 
L 230.816779 -46.007381 
L 229.95203 -46.01124 
L 229.087281 -46.016833 
L 228.222532 -46.024787 
L 227.357783 -46.035889 
L 226.493034 -46.051097 
L 225.628285 -46.071541 
L 224.763537 -46.098516 
L 223.898788 -46.133446 
L 223.034039 -46.177833 
L 222.16929 -46.233189 
L 221.304541 -46.300944 
L 220.439792 -46.382344 
L 219.575044 -46.478352 
L 218.710295 -46.589555 
L 217.845546 -46.716111 
L 216.980797 -46.857735 
L 216.116048 -47.013759 
L 215.251299 -47.183267 
L 214.38655 -47.365307 
L 213.521802 -47.559193 
L 212.657053 -47.764856 
L 211.792304 -47.983235 
L 210.927555 -48.216649 
L 210.062806 -48.469106 
L 209.198057 -48.746487 
L 208.333308 -49.056541 
L 207.46856 -49.40865 
L 206.603811 -49.813317 
L 205.739062 -50.281375 
L 204.874313 -50.822942 
L 204.009564 -51.446179 
L 203.144815 -52.155963 
L 202.280067 -52.952609 
L 201.415318 -53.830807 
L 200.550569 -54.778943 
L 199.68582 -55.778958 
L 198.821071 -56.806865 
L 197.956322 -57.833957 
L 197.091573 -58.828681 
L 196.226825 -59.759044 
L 195.362076 -60.59534 
L 194.497327 -61.312913 
L 193.632578 -61.89465 
L 192.767829 -62.332892 
L 191.90308 -62.630527 
L 191.038332 -62.801085 
L 190.173583 -62.86781 
L 189.308834 -62.861781 
L 188.444085 -62.81929 
L 187.579336 -62.778762 
L 186.714587 -62.777579 
L 185.849838 -62.849139 
L 184.98509 -63.020487 
L 184.120341 -63.310752 
L 183.255592 -63.730534 
L 182.390843 -64.282273 
L 181.526094 -64.961518 
L 180.661345 -65.758922 
L 179.796597 -66.662701 
L 178.931848 -67.661261 
L 178.067099 -68.74568 
L 177.20235 -69.911738 
L 176.337601 -71.161254 
L 175.472852 -72.50255 
L 174.608103 -73.949966 
L 173.743355 -75.522449 
L 172.878606 -77.241329 
L 172.013857 -79.127504 
L 171.149108 -81.198298 
L 170.284359 -83.464294 
L 169.41961 -85.92647 
L 168.554862 -88.573887 
L 167.690113 -91.382193 
L 166.825364 -94.313092 
L 165.960615 -97.314875 
L 165.095866 -100.324042 
L 164.231117 -103.267969 
L 163.366368 -106.06849 
L 162.50162 -108.646231 
L 161.636871 -110.925413 
L 160.772122 -112.838849 
L 159.907373 -114.33274 
L 159.042624 -115.370917 
L 158.177875 -115.938133 
L 157.313127 -116.04211 
L 156.448378 -115.7141 
L 155.583629 -115.007891 
L 154.71888 -113.997306 
L 153.854131 -112.772425 
L 152.989382 -111.434843 
L 152.124633 -110.092381 
L 151.259885 -108.853644 
L 150.395136 -107.82278 
L 149.530387 -107.094685 
L 148.665638 -106.750787 
L 147.800889 -106.855405 
L 146.93614 -107.452624 
L 146.071392 -108.563593 
L 145.206643 -110.184219 
L 144.341894 -112.283298 
L 143.477145 -114.801291 
L 142.612396 -117.650043 
L 141.747647 -120.713841 
L 140.882898 -123.852197 
L 140.01815 -126.904651 
L 139.153401 -129.69771 
L 138.288652 -132.05375 
L 137.423903 -133.801437 
L 136.559154 -134.786907 
L 135.694405 -134.884743 
L 134.829656 -134.007667 
L 133.964908 -132.11389 
L 133.100159 -129.211259 
L 132.23541 -125.357642 
L 131.370661 -120.65739 
L 130.505912 -115.254175 
L 129.641163 -109.320884 
L 128.776415 -103.047592 
L 127.911666 -96.628798 
L 127.046917 -90.251157 
L 126.182168 -84.082791 
L 125.317419 -78.265026 
L 124.45267 -72.907061 
L 123.587921 -68.083702 
L 122.723173 -63.835963 
L 121.858424 -60.174062 
L 120.993675 -57.082168 
L 120.128926 -54.524173 
L 119.264177 -52.44979 
L 118.399428 -50.800399 
L 117.53468 -49.514175 
L 116.669931 -48.530246 
L 115.805182 -47.79175 
L 114.940433 -47.247819 
L 114.075684 -46.854618 
L 113.210935 -46.575608 
L 112.346186 -46.381247 
L 111.481438 -46.248316 
L 110.616689 -46.159043 
L 109.75194 -46.100168 
z
" style="stroke: #fb8072; stroke-width: 0.8"/>
    </defs>
    <g clip-path="url(#p14cc5a7625)">
     <use xlink:href="#m88a236562b" x="0" y="349.155" style="fill: #fb8072; fill-opacity: 0.25; stroke: #fb8072; stroke-width: 0.8"/>
    </g>
   </g>
   <g id="PolyCollection_5">
    <defs>
     <path id="ma71dff14af" d="M 116.661067 -46.195513 
L 116.661067 -46 
L 117.169037 -46 
L 117.677008 -46 
L 118.184978 -46 
L 118.692949 -46 
L 119.200919 -46 
L 119.708889 -46 
L 120.21686 -46 
L 120.72483 -46 
L 121.232801 -46 
L 121.740771 -46 
L 122.248741 -46 
L 122.756712 -46 
L 123.264682 -46 
L 123.772653 -46 
L 124.280623 -46 
L 124.788593 -46 
L 125.296564 -46 
L 125.804534 -46 
L 126.312504 -46 
L 126.820475 -46 
L 127.328445 -46 
L 127.836416 -46 
L 128.344386 -46 
L 128.852356 -46 
L 129.360327 -46 
L 129.868297 -46 
L 130.376268 -46 
L 130.884238 -46 
L 131.392208 -46 
L 131.900179 -46 
L 132.408149 -46 
L 132.91612 -46 
L 133.42409 -46 
L 133.93206 -46 
L 134.440031 -46 
L 134.948001 -46 
L 135.455972 -46 
L 135.963942 -46 
L 136.471912 -46 
L 136.979883 -46 
L 137.487853 -46 
L 137.995824 -46 
L 138.503794 -46 
L 139.011764 -46 
L 139.519735 -46 
L 140.027705 -46 
L 140.535676 -46 
L 141.043646 -46 
L 141.551616 -46 
L 142.059587 -46 
L 142.567557 -46 
L 143.075528 -46 
L 143.583498 -46 
L 144.091468 -46 
L 144.599439 -46 
L 145.107409 -46 
L 145.615379 -46 
L 146.12335 -46 
L 146.63132 -46 
L 147.139291 -46 
L 147.647261 -46 
L 148.155231 -46 
L 148.663202 -46 
L 149.171172 -46 
L 149.679143 -46 
L 150.187113 -46 
L 150.695083 -46 
L 151.203054 -46 
L 151.711024 -46 
L 152.218995 -46 
L 152.726965 -46 
L 153.234935 -46 
L 153.742906 -46 
L 154.250876 -46 
L 154.758847 -46 
L 155.266817 -46 
L 155.774787 -46 
L 156.282758 -46 
L 156.790728 -46 
L 157.298699 -46 
L 157.806669 -46 
L 158.314639 -46 
L 158.82261 -46 
L 159.33058 -46 
L 159.838551 -46 
L 160.346521 -46 
L 160.854491 -46 
L 161.362462 -46 
L 161.870432 -46 
L 162.378403 -46 
L 162.886373 -46 
L 163.394343 -46 
L 163.902314 -46 
L 164.410284 -46 
L 164.918255 -46 
L 165.426225 -46 
L 165.934195 -46 
L 166.442166 -46 
L 166.950136 -46 
L 167.458106 -46 
L 167.966077 -46 
L 168.474047 -46 
L 168.982018 -46 
L 169.489988 -46 
L 169.997958 -46 
L 170.505929 -46 
L 171.013899 -46 
L 171.52187 -46 
L 172.02984 -46 
L 172.53781 -46 
L 173.045781 -46 
L 173.553751 -46 
L 174.061722 -46 
L 174.569692 -46 
L 175.077662 -46 
L 175.585633 -46 
L 176.093603 -46 
L 176.601574 -46 
L 177.109544 -46 
L 177.617514 -46 
L 178.125485 -46 
L 178.633455 -46 
L 179.141426 -46 
L 179.649396 -46 
L 180.157366 -46 
L 180.665337 -46 
L 181.173307 -46 
L 181.681278 -46 
L 182.189248 -46 
L 182.697218 -46 
L 183.205189 -46 
L 183.713159 -46 
L 184.22113 -46 
L 184.7291 -46 
L 185.23707 -46 
L 185.745041 -46 
L 186.253011 -46 
L 186.760981 -46 
L 187.268952 -46 
L 187.776922 -46 
L 188.284893 -46 
L 188.792863 -46 
L 189.300833 -46 
L 189.808804 -46 
L 190.316774 -46 
L 190.824745 -46 
L 191.332715 -46 
L 191.840685 -46 
L 192.348656 -46 
L 192.856626 -46 
L 193.364597 -46 
L 193.872567 -46 
L 194.380537 -46 
L 194.888508 -46 
L 195.396478 -46 
L 195.904449 -46 
L 196.412419 -46 
L 196.920389 -46 
L 197.42836 -46 
L 197.93633 -46 
L 198.444301 -46 
L 198.952271 -46 
L 199.460241 -46 
L 199.968212 -46 
L 200.476182 -46 
L 200.984153 -46 
L 201.492123 -46 
L 202.000093 -46 
L 202.508064 -46 
L 203.016034 -46 
L 203.524005 -46 
L 204.031975 -46 
L 204.539945 -46 
L 205.047916 -46 
L 205.555886 -46 
L 206.063856 -46 
L 206.571827 -46 
L 207.079797 -46 
L 207.587768 -46 
L 208.095738 -46 
L 208.603708 -46 
L 209.111679 -46 
L 209.619649 -46 
L 210.12762 -46 
L 210.63559 -46 
L 211.14356 -46 
L 211.651531 -46 
L 212.159501 -46 
L 212.667472 -46 
L 213.175442 -46 
L 213.683412 -46 
L 214.191383 -46 
L 214.699353 -46 
L 215.207324 -46 
L 215.715294 -46 
L 216.223264 -46 
L 216.731235 -46 
L 217.239205 -46 
L 217.747176 -46 
L 217.747176 -46.01615 
L 217.747176 -46.01615 
L 217.239205 -46.022889 
L 216.731235 -46.032034 
L 216.223264 -46.044277 
L 215.715294 -46.060444 
L 215.207324 -46.081504 
L 214.699353 -46.108568 
L 214.191383 -46.142879 
L 213.683412 -46.185794 
L 213.175442 -46.238756 
L 212.667472 -46.303248 
L 212.159501 -46.380747 
L 211.651531 -46.472661 
L 211.14356 -46.580262 
L 210.63559 -46.704624 
L 210.12762 -46.846556 
L 209.619649 -47.006554 
L 209.111679 -47.184759 
L 208.603708 -47.380945 
L 208.095738 -47.594522 
L 207.587768 -47.824571 
L 207.079797 -48.069898 
L 206.571827 -48.32911 
L 206.063856 -48.600711 
L 205.555886 -48.883192 
L 205.047916 -49.17513 
L 204.539945 -49.475261 
L 204.031975 -49.782535 
L 203.524005 -50.09613 
L 203.016034 -50.415429 
L 202.508064 -50.739947 
L 202.000093 -51.069219 
L 201.492123 -51.402644 
L 200.984153 -51.739305 
L 200.476182 -52.077778 
L 199.968212 -52.415942 
L 199.460241 -52.750821 
L 198.952271 -53.078472 
L 198.444301 -53.393947 
L 197.93633 -53.69134 
L 197.42836 -53.963933 
L 196.920389 -54.204443 
L 196.412419 -54.405368 
L 195.904449 -54.559423 
L 195.396478 -54.660021 
L 194.888508 -54.701796 
L 194.380537 -54.681111 
L 193.872567 -54.596515 
L 193.364597 -54.449118 
L 192.856626 -54.242837 
L 192.348656 -53.9845 
L 191.840685 -53.683784 
L 191.332715 -53.352993 
L 190.824745 -53.006675 
L 190.316774 -52.661109 
L 189.808804 -52.333702 
L 189.300833 -52.042307 
L 188.792863 -51.804536 
L 188.284893 -51.637082 
L 187.776922 -51.555092 
L 187.268952 -51.571624 
L 186.760981 -51.697192 
L 186.253011 -51.939411 
L 185.745041 -52.302749 
L 185.23707 -52.78836 
L 184.7291 -53.394005 
L 184.22113 -54.114031 
L 183.713159 -54.93942 
L 183.205189 -55.857888 
L 182.697218 -56.854051 
L 182.189248 -57.909666 
L 181.681278 -59.003975 
L 181.173307 -60.114167 
L 180.665337 -61.21599 
L 180.157366 -62.28452 
L 179.649396 -63.295102 
L 179.141426 -64.224432 
L 178.633455 -65.051765 
L 178.125485 -65.760169 
L 177.617514 -66.337763 
L 177.109544 -66.778834 
L 176.601574 -67.084742 
L 176.093603 -67.264512 
L 175.585633 -67.335023 
L 175.077662 -67.320753 
L 174.569692 -67.25304 
L 174.061722 -67.168886 
L 173.553751 -67.109349 
L 173.045781 -67.117622 
L 172.53781 -67.236916 
L 172.02984 -67.508287 
L 171.52187 -67.968549 
L 171.013899 -68.648413 
L 170.505929 -69.570966 
L 169.997958 -70.750574 
L 169.489988 -72.192261 
L 168.982018 -73.891572 
L 168.474047 -75.834894 
L 167.966077 -78.000165 
L 167.458106 -80.357907 
L 166.950136 -82.872467 
L 166.442166 -85.503377 
L 165.934195 -88.206753 
L 165.426225 -90.936643 
L 164.918255 -93.646302 
L 164.410284 -96.289353 
L 163.902314 -98.82086 
L 163.394343 -101.198329 
L 162.886373 -103.382672 
L 162.378403 -105.339191 
L 161.870432 -107.038595 
L 161.362462 -108.458077 
L 160.854491 -109.582425 
L 160.346521 -110.405131 
L 159.838551 -110.929416 
L 159.33058 -111.169073 
L 158.82261 -111.149015 
L 158.314639 -110.905406 
L 157.806669 -110.485278 
L 157.298699 -109.945549 
L 156.790728 -109.351428 
L 156.282758 -108.774208 
L 155.774787 -108.288551 
L 155.266817 -107.969382 
L 154.758847 -107.888598 
L 154.250876 -108.111823 
L 153.742906 -108.695437 
L 153.234935 -109.684151 
L 152.726965 -111.109325 
L 152.218995 -112.9882 
L 151.711024 -115.324135 
L 151.203054 -118.10785 
L 150.695083 -121.319571 
L 150.187113 -124.931911 
L 149.679143 -128.913189 
L 149.171172 -133.230896 
L 148.663202 -137.854955 
L 148.155231 -142.760442 
L 147.647261 -147.929516 
L 147.139291 -153.352354 
L 146.63132 -159.027014 
L 146.12335 -164.958264 
L 145.615379 -171.155496 
L 145.107409 -177.629954 
L 144.599439 -184.391536 
L 144.091468 -191.445433 
L 143.583498 -198.788868 
L 143.075528 -206.40812 
L 142.567557 -214.27595 
L 142.059587 -222.349515 
L 141.551616 -230.568756 
L 141.043646 -238.855264 
L 140.535676 -247.111645 
L 140.027705 -255.221404 
L 139.519735 -263.049479 
L 139.011764 -270.443582 
L 138.503794 -277.23654 
L 137.995824 -283.249852 
L 137.487853 -288.298585 
L 136.979883 -292.197677 
L 136.471912 -294.76952 
L 135.963942 -295.852533 
L 135.455972 -295.310264 
L 134.948001 -293.040389 
L 134.440031 -288.982874 
L 133.93206 -283.126559 
L 133.42409 -275.513458 
L 132.91612 -266.240248 
L 132.408149 -255.456605 
L 131.900179 -243.360357 
L 131.392208 -230.189679 
L 130.884238 -216.212839 
L 130.376268 -201.716221 
L 129.868297 -186.991503 
L 129.360327 -172.322915 
L 128.852356 -157.975463 
L 128.344386 -144.184899 
L 127.836416 -131.150001 
L 127.328445 -119.027518 
L 126.820475 -107.929887 
L 126.312504 -97.925582 
L 125.804534 -89.041782 
L 125.296564 -81.268892 
L 124.788593 -74.566368 
L 124.280623 -68.869276 
L 123.772653 -64.095048 
L 123.264682 -60.149974 
L 122.756712 -56.935065 
L 122.248741 -54.351039 
L 121.740771 -52.302294 
L 121.232801 -50.699843 
L 120.72483 -49.463249 
L 120.21686 -48.521683 
L 119.708889 -47.814244 
L 119.200919 -47.289711 
L 118.692949 -46.905888 
L 118.184978 -46.628692 
L 117.677008 -46.4311 
L 117.169037 -46.292073 
L 116.661067 -46.195513 
z
" style="stroke: #bc80bd; stroke-width: 0.8"/>
    </defs>
    <g clip-path="url(#p14cc5a7625)">
     <use xlink:href="#ma71dff14af" x="0" y="349.155" style="fill: #bc80bd; fill-opacity: 0.25; stroke: #bc80bd; stroke-width: 0.8"/>
    </g>
   </g>
   <g id="matplotlib.axis_1">
    <g id="xtick_1">
     <g id="line2d_1">
      <defs>
       <path id="m7c24acc550" d="M 0 0 
L 0 3.5 
" style="stroke: #323034; stroke-width: 0.8"/>
      </defs>
      <g>
       <use xlink:href="#m7c24acc550" x="51.615" y="303.155" style="fill: #323034; stroke: #323034; stroke-width: 0.8"/>
      </g>
     </g>
     <g id="text_1">
      <!-- $\mathdefault{−2}$ -->
      <g style="fill: #323034" transform="translate(42.095 321.0825) scale(0.16 -0.16)">
       <defs>
        <path id="STIXGeneral-Regular-2212" d="M 3974 1408 
L 410 1408 
L 410 1830 
L 3974 1830 
L 3974 1408 
z
" transform="scale(0.015625)"/>
        <path id="STIXGeneral-Regular-32" d="M 3034 877 
L 2688 0 
L 186 0 
L 186 77 
L 1325 1286 
Q 1773 1754 1965 2144 
Q 2157 2534 2157 2950 
Q 2157 3379 1920 3616 
Q 1683 3853 1267 3853 
Q 922 3853 720 3673 
Q 518 3494 326 3021 
L 192 3053 
Q 301 3648 630 3987 
Q 960 4326 1523 4326 
Q 2054 4326 2380 4006 
Q 2707 3686 2707 3200 
Q 2707 2477 1888 1613 
L 832 486 
L 2330 486 
Q 2541 486 2665 569 
Q 2790 653 2944 915 
L 3034 877 
z
" transform="scale(0.015625)"/>
       </defs>
       <use xlink:href="#STIXGeneral-Regular-2212" transform="translate(0 0.40625)"/>
       <use xlink:href="#STIXGeneral-Regular-32" transform="translate(68.499985 0.40625)"/>
      </g>
     </g>
    </g>
    <g id="xtick_2">
     <g id="line2d_2">
      <g>
       <use xlink:href="#m7c24acc550" x="121.775316" y="303.155" style="fill: #323034; stroke: #323034; stroke-width: 0.8"/>
      </g>
     </g>
     <g id="text_2">
      <!-- $\mathdefault{0}$ -->
      <g style="fill: #323034" transform="translate(117.775316 321.0825) scale(0.16 -0.16)">
       <defs>
        <path id="STIXGeneral-Regular-30" d="M 3046 2112 
Q 3046 1683 2963 1302 
Q 2880 922 2717 602 
Q 2554 282 2266 96 
Q 1978 -90 1600 -90 
Q 1210 -90 915 108 
Q 621 307 461 640 
Q 301 973 227 1350 
Q 154 1728 154 2150 
Q 154 2746 301 3222 
Q 448 3699 790 4012 
Q 1133 4326 1626 4326 
Q 2253 4326 2649 3712 
Q 3046 3098 3046 2112 
z
M 2432 2080 
Q 2432 3091 2217 3625 
Q 2003 4160 1587 4160 
Q 1190 4160 979 3622 
Q 768 3085 768 2106 
Q 768 1120 979 598 
Q 1190 77 1600 77 
Q 2003 77 2217 598 
Q 2432 1120 2432 2080 
z
" transform="scale(0.015625)"/>
       </defs>
       <use xlink:href="#STIXGeneral-Regular-30" transform="translate(0 0.40625)"/>
      </g>
     </g>
    </g>
    <g id="xtick_3">
     <g id="line2d_3">
      <g>
       <use xlink:href="#m7c24acc550" x="191.935633" y="303.155" style="fill: #323034; stroke: #323034; stroke-width: 0.8"/>
      </g>
     </g>
     <g id="text_3">
      <!-- $\mathdefault{2}$ -->
      <g style="fill: #323034" transform="translate(187.935633 321.0825) scale(0.16 -0.16)">
       <use xlink:href="#STIXGeneral-Regular-32" transform="translate(0 0.40625)"/>
      </g>
     </g>
    </g>
    <g id="xtick_4">
     <g id="line2d_4">
      <g>
       <use xlink:href="#m7c24acc550" x="262.095949" y="303.155" style="fill: #323034; stroke: #323034; stroke-width: 0.8"/>
      </g>
     </g>
     <g id="text_4">
      <!-- $\mathdefault{4}$ -->
      <g style="fill: #323034" transform="translate(258.095949 321.0825) scale(0.16 -0.16)">
       <defs>
        <path id="STIXGeneral-Regular-34" d="M 3027 1069 
L 2368 1069 
L 2368 0 
L 1869 0 
L 1869 1069 
L 77 1069 
L 77 1478 
L 2086 4326 
L 2368 4326 
L 2368 1478 
L 3027 1478 
L 3027 1069 
z
M 1869 1478 
L 1869 3674 
L 333 1478 
L 1869 1478 
z
" transform="scale(0.015625)"/>
       </defs>
       <use xlink:href="#STIXGeneral-Regular-34" transform="translate(0 0.40625)"/>
      </g>
     </g>
    </g>
    <g id="xtick_5">
     <g id="line2d_5">
      <g>
       <use xlink:href="#m7c24acc550" x="332.256266" y="303.155" style="fill: #323034; stroke: #323034; stroke-width: 0.8"/>
      </g>
     </g>
     <g id="text_5">
      <!-- $\mathdefault{6}$ -->
      <g style="fill: #323034" transform="translate(328.256266 321.0825) scale(0.16 -0.16)">
       <defs>
        <path id="STIXGeneral-Regular-36" d="M 2854 4378 
L 2867 4275 
Q 2112 4154 1606 3664 
Q 1101 3174 973 2451 
Q 1344 2739 1786 2739 
Q 2349 2739 2672 2380 
Q 2995 2022 2995 1402 
Q 2995 774 2669 378 
Q 2291 -90 1651 -90 
Q 870 -90 518 557 
Q 218 1107 218 1786 
Q 218 2835 915 3552 
Q 1312 3962 1731 4131 
Q 2150 4301 2854 4378 
z
M 2419 1203 
Q 2419 2445 1555 2445 
Q 1235 2445 1024 2275 
Q 813 2106 813 1702 
Q 813 954 1046 522 
Q 1280 90 1722 90 
Q 2061 90 2240 394 
Q 2419 698 2419 1203 
z
" transform="scale(0.015625)"/>
       </defs>
       <use xlink:href="#STIXGeneral-Regular-36" transform="translate(0 0.59375)"/>
      </g>
     </g>
    </g>
    <g id="text_6">
     <!-- carat -->
     <g transform="translate(176.390633 338.4825) scale(0.16 -0.16)">
      <defs>
       <path id="STIXGeneral-Regular-63" d="M 2547 998 
L 2637 941 
Q 2362 403 2112 205 
Q 1786 -64 1376 -64 
Q 845 -64 502 336 
Q 160 736 160 1357 
Q 160 2170 698 2618 
Q 1094 2944 1562 2944 
Q 1965 2944 2256 2749 
Q 2547 2554 2547 2285 
Q 2547 2176 2457 2096 
Q 2368 2016 2246 2016 
Q 2022 2016 1939 2310 
L 1901 2451 
Q 1850 2630 1773 2694 
Q 1696 2758 1523 2758 
Q 1133 2758 893 2451 
Q 653 2144 653 1645 
Q 653 1094 928 745 
Q 1203 397 1645 397 
Q 1920 397 2118 528 
Q 2317 659 2547 998 
z
" transform="scale(0.015625)"/>
       <path id="STIXGeneral-Regular-61" d="M 2829 422 
L 2829 243 
Q 2586 -64 2253 -64 
Q 1888 -64 1843 403 
L 1837 403 
Q 1427 -64 909 -64 
Q 608 -64 422 112 
Q 237 288 237 602 
Q 237 1050 685 1350 
Q 992 1555 1837 1869 
L 1837 2214 
Q 1837 2502 1699 2646 
Q 1562 2790 1338 2790 
Q 1146 2790 1018 2697 
Q 890 2605 890 2477 
Q 890 2419 909 2348 
Q 928 2278 928 2208 
Q 928 2112 841 2029 
Q 755 1946 634 1946 
Q 525 1946 441 2029 
Q 358 2112 358 2240 
Q 358 2547 685 2752 
Q 986 2944 1421 2944 
Q 1939 2944 2176 2656 
Q 2291 2522 2323 2384 
Q 2355 2246 2355 1946 
L 2355 723 
Q 2355 301 2554 301 
Q 2682 301 2829 422 
z
M 1837 813 
L 1837 1715 
Q 1248 1510 1018 1293 
Q 800 1094 800 800 
Q 800 557 921 432 
Q 1043 307 1242 307 
Q 1453 307 1613 410 
Q 1747 506 1792 589 
Q 1837 672 1837 813 
z
" transform="scale(0.015625)"/>
       <path id="STIXGeneral-Regular-72" d="M 1024 2931 
L 1024 2342 
Q 1267 2688 1430 2816 
Q 1594 2944 1792 2944 
Q 1958 2944 2051 2854 
Q 2144 2765 2144 2605 
Q 2144 2470 2077 2393 
Q 2010 2317 1894 2317 
Q 1773 2317 1638 2445 
Q 1536 2541 1472 2541 
Q 1338 2541 1181 2355 
Q 1024 2170 1024 2016 
L 1024 576 
Q 1024 301 1133 205 
Q 1242 109 1568 96 
L 1568 0 
L 32 0 
L 32 96 
Q 339 154 412 224 
Q 486 294 486 538 
L 486 2138 
Q 486 2349 438 2435 
Q 390 2522 269 2522 
Q 166 2522 45 2496 
L 45 2598 
Q 448 2726 992 2944 
L 1024 2931 
z
" transform="scale(0.015625)"/>
       <path id="STIXGeneral-Regular-74" d="M 1702 493 
L 1786 422 
Q 1478 -64 1011 -64 
Q 448 -64 448 749 
L 448 2675 
L 109 2675 
Q 83 2694 83 2720 
Q 83 2771 192 2842 
Q 435 2982 813 3526 
Q 826 3546 874 3606 
Q 922 3667 941 3706 
Q 986 3706 986 3622 
L 986 2880 
L 1632 2880 
L 1632 2675 
L 986 2675 
L 986 845 
Q 986 538 1062 403 
Q 1139 269 1318 269 
Q 1510 269 1702 493 
z
" transform="scale(0.015625)"/>
      </defs>
      <use xlink:href="#STIXGeneral-Regular-63"/>
      <use xlink:href="#STIXGeneral-Regular-61" x="44.399994"/>
      <use xlink:href="#STIXGeneral-Regular-72" x="88.799988"/>
      <use xlink:href="#STIXGeneral-Regular-61" x="122.099976"/>
      <use xlink:href="#STIXGeneral-Regular-74" x="166.499969"/>
     </g>
    </g>
   </g>
   <g id="matplotlib.axis_2">
    <g id="ytick_1">
     <g id="line2d_6">
      <defs>
       <path id="m085d883c29" d="M 0 0 
L -3.5 0 
" style="stroke: #323034; stroke-width: 0.8"/>
      </defs>
      <g>
       <use xlink:href="#m085d883c29" x="51.615" y="303.155" style="fill: #323034; stroke: #323034; stroke-width: 0.8"/>
      </g>
     </g>
     <g id="text_7">
      <!-- $\mathdefault{0.0}$ -->
      <g style="fill: #323034" transform="translate(24.615 308.61875) scale(0.16 -0.16)">
       <defs>
        <path id="STIXGeneral-Regular-2e" d="M 1158 275 
Q 1158 134 1052 32 
Q 947 -70 800 -70 
Q 653 -70 550 32 
Q 448 134 448 281 
Q 448 429 553 534 
Q 659 640 806 640 
Q 947 640 1052 531 
Q 1158 422 1158 275 
z
" transform="scale(0.015625)"/>
       </defs>
       <use xlink:href="#STIXGeneral-Regular-30" transform="translate(0 0.40625)"/>
       <use xlink:href="#STIXGeneral-Regular-2e" transform="translate(49.999985 0.40625)"/>
       <use xlink:href="#STIXGeneral-Regular-30" transform="translate(74.999969 0.40625)"/>
      </g>
     </g>
    </g>
    <g id="ytick_2">
     <g id="line2d_7">
      <g>
       <use xlink:href="#m085d883c29" x="51.615" y="261.65625" style="fill: #323034; stroke: #323034; stroke-width: 0.8"/>
      </g>
     </g>
     <g id="text_8">
      <!-- $\mathdefault{0.1}$ -->
      <g style="fill: #323034" transform="translate(24.615 267.12) scale(0.16 -0.16)">
       <defs>
        <path id="STIXGeneral-Regular-31" d="M 2522 0 
L 755 0 
L 755 96 
Q 1107 115 1235 227 
Q 1363 339 1363 608 
L 1363 3482 
Q 1363 3795 1171 3795 
Q 1082 3795 883 3718 
L 710 3654 
L 710 3744 
L 1856 4326 
L 1914 4307 
L 1914 486 
Q 1914 275 2042 185 
Q 2170 96 2522 96 
L 2522 0 
z
" transform="scale(0.015625)"/>
       </defs>
       <use xlink:href="#STIXGeneral-Regular-30" transform="translate(0 0.40625)"/>
       <use xlink:href="#STIXGeneral-Regular-2e" transform="translate(49.999985 0.40625)"/>
       <use xlink:href="#STIXGeneral-Regular-31" transform="translate(74.999969 0.40625)"/>
      </g>
     </g>
    </g>
    <g id="ytick_3">
     <g id="line2d_8">
      <g>
       <use xlink:href="#m085d883c29" x="51.615" y="220.1575" style="fill: #323034; stroke: #323034; stroke-width: 0.8"/>
      </g>
     </g>
     <g id="text_9">
      <!-- $\mathdefault{0.2}$ -->
      <g style="fill: #323034" transform="translate(24.615 225.62125) scale(0.16 -0.16)">
       <use xlink:href="#STIXGeneral-Regular-30" transform="translate(0 0.40625)"/>
       <use xlink:href="#STIXGeneral-Regular-2e" transform="translate(49.999985 0.40625)"/>
       <use xlink:href="#STIXGeneral-Regular-32" transform="translate(74.999969 0.40625)"/>
      </g>
     </g>
    </g>
    <g id="ytick_4">
     <g id="line2d_9">
      <g>
       <use xlink:href="#m085d883c29" x="51.615" y="178.65875" style="fill: #323034; stroke: #323034; stroke-width: 0.8"/>
      </g>
     </g>
     <g id="text_10">
      <!-- $\mathdefault{0.3}$ -->
      <g style="fill: #323034" transform="translate(24.615 184.1225) scale(0.16 -0.16)">
       <defs>
        <path id="STIXGeneral-Regular-33" d="M 390 3264 
L 288 3290 
Q 435 3770 748 4048 
Q 1062 4326 1542 4326 
Q 1990 4326 2265 4083 
Q 2541 3840 2541 3450 
Q 2541 2925 1946 2566 
Q 2298 2413 2477 2227 
Q 2758 1914 2758 1402 
Q 2758 890 2464 506 
Q 2246 211 1840 60 
Q 1434 -90 979 -90 
Q 262 -90 262 275 
Q 262 378 339 442 
Q 416 506 525 506 
Q 685 506 915 339 
Q 1197 141 1466 141 
Q 1818 141 2058 425 
Q 2298 710 2298 1120 
Q 2298 1856 1632 2048 
Q 1434 2112 979 2112 
L 979 2202 
Q 1338 2323 1517 2432 
Q 2035 2726 2035 3290 
Q 2035 3610 1852 3776 
Q 1670 3942 1344 3942 
Q 768 3942 390 3264 
z
" transform="scale(0.015625)"/>
       </defs>
       <use xlink:href="#STIXGeneral-Regular-30" transform="translate(0 0.40625)"/>
       <use xlink:href="#STIXGeneral-Regular-2e" transform="translate(49.999985 0.40625)"/>
       <use xlink:href="#STIXGeneral-Regular-33" transform="translate(74.999969 0.40625)"/>
      </g>
     </g>
    </g>
    <g id="ytick_5">
     <g id="line2d_10">
      <g>
       <use xlink:href="#m085d883c29" x="51.615" y="137.16" style="fill: #323034; stroke: #323034; stroke-width: 0.8"/>
      </g>
     </g>
     <g id="text_11">
      <!-- $\mathdefault{0.4}$ -->
      <g style="fill: #323034" transform="translate(24.615 142.62375) scale(0.16 -0.16)">
       <use xlink:href="#STIXGeneral-Regular-30" transform="translate(0 0.40625)"/>
       <use xlink:href="#STIXGeneral-Regular-2e" transform="translate(49.999985 0.40625)"/>
       <use xlink:href="#STIXGeneral-Regular-34" transform="translate(74.999969 0.40625)"/>
      </g>
     </g>
    </g>
    <g id="ytick_6">
     <g id="line2d_11">
      <g>
       <use xlink:href="#m085d883c29" x="51.615" y="95.66125" style="fill: #323034; stroke: #323034; stroke-width: 0.8"/>
      </g>
     </g>
     <g id="text_12">
      <!-- $\mathdefault{0.5}$ -->
      <g style="fill: #323034" transform="translate(24.615 101.125) scale(0.16 -0.16)">
       <defs>
        <path id="STIXGeneral-Regular-35" d="M 2803 4358 
L 2573 3814 
Q 2534 3731 2400 3731 
L 1158 3731 
L 902 3187 
Q 1606 3053 1920 2896 
Q 2234 2739 2502 2368 
Q 2726 2061 2726 1555 
Q 2726 1094 2576 780 
Q 2426 467 2099 224 
Q 1664 -90 1011 -90 
Q 646 -90 422 19 
Q 198 128 198 307 
Q 198 550 486 550 
Q 717 550 960 352 
Q 1210 147 1414 147 
Q 1747 147 2012 480 
Q 2278 813 2278 1229 
Q 2278 1843 1850 2189 
Q 1293 2637 486 2637 
Q 410 2637 410 2688 
L 416 2720 
L 1114 4237 
L 2438 4237 
Q 2547 4237 2608 4269 
Q 2669 4301 2746 4403 
L 2803 4358 
z
" transform="scale(0.015625)"/>
       </defs>
       <use xlink:href="#STIXGeneral-Regular-30" transform="translate(0 0.203125)"/>
       <use xlink:href="#STIXGeneral-Regular-2e" transform="translate(49.999985 0.203125)"/>
       <use xlink:href="#STIXGeneral-Regular-35" transform="translate(74.999969 0.203125)"/>
      </g>
     </g>
    </g>
    <g id="ytick_7">
     <g id="line2d_12">
      <g>
       <use xlink:href="#m085d883c29" x="51.615" y="54.1625" style="fill: #323034; stroke: #323034; stroke-width: 0.8"/>
      </g>
     </g>
     <g id="text_13">
      <!-- $\mathdefault{0.6}$ -->
      <g style="fill: #323034" transform="translate(24.615 59.62625) scale(0.16 -0.16)">
       <use xlink:href="#STIXGeneral-Regular-30" transform="translate(0 0.59375)"/>
       <use xlink:href="#STIXGeneral-Regular-2e" transform="translate(49.999985 0.59375)"/>
       <use xlink:href="#STIXGeneral-Regular-36" transform="translate(74.999969 0.59375)"/>
      </g>
     </g>
    </g>
    <g id="ytick_8">
     <g id="line2d_13">
      <g>
       <use xlink:href="#m085d883c29" x="51.615" y="12.66375" style="fill: #323034; stroke: #323034; stroke-width: 0.8"/>
      </g>
     </g>
     <g id="text_14">
      <!-- $\mathdefault{0.7}$ -->
      <g style="fill: #323034" transform="translate(24.615 18.1275) scale(0.16 -0.16)">
       <defs>
        <path id="STIXGeneral-Regular-37" d="M 2874 4134 
L 1517 -51 
L 1101 -51 
L 2368 3763 
L 992 3763 
Q 717 3763 582 3667 
Q 448 3571 243 3238 
L 128 3296 
L 512 4237 
L 2874 4237 
L 2874 4134 
z
" transform="scale(0.015625)"/>
       </defs>
       <use xlink:href="#STIXGeneral-Regular-30" transform="translate(0 0.40625)"/>
       <use xlink:href="#STIXGeneral-Regular-2e" transform="translate(49.999985 0.40625)"/>
       <use xlink:href="#STIXGeneral-Regular-37" transform="translate(74.999969 0.40625)"/>
      </g>
     </g>
    </g>
    <g id="text_15">
     <!-- Density -->
     <g transform="translate(18.1275 182.798125) rotate(-90) scale(0.16 -0.16)">
      <defs>
       <path id="STIXGeneral-Regular-44" d="M 102 4237 
L 1830 4237 
Q 3078 4237 3750 3654 
Q 4384 3110 4384 2138 
Q 4384 966 3514 410 
Q 2880 0 1901 0 
L 102 0 
L 102 122 
Q 474 147 570 252 
Q 666 358 666 736 
L 666 3520 
Q 666 3891 570 3990 
Q 474 4090 102 4115 
L 102 4237 
z
M 1318 3731 
L 1318 538 
Q 1318 365 1379 301 
Q 1440 237 1626 237 
Q 2125 237 2432 307 
Q 2739 378 3021 570 
Q 3686 1018 3686 2099 
Q 3686 3027 3078 3558 
Q 2803 3802 2476 3901 
Q 2150 4000 1658 4000 
Q 1472 4000 1395 3942 
Q 1318 3885 1318 3731 
z
" transform="scale(0.015625)"/>
       <path id="STIXGeneral-Regular-65" d="M 2611 1050 
L 2714 1005 
Q 2330 -64 1376 -64 
Q 813 -64 486 329 
Q 160 723 160 1389 
Q 160 2074 525 2509 
Q 890 2944 1485 2944 
Q 2061 2944 2374 2502 
Q 2560 2246 2592 1773 
L 621 1773 
Q 646 1370 700 1158 
Q 755 947 915 730 
Q 1184 378 1626 378 
Q 1939 378 2153 531 
Q 2368 685 2611 1050 
z
M 634 1978 
L 1939 1978 
Q 1882 2381 1750 2547 
Q 1619 2714 1312 2714 
Q 1043 2714 864 2525 
Q 685 2336 634 1978 
z
" transform="scale(0.015625)"/>
       <path id="STIXGeneral-Regular-6e" d="M 3104 0 
L 1773 0 
L 1779 96 
Q 2016 115 2096 233 
Q 2176 352 2176 672 
L 2176 1946 
Q 2176 2592 1709 2592 
Q 1549 2592 1408 2515 
Q 1267 2438 1050 2227 
L 1050 461 
Q 1050 269 1136 192 
Q 1222 115 1466 96 
L 1466 0 
L 115 0 
L 115 96 
Q 358 115 435 214 
Q 512 314 512 602 
L 512 2157 
Q 512 2394 467 2483 
Q 422 2573 288 2573 
Q 160 2573 102 2547 
L 102 2656 
Q 550 2784 979 2944 
L 1030 2925 
L 1030 2426 
L 1037 2426 
Q 1491 2944 1958 2944 
Q 2323 2944 2518 2688 
Q 2714 2432 2714 1958 
L 2714 544 
Q 2714 288 2790 205 
Q 2867 122 3104 96 
L 3104 0 
z
" transform="scale(0.015625)"/>
       <path id="STIXGeneral-Regular-73" d="M 998 1926 
L 1664 1523 
Q 1984 1331 2105 1164 
Q 2227 998 2227 736 
Q 2227 416 1961 176 
Q 1696 -64 1331 -64 
Q 1030 -64 864 -6 
Q 691 51 570 51 
Q 461 51 416 -26 
L 333 -26 
L 333 979 
L 435 979 
Q 538 512 730 294 
Q 922 77 1248 77 
Q 1485 77 1632 211 
Q 1779 346 1779 550 
Q 1779 845 1440 1030 
L 1094 1222 
Q 326 1651 326 2150 
Q 326 2522 566 2730 
Q 806 2938 1210 2938 
Q 1491 2938 1638 2867 
Q 1754 2816 1818 2816 
Q 1862 2816 1920 2880 
L 1990 2880 
L 2022 2010 
L 1926 2010 
Q 1818 2445 1654 2621 
Q 1491 2797 1203 2797 
Q 986 2797 854 2688 
Q 723 2579 723 2362 
Q 723 2253 796 2128 
Q 870 2003 998 1926 
z
" transform="scale(0.015625)"/>
       <path id="STIXGeneral-Regular-69" d="M 1152 4045 
Q 1152 3904 1056 3811 
Q 960 3718 819 3718 
Q 685 3718 592 3811 
Q 499 3904 499 4045 
Q 499 4179 595 4275 
Q 691 4371 826 4371 
Q 966 4371 1059 4275 
Q 1152 4179 1152 4045 
z
M 1619 0 
L 102 0 
L 102 96 
Q 435 115 521 211 
Q 608 307 608 666 
L 608 2118 
Q 608 2342 563 2432 
Q 518 2522 397 2522 
Q 243 2522 128 2490 
L 128 2592 
L 1120 2944 
L 1146 2918 
L 1146 672 
Q 1146 314 1226 218 
Q 1306 122 1619 96 
L 1619 0 
z
" transform="scale(0.015625)"/>
       <path id="STIXGeneral-Regular-79" d="M 3040 2880 
L 3040 2784 
Q 2925 2771 2854 2700 
Q 2784 2630 2720 2458 
L 1760 -160 
Q 1510 -838 1257 -1116 
Q 1005 -1395 640 -1395 
Q 435 -1395 313 -1289 
Q 192 -1184 192 -1024 
Q 192 -902 272 -816 
Q 352 -730 467 -730 
Q 653 -730 800 -813 
Q 883 -858 966 -858 
Q 1101 -858 1286 -576 
Q 1376 -448 1459 -211 
Q 1542 26 1542 115 
Q 1542 198 1274 762 
L 429 2566 
Q 346 2752 90 2790 
L 90 2880 
L 1402 2880 
L 1402 2784 
Q 1197 2778 1117 2739 
Q 1037 2701 1037 2611 
Q 1037 2541 1120 2349 
L 1837 749 
L 2458 2515 
Q 2483 2573 2483 2630 
Q 2483 2784 2189 2784 
L 2189 2880 
L 3040 2880 
z
" transform="scale(0.015625)"/>
      </defs>
      <use xlink:href="#STIXGeneral-Regular-44"/>
      <use xlink:href="#STIXGeneral-Regular-65" x="72.199982"/>
      <use xlink:href="#STIXGeneral-Regular-6e" x="116.599976"/>
      <use xlink:href="#STIXGeneral-Regular-73" x="166.59996"/>
      <use xlink:href="#STIXGeneral-Regular-69" x="205.499954"/>
      <use xlink:href="#STIXGeneral-Regular-74" x="233.299942"/>
      <use xlink:href="#STIXGeneral-Regular-79" x="261.09993"/>
     </g>
    </g>
   </g>
   <g id="patch_3">
    <path d="M 51.615 303.155 
L 51.615 12.66375 
" style="fill: none; stroke: #000000; stroke-width: 0.6; stroke-linejoin: miter; stroke-linecap: square"/>
   </g>
   <g id="patch_4">
    <path d="M 51.615 303.155 
L 332.256266 303.155 
" style="fill: none; stroke: #000000; stroke-width: 0.6; stroke-linejoin: miter; stroke-linecap: square"/>
   </g>
  </g>
  <g id="legend_1">
   <g id="text_16">
    <!-- cut -->
    <g style="fill: #323034" transform="translate(385.464453 138.788437) scale(0.16 -0.16)">
     <defs>
      <path id="STIXGeneral-Regular-75" d="M 3072 320 
L 3072 230 
Q 2573 96 2195 -58 
L 2163 -38 
L 2163 486 
L 2150 486 
Q 1747 -64 1235 -64 
Q 870 -64 662 160 
Q 454 384 454 755 
L 454 2362 
Q 454 2598 371 2688 
Q 288 2778 58 2790 
L 58 2880 
L 992 2880 
L 992 813 
Q 992 595 1123 451 
Q 1254 307 1446 307 
Q 1760 307 1984 506 
Q 2067 582 2099 649 
Q 2131 717 2131 877 
L 2131 2355 
Q 2131 2605 2041 2678 
Q 1952 2752 1658 2771 
L 1658 2880 
L 2669 2880 
L 2669 685 
Q 2669 461 2742 390 
Q 2816 320 3034 320 
L 3072 320 
z
" transform="scale(0.015625)"/>
     </defs>
     <use xlink:href="#STIXGeneral-Regular-63"/>
     <use xlink:href="#STIXGeneral-Regular-75" x="44.399994"/>
     <use xlink:href="#STIXGeneral-Regular-74" x="94.399979"/>
    </g>
   </g>
   <g id="patch_5">
    <path d="M 351.614141 155.460938 
L 375.614141 155.460938 
L 375.614141 147.060937 
L 351.614141 147.060937 
z
" style="fill: #bc80bd; fill-opacity: 0.25; stroke: #bc80bd; stroke-width: 0.8; stroke-linejoin: miter"/>
   </g>
   <g id="text_17">
    <!-- Ideal -->
    <g style="fill: #323034" transform="translate(385.214141 155.460938) scale(0.12 -0.12)">
     <defs>
      <path id="STIXGeneral-Regular-49" d="M 2016 0 
L 115 0 
L 115 122 
Q 518 134 627 240 
Q 736 346 736 717 
L 736 3526 
Q 736 3898 633 3994 
Q 531 4090 115 4115 
L 115 4237 
L 2016 4237 
L 2016 4115 
Q 1613 4096 1501 3993 
Q 1389 3891 1389 3526 
L 1389 717 
Q 1389 358 1504 246 
Q 1619 134 2016 122 
L 2016 0 
z
" transform="scale(0.015625)"/>
      <path id="STIXGeneral-Regular-64" d="M 3142 269 
L 2202 -64 
L 2176 -45 
L 2176 365 
Q 1869 -64 1357 -64 
Q 826 -64 499 317 
Q 173 698 173 1312 
Q 173 1990 563 2467 
Q 954 2944 1504 2944 
Q 1850 2944 2176 2669 
L 2176 3667 
Q 2176 3866 2118 3930 
Q 2061 3994 1882 3994 
Q 1792 3994 1741 3987 
L 1741 4090 
Q 2323 4243 2682 4371 
L 2714 4358 
L 2714 730 
Q 2714 506 2768 435 
Q 2822 365 2995 365 
Q 3034 365 3142 371 
L 3142 269 
z
M 2176 653 
L 2176 2125 
Q 2176 2381 1981 2573 
Q 1786 2765 1523 2765 
Q 1158 2765 940 2438 
Q 723 2112 723 1568 
Q 723 979 963 624 
Q 1203 269 1606 269 
Q 1907 269 2080 474 
Q 2176 582 2176 653 
z
" transform="scale(0.015625)"/>
      <path id="STIXGeneral-Regular-6c" d="M 1645 0 
L 134 0 
L 134 96 
Q 435 122 531 221 
Q 627 320 627 589 
L 627 3590 
Q 627 3821 569 3910 
Q 512 4000 358 4000 
Q 224 4000 122 3987 
L 122 4090 
Q 730 4237 1133 4371 
L 1165 4346 
L 1165 557 
Q 1165 288 1254 201 
Q 1344 115 1645 96 
L 1645 0 
z
" transform="scale(0.015625)"/>
     </defs>
     <use xlink:href="#STIXGeneral-Regular-49"/>
     <use xlink:href="#STIXGeneral-Regular-64" x="33.299988"/>
     <use xlink:href="#STIXGeneral-Regular-65" x="83.299973"/>
     <use xlink:href="#STIXGeneral-Regular-61" x="127.699966"/>
     <use xlink:href="#STIXGeneral-Regular-6c" x="172.09996"/>
    </g>
   </g>
   <g id="patch_6">
    <path d="M 351.614141 171.265312 
L 375.614141 171.265312 
L 375.614141 162.865312 
L 351.614141 162.865312 
z
" style="fill: #fb8072; fill-opacity: 0.25; stroke: #fb8072; stroke-width: 0.8; stroke-linejoin: miter"/>
   </g>
   <g id="text_18">
    <!-- Premium -->
    <g style="fill: #323034" transform="translate(385.214141 171.265312) scale(0.12 -0.12)">
     <defs>
      <path id="STIXGeneral-Regular-50" d="M 102 4237 
L 1760 4237 
Q 2669 4237 3149 3834 
Q 3469 3565 3469 3072 
Q 3469 2560 3104 2234 
Q 2835 1990 2553 1916 
Q 2272 1843 1734 1843 
Q 1549 1843 1293 1862 
L 1293 717 
Q 1293 352 1398 246 
Q 1504 141 1894 122 
L 1894 0 
L 102 0 
L 102 122 
Q 474 147 557 256 
Q 640 365 640 781 
L 640 3526 
Q 640 3885 547 3987 
Q 454 4090 102 4115 
L 102 4237 
z
M 1293 3770 
L 1293 2118 
Q 1510 2099 1683 2099 
Q 2202 2099 2486 2352 
Q 2771 2605 2771 3040 
Q 2771 3558 2476 3779 
Q 2182 4000 1517 4000 
Q 1382 4000 1337 3952 
Q 1293 3904 1293 3770 
z
" transform="scale(0.015625)"/>
      <path id="STIXGeneral-Regular-6d" d="M 4960 0 
L 3565 0 
L 3565 96 
Q 3834 122 3907 208 
Q 3981 294 3981 576 
L 3981 1894 
Q 3981 2278 3869 2444 
Q 3757 2611 3488 2611 
Q 3264 2611 3107 2521 
Q 2950 2432 2803 2221 
L 2803 608 
Q 2803 301 2896 201 
Q 2989 102 3264 96 
L 3264 0 
L 1830 0 
L 1830 96 
Q 2112 115 2189 188 
Q 2266 262 2266 550 
L 2266 1901 
Q 2266 2611 1850 2611 
Q 1670 2611 1468 2531 
Q 1267 2451 1171 2336 
Q 1088 2240 1088 2227 
L 1088 448 
Q 1088 243 1177 176 
Q 1267 109 1523 96 
L 1523 0 
L 102 0 
L 102 96 
Q 371 102 460 195 
Q 550 288 550 563 
L 550 2150 
Q 550 2387 499 2480 
Q 448 2573 326 2573 
Q 230 2573 122 2547 
L 122 2656 
Q 557 2778 1011 2944 
L 1062 2925 
L 1062 2451 
L 1075 2451 
Q 1363 2752 1584 2848 
Q 1805 2944 2054 2944 
Q 2560 2944 2733 2406 
Q 3232 2944 3776 2944 
Q 4518 2944 4518 1792 
L 4518 493 
Q 4518 282 4582 202 
Q 4646 122 4794 109 
L 4960 96 
L 4960 0 
z
" transform="scale(0.015625)"/>
     </defs>
     <use xlink:href="#STIXGeneral-Regular-50"/>
     <use xlink:href="#STIXGeneral-Regular-72" x="55.699997"/>
     <use xlink:href="#STIXGeneral-Regular-65" x="88.999985"/>
     <use xlink:href="#STIXGeneral-Regular-6d" x="133.399979"/>
     <use xlink:href="#STIXGeneral-Regular-69" x="211.199966"/>
     <use xlink:href="#STIXGeneral-Regular-75" x="238.999954"/>
     <use xlink:href="#STIXGeneral-Regular-6d" x="288.999939"/>
    </g>
   </g>
   <g id="patch_7">
    <path d="M 351.614141 187.069687 
L 375.614141 187.069687 
L 375.614141 178.669687 
L 351.614141 178.669687 
z
" style="fill: #b3de69; fill-opacity: 0.25; stroke: #b3de69; stroke-width: 0.8; stroke-linejoin: miter"/>
   </g>
   <g id="text_19">
    <!-- Very Good -->
    <g style="fill: #323034" transform="translate(385.214141 187.069687) scale(0.12 -0.12)">
     <defs>
      <path id="STIXGeneral-Regular-56" d="M 4461 4237 
L 4461 4115 
Q 4262 4109 4134 3990 
Q 4006 3872 3872 3533 
L 2451 -70 
L 2355 -70 
L 794 3411 
Q 589 3866 467 3987 
Q 346 4109 102 4115 
L 102 4237 
L 1798 4237 
L 1798 4115 
L 1619 4102 
Q 1331 4083 1331 3904 
Q 1331 3776 1581 3219 
L 2554 1030 
L 3494 3392 
Q 3616 3699 3616 3853 
Q 3616 3898 3606 3933 
Q 3597 3968 3584 3993 
Q 3571 4019 3536 4038 
Q 3501 4058 3481 4067 
Q 3462 4077 3411 4086 
Q 3360 4096 3337 4099 
Q 3315 4102 3248 4108 
Q 3181 4115 3155 4115 
L 3155 4237 
L 4461 4237 
z
" transform="scale(0.015625)"/>
      <path id="STIXGeneral-Regular-20" transform="scale(0.015625)"/>
      <path id="STIXGeneral-Regular-47" d="M 4538 2266 
L 4538 2150 
Q 4256 2125 4173 2035 
Q 4090 1946 4090 1638 
L 4090 358 
Q 3539 -90 2464 -90 
Q 1965 -90 1507 89 
Q 1050 269 736 595 
Q 205 1152 205 2093 
Q 205 3155 890 3776 
Q 1491 4326 2419 4326 
Q 2829 4326 3270 4179 
Q 3443 4115 3552 4115 
Q 3654 4115 3731 4176 
Q 3808 4237 3840 4326 
L 3981 4326 
L 4032 2976 
L 3885 2976 
Q 3680 3475 3430 3718 
Q 3059 4070 2496 4070 
Q 1856 4070 1427 3629 
Q 934 3136 934 2074 
Q 934 1190 1395 678 
Q 1856 166 2618 166 
Q 2982 166 3225 281 
Q 3469 397 3469 557 
L 3469 1562 
Q 3469 1933 3376 2025 
Q 3283 2118 2899 2150 
L 2899 2266 
L 4538 2266 
z
" transform="scale(0.015625)"/>
      <path id="STIXGeneral-Regular-6f" d="M 3008 1478 
Q 3008 806 2608 371 
Q 2208 -64 1568 -64 
Q 979 -64 582 368 
Q 186 800 186 1459 
Q 186 2125 582 2534 
Q 979 2944 1626 2944 
Q 2221 2944 2614 2537 
Q 3008 2131 3008 1478 
z
M 2432 1306 
Q 2432 2035 2112 2445 
Q 1856 2765 1504 2765 
Q 1171 2765 966 2493 
Q 762 2221 762 1747 
Q 762 928 1101 435 
Q 1318 115 1677 115 
Q 2029 115 2230 432 
Q 2432 749 2432 1306 
z
" transform="scale(0.015625)"/>
     </defs>
     <use xlink:href="#STIXGeneral-Regular-56"/>
     <use xlink:href="#STIXGeneral-Regular-65" x="72.199982"/>
     <use xlink:href="#STIXGeneral-Regular-72" x="116.599976"/>
     <use xlink:href="#STIXGeneral-Regular-79" x="149.899963"/>
     <use xlink:href="#STIXGeneral-Regular-20" x="199.899948"/>
     <use xlink:href="#STIXGeneral-Regular-47" x="224.899933"/>
     <use xlink:href="#STIXGeneral-Regular-6f" x="297.099915"/>
     <use xlink:href="#STIXGeneral-Regular-6f" x="347.099899"/>
     <use xlink:href="#STIXGeneral-Regular-64" x="397.099884"/>
    </g>
   </g>
   <g id="patch_8">
    <path d="M 351.614141 202.885312 
L 375.614141 202.885312 
L 375.614141 194.485312 
L 351.614141 194.485312 
z
" style="fill: #fdb462; fill-opacity: 0.25; stroke: #fdb462; stroke-width: 0.8; stroke-linejoin: miter"/>
   </g>
   <g id="text_20">
    <!-- Good -->
    <g style="fill: #323034" transform="translate(385.214141 202.885312) scale(0.12 -0.12)">
     <use xlink:href="#STIXGeneral-Regular-47"/>
     <use xlink:href="#STIXGeneral-Regular-6f" x="72.199982"/>
     <use xlink:href="#STIXGeneral-Regular-6f" x="122.199966"/>
     <use xlink:href="#STIXGeneral-Regular-64" x="172.199951"/>
    </g>
   </g>
   <g id="patch_9">
    <path d="M 351.614141 218.689687 
L 375.614141 218.689687 
L 375.614141 210.289687 
L 351.614141 210.289687 
z
" style="fill: #fccde5; fill-opacity: 0.25; stroke: #fccde5; stroke-width: 0.8; stroke-linejoin: miter"/>
   </g>
   <g id="text_21">
    <!-- Fair -->
    <g style="fill: #323034" transform="translate(385.214141 218.689687) scale(0.12 -0.12)">
     <defs>
      <path id="STIXGeneral-Regular-46" d="M 3494 3322 
L 3334 3322 
Q 3264 3757 3094 3875 
Q 2925 3994 2349 3994 
L 1504 3994 
Q 1370 3994 1328 3946 
Q 1286 3898 1286 3744 
L 1286 2355 
L 2195 2355 
Q 2598 2355 2736 2470 
Q 2874 2586 2918 2963 
L 3066 2963 
L 3066 1472 
L 2918 1472 
Q 2880 1862 2745 1977 
Q 2611 2093 2195 2093 
L 1286 2093 
L 1286 717 
Q 1286 352 1392 246 
Q 1498 141 1869 122 
L 1869 0 
L 70 0 
L 70 122 
Q 435 147 534 259 
Q 634 371 634 787 
L 634 3526 
Q 634 3878 538 3984 
Q 442 4090 77 4115 
L 77 4237 
L 3462 4237 
L 3494 3322 
z
" transform="scale(0.015625)"/>
     </defs>
     <use xlink:href="#STIXGeneral-Regular-46"/>
     <use xlink:href="#STIXGeneral-Regular-61" x="55.599991"/>
     <use xlink:href="#STIXGeneral-Regular-69" x="99.999985"/>
     <use xlink:href="#STIXGeneral-Regular-72" x="127.799973"/>
    </g>
   </g>
  </g>
 </g>
 <defs>
  <clipPath id="p14cc5a7625">
   <rect x="51.615" y="12.66375" width="280.641266" height="290.49125"/>
  </clipPath>
 </defs>
</svg>